solid CDTVKeyboard_Stud_Adapter
facet normal 0.38268343236508917 -0.9238795325112872 0.0
  outer loop
    vertex 2.099999999999997 -3.6373066958946443 0.0
    vertex 1.087039989430585 -4.056888470414088 -3.8000000000000003
    vertex 2.099999999999997 -3.6373066958946443 -3.8000000000000003
  endloop
endfacet
facet normal 0.38268343236508917 -0.9238795325112872 0.0
  outer loop
    vertex 1.087039989430585 -4.056888470414088 -3.8000000000000003
    vertex 2.099999999999997 -3.6373066958946443 0.0
    vertex 1.087039989430585 -4.056888470414088 0.0
  endloop
endfacet
facet normal -0.9914448613738106 0.13052619222005155 0.0
  outer loop
    vertex -4.056888470414087 1.0870399894305887 0.0
    vertex -4.2 7.049916206369744e-16 -3.8000000000000003
    vertex -4.2 7.049916206369744e-16 0.0
  endloop
endfacet
facet normal -0.9914448613738106 0.13052619222005155 0.0
  outer loop
    vertex -4.2 7.049916206369744e-16 -3.8000000000000003
    vertex -4.056888470414087 1.0870399894305887 0.0
    vertex -4.056888470414087 1.0870399894305887 -3.8000000000000003
  endloop
endfacet
facet normal -0.46932788815187154 0.8830239710239493 0.0
  outer loop
    vertex 0.7001099328616202 -1.873458321369466 1.8000000000000003
    vertex 1.1611409591687607 -1.628419992796898 -0.19999999999999962
    vertex 0.7001099328616202 -1.873458321369466 -0.19999999999999962
  endloop
endfacet
facet normal -0.46932788815187154 0.8830239710239493 0.0
  outer loop
    vertex 1.1611409591687607 -1.628419992796898 -0.19999999999999962
    vertex 0.7001099328616202 -1.873458321369466 1.8000000000000003
    vertex 1.1611409591687607 -1.628419992796898 1.8000000000000003
  endloop
endfacet
facet normal -0.7933533402912353 0.6087614290087208 0.0
  outer loop
    vertex 2.5980762113533156 -1.5000000000000016 -0.20000000000000034
    vertex 2.1213203435596424 -2.1213203435596433 -3.8000000000000003
    vertex 2.1213203435596424 -2.1213203435596433 -0.20000000000000034
  endloop
endfacet
facet normal -0.7933533402912353 0.6087614290087208 0.0
  outer loop
    vertex 2.1213203435596424 -2.1213203435596433 -3.8000000000000003
    vertex 2.5980762113533156 -1.5000000000000016 -0.20000000000000034
    vertex 2.5980762113533156 -1.5000000000000016 -3.8000000000000003
  endloop
endfacet
facet normal -0.9238795325112865 0.3826834323650904 0.0
  outer loop
    vertex 2.897777478867204 -0.7764571353075648 -0.20000000000000034
    vertex 2.5980762113533156 -1.5000000000000016 -3.8000000000000003
    vertex 2.5980762113533156 -1.5000000000000016 -0.20000000000000034
  endloop
endfacet
facet normal -0.9238795325112865 0.3826834323650904 0.0
  outer loop
    vertex 2.5980762113533156 -1.5000000000000016 -3.8000000000000003
    vertex 2.897777478867204 -0.7764571353075648 -0.20000000000000034
    vertex 2.897777478867204 -0.7764571353075648 -3.8000000000000003
  endloop
endfacet
facet normal 0.13052619222005135 -0.9914448613738105 0.0
  outer loop
    vertex 0.0 3.000000000000001 -0.20000000000000034
    vertex -0.776457135307562 2.8977774788672055 -3.8000000000000003
    vertex 0.0 3.000000000000001 -3.8000000000000003
  endloop
endfacet
facet normal 0.13052619222005135 -0.9914448613738105 0.0
  outer loop
    vertex -0.776457135307562 2.8977774788672055 -3.8000000000000003
    vertex 0.0 3.000000000000001 -0.20000000000000034
    vertex -0.776457135307562 2.8977774788672055 -0.20000000000000034
  endloop
endfacet
facet normal -0.13052619222005168 -0.9914448613738105 -0.0
  outer loop
    vertex 0.7764571353075627 2.8977774788672055 -0.20000000000000034
    vertex 0.0 3.000000000000001 -3.8000000000000003
    vertex 0.7764571353075627 2.8977774788672055 -3.8000000000000003
  endloop
endfacet
facet normal -0.13052619222005168 -0.9914448613738105 -0.0
  outer loop
    vertex 0.0 3.000000000000001 -3.8000000000000003
    vertex 0.7764571353075627 2.8977774788672055 -0.20000000000000034
    vertex 0.0 3.000000000000001 -0.20000000000000034
  endloop
endfacet
facet normal -0.7933533402912353 -0.6087614290087204 -0.0
  outer loop
    vertex 2.121320343559643 2.121320343559643 -0.20000000000000034
    vertex 2.5980762113533156 1.5 -3.8000000000000003
    vertex 2.5980762113533156 1.5 -0.20000000000000034
  endloop
endfacet
facet normal -0.7933533402912353 -0.6087614290087204 -0.0
  outer loop
    vertex 2.5980762113533156 1.5 -3.8000000000000003
    vertex 2.121320343559643 2.121320343559643 -0.20000000000000034
    vertex 2.121320343559643 2.121320343559643 -3.8000000000000003
  endloop
endfacet
facet normal -0.9238795325112866 0.38268343236509034 0.0
  outer loop
    vertex -3.6373066958946416 2.100000000000001 0.0
    vertex -4.056888470414087 1.0870399894305887 -3.8000000000000003
    vertex -4.056888470414087 1.0870399894305887 0.0
  endloop
endfacet
facet normal -0.9238795325112866 0.38268343236509034 0.0
  outer loop
    vertex -4.056888470414087 1.0870399894305887 -3.8000000000000003
    vertex -3.6373066958946416 2.100000000000001 0.0
    vertex -3.6373066958946416 2.100000000000001 -3.8000000000000003
  endloop
endfacet
facet normal -0.9238795325112867 -0.38268343236509006 -0.0
  outer loop
    vertex 2.5980762113533156 1.5 -0.20000000000000034
    vertex 2.8977774788672055 0.776457135307562 -3.8000000000000003
    vertex 2.8977774788672055 0.776457135307562 -0.20000000000000034
  endloop
endfacet
facet normal -0.9238795325112867 -0.38268343236509006 -0.0
  outer loop
    vertex 2.8977774788672055 0.776457135307562 -3.8000000000000003
    vertex 2.5980762113533156 1.5 -0.20000000000000034
    vertex 2.5980762113533156 1.5 -3.8000000000000003
  endloop
endfacet
facet normal 0.38268343236508984 -0.9238795325112868 0.0
  outer loop
    vertex -0.776457135307562 2.8977774788672055 -0.20000000000000034
    vertex -1.4999999999999993 2.598076211353317 -3.8000000000000003
    vertex -0.776457135307562 2.8977774788672055 -3.8000000000000003
  endloop
endfacet
facet normal 0.38268343236508984 -0.9238795325112868 0.0
  outer loop
    vertex -1.4999999999999993 2.598076211353317 -3.8000000000000003
    vertex -0.776457135307562 2.8977774788672055 -0.20000000000000034
    vertex -1.4999999999999993 2.598076211353317 -0.20000000000000034
  endloop
endfacet
facet normal -0.6087614290087207 -0.7933533402912352 -0.0
  outer loop
    vertex 2.121320343559643 2.121320343559643 -0.20000000000000034
    vertex 1.5 2.5980762113533156 -3.8000000000000003
    vertex 2.121320343559643 2.121320343559643 -3.8000000000000003
  endloop
endfacet
facet normal -0.6087614290087207 -0.7933533402912352 -0.0
  outer loop
    vertex 1.5 2.5980762113533156 -3.8000000000000003
    vertex 2.121320343559643 2.121320343559643 -0.20000000000000034
    vertex 1.5 2.5980762113533156 -0.20000000000000034
  endloop
endfacet
facet normal -0.3826834323650902 -0.9238795325112867 -0.0
  outer loop
    vertex 1.5 2.5980762113533156 -0.20000000000000034
    vertex 0.7764571353075627 2.8977774788672055 -3.8000000000000003
    vertex 1.5 2.5980762113533156 -3.8000000000000003
  endloop
endfacet
facet normal -0.3826834323650902 -0.9238795325112867 -0.0
  outer loop
    vertex 0.7764571353075627 2.8977774788672055 -3.8000000000000003
    vertex 1.5 2.5980762113533156 -0.20000000000000034
    vertex 0.7764571353075627 2.8977774788672055 -0.20000000000000034
  endloop
endfacet
facet normal 0.6087614290087208 0.7933533402912352 0.0
  outer loop
    vertex 2.1000000000000005 3.637306695894643 0.0
    vertex 2.9698484809834995 2.9698484809834995 -3.8000000000000003
    vertex 2.1000000000000005 3.637306695894643 -3.8000000000000003
  endloop
endfacet
facet normal 0.6087614290087208 0.7933533402912352 0.0
  outer loop
    vertex 2.9698484809834995 2.9698484809834995 -3.8000000000000003
    vertex 2.1000000000000005 3.637306695894643 0.0
    vertex 2.9698484809834995 2.9698484809834995 0.0
  endloop
endfacet
facet normal 0.7707370628749449 0.31924974446640686 0.5514018322140735
  outer loop
    vertex 4.056888470414088 1.0870399894305873 0.0
    vertex 2.5980762113533156 1.5 1.7999999999999996
    vertex 2.8977774788672055 0.776457135307562 1.7999999999999996
  endloop
endfacet
facet normal 0.7707370628749449 0.31924974446640686 0.5514018322140735
  outer loop
    vertex 2.5980762113533156 1.5 1.7999999999999996
    vertex 4.056888470414088 1.0870399894305873 0.0
    vertex 3.637306695894643 2.0999999999999996 0.0
  endloop
endfacet
facet normal 0.38268343236509 0.9238795325112867 0.0
  outer loop
    vertex 1.087039989430588 4.056888470414088 0.0
    vertex 2.1000000000000005 3.637306695894643 -3.8000000000000003
    vertex 1.087039989430588 4.056888470414088 -3.8000000000000003
  endloop
endfacet
facet normal 0.38268343236509 0.9238795325112867 0.0
  outer loop
    vertex 2.1000000000000005 3.637306695894643 -3.8000000000000003
    vertex 1.087039989430588 4.056888470414088 0.0
    vertex 2.1000000000000005 3.637306695894643 0.0
  endloop
endfacet
facet normal -0.13052619222005166 0.9914448613738105 0.0
  outer loop
    vertex -1.0870399894305867 4.056888470414088 0.0
    vertex 0.0 4.2 -3.8000000000000003
    vertex -1.0870399894305867 4.056888470414088 -3.8000000000000003
  endloop
endfacet
facet normal -0.13052619222005166 0.9914448613738105 0.0
  outer loop
    vertex 0.0 4.2 -3.8000000000000003
    vertex -1.0870399894305867 4.056888470414088 0.0
    vertex 0.0 4.2 0.0
  endloop
endfacet
facet normal -0.9914448613738106 -0.13052619222005113 -0.0
  outer loop
    vertex -4.2 7.049916206369744e-16 0.0
    vertex -4.056888470414088 -1.0870399894305856 -3.8000000000000003
    vertex -4.056888470414088 -1.0870399894305856 0.0
  endloop
endfacet
facet normal -0.9914448613738106 -0.13052619222005113 -0.0
  outer loop
    vertex -4.056888470414088 -1.0870399894305856 -3.8000000000000003
    vertex -4.2 7.049916206369744e-16 0.0
    vertex -4.2 7.049916206369744e-16 -3.8000000000000003
  endloop
endfacet
facet normal -0.9914448613738104 0.1305261922200518 0.0
  outer loop
    vertex 2.9999999999999996 0.0 -0.20000000000000034
    vertex 2.897777478867204 -0.7764571353075648 -3.8000000000000003
    vertex 2.897777478867204 -0.7764571353075648 -0.20000000000000034
  endloop
endfacet
facet normal -0.9914448613738104 0.1305261922200518 0.0
  outer loop
    vertex 2.897777478867204 -0.7764571353075648 -3.8000000000000003
    vertex 2.9999999999999996 0.0 -0.20000000000000034
    vertex 2.9999999999999996 0.0 -3.8000000000000003
  endloop
endfacet
facet normal -0.9914448613738104 -0.1305261922200513 -0.0
  outer loop
    vertex 2.8977774788672055 0.776457135307562 -0.20000000000000034
    vertex 2.9999999999999996 0.0 -3.8000000000000003
    vertex 2.9999999999999996 0.0 -0.20000000000000034
  endloop
endfacet
facet normal -0.9914448613738104 -0.1305261922200513 -0.0
  outer loop
    vertex 2.9999999999999996 0.0 -3.8000000000000003
    vertex 2.8977774788672055 0.776457135307562 -0.20000000000000034
    vertex 2.8977774788672055 0.776457135307562 -3.8000000000000003
  endloop
endfacet
facet normal -0.6818793491466542 0.7314646629929127 0.0
  outer loop
    vertex 1.1611409591687607 -1.628419992796898 1.8000000000000003
    vertex 1.5430421479847136 -1.2724075328064985 -0.19999999999999962
    vertex 1.1611409591687607 -1.628419992796898 -0.19999999999999962
  endloop
endfacet
facet normal -0.6818793491466542 0.7314646629929127 0.0
  outer loop
    vertex 1.5430421479847136 -1.2724075328064985 -0.19999999999999962
    vertex 1.1611409591687607 -1.628419992796898 1.8000000000000003
    vertex 1.5430421479847136 -1.2724075328064985 1.8000000000000003
  endloop
endfacet
facet normal -0.03506211166795154 -0.9993851351332901 -0.0
  outer loop
    vertex 0.3304161733847513 1.9725174656681193 1.8000000000000003
    vertex -0.191367571616329 1.990823561376967 -0.19999999999999962
    vertex 0.3304161733847513 1.9725174656681193 -0.19999999999999962
  endloop
endfacet
facet normal -0.03506211166795154 -0.9993851351332901 -0.0
  outer loop
    vertex -0.191367571616329 1.990823561376967 -0.19999999999999962
    vertex 0.3304161733847513 1.9725174656681193 1.8000000000000003
    vertex -0.191367571616329 1.990823561376967 1.8000000000000003
  endloop
endfacet
facet normal -0.9562571701734581 0.2925273055491578 0.0
  outer loop
    vertex 1.9725174656681186 -0.3304161733847513 1.8000000000000003
    vertex 1.8197875644132262 -0.829682602208204 -0.19999999999999962
    vertex 1.8197875644132262 -0.829682602208204 1.8000000000000003
  endloop
endfacet
facet normal -0.9562571701734581 0.2925273055491578 0.0
  outer loop
    vertex 1.8197875644132262 -0.829682602208204 -0.19999999999999962
    vertex 1.9725174656681186 -0.3304161733847513 1.8000000000000003
    vertex 1.9725174656681186 -0.3304161733847513 -0.19999999999999962
  endloop
endfacet
facet normal -0.29252730554915785 -0.9562571701734581 -0.0
  outer loop
    vertex 0.829682602208204 1.819787564413227 1.8000000000000003
    vertex 0.3304161733847513 1.9725174656681193 -0.19999999999999962
    vertex 0.829682602208204 1.819787564413227 -0.19999999999999962
  endloop
endfacet
facet normal -0.29252730554915785 -0.9562571701734581 -0.0
  outer loop
    vertex 0.3304161733847513 1.9725174656681193 -0.19999999999999962
    vertex 0.829682602208204 1.819787564413227 1.8000000000000003
    vertex 0.3304161733847513 1.9725174656681193 1.8000000000000003
  endloop
endfacet
facet normal -0.8479618593559974 0.5300572469814178 0.0
  outer loop
    vertex 1.8197875644132262 -0.829682602208204 1.8000000000000003
    vertex 1.5430421479847136 -1.2724075328064985 -0.19999999999999962
    vertex 1.5430421479847136 -1.2724075328064985 1.8000000000000003
  endloop
endfacet
facet normal -0.8479618593559974 0.5300572469814178 0.0
  outer loop
    vertex 1.5430421479847136 -1.2724075328064985 -0.19999999999999962
    vertex 1.8197875644132262 -0.829682602208204 1.8000000000000003
    vertex 1.8197875644132262 -0.829682602208204 -0.19999999999999962
  endloop
endfacet
facet normal -0.883023971023949 -0.46932788815187193 -0.0
  outer loop
    vertex 1.628419992796898 1.161140959168762 1.8000000000000003
    vertex 1.8734583213694658 0.7001099328616223 -0.19999999999999962
    vertex 1.8734583213694658 0.7001099328616223 1.8000000000000003
  endloop
endfacet
facet normal -0.883023971023949 -0.46932788815187193 -0.0
  outer loop
    vertex 1.8734583213694658 0.7001099328616223 -0.19999999999999962
    vertex 1.628419992796898 1.161140959168762 1.8000000000000003
    vertex 1.628419992796898 1.161140959168762 -0.19999999999999962
  endloop
endfacet
facet normal -0.9744066546958124 -0.2247925071805461 -0.0
  outer loop
    vertex 1.8734583213694658 0.7001099328616223 1.8000000000000003
    vertex 1.990823561376967 0.1913675716163283 -0.19999999999999962
    vertex 1.990823561376967 0.1913675716163283 1.8000000000000003
  endloop
endfacet
facet normal -0.9744066546958124 -0.2247925071805461 -0.0
  outer loop
    vertex 1.990823561376967 0.1913675716163283 -0.19999999999999962
    vertex 1.8734583213694658 0.7001099328616223 1.8000000000000003
    vertex 1.8734583213694658 0.7001099328616223 -0.19999999999999962
  endloop
endfacet
facet normal -0.7314646629929122 -0.6818793491466547 -0.0
  outer loop
    vertex 1.2724075328064985 1.5430421479847145 1.8000000000000003
    vertex 1.628419992796898 1.161140959168762 -0.19999999999999962
    vertex 1.628419992796898 1.161140959168762 1.8000000000000003
  endloop
endfacet
facet normal -0.7314646629929122 -0.6818793491466547 -0.0
  outer loop
    vertex 1.628419992796898 1.161140959168762 -0.19999999999999962
    vertex 1.2724075328064985 1.5430421479847145 1.8000000000000003
    vertex 1.2724075328064985 1.5430421479847145 -0.19999999999999962
  endloop
endfacet
facet normal -0.5300572469814181 -0.8479618593559974 -0.0
  outer loop
    vertex 1.2724075328064985 1.5430421479847145 1.8000000000000003
    vertex 0.829682602208204 1.819787564413227 -0.19999999999999962
    vertex 1.2724075328064985 1.5430421479847145 -0.19999999999999962
  endloop
endfacet
facet normal -0.5300572469814181 -0.8479618593559974 -0.0
  outer loop
    vertex 0.829682602208204 1.819787564413227 -0.19999999999999962
    vertex 1.2724075328064985 1.5430421479847145 1.8000000000000003
    vertex 0.829682602208204 1.819787564413227 1.8000000000000003
  endloop
endfacet
facet normal -0.9993851351332899 0.03506211166795294 0.0
  outer loop
    vertex 1.990823561376967 0.1913675716163283 1.8000000000000003
    vertex 1.9725174656681186 -0.3304161733847513 -0.19999999999999962
    vertex 1.9725174656681186 -0.3304161733847513 1.8000000000000003
  endloop
endfacet
facet normal -0.9993851351332899 0.03506211166795294 0.0
  outer loop
    vertex 1.9725174656681186 -0.3304161733847513 -0.19999999999999962
    vertex 1.990823561376967 0.1913675716163283 1.8000000000000003
    vertex 1.990823561376967 0.1913675716163283 -0.19999999999999962
  endloop
endfacet
facet normal 0.03506211166795157 0.9993851351332901 0.0
  outer loop
    vertex -0.33041617338475204 -1.972517465668119 1.8000000000000003
    vertex 0.19136757161632761 -1.990823561376967 -0.19999999999999962
    vertex -0.33041617338475204 -1.972517465668119 -0.19999999999999962
  endloop
endfacet
facet normal 0.03506211166795157 0.9993851351332901 0.0
  outer loop
    vertex 0.19136757161632761 -1.990823561376967 -0.19999999999999962
    vertex -0.33041617338475204 -1.972517465668119 1.8000000000000003
    vertex 0.19136757161632761 -1.990823561376967 1.8000000000000003
  endloop
endfacet
facet normal 0.2247925071805449 -0.9744066546958128 0.0
  outer loop
    vertex -0.191367571616329 1.990823561376967 1.8000000000000003
    vertex -0.7001099328616209 1.8734583213694664 -0.19999999999999962
    vertex -0.191367571616329 1.990823561376967 -0.19999999999999962
  endloop
endfacet
facet normal 0.2247925071805449 -0.9744066546958128 0.0
  outer loop
    vertex -0.7001099328616209 1.8734583213694664 -0.19999999999999962
    vertex -0.191367571616329 1.990823561376967 1.8000000000000003
    vertex -0.7001099328616209 1.8734583213694664 1.8000000000000003
  endloop
endfacet
facet normal 0.46932788815187243 -0.8830239710239489 0.0
  outer loop
    vertex -0.7001099328616209 1.8734583213694664 1.8000000000000003
    vertex -1.1611409591687618 1.628419992796898 -0.19999999999999962
    vertex -0.7001099328616209 1.8734583213694664 -0.19999999999999962
  endloop
endfacet
facet normal 0.46932788815187243 -0.8830239710239489 0.0
  outer loop
    vertex -1.1611409591687618 1.628419992796898 -0.19999999999999962
    vertex -0.7001099328616209 1.8734583213694664 1.8000000000000003
    vertex -1.1611409591687618 1.628419992796898 1.8000000000000003
  endloop
endfacet
facet normal 0.6818793491466545 -0.7314646629929124 0.0
  outer loop
    vertex -1.1611409591687618 1.628419992796898 1.8000000000000003
    vertex -1.543042147984714 1.2724075328064985 -0.19999999999999962
    vertex -1.1611409591687618 1.628419992796898 -0.19999999999999962
  endloop
endfacet
facet normal 0.6818793491466545 -0.7314646629929124 0.0
  outer loop
    vertex -1.543042147984714 1.2724075328064985 -0.19999999999999962
    vertex -1.1611409591687618 1.628419992796898 1.8000000000000003
    vertex -1.543042147984714 1.2724075328064985 1.8000000000000003
  endloop
endfacet
facet normal 0.8479618593559971 -0.5300572469814181 0.0
  outer loop
    vertex -1.543042147984714 1.2724075328064985 -0.19999999999999962
    vertex -1.819787564413226 0.8296826022082054 1.8000000000000003
    vertex -1.819787564413226 0.8296826022082054 -0.19999999999999962
  endloop
endfacet
facet normal 0.8479618593559971 -0.5300572469814181 0.0
  outer loop
    vertex -1.819787564413226 0.8296826022082054 1.8000000000000003
    vertex -1.543042147984714 1.2724075328064985 -0.19999999999999962
    vertex -1.543042147984714 1.2724075328064985 1.8000000000000003
  endloop
endfacet
facet normal 0.9562571701734579 -0.29252730554915796 0.0
  outer loop
    vertex -1.819787564413226 0.8296826022082054 -0.19999999999999962
    vertex -1.9725174656681186 0.3304161733847513 1.8000000000000003
    vertex -1.9725174656681186 0.3304161733847513 -0.19999999999999962
  endloop
endfacet
facet normal 0.9562571701734579 -0.29252730554915796 0.0
  outer loop
    vertex -1.9725174656681186 0.3304161733847513 1.8000000000000003
    vertex -1.819787564413226 0.8296826022082054 -0.19999999999999962
    vertex -1.819787564413226 0.8296826022082054 1.8000000000000003
  endloop
endfacet
facet normal 0.9993851351332901 -0.03506211166795227 0.0
  outer loop
    vertex -1.9725174656681186 0.3304161733847513 -0.19999999999999962
    vertex -1.990823561376967 -0.1913675716163283 1.8000000000000003
    vertex -1.990823561376967 -0.1913675716163283 -0.19999999999999962
  endloop
endfacet
facet normal 0.9993851351332901 -0.03506211166795227 0.0
  outer loop
    vertex -1.990823561376967 -0.1913675716163283 1.8000000000000003
    vertex -1.9725174656681186 0.3304161733847513 -0.19999999999999962
    vertex -1.9725174656681186 0.3304161733847513 1.8000000000000003
  endloop
endfacet
facet normal 0.9744066546958129 0.22479250718054436 0.0
  outer loop
    vertex -1.990823561376967 -0.1913675716163283 -0.19999999999999962
    vertex -1.8734583213694664 -0.7001099328616209 1.8000000000000003
    vertex -1.8734583213694664 -0.7001099328616209 -0.19999999999999962
  endloop
endfacet
facet normal 0.9744066546958129 0.22479250718054436 0.0
  outer loop
    vertex -1.8734583213694664 -0.7001099328616209 1.8000000000000003
    vertex -1.990823561376967 -0.1913675716163283 -0.19999999999999962
    vertex -1.990823561376967 -0.1913675716163283 1.8000000000000003
  endloop
endfacet
facet normal 0.8830239710239489 0.46932788815187243 0.0
  outer loop
    vertex -1.8734583213694664 -0.7001099328616209 -0.19999999999999962
    vertex -1.628419992796898 -1.1611409591687618 1.8000000000000003
    vertex -1.628419992796898 -1.1611409591687618 -0.19999999999999962
  endloop
endfacet
facet normal 0.8830239710239489 0.46932788815187243 0.0
  outer loop
    vertex -1.628419992796898 -1.1611409591687618 1.8000000000000003
    vertex -1.8734583213694664 -0.7001099328616209 -0.19999999999999962
    vertex -1.8734583213694664 -0.7001099328616209 1.8000000000000003
  endloop
endfacet
facet normal 0.7314646629929124 0.6818793491466546 0.0
  outer loop
    vertex -1.628419992796898 -1.1611409591687618 -0.19999999999999962
    vertex -1.2724075328064985 -1.5430421479847145 1.8000000000000003
    vertex -1.2724075328064985 -1.5430421479847145 -0.19999999999999962
  endloop
endfacet
facet normal 0.7314646629929124 0.6818793491466546 0.0
  outer loop
    vertex -1.2724075328064985 -1.5430421479847145 1.8000000000000003
    vertex -1.628419992796898 -1.1611409591687618 -0.19999999999999962
    vertex -1.628419992796898 -1.1611409591687618 1.8000000000000003
  endloop
endfacet
facet normal 0.5300572469814185 0.847961859355997 0.0
  outer loop
    vertex -1.2724075328064985 -1.5430421479847145 1.8000000000000003
    vertex -0.8296826022082054 -1.8197875644132262 -0.19999999999999962
    vertex -1.2724075328064985 -1.5430421479847145 -0.19999999999999962
  endloop
endfacet
facet normal 0.5300572469814185 0.847961859355997 0.0
  outer loop
    vertex -0.8296826022082054 -1.8197875644132262 -0.19999999999999962
    vertex -1.2724075328064985 -1.5430421479847145 1.8000000000000003
    vertex -0.8296826022082054 -1.8197875644132262 1.8000000000000003
  endloop
endfacet
facet normal 0.2925273055491582 0.9562571701734578 0.0
  outer loop
    vertex -0.8296826022082054 -1.8197875644132262 1.8000000000000003
    vertex -0.33041617338475204 -1.972517465668119 -0.19999999999999962
    vertex -0.8296826022082054 -1.8197875644132262 -0.19999999999999962
  endloop
endfacet
facet normal 0.2925273055491582 0.9562571701734578 0.0
  outer loop
    vertex -0.33041617338475204 -1.972517465668119 -0.19999999999999962
    vertex -0.8296826022082054 -1.8197875644132262 1.8000000000000003
    vertex -0.33041617338475204 -1.972517465668119 1.8000000000000003
  endloop
endfacet
facet normal -0.22479250718054525 0.9744066546958126 0.0
  outer loop
    vertex 0.19136757161632761 -1.990823561376967 1.8000000000000003
    vertex 0.7001099328616202 -1.873458321369466 -0.19999999999999962
    vertex 0.19136757161632761 -1.990823561376967 -0.19999999999999962
  endloop
endfacet
facet normal -0.22479250718054525 0.9744066546958126 0.0
  outer loop
    vertex 0.7001099328616202 -1.873458321369466 -0.19999999999999962
    vertex 0.19136757161632761 -1.990823561376967 1.8000000000000003
    vertex 0.7001099328616202 -1.873458321369466 1.8000000000000003
  endloop
endfacet
facet normal 0.0 0.0 1.0
  outer loop
    vertex -2.897777478867205 -0.7764571353075612 1.7999999999999996
    vertex -2.8977774788672046 0.7764571353075633 1.7999999999999996
    vertex -3.0 7.049916206369744e-16 1.7999999999999996
  endloop
endfacet
facet normal 0.0 0.0 1.0
  outer loop
    vertex -2.8977774788672046 0.7764571353075633 1.7999999999999996
    vertex -2.897777478867205 -0.7764571353075612 1.7999999999999996
    vertex -2.598076211353316 -1.4999999999999993 1.7999999999999996
  endloop
endfacet
facet normal 0.0 0.0 1.0
  outer loop
    vertex -2.8977774788672046 0.7764571353075633 1.7999999999999996
    vertex -2.598076211353316 -1.4999999999999993 1.7999999999999996
    vertex -2.5980762113533156 1.5000000000000007 1.7999999999999996
  endloop
endfacet
facet normal 0.0 0.0 1.0
  outer loop
    vertex -2.5980762113533156 1.5000000000000007 1.7999999999999996
    vertex -2.598076211353316 -1.4999999999999993 1.7999999999999996
    vertex -2.1213203435596437 -2.1213203435596415 1.7999999999999996
  endloop
endfacet
facet normal 0.0 0.0 1.0
  outer loop
    vertex -2.5980762113533156 1.5000000000000007 1.7999999999999996
    vertex -2.1213203435596437 -2.1213203435596415 1.7999999999999996
    vertex -2.1213203435596424 2.121320343559643 1.7999999999999996
  endloop
endfacet
facet normal 0.0 0.0 1.0
  outer loop
    vertex -2.1213203435596424 2.121320343559643 1.7999999999999996
    vertex -2.1213203435596437 -2.1213203435596415 1.7999999999999996
    vertex -1.990823561376967 -0.1913675716163283 1.8000000000000003
  endloop
endfacet
facet normal 0.0 0.0 1.0
  outer loop
    vertex -1.990823561376967 -0.1913675716163283 1.8000000000000003
    vertex -2.1213203435596437 -2.1213203435596415 1.7999999999999996
    vertex -1.5000000000000016 -2.5980762113533156 1.7999999999999996
  endloop
endfacet
facet normal 0.0 0.0 1.0
  outer loop
    vertex -1.990823561376967 -0.1913675716163283 1.8000000000000003
    vertex -1.5000000000000016 -2.5980762113533156 1.7999999999999996
    vertex -1.8734583213694664 -0.7001099328616209 1.8000000000000003
  endloop
endfacet
facet normal 0.0 0.0 1.0
  outer loop
    vertex -1.8734583213694664 -0.7001099328616209 1.8000000000000003
    vertex -1.5000000000000016 -2.5980762113533156 1.7999999999999996
    vertex -1.628419992796898 -1.1611409591687618 1.8000000000000003
  endloop
endfacet
facet normal 0.0 0.0 1.0
  outer loop
    vertex -1.628419992796898 -1.1611409591687618 1.8000000000000003
    vertex -1.5000000000000016 -2.5980762113533156 1.7999999999999996
    vertex -1.2724075328064985 -1.5430421479847145 1.8000000000000003
  endloop
endfacet
facet normal 0.0 0.0 1.0
  outer loop
    vertex -1.2724075328064985 -1.5430421479847145 1.8000000000000003
    vertex -1.5000000000000016 -2.5980762113533156 1.7999999999999996
    vertex -0.7764571353075641 -2.8977774788672046 1.7999999999999996
  endloop
endfacet
facet normal 0.0 0.0 1.0
  outer loop
    vertex -1.2724075328064985 -1.5430421479847145 1.8000000000000003
    vertex -0.7764571353075641 -2.8977774788672046 1.7999999999999996
    vertex -0.8296826022082054 -1.8197875644132262 1.8000000000000003
  endloop
endfacet
facet normal 0.0 0.0 1.0
  outer loop
    vertex -0.8296826022082054 -1.8197875644132262 1.8000000000000003
    vertex -0.7764571353075641 -2.8977774788672046 1.7999999999999996
    vertex -0.33041617338475204 -1.972517465668119 1.8000000000000003
  endloop
endfacet
facet normal 0.0 0.0 1.0
  outer loop
    vertex -0.33041617338475204 -1.972517465668119 1.8000000000000003
    vertex -0.7764571353075641 -2.8977774788672046 1.7999999999999996
    vertex -7.049916206369744e-16 -3.0 1.7999999999999996
  endloop
endfacet
facet normal 0.0 0.0 1.0
  outer loop
    vertex -0.33041617338475204 -1.972517465668119 1.8000000000000003
    vertex -7.049916206369744e-16 -3.0 1.7999999999999996
    vertex 0.19136757161632761 -1.990823561376967 1.8000000000000003
  endloop
endfacet
facet normal 0.0 0.0 1.0
  outer loop
    vertex 0.19136757161632761 -1.990823561376967 1.8000000000000003
    vertex -7.049916206369744e-16 -3.0 1.7999999999999996
    vertex 0.7764571353075606 -2.897777478867205 1.7999999999999996
  endloop
endfacet
facet normal 0.0 0.0 1.0
  outer loop
    vertex 0.19136757161632761 -1.990823561376967 1.8000000000000003
    vertex 0.7764571353075606 -2.897777478867205 1.7999999999999996
    vertex 0.7001099328616202 -1.873458321369466 1.8000000000000003
  endloop
endfacet
facet normal 0.0 0.0 1.0
  outer loop
    vertex 0.7001099328616202 -1.873458321369466 1.8000000000000003
    vertex 0.7764571353075606 -2.897777478867205 1.7999999999999996
    vertex 1.1611409591687607 -1.628419992796898 1.8000000000000003
  endloop
endfacet
facet normal 0.0 0.0 1.0
  outer loop
    vertex 1.1611409591687607 -1.628419992796898 1.8000000000000003
    vertex 0.7764571353075606 -2.897777478867205 1.7999999999999996
    vertex 1.499999999999998 -2.5980762113533173 1.7999999999999996
  endloop
endfacet
facet normal 0.0 0.0 1.0
  outer loop
    vertex 1.1611409591687607 -1.628419992796898 1.8000000000000003
    vertex 1.499999999999998 -2.5980762113533173 1.7999999999999996
    vertex 1.5430421479847136 -1.2724075328064985 1.8000000000000003
  endloop
endfacet
facet normal 0.0 0.0 1.0
  outer loop
    vertex 1.5430421479847136 -1.2724075328064985 1.8000000000000003
    vertex 1.499999999999998 -2.5980762113533173 1.7999999999999996
    vertex 2.1213203435596424 -2.1213203435596433 1.7999999999999996
  endloop
endfacet
facet normal 0.0 0.0 1.0
  outer loop
    vertex 1.5430421479847136 -1.2724075328064985 1.8000000000000003
    vertex 2.1213203435596424 -2.1213203435596433 1.7999999999999996
    vertex 1.8197875644132262 -0.829682602208204 1.8000000000000003
  endloop
endfacet
facet normal 0.0 0.0 1.0
  outer loop
    vertex 1.8197875644132262 -0.829682602208204 1.8000000000000003
    vertex 2.1213203435596424 -2.1213203435596433 1.7999999999999996
    vertex 1.9725174656681186 -0.3304161733847513 1.8000000000000003
  endloop
endfacet
facet normal 0.0 0.0 1.0
  outer loop
    vertex 1.9725174656681186 -0.3304161733847513 1.8000000000000003
    vertex 2.1213203435596424 -2.1213203435596433 1.7999999999999996
    vertex 1.990823561376967 0.1913675716163283 1.8000000000000003
  endloop
endfacet
facet normal 0.0 0.0 1.0
  outer loop
    vertex -2.1213203435596424 2.121320343559643 1.7999999999999996
    vertex -1.9725174656681186 0.3304161733847513 1.8000000000000003
    vertex -1.4999999999999993 2.598076211353317 1.7999999999999996
  endloop
endfacet
facet normal 0.0 0.0 1.0
  outer loop
    vertex -1.9725174656681186 0.3304161733847513 1.8000000000000003
    vertex -2.1213203435596424 2.121320343559643 1.7999999999999996
    vertex -1.990823561376967 -0.1913675716163283 1.8000000000000003
  endloop
endfacet
facet normal 0.0 0.0 1.0
  outer loop
    vertex -1.4999999999999993 2.598076211353317 1.7999999999999996
    vertex -1.9725174656681186 0.3304161733847513 1.8000000000000003
    vertex -1.819787564413226 0.8296826022082054 1.8000000000000003
  endloop
endfacet
facet normal 0.0 0.0 1.0
  outer loop
    vertex -1.4999999999999993 2.598076211353317 1.7999999999999996
    vertex -1.819787564413226 0.8296826022082054 1.8000000000000003
    vertex -1.543042147984714 1.2724075328064985 1.8000000000000003
  endloop
endfacet
facet normal 0.0 0.0 1.0
  outer loop
    vertex -1.4999999999999993 2.598076211353317 1.7999999999999996
    vertex -1.543042147984714 1.2724075328064985 1.8000000000000003
    vertex -1.1611409591687618 1.628419992796898 1.8000000000000003
  endloop
endfacet
facet normal 0.0 0.0 1.0
  outer loop
    vertex -1.4999999999999993 2.598076211353317 1.7999999999999996
    vertex -1.1611409591687618 1.628419992796898 1.8000000000000003
    vertex -0.776457135307562 2.8977774788672055 1.7999999999999996
  endloop
endfacet
facet normal 0.0 0.0 1.0
  outer loop
    vertex -0.776457135307562 2.8977774788672055 1.7999999999999996
    vertex -1.1611409591687618 1.628419992796898 1.8000000000000003
    vertex -0.7001099328616209 1.8734583213694664 1.8000000000000003
  endloop
endfacet
facet normal 0.0 0.0 1.0
  outer loop
    vertex -0.776457135307562 2.8977774788672055 1.7999999999999996
    vertex -0.7001099328616209 1.8734583213694664 1.8000000000000003
    vertex 0.0 3.000000000000001 1.7999999999999996
  endloop
endfacet
facet normal 0.0 0.0 1.0
  outer loop
    vertex 0.0 3.000000000000001 1.7999999999999996
    vertex -0.7001099328616209 1.8734583213694664 1.8000000000000003
    vertex -0.191367571616329 1.990823561376967 1.8000000000000003
  endloop
endfacet
facet normal 0.0 0.0 1.0
  outer loop
    vertex 0.0 3.000000000000001 1.7999999999999996
    vertex -0.191367571616329 1.990823561376967 1.8000000000000003
    vertex 0.3304161733847513 1.9725174656681193 1.8000000000000003
  endloop
endfacet
facet normal 0.0 0.0 1.0
  outer loop
    vertex 0.0 3.000000000000001 1.7999999999999996
    vertex 0.3304161733847513 1.9725174656681193 1.8000000000000003
    vertex 0.7764571353075627 2.8977774788672055 1.7999999999999996
  endloop
endfacet
facet normal 0.0 0.0 1.0
  outer loop
    vertex 0.7764571353075627 2.8977774788672055 1.7999999999999996
    vertex 0.3304161733847513 1.9725174656681193 1.8000000000000003
    vertex 0.829682602208204 1.819787564413227 1.8000000000000003
  endloop
endfacet
facet normal 0.0 0.0 1.0
  outer loop
    vertex 0.7764571353075627 2.8977774788672055 1.7999999999999996
    vertex 0.829682602208204 1.819787564413227 1.8000000000000003
    vertex 1.5 2.5980762113533156 1.7999999999999996
  endloop
endfacet
facet normal 0.0 0.0 1.0
  outer loop
    vertex 1.5 2.5980762113533156 1.7999999999999996
    vertex 0.829682602208204 1.819787564413227 1.8000000000000003
    vertex 1.2724075328064985 1.5430421479847145 1.8000000000000003
  endloop
endfacet
facet normal 0.0 0.0 1.0
  outer loop
    vertex 1.5 2.5980762113533156 1.7999999999999996
    vertex 1.2724075328064985 1.5430421479847145 1.8000000000000003
    vertex 1.628419992796898 1.161140959168762 1.8000000000000003
  endloop
endfacet
facet normal 0.0 0.0 1.0
  outer loop
    vertex 1.5 2.5980762113533156 1.7999999999999996
    vertex 1.628419992796898 1.161140959168762 1.8000000000000003
    vertex 2.121320343559643 2.121320343559643 1.7999999999999996
  endloop
endfacet
facet normal 0.0 0.0 1.0
  outer loop
    vertex 2.121320343559643 2.121320343559643 1.7999999999999996
    vertex 1.628419992796898 1.161140959168762 1.8000000000000003
    vertex 1.8734583213694658 0.7001099328616223 1.8000000000000003
  endloop
endfacet
facet normal 0.0 0.0 1.0
  outer loop
    vertex 2.121320343559643 2.121320343559643 1.7999999999999996
    vertex 1.8734583213694658 0.7001099328616223 1.8000000000000003
    vertex 1.990823561376967 0.1913675716163283 1.8000000000000003
  endloop
endfacet
facet normal 0.0 0.0 1.0
  outer loop
    vertex 2.121320343559643 2.121320343559643 1.7999999999999996
    vertex 1.990823561376967 0.1913675716163283 1.8000000000000003
    vertex 2.1213203435596424 -2.1213203435596433 1.7999999999999996
  endloop
endfacet
facet normal 0.0 0.0 1.0
  outer loop
    vertex 2.121320343559643 2.121320343559643 1.7999999999999996
    vertex 2.1213203435596424 -2.1213203435596433 1.7999999999999996
    vertex 2.5980762113533156 -1.5000000000000016 1.7999999999999996
  endloop
endfacet
facet normal 0.0 0.0 1.0
  outer loop
    vertex 2.121320343559643 2.121320343559643 1.7999999999999996
    vertex 2.5980762113533156 -1.5000000000000016 1.7999999999999996
    vertex 2.5980762113533156 1.5 1.7999999999999996
  endloop
endfacet
facet normal 0.0 0.0 1.0
  outer loop
    vertex 2.5980762113533156 1.5 1.7999999999999996
    vertex 2.5980762113533156 -1.5000000000000016 1.7999999999999996
    vertex 2.897777478867204 -0.7764571353075648 1.7999999999999996
  endloop
endfacet
facet normal 0.0 0.0 1.0
  outer loop
    vertex 2.5980762113533156 1.5 1.7999999999999996
    vertex 2.897777478867204 -0.7764571353075648 1.7999999999999996
    vertex 2.8977774788672055 0.776457135307562 1.7999999999999996
  endloop
endfacet
facet normal 0.0 0.0 1.0
  outer loop
    vertex 2.8977774788672055 0.776457135307562 1.7999999999999996
    vertex 2.897777478867204 -0.7764571353075648 1.7999999999999996
    vertex 2.9999999999999996 0.0 1.7999999999999996
  endloop
endfacet
facet normal 0.13052619222005116 -0.9914448613738105 0.0
  outer loop
    vertex 1.087039989430585 -4.056888470414088 0.0
    vertex -7.049916206369744e-16 -4.2 -3.8000000000000003
    vertex 1.087039989430585 -4.056888470414088 -3.8000000000000003
  endloop
endfacet
facet normal 0.13052619222005116 -0.9914448613738105 0.0
  outer loop
    vertex -7.049916206369744e-16 -4.2 -3.8000000000000003
    vertex 1.087039989430585 -4.056888470414088 0.0
    vertex -7.049916206369744e-16 -4.2 0.0
  endloop
endfacet
facet normal -0.7707370628749449 -0.31924974446640675 0.5514018322140735
  outer loop
    vertex -2.598076211353316 -1.4999999999999993 1.7999999999999996
    vertex -4.056888470414088 -1.0870399894305856 0.0
    vertex -3.637306695894643 -2.0999999999999988 0.0
  endloop
endfacet
facet normal -0.7707370628749449 -0.31924974446640675 0.5514018322140735
  outer loop
    vertex -4.056888470414088 -1.0870399894305856 0.0
    vertex -2.598076211353316 -1.4999999999999993 1.7999999999999996
    vertex -2.897777478867205 -0.7764571353075612 1.7999999999999996
  endloop
endfacet
facet normal -0.3192497444664074 -0.7707370628749448 0.5514018322140735
  outer loop
    vertex -0.7764571353075641 -2.8977774788672046 1.7999999999999996
    vertex -2.100000000000002 -3.6373066958946416 0.0
    vertex -1.0870399894305902 -4.056888470414086 0.0
  endloop
endfacet
facet normal -0.3192497444664074 -0.7707370628749448 0.5514018322140735
  outer loop
    vertex -2.100000000000002 -3.6373066958946416 0.0
    vertex -0.7764571353075641 -2.8977774788672046 1.7999999999999996
    vertex -1.5000000000000016 -2.5980762113533156 1.7999999999999996
  endloop
endfacet
facet normal 0.9914448613738105 0.13052619222005163 0.0
  outer loop
    vertex 4.056888470414088 1.0870399894305873 -3.8000000000000003
    vertex 4.2 0.0 0.0
    vertex 4.2 0.0 -3.8000000000000003
  endloop
endfacet
facet normal 0.9914448613738105 0.13052619222005163 0.0
  outer loop
    vertex 4.2 0.0 0.0
    vertex 4.056888470414088 1.0870399894305873 -3.8000000000000003
    vertex 4.056888470414088 1.0870399894305873 0.0
  endloop
endfacet
facet normal 0.923879532511287 0.3826834323650894 0.0
  outer loop
    vertex 3.637306695894643 2.0999999999999996 -3.8000000000000003
    vertex 4.056888470414088 1.0870399894305873 0.0
    vertex 4.056888470414088 1.0870399894305873 -3.8000000000000003
  endloop
endfacet
facet normal 0.923879532511287 0.3826834323650894 0.0
  outer loop
    vertex 4.056888470414088 1.0870399894305873 0.0
    vertex 3.637306695894643 2.0999999999999996 -3.8000000000000003
    vertex 3.637306695894643 2.0999999999999996 0.0
  endloop
endfacet
facet normal 0.6087614290087212 0.7933533402912347 0.0
  outer loop
    vertex -2.1213203435596437 -2.1213203435596415 -0.20000000000000034
    vertex -1.5000000000000016 -2.5980762113533156 -3.8000000000000003
    vertex -2.1213203435596437 -2.1213203435596415 -3.8000000000000003
  endloop
endfacet
facet normal 0.6087614290087212 0.7933533402912347 0.0
  outer loop
    vertex -1.5000000000000016 -2.5980762113533156 -3.8000000000000003
    vertex -2.1213203435596437 -2.1213203435596415 -0.20000000000000034
    vertex -1.5000000000000016 -2.5980762113533156 -0.20000000000000034
  endloop
endfacet
facet normal 0.6087614290087201 -0.7933533402912356 0.0
  outer loop
    vertex 2.9698484809834995 -2.9698484809835004 0.0
    vertex 2.099999999999997 -3.6373066958946443 -3.8000000000000003
    vertex 2.9698484809834995 -2.9698484809835004 -3.8000000000000003
  endloop
endfacet
facet normal 0.6087614290087201 -0.7933533402912356 0.0
  outer loop
    vertex 2.099999999999997 -3.6373066958946443 -3.8000000000000003
    vertex 2.9698484809834995 -2.9698484809835004 0.0
    vertex 2.099999999999997 -3.6373066958946443 0.0
  endloop
endfacet
facet normal 0.7933533402912355 0.6087614290087202 0.0
  outer loop
    vertex -2.598076211353316 -1.4999999999999993 -3.8000000000000003
    vertex -2.1213203435596437 -2.1213203435596415 -0.20000000000000034
    vertex -2.1213203435596437 -2.1213203435596415 -3.8000000000000003
  endloop
endfacet
facet normal 0.7933533402912355 0.6087614290087202 0.0
  outer loop
    vertex -2.1213203435596437 -2.1213203435596415 -0.20000000000000034
    vertex -2.598076211353316 -1.4999999999999993 -3.8000000000000003
    vertex -2.598076211353316 -1.4999999999999993 -0.20000000000000034
  endloop
endfacet
facet normal 0.3826834323650904 0.9238795325112866 0.0
  outer loop
    vertex -1.5000000000000016 -2.5980762113533156 -0.20000000000000034
    vertex -0.7764571353075641 -2.8977774788672046 -3.8000000000000003
    vertex -1.5000000000000016 -2.5980762113533156 -3.8000000000000003
  endloop
endfacet
facet normal 0.3826834323650904 0.9238795325112866 0.0
  outer loop
    vertex -0.7764571353075641 -2.8977774788672046 -3.8000000000000003
    vertex -1.5000000000000016 -2.5980762113533156 -0.20000000000000034
    vertex -0.7764571353075641 -2.8977774788672046 -0.20000000000000034
  endloop
endfacet
facet normal 0.10889014257787344 0.82710274832111 0.5514018322140732
  outer loop
    vertex 0.0 3.000000000000001 1.7999999999999996
    vertex 1.087039989430588 4.056888470414088 0.0
    vertex 0.0 4.2 0.0
  endloop
endfacet
facet normal 0.10889014257787344 0.82710274832111 0.5514018322140732
  outer loop
    vertex 1.087039989430588 4.056888470414088 0.0
    vertex 0.0 3.000000000000001 1.7999999999999996
    vertex 0.7764571353075627 2.8977774788672055 1.7999999999999996
  endloop
endfacet
facet normal -0.10889014257787334 0.82710274832111 0.5514018322140732
  outer loop
    vertex -0.776457135307562 2.8977774788672055 1.7999999999999996
    vertex 0.0 4.2 0.0
    vertex -1.0870399894305867 4.056888470414088 0.0
  endloop
endfacet
facet normal -0.10889014257787334 0.82710274832111 0.5514018322140732
  outer loop
    vertex 0.0 4.2 0.0
    vertex -0.776457135307562 2.8977774788672055 1.7999999999999996
    vertex 0.0 3.000000000000001 1.7999999999999996
  endloop
endfacet
facet normal 0.0 0.0 -1.0
  outer loop
    vertex -2.9698484809834995 2.9698484809834995 -3.8000000000000003
    vertex -3.0 7.049916206369744e-16 -3.8000000000000003
    vertex -3.6373066958946416 2.100000000000001 -3.8000000000000003
  endloop
endfacet
facet normal 0.0 0.0 -1.0
  outer loop
    vertex -3.0 7.049916206369744e-16 -3.8000000000000003
    vertex -2.9698484809834995 2.9698484809834995 -3.8000000000000003
    vertex -2.8977774788672046 0.7764571353075633 -3.8000000000000003
  endloop
endfacet
facet normal 0.0 0.0 -1.0
  outer loop
    vertex -2.8977774788672046 0.7764571353075633 -3.8000000000000003
    vertex -2.9698484809834995 2.9698484809834995 -3.8000000000000003
    vertex -2.0999999999999988 3.637306695894643 -3.8000000000000003
  endloop
endfacet
facet normal 0.0 0.0 -1.0
  outer loop
    vertex -2.8977774788672046 0.7764571353075633 -3.8000000000000003
    vertex -2.0999999999999988 3.637306695894643 -3.8000000000000003
    vertex -2.5980762113533156 1.5000000000000007 -3.8000000000000003
  endloop
endfacet
facet normal 0.0 0.0 -1.0
  outer loop
    vertex -2.5980762113533156 1.5000000000000007 -3.8000000000000003
    vertex -2.0999999999999988 3.637306695894643 -3.8000000000000003
    vertex -2.1213203435596424 2.121320343559643 -3.8000000000000003
  endloop
endfacet
facet normal 0.0 0.0 -1.0
  outer loop
    vertex -2.1213203435596424 2.121320343559643 -3.8000000000000003
    vertex -2.0999999999999988 3.637306695894643 -3.8000000000000003
    vertex -1.4999999999999993 2.598076211353317 -3.8000000000000003
  endloop
endfacet
facet normal 0.0 0.0 -1.0
  outer loop
    vertex -1.4999999999999993 2.598076211353317 -3.8000000000000003
    vertex -2.0999999999999988 3.637306695894643 -3.8000000000000003
    vertex -1.0870399894305867 4.056888470414088 -3.8000000000000003
  endloop
endfacet
facet normal 0.0 0.0 -1.0
  outer loop
    vertex -1.4999999999999993 2.598076211353317 -3.8000000000000003
    vertex -1.0870399894305867 4.056888470414088 -3.8000000000000003
    vertex -0.776457135307562 2.8977774788672055 -3.8000000000000003
  endloop
endfacet
facet normal 0.0 0.0 -1.0
  outer loop
    vertex -0.776457135307562 2.8977774788672055 -3.8000000000000003
    vertex -1.0870399894305867 4.056888470414088 -3.8000000000000003
    vertex 0.0 4.2 -3.8000000000000003
  endloop
endfacet
facet normal 0.0 0.0 -1.0
  outer loop
    vertex -0.776457135307562 2.8977774788672055 -3.8000000000000003
    vertex 0.0 4.2 -3.8000000000000003
    vertex 0.0 3.000000000000001 -3.8000000000000003
  endloop
endfacet
facet normal 0.0 0.0 -1.0
  outer loop
    vertex 0.0 3.000000000000001 -3.8000000000000003
    vertex 0.0 4.2 -3.8000000000000003
    vertex 1.087039989430588 4.056888470414088 -3.8000000000000003
  endloop
endfacet
facet normal 0.0 0.0 -1.0
  outer loop
    vertex 0.0 3.000000000000001 -3.8000000000000003
    vertex 1.087039989430588 4.056888470414088 -3.8000000000000003
    vertex 0.7764571353075627 2.8977774788672055 -3.8000000000000003
  endloop
endfacet
facet normal 0.0 0.0 -1.0
  outer loop
    vertex 0.7764571353075627 2.8977774788672055 -3.8000000000000003
    vertex 1.087039989430588 4.056888470414088 -3.8000000000000003
    vertex 1.5 2.5980762113533156 -3.8000000000000003
  endloop
endfacet
facet normal 0.0 0.0 -1.0
  outer loop
    vertex 1.5 2.5980762113533156 -3.8000000000000003
    vertex 1.087039989430588 4.056888470414088 -3.8000000000000003
    vertex 2.1000000000000005 3.637306695894643 -3.8000000000000003
  endloop
endfacet
facet normal 0.0 0.0 -1.0
  outer loop
    vertex 1.5 2.5980762113533156 -3.8000000000000003
    vertex 2.1000000000000005 3.637306695894643 -3.8000000000000003
    vertex 2.121320343559643 2.121320343559643 -3.8000000000000003
  endloop
endfacet
facet normal 0.0 0.0 -1.0
  outer loop
    vertex 2.121320343559643 2.121320343559643 -3.8000000000000003
    vertex 2.1000000000000005 3.637306695894643 -3.8000000000000003
    vertex 2.9698484809834995 2.9698484809834995 -3.8000000000000003
  endloop
endfacet
facet normal 0.0 0.0 -1.0
  outer loop
    vertex 2.121320343559643 2.121320343559643 -3.8000000000000003
    vertex 2.9698484809834995 2.9698484809834995 -3.8000000000000003
    vertex 2.5980762113533156 1.5 -3.8000000000000003
  endloop
endfacet
facet normal 0.0 0.0 -1.0
  outer loop
    vertex 2.5980762113533156 1.5 -3.8000000000000003
    vertex 2.9698484809834995 2.9698484809834995 -3.8000000000000003
    vertex 2.8977774788672055 0.776457135307562 -3.8000000000000003
  endloop
endfacet
facet normal 0.0 0.0 -1.0
  outer loop
    vertex 2.8977774788672055 0.776457135307562 -3.8000000000000003
    vertex 2.9698484809834995 2.9698484809834995 -3.8000000000000003
    vertex 2.9999999999999996 0.0 -3.8000000000000003
  endloop
endfacet
facet normal 0.0 0.0 -1.0
  outer loop
    vertex 2.9999999999999996 0.0 -3.8000000000000003
    vertex 2.9698484809834995 2.9698484809834995 -3.8000000000000003
    vertex 3.637306695894643 2.0999999999999996 -3.8000000000000003
  endloop
endfacet
facet normal 0.0 0.0 -1.0
  outer loop
    vertex 2.9999999999999996 0.0 -3.8000000000000003
    vertex 3.637306695894643 2.0999999999999996 -3.8000000000000003
    vertex 3.6373066958946416 -2.100000000000002 -3.8000000000000003
  endloop
endfacet
facet normal 0.0 0.0 -1.0
  outer loop
    vertex 3.6373066958946416 -2.100000000000002 -3.8000000000000003
    vertex 3.637306695894643 2.0999999999999996 -3.8000000000000003
    vertex 4.056888470414086 -1.0870399894305902 -3.8000000000000003
  endloop
endfacet
facet normal 0.0 0.0 -1.0
  outer loop
    vertex 4.056888470414086 -1.0870399894305902 -3.8000000000000003
    vertex 3.637306695894643 2.0999999999999996 -3.8000000000000003
    vertex 4.056888470414088 1.0870399894305873 -3.8000000000000003
  endloop
endfacet
facet normal 0.0 0.0 -1.0
  outer loop
    vertex 4.056888470414086 -1.0870399894305902 -3.8000000000000003
    vertex 4.056888470414088 1.0870399894305873 -3.8000000000000003
    vertex 4.2 0.0 -3.8000000000000003
  endloop
endfacet
facet normal 0.0 0.0 -1.0
  outer loop
    vertex -4.056888470414087 1.0870399894305887 -3.8000000000000003
    vertex -4.056888470414088 -1.0870399894305856 -3.8000000000000003
    vertex -4.2 7.049916206369744e-16 -3.8000000000000003
  endloop
endfacet
facet normal 0.0 0.0 -1.0
  outer loop
    vertex -4.056888470414088 -1.0870399894305856 -3.8000000000000003
    vertex -4.056888470414087 1.0870399894305887 -3.8000000000000003
    vertex -3.637306695894643 -2.0999999999999988 -3.8000000000000003
  endloop
endfacet
facet normal 0.0 0.0 -1.0
  outer loop
    vertex -3.637306695894643 -2.0999999999999988 -3.8000000000000003
    vertex -4.056888470414087 1.0870399894305887 -3.8000000000000003
    vertex -3.6373066958946416 2.100000000000001 -3.8000000000000003
  endloop
endfacet
facet normal 0.0 0.0 -1.0
  outer loop
    vertex -3.637306695894643 -2.0999999999999988 -3.8000000000000003
    vertex -3.6373066958946416 2.100000000000001 -3.8000000000000003
    vertex -2.9698484809835013 -2.969848480983498 -3.8000000000000003
  endloop
endfacet
facet normal 0.0 0.0 -1.0
  outer loop
    vertex -2.9698484809835013 -2.969848480983498 -3.8000000000000003
    vertex -3.6373066958946416 2.100000000000001 -3.8000000000000003
    vertex -3.0 7.049916206369744e-16 -3.8000000000000003
  endloop
endfacet
facet normal 0.0 0.0 -1.0
  outer loop
    vertex -2.9698484809835013 -2.969848480983498 -3.8000000000000003
    vertex -3.0 7.049916206369744e-16 -3.8000000000000003
    vertex -2.897777478867205 -0.7764571353075612 -3.8000000000000003
  endloop
endfacet
facet normal 0.0 0.0 -1.0
  outer loop
    vertex -2.9698484809835013 -2.969848480983498 -3.8000000000000003
    vertex -2.897777478867205 -0.7764571353075612 -3.8000000000000003
    vertex -2.100000000000002 -3.6373066958946416 -3.8000000000000003
  endloop
endfacet
facet normal 0.0 0.0 -1.0
  outer loop
    vertex -2.100000000000002 -3.6373066958946416 -3.8000000000000003
    vertex -2.897777478867205 -0.7764571353075612 -3.8000000000000003
    vertex -2.598076211353316 -1.4999999999999993 -3.8000000000000003
  endloop
endfacet
facet normal 0.0 0.0 -1.0
  outer loop
    vertex -2.100000000000002 -3.6373066958946416 -3.8000000000000003
    vertex -2.598076211353316 -1.4999999999999993 -3.8000000000000003
    vertex -2.1213203435596437 -2.1213203435596415 -3.8000000000000003
  endloop
endfacet
facet normal 0.0 0.0 -1.0
  outer loop
    vertex -2.100000000000002 -3.6373066958946416 -3.8000000000000003
    vertex -2.1213203435596437 -2.1213203435596415 -3.8000000000000003
    vertex -1.5000000000000016 -2.5980762113533156 -3.8000000000000003
  endloop
endfacet
facet normal 0.0 0.0 -1.0
  outer loop
    vertex -2.100000000000002 -3.6373066958946416 -3.8000000000000003
    vertex -1.5000000000000016 -2.5980762113533156 -3.8000000000000003
    vertex -1.0870399894305902 -4.056888470414086 -3.8000000000000003
  endloop
endfacet
facet normal 0.0 0.0 -1.0
  outer loop
    vertex -1.0870399894305902 -4.056888470414086 -3.8000000000000003
    vertex -1.5000000000000016 -2.5980762113533156 -3.8000000000000003
    vertex -0.7764571353075641 -2.8977774788672046 -3.8000000000000003
  endloop
endfacet
facet normal 0.0 0.0 -1.0
  outer loop
    vertex -1.0870399894305902 -4.056888470414086 -3.8000000000000003
    vertex -0.7764571353075641 -2.8977774788672046 -3.8000000000000003
    vertex -7.049916206369744e-16 -4.2 -3.8000000000000003
  endloop
endfacet
facet normal 0.0 0.0 -1.0
  outer loop
    vertex -7.049916206369744e-16 -4.2 -3.8000000000000003
    vertex -0.7764571353075641 -2.8977774788672046 -3.8000000000000003
    vertex -7.049916206369744e-16 -3.0 -3.8000000000000003
  endloop
endfacet
facet normal 0.0 0.0 -1.0
  outer loop
    vertex -7.049916206369744e-16 -4.2 -3.8000000000000003
    vertex -7.049916206369744e-16 -3.0 -3.8000000000000003
    vertex 0.7764571353075606 -2.897777478867205 -3.8000000000000003
  endloop
endfacet
facet normal 0.0 0.0 -1.0
  outer loop
    vertex -7.049916206369744e-16 -4.2 -3.8000000000000003
    vertex 0.7764571353075606 -2.897777478867205 -3.8000000000000003
    vertex 1.087039989430585 -4.056888470414088 -3.8000000000000003
  endloop
endfacet
facet normal 0.0 0.0 -1.0
  outer loop
    vertex 1.087039989430585 -4.056888470414088 -3.8000000000000003
    vertex 0.7764571353075606 -2.897777478867205 -3.8000000000000003
    vertex 1.499999999999998 -2.5980762113533173 -3.8000000000000003
  endloop
endfacet
facet normal 0.0 0.0 -1.0
  outer loop
    vertex 1.087039989430585 -4.056888470414088 -3.8000000000000003
    vertex 1.499999999999998 -2.5980762113533173 -3.8000000000000003
    vertex 2.099999999999997 -3.6373066958946443 -3.8000000000000003
  endloop
endfacet
facet normal 0.0 0.0 -1.0
  outer loop
    vertex 2.099999999999997 -3.6373066958946443 -3.8000000000000003
    vertex 1.499999999999998 -2.5980762113533173 -3.8000000000000003
    vertex 2.1213203435596424 -2.1213203435596433 -3.8000000000000003
  endloop
endfacet
facet normal 0.0 0.0 -1.0
  outer loop
    vertex 2.099999999999997 -3.6373066958946443 -3.8000000000000003
    vertex 2.1213203435596424 -2.1213203435596433 -3.8000000000000003
    vertex 2.9698484809834995 -2.9698484809835004 -3.8000000000000003
  endloop
endfacet
facet normal 0.0 0.0 -1.0
  outer loop
    vertex 2.9698484809834995 -2.9698484809835004 -3.8000000000000003
    vertex 2.1213203435596424 -2.1213203435596433 -3.8000000000000003
    vertex 2.5980762113533156 -1.5000000000000016 -3.8000000000000003
  endloop
endfacet
facet normal 0.0 0.0 -1.0
  outer loop
    vertex 2.9698484809834995 -2.9698484809835004 -3.8000000000000003
    vertex 2.5980762113533156 -1.5000000000000016 -3.8000000000000003
    vertex 2.897777478867204 -0.7764571353075648 -3.8000000000000003
  endloop
endfacet
facet normal 0.0 0.0 -1.0
  outer loop
    vertex 2.9698484809834995 -2.9698484809835004 -3.8000000000000003
    vertex 2.897777478867204 -0.7764571353075648 -3.8000000000000003
    vertex 2.9999999999999996 0.0 -3.8000000000000003
  endloop
endfacet
facet normal 0.0 0.0 -1.0
  outer loop
    vertex 2.9698484809834995 -2.9698484809835004 -3.8000000000000003
    vertex 2.9999999999999996 0.0 -3.8000000000000003
    vertex 3.6373066958946416 -2.100000000000002 -3.8000000000000003
  endloop
endfacet
facet normal -0.3192497444664069 0.7707370628749453 0.5514018322140732
  outer loop
    vertex -1.4999999999999993 2.598076211353317 1.7999999999999996
    vertex -1.0870399894305867 4.056888470414088 0.0
    vertex -2.0999999999999988 3.637306695894643 0.0
  endloop
endfacet
facet normal -0.3192497444664069 0.7707370628749453 0.5514018322140732
  outer loop
    vertex -1.0870399894305867 4.056888470414088 0.0
    vertex -1.4999999999999993 2.598076211353317 1.7999999999999996
    vertex -0.776457135307562 2.8977774788672055 1.7999999999999996
  endloop
endfacet
facet normal -0.5078530038547027 0.6618469202970718 0.5514018322140734
  outer loop
    vertex -2.1213203435596424 2.121320343559643 1.7999999999999996
    vertex -2.0999999999999988 3.637306695894643 0.0
    vertex -2.9698484809834995 2.9698484809834995 0.0
  endloop
endfacet
facet normal -0.5078530038547027 0.6618469202970718 0.5514018322140734
  outer loop
    vertex -2.0999999999999988 3.637306695894643 0.0
    vertex -2.1213203435596424 2.121320343559643 1.7999999999999996
    vertex -1.4999999999999993 2.598076211353317 1.7999999999999996
  endloop
endfacet
facet normal -0.6618469202970716 0.5078530038547028 0.5514018322140734
  outer loop
    vertex -2.1213203435596424 2.121320343559643 1.7999999999999996
    vertex -3.6373066958946416 2.100000000000001 0.0
    vertex -2.5980762113533156 1.5000000000000007 1.7999999999999996
  endloop
endfacet
facet normal -0.6618469202970716 0.5078530038547028 0.5514018322140734
  outer loop
    vertex -3.6373066958946416 2.100000000000001 0.0
    vertex -2.1213203435596424 2.121320343559643 1.7999999999999996
    vertex -2.9698484809834995 2.9698484809834995 0.0
  endloop
endfacet
facet normal -0.7707370628749449 0.3192497444664072 0.5514018322140734
  outer loop
    vertex -2.5980762113533156 1.5000000000000007 1.7999999999999996
    vertex -4.056888470414087 1.0870399894305887 0.0
    vertex -2.8977774788672046 0.7764571353075633 1.7999999999999996
  endloop
endfacet
facet normal -0.7707370628749449 0.3192497444664072 0.5514018322140734
  outer loop
    vertex -4.056888470414087 1.0870399894305887 0.0
    vertex -2.5980762113533156 1.5000000000000007 1.7999999999999996
    vertex -3.6373066958946416 2.100000000000001 0.0
  endloop
endfacet
facet normal -0.923879532511287 -0.3826834323650897 -0.0
  outer loop
    vertex -4.056888470414088 -1.0870399894305856 0.0
    vertex -3.637306695894643 -2.0999999999999988 -3.8000000000000003
    vertex -3.637306695894643 -2.0999999999999988 0.0
  endloop
endfacet
facet normal -0.923879532511287 -0.3826834323650897 -0.0
  outer loop
    vertex -3.637306695894643 -2.0999999999999988 -3.8000000000000003
    vertex -4.056888470414088 -1.0870399894305856 0.0
    vertex -4.056888470414088 -1.0870399894305856 -3.8000000000000003
  endloop
endfacet
facet normal -0.38268343236508945 0.9238795325112868 0.0
  outer loop
    vertex -2.0999999999999988 3.637306695894643 0.0
    vertex -1.0870399894305867 4.056888470414088 -3.8000000000000003
    vertex -2.0999999999999988 3.637306695894643 -3.8000000000000003
  endloop
endfacet
facet normal -0.38268343236508945 0.9238795325112868 0.0
  outer loop
    vertex -1.0870399894305867 4.056888470414088 -3.8000000000000003
    vertex -2.0999999999999988 3.637306695894643 0.0
    vertex -1.0870399894305867 4.056888470414088 0.0
  endloop
endfacet
facet normal -0.3826834323650902 -0.9238795325112866 -0.0
  outer loop
    vertex -1.0870399894305902 -4.056888470414086 0.0
    vertex -2.100000000000002 -3.6373066958946416 -3.8000000000000003
    vertex -1.0870399894305902 -4.056888470414086 -3.8000000000000003
  endloop
endfacet
facet normal -0.3826834323650902 -0.9238795325112866 -0.0
  outer loop
    vertex -2.100000000000002 -3.6373066958946416 -3.8000000000000003
    vertex -1.0870399894305902 -4.056888470414086 0.0
    vertex -2.100000000000002 -3.6373066958946416 0.0
  endloop
endfacet
facet normal -0.7933533402912356 -0.6087614290087203 -0.0
  outer loop
    vertex -3.637306695894643 -2.0999999999999988 0.0
    vertex -2.9698484809835013 -2.969848480983498 -3.8000000000000003
    vertex -2.9698484809835013 -2.969848480983498 0.0
  endloop
endfacet
facet normal -0.7933533402912356 -0.6087614290087203 -0.0
  outer loop
    vertex -2.9698484809835013 -2.969848480983498 -3.8000000000000003
    vertex -3.637306695894643 -2.0999999999999988 0.0
    vertex -3.637306695894643 -2.0999999999999988 -3.8000000000000003
  endloop
endfacet
facet normal 0.3192497444664072 0.7707370628749449 0.5514018322140735
  outer loop
    vertex 0.7764571353075627 2.8977774788672055 1.7999999999999996
    vertex 2.1000000000000005 3.637306695894643 0.0
    vertex 1.087039989430588 4.056888470414088 0.0
  endloop
endfacet
facet normal 0.3192497444664072 0.7707370628749449 0.5514018322140735
  outer loop
    vertex 2.1000000000000005 3.637306695894643 0.0
    vertex 0.7764571353075627 2.8977774788672055 1.7999999999999996
    vertex 1.5 2.5980762113533156 1.7999999999999996
  endloop
endfacet
facet normal -0.6087614290087204 0.7933533402912353 0.0
  outer loop
    vertex -2.9698484809834995 2.9698484809834995 0.0
    vertex -2.0999999999999988 3.637306695894643 -3.8000000000000003
    vertex -2.9698484809834995 2.9698484809834995 -3.8000000000000003
  endloop
endfacet
facet normal -0.6087614290087204 0.7933533402912353 0.0
  outer loop
    vertex -2.0999999999999988 3.637306695894643 -3.8000000000000003
    vertex -2.9698484809834995 2.9698484809834995 0.0
    vertex -2.0999999999999988 3.637306695894643 0.0
  endloop
endfacet
facet normal 0.13052619222005155 0.9914448613738106 0.0
  outer loop
    vertex 0.0 4.2 0.0
    vertex 1.087039989430588 4.056888470414088 -3.8000000000000003
    vertex 0.0 4.2 -3.8000000000000003
  endloop
endfacet
facet normal 0.13052619222005155 0.9914448613738106 0.0
  outer loop
    vertex 1.087039989430588 4.056888470414088 -3.8000000000000003
    vertex 0.0 4.2 0.0
    vertex 1.087039989430588 4.056888470414088 0.0
  endloop
endfacet
facet normal 0.5078530038547029 0.6618469202970715 0.5514018322140734
  outer loop
    vertex 1.5 2.5980762113533156 1.7999999999999996
    vertex 2.9698484809834995 2.9698484809834995 0.0
    vertex 2.1000000000000005 3.637306695894643 0.0
  endloop
endfacet
facet normal 0.5078530038547029 0.6618469202970715 0.5514018322140734
  outer loop
    vertex 2.9698484809834995 2.9698484809834995 0.0
    vertex 1.5 2.5980762113533156 1.7999999999999996
    vertex 2.121320343559643 2.121320343559643 1.7999999999999996
  endloop
endfacet
facet normal -0.82710274832111 0.10889014257787344 0.5514018322140734
  outer loop
    vertex -2.8977774788672046 0.7764571353075633 1.7999999999999996
    vertex -4.2 7.049916206369744e-16 0.0
    vertex -3.0 7.049916206369744e-16 1.7999999999999996
  endloop
endfacet
facet normal -0.82710274832111 0.10889014257787344 0.5514018322140734
  outer loop
    vertex -4.2 7.049916206369744e-16 0.0
    vertex -2.8977774788672046 0.7764571353075633 1.7999999999999996
    vertex -4.056888470414087 1.0870399894305887 0.0
  endloop
endfacet
facet normal 0.9914448613738104 -0.13052619222005166 0.0
  outer loop
    vertex -2.8977774788672046 0.7764571353075633 -3.8000000000000003
    vertex -3.0 7.049916206369744e-16 -0.20000000000000034
    vertex -3.0 7.049916206369744e-16 -3.8000000000000003
  endloop
endfacet
facet normal 0.9914448613738104 -0.13052619222005166 0.0
  outer loop
    vertex -3.0 7.049916206369744e-16 -0.20000000000000034
    vertex -2.8977774788672046 0.7764571353075633 -3.8000000000000003
    vertex -2.8977774788672046 0.7764571353075633 -0.20000000000000034
  endloop
endfacet
facet normal -0.130526192220052 -0.9914448613738104 -0.0
  outer loop
    vertex -7.049916206369744e-16 -4.2 0.0
    vertex -1.0870399894305902 -4.056888470414086 -3.8000000000000003
    vertex -7.049916206369744e-16 -4.2 -3.8000000000000003
  endloop
endfacet
facet normal -0.130526192220052 -0.9914448613738104 -0.0
  outer loop
    vertex -1.0870399894305902 -4.056888470414086 -3.8000000000000003
    vertex -7.049916206369744e-16 -4.2 0.0
    vertex -1.0870399894305902 -4.056888470414086 0.0
  endloop
endfacet
facet normal -0.82710274832111 -0.10889014257787302 0.5514018322140734
  outer loop
    vertex -2.897777478867205 -0.7764571353075612 1.7999999999999996
    vertex -4.2 7.049916206369744e-16 0.0
    vertex -4.056888470414088 -1.0870399894305856 0.0
  endloop
endfacet
facet normal -0.82710274832111 -0.10889014257787302 0.5514018322140734
  outer loop
    vertex -4.2 7.049916206369744e-16 0.0
    vertex -2.897777478867205 -0.7764571353075612 1.7999999999999996
    vertex -3.0 7.049916206369744e-16 1.7999999999999996
  endloop
endfacet
facet normal 0.9238795325112871 0.38268343236508945 0.0
  outer loop
    vertex -2.897777478867205 -0.7764571353075612 -3.8000000000000003
    vertex -2.598076211353316 -1.4999999999999993 -0.20000000000000034
    vertex -2.598076211353316 -1.4999999999999993 -3.8000000000000003
  endloop
endfacet
facet normal 0.9238795325112871 0.38268343236508945 0.0
  outer loop
    vertex -2.598076211353316 -1.4999999999999993 -0.20000000000000034
    vertex -2.897777478867205 -0.7764571353075612 -3.8000000000000003
    vertex -2.897777478867205 -0.7764571353075612 -0.20000000000000034
  endloop
endfacet
facet normal -0.793353340291235 0.6087614290087208 0.0
  outer loop
    vertex -2.9698484809834995 2.9698484809834995 0.0
    vertex -3.6373066958946416 2.100000000000001 -3.8000000000000003
    vertex -3.6373066958946416 2.100000000000001 0.0
  endloop
endfacet
facet normal -0.793353340291235 0.6087614290087208 0.0
  outer loop
    vertex -3.6373066958946416 2.100000000000001 -3.8000000000000003
    vertex -2.9698484809834995 2.9698484809834995 0.0
    vertex -2.9698484809834995 2.9698484809834995 -3.8000000000000003
  endloop
endfacet
facet normal 0.793353340291235 -0.608761429008721 0.0
  outer loop
    vertex -2.1213203435596424 2.121320343559643 -3.8000000000000003
    vertex -2.5980762113533156 1.5000000000000007 -0.20000000000000034
    vertex -2.5980762113533156 1.5000000000000007 -3.8000000000000003
  endloop
endfacet
facet normal 0.793353340291235 -0.608761429008721 0.0
  outer loop
    vertex -2.5980762113533156 1.5000000000000007 -0.20000000000000034
    vertex -2.1213203435596424 2.121320343559643 -3.8000000000000003
    vertex -2.1213203435596424 2.121320343559643 -0.20000000000000034
  endloop
endfacet
facet normal 0.13052619222005193 0.9914448613738104 0.0
  outer loop
    vertex -0.7764571353075641 -2.8977774788672046 -0.20000000000000034
    vertex -7.049916206369744e-16 -3.0 -3.8000000000000003
    vertex -0.7764571353075641 -2.8977774788672046 -3.8000000000000003
  endloop
endfacet
facet normal 0.13052619222005193 0.9914448613738104 0.0
  outer loop
    vertex -7.049916206369744e-16 -3.0 -3.8000000000000003
    vertex -0.7764571353075641 -2.8977774788672046 -0.20000000000000034
    vertex -7.049916206369744e-16 -3.0 -0.20000000000000034
  endloop
endfacet
facet normal 0.9238795325112867 -0.3826834323650899 0.0
  outer loop
    vertex -2.5980762113533156 1.5000000000000007 -3.8000000000000003
    vertex -2.8977774788672046 0.7764571353075633 -0.20000000000000034
    vertex -2.8977774788672046 0.7764571353075633 -3.8000000000000003
  endloop
endfacet
facet normal 0.9238795325112867 -0.3826834323650899 0.0
  outer loop
    vertex -2.8977774788672046 0.7764571353075633 -0.20000000000000034
    vertex -2.5980762113533156 1.5000000000000007 -3.8000000000000003
    vertex -2.5980762113533156 1.5000000000000007 -0.20000000000000034
  endloop
endfacet
facet normal 0.3192497444664065 -0.7707370628749451 0.5514018322140735
  outer loop
    vertex 1.499999999999998 -2.5980762113533173 1.7999999999999996
    vertex 1.087039989430585 -4.056888470414088 0.0
    vertex 2.099999999999997 -3.6373066958946443 0.0
  endloop
endfacet
facet normal 0.3192497444664065 -0.7707370628749451 0.5514018322140735
  outer loop
    vertex 1.087039989430585 -4.056888470414088 0.0
    vertex 1.499999999999998 -2.5980762113533173 1.7999999999999996
    vertex 0.7764571353075606 -2.897777478867205 1.7999999999999996
  endloop
endfacet
facet normal -0.6618469202970717 -0.5078530038547024 0.5514018322140734
  outer loop
    vertex -2.1213203435596437 -2.1213203435596415 1.7999999999999996
    vertex -3.637306695894643 -2.0999999999999988 0.0
    vertex -2.9698484809835013 -2.969848480983498 0.0
  endloop
endfacet
facet normal -0.6618469202970717 -0.5078530038547024 0.5514018322140734
  outer loop
    vertex -3.637306695894643 -2.0999999999999988 0.0
    vertex -2.1213203435596437 -2.1213203435596415 1.7999999999999996
    vertex -2.598076211353316 -1.4999999999999993 1.7999999999999996
  endloop
endfacet
facet normal -0.6087614290087211 -0.7933533402912347 -0.0
  outer loop
    vertex -2.100000000000002 -3.6373066958946416 0.0
    vertex -2.9698484809835013 -2.969848480983498 -3.8000000000000003
    vertex -2.100000000000002 -3.6373066958946416 -3.8000000000000003
  endloop
endfacet
facet normal -0.6087614290087211 -0.7933533402912347 -0.0
  outer loop
    vertex -2.9698484809835013 -2.969848480983498 -3.8000000000000003
    vertex -2.100000000000002 -3.6373066958946416 0.0
    vertex -2.9698484809835013 -2.969848480983498 0.0
  endloop
endfacet
facet normal -0.3826834323650892 0.9238795325112871 0.0
  outer loop
    vertex 0.7764571353075606 -2.897777478867205 -0.20000000000000034
    vertex 1.499999999999998 -2.5980762113533173 -3.8000000000000003
    vertex 0.7764571353075606 -2.897777478867205 -3.8000000000000003
  endloop
endfacet
facet normal -0.3826834323650892 0.9238795325112871 0.0
  outer loop
    vertex 1.499999999999998 -2.5980762113533173 -3.8000000000000003
    vertex 0.7764571353075606 -2.897777478867205 -0.20000000000000034
    vertex 1.499999999999998 -2.5980762113533173 -0.20000000000000034
  endloop
endfacet
facet normal 0.7933533402912352 0.6087614290087208 0.0
  outer loop
    vertex 2.9698484809834995 2.9698484809834995 -3.8000000000000003
    vertex 3.637306695894643 2.0999999999999996 0.0
    vertex 3.637306695894643 2.0999999999999996 -3.8000000000000003
  endloop
endfacet
facet normal 0.7933533402912352 0.6087614290087208 0.0
  outer loop
    vertex 3.637306695894643 2.0999999999999996 0.0
    vertex 2.9698484809834995 2.9698484809834995 -3.8000000000000003
    vertex 2.9698484809834995 2.9698484809834995 0.0
  endloop
endfacet
facet normal -0.5078530038547032 -0.6618469202970713 0.5514018322140734
  outer loop
    vertex -1.5000000000000016 -2.5980762113533156 1.7999999999999996
    vertex -2.9698484809835013 -2.969848480983498 0.0
    vertex -2.100000000000002 -3.6373066958946416 0.0
  endloop
endfacet
facet normal -0.5078530038547032 -0.6618469202970713 0.5514018322140734
  outer loop
    vertex -2.9698484809835013 -2.969848480983498 0.0
    vertex -1.5000000000000016 -2.5980762113533156 1.7999999999999996
    vertex -2.1213203435596437 -2.1213203435596415 1.7999999999999996
  endloop
endfacet
facet normal 0.6087614290087204 -0.7933533402912353 0.0
  outer loop
    vertex -1.4999999999999993 2.598076211353317 -0.20000000000000034
    vertex -2.1213203435596424 2.121320343559643 -3.8000000000000003
    vertex -1.4999999999999993 2.598076211353317 -3.8000000000000003
  endloop
endfacet
facet normal 0.6087614290087204 -0.7933533402912353 0.0
  outer loop
    vertex -2.1213203435596424 2.121320343559643 -3.8000000000000003
    vertex -1.4999999999999993 2.598076211353317 -0.20000000000000034
    vertex -2.1213203435596424 2.121320343559643 -0.20000000000000034
  endloop
endfacet
facet normal 0.9238795325112867 -0.38268343236509034 0.0
  outer loop
    vertex 4.056888470414086 -1.0870399894305902 -3.8000000000000003
    vertex 3.6373066958946416 -2.100000000000002 0.0
    vertex 3.6373066958946416 -2.100000000000002 -3.8000000000000003
  endloop
endfacet
facet normal 0.9238795325112867 -0.38268343236509034 0.0
  outer loop
    vertex 3.6373066958946416 -2.100000000000002 0.0
    vertex 4.056888470414086 -1.0870399894305902 -3.8000000000000003
    vertex 4.056888470414086 -1.0870399894305902 0.0
  endloop
endfacet
facet normal 0.9914448613738106 0.13052619222005146 0.0
  outer loop
    vertex -3.0 7.049916206369744e-16 -3.8000000000000003
    vertex -2.897777478867205 -0.7764571353075612 -0.20000000000000034
    vertex -2.897777478867205 -0.7764571353075612 -3.8000000000000003
  endloop
endfacet
facet normal 0.9914448613738106 0.13052619222005146 0.0
  outer loop
    vertex -2.897777478867205 -0.7764571353075612 -0.20000000000000034
    vertex -3.0 7.049916206369744e-16 -3.8000000000000003
    vertex -3.0 7.049916206369744e-16 -0.20000000000000034
  endloop
endfacet
facet normal 0.1088901425778731 -0.8271027483211102 0.5514018322140734
  outer loop
    vertex 0.7764571353075606 -2.897777478867205 1.7999999999999996
    vertex -7.049916206369744e-16 -4.2 0.0
    vertex 1.087039989430585 -4.056888470414088 0.0
  endloop
endfacet
facet normal 0.1088901425778731 -0.8271027483211102 0.5514018322140734
  outer loop
    vertex -7.049916206369744e-16 -4.2 0.0
    vertex 0.7764571353075606 -2.897777478867205 1.7999999999999996
    vertex -7.049916206369744e-16 -3.0 1.7999999999999996
  endloop
endfacet
facet normal 0.6618469202970716 0.5078530038547026 0.5514018322140735
  outer loop
    vertex 3.637306695894643 2.0999999999999996 0.0
    vertex 2.121320343559643 2.121320343559643 1.7999999999999996
    vertex 2.5980762113533156 1.5 1.7999999999999996
  endloop
endfacet
facet normal 0.6618469202970716 0.5078530038547026 0.5514018322140735
  outer loop
    vertex 2.121320343559643 2.121320343559643 1.7999999999999996
    vertex 3.637306695894643 2.0999999999999996 0.0
    vertex 2.9698484809834995 2.9698484809834995 0.0
  endloop
endfacet
facet normal -0.10889014257787369 -0.82710274832111 0.5514018322140732
  outer loop
    vertex -7.049916206369744e-16 -3.0 1.7999999999999996
    vertex -1.0870399894305902 -4.056888470414086 0.0
    vertex -7.049916206369744e-16 -4.2 0.0
  endloop
endfacet
facet normal -0.10889014257787369 -0.82710274832111 0.5514018322140732
  outer loop
    vertex -1.0870399894305902 -4.056888470414086 0.0
    vertex -7.049916206369744e-16 -3.0 1.7999999999999996
    vertex -0.7764571353075641 -2.8977774788672046 1.7999999999999996
  endloop
endfacet
facet normal 0.793353340291235 -0.6087614290087208 0.0
  outer loop
    vertex 3.6373066958946416 -2.100000000000002 -3.8000000000000003
    vertex 2.9698484809834995 -2.9698484809835004 0.0
    vertex 2.9698484809834995 -2.9698484809835004 -3.8000000000000003
  endloop
endfacet
facet normal 0.793353340291235 -0.6087614290087208 0.0
  outer loop
    vertex 2.9698484809834995 -2.9698484809835004 0.0
    vertex 3.6373066958946416 -2.100000000000002 -3.8000000000000003
    vertex 3.6373066958946416 -2.100000000000002 0.0
  endloop
endfacet
facet normal 0.82710274832111 -0.10889014257787365 0.5514018322140735
  outer loop
    vertex 4.2 0.0 0.0
    vertex 2.897777478867204 -0.7764571353075648 1.7999999999999996
    vertex 4.056888470414086 -1.0870399894305902 0.0
  endloop
endfacet
facet normal 0.82710274832111 -0.10889014257787365 0.5514018322140735
  outer loop
    vertex 2.897777478867204 -0.7764571353075648 1.7999999999999996
    vertex 4.2 0.0 0.0
    vertex 2.9999999999999996 0.0 1.7999999999999996
  endloop
endfacet
facet normal 0.5078530038547022 -0.661846920297072 0.5514018322140732
  outer loop
    vertex 2.1213203435596424 -2.1213203435596433 1.7999999999999996
    vertex 2.099999999999997 -3.6373066958946443 0.0
    vertex 2.9698484809834995 -2.9698484809835004 0.0
  endloop
endfacet
facet normal 0.5078530038547022 -0.661846920297072 0.5514018322140732
  outer loop
    vertex 2.099999999999997 -3.6373066958946443 0.0
    vertex 2.1213203435596424 -2.1213203435596433 1.7999999999999996
    vertex 1.499999999999998 -2.5980762113533173 1.7999999999999996
  endloop
endfacet
facet normal 0.9914448613738105 -0.13052619222005188 0.0
  outer loop
    vertex 4.2 0.0 -3.8000000000000003
    vertex 4.056888470414086 -1.0870399894305902 0.0
    vertex 4.056888470414086 -1.0870399894305902 -3.8000000000000003
  endloop
endfacet
facet normal 0.9914448613738105 -0.13052619222005188 0.0
  outer loop
    vertex 4.056888470414086 -1.0870399894305902 0.0
    vertex 4.2 0.0 -3.8000000000000003
    vertex 4.2 0.0 0.0
  endloop
endfacet
facet normal -0.60876142900872 0.7933533402912358 0.0
  outer loop
    vertex 1.499999999999998 -2.5980762113533173 -0.20000000000000034
    vertex 2.1213203435596424 -2.1213203435596433 -3.8000000000000003
    vertex 1.499999999999998 -2.5980762113533173 -3.8000000000000003
  endloop
endfacet
facet normal -0.60876142900872 0.7933533402912358 0.0
  outer loop
    vertex 2.1213203435596424 -2.1213203435596433 -3.8000000000000003
    vertex 1.499999999999998 -2.5980762113533173 -0.20000000000000034
    vertex 2.1213203435596424 -2.1213203435596433 -0.20000000000000034
  endloop
endfacet
facet normal 0.6618469202970714 -0.507853003854703 0.5514018322140735
  outer loop
    vertex 3.6373066958946416 -2.100000000000002 0.0
    vertex 2.1213203435596424 -2.1213203435596433 1.7999999999999996
    vertex 2.9698484809834995 -2.9698484809835004 0.0
  endloop
endfacet
facet normal 0.6618469202970714 -0.507853003854703 0.5514018322140735
  outer loop
    vertex 2.1213203435596424 -2.1213203435596433 1.7999999999999996
    vertex 3.6373066958946416 -2.100000000000002 0.0
    vertex 2.5980762113533156 -1.5000000000000016 1.7999999999999996
  endloop
endfacet
facet normal 0.82710274832111 0.10889014257787333 0.5514018322140734
  outer loop
    vertex 4.056888470414088 1.0870399894305873 0.0
    vertex 2.9999999999999996 0.0 1.7999999999999996
    vertex 4.2 0.0 0.0
  endloop
endfacet
facet normal 0.82710274832111 0.10889014257787333 0.5514018322140734
  outer loop
    vertex 2.9999999999999996 0.0 1.7999999999999996
    vertex 4.056888470414088 1.0870399894305873 0.0
    vertex 2.8977774788672055 0.776457135307562 1.7999999999999996
  endloop
endfacet
facet normal 0.7707370628749448 -0.3192497444664075 0.5514018322140735
  outer loop
    vertex 4.056888470414086 -1.0870399894305902 0.0
    vertex 2.5980762113533156 -1.5000000000000016 1.7999999999999996
    vertex 3.6373066958946416 -2.100000000000002 0.0
  endloop
endfacet
facet normal 0.7707370628749448 -0.3192497444664075 0.5514018322140735
  outer loop
    vertex 2.5980762113533156 -1.5000000000000016 1.7999999999999996
    vertex 4.056888470414086 -1.0870399894305902 0.0
    vertex 2.897777478867204 -0.7764571353075648 1.7999999999999996
  endloop
endfacet
facet normal -0.13052619222005146 0.9914448613738105 0.0
  outer loop
    vertex -7.049916206369744e-16 -3.0 -0.20000000000000034
    vertex 0.7764571353075606 -2.897777478867205 -3.8000000000000003
    vertex -7.049916206369744e-16 -3.0 -3.8000000000000003
  endloop
endfacet
facet normal -0.13052619222005146 0.9914448613738105 0.0
  outer loop
    vertex 0.7764571353075606 -2.897777478867205 -3.8000000000000003
    vertex -7.049916206369744e-16 -3.0 -0.20000000000000034
    vertex 0.7764571353075606 -2.897777478867205 -0.20000000000000034
  endloop
endfacet
facet normal 0.0 0.0 -1.0
  outer loop
    vertex -2.1213203435596424 2.121320343559643 -0.20000000000000034
    vertex -1.9725174656681186 0.3304161733847513 -0.19999999999999962
    vertex -1.990823561376967 -0.1913675716163283 -0.19999999999999962
  endloop
endfacet
facet normal 0.0 0.0 -1.0
  outer loop
    vertex -1.9725174656681186 0.3304161733847513 -0.19999999999999962
    vertex -2.1213203435596424 2.121320343559643 -0.20000000000000034
    vertex -1.4999999999999993 2.598076211353317 -0.20000000000000034
  endloop
endfacet
facet normal 0.0 0.0 -1.0
  outer loop
    vertex -1.9725174656681186 0.3304161733847513 -0.19999999999999962
    vertex -1.4999999999999993 2.598076211353317 -0.20000000000000034
    vertex -1.819787564413226 0.8296826022082054 -0.19999999999999962
  endloop
endfacet
facet normal 0.0 0.0 -1.0
  outer loop
    vertex -1.819787564413226 0.8296826022082054 -0.19999999999999962
    vertex -1.4999999999999993 2.598076211353317 -0.20000000000000034
    vertex -1.543042147984714 1.2724075328064985 -0.19999999999999962
  endloop
endfacet
facet normal 0.0 0.0 -1.0
  outer loop
    vertex -1.543042147984714 1.2724075328064985 -0.19999999999999962
    vertex -1.4999999999999993 2.598076211353317 -0.20000000000000034
    vertex -1.1611409591687618 1.628419992796898 -0.19999999999999962
  endloop
endfacet
facet normal 0.0 0.0 -1.0
  outer loop
    vertex -1.1611409591687618 1.628419992796898 -0.19999999999999962
    vertex -1.4999999999999993 2.598076211353317 -0.20000000000000034
    vertex -0.776457135307562 2.8977774788672055 -0.20000000000000034
  endloop
endfacet
facet normal 0.0 0.0 -1.0
  outer loop
    vertex -1.1611409591687618 1.628419992796898 -0.19999999999999962
    vertex -0.776457135307562 2.8977774788672055 -0.20000000000000034
    vertex -0.7001099328616209 1.8734583213694664 -0.19999999999999962
  endloop
endfacet
facet normal 0.0 0.0 -1.0
  outer loop
    vertex -0.7001099328616209 1.8734583213694664 -0.19999999999999962
    vertex -0.776457135307562 2.8977774788672055 -0.20000000000000034
    vertex 0.0 3.000000000000001 -0.20000000000000034
  endloop
endfacet
facet normal 0.0 0.0 -1.0
  outer loop
    vertex -0.7001099328616209 1.8734583213694664 -0.19999999999999962
    vertex 0.0 3.000000000000001 -0.20000000000000034
    vertex -0.191367571616329 1.990823561376967 -0.19999999999999962
  endloop
endfacet
facet normal 0.0 0.0 -1.0
  outer loop
    vertex -0.191367571616329 1.990823561376967 -0.19999999999999962
    vertex 0.0 3.000000000000001 -0.20000000000000034
    vertex 0.3304161733847513 1.9725174656681193 -0.19999999999999962
  endloop
endfacet
facet normal 0.0 0.0 -1.0
  outer loop
    vertex 0.3304161733847513 1.9725174656681193 -0.19999999999999962
    vertex 0.0 3.000000000000001 -0.20000000000000034
    vertex 0.7764571353075627 2.8977774788672055 -0.20000000000000034
  endloop
endfacet
facet normal 0.0 0.0 -1.0
  outer loop
    vertex 0.3304161733847513 1.9725174656681193 -0.19999999999999962
    vertex 0.7764571353075627 2.8977774788672055 -0.20000000000000034
    vertex 0.829682602208204 1.819787564413227 -0.19999999999999962
  endloop
endfacet
facet normal 0.0 0.0 -1.0
  outer loop
    vertex 0.829682602208204 1.819787564413227 -0.19999999999999962
    vertex 0.7764571353075627 2.8977774788672055 -0.20000000000000034
    vertex 1.5 2.5980762113533156 -0.20000000000000034
  endloop
endfacet
facet normal 0.0 0.0 -1.0
  outer loop
    vertex 0.829682602208204 1.819787564413227 -0.19999999999999962
    vertex 1.5 2.5980762113533156 -0.20000000000000034
    vertex 1.2724075328064985 1.5430421479847145 -0.19999999999999962
  endloop
endfacet
facet normal 0.0 0.0 -1.0
  outer loop
    vertex 1.2724075328064985 1.5430421479847145 -0.19999999999999962
    vertex 1.5 2.5980762113533156 -0.20000000000000034
    vertex 1.628419992796898 1.161140959168762 -0.19999999999999962
  endloop
endfacet
facet normal 0.0 0.0 -1.0
  outer loop
    vertex 1.628419992796898 1.161140959168762 -0.19999999999999962
    vertex 1.5 2.5980762113533156 -0.20000000000000034
    vertex 2.121320343559643 2.121320343559643 -0.20000000000000034
  endloop
endfacet
facet normal 0.0 0.0 -1.0
  outer loop
    vertex 1.628419992796898 1.161140959168762 -0.19999999999999962
    vertex 2.121320343559643 2.121320343559643 -0.20000000000000034
    vertex 1.8734583213694658 0.7001099328616223 -0.19999999999999962
  endloop
endfacet
facet normal 0.0 0.0 -1.0
  outer loop
    vertex 1.8734583213694658 0.7001099328616223 -0.19999999999999962
    vertex 2.121320343559643 2.121320343559643 -0.20000000000000034
    vertex 1.990823561376967 0.1913675716163283 -0.19999999999999962
  endloop
endfacet
facet normal 0.0 0.0 -1.0
  outer loop
    vertex 1.990823561376967 0.1913675716163283 -0.19999999999999962
    vertex 2.121320343559643 2.121320343559643 -0.20000000000000034
    vertex 2.1213203435596424 -2.1213203435596433 -0.20000000000000034
  endloop
endfacet
facet normal 0.0 0.0 -1.0
  outer loop
    vertex 2.1213203435596424 -2.1213203435596433 -0.20000000000000034
    vertex 2.121320343559643 2.121320343559643 -0.20000000000000034
    vertex 2.5980762113533156 -1.5000000000000016 -0.20000000000000034
  endloop
endfacet
facet normal 0.0 0.0 -1.0
  outer loop
    vertex 2.5980762113533156 -1.5000000000000016 -0.20000000000000034
    vertex 2.121320343559643 2.121320343559643 -0.20000000000000034
    vertex 2.5980762113533156 1.5 -0.20000000000000034
  endloop
endfacet
facet normal 0.0 0.0 -1.0
  outer loop
    vertex 2.5980762113533156 -1.5000000000000016 -0.20000000000000034
    vertex 2.5980762113533156 1.5 -0.20000000000000034
    vertex 2.8977774788672055 0.776457135307562 -0.20000000000000034
  endloop
endfacet
facet normal 0.0 0.0 -1.0
  outer loop
    vertex 2.5980762113533156 -1.5000000000000016 -0.20000000000000034
    vertex 2.8977774788672055 0.776457135307562 -0.20000000000000034
    vertex 2.897777478867204 -0.7764571353075648 -0.20000000000000034
  endloop
endfacet
facet normal 0.0 0.0 -1.0
  outer loop
    vertex 2.897777478867204 -0.7764571353075648 -0.20000000000000034
    vertex 2.8977774788672055 0.776457135307562 -0.20000000000000034
    vertex 2.9999999999999996 0.0 -0.20000000000000034
  endloop
endfacet
facet normal 0.0 0.0 -1.0
  outer loop
    vertex -2.8977774788672046 0.7764571353075633 -0.20000000000000034
    vertex -2.897777478867205 -0.7764571353075612 -0.20000000000000034
    vertex -3.0 7.049916206369744e-16 -0.20000000000000034
  endloop
endfacet
facet normal 0.0 0.0 -1.0
  outer loop
    vertex -2.897777478867205 -0.7764571353075612 -0.20000000000000034
    vertex -2.8977774788672046 0.7764571353075633 -0.20000000000000034
    vertex -2.598076211353316 -1.4999999999999993 -0.20000000000000034
  endloop
endfacet
facet normal 0.0 0.0 -1.0
  outer loop
    vertex -2.598076211353316 -1.4999999999999993 -0.20000000000000034
    vertex -2.8977774788672046 0.7764571353075633 -0.20000000000000034
    vertex -2.5980762113533156 1.5000000000000007 -0.20000000000000034
  endloop
endfacet
facet normal 0.0 0.0 -1.0
  outer loop
    vertex -2.598076211353316 -1.4999999999999993 -0.20000000000000034
    vertex -2.5980762113533156 1.5000000000000007 -0.20000000000000034
    vertex -2.1213203435596437 -2.1213203435596415 -0.20000000000000034
  endloop
endfacet
facet normal 0.0 0.0 -1.0
  outer loop
    vertex -2.1213203435596437 -2.1213203435596415 -0.20000000000000034
    vertex -2.5980762113533156 1.5000000000000007 -0.20000000000000034
    vertex -2.1213203435596424 2.121320343559643 -0.20000000000000034
  endloop
endfacet
facet normal 0.0 0.0 -1.0
  outer loop
    vertex -2.1213203435596437 -2.1213203435596415 -0.20000000000000034
    vertex -2.1213203435596424 2.121320343559643 -0.20000000000000034
    vertex -1.990823561376967 -0.1913675716163283 -0.19999999999999962
  endloop
endfacet
facet normal 0.0 0.0 -1.0
  outer loop
    vertex -2.1213203435596437 -2.1213203435596415 -0.20000000000000034
    vertex -1.990823561376967 -0.1913675716163283 -0.19999999999999962
    vertex -1.5000000000000016 -2.5980762113533156 -0.20000000000000034
  endloop
endfacet
facet normal 0.0 0.0 -1.0
  outer loop
    vertex -1.5000000000000016 -2.5980762113533156 -0.20000000000000034
    vertex -1.990823561376967 -0.1913675716163283 -0.19999999999999962
    vertex -1.8734583213694664 -0.7001099328616209 -0.19999999999999962
  endloop
endfacet
facet normal 0.0 0.0 -1.0
  outer loop
    vertex -1.5000000000000016 -2.5980762113533156 -0.20000000000000034
    vertex -1.8734583213694664 -0.7001099328616209 -0.19999999999999962
    vertex -1.628419992796898 -1.1611409591687618 -0.19999999999999962
  endloop
endfacet
facet normal 0.0 0.0 -1.0
  outer loop
    vertex -1.5000000000000016 -2.5980762113533156 -0.20000000000000034
    vertex -1.628419992796898 -1.1611409591687618 -0.19999999999999962
    vertex -1.2724075328064985 -1.5430421479847145 -0.19999999999999962
  endloop
endfacet
facet normal 0.0 0.0 -1.0
  outer loop
    vertex -1.5000000000000016 -2.5980762113533156 -0.20000000000000034
    vertex -1.2724075328064985 -1.5430421479847145 -0.19999999999999962
    vertex -0.7764571353075641 -2.8977774788672046 -0.20000000000000034
  endloop
endfacet
facet normal 0.0 0.0 -1.0
  outer loop
    vertex -0.7764571353075641 -2.8977774788672046 -0.20000000000000034
    vertex -1.2724075328064985 -1.5430421479847145 -0.19999999999999962
    vertex -0.8296826022082054 -1.8197875644132262 -0.19999999999999962
  endloop
endfacet
facet normal 0.0 0.0 -1.0
  outer loop
    vertex -0.7764571353075641 -2.8977774788672046 -0.20000000000000034
    vertex -0.8296826022082054 -1.8197875644132262 -0.19999999999999962
    vertex -0.33041617338475204 -1.972517465668119 -0.19999999999999962
  endloop
endfacet
facet normal 0.0 0.0 -1.0
  outer loop
    vertex -0.7764571353075641 -2.8977774788672046 -0.20000000000000034
    vertex -0.33041617338475204 -1.972517465668119 -0.19999999999999962
    vertex -7.049916206369744e-16 -3.0 -0.20000000000000034
  endloop
endfacet
facet normal 0.0 0.0 -1.0
  outer loop
    vertex -7.049916206369744e-16 -3.0 -0.20000000000000034
    vertex -0.33041617338475204 -1.972517465668119 -0.19999999999999962
    vertex 0.19136757161632761 -1.990823561376967 -0.19999999999999962
  endloop
endfacet
facet normal 0.0 0.0 -1.0
  outer loop
    vertex -7.049916206369744e-16 -3.0 -0.20000000000000034
    vertex 0.19136757161632761 -1.990823561376967 -0.19999999999999962
    vertex 0.7764571353075606 -2.897777478867205 -0.20000000000000034
  endloop
endfacet
facet normal 0.0 0.0 -1.0
  outer loop
    vertex 0.7764571353075606 -2.897777478867205 -0.20000000000000034
    vertex 0.19136757161632761 -1.990823561376967 -0.19999999999999962
    vertex 0.7001099328616202 -1.873458321369466 -0.19999999999999962
  endloop
endfacet
facet normal 0.0 0.0 -1.0
  outer loop
    vertex 0.7764571353075606 -2.897777478867205 -0.20000000000000034
    vertex 0.7001099328616202 -1.873458321369466 -0.19999999999999962
    vertex 1.1611409591687607 -1.628419992796898 -0.19999999999999962
  endloop
endfacet
facet normal 0.0 0.0 -1.0
  outer loop
    vertex 0.7764571353075606 -2.897777478867205 -0.20000000000000034
    vertex 1.1611409591687607 -1.628419992796898 -0.19999999999999962
    vertex 1.499999999999998 -2.5980762113533173 -0.20000000000000034
  endloop
endfacet
facet normal 0.0 0.0 -1.0
  outer loop
    vertex 1.499999999999998 -2.5980762113533173 -0.20000000000000034
    vertex 1.1611409591687607 -1.628419992796898 -0.19999999999999962
    vertex 1.5430421479847136 -1.2724075328064985 -0.19999999999999962
  endloop
endfacet
facet normal 0.0 0.0 -1.0
  outer loop
    vertex 1.499999999999998 -2.5980762113533173 -0.20000000000000034
    vertex 1.5430421479847136 -1.2724075328064985 -0.19999999999999962
    vertex 2.1213203435596424 -2.1213203435596433 -0.20000000000000034
  endloop
endfacet
facet normal 0.0 0.0 -1.0
  outer loop
    vertex 2.1213203435596424 -2.1213203435596433 -0.20000000000000034
    vertex 1.5430421479847136 -1.2724075328064985 -0.19999999999999962
    vertex 1.8197875644132262 -0.829682602208204 -0.19999999999999962
  endloop
endfacet
facet normal 0.0 0.0 -1.0
  outer loop
    vertex 2.1213203435596424 -2.1213203435596433 -0.20000000000000034
    vertex 1.8197875644132262 -0.829682602208204 -0.19999999999999962
    vertex 1.9725174656681186 -0.3304161733847513 -0.19999999999999962
  endloop
endfacet
facet normal 0.0 0.0 -1.0
  outer loop
    vertex 2.1213203435596424 -2.1213203435596433 -0.20000000000000034
    vertex 1.9725174656681186 -0.3304161733847513 -0.19999999999999962
    vertex 1.990823561376967 0.1913675716163283 -0.19999999999999962
  endloop
endfacet
endsolid CDTVKeyboard_Stud_Adapter
