solid Keyboard_Guide
facet normal 0.0 -1.0 0.0
  outer loop
    vertex 42.246160866074085 -1.7325221785260607 4.299999902262328
    vertex 41.246160866074085 -1.7325221785260607 -3.2999999999999994
    vertex 42.246160866074085 -1.7325221785260607 -3.2999999999999994
  endloop
endfacet
facet normal 0.0 -1.0 0.0
  outer loop
    vertex 41.246160866074085 -1.7325221785260607 -3.2999999999999994
    vertex 42.246160866074085 -1.7325221785260607 4.299999902262328
    vertex 41.246160866074085 -1.7325221785260607 4.8999999999999995
  endloop
endfacet
facet normal 0.0 -1.0 0.0
  outer loop
    vertex 41.246160866074085 -1.7325221785260607 4.8999999999999995
    vertex 42.246160866074085 -1.7325221785260607 4.299999902262328
    vertex 42.2461608543034 -1.7325222029604788 4.899999902262327
  endloop
endfacet
facet normal 0.0 1.0 0.0
  outer loop
    vertex 41.246160866074085 -0.13252217852606046 4.8999999999999995
    vertex 42.246160866074085 -0.13252217852606046 -3.2999999999999994
    vertex 41.246160866074085 -0.13252217852606046 -3.2999999999999994
  endloop
endfacet
facet normal 0.0 1.0 0.0
  outer loop
    vertex 42.246160866074085 -0.13252217852606046 -3.2999999999999994
    vertex 41.246160866074085 -0.13252217852606046 4.8999999999999995
    vertex 42.246160866074085 -0.13252217852606046 4.8999999999999995
  endloop
endfacet
facet normal -1.0 0.0 0.0
  outer loop
    vertex 42.246160866074085 0.36747782147394076 4.8999999999999995
    vertex 42.246160866074085 -0.13252217852606046 -3.2999999999999994
    vertex 42.246160866074085 -0.13252217852606046 4.8999999999999995
  endloop
endfacet
facet normal -1.0 0.0 0.0
  outer loop
    vertex 42.246160866074085 -0.13252217852606046 -3.2999999999999994
    vertex 42.246160866074085 0.36747782147394076 4.8999999999999995
    vertex 42.246160866074085 0.36747782147394076 -3.2999999999999994
  endloop
endfacet
facet normal -0.9650812745905352 0.261950631674574 0.0
  outer loop
    vertex 42.707589437502655 2.0674778214739398 4.8999999999999995
    vertex 42.246160866074085 0.36747782147394076 -3.2999999999999994
    vertex 42.246160866074085 0.36747782147394076 4.8999999999999995
  endloop
endfacet
facet normal -0.9650812745905352 0.261950631674574 0.0
  outer loop
    vertex 42.246160866074085 0.36747782147394076 -3.2999999999999994
    vertex 42.707589437502655 2.0674778214739398 4.8999999999999995
    vertex 42.707589437502655 2.0674778214739398 -3.2999999999999994
  endloop
endfacet
facet normal 1.980593092983166e-07 0.999999992322779 -0.0001239128847750536
  outer loop
    vertex 54.11022387386079 2.0684928519592165 4.899999885903955
    vertex 54.910222169824685 2.0674778214739398 -3.2999999999999994
    vertex 54.11022216982469 2.0674778214739398 -3.2999999999999994
  endloop
endfacet
facet normal 1.980593092983166e-07 0.999999992322779 -0.0001239128847750536
  outer loop
    vertex 54.910222169824685 2.0674778214739398 -3.2999999999999994
    vertex 54.11022387386079 2.0684928519592165 4.899999885903955
    vertex 54.747172138581035 2.0659998969603186 -0.29661605523271906
  endloop
endfacet
facet normal 1.980593092983166e-07 0.999999992322779 -0.0001239128847750536
  outer loop
    vertex 54.910222169824685 2.0674778214739398 -3.2999999999999994
    vertex 54.747172138581035 2.0659998969603186 -0.29661605523271906
    vertex 55.71022216982468 2.0674778214739398 -3.288574999999999
  endloop
endfacet
facet normal 1.980593092983166e-07 0.999999992322779 -0.0001239128847750536
  outer loop
    vertex 55.71022216982468 2.0674778214739398 -3.288574999999999
    vertex 54.747172138581035 2.0659998969603186 -0.29661605523271906
    vertex 55.7112379540451 2.0659998969603186 -0.30144532143956226
  endloop
endfacet
facet normal 1.980593092983166e-07 0.999999992322779 -0.0001239128847750536
  outer loop
    vertex 54.747172138581035 2.0659998969603186 -0.29661605523271906
    vertex 54.11022387386079 2.0684928519592165 4.899999885903955
    vertex 54.74615805839672 2.0684928519592165 4.8988021521107985
  endloop
endfacet
facet normal 0.9999999603088106 -0.00028062401499452015 2.5150338600501514e-05
  outer loop
    vertex 55.746160866074085 -1.7325221785260596 -3.2999999999999994
    vertex 55.74604363102076 -2.9815811989694514 4.299999902262328
    vertex 55.746160866074085 -2.9825221785260596 -3.2999999999999994
  endloop
endfacet
facet normal 0.9999999603088106 -0.00028062401499452015 2.5150338600501514e-05
  outer loop
    vertex 55.74604363102076 -2.9815811989694514 4.299999902262328
    vertex 55.746160866074085 -1.7325221785260596 -3.2999999999999994
    vertex 55.747176650294506 -1.73400010303968 -0.2954183214395626
  endloop
endfacet
facet normal 0.9999999603088106 -0.00028062401499452015 2.5150338600501514e-05
  outer loop
    vertex 55.74604363102076 -1.7315811989694516 4.299999902262328
    vertex 55.74604363102076 -2.9815811989694514 4.299999902262328
    vertex 55.747176650294506 -1.73400010303968 -0.2954183214395626
  endloop
endfacet
facet normal 0.0 1.0 0.0
  outer loop
    vertex 55.74604363102076 -2.9815811989694514 4.299999902262328
    vertex 56.54616086607408 -2.9825221785260596 -3.2999999999999994
    vertex 55.746160866074085 -2.9825221785260596 -3.2999999999999994
  endloop
endfacet
facet normal 0.0 1.0 0.0
  outer loop
    vertex 56.54616086607408 -2.9825221785260596 -3.2999999999999994
    vertex 55.74604363102076 -2.9815811989694514 4.299999902262328
    vertex 56.54604363102076 -2.9815811989694514 4.299999902262328
  endloop
endfacet
facet normal 0.8998141071961993 -0.43627350651937014 0.0
  outer loop
    vertex 56.54616086607408 -2.9825221785260596 -3.2999999999999994
    vertex 55.74604363102076 -4.631581198969451 4.299999902262328
    vertex 55.746160866074085 -4.6325221785260595 -3.2999999999999994
  endloop
endfacet
facet normal 0.8998141071961993 -0.43627350651937014 0.0
  outer loop
    vertex 55.74604363102076 -4.631581198969451 4.299999902262328
    vertex 56.54616086607408 -2.9825221785260596 -3.2999999999999994
    vertex 56.54604363102076 -2.9815811989694514 4.299999902262328
  endloop
endfacet
facet normal -0.8320502930404381 -0.55470019536029 5.584422221779309e-05
  outer loop
    vertex 42.246074480630874 -4.631828822400256 1.4999999178299626
    vertex 41.14616086607409 -2.982522178526061 -3.2999999999999994
    vertex 42.246160866074085 -4.6325221785260595 -3.2999999999999994
  endloop
endfacet
facet normal -0.8320502930404381 -0.55470019536029 5.584422221779309e-05
  outer loop
    vertex 41.14616086607409 -2.982522178526061 -3.2999999999999994
    vertex 42.246074480630874 -4.631828822400256 1.4999999178299626
    vertex 42.24604363102075 -4.631581198969451 4.299999902262328
  endloop
endfacet
facet normal -0.8320502930404381 -0.55470019536029 5.584422221779309e-05
  outer loop
    vertex 41.14616086607409 -2.982522178526061 -3.2999999999999994
    vertex 42.24604363102075 -4.631581198969451 4.299999902262328
    vertex 41.14604363102075 -2.9815811989694527 4.299999902262328
  endloop
endfacet
facet normal 0.0 1.0 0.0
  outer loop
    vertex 41.14604363102075 -2.9815811989694527 4.299999902262328
    vertex 42.246160866074085 -2.982522178526061 -3.2999999999999994
    vertex 41.14616086607409 -2.982522178526061 -3.2999999999999994
  endloop
endfacet
facet normal 0.0 1.0 0.0
  outer loop
    vertex 42.246160866074085 -2.982522178526061 -3.2999999999999994
    vertex 41.14604363102075 -2.9815811989694527 4.299999902262328
    vertex 42.246043631020754 -2.9815811989694527 4.299999902262328
  endloop
endfacet
facet normal -0.9999999988707098 4.6894007982893496e-05 -7.71573559282189e-06
  outer loop
    vertex 42.246043631020754 -2.9815811989694527 4.299999902262328
    vertex 42.246160866074085 -1.7325221785260607 -3.2999999999999994
    vertex 42.246160866074085 -2.982522178526061 -3.2999999999999994
  endloop
endfacet
facet normal -0.9999999988707098 4.6894007982893496e-05 -7.71573559282189e-06
  outer loop
    vertex 42.246160866074085 -1.7325221785260607 -3.2999999999999994
    vertex 42.246043631020754 -2.9815811989694527 4.299999902262328
    vertex 42.246160866074085 -1.7325221785260607 4.299999902262328
  endloop
endfacet
facet normal 0.0 0.0 -1.0
  outer loop
    vertex 55.746160866074085 -1.7325221785260596 -3.2999999999999994
    vertex 52.79616086607409 -5.4417181785260595 -3.2999999999999994
    vertex 52.79616086607409 -1.7325221785260607 -3.2999999999999994
  endloop
endfacet
facet normal 0.0 0.0 -1.0
  outer loop
    vertex 56.54616086607408 -2.9825221785260596 -3.2999999999999994
    vertex 55.746160866074085 -4.6325221785260595 -3.2999999999999994
    vertex 55.746160866074085 -2.9825221785260596 -3.2999999999999994
  endloop
endfacet
facet normal 0.0 0.0 -1.0
  outer loop
    vertex 43.59616086607409 -1.7325221785260607 -3.2999999999999994
    vertex 42.246160866074085 -2.982522178526061 -3.2999999999999994
    vertex 42.246160866074085 -1.7325221785260607 -3.2999999999999994
  endloop
endfacet
facet normal 0.0 0.0 -1.0
  outer loop
    vertex 42.246160866074085 -2.982522178526061 -3.2999999999999994
    vertex 43.59616086607409 -1.7325221785260607 -3.2999999999999994
    vertex 42.246160866074085 -4.6325221785260595 -3.2999999999999994
  endloop
endfacet
facet normal 0.0 0.0 -1.0
  outer loop
    vertex 42.246160866074085 -4.6325221785260595 -3.2999999999999994
    vertex 43.59616086607409 -1.7325221785260607 -3.2999999999999994
    vertex 42.246160866074085 -6.53252217852606 -3.2999999999999994
  endloop
endfacet
facet normal 0.0 0.0 -1.0
  outer loop
    vertex 42.246160866074085 -6.53252217852606 -3.2999999999999994
    vertex 43.59616086607409 -1.7325221785260607 -3.2999999999999994
    vertex 43.59616086607409 -5.4417181785260595 -3.2999999999999994
  endloop
endfacet
facet normal 0.0 0.0 -1.0
  outer loop
    vertex 42.246160866074085 -6.53252217852606 -3.2999999999999994
    vertex 43.59616086607409 -5.4417181785260595 -3.2999999999999994
    vertex 55.746160866074085 -6.53252217852606 -3.2999999999999994
  endloop
endfacet
facet normal 0.0 0.0 -1.0
  outer loop
    vertex 55.746160866074085 -6.53252217852606 -3.2999999999999994
    vertex 43.59616086607409 -5.4417181785260595 -3.2999999999999994
    vertex 52.79616086607409 -5.4417181785260595 -3.2999999999999994
  endloop
endfacet
facet normal 0.0 0.0 -1.0
  outer loop
    vertex 55.746160866074085 -6.53252217852606 -3.2999999999999994
    vertex 52.79616086607409 -5.4417181785260595 -3.2999999999999994
    vertex 55.746160866074085 -1.7325221785260596 -3.2999999999999994
  endloop
endfacet
facet normal 0.0 0.0 -1.0
  outer loop
    vertex 55.746160866074085 -6.53252217852606 -3.2999999999999994
    vertex 55.746160866074085 -1.7325221785260596 -3.2999999999999994
    vertex 55.746160866074085 -2.9825221785260596 -3.2999999999999994
  endloop
endfacet
facet normal 0.0 0.0 -1.0
  outer loop
    vertex 55.746160866074085 -6.53252217852606 -3.2999999999999994
    vertex 55.746160866074085 -2.9825221785260596 -3.2999999999999994
    vertex 55.746160866074085 -4.6325221785260595 -3.2999999999999994
  endloop
endfacet
facet normal 0.0 0.0 -1.0
  outer loop
    vertex 42.246160866074085 -4.6325221785260595 -3.2999999999999994
    vertex 41.14616086607409 -2.982522178526061 -3.2999999999999994
    vertex 42.246160866074085 -2.982522178526061 -3.2999999999999994
  endloop
endfacet
facet normal 0.0 0.0 1.0
  outer loop
    vertex 41.246160866074085 -1.7325221785260607 4.8999999999999995
    vertex 40.84616086607409 -0.5325221785260604 4.8999999999999995
    vertex 40.84616086607409 -1.3325221785260604 4.8999999999999995
  endloop
endfacet
facet normal 0.0 0.0 1.0
  outer loop
    vertex 40.84616086607409 -0.5325221785260604 4.8999999999999995
    vertex 41.246160866074085 -1.7325221785260607 4.8999999999999995
    vertex 41.246160866074085 -0.13252217852606046 4.8999999999999995
  endloop
endfacet
facet normal -0.7071067811865481 0.707106781186547 -2.5726618982560706e-33
  outer loop
    vertex 41.246160866074085 -0.13252217852606046 4.8999999999999995
    vertex 40.84616086607409 -0.5325221785260604 -3.299999999999999
    vertex 40.84616086607409 -0.5325221785260604 4.8999999999999995
  endloop
endfacet
facet normal -0.7071067811865481 0.707106781186547 -2.5726618982560706e-33
  outer loop
    vertex 40.84616086607409 -0.5325221785260604 -3.299999999999999
    vertex 41.246160866074085 -0.13252217852606046 4.8999999999999995
    vertex 41.246160866074085 -0.13252217852606046 -3.2999999999999994
  endloop
endfacet
facet normal -0.7071067811865485 -0.7071067811865467 -2.9949062679836904e-33
  outer loop
    vertex 40.84616086607409 -1.3325221785260604 4.8999999999999995
    vertex 41.246160866074085 -1.7325221785260607 -3.2999999999999994
    vertex 41.246160866074085 -1.7325221785260607 4.8999999999999995
  endloop
endfacet
facet normal -0.7071067811865485 -0.7071067811865467 -2.9949062679836904e-33
  outer loop
    vertex 41.246160866074085 -1.7325221785260607 -3.2999999999999994
    vertex 40.84616086607409 -1.3325221785260604 4.8999999999999995
    vertex 40.84616086607409 -1.3325221785260604 -3.299999999999999
  endloop
endfacet
facet normal -0.9999999998809053 1.3584517014691928e-08 -1.5433389324445298e-05
  outer loop
    vertex 52.796043631020765 -5.440777198969451 4.299999902262328
    vertex 52.79616086607409 -1.7325221785260607 -3.2999999999999994
    vertex 52.79616086607409 -5.4417181785260595 -3.2999999999999994
  endloop
endfacet
facet normal -0.9999999998809053 1.3584517014691928e-08 -1.5433389324445298e-05
  outer loop
    vertex 52.79616086607409 -1.7325221785260607 -3.2999999999999994
    vertex 52.796043631020765 -5.440777198969451 4.299999902262328
    vertex 52.796043631020765 -1.7315811989694516 4.299999902262328
  endloop
endfacet
facet normal -0.9999999998809053 1.3584517014691928e-08 -1.5433389324445298e-05
  outer loop
    vertex 52.79616086607409 -1.7325221785260607 -3.2999999999999994
    vertex 52.796043631020765 -1.7315811989694516 4.299999902262328
    vertex 52.79616086607409 0.11759837509914733 -3.288574999999999
  endloop
endfacet
facet normal -0.9999999998809053 1.3584517014691928e-08 -1.5433389324445298e-05
  outer loop
    vertex 52.79616086607409 0.11759837509914733 -3.288574999999999
    vertex 52.796043631020765 -1.7315811989694516 4.299999902262328
    vertex 52.796162570110205 -1.731507148040783 4.899999885903955
  endloop
endfacet
facet normal -0.9999999998809053 1.3584517014691928e-08 -1.5433389324445298e-05
  outer loop
    vertex 52.79616086607409 0.11759837509914733 -3.288574999999999
    vertex 52.796162570110205 -1.731507148040783 4.899999885903955
    vertex 52.796162570110205 0.11861340558442389 4.899999885903955
  endloop
endfacet
facet normal 0.0 0.0 1.0
  outer loop
    vertex 43.59616086607409 -0.13252217852606046 4.8999999999999995
    vertex 42.246160866074085 0.36747782147394076 4.8999999999999995
    vertex 42.246160866074085 -0.13252217852606046 4.8999999999999995
  endloop
endfacet
facet normal 0.0 0.0 1.0
  outer loop
    vertex 42.246160866074085 0.36747782147394076 4.8999999999999995
    vertex 43.59616086607409 -0.13252217852606046 4.8999999999999995
    vertex 42.707589437502655 2.0674778214739398 4.8999999999999995
  endloop
endfacet
facet normal 0.0 0.0 1.0
  outer loop
    vertex 42.707589437502655 2.0674778214739398 4.8999999999999995
    vertex 43.59616086607409 -0.13252217852606046 4.8999999999999995
    vertex 43.28616086607409 2.0674778214739398 4.8999999999999995
  endloop
endfacet
facet normal 0.0 1.0 0.0
  outer loop
    vertex 42.707589437502655 2.0674778214739398 -3.2999999999999994
    vertex 43.28616086607409 2.0674778214739398 4.8999999999999995
    vertex 43.28616086607409 2.0674778214739398 -3.300000000000001
  endloop
endfacet
facet normal 0.0 1.0 0.0
  outer loop
    vertex 43.28616086607409 2.0674778214739398 4.8999999999999995
    vertex 42.707589437502655 2.0674778214739398 -3.2999999999999994
    vertex 42.707589437502655 2.0674778214739398 4.8999999999999995
  endloop
endfacet
facet normal -3.0106862786483375e-06 -0.9999999917452337 0.0001284541501638486
  outer loop
    vertex 55.74604363102076 -6.531581198969451 4.299999902262328
    vertex 42.246160866074085 -6.53252217852606 -3.2999999999999994
    vertex 55.746160866074085 -6.53252217852606 -3.2999999999999994
  endloop
endfacet
facet normal -3.0106862786483375e-06 -0.9999999917452337 0.0001284541501638486
  outer loop
    vertex 42.246160866074085 -6.53252217852606 -3.2999999999999994
    vertex 55.74604363102076 -6.531581198969451 4.299999902262328
    vertex 45.24604362930091 -6.53158119619989 1.4999999022623278
  endloop
endfacet
facet normal -3.0106862786483375e-06 -0.9999999917452337 0.0001284541501638486
  outer loop
    vertex 45.24604362930091 -6.53158119619989 1.4999999022623278
    vertex 55.74604363102076 -6.531581198969451 4.299999902262328
    vertex 45.24604363102075 -6.531581198969451 4.299999902262328
  endloop
endfacet
facet normal -3.0106862786483375e-06 -0.9999999917452337 0.0001284541501638486
  outer loop
    vertex 42.246160866074085 -6.53252217852606 -3.2999999999999994
    vertex 43.59604362930091 -6.53158119619989 1.49999990428929
    vertex 42.246074480630895 -6.531828822400254 1.4999999178299626
  endloop
endfacet
facet normal -3.0106862786483375e-06 -0.9999999917452337 0.0001284541501638486
  outer loop
    vertex 43.59604362930091 -6.53158119619989 1.49999990428929
    vertex 42.246160866074085 -6.53252217852606 -3.2999999999999994
    vertex 45.24604362930091 -6.53158119619989 1.4999999022623278
  endloop
endfacet
facet normal -0.9999999998810245 -4.452576707128644e-15 -1.5425665109157154e-05
  outer loop
    vertex 42.246074480630895 -6.531828822400254 1.4999999178299626
    vertex 42.246160866074085 -4.6325221785260595 -3.2999999999999994
    vertex 42.246160866074085 -6.53252217852606 -3.2999999999999994
  endloop
endfacet
facet normal -0.9999999998810245 -4.452576707128644e-15 -1.5425665109157154e-05
  outer loop
    vertex 42.246160866074085 -4.6325221785260595 -3.2999999999999994
    vertex 42.246074480630895 -6.531828822400254 1.4999999178299626
    vertex 42.24622159715176 -5.433872808907686 1.4999999162431321
  endloop
endfacet
facet normal -0.9999999998810245 -4.452576707128644e-15 -1.5425665109157154e-05
  outer loop
    vertex 42.246160866074085 -4.6325221785260595 -3.2999999999999994
    vertex 42.24622159715176 -5.433872808907686 1.4999999162431321
    vertex 42.246074480630874 -4.631828822400256 1.4999999178299626
  endloop
endfacet
facet normal 1.0 0.0 0.0
  outer loop
    vertex 55.746160866074085 -4.6325221785260595 -3.2999999999999994
    vertex 55.74604363102076 -6.531581198969451 4.299999902262328
    vertex 55.746160866074085 -6.53252217852606 -3.2999999999999994
  endloop
endfacet
facet normal 1.0 0.0 0.0
  outer loop
    vertex 55.74604363102076 -6.531581198969451 4.299999902262328
    vertex 55.746160866074085 -4.6325221785260595 -3.2999999999999994
    vertex 55.74604363102076 -4.631581198969451 4.299999902262328
  endloop
endfacet
facet normal 0.0 0.0 1.0
  outer loop
    vertex 42.24604363102075 -4.631581198969451 4.299999902262328
    vertex 42.246043631020754 -2.9815811989694527 4.299999902262328
    vertex 41.14604363102075 -2.9815811989694527 4.299999902262328
  endloop
endfacet
facet normal 0.0 0.0 1.0
  outer loop
    vertex 42.246043631020754 -2.9815811989694527 4.299999902262328
    vertex 42.24604363102075 -4.631581198969451 4.299999902262328
    vertex 43.596073134556164 -4.631581198969451 4.299999902262328
  endloop
endfacet
facet normal 0.0 0.0 1.0
  outer loop
    vertex 42.246043631020754 -2.9815811989694527 4.299999902262328
    vertex 43.596073134556164 -4.631581198969451 4.299999902262328
    vertex 42.246160866074085 -1.7325221785260607 4.299999902262328
  endloop
endfacet
facet normal 0.0 0.0 1.0
  outer loop
    vertex 42.246160866074085 -1.7325221785260607 4.299999902262328
    vertex 43.596073134556164 -4.631581198969451 4.299999902262328
    vertex 43.596073134556164 -3.8315811989694515 4.299999902262328
  endloop
endfacet
facet normal 0.0 0.0 1.0
  outer loop
    vertex 42.246160866074085 -1.7325221785260607 4.299999902262328
    vertex 43.596073134556164 -3.8315811989694515 4.299999902262328
    vertex 43.59616086607409 -1.7325221785260607 4.299999902262328
  endloop
endfacet
facet normal 0.8050949196707956 0.5931459941028643 4.446031004315968e-32
  outer loop
    vertex 57.24616086607408 0.9235005109495841 -3.288574999999999
    vertex 56.897708837609436 1.3963657723943599 -0.2954183214395626
    vertex 57.247176650294506 0.9220225864359658 -0.2954183214395626
  endloop
endfacet
facet normal 0.8050949196707956 0.5931459941028643 4.446031004315968e-32
  outer loop
    vertex 56.897708837609436 1.3963657723943599 -0.2954183214395626
    vertex 57.24616086607408 0.9235005109495841 -3.288574999999999
    vertex 56.89669305338902 1.3978436969079782 -3.288574999999999
  endloop
endfacet
facet normal 1.0 0.0 0.0
  outer loop
    vertex 57.24616086607408 0.3769284014967542 -3.288574999999999
    vertex 57.247176650294506 0.9220225864359658 -0.2954183214395626
    vertex 57.247176650294506 0.3754504769831353 -0.2954183214395626
  endloop
endfacet
facet normal 1.0 0.0 0.0
  outer loop
    vertex 57.247176650294506 0.9220225864359658 -0.2954183214395626
    vertex 57.24616086607408 0.3769284014967542 -3.288574999999999
    vertex 57.24616086607408 0.9235005109495841 -3.288574999999999
  endloop
endfacet
facet normal 0.49151208323638934 0.8708707550679521 4.173663252206933e-18
  outer loop
    vertex 55.7112379540451 2.0659998969603186 -0.30144532143956226
    vertex 56.89669305338902 1.3978436969079782 -3.288574999999999
    vertex 55.71022216982468 2.0674778214739398 -3.288574999999999
  endloop
endfacet
facet normal 0.49151208323638934 0.8708707550679521 4.173663252206933e-18
  outer loop
    vertex 56.89669305338902 1.3978436969079782 -3.288574999999999
    vertex 55.7112379540451 2.0659998969603186 -0.30144532143956226
    vertex 56.897708837609436 1.3963657723943599 -0.2954183214395626
  endloop
endfacet
facet normal 1.0 0.0 0.0
  outer loop
    vertex 57.34616086607408 -1.7325221785260596 -3.288574999999999
    vertex 57.34717665029451 -0.6104172401476573 -0.2954183214395626
    vertex 57.34717665029451 -1.73400010303968 -0.2954183214395626
  endloop
endfacet
facet normal 1.0 0.0 0.0
  outer loop
    vertex 57.34717665029451 -0.6104172401476573 -0.2954183214395626
    vertex 57.34616086607408 -1.7325221785260596 -3.288574999999999
    vertex 57.34616086607408 -0.6089393156340384 -3.288574999999999
  endloop
endfacet
facet normal 0.0 1.0 0.0
  outer loop
    vertex 56.852254288036654 -0.6104172401476573 -0.2954183214395626
    vertex 57.34616086607408 -0.6089393156340384 -3.288574999999999
    vertex 56.851238503816234 -0.6089393156340384 -3.288574999999999
  endloop
endfacet
facet normal 0.0 1.0 0.0
  outer loop
    vertex 57.34616086607408 -0.6089393156340384 -3.288574999999999
    vertex 56.852254288036654 -0.6104172401476573 -0.2954183214395626
    vertex 57.34717665029451 -0.6104172401476573 -0.2954183214395626
  endloop
endfacet
facet normal -0.025702310823414294 0.9996696410406474 0.0
  outer loop
    vertex 56.11212612563181 -0.9395225473294702 -0.2954183214395626
    vertex 56.322492917602695 -0.9326098066997328 -3.288574999999999
    vertex 56.1111103414114 -0.9380446228158519 -3.288574999999999
  endloop
endfacet
facet normal -0.025702310823414294 0.9996696410406474 0.0
  outer loop
    vertex 56.322492917602695 -0.9326098066997328 -3.288574999999999
    vertex 56.11212612563181 -0.9395225473294702 -0.2954183214395626
    vertex 56.32350870182311 -0.934087731213351 -0.2954183214395626
  endloop
endfacet
facet normal 0.23390701609247166 0.9722589715825287 0.0
  outer loop
    vertex 55.90653960214364 -0.8900623400560211 -0.2954183214395626
    vertex 56.1111103414114 -0.9380446228158519 -3.288574999999999
    vertex 55.905523817923225 -0.8885844155424029 -3.288574999999999
  endloop
endfacet
facet normal 0.23390701609247166 0.9722589715825287 0.0
  outer loop
    vertex 56.1111103414114 -0.9380446228158519 -3.288574999999999
    vertex 55.90653960214364 -0.8900623400560211 -0.2954183214395626
    vertex 56.11212612563181 -0.9395225473294702 -0.2954183214395626
  endloop
endfacet
facet normal 0.47757596641128164 0.8785904599449793 0.0
  outer loop
    vertex 55.72075951318653 -0.7890777407818308 -0.2954183214395626
    vertex 55.905523817923225 -0.8885844155424029 -3.288574999999999
    vertex 55.7197437289661 -0.7875998162682118 -3.288574999999999
  endloop
endfacet
facet normal 0.47757596641128164 0.8785904599449793 0.0
  outer loop
    vertex 55.905523817923225 -0.8885844155424029 -3.288574999999999
    vertex 55.72075951318653 -0.7890777407818308 -0.2954183214395626
    vertex 55.90653960214364 -0.8900623400560211 -0.2954183214395626
  endloop
endfacet
facet normal 0.688698903850763 0.725047460401564 0.0
  outer loop
    vertex 55.56744646480677 -0.6434506830624941 -0.2954183214395626
    vertex 55.7197437289661 -0.7875998162682118 -3.288574999999999
    vertex 55.56643068058635 -0.6419727585488751 -3.288574999999999
  endloop
endfacet
facet normal 0.688698903850763 0.725047460401564 0.0
  outer loop
    vertex 55.7197437289661 -0.7875998162682118 -3.288574999999999
    vertex 55.56744646480677 -0.6434506830624941 -0.2954183214395626
    vertex 55.72075951318653 -0.7890777407818308 -0.2954183214395626
  endloop
endfacet
facet normal 0.8528881491215587 0.5220936746293732 0.0
  outer loop
    vertex 55.56643068058635 -0.6419727585488751 -3.288574999999999
    vertex 55.45704848788967 -0.463105410221493 -0.2954183214395626
    vertex 55.56744646480677 -0.6434506830624941 -0.2954183214395626
  endloop
endfacet
facet normal 0.8528881491215587 0.5220936746293732 0.0
  outer loop
    vertex 55.45704848788967 -0.463105410221493 -0.2954183214395626
    vertex 55.56643068058635 -0.6419727585488751 -3.288574999999999
    vertex 55.456032703669244 -0.46162748570787404 -3.288574999999999
  endloop
endfacet
facet normal 0.9589544764940398 0.2835600677317637 0.0
  outer loop
    vertex 55.456032703669244 -0.46162748570787404 -3.288574999999999
    vertex 55.39708902212083 -0.2603321545682864 -0.2954183214395626
    vertex 55.45704848788967 -0.463105410221493 -0.2954183214395626
  endloop
endfacet
facet normal 0.9589544764940398 0.2835600677317637 0.0
  outer loop
    vertex 55.39708902212083 -0.2603321545682864 -0.2954183214395626
    vertex 55.456032703669244 -0.46162748570787404 -3.288574999999999
    vertex 55.39607323790041 -0.25885423005466746 -3.288574999999999
  endloop
endfacet
facet normal 0.9996696410406475 0.025702310823411133 0.0
  outer loop
    vertex 55.39607323790041 -0.25885423005466746 -3.288574999999999
    vertex 55.39165420600471 -0.04894957837699215 -0.2954183214395626
    vertex 55.39708902212083 -0.2603321545682864 -0.2954183214395626
  endloop
endfacet
facet normal 0.9996696410406475 0.025702310823411133 0.0
  outer loop
    vertex 55.39165420600471 -0.04894957837699215 -0.2954183214395626
    vertex 55.39607323790041 -0.25885423005466746 -3.288574999999999
    vertex 55.3906384217843 -0.047471653863373195 -3.288574999999999
  endloop
endfacet
facet normal 0.9722589715825276 -0.23390701609247566 0.0
  outer loop
    vertex 55.3906384217843 -0.047471653863373195 -3.288574999999999
    vertex 55.44111441327816 0.15663694511117823 -0.2954183214395626
    vertex 55.39165420600471 -0.04894957837699215 -0.2954183214395626
  endloop
endfacet
facet normal 0.9722589715825276 -0.23390701609247566 0.0
  outer loop
    vertex 55.44111441327816 0.15663694511117823 -0.2954183214395626
    vertex 55.3906384217843 -0.047471653863373195 -3.288574999999999
    vertex 55.44009862905774 0.15811486962479718 -3.288574999999999
  endloop
endfacet
facet normal 0.8785904599449815 -0.4775759664112779 0.0
  outer loop
    vertex 55.44009862905774 0.15811486962479718 -3.288574999999999
    vertex 55.542099012552356 0.34241703406829843 -0.2954183214395626
    vertex 55.44111441327816 0.15663694511117823 -0.2954183214395626
  endloop
endfacet
facet normal 0.8785904599449815 -0.4775759664112779 0.0
  outer loop
    vertex 55.542099012552356 0.34241703406829843 -0.2954183214395626
    vertex 55.44009862905774 0.15811486962479718 -3.288574999999999
    vertex 55.54108322833193 0.3438949585819174 -3.288574999999999
  endloop
endfacet
facet normal 0.7250474604015689 -0.6886989038507578 0.0
  outer loop
    vertex 55.54108322833193 0.3438949585819174 -3.288574999999999
    vertex 55.68772607027169 0.49573008244805533 -0.2954183214395626
    vertex 55.542099012552356 0.34241703406829843 -0.2954183214395626
  endloop
endfacet
facet normal 0.7250474604015689 -0.6886989038507578 0.0
  outer loop
    vertex 55.68772607027169 0.49573008244805533 -0.2954183214395626
    vertex 55.54108322833193 0.3438949585819174 -3.288574999999999
    vertex 55.68671028605127 0.4972080069616743 -3.288574999999999
  endloop
endfacet
facet normal 0.522093674629363 -0.852888149121565 0.0
  outer loop
    vertex 55.868071343112696 0.6061280593651592 -0.2954183214395626
    vertex 55.68671028605127 0.4972080069616743 -3.288574999999999
    vertex 55.86705555889227 0.6076059838787782 -3.288574999999999
  endloop
endfacet
facet normal 0.522093674629363 -0.852888149121565 0.0
  outer loop
    vertex 55.68671028605127 0.4972080069616743 -3.288574999999999
    vertex 55.868071343112696 0.6061280593651592 -0.2954183214395626
    vertex 55.68772607027169 0.49573008244805533 -0.2954183214395626
  endloop
endfacet
facet normal 0.28356006773176673 -0.9589544764940389 0.0
  outer loop
    vertex 56.0708445987659 0.6660875251339929 -0.2954183214395626
    vertex 55.86705555889227 0.6076059838787782 -3.288574999999999
    vertex 56.06982881454548 0.6675654496476119 -3.288574999999999
  endloop
endfacet
facet normal 0.28356006773176673 -0.9589544764940389 0.0
  outer loop
    vertex 55.86705555889227 0.6076059838787782 -3.288574999999999
    vertex 56.0708445987659 0.6660875251339929 -0.2954183214395626
    vertex 55.868071343112696 0.6061280593651592 -0.2954183214395626
  endloop
endfacet
facet normal 0.025702310823414294 -0.9996696410406474 0.0
  outer loop
    vertex 56.28222717495719 0.671522341250112 -0.2954183214395626
    vertex 56.06982881454548 0.6675654496476119 -3.288574999999999
    vertex 56.28121139073677 0.673000265763731 -3.288574999999999
  endloop
endfacet
facet normal 0.025702310823414294 -0.9996696410406474 0.0
  outer loop
    vertex 56.06982881454548 0.6675654496476119 -3.288574999999999
    vertex 56.28222717495719 0.671522341250112 -0.2954183214395626
    vertex 56.0708445987659 0.6660875251339929 -0.2954183214395626
  endloop
endfacet
facet normal -0.23390701609247166 -0.9722589715825287 -0.0
  outer loop
    vertex 56.48781369844536 0.622062133976663 -0.2954183214395626
    vertex 56.28121139073677 0.673000265763731 -3.288574999999999
    vertex 56.48679791422494 0.6235400584902819 -3.288574999999999
  endloop
endfacet
facet normal -0.23390701609247166 -0.9722589715825287 -0.0
  outer loop
    vertex 56.28121139073677 0.673000265763731 -3.288574999999999
    vertex 56.48781369844536 0.622062133976663 -0.2954183214395626
    vertex 56.28222717495719 0.671522341250112 -0.2954183214395626
  endloop
endfacet
facet normal -0.47757596641128164 -0.8785904599449793 -0.0
  outer loop
    vertex 56.673593787402474 0.521077534702472 -0.2954183214395626
    vertex 56.48679791422494 0.6235400584902819 -3.288574999999999
    vertex 56.67257800318206 0.5225554592160909 -3.288574999999999
  endloop
endfacet
facet normal -0.47757596641128164 -0.8785904599449793 -0.0
  outer loop
    vertex 56.48679791422494 0.6235400584902819 -3.288574999999999
    vertex 56.673593787402474 0.521077534702472 -0.2954183214395626
    vertex 56.48781369844536 0.622062133976663 -0.2954183214395626
  endloop
endfacet
facet normal -0.688698903850763 -0.725047460401564 -0.0
  outer loop
    vertex 56.82690683578224 0.3754504769831353 -0.2954183214395626
    vertex 56.67257800318206 0.5225554592160909 -3.288574999999999
    vertex 56.82589105156182 0.3769284014967542 -3.288574999999999
  endloop
endfacet
facet normal -0.688698903850763 -0.725047460401564 -0.0
  outer loop
    vertex 56.67257800318206 0.5225554592160909 -3.288574999999999
    vertex 56.82690683578224 0.3754504769831353 -0.2954183214395626
    vertex 56.673593787402474 0.521077534702472 -0.2954183214395626
  endloop
endfacet
facet normal 0.0 -1.0 0.0
  outer loop
    vertex 57.247176650294506 0.3754504769831353 -0.2954183214395626
    vertex 56.82589105156182 0.3769284014967542 -3.288574999999999
    vertex 57.24616086607408 0.3769284014967542 -3.288574999999999
  endloop
endfacet
facet normal 0.0 -1.0 0.0
  outer loop
    vertex 56.82589105156182 0.3769284014967542 -3.288574999999999
    vertex 57.247176650294506 0.3754504769831353 -0.2954183214395626
    vertex 56.82690683578224 0.3754504769831353 -0.2954183214395626
  endloop
endfacet
facet normal -0.28356006773176673 0.9589544764940389 0.0
  outer loop
    vertex 56.32350870182311 -0.934087731213351 -0.2954183214395626
    vertex 56.52526617325589 -0.8726503409308991 -3.288574999999999
    vertex 56.322492917602695 -0.9326098066997328 -3.288574999999999
  endloop
endfacet
facet normal -0.28356006773176673 0.9589544764940389 0.0
  outer loop
    vertex 56.52526617325589 -0.8726503409308991 -3.288574999999999
    vertex 56.32350870182311 -0.934087731213351 -0.2954183214395626
    vertex 56.52628195747632 -0.8741282654445174 -0.2954183214395626
  endloop
endfacet
facet normal -0.5220936746293688 0.8528881491215613 0.0
  outer loop
    vertex 56.52628195747632 -0.8741282654445174 -0.2954183214395626
    vertex 56.70561144609689 -0.7622523640137951 -3.288574999999999
    vertex 56.52526617325589 -0.8726503409308991 -3.288574999999999
  endloop
endfacet
facet normal -0.5220936746293688 0.8528881491215613 0.0
  outer loop
    vertex 56.70561144609689 -0.7622523640137951 -3.288574999999999
    vertex 56.52628195747632 -0.8741282654445174 -0.2954183214395626
    vertex 56.706627230317316 -0.7637302885274141 -0.2954183214395626
  endloop
endfacet
facet normal 1.759540767962048e-06 -0.9999998785597023 -0.0004928260189713785
  outer loop
    vertex 57.34616086607408 -1.7325221785260596 -3.288574999999999
    vertex 55.747176650294506 -1.73400010303968 -0.2954183214395626
    vertex 55.746160866074085 -1.7325221785260596 -3.2999999999999994
  endloop
endfacet
facet normal 1.759540767962048e-06 -0.9999998785597023 -0.0004928260189713785
  outer loop
    vertex 55.747176650294506 -1.73400010303968 -0.2954183214395626
    vertex 57.34616086607408 -1.7325221785260596 -3.288574999999999
    vertex 57.34717665029451 -1.73400010303968 -0.2954183214395626
  endloop
endfacet
facet normal -0.7250474604015622 0.6886989038507648 0.0
  outer loop
    vertex 56.852254288036654 -0.6104172401476573 -0.2954183214395626
    vertex 56.70561144609689 -0.7622523640137951 -3.288574999999999
    vertex 56.706627230317316 -0.7637302885274141 -0.2954183214395626
  endloop
endfacet
facet normal -0.7250474604015622 0.6886989038507648 0.0
  outer loop
    vertex 56.70561144609689 -0.7622523640137951 -3.288574999999999
    vertex 56.852254288036654 -0.6104172401476573 -0.2954183214395626
    vertex 56.851238503816234 -0.6089393156340384 -3.288574999999999
  endloop
endfacet
facet normal 0.0010675858936277421 -0.0001354608955830287 -0.9999994209551852
  outer loop
    vertex 55.71022216982468 2.0674778214739398 -3.288574999999999
    vertex 55.3906384217843 -0.047471653863373195 -3.288574999999999
    vertex 54.910222169824685 2.0674778214739398 -3.2999999999999994
  endloop
endfacet
facet normal 0.0010675858936277421 -0.0001354608955830287 -0.9999994209551852
  outer loop
    vertex 55.3906384217843 -0.047471653863373195 -3.288574999999999
    vertex 55.71022216982468 2.0674778214739398 -3.288574999999999
    vertex 55.44009862905774 0.15811486962479718 -3.288574999999999
  endloop
endfacet
facet normal 0.0010675858936277421 -0.0001354608955830287 -0.9999994209551852
  outer loop
    vertex 55.44009862905774 0.15811486962479718 -3.288574999999999
    vertex 55.71022216982468 2.0674778214739398 -3.288574999999999
    vertex 55.54108322833193 0.3438949585819174 -3.288574999999999
  endloop
endfacet
facet normal 0.0010675858936277421 -0.0001354608955830287 -0.9999994209551852
  outer loop
    vertex 55.54108322833193 0.3438949585819174 -3.288574999999999
    vertex 55.71022216982468 2.0674778214739398 -3.288574999999999
    vertex 55.68671028605127 0.4972080069616743 -3.288574999999999
  endloop
endfacet
facet normal 0.0010675858936277421 -0.0001354608955830287 -0.9999994209551852
  outer loop
    vertex 55.68671028605127 0.4972080069616743 -3.288574999999999
    vertex 55.71022216982468 2.0674778214739398 -3.288574999999999
    vertex 55.86705555889227 0.6076059838787782 -3.288574999999999
  endloop
endfacet
facet normal 0.0010675858936277421 -0.0001354608955830287 -0.9999994209551852
  outer loop
    vertex 55.86705555889227 0.6076059838787782 -3.288574999999999
    vertex 55.71022216982468 2.0674778214739398 -3.288574999999999
    vertex 56.89669305338902 1.3978436969079782 -3.288574999999999
  endloop
endfacet
facet normal 0.0010675858936277421 -0.0001354608955830287 -0.9999994209551852
  outer loop
    vertex 55.86705555889227 0.6076059838787782 -3.288574999999999
    vertex 56.89669305338902 1.3978436969079782 -3.288574999999999
    vertex 56.06982881454548 0.6675654496476119 -3.288574999999999
  endloop
endfacet
facet normal 0.0010675858936277421 -0.0001354608955830287 -0.9999994209551852
  outer loop
    vertex 56.06982881454548 0.6675654496476119 -3.288574999999999
    vertex 56.89669305338902 1.3978436969079782 -3.288574999999999
    vertex 56.28121139073677 0.673000265763731 -3.288574999999999
  endloop
endfacet
facet normal 0.0010675858936277421 -0.0001354608955830287 -0.9999994209551852
  outer loop
    vertex 56.28121139073677 0.673000265763731 -3.288574999999999
    vertex 56.89669305338902 1.3978436969079782 -3.288574999999999
    vertex 56.48679791422494 0.6235400584902819 -3.288574999999999
  endloop
endfacet
facet normal 0.0010675858936277421 -0.0001354608955830287 -0.9999994209551852
  outer loop
    vertex 56.48679791422494 0.6235400584902819 -3.288574999999999
    vertex 56.89669305338902 1.3978436969079782 -3.288574999999999
    vertex 56.67257800318206 0.5225554592160909 -3.288574999999999
  endloop
endfacet
facet normal 0.0010675858936277421 -0.0001354608955830287 -0.9999994209551852
  outer loop
    vertex 56.67257800318206 0.5225554592160909 -3.288574999999999
    vertex 56.89669305338902 1.3978436969079782 -3.288574999999999
    vertex 56.82589105156182 0.3769284014967542 -3.288574999999999
  endloop
endfacet
facet normal 0.0010675858936277421 -0.0001354608955830287 -0.9999994209551852
  outer loop
    vertex 56.82589105156182 0.3769284014967542 -3.288574999999999
    vertex 56.89669305338902 1.3978436969079782 -3.288574999999999
    vertex 57.24616086607408 0.3769284014967542 -3.288574999999999
  endloop
endfacet
facet normal 0.0010675858936277421 -0.0001354608955830287 -0.9999994209551852
  outer loop
    vertex 57.24616086607408 0.3769284014967542 -3.288574999999999
    vertex 56.89669305338902 1.3978436969079782 -3.288574999999999
    vertex 57.24616086607408 0.9235005109495841 -3.288574999999999
  endloop
endfacet
facet normal 0.0010675858936277421 -0.0001354608955830287 -0.9999994209551852
  outer loop
    vertex 54.910222169824685 2.0674778214739398 -3.2999999999999994
    vertex 54.8961608660741 -0.9325221785260597 -3.288574999999999
    vertex 54.8961608660741 0.11759837509914733 -3.288574999999999
  endloop
endfacet
facet normal 0.0010675858936277421 -0.0001354608955830287 -0.9999994209551852
  outer loop
    vertex 54.8961608660741 -0.9325221785260597 -3.288574999999999
    vertex 54.910222169824685 2.0674778214739398 -3.2999999999999994
    vertex 55.39607323790041 -0.25885423005466746 -3.288574999999999
  endloop
endfacet
facet normal 0.0010675858936277421 -0.0001354608955830287 -0.9999994209551852
  outer loop
    vertex 54.8961608660741 -0.9325221785260597 -3.288574999999999
    vertex 55.39607323790041 -0.25885423005466746 -3.288574999999999
    vertex 55.456032703669244 -0.46162748570787404 -3.288574999999999
  endloop
endfacet
facet normal 0.0010675858936277421 -0.0001354608955830287 -0.9999994209551852
  outer loop
    vertex 54.8961608660741 -0.9325221785260597 -3.288574999999999
    vertex 55.456032703669244 -0.46162748570787404 -3.288574999999999
    vertex 55.746160866074085 -1.3325221785260597 -3.288574999999999
  endloop
endfacet
facet normal 0.0010675858936277421 -0.0001354608955830287 -0.9999994209551852
  outer loop
    vertex 55.39607323790041 -0.25885423005466746 -3.288574999999999
    vertex 54.910222169824685 2.0674778214739398 -3.2999999999999994
    vertex 55.3906384217843 -0.047471653863373195 -3.288574999999999
  endloop
endfacet
facet normal 0.0010675858936277421 -0.0001354608955830287 -0.9999994209551852
  outer loop
    vertex 55.746160866074085 -1.3325221785260597 -3.288574999999999
    vertex 55.456032703669244 -0.46162748570787404 -3.288574999999999
    vertex 55.56643068058635 -0.6419727585488751 -3.288574999999999
  endloop
endfacet
facet normal 0.0010675858936277421 -0.0001354608955830287 -0.9999994209551852
  outer loop
    vertex 55.746160866074085 -1.3325221785260597 -3.288574999999999
    vertex 55.56643068058635 -0.6419727585488751 -3.288574999999999
    vertex 55.7197437289661 -0.7875998162682118 -3.288574999999999
  endloop
endfacet
facet normal 0.0010675858936277421 -0.0001354608955830287 -0.9999994209551852
  outer loop
    vertex 55.746160866074085 -1.3325221785260597 -3.288574999999999
    vertex 55.7197437289661 -0.7875998162682118 -3.288574999999999
    vertex 55.905523817923225 -0.8885844155424029 -3.288574999999999
  endloop
endfacet
facet normal 0.0010675858936277421 -0.0001354608955830287 -0.9999994209551852
  outer loop
    vertex 55.746160866074085 -1.3325221785260597 -3.288574999999999
    vertex 55.905523817923225 -0.8885844155424029 -3.288574999999999
    vertex 55.746160866074085 -1.7325221785260596 -3.2999999999999994
  endloop
endfacet
facet normal 0.0010675858936277421 -0.0001354608955830287 -0.9999994209551852
  outer loop
    vertex 55.746160866074085 -1.7325221785260596 -3.2999999999999994
    vertex 55.905523817923225 -0.8885844155424029 -3.288574999999999
    vertex 57.34616086607408 -1.7325221785260596 -3.288574999999999
  endloop
endfacet
facet normal 0.0010675858936277421 -0.0001354608955830287 -0.9999994209551852
  outer loop
    vertex 57.34616086607408 -1.7325221785260596 -3.288574999999999
    vertex 55.905523817923225 -0.8885844155424029 -3.288574999999999
    vertex 56.1111103414114 -0.9380446228158519 -3.288574999999999
  endloop
endfacet
facet normal 0.0010675858936277421 -0.0001354608955830287 -0.9999994209551852
  outer loop
    vertex 57.34616086607408 -1.7325221785260596 -3.288574999999999
    vertex 56.1111103414114 -0.9380446228158519 -3.288574999999999
    vertex 56.322492917602695 -0.9326098066997328 -3.288574999999999
  endloop
endfacet
facet normal 0.0010675858936277421 -0.0001354608955830287 -0.9999994209551852
  outer loop
    vertex 57.34616086607408 -1.7325221785260596 -3.288574999999999
    vertex 56.322492917602695 -0.9326098066997328 -3.288574999999999
    vertex 56.52526617325589 -0.8726503409308991 -3.288574999999999
  endloop
endfacet
facet normal 0.0010675858936277421 -0.0001354608955830287 -0.9999994209551852
  outer loop
    vertex 57.34616086607408 -1.7325221785260596 -3.288574999999999
    vertex 56.52526617325589 -0.8726503409308991 -3.288574999999999
    vertex 56.70561144609689 -0.7622523640137951 -3.288574999999999
  endloop
endfacet
facet normal 0.0010675858936277421 -0.0001354608955830287 -0.9999994209551852
  outer loop
    vertex 57.34616086607408 -1.7325221785260596 -3.288574999999999
    vertex 56.70561144609689 -0.7622523640137951 -3.288574999999999
    vertex 56.851238503816234 -0.6089393156340384 -3.288574999999999
  endloop
endfacet
facet normal 0.0010675858936277421 -0.0001354608955830287 -0.9999994209551852
  outer loop
    vertex 57.34616086607408 -1.7325221785260596 -3.288574999999999
    vertex 56.851238503816234 -0.6089393156340384 -3.288574999999999
    vertex 57.34616086607408 -0.6089393156340384 -3.288574999999999
  endloop
endfacet
facet normal 1.0 -2.118354246446826e-09 4.5788189700744284e-10
  outer loop
    vertex 43.59616086607409 -0.13252217852606046 -3.2999999999999994
    vertex 43.59616086607409 -1.7325221785260607 4.299999902262328
    vertex 43.59616086607409 -1.7325221785260607 -3.2999999999999994
  endloop
endfacet
facet normal 1.0 -2.118354246446826e-09 4.5788189700744284e-10
  outer loop
    vertex 43.59616086607409 -1.7325221785260607 4.299999902262328
    vertex 43.59616086607409 -0.13252217852606046 4.8999999999999995
    vertex 43.5961608543034 -1.7325222029604788 4.899999902262327
  endloop
endfacet
facet normal 1.0 -2.118354246446826e-09 4.5788189700744284e-10
  outer loop
    vertex 43.59616086607409 -0.13252217852606046 4.8999999999999995
    vertex 43.59616086607409 -1.7325221785260607 4.299999902262328
    vertex 43.59616086607409 -0.13252217852606046 -3.2999999999999994
  endloop
endfacet
facet normal 0.0 0.0 -1.0
  outer loop
    vertex 43.59616086607409 -0.13252217852606046 -3.2999999999999994
    vertex 42.246160866074085 -1.7325221785260607 -3.2999999999999994
    vertex 42.246160866074085 -0.13252217852606046 -3.2999999999999994
  endloop
endfacet
facet normal 0.0 0.0 -1.0
  outer loop
    vertex 42.246160866074085 -1.7325221785260607 -3.2999999999999994
    vertex 43.59616086607409 -0.13252217852606046 -3.2999999999999994
    vertex 43.59616086607409 -1.7325221785260607 -3.2999999999999994
  endloop
endfacet
facet normal 0.0 0.0 -1.0
  outer loop
    vertex 42.246160866074085 -0.13252217852606046 -3.2999999999999994
    vertex 41.246160866074085 -1.7325221785260607 -3.2999999999999994
    vertex 41.246160866074085 -0.13252217852606046 -3.2999999999999994
  endloop
endfacet
facet normal 0.0 0.0 -1.0
  outer loop
    vertex 41.246160866074085 -1.7325221785260607 -3.2999999999999994
    vertex 42.246160866074085 -0.13252217852606046 -3.2999999999999994
    vertex 42.246160866074085 -1.7325221785260607 -3.2999999999999994
  endloop
endfacet
facet normal -1.0 0.0 0.0
  outer loop
    vertex 40.84616086607409 -0.5325221785260604 4.8999999999999995
    vertex 40.84616086607409 -1.3325221785260604 -3.299999999999999
    vertex 40.84616086607409 -1.3325221785260604 4.8999999999999995
  endloop
endfacet
facet normal -1.0 0.0 0.0
  outer loop
    vertex 40.84616086607409 -1.3325221785260604 -3.299999999999999
    vertex 40.84616086607409 -0.5325221785260604 4.8999999999999995
    vertex 40.84616086607409 -0.5325221785260604 -3.299999999999999
  endloop
endfacet
facet normal -1.7624790515924396e-15 6.067055483010633e-34 -1.0
  outer loop
    vertex 41.246160866074085 -0.13252217852606046 -3.2999999999999994
    vertex 40.84616086607409 -1.3325221785260604 -3.299999999999999
    vertex 40.84616086607409 -0.5325221785260604 -3.299999999999999
  endloop
endfacet
facet normal -1.7624790515924396e-15 6.067055483010633e-34 -1.0
  outer loop
    vertex 40.84616086607409 -1.3325221785260604 -3.299999999999999
    vertex 41.246160866074085 -0.13252217852606046 -3.2999999999999994
    vertex 41.246160866074085 -1.7325221785260607 -3.2999999999999994
  endloop
endfacet
facet normal -3.1026255747752907e-16 -2.907780610735944e-16 -1.0
  outer loop
    vertex 42.707589437502655 2.0674778214739398 -3.2999999999999994
    vertex 43.52570632061954 0.36747782147394076 -3.2999999999999994
    vertex 42.246160866074085 0.36747782147394076 -3.2999999999999994
  endloop
endfacet
facet normal -3.1026255747752907e-16 -2.907780610735944e-16 -1.0
  outer loop
    vertex 43.52570632061954 0.36747782147394076 -3.2999999999999994
    vertex 42.707589437502655 2.0674778214739398 -3.2999999999999994
    vertex 43.28616086607409 2.0674778214739398 -3.300000000000001
  endloop
endfacet
facet normal 0.0 0.0 -1.0
  outer loop
    vertex 43.52570632061954 0.36747782147394076 -3.2999999999999994
    vertex 42.246160866074085 -0.13252217852606046 -3.2999999999999994
    vertex 42.246160866074085 0.36747782147394076 -3.2999999999999994
  endloop
endfacet
facet normal 0.0 0.0 -1.0
  outer loop
    vertex 42.246160866074085 -0.13252217852606046 -3.2999999999999994
    vertex 43.52570632061954 0.36747782147394076 -3.2999999999999994
    vertex 43.59616086607409 -0.13252217852606046 -3.2999999999999994
  endloop
endfacet
facet normal 0.0 0.0 1.0
  outer loop
    vertex 56.54604363102076 -2.9815811989694514 4.299999902262328
    vertex 55.74604363102076 -2.9815811989694514 4.299999902262328
    vertex 55.74604363102076 -4.631581198969451 4.299999902262328
  endloop
endfacet
facet normal 0.0 0.0 1.0
  outer loop
    vertex 55.74604363102076 -6.531581198969451 4.299999902262328
    vertex 45.24604363102075 -5.440777198969451 4.299999902262328
    vertex 45.24604363102075 -6.531581198969451 4.299999902262328
  endloop
endfacet
facet normal 0.0 0.0 1.0
  outer loop
    vertex 45.24604363102075 -5.440777198969451 4.299999902262328
    vertex 55.74604363102076 -6.531581198969451 4.299999902262328
    vertex 46.04604363102075 -5.440777198969451 4.299999902262328
  endloop
endfacet
facet normal 0.0 0.0 1.0
  outer loop
    vertex 46.04604363102075 -5.440777198969451 4.299999902262328
    vertex 55.74604363102076 -6.531581198969451 4.299999902262328
    vertex 52.796043631020765 -5.440777198969451 4.299999902262328
  endloop
endfacet
facet normal 0.0 0.0 1.0
  outer loop
    vertex 52.796043631020765 -5.440777198969451 4.299999902262328
    vertex 55.74604363102076 -6.531581198969451 4.299999902262328
    vertex 52.796043631020765 -1.7315811989694516 4.299999902262328
  endloop
endfacet
facet normal 0.0 0.0 1.0
  outer loop
    vertex 52.796043631020765 -1.7315811989694516 4.299999902262328
    vertex 55.74604363102076 -6.531581198969451 4.299999902262328
    vertex 54.74604363102076 -1.7315811989694516 4.299999902262328
  endloop
endfacet
facet normal 0.0 0.0 1.0
  outer loop
    vertex 54.74604363102076 -1.7315811989694516 4.299999902262328
    vertex 55.74604363102076 -6.531581198969451 4.299999902262328
    vertex 55.74604363102076 -1.7315811989694516 4.299999902262328
  endloop
endfacet
facet normal 0.0 0.0 1.0
  outer loop
    vertex 55.74604363102076 -1.7315811989694516 4.299999902262328
    vertex 55.74604363102076 -6.531581198969451 4.299999902262328
    vertex 55.74604363102076 -4.631581198969451 4.299999902262328
  endloop
endfacet
facet normal 0.0 0.0 1.0
  outer loop
    vertex 55.74604363102076 -1.7315811989694516 4.299999902262328
    vertex 55.74604363102076 -4.631581198969451 4.299999902262328
    vertex 55.74604363102076 -2.9815811989694514 4.299999902262328
  endloop
endfacet
facet normal 0.0 0.0 1.0
  outer loop
    vertex 46.04604363102075 -5.440777198969451 4.299999902262328
    vertex 45.24607313455617 -4.631581198969451 4.299999902262328
    vertex 45.24604363102075 -5.440777198969451 4.299999902262328
  endloop
endfacet
facet normal 0.0 0.0 1.0
  outer loop
    vertex 45.24607313455617 -4.631581198969451 4.299999902262328
    vertex 43.596073134556164 -3.8315811989694515 4.299999902262328
    vertex 43.596073134556164 -4.631581198969451 4.299999902262328
  endloop
endfacet
facet normal 0.0 0.0 1.0
  outer loop
    vertex 43.596073134556164 -3.8315811989694515 4.299999902262328
    vertex 45.24607313455617 -4.631581198969451 4.299999902262328
    vertex 46.04607313455617 -3.8315811989694515 4.299999902262328
  endloop
endfacet
facet normal 0.0 0.0 1.0
  outer loop
    vertex 46.04607313455617 -3.8315811989694515 4.299999902262328
    vertex 45.24607313455617 -4.631581198969451 4.299999902262328
    vertex 46.04604363102075 -5.440777198969451 4.299999902262328
  endloop
endfacet
facet normal 0.0 1.0 0.0
  outer loop
    vertex 43.596073134556164 -3.8315811989694515 4.299999902262328
    vertex 46.04607313455617 -3.831581198969451 2.899999917829961
    vertex 43.596073134556164 -3.831581198969451 2.899999917829961
  endloop
endfacet
facet normal 0.0 1.0 0.0
  outer loop
    vertex 46.04607313455617 -3.831581198969451 2.899999917829961
    vertex 43.596073134556164 -3.8315811989694515 4.299999902262328
    vertex 46.04607313455617 -3.8315811989694515 4.299999902262328
  endloop
endfacet
facet normal 0.0 -1.0 -5.035654489116409e-16
  outer loop
    vertex 43.596073134556164 -4.631581198969451 4.299999902262328
    vertex 43.596073134556164 -4.631581198969451 2.8999999178299625
    vertex 45.24607313455617 -4.631581198969451 4.299999902262328
  endloop
endfacet
facet normal 0.9999999998319261 -1.833433305408658e-05 0.0
  outer loop
    vertex 46.04604363102075 -5.4407771989694504 2.899999917829961
    vertex 46.04607313455617 -3.8315811989694515 4.299999902262328
    vertex 46.04604363102075 -5.440777198969451 4.299999902262328
  endloop
endfacet
facet normal 0.9999999998319261 -1.833433305408658e-05 0.0
  outer loop
    vertex 46.04607313455617 -3.8315811989694515 4.299999902262328
    vertex 46.04604363102075 -5.4407771989694504 2.899999917829961
    vertex 46.04607313455617 -3.831581198969451 2.899999917829961
  endloop
endfacet
facet normal -1.0 4.730034305435803e-10 4.913848021392353e-10
  outer loop
    vertex 45.24604363102075 -5.440777198969451 4.299999902262328
    vertex 45.24604362930091 -6.53158119619989 1.4999999022623278
    vertex 45.24604363102075 -6.531581198969451 4.299999902262328
  endloop
endfacet
facet normal -1.0 4.730034305435803e-10 4.913848021392353e-10
  outer loop
    vertex 45.24604362930091 -6.53158119619989 1.4999999022623278
    vertex 45.24604363102075 -5.440777198969451 4.299999902262328
    vertex 45.24604363102075 -5.4407771989694504 2.8999999178299625
  endloop
endfacet
facet normal 5.502614215830121e-05 -0.9999999959832724 7.075011777112784e-05
  outer loop
    vertex 43.596073134556164 -4.631581198969451 2.8999999178299625
    vertex 42.24604363102075 -4.631581198969451 4.299999902262328
    vertex 42.246074480630874 -4.631828822400256 1.4999999178299626
  endloop
endfacet
facet normal 5.502614215830121e-05 -0.9999999959832724 7.075011777112784e-05
  outer loop
    vertex 42.24604363102075 -4.631581198969451 4.299999902262328
    vertex 43.596073134556164 -4.631581198969451 2.8999999178299625
    vertex 43.596073134556164 -4.631581198969451 4.299999902262328
  endloop
endfacet
facet normal 0.9999999997046491 -2.226488098694229e-05 9.745609803719358e-06
  outer loop
    vertex 43.59616086607409 -1.7325221785260607 -3.2999999999999994
    vertex 43.59605171603016 -5.440777199214176 1.8999999178299625
    vertex 43.59616086607409 -5.4417181785260595 -3.2999999999999994
  endloop
endfacet
facet normal 0.9999999997046491 -2.226488098694229e-05 9.745609803719358e-06
  outer loop
    vertex 43.59605171603016 -5.440777199214176 1.8999999178299625
    vertex 43.59616086607409 -1.7325221785260607 -3.2999999999999994
    vertex 43.59605171603016 -5.040777199214175 1.8999999178299625
  endloop
endfacet
facet normal 0.9999999997046491 -2.226488098694229e-05 9.745609803719358e-06
  outer loop
    vertex 43.59605171603016 -5.040777199214175 1.8999999178299625
    vertex 43.59616086607409 -1.7325221785260607 -3.2999999999999994
    vertex 43.59607313431047 -4.631581199470424 2.4999999178299626
  endloop
endfacet
facet normal 0.9999999997046491 -2.226488098694229e-05 9.745609803719358e-06
  outer loop
    vertex 43.59607313431047 -4.631581199470424 2.4999999178299626
    vertex 43.59616086607409 -1.7325221785260607 -3.2999999999999994
    vertex 43.596073134556164 -3.831581198969451 2.899999917829961
  endloop
endfacet
facet normal 0.9999999997046491 -2.226488098694229e-05 9.745609803719358e-06
  outer loop
    vertex 43.596073134556164 -3.831581198969451 2.899999917829961
    vertex 43.59616086607409 -1.7325221785260607 4.299999902262328
    vertex 43.596073134556164 -3.8315811989694515 4.299999902262328
  endloop
endfacet
facet normal 0.9999999997046491 -2.226488098694229e-05 9.745609803719358e-06
  outer loop
    vertex 43.59616086607409 -1.7325221785260607 4.299999902262328
    vertex 43.596073134556164 -3.831581198969451 2.899999917829961
    vertex 43.59616086607409 -1.7325221785260607 -3.2999999999999994
  endloop
endfacet
facet normal 0.9999999997046491 -2.226488098694229e-05 9.745609803719358e-06
  outer loop
    vertex 43.59607313431047 -4.631581199470424 2.4999999178299626
    vertex 43.596058214898264 -5.0407771997362945 2.4999999188549613
    vertex 43.59605171603016 -5.040777199214175 1.8999999178299625
  endloop
endfacet
facet normal -2.400068756531862e-16 0.44721359527591537 -0.8944271911119371
  outer loop
    vertex 43.596073134556164 -3.831581198969451 2.899999917829961
    vertex 45.24607313431048 -4.631581199470424 2.4999999178299612
    vertex 43.59607313431047 -4.631581199470424 2.4999999178299626
  endloop
endfacet
facet normal -2.400068756531862e-16 0.44721359527591537 -0.8944271911119371
  outer loop
    vertex 45.24607313431048 -4.631581199470424 2.4999999178299612
    vertex 43.596073134556164 -3.831581198969451 2.899999917829961
    vertex 46.04607313455617 -3.831581198969451 2.899999917829961
  endloop
endfacet
facet normal 0.4472175295186224 -9.835506227241454e-06 -0.8944252239256912
  outer loop
    vertex 45.24605821489826 -5.0407771997362945 2.4999999188549613
    vertex 46.04604363102075 -5.4407771989694504 2.899999917829961
    vertex 45.246043630775056 -5.440777199470424 2.4999999178299626
  endloop
endfacet
facet normal 0.4472175295186224 -9.835506227241454e-06 -0.8944252239256912
  outer loop
    vertex 46.04604363102075 -5.4407771989694504 2.899999917829961
    vertex 45.24605821489826 -5.0407771997362945 2.4999999188549613
    vertex 45.24607313431048 -4.631581199470424 2.4999999178299612
  endloop
endfacet
facet normal 0.4472175295186224 -9.835506227241454e-06 -0.8944252239256912
  outer loop
    vertex 46.04604363102075 -5.4407771989694504 2.899999917829961
    vertex 45.24607313431048 -4.631581199470424 2.4999999178299612
    vertex 46.04607313455617 -3.831581198969451 2.899999917829961
  endloop
endfacet
facet normal -0.999999999335323 3.646030800776618e-05 1.8862716458639804e-20
  outer loop
    vertex 45.24607313455617 -4.631581198969451 4.299999902262328
    vertex 45.24604363102075 -5.4407771989694504 2.8999999178299625
    vertex 45.24604363102075 -5.440777198969451 4.299999902262328
  endloop
endfacet
facet normal -4.2726764885196985e-16 -2.504910364298019e-09 -1.0
  outer loop
    vertex 43.59607313431047 -4.631581199470424 2.4999999178299626
    vertex 45.24605821489826 -5.0407771997362945 2.4999999188549613
    vertex 43.596058214898264 -5.0407771997362945 2.4999999188549613
  endloop
endfacet
facet normal -4.2726764885196985e-16 -2.504910364298019e-09 -1.0
  outer loop
    vertex 45.24605821489826 -5.0407771997362945 2.4999999188549613
    vertex 43.59607313431047 -4.631581199470424 2.4999999178299626
    vertex 45.24607313431048 -4.631581199470424 2.4999999178299612
  endloop
endfacet
facet normal 1.870774569710394e-05 0.9999999906502203 -0.00013546062117524024
  outer loop
    vertex 43.59605171603016 -5.440777199214176 1.8999999178299625
    vertex 52.79616086607409 -5.4417181785260595 -3.2999999999999994
    vertex 43.59616086607409 -5.4417181785260595 -3.2999999999999994
  endloop
endfacet
facet normal 1.870774569710394e-05 0.9999999906502203 -0.00013546062117524024
  outer loop
    vertex 52.79616086607409 -5.4417181785260595 -3.2999999999999994
    vertex 43.59605171603016 -5.440777199214176 1.8999999178299625
    vertex 45.246043630837185 -5.440777199214176 1.8999999178299625
  endloop
endfacet
facet normal 1.870774569710394e-05 0.9999999906502203 -0.00013546062117524024
  outer loop
    vertex 52.79616086607409 -5.4417181785260595 -3.2999999999999994
    vertex 45.246043630837185 -5.440777199214176 1.8999999178299625
    vertex 52.796043631020765 -5.440777198969451 4.299999902262328
  endloop
endfacet
facet normal 1.870774569710394e-05 0.9999999906502203 -0.00013546062117524024
  outer loop
    vertex 52.796043631020765 -5.440777198969451 4.299999902262328
    vertex 45.246043630837185 -5.440777199214176 1.8999999178299625
    vertex 45.246043630775056 -5.440777199470424 2.4999999178299626
  endloop
endfacet
facet normal 1.870774569710394e-05 0.9999999906502203 -0.00013546062117524024
  outer loop
    vertex 52.796043631020765 -5.440777198969451 4.299999902262328
    vertex 45.246043630775056 -5.440777199470424 2.4999999178299626
    vertex 46.04604363102075 -5.4407771989694504 2.899999917829961
  endloop
endfacet
facet normal 1.870774569710394e-05 0.9999999906502203 -0.00013546062117524024
  outer loop
    vertex 52.796043631020765 -5.440777198969451 4.299999902262328
    vertex 46.04604363102075 -5.4407771989694504 2.899999917829961
    vertex 46.04604363102075 -5.440777198969451 4.299999902262328
  endloop
endfacet
facet normal 0.999999999335323 -3.646030800763533e-05 3.222787986638521e-22
  outer loop
    vertex 45.246043630837185 -5.440777199214176 1.8999999178299625
    vertex 45.24605821489826 -5.0407771997362945 2.4999999188549613
    vertex 45.246043630775056 -5.440777199470424 2.4999999178299626
  endloop
endfacet
facet normal 0.999999999335323 -3.646030800763533e-05 3.222787986638521e-22
  outer loop
    vertex 45.24605821489826 -5.0407771997362945 2.4999999188549613
    vertex 45.246043630837185 -5.440777199214176 1.8999999178299625
    vertex 45.246058214960385 -5.040777199480046 1.8999999188549612
  endloop
endfacet
facet normal 3.1060715759037913e-10 1.2812425839712186e-09 -1.0
  outer loop
    vertex 45.246058214960385 -5.040777199480046 1.8999999188549612
    vertex 43.59605171603016 -5.440777199214176 1.8999999178299625
    vertex 43.59605171603016 -5.040777199214175 1.8999999178299625
  endloop
endfacet
facet normal 3.1060715759037913e-10 1.2812425839712186e-09 -1.0
  outer loop
    vertex 43.59605171603016 -5.440777199214176 1.8999999178299625
    vertex 45.246058214960385 -5.040777199480046 1.8999999188549612
    vertex 45.246043630837185 -5.440777199214176 1.8999999178299625
  endloop
endfacet
facet normal 8.056686957019135e-11 1.0 3.3233768290734336e-10
  outer loop
    vertex 43.596058214898264 -5.0407771997362945 2.4999999188549613
    vertex 45.246058214960385 -5.040777199480046 1.8999999188549612
    vertex 43.59605171603016 -5.040777199214175 1.8999999178299625
  endloop
endfacet
facet normal 8.056686957019135e-11 1.0 3.3233768290734336e-10
  outer loop
    vertex 45.246058214960385 -5.040777199480046 1.8999999188549612
    vertex 43.596058214898264 -5.0407771997362945 2.4999999188549613
    vertex 45.24605821489826 -5.0407771997362945 2.4999999188549613
  endloop
endfacet
facet normal 1.9617806963996304e-08 -4.0724030095666704e-08 0.9999999999999991
  outer loop
    vertex 42.2461608543034 -1.7325222029604788 4.899999902262327
    vertex 41.246160866074085 -0.13252217852606046 4.8999999999999995
    vertex 41.246160866074085 -1.7325221785260607 4.8999999999999995
  endloop
endfacet
facet normal 1.9617806963996304e-08 -4.0724030095666704e-08 0.9999999999999991
  outer loop
    vertex 41.246160866074085 -0.13252217852606046 4.8999999999999995
    vertex 42.2461608543034 -1.7325222029604788 4.899999902262327
    vertex 42.246160866074085 -0.13252217852606046 4.8999999999999995
  endloop
endfacet
facet normal 1.9617806963996304e-08 -4.0724030095666704e-08 0.9999999999999991
  outer loop
    vertex 42.246160866074085 -0.13252217852606046 4.8999999999999995
    vertex 42.2461608543034 -1.7325222029604788 4.899999902262327
    vertex 43.5961608543034 -1.7325222029604788 4.899999902262327
  endloop
endfacet
facet normal 1.9617806963996304e-08 -4.0724030095666704e-08 0.9999999999999991
  outer loop
    vertex 42.246160866074085 -0.13252217852606046 4.8999999999999995
    vertex 43.5961608543034 -1.7325222029604788 4.899999902262327
    vertex 43.59616086607409 -0.13252217852606046 4.8999999999999995
  endloop
endfacet
facet normal 0.0 -0.9999999999999993 -4.0724030138846326e-08
  outer loop
    vertex 43.5961608543034 -1.7325222029604788 4.899999902262327
    vertex 42.246160866074085 -1.7325221785260607 4.299999902262328
    vertex 43.59616086607409 -1.7325221785260607 4.299999902262328
  endloop
endfacet
facet normal 0.0 -0.9999999999999993 -4.0724030138846326e-08
  outer loop
    vertex 42.246160866074085 -1.7325221785260607 4.299999902262328
    vertex 43.5961608543034 -1.7325222029604788 4.899999902262327
    vertex 42.2461608543034 -1.7325222029604788 4.899999902262327
  endloop
endfacet
facet normal 0.0014483646185489488 0.005718986171748128 -0.9999825975671273
  outer loop
    vertex 54.8961608660741 0.11759837509914733 -3.288574999999999
    vertex 52.79616086607409 -1.7325221785260607 -3.2999999999999994
    vertex 52.79616086607409 0.11759837509914733 -3.288574999999999
  endloop
endfacet
facet normal 0.0014483646185489488 0.005718986171748128 -0.9999825975671273
  outer loop
    vertex 52.79616086607409 -1.7325221785260607 -3.2999999999999994
    vertex 54.8961608660741 0.11759837509914733 -3.288574999999999
    vertex 54.8961608660741 -0.9325221785260597 -3.288574999999999
  endloop
endfacet
facet normal 0.0014483646185489488 0.005718986171748128 -0.9999825975671273
  outer loop
    vertex 52.79616086607409 -1.7325221785260607 -3.2999999999999994
    vertex 54.8961608660741 -0.9325221785260597 -3.288574999999999
    vertex 55.746160866074085 -1.7325221785260596 -3.2999999999999994
  endloop
endfacet
facet normal 0.0014483646185489488 0.005718986171748128 -0.9999825975671273
  outer loop
    vertex 55.746160866074085 -1.7325221785260596 -3.2999999999999994
    vertex 54.8961608660741 -0.9325221785260597 -3.288574999999999
    vertex 55.746160866074085 -1.3325221785260597 -3.288574999999999
  endloop
endfacet
facet normal -0.8292641490406001 0.5588568371096468 -8.204737323801972e-05
  outer loop
    vertex 52.796162570110205 0.11861340558442389 4.899999885903955
    vertex 54.11022216982469 2.0674778214739398 -3.2999999999999994
    vertex 52.79616086607409 0.11759837509914733 -3.288574999999999
  endloop
endfacet
facet normal -0.8292641490406001 0.5588568371096468 -8.204737323801972e-05
  outer loop
    vertex 54.11022216982469 2.0674778214739398 -3.2999999999999994
    vertex 52.796162570110205 0.11861340558442389 4.899999885903955
    vertex 54.11022387386079 2.0684928519592165 4.899999885903955
  endloop
endfacet
facet normal 0.0 -0.005859236018790295 -0.9999828345293115
  outer loop
    vertex 54.11022216982469 2.0674778214739398 -3.2999999999999994
    vertex 54.8961608660741 0.11759837509914733 -3.288574999999999
    vertex 52.79616086607409 0.11759837509914733 -3.288574999999999
  endloop
endfacet
facet normal 0.0 -0.005859236018790295 -0.9999828345293115
  outer loop
    vertex 54.8961608660741 0.11759837509914733 -3.288574999999999
    vertex 54.11022216982469 2.0674778214739398 -3.2999999999999994
    vertex 54.910222169824685 2.0674778214739398 -3.2999999999999994
  endloop
endfacet
facet normal 0.9902177480686674 0.13953068268240243 3.534608436550969e-17
  outer loop
    vertex 43.52570632061954 0.36747782147394076 -3.2999999999999994
    vertex 43.59616086607409 -0.13252217852606046 4.8999999999999995
    vertex 43.59616086607409 -0.13252217852606046 -3.2999999999999994
  endloop
endfacet
facet normal 0.9902177480686674 0.13953068268240243 3.534608436550969e-17
  outer loop
    vertex 43.59616086607409 -0.13252217852606046 4.8999999999999995
    vertex 43.52570632061954 0.36747782147394076 -3.2999999999999994
    vertex 43.28616086607409 2.0674778214739398 4.8999999999999995
  endloop
endfacet
facet normal 0.9902177480686674 0.13953068268240243 3.534608436550969e-17
  outer loop
    vertex 43.28616086607409 2.0674778214739398 4.8999999999999995
    vertex 43.52570632061954 0.36747782147394076 -3.2999999999999994
    vertex 43.28616086607409 2.0674778214739398 -3.300000000000001
  endloop
endfacet
facet normal 0.9999999855151545 9.408803527275056e-06 0.00016994459473922558
  outer loop
    vertex 54.747172138581035 2.0659998969603186 -0.29661605523271906
    vertex 54.747176650294506 -0.9340001030396801 4.290798678560436
    vertex 54.747176650294506 -0.9340001030396801 -0.2954183214395626
  endloop
endfacet
facet normal 0.9999999855151545 9.408803527275056e-06 0.00016994459473922558
  outer loop
    vertex 54.747176650294506 -0.9340001030396801 4.290798678560436
    vertex 54.747172138581035 2.0659998969603186 -0.29661605523271906
    vertex 54.747176650294506 -0.927079167591059 4.8907196737249645
  endloop
endfacet
facet normal 0.9999999855151545 9.408803527275056e-06 0.00016994459473922558
  outer loop
    vertex 54.747176650294506 -0.927079167591059 4.8907196737249645
    vertex 54.747172138581035 2.0659998969603186 -0.29661605523271906
    vertex 54.74615805839672 2.0684928519592165 4.8988021521107985
  endloop
endfacet
facet normal -0.0002465540734702877 0.0005263729096796674 0.9999998310713102
  outer loop
    vertex 54.747176650294506 -0.9340001030396801 -0.2954183214395626
    vertex 55.39708902212083 -0.2603321545682864 -0.2954183214395626
    vertex 55.39165420600471 -0.04894957837699215 -0.2954183214395626
  endloop
endfacet
facet normal -0.0002465540734702877 0.0005263729096796674 0.9999998310713102
  outer loop
    vertex 55.39708902212083 -0.2603321545682864 -0.2954183214395626
    vertex 54.747176650294506 -0.9340001030396801 -0.2954183214395626
    vertex 55.747176650294506 -1.73400010303968 -0.2954183214395626
  endloop
endfacet
facet normal -0.0002465540734702877 0.0005263729096796674 0.9999998310713102
  outer loop
    vertex 55.39708902212083 -0.2603321545682864 -0.2954183214395626
    vertex 55.747176650294506 -1.73400010303968 -0.2954183214395626
    vertex 55.45704848788967 -0.463105410221493 -0.2954183214395626
  endloop
endfacet
facet normal -0.0002465540734702877 0.0005263729096796674 0.9999998310713102
  outer loop
    vertex 55.45704848788967 -0.463105410221493 -0.2954183214395626
    vertex 55.747176650294506 -1.73400010303968 -0.2954183214395626
    vertex 55.56744646480677 -0.6434506830624941 -0.2954183214395626
  endloop
endfacet
facet normal -0.0002465540734702877 0.0005263729096796674 0.9999998310713102
  outer loop
    vertex 55.56744646480677 -0.6434506830624941 -0.2954183214395626
    vertex 55.747176650294506 -1.73400010303968 -0.2954183214395626
    vertex 55.72075951318653 -0.7890777407818308 -0.2954183214395626
  endloop
endfacet
facet normal -0.0002465540734702877 0.0005263729096796674 0.9999998310713102
  outer loop
    vertex 55.72075951318653 -0.7890777407818308 -0.2954183214395626
    vertex 55.747176650294506 -1.73400010303968 -0.2954183214395626
    vertex 55.90653960214364 -0.8900623400560211 -0.2954183214395626
  endloop
endfacet
facet normal -0.0002465540734702877 0.0005263729096796674 0.9999998310713102
  outer loop
    vertex 55.90653960214364 -0.8900623400560211 -0.2954183214395626
    vertex 55.747176650294506 -1.73400010303968 -0.2954183214395626
    vertex 57.34717665029451 -1.73400010303968 -0.2954183214395626
  endloop
endfacet
facet normal -0.0002465540734702877 0.0005263729096796674 0.9999998310713102
  outer loop
    vertex 55.90653960214364 -0.8900623400560211 -0.2954183214395626
    vertex 57.34717665029451 -1.73400010303968 -0.2954183214395626
    vertex 56.11212612563181 -0.9395225473294702 -0.2954183214395626
  endloop
endfacet
facet normal -0.0002465540734702877 0.0005263729096796674 0.9999998310713102
  outer loop
    vertex 56.11212612563181 -0.9395225473294702 -0.2954183214395626
    vertex 57.34717665029451 -1.73400010303968 -0.2954183214395626
    vertex 56.32350870182311 -0.934087731213351 -0.2954183214395626
  endloop
endfacet
facet normal -0.0002465540734702877 0.0005263729096796674 0.9999998310713102
  outer loop
    vertex 56.32350870182311 -0.934087731213351 -0.2954183214395626
    vertex 57.34717665029451 -1.73400010303968 -0.2954183214395626
    vertex 56.52628195747632 -0.8741282654445174 -0.2954183214395626
  endloop
endfacet
facet normal -0.0002465540734702877 0.0005263729096796674 0.9999998310713102
  outer loop
    vertex 56.52628195747632 -0.8741282654445174 -0.2954183214395626
    vertex 57.34717665029451 -1.73400010303968 -0.2954183214395626
    vertex 56.706627230317316 -0.7637302885274141 -0.2954183214395626
  endloop
endfacet
facet normal -0.0002465540734702877 0.0005263729096796674 0.9999998310713102
  outer loop
    vertex 56.706627230317316 -0.7637302885274141 -0.2954183214395626
    vertex 57.34717665029451 -1.73400010303968 -0.2954183214395626
    vertex 56.852254288036654 -0.6104172401476573 -0.2954183214395626
  endloop
endfacet
facet normal -0.0002465540734702877 0.0005263729096796674 0.9999998310713102
  outer loop
    vertex 56.852254288036654 -0.6104172401476573 -0.2954183214395626
    vertex 57.34717665029451 -1.73400010303968 -0.2954183214395626
    vertex 57.34717665029451 -0.6104172401476573 -0.2954183214395626
  endloop
endfacet
facet normal -0.0002465540734702877 0.0005263729096796674 0.9999998310713102
  outer loop
    vertex 54.747176650294506 -0.9340001030396801 -0.2954183214395626
    vertex 55.7112379540451 2.0659998969603186 -0.30144532143956226
    vertex 54.747172138581035 2.0659998969603186 -0.29661605523271906
  endloop
endfacet
facet normal -0.0002465540734702877 0.0005263729096796674 0.9999998310713102
  outer loop
    vertex 55.7112379540451 2.0659998969603186 -0.30144532143956226
    vertex 54.747176650294506 -0.9340001030396801 -0.2954183214395626
    vertex 55.39165420600471 -0.04894957837699215 -0.2954183214395626
  endloop
endfacet
facet normal -0.0002465540734702877 0.0005263729096796674 0.9999998310713102
  outer loop
    vertex 55.7112379540451 2.0659998969603186 -0.30144532143956226
    vertex 55.39165420600471 -0.04894957837699215 -0.2954183214395626
    vertex 55.44111441327816 0.15663694511117823 -0.2954183214395626
  endloop
endfacet
facet normal -0.0002465540734702877 0.0005263729096796674 0.9999998310713102
  outer loop
    vertex 55.7112379540451 2.0659998969603186 -0.30144532143956226
    vertex 55.44111441327816 0.15663694511117823 -0.2954183214395626
    vertex 55.542099012552356 0.34241703406829843 -0.2954183214395626
  endloop
endfacet
facet normal -0.0002465540734702877 0.0005263729096796674 0.9999998310713102
  outer loop
    vertex 55.7112379540451 2.0659998969603186 -0.30144532143956226
    vertex 55.542099012552356 0.34241703406829843 -0.2954183214395626
    vertex 55.68772607027169 0.49573008244805533 -0.2954183214395626
  endloop
endfacet
facet normal -0.0002465540734702877 0.0005263729096796674 0.9999998310713102
  outer loop
    vertex 55.7112379540451 2.0659998969603186 -0.30144532143956226
    vertex 55.68772607027169 0.49573008244805533 -0.2954183214395626
    vertex 55.868071343112696 0.6061280593651592 -0.2954183214395626
  endloop
endfacet
facet normal -0.0002465540734702877 0.0005263729096796674 0.9999998310713102
  outer loop
    vertex 55.7112379540451 2.0659998969603186 -0.30144532143956226
    vertex 55.868071343112696 0.6061280593651592 -0.2954183214395626
    vertex 56.897708837609436 1.3963657723943599 -0.2954183214395626
  endloop
endfacet
facet normal -0.0002465540734702877 0.0005263729096796674 0.9999998310713102
  outer loop
    vertex 56.897708837609436 1.3963657723943599 -0.2954183214395626
    vertex 55.868071343112696 0.6061280593651592 -0.2954183214395626
    vertex 56.0708445987659 0.6660875251339929 -0.2954183214395626
  endloop
endfacet
facet normal -0.0002465540734702877 0.0005263729096796674 0.9999998310713102
  outer loop
    vertex 56.897708837609436 1.3963657723943599 -0.2954183214395626
    vertex 56.0708445987659 0.6660875251339929 -0.2954183214395626
    vertex 56.28222717495719 0.671522341250112 -0.2954183214395626
  endloop
endfacet
facet normal -0.0002465540734702877 0.0005263729096796674 0.9999998310713102
  outer loop
    vertex 56.897708837609436 1.3963657723943599 -0.2954183214395626
    vertex 56.28222717495719 0.671522341250112 -0.2954183214395626
    vertex 56.48781369844536 0.622062133976663 -0.2954183214395626
  endloop
endfacet
facet normal -0.0002465540734702877 0.0005263729096796674 0.9999998310713102
  outer loop
    vertex 56.897708837609436 1.3963657723943599 -0.2954183214395626
    vertex 56.48781369844536 0.622062133976663 -0.2954183214395626
    vertex 56.673593787402474 0.521077534702472 -0.2954183214395626
  endloop
endfacet
facet normal -0.0002465540734702877 0.0005263729096796674 0.9999998310713102
  outer loop
    vertex 56.897708837609436 1.3963657723943599 -0.2954183214395626
    vertex 56.673593787402474 0.521077534702472 -0.2954183214395626
    vertex 56.82690683578224 0.3754504769831353 -0.2954183214395626
  endloop
endfacet
facet normal -0.0002465540734702877 0.0005263729096796674 0.9999998310713102
  outer loop
    vertex 56.897708837609436 1.3963657723943599 -0.2954183214395626
    vertex 56.82690683578224 0.3754504769831353 -0.2954183214395626
    vertex 57.247176650294506 0.3754504769831353 -0.2954183214395626
  endloop
endfacet
facet normal -0.0002465540734702877 0.0005263729096796674 0.9999998310713102
  outer loop
    vertex 56.897708837609436 1.3963657723943599 -0.2954183214395626
    vertex 57.247176650294506 0.3754504769831353 -0.2954183214395626
    vertex 57.247176650294506 0.9220225864359658 -0.2954183214395626
  endloop
endfacet
facet normal 0.0001982318157272806 0.00012341821444750416 0.9999999727360455
  outer loop
    vertex 54.74604363102076 -1.724660263520831 4.899920897426856
    vertex 52.796162570110205 0.11861340558442389 4.899999885903955
    vertex 52.796162570110205 -1.731507148040783 4.899999885903955
  endloop
endfacet
facet normal 0.0001982318157272806 0.00012341821444750416 0.9999999727360455
  outer loop
    vertex 52.796162570110205 0.11861340558442389 4.899999885903955
    vertex 54.74604363102076 -1.724660263520831 4.899920897426856
    vertex 54.11022387386079 2.0684928519592165 4.899999885903955
  endloop
endfacet
facet normal 0.0001982318157272806 0.00012341821444750416 0.9999999727360455
  outer loop
    vertex 54.11022387386079 2.0684928519592165 4.899999885903955
    vertex 54.74604363102076 -1.724660263520831 4.899920897426856
    vertex 54.74615805839672 2.0684928519592165 4.8988021521107985
  endloop
endfacet
facet normal 0.0001982318157272806 0.00012341821444750416 0.9999999727360455
  outer loop
    vertex 54.74615805839672 2.0684928519592165 4.8988021521107985
    vertex 54.74604363102076 -1.724660263520831 4.899920897426856
    vertex 54.747176650294506 -0.927079167591059 4.8907196737249645
  endloop
endfacet
facet normal 2.662481358666906e-22 -0.9999999923839719 0.0001234182168725293
  outer loop
    vertex 54.74604363102076 -1.724660263520831 4.899920897426856
    vertex 52.796043631020765 -1.7315811989694516 4.299999902262328
    vertex 54.74604363102076 -1.7315811989694516 4.299999902262328
  endloop
endfacet
facet normal 2.662481358666906e-22 -0.9999999923839719 0.0001234182168725293
  outer loop
    vertex 52.796043631020765 -1.7315811989694516 4.299999902262328
    vertex 54.74604363102076 -1.724660263520831 4.899920897426856
    vertex 52.796162570110205 -1.731507148040783 4.899999885903955
  endloop
endfacet
facet normal 0.624335127090283 0.7811565991980792 -0.0001288815422487913
  outer loop
    vertex 54.747176650294506 -0.9340001030396801 4.290798678560436
    vertex 55.747176650294506 -1.73400010303968 -0.2954183214395626
    vertex 54.747176650294506 -0.9340001030396801 -0.2954183214395626
  endloop
endfacet
facet normal 0.624335127090283 0.7811565991980792 -0.0001288815422487913
  outer loop
    vertex 55.747176650294506 -1.73400010303968 -0.2954183214395626
    vertex 54.747176650294506 -0.9340001030396801 4.290798678560436
    vertex 55.74604363102076 -1.7315811989694516 4.299999902262328
  endloop
endfacet
facet normal -8.117978012647112e-19 0.011535643861284311 0.9999334622467166
  outer loop
    vertex 55.74604363102076 -1.724660263520831 4.899920897426856
    vertex 54.747176650294506 -0.927079167591059 4.8907196737249645
    vertex 54.74604363102076 -1.724660263520831 4.899920897426856
  endloop
endfacet
facet normal 0.6239986296167411 0.7813734405609928 -0.009014245520622506
  outer loop
    vertex 54.747176650294506 -0.927079167591059 4.8907196737249645
    vertex 55.74604363102076 -1.7315811989694516 4.299999902262328
    vertex 54.747176650294506 -0.9340001030396801 4.290798678560436
  endloop
endfacet
facet normal 0.6239986296167411 0.7813734405609928 -0.009014245520622506
  outer loop
    vertex 55.74604363102076 -1.7315811989694516 4.299999902262328
    vertex 54.747176650294506 -0.927079167591059 4.8907196737249645
    vertex 55.74604363102076 -1.724660263520831 4.899920897426856
  endloop
endfacet
facet normal 0.0 -0.9999334622467165 0.011535643861284311
  outer loop
    vertex 55.74604363102076 -1.724660263520831 4.899920897426856
    vertex 54.74604363102076 -1.7315811989694516 4.299999902262328
    vertex 55.74604363102076 -1.7315811989694516 4.299999902262328
  endloop
endfacet
facet normal 0.0 -0.9999334622467165 0.011535643861284311
  outer loop
    vertex 54.74604363102076 -1.7315811989694516 4.299999902262328
    vertex 55.74604363102076 -1.724660263520831 4.899920897426856
    vertex 54.74604363102076 -1.724660263520831 4.899920897426856
  endloop
endfacet
facet normal -0.7198673914390038 -5.2195460878178304e-05 0.6941116163978515
  outer loop
    vertex 43.596073134556164 -4.631581198969451 2.8999999178299625
    vertex 42.24622159715176 -5.433872808907686 1.4999999162431321
    vertex 43.59604363102075 -5.4407771989694504 2.8999999198569246
  endloop
endfacet
facet normal -0.7198673914390038 -5.2195460878178304e-05 0.6941116163978515
  outer loop
    vertex 42.24622159715176 -5.433872808907686 1.4999999162431321
    vertex 43.596073134556164 -4.631581198969451 2.8999999178299625
    vertex 42.246074480630874 -4.631828822400256 1.4999999178299626
  endloop
endfacet
facet normal 7.550283939098708e-10 -0.7888290021609703 0.6146127279431564
  outer loop
    vertex 45.24604363102075 -5.4407771989694504 2.8999999178299625
    vertex 43.59604362930091 -6.53158119619989 1.49999990428929
    vertex 45.24604362930091 -6.53158119619989 1.4999999022623278
  endloop
endfacet
facet normal 7.550283939098708e-10 -0.7888290021609703 0.6146127279431564
  outer loop
    vertex 43.59604362930091 -6.53158119619989 1.49999990428929
    vertex 45.24604363102075 -5.4407771989694504 2.8999999178299625
    vertex 43.59604363102075 -5.4407771989694504 2.8999999198569246
  endloop
endfacet
facet normal -0.7198897791945271 9.645994905039314e-05 0.6940883924304838
  outer loop
    vertex 42.24622159715176 -5.433872808907686 1.4999999162431321
    vertex 42.246074480630895 -6.531828822400254 1.4999999178299626
    vertex 43.59604363102075 -5.4407771989694504 2.8999999198569246
  endloop
endfacet
facet normal 0.00014470186148971023 -0.7888289939025576 0.6146127215084717
  outer loop
    vertex 43.59604363102075 -5.4407771989694504 2.8999999198569246
    vertex 42.246074480630895 -6.531828822400254 1.4999999178299626
    vertex 43.59604362930091 -6.53158119619989 1.49999990428929
  endloop
endfacet
facet normal 6.147468961303076e-10 -0.8657827898413053 0.5004199844276868
  outer loop
    vertex 45.24607313455617 -4.631581198969451 4.299999902262328
    vertex 43.59604363102075 -5.4407771989694504 2.8999999198569246
    vertex 45.24604363102075 -5.4407771989694504 2.8999999178299625
  endloop
endfacet
facet normal -0.6469774438321989 2.359090690796192e-05 0.7625091387097096
  outer loop
    vertex 45.24607313455617 -4.631581198969451 4.299999902262328
    vertex 43.596073134556164 -4.631581198969451 2.8999999178299625
    vertex 43.59604363102075 -5.4407771989694504 2.8999999198569246
  endloop
endfacet
endsolid Keyboard_Guide
