solid Keyboard_LEDs
facet normal 0.0 -2.7755575615628914e-16 1.0
  outer loop
    vertex 20.550000014901162 1.5999999999999943 6.699999999999997
    vertex 5.05000001490116 2.8999999999999924 6.699999999999997
    vertex 5.05000001490116 1.599999999999995 6.699999999999997
  endloop
endfacet
facet normal 0.0 -2.7755575615628914e-16 1.0
  outer loop
    vertex 5.05000001490116 2.8999999999999924 6.699999999999997
    vertex 20.550000014901162 1.5999999999999943 6.699999999999997
    vertex 20.550000014901162 2.8999999999999897 6.699999999999997
  endloop
endfacet
facet normal 8.142462067841309e-17 1.0 4.366182767899299e-16
  outer loop
    vertex 2.000000014901161 4.999999999999999 1.9999999999999984
    vertex 4.1000000000000005 5.0 -1.4099832412739487e-15
    vertex 2.000000014901161 5.0 -1.4099832412739487e-15
  endloop
endfacet
facet normal 8.142462067841309e-17 1.0 4.366182767899299e-16
  outer loop
    vertex 4.1000000000000005 5.0 -1.4099832412739487e-15
    vertex 2.000000014901161 4.999999999999999 1.9999999999999984
    vertex 5.100000029802323 5.0 -1.4099832412739487e-15
  endloop
endfacet
facet normal 8.142462067841309e-17 1.0 4.366182767899299e-16
  outer loop
    vertex 5.100000029802323 5.0 -1.4099832412739487e-15
    vertex 2.000000014901161 4.999999999999999 1.9999999999999984
    vertex 6.1500000149011615 5.0 -1.4099832412739487e-15
  endloop
endfacet
facet normal 8.142462067841309e-17 1.0 4.366182767899299e-16
  outer loop
    vertex 6.1500000149011615 5.0 -1.4099832412739487e-15
    vertex 2.000000014901161 4.999999999999999 1.9999999999999984
    vertex 6.1500000149011615 4.999999999999999 1.8499999999999988
  endloop
endfacet
facet normal 8.142462067841309e-17 1.0 4.366182767899299e-16
  outer loop
    vertex 6.1500000149011615 4.999999999999999 1.8499999999999988
    vertex 2.000000014901161 4.999999999999999 1.9999999999999984
    vertex 18.950000014901164 4.999999999999999 1.8499999999999988
  endloop
endfacet
facet normal 8.142462067841309e-17 1.0 4.366182767899299e-16
  outer loop
    vertex 18.950000014901164 4.999999999999999 1.8499999999999988
    vertex 20.00000001490116 5.0 -1.4099832412739487e-15
    vertex 18.950000014901164 5.0 -1.4099832412739487e-15
  endloop
endfacet
facet normal 8.142462067841309e-17 1.0 4.366182767899299e-16
  outer loop
    vertex 20.00000001490116 5.0 -1.4099832412739487e-15
    vertex 18.950000014901164 4.999999999999999 1.8499999999999988
    vertex 21.00000001490116 5.0 -1.4099832412739487e-15
  endloop
endfacet
facet normal 8.142462067841309e-17 1.0 4.366182767899299e-16
  outer loop
    vertex 21.00000001490116 5.0 -1.4099832412739487e-15
    vertex 18.950000014901164 4.999999999999999 1.8499999999999988
    vertex 23.100000014901163 5.0 -1.4099832412739487e-15
  endloop
endfacet
facet normal 8.142462067841309e-17 1.0 4.366182767899299e-16
  outer loop
    vertex 23.100000014901163 5.0 -1.4099832412739487e-15
    vertex 18.950000014901164 4.999999999999999 1.8499999999999988
    vertex 23.100000014901163 4.999999999999999 1.9999999999999984
  endloop
endfacet
facet normal 8.142462067841309e-17 1.0 4.366182767899299e-16
  outer loop
    vertex 23.100000014901163 4.999999999999999 1.9999999999999984
    vertex 18.950000014901164 4.999999999999999 1.8499999999999988
    vertex 2.000000014901161 4.999999999999999 1.9999999999999984
  endloop
endfacet
facet normal 8.142462067841309e-17 1.0 4.366182767899299e-16
  outer loop
    vertex 23.100000014901163 4.999999999999999 1.9999999999999984
    vertex 2.000000014901161 4.999999999999999 1.9999999999999984
    vertex 3.550000014901162 4.999999999999999 1.9999999999999984
  endloop
endfacet
facet normal 8.142462067841309e-17 1.0 4.366182767899299e-16
  outer loop
    vertex 23.100000014901163 4.999999999999999 1.9999999999999984
    vertex 3.550000014901162 4.999999999999999 1.9999999999999984
    vertex 20.050000014901162 4.999999999999999 1.9999999999999984
  endloop
endfacet
facet normal 8.142462067841309e-17 1.0 4.366182767899299e-16
  outer loop
    vertex 23.100000014901163 4.999999999999999 1.9999999999999984
    vertex 20.050000014901162 4.999999999999999 1.9999999999999984
    vertex 21.050000014901162 4.999999999999999 1.9999999999999984
  endloop
endfacet
facet normal 8.142462067841309e-17 1.0 4.366182767899299e-16
  outer loop
    vertex 23.100000014901163 4.999999999999999 1.9999999999999984
    vertex 21.050000014901162 4.999999999999999 1.9999999999999984
    vertex 21.550000014901162 4.999999999999999 1.9999999999999984
  endloop
endfacet
facet normal 8.142462067841309e-17 1.0 4.366182767899299e-16
  outer loop
    vertex 20.00000001490116 5.0 -1.4099832412739487e-15
    vertex 21.00000001490116 5.000000000000002 -4.000000000000001
    vertex 20.00000001490116 5.000000000000002 -4.000000000000001
  endloop
endfacet
facet normal 8.142462067841309e-17 1.0 4.366182767899299e-16
  outer loop
    vertex 21.00000001490116 5.000000000000002 -4.000000000000001
    vertex 20.00000001490116 5.0 -1.4099832412739487e-15
    vertex 21.00000001490116 5.0 -1.4099832412739487e-15
  endloop
endfacet
facet normal 8.142462067841309e-17 1.0 4.366182767899299e-16
  outer loop
    vertex 4.1000000000000005 5.0 -1.4099832412739487e-15
    vertex 5.100000029802323 5.000000000000002 -4.000000000000001
    vertex 4.1000000000000005 5.000000000000002 -4.000000000000001
  endloop
endfacet
facet normal 8.142462067841309e-17 1.0 4.366182767899299e-16
  outer loop
    vertex 5.100000029802323 5.000000000000002 -4.000000000000001
    vertex 4.1000000000000005 5.0 -1.4099832412739487e-15
    vertex 5.100000029802323 5.0 -1.4099832412739487e-15
  endloop
endfacet
facet normal 8.142462067841309e-17 1.0 4.366182767899299e-16
  outer loop
    vertex 5.05000001490116 4.999999999999992 3.8999999999999986
    vertex 20.050000014901162 4.999999999999999 1.9999999999999984
    vertex 3.550000014901162 4.999999999999999 1.9999999999999984
  endloop
endfacet
facet normal 8.142462067841309e-17 1.0 4.366182767899299e-16
  outer loop
    vertex 20.050000014901162 4.999999999999999 1.9999999999999984
    vertex 5.05000001490116 4.999999999999992 3.8999999999999986
    vertex 20.050000014901162 4.999999999999999 2.9999999999999982
  endloop
endfacet
facet normal 8.142462067841309e-17 1.0 4.366182767899299e-16
  outer loop
    vertex 20.050000014901162 4.999999999999999 2.9999999999999982
    vertex 5.05000001490116 4.999999999999992 3.8999999999999986
    vertex 19.15000001490116 4.999999999999985 3.4999999999999987
  endloop
endfacet
facet normal 8.142462067841309e-17 1.0 4.366182767899299e-16
  outer loop
    vertex 19.15000001490116 4.999999999999985 3.4999999999999987
    vertex 5.05000001490116 4.999999999999992 3.8999999999999986
    vertex 19.150000014901167 4.999999999999995 4.3000000000000105
  endloop
endfacet
facet normal 8.142462067841309e-17 1.0 4.366182767899299e-16
  outer loop
    vertex 19.150000014901167 4.999999999999995 4.3000000000000105
    vertex 5.05000001490116 4.999999999999992 3.8999999999999986
    vertex 5.050000014901161 4.999999999999992 4.299999999999999
  endloop
endfacet
facet normal 8.142462067841309e-17 1.0 4.366182767899299e-16
  outer loop
    vertex 19.150000014901167 4.999999999999995 4.3000000000000105
    vertex 5.050000014901161 4.999999999999992 4.299999999999999
    vertex 5.05000001490116 4.999999999999998 11.899999999999999
  endloop
endfacet
facet normal 8.142462067841309e-17 1.0 4.366182767899299e-16
  outer loop
    vertex 19.150000014901167 4.999999999999995 4.3000000000000105
    vertex 5.05000001490116 4.999999999999998 11.899999999999999
    vertex 19.550000014901165 4.999999999999995 4.3000000000000105
  endloop
endfacet
facet normal 8.142462067841309e-17 1.0 4.366182767899299e-16
  outer loop
    vertex 19.550000014901165 4.999999999999995 4.3000000000000105
    vertex 5.05000001490116 4.999999999999998 11.899999999999999
    vertex 20.550000014901165 4.999999999999995 4.3000000000000105
  endloop
endfacet
facet normal 8.142462067841309e-17 1.0 4.366182767899299e-16
  outer loop
    vertex 20.550000014901165 4.999999999999995 4.3000000000000105
    vertex 5.05000001490116 4.999999999999998 11.899999999999999
    vertex 20.550000014901162 4.999999999999998 11.899999999999999
  endloop
endfacet
facet normal 8.142462067841309e-17 1.0 4.366182767899299e-16
  outer loop
    vertex 20.050000014901162 4.999999999999985 3.4999999999999987
    vertex 20.050000014901162 4.999999999999999 2.9999999999999982
    vertex 19.15000001490116 4.999999999999985 3.4999999999999987
  endloop
endfacet
facet normal -1.0 -0.0 0.0
  outer loop
    vertex 18.950000014901164 4.999999999999999 1.8499999999999988
    vertex 18.950000014901164 1.6000000000000005 -3.877453913503359e-15
    vertex 18.950000014901164 1.5999999999999928 1.849999999999998
  endloop
endfacet
facet normal -1.0 -0.0 0.0
  outer loop
    vertex 18.950000014901164 1.6000000000000005 -3.877453913503359e-15
    vertex 18.950000014901164 4.999999999999999 1.8499999999999988
    vertex 18.950000014901164 5.0 -1.4099832412739487e-15
  endloop
endfacet
facet normal 5.685416295459471e-16 5.183761916448345e-17 1.0
  outer loop
    vertex 23.100000014901163 1.5999999999999928 1.9999999999999978
    vertex 21.550000014901162 4.999999999999999 1.9999999999999984
    vertex 21.550000014901162 1.5999999999999914 1.9999999999999991
  endloop
endfacet
facet normal 5.685416295459471e-16 5.183761916448345e-17 1.0
  outer loop
    vertex 21.550000014901162 4.999999999999999 1.9999999999999984
    vertex 23.100000014901163 1.5999999999999928 1.9999999999999978
    vertex 23.100000014901163 4.999999999999999 1.9999999999999984
  endloop
endfacet
facet normal 1.0 0.0 0.0
  outer loop
    vertex 23.100000014901163 1.6000000000000005 -3.877453913503359e-15
    vertex 23.100000014901163 4.999999999999999 1.9999999999999984
    vertex 23.100000014901163 1.5999999999999928 1.9999999999999978
  endloop
endfacet
facet normal 1.0 0.0 0.0
  outer loop
    vertex 23.100000014901163 4.999999999999999 1.9999999999999984
    vertex 23.100000014901163 1.6000000000000005 -3.877453913503359e-15
    vertex 23.100000014901163 5.0 -1.4099832412739487e-15
  endloop
endfacet
facet normal 1.0 0.0 0.0
  outer loop
    vertex 6.1500000149011615 1.6000000000000005 -3.877453913503359e-15
    vertex 6.1500000149011615 4.999999999999999 1.8499999999999988
    vertex 6.1500000149011615 1.5999999999999928 1.849999999999998
  endloop
endfacet
facet normal 1.0 0.0 0.0
  outer loop
    vertex 6.1500000149011615 4.999999999999999 1.8499999999999988
    vertex 6.1500000149011615 1.6000000000000005 -3.877453913503359e-15
    vertex 6.1500000149011615 5.0 -1.4099832412739487e-15
  endloop
endfacet
facet normal 0.0 2.7755575615628914e-16 -1.0
  outer loop
    vertex 18.950000014901164 4.999999999999999 1.8499999999999988
    vertex 6.1500000149011615 1.5999999999999928 1.849999999999998
    vertex 6.1500000149011615 4.999999999999999 1.8499999999999988
  endloop
endfacet
facet normal 0.0 2.7755575615628914e-16 -1.0
  outer loop
    vertex 6.1500000149011615 1.5999999999999928 1.849999999999998
    vertex 18.950000014901164 4.999999999999999 1.8499999999999988
    vertex 18.950000014901164 1.5999999999999928 1.849999999999998
  endloop
endfacet
facet normal -0.13052619160448126 0.9914448614548518 2.751812282083687e-16
  outer loop
    vertex 19.741180970998094 4.96592582661046 -1.4099832412739487e-15
    vertex 20.00000001490116 5.000000000000002 -4.000000000000001
    vertex 19.741180970998094 4.965925826610461 -4.000000000000001
  endloop
endfacet
facet normal -0.13052619160448126 0.9914448614548518 2.751812282083687e-16
  outer loop
    vertex 20.00000001490116 5.000000000000002 -4.000000000000001
    vertex 19.741180970998094 4.96592582661046 -1.4099832412739487e-15
    vertex 20.00000001490116 5.0 -1.4099832412739487e-15
  endloop
endfacet
facet normal -0.3826834306442311 0.9238795332240898 2.564280824413317e-16
  outer loop
    vertex 19.50000001705196 4.866025405026202 -1.4099832412739487e-15
    vertex 19.741180970998094 4.965925826610461 -4.000000000000001
    vertex 19.50000001705196 4.866025405026203 -4.000000000000001
  endloop
endfacet
facet normal -0.3826834306442311 0.9238795332240898 2.564280824413317e-16
  outer loop
    vertex 19.741180970998094 4.965925826610461 -4.000000000000001
    vertex 19.50000001705196 4.866025405026202 -1.4099832412739487e-15
    vertex 19.741180970998094 4.96592582661046 -1.4099832412739487e-15
  endloop
endfacet
facet normal -0.7933533376454557 0.6087614324567675 1.68965239704324e-16
  outer loop
    vertex 19.13397461360025 4.500000004301595 -1.4099832412739487e-15
    vertex 19.292893236348792 4.70710678382072 -4.000000000000001
    vertex 19.13397461360025 4.500000004301589 -4.000000000000001
  endloop
endfacet
facet normal -0.7933533376454557 0.6087614324567675 1.68965239704324e-16
  outer loop
    vertex 19.292893236348792 4.70710678382072 -4.000000000000001
    vertex 19.13397461360025 4.500000004301595 -1.4099832412739487e-15
    vertex 19.292893236348792 4.707106783820725 -1.4099832412739487e-15
  endloop
endfacet
facet normal -0.9238795303728757 0.38268343752767076 1.0621599087148068e-16
  outer loop
    vertex 19.034074190219055 4.258819051099777 -3.877453913503359e-15
    vertex 19.13397461360025 4.500000004301589 -4.000000000000001
    vertex 19.034074190219055 4.258819051099772 -4.000000000000003
  endloop
endfacet
facet normal -0.9238795303728757 0.38268343752767076 1.0621599087148068e-16
  outer loop
    vertex 19.13397461360025 4.500000004301589 -4.000000000000001
    vertex 19.034074190219055 4.258819051099777 -3.877453913503359e-15
    vertex 19.13397461360025 4.500000004301595 -1.4099832412739487e-15
  endloop
endfacet
facet normal -0.9914448604823556 0.13052619899132398 3.622829785924319e-17
  outer loop
    vertex 19.00000001490116 4.000000007450581 -1.762479051592436e-15
    vertex 19.034074190219055 4.258819051099772 -4.000000000000003
    vertex 19.00000001490116 4.000000007450574 -4.000000000000003
  endloop
endfacet
facet normal -0.9914448604823556 0.13052619899132398 3.622829785924319e-17
  outer loop
    vertex 19.034074190219055 4.258819051099772 -4.000000000000003
    vertex 19.00000001490116 4.000000007450581 -1.762479051592436e-15
    vertex 19.034074190219055 4.258819051099777 -3.877453913503359e-15
  endloop
endfacet
facet normal -0.6087614265458245 0.7933533421810818 2.2019978678818936e-16
  outer loop
    vertex 19.292893236348792 4.707106783820725 -1.4099832412739487e-15
    vertex 19.50000001705196 4.866025405026203 -4.000000000000001
    vertex 19.292893236348792 4.70710678382072 -4.000000000000001
  endloop
endfacet
facet normal -0.6087614265458245 0.7933533421810818 2.2019978678818936e-16
  outer loop
    vertex 19.50000001705196 4.866025405026203 -4.000000000000001
    vertex 19.292893236348792 4.707106783820725 -1.4099832412739487e-15
    vertex 19.50000001705196 4.866025405026202 -1.4099832412739487e-15
  endloop
endfacet
facet normal -0.9914448624273476 -0.13052618421764298 -3.622829375872299e-17
  outer loop
    vertex 19.03407418636235 3.741180963293639 -1.762479051592436e-15
    vertex 19.00000001490116 4.000000007450574 -4.000000000000003
    vertex 19.03407418636235 3.7411809632936333 -4.000000000000003
  endloop
endfacet
facet normal -0.9914448624273476 -0.13052618421764298 -3.622829375872299e-17
  outer loop
    vertex 19.00000001490116 4.000000007450574 -4.000000000000003
    vertex 19.03407418636235 3.741180963293639 -1.762479051592436e-15
    vertex 19.00000001490116 4.000000007450581 -1.762479051592436e-15
  endloop
endfacet
facet normal -0.7933533467167081 -0.6087614206348811 -1.6896523642309123e-16
  outer loop
    vertex 19.13397460614967 3.500000008603189 -1.762479051592436e-15
    vertex 19.29289322581208 3.292893226715986 -4.000000000000001
    vertex 19.29289322581208 3.292893226715986 -1.762479051592436e-15
  endloop
endfacet
facet normal -0.7933533467167081 -0.6087614206348811 -1.6896523642309123e-16
  outer loop
    vertex 19.29289322581208 3.292893226715986 -4.000000000000001
    vertex 19.13397460614967 3.500000008603189 -1.762479051592436e-15
    vertex 19.13397460614967 3.500000008603185 -4.000000000000003
  endloop
endfacet
facet normal -0.6087614383677121 -0.7933533331098283 -2.2019978427041072e-16
  outer loop
    vertex 19.500000004147175 3.1339746024243786 -1.0574874309554614e-15
    vertex 19.29289322581208 3.292893226715986 -4.000000000000001
    vertex 19.500000004147175 3.1339746024243795 -4.000000000000001
  endloop
endfacet
facet normal -0.6087614383677121 -0.7933533331098283 -2.2019978427041072e-16
  outer loop
    vertex 19.29289322581208 3.292893226715986 -4.000000000000001
    vertex 19.500000004147175 3.1339746024243786 -1.0574874309554614e-15
    vertex 19.29289322581208 3.292893226715986 -1.762479051592436e-15
  endloop
endfacet
facet normal -0.38268344441110885 -0.9238795275216622 -2.564280808585901e-16
  outer loop
    vertex 19.741180956604676 3.034074177246243 -4.229949723821846e-15
    vertex 19.500000004147175 3.1339746024243795 -4.000000000000001
    vertex 19.741180956604676 3.0340741772462434 -4.000000000000002
  endloop
endfacet
facet normal -0.38268344441110885 -0.9238795275216622 -2.564280808585901e-16
  outer loop
    vertex 19.500000004147175 3.1339746024243795 -4.000000000000001
    vertex 19.741180956604676 3.034074177246243 -4.229949723821846e-15
    vertex 19.500000004147175 3.1339746024243786 -1.0574874309554614e-15
  endloop
endfacet
facet normal -0.1305262063781595 -0.99144485950986 -3.494588285629077e-16
  outer loop
    vertex 20.0 2.9999999999999982 -4.229949723821846e-15
    vertex 19.741180956604676 3.0340741772462434 -4.000000000000002
    vertex 20.0 3.0000000000000013 -4.000000000000002
  endloop
endfacet
facet normal -0.1305262063781595 -0.99144485950986 -3.494588285629077e-16
  outer loop
    vertex 19.741180956604676 3.0340741772462434 -4.000000000000002
    vertex 20.0 2.9999999999999982 -4.229949723821846e-15
    vertex 19.741180956604676 3.034074177246243 -4.229949723821846e-15
  endloop
endfacet
facet normal 0.38268344441110885 -0.9238795275216622 -2.564280808585901e-16
  outer loop
    vertex 21.500000025655147 3.1339746024243795 -4.000000000000001
    vertex 21.258819073197646 3.034074177246243 -4.229949723821846e-15
    vertex 21.258819073197646 3.0340741772462434 -4.000000000000002
  endloop
endfacet
facet normal 0.38268344441110885 -0.9238795275216622 -2.564280808585901e-16
  outer loop
    vertex 21.258819073197646 3.034074177246243 -4.229949723821846e-15
    vertex 21.500000025655147 3.1339746024243795 -4.000000000000001
    vertex 21.500000025655147 3.1339746024243786 -1.0574874309554614e-15
  endloop
endfacet
facet normal 0.7933533467167081 -0.6087614206348811 -1.6896523642309123e-16
  outer loop
    vertex 21.86602542365265 3.500000008603185 -4.000000000000003
    vertex 21.707106803990243 3.292893226715986 -1.762479051592436e-15
    vertex 21.707106803990243 3.292893226715986 -4.000000000000001
  endloop
endfacet
facet normal 0.7933533467167081 -0.6087614206348811 -1.6896523642309123e-16
  outer loop
    vertex 21.707106803990243 3.292893226715986 -1.762479051592436e-15
    vertex 21.86602542365265 3.500000008603185 -4.000000000000003
    vertex 21.86602542365265 3.500000008603189 -1.762479051592436e-15
  endloop
endfacet
facet normal 0.9238795360753017 -0.38268342376079617 -1.0621598705040533e-16
  outer loop
    vertex 21.965925843439972 3.7411809632936333 -4.000000000000003
    vertex 21.86602542365265 3.500000008603189 -1.762479051592436e-15
    vertex 21.86602542365265 3.500000008603185 -4.000000000000003
  endloop
endfacet
facet normal 0.9238795360753017 -0.38268342376079617 -1.0621598705040533e-16
  outer loop
    vertex 21.86602542365265 3.500000008603189 -1.762479051592436e-15
    vertex 21.965925843439972 3.7411809632936333 -4.000000000000003
    vertex 21.965925843439972 3.741180963293639 -1.762479051592436e-15
  endloop
endfacet
facet normal 0.9914448624273476 -0.13052618421764298 -3.622829375872299e-17
  outer loop
    vertex 22.00000001490116 4.000000007450574 -4.000000000000003
    vertex 21.965925843439972 3.741180963293639 -1.762479051592436e-15
    vertex 21.965925843439972 3.7411809632936333 -4.000000000000003
  endloop
endfacet
facet normal 0.9914448624273476 -0.13052618421764298 -3.622829375872299e-17
  outer loop
    vertex 21.965925843439972 3.741180963293639 -1.762479051592436e-15
    vertex 22.00000001490116 4.000000007450574 -4.000000000000003
    vertex 22.00000001490116 4.000000007450581 -1.762479051592436e-15
  endloop
endfacet
facet normal 0.6087614383677121 -0.7933533331098283 -2.2019978427041072e-16
  outer loop
    vertex 21.707106803990243 3.292893226715986 -1.762479051592436e-15
    vertex 21.500000025655147 3.1339746024243795 -4.000000000000001
    vertex 21.707106803990243 3.292893226715986 -4.000000000000001
  endloop
endfacet
facet normal 0.6087614383677121 -0.7933533331098283 -2.2019978427041072e-16
  outer loop
    vertex 21.500000025655147 3.1339746024243795 -4.000000000000001
    vertex 21.707106803990243 3.292893226715986 -1.762479051592436e-15
    vertex 21.500000025655147 3.1339746024243786 -1.0574874309554614e-15
  endloop
endfacet
facet normal 0.9914448604823556 0.13052619899132398 3.622829785924319e-17
  outer loop
    vertex 21.96592583958327 4.258819051099772 -4.000000000000003
    vertex 22.00000001490116 4.000000007450581 -1.762479051592436e-15
    vertex 22.00000001490116 4.000000007450574 -4.000000000000003
  endloop
endfacet
facet normal 0.9914448604823556 0.13052619899132398 3.622829785924319e-17
  outer loop
    vertex 22.00000001490116 4.000000007450581 -1.762479051592436e-15
    vertex 21.96592583958327 4.258819051099772 -4.000000000000003
    vertex 21.96592583958327 4.258819051099777 -3.877453913503359e-15
  endloop
endfacet
facet normal 0.6087614265458245 0.7933533421810818 2.2019978678818936e-16
  outer loop
    vertex 21.500000012750363 4.866025405026202 -1.4099832412739487e-15
    vertex 21.70710679345353 4.70710678382072 -4.000000000000001
    vertex 21.500000012750363 4.866025405026203 -4.000000000000001
  endloop
endfacet
facet normal 0.6087614265458245 0.7933533421810818 2.2019978678818936e-16
  outer loop
    vertex 21.70710679345353 4.70710678382072 -4.000000000000001
    vertex 21.500000012750363 4.866025405026202 -1.4099832412739487e-15
    vertex 21.70710679345353 4.707106783820725 -1.4099832412739487e-15
  endloop
endfacet
facet normal 0.3826834306442311 0.9238795332240898 2.564280824413317e-16
  outer loop
    vertex 21.25881905880423 4.96592582661046 -1.4099832412739487e-15
    vertex 21.500000012750363 4.866025405026203 -4.000000000000001
    vertex 21.25881905880423 4.965925826610461 -4.000000000000001
  endloop
endfacet
facet normal 0.3826834306442311 0.9238795332240898 2.564280824413317e-16
  outer loop
    vertex 21.500000012750363 4.866025405026203 -4.000000000000001
    vertex 21.25881905880423 4.96592582661046 -1.4099832412739487e-15
    vertex 21.500000012750363 4.866025405026202 -1.4099832412739487e-15
  endloop
endfacet
facet normal -5.731843968004589e-32 4.067860078803651e-16 -1.0
  outer loop
    vertex 19.034074190219055 4.258819051099772 -4.000000000000003
    vertex 19.03407418636235 3.7411809632936333 -4.000000000000003
    vertex 19.00000001490116 4.000000007450574 -4.000000000000003
  endloop
endfacet
facet normal -5.731843968004589e-32 4.067860078803651e-16 -1.0
  outer loop
    vertex 19.03407418636235 3.7411809632936333 -4.000000000000003
    vertex 19.034074190219055 4.258819051099772 -4.000000000000003
    vertex 19.13397460614967 3.500000008603185 -4.000000000000003
  endloop
endfacet
facet normal -5.731843968004589e-32 4.067860078803651e-16 -1.0
  outer loop
    vertex 19.13397460614967 3.500000008603185 -4.000000000000003
    vertex 19.034074190219055 4.258819051099772 -4.000000000000003
    vertex 19.13397461360025 4.500000004301589 -4.000000000000001
  endloop
endfacet
facet normal -5.731843968004589e-32 4.067860078803651e-16 -1.0
  outer loop
    vertex 19.13397460614967 3.500000008603185 -4.000000000000003
    vertex 19.13397461360025 4.500000004301589 -4.000000000000001
    vertex 19.29289322581208 3.292893226715986 -4.000000000000001
  endloop
endfacet
facet normal -5.731843968004589e-32 4.067860078803651e-16 -1.0
  outer loop
    vertex 19.29289322581208 3.292893226715986 -4.000000000000001
    vertex 19.13397461360025 4.500000004301589 -4.000000000000001
    vertex 19.292893236348792 4.70710678382072 -4.000000000000001
  endloop
endfacet
facet normal -5.731843968004589e-32 4.067860078803651e-16 -1.0
  outer loop
    vertex 19.29289322581208 3.292893226715986 -4.000000000000001
    vertex 19.292893236348792 4.70710678382072 -4.000000000000001
    vertex 19.500000004147175 3.1339746024243795 -4.000000000000001
  endloop
endfacet
facet normal -5.731843968004589e-32 4.067860078803651e-16 -1.0
  outer loop
    vertex 19.500000004147175 3.1339746024243795 -4.000000000000001
    vertex 19.292893236348792 4.70710678382072 -4.000000000000001
    vertex 19.50000001705196 4.866025405026203 -4.000000000000001
  endloop
endfacet
facet normal -5.731843968004589e-32 4.067860078803651e-16 -1.0
  outer loop
    vertex 19.500000004147175 3.1339746024243795 -4.000000000000001
    vertex 19.50000001705196 4.866025405026203 -4.000000000000001
    vertex 19.741180956604676 3.0340741772462434 -4.000000000000002
  endloop
endfacet
facet normal -5.731843968004589e-32 4.067860078803651e-16 -1.0
  outer loop
    vertex 19.741180956604676 3.0340741772462434 -4.000000000000002
    vertex 19.50000001705196 4.866025405026203 -4.000000000000001
    vertex 19.741180970998094 4.965925826610461 -4.000000000000001
  endloop
endfacet
facet normal -5.731843968004589e-32 4.067860078803651e-16 -1.0
  outer loop
    vertex 19.741180956604676 3.0340741772462434 -4.000000000000002
    vertex 19.741180970998094 4.965925826610461 -4.000000000000001
    vertex 20.0 3.0000000000000013 -4.000000000000002
  endloop
endfacet
facet normal -5.731843968004589e-32 4.067860078803651e-16 -1.0
  outer loop
    vertex 20.0 3.0000000000000013 -4.000000000000002
    vertex 19.741180970998094 4.965925826610461 -4.000000000000001
    vertex 20.00000001490116 5.000000000000002 -4.000000000000001
  endloop
endfacet
facet normal -5.731843968004589e-32 4.067860078803651e-16 -1.0
  outer loop
    vertex 20.0 3.0000000000000013 -4.000000000000002
    vertex 20.00000001490116 5.000000000000002 -4.000000000000001
    vertex 21.000000029802322 3.0000000000000013 -4.000000000000002
  endloop
endfacet
facet normal -5.731843968004589e-32 4.067860078803651e-16 -1.0
  outer loop
    vertex 21.000000029802322 3.0000000000000013 -4.000000000000002
    vertex 20.00000001490116 5.000000000000002 -4.000000000000001
    vertex 21.00000001490116 5.000000000000002 -4.000000000000001
  endloop
endfacet
facet normal -5.731843968004589e-32 4.067860078803651e-16 -1.0
  outer loop
    vertex 21.000000029802322 3.0000000000000013 -4.000000000000002
    vertex 21.00000001490116 5.000000000000002 -4.000000000000001
    vertex 21.25881905880423 4.965925826610461 -4.000000000000001
  endloop
endfacet
facet normal -5.731843968004589e-32 4.067860078803651e-16 -1.0
  outer loop
    vertex 21.000000029802322 3.0000000000000013 -4.000000000000002
    vertex 21.25881905880423 4.965925826610461 -4.000000000000001
    vertex 21.258819073197646 3.0340741772462434 -4.000000000000002
  endloop
endfacet
facet normal -5.731843968004589e-32 4.067860078803651e-16 -1.0
  outer loop
    vertex 21.258819073197646 3.0340741772462434 -4.000000000000002
    vertex 21.25881905880423 4.965925826610461 -4.000000000000001
    vertex 21.500000012750363 4.866025405026203 -4.000000000000001
  endloop
endfacet
facet normal -5.731843968004589e-32 4.067860078803651e-16 -1.0
  outer loop
    vertex 21.258819073197646 3.0340741772462434 -4.000000000000002
    vertex 21.500000012750363 4.866025405026203 -4.000000000000001
    vertex 21.500000025655147 3.1339746024243795 -4.000000000000001
  endloop
endfacet
facet normal -5.731843968004589e-32 4.067860078803651e-16 -1.0
  outer loop
    vertex 21.500000025655147 3.1339746024243795 -4.000000000000001
    vertex 21.500000012750363 4.866025405026203 -4.000000000000001
    vertex 21.70710679345353 4.70710678382072 -4.000000000000001
  endloop
endfacet
facet normal -5.731843968004589e-32 4.067860078803651e-16 -1.0
  outer loop
    vertex 21.500000025655147 3.1339746024243795 -4.000000000000001
    vertex 21.70710679345353 4.70710678382072 -4.000000000000001
    vertex 21.707106803990243 3.292893226715986 -4.000000000000001
  endloop
endfacet
facet normal -5.731843968004589e-32 4.067860078803651e-16 -1.0
  outer loop
    vertex 21.707106803990243 3.292893226715986 -4.000000000000001
    vertex 21.70710679345353 4.70710678382072 -4.000000000000001
    vertex 21.86602541620207 4.500000004301589 -4.000000000000001
  endloop
endfacet
facet normal -5.731843968004589e-32 4.067860078803651e-16 -1.0
  outer loop
    vertex 21.707106803990243 3.292893226715986 -4.000000000000001
    vertex 21.86602541620207 4.500000004301589 -4.000000000000001
    vertex 21.86602542365265 3.500000008603185 -4.000000000000003
  endloop
endfacet
facet normal -5.731843968004589e-32 4.067860078803651e-16 -1.0
  outer loop
    vertex 21.86602542365265 3.500000008603185 -4.000000000000003
    vertex 21.86602541620207 4.500000004301589 -4.000000000000001
    vertex 21.96592583958327 4.258819051099772 -4.000000000000003
  endloop
endfacet
facet normal -5.731843968004589e-32 4.067860078803651e-16 -1.0
  outer loop
    vertex 21.86602542365265 3.500000008603185 -4.000000000000003
    vertex 21.96592583958327 4.258819051099772 -4.000000000000003
    vertex 21.965925843439972 3.7411809632936333 -4.000000000000003
  endloop
endfacet
facet normal -5.731843968004589e-32 4.067860078803651e-16 -1.0
  outer loop
    vertex 21.965925843439972 3.7411809632936333 -4.000000000000003
    vertex 21.96592583958327 4.258819051099772 -4.000000000000003
    vertex 22.00000001490116 4.000000007450574 -4.000000000000003
  endloop
endfacet
facet normal 0.0 2.7755575615628914e-16 -1.0
  outer loop
    vertex 18.950000014901164 5.0 -1.4099832412739487e-15
    vertex 19.00000001490116 4.000000007450581 -1.762479051592436e-15
    vertex 18.950000014901164 1.6000000000000005 -3.877453913503359e-15
  endloop
endfacet
facet normal 0.0 2.7755575615628914e-16 -1.0
  outer loop
    vertex 19.00000001490116 4.000000007450581 -1.762479051592436e-15
    vertex 18.950000014901164 5.0 -1.4099832412739487e-15
    vertex 19.034074190219055 4.258819051099777 -3.877453913503359e-15
  endloop
endfacet
facet normal 0.0 2.7755575615628914e-16 -1.0
  outer loop
    vertex 19.034074190219055 4.258819051099777 -3.877453913503359e-15
    vertex 18.950000014901164 5.0 -1.4099832412739487e-15
    vertex 19.13397461360025 4.500000004301595 -1.4099832412739487e-15
  endloop
endfacet
facet normal 0.0 2.7755575615628914e-16 -1.0
  outer loop
    vertex 19.13397461360025 4.500000004301595 -1.4099832412739487e-15
    vertex 18.950000014901164 5.0 -1.4099832412739487e-15
    vertex 19.292893236348792 4.707106783820725 -1.4099832412739487e-15
  endloop
endfacet
facet normal 0.0 2.7755575615628914e-16 -1.0
  outer loop
    vertex 19.292893236348792 4.707106783820725 -1.4099832412739487e-15
    vertex 18.950000014901164 5.0 -1.4099832412739487e-15
    vertex 19.50000001705196 4.866025405026202 -1.4099832412739487e-15
  endloop
endfacet
facet normal 0.0 2.7755575615628914e-16 -1.0
  outer loop
    vertex 19.50000001705196 4.866025405026202 -1.4099832412739487e-15
    vertex 18.950000014901164 5.0 -1.4099832412739487e-15
    vertex 19.741180970998094 4.96592582661046 -1.4099832412739487e-15
  endloop
endfacet
facet normal 0.0 2.7755575615628914e-16 -1.0
  outer loop
    vertex 19.741180970998094 4.96592582661046 -1.4099832412739487e-15
    vertex 18.950000014901164 5.0 -1.4099832412739487e-15
    vertex 20.00000001490116 5.0 -1.4099832412739487e-15
  endloop
endfacet
facet normal 0.0 2.7755575615628914e-16 -1.0
  outer loop
    vertex 23.100000014901163 5.0 -1.4099832412739487e-15
    vertex 21.25881905880423 4.96592582661046 -1.4099832412739487e-15
    vertex 21.00000001490116 5.0 -1.4099832412739487e-15
  endloop
endfacet
facet normal 0.0 2.7755575615628914e-16 -1.0
  outer loop
    vertex 21.25881905880423 4.96592582661046 -1.4099832412739487e-15
    vertex 23.100000014901163 5.0 -1.4099832412739487e-15
    vertex 21.500000012750363 4.866025405026202 -1.4099832412739487e-15
  endloop
endfacet
facet normal 0.0 2.7755575615628914e-16 -1.0
  outer loop
    vertex 21.500000012750363 4.866025405026202 -1.4099832412739487e-15
    vertex 23.100000014901163 5.0 -1.4099832412739487e-15
    vertex 21.70710679345353 4.707106783820725 -1.4099832412739487e-15
  endloop
endfacet
facet normal 0.0 2.7755575615628914e-16 -1.0
  outer loop
    vertex 21.70710679345353 4.707106783820725 -1.4099832412739487e-15
    vertex 23.100000014901163 5.0 -1.4099832412739487e-15
    vertex 21.86602541620207 4.500000004301595 -1.4099832412739487e-15
  endloop
endfacet
facet normal 0.0 2.7755575615628914e-16 -1.0
  outer loop
    vertex 21.86602541620207 4.500000004301595 -1.4099832412739487e-15
    vertex 23.100000014901163 5.0 -1.4099832412739487e-15
    vertex 21.96592583958327 4.258819051099777 -3.877453913503359e-15
  endloop
endfacet
facet normal 0.0 2.7755575615628914e-16 -1.0
  outer loop
    vertex 21.96592583958327 4.258819051099777 -3.877453913503359e-15
    vertex 23.100000014901163 5.0 -1.4099832412739487e-15
    vertex 22.00000001490116 4.000000007450581 -1.762479051592436e-15
  endloop
endfacet
facet normal 0.0 2.7755575615628914e-16 -1.0
  outer loop
    vertex 18.950000014901164 1.6000000000000005 -3.877453913503359e-15
    vertex 20.400000014901163 2.6499999999999986 -2.8199664825478975e-15
    vertex 23.100000014901163 1.6000000000000005 -3.877453913503359e-15
  endloop
endfacet
facet normal 0.0 2.7755575615628914e-16 -1.0
  outer loop
    vertex 20.400000014901163 2.6499999999999986 -2.8199664825478975e-15
    vertex 18.950000014901164 1.6000000000000005 -3.877453913503359e-15
    vertex 19.500000004147175 3.1339746024243786 -1.0574874309554614e-15
  endloop
endfacet
facet normal 0.0 2.7755575615628914e-16 -1.0
  outer loop
    vertex 19.500000004147175 3.1339746024243786 -1.0574874309554614e-15
    vertex 18.950000014901164 1.6000000000000005 -3.877453913503359e-15
    vertex 19.29289322581208 3.292893226715986 -1.762479051592436e-15
  endloop
endfacet
facet normal 0.0 2.7755575615628914e-16 -1.0
  outer loop
    vertex 19.29289322581208 3.292893226715986 -1.762479051592436e-15
    vertex 18.950000014901164 1.6000000000000005 -3.877453913503359e-15
    vertex 19.13397460614967 3.500000008603189 -1.762479051592436e-15
  endloop
endfacet
facet normal 0.0 2.7755575615628914e-16 -1.0
  outer loop
    vertex 19.13397460614967 3.500000008603189 -1.762479051592436e-15
    vertex 18.950000014901164 1.6000000000000005 -3.877453913503359e-15
    vertex 19.03407418636235 3.741180963293639 -1.762479051592436e-15
  endloop
endfacet
facet normal 0.0 2.7755575615628914e-16 -1.0
  outer loop
    vertex 19.03407418636235 3.741180963293639 -1.762479051592436e-15
    vertex 18.950000014901164 1.6000000000000005 -3.877453913503359e-15
    vertex 19.00000001490116 4.000000007450581 -1.762479051592436e-15
  endloop
endfacet
facet normal 0.0 2.7755575615628914e-16 -1.0
  outer loop
    vertex 20.400000014901163 2.6499999999999986 -2.8199664825478975e-15
    vertex 19.500000004147175 3.1339746024243786 -1.0574874309554614e-15
    vertex 19.741180956604676 3.034074177246243 -4.229949723821846e-15
  endloop
endfacet
facet normal 0.0 2.7755575615628914e-16 -1.0
  outer loop
    vertex 20.400000014901163 2.6499999999999986 -2.8199664825478975e-15
    vertex 19.741180956604676 3.034074177246243 -4.229949723821846e-15
    vertex 20.0 2.9999999999999982 -4.229949723821846e-15
  endloop
endfacet
facet normal 0.0 2.7755575615628914e-16 -1.0
  outer loop
    vertex 23.100000014901163 1.6000000000000005 -3.877453913503359e-15
    vertex 20.400000014901163 2.6499999999999986 -2.8199664825478975e-15
    vertex 20.600000014901163 2.6499999999999986 -2.8199664825478975e-15
  endloop
endfacet
facet normal 0.0 2.7755575615628914e-16 -1.0
  outer loop
    vertex 23.100000014901163 1.6000000000000005 -3.877453913503359e-15
    vertex 20.600000014901163 2.6499999999999986 -2.8199664825478975e-15
    vertex 21.000000029802322 2.9999999999999982 -4.229949723821846e-15
  endloop
endfacet
facet normal 0.0 2.7755575615628914e-16 -1.0
  outer loop
    vertex 23.100000014901163 1.6000000000000005 -3.877453913503359e-15
    vertex 21.000000029802322 2.9999999999999982 -4.229949723821846e-15
    vertex 21.258819073197646 3.034074177246243 -4.229949723821846e-15
  endloop
endfacet
facet normal 0.0 2.7755575615628914e-16 -1.0
  outer loop
    vertex 23.100000014901163 1.6000000000000005 -3.877453913503359e-15
    vertex 21.258819073197646 3.034074177246243 -4.229949723821846e-15
    vertex 21.500000025655147 3.1339746024243786 -1.0574874309554614e-15
  endloop
endfacet
facet normal 0.0 2.7755575615628914e-16 -1.0
  outer loop
    vertex 23.100000014901163 1.6000000000000005 -3.877453913503359e-15
    vertex 21.500000025655147 3.1339746024243786 -1.0574874309554614e-15
    vertex 21.707106803990243 3.292893226715986 -1.762479051592436e-15
  endloop
endfacet
facet normal 0.0 2.7755575615628914e-16 -1.0
  outer loop
    vertex 23.100000014901163 1.6000000000000005 -3.877453913503359e-15
    vertex 21.707106803990243 3.292893226715986 -1.762479051592436e-15
    vertex 21.86602542365265 3.500000008603189 -1.762479051592436e-15
  endloop
endfacet
facet normal 0.0 2.7755575615628914e-16 -1.0
  outer loop
    vertex 23.100000014901163 1.6000000000000005 -3.877453913503359e-15
    vertex 21.86602542365265 3.500000008603189 -1.762479051592436e-15
    vertex 21.965925843439972 3.741180963293639 -1.762479051592436e-15
  endloop
endfacet
facet normal 0.0 2.7755575615628914e-16 -1.0
  outer loop
    vertex 23.100000014901163 1.6000000000000005 -3.877453913503359e-15
    vertex 21.965925843439972 3.741180963293639 -1.762479051592436e-15
    vertex 22.00000001490116 4.000000007450581 -1.762479051592436e-15
  endloop
endfacet
facet normal 0.0 2.7755575615628914e-16 -1.0
  outer loop
    vertex 23.100000014901163 1.6000000000000005 -3.877453913503359e-15
    vertex 22.00000001490116 4.000000007450581 -1.762479051592436e-15
    vertex 23.100000014901163 5.0 -1.4099832412739487e-15
  endloop
endfacet
facet normal -0.7933533467167052 0.6087614206348851 1.6896523642309234e-16
  outer loop
    vertex 3.233974606149669 4.499999991396811 -1.4099832412739487e-15
    vertex 3.392893225812081 4.707106773284008 -4.000000000000001
    vertex 3.233974606149669 4.4999999913968045 -4.000000000000001
  endloop
endfacet
facet normal -0.7933533467167052 0.6087614206348851 1.6896523642309234e-16
  outer loop
    vertex 3.392893225812081 4.707106773284008 -4.000000000000001
    vertex 3.233974606149669 4.499999991396811 -1.4099832412739487e-15
    vertex 3.392893225812081 4.707106773284012 -1.4099832412739487e-15
  endloop
endfacet
facet normal -0.9238795360753017 -0.38268342376079617 -1.0621598705040533e-16
  outer loop
    vertex 19.13397460614967 3.500000008603189 -1.762479051592436e-15
    vertex 19.03407418636235 3.7411809632936333 -4.000000000000003
    vertex 19.13397460614967 3.500000008603185 -4.000000000000003
  endloop
endfacet
facet normal -0.9238795360753017 -0.38268342376079617 -1.0621598705040533e-16
  outer loop
    vertex 19.03407418636235 3.7411809632936333 -4.000000000000003
    vertex 19.13397460614967 3.500000008603189 -1.762479051592436e-15
    vertex 19.03407418636235 3.741180963293639 -1.762479051592436e-15
  endloop
endfacet
facet normal 0.9238795303728757 0.38268343752767076 1.0621599087148068e-16
  outer loop
    vertex 21.86602541620207 4.500000004301589 -4.000000000000001
    vertex 21.96592583958327 4.258819051099777 -3.877453913503359e-15
    vertex 21.96592583958327 4.258819051099772 -4.000000000000003
  endloop
endfacet
facet normal 0.9238795303728757 0.38268343752767076 1.0621599087148068e-16
  outer loop
    vertex 21.96592583958327 4.258819051099777 -3.877453913503359e-15
    vertex 21.86602541620207 4.500000004301589 -4.000000000000001
    vertex 21.86602541620207 4.500000004301595 -1.4099832412739487e-15
  endloop
endfacet
facet normal 0.1305262063781595 -0.99144485950986 -3.494588285629077e-16
  outer loop
    vertex 21.258819073197646 3.034074177246243 -4.229949723821846e-15
    vertex 21.000000029802322 3.0000000000000013 -4.000000000000002
    vertex 21.258819073197646 3.0340741772462434 -4.000000000000002
  endloop
endfacet
facet normal 0.1305262063781595 -0.99144485950986 -3.494588285629077e-16
  outer loop
    vertex 21.000000029802322 3.0000000000000013 -4.000000000000002
    vertex 21.258819073197646 3.034074177246243 -4.229949723821846e-15
    vertex 21.000000029802322 2.9999999999999982 -4.229949723821846e-15
  endloop
endfacet
facet normal 0.7933533376454557 0.6087614324567675 1.68965239704324e-16
  outer loop
    vertex 21.70710679345353 4.70710678382072 -4.000000000000001
    vertex 21.86602541620207 4.500000004301595 -1.4099832412739487e-15
    vertex 21.86602541620207 4.500000004301589 -4.000000000000001
  endloop
endfacet
facet normal 0.7933533376454557 0.6087614324567675 1.68965239704324e-16
  outer loop
    vertex 21.86602541620207 4.500000004301595 -1.4099832412739487e-15
    vertex 21.70710679345353 4.70710678382072 -4.000000000000001
    vertex 21.70710679345353 4.707106783820725 -1.4099832412739487e-15
  endloop
endfacet
facet normal 0.13052619160448126 0.9914448614548518 2.751812282083687e-16
  outer loop
    vertex 21.00000001490116 5.0 -1.4099832412739487e-15
    vertex 21.25881905880423 4.965925826610461 -4.000000000000001
    vertex 21.00000001490116 5.000000000000002 -4.000000000000001
  endloop
endfacet
facet normal 0.13052619160448126 0.9914448614548518 2.751812282083687e-16
  outer loop
    vertex 21.25881905880423 4.965925826610461 -4.000000000000001
    vertex 21.00000001490116 5.0 -1.4099832412739487e-15
    vertex 21.25881905880423 4.96592582661046 -1.4099832412739487e-15
  endloop
endfacet
facet normal -1.0 0.0 0.0
  outer loop
    vertex 2.000000014901161 4.999999999999999 1.9999999999999984
    vertex 2.000000014901161 1.6000000000000005 -3.877453913503359e-15
    vertex 2.000000014901161 1.5999999999999928 1.9999999999999978
  endloop
endfacet
facet normal -1.0 0.0 0.0
  outer loop
    vertex 2.000000014901161 1.6000000000000005 -3.877453913503359e-15
    vertex 2.000000014901161 4.999999999999999 1.9999999999999984
    vertex 2.000000014901161 5.0 -1.4099832412739487e-15
  endloop
endfacet
facet normal -0.13052620637816098 0.9914448595098599 2.7518122766852504e-16
  outer loop
    vertex 3.841180956604676 4.965925822753755 -1.4099832412739487e-15
    vertex 4.1000000000000005 5.000000000000002 -4.000000000000001
    vertex 3.841180956604676 4.965925822753757 -4.000000000000001
  endloop
endfacet
facet normal -0.13052620637816098 0.9914448595098599 2.7518122766852504e-16
  outer loop
    vertex 4.1000000000000005 5.000000000000002 -4.000000000000001
    vertex 3.841180956604676 4.965925822753755 -1.4099832412739487e-15
    vertex 4.1000000000000005 5.0 -1.4099832412739487e-15
  endloop
endfacet
facet normal 3.7473184340831847e-32 4.067860087650418e-16 -1.0
  outer loop
    vertex 3.1340741863623496 4.258819036706355 -4.000000000000003
    vertex 3.134074190219054 3.741180948900217 -4.000000000000003
    vertex 3.1000000149011617 3.9999999925494136 -4.000000000000003
  endloop
endfacet
facet normal 3.7473184340831847e-32 4.067860087650418e-16 -1.0
  outer loop
    vertex 3.134074190219054 3.741180948900217 -4.000000000000003
    vertex 3.1340741863623496 4.258819036706355 -4.000000000000003
    vertex 3.233974606149669 4.4999999913968045 -4.000000000000001
  endloop
endfacet
facet normal 3.7473184340831847e-32 4.067860087650418e-16 -1.0
  outer loop
    vertex 3.134074190219054 3.741180948900217 -4.000000000000003
    vertex 3.233974606149669 4.4999999913968045 -4.000000000000001
    vertex 3.2339746136002505 3.4999999956984005 -4.000000000000003
  endloop
endfacet
facet normal 3.7473184340831847e-32 4.067860087650418e-16 -1.0
  outer loop
    vertex 3.2339746136002505 3.4999999956984005 -4.000000000000003
    vertex 3.233974606149669 4.4999999913968045 -4.000000000000001
    vertex 3.392893225812081 4.707106773284008 -4.000000000000001
  endloop
endfacet
facet normal 3.7473184340831847e-32 4.067860087650418e-16 -1.0
  outer loop
    vertex 3.2339746136002505 3.4999999956984005 -4.000000000000003
    vertex 3.392893225812081 4.707106773284008 -4.000000000000001
    vertex 3.392893236348793 3.292893216179274 -4.000000000000001
  endloop
endfacet
facet normal 3.7473184340831847e-32 4.067860087650418e-16 -1.0
  outer loop
    vertex 3.392893236348793 3.292893216179274 -4.000000000000001
    vertex 3.392893225812081 4.707106773284008 -4.000000000000001
    vertex 3.6000000041471756 4.866025397575624 -4.000000000000001
  endloop
endfacet
facet normal 3.7473184340831847e-32 4.067860087650418e-16 -1.0
  outer loop
    vertex 3.392893236348793 3.292893216179274 -4.000000000000001
    vertex 3.6000000041471756 4.866025397575624 -4.000000000000001
    vertex 3.60000001705196 3.1339745949737994 -4.000000000000001
  endloop
endfacet
facet normal 3.7473184340831847e-32 4.067860087650418e-16 -1.0
  outer loop
    vertex 3.60000001705196 3.1339745949737994 -4.000000000000001
    vertex 3.6000000041471756 4.866025397575624 -4.000000000000001
    vertex 3.841180956604676 4.965925822753757 -4.000000000000001
  endloop
endfacet
facet normal 3.7473184340831847e-32 4.067860087650418e-16 -1.0
  outer loop
    vertex 3.60000001705196 3.1339745949737994 -4.000000000000001
    vertex 3.841180956604676 4.965925822753757 -4.000000000000001
    vertex 3.841180970998092 3.034074173389539 -4.000000000000002
  endloop
endfacet
facet normal 3.7473184340831847e-32 4.067860087650418e-16 -1.0
  outer loop
    vertex 3.841180970998092 3.034074173389539 -4.000000000000002
    vertex 3.841180956604676 4.965925822753757 -4.000000000000001
    vertex 4.1000000000000005 5.000000000000002 -4.000000000000001
  endloop
endfacet
facet normal 3.7473184340831847e-32 4.067860087650418e-16 -1.0
  outer loop
    vertex 3.841180970998092 3.034074173389539 -4.000000000000002
    vertex 4.1000000000000005 5.000000000000002 -4.000000000000001
    vertex 4.100000014901162 3.0000000000000013 -4.000000000000002
  endloop
endfacet
facet normal 3.7473184340831847e-32 4.067860087650418e-16 -1.0
  outer loop
    vertex 4.100000014901162 3.0000000000000013 -4.000000000000002
    vertex 4.1000000000000005 5.000000000000002 -4.000000000000001
    vertex 5.100000029802323 5.000000000000002 -4.000000000000001
  endloop
endfacet
facet normal 3.7473184340831847e-32 4.067860087650418e-16 -1.0
  outer loop
    vertex 4.100000014901162 3.0000000000000013 -4.000000000000002
    vertex 5.100000029802323 5.000000000000002 -4.000000000000001
    vertex 5.100000014901162 3.0000000000000013 -4.000000000000002
  endloop
endfacet
facet normal 3.7473184340831847e-32 4.067860087650418e-16 -1.0
  outer loop
    vertex 5.100000014901162 3.0000000000000013 -4.000000000000002
    vertex 5.100000029802323 5.000000000000002 -4.000000000000001
    vertex 5.358819058804231 3.034074173389539 -4.000000000000002
  endloop
endfacet
facet normal 3.7473184340831847e-32 4.067860087650418e-16 -1.0
  outer loop
    vertex 5.358819058804231 3.034074173389539 -4.000000000000002
    vertex 5.100000029802323 5.000000000000002 -4.000000000000001
    vertex 5.3588190731976475 4.965925822753757 -4.000000000000001
  endloop
endfacet
facet normal 3.7473184340831847e-32 4.067860087650418e-16 -1.0
  outer loop
    vertex 5.358819058804231 3.034074173389539 -4.000000000000002
    vertex 5.3588190731976475 4.965925822753757 -4.000000000000001
    vertex 5.600000012750364 3.1339745949737994 -4.000000000000001
  endloop
endfacet
facet normal 3.7473184340831847e-32 4.067860087650418e-16 -1.0
  outer loop
    vertex 5.600000012750364 3.1339745949737994 -4.000000000000001
    vertex 5.3588190731976475 4.965925822753757 -4.000000000000001
    vertex 5.600000025655148 4.866025397575624 -4.000000000000001
  endloop
endfacet
facet normal 3.7473184340831847e-32 4.067860087650418e-16 -1.0
  outer loop
    vertex 5.600000012750364 3.1339745949737994 -4.000000000000001
    vertex 5.600000025655148 4.866025397575624 -4.000000000000001
    vertex 5.8071067934535305 3.292893216179274 -4.000000000000001
  endloop
endfacet
facet normal 3.7473184340831847e-32 4.067860087650418e-16 -1.0
  outer loop
    vertex 5.8071067934535305 3.292893216179274 -4.000000000000001
    vertex 5.600000025655148 4.866025397575624 -4.000000000000001
    vertex 5.807106803990244 4.707106773284008 -4.000000000000001
  endloop
endfacet
facet normal 3.7473184340831847e-32 4.067860087650418e-16 -1.0
  outer loop
    vertex 5.8071067934535305 3.292893216179274 -4.000000000000001
    vertex 5.807106803990244 4.707106773284008 -4.000000000000001
    vertex 5.966025416202073 3.4999999956984005 -4.000000000000003
  endloop
endfacet
facet normal 3.7473184340831847e-32 4.067860087650418e-16 -1.0
  outer loop
    vertex 5.966025416202073 3.4999999956984005 -4.000000000000003
    vertex 5.807106803990244 4.707106773284008 -4.000000000000001
    vertex 5.966025423652654 4.4999999913968045 -4.000000000000001
  endloop
endfacet
facet normal 3.7473184340831847e-32 4.067860087650418e-16 -1.0
  outer loop
    vertex 5.966025416202073 3.4999999956984005 -4.000000000000003
    vertex 5.966025423652654 4.4999999913968045 -4.000000000000001
    vertex 6.0659258395832705 3.741180948900217 -4.000000000000003
  endloop
endfacet
facet normal 3.7473184340831847e-32 4.067860087650418e-16 -1.0
  outer loop
    vertex 6.0659258395832705 3.741180948900217 -4.000000000000003
    vertex 5.966025423652654 4.4999999913968045 -4.000000000000001
    vertex 6.065925843439975 4.258819036706355 -4.000000000000003
  endloop
endfacet
facet normal 3.7473184340831847e-32 4.067860087650418e-16 -1.0
  outer loop
    vertex 6.0659258395832705 3.741180948900217 -4.000000000000003
    vertex 6.065925843439975 4.258819036706355 -4.000000000000003
    vertex 6.100000014901161 3.9999999925494136 -4.000000000000003
  endloop
endfacet
facet normal 0.130526206378161 0.9914448595098599 2.7518122766852504e-16
  outer loop
    vertex 5.100000029802323 5.0 -1.4099832412739487e-15
    vertex 5.3588190731976475 4.965925822753757 -4.000000000000001
    vertex 5.100000029802323 5.000000000000002 -4.000000000000001
  endloop
endfacet
facet normal 0.130526206378161 0.9914448595098599 2.7518122766852504e-16
  outer loop
    vertex 5.3588190731976475 4.965925822753757 -4.000000000000001
    vertex 5.100000029802323 5.0 -1.4099832412739487e-15
    vertex 5.3588190731976475 4.965925822753755 -1.4099832412739487e-15
  endloop
endfacet
facet normal 0.382683444411108 0.9238795275216625 2.5642808085859015e-16
  outer loop
    vertex 5.3588190731976475 4.965925822753755 -1.4099832412739487e-15
    vertex 5.600000025655148 4.866025397575624 -4.000000000000001
    vertex 5.3588190731976475 4.965925822753757 -4.000000000000001
  endloop
endfacet
facet normal 0.382683444411108 0.9238795275216625 2.5642808085859015e-16
  outer loop
    vertex 5.600000025655148 4.866025397575624 -4.000000000000001
    vertex 5.3588190731976475 4.965925822753755 -1.4099832412739487e-15
    vertex 5.600000025655148 4.866025397575619 -1.4099832412739487e-15
  endloop
endfacet
facet normal 0.6087614383677137 0.7933533331098273 2.2019978427041045e-16
  outer loop
    vertex 5.600000025655148 4.866025397575619 -1.4099832412739487e-15
    vertex 5.807106803990244 4.707106773284008 -4.000000000000001
    vertex 5.600000025655148 4.866025397575624 -4.000000000000001
  endloop
endfacet
facet normal 0.6087614383677137 0.7933533331098273 2.2019978427041045e-16
  outer loop
    vertex 5.807106803990244 4.707106773284008 -4.000000000000001
    vertex 5.600000025655148 4.866025397575619 -1.4099832412739487e-15
    vertex 5.807106803990244 4.707106773284012 -1.4099832412739487e-15
  endloop
endfacet
facet normal 0.7933533467167052 0.6087614206348848 1.6896523642309224e-16
  outer loop
    vertex 5.807106803990244 4.707106773284008 -4.000000000000001
    vertex 5.966025423652654 4.499999991396811 -1.4099832412739487e-15
    vertex 5.966025423652654 4.4999999913968045 -4.000000000000001
  endloop
endfacet
facet normal 0.7933533467167052 0.6087614206348848 1.6896523642309224e-16
  outer loop
    vertex 5.966025423652654 4.499999991396811 -1.4099832412739487e-15
    vertex 5.807106803990244 4.707106773284008 -4.000000000000001
    vertex 5.807106803990244 4.707106773284012 -1.4099832412739487e-15
  endloop
endfacet
facet normal 0.9238795360753039 0.3826834237607912 1.0621598705040402e-16
  outer loop
    vertex 5.966025423652654 4.4999999913968045 -4.000000000000001
    vertex 6.065925843439975 4.2588190367063605 -3.877453913503359e-15
    vertex 6.065925843439975 4.258819036706355 -4.000000000000003
  endloop
endfacet
facet normal 0.9238795360753039 0.3826834237607912 1.0621598705040402e-16
  outer loop
    vertex 6.065925843439975 4.2588190367063605 -3.877453913503359e-15
    vertex 5.966025423652654 4.4999999913968045 -4.000000000000001
    vertex 5.966025423652654 4.499999991396811 -1.4099832412739487e-15
  endloop
endfacet
facet normal 0.9914448624273476 0.13052618421764164 3.622829375872262e-17
  outer loop
    vertex 6.065925843439975 4.258819036706355 -4.000000000000003
    vertex 6.100000014901161 3.999999992549419 -1.762479051592436e-15
    vertex 6.100000014901161 3.9999999925494136 -4.000000000000003
  endloop
endfacet
facet normal 0.9914448624273476 0.13052618421764164 3.622829375872262e-17
  outer loop
    vertex 6.100000014901161 3.999999992549419 -1.762479051592436e-15
    vertex 6.065925843439975 4.258819036706355 -4.000000000000003
    vertex 6.065925843439975 4.2588190367063605 -3.877453913503359e-15
  endloop
endfacet
facet normal 0.9914448604823557 -0.13052619899132195 -3.622829785924263e-17
  outer loop
    vertex 6.100000014901161 3.9999999925494136 -4.000000000000003
    vertex 6.0659258395832705 3.7411809489002223 -1.762479051592436e-15
    vertex 6.0659258395832705 3.741180948900217 -4.000000000000003
  endloop
endfacet
facet normal 0.9914448604823557 -0.13052619899132195 -3.622829785924263e-17
  outer loop
    vertex 6.0659258395832705 3.7411809489002223 -1.762479051592436e-15
    vertex 6.100000014901161 3.9999999925494136 -4.000000000000003
    vertex 6.100000014901161 3.999999992549419 -1.762479051592436e-15
  endloop
endfacet
facet normal 0.9238795303728765 -0.3826834375276691 -1.0621599087148023e-16
  outer loop
    vertex 6.0659258395832705 3.741180948900217 -4.000000000000003
    vertex 5.966025416202073 3.499999995698405 -1.762479051592436e-15
    vertex 5.966025416202073 3.4999999956984005 -4.000000000000003
  endloop
endfacet
facet normal 0.9238795303728765 -0.3826834375276691 -1.0621599087148023e-16
  outer loop
    vertex 5.966025416202073 3.499999995698405 -1.762479051592436e-15
    vertex 6.0659258395832705 3.741180948900217 -4.000000000000003
    vertex 6.0659258395832705 3.7411809489002223 -1.762479051592436e-15
  endloop
endfacet
facet normal 0.7933533376454533 -0.6087614324567705 -1.6896523970432466e-16
  outer loop
    vertex 5.966025416202073 3.4999999956984005 -4.000000000000003
    vertex 5.8071067934535305 3.292893216179274 -1.762479051592436e-15
    vertex 5.8071067934535305 3.292893216179274 -4.000000000000001
  endloop
endfacet
facet normal 0.7933533376454533 -0.6087614324567705 -1.6896523970432466e-16
  outer loop
    vertex 5.8071067934535305 3.292893216179274 -1.762479051592436e-15
    vertex 5.966025416202073 3.4999999956984005 -4.000000000000003
    vertex 5.966025416202073 3.499999995698405 -1.762479051592436e-15
  endloop
endfacet
facet normal 0.6087614265458277 -0.7933533421810796 -2.2019978678818874e-16
  outer loop
    vertex 5.8071067934535305 3.292893216179274 -1.762479051592436e-15
    vertex 5.600000012750364 3.1339745949737994 -4.000000000000001
    vertex 5.8071067934535305 3.292893216179274 -4.000000000000001
  endloop
endfacet
facet normal 0.6087614265458277 -0.7933533421810796 -2.2019978678818874e-16
  outer loop
    vertex 5.600000012750364 3.1339745949737994 -4.000000000000001
    vertex 5.8071067934535305 3.292893216179274 -1.762479051592436e-15
    vertex 5.600000012750364 3.1339745949737963 -1.0574874309554614e-15
  endloop
endfacet
facet normal 0.38268343064422994 -0.9238795332240902 -2.5642808244133183e-16
  outer loop
    vertex 5.600000012750364 3.1339745949737994 -4.000000000000001
    vertex 5.358819058804231 3.034074173389538 -4.229949723821846e-15
    vertex 5.358819058804231 3.034074173389539 -4.000000000000002
  endloop
endfacet
facet normal 0.38268343064422994 -0.9238795332240902 -2.5642808244133183e-16
  outer loop
    vertex 5.358819058804231 3.034074173389538 -4.229949723821846e-15
    vertex 5.600000012750364 3.1339745949737994 -4.000000000000001
    vertex 5.600000012750364 3.1339745949737963 -1.0574874309554614e-15
  endloop
endfacet
facet normal 0.1305261916044783 -0.9914448614548523 -3.4945882924846743e-16
  outer loop
    vertex 5.358819058804231 3.034074173389538 -4.229949723821846e-15
    vertex 5.100000014901162 3.0000000000000013 -4.000000000000002
    vertex 5.358819058804231 3.034074173389539 -4.000000000000002
  endloop
endfacet
facet normal 0.1305261916044783 -0.9914448614548523 -3.4945882924846743e-16
  outer loop
    vertex 5.100000014901162 3.0000000000000013 -4.000000000000002
    vertex 5.358819058804231 3.034074173389538 -4.229949723821846e-15
    vertex 5.100000014901162 2.9999999999999982 -4.229949723821846e-15
  endloop
endfacet
facet normal -0.1305261916044783 -0.9914448614548523 -3.4945882924846743e-16
  outer loop
    vertex 4.100000014901162 2.9999999999999982 -4.229949723821846e-15
    vertex 3.841180970998092 3.034074173389539 -4.000000000000002
    vertex 4.100000014901162 3.0000000000000013 -4.000000000000002
  endloop
endfacet
facet normal -0.1305261916044783 -0.9914448614548523 -3.4945882924846743e-16
  outer loop
    vertex 3.841180970998092 3.034074173389539 -4.000000000000002
    vertex 4.100000014901162 2.9999999999999982 -4.229949723821846e-15
    vertex 3.841180970998092 3.034074173389538 -4.229949723821846e-15
  endloop
endfacet
facet normal -0.3826834306442299 -0.9238795332240902 -2.5642808244133183e-16
  outer loop
    vertex 3.841180970998092 3.034074173389538 -4.229949723821846e-15
    vertex 3.60000001705196 3.1339745949737994 -4.000000000000001
    vertex 3.841180970998092 3.034074173389539 -4.000000000000002
  endloop
endfacet
facet normal -0.3826834306442299 -0.9238795332240902 -2.5642808244133183e-16
  outer loop
    vertex 3.60000001705196 3.1339745949737994 -4.000000000000001
    vertex 3.841180970998092 3.034074173389538 -4.229949723821846e-15
    vertex 3.60000001705196 3.1339745949737963 -1.0574874309554614e-15
  endloop
endfacet
facet normal -0.6087614265458278 -0.7933533421810793 -2.2019978678818867e-16
  outer loop
    vertex 3.60000001705196 3.1339745949737963 -1.0574874309554614e-15
    vertex 3.392893236348793 3.292893216179274 -4.000000000000001
    vertex 3.60000001705196 3.1339745949737994 -4.000000000000001
  endloop
endfacet
facet normal -0.6087614265458278 -0.7933533421810793 -2.2019978678818867e-16
  outer loop
    vertex 3.392893236348793 3.292893216179274 -4.000000000000001
    vertex 3.60000001705196 3.1339745949737963 -1.0574874309554614e-15
    vertex 3.392893236348793 3.292893216179274 -1.762479051592436e-15
  endloop
endfacet
facet normal -0.7933533376454538 -0.6087614324567702 -1.6896523970432459e-16
  outer loop
    vertex 3.2339746136002505 3.499999995698405 -1.762479051592436e-15
    vertex 3.392893236348793 3.292893216179274 -4.000000000000001
    vertex 3.392893236348793 3.292893216179274 -1.762479051592436e-15
  endloop
endfacet
facet normal -0.7933533376454538 -0.6087614324567702 -1.6896523970432459e-16
  outer loop
    vertex 3.392893236348793 3.292893216179274 -4.000000000000001
    vertex 3.2339746136002505 3.499999995698405 -1.762479051592436e-15
    vertex 3.2339746136002505 3.4999999956984005 -4.000000000000003
  endloop
endfacet
facet normal -0.9238795303728762 -0.3826834375276696 -1.0621599087148036e-16
  outer loop
    vertex 3.2339746136002505 3.499999995698405 -1.762479051592436e-15
    vertex 3.134074190219054 3.741180948900217 -4.000000000000003
    vertex 3.2339746136002505 3.4999999956984005 -4.000000000000003
  endloop
endfacet
facet normal -0.9238795303728762 -0.3826834375276696 -1.0621599087148036e-16
  outer loop
    vertex 3.134074190219054 3.741180948900217 -4.000000000000003
    vertex 3.2339746136002505 3.499999995698405 -1.762479051592436e-15
    vertex 3.134074190219054 3.7411809489002223 -1.762479051592436e-15
  endloop
endfacet
facet normal -0.9914448604823557 -0.13052619899132265 -3.622829785924282e-17
  outer loop
    vertex 3.134074190219054 3.7411809489002223 -1.762479051592436e-15
    vertex 3.1000000149011617 3.9999999925494136 -4.000000000000003
    vertex 3.134074190219054 3.741180948900217 -4.000000000000003
  endloop
endfacet
facet normal -0.9914448604823557 -0.13052619899132265 -3.622829785924282e-17
  outer loop
    vertex 3.1000000149011617 3.9999999925494136 -4.000000000000003
    vertex 3.134074190219054 3.7411809489002223 -1.762479051592436e-15
    vertex 3.1000000149011617 3.999999992549419 -1.762479051592436e-15
  endloop
endfacet
facet normal -0.9914448624273476 0.13052618421764298 3.622829375872299e-17
  outer loop
    vertex 3.1000000149011617 3.999999992549419 -1.762479051592436e-15
    vertex 3.1340741863623496 4.258819036706355 -4.000000000000003
    vertex 3.1000000149011617 3.9999999925494136 -4.000000000000003
  endloop
endfacet
facet normal -0.9914448624273476 0.13052618421764298 3.622829375872299e-17
  outer loop
    vertex 3.1340741863623496 4.258819036706355 -4.000000000000003
    vertex 3.1000000149011617 3.999999992549419 -1.762479051592436e-15
    vertex 3.1340741863623496 4.2588190367063605 -3.877453913503359e-15
  endloop
endfacet
facet normal -0.9238795360753043 0.38268342376079056 1.0621598705040385e-16
  outer loop
    vertex 3.1340741863623496 4.2588190367063605 -3.877453913503359e-15
    vertex 3.233974606149669 4.4999999913968045 -4.000000000000001
    vertex 3.1340741863623496 4.258819036706355 -4.000000000000003
  endloop
endfacet
facet normal -0.9238795360753043 0.38268342376079056 1.0621598705040385e-16
  outer loop
    vertex 3.233974606149669 4.4999999913968045 -4.000000000000001
    vertex 3.1340741863623496 4.2588190367063605 -3.877453913503359e-15
    vertex 3.233974606149669 4.499999991396811 -1.4099832412739487e-15
  endloop
endfacet
facet normal -0.3826834444111081 0.9238795275216625 2.5642808085859015e-16
  outer loop
    vertex 3.6000000041471756 4.866025397575619 -1.4099832412739487e-15
    vertex 3.841180956604676 4.965925822753757 -4.000000000000001
    vertex 3.6000000041471756 4.866025397575624 -4.000000000000001
  endloop
endfacet
facet normal -0.3826834444111081 0.9238795275216625 2.5642808085859015e-16
  outer loop
    vertex 3.841180956604676 4.965925822753757 -4.000000000000001
    vertex 3.6000000041471756 4.866025397575619 -1.4099832412739487e-15
    vertex 3.841180956604676 4.965925822753755 -1.4099832412739487e-15
  endloop
endfacet
facet normal -0.6087614383677139 0.7933533331098271 2.201997842704104e-16
  outer loop
    vertex 3.392893225812081 4.707106773284012 -1.4099832412739487e-15
    vertex 3.6000000041471756 4.866025397575624 -4.000000000000001
    vertex 3.392893225812081 4.707106773284008 -4.000000000000001
  endloop
endfacet
facet normal -0.6087614383677139 0.7933533331098271 2.201997842704104e-16
  outer loop
    vertex 3.6000000041471756 4.866025397575624 -4.000000000000001
    vertex 3.392893225812081 4.707106773284012 -1.4099832412739487e-15
    vertex 3.6000000041471756 4.866025397575619 -1.4099832412739487e-15
  endloop
endfacet
facet normal 0.0 1.0 2.7755575615628914e-16
  outer loop
    vertex 20.050000014901162 4.999999999999999 2.9999999999999982
    vertex 21.050000014901162 4.999999999999999 1.9999999999999984
    vertex 20.050000014901162 4.999999999999999 1.9999999999999984
  endloop
endfacet
facet normal 0.0 -2.7755575615628914e-16 1.0
  outer loop
    vertex 20.550000014901162 2.8999999999999884 11.899999999999999
    vertex 5.05000001490116 4.999999999999998 11.899999999999999
    vertex 5.05000001490116 2.899999999999991 11.899999999999999
  endloop
endfacet
facet normal 0.0 -2.7755575615628914e-16 1.0
  outer loop
    vertex 5.05000001490116 4.999999999999998 11.899999999999999
    vertex 20.550000014901162 2.8999999999999884 11.899999999999999
    vertex 20.550000014901162 4.999999999999998 11.899999999999999
  endloop
endfacet
facet normal 0.0 2.7755575615628914e-16 -1.0
  outer loop
    vertex 2.000000014901161 5.0 -1.4099832412739487e-15
    vertex 3.233974606149669 4.499999991396811 -1.4099832412739487e-15
    vertex 2.000000014901161 1.6000000000000005 -3.877453913503359e-15
  endloop
endfacet
facet normal 0.0 2.7755575615628914e-16 -1.0
  outer loop
    vertex 3.233974606149669 4.499999991396811 -1.4099832412739487e-15
    vertex 2.000000014901161 5.0 -1.4099832412739487e-15
    vertex 3.392893225812081 4.707106773284012 -1.4099832412739487e-15
  endloop
endfacet
facet normal 0.0 2.7755575615628914e-16 -1.0
  outer loop
    vertex 3.392893225812081 4.707106773284012 -1.4099832412739487e-15
    vertex 2.000000014901161 5.0 -1.4099832412739487e-15
    vertex 3.6000000041471756 4.866025397575619 -1.4099832412739487e-15
  endloop
endfacet
facet normal 0.0 2.7755575615628914e-16 -1.0
  outer loop
    vertex 3.6000000041471756 4.866025397575619 -1.4099832412739487e-15
    vertex 2.000000014901161 5.0 -1.4099832412739487e-15
    vertex 3.841180956604676 4.965925822753755 -1.4099832412739487e-15
  endloop
endfacet
facet normal 0.0 2.7755575615628914e-16 -1.0
  outer loop
    vertex 3.841180956604676 4.965925822753755 -1.4099832412739487e-15
    vertex 2.000000014901161 5.0 -1.4099832412739487e-15
    vertex 4.1000000000000005 5.0 -1.4099832412739487e-15
  endloop
endfacet
facet normal 0.0 2.7755575615628914e-16 -1.0
  outer loop
    vertex 2.000000014901161 1.6000000000000005 -3.877453913503359e-15
    vertex 3.233974606149669 4.499999991396811 -1.4099832412739487e-15
    vertex 3.1340741863623496 4.2588190367063605 -3.877453913503359e-15
  endloop
endfacet
facet normal 0.0 2.7755575615628914e-16 -1.0
  outer loop
    vertex 2.000000014901161 1.6000000000000005 -3.877453913503359e-15
    vertex 3.1340741863623496 4.2588190367063605 -3.877453913503359e-15
    vertex 3.1000000149011617 3.999999992549419 -1.762479051592436e-15
  endloop
endfacet
facet normal 0.0 2.7755575615628914e-16 -1.0
  outer loop
    vertex 6.1500000149011615 5.0 -1.4099832412739487e-15
    vertex 5.3588190731976475 4.965925822753755 -1.4099832412739487e-15
    vertex 5.100000029802323 5.0 -1.4099832412739487e-15
  endloop
endfacet
facet normal 0.0 2.7755575615628914e-16 -1.0
  outer loop
    vertex 5.3588190731976475 4.965925822753755 -1.4099832412739487e-15
    vertex 6.1500000149011615 5.0 -1.4099832412739487e-15
    vertex 5.600000025655148 4.866025397575619 -1.4099832412739487e-15
  endloop
endfacet
facet normal 0.0 2.7755575615628914e-16 -1.0
  outer loop
    vertex 5.600000025655148 4.866025397575619 -1.4099832412739487e-15
    vertex 6.1500000149011615 5.0 -1.4099832412739487e-15
    vertex 5.807106803990244 4.707106773284012 -1.4099832412739487e-15
  endloop
endfacet
facet normal 0.0 2.7755575615628914e-16 -1.0
  outer loop
    vertex 5.807106803990244 4.707106773284012 -1.4099832412739487e-15
    vertex 6.1500000149011615 5.0 -1.4099832412739487e-15
    vertex 5.966025423652654 4.499999991396811 -1.4099832412739487e-15
  endloop
endfacet
facet normal 0.0 2.7755575615628914e-16 -1.0
  outer loop
    vertex 5.966025423652654 4.499999991396811 -1.4099832412739487e-15
    vertex 6.1500000149011615 5.0 -1.4099832412739487e-15
    vertex 6.065925843439975 4.2588190367063605 -3.877453913503359e-15
  endloop
endfacet
facet normal 0.0 2.7755575615628914e-16 -1.0
  outer loop
    vertex 6.065925843439975 4.2588190367063605 -3.877453913503359e-15
    vertex 6.1500000149011615 5.0 -1.4099832412739487e-15
    vertex 6.100000014901161 3.999999992549419 -1.762479051592436e-15
  endloop
endfacet
facet normal 0.0 2.7755575615628914e-16 -1.0
  outer loop
    vertex 2.000000014901161 1.6000000000000005 -3.877453913503359e-15
    vertex 3.60000001705196 3.1339745949737963 -1.0574874309554614e-15
    vertex 6.1500000149011615 1.6000000000000005 -3.877453913503359e-15
  endloop
endfacet
facet normal 0.0 2.7755575615628914e-16 -1.0
  outer loop
    vertex 3.60000001705196 3.1339745949737963 -1.0574874309554614e-15
    vertex 2.000000014901161 1.6000000000000005 -3.877453913503359e-15
    vertex 3.392893236348793 3.292893216179274 -1.762479051592436e-15
  endloop
endfacet
facet normal 0.0 2.7755575615628914e-16 -1.0
  outer loop
    vertex 3.392893236348793 3.292893216179274 -1.762479051592436e-15
    vertex 2.000000014901161 1.6000000000000005 -3.877453913503359e-15
    vertex 3.2339746136002505 3.499999995698405 -1.762479051592436e-15
  endloop
endfacet
facet normal 0.0 2.7755575615628914e-16 -1.0
  outer loop
    vertex 3.2339746136002505 3.499999995698405 -1.762479051592436e-15
    vertex 2.000000014901161 1.6000000000000005 -3.877453913503359e-15
    vertex 3.134074190219054 3.7411809489002223 -1.762479051592436e-15
  endloop
endfacet
facet normal 0.0 2.7755575615628914e-16 -1.0
  outer loop
    vertex 3.134074190219054 3.7411809489002223 -1.762479051592436e-15
    vertex 2.000000014901161 1.6000000000000005 -3.877453913503359e-15
    vertex 3.1000000149011617 3.999999992549419 -1.762479051592436e-15
  endloop
endfacet
facet normal 0.0 2.7755575615628914e-16 -1.0
  outer loop
    vertex 6.1500000149011615 1.6000000000000005 -3.877453913503359e-15
    vertex 3.60000001705196 3.1339745949737963 -1.0574874309554614e-15
    vertex 3.841180970998092 3.034074173389538 -4.229949723821846e-15
  endloop
endfacet
facet normal 0.0 2.7755575615628914e-16 -1.0
  outer loop
    vertex 6.1500000149011615 1.6000000000000005 -3.877453913503359e-15
    vertex 3.841180970998092 3.034074173389538 -4.229949723821846e-15
    vertex 4.500000014901163 2.6499999999999986 -2.8199664825478975e-15
  endloop
endfacet
facet normal 0.0 2.7755575615628914e-16 -1.0
  outer loop
    vertex 4.500000014901163 2.6499999999999986 -2.8199664825478975e-15
    vertex 3.841180970998092 3.034074173389538 -4.229949723821846e-15
    vertex 4.100000014901162 2.9999999999999982 -4.229949723821846e-15
  endloop
endfacet
facet normal 0.0 2.7755575615628914e-16 -1.0
  outer loop
    vertex 6.1500000149011615 1.6000000000000005 -3.877453913503359e-15
    vertex 4.500000014901163 2.6499999999999986 -2.8199664825478975e-15
    vertex 4.700000014901162 2.6499999999999986 -2.8199664825478975e-15
  endloop
endfacet
facet normal 0.0 2.7755575615628914e-16 -1.0
  outer loop
    vertex 6.1500000149011615 1.6000000000000005 -3.877453913503359e-15
    vertex 4.700000014901162 2.6499999999999986 -2.8199664825478975e-15
    vertex 5.100000014901162 2.9999999999999982 -4.229949723821846e-15
  endloop
endfacet
facet normal 0.0 2.7755575615628914e-16 -1.0
  outer loop
    vertex 6.1500000149011615 1.6000000000000005 -3.877453913503359e-15
    vertex 5.100000014901162 2.9999999999999982 -4.229949723821846e-15
    vertex 5.358819058804231 3.034074173389538 -4.229949723821846e-15
  endloop
endfacet
facet normal 0.0 2.7755575615628914e-16 -1.0
  outer loop
    vertex 6.1500000149011615 1.6000000000000005 -3.877453913503359e-15
    vertex 5.358819058804231 3.034074173389538 -4.229949723821846e-15
    vertex 5.600000012750364 3.1339745949737963 -1.0574874309554614e-15
  endloop
endfacet
facet normal 0.0 2.7755575615628914e-16 -1.0
  outer loop
    vertex 6.1500000149011615 1.6000000000000005 -3.877453913503359e-15
    vertex 5.600000012750364 3.1339745949737963 -1.0574874309554614e-15
    vertex 5.8071067934535305 3.292893216179274 -1.762479051592436e-15
  endloop
endfacet
facet normal 0.0 2.7755575615628914e-16 -1.0
  outer loop
    vertex 6.1500000149011615 1.6000000000000005 -3.877453913503359e-15
    vertex 5.8071067934535305 3.292893216179274 -1.762479051592436e-15
    vertex 5.966025416202073 3.499999995698405 -1.762479051592436e-15
  endloop
endfacet
facet normal 0.0 2.7755575615628914e-16 -1.0
  outer loop
    vertex 6.1500000149011615 1.6000000000000005 -3.877453913503359e-15
    vertex 5.966025416202073 3.499999995698405 -1.762479051592436e-15
    vertex 6.0659258395832705 3.7411809489002223 -1.762479051592436e-15
  endloop
endfacet
facet normal 0.0 2.7755575615628914e-16 -1.0
  outer loop
    vertex 6.1500000149011615 1.6000000000000005 -3.877453913503359e-15
    vertex 6.0659258395832705 3.7411809489002223 -1.762479051592436e-15
    vertex 6.100000014901161 3.999999992549419 -1.762479051592436e-15
  endloop
endfacet
facet normal 0.0 2.7755575615628914e-16 -1.0
  outer loop
    vertex 6.1500000149011615 1.6000000000000005 -3.877453913503359e-15
    vertex 6.100000014901161 3.999999992549419 -1.762479051592436e-15
    vertex 6.1500000149011615 5.0 -1.4099832412739487e-15
  endloop
endfacet
facet normal 0.0 -1.0 -2.7755575615628914e-16
  outer loop
    vertex 20.550000014901162 2.8999999999999884 11.899999999999999
    vertex 5.05000001490116 2.8999999999999924 6.699999999999997
    vertex 20.550000014901162 2.8999999999999897 6.699999999999997
  endloop
endfacet
facet normal 0.0 -1.0 -2.7755575615628914e-16
  outer loop
    vertex 5.05000001490116 2.8999999999999924 6.699999999999997
    vertex 20.550000014901162 2.8999999999999884 11.899999999999999
    vertex 5.05000001490116 2.899999999999991 11.899999999999999
  endloop
endfacet
facet normal 8.676819946301223e-15 1.0 1.388291191408196e-14
  outer loop
    vertex 20.050000014901162 4.999999999999999 2.9999999999999982
    vertex 21.550000014901162 4.999999999999999 1.9999999999999984
    vertex 21.050000014901162 4.999999999999999 1.9999999999999984
  endloop
endfacet
facet normal 8.676819946301223e-15 1.0 1.388291191408196e-14
  outer loop
    vertex 21.550000014901162 4.999999999999999 1.9999999999999984
    vertex 20.050000014901162 4.999999999999999 2.9999999999999982
    vertex 20.050000014901162 4.999999999999985 3.4999999999999987
  endloop
endfacet
facet normal 2.277665235904064e-15 -1.0 3.3622677291917163e-15
  outer loop
    vertex 20.050000014901162 1.5999999999999999 3.5
    vertex 21.050000014901162 1.59999999999999 1.9999999999999991
    vertex 21.550000014901162 1.5999999999999914 1.9999999999999991
  endloop
endfacet
facet normal 2.277665235904064e-15 -1.0 3.3622677291917163e-15
  outer loop
    vertex 21.050000014901162 1.59999999999999 1.9999999999999991
    vertex 20.050000014901162 1.5999999999999999 3.5
    vertex 20.050000014901162 1.5999999999999985 2.9999999999999987
  endloop
endfacet
facet normal 3.6652439984667144e-17 -1.0 -2.9841306842757425e-16
  outer loop
    vertex 23.100000014901163 1.5999999999999928 1.9999999999999978
    vertex 18.950000014901164 1.6000000000000005 -3.877453913503359e-15
    vertex 23.100000014901163 1.6000000000000005 -3.877453913503359e-15
  endloop
endfacet
facet normal 3.6652439984667144e-17 -1.0 -2.9841306842757425e-16
  outer loop
    vertex 18.950000014901164 1.6000000000000005 -3.877453913503359e-15
    vertex 23.100000014901163 1.5999999999999928 1.9999999999999978
    vertex 18.950000014901164 1.5999999999999928 1.849999999999998
  endloop
endfacet
facet normal 3.6652439984667144e-17 -1.0 -2.9841306842757425e-16
  outer loop
    vertex 18.950000014901164 1.5999999999999928 1.849999999999998
    vertex 23.100000014901163 1.5999999999999928 1.9999999999999978
    vertex 6.1500000149011615 1.5999999999999928 1.849999999999998
  endloop
endfacet
facet normal 3.6652439984667144e-17 -1.0 -2.9841306842757425e-16
  outer loop
    vertex 21.550000014901162 1.5999999999999914 1.9999999999999991
    vertex 20.050000014901162 1.5999999999999943 1.9999999999999978
    vertex 23.100000014901163 1.5999999999999928 1.9999999999999978
  endloop
endfacet
facet normal 3.6652439984667144e-17 -1.0 -2.9841306842757425e-16
  outer loop
    vertex 20.050000014901162 1.5999999999999943 1.9999999999999978
    vertex 21.550000014901162 1.5999999999999914 1.9999999999999991
    vertex 21.050000014901162 1.59999999999999 1.9999999999999991
  endloop
endfacet
facet normal 3.6652439984667144e-17 -1.0 -2.9841306842757425e-16
  outer loop
    vertex 20.050000014901162 1.5999999999999999 3.5
    vertex 19.15000001490116 1.6000000000000012 3.4999999999999987
    vertex 20.050000014901162 1.5999999999999985 2.9999999999999987
  endloop
endfacet
facet normal 3.6652439984667144e-17 -1.0 -2.9841306842757425e-16
  outer loop
    vertex 20.550000014901162 1.5999999999999943 6.699999999999997
    vertex 19.550000014901162 1.5999999999999985 4.299999999999998
    vertex 20.550000014901162 1.5999999999999979 4.299999999999998
  endloop
endfacet
facet normal 3.6652439984667144e-17 -1.0 -2.9841306842757425e-16
  outer loop
    vertex 19.550000014901162 1.5999999999999985 4.299999999999998
    vertex 20.550000014901162 1.5999999999999943 6.699999999999997
    vertex 19.15000001490116 1.5999999999999985 4.299999999999998
  endloop
endfacet
facet normal 3.6652439984667144e-17 -1.0 -2.9841306842757425e-16
  outer loop
    vertex 19.15000001490116 1.5999999999999985 4.299999999999998
    vertex 20.550000014901162 1.5999999999999943 6.699999999999997
    vertex 5.050000014901161 1.5999999999999988 4.299999999999998
  endloop
endfacet
facet normal 3.6652439984667144e-17 -1.0 -2.9841306842757425e-16
  outer loop
    vertex 5.050000014901161 1.5999999999999988 4.299999999999998
    vertex 20.550000014901162 1.5999999999999943 6.699999999999997
    vertex 5.05000001490116 1.599999999999995 6.699999999999997
  endloop
endfacet
facet normal 3.6652439984667144e-17 -1.0 -2.9841306842757425e-16
  outer loop
    vertex 20.050000014901162 1.5999999999999985 2.9999999999999987
    vertex 3.550000014901162 1.5999999999999928 1.9999999999999978
    vertex 20.050000014901162 1.5999999999999943 1.9999999999999978
  endloop
endfacet
facet normal 3.6652439984667144e-17 -1.0 -2.9841306842757425e-16
  outer loop
    vertex 3.550000014901162 1.5999999999999928 1.9999999999999978
    vertex 20.050000014901162 1.5999999999999985 2.9999999999999987
    vertex 5.05000001490116 1.5999999999999956 3.8999999999999986
  endloop
endfacet
facet normal 3.6652439984667144e-17 -1.0 -2.9841306842757425e-16
  outer loop
    vertex 5.05000001490116 1.5999999999999956 3.8999999999999986
    vertex 20.050000014901162 1.5999999999999985 2.9999999999999987
    vertex 19.15000001490116 1.6000000000000012 3.4999999999999987
  endloop
endfacet
facet normal 3.6652439984667144e-17 -1.0 -2.9841306842757425e-16
  outer loop
    vertex 5.05000001490116 1.5999999999999956 3.8999999999999986
    vertex 19.15000001490116 1.6000000000000012 3.4999999999999987
    vertex 19.15000001490116 1.5999999999999985 4.299999999999998
  endloop
endfacet
facet normal 3.6652439984667144e-17 -1.0 -2.9841306842757425e-16
  outer loop
    vertex 5.05000001490116 1.5999999999999956 3.8999999999999986
    vertex 19.15000001490116 1.5999999999999985 4.299999999999998
    vertex 5.050000014901161 1.5999999999999988 4.299999999999998
  endloop
endfacet
facet normal 3.6652439984667144e-17 -1.0 -2.9841306842757425e-16
  outer loop
    vertex 6.1500000149011615 1.5999999999999928 1.849999999999998
    vertex 2.000000014901161 1.6000000000000005 -3.877453913503359e-15
    vertex 6.1500000149011615 1.6000000000000005 -3.877453913503359e-15
  endloop
endfacet
facet normal 3.6652439984667144e-17 -1.0 -2.9841306842757425e-16
  outer loop
    vertex 2.000000014901161 1.6000000000000005 -3.877453913503359e-15
    vertex 6.1500000149011615 1.5999999999999928 1.849999999999998
    vertex 2.000000014901161 1.5999999999999928 1.9999999999999978
  endloop
endfacet
facet normal 3.6652439984667144e-17 -1.0 -2.9841306842757425e-16
  outer loop
    vertex 2.000000014901161 1.5999999999999928 1.9999999999999978
    vertex 6.1500000149011615 1.5999999999999928 1.849999999999998
    vertex 23.100000014901163 1.5999999999999928 1.9999999999999978
  endloop
endfacet
facet normal 3.6652439984667144e-17 -1.0 -2.9841306842757425e-16
  outer loop
    vertex 2.000000014901161 1.5999999999999928 1.9999999999999978
    vertex 23.100000014901163 1.5999999999999928 1.9999999999999978
    vertex 20.050000014901162 1.5999999999999943 1.9999999999999978
  endloop
endfacet
facet normal 3.6652439984667144e-17 -1.0 -2.9841306842757425e-16
  outer loop
    vertex 2.000000014901161 1.5999999999999928 1.9999999999999978
    vertex 20.050000014901162 1.5999999999999943 1.9999999999999978
    vertex 3.550000014901162 1.5999999999999928 1.9999999999999978
  endloop
endfacet
facet normal -4.229949723821837e-15 -1.0 -2.8199664825478935e-15
  outer loop
    vertex 20.050000014901162 1.5999999999999985 2.9999999999999987
    vertex 20.050000014901162 1.5999999999999943 1.9999999999999978
    vertex 21.050000014901162 1.59999999999999 1.9999999999999991
  endloop
endfacet
facet normal -1.115811779248249e-18 -0.09081813614015351 -0.9958674942722192
  outer loop
    vertex 5.100000014901162 3.0000000000000013 -4.000000000000002
    vertex 4.600000014901163 2.799999999999999 -3.981761000000002
    vertex 4.100000014901162 3.0000000000000013 -4.000000000000002
  endloop
endfacet
facet normal -1.1212483520156633e-43 1.4099832412739318e-14 -1.0
  outer loop
    vertex 21.000000029802322 3.0000000000000013 -4.000000000000002
    vertex 20.50000001490116 2.799999999999999 -4.000000000000004
    vertex 20.0 3.0000000000000013 -4.000000000000002
  endloop
endfacet
facet normal 4.242077804912834e-18 -0.05330653964047095 -0.9985781956519774
  outer loop
    vertex 4.600000014901163 2.799999999999999 -3.981761000000002
    vertex 4.500000014901163 2.6499999999999995 -3.981761000000004
    vertex 4.100000014901162 3.0000000000000013 -4.000000000000002
  endloop
endfacet
facet normal 4.242077804912834e-18 -0.05330653964047095 -0.9985781956519774
  outer loop
    vertex 4.500000014901163 2.6499999999999995 -3.981761000000004
    vertex 4.600000014901163 2.799999999999999 -3.981761000000002
    vertex 4.700000014901162 2.6499999999999995 -3.981761000000004
  endloop
endfacet
facet normal 4.242077804912834e-18 -0.05330653964047095 -0.9985781956519774
  outer loop
    vertex 4.700000014901162 2.6499999999999995 -3.981761000000004
    vertex 4.600000014901163 2.799999999999999 -3.981761000000002
    vertex 5.100000014901162 3.0000000000000013 -4.000000000000002
  endloop
endfacet
facet normal 0.658504607868519 -0.7525766947068773 -2.6649759961604634e-16
  outer loop
    vertex 5.100000014901162 2.9999999999999982 -4.229949723821846e-15
    vertex 4.700000014901162 2.6499999999999995 -3.981761000000004
    vertex 5.100000014901162 3.0000000000000013 -4.000000000000002
  endloop
endfacet
facet normal 0.658504607868519 -0.7525766947068773 -2.6649759961604634e-16
  outer loop
    vertex 4.700000014901162 2.6499999999999995 -3.981761000000004
    vertex 5.100000014901162 2.9999999999999982 -4.229949723821846e-15
    vertex 4.700000014901162 2.6499999999999986 -2.8199664825478975e-15
  endloop
endfacet
facet normal 0.0 -1.0 -1.1508409401602233e-16
  outer loop
    vertex 4.700000014901162 2.6499999999999986 -2.8199664825478975e-15
    vertex 4.500000014901163 2.6499999999999995 -3.981761000000004
    vertex 4.700000014901162 2.6499999999999995 -3.981761000000004
  endloop
endfacet
facet normal 0.0 -1.0 -1.1508409401602233e-16
  outer loop
    vertex 4.500000014901163 2.6499999999999995 -3.981761000000004
    vertex 4.700000014901162 2.6499999999999986 -2.8199664825478975e-15
    vertex 4.500000014901163 2.6499999999999986 -2.8199664825478975e-15
  endloop
endfacet
facet normal -0.6585046078685183 -0.7525766947068777 -2.668280525724561e-16
  outer loop
    vertex 4.500000014901163 2.6499999999999995 -3.981761000000004
    vertex 4.100000014901162 2.9999999999999982 -4.229949723821846e-15
    vertex 4.100000014901162 3.0000000000000013 -4.000000000000002
  endloop
endfacet
facet normal -0.6585046078685183 -0.7525766947068777 -2.668280525724561e-16
  outer loop
    vertex 4.100000014901162 2.9999999999999982 -4.229949723821846e-15
    vertex 4.500000014901163 2.6499999999999995 -3.981761000000004
    vertex 4.500000014901163 2.6499999999999986 -2.8199664825478975e-15
  endloop
endfacet
facet normal 1.8230760796835664e-32 2.407288460711623e-15 -1.0
  outer loop
    vertex 20.50000001490116 2.799999999999999 -4.000000000000004
    vertex 20.400000014901163 2.6499999999999995 -4.000000000000003
    vertex 20.0 3.0000000000000013 -4.000000000000002
  endloop
endfacet
facet normal 1.8230760796835664e-32 2.407288460711623e-15 -1.0
  outer loop
    vertex 20.400000014901163 2.6499999999999995 -4.000000000000003
    vertex 20.50000001490116 2.799999999999999 -4.000000000000004
    vertex 20.600000014901163 2.6499999999999995 -4.000000000000003
  endloop
endfacet
facet normal 1.8230760796835664e-32 2.407288460711623e-15 -1.0
  outer loop
    vertex 20.600000014901163 2.6499999999999995 -4.000000000000003
    vertex 20.50000001490116 2.799999999999999 -4.000000000000004
    vertex 21.000000029802322 3.0000000000000013 -4.000000000000002
  endloop
endfacet
facet normal 0.6585045939747369 -0.7525767068639363 -2.656752064135391e-16
  outer loop
    vertex 21.000000029802322 3.0000000000000013 -4.000000000000002
    vertex 20.600000014901163 2.6499999999999986 -2.8199664825478975e-15
    vertex 20.600000014901163 2.6499999999999995 -4.000000000000003
  endloop
endfacet
facet normal 0.6585045939747369 -0.7525767068639363 -2.656752064135391e-16
  outer loop
    vertex 20.600000014901163 2.6499999999999986 -2.8199664825478975e-15
    vertex 21.000000029802322 3.0000000000000013 -4.000000000000002
    vertex 21.000000029802322 2.9999999999999982 -4.229949723821846e-15
  endloop
endfacet
facet normal 0.0 -1.0 -1.1508409401602188e-16
  outer loop
    vertex 20.600000014901163 2.6499999999999986 -2.8199664825478975e-15
    vertex 20.400000014901163 2.6499999999999995 -4.000000000000003
    vertex 20.600000014901163 2.6499999999999995 -4.000000000000003
  endloop
endfacet
facet normal 0.0 -1.0 -1.1508409401602188e-16
  outer loop
    vertex 20.400000014901163 2.6499999999999995 -4.000000000000003
    vertex 20.600000014901163 2.6499999999999986 -2.8199664825478975e-15
    vertex 20.400000014901163 2.6499999999999986 -2.8199664825478975e-15
  endloop
endfacet
facet normal -0.6585045939747369 -0.7525767068639363 -2.6567520641353913e-16
  outer loop
    vertex 20.400000014901163 2.6499999999999986 -2.8199664825478975e-15
    vertex 20.0 3.0000000000000013 -4.000000000000002
    vertex 20.400000014901163 2.6499999999999995 -4.000000000000003
  endloop
endfacet
facet normal -0.6585045939747369 -0.7525767068639363 -2.6567520641353913e-16
  outer loop
    vertex 20.0 3.0000000000000013 -4.000000000000002
    vertex 20.400000014901163 2.6499999999999986 -2.8199664825478975e-15
    vertex 20.0 2.9999999999999982 -4.229949723821846e-15
  endloop
endfacet
facet normal -1.5666480458599356e-15 -1.0 -3.5249581031848724e-15
  outer loop
    vertex 19.15000001490116 1.5999999999999985 4.299999999999998
    vertex 19.15000001490116 1.6000000000000012 3.4999999999999987
    vertex 20.050000014901162 1.5999999999999999 3.5
  endloop
endfacet
facet normal 9.060697952360947e-31 1.0 -1.0574874309554457e-14
  outer loop
    vertex 19.150000014901167 4.999999999999995 4.3000000000000105
    vertex 20.050000014901162 4.999999999999985 3.4999999999999987
    vertex 19.15000001490116 4.999999999999985 3.4999999999999987
  endloop
endfacet
facet normal 0.0 1.0 -1.0574874309554466e-14
  outer loop
    vertex 19.550000014901165 4.999999999999995 4.3000000000000105
    vertex 20.050000014901162 4.999999999999985 3.4999999999999987
    vertex 19.150000014901167 4.999999999999995 4.3000000000000105
  endloop
endfacet
facet normal -8.812395257962208e-16 -1.0 -2.7538735181131923e-15
  outer loop
    vertex 19.15000001490116 1.5999999999999985 4.299999999999998
    vertex 20.050000014901162 1.5999999999999999 3.5
    vertex 19.550000014901162 1.5999999999999985 4.299999999999998
  endloop
endfacet
facet normal 1.0 -6.522098766032161e-16 2.059514566633343e-16
  outer loop
    vertex 20.550000014901162 1.5999999999999979 4.299999999999998
    vertex 20.550000014901162 2.8999999999999897 6.699999999999997
    vertex 20.550000014901162 1.5999999999999943 6.699999999999997
  endloop
endfacet
facet normal 1.0 -6.522098766032161e-16 2.059514566633343e-16
  outer loop
    vertex 20.550000014901162 2.8999999999999897 6.699999999999997
    vertex 20.550000014901162 1.5999999999999979 4.299999999999998
    vertex 20.550000014901165 4.999999999999995 4.3000000000000105
  endloop
endfacet
facet normal 1.0 -6.522098766032161e-16 2.059514566633343e-16
  outer loop
    vertex 20.550000014901162 2.8999999999999897 6.699999999999997
    vertex 20.550000014901162 4.999999999999998 11.899999999999999
    vertex 20.550000014901162 2.8999999999999884 11.899999999999999
  endloop
endfacet
facet normal 1.0 -6.522098766032161e-16 2.059514566633343e-16
  outer loop
    vertex 20.550000014901162 4.999999999999998 11.899999999999999
    vertex 20.550000014901162 2.8999999999999897 6.699999999999997
    vertex 20.550000014901165 4.999999999999995 4.3000000000000105
  endloop
endfacet
facet normal -5.6729295532786445e-15 1.0 -1.7651400667684902e-15
  outer loop
    vertex 20.050000014901162 4.999999999999985 3.4999999999999987
    vertex 20.550000014901165 4.999999999999995 4.3000000000000105
    vertex 21.550000014901162 4.999999999999999 1.9999999999999984
  endloop
endfacet
facet normal -5.6729295532786445e-15 1.0 -1.7651400667684902e-15
  outer loop
    vertex 20.550000014901165 4.999999999999995 4.3000000000000105
    vertex 20.050000014901162 4.999999999999985 3.4999999999999987
    vertex 19.550000014901165 4.999999999999995 4.3000000000000105
  endloop
endfacet
facet normal -2.7741970215201233e-15 -1.0 1.0839201817040595e-15
  outer loop
    vertex 20.550000014901162 1.5999999999999979 4.299999999999998
    vertex 20.050000014901162 1.5999999999999999 3.5
    vertex 21.550000014901162 1.5999999999999914 1.9999999999999991
  endloop
endfacet
facet normal -2.7741970215201233e-15 -1.0 1.0839201817040595e-15
  outer loop
    vertex 20.050000014901162 1.5999999999999999 3.5
    vertex 20.550000014901162 1.5999999999999979 4.299999999999998
    vertex 19.550000014901162 1.5999999999999985 4.299999999999998
  endloop
endfacet
facet normal 0.9170700562532357 -1.4340799051490034e-15 0.39872611141444864
  outer loop
    vertex 21.550000014901162 4.999999999999999 1.9999999999999984
    vertex 20.550000014901162 1.5999999999999979 4.299999999999998
    vertex 21.550000014901162 1.5999999999999914 1.9999999999999991
  endloop
endfacet
facet normal 0.9170700562532357 -1.4340799051490034e-15 0.39872611141444864
  outer loop
    vertex 20.550000014901162 1.5999999999999979 4.299999999999998
    vertex 21.550000014901162 4.999999999999999 1.9999999999999984
    vertex 20.550000014901165 4.999999999999995 4.3000000000000105
  endloop
endfacet
facet normal -0.0 -2.0735047665793323e-16 1.0
  outer loop
    vertex 3.550000014901162 1.5999999999999928 1.9999999999999978
    vertex 2.000000014901161 4.999999999999999 1.9999999999999984
    vertex 2.000000014901161 1.5999999999999928 1.9999999999999978
  endloop
endfacet
facet normal -0.0 -2.0735047665793323e-16 1.0
  outer loop
    vertex 2.000000014901161 4.999999999999999 1.9999999999999984
    vertex 3.550000014901162 1.5999999999999928 1.9999999999999978
    vertex 3.550000014901162 4.999999999999999 1.9999999999999984
  endloop
endfacet
facet normal -8.166152939044858e-15 -1.0 7.931155732165885e-15
  outer loop
    vertex 5.050000014901161 1.5999999999999988 4.299999999999998
    vertex 3.550000014901162 1.5999999999999928 1.9999999999999978
    vertex 5.05000001490116 1.5999999999999956 3.8999999999999986
  endloop
endfacet
facet normal -1.0 7.125265225424298e-17 -8.670738814876894e-17
  outer loop
    vertex 5.05000001490116 4.999999999999998 11.899999999999999
    vertex 5.05000001490116 2.8999999999999924 6.699999999999997
    vertex 5.05000001490116 2.899999999999991 11.899999999999999
  endloop
endfacet
facet normal -1.0 7.125265225424298e-17 -8.670738814876894e-17
  outer loop
    vertex 5.05000001490116 2.8999999999999924 6.699999999999997
    vertex 5.05000001490116 4.999999999999998 11.899999999999999
    vertex 5.050000014901161 4.999999999999992 4.299999999999999
  endloop
endfacet
facet normal -1.0 7.125265225424298e-17 -8.670738814876894e-17
  outer loop
    vertex 5.05000001490116 2.8999999999999924 6.699999999999997
    vertex 5.050000014901161 1.5999999999999988 4.299999999999998
    vertex 5.05000001490116 1.599999999999995 6.699999999999997
  endloop
endfacet
facet normal -1.0 7.125265225424298e-17 -8.670738814876894e-17
  outer loop
    vertex 5.050000014901161 1.5999999999999988 4.299999999999998
    vertex 5.05000001490116 2.8999999999999924 6.699999999999997
    vertex 5.050000014901161 4.999999999999992 4.299999999999999
  endloop
endfacet
facet normal 4.699944137579785e-15 1.0 2.087584808224013e-29
  outer loop
    vertex 5.050000014901161 4.999999999999992 4.299999999999999
    vertex 5.05000001490116 4.999999999999992 3.8999999999999986
    vertex 3.550000014901162 4.999999999999999 1.9999999999999984
  endloop
endfacet
facet normal -0.8376105968386145 -9.343294886963308e-17 0.5462677805469222
  outer loop
    vertex 5.050000014901161 1.5999999999999988 4.299999999999998
    vertex 3.550000014901162 4.999999999999999 1.9999999999999984
    vertex 3.550000014901162 1.5999999999999928 1.9999999999999978
  endloop
endfacet
facet normal -0.8376105968386145 -9.343294886963308e-17 0.5462677805469222
  outer loop
    vertex 3.550000014901162 4.999999999999999 1.9999999999999984
    vertex 5.050000014901161 1.5999999999999988 4.299999999999998
    vertex 5.050000014901161 4.999999999999992 4.299999999999999
  endloop
endfacet
endsolid Keyboard_LEDs
