solid Keyboard_CapsLockLED
facet normal 0.38268343236508884 0.9238795325112873 0.0
  outer loop
    vertex 2.314757569374248 23.48213341458522 1.4107720615141832
    vertex 2.580056619761475 23.37224294983013 0.2107720615141834
    vertex 2.314757569374248 23.48213341458522 0.2107720615141834
  endloop
endfacet
facet normal 0.38268343236508884 0.9238795325112873 0.0
  outer loop
    vertex 2.580056619761475 23.37224294983013 0.2107720615141834
    vertex 2.314757569374248 23.48213341458522 1.4107720615141832
    vertex 2.580056619761475 23.37224294983013 1.4107720615141832
  endloop
endfacet
facet normal 0.13052619222004797 0.9914448613738109 0.0
  outer loop
    vertex 2.0300566197614756 23.519615005667244 1.4107720615141832
    vertex 2.314757569374248 23.48213341458522 0.2107720615141834
    vertex 2.0300566197614756 23.519615005667244 0.2107720615141834
  endloop
endfacet
facet normal 0.13052619222004797 0.9914448613738109 0.0
  outer loop
    vertex 2.314757569374248 23.48213341458522 0.2107720615141834
    vertex 2.0300566197614756 23.519615005667244 1.4107720615141832
    vertex 2.314757569374248 23.48213341458522 1.4107720615141832
  endloop
endfacet
facet normal -0.9656864034054643 -0.25971093599965933 0.0
  outer loop
    vertex 1.0774286755985931 21.869615005667246 1.4107720615141832
    vertex 1.252239160456273 21.219615005667247 0.2107720615141834
    vertex 1.252239160456273 21.219615005667247 1.4107720615141832
  endloop
endfacet
facet normal -0.9656864034054643 -0.25971093599965933 0.0
  outer loop
    vertex 1.252239160456273 21.219615005667247 0.2107720615141834
    vertex 1.0774286755985931 21.869615005667246 1.4107720615141832
    vertex 1.0774286755985931 21.869615005667246 0.2107720615141834
  endloop
endfacet
facet normal -0.38268343236509295 0.9238795325112854 0.0
  outer loop
    vertex 1.4800566197614755 23.37224294983013 1.4107720615141832
    vertex 1.7453556701487025 23.48213341458522 0.2107720615141834
    vertex 1.4800566197614755 23.37224294983013 0.2107720615141834
  endloop
endfacet
facet normal -0.38268343236509295 0.9238795325112854 0.0
  outer loop
    vertex 1.7453556701487025 23.48213341458522 0.2107720615141834
    vertex 1.4800566197614755 23.37224294983013 1.4107720615141832
    vertex 1.7453556701487025 23.48213341458522 1.4107720615141832
  endloop
endfacet
facet normal -0.6087614290087194 0.793353340291236 0.0
  outer loop
    vertex 1.252239160456273 23.197432464972447 1.4107720615141832
    vertex 1.4800566197614755 23.37224294983013 0.2107720615141834
    vertex 1.252239160456273 23.197432464972447 0.2107720615141834
  endloop
endfacet
facet normal -0.6087614290087194 0.793353340291236 0.0
  outer loop
    vertex 1.4800566197614755 23.37224294983013 0.2107720615141834
    vertex 1.252239160456273 23.197432464972447 1.4107720615141832
    vertex 1.4800566197614755 23.37224294983013 1.4107720615141832
  endloop
endfacet
facet normal 0.7933533402912344 0.6087614290087219 0.0
  outer loop
    vertex 2.8078740790666776 23.197432464972447 0.2107720615141834
    vertex 2.982684563924358 22.969615005667247 1.4107720615141832
    vertex 2.982684563924358 22.969615005667247 0.2107720615141834
  endloop
endfacet
facet normal 0.7933533402912344 0.6087614290087219 0.0
  outer loop
    vertex 2.982684563924358 22.969615005667247 1.4107720615141832
    vertex 2.8078740790666776 23.197432464972447 0.2107720615141834
    vertex 2.8078740790666776 23.197432464972447 1.4107720615141832
  endloop
endfacet
facet normal 0.9238795325112873 0.3826834323650888 0.0
  outer loop
    vertex 2.982684563924358 22.969615005667247 0.2107720615141834
    vertex 3.0925750286794504 22.70431595528002 1.4107720615141832
    vertex 3.0925750286794504 22.70431595528002 0.2107720615141834
  endloop
endfacet
facet normal 0.9238795325112873 0.3826834323650888 0.0
  outer loop
    vertex 3.0925750286794504 22.70431595528002 1.4107720615141832
    vertex 2.982684563924358 22.969615005667247 0.2107720615141834
    vertex 2.982684563924358 22.969615005667247 1.4107720615141832
  endloop
endfacet
facet normal 0.9914448613738103 0.13052619222005246 0.0
  outer loop
    vertex 3.0925750286794504 22.70431595528002 0.2107720615141834
    vertex 3.1300566197614756 22.419615005667247 1.4107720615141832
    vertex 3.1300566197614756 22.419615005667247 0.2107720615141834
  endloop
endfacet
facet normal 0.9914448613738103 0.13052619222005246 0.0
  outer loop
    vertex 3.1300566197614756 22.419615005667247 1.4107720615141832
    vertex 3.0925750286794504 22.70431595528002 0.2107720615141834
    vertex 3.0925750286794504 22.70431595528002 1.4107720615141832
  endloop
endfacet
facet normal 0.9914448613738105 -0.1305261922200507 0.0
  outer loop
    vertex 3.1300566197614756 22.419615005667247 0.2107720615141834
    vertex 3.092575028679451 22.134914056054473 1.4107720615141832
    vertex 3.092575028679451 22.134914056054473 0.2107720615141834
  endloop
endfacet
facet normal 0.9914448613738105 -0.1305261922200507 0.0
  outer loop
    vertex 3.092575028679451 22.134914056054473 1.4107720615141832
    vertex 3.1300566197614756 22.419615005667247 0.2107720615141834
    vertex 3.1300566197614756 22.419615005667247 1.4107720615141832
  endloop
endfacet
facet normal 0.9238795325112871 -0.3826834323650891 0.0
  outer loop
    vertex 3.092575028679451 22.134914056054473 0.2107720615141834
    vertex 2.982684563924358 21.869615005667246 1.4107720615141832
    vertex 2.982684563924358 21.869615005667246 0.2107720615141834
  endloop
endfacet
facet normal 0.9238795325112871 -0.3826834323650891 0.0
  outer loop
    vertex 2.982684563924358 21.869615005667246 1.4107720615141832
    vertex 3.092575028679451 22.134914056054473 0.2107720615141834
    vertex 3.092575028679451 22.134914056054473 1.4107720615141832
  endloop
endfacet
facet normal 0.9656864034054643 -0.25971093599965905 0.0
  outer loop
    vertex 2.982684563924358 21.869615005667246 0.2107720615141834
    vertex 2.8078740790666785 21.219615005667247 1.4107720615141832
    vertex 2.8078740790666785 21.219615005667247 0.2107720615141834
  endloop
endfacet
facet normal 0.9656864034054643 -0.25971093599965905 0.0
  outer loop
    vertex 2.8078740790666785 21.219615005667247 1.4107720615141832
    vertex 2.982684563924358 21.869615005667246 0.2107720615141834
    vertex 2.982684563924358 21.869615005667246 1.4107720615141832
  endloop
endfacet
facet normal 0.6087614290087223 0.7933533402912339 0.0
  outer loop
    vertex 2.580056619761475 23.37224294983013 1.4107720615141832
    vertex 2.8078740790666776 23.197432464972447 0.2107720615141834
    vertex 2.580056619761475 23.37224294983013 0.2107720615141834
  endloop
endfacet
facet normal 0.6087614290087223 0.7933533402912339 0.0
  outer loop
    vertex 2.8078740790666776 23.197432464972447 0.2107720615141834
    vertex 2.580056619761475 23.37224294983013 1.4107720615141832
    vertex 2.8078740790666776 23.197432464972447 1.4107720615141832
  endloop
endfacet
facet normal 1.0 0.0 0.0
  outer loop
    vertex 6.380056619761476 26.219615005667244 -1.6892279384858166
    vertex 6.380056619761476 21.219615005667247 0.2107720615141834
    vertex 6.380056619761476 21.219615005667247 -1.6892279384858166
  endloop
endfacet
facet normal 1.0 0.0 0.0
  outer loop
    vertex 6.380056619761476 21.219615005667247 0.2107720615141834
    vertex 6.380056619761476 26.219615005667244 -1.6892279384858166
    vertex 6.380056619761476 26.219615005667244 0.2107720615141834
  endloop
endfacet
facet normal -0.1305261922200478 0.9914448613738109 0.0
  outer loop
    vertex 1.7453556701487025 23.48213341458522 1.4107720615141832
    vertex 2.0300566197614756 23.519615005667244 0.2107720615141834
    vertex 1.7453556701487025 23.48213341458522 0.2107720615141834
  endloop
endfacet
facet normal -0.1305261922200478 0.9914448613738109 0.0
  outer loop
    vertex 2.0300566197614756 23.519615005667244 0.2107720615141834
    vertex 1.7453556701487025 23.48213341458522 1.4107720615141832
    vertex 2.0300566197614756 23.519615005667244 1.4107720615141832
  endloop
endfacet
facet normal -0.9238795325112867 0.3826834323650897 0.0
  outer loop
    vertex 1.077428675598593 22.969615005667247 1.4107720615141832
    vertex 0.9675382108435002 22.70431595528002 0.2107720615141834
    vertex 0.9675382108435002 22.70431595528002 1.4107720615141832
  endloop
endfacet
facet normal -0.9238795325112867 0.3826834323650897 0.0
  outer loop
    vertex 0.9675382108435002 22.70431595528002 0.2107720615141834
    vertex 1.077428675598593 22.969615005667247 1.4107720615141832
    vertex 1.077428675598593 22.969615005667247 0.2107720615141834
  endloop
endfacet
facet normal 0.0 1.0 0.0
  outer loop
    vertex -0.21994338023852464 26.219615005667244 0.2107720615141834
    vertex 6.380056619761476 26.219615005667244 -1.6892279384858166
    vertex -0.21994338023852464 26.219615005667244 -1.6892279384858166
  endloop
endfacet
facet normal 0.0 1.0 0.0
  outer loop
    vertex 6.380056619761476 26.219615005667244 -1.6892279384858166
    vertex -0.21994338023852464 26.219615005667244 0.2107720615141834
    vertex 6.380056619761476 26.219615005667244 0.2107720615141834
  endloop
endfacet
facet normal -0.9238795325112865 -0.3826834323650903 0.0
  outer loop
    vertex 0.9675382108435004 22.134914056054473 1.4107720615141832
    vertex 1.0774286755985931 21.869615005667246 0.2107720615141834
    vertex 1.0774286755985931 21.869615005667246 1.4107720615141832
  endloop
endfacet
facet normal -0.9238795325112865 -0.3826834323650903 0.0
  outer loop
    vertex 1.0774286755985931 21.869615005667246 0.2107720615141834
    vertex 0.9675382108435004 22.134914056054473 1.4107720615141832
    vertex 0.9675382108435004 22.134914056054473 0.2107720615141834
  endloop
endfacet
facet normal -0.7933533402912347 0.6087614290087213 0.0
  outer loop
    vertex 1.252239160456273 23.197432464972447 1.4107720615141832
    vertex 1.077428675598593 22.969615005667247 0.2107720615141834
    vertex 1.077428675598593 22.969615005667247 1.4107720615141832
  endloop
endfacet
facet normal -0.7933533402912347 0.6087614290087213 0.0
  outer loop
    vertex 1.077428675598593 22.969615005667247 0.2107720615141834
    vertex 1.252239160456273 23.197432464972447 1.4107720615141832
    vertex 1.252239160456273 23.197432464972447 0.2107720615141834
  endloop
endfacet
facet normal -0.9914448613738105 0.1305261922200513 0.0
  outer loop
    vertex 0.9675382108435002 22.70431595528002 1.4107720615141832
    vertex 0.9300566197614754 22.419615005667247 0.2107720615141834
    vertex 0.9300566197614754 22.419615005667247 1.4107720615141832
  endloop
endfacet
facet normal -0.9914448613738105 0.1305261922200513 0.0
  outer loop
    vertex 0.9300566197614754 22.419615005667247 0.2107720615141834
    vertex 0.9675382108435002 22.70431595528002 1.4107720615141832
    vertex 0.9675382108435002 22.70431595528002 0.2107720615141834
  endloop
endfacet
facet normal -0.9914448613738105 -0.13052619222005188 0.0
  outer loop
    vertex 0.9300566197614754 22.419615005667247 1.4107720615141832
    vertex 0.9675382108435004 22.134914056054473 0.2107720615141834
    vertex 0.9675382108435004 22.134914056054473 1.4107720615141832
  endloop
endfacet
facet normal -0.9914448613738105 -0.13052619222005188 0.0
  outer loop
    vertex 0.9675382108435004 22.134914056054473 0.2107720615141834
    vertex 0.9300566197614754 22.419615005667247 1.4107720615141832
    vertex 0.9300566197614754 22.419615005667247 0.2107720615141834
  endloop
endfacet
facet normal 0.0 -1.0 0.0
  outer loop
    vertex 2.8078740790666785 21.219615005667247 1.4107720615141832
    vertex 1.252239160456273 21.219615005667247 0.2107720615141834
    vertex 2.8078740790666785 21.219615005667247 0.2107720615141834
  endloop
endfacet
facet normal 0.0 -1.0 0.0
  outer loop
    vertex 1.252239160456273 21.219615005667247 0.2107720615141834
    vertex 2.8078740790666785 21.219615005667247 1.4107720615141832
    vertex 1.252239160456273 21.219615005667247 1.4107720615141832
  endloop
endfacet
facet normal 0.0 -1.0 0.0
  outer loop
    vertex 6.380056619761476 21.219615005667247 0.2107720615141834
    vertex -0.21994338023852464 21.219615005667247 -1.6892279384858166
    vertex 6.380056619761476 21.219615005667247 -1.6892279384858166
  endloop
endfacet
facet normal 0.0 -1.0 0.0
  outer loop
    vertex -0.21994338023852464 21.219615005667247 -1.6892279384858166
    vertex 6.380056619761476 21.219615005667247 0.2107720615141834
    vertex -0.21994338023852464 21.219615005667247 0.2107720615141834
  endloop
endfacet
facet normal 0.0 -1.0 0.0
  outer loop
    vertex -0.21994338023852464 21.219615005667247 0.2107720615141834
    vertex 6.380056619761476 21.219615005667247 0.2107720615141834
    vertex 2.8078740790666785 21.219615005667247 0.2107720615141834
  endloop
endfacet
facet normal 0.0 -1.0 0.0
  outer loop
    vertex -0.21994338023852464 21.219615005667247 0.2107720615141834
    vertex 2.8078740790666785 21.219615005667247 0.2107720615141834
    vertex 1.252239160456273 21.219615005667247 0.2107720615141834
  endloop
endfacet
facet normal 0.0 0.0 -1.0
  outer loop
    vertex 6.380056619761476 26.219615005667244 -1.6892279384858166
    vertex -0.21994338023852464 21.219615005667247 -1.6892279384858166
    vertex -0.21994338023852464 26.219615005667244 -1.6892279384858166
  endloop
endfacet
facet normal 0.0 0.0 -1.0
  outer loop
    vertex -0.21994338023852464 21.219615005667247 -1.6892279384858166
    vertex 6.380056619761476 26.219615005667244 -1.6892279384858166
    vertex 6.380056619761476 21.219615005667247 -1.6892279384858166
  endloop
endfacet
facet normal -1.0 0.0 0.0
  outer loop
    vertex -0.21994338023852464 26.219615005667244 0.2107720615141834
    vertex -0.21994338023852464 21.219615005667247 -1.6892279384858166
    vertex -0.21994338023852464 21.219615005667247 0.2107720615141834
  endloop
endfacet
facet normal -1.0 0.0 0.0
  outer loop
    vertex -0.21994338023852464 21.219615005667247 -1.6892279384858166
    vertex -0.21994338023852464 26.219615005667244 0.2107720615141834
    vertex -0.21994338023852464 26.219615005667244 -1.6892279384858166
  endloop
endfacet
facet normal 0.7786225287166008 -0.130164361393514 0.6138437885960767
  outer loop
    vertex 0.6175701498531196 21.869615005667246 4.410772061514183
    vertex 0.5089079524655855 21.219615005667247 4.410772061514183
    vertex 2.982684563924358 21.869615005667246 1.4107720615141832
  endloop
endfacet
facet normal 0.7762492536630214 -0.2087638590819156 0.5948569133235555
  outer loop
    vertex 2.982684563924358 21.869615005667246 1.4107720615141832
    vertex 0.5089079524655855 21.219615005667247 4.410772061514183
    vertex 2.8078740790666785 21.219615005667247 1.4107720615141832
  endloop
endfacet
facet normal -0.8554016506179107 -0.2202446686205437 -0.4688073186975442
  outer loop
    vertex -0.6350448232219389 22.134914056054473 4.410772061514183
    vertex 1.0774286755985931 21.869615005667246 1.4107720615141832
    vertex -0.5667369103301741 21.869615005667246 4.410772061514183
  endloop
endfacet
facet normal -0.828475542668309 -0.3431658058676241 -0.44256694960613013
  outer loop
    vertex 0.9675382108435004 22.134914056054473 1.4107720615141832
    vertex 1.0774286755985931 21.869615005667246 1.4107720615141832
    vertex -0.6350448232219389 22.134914056054473 4.410772061514183
  endloop
endfacet
facet normal -0.8814655344336895 0.07213490169278367 -0.466706618298158
  outer loop
    vertex -0.6350448232219389 22.70431595528002 4.410772061514183
    vertex 0.9300566197614754 22.419615005667247 1.4107720615141832
    vertex -0.6583433802385258 22.419615005667247 4.410772061514183
  endloop
endfacet
facet normal -0.8761499970905944 0.11534733537816586 -0.4680343735446237
  outer loop
    vertex 0.9675382108435002 22.70431595528002 1.4107720615141832
    vertex 0.9300566197614754 22.419615005667247 1.4107720615141832
    vertex -0.6350448232219389 22.70431595528002 4.410772061514183
  endloop
endfacet
facet normal -0.8090166587349367 0.385877044408124 -0.44338578291168695
  outer loop
    vertex -0.45807471294264024 23.197432464972447 4.410772061514183
    vertex 1.077428675598593 22.969615005667247 1.4107720615141832
    vertex -0.5667369103301746 22.969615005667247 4.410772061514183
  endloop
endfacet
facet normal -0.7228540047738504 0.5546653862316494 -0.4121024109355604
  outer loop
    vertex 1.252239160456273 23.197432464972447 1.4107720615141832
    vertex 1.077428675598593 22.969615005667247 1.4107720615141832
    vertex -0.45807471294264024 23.197432464972447 4.410772061514183
  endloop
endfacet
facet normal -0.8601352432944158 0.22146345110672166 -0.4594793826351266
  outer loop
    vertex -0.5667369103301746 22.969615005667247 4.410772061514183
    vertex 0.9675382108435002 22.70431595528002 1.4107720615141832
    vertex -0.6350448232219389 22.70431595528002 4.410772061514183
  endloop
endfacet
facet normal -0.8242431260352012 0.34141268149657694 -0.45173072742180864
  outer loop
    vertex 1.077428675598593 22.969615005667247 1.4107720615141832
    vertex 0.9675382108435002 22.70431595528002 1.4107720615141832
    vertex -0.5667369103301746 22.969615005667247 4.410772061514183
  endloop
endfacet
facet normal -0.8797485483630655 -0.0719943918071725 -0.46995669928344924
  outer loop
    vertex -0.6583433802385258 22.419615005667247 4.410772061514183
    vertex 0.9675382108435004 22.134914056054473 1.4107720615141832
    vertex -0.6350448232219389 22.134914056054473 4.410772061514183
  endloop
endfacet
facet normal -0.8778459590245077 -0.1155706130025793 -0.4647901737715099
  outer loop
    vertex 0.9300566197614754 22.419615005667247 1.4107720615141832
    vertex 0.9675382108435004 22.134914056054473 1.4107720615141832
    vertex -0.6583433802385258 22.419615005667247 4.410772061514183
  endloop
endfacet
facet normal -0.8597190778438428 -0.1437214832838407 -0.4901298220206816
  outer loop
    vertex -0.5667369103301741 21.869615005667246 4.410772061514183
    vertex 1.252239160456273 21.219615005667247 1.4107720615141832
    vertex -0.45807471294264024 21.219615005667247 4.410772061514183
  endloop
endfacet
facet normal -0.8535192549357637 -0.2295447919856722 -0.467775661964315
  outer loop
    vertex 1.0774286755985931 21.869615005667246 1.4107720615141832
    vertex 1.252239160456273 21.219615005667247 1.4107720615141832
    vertex -0.5667369103301741 21.869615005667246 4.410772061514183
  endloop
endfacet
facet normal 0.7467882012476523 -0.30932980117698505 0.5887465130097187
  outer loop
    vertex 3.092575028679451 22.134914056054473 1.4107720615141832
    vertex 0.6175701498531196 21.869615005667246 4.410772061514183
    vertex 2.982684563924358 21.869615005667246 1.4107720615141832
  endloop
endfacet
facet normal 0.7647481489534986 -0.19690364464782995 0.6135056832634874
  outer loop
    vertex 0.6858780627448836 22.134914056054473 4.410772061514183
    vertex 0.6175701498531196 21.869615005667246 4.410772061514183
    vertex 3.092575028679451 22.134914056054473 1.4107720615141832
  endloop
endfacet
facet normal 0.7759380883200756 -0.10215418730052622 0.6224826143043318
  outer loop
    vertex 3.1300566197614756 22.419615005667247 1.4107720615141832
    vertex 0.6858780627448836 22.134914056054473 4.410772061514183
    vertex 3.092575028679451 22.134914056054473 1.4107720615141832
  endloop
endfacet
facet normal 0.7766462777510568 -0.06355699764441995 0.6267224802939941
  outer loop
    vertex 0.7091766197614705 22.419615005667247 4.410772061514183
    vertex 0.6858780627448836 22.134914056054473 4.410772061514183
    vertex 3.1300566197614756 22.419615005667247 1.4107720615141832
  endloop
endfacet
facet normal 0.7741670896805735 0.10192103090641363 0.6247218746886369
  outer loop
    vertex 3.0925750286794504 22.70431595528002 1.4107720615141832
    vertex 0.7091766197614705 22.419615005667247 4.410772061514183
    vertex 3.1300566197614756 22.419615005667247 1.4107720615141832
  endloop
endfacet
facet normal 0.7784343846329427 0.0637033277153119 0.6244852238917487
  outer loop
    vertex 0.6858780627448827 22.70431595528002 4.410772061514183
    vertex 0.7091766197614705 22.419615005667247 4.410772061514183
    vertex 3.0925750286794504 22.70431595528002 1.4107720615141832
  endloop
endfacet
facet normal -0.37301395152677624 0.9005353407303192 -0.2233756747322947
  outer loop
    vertex -0.31646338023852655 23.37224294983013 4.410772061514183
    vertex 1.7453556701487025 23.48213341458522 1.4107720615141832
    vertex 1.4800566197614755 23.37224294983013 1.4107720615141832
  endloop
endfacet
facet normal -0.5232925382860089 0.7852921085804007 -0.33087946986105726
  outer loop
    vertex -0.15155349051782604 23.48213341458522 4.410772061514183
    vertex 1.7453556701487025 23.48213341458522 1.4107720615141832
    vertex -0.31646338023852655 23.37224294983013 4.410772061514183
  endloop
endfacet
facet normal 0.13003253663550407 0.9876951749372511 0.08688947474699905
  outer loop
    vertex 0.025416619761472796 23.519615005667244 4.410772061514183
    vertex 2.314757569374248 23.48213341458522 1.4107720615141832
    vertex 2.0300566197614756 23.519615005667244 1.4107720615141832
  endloop
endfacet
facet normal 0.2050293476440695 0.968050320586972 0.14436600505696617
  outer loop
    vertex 0.20238673004077212 23.48213341458522 4.410772061514183
    vertex 2.314757569374248 23.48213341458522 1.4107720615141832
    vertex 0.025416619761472796 23.519615005667244 4.410772061514183
  endloop
endfacet
facet normal 0.3695042117005184 0.8920620792413773 0.2601766406023592
  outer loop
    vertex 0.20238673004077212 23.48213341458522 4.410772061514183
    vertex 2.580056619761475 23.37224294983013 1.4107720615141832
    vertex 2.314757569374248 23.48213341458522 1.4107720615141832
  endloop
endfacet
facet normal 0.513255327566494 0.770229515874645 0.3785702862086787
  outer loop
    vertex 0.3672966197614737 23.37224294983013 4.410772061514183
    vertex 2.580056619761475 23.37224294983013 1.4107720615141832
    vertex 0.20238673004077212 23.48213341458522 4.410772061514183
  endloop
endfacet
facet normal 0.0 0.0 1.0
  outer loop
    vertex -0.21994338023852464 21.219615005667247 0.2107720615141834
    vertex 0.9675382108435004 22.134914056054473 0.2107720615141834
    vertex -0.21994338023852464 26.219615005667244 0.2107720615141834
  endloop
endfacet
facet normal 0.0 0.0 1.0
  outer loop
    vertex 0.9675382108435004 22.134914056054473 0.2107720615141834
    vertex -0.21994338023852464 21.219615005667247 0.2107720615141834
    vertex 1.252239160456273 21.219615005667247 0.2107720615141834
  endloop
endfacet
facet normal 0.0 0.0 1.0
  outer loop
    vertex -0.21994338023852464 26.219615005667244 0.2107720615141834
    vertex 0.9675382108435004 22.134914056054473 0.2107720615141834
    vertex 0.9300566197614754 22.419615005667247 0.2107720615141834
  endloop
endfacet
facet normal 0.0 0.0 1.0
  outer loop
    vertex 0.9675382108435004 22.134914056054473 0.2107720615141834
    vertex 1.252239160456273 21.219615005667247 0.2107720615141834
    vertex 1.0774286755985931 21.869615005667246 0.2107720615141834
  endloop
endfacet
facet normal 0.0 0.0 1.0
  outer loop
    vertex 6.380056619761476 21.219615005667247 0.2107720615141834
    vertex 2.982684563924358 21.869615005667246 0.2107720615141834
    vertex 2.8078740790666785 21.219615005667247 0.2107720615141834
  endloop
endfacet
facet normal 0.0 0.0 1.0
  outer loop
    vertex 2.982684563924358 21.869615005667246 0.2107720615141834
    vertex 6.380056619761476 21.219615005667247 0.2107720615141834
    vertex 3.092575028679451 22.134914056054473 0.2107720615141834
  endloop
endfacet
facet normal 0.0 0.0 1.0
  outer loop
    vertex 3.092575028679451 22.134914056054473 0.2107720615141834
    vertex 6.380056619761476 21.219615005667247 0.2107720615141834
    vertex 3.1300566197614756 22.419615005667247 0.2107720615141834
  endloop
endfacet
facet normal 0.0 0.0 1.0
  outer loop
    vertex -0.21994338023852464 26.219615005667244 0.2107720615141834
    vertex 1.4800566197614755 23.37224294983013 0.2107720615141834
    vertex 6.380056619761476 26.219615005667244 0.2107720615141834
  endloop
endfacet
facet normal 0.0 0.0 1.0
  outer loop
    vertex 1.4800566197614755 23.37224294983013 0.2107720615141834
    vertex -0.21994338023852464 26.219615005667244 0.2107720615141834
    vertex 1.252239160456273 23.197432464972447 0.2107720615141834
  endloop
endfacet
facet normal 0.0 0.0 1.0
  outer loop
    vertex 1.252239160456273 23.197432464972447 0.2107720615141834
    vertex -0.21994338023852464 26.219615005667244 0.2107720615141834
    vertex 1.077428675598593 22.969615005667247 0.2107720615141834
  endloop
endfacet
facet normal 0.0 0.0 1.0
  outer loop
    vertex 1.077428675598593 22.969615005667247 0.2107720615141834
    vertex -0.21994338023852464 26.219615005667244 0.2107720615141834
    vertex 0.9675382108435002 22.70431595528002 0.2107720615141834
  endloop
endfacet
facet normal 0.0 0.0 1.0
  outer loop
    vertex 0.9675382108435002 22.70431595528002 0.2107720615141834
    vertex -0.21994338023852464 26.219615005667244 0.2107720615141834
    vertex 0.9300566197614754 22.419615005667247 0.2107720615141834
  endloop
endfacet
facet normal 0.0 0.0 1.0
  outer loop
    vertex 6.380056619761476 26.219615005667244 0.2107720615141834
    vertex 1.4800566197614755 23.37224294983013 0.2107720615141834
    vertex 1.7453556701487025 23.48213341458522 0.2107720615141834
  endloop
endfacet
facet normal 0.0 0.0 1.0
  outer loop
    vertex 6.380056619761476 26.219615005667244 0.2107720615141834
    vertex 1.7453556701487025 23.48213341458522 0.2107720615141834
    vertex 2.0300566197614756 23.519615005667244 0.2107720615141834
  endloop
endfacet
facet normal 0.0 0.0 1.0
  outer loop
    vertex 6.380056619761476 26.219615005667244 0.2107720615141834
    vertex 2.0300566197614756 23.519615005667244 0.2107720615141834
    vertex 2.314757569374248 23.48213341458522 0.2107720615141834
  endloop
endfacet
facet normal 0.0 0.0 1.0
  outer loop
    vertex 6.380056619761476 26.219615005667244 0.2107720615141834
    vertex 2.314757569374248 23.48213341458522 0.2107720615141834
    vertex 2.580056619761475 23.37224294983013 0.2107720615141834
  endloop
endfacet
facet normal 0.0 0.0 1.0
  outer loop
    vertex 6.380056619761476 26.219615005667244 0.2107720615141834
    vertex 2.580056619761475 23.37224294983013 0.2107720615141834
    vertex 2.8078740790666776 23.197432464972447 0.2107720615141834
  endloop
endfacet
facet normal 0.0 0.0 1.0
  outer loop
    vertex 6.380056619761476 26.219615005667244 0.2107720615141834
    vertex 2.8078740790666776 23.197432464972447 0.2107720615141834
    vertex 2.982684563924358 22.969615005667247 0.2107720615141834
  endloop
endfacet
facet normal 0.0 0.0 1.0
  outer loop
    vertex 6.380056619761476 26.219615005667244 0.2107720615141834
    vertex 2.982684563924358 22.969615005667247 0.2107720615141834
    vertex 3.0925750286794504 22.70431595528002 0.2107720615141834
  endloop
endfacet
facet normal 0.0 0.0 1.0
  outer loop
    vertex 6.380056619761476 26.219615005667244 0.2107720615141834
    vertex 3.0925750286794504 22.70431595528002 0.2107720615141834
    vertex 3.1300566197614756 22.419615005667247 0.2107720615141834
  endloop
endfacet
facet normal 0.0 0.0 1.0
  outer loop
    vertex 6.380056619761476 26.219615005667244 0.2107720615141834
    vertex 3.1300566197614756 22.419615005667247 0.2107720615141834
    vertex 6.380056619761476 21.219615005667247 0.2107720615141834
  endloop
endfacet
facet normal 0.6726240558813495 0.5161225908416301 0.5302776166053461
  outer loop
    vertex 2.8078740790666776 23.197432464972447 1.4107720615141832
    vertex 0.6175701498531196 22.969615005667247 4.410772061514183
    vertex 2.982684563924358 22.969615005667247 1.4107720615141832
  endloop
endfacet
facet normal -0.5751102013799309 0.7494982066181523 -0.3278729853844461
  outer loop
    vertex -0.45807471294264024 23.197432464972447 4.410772061514183
    vertex 1.4800566197614755 23.37224294983013 1.4107720615141832
    vertex 1.252239160456273 23.197432464972447 1.4107720615141832
  endloop
endfacet
facet normal -0.7044967220090186 0.5707021507926096 -0.42188081700788127
  outer loop
    vertex 1.4800566197614755 23.37224294983013 1.4107720615141832
    vertex -0.45807471294264024 23.197432464972447 4.410772061514183
    vertex -0.31646338023852655 23.37224294983013 4.410772061514183
  endloop
endfacet
facet normal -0.13008390763635191 0.9880853764282037 -0.08225245201689818
  outer loop
    vertex -0.15155349051782604 23.48213341458522 4.410772061514183
    vertex 2.0300566197614756 23.519615005667244 1.4107720615141832
    vertex 1.7453556701487025 23.48213341458522 1.4107720615141832
  endloop
endfacet
facet normal -0.2052420503682346 0.9690546009141054 -0.13714547461672597
  outer loop
    vertex 0.025416619761472796 23.519615005667244 4.410772061514183
    vertex 2.0300566197614756 23.519615005667244 1.4107720615141832
    vertex -0.15155349051782604 23.48213341458522 4.410772061514183
  endloop
endfacet
facet normal 0.7697266899286777 0.19818549523404114 0.6068305630818864
  outer loop
    vertex 0.6175701498531196 22.969615005667247 4.410772061514183
    vertex 0.6858780627448827 22.70431595528002 4.410772061514183
    vertex 2.982684563924358 22.969615005667247 1.4107720615141832
  endloop
endfacet
facet normal 0.7422390357918478 0.30744547514771114 0.5954481451461463
  outer loop
    vertex 2.982684563924358 22.969615005667247 1.4107720615141832
    vertex 0.6858780627448827 22.70431595528002 4.410772061514183
    vertex 3.0925750286794504 22.70431595528002 1.4107720615141832
  endloop
endfacet
facet normal 0.7423206859012104 0.3540650358504192 0.5688567039873909
  outer loop
    vertex 0.5089079524655846 23.197432464972447 4.410772061514183
    vertex 0.6175701498531196 22.969615005667247 4.410772061514183
    vertex 2.8078740790666776 23.197432464972447 1.4107720615141832
  endloop
endfacet
facet normal 0.5553472996639499 0.7237426916609379 0.4096167636014668
  outer loop
    vertex 0.3672966197614737 23.37224294983013 4.410772061514183
    vertex 2.8078740790666776 23.197432464972447 1.4107720615141832
    vertex 2.580056619761475 23.37224294983013 1.4107720615141832
  endloop
endfacet
facet normal 0.667633654767788 0.5408399369566096 0.5116223857633446
  outer loop
    vertex 0.3672966197614737 23.37224294983013 4.410772061514183
    vertex 0.5089079524655846 23.197432464972447 4.410772061514183
    vertex 2.8078740790666776 23.197432464972447 1.4107720615141832
  endloop
endfacet
facet normal 0.0 0.0 1.0
  outer loop
    vertex -1.4356399065857344 22.134914056054473 9.410772061514182
    vertex -1.4356399065857344 22.70431595528002 9.410772061514182
    vertex -1.4583433802385242 22.419615005667247 9.410772061514182
  endloop
endfacet
facet normal 0.0 0.0 1.0
  outer loop
    vertex -1.4356399065857344 22.70431595528002 9.410772061514182
    vertex -1.4356399065857344 22.134914056054473 9.410772061514182
    vertex -1.369076689837539 21.869615005667246 9.410772061514182
  endloop
endfacet
facet normal 0.0 0.0 1.0
  outer loop
    vertex -1.4356399065857344 22.70431595528002 9.410772061514182
    vertex -1.369076689837539 21.869615005667246 9.410772061514182
    vertex -1.3690766898375395 22.969615005667247 9.410772061514182
  endloop
endfacet
facet normal 0.0 0.0 1.0
  outer loop
    vertex -1.3690766898375395 22.969615005667247 9.410772061514182
    vertex -1.369076689837539 21.869615005667246 9.410772061514182
    vertex -1.263189903214411 23.197432464972447 9.410772061514182
  endloop
endfacet
facet normal 0.0 0.0 1.0
  outer loop
    vertex -1.263189903214411 23.197432464972447 9.410772061514182
    vertex -1.369076689837539 21.869615005667246 9.410772061514182
    vertex -1.263189903214411 21.219615005667247 9.410772061514182
  endloop
endfacet
facet normal 0.0 0.0 1.0
  outer loop
    vertex -1.263189903214411 23.197432464972447 9.410772061514182
    vertex -1.263189903214411 21.219615005667247 9.410772061514182
    vertex -0.3209055612626419 21.219615005667247 9.410772061514182
  endloop
endfacet
facet normal 0.0 0.0 1.0
  outer loop
    vertex -1.263189903214411 23.197432464972447 9.410772061514182
    vertex -0.3209055612626419 21.219615005667247 9.410772061514182
    vertex -1.1251955562385247 23.37224294983013 9.410772061514182
  endloop
endfacet
facet normal 0.0 0.0 1.0
  outer loop
    vertex -1.1251955562385247 23.37224294983013 9.410772061514182
    vertex -0.3209055612626419 21.219615005667247 9.410772061514182
    vertex -0.9644977356098502 23.48213341458522 9.410772061514182
  endloop
endfacet
facet normal 0.0 0.0 1.0
  outer loop
    vertex -0.9644977356098502 23.48213341458522 9.410772061514182
    vertex -0.3209055612626419 21.219615005667247 9.410772061514182
    vertex -0.7920477322385254 23.519615005667244 9.410772061514182
  endloop
endfacet
facet normal 0.0 0.0 1.0
  outer loop
    vertex -0.7920477322385254 23.519615005667244 9.410772061514182
    vertex -0.3209055612626419 21.219615005667247 9.410772061514182
    vertex -0.6195977288672008 23.48213341458522 9.410772061514182
  endloop
endfacet
facet normal 0.0 0.0 1.0
  outer loop
    vertex -0.6195977288672008 23.48213341458522 9.410772061514182
    vertex -0.3209055612626419 21.219615005667247 9.410772061514182
    vertex -0.4588999082385246 23.37224294983013 9.410772061514182
  endloop
endfacet
facet normal 0.0 0.0 1.0
  outer loop
    vertex -0.4588999082385246 23.37224294983013 9.410772061514182
    vertex -0.3209055612626419 21.219615005667247 9.410772061514182
    vertex -0.32090556126264264 23.197432464972447 9.410772061514182
  endloop
endfacet
facet normal 0.0 0.0 1.0
  outer loop
    vertex -0.32090556126264264 23.197432464972447 9.410772061514182
    vertex -0.3209055612626419 21.219615005667247 9.410772061514182
    vertex -0.21501877463951202 22.969615005667247 9.410772061514182
  endloop
endfacet
facet normal 0.0 0.0 1.0
  outer loop
    vertex -0.21501877463951202 22.969615005667247 9.410772061514182
    vertex -0.3209055612626419 21.219615005667247 9.410772061514182
    vertex -0.21501877463951202 21.869615005667246 9.410772061514182
  endloop
endfacet
facet normal 0.0 0.0 1.0
  outer loop
    vertex -0.21501877463951202 22.969615005667247 9.410772061514182
    vertex -0.21501877463951202 21.869615005667246 9.410772061514182
    vertex -0.14845555789131792 22.134914056054473 9.410772061514182
  endloop
endfacet
facet normal 0.0 0.0 1.0
  outer loop
    vertex -0.21501877463951202 22.969615005667247 9.410772061514182
    vertex -0.14845555789131792 22.134914056054473 9.410772061514182
    vertex -0.14845555789131837 22.70431595528002 9.410772061514182
  endloop
endfacet
facet normal 0.0 0.0 1.0
  outer loop
    vertex -0.14845555789131837 22.70431595528002 9.410772061514182
    vertex -0.14845555789131792 22.134914056054473 9.410772061514182
    vertex -0.1257520842385276 22.419615005667247 9.410772061514182
  endloop
endfacet
facet normal -0.9583978986383188 -0.24046089484664226 -0.1537921517347581
  outer loop
    vertex -1.4356399065857344 22.134914056054473 9.410772061514182
    vertex -0.5667369103301741 21.869615005667246 4.410772061514183
    vertex -1.369076689837539 21.869615005667246 9.410772061514182
  endloop
endfacet
facet normal -0.9569787455086598 -0.24639824640179964 -0.15323049570757724
  outer loop
    vertex -0.6350448232219389 22.134914056054473 4.410772061514183
    vertex -0.5667369103301741 21.869615005667246 4.410772061514183
    vertex -1.4356399065857344 22.134914056054473 9.410772061514182
  endloop
endfacet
facet normal -0.9747562297340626 -0.15879046908833228 -0.15695820947418668
  outer loop
    vertex -1.369076689837539 21.869615005667246 9.410772061514182
    vertex -0.45807471294264024 21.219615005667247 4.410772061514183
    vertex -1.263189903214411 21.219615005667247 9.410772061514182
  endloop
endfacet
facet normal -0.9741867109564859 -0.16285733642810188 -0.15632575017356642
  outer loop
    vertex -0.5667369103301741 21.869615005667246 4.410772061514183
    vertex -0.45807471294264024 21.219615005667247 4.410772061514183
    vertex -1.369076689837539 21.869615005667246 9.410772061514182
  endloop
endfacet
facet normal 0.9733586139569416 -0.16271890129022445 0.16154122631304937
  outer loop
    vertex 0.6175701498531196 21.869615005667246 4.410772061514183
    vertex -0.3209055612626419 21.219615005667247 9.410772061514182
    vertex 0.5089079524655855 21.219615005667247 4.410772061514183
  endloop
endfacet
facet normal 0.97392386316563 -0.15865487428645153 0.16217564435415616
  outer loop
    vertex -0.21501877463951202 21.869615005667246 9.410772061514182
    vertex -0.3209055612626419 21.219615005667247 9.410772061514182
    vertex 0.6175701498531196 21.869615005667246 4.410772061514183
  endloop
endfacet
facet normal 0.9560641786562243 -0.24616276816394175 0.15920168925066341
  outer loop
    vertex 0.6858780627448836 22.134914056054473 4.410772061514183
    vertex -0.21501877463951202 21.869615005667246 9.410772061514182
    vertex 0.6175701498531196 21.869615005667246 4.410772061514183
  endloop
endfacet
facet normal 0.9574773009857287 -0.24022991798864365 0.15977110064168024
  outer loop
    vertex -0.14845555789131792 22.134914056054473 9.410772061514182
    vertex -0.21501877463951202 21.869615005667246 9.410772061514182
    vertex 0.6858780627448836 22.134914056054473 4.410772061514183
  endloop
endfacet
facet normal 0.9831641658592686 -0.08045742877251631 0.16405738363622688
  outer loop
    vertex 0.7091766197614705 22.419615005667247 4.410772061514183
    vertex -0.14845555789131792 22.134914056054473 9.410772061514182
    vertex 0.6858780627448836 22.134914056054473 4.410772061514183
  endloop
endfacet
facet normal 0.9833057976365539 -0.07841370848829816 0.16419804705127447
  outer loop
    vertex -0.1257520842385276 22.419615005667247 9.410772061514182
    vertex -0.14845555789131792 22.134914056054473 9.410772061514182
    vertex 0.7091766197614705 22.419615005667247 4.410772061514183
  endloop
endfacet
facet normal 0.9831452860322962 0.08045588373824329 0.1641712439021305
  outer loop
    vertex 0.6858780627448827 22.70431595528002 4.410772061514183
    vertex -0.1257520842385276 22.419615005667247 9.410772061514182
    vertex 0.7091766197614705 22.419615005667247 4.410772061514183
  endloop
endfacet
facet normal 0.983324686712366 0.07841521479741187 0.16408416922513727
  outer loop
    vertex -0.14845555789131837 22.70431595528002 9.410772061514182
    vertex -0.1257520842385276 22.419615005667247 9.410772061514182
    vertex 0.6858780627448827 22.70431595528002 4.410772061514183
  endloop
endfacet
facet normal 0.9560133519784307 0.24614968155743341 0.15952681626654297
  outer loop
    vertex 0.6175701498531196 22.969615005667247 4.410772061514183
    vertex -0.14845555789131837 22.70431595528002 9.410772061514182
    vertex 0.6858780627448827 22.70431595528002 4.410772061514183
  endloop
endfacet
facet normal 0.9575283615273296 0.24024272901790727 0.15944550173904623
  outer loop
    vertex -0.21501877463951202 22.969615005667247 9.410772061514182
    vertex -0.14845555789131837 22.70431595528002 9.410772061514182
    vertex 0.6175701498531196 22.969615005667247 4.410772061514183
  endloop
endfacet
facet normal 0.8925622602495942 0.4257258280366193 0.14862749046078438
  outer loop
    vertex 0.5089079524655846 23.197432464972447 4.410772061514183
    vertex -0.21501877463951202 22.969615005667247 9.410772061514182
    vertex 0.6175701498531196 22.969615005667247 4.410772061514183
  endloop
endfacet
facet normal 0.8967360799941145 0.41679203274931526 0.1488247434853586
  outer loop
    vertex -0.32090556126264264 23.197432464972447 9.410772061514182
    vertex -0.21501877463951202 22.969615005667247 9.410772061514182
    vertex 0.5089079524655846 23.197432464972447 4.410772061514183
  endloop
endfacet
facet normal 0.7706499921028859 0.6242919154360265 0.1278991555603053
  outer loop
    vertex 0.3672966197614737 23.37224294983013 4.410772061514183
    vertex -0.32090556126264264 23.197432464972447 9.410772061514182
    vertex 0.5089079524655846 23.197432464972447 4.410772061514183
  endloop
endfacet
facet normal 0.7783935362566289 0.6144591831172493 0.12862120741457353
  outer loop
    vertex -0.4588999082385246 23.37224294983013 9.410772061514182
    vertex -0.32090556126264264 23.197432464972447 9.410772061514182
    vertex 0.3672966197614737 23.37224294983013 4.410772061514183
  endloop
endfacet
facet normal 0.5522374205582605 0.8287289741368326 0.09078611546526331
  outer loop
    vertex -0.6195977288672008 23.48213341458522 9.410772061514182
    vertex 0.3672966197614737 23.37224294983013 4.410772061514183
    vertex 0.20238673004077212 23.48213341458522 4.410772061514183
  endloop
endfacet
facet normal 0.5620321091534609 0.8218850949951464 0.09286979544142107
  outer loop
    vertex -0.4588999082385246 23.37224294983013 9.410772061514182
    vertex 0.3672966197614737 23.37224294983013 4.410772061514183
    vertex -0.6195977288672008 23.48213341458522 9.410772061514182
  endloop
endfacet
facet normal 0.2070811141621074 0.9777377787893429 0.03385628575999296
  outer loop
    vertex -0.7920477322385254 23.519615005667244 9.410772061514182
    vertex 0.20238673004077212 23.48213341458522 4.410772061514183
    vertex 0.025416619761472796 23.519615005667244 4.410772061514183
  endloop
endfacet
facet normal 0.21225949969816982 0.9765901174910379 0.03489480200149549
  outer loop
    vertex -0.6195977288672008 23.48213341458522 9.410772061514182
    vertex 0.20238673004077212 23.48213341458522 4.410772061514183
    vertex -0.7920477322385254 23.519615005667244 9.410772061514182
  endloop
endfacet
facet normal -0.2070824230448922 0.9777439587065762 -0.0336692928148114
  outer loop
    vertex -0.9644977356098502 23.48213341458522 9.410772061514182
    vertex 0.025416619761472796 23.519615005667244 4.410772061514183
    vertex -0.15155349051782604 23.48213341458522 4.410772061514183
  endloop
endfacet
facet normal -0.2122609170651837 0.9765966386909074 -0.03470314660472318
  outer loop
    vertex -0.7920477322385254 23.519615005667244 9.410772061514182
    vertex 0.025416619761472796 23.519615005667244 4.410772061514183
    vertex -0.9644977356098502 23.48213341458522 9.410772061514182
  endloop
endfacet
facet normal -0.552310225786664 0.8288382311338952 -0.08933421014549994
  outer loop
    vertex -1.1251955562385247 23.37224294983013 9.410772061514182
    vertex -0.15155349051782604 23.48213341458522 4.410772061514183
    vertex -0.31646338023852655 23.37224294983013 4.410772061514183
  endloop
endfacet
facet normal -0.5621092545012891 0.8219979081431542 -0.09139269671195828
  outer loop
    vertex -0.9644977356098502 23.48213341458522 9.410772061514182
    vertex -0.15155349051782604 23.48213341458522 4.410772061514183
    vertex -1.1251955562385247 23.37224294983013 9.410772061514182
  endloop
endfacet
facet normal -0.7787181256802042 0.6147154120590166 -0.12539155838501886
  outer loop
    vertex -1.1251955562385247 23.37224294983013 9.410772061514182
    vertex -0.45807471294264024 23.197432464972447 4.410772061514183
    vertex -1.263189903214411 23.197432464972447 9.410772061514182
  endloop
endfacet
facet normal -0.7709663842087461 0.6245482199008678 -0.12470106430479794
  outer loop
    vertex -0.31646338023852655 23.37224294983013 4.410772061514183
    vertex -0.45807471294264024 23.197432464972447 4.410772061514183
    vertex -1.1251955562385247 23.37224294983013 9.410772061514182
  endloop
endfacet
facet normal -0.8973834799669784 0.4170929363894215 -0.14400129269005146
  outer loop
    vertex -1.263189903214411 23.197432464972447 9.410772061514182
    vertex -0.5667369103301746 22.969615005667247 4.410772061514183
    vertex -1.3690766898375395 22.969615005667247 9.410772061514182
  endloop
endfacet
facet normal -0.8932028293942461 0.4260313605934666 -0.14382623318780646
  outer loop
    vertex -0.45807471294264024 23.197432464972447 4.410772061514183
    vertex -0.5667369103301746 22.969615005667247 4.410772061514183
    vertex -1.263189903214411 23.197432464972447 9.410772061514182
  endloop
endfacet
facet normal -0.9584471407535068 0.24047324963487796 -0.1534656137102691
  outer loop
    vertex -1.3690766898375395 22.969615005667247 9.410772061514182
    vertex -0.6350448232219389 22.70431595528002 4.410772061514183
    vertex -1.4356399065857344 22.70431595528002 9.410772061514182
  endloop
endfacet
facet normal -0.9569297293604594 0.2463856259616723 -0.15355655761182266
  outer loop
    vertex -0.5667369103301746 22.969615005667247 4.410772061514183
    vertex -0.6350448232219389 22.70431595528002 4.410772061514183
    vertex -1.3690766898375395 22.969615005667247 9.410772061514182
  endloop
endfacet
facet normal -0.9843934677723116 0.07850044472961688 -0.15750295484356955
  outer loop
    vertex -1.4356399065857344 22.70431595528002 9.410772061514182
    vertex -0.6583433802385258 22.419615005667247 4.410772061514183
    vertex -1.4583433802385242 22.419615005667247 9.410772061514182
  endloop
endfacet
facet normal -0.9842142607471045 0.08054336348980479 -0.15759141962613288
  outer loop
    vertex -0.6350448232219389 22.70431595528002 4.410772061514183
    vertex -0.6583433802385258 22.419615005667247 4.410772061514183
    vertex -1.4356399065857344 22.70431595528002 9.410772061514182
  endloop
endfacet
facet normal -0.9843752965798769 -0.07849899566810564 -0.1576172045253255
  outer loop
    vertex -1.4583433802385242 22.419615005667247 9.410772061514182
    vertex -0.6350448232219389 22.134914056054473 4.410772061514183
    vertex -1.4356399065857344 22.134914056054473 9.410772061514182
  endloop
endfacet
facet normal -0.9842324230228532 -0.08054484980313811 -0.15747718768365623
  outer loop
    vertex -0.6583433802385258 22.419615005667247 4.410772061514183
    vertex -0.6350448232219389 22.134914056054473 4.410772061514183
    vertex -1.4583433802385242 22.419615005667247 9.410772061514182
  endloop
endfacet
facet normal 0.0 -1.0 0.0
  outer loop
    vertex 0.5089079524655855 21.219615005667247 4.410772061514183
    vertex 1.252239160456273 21.219615005667247 1.4107720615141832
    vertex 2.8078740790666785 21.219615005667247 1.4107720615141832
  endloop
endfacet
facet normal 0.0 -1.0 0.0
  outer loop
    vertex 1.252239160456273 21.219615005667247 1.4107720615141832
    vertex 0.5089079524655855 21.219615005667247 4.410772061514183
    vertex -0.45807471294264024 21.219615005667247 4.410772061514183
  endloop
endfacet
facet normal 0.0 -1.0 0.0
  outer loop
    vertex -0.45807471294264024 21.219615005667247 4.410772061514183
    vertex 0.5089079524655855 21.219615005667247 4.410772061514183
    vertex -0.3209055612626419 21.219615005667247 9.410772061514182
  endloop
endfacet
facet normal 0.0 -1.0 0.0
  outer loop
    vertex -0.45807471294264024 21.219615005667247 4.410772061514183
    vertex -0.3209055612626419 21.219615005667247 9.410772061514182
    vertex -1.263189903214411 21.219615005667247 9.410772061514182
  endloop
endfacet
endsolid Keyboard_CapsLockLED
