solid Keyboard_Guide
facet normal 0.4257970363298802 0.9048187022009938 0.0
  outer loop
    vertex 12.650000000000002 3.6999999999999997 4.3
    vertex 13.5 3.2999999999999994 3.1
    vertex 12.650000000000002 3.6999999999999997 3.1
  endloop
endfacet
facet normal 0.4257970363298802 0.9048187022009938 0.0
  outer loop
    vertex 13.5 3.2999999999999994 3.1
    vertex 12.650000000000002 3.6999999999999997 4.3
    vertex 13.5 3.2999999999999994 4.3
  endloop
endfacet
facet normal 0.0 0.0 1.0
  outer loop
    vertex 13.5 2.8999999999999995 4.3
    vertex 11.150000000000002 4.750120553625207 4.3
    vertex 11.150000000000002 2.8999999999999986 4.3
  endloop
endfacet
facet normal 0.0 0.0 1.0
  outer loop
    vertex 11.150000000000002 4.750120553625207 4.3
    vertex 13.5 2.8999999999999995 4.3
    vertex 12.650000000000002 3.6999999999999997 4.3
  endloop
endfacet
facet normal 0.0 0.0 1.0
  outer loop
    vertex 12.650000000000002 3.6999999999999997 4.3
    vertex 13.5 2.8999999999999995 4.3
    vertex 13.5 3.2999999999999994 4.3
  endloop
endfacet
facet normal 0.0 0.0 1.0
  outer loop
    vertex 12.650000000000002 4.750120553625207 4.3
    vertex 11.150000000000002 4.750120553625207 4.3
    vertex 12.650000000000002 3.6999999999999997 4.3
  endloop
endfacet
facet normal 1.0 0.0 0.0
  outer loop
    vertex 1.7500000000000013 4.499999999999999 0.10000000000000002
    vertex 1.7500000000000013 2.8999999999999986 3.1
    vertex 1.7500000000000013 2.8999999999999986 0.10000000000000002
  endloop
endfacet
facet normal 1.0 0.0 0.0
  outer loop
    vertex 1.7500000000000013 2.8999999999999986 3.1
    vertex 1.7500000000000013 4.499999999999999 0.10000000000000002
    vertex 1.7500000000000013 2.8999999999999986 4.3
  endloop
endfacet
facet normal 1.0 0.0 0.0
  outer loop
    vertex 1.7500000000000013 2.8999999999999986 4.3
    vertex 1.7500000000000013 4.499999999999999 0.10000000000000002
    vertex 1.7500000000000013 4.499999999999999 4.3
  endloop
endfacet
facet normal 1.0 0.0 0.0
  outer loop
    vertex 1.7500000000000013 4.499999999999999 4.3
    vertex 1.7500000000000013 4.499999999999999 0.10000000000000002
    vertex 1.7500000000000013 4.499999999999999 3.1
  endloop
endfacet
facet normal 0.0 -1.0 0.0
  outer loop
    vertex 1.4099832412739487e-15 2.8999999999999986 3.1
    vertex -0.9999999999999986 2.8999999999999986 0.10000000000000002
    vertex 1.4099832412739487e-15 2.8999999999999986 0.10000000000000002
  endloop
endfacet
facet normal 0.0 -1.0 0.0
  outer loop
    vertex -0.9999999999999986 2.8999999999999986 0.10000000000000002
    vertex 1.4099832412739487e-15 2.8999999999999986 3.1
    vertex -0.9999999999999986 2.8999999999999986 4.3
  endloop
endfacet
facet normal 0.0 -1.0 0.0
  outer loop
    vertex -0.9999999999999986 2.8999999999999986 4.3
    vertex 1.4099832412739487e-15 2.8999999999999986 3.1
    vertex 1.4099832412739487e-15 2.8999999999999986 4.3
  endloop
endfacet
facet normal 1.0 0.0 0.0
  outer loop
    vertex 12.650000000000002 4.750120553625207 3.1
    vertex 12.650000000000002 3.6999999999999997 4.3
    vertex 12.650000000000002 3.6999999999999997 3.1
  endloop
endfacet
facet normal 1.0 0.0 0.0
  outer loop
    vertex 12.650000000000002 3.6999999999999997 4.3
    vertex 12.650000000000002 4.750120553625207 3.1
    vertex 12.650000000000002 4.750120553625207 4.3
  endloop
endfacet
facet normal 1.0 0.0 0.0
  outer loop
    vertex 13.5 3.2999999999999994 3.1
    vertex 13.5 2.8999999999999995 4.3
    vertex 13.5 2.8999999999999995 3.1
  endloop
endfacet
facet normal 1.0 0.0 0.0
  outer loop
    vertex 13.5 2.8999999999999995 4.3
    vertex 13.5 3.2999999999999994 3.1
    vertex 13.5 3.2999999999999994 4.3
  endloop
endfacet
facet normal 4.499946514704095e-16 -1.0 0.0
  outer loop
    vertex 13.5 2.8999999999999995 4.3
    vertex 11.150000000000002 2.8999999999999986 3.1
    vertex 13.5 2.8999999999999995 3.1
  endloop
endfacet
facet normal 4.499946514704095e-16 -1.0 0.0
  outer loop
    vertex 11.150000000000002 2.8999999999999986 3.1
    vertex 13.5 2.8999999999999995 4.3
    vertex 11.150000000000002 2.8999999999999986 4.3
  endloop
endfacet
facet normal 0.0 0.0 1.0
  outer loop
    vertex 1.4099832412739487e-15 2.8999999999999986 4.3
    vertex -0.9999999999999986 4.499999999999999 4.3
    vertex -0.9999999999999986 2.8999999999999986 4.3
  endloop
endfacet
facet normal 0.0 0.0 1.0
  outer loop
    vertex -0.9999999999999986 4.499999999999999 4.3
    vertex 1.4099832412739487e-15 2.8999999999999986 4.3
    vertex 1.4099832412739487e-15 4.499999999999999 4.3
  endloop
endfacet
facet normal 0.0 0.0 1.0
  outer loop
    vertex 1.4099832412739487e-15 4.499999999999999 4.3
    vertex 1.4099832412739487e-15 2.8999999999999986 4.3
    vertex 1.7500000000000013 2.8999999999999986 4.3
  endloop
endfacet
facet normal 0.0 0.0 1.0
  outer loop
    vertex 1.4099832412739487e-15 4.499999999999999 4.3
    vertex 1.7500000000000013 2.8999999999999986 4.3
    vertex 1.7500000000000013 4.499999999999999 4.3
  endloop
endfacet
facet normal 0.0 -1.0 0.0
  outer loop
    vertex 1.7500000000000013 2.8999999999999986 4.3
    vertex 1.4099832412739487e-15 2.8999999999999986 3.1
    vertex 1.7500000000000013 2.8999999999999986 3.1
  endloop
endfacet
facet normal 0.0 -1.0 0.0
  outer loop
    vertex 1.4099832412739487e-15 2.8999999999999986 3.1
    vertex 1.7500000000000013 2.8999999999999986 4.3
    vertex 1.4099832412739487e-15 2.8999999999999986 4.3
  endloop
endfacet
facet normal 0.0 1.0 0.0
  outer loop
    vertex -0.9999999999999986 4.499999999999999 4.3
    vertex 1.4099832412739487e-15 4.499999999999999 0.10000000000000002
    vertex -0.9999999999999986 4.499999999999999 0.10000000000000002
  endloop
endfacet
facet normal 0.0 1.0 0.0
  outer loop
    vertex 1.4099832412739487e-15 4.499999999999999 0.10000000000000002
    vertex -0.9999999999999986 4.499999999999999 4.3
    vertex 1.4099832412739487e-15 4.499999999999999 3.1
  endloop
endfacet
facet normal 0.0 1.0 0.0
  outer loop
    vertex 1.4099832412739487e-15 4.499999999999999 3.1
    vertex -0.9999999999999986 4.499999999999999 4.3
    vertex 1.4099832412739487e-15 4.499999999999999 4.3
  endloop
endfacet
facet normal -1.0 0.0 0.0
  outer loop
    vertex 1.4099832412739487e-15 5.0 3.1
    vertex 1.4099832412739487e-15 4.499999999999999 0.10000000000000002
    vertex 1.4099832412739487e-15 4.499999999999999 3.1
  endloop
endfacet
facet normal -1.0 0.0 0.0
  outer loop
    vertex 1.4099832412739487e-15 4.499999999999999 0.10000000000000002
    vertex 1.4099832412739487e-15 5.0 3.1
    vertex 1.4099832412739487e-15 5.0 0.10000000000000002
  endloop
endfacet
facet normal 0.0 1.0 0.0
  outer loop
    vertex 0.46142857142857285 6.699999999999999 3.1
    vertex 1.6400000000000012 6.699999999999999 0.10000000000000002
    vertex 0.46142857142857285 6.699999999999999 0.10000000000000002
  endloop
endfacet
facet normal 0.0 1.0 0.0
  outer loop
    vertex 1.6400000000000012 6.699999999999999 0.10000000000000002
    vertex 0.46142857142857285 6.699999999999999 3.1
    vertex 1.6400000000000012 6.699999999999999 3.1
  endloop
endfacet
facet normal -0.9650812745905352 0.261950631674574 0.0
  outer loop
    vertex 0.46142857142857285 6.699999999999999 3.1
    vertex 1.4099832412739487e-15 5.0 0.10000000000000002
    vertex 1.4099832412739487e-15 5.0 3.1
  endloop
endfacet
facet normal -0.9650812745905352 0.261950631674574 0.0
  outer loop
    vertex 1.4099832412739487e-15 5.0 0.10000000000000002
    vertex 0.46142857142857285 6.699999999999999 3.1
    vertex 0.46142857142857285 6.699999999999999 0.10000000000000002
  endloop
endfacet
facet normal 0.9987523388778446 0.04993761694389225 1.5524692328135171e-18
  outer loop
    vertex 1.6400000000000012 6.699999999999999 0.10000000000000002
    vertex 1.7500000000000013 4.499999999999999 3.1
    vertex 1.7500000000000013 4.499999999999999 0.10000000000000002
  endloop
endfacet
facet normal 0.9987523388778446 0.04993761694389225 1.5524692328135171e-18
  outer loop
    vertex 1.7500000000000013 4.499999999999999 3.1
    vertex 1.6400000000000012 6.699999999999999 0.10000000000000002
    vertex 1.6400000000000012 6.699999999999999 3.1
  endloop
endfacet
facet normal 4.309675369676581e-17 0.47885213068057314 0.8778955729143844
  outer loop
    vertex 1.7500000000000013 4.499999999999999 4.3
    vertex 0.46142857142857285 6.699999999999999 3.1
    vertex 1.4099832412739487e-15 4.499999999999999 4.3
  endloop
endfacet
facet normal 4.309675369676581e-17 0.47885213068057314 0.8778955729143844
  outer loop
    vertex 0.46142857142857285 6.699999999999999 3.1
    vertex 1.7500000000000013 4.499999999999999 4.3
    vertex 1.6400000000000012 6.699999999999999 3.1
  endloop
endfacet
facet normal 0.0 0.0 1.0
  outer loop
    vertex 15.1 2.8999999999999995 3.1
    vertex 13.5 3.2999999999999994 3.1
    vertex 13.5 2.8999999999999995 3.1
  endloop
endfacet
facet normal 0.0 0.0 1.0
  outer loop
    vertex 13.5 3.2999999999999994 3.1
    vertex 15.1 2.8999999999999995 3.1
    vertex 13.659362951849143 3.7439377629836565 3.1
  endloop
endfacet
facet normal 0.0 0.0 1.0
  outer loop
    vertex 13.659362951849143 3.7439377629836565 3.1
    vertex 15.1 2.8999999999999995 3.1
    vertex 13.864949475337312 3.694477555710207 3.1
  endloop
endfacet
facet normal 0.0 0.0 1.0
  outer loop
    vertex 13.864949475337312 3.694477555710207 3.1
    vertex 15.1 2.8999999999999995 3.1
    vertex 14.076332051528606 3.6999123718263265 3.1
  endloop
endfacet
facet normal 0.0 0.0 1.0
  outer loop
    vertex 14.076332051528606 3.6999123718263265 3.1
    vertex 15.1 2.8999999999999995 3.1
    vertex 14.279105307181814 3.7598718375951603 3.1
  endloop
endfacet
facet normal 0.0 0.0 1.0
  outer loop
    vertex 14.279105307181814 3.7598718375951603 3.1
    vertex 15.1 2.8999999999999995 3.1
    vertex 14.459450580022812 3.8702698145122643 3.1
  endloop
endfacet
facet normal 0.0 0.0 1.0
  outer loop
    vertex 14.459450580022812 3.8702698145122643 3.1
    vertex 15.1 2.8999999999999995 3.1
    vertex 14.605077637742152 4.023582862892021 3.1
  endloop
endfacet
facet normal 0.0 0.0 1.0
  outer loop
    vertex 14.605077637742152 4.023582862892021 3.1
    vertex 15.1 2.8999999999999995 3.1
    vertex 15.1 4.023582862892021 3.1
  endloop
endfacet
facet normal 0.0 0.0 1.0
  outer loop
    vertex 13.5 3.2999999999999994 3.1
    vertex 12.650000000000002 4.750120553625207 3.1
    vertex 12.650000000000002 3.6999999999999997 3.1
  endloop
endfacet
facet normal 0.0 0.0 1.0
  outer loop
    vertex 12.650000000000002 4.750120553625207 3.1
    vertex 13.5 3.2999999999999994 3.1
    vertex 13.20987183759516 4.170894692818186 3.1
  endloop
endfacet
facet normal 0.0 0.0 1.0
  outer loop
    vertex 12.650000000000002 4.750120553625207 3.1
    vertex 13.20987183759516 4.170894692818186 3.1
    vertex 13.149912371826327 4.373667948471391 3.1
  endloop
endfacet
facet normal 0.0 0.0 1.0
  outer loop
    vertex 12.650000000000002 4.750120553625207 3.1
    vertex 13.149912371826327 4.373667948471391 3.1
    vertex 12.664061303750602 6.699999999999999 3.1
  endloop
endfacet
facet normal 0.0 0.0 1.0
  outer loop
    vertex 12.664061303750602 6.699999999999999 3.1
    vertex 13.149912371826327 4.373667948471391 3.1
    vertex 13.144477555710209 4.5850505246626865 3.1
  endloop
endfacet
facet normal 0.0 0.0 1.0
  outer loop
    vertex 13.20987183759516 4.170894692818186 3.1
    vertex 13.5 3.2999999999999994 3.1
    vertex 13.320269814512265 3.9905494199771843 3.1
  endloop
endfacet
facet normal 0.0 0.0 1.0
  outer loop
    vertex 13.320269814512265 3.9905494199771843 3.1
    vertex 13.5 3.2999999999999994 3.1
    vertex 13.473582862892021 3.8449223622578472 3.1
  endloop
endfacet
facet normal 0.0 0.0 1.0
  outer loop
    vertex 13.473582862892021 3.8449223622578472 3.1
    vertex 13.5 3.2999999999999994 3.1
    vertex 13.659362951849143 3.7439377629836565 3.1
  endloop
endfacet
facet normal 0.0 0.0 1.0
  outer loop
    vertex 13.144477555710209 4.5850505246626865 3.1
    vertex 13.4640613037506 6.699999999999999 3.1
    vertex 12.664061303750602 6.699999999999999 3.1
  endloop
endfacet
facet normal 0.0 0.0 1.0
  outer loop
    vertex 13.4640613037506 6.699999999999999 3.1
    vertex 13.144477555710209 4.5850505246626865 3.1
    vertex 13.193937762983659 4.790637048150857 3.1
  endloop
endfacet
facet normal 0.0 0.0 1.0
  outer loop
    vertex 13.4640613037506 6.699999999999999 3.1
    vertex 13.193937762983659 4.790637048150857 3.1
    vertex 13.294922362257848 4.976417137107977 3.1
  endloop
endfacet
facet normal 0.0 0.0 1.0
  outer loop
    vertex 13.4640613037506 6.699999999999999 3.1
    vertex 13.294922362257848 4.976417137107977 3.1
    vertex 13.440549419977184 5.129730185487734 3.1
  endloop
endfacet
facet normal 0.0 0.0 1.0
  outer loop
    vertex 13.4640613037506 6.699999999999999 3.1
    vertex 13.440549419977184 5.129730185487734 3.1
    vertex 13.620894692818187 5.2401281624048375 3.1
  endloop
endfacet
facet normal 0.0 0.0 1.0
  outer loop
    vertex 13.4640613037506 6.699999999999999 3.1
    vertex 13.620894692818187 5.2401281624048375 3.1
    vertex 14.650532187314935 6.030365875434037 3.1
  endloop
endfacet
facet normal 0.0 0.0 1.0
  outer loop
    vertex 14.650532187314935 6.030365875434037 3.1
    vertex 13.620894692818187 5.2401281624048375 3.1
    vertex 13.823667948471392 5.300087628173671 3.1
  endloop
endfacet
facet normal 0.0 0.0 1.0
  outer loop
    vertex 14.650532187314935 6.030365875434037 3.1
    vertex 13.823667948471392 5.300087628173671 3.1
    vertex 14.035050524662688 5.305522444289791 3.1
  endloop
endfacet
facet normal 0.0 0.0 1.0
  outer loop
    vertex 14.650532187314935 6.030365875434037 3.1
    vertex 14.035050524662688 5.305522444289791 3.1
    vertex 14.240637048150857 5.256062237016341 3.1
  endloop
endfacet
facet normal 0.0 0.0 1.0
  outer loop
    vertex 14.650532187314935 6.030365875434037 3.1
    vertex 14.240637048150857 5.256062237016341 3.1
    vertex 14.426417137107977 5.15507763774215 3.1
  endloop
endfacet
facet normal 0.0 0.0 1.0
  outer loop
    vertex 14.650532187314935 6.030365875434037 3.1
    vertex 14.426417137107977 5.15507763774215 3.1
    vertex 14.579730185487733 5.009450580022813 3.1
  endloop
endfacet
facet normal 0.0 0.0 1.0
  outer loop
    vertex 14.650532187314935 6.030365875434037 3.1
    vertex 14.579730185487733 5.009450580022813 3.1
    vertex 15.0 5.009450580022813 3.1
  endloop
endfacet
facet normal 0.0 0.0 1.0
  outer loop
    vertex 14.650532187314935 6.030365875434037 3.1
    vertex 15.0 5.009450580022813 3.1
    vertex 15.0 5.556022689475643 3.1
  endloop
endfacet
facet normal -0.9390154682768609 0.3438749050698347 4.535144872150538e-17
  outer loop
    vertex 11.8640613037506 6.699999999999999 3.1
    vertex 11.150000000000002 4.750120553625207 3.1
    vertex 11.150000000000002 4.750120553625207 4.3
  endloop
endfacet
facet normal 0.9987523388778446 0.049937616943892274 1.8945950284128122e-17
  outer loop
    vertex 1.6400000000000012 6.699999999999999 3.1
    vertex 1.7500000000000013 4.499999999999999 4.3
    vertex 1.7500000000000013 4.499999999999999 3.1
  endloop
endfacet
facet normal 0.28356006773176673 -0.9589544764940389 0.0
  outer loop
    vertex 13.823667948471392 5.300087628173671 3.1
    vertex 13.620894692818187 5.2401281624048375 0.10000000000000002
    vertex 13.823667948471392 5.300087628173671 0.10000000000000002
  endloop
endfacet
facet normal 0.28356006773176673 -0.9589544764940389 0.0
  outer loop
    vertex 13.620894692818187 5.2401281624048375 0.10000000000000002
    vertex 13.823667948471392 5.300087628173671 3.1
    vertex 13.620894692818187 5.2401281624048375 3.1
  endloop
endfacet
facet normal 0.9589544764940398 0.2835600677317637 0.0
  outer loop
    vertex 13.149912371826327 4.373667948471391 0.10000000000000002
    vertex 13.20987183759516 4.170894692818186 3.1
    vertex 13.20987183759516 4.170894692818186 0.10000000000000002
  endloop
endfacet
facet normal 0.9589544764940398 0.2835600677317637 0.0
  outer loop
    vertex 13.20987183759516 4.170894692818186 3.1
    vertex 13.149912371826327 4.373667948471391 0.10000000000000002
    vertex 13.149912371826327 4.373667948471391 3.1
  endloop
endfacet
facet normal -0.47757596641128164 -0.8785904599449793 -0.0
  outer loop
    vertex 14.426417137107977 5.15507763774215 3.1
    vertex 14.240637048150857 5.256062237016341 0.10000000000000002
    vertex 14.426417137107977 5.15507763774215 0.10000000000000002
  endloop
endfacet
facet normal -0.47757596641128164 -0.8785904599449793 -0.0
  outer loop
    vertex 14.240637048150857 5.256062237016341 0.10000000000000002
    vertex 14.426417137107977 5.15507763774215 3.1
    vertex 14.240637048150857 5.256062237016341 3.1
  endloop
endfacet
facet normal 0.8050949196707956 0.5931459941028643 -4.446031004315968e-32
  outer loop
    vertex 14.650532187314935 6.030365875434037 0.10000000000000002
    vertex 15.0 5.556022689475643 3.1
    vertex 15.0 5.556022689475643 0.10000000000000002
  endloop
endfacet
facet normal 0.8050949196707956 0.5931459941028643 -4.446031004315968e-32
  outer loop
    vertex 15.0 5.556022689475643 3.1
    vertex 14.650532187314935 6.030365875434037 0.10000000000000002
    vertex 14.650532187314935 6.030365875434037 3.1
  endloop
endfacet
facet normal 0.025702310823414294 -0.9996696410406474 0.0
  outer loop
    vertex 14.035050524662688 5.305522444289791 3.1
    vertex 13.823667948471392 5.300087628173671 0.10000000000000002
    vertex 14.035050524662688 5.305522444289791 0.10000000000000002
  endloop
endfacet
facet normal 0.025702310823414294 -0.9996696410406474 0.0
  outer loop
    vertex 13.823667948471392 5.300087628173671 0.10000000000000002
    vertex 14.035050524662688 5.305522444289791 3.1
    vertex 13.823667948471392 5.300087628173671 3.1
  endloop
endfacet
facet normal 1.0930494551740966e-16 0.5241209276339436 0.8516438535069307
  outer loop
    vertex 12.650000000000002 4.750120553625207 4.3
    vertex 11.8640613037506 6.699999999999999 3.1
    vertex 11.150000000000002 4.750120553625207 4.3
  endloop
endfacet
facet normal 1.0930494551740966e-16 0.5241209276339436 0.8516438535069307
  outer loop
    vertex 11.8640613037506 6.699999999999999 3.1
    vertex 12.650000000000002 4.750120553625207 4.3
    vertex 12.664061303750602 6.699999999999999 3.1
  endloop
endfacet
facet normal 0.8785904599449815 -0.4775759664112779 0.0
  outer loop
    vertex 13.294922362257848 4.976417137107977 0.10000000000000002
    vertex 13.193937762983659 4.790637048150857 3.1
    vertex 13.193937762983659 4.790637048150857 0.10000000000000002
  endloop
endfacet
facet normal 0.8785904599449815 -0.4775759664112779 0.0
  outer loop
    vertex 13.193937762983659 4.790637048150857 3.1
    vertex 13.294922362257848 4.976417137107977 0.10000000000000002
    vertex 13.294922362257848 4.976417137107977 3.1
  endloop
endfacet
facet normal 0.7250474604015689 -0.6886989038507578 0.0
  outer loop
    vertex 13.440549419977184 5.129730185487734 0.10000000000000002
    vertex 13.294922362257848 4.976417137107977 3.1
    vertex 13.294922362257848 4.976417137107977 0.10000000000000002
  endloop
endfacet
facet normal 0.7250474604015689 -0.6886989038507578 0.0
  outer loop
    vertex 13.294922362257848 4.976417137107977 3.1
    vertex 13.440549419977184 5.129730185487734 0.10000000000000002
    vertex 13.440549419977184 5.129730185487734 3.1
  endloop
endfacet
facet normal 0.9999739990795238 -0.007211183322076261 -1.5092359722157203e-18
  outer loop
    vertex 12.664061303750602 6.699999999999999 3.1
    vertex 12.650000000000002 4.750120553625207 4.3
    vertex 12.650000000000002 4.750120553625207 3.1
  endloop
endfacet
facet normal -0.0 -1.0 -0.0
  outer loop
    vertex 15.0 5.009450580022813 3.1
    vertex 14.579730185487733 5.009450580022813 0.10000000000000002
    vertex 15.0 5.009450580022813 0.10000000000000002
  endloop
endfacet
facet normal -0.0 -1.0 -0.0
  outer loop
    vertex 14.579730185487733 5.009450580022813 0.10000000000000002
    vertex 15.0 5.009450580022813 3.1
    vertex 14.579730185487733 5.009450580022813 3.1
  endloop
endfacet
facet normal 0.522093674629363 -0.852888149121565 0.0
  outer loop
    vertex 13.620894692818187 5.2401281624048375 3.1
    vertex 13.440549419977184 5.129730185487734 0.10000000000000002
    vertex 13.620894692818187 5.2401281624048375 0.10000000000000002
  endloop
endfacet
facet normal 0.522093674629363 -0.852888149121565 0.0
  outer loop
    vertex 13.440549419977184 5.129730185487734 0.10000000000000002
    vertex 13.620894692818187 5.2401281624048375 3.1
    vertex 13.440549419977184 5.129730185487734 3.1
  endloop
endfacet
facet normal 0.9722589715825276 -0.23390701609247566 0.0
  outer loop
    vertex 13.193937762983659 4.790637048150857 0.10000000000000002
    vertex 13.144477555710209 4.5850505246626865 3.1
    vertex 13.144477555710209 4.5850505246626865 0.10000000000000002
  endloop
endfacet
facet normal 0.9722589715825276 -0.23390701609247566 0.0
  outer loop
    vertex 13.144477555710209 4.5850505246626865 3.1
    vertex 13.193937762983659 4.790637048150857 0.10000000000000002
    vertex 13.193937762983659 4.790637048150857 3.1
  endloop
endfacet
facet normal -0.688698903850763 -0.725047460401564 -0.0
  outer loop
    vertex 14.579730185487733 5.009450580022813 3.1
    vertex 14.426417137107977 5.15507763774215 0.10000000000000002
    vertex 14.579730185487733 5.009450580022813 0.10000000000000002
  endloop
endfacet
facet normal -0.688698903850763 -0.725047460401564 -0.0
  outer loop
    vertex 14.426417137107977 5.15507763774215 0.10000000000000002
    vertex 14.579730185487733 5.009450580022813 3.1
    vertex 14.426417137107977 5.15507763774215 3.1
  endloop
endfacet
facet normal 0.9996696410406475 0.025702310823411133 0.0
  outer loop
    vertex 13.144477555710209 4.5850505246626865 0.10000000000000002
    vertex 13.149912371826327 4.373667948471391 3.1
    vertex 13.149912371826327 4.373667948471391 0.10000000000000002
  endloop
endfacet
facet normal 0.9996696410406475 0.025702310823411133 0.0
  outer loop
    vertex 13.149912371826327 4.373667948471391 3.1
    vertex 13.144477555710209 4.5850505246626865 0.10000000000000002
    vertex 13.144477555710209 4.5850505246626865 3.1
  endloop
endfacet
facet normal 1.0 0.0 0.0
  outer loop
    vertex 15.0 5.556022689475643 0.10000000000000002
    vertex 15.0 5.009450580022813 3.1
    vertex 15.0 5.009450580022813 0.10000000000000002
  endloop
endfacet
facet normal 1.0 0.0 0.0
  outer loop
    vertex 15.0 5.009450580022813 3.1
    vertex 15.0 5.556022689475643 0.10000000000000002
    vertex 15.0 5.556022689475643 3.1
  endloop
endfacet
facet normal -1.0 0.0 0.0
  outer loop
    vertex 11.150000000000002 4.750120553625207 4.3
    vertex 11.150000000000002 2.8999999999999986 3.1
    vertex 11.150000000000002 2.8999999999999986 4.3
  endloop
endfacet
facet normal -1.0 0.0 0.0
  outer loop
    vertex 11.150000000000002 2.8999999999999986 3.1
    vertex 11.150000000000002 1.5 0.10000000000000002
    vertex 11.150000000000002 1.5 3.1
  endloop
endfacet
facet normal -1.0 0.0 0.0
  outer loop
    vertex 11.150000000000002 1.5 0.10000000000000002
    vertex 11.150000000000002 2.8999999999999986 3.1
    vertex 11.150000000000002 4.750120553625207 0.10000000000000002
  endloop
endfacet
facet normal -1.0 0.0 0.0
  outer loop
    vertex 11.150000000000002 4.750120553625207 0.10000000000000002
    vertex 11.150000000000002 2.8999999999999986 3.1
    vertex 11.150000000000002 4.750120553625207 4.3
  endloop
endfacet
facet normal -1.0 0.0 0.0
  outer loop
    vertex 11.150000000000002 4.750120553625207 0.10000000000000002
    vertex 11.150000000000002 4.750120553625207 4.3
    vertex 11.150000000000002 4.750120553625207 3.1
  endloop
endfacet
facet normal 0.8528881491215587 0.5220936746293732 0.0
  outer loop
    vertex 13.20987183759516 4.170894692818186 0.10000000000000002
    vertex 13.320269814512265 3.9905494199771843 3.1
    vertex 13.320269814512265 3.9905494199771843 0.10000000000000002
  endloop
endfacet
facet normal 0.8528881491215587 0.5220936746293732 0.0
  outer loop
    vertex 13.320269814512265 3.9905494199771843 3.1
    vertex 13.20987183759516 4.170894692818186 0.10000000000000002
    vertex 13.20987183759516 4.170894692818186 3.1
  endloop
endfacet
facet normal -0.9390154682768608 0.34387490506983465 0.0
  outer loop
    vertex 11.8640613037506 6.699999999999999 3.1
    vertex 11.150000000000002 4.750120553625207 0.10000000000000002
    vertex 11.150000000000002 4.750120553625207 3.1
  endloop
endfacet
facet normal -0.9390154682768608 0.34387490506983465 0.0
  outer loop
    vertex 11.150000000000002 4.750120553625207 0.10000000000000002
    vertex 11.8640613037506 6.699999999999999 3.1
    vertex 11.8640613037506 6.699999999999999 0.10000000000000002
  endloop
endfacet
facet normal -0.23390701609247166 -0.9722589715825287 -0.0
  outer loop
    vertex 14.240637048150857 5.256062237016341 3.1
    vertex 14.035050524662688 5.305522444289791 0.10000000000000002
    vertex 14.240637048150857 5.256062237016341 0.10000000000000002
  endloop
endfacet
facet normal -0.23390701609247166 -0.9722589715825287 -0.0
  outer loop
    vertex 14.035050524662688 5.305522444289791 0.10000000000000002
    vertex 14.240637048150857 5.256062237016341 3.1
    vertex 14.035050524662688 5.305522444289791 3.1
  endloop
endfacet
facet normal 0.688698903850763 0.725047460401564 0.0
  outer loop
    vertex 13.320269814512265 3.9905494199771843 3.1
    vertex 13.473582862892021 3.8449223622578472 0.10000000000000002
    vertex 13.320269814512265 3.9905494199771843 0.10000000000000002
  endloop
endfacet
facet normal 0.688698903850763 0.725047460401564 0.0
  outer loop
    vertex 13.473582862892021 3.8449223622578472 0.10000000000000002
    vertex 13.320269814512265 3.9905494199771843 3.1
    vertex 13.473582862892021 3.8449223622578472 3.1
  endloop
endfacet
facet normal 0.0 1.0 0.0
  outer loop
    vertex 11.8640613037506 6.699999999999999 3.1
    vertex 13.4640613037506 6.699999999999999 0.10602699999999969
    vertex 11.8640613037506 6.699999999999999 0.10000000000000002
  endloop
endfacet
facet normal 0.0 1.0 0.0
  outer loop
    vertex 13.4640613037506 6.699999999999999 0.10602699999999969
    vertex 11.8640613037506 6.699999999999999 3.1
    vertex 13.4640613037506 6.699999999999999 3.1
  endloop
endfacet
facet normal 0.0 1.0 0.0
  outer loop
    vertex 13.4640613037506 6.699999999999999 3.1
    vertex 11.8640613037506 6.699999999999999 3.1
    vertex 12.664061303750602 6.699999999999999 3.1
  endloop
endfacet
facet normal 0.47757596641128164 0.8785904599449793 0.0
  outer loop
    vertex 13.473582862892021 3.8449223622578472 3.1
    vertex 13.659362951849143 3.7439377629836565 0.10000000000000002
    vertex 13.473582862892021 3.8449223622578472 0.10000000000000002
  endloop
endfacet
facet normal 0.47757596641128164 0.8785904599449793 0.0
  outer loop
    vertex 13.659362951849143 3.7439377629836565 0.10000000000000002
    vertex 13.473582862892021 3.8449223622578472 3.1
    vertex 13.659362951849143 3.7439377629836565 3.1
  endloop
endfacet
facet normal 0.23390701609247166 0.9722589715825287 0.0
  outer loop
    vertex 13.659362951849143 3.7439377629836565 3.1
    vertex 13.864949475337312 3.694477555710207 0.10000000000000002
    vertex 13.659362951849143 3.7439377629836565 0.10000000000000002
  endloop
endfacet
facet normal 0.23390701609247166 0.9722589715825287 0.0
  outer loop
    vertex 13.864949475337312 3.694477555710207 0.10000000000000002
    vertex 13.659362951849143 3.7439377629836565 3.1
    vertex 13.864949475337312 3.694477555710207 3.1
  endloop
endfacet
facet normal -0.025702310823414294 0.9996696410406474 0.0
  outer loop
    vertex 13.864949475337312 3.694477555710207 3.1
    vertex 14.076332051528606 3.6999123718263265 0.10000000000000002
    vertex 13.864949475337312 3.694477555710207 0.10000000000000002
  endloop
endfacet
facet normal -0.025702310823414294 0.9996696410406474 0.0
  outer loop
    vertex 14.076332051528606 3.6999123718263265 0.10000000000000002
    vertex 13.864949475337312 3.694477555710207 3.1
    vertex 14.076332051528606 3.6999123718263265 3.1
  endloop
endfacet
facet normal -0.28356006773176673 0.9589544764940389 0.0
  outer loop
    vertex 14.076332051528606 3.6999123718263265 3.1
    vertex 14.279105307181814 3.7598718375951603 0.10000000000000002
    vertex 14.076332051528606 3.6999123718263265 0.10000000000000002
  endloop
endfacet
facet normal -0.28356006773176673 0.9589544764940389 0.0
  outer loop
    vertex 14.279105307181814 3.7598718375951603 0.10000000000000002
    vertex 14.076332051528606 3.6999123718263265 3.1
    vertex 14.279105307181814 3.7598718375951603 3.1
  endloop
endfacet
facet normal -0.5220936746293688 0.8528881491215613 0.0
  outer loop
    vertex 14.279105307181814 3.7598718375951603 3.1
    vertex 14.459450580022812 3.8702698145122643 0.10000000000000002
    vertex 14.279105307181814 3.7598718375951603 0.10000000000000002
  endloop
endfacet
facet normal -0.5220936746293688 0.8528881491215613 0.0
  outer loop
    vertex 14.459450580022812 3.8702698145122643 0.10000000000000002
    vertex 14.279105307181814 3.7598718375951603 3.1
    vertex 14.459450580022812 3.8702698145122643 3.1
  endloop
endfacet
facet normal -0.7250474604015622 0.6886989038507648 0.0
  outer loop
    vertex 14.605077637742152 4.023582862892021 3.1
    vertex 14.459450580022812 3.8702698145122643 0.10000000000000002
    vertex 14.459450580022812 3.8702698145122643 3.1
  endloop
endfacet
facet normal -0.7250474604015622 0.6886989038507648 0.0
  outer loop
    vertex 14.459450580022812 3.8702698145122643 0.10000000000000002
    vertex 14.605077637742152 4.023582862892021 3.1
    vertex 14.605077637742152 4.023582862892021 0.10000000000000002
  endloop
endfacet
facet normal 0.0 1.0 0.0
  outer loop
    vertex 14.605077637742152 4.023582862892021 3.1
    vertex 15.1 4.023582862892021 0.10000000000000002
    vertex 14.605077637742152 4.023582862892021 0.10000000000000002
  endloop
endfacet
facet normal 0.0 1.0 0.0
  outer loop
    vertex 15.1 4.023582862892021 0.10000000000000002
    vertex 14.605077637742152 4.023582862892021 3.1
    vertex 15.1 4.023582862892021 3.1
  endloop
endfacet
facet normal 1.0 0.0 0.0
  outer loop
    vertex 15.1 4.023582862892021 0.10000000000000002
    vertex 15.1 2.8999999999999995 3.1
    vertex 15.1 2.8999999999999995 0.10000000000000002
  endloop
endfacet
facet normal 1.0 0.0 0.0
  outer loop
    vertex 15.1 2.8999999999999995 3.1
    vertex 15.1 4.023582862892021 0.10000000000000002
    vertex 15.1 4.023582862892021 3.1
  endloop
endfacet
facet normal -0.0 -1.0 -0.0
  outer loop
    vertex 15.1 2.8999999999999995 3.1
    vertex 13.5 2.8999999999999995 0.10000000000000002
    vertex 15.1 2.8999999999999995 0.10000000000000002
  endloop
endfacet
facet normal -0.0 -1.0 -0.0
  outer loop
    vertex 13.5 2.8999999999999995 0.10000000000000002
    vertex 15.1 2.8999999999999995 3.1
    vertex 13.5 2.8999999999999995 3.1
  endloop
endfacet
facet normal 1.0 0.0 0.0
  outer loop
    vertex 13.5 2.8999999999999995 0.10000000000000002
    vertex 13.5 1.6499999999999997 3.1
    vertex 13.5 1.6499999999999997 0.10000000000000002
  endloop
endfacet
facet normal 1.0 0.0 0.0
  outer loop
    vertex 13.5 1.6499999999999997 3.1
    vertex 13.5 2.8999999999999995 0.10000000000000002
    vertex 13.5 2.8999999999999995 3.1
  endloop
endfacet
facet normal 0.0 1.0 0.0
  outer loop
    vertex 13.5 1.6499999999999997 3.1
    vertex 14.300000000000002 1.6499999999999997 0.10000000000000002
    vertex 13.5 1.6499999999999997 0.10000000000000002
  endloop
endfacet
facet normal 0.0 1.0 0.0
  outer loop
    vertex 14.300000000000002 1.6499999999999997 0.10000000000000002
    vertex 13.5 1.6499999999999997 3.1
    vertex 14.300000000000002 1.6499999999999997 3.1
  endloop
endfacet
facet normal 0.8998141071961993 -0.43627350651937014 0.0
  outer loop
    vertex 14.300000000000002 1.6499999999999997 0.10000000000000002
    vertex 13.5 0.0 3.1
    vertex 13.5 0.0 0.10000000000000002
  endloop
endfacet
facet normal 0.8998141071961993 -0.43627350651937014 0.0
  outer loop
    vertex 13.5 0.0 3.1
    vertex 14.300000000000002 1.6499999999999997 0.10000000000000002
    vertex 14.300000000000002 1.6499999999999997 3.1
  endloop
endfacet
facet normal -0.0 -1.0 -0.0
  outer loop
    vertex 13.5 0.0 3.1
    vertex 0.0 0.0 0.10000000000000002
    vertex 13.5 0.0 0.10000000000000002
  endloop
endfacet
facet normal -0.0 -1.0 -0.0
  outer loop
    vertex 0.0 0.0 0.10000000000000002
    vertex 13.5 0.0 3.1
    vertex 0.0 0.0 3.1
  endloop
endfacet
facet normal -0.8320502943378438 -0.554700196225229 -0.0
  outer loop
    vertex -1.0999999999999988 1.6499999999999984 3.1
    vertex 0.0 0.0 0.10000000000000002
    vertex 0.0 0.0 3.1
  endloop
endfacet
facet normal -0.8320502943378438 -0.554700196225229 -0.0
  outer loop
    vertex 0.0 0.0 0.10000000000000002
    vertex -1.0999999999999988 1.6499999999999984 3.1
    vertex -1.0999999999999988 1.6499999999999984 0.10000000000000002
  endloop
endfacet
facet normal 0.0 1.0 0.0
  outer loop
    vertex -1.0999999999999988 1.6499999999999984 3.1
    vertex 1.4099832412739487e-15 1.6499999999999984 0.10000000000000002
    vertex -1.0999999999999988 1.6499999999999984 0.10000000000000002
  endloop
endfacet
facet normal 0.0 1.0 0.0
  outer loop
    vertex 1.4099832412739487e-15 1.6499999999999984 0.10000000000000002
    vertex -1.0999999999999988 1.6499999999999984 3.1
    vertex 1.4099832412739487e-15 1.6499999999999984 3.1
  endloop
endfacet
facet normal -1.0 0.0 0.0
  outer loop
    vertex 1.4099832412739487e-15 2.8999999999999986 3.1
    vertex 1.4099832412739487e-15 1.6499999999999984 0.10000000000000002
    vertex 1.4099832412739487e-15 1.6499999999999984 3.1
  endloop
endfacet
facet normal -1.0 0.0 0.0
  outer loop
    vertex 1.4099832412739487e-15 1.6499999999999984 0.10000000000000002
    vertex 1.4099832412739487e-15 2.8999999999999986 3.1
    vertex 1.4099832412739487e-15 2.8999999999999986 0.10000000000000002
  endloop
endfacet
facet normal 1.0 0.0 0.0
  outer loop
    vertex 1.7500000000000013 2.8999999999999986 0.10000000000000002
    vertex 1.7500000000000013 1.5 3.1
    vertex 1.7500000000000013 1.5 0.10000000000000002
  endloop
endfacet
facet normal 1.0 0.0 0.0
  outer loop
    vertex 1.7500000000000013 1.5 3.1
    vertex 1.7500000000000013 2.8999999999999986 0.10000000000000002
    vertex 1.7500000000000013 2.8999999999999986 3.1
  endloop
endfacet
facet normal 0.0 1.0 0.0
  outer loop
    vertex 1.7500000000000013 1.5 3.1
    vertex 11.150000000000002 1.5 0.10000000000000002
    vertex 1.7500000000000013 1.5 0.10000000000000002
  endloop
endfacet
facet normal 0.0 1.0 0.0
  outer loop
    vertex 11.150000000000002 1.5 0.10000000000000002
    vertex 1.7500000000000013 1.5 3.1
    vertex 11.150000000000002 1.5 3.1
  endloop
endfacet
facet normal -1.0 0.0 0.0
  outer loop
    vertex 1.4099832412739487e-15 5.0 3.1
    vertex 1.4099832412739487e-15 4.499999999999999 3.1
    vertex 1.4099832412739487e-15 4.499999999999999 4.3
  endloop
endfacet
facet normal -0.9593836862574484 0.2604041434127363 0.1085017264219738
  outer loop
    vertex 0.46142857142857285 6.699999999999999 3.1
    vertex 1.4099832412739487e-15 5.0 3.1
    vertex 1.4099832412739487e-15 4.499999999999999 4.3
  endloop
endfacet
facet normal 0.0 0.0 1.0
  outer loop
    vertex 14.300000000000002 1.6499999999999997 3.1
    vertex 13.5 1.6499999999999997 3.1
    vertex 13.5 0.0 3.1
  endloop
endfacet
facet normal 0.0 0.0 1.0
  outer loop
    vertex 0.0 0.0 3.1
    vertex 1.4099832412739487e-15 1.6499999999999984 3.1
    vertex -1.0999999999999988 1.6499999999999984 3.1
  endloop
endfacet
facet normal 0.0 0.0 1.0
  outer loop
    vertex 1.4099832412739487e-15 1.6499999999999984 3.1
    vertex 0.0 0.0 3.1
    vertex 13.5 0.0 3.1
  endloop
endfacet
facet normal 0.0 0.0 1.0
  outer loop
    vertex 1.4099832412739487e-15 1.6499999999999984 3.1
    vertex 13.5 0.0 3.1
    vertex 1.7500000000000013 1.5 3.1
  endloop
endfacet
facet normal 0.0 0.0 1.0
  outer loop
    vertex 1.4099832412739487e-15 1.6499999999999984 3.1
    vertex 1.7500000000000013 1.5 3.1
    vertex 1.4099832412739487e-15 2.8999999999999986 3.1
  endloop
endfacet
facet normal 0.0 0.0 1.0
  outer loop
    vertex 1.7500000000000013 1.5 3.1
    vertex 13.5 0.0 3.1
    vertex 11.150000000000002 1.5 3.1
  endloop
endfacet
facet normal 0.0 0.0 1.0
  outer loop
    vertex 11.150000000000002 1.5 3.1
    vertex 13.5 0.0 3.1
    vertex 11.150000000000002 2.8999999999999986 3.1
  endloop
endfacet
facet normal 0.0 0.0 1.0
  outer loop
    vertex 11.150000000000002 2.8999999999999986 3.1
    vertex 13.5 0.0 3.1
    vertex 13.5 2.8999999999999995 3.1
  endloop
endfacet
facet normal 0.0 0.0 1.0
  outer loop
    vertex 13.5 2.8999999999999995 3.1
    vertex 13.5 0.0 3.1
    vertex 13.5 1.6499999999999997 3.1
  endloop
endfacet
facet normal 0.0 0.0 1.0
  outer loop
    vertex 1.7500000000000013 2.8999999999999986 3.1
    vertex 1.4099832412739487e-15 2.8999999999999986 3.1
    vertex 1.7500000000000013 1.5 3.1
  endloop
endfacet
facet normal 0.0 0.0 -1.0
  outer loop
    vertex 0.46142857142857285 6.699999999999999 0.10000000000000002
    vertex 1.4099832412739487e-15 4.499999999999999 0.10000000000000002
    vertex 1.4099832412739487e-15 5.0 0.10000000000000002
  endloop
endfacet
facet normal 0.0 0.0 -1.0
  outer loop
    vertex 1.4099832412739487e-15 4.499999999999999 0.10000000000000002
    vertex 0.46142857142857285 6.699999999999999 0.10000000000000002
    vertex 1.7500000000000013 4.499999999999999 0.10000000000000002
  endloop
endfacet
facet normal 0.0 0.0 -1.0
  outer loop
    vertex 1.7500000000000013 4.499999999999999 0.10000000000000002
    vertex 0.46142857142857285 6.699999999999999 0.10000000000000002
    vertex 1.6400000000000012 6.699999999999999 0.10000000000000002
  endloop
endfacet
facet normal -2.3579686350734414e-05 0.00018436663378829527 -0.9999999827264713
  outer loop
    vertex 1.7500000000000013 2.8999999999999986 0.10000000000000002
    vertex 1.4099832412739487e-15 1.6499999999999984 0.10000000000000002
    vertex 1.4099832412739487e-15 2.8999999999999986 0.10000000000000002
  endloop
endfacet
facet normal -2.3579686350734414e-05 0.00018436663378829527 -0.9999999827264713
  outer loop
    vertex 11.8640613037506 6.699999999999999 0.10000000000000002
    vertex 11.150000000000002 1.5 0.10000000000000002
    vertex 11.150000000000002 4.750120553625207 0.10000000000000002
  endloop
endfacet
facet normal -2.3579686350734414e-05 0.00018436663378829527 -0.9999999827264713
  outer loop
    vertex 13.4640613037506 6.699999999999999 0.10602699999999969
    vertex 13.144477555710209 4.5850505246626865 0.10000000000000002
    vertex 11.8640613037506 6.699999999999999 0.10000000000000002
  endloop
endfacet
facet normal -2.3579686350734414e-05 0.00018436663378829527 -0.9999999827264713
  outer loop
    vertex 13.144477555710209 4.5850505246626865 0.10000000000000002
    vertex 13.4640613037506 6.699999999999999 0.10602699999999969
    vertex 13.193937762983659 4.790637048150857 0.10000000000000002
  endloop
endfacet
facet normal -2.3579686350734414e-05 0.00018436663378829527 -0.9999999827264713
  outer loop
    vertex 13.193937762983659 4.790637048150857 0.10000000000000002
    vertex 13.4640613037506 6.699999999999999 0.10602699999999969
    vertex 13.294922362257848 4.976417137107977 0.10000000000000002
  endloop
endfacet
facet normal -2.3579686350734414e-05 0.00018436663378829527 -0.9999999827264713
  outer loop
    vertex 13.294922362257848 4.976417137107977 0.10000000000000002
    vertex 13.4640613037506 6.699999999999999 0.10602699999999969
    vertex 13.440549419977184 5.129730185487734 0.10000000000000002
  endloop
endfacet
facet normal -2.3579686350734414e-05 0.00018436663378829527 -0.9999999827264713
  outer loop
    vertex 13.440549419977184 5.129730185487734 0.10000000000000002
    vertex 13.4640613037506 6.699999999999999 0.10602699999999969
    vertex 13.620894692818187 5.2401281624048375 0.10000000000000002
  endloop
endfacet
facet normal -2.3579686350734414e-05 0.00018436663378829527 -0.9999999827264713
  outer loop
    vertex 13.620894692818187 5.2401281624048375 0.10000000000000002
    vertex 13.4640613037506 6.699999999999999 0.10602699999999969
    vertex 14.650532187314935 6.030365875434037 0.10000000000000002
  endloop
endfacet
facet normal -2.3579686350734414e-05 0.00018436663378829527 -0.9999999827264713
  outer loop
    vertex 13.620894692818187 5.2401281624048375 0.10000000000000002
    vertex 14.650532187314935 6.030365875434037 0.10000000000000002
    vertex 13.823667948471392 5.300087628173671 0.10000000000000002
  endloop
endfacet
facet normal -2.3579686350734414e-05 0.00018436663378829527 -0.9999999827264713
  outer loop
    vertex 13.823667948471392 5.300087628173671 0.10000000000000002
    vertex 14.650532187314935 6.030365875434037 0.10000000000000002
    vertex 14.035050524662688 5.305522444289791 0.10000000000000002
  endloop
endfacet
facet normal -2.3579686350734414e-05 0.00018436663378829527 -0.9999999827264713
  outer loop
    vertex 14.035050524662688 5.305522444289791 0.10000000000000002
    vertex 14.650532187314935 6.030365875434037 0.10000000000000002
    vertex 14.240637048150857 5.256062237016341 0.10000000000000002
  endloop
endfacet
facet normal -2.3579686350734414e-05 0.00018436663378829527 -0.9999999827264713
  outer loop
    vertex 14.240637048150857 5.256062237016341 0.10000000000000002
    vertex 14.650532187314935 6.030365875434037 0.10000000000000002
    vertex 14.426417137107977 5.15507763774215 0.10000000000000002
  endloop
endfacet
facet normal -2.3579686350734414e-05 0.00018436663378829527 -0.9999999827264713
  outer loop
    vertex 14.426417137107977 5.15507763774215 0.10000000000000002
    vertex 14.650532187314935 6.030365875434037 0.10000000000000002
    vertex 14.579730185487733 5.009450580022813 0.10000000000000002
  endloop
endfacet
facet normal -2.3579686350734414e-05 0.00018436663378829527 -0.9999999827264713
  outer loop
    vertex 14.579730185487733 5.009450580022813 0.10000000000000002
    vertex 14.650532187314935 6.030365875434037 0.10000000000000002
    vertex 15.0 5.009450580022813 0.10000000000000002
  endloop
endfacet
facet normal -2.3579686350734414e-05 0.00018436663378829527 -0.9999999827264713
  outer loop
    vertex 15.0 5.009450580022813 0.10000000000000002
    vertex 14.650532187314935 6.030365875434037 0.10000000000000002
    vertex 15.0 5.556022689475643 0.10000000000000002
  endloop
endfacet
facet normal -2.3579686350734414e-05 0.00018436663378829527 -0.9999999827264713
  outer loop
    vertex 13.659362951849143 3.7439377629836565 0.10000000000000002
    vertex 13.5 2.8999999999999995 0.10000000000000002
    vertex 13.473582862892021 3.8449223622578472 0.10000000000000002
  endloop
endfacet
facet normal -2.3579686350734414e-05 0.00018436663378829527 -0.9999999827264713
  outer loop
    vertex 13.5 2.8999999999999995 0.10000000000000002
    vertex 13.659362951849143 3.7439377629836565 0.10000000000000002
    vertex 15.1 2.8999999999999995 0.10000000000000002
  endloop
endfacet
facet normal -2.3579686350734414e-05 0.00018436663378829527 -0.9999999827264713
  outer loop
    vertex 15.1 2.8999999999999995 0.10000000000000002
    vertex 13.659362951849143 3.7439377629836565 0.10000000000000002
    vertex 13.864949475337312 3.694477555710207 0.10000000000000002
  endloop
endfacet
facet normal -2.3579686350734414e-05 0.00018436663378829527 -0.9999999827264713
  outer loop
    vertex 15.1 2.8999999999999995 0.10000000000000002
    vertex 13.864949475337312 3.694477555710207 0.10000000000000002
    vertex 14.076332051528606 3.6999123718263265 0.10000000000000002
  endloop
endfacet
facet normal -2.3579686350734414e-05 0.00018436663378829527 -0.9999999827264713
  outer loop
    vertex 15.1 2.8999999999999995 0.10000000000000002
    vertex 14.076332051528606 3.6999123718263265 0.10000000000000002
    vertex 14.279105307181814 3.7598718375951603 0.10000000000000002
  endloop
endfacet
facet normal -2.3579686350734414e-05 0.00018436663378829527 -0.9999999827264713
  outer loop
    vertex 15.1 2.8999999999999995 0.10000000000000002
    vertex 14.279105307181814 3.7598718375951603 0.10000000000000002
    vertex 14.459450580022812 3.8702698145122643 0.10000000000000002
  endloop
endfacet
facet normal -2.3579686350734414e-05 0.00018436663378829527 -0.9999999827264713
  outer loop
    vertex 15.1 2.8999999999999995 0.10000000000000002
    vertex 14.459450580022812 3.8702698145122643 0.10000000000000002
    vertex 14.605077637742152 4.023582862892021 0.10000000000000002
  endloop
endfacet
facet normal -2.3579686350734414e-05 0.00018436663378829527 -0.9999999827264713
  outer loop
    vertex 15.1 2.8999999999999995 0.10000000000000002
    vertex 14.605077637742152 4.023582862892021 0.10000000000000002
    vertex 15.1 4.023582862892021 0.10000000000000002
  endloop
endfacet
facet normal -2.3579686350734414e-05 0.00018436663378829527 -0.9999999827264713
  outer loop
    vertex 1.4099832412739487e-15 1.6499999999999984 0.10000000000000002
    vertex 0.0 0.0 0.10000000000000002
    vertex -1.0999999999999988 1.6499999999999984 0.10000000000000002
  endloop
endfacet
facet normal -2.3579686350734414e-05 0.00018436663378829527 -0.9999999827264713
  outer loop
    vertex 0.0 0.0 0.10000000000000002
    vertex 1.4099832412739487e-15 1.6499999999999984 0.10000000000000002
    vertex 13.5 0.0 0.10000000000000002
  endloop
endfacet
facet normal -2.3579686350734414e-05 0.00018436663378829527 -0.9999999827264713
  outer loop
    vertex 13.5 0.0 0.10000000000000002
    vertex 1.4099832412739487e-15 1.6499999999999984 0.10000000000000002
    vertex 1.7500000000000013 1.5 0.10000000000000002
  endloop
endfacet
facet normal -2.3579686350734414e-05 0.00018436663378829527 -0.9999999827264713
  outer loop
    vertex 1.7500000000000013 1.5 0.10000000000000002
    vertex 1.4099832412739487e-15 1.6499999999999984 0.10000000000000002
    vertex 1.7500000000000013 2.8999999999999986 0.10000000000000002
  endloop
endfacet
facet normal -2.3579686350734414e-05 0.00018436663378829527 -0.9999999827264713
  outer loop
    vertex 13.5 0.0 0.10000000000000002
    vertex 1.7500000000000013 1.5 0.10000000000000002
    vertex 11.150000000000002 1.5 0.10000000000000002
  endloop
endfacet
facet normal -2.3579686350734414e-05 0.00018436663378829527 -0.9999999827264713
  outer loop
    vertex 13.5 0.0 0.10000000000000002
    vertex 11.150000000000002 1.5 0.10000000000000002
    vertex 11.8640613037506 6.699999999999999 0.10000000000000002
  endloop
endfacet
facet normal -2.3579686350734414e-05 0.00018436663378829527 -0.9999999827264713
  outer loop
    vertex 13.5 0.0 0.10000000000000002
    vertex 11.8640613037506 6.699999999999999 0.10000000000000002
    vertex 13.149912371826327 4.373667948471391 0.10000000000000002
  endloop
endfacet
facet normal -2.3579686350734414e-05 0.00018436663378829527 -0.9999999827264713
  outer loop
    vertex 13.149912371826327 4.373667948471391 0.10000000000000002
    vertex 11.8640613037506 6.699999999999999 0.10000000000000002
    vertex 13.144477555710209 4.5850505246626865 0.10000000000000002
  endloop
endfacet
facet normal -2.3579686350734414e-05 0.00018436663378829527 -0.9999999827264713
  outer loop
    vertex 13.5 0.0 0.10000000000000002
    vertex 13.149912371826327 4.373667948471391 0.10000000000000002
    vertex 13.20987183759516 4.170894692818186 0.10000000000000002
  endloop
endfacet
facet normal -2.3579686350734414e-05 0.00018436663378829527 -0.9999999827264713
  outer loop
    vertex 13.5 0.0 0.10000000000000002
    vertex 13.20987183759516 4.170894692818186 0.10000000000000002
    vertex 13.320269814512265 3.9905494199771843 0.10000000000000002
  endloop
endfacet
facet normal -2.3579686350734414e-05 0.00018436663378829527 -0.9999999827264713
  outer loop
    vertex 13.5 0.0 0.10000000000000002
    vertex 13.320269814512265 3.9905494199771843 0.10000000000000002
    vertex 13.473582862892021 3.8449223622578472 0.10000000000000002
  endloop
endfacet
facet normal -2.3579686350734414e-05 0.00018436663378829527 -0.9999999827264713
  outer loop
    vertex 13.5 0.0 0.10000000000000002
    vertex 13.473582862892021 3.8449223622578472 0.10000000000000002
    vertex 13.5 2.8999999999999995 0.10000000000000002
  endloop
endfacet
facet normal -2.3579686350734414e-05 0.00018436663378829527 -0.9999999827264713
  outer loop
    vertex 13.5 0.0 0.10000000000000002
    vertex 13.5 2.8999999999999995 0.10000000000000002
    vertex 13.5 1.6499999999999997 0.10000000000000002
  endloop
endfacet
facet normal -2.3579686350734414e-05 0.00018436663378829527 -0.9999999827264713
  outer loop
    vertex 13.5 0.0 0.10000000000000002
    vertex 13.5 1.6499999999999997 0.10000000000000002
    vertex 14.300000000000002 1.6499999999999997 0.10000000000000002
  endloop
endfacet
facet normal 0.0 0.0 -1.0
  outer loop
    vertex 1.4099832412739487e-15 4.499999999999999 0.10000000000000002
    vertex -0.9999999999999986 2.8999999999999986 0.10000000000000002
    vertex -0.9999999999999986 4.499999999999999 0.10000000000000002
  endloop
endfacet
facet normal 0.0 0.0 -1.0
  outer loop
    vertex -0.9999999999999986 2.8999999999999986 0.10000000000000002
    vertex 1.4099832412739487e-15 4.499999999999999 0.10000000000000002
    vertex 1.4099832412739487e-15 2.8999999999999986 0.10000000000000002
  endloop
endfacet
facet normal 0.0 0.0 -1.0
  outer loop
    vertex 1.4099832412739487e-15 2.8999999999999986 0.10000000000000002
    vertex 1.4099832412739487e-15 4.499999999999999 0.10000000000000002
    vertex 1.7500000000000013 4.499999999999999 0.10000000000000002
  endloop
endfacet
facet normal 0.0 0.0 -1.0
  outer loop
    vertex 1.4099832412739487e-15 2.8999999999999986 0.10000000000000002
    vertex 1.7500000000000013 4.499999999999999 0.10000000000000002
    vertex 1.7500000000000013 2.8999999999999986 0.10000000000000002
  endloop
endfacet
facet normal 0.49151208323638934 0.8708707550679521 -4.173663252206933e-18
  outer loop
    vertex 13.4640613037506 6.699999999999999 0.10602699999999969
    vertex 14.650532187314935 6.030365875434037 3.1
    vertex 14.650532187314935 6.030365875434037 0.10000000000000002
  endloop
endfacet
facet normal 0.49151208323638934 0.8708707550679521 -4.173663252206933e-18
  outer loop
    vertex 14.650532187314935 6.030365875434037 3.1
    vertex 13.4640613037506 6.699999999999999 0.10602699999999969
    vertex 13.4640613037506 6.699999999999999 3.1
  endloop
endfacet
facet normal 0.0 0.0 -1.0
  outer loop
    vertex -0.9999999999999986 4.499999999999999 0.10000000000000002
    vertex -1.3999999999999986 3.299999999999999 0.10000000000000002
    vertex -1.3999999999999986 4.099999999999999 0.10000000000000002
  endloop
endfacet
facet normal 0.0 0.0 -1.0
  outer loop
    vertex -1.3999999999999986 3.299999999999999 0.10000000000000002
    vertex -0.9999999999999986 4.499999999999999 0.10000000000000002
    vertex -0.9999999999999986 2.8999999999999986 0.10000000000000002
  endloop
endfacet
facet normal -1.7624790515924362e-15 6.067055483011969e-34 1.0
  outer loop
    vertex -0.9999999999999986 2.8999999999999986 4.3
    vertex -1.3999999999999986 4.099999999999999 4.299999999999999
    vertex -1.3999999999999986 3.299999999999999 4.299999999999999
  endloop
endfacet
facet normal -1.7624790515924362e-15 6.067055483011969e-34 1.0
  outer loop
    vertex -1.3999999999999986 4.099999999999999 4.299999999999999
    vertex -0.9999999999999986 2.8999999999999986 4.3
    vertex -0.9999999999999986 4.499999999999999 4.3
  endloop
endfacet
facet normal -0.7071067811865476 0.7071067811865476 0.0
  outer loop
    vertex -0.9999999999999986 4.499999999999999 4.3
    vertex -1.3999999999999986 4.099999999999999 0.10000000000000002
    vertex -1.3999999999999986 4.099999999999999 4.299999999999999
  endloop
endfacet
facet normal -0.7071067811865476 0.7071067811865476 0.0
  outer loop
    vertex -1.3999999999999986 4.099999999999999 0.10000000000000002
    vertex -0.9999999999999986 4.499999999999999 4.3
    vertex -0.9999999999999986 4.499999999999999 0.10000000000000002
  endloop
endfacet
facet normal -0.7071067811865479 -0.7071067811865472 4.903225227855381e-33
  outer loop
    vertex -1.3999999999999986 3.299999999999999 4.299999999999999
    vertex -0.9999999999999986 2.8999999999999986 0.10000000000000002
    vertex -0.9999999999999986 2.8999999999999986 4.3
  endloop
endfacet
facet normal -0.7071067811865479 -0.7071067811865472 4.903225227855381e-33
  outer loop
    vertex -0.9999999999999986 2.8999999999999986 0.10000000000000002
    vertex -1.3999999999999986 3.299999999999999 4.299999999999999
    vertex -1.3999999999999986 3.299999999999999 0.10000000000000002
  endloop
endfacet
facet normal -1.0 0.0 0.0
  outer loop
    vertex -1.3999999999999986 4.099999999999999 4.299999999999999
    vertex -1.3999999999999986 3.299999999999999 0.10000000000000002
    vertex -1.3999999999999986 3.299999999999999 4.299999999999999
  endloop
endfacet
facet normal -1.0 0.0 0.0
  outer loop
    vertex -1.3999999999999986 3.299999999999999 0.10000000000000002
    vertex -1.3999999999999986 4.099999999999999 4.299999999999999
    vertex -1.3999999999999986 4.099999999999999 0.10000000000000002
  endloop
endfacet
endsolid Keyboard_Guide
