solid Keyboard_LEDs
facet normal 0.0 1.0 0.0
  outer loop
    vertex 1.7748283495639448 35.84336846495245 3.4000000000000035
    vertex 17.274828349563947 35.84336846495245 2.1000000000000143
    vertex 1.7748283495639448 35.84336846495245 2.100000000000013
  endloop
endfacet
facet normal 0.0 1.0 0.0
  outer loop
    vertex 17.274828349563947 35.84336846495245 2.1000000000000143
    vertex 1.7748283495639448 35.84336846495245 3.4000000000000035
    vertex 17.274828349563947 35.84336846495245 3.4000000000000035
  endloop
endfacet
facet normal 8.142462067841309e-17 1.5906252063364074e-16 -1.0
  outer loop
    vertex 17.274828349563947 42.44336846495245 0.0
    vertex 1.774828349563946 33.44336846495245 1.4099832412739488e-14
    vertex 1.7748283495639448 42.44336846495245 0.0
  endloop
endfacet
facet normal 8.142462067841309e-17 1.5906252063364074e-16 -1.0
  outer loop
    vertex 1.774828349563946 33.44336846495245 1.4099832412739488e-14
    vertex 17.274828349563947 42.44336846495245 0.0
    vertex 2.8748283495639457 30.993368464952447 0.0
  endloop
endfacet
facet normal 8.142462067841309e-17 1.5906252063364074e-16 -1.0
  outer loop
    vertex 1.774828349563946 33.44336846495245 1.4099832412739488e-14
    vertex 2.8748283495639457 30.993368464952447 0.0
    vertex 1.824828364465107 29.14336846495245 0.0
  endloop
endfacet
facet normal 8.142462067841309e-17 1.5906252063364074e-16 -1.0
  outer loop
    vertex 2.8748283495639457 30.993368464952447 0.0
    vertex 17.274828349563947 42.44336846495245 0.0
    vertex 15.874828349563952 33.44336846495246 1.127986593019159e-14
  endloop
endfacet
facet normal 8.142462067841309e-17 1.5906252063364074e-16 -1.0
  outer loop
    vertex 2.8748283495639457 30.993368464952447 0.0
    vertex 15.874828349563952 33.44336846495246 1.127986593019159e-14
    vertex 15.674828349563949 30.993368464952447 0.0
  endloop
endfacet
facet normal 8.142462067841309e-17 1.5906252063364074e-16 -1.0
  outer loop
    vertex 15.674828349563949 30.993368464952447 0.0
    vertex 15.874828349563952 33.44336846495246 1.127986593019159e-14
    vertex 15.674828349563949 29.14336846495245 0.0
  endloop
endfacet
facet normal 8.142462067841309e-17 1.5906252063364074e-16 -1.0
  outer loop
    vertex 15.674828349563949 29.14336846495245 0.0
    vertex 15.874828349563952 33.44336846495246 1.127986593019159e-14
    vertex 15.874828349563945 32.643368464952445 2.8199664825478976e-14
  endloop
endfacet
facet normal 8.142462067841309e-17 1.5906252063364074e-16 -1.0
  outer loop
    vertex 15.874828349563952 33.44336846495246 1.127986593019159e-14
    vertex 17.274828349563947 42.44336846495245 0.0
    vertex 16.27482834956395 33.44336846495246 1.127986593019159e-14
  endloop
endfacet
facet normal 8.142462067841309e-17 1.5906252063364074e-16 -1.0
  outer loop
    vertex 16.27482834956395 33.44336846495246 1.127986593019159e-14
    vertex 17.274828349563947 42.44336846495245 0.0
    vertex 17.27482834956395 33.44336846495246 1.127986593019159e-14
  endloop
endfacet
facet normal 8.142462067841309e-17 1.5906252063364074e-16 -1.0
  outer loop
    vertex 17.774828349563947 31.143368464952445 0.0
    vertex 17.724828349563946 29.14336846495245 0.0
    vertex 16.774828349563947 31.143368464952445 0.0
  endloop
endfacet
facet normal 8.142462067841309e-17 1.5906252063364074e-16 -1.0
  outer loop
    vertex 17.724828349563946 29.14336846495245 0.0
    vertex 17.774828349563947 31.143368464952445 0.0
    vertex 19.824828349563948 29.14336846495245 0.0
  endloop
endfacet
facet normal 8.142462067841309e-17 1.5906252063364074e-16 -1.0
  outer loop
    vertex 19.824828349563948 29.14336846495245 0.0
    vertex 17.774828349563947 31.143368464952445 0.0
    vertex 18.274828349563947 31.143368464952445 0.0
  endloop
endfacet
facet normal 8.142462067841309e-17 1.5906252063364074e-16 -1.0
  outer loop
    vertex 19.824828349563948 29.14336846495245 0.0
    vertex 18.274828349563947 31.143368464952445 0.0
    vertex 19.824828349563948 31.143368464952445 0.0
  endloop
endfacet
facet normal 8.142462067841309e-17 1.5906252063364074e-16 -1.0
  outer loop
    vertex 15.874828349563945 32.643368464952445 2.8199664825478976e-14
    vertex 16.724828349563946 29.14336846495245 0.0
    vertex 15.674828349563949 29.14336846495245 0.0
  endloop
endfacet
facet normal 8.142462067841309e-17 1.5906252063364074e-16 -1.0
  outer loop
    vertex 16.724828349563946 29.14336846495245 0.0
    vertex 15.874828349563945 32.643368464952445 2.8199664825478976e-14
    vertex 16.774828349563947 32.643368464952445 2.8199664825478976e-14
  endloop
endfacet
facet normal 8.142462067841309e-17 1.5906252063364074e-16 -1.0
  outer loop
    vertex 16.724828349563946 29.14336846495245 0.0
    vertex 16.774828349563947 32.643368464952445 2.8199664825478976e-14
    vertex 16.724828349563946 25.14336846495245 0.0
  endloop
endfacet
facet normal 8.142462067841309e-17 1.5906252063364074e-16 -1.0
  outer loop
    vertex 16.724828349563946 25.14336846495245 0.0
    vertex 16.774828349563947 32.643368464952445 2.8199664825478976e-14
    vertex 16.774828349563947 31.143368464952445 0.0
  endloop
endfacet
facet normal 8.142462067841309e-17 1.5906252063364074e-16 -1.0
  outer loop
    vertex 16.724828349563946 25.14336846495245 0.0
    vertex 16.774828349563947 31.143368464952445 0.0
    vertex 17.724828349563946 25.14336846495245 0.0
  endloop
endfacet
facet normal 8.142462067841309e-17 1.5906252063364074e-16 -1.0
  outer loop
    vertex 16.774828349563947 31.143368464952445 0.0
    vertex 16.774828349563947 32.643368464952445 2.8199664825478976e-14
    vertex 16.774828349563947 32.143368464952445 0.0
  endloop
endfacet
facet normal 8.142462067841309e-17 1.5906252063364074e-16 -1.0
  outer loop
    vertex 17.724828349563946 25.14336846495245 0.0
    vertex 16.774828349563947 31.143368464952445 0.0
    vertex 17.724828349563946 29.14336846495245 0.0
  endloop
endfacet
facet normal 8.142462067841309e-17 1.5906252063364074e-16 -1.0
  outer loop
    vertex 2.8748283495639457 29.14336846495245 0.0
    vertex 1.824828364465107 29.14336846495245 0.0
    vertex 2.8748283495639457 30.993368464952447 0.0
  endloop
endfacet
facet normal 8.142462067841309e-17 1.5906252063364074e-16 -1.0
  outer loop
    vertex 0.27482834956394603 31.143368464952445 0.0
    vertex -1.275171650436054 29.14336846495245 0.0
    vertex -1.275171650436054 31.143368464952445 0.0
  endloop
endfacet
facet normal 8.142462067841309e-17 1.5906252063364074e-16 -1.0
  outer loop
    vertex -1.275171650436054 29.14336846495245 0.0
    vertex 0.27482834956394603 31.143368464952445 0.0
    vertex 0.8248283346627853 29.14336846495245 0.0
  endloop
endfacet
facet normal 8.142462067841309e-17 1.5906252063364074e-16 -1.0
  outer loop
    vertex 0.8248283346627853 29.14336846495245 0.0
    vertex 0.27482834956394603 31.143368464952445 0.0
    vertex 1.7748283495639448 33.043368464952444 1.4099832412739488e-14
  endloop
endfacet
facet normal 8.142462067841309e-17 1.5906252063364074e-16 -1.0
  outer loop
    vertex 0.8248283346627853 29.14336846495245 0.0
    vertex 1.7748283495639448 33.043368464952444 1.4099832412739488e-14
    vertex 0.8248283346627853 25.14336846495245 0.0
  endloop
endfacet
facet normal 8.142462067841309e-17 1.5906252063364074e-16 -1.0
  outer loop
    vertex 0.8248283346627853 25.14336846495245 0.0
    vertex 1.7748283495639448 33.043368464952444 1.4099832412739488e-14
    vertex 1.824828364465107 25.14336846495245 0.0
  endloop
endfacet
facet normal 8.142462067841309e-17 1.5906252063364074e-16 -1.0
  outer loop
    vertex 1.824828364465107 25.14336846495245 0.0
    vertex 1.7748283495639448 33.043368464952444 1.4099832412739488e-14
    vertex 1.774828349563946 33.44336846495245 1.4099832412739488e-14
  endloop
endfacet
facet normal 8.142462067841309e-17 1.5906252063364074e-16 -1.0
  outer loop
    vertex 1.824828364465107 25.14336846495245 0.0
    vertex 1.774828349563946 33.44336846495245 1.4099832412739488e-14
    vertex 1.824828364465107 29.14336846495245 0.0
  endloop
endfacet
facet normal -1.0 0.0 0.0
  outer loop
    vertex 15.674828349563949 30.993368464952447 3.4000000000000137
    vertex 15.674828349563949 29.14336846495245 0.0
    vertex 15.674828349563949 29.14336846495244 3.3999999999999995
  endloop
endfacet
facet normal -1.0 0.0 0.0
  outer loop
    vertex 15.674828349563949 29.14336846495245 0.0
    vertex 15.674828349563949 30.993368464952447 3.4000000000000137
    vertex 15.674828349563949 30.993368464952447 0.0
  endloop
endfacet
facet normal 5.685416295459471e-16 1.0 -3.293933753207726e-16
  outer loop
    vertex 18.274828349563947 31.143368464952445 3.400000000000015
    vertex 19.824828349563948 31.143368464952445 0.0
    vertex 18.274828349563947 31.143368464952445 0.0
  endloop
endfacet
facet normal 5.685416295459471e-16 1.0 -3.293933753207726e-16
  outer loop
    vertex 19.824828349563948 31.143368464952445 0.0
    vertex 18.274828349563947 31.143368464952445 3.400000000000015
    vertex 19.824828349563948 31.143368464952445 3.4000000000000137
  endloop
endfacet
facet normal 1.0 0.0 0.0
  outer loop
    vertex 19.824828349563948 29.14336846495245 0.0
    vertex 19.824828349563948 31.143368464952445 3.4000000000000137
    vertex 19.824828349563948 29.14336846495244 3.3999999999999995
  endloop
endfacet
facet normal 1.0 0.0 0.0
  outer loop
    vertex 19.824828349563948 31.143368464952445 3.4000000000000137
    vertex 19.824828349563948 29.14336846495245 0.0
    vertex 19.824828349563948 31.143368464952445 0.0
  endloop
endfacet
facet normal 1.0 0.0 0.0
  outer loop
    vertex 2.8748283495639457 29.14336846495245 0.0
    vertex 2.8748283495639457 30.993368464952447 3.4000000000000137
    vertex 2.8748283495639457 29.14336846495244 3.3999999999999995
  endloop
endfacet
facet normal 1.0 0.0 0.0
  outer loop
    vertex 2.8748283495639457 30.993368464952447 3.4000000000000137
    vertex 2.8748283495639457 29.14336846495245 0.0
    vertex 2.8748283495639457 30.993368464952447 0.0
  endloop
endfacet
facet normal 0.0 -1.0 0.0
  outer loop
    vertex 15.674828349563949 30.993368464952447 3.4000000000000137
    vertex 2.8748283495639457 30.993368464952447 0.0
    vertex 15.674828349563949 30.993368464952447 0.0
  endloop
endfacet
facet normal 0.0 -1.0 0.0
  outer loop
    vertex 2.8748283495639457 30.993368464952447 0.0
    vertex 15.674828349563949 30.993368464952447 3.4000000000000137
    vertex 2.8748283495639457 30.993368464952447 3.4000000000000137
  endloop
endfacet
facet normal -0.13052619160448126 0.0 -0.9914448614548518
  outer loop
    vertex 16.724828349563946 29.14336846495245 0.0
    vertex 16.466009305660876 25.14336846495245 0.03407417338954017
    vertex 16.466009305660876 29.14336846495245 0.03407417338954017
  endloop
endfacet
facet normal -0.13052619160448126 0.0 -0.9914448614548518
  outer loop
    vertex 16.466009305660876 25.14336846495245 0.03407417338954017
    vertex 16.724828349563946 29.14336846495245 0.0
    vertex 16.724828349563946 25.14336846495245 0.0
  endloop
endfacet
facet normal -0.3826834306442311 0.0 -0.9238795332240898
  outer loop
    vertex 16.466009305660876 29.14336846495245 0.03407417338954017
    vertex 16.224828351714745 25.14336846495245 0.13397459497379804
    vertex 16.224828351714745 29.14336846495245 0.13397459497379804
  endloop
endfacet
facet normal -0.3826834306442311 0.0 -0.9238795332240898
  outer loop
    vertex 16.224828351714745 25.14336846495245 0.13397459497379804
    vertex 16.466009305660876 29.14336846495245 0.03407417338954017
    vertex 16.466009305660876 25.14336846495245 0.03407417338954017
  endloop
endfacet
facet normal -0.7933533376454557 0.0 -0.6087614324567675
  outer loop
    vertex 15.858802948263035 29.14336846495245 0.4999999956984053
    vertex 16.017721571011577 25.14336846495245 0.2928932161792886
    vertex 15.858802948263035 25.14336846495245 0.4999999956984194
  endloop
endfacet
facet normal -0.7933533376454557 0.0 -0.6087614324567675
  outer loop
    vertex 16.017721571011577 25.14336846495245 0.2928932161792886
    vertex 15.858802948263035 29.14336846495245 0.4999999956984053
    vertex 16.017721571011577 29.14336846495245 0.2928932161792745
  endloop
endfacet
facet normal -0.9238795303728757 0.0 -0.38268343752767076
  outer loop
    vertex 15.758902524881838 29.14336846495244 0.7411809489002231
    vertex 15.858802948263035 25.14336846495245 0.4999999956984194
    vertex 15.758902524881838 25.14336846495244 0.7411809489002358
  endloop
endfacet
facet normal -0.9238795303728757 0.0 -0.38268343752767076
  outer loop
    vertex 15.858802948263035 25.14336846495245 0.4999999956984194
    vertex 15.758902524881838 29.14336846495244 0.7411809489002231
    vertex 15.858802948263035 29.14336846495245 0.4999999956984053
  endloop
endfacet
facet normal -0.9914448604823556 0.0 -0.13052619899132398
  outer loop
    vertex 15.724828349563946 29.14336846495245 0.9999999925494197
    vertex 15.758902524881838 25.14336846495244 0.7411809489002358
    vertex 15.724828349563946 25.14336846495244 0.9999999925494338
  endloop
endfacet
facet normal -0.9914448604823556 0.0 -0.13052619899132398
  outer loop
    vertex 15.758902524881838 25.14336846495244 0.7411809489002358
    vertex 15.724828349563946 29.14336846495245 0.9999999925494197
    vertex 15.758902524881838 29.14336846495244 0.7411809489002231
  endloop
endfacet
facet normal -0.6087614265458245 0.0 -0.7933533421810818
  outer loop
    vertex 16.224828351714745 29.14336846495245 0.13397459497379804
    vertex 16.017721571011577 25.14336846495245 0.2928932161792886
    vertex 16.017721571011577 29.14336846495245 0.2928932161792745
  endloop
endfacet
facet normal -0.6087614265458245 0.0 -0.7933533421810818
  outer loop
    vertex 16.017721571011577 25.14336846495245 0.2928932161792886
    vertex 16.224828351714745 29.14336846495245 0.13397459497379804
    vertex 16.224828351714745 25.14336846495245 0.13397459497379804
  endloop
endfacet
facet normal -0.9914448624273476 0.0 0.13052618421764298
  outer loop
    vertex 15.758902521025133 25.143368464952445 1.2588190367063752
    vertex 15.724828349563946 29.14336846495245 0.9999999925494197
    vertex 15.724828349563946 25.14336846495244 0.9999999925494338
  endloop
endfacet
facet normal -0.9914448624273476 0.0 0.13052618421764298
  outer loop
    vertex 15.724828349563946 29.14336846495245 0.9999999925494197
    vertex 15.758902521025133 25.143368464952445 1.2588190367063752
    vertex 15.758902521025133 29.14336846495245 1.2588190367063612
  endloop
endfacet
facet normal -0.7933533467167081 0.0 0.6087614206348811
  outer loop
    vertex 16.017721560474865 25.14336846495245 1.7071067732840157
    vertex 15.858802940812456 29.14336846495245 1.4999999913968112
    vertex 15.858802940812456 25.143368464952445 1.4999999913968238
  endloop
endfacet
facet normal -0.7933533467167081 0.0 0.6087614206348811
  outer loop
    vertex 15.858802940812456 29.14336846495245 1.4999999913968112
    vertex 16.017721560474865 25.14336846495245 1.7071067732840157
    vertex 16.017721560474865 29.14336846495245 1.7071067732840144
  endloop
endfacet
facet normal -0.6087614383677121 0.0 0.7933533331098283
  outer loop
    vertex 16.22482833880996 25.14336846495245 1.8660253975756227
    vertex 16.017721560474865 29.14336846495245 1.7071067732840144
    vertex 16.017721560474865 25.14336846495245 1.7071067732840157
  endloop
endfacet
facet normal -0.6087614383677121 0.0 0.7933533331098283
  outer loop
    vertex 16.017721560474865 29.14336846495245 1.7071067732840144
    vertex 16.22482833880996 25.14336846495245 1.8660253975756227
    vertex 16.22482833880996 29.14336846495245 1.8660253975756214
  endloop
endfacet
facet normal -0.38268344441110885 0.0 0.9238795275216622
  outer loop
    vertex 16.46600929126746 25.14336846495245 1.9659258227537586
    vertex 16.22482833880996 29.14336846495245 1.8660253975756214
    vertex 16.22482833880996 25.14336846495245 1.8660253975756227
  endloop
endfacet
facet normal -0.38268344441110885 0.0 0.9238795275216622
  outer loop
    vertex 16.22482833880996 29.14336846495245 1.8660253975756214
    vertex 16.46600929126746 25.14336846495245 1.9659258227537586
    vertex 16.46600929126746 29.14336846495244 1.9659258227537573
  endloop
endfacet
facet normal -0.1305262063781595 -7.427760089438267e-17 0.99144485950986
  outer loop
    vertex 16.724828334662785 25.14336846495245 2.0000000000000004
    vertex 16.46600929126746 29.14336846495244 1.9659258227537573
    vertex 16.46600929126746 25.14336846495245 1.9659258227537586
  endloop
endfacet
facet normal -0.1305262063781595 -7.427760089438267e-17 0.99144485950986
  outer loop
    vertex 16.46600929126746 29.14336846495244 1.9659258227537573
    vertex 16.724828334662785 25.14336846495245 2.0000000000000004
    vertex 16.724828334662785 29.14336846495244 2.0000000000000018
  endloop
endfacet
facet normal 0.38268344441110885 0.0 0.9238795275216622
  outer loop
    vertex 18.224828360317932 25.14336846495245 1.8660253975756227
    vertex 17.98364740786043 29.14336846495244 1.9659258227537573
    vertex 17.98364740786043 25.14336846495245 1.9659258227537586
  endloop
endfacet
facet normal 0.38268344441110885 0.0 0.9238795275216622
  outer loop
    vertex 17.98364740786043 29.14336846495244 1.9659258227537573
    vertex 18.224828360317932 25.14336846495245 1.8660253975756227
    vertex 18.224828360317932 29.14336846495245 1.8660253975756214
  endloop
endfacet
facet normal 0.7933533467167081 0.0 0.6087614206348811
  outer loop
    vertex 18.590853758315436 29.14336846495245 1.4999999913968112
    vertex 18.431935138653028 25.14336846495245 1.7071067732840157
    vertex 18.590853758315436 25.143368464952445 1.4999999913968238
  endloop
endfacet
facet normal 0.7933533467167081 0.0 0.6087614206348811
  outer loop
    vertex 18.431935138653028 25.14336846495245 1.7071067732840157
    vertex 18.590853758315436 29.14336846495245 1.4999999913968112
    vertex 18.431935138653028 29.14336846495245 1.7071067732840144
  endloop
endfacet
facet normal 0.9238795360753017 0.0 0.38268342376079617
  outer loop
    vertex 18.690754178102758 29.14336846495245 1.2588190367063612
    vertex 18.590853758315436 25.143368464952445 1.4999999913968238
    vertex 18.690754178102758 25.143368464952445 1.2588190367063752
  endloop
endfacet
facet normal 0.9238795360753017 0.0 0.38268342376079617
  outer loop
    vertex 18.590853758315436 25.143368464952445 1.4999999913968238
    vertex 18.690754178102758 29.14336846495245 1.2588190367063612
    vertex 18.590853758315436 29.14336846495245 1.4999999913968112
  endloop
endfacet
facet normal 0.9914448624273476 0.0 0.13052618421764298
  outer loop
    vertex 18.724828349563946 29.14336846495245 0.9999999925494197
    vertex 18.690754178102758 25.143368464952445 1.2588190367063752
    vertex 18.724828349563946 25.14336846495244 0.9999999925494338
  endloop
endfacet
facet normal 0.9914448624273476 0.0 0.13052618421764298
  outer loop
    vertex 18.690754178102758 25.143368464952445 1.2588190367063752
    vertex 18.724828349563946 29.14336846495245 0.9999999925494197
    vertex 18.690754178102758 29.14336846495245 1.2588190367063612
  endloop
endfacet
facet normal 0.6087614383677121 0.0 0.7933533331098283
  outer loop
    vertex 18.431935138653028 25.14336846495245 1.7071067732840157
    vertex 18.224828360317932 29.14336846495245 1.8660253975756214
    vertex 18.224828360317932 25.14336846495245 1.8660253975756227
  endloop
endfacet
facet normal 0.6087614383677121 0.0 0.7933533331098283
  outer loop
    vertex 18.224828360317932 29.14336846495245 1.8660253975756214
    vertex 18.431935138653028 25.14336846495245 1.7071067732840157
    vertex 18.431935138653028 29.14336846495245 1.7071067732840144
  endloop
endfacet
facet normal 0.9914448604823556 0.0 -0.13052619899132398
  outer loop
    vertex 18.690754174246052 29.14336846495244 0.7411809489002231
    vertex 18.724828349563946 25.14336846495244 0.9999999925494338
    vertex 18.690754174246052 25.14336846495244 0.7411809489002358
  endloop
endfacet
facet normal 0.9914448604823556 0.0 -0.13052619899132398
  outer loop
    vertex 18.724828349563946 25.14336846495244 0.9999999925494338
    vertex 18.690754174246052 29.14336846495244 0.7411809489002231
    vertex 18.724828349563946 29.14336846495245 0.9999999925494197
  endloop
endfacet
facet normal 0.6087614265458245 0.0 -0.7933533421810818
  outer loop
    vertex 18.431935128116315 29.14336846495245 0.2928932161792745
    vertex 18.224828347413148 25.14336846495245 0.13397459497379804
    vertex 18.224828347413148 29.14336846495245 0.13397459497379804
  endloop
endfacet
facet normal 0.6087614265458245 0.0 -0.7933533421810818
  outer loop
    vertex 18.224828347413148 25.14336846495245 0.13397459497379804
    vertex 18.431935128116315 29.14336846495245 0.2928932161792745
    vertex 18.431935128116315 25.14336846495245 0.2928932161792886
  endloop
endfacet
facet normal 0.3826834306442311 0.0 -0.9238795332240898
  outer loop
    vertex 18.224828347413148 29.14336846495245 0.13397459497379804
    vertex 17.983647393467013 25.14336846495245 0.03407417338954017
    vertex 17.983647393467013 29.14336846495245 0.03407417338954017
  endloop
endfacet
facet normal 0.3826834306442311 0.0 -0.9238795332240898
  outer loop
    vertex 17.983647393467013 25.14336846495245 0.03407417338954017
    vertex 18.224828347413148 29.14336846495245 0.13397459497379804
    vertex 18.224828347413148 25.14336846495245 0.13397459497379804
  endloop
endfacet
facet normal -5.731843968004589e-32 -1.0 -1.2923025172407596e-16
  outer loop
    vertex 17.983647393467013 25.14336846495245 0.03407417338954017
    vertex 16.724828349563946 25.14336846495245 0.0
    vertex 17.724828349563946 25.14336846495245 0.0
  endloop
endfacet
facet normal -5.731843968004589e-32 -1.0 -1.2923025172407596e-16
  outer loop
    vertex 16.724828349563946 25.14336846495245 0.0
    vertex 17.983647393467013 25.14336846495245 0.03407417338954017
    vertex 16.466009305660876 25.14336846495245 0.03407417338954017
  endloop
endfacet
facet normal -5.731843968004589e-32 -1.0 -1.2923025172407596e-16
  outer loop
    vertex 16.466009305660876 25.14336846495245 0.03407417338954017
    vertex 17.983647393467013 25.14336846495245 0.03407417338954017
    vertex 18.224828347413148 25.14336846495245 0.13397459497379804
  endloop
endfacet
facet normal -5.731843968004589e-32 -1.0 -1.2923025172407596e-16
  outer loop
    vertex 16.466009305660876 25.14336846495245 0.03407417338954017
    vertex 18.224828347413148 25.14336846495245 0.13397459497379804
    vertex 16.224828351714745 25.14336846495245 0.13397459497379804
  endloop
endfacet
facet normal -5.731843968004589e-32 -1.0 -1.2923025172407596e-16
  outer loop
    vertex 16.224828351714745 25.14336846495245 0.13397459497379804
    vertex 18.224828347413148 25.14336846495245 0.13397459497379804
    vertex 18.431935128116315 25.14336846495245 0.2928932161792886
  endloop
endfacet
facet normal -5.731843968004589e-32 -1.0 -1.2923025172407596e-16
  outer loop
    vertex 16.224828351714745 25.14336846495245 0.13397459497379804
    vertex 18.431935128116315 25.14336846495245 0.2928932161792886
    vertex 16.017721571011577 25.14336846495245 0.2928932161792886
  endloop
endfacet
facet normal -5.731843968004589e-32 -1.0 -1.2923025172407596e-16
  outer loop
    vertex 16.017721571011577 25.14336846495245 0.2928932161792886
    vertex 18.431935128116315 25.14336846495245 0.2928932161792886
    vertex 18.590853750864856 25.14336846495245 0.4999999956984194
  endloop
endfacet
facet normal -5.731843968004589e-32 -1.0 -1.2923025172407596e-16
  outer loop
    vertex 16.017721571011577 25.14336846495245 0.2928932161792886
    vertex 18.590853750864856 25.14336846495245 0.4999999956984194
    vertex 15.858802948263035 25.14336846495245 0.4999999956984194
  endloop
endfacet
facet normal -5.731843968004589e-32 -1.0 -1.2923025172407596e-16
  outer loop
    vertex 15.858802948263035 25.14336846495245 0.4999999956984194
    vertex 18.590853750864856 25.14336846495245 0.4999999956984194
    vertex 18.690754174246052 25.14336846495244 0.7411809489002358
  endloop
endfacet
facet normal -5.731843968004589e-32 -1.0 -1.2923025172407596e-16
  outer loop
    vertex 15.858802948263035 25.14336846495245 0.4999999956984194
    vertex 18.690754174246052 25.14336846495244 0.7411809489002358
    vertex 15.758902524881838 25.14336846495244 0.7411809489002358
  endloop
endfacet
facet normal -5.731843968004589e-32 -1.0 -1.2923025172407596e-16
  outer loop
    vertex 15.758902524881838 25.14336846495244 0.7411809489002358
    vertex 18.690754174246052 25.14336846495244 0.7411809489002358
    vertex 18.724828349563946 25.14336846495244 0.9999999925494338
  endloop
endfacet
facet normal -5.731843968004589e-32 -1.0 -1.2923025172407596e-16
  outer loop
    vertex 15.758902524881838 25.14336846495244 0.7411809489002358
    vertex 18.724828349563946 25.14336846495244 0.9999999925494338
    vertex 15.724828349563946 25.14336846495244 0.9999999925494338
  endloop
endfacet
facet normal -5.731843968004589e-32 -1.0 -1.2923025172407596e-16
  outer loop
    vertex 15.724828349563946 25.14336846495244 0.9999999925494338
    vertex 18.724828349563946 25.14336846495244 0.9999999925494338
    vertex 18.690754178102758 25.143368464952445 1.2588190367063752
  endloop
endfacet
facet normal -5.731843968004589e-32 -1.0 -1.2923025172407596e-16
  outer loop
    vertex 15.724828349563946 25.14336846495244 0.9999999925494338
    vertex 18.690754178102758 25.143368464952445 1.2588190367063752
    vertex 15.758902521025133 25.143368464952445 1.2588190367063752
  endloop
endfacet
facet normal -5.731843968004589e-32 -1.0 -1.2923025172407596e-16
  outer loop
    vertex 15.758902521025133 25.143368464952445 1.2588190367063752
    vertex 18.690754178102758 25.143368464952445 1.2588190367063752
    vertex 18.590853758315436 25.143368464952445 1.4999999913968238
  endloop
endfacet
facet normal -5.731843968004589e-32 -1.0 -1.2923025172407596e-16
  outer loop
    vertex 15.758902521025133 25.143368464952445 1.2588190367063752
    vertex 18.590853758315436 25.143368464952445 1.4999999913968238
    vertex 15.858802940812456 25.143368464952445 1.4999999913968238
  endloop
endfacet
facet normal -5.731843968004589e-32 -1.0 -1.2923025172407596e-16
  outer loop
    vertex 15.858802940812456 25.143368464952445 1.4999999913968238
    vertex 18.590853758315436 25.143368464952445 1.4999999913968238
    vertex 18.431935138653028 25.14336846495245 1.7071067732840157
  endloop
endfacet
facet normal -5.731843968004589e-32 -1.0 -1.2923025172407596e-16
  outer loop
    vertex 15.858802940812456 25.143368464952445 1.4999999913968238
    vertex 18.431935138653028 25.14336846495245 1.7071067732840157
    vertex 16.017721560474865 25.14336846495245 1.7071067732840157
  endloop
endfacet
facet normal -5.731843968004589e-32 -1.0 -1.2923025172407596e-16
  outer loop
    vertex 16.017721560474865 25.14336846495245 1.7071067732840157
    vertex 18.431935138653028 25.14336846495245 1.7071067732840157
    vertex 18.224828360317932 25.14336846495245 1.8660253975756227
  endloop
endfacet
facet normal -5.731843968004589e-32 -1.0 -1.2923025172407596e-16
  outer loop
    vertex 16.017721560474865 25.14336846495245 1.7071067732840157
    vertex 18.224828360317932 25.14336846495245 1.8660253975756227
    vertex 16.22482833880996 25.14336846495245 1.8660253975756227
  endloop
endfacet
facet normal -5.731843968004589e-32 -1.0 -1.2923025172407596e-16
  outer loop
    vertex 16.22482833880996 25.14336846495245 1.8660253975756227
    vertex 18.224828360317932 25.14336846495245 1.8660253975756227
    vertex 17.98364740786043 25.14336846495245 1.9659258227537586
  endloop
endfacet
facet normal -5.731843968004589e-32 -1.0 -1.2923025172407596e-16
  outer loop
    vertex 16.22482833880996 25.14336846495245 1.8660253975756227
    vertex 17.98364740786043 25.14336846495245 1.9659258227537586
    vertex 16.46600929126746 25.14336846495245 1.9659258227537586
  endloop
endfacet
facet normal -5.731843968004589e-32 -1.0 -1.2923025172407596e-16
  outer loop
    vertex 16.46600929126746 25.14336846495245 1.9659258227537586
    vertex 17.98364740786043 25.14336846495245 1.9659258227537586
    vertex 17.724828364465107 25.14336846495245 2.0000000000000004
  endloop
endfacet
facet normal -5.731843968004589e-32 -1.0 -1.2923025172407596e-16
  outer loop
    vertex 16.46600929126746 25.14336846495245 1.9659258227537586
    vertex 17.724828364465107 25.14336846495245 2.0000000000000004
    vertex 16.724828334662785 25.14336846495245 2.0000000000000004
  endloop
endfacet
facet normal 0.0 -1.0 0.0
  outer loop
    vertex 19.824828349563948 29.14336846495245 0.0
    vertex 17.983647393467013 29.14336846495245 0.03407417338954017
    vertex 17.724828349563946 29.14336846495245 0.0
  endloop
endfacet
facet normal 0.0 -1.0 0.0
  outer loop
    vertex 17.983647393467013 29.14336846495245 0.03407417338954017
    vertex 19.824828349563948 29.14336846495245 0.0
    vertex 18.224828347413148 29.14336846495245 0.13397459497379804
  endloop
endfacet
facet normal 0.0 -1.0 0.0
  outer loop
    vertex 18.224828347413148 29.14336846495245 0.13397459497379804
    vertex 19.824828349563948 29.14336846495245 0.0
    vertex 18.431935128116315 29.14336846495245 0.2928932161792745
  endloop
endfacet
facet normal 0.0 -1.0 0.0
  outer loop
    vertex 18.431935128116315 29.14336846495245 0.2928932161792745
    vertex 19.824828349563948 29.14336846495245 0.0
    vertex 18.590853750864856 29.14336846495245 0.4999999956984053
  endloop
endfacet
facet normal 0.0 -1.0 0.0
  outer loop
    vertex 18.590853750864856 29.14336846495245 0.4999999956984053
    vertex 19.824828349563948 29.14336846495245 0.0
    vertex 19.824828349563948 29.14336846495244 3.3999999999999995
  endloop
endfacet
facet normal 0.0 -1.0 0.0
  outer loop
    vertex 18.590853750864856 29.14336846495245 0.4999999956984053
    vertex 19.824828349563948 29.14336846495244 3.3999999999999995
    vertex 18.690754174246052 29.14336846495244 0.7411809489002231
  endloop
endfacet
facet normal 0.0 -1.0 0.0
  outer loop
    vertex 18.690754174246052 29.14336846495244 0.7411809489002231
    vertex 19.824828349563948 29.14336846495244 3.3999999999999995
    vertex 18.724828349563946 29.14336846495245 0.9999999925494197
  endloop
endfacet
facet normal 0.0 -1.0 0.0
  outer loop
    vertex 18.724828349563946 29.14336846495245 0.9999999925494197
    vertex 19.824828349563948 29.14336846495244 3.3999999999999995
    vertex 18.690754178102758 29.14336846495245 1.2588190367063612
  endloop
endfacet
facet normal 0.0 -1.0 0.0
  outer loop
    vertex 18.690754178102758 29.14336846495245 1.2588190367063612
    vertex 19.824828349563948 29.14336846495244 3.3999999999999995
    vertex 18.590853758315436 29.14336846495245 1.4999999913968112
  endloop
endfacet
facet normal 0.0 -1.0 0.0
  outer loop
    vertex 18.590853758315436 29.14336846495245 1.4999999913968112
    vertex 19.824828349563948 29.14336846495244 3.3999999999999995
    vertex 18.431935138653028 29.14336846495245 1.7071067732840144
  endloop
endfacet
facet normal 0.0 -1.0 0.0
  outer loop
    vertex 18.431935138653028 29.14336846495245 1.7071067732840144
    vertex 19.824828349563948 29.14336846495244 3.3999999999999995
    vertex 18.224828360317932 29.14336846495245 1.8660253975756214
  endloop
endfacet
facet normal 0.0 -1.0 0.0
  outer loop
    vertex 18.224828360317932 29.14336846495245 1.8660253975756214
    vertex 19.824828349563948 29.14336846495244 3.3999999999999995
    vertex 17.98364740786043 29.14336846495244 1.9659258227537573
  endloop
endfacet
facet normal 0.0 -1.0 0.0
  outer loop
    vertex 17.98364740786043 29.14336846495244 1.9659258227537573
    vertex 19.824828349563948 29.14336846495244 3.3999999999999995
    vertex 17.724828364465107 29.14336846495244 2.0000000000000018
  endloop
endfacet
facet normal 0.0 -1.0 0.0
  outer loop
    vertex 17.724828364465107 29.14336846495244 2.0000000000000018
    vertex 19.824828349563948 29.14336846495244 3.3999999999999995
    vertex 17.324828349563944 29.14336846495245 2.3500000000000014
  endloop
endfacet
facet normal 0.0 -1.0 0.0
  outer loop
    vertex 17.324828349563944 29.14336846495245 2.3500000000000014
    vertex 19.824828349563948 29.14336846495244 3.3999999999999995
    vertex 17.124828349563945 29.14336846495245 2.3500000000000014
  endloop
endfacet
facet normal 0.0 -1.0 0.0
  outer loop
    vertex 16.466009305660876 29.14336846495245 0.03407417338954017
    vertex 15.674828349563949 29.14336846495245 0.0
    vertex 16.724828349563946 29.14336846495245 0.0
  endloop
endfacet
facet normal 0.0 -1.0 0.0
  outer loop
    vertex 15.674828349563949 29.14336846495245 0.0
    vertex 16.466009305660876 29.14336846495245 0.03407417338954017
    vertex 16.224828351714745 29.14336846495245 0.13397459497379804
  endloop
endfacet
facet normal 0.0 -1.0 0.0
  outer loop
    vertex 15.674828349563949 29.14336846495245 0.0
    vertex 16.224828351714745 29.14336846495245 0.13397459497379804
    vertex 16.017721571011577 29.14336846495245 0.2928932161792745
  endloop
endfacet
facet normal 0.0 -1.0 0.0
  outer loop
    vertex 15.674828349563949 29.14336846495245 0.0
    vertex 16.017721571011577 29.14336846495245 0.2928932161792745
    vertex 15.858802948263035 29.14336846495245 0.4999999956984053
  endloop
endfacet
facet normal 0.0 -1.0 0.0
  outer loop
    vertex 15.674828349563949 29.14336846495245 0.0
    vertex 15.858802948263035 29.14336846495245 0.4999999956984053
    vertex 15.758902524881838 29.14336846495244 0.7411809489002231
  endloop
endfacet
facet normal 0.0 -1.0 0.0
  outer loop
    vertex 15.674828349563949 29.14336846495245 0.0
    vertex 15.758902524881838 29.14336846495244 0.7411809489002231
    vertex 15.724828349563946 29.14336846495245 0.9999999925494197
  endloop
endfacet
facet normal 0.0 -1.0 0.0
  outer loop
    vertex 15.674828349563949 29.14336846495245 0.0
    vertex 15.724828349563946 29.14336846495245 0.9999999925494197
    vertex 15.674828349563949 29.14336846495244 3.3999999999999995
  endloop
endfacet
facet normal 0.0 -1.0 0.0
  outer loop
    vertex 15.674828349563949 29.14336846495244 3.3999999999999995
    vertex 15.724828349563946 29.14336846495245 0.9999999925494197
    vertex 15.758902521025133 29.14336846495245 1.2588190367063612
  endloop
endfacet
facet normal 0.0 -1.0 0.0
  outer loop
    vertex 15.674828349563949 29.14336846495244 3.3999999999999995
    vertex 15.758902521025133 29.14336846495245 1.2588190367063612
    vertex 15.858802940812456 29.14336846495245 1.4999999913968112
  endloop
endfacet
facet normal 0.0 -1.0 0.0
  outer loop
    vertex 15.674828349563949 29.14336846495244 3.3999999999999995
    vertex 15.858802940812456 29.14336846495245 1.4999999913968112
    vertex 16.017721560474865 29.14336846495245 1.7071067732840144
  endloop
endfacet
facet normal 0.0 -1.0 0.0
  outer loop
    vertex 15.674828349563949 29.14336846495244 3.3999999999999995
    vertex 16.017721560474865 29.14336846495245 1.7071067732840144
    vertex 16.22482833880996 29.14336846495245 1.8660253975756214
  endloop
endfacet
facet normal 0.0 -1.0 0.0
  outer loop
    vertex 15.674828349563949 29.14336846495244 3.3999999999999995
    vertex 16.22482833880996 29.14336846495245 1.8660253975756214
    vertex 16.46600929126746 29.14336846495244 1.9659258227537573
  endloop
endfacet
facet normal 0.0 -1.0 0.0
  outer loop
    vertex 15.674828349563949 29.14336846495244 3.3999999999999995
    vertex 16.46600929126746 29.14336846495244 1.9659258227537573
    vertex 16.724828334662785 29.14336846495244 2.0000000000000018
  endloop
endfacet
facet normal 0.0 -1.0 0.0
  outer loop
    vertex 15.674828349563949 29.14336846495244 3.3999999999999995
    vertex 16.724828334662785 29.14336846495244 2.0000000000000018
    vertex 17.124828349563945 29.14336846495245 2.3500000000000014
  endloop
endfacet
facet normal 0.0 -1.0 0.0
  outer loop
    vertex 15.674828349563949 29.14336846495244 3.3999999999999995
    vertex 17.124828349563945 29.14336846495245 2.3500000000000014
    vertex 19.824828349563948 29.14336846495244 3.3999999999999995
  endloop
endfacet
facet normal -0.7933533467167052 0.0 -0.6087614206348851
  outer loop
    vertex -0.04119705918754643 29.14336846495245 0.5000000086031895
    vertex 0.1177215604748655 25.14336846495245 0.29289322671600027
    vertex -0.04119705918754643 25.14336846495245 0.5000000086032036
  endloop
endfacet
facet normal -0.7933533467167052 0.0 -0.6087614206348851
  outer loop
    vertex 0.1177215604748655 25.14336846495245 0.29289322671600027
    vertex -0.04119705918754643 29.14336846495245 0.5000000086031895
    vertex 0.1177215604748655 29.14336846495245 0.2928932267159876
  endloop
endfacet
facet normal -0.9238795360753017 0.0 0.38268342376079617
  outer loop
    vertex 15.858802940812456 29.14336846495245 1.4999999913968112
    vertex 15.758902521025133 25.143368464952445 1.2588190367063752
    vertex 15.858802940812456 25.143368464952445 1.4999999913968238
  endloop
endfacet
facet normal -0.9238795360753017 0.0 0.38268342376079617
  outer loop
    vertex 15.758902521025133 25.143368464952445 1.2588190367063752
    vertex 15.858802940812456 29.14336846495245 1.4999999913968112
    vertex 15.758902521025133 29.14336846495245 1.2588190367063612
  endloop
endfacet
facet normal 0.9238795303728757 0.0 -0.38268343752767076
  outer loop
    vertex 18.590853750864856 25.14336846495245 0.4999999956984194
    vertex 18.690754174246052 29.14336846495244 0.7411809489002231
    vertex 18.690754174246052 25.14336846495244 0.7411809489002358
  endloop
endfacet
facet normal 0.9238795303728757 0.0 -0.38268343752767076
  outer loop
    vertex 18.690754174246052 29.14336846495244 0.7411809489002231
    vertex 18.590853750864856 25.14336846495245 0.4999999956984194
    vertex 18.590853750864856 29.14336846495245 0.4999999956984053
  endloop
endfacet
facet normal 0.1305262063781595 -7.427760089438267e-17 0.99144485950986
  outer loop
    vertex 17.98364740786043 25.14336846495245 1.9659258227537586
    vertex 17.724828364465107 29.14336846495244 2.0000000000000018
    vertex 17.724828364465107 25.14336846495245 2.0000000000000004
  endloop
endfacet
facet normal 0.1305262063781595 -7.427760089438267e-17 0.99144485950986
  outer loop
    vertex 17.724828364465107 29.14336846495244 2.0000000000000018
    vertex 17.98364740786043 25.14336846495245 1.9659258227537586
    vertex 17.98364740786043 29.14336846495244 1.9659258227537573
  endloop
endfacet
facet normal 0.7933533376454557 0.0 -0.6087614324567675
  outer loop
    vertex 18.431935128116315 29.14336846495245 0.2928932161792745
    vertex 18.590853750864856 25.14336846495245 0.4999999956984194
    vertex 18.431935128116315 25.14336846495245 0.2928932161792886
  endloop
endfacet
facet normal 0.7933533376454557 0.0 -0.6087614324567675
  outer loop
    vertex 18.590853750864856 25.14336846495245 0.4999999956984194
    vertex 18.431935128116315 29.14336846495245 0.2928932161792745
    vertex 18.590853750864856 29.14336846495245 0.4999999956984053
  endloop
endfacet
facet normal 0.13052619160448126 0.0 -0.9914448614548518
  outer loop
    vertex 17.983647393467013 29.14336846495245 0.03407417338954017
    vertex 17.724828349563946 25.14336846495245 0.0
    vertex 17.724828349563946 29.14336846495245 0.0
  endloop
endfacet
facet normal 0.13052619160448126 0.0 -0.9914448614548518
  outer loop
    vertex 17.724828349563946 25.14336846495245 0.0
    vertex 17.983647393467013 29.14336846495245 0.03407417338954017
    vertex 17.983647393467013 25.14336846495245 0.03407417338954017
  endloop
endfacet
facet normal -1.0 0.0 0.0
  outer loop
    vertex -1.275171650436054 31.143368464952445 3.4000000000000137
    vertex -1.275171650436054 29.14336846495245 0.0
    vertex -1.275171650436054 29.14336846495244 3.3999999999999995
  endloop
endfacet
facet normal -1.0 0.0 0.0
  outer loop
    vertex -1.275171650436054 29.14336846495245 0.0
    vertex -1.275171650436054 31.143368464952445 3.4000000000000137
    vertex -1.275171650436054 31.143368464952445 0.0
  endloop
endfacet
facet normal -0.13052620637816098 0.0 -0.9914448595098599
  outer loop
    vertex 0.8248283346627853 29.14336846495245 0.0
    vertex 0.5660092912674604 25.14336846495245 0.03407417724624477
    vertex 0.5660092912674604 29.14336846495245 0.03407417724624477
  endloop
endfacet
facet normal -0.13052620637816098 0.0 -0.9914448595098599
  outer loop
    vertex 0.5660092912674604 25.14336846495245 0.03407417724624477
    vertex 0.8248283346627853 29.14336846495245 0.0
    vertex 0.8248283346627853 25.14336846495245 0.0
  endloop
endfacet
facet normal 3.7473184340831847e-32 -1.0 -1.2923025260875265e-16
  outer loop
    vertex 2.083647407860432 25.14336846495245 0.03407417724624477
    vertex 0.8248283346627853 25.14336846495245 0.0
    vertex 1.824828364465107 25.14336846495245 0.0
  endloop
endfacet
facet normal 3.7473184340831847e-32 -1.0 -1.2923025260875265e-16
  outer loop
    vertex 0.8248283346627853 25.14336846495245 0.0
    vertex 2.083647407860432 25.14336846495245 0.03407417724624477
    vertex 0.5660092912674604 25.14336846495245 0.03407417724624477
  endloop
endfacet
facet normal 3.7473184340831847e-32 -1.0 -1.2923025260875265e-16
  outer loop
    vertex 0.5660092912674604 25.14336846495245 0.03407417724624477
    vertex 2.083647407860432 25.14336846495245 0.03407417724624477
    vertex 2.3248283603179325 25.14336846495245 0.1339746024243779
  endloop
endfacet
facet normal 3.7473184340831847e-32 -1.0 -1.2923025260875265e-16
  outer loop
    vertex 0.5660092912674604 25.14336846495245 0.03407417724624477
    vertex 2.3248283603179325 25.14336846495245 0.1339746024243779
    vertex 0.32482833880996004 25.14336846495245 0.1339746024243779
  endloop
endfacet
facet normal 3.7473184340831847e-32 -1.0 -1.2923025260875265e-16
  outer loop
    vertex 0.32482833880996004 25.14336846495245 0.1339746024243779
    vertex 2.3248283603179325 25.14336846495245 0.1339746024243779
    vertex 2.5319351386530284 25.14336846495245 0.29289322671600027
  endloop
endfacet
facet normal 3.7473184340831847e-32 -1.0 -1.2923025260875265e-16
  outer loop
    vertex 0.32482833880996004 25.14336846495245 0.1339746024243779
    vertex 2.5319351386530284 25.14336846495245 0.29289322671600027
    vertex 0.1177215604748655 25.14336846495245 0.29289322671600027
  endloop
endfacet
facet normal 3.7473184340831847e-32 -1.0 -1.2923025260875265e-16
  outer loop
    vertex 0.1177215604748655 25.14336846495245 0.29289322671600027
    vertex 2.5319351386530284 25.14336846495245 0.29289322671600027
    vertex 2.690853758315439 25.14336846495245 0.5000000086032036
  endloop
endfacet
facet normal 3.7473184340831847e-32 -1.0 -1.2923025260875265e-16
  outer loop
    vertex 0.1177215604748655 25.14336846495245 0.29289322671600027
    vertex 2.690853758315439 25.14336846495245 0.5000000086032036
    vertex -0.04119705918754643 25.14336846495245 0.5000000086032036
  endloop
endfacet
facet normal 3.7473184340831847e-32 -1.0 -1.2923025260875265e-16
  outer loop
    vertex -0.04119705918754643 25.14336846495245 0.5000000086032036
    vertex 2.690853758315439 25.14336846495245 0.5000000086032036
    vertex 2.790754178102759 25.14336846495244 0.7411809632936535
  endloop
endfacet
facet normal 3.7473184340831847e-32 -1.0 -1.2923025260875265e-16
  outer loop
    vertex -0.04119705918754643 25.14336846495245 0.5000000086032036
    vertex 2.790754178102759 25.14336846495244 0.7411809632936535
    vertex -0.1410974789748656 25.14336846495244 0.7411809632936535
  endloop
endfacet
facet normal 3.7473184340831847e-32 -1.0 -1.2923025260875265e-16
  outer loop
    vertex -0.1410974789748656 25.14336846495244 0.7411809632936535
    vertex 2.790754178102759 25.14336846495244 0.7411809632936535
    vertex 2.8248283495639455 25.14336846495244 1.000000007450595
  endloop
endfacet
facet normal 3.7473184340831847e-32 -1.0 -1.2923025260875265e-16
  outer loop
    vertex -0.1410974789748656 25.14336846495244 0.7411809632936535
    vertex 2.8248283495639455 25.14336846495244 1.000000007450595
    vertex -0.17517165043605348 25.14336846495244 1.000000007450595
  endloop
endfacet
facet normal 3.7473184340831847e-32 -1.0 -1.2923025260875265e-16
  outer loop
    vertex -0.17517165043605348 25.14336846495244 1.000000007450595
    vertex 2.8248283495639455 25.14336846495244 1.000000007450595
    vertex 2.7907541742460547 25.143368464952445 1.2588190510997916
  endloop
endfacet
facet normal 3.7473184340831847e-32 -1.0 -1.2923025260875265e-16
  outer loop
    vertex -0.17517165043605348 25.14336846495244 1.000000007450595
    vertex 2.7907541742460547 25.143368464952445 1.2588190510997916
    vertex -0.14109747511816137 25.143368464952445 1.2588190510997916
  endloop
endfacet
facet normal 3.7473184340831847e-32 -1.0 -1.2923025260875265e-16
  outer loop
    vertex -0.14109747511816137 25.143368464952445 1.2588190510997916
    vertex 2.7907541742460547 25.143368464952445 1.2588190510997916
    vertex 2.6908537508648576 25.143368464952445 1.500000004301608
  endloop
endfacet
facet normal 3.7473184340831847e-32 -1.0 -1.2923025260875265e-16
  outer loop
    vertex -0.14109747511816137 25.143368464952445 1.2588190510997916
    vertex 2.6908537508648576 25.143368464952445 1.500000004301608
    vertex -0.04119705173696516 25.143368464952445 1.500000004301608
  endloop
endfacet
facet normal 3.7473184340831847e-32 -1.0 -1.2923025260875265e-16
  outer loop
    vertex -0.04119705173696516 25.143368464952445 1.500000004301608
    vertex 2.6908537508648576 25.143368464952445 1.500000004301608
    vertex 2.531935128116315 25.14336846495245 1.7071067838207274
  endloop
endfacet
facet normal 3.7473184340831847e-32 -1.0 -1.2923025260875265e-16
  outer loop
    vertex -0.04119705173696516 25.143368464952445 1.500000004301608
    vertex 2.531935128116315 25.14336846495245 1.7071067838207274
    vertex 0.11772157101157721 25.14336846495245 1.7071067838207274
  endloop
endfacet
facet normal 3.7473184340831847e-32 -1.0 -1.2923025260875265e-16
  outer loop
    vertex 0.11772157101157721 25.14336846495245 1.7071067838207274
    vertex 2.531935128116315 25.14336846495245 1.7071067838207274
    vertex 2.324828347413148 25.14336846495245 1.8660254050262026
  endloop
endfacet
facet normal 3.7473184340831847e-32 -1.0 -1.2923025260875265e-16
  outer loop
    vertex 0.11772157101157721 25.14336846495245 1.7071067838207274
    vertex 2.324828347413148 25.14336846495245 1.8660254050262026
    vertex 0.3248283517147443 25.14336846495245 1.8660254050262026
  endloop
endfacet
facet normal 3.7473184340831847e-32 -1.0 -1.2923025260875265e-16
  outer loop
    vertex 0.3248283517147443 25.14336846495245 1.8660254050262026
    vertex 2.324828347413148 25.14336846495245 1.8660254050262026
    vertex 2.083647393467016 25.14336846495245 1.9659258266104631
  endloop
endfacet
facet normal 3.7473184340831847e-32 -1.0 -1.2923025260875265e-16
  outer loop
    vertex 0.3248283517147443 25.14336846495245 1.8660254050262026
    vertex 2.083647393467016 25.14336846495245 1.9659258266104631
    vertex 0.5660093056608767 25.14336846495245 1.9659258266104631
  endloop
endfacet
facet normal 3.7473184340831847e-32 -1.0 -1.2923025260875265e-16
  outer loop
    vertex 0.5660093056608767 25.14336846495245 1.9659258266104631
    vertex 2.083647393467016 25.14336846495245 1.9659258266104631
    vertex 1.8248283495639461 25.14336846495245 2.0000000000000004
  endloop
endfacet
facet normal 3.7473184340831847e-32 -1.0 -1.2923025260875265e-16
  outer loop
    vertex 0.5660093056608767 25.14336846495245 1.9659258266104631
    vertex 1.8248283495639461 25.14336846495245 2.0000000000000004
    vertex 0.8248283495639465 25.14336846495245 2.0000000000000004
  endloop
endfacet
facet normal 0.130526206378161 0.0 -0.9914448595098599
  outer loop
    vertex 2.083647407860432 29.14336846495245 0.03407417724624477
    vertex 1.824828364465107 25.14336846495245 0.0
    vertex 1.824828364465107 29.14336846495245 0.0
  endloop
endfacet
facet normal 0.130526206378161 0.0 -0.9914448595098599
  outer loop
    vertex 1.824828364465107 25.14336846495245 0.0
    vertex 2.083647407860432 29.14336846495245 0.03407417724624477
    vertex 2.083647407860432 25.14336846495245 0.03407417724624477
  endloop
endfacet
facet normal 0.382683444411108 0.0 -0.9238795275216625
  outer loop
    vertex 2.3248283603179325 29.14336846495245 0.13397460242438072
    vertex 2.083647407860432 25.14336846495245 0.03407417724624477
    vertex 2.083647407860432 29.14336846495245 0.03407417724624477
  endloop
endfacet
facet normal 0.382683444411108 0.0 -0.9238795275216625
  outer loop
    vertex 2.083647407860432 25.14336846495245 0.03407417724624477
    vertex 2.3248283603179325 29.14336846495245 0.13397460242438072
    vertex 2.3248283603179325 25.14336846495245 0.1339746024243779
  endloop
endfacet
facet normal 0.6087614383677137 0.0 -0.7933533331098273
  outer loop
    vertex 2.5319351386530284 29.14336846495245 0.2928932267159876
    vertex 2.3248283603179325 25.14336846495245 0.1339746024243779
    vertex 2.3248283603179325 29.14336846495245 0.13397460242438072
  endloop
endfacet
facet normal 0.6087614383677137 0.0 -0.7933533331098273
  outer loop
    vertex 2.3248283603179325 25.14336846495245 0.1339746024243779
    vertex 2.5319351386530284 29.14336846495245 0.2928932267159876
    vertex 2.5319351386530284 25.14336846495245 0.29289322671600027
  endloop
endfacet
facet normal 0.7933533467167052 0.0 -0.6087614206348848
  outer loop
    vertex 2.5319351386530284 29.14336846495245 0.2928932267159876
    vertex 2.690853758315439 25.14336846495245 0.5000000086032036
    vertex 2.5319351386530284 25.14336846495245 0.29289322671600027
  endloop
endfacet
facet normal 0.7933533467167052 0.0 -0.6087614206348848
  outer loop
    vertex 2.690853758315439 25.14336846495245 0.5000000086032036
    vertex 2.5319351386530284 29.14336846495245 0.2928932267159876
    vertex 2.690853758315439 29.14336846495245 0.5000000086031895
  endloop
endfacet
facet normal 0.9238795360753039 0.0 -0.3826834237607912
  outer loop
    vertex 2.690853758315439 25.14336846495245 0.5000000086032036
    vertex 2.790754178102759 29.14336846495244 0.7411809632936394
    vertex 2.790754178102759 25.14336846495244 0.7411809632936535
  endloop
endfacet
facet normal 0.9238795360753039 0.0 -0.3826834237607912
  outer loop
    vertex 2.790754178102759 29.14336846495244 0.7411809632936394
    vertex 2.690853758315439 25.14336846495245 0.5000000086032036
    vertex 2.690853758315439 29.14336846495245 0.5000000086031895
  endloop
endfacet
facet normal 0.9914448624273476 0.0 -0.13052618421764164
  outer loop
    vertex 2.790754178102759 29.14336846495244 0.7411809632936394
    vertex 2.8248283495639455 25.14336846495244 1.000000007450595
    vertex 2.790754178102759 25.14336846495244 0.7411809632936535
  endloop
endfacet
facet normal 0.9914448624273476 0.0 -0.13052618421764164
  outer loop
    vertex 2.8248283495639455 25.14336846495244 1.000000007450595
    vertex 2.790754178102759 29.14336846495244 0.7411809632936394
    vertex 2.8248283495639455 29.14336846495245 1.0000000074505808
  endloop
endfacet
facet normal 0.9914448604823557 0.0 0.13052619899132195
  outer loop
    vertex 2.8248283495639455 29.14336846495245 1.0000000074505808
    vertex 2.7907541742460547 25.143368464952445 1.2588190510997916
    vertex 2.8248283495639455 25.14336846495244 1.000000007450595
  endloop
endfacet
facet normal 0.9914448604823557 0.0 0.13052619899132195
  outer loop
    vertex 2.7907541742460547 25.143368464952445 1.2588190510997916
    vertex 2.8248283495639455 29.14336846495245 1.0000000074505808
    vertex 2.7907541742460547 29.14336846495245 1.2588190510997774
  endloop
endfacet
facet normal 0.9238795303728765 0.0 0.3826834375276691
  outer loop
    vertex 2.7907541742460547 29.14336846495245 1.2588190510997774
    vertex 2.6908537508648576 25.143368464952445 1.500000004301608
    vertex 2.7907541742460547 25.143368464952445 1.2588190510997916
  endloop
endfacet
facet normal 0.9238795303728765 0.0 0.3826834375276691
  outer loop
    vertex 2.6908537508648576 25.143368464952445 1.500000004301608
    vertex 2.7907541742460547 29.14336846495245 1.2588190510997774
    vertex 2.6908537508648576 29.14336846495245 1.5000000043015953
  endloop
endfacet
facet normal 0.7933533376454533 0.0 0.6087614324567705
  outer loop
    vertex 2.6908537508648576 29.14336846495245 1.5000000043015953
    vertex 2.531935128116315 25.14336846495245 1.7071067838207274
    vertex 2.6908537508648576 25.143368464952445 1.500000004301608
  endloop
endfacet
facet normal 0.7933533376454533 0.0 0.6087614324567705
  outer loop
    vertex 2.531935128116315 25.14336846495245 1.7071067838207274
    vertex 2.6908537508648576 29.14336846495245 1.5000000043015953
    vertex 2.531935128116315 29.14336846495245 1.7071067838207261
  endloop
endfacet
facet normal 0.6087614265458277 0.0 0.7933533421810796
  outer loop
    vertex 2.531935128116315 25.14336846495245 1.7071067838207274
    vertex 2.324828347413148 29.14336846495245 1.866025405026204
    vertex 2.324828347413148 25.14336846495245 1.8660254050262026
  endloop
endfacet
facet normal 0.6087614265458277 0.0 0.7933533421810796
  outer loop
    vertex 2.324828347413148 29.14336846495245 1.866025405026204
    vertex 2.531935128116315 25.14336846495245 1.7071067838207274
    vertex 2.531935128116315 29.14336846495245 1.7071067838207261
  endloop
endfacet
facet normal 0.38268343064422994 0.0 0.9238795332240902
  outer loop
    vertex 2.324828347413148 25.14336846495245 1.8660254050262026
    vertex 2.083647393467016 29.14336846495244 1.9659258266104618
    vertex 2.083647393467016 25.14336846495245 1.9659258266104631
  endloop
endfacet
facet normal 0.38268343064422994 0.0 0.9238795332240902
  outer loop
    vertex 2.083647393467016 29.14336846495244 1.9659258266104618
    vertex 2.324828347413148 25.14336846495245 1.8660254050262026
    vertex 2.324828347413148 29.14336846495245 1.866025405026204
  endloop
endfacet
facet normal 0.1305261916044783 -7.427760104009859e-17 0.9914448614548523
  outer loop
    vertex 2.083647393467016 25.14336846495245 1.9659258266104631
    vertex 1.8248283495639461 29.14336846495244 2.0000000000000018
    vertex 1.8248283495639461 25.14336846495245 2.0000000000000004
  endloop
endfacet
facet normal 0.1305261916044783 -7.427760104009859e-17 0.9914448614548523
  outer loop
    vertex 1.8248283495639461 29.14336846495244 2.0000000000000018
    vertex 2.083647393467016 25.14336846495245 1.9659258266104631
    vertex 2.083647393467016 29.14336846495244 1.9659258266104618
  endloop
endfacet
facet normal -0.1305261916044783 -7.427760104009859e-17 0.9914448614548523
  outer loop
    vertex 0.8248283495639465 25.14336846495245 2.0000000000000004
    vertex 0.5660093056608767 29.14336846495244 1.9659258266104618
    vertex 0.5660093056608767 25.14336846495245 1.9659258266104631
  endloop
endfacet
facet normal -0.1305261916044783 -7.427760104009859e-17 0.9914448614548523
  outer loop
    vertex 0.5660093056608767 29.14336846495244 1.9659258266104618
    vertex 0.8248283495639465 25.14336846495245 2.0000000000000004
    vertex 0.8248283495639465 29.14336846495244 2.0000000000000018
  endloop
endfacet
facet normal -0.3826834306442299 0.0 0.9238795332240902
  outer loop
    vertex 0.5660093056608767 25.14336846495245 1.9659258266104631
    vertex 0.3248283517147443 29.14336846495245 1.866025405026204
    vertex 0.3248283517147443 25.14336846495245 1.8660254050262026
  endloop
endfacet
facet normal -0.3826834306442299 0.0 0.9238795332240902
  outer loop
    vertex 0.3248283517147443 29.14336846495245 1.866025405026204
    vertex 0.5660093056608767 25.14336846495245 1.9659258266104631
    vertex 0.5660093056608767 29.14336846495244 1.9659258266104618
  endloop
endfacet
facet normal -0.6087614265458278 0.0 0.7933533421810793
  outer loop
    vertex 0.3248283517147443 25.14336846495245 1.8660254050262026
    vertex 0.11772157101157721 29.14336846495245 1.7071067838207261
    vertex 0.11772157101157721 25.14336846495245 1.7071067838207274
  endloop
endfacet
facet normal -0.6087614265458278 0.0 0.7933533421810793
  outer loop
    vertex 0.11772157101157721 29.14336846495245 1.7071067838207261
    vertex 0.3248283517147443 25.14336846495245 1.8660254050262026
    vertex 0.3248283517147443 29.14336846495245 1.866025405026204
  endloop
endfacet
facet normal -0.7933533376454538 0.0 0.6087614324567702
  outer loop
    vertex 0.11772157101157721 25.14336846495245 1.7071067838207274
    vertex -0.04119705173696516 29.14336846495245 1.5000000043015953
    vertex -0.04119705173696516 25.143368464952445 1.500000004301608
  endloop
endfacet
facet normal -0.7933533376454538 0.0 0.6087614324567702
  outer loop
    vertex -0.04119705173696516 29.14336846495245 1.5000000043015953
    vertex 0.11772157101157721 25.14336846495245 1.7071067838207274
    vertex 0.11772157101157721 29.14336846495245 1.7071067838207261
  endloop
endfacet
facet normal -0.9238795303728762 0.0 0.3826834375276696
  outer loop
    vertex -0.04119705173696516 29.14336846495245 1.5000000043015953
    vertex -0.14109747511816137 25.143368464952445 1.2588190510997916
    vertex -0.04119705173696516 25.143368464952445 1.500000004301608
  endloop
endfacet
facet normal -0.9238795303728762 0.0 0.3826834375276696
  outer loop
    vertex -0.14109747511816137 25.143368464952445 1.2588190510997916
    vertex -0.04119705173696516 29.14336846495245 1.5000000043015953
    vertex -0.14109747511816137 29.14336846495245 1.2588190510997774
  endloop
endfacet
facet normal -0.9914448604823557 0.0 0.13052619899132265
  outer loop
    vertex -0.14109747511816137 25.143368464952445 1.2588190510997916
    vertex -0.17517165043605348 29.14336846495245 1.0000000074505808
    vertex -0.17517165043605348 25.14336846495244 1.000000007450595
  endloop
endfacet
facet normal -0.9914448604823557 0.0 0.13052619899132265
  outer loop
    vertex -0.17517165043605348 29.14336846495245 1.0000000074505808
    vertex -0.14109747511816137 25.143368464952445 1.2588190510997916
    vertex -0.14109747511816137 29.14336846495245 1.2588190510997774
  endloop
endfacet
facet normal -0.9914448624273476 0.0 -0.13052618421764298
  outer loop
    vertex -0.17517165043605348 29.14336846495245 1.0000000074505808
    vertex -0.1410974789748656 25.14336846495244 0.7411809632936535
    vertex -0.17517165043605348 25.14336846495244 1.000000007450595
  endloop
endfacet
facet normal -0.9914448624273476 0.0 -0.13052618421764298
  outer loop
    vertex -0.1410974789748656 25.14336846495244 0.7411809632936535
    vertex -0.17517165043605348 29.14336846495245 1.0000000074505808
    vertex -0.1410974789748656 29.14336846495244 0.7411809632936394
  endloop
endfacet
facet normal -0.9238795360753043 0.0 -0.38268342376079056
  outer loop
    vertex -0.1410974789748656 29.14336846495244 0.7411809632936394
    vertex -0.04119705918754643 25.14336846495245 0.5000000086032036
    vertex -0.1410974789748656 25.14336846495244 0.7411809632936535
  endloop
endfacet
facet normal -0.9238795360753043 0.0 -0.38268342376079056
  outer loop
    vertex -0.04119705918754643 25.14336846495245 0.5000000086032036
    vertex -0.1410974789748656 29.14336846495244 0.7411809632936394
    vertex -0.04119705918754643 29.14336846495245 0.5000000086031895
  endloop
endfacet
facet normal -0.3826834444111081 0.0 -0.9238795275216625
  outer loop
    vertex 0.5660092912674604 29.14336846495245 0.03407417724624477
    vertex 0.32482833880996004 25.14336846495245 0.1339746024243779
    vertex 0.32482833880996004 29.14336846495245 0.13397460242438072
  endloop
endfacet
facet normal -0.3826834444111081 0.0 -0.9238795275216625
  outer loop
    vertex 0.32482833880996004 25.14336846495245 0.1339746024243779
    vertex 0.5660092912674604 29.14336846495245 0.03407417724624477
    vertex 0.5660092912674604 25.14336846495245 0.03407417724624477
  endloop
endfacet
facet normal -0.6087614383677139 0.0 -0.7933533331098271
  outer loop
    vertex 0.32482833880996004 29.14336846495245 0.13397460242438072
    vertex 0.1177215604748655 25.14336846495245 0.29289322671600027
    vertex 0.1177215604748655 29.14336846495245 0.2928932267159876
  endloop
endfacet
facet normal -0.6087614383677139 0.0 -0.7933533331098271
  outer loop
    vertex 0.1177215604748655 25.14336846495245 0.29289322671600027
    vertex 0.32482833880996004 29.14336846495245 0.13397460242438072
    vertex 0.32482833880996004 25.14336846495245 0.1339746024243779
  endloop
endfacet
facet normal 0.0 0.0 -1.0
  outer loop
    vertex 17.774828349563947 31.143368464952445 0.0
    vertex 16.774828349563947 31.143368464952445 0.0
    vertex 16.774828349563947 32.143368464952445 0.0
  endloop
endfacet
facet normal 0.0 1.0 0.0
  outer loop
    vertex 1.7748283495639448 42.44336846495245 2.100000000000013
    vertex 17.274828349563947 42.44336846495245 0.0
    vertex 1.7748283495639448 42.44336846495245 0.0
  endloop
endfacet
facet normal 0.0 1.0 0.0
  outer loop
    vertex 17.274828349563947 42.44336846495245 0.0
    vertex 1.7748283495639448 42.44336846495245 2.100000000000013
    vertex 17.274828349563947 42.44336846495245 2.100000000000016
  endloop
endfacet
facet normal 0.0 -1.0 0.0
  outer loop
    vertex 2.8748283495639457 29.14336846495245 0.0
    vertex 2.083647407860432 29.14336846495245 0.03407417724624477
    vertex 1.824828364465107 29.14336846495245 0.0
  endloop
endfacet
facet normal 0.0 -1.0 0.0
  outer loop
    vertex 2.083647407860432 29.14336846495245 0.03407417724624477
    vertex 2.8748283495639457 29.14336846495245 0.0
    vertex 2.3248283603179325 29.14336846495245 0.13397460242438072
  endloop
endfacet
facet normal 0.0 -1.0 0.0
  outer loop
    vertex 2.3248283603179325 29.14336846495245 0.13397460242438072
    vertex 2.8748283495639457 29.14336846495245 0.0
    vertex 2.5319351386530284 29.14336846495245 0.2928932267159876
  endloop
endfacet
facet normal 0.0 -1.0 0.0
  outer loop
    vertex 2.5319351386530284 29.14336846495245 0.2928932267159876
    vertex 2.8748283495639457 29.14336846495245 0.0
    vertex 2.690853758315439 29.14336846495245 0.5000000086031895
  endloop
endfacet
facet normal 0.0 -1.0 0.0
  outer loop
    vertex 2.690853758315439 29.14336846495245 0.5000000086031895
    vertex 2.8748283495639457 29.14336846495245 0.0
    vertex 2.790754178102759 29.14336846495244 0.7411809632936394
  endloop
endfacet
facet normal 0.0 -1.0 0.0
  outer loop
    vertex 2.790754178102759 29.14336846495244 0.7411809632936394
    vertex 2.8748283495639457 29.14336846495245 0.0
    vertex 2.8248283495639455 29.14336846495245 1.0000000074505808
  endloop
endfacet
facet normal 0.0 -1.0 0.0
  outer loop
    vertex 2.8248283495639455 29.14336846495245 1.0000000074505808
    vertex 2.8748283495639457 29.14336846495245 0.0
    vertex 2.8748283495639457 29.14336846495244 3.3999999999999995
  endloop
endfacet
facet normal 0.0 -1.0 0.0
  outer loop
    vertex 2.8248283495639455 29.14336846495245 1.0000000074505808
    vertex 2.8748283495639457 29.14336846495244 3.3999999999999995
    vertex 2.7907541742460547 29.14336846495245 1.2588190510997774
  endloop
endfacet
facet normal 0.0 -1.0 0.0
  outer loop
    vertex 2.7907541742460547 29.14336846495245 1.2588190510997774
    vertex 2.8748283495639457 29.14336846495244 3.3999999999999995
    vertex 2.6908537508648576 29.14336846495245 1.5000000043015953
  endloop
endfacet
facet normal 0.0 -1.0 0.0
  outer loop
    vertex 2.6908537508648576 29.14336846495245 1.5000000043015953
    vertex 2.8748283495639457 29.14336846495244 3.3999999999999995
    vertex 2.531935128116315 29.14336846495245 1.7071067838207261
  endloop
endfacet
facet normal 0.0 -1.0 0.0
  outer loop
    vertex 2.531935128116315 29.14336846495245 1.7071067838207261
    vertex 2.8748283495639457 29.14336846495244 3.3999999999999995
    vertex 2.324828347413148 29.14336846495245 1.866025405026204
  endloop
endfacet
facet normal 0.0 -1.0 0.0
  outer loop
    vertex 2.324828347413148 29.14336846495245 1.866025405026204
    vertex 2.8748283495639457 29.14336846495244 3.3999999999999995
    vertex 2.083647393467016 29.14336846495244 1.9659258266104618
  endloop
endfacet
facet normal 0.0 -1.0 0.0
  outer loop
    vertex 2.083647393467016 29.14336846495244 1.9659258266104618
    vertex 2.8748283495639457 29.14336846495244 3.3999999999999995
    vertex 1.8248283495639461 29.14336846495244 2.0000000000000018
  endloop
endfacet
facet normal 0.0 -1.0 0.0
  outer loop
    vertex 1.8248283495639461 29.14336846495244 2.0000000000000018
    vertex 2.8748283495639457 29.14336846495244 3.3999999999999995
    vertex 1.4248283495639467 29.14336846495245 2.3500000000000014
  endloop
endfacet
facet normal 0.0 -1.0 0.0
  outer loop
    vertex 1.4248283495639467 29.14336846495245 2.3500000000000014
    vertex 2.8748283495639457 29.14336846495244 3.3999999999999995
    vertex 1.2248283495639471 29.14336846495245 2.3500000000000014
  endloop
endfacet
facet normal 0.0 -1.0 0.0
  outer loop
    vertex 0.5660092912674604 29.14336846495245 0.03407417724624477
    vertex -1.275171650436054 29.14336846495245 0.0
    vertex 0.8248283346627853 29.14336846495245 0.0
  endloop
endfacet
facet normal 0.0 -1.0 0.0
  outer loop
    vertex -1.275171650436054 29.14336846495245 0.0
    vertex 0.5660092912674604 29.14336846495245 0.03407417724624477
    vertex 0.32482833880996004 29.14336846495245 0.13397460242438072
  endloop
endfacet
facet normal 0.0 -1.0 0.0
  outer loop
    vertex -1.275171650436054 29.14336846495245 0.0
    vertex 0.32482833880996004 29.14336846495245 0.13397460242438072
    vertex 0.1177215604748655 29.14336846495245 0.2928932267159876
  endloop
endfacet
facet normal 0.0 -1.0 0.0
  outer loop
    vertex -1.275171650436054 29.14336846495245 0.0
    vertex 0.1177215604748655 29.14336846495245 0.2928932267159876
    vertex -0.04119705918754643 29.14336846495245 0.5000000086031895
  endloop
endfacet
facet normal 0.0 -1.0 0.0
  outer loop
    vertex -1.275171650436054 29.14336846495245 0.0
    vertex -0.04119705918754643 29.14336846495245 0.5000000086031895
    vertex -1.275171650436054 29.14336846495244 3.3999999999999995
  endloop
endfacet
facet normal 0.0 -1.0 0.0
  outer loop
    vertex -1.275171650436054 29.14336846495244 3.3999999999999995
    vertex -0.04119705918754643 29.14336846495245 0.5000000086031895
    vertex -0.1410974789748656 29.14336846495244 0.7411809632936394
  endloop
endfacet
facet normal 0.0 -1.0 0.0
  outer loop
    vertex -1.275171650436054 29.14336846495244 3.3999999999999995
    vertex -0.1410974789748656 29.14336846495244 0.7411809632936394
    vertex -0.17517165043605348 29.14336846495245 1.0000000074505808
  endloop
endfacet
facet normal 0.0 -1.0 0.0
  outer loop
    vertex -1.275171650436054 29.14336846495244 3.3999999999999995
    vertex -0.17517165043605348 29.14336846495245 1.0000000074505808
    vertex -0.14109747511816137 29.14336846495245 1.2588190510997774
  endloop
endfacet
facet normal 0.0 -1.0 0.0
  outer loop
    vertex -1.275171650436054 29.14336846495244 3.3999999999999995
    vertex -0.14109747511816137 29.14336846495245 1.2588190510997774
    vertex -0.04119705173696516 29.14336846495245 1.5000000043015953
  endloop
endfacet
facet normal 0.0 -1.0 0.0
  outer loop
    vertex -1.275171650436054 29.14336846495244 3.3999999999999995
    vertex -0.04119705173696516 29.14336846495245 1.5000000043015953
    vertex 0.11772157101157721 29.14336846495245 1.7071067838207261
  endloop
endfacet
facet normal 0.0 -1.0 0.0
  outer loop
    vertex -1.275171650436054 29.14336846495244 3.3999999999999995
    vertex 0.11772157101157721 29.14336846495245 1.7071067838207261
    vertex 0.3248283517147443 29.14336846495245 1.866025405026204
  endloop
endfacet
facet normal 0.0 -1.0 0.0
  outer loop
    vertex -1.275171650436054 29.14336846495244 3.3999999999999995
    vertex 0.3248283517147443 29.14336846495245 1.866025405026204
    vertex 0.5660093056608767 29.14336846495244 1.9659258266104618
  endloop
endfacet
facet normal 0.0 -1.0 0.0
  outer loop
    vertex -1.275171650436054 29.14336846495244 3.3999999999999995
    vertex 0.5660093056608767 29.14336846495244 1.9659258266104618
    vertex 0.8248283495639465 29.14336846495244 2.0000000000000018
  endloop
endfacet
facet normal 0.0 -1.0 0.0
  outer loop
    vertex -1.275171650436054 29.14336846495244 3.3999999999999995
    vertex 0.8248283495639465 29.14336846495244 2.0000000000000018
    vertex 1.2248283495639471 29.14336846495245 2.3500000000000014
  endloop
endfacet
facet normal 0.0 -1.0 0.0
  outer loop
    vertex -1.275171650436054 29.14336846495244 3.3999999999999995
    vertex 1.2248283495639471 29.14336846495245 2.3500000000000014
    vertex 2.8748283495639457 29.14336846495244 3.3999999999999995
  endloop
endfacet
facet normal 0.0 0.0 1.0
  outer loop
    vertex 17.274828349563947 35.84336846495245 2.1000000000000143
    vertex 1.7748283495639448 42.44336846495245 2.100000000000013
    vertex 1.7748283495639448 35.84336846495245 2.100000000000013
  endloop
endfacet
facet normal 0.0 0.0 1.0
  outer loop
    vertex 1.7748283495639448 42.44336846495245 2.100000000000013
    vertex 17.274828349563947 35.84336846495245 2.1000000000000143
    vertex 17.274828349563947 42.44336846495245 2.100000000000016
  endloop
endfacet
facet normal 8.676819946301223e-15 1.3605356157925671e-14 -1.0
  outer loop
    vertex 18.274828349563947 31.143368464952445 0.0
    vertex 16.774828349563947 32.143368464952445 0.0
    vertex 16.774828349563947 32.643368464952445 2.8199664825478976e-14
  endloop
endfacet
facet normal 8.676819946301223e-15 1.3605356157925671e-14 -1.0
  outer loop
    vertex 16.774828349563947 32.143368464952445 0.0
    vertex 18.274828349563947 31.143368464952445 0.0
    vertex 17.774828349563947 31.143368464952445 0.0
  endloop
endfacet
facet normal 2.277665235904064e-15 3.6398234853480054e-15 1.0
  outer loop
    vertex 17.774828349563947 31.143368464952445 3.4000000000000163
    vertex 16.774828349563947 32.643368464952445 3.3999999999999995
    vertex 16.774828349563947 32.14336846495245 3.400000000000001
  endloop
endfacet
facet normal 2.277665235904064e-15 3.6398234853480054e-15 1.0
  outer loop
    vertex 16.774828349563947 32.643368464952445 3.3999999999999995
    vertex 17.774828349563947 31.143368464952445 3.4000000000000163
    vertex 18.274828349563947 31.143368464952445 3.400000000000015
  endloop
endfacet
facet normal 3.6652439984667144e-17 -2.0857312271285112e-17 1.0
  outer loop
    vertex 2.8748283495639457 29.14336846495244 3.3999999999999995
    vertex -1.275171650436054 31.143368464952445 3.4000000000000137
    vertex -1.275171650436054 29.14336846495244 3.3999999999999995
  endloop
endfacet
facet normal 3.6652439984667144e-17 -2.0857312271285112e-17 1.0
  outer loop
    vertex -1.275171650436054 31.143368464952445 3.4000000000000137
    vertex 2.8748283495639457 29.14336846495244 3.3999999999999995
    vertex 0.27482834956394603 31.143368464952445 3.4000000000000137
  endloop
endfacet
facet normal 3.6652439984667144e-17 -2.0857312271285112e-17 1.0
  outer loop
    vertex 0.27482834956394603 31.143368464952445 3.4000000000000137
    vertex 2.8748283495639457 29.14336846495244 3.3999999999999995
    vertex 1.7748283495639448 33.043368464952444 3.4000000000000035
  endloop
endfacet
facet normal 3.6652439984667144e-17 -2.0857312271285112e-17 1.0
  outer loop
    vertex 1.7748283495639448 33.043368464952444 3.4000000000000035
    vertex 2.8748283495639457 29.14336846495244 3.3999999999999995
    vertex 1.774828349563946 33.44336846495245 3.400000000000001
  endloop
endfacet
facet normal 3.6652439984667144e-17 -2.0857312271285112e-17 1.0
  outer loop
    vertex 1.774828349563946 33.44336846495245 3.400000000000001
    vertex 17.274828349563947 35.84336846495245 3.4000000000000035
    vertex 1.7748283495639448 35.84336846495245 3.4000000000000035
  endloop
endfacet
facet normal 3.6652439984667144e-17 -2.0857312271285112e-17 1.0
  outer loop
    vertex 17.274828349563947 35.84336846495245 3.4000000000000035
    vertex 1.774828349563946 33.44336846495245 3.400000000000001
    vertex 2.8748283495639457 30.993368464952447 3.4000000000000137
  endloop
endfacet
facet normal 3.6652439984667144e-17 -2.0857312271285112e-17 1.0
  outer loop
    vertex 2.8748283495639457 30.993368464952447 3.4000000000000137
    vertex 1.774828349563946 33.44336846495245 3.400000000000001
    vertex 2.8748283495639457 29.14336846495244 3.3999999999999995
  endloop
endfacet
facet normal 3.6652439984667144e-17 -2.0857312271285112e-17 1.0
  outer loop
    vertex 17.274828349563947 35.84336846495245 3.4000000000000035
    vertex 2.8748283495639457 30.993368464952447 3.4000000000000137
    vertex 15.874828349563945 33.44336846495245 3.400000000000001
  endloop
endfacet
facet normal 3.6652439984667144e-17 -2.0857312271285112e-17 1.0
  outer loop
    vertex 15.874828349563945 33.44336846495245 3.400000000000001
    vertex 2.8748283495639457 30.993368464952447 3.4000000000000137
    vertex 15.674828349563949 30.993368464952447 3.4000000000000137
  endloop
endfacet
facet normal 3.6652439984667144e-17 -2.0857312271285112e-17 1.0
  outer loop
    vertex 15.874828349563945 33.44336846495245 3.400000000000001
    vertex 15.674828349563949 30.993368464952447 3.4000000000000137
    vertex 15.874828349563945 32.643368464952445 3.399999999999998
  endloop
endfacet
facet normal 3.6652439984667144e-17 -2.0857312271285112e-17 1.0
  outer loop
    vertex 17.274828349563947 35.84336846495245 3.4000000000000035
    vertex 15.874828349563945 33.44336846495245 3.400000000000001
    vertex 16.274828349563943 33.44336846495245 3.400000000000001
  endloop
endfacet
facet normal 3.6652439984667144e-17 -2.0857312271285112e-17 1.0
  outer loop
    vertex 17.274828349563947 35.84336846495245 3.4000000000000035
    vertex 16.274828349563943 33.44336846495245 3.400000000000001
    vertex 17.274828349563947 33.44336846495245 3.400000000000001
  endloop
endfacet
facet normal 3.6652439984667144e-17 -2.0857312271285112e-17 1.0
  outer loop
    vertex 19.824828349563948 29.14336846495244 3.3999999999999995
    vertex 15.674828349563949 30.993368464952447 3.4000000000000137
    vertex 15.674828349563949 29.14336846495244 3.3999999999999995
  endloop
endfacet
facet normal 3.6652439984667144e-17 -2.0857312271285112e-17 1.0
  outer loop
    vertex 15.674828349563949 30.993368464952447 3.4000000000000137
    vertex 19.824828349563948 29.14336846495244 3.3999999999999995
    vertex 16.774828349563947 31.143368464952445 3.400000000000012
  endloop
endfacet
facet normal 3.6652439984667144e-17 -2.0857312271285112e-17 1.0
  outer loop
    vertex 15.674828349563949 30.993368464952447 3.4000000000000137
    vertex 16.774828349563947 31.143368464952445 3.400000000000012
    vertex 15.874828349563945 32.643368464952445 3.399999999999998
  endloop
endfacet
facet normal 3.6652439984667144e-17 -2.0857312271285112e-17 1.0
  outer loop
    vertex 16.774828349563947 31.143368464952445 3.400000000000012
    vertex 19.824828349563948 29.14336846495244 3.3999999999999995
    vertex 17.774828349563947 31.143368464952445 3.4000000000000163
  endloop
endfacet
facet normal 3.6652439984667144e-17 -2.0857312271285112e-17 1.0
  outer loop
    vertex 17.774828349563947 31.143368464952445 3.4000000000000163
    vertex 19.824828349563948 29.14336846495244 3.3999999999999995
    vertex 18.274828349563947 31.143368464952445 3.400000000000015
  endloop
endfacet
facet normal 3.6652439984667144e-17 -2.0857312271285112e-17 1.0
  outer loop
    vertex 18.274828349563947 31.143368464952445 3.400000000000015
    vertex 19.824828349563948 29.14336846495244 3.3999999999999995
    vertex 19.824828349563948 31.143368464952445 3.4000000000000137
  endloop
endfacet
facet normal 3.6652439984667144e-17 -2.0857312271285112e-17 1.0
  outer loop
    vertex 16.774828349563947 31.143368464952445 3.400000000000012
    vertex 16.774828349563947 32.643368464952445 3.3999999999999995
    vertex 15.874828349563945 32.643368464952445 3.399999999999998
  endloop
endfacet
facet normal 3.6652439984667144e-17 -2.0857312271285112e-17 1.0
  outer loop
    vertex 16.774828349563947 32.643368464952445 3.3999999999999995
    vertex 16.774828349563947 31.143368464952445 3.400000000000012
    vertex 16.774828349563947 32.14336846495245 3.400000000000001
  endloop
endfacet
facet normal -4.229949723821837e-15 -2.5424107263916044e-15 1.0
  outer loop
    vertex 17.774828349563947 31.143368464952445 3.4000000000000163
    vertex 16.774828349563947 32.14336846495245 3.400000000000001
    vertex 16.774828349563947 31.143368464952445 3.400000000000012
  endloop
endfacet
facet normal -1.115811779248249e-18 -0.9958674942722192 0.09081813614015379
  outer loop
    vertex 1.324828349563947 25.161607464952446 2.200000000000003
    vertex 0.8248283495639465 25.14336846495245 2.0000000000000004
    vertex 1.8248283495639461 25.14336846495245 2.0000000000000004
  endloop
endfacet
facet normal -1.1212483520156633e-43 -1.0 -1.3822276656583029e-14
  outer loop
    vertex 17.224828349563946 25.143368464952445 2.200000000000003
    vertex 16.724828334662785 25.14336846495245 2.0000000000000004
    vertex 17.724828364465107 25.14336846495245 2.0000000000000004
  endloop
endfacet
facet normal 4.242077804912834e-18 -0.9985781956519774 0.053306539640471225
  outer loop
    vertex 1.4248283495639467 25.161607464952446 2.3500000000000028
    vertex 1.324828349563947 25.161607464952446 2.200000000000003
    vertex 1.8248283495639461 25.14336846495245 2.0000000000000004
  endloop
endfacet
facet normal 4.242077804912834e-18 -0.9985781956519774 0.053306539640471225
  outer loop
    vertex 1.324828349563947 25.161607464952446 2.200000000000003
    vertex 1.2248283495639471 25.161607464952446 2.3500000000000028
    vertex 0.8248283495639465 25.14336846495245 2.0000000000000004
  endloop
endfacet
facet normal 4.242077804912834e-18 -0.9985781956519774 0.053306539640471225
  outer loop
    vertex 1.2248283495639471 25.161607464952446 2.3500000000000028
    vertex 1.324828349563947 25.161607464952446 2.200000000000003
    vertex 1.4248283495639467 25.161607464952446 2.3500000000000028
  endloop
endfacet
facet normal 0.658504607868519 -5.761560605107826e-17 0.7525766947068773
  outer loop
    vertex 1.8248283495639461 25.14336846495245 2.0000000000000004
    vertex 1.4248283495639467 29.14336846495245 2.3500000000000014
    vertex 1.4248283495639467 25.161607464952446 2.3500000000000028
  endloop
endfacet
facet normal 0.658504607868519 -5.761560605107826e-17 0.7525766947068773
  outer loop
    vertex 1.4248283495639467 29.14336846495245 2.3500000000000014
    vertex 1.8248283495639461 25.14336846495245 2.0000000000000004
    vertex 1.8248283495639461 29.14336846495244 2.0000000000000018
  endloop
endfacet
facet normal 0.0 1.624716621402668e-16 1.0
  outer loop
    vertex 1.4248283495639467 25.161607464952446 2.3500000000000028
    vertex 1.2248283495639471 29.14336846495245 2.3500000000000014
    vertex 1.2248283495639471 25.161607464952446 2.3500000000000028
  endloop
endfacet
facet normal 0.0 1.624716621402668e-16 1.0
  outer loop
    vertex 1.2248283495639471 29.14336846495245 2.3500000000000014
    vertex 1.4248283495639467 25.161607464952446 2.3500000000000028
    vertex 1.4248283495639467 29.14336846495245 2.3500000000000014
  endloop
endfacet
facet normal -0.6585046078685183 -5.794605900748788e-17 0.7525766947068777
  outer loop
    vertex 1.2248283495639471 25.161607464952446 2.3500000000000028
    vertex 0.8248283495639465 29.14336846495244 2.0000000000000018
    vertex 0.8248283495639465 25.14336846495245 2.0000000000000004
  endloop
endfacet
facet normal -0.6585046078685183 -5.794605900748788e-17 0.7525766947068777
  outer loop
    vertex 0.8248283495639465 29.14336846495244 2.0000000000000018
    vertex 1.2248283495639471 25.161607464952446 2.3500000000000028
    vertex 1.2248283495639471 29.14336846495245 2.3500000000000014
  endloop
endfacet
facet normal 1.8230760796835664e-32 -1.0 -2.129732704555334e-15
  outer loop
    vertex 17.324828349563944 25.143368464952445 2.3500000000000028
    vertex 17.224828349563946 25.143368464952445 2.200000000000003
    vertex 17.724828364465107 25.14336846495245 2.0000000000000004
  endloop
endfacet
facet normal 1.8230760796835664e-32 -1.0 -2.129732704555334e-15
  outer loop
    vertex 17.224828349563946 25.143368464952445 2.200000000000003
    vertex 17.124828349563945 25.143368464952445 2.3500000000000028
    vertex 16.724828334662785 25.14336846495245 2.0000000000000004
  endloop
endfacet
facet normal 1.8230760796835664e-32 -1.0 -2.129732704555334e-15
  outer loop
    vertex 17.124828349563945 25.143368464952445 2.3500000000000028
    vertex 17.224828349563946 25.143368464952445 2.200000000000003
    vertex 17.324828349563944 25.143368464952445 2.3500000000000028
  endloop
endfacet
facet normal 0.6585045939747369 -5.67932094743093e-17 0.7525767068639363
  outer loop
    vertex 17.724828364465107 25.14336846495245 2.0000000000000004
    vertex 17.324828349563944 29.14336846495245 2.3500000000000014
    vertex 17.324828349563944 25.143368464952445 2.3500000000000028
  endloop
endfacet
facet normal 0.6585045939747369 -5.67932094743093e-17 0.7525767068639363
  outer loop
    vertex 17.324828349563944 29.14336846495245 2.3500000000000014
    vertex 17.724828364465107 25.14336846495245 2.0000000000000004
    vertex 17.724828364465107 29.14336846495244 2.0000000000000018
  endloop
endfacet
facet normal 0.0 1.6247166214026725e-16 1.0
  outer loop
    vertex 17.324828349563944 25.143368464952445 2.3500000000000028
    vertex 17.124828349563945 29.14336846495245 2.3500000000000014
    vertex 17.124828349563945 25.143368464952445 2.3500000000000028
  endloop
endfacet
facet normal 0.0 1.6247166214026725e-16 1.0
  outer loop
    vertex 17.124828349563945 29.14336846495245 2.3500000000000014
    vertex 17.324828349563944 25.143368464952445 2.3500000000000028
    vertex 17.324828349563944 29.14336846495245 2.3500000000000014
  endloop
endfacet
facet normal -0.6585045939747369 -5.679320947430935e-17 0.7525767068639363
  outer loop
    vertex 17.124828349563945 25.143368464952445 2.3500000000000028
    vertex 16.724828334662785 29.14336846495244 2.0000000000000018
    vertex 16.724828334662785 25.14336846495245 2.0000000000000004
  endloop
endfacet
facet normal -0.6585045939747369 -5.679320947430935e-17 0.7525767068639363
  outer loop
    vertex 16.724828334662785 29.14336846495244 2.0000000000000018
    vertex 17.124828349563945 25.143368464952445 2.3500000000000028
    vertex 17.124828349563945 29.14336846495245 2.3500000000000014
  endloop
endfacet
facet normal -1.5666480458599356e-15 -3.2474023470285833e-15 1.0
  outer loop
    vertex 16.774828349563947 32.643368464952445 3.3999999999999995
    vertex 15.874828349563945 33.44336846495245 3.400000000000001
    vertex 15.874828349563945 32.643368464952445 3.399999999999998
  endloop
endfacet
facet normal 9.060697952360947e-31 -1.0852430065710746e-14 -1.0
  outer loop
    vertex 16.774828349563947 32.643368464952445 2.8199664825478976e-14
    vertex 15.874828349563945 32.643368464952445 2.8199664825478976e-14
    vertex 15.874828349563952 33.44336846495246 1.127986593019159e-14
  endloop
endfacet
facet normal 0.0 -1.0852430065710755e-14 -1.0
  outer loop
    vertex 16.774828349563947 32.643368464952445 2.8199664825478976e-14
    vertex 15.874828349563952 33.44336846495246 1.127986593019159e-14
    vertex 16.27482834956395 33.44336846495246 1.127986593019159e-14
  endloop
endfacet
facet normal -8.812395257962208e-16 -2.476317761956903e-15 1.0
  outer loop
    vertex 16.774828349563947 32.643368464952445 3.3999999999999995
    vertex 16.274828349563943 33.44336846495245 3.400000000000001
    vertex 15.874828349563945 33.44336846495245 3.400000000000001
  endloop
endfacet
facet normal 1.0 2.0595145666333448e-16 6.52209876603216e-16
  outer loop
    vertex 17.274828349563947 42.44336846495245 0.0
    vertex 17.274828349563947 35.84336846495245 2.1000000000000143
    vertex 17.27482834956395 33.44336846495246 1.127986593019159e-14
  endloop
endfacet
facet normal 1.0 2.0595145666333448e-16 6.52209876603216e-16
  outer loop
    vertex 17.274828349563947 35.84336846495245 2.1000000000000143
    vertex 17.274828349563947 42.44336846495245 0.0
    vertex 17.274828349563947 42.44336846495245 2.100000000000016
  endloop
endfacet
facet normal 1.0 2.0595145666333448e-16 6.52209876603216e-16
  outer loop
    vertex 17.27482834956395 33.44336846495246 1.127986593019159e-14
    vertex 17.274828349563947 35.84336846495245 3.4000000000000035
    vertex 17.274828349563947 33.44336846495245 3.400000000000001
  endloop
endfacet
facet normal 1.0 2.0595145666333448e-16 6.52209876603216e-16
  outer loop
    vertex 17.274828349563947 35.84336846495245 3.4000000000000035
    vertex 17.27482834956395 33.44336846495246 1.127986593019159e-14
    vertex 17.274828349563947 35.84336846495245 2.1000000000000143
  endloop
endfacet
facet normal -5.6729295532786445e-15 -2.0426958229247793e-15 -1.0
  outer loop
    vertex 17.27482834956395 33.44336846495246 1.127986593019159e-14
    vertex 16.774828349563947 32.643368464952445 2.8199664825478976e-14
    vertex 16.27482834956395 33.44336846495246 1.127986593019159e-14
  endloop
endfacet
facet normal -5.6729295532786445e-15 -2.0426958229247793e-15 -1.0
  outer loop
    vertex 16.774828349563947 32.643368464952445 2.8199664825478976e-14
    vertex 17.27482834956395 33.44336846495246 1.127986593019159e-14
    vertex 18.274828349563947 31.143368464952445 0.0
  endloop
endfacet
facet normal -2.7741970215201233e-15 1.3614759378603486e-15 1.0
  outer loop
    vertex 16.774828349563947 32.643368464952445 3.3999999999999995
    vertex 17.274828349563947 33.44336846495245 3.400000000000001
    vertex 16.274828349563943 33.44336846495245 3.400000000000001
  endloop
endfacet
facet normal -2.7741970215201233e-15 1.3614759378603486e-15 1.0
  outer loop
    vertex 17.274828349563947 33.44336846495245 3.400000000000001
    vertex 16.774828349563947 32.643368464952445 3.3999999999999995
    vertex 18.274828349563947 31.143368464952445 3.400000000000015
  endloop
endfacet
facet normal 0.9170700562532357 0.39872611141444864 1.3234111777961093e-15
  outer loop
    vertex 17.27482834956395 33.44336846495246 1.127986593019159e-14
    vertex 18.274828349563947 31.143368464952445 3.400000000000015
    vertex 18.274828349563947 31.143368464952445 0.0
  endloop
endfacet
facet normal 0.9170700562532357 0.39872611141444864 1.3234111777961093e-15
  outer loop
    vertex 18.274828349563947 31.143368464952445 3.400000000000015
    vertex 17.27482834956395 33.44336846495246 1.127986593019159e-14
    vertex 17.274828349563947 33.44336846495245 3.400000000000001
  endloop
endfacet
facet normal 0.0 1.0 -7.02052794983559e-17
  outer loop
    vertex -1.275171650436054 31.143368464952445 3.4000000000000137
    vertex 0.27482834956394603 31.143368464952445 0.0
    vertex -1.275171650436054 31.143368464952445 0.0
  endloop
endfacet
facet normal 0.0 1.0 -7.02052794983559e-17
  outer loop
    vertex 0.27482834956394603 31.143368464952445 0.0
    vertex -1.275171650436054 31.143368464952445 3.4000000000000137
    vertex 0.27482834956394603 31.143368464952445 3.4000000000000137
  endloop
endfacet
facet normal -8.166152939044858e-15 8.208711488322174e-15 1.0
  outer loop
    vertex 1.774828349563946 33.44336846495245 3.400000000000001
    vertex 0.27482834956394603 31.143368464952445 3.4000000000000137
    vertex 1.7748283495639448 33.043368464952444 3.4000000000000035
  endloop
endfacet
facet normal -1.0 -8.670738814876897e-17 -7.125265225424296e-17
  outer loop
    vertex 1.7748283495639448 35.84336846495245 3.4000000000000035
    vertex 1.774828349563946 33.44336846495245 1.4099832412739488e-14
    vertex 1.774828349563946 33.44336846495245 3.400000000000001
  endloop
endfacet
facet normal -1.0 -8.670738814876897e-17 -7.125265225424296e-17
  outer loop
    vertex 1.774828349563946 33.44336846495245 1.4099832412739488e-14
    vertex 1.7748283495639448 35.84336846495245 3.4000000000000035
    vertex 1.7748283495639448 35.84336846495245 2.100000000000013
  endloop
endfacet
facet normal -1.0 -8.670738814876897e-17 -7.125265225424296e-17
  outer loop
    vertex 1.774828349563946 33.44336846495245 1.4099832412739488e-14
    vertex 1.7748283495639448 35.84336846495245 2.100000000000013
    vertex 1.7748283495639448 42.44336846495245 0.0
  endloop
endfacet
facet normal -1.0 -8.670738814876897e-17 -7.125265225424296e-17
  outer loop
    vertex 1.7748283495639448 42.44336846495245 0.0
    vertex 1.7748283495639448 35.84336846495245 2.100000000000013
    vertex 1.7748283495639448 42.44336846495245 2.100000000000013
  endloop
endfacet
facet normal 4.699944137579785e-15 -2.775557561562683e-16 -1.0
  outer loop
    vertex 1.774828349563946 33.44336846495245 1.4099832412739488e-14
    vertex 1.7748283495639448 33.043368464952444 1.4099832412739488e-14
    vertex 0.27482834956394603 31.143368464952445 0.0
  endloop
endfacet
facet normal -0.8376105968386145 0.5462677805469222 -5.81868180238857e-17
  outer loop
    vertex 1.774828349563946 33.44336846495245 3.400000000000001
    vertex 0.27482834956394603 31.143368464952445 0.0
    vertex 0.27482834956394603 31.143368464952445 3.4000000000000137
  endloop
endfacet
facet normal -0.8376105968386145 0.5462677805469222 -5.81868180238857e-17
  outer loop
    vertex 0.27482834956394603 31.143368464952445 0.0
    vertex 1.774828349563946 33.44336846495245 3.400000000000001
    vertex 1.774828349563946 33.44336846495245 1.4099832412739488e-14
  endloop
endfacet
endsolid Keyboard_LEDs
