solid Keyboard_Guide
facet normal 0.4257970363298802 0.9048187022009938 0.0
  outer loop
    vertex 33.89247235426616 3.6511770715951486 4.2999999999999945
    vertex 34.742472354266155 3.2511770715951487 -0.5000000000000057
    vertex 33.89247235426616 3.6511770715951486 -0.5000000000000057
  endloop
endfacet
facet normal 0.4257970363298802 0.9048187022009938 0.0
  outer loop
    vertex 34.742472354266155 3.2511770715951487 -0.5000000000000057
    vertex 33.89247235426616 3.6511770715951486 4.2999999999999945
    vertex 34.742472354266155 3.2511770715951487 4.2999999999999945
  endloop
endfacet
facet normal 0.0 0.0 1.0
  outer loop
    vertex 34.742472354266155 2.8511770715951488 4.2999999999999945
    vertex 31.792472354266156 4.701297625220356 4.2999999999999945
    vertex 31.792472354266156 2.851177071595148 4.2999999999999945
  endloop
endfacet
facet normal 0.0 0.0 1.0
  outer loop
    vertex 31.792472354266156 4.701297625220356 4.2999999999999945
    vertex 34.742472354266155 2.8511770715951488 4.2999999999999945
    vertex 33.89247235426616 3.6511770715951486 4.2999999999999945
  endloop
endfacet
facet normal 0.0 0.0 1.0
  outer loop
    vertex 33.89247235426616 3.6511770715951486 4.2999999999999945
    vertex 34.742472354266155 2.8511770715951488 4.2999999999999945
    vertex 34.742472354266155 3.2511770715951487 4.2999999999999945
  endloop
endfacet
facet normal 0.0 0.0 1.0
  outer loop
    vertex 33.89247235426616 4.701297625220356 4.2999999999999945
    vertex 31.792472354266156 4.701297625220356 4.2999999999999945
    vertex 33.89247235426616 3.6511770715951486 4.2999999999999945
  endloop
endfacet
facet normal 0.0 -1.0 0.0
  outer loop
    vertex 21.242472354266155 2.851177071595148 -4.499999902262333
    vertex 20.242472354266155 2.851177071595148 3.0999999999999943
    vertex 20.242472354266155 2.851177071595148 -4.500000000000005
  endloop
endfacet
facet normal 0.0 -1.0 0.0
  outer loop
    vertex 20.242472354266155 2.851177071595148 3.0999999999999943
    vertex 21.242472354266155 2.851177071595148 -4.499999902262333
    vertex 21.242472354266155 2.851177071595148 3.0999999999999943
  endloop
endfacet
facet normal 1.0 0.0 0.0
  outer loop
    vertex 33.89247235426616 4.701297625220356 -0.5000000000000057
    vertex 33.89247235426616 3.6511770715951486 4.2999999999999945
    vertex 33.89247235426616 3.6511770715951486 -0.5000000000000057
  endloop
endfacet
facet normal 1.0 0.0 0.0
  outer loop
    vertex 33.89247235426616 3.6511770715951486 4.2999999999999945
    vertex 33.89247235426616 4.701297625220356 -0.5000000000000057
    vertex 33.89247235426616 4.701297625220356 4.2999999999999945
  endloop
endfacet
facet normal 1.0 0.0 0.0
  outer loop
    vertex 34.742472354266155 3.2511770715951487 -0.5000000000000057
    vertex 34.742472354266155 2.8511770715951488 3.0999999999999943
    vertex 34.742472354266155 2.8511770715951488 -0.5000000000000057
  endloop
endfacet
facet normal 1.0 0.0 0.0
  outer loop
    vertex 34.742472354266155 2.8511770715951488 3.0999999999999943
    vertex 34.742472354266155 3.2511770715951487 -0.5000000000000057
    vertex 34.742472354266155 2.8511770715951488 4.2999999999999945
  endloop
endfacet
facet normal 1.0 0.0 0.0
  outer loop
    vertex 34.742472354266155 2.8511770715951488 4.2999999999999945
    vertex 34.742472354266155 3.2511770715951487 -0.5000000000000057
    vertex 34.742472354266155 3.2511770715951487 4.2999999999999945
  endloop
endfacet
facet normal 4.499946514704095e-16 -1.0 0.0
  outer loop
    vertex 34.742472354266155 2.8511770715951488 4.2999999999999945
    vertex 31.792472354266156 2.851177071595148 3.0999999999999943
    vertex 34.742472354266155 2.8511770715951488 3.0999999999999943
  endloop
endfacet
facet normal 4.499946514704095e-16 -1.0 0.0
  outer loop
    vertex 31.792472354266156 2.851177071595148 3.0999999999999943
    vertex 34.742472354266155 2.8511770715951488 4.2999999999999945
    vertex 31.792472354266156 2.851177071595148 4.2999999999999945
  endloop
endfacet
facet normal 0.0 1.0 0.0
  outer loop
    vertex 20.242472354266155 4.451177071595148 3.0999999999999943
    vertex 21.242472354266155 4.451177071595148 -4.500000000000005
    vertex 20.242472354266155 4.451177071595148 -4.500000000000005
  endloop
endfacet
facet normal 0.0 1.0 0.0
  outer loop
    vertex 21.242472354266155 4.451177071595148 -4.500000000000005
    vertex 20.242472354266155 4.451177071595148 3.0999999999999943
    vertex 21.242472354266155 4.451177071595148 3.0999999999999943
  endloop
endfacet
facet normal -1.0 0.0 0.0
  outer loop
    vertex 21.242472354266155 4.951177071595149 3.0999999999999943
    vertex 21.242472354266155 4.451177071595148 -4.500000000000005
    vertex 21.242472354266155 4.451177071595148 3.0999999999999943
  endloop
endfacet
facet normal -1.0 0.0 0.0
  outer loop
    vertex 21.242472354266155 4.451177071595148 -4.500000000000005
    vertex 21.242472354266155 4.951177071595149 3.0999999999999943
    vertex 21.242472354266155 4.951177071595149 -4.500000000000005
  endloop
endfacet
facet normal -0.9650812745905352 0.261950631674574 0.0
  outer loop
    vertex 21.703900925694725 6.651177071595148 3.0999999999999943
    vertex 21.242472354266155 4.951177071595149 -4.500000000000005
    vertex 21.242472354266155 4.951177071595149 3.0999999999999943
  endloop
endfacet
facet normal -0.9650812745905352 0.261950631674574 0.0
  outer loop
    vertex 21.242472354266155 4.951177071595149 -4.500000000000005
    vertex 21.703900925694725 6.651177071595148 3.0999999999999943
    vertex 21.703900925694725 6.651177071595148 -4.500000000000005
  endloop
endfacet
facet normal 9.896343751419579e-17 0.5241209276339436 0.8516438535069307
  outer loop
    vertex 33.89247235426616 4.701297625220356 4.2999999999999945
    vertex 33.10653365801675 6.651177071595148 3.0999999999999943
    vertex 31.792472354266156 4.701297625220356 4.2999999999999945
  endloop
endfacet
facet normal 9.896343751419579e-17 0.5241209276339436 0.8516438535069307
  outer loop
    vertex 33.10653365801675 6.651177071595148 3.0999999999999943
    vertex 33.89247235426616 4.701297625220356 4.2999999999999945
    vertex 33.906533658016755 6.651177071595148 3.0999999999999943
  endloop
endfacet
facet normal 0.9999739990795238 -0.007211183322076261 -1.5092359722157203e-18
  outer loop
    vertex 33.906533658016755 6.651177071595148 -0.5000000000000057
    vertex 33.89247235426616 4.701297625220356 4.2999999999999945
    vertex 33.89247235426616 4.701297625220356 -0.5000000000000057
  endloop
endfacet
facet normal 0.9999739990795238 -0.007211183322076261 -1.5092359722157203e-18
  outer loop
    vertex 33.89247235426616 4.701297625220356 4.2999999999999945
    vertex 33.906533658016755 6.651177071595148 -0.5000000000000057
    vertex 33.906533658016755 6.651177071595148 3.0999999999999943
  endloop
endfacet
facet normal 0.0 1.0 0.0
  outer loop
    vertex 33.10653365801675 6.651177071595148 3.0999999999999943
    vertex 34.70641642296343 6.6521180511517555 -4.493972902262333
    vertex 33.10641642296343 6.6521180511517555 -4.499999902262333
  endloop
endfacet
facet normal 0.0 1.0 0.0
  outer loop
    vertex 34.70641642296343 6.6521180511517555 -4.493972902262333
    vertex 33.10653365801675 6.651177071595148 3.0999999999999943
    vertex 33.906533658016755 6.651177071595148 -0.5000000000000057
  endloop
endfacet
facet normal 0.0 1.0 0.0
  outer loop
    vertex 33.906533658016755 6.651177071595148 -0.5000000000000057
    vertex 33.10653365801675 6.651177071595148 3.0999999999999943
    vertex 33.906533658016755 6.651177071595148 3.0999999999999943
  endloop
endfacet
facet normal 0.0 1.0 0.0
  outer loop
    vertex 34.70653365801676 6.651177071595148 -0.5000000000000057
    vertex 34.70641642296343 6.6521180511517555 -4.493972902262333
    vertex 33.906533658016755 6.651177071595148 -0.5000000000000057
  endloop
endfacet
facet normal 1.0 0.0 0.0
  outer loop
    vertex 34.742355119212824 2.8521180511517565 -4.499999902262333
    vertex 34.742472354266155 2.8511770715951488 -0.5000000000000057
    vertex 34.742355119212824 1.602118051151757 -4.499999902262333
  endloop
endfacet
facet normal 1.0 0.0 0.0
  outer loop
    vertex 34.742355119212824 1.602118051151757 -4.499999902262333
    vertex 34.742472354266155 2.8511770715951488 3.0999999999999943
    vertex 34.742472354266155 1.601177071595149 3.0999999999999943
  endloop
endfacet
facet normal 1.0 0.0 0.0
  outer loop
    vertex 34.742472354266155 2.8511770715951488 3.0999999999999943
    vertex 34.742355119212824 1.602118051151757 -4.499999902262333
    vertex 34.742472354266155 2.8511770715951488 -0.5000000000000057
  endloop
endfacet
facet normal 0.0 1.0 0.0
  outer loop
    vertex 34.742472354266155 1.601177071595149 3.0999999999999943
    vertex 35.54235511921283 1.602118051151757 -4.499999902262333
    vertex 34.742355119212824 1.602118051151757 -4.499999902262333
  endloop
endfacet
facet normal 0.0 1.0 0.0
  outer loop
    vertex 35.54235511921283 1.602118051151757 -4.499999902262333
    vertex 34.742472354266155 1.601177071595149 3.0999999999999943
    vertex 35.54247235426615 1.601177071595149 3.0999999999999943
  endloop
endfacet
facet normal 0.8998141071961993 -0.43627350651937014 0.0
  outer loop
    vertex 34.742355119212824 -0.04788194884824295 -4.499999902262333
    vertex 35.54247235426615 1.601177071595149 3.0999999999999943
    vertex 34.742472354266155 -0.04882292840485087 3.0999999999999943
  endloop
endfacet
facet normal 0.8998141071961993 -0.43627350651937014 0.0
  outer loop
    vertex 35.54247235426615 1.601177071595149 3.0999999999999943
    vertex 34.742355119212824 -0.04788194884824295 -4.499999902262333
    vertex 35.54235511921283 1.602118051151757 -4.499999902262333
  endloop
endfacet
facet normal -0.8320502943378438 -0.554700196225229 -0.0
  outer loop
    vertex 20.142472354266157 1.6011770715951474 3.0999999999999943
    vertex 21.24235511921282 -0.04788194884824295 -4.499999902262333
    vertex 21.242472354266155 -0.04882292840485087 3.0999999999999943
  endloop
endfacet
facet normal -0.8320502943378438 -0.554700196225229 -0.0
  outer loop
    vertex 21.24235511921282 -0.04788194884824295 -4.499999902262333
    vertex 20.142472354266157 1.6011770715951474 3.0999999999999943
    vertex 20.142355119212823 1.6021180511517554 -4.499999902262333
  endloop
endfacet
facet normal 0.0 1.0 0.0
  outer loop
    vertex 20.142472354266157 1.6011770715951474 3.0999999999999943
    vertex 21.242355119212824 1.6021180511517554 -4.499999902262333
    vertex 20.142355119212823 1.6021180511517554 -4.499999902262333
  endloop
endfacet
facet normal 0.0 1.0 0.0
  outer loop
    vertex 21.242355119212824 1.6021180511517554 -4.499999902262333
    vertex 20.142472354266157 1.6011770715951474 3.0999999999999943
    vertex 21.242472354266155 1.6011770715951474 3.0999999999999943
  endloop
endfacet
facet normal -0.9999999988707098 4.6894007982893496e-05 7.71573559282189e-06
  outer loop
    vertex 21.242472354266155 2.851177071595148 3.0999999999999943
    vertex 21.242355119212824 1.6021180511517554 -4.499999902262333
    vertex 21.242472354266155 1.6011770715951474 3.0999999999999943
  endloop
endfacet
facet normal -0.9999999988707098 4.6894007982893496e-05 7.71573559282189e-06
  outer loop
    vertex 21.242355119212824 1.6021180511517554 -4.499999902262333
    vertex 21.242472354266155 2.851177071595148 3.0999999999999943
    vertex 21.242472354266155 2.851177071595148 -4.499999902262333
  endloop
endfacet
facet normal 0.0 1.0 0.0
  outer loop
    vertex 22.592472354266157 -0.858018928404851 3.0999999999999943
    vertex 31.79235511921283 -0.857077948848243 -4.499999902262333
    vertex 22.592355119212826 -0.857077948848243 -4.499999902262333
  endloop
endfacet
facet normal 0.0 1.0 0.0
  outer loop
    vertex 31.79235511921283 -0.857077948848243 -4.499999902262333
    vertex 22.592472354266157 -0.858018928404851 3.0999999999999943
    vertex 31.792472354266156 -0.858018928404851 3.0999999999999943
  endloop
endfacet
facet normal 0.0 0.0 1.0
  outer loop
    vertex 21.242472354266155 1.6011770715951474 3.0999999999999943
    vertex 20.142472354266157 1.6011770715951474 3.0999999999999943
    vertex 21.242472354266155 -0.04882292840485087 3.0999999999999943
  endloop
endfacet
facet normal 0.0 0.0 1.0
  outer loop
    vertex 35.54247235426615 1.601177071595149 3.0999999999999943
    vertex 34.742472354266155 1.601177071595149 3.0999999999999943
    vertex 34.742472354266155 -0.04882292840485087 3.0999999999999943
  endloop
endfacet
facet normal 0.0 0.0 1.0
  outer loop
    vertex 21.242472354266155 -1.9488229284048513 3.0999999999999943
    vertex 22.592472354266157 -0.858018928404851 3.0999999999999943
    vertex 21.242472354266155 -0.04882292840485087 3.0999999999999943
  endloop
endfacet
facet normal 0.0 0.0 1.0
  outer loop
    vertex 22.592472354266157 -0.858018928404851 3.0999999999999943
    vertex 21.242472354266155 -1.9488229284048513 3.0999999999999943
    vertex 34.742472354266155 -1.9488229284048513 3.0999999999999943
  endloop
endfacet
facet normal 0.0 0.0 1.0
  outer loop
    vertex 21.242472354266155 -0.04882292840485087 3.0999999999999943
    vertex 22.592472354266157 -0.858018928404851 3.0999999999999943
    vertex 21.242472354266155 1.6011770715951474 3.0999999999999943
  endloop
endfacet
facet normal 0.0 0.0 1.0
  outer loop
    vertex 21.242472354266155 1.6011770715951474 3.0999999999999943
    vertex 22.592472354266157 -0.858018928404851 3.0999999999999943
    vertex 21.242472354266155 2.851177071595148 3.0999999999999943
  endloop
endfacet
facet normal 0.0 0.0 1.0
  outer loop
    vertex 22.592472354266157 -0.858018928404851 3.0999999999999943
    vertex 34.742472354266155 -1.9488229284048513 3.0999999999999943
    vertex 31.792472354266156 -0.858018928404851 3.0999999999999943
  endloop
endfacet
facet normal 0.0 0.0 1.0
  outer loop
    vertex 31.792472354266156 -0.858018928404851 3.0999999999999943
    vertex 34.742472354266155 -1.9488229284048513 3.0999999999999943
    vertex 31.792472354266156 2.851177071595148 3.0999999999999943
  endloop
endfacet
facet normal 0.0 0.0 1.0
  outer loop
    vertex 31.792472354266156 2.851177071595148 3.0999999999999943
    vertex 34.742472354266155 -1.9488229284048513 3.0999999999999943
    vertex 34.742472354266155 2.8511770715951488 3.0999999999999943
  endloop
endfacet
facet normal 0.0 0.0 1.0
  outer loop
    vertex 34.742472354266155 2.8511770715951488 3.0999999999999943
    vertex 34.742472354266155 -1.9488229284048513 3.0999999999999943
    vertex 34.742472354266155 -0.04882292840485087 3.0999999999999943
  endloop
endfacet
facet normal 0.0 0.0 1.0
  outer loop
    vertex 34.742472354266155 2.8511770715951488 3.0999999999999943
    vertex 34.742472354266155 -0.04882292840485087 3.0999999999999943
    vertex 34.742472354266155 1.601177071595149 3.0999999999999943
  endloop
endfacet
facet normal 0.0 0.0 1.0
  outer loop
    vertex 22.592472354266157 2.851177071595148 3.0999999999999943
    vertex 21.242472354266155 2.851177071595148 3.0999999999999943
    vertex 22.592472354266157 -0.858018928404851 3.0999999999999943
  endloop
endfacet
facet normal 0.0 0.0 -1.0
  outer loop
    vertex 20.242472354266155 4.451177071595148 -4.500000000000005
    vertex 19.842472354266157 3.2511770715951482 -4.500000000000005
    vertex 19.842472354266157 4.051177071595148 -4.500000000000005
  endloop
endfacet
facet normal 0.0 0.0 -1.0
  outer loop
    vertex 19.842472354266157 3.2511770715951482 -4.500000000000005
    vertex 20.242472354266155 4.451177071595148 -4.500000000000005
    vertex 20.242472354266155 2.851177071595148 -4.500000000000005
  endloop
endfacet
facet normal -0.7071067811865481 0.7071067811865469 0.0
  outer loop
    vertex 20.242472354266155 4.451177071595148 3.0999999999999943
    vertex 19.842472354266157 4.051177071595148 -4.500000000000005
    vertex 19.842472354266157 4.051177071595148 3.0999999999999934
  endloop
endfacet
facet normal -0.7071067811865481 0.7071067811865469 0.0
  outer loop
    vertex 19.842472354266157 4.051177071595148 -4.500000000000005
    vertex 20.242472354266155 4.451177071595148 3.0999999999999943
    vertex 20.242472354266155 4.451177071595148 -4.500000000000005
  endloop
endfacet
facet normal -0.7071067811865485 -0.7071067811865467 2.9949062679836904e-33
  outer loop
    vertex 19.842472354266157 3.2511770715951482 3.0999999999999934
    vertex 20.242472354266155 2.851177071595148 -4.500000000000005
    vertex 20.242472354266155 2.851177071595148 3.0999999999999943
  endloop
endfacet
facet normal -0.7071067811865485 -0.7071067811865467 2.9949062679836904e-33
  outer loop
    vertex 20.242472354266155 2.851177071595148 -4.500000000000005
    vertex 19.842472354266157 3.2511770715951482 3.0999999999999934
    vertex 19.842472354266157 3.2511770715951482 -4.500000000000005
  endloop
endfacet
facet normal 0.9999999997672546 -2.014904584812756e-05 -7.71407991138582e-06
  outer loop
    vertex 22.592355119212826 -0.857077948848243 -4.499999902262333
    vertex 22.592472354266157 2.851177071595148 3.0999999999999943
    vertex 22.592472354266157 -0.858018928404851 3.0999999999999943
  endloop
endfacet
facet normal 0.9999999997672546 -2.014904584812756e-05 -7.71407991138582e-06
  outer loop
    vertex 22.592472354266157 2.851177071595148 3.0999999999999943
    vertex 22.592355119212826 -0.857077948848243 -4.499999902262333
    vertex 22.592472354266157 2.851177071595148 -4.499999902262333
  endloop
endfacet
facet normal -1.0 0.0 0.0
  outer loop
    vertex 31.792472354266156 4.701297625220356 4.2999999999999945
    vertex 31.792472354266156 2.851177071595148 3.0999999999999943
    vertex 31.792472354266156 2.851177071595148 4.2999999999999945
  endloop
endfacet
facet normal -1.0 0.0 0.0
  outer loop
    vertex 31.792472354266156 2.851177071595148 3.0999999999999943
    vertex 31.79235511921283 -0.857077948848243 -4.499999902262333
    vertex 31.792472354266156 -0.858018928404851 3.0999999999999943
  endloop
endfacet
facet normal -1.0 0.0 0.0
  outer loop
    vertex 31.79235511921283 -0.857077948848243 -4.499999902262333
    vertex 31.792472354266156 2.851177071595148 3.0999999999999943
    vertex 31.79235511921283 4.702238604776964 -4.499999902262333
  endloop
endfacet
facet normal -1.0 0.0 0.0
  outer loop
    vertex 31.79235511921283 4.702238604776964 -4.499999902262333
    vertex 31.792472354266156 2.851177071595148 3.0999999999999943
    vertex 31.792472354266156 4.701297625220356 4.2999999999999945
  endloop
endfacet
facet normal -0.8292640404339697 0.5588570042892255 1.8493878306269063e-17
  outer loop
    vertex 33.10653365801675 6.651177071595148 3.0999999999999943
    vertex 31.79235511921283 4.702238604776964 -4.499999902262333
    vertex 31.792472354266156 4.701297625220356 4.2999999999999945
  endloop
endfacet
facet normal -0.8292640404339697 0.5588570042892255 1.8493878306269063e-17
  outer loop
    vertex 31.79235511921283 4.702238604776964 -4.499999902262333
    vertex 33.10653365801675 6.651177071595148 3.0999999999999943
    vertex 33.10641642296343 6.6521180511517555 -4.499999902262333
  endloop
endfacet
facet normal 0.0 0.0 -1.0
  outer loop
    vertex 21.703900925694725 6.651177071595148 -4.500000000000005
    vertex 21.242472354266155 4.451177071595148 -4.500000000000005
    vertex 21.242472354266155 4.951177071595149 -4.500000000000005
  endloop
endfacet
facet normal 0.0 0.0 -1.0
  outer loop
    vertex 21.242472354266155 4.451177071595148 -4.500000000000005
    vertex 21.703900925694725 6.651177071595148 -4.500000000000005
    vertex 22.592472354266157 4.451177071595148 -4.500000000000005
  endloop
endfacet
facet normal 0.0 0.0 -1.0
  outer loop
    vertex 22.592472354266157 4.451177071595148 -4.500000000000005
    vertex 21.703900925694725 6.651177071595148 -4.500000000000005
    vertex 22.282472354266154 6.651177071595148 -4.500000000000005
  endloop
endfacet
facet normal 0.0 1.0 0.0
  outer loop
    vertex 21.703900925694725 6.651177071595148 3.0999999999999943
    vertex 22.282472354266154 6.651177071595148 -4.500000000000005
    vertex 21.703900925694725 6.651177071595148 -4.500000000000005
  endloop
endfacet
facet normal 0.0 1.0 0.0
  outer loop
    vertex 22.282472354266154 6.651177071595148 -4.500000000000005
    vertex 21.703900925694725 6.651177071595148 3.0999999999999943
    vertex 22.282472354266154 6.651177071595148 3.099999999999995
  endloop
endfacet
facet normal 0.9902177480686674 0.13953068268240362 1.0465495030883073e-18
  outer loop
    vertex 22.282472354266154 6.651177071595148 -4.500000000000005
    vertex 22.592472354266157 4.451177071595148 3.0999999999999943
    vertex 22.592472354266157 4.451177071595148 -4.500000000000005
  endloop
endfacet
facet normal 0.9902177480686674 0.13953068268240362 1.0465495030883073e-18
  outer loop
    vertex 22.592472354266157 4.451177071595148 3.0999999999999943
    vertex 22.282472354266154 6.651177071595148 -4.500000000000005
    vertex 22.52201780881161 4.951177071595149 3.0999999999999943
  endloop
endfacet
facet normal 0.9902177480686674 0.13953068268240362 1.0465495030883073e-18
  outer loop
    vertex 22.52201780881161 4.951177071595149 3.0999999999999943
    vertex 22.282472354266154 6.651177071595148 -4.500000000000005
    vertex 22.282472354266154 6.651177071595148 3.099999999999995
  endloop
endfacet
facet normal -0.0 -1.0 -0.0
  outer loop
    vertex 34.742472354266155 -1.9488229284048513 3.0999999999999943
    vertex 21.24235511921282 -1.9478819488482433 -4.499999902262333
    vertex 34.742355119212824 -1.9478819488482433 -4.499999902262333
  endloop
endfacet
facet normal -0.0 -1.0 -0.0
  outer loop
    vertex 21.24235511921282 -1.9478819488482433 -4.499999902262333
    vertex 34.742472354266155 -1.9488229284048513 3.0999999999999943
    vertex 21.242472354266155 -1.9488229284048513 3.0999999999999943
  endloop
endfacet
facet normal -1.0 0.0 0.0
  outer loop
    vertex 21.242472354266155 -0.04882292840485087 3.0999999999999943
    vertex 21.24235511921282 -1.9478819488482433 -4.499999902262333
    vertex 21.242472354266155 -1.9488229284048513 3.0999999999999943
  endloop
endfacet
facet normal -1.0 0.0 0.0
  outer loop
    vertex 21.24235511921282 -1.9478819488482433 -4.499999902262333
    vertex 21.242472354266155 -0.04882292840485087 3.0999999999999943
    vertex 21.24235511921282 -0.04788194884824295 -4.499999902262333
  endloop
endfacet
facet normal 1.0 0.0 0.0
  outer loop
    vertex 34.742355119212824 -1.9478819488482433 -4.499999902262333
    vertex 34.742472354266155 -0.04882292840485087 3.0999999999999943
    vertex 34.742472354266155 -1.9488229284048513 3.0999999999999943
  endloop
endfacet
facet normal 1.0 0.0 0.0
  outer loop
    vertex 34.742472354266155 -0.04882292840485087 3.0999999999999943
    vertex 34.742355119212824 -1.9478819488482433 -4.499999902262333
    vertex 34.742355119212824 -0.04788194884824295 -4.499999902262333
  endloop
endfacet
facet normal -1.8654739792546963e-05 0.00014013111364102895 -0.9999999900076358
  outer loop
    vertex 22.592472354266157 2.851177071595148 -4.499999902262333
    vertex 22.592355119212826 -0.857077948848243 -4.499999902262333
    vertex 21.242472354266155 2.851177071595148 -4.499999902262333
  endloop
endfacet
facet normal -1.8654739792546963e-05 0.00014013111364102895 -0.9999999900076358
  outer loop
    vertex 33.10641642296343 6.6521180511517555 -4.499999902262333
    vertex 31.79235511921283 -0.857077948848243 -4.499999902262333
    vertex 31.79235511921283 4.702238604776964 -4.499999902262333
  endloop
endfacet
facet normal -1.8654739792546963e-05 0.00014013111364102895 -0.9999999900076358
  outer loop
    vertex 34.70641642296343 6.6521180511517555 -4.493972902262333
    vertex 34.386832674923035 4.5371685758144435 -4.499999902262333
    vertex 33.10641642296343 6.6521180511517555 -4.499999902262333
  endloop
endfacet
facet normal -1.8654739792546963e-05 0.00014013111364102895 -0.9999999900076358
  outer loop
    vertex 34.386832674923035 4.5371685758144435 -4.499999902262333
    vertex 34.70641642296343 6.6521180511517555 -4.493972902262333
    vertex 34.43629288219648 4.742755099302614 -4.499999902262333
  endloop
endfacet
facet normal -1.8654739792546963e-05 0.00014013111364102895 -0.9999999900076358
  outer loop
    vertex 34.43629288219648 4.742755099302614 -4.499999902262333
    vertex 34.70641642296343 6.6521180511517555 -4.493972902262333
    vertex 34.537277481470674 4.928535188259734 -4.499999902262333
  endloop
endfacet
facet normal -1.8654739792546963e-05 0.00014013111364102895 -0.9999999900076358
  outer loop
    vertex 34.537277481470674 4.928535188259734 -4.499999902262333
    vertex 34.70641642296343 6.6521180511517555 -4.493972902262333
    vertex 34.682904539190005 5.081848236639491 -4.499999902262333
  endloop
endfacet
facet normal -1.8654739792546963e-05 0.00014013111364102895 -0.9999999900076358
  outer loop
    vertex 34.682904539190005 5.081848236639491 -4.499999902262333
    vertex 34.70641642296343 6.6521180511517555 -4.493972902262333
    vertex 34.863249812031015 5.1922462135565945 -4.499999902262333
  endloop
endfacet
facet normal -1.8654739792546963e-05 0.00014013111364102895 -0.9999999900076358
  outer loop
    vertex 34.863249812031015 5.1922462135565945 -4.499999902262333
    vertex 34.70641642296343 6.6521180511517555 -4.493972902262333
    vertex 35.892887306527754 5.982483926585795 -4.499999902262333
  endloop
endfacet
facet normal -1.8654739792546963e-05 0.00014013111364102895 -0.9999999900076358
  outer loop
    vertex 34.863249812031015 5.1922462135565945 -4.499999902262333
    vertex 35.892887306527754 5.982483926585795 -4.499999902262333
    vertex 35.06602306768422 5.252205679325429 -4.499999902262333
  endloop
endfacet
facet normal -1.8654739792546963e-05 0.00014013111364102895 -0.9999999900076358
  outer loop
    vertex 35.06602306768422 5.252205679325429 -4.499999902262333
    vertex 35.892887306527754 5.982483926585795 -4.499999902262333
    vertex 35.27740564387551 5.257640495441548 -4.499999902262333
  endloop
endfacet
facet normal -1.8654739792546963e-05 0.00014013111364102895 -0.9999999900076358
  outer loop
    vertex 35.27740564387551 5.257640495441548 -4.499999902262333
    vertex 35.892887306527754 5.982483926585795 -4.499999902262333
    vertex 35.48299216736368 5.208180288168099 -4.499999902262333
  endloop
endfacet
facet normal -1.8654739792546963e-05 0.00014013111364102895 -0.9999999900076358
  outer loop
    vertex 35.48299216736368 5.208180288168099 -4.499999902262333
    vertex 35.892887306527754 5.982483926585795 -4.499999902262333
    vertex 35.6687722563208 5.107195688893908 -4.499999902262333
  endloop
endfacet
facet normal -1.8654739792546963e-05 0.00014013111364102895 -0.9999999900076358
  outer loop
    vertex 35.6687722563208 5.107195688893908 -4.499999902262333
    vertex 35.892887306527754 5.982483926585795 -4.499999902262333
    vertex 35.82208530470056 4.961568631174571 -4.499999902262333
  endloop
endfacet
facet normal -1.8654739792546963e-05 0.00014013111364102895 -0.9999999900076358
  outer loop
    vertex 35.82208530470056 4.961568631174571 -4.499999902262333
    vertex 35.892887306527754 5.982483926585795 -4.499999902262333
    vertex 36.242355119212824 4.961568631174571 -4.499999902262333
  endloop
endfacet
facet normal -1.8654739792546963e-05 0.00014013111364102895 -0.9999999900076358
  outer loop
    vertex 36.242355119212824 4.961568631174571 -4.499999902262333
    vertex 35.892887306527754 5.982483926585795 -4.499999902262333
    vertex 36.242355119212824 5.5081407406274 -4.499999902262333
  endloop
endfacet
facet normal -1.8654739792546963e-05 0.00014013111364102895 -0.9999999900076358
  outer loop
    vertex 34.901718071061964 3.696055814135414 -4.499999902262333
    vertex 34.742355119212824 2.8521180511517565 -4.499999902262333
    vertex 34.71593798210485 3.7970404134096047 -4.499999902262333
  endloop
endfacet
facet normal -1.8654739792546963e-05 0.00014013111364102895 -0.9999999900076358
  outer loop
    vertex 34.742355119212824 2.8521180511517565 -4.499999902262333
    vertex 34.901718071061964 3.696055814135414 -4.499999902262333
    vertex 36.342355119212826 2.8521180511517565 -4.499999902262333
  endloop
endfacet
facet normal -1.8654739792546963e-05 0.00014013111364102895 -0.9999999900076358
  outer loop
    vertex 36.342355119212826 2.8521180511517565 -4.499999902262333
    vertex 34.901718071061964 3.696055814135414 -4.499999902262333
    vertex 35.107304594550136 3.6465956068619647 -4.499999902262333
  endloop
endfacet
facet normal -1.8654739792546963e-05 0.00014013111364102895 -0.9999999900076358
  outer loop
    vertex 36.342355119212826 2.8521180511517565 -4.499999902262333
    vertex 35.107304594550136 3.6465956068619647 -4.499999902262333
    vertex 35.318687170741434 3.652030422978084 -4.499999902262333
  endloop
endfacet
facet normal -1.8654739792546963e-05 0.00014013111364102895 -0.9999999900076358
  outer loop
    vertex 36.342355119212826 2.8521180511517565 -4.499999902262333
    vertex 35.318687170741434 3.652030422978084 -4.499999902262333
    vertex 35.52146042639464 3.711989888746918 -4.499999902262333
  endloop
endfacet
facet normal -1.8654739792546963e-05 0.00014013111364102895 -0.9999999900076358
  outer loop
    vertex 36.342355119212826 2.8521180511517565 -4.499999902262333
    vertex 35.52146042639464 3.711989888746918 -4.499999902262333
    vertex 35.701805699235635 3.8223878656640213 -4.499999902262333
  endloop
endfacet
facet normal -1.8654739792546963e-05 0.00014013111364102895 -0.9999999900076358
  outer loop
    vertex 36.342355119212826 2.8521180511517565 -4.499999902262333
    vertex 35.701805699235635 3.8223878656640213 -4.499999902262333
    vertex 35.84743275695498 3.9757009140437782 -4.499999902262333
  endloop
endfacet
facet normal -1.8654739792546963e-05 0.00014013111364102895 -0.9999999900076358
  outer loop
    vertex 36.342355119212826 2.8521180511517565 -4.499999902262333
    vertex 35.84743275695498 3.9757009140437782 -4.499999902262333
    vertex 36.342355119212826 3.9757009140437782 -4.499999902262333
  endloop
endfacet
facet normal -1.8654739792546963e-05 0.00014013111364102895 -0.9999999900076358
  outer loop
    vertex 35.54235511921283 1.602118051151757 -4.499999902262333
    vertex 34.742355119212824 -0.04788194884824295 -4.499999902262333
    vertex 34.742355119212824 1.602118051151757 -4.499999902262333
  endloop
endfacet
facet normal -1.8654739792546963e-05 0.00014013111364102895 -0.9999999900076358
  outer loop
    vertex 21.242355119212824 1.6021180511517554 -4.499999902262333
    vertex 21.24235511921282 -0.04788194884824295 -4.499999902262333
    vertex 20.142355119212823 1.6021180511517554 -4.499999902262333
  endloop
endfacet
facet normal -1.8654739792546963e-05 0.00014013111364102895 -0.9999999900076358
  outer loop
    vertex 21.24235511921282 -0.04788194884824295 -4.499999902262333
    vertex 21.242355119212824 1.6021180511517554 -4.499999902262333
    vertex 21.24235511921282 -1.9478819488482433 -4.499999902262333
  endloop
endfacet
facet normal -1.8654739792546963e-05 0.00014013111364102895 -0.9999999900076358
  outer loop
    vertex 21.24235511921282 -1.9478819488482433 -4.499999902262333
    vertex 21.242355119212824 1.6021180511517554 -4.499999902262333
    vertex 22.592355119212826 -0.857077948848243 -4.499999902262333
  endloop
endfacet
facet normal -1.8654739792546963e-05 0.00014013111364102895 -0.9999999900076358
  outer loop
    vertex 21.24235511921282 -1.9478819488482433 -4.499999902262333
    vertex 22.592355119212826 -0.857077948848243 -4.499999902262333
    vertex 34.742355119212824 -1.9478819488482433 -4.499999902262333
  endloop
endfacet
facet normal -1.8654739792546963e-05 0.00014013111364102895 -0.9999999900076358
  outer loop
    vertex 22.592355119212826 -0.857077948848243 -4.499999902262333
    vertex 21.242355119212824 1.6021180511517554 -4.499999902262333
    vertex 21.242472354266155 2.851177071595148 -4.499999902262333
  endloop
endfacet
facet normal -1.8654739792546963e-05 0.00014013111364102895 -0.9999999900076358
  outer loop
    vertex 34.742355119212824 -1.9478819488482433 -4.499999902262333
    vertex 22.592355119212826 -0.857077948848243 -4.499999902262333
    vertex 31.79235511921283 -0.857077948848243 -4.499999902262333
  endloop
endfacet
facet normal -1.8654739792546963e-05 0.00014013111364102895 -0.9999999900076358
  outer loop
    vertex 34.742355119212824 -1.9478819488482433 -4.499999902262333
    vertex 31.79235511921283 -0.857077948848243 -4.499999902262333
    vertex 33.10641642296343 6.6521180511517555 -4.499999902262333
  endloop
endfacet
facet normal -1.8654739792546963e-05 0.00014013111364102895 -0.9999999900076358
  outer loop
    vertex 34.742355119212824 -1.9478819488482433 -4.499999902262333
    vertex 33.10641642296343 6.6521180511517555 -4.499999902262333
    vertex 34.392267491039156 4.325785999623149 -4.499999902262333
  endloop
endfacet
facet normal -1.8654739792546963e-05 0.00014013111364102895 -0.9999999900076358
  outer loop
    vertex 34.392267491039156 4.325785999623149 -4.499999902262333
    vertex 33.10641642296343 6.6521180511517555 -4.499999902262333
    vertex 34.386832674923035 4.5371685758144435 -4.499999902262333
  endloop
endfacet
facet normal -1.8654739792546963e-05 0.00014013111364102895 -0.9999999900076358
  outer loop
    vertex 34.742355119212824 -1.9478819488482433 -4.499999902262333
    vertex 34.392267491039156 4.325785999623149 -4.499999902262333
    vertex 34.45222695680798 4.123012743969943 -4.499999902262333
  endloop
endfacet
facet normal -1.8654739792546963e-05 0.00014013111364102895 -0.9999999900076358
  outer loop
    vertex 34.742355119212824 -1.9478819488482433 -4.499999902262333
    vertex 34.45222695680798 4.123012743969943 -4.499999902262333
    vertex 34.56262493372509 3.942667471128942 -4.499999902262333
  endloop
endfacet
facet normal -1.8654739792546963e-05 0.00014013111364102895 -0.9999999900076358
  outer loop
    vertex 34.742355119212824 -1.9478819488482433 -4.499999902262333
    vertex 34.56262493372509 3.942667471128942 -4.499999902262333
    vertex 34.71593798210485 3.7970404134096047 -4.499999902262333
  endloop
endfacet
facet normal -1.8654739792546963e-05 0.00014013111364102895 -0.9999999900076358
  outer loop
    vertex 34.742355119212824 -1.9478819488482433 -4.499999902262333
    vertex 34.71593798210485 3.7970404134096047 -4.499999902262333
    vertex 34.742355119212824 2.8521180511517565 -4.499999902262333
  endloop
endfacet
facet normal -1.8654739792546963e-05 0.00014013111364102895 -0.9999999900076358
  outer loop
    vertex 34.742355119212824 -1.9478819488482433 -4.499999902262333
    vertex 34.742355119212824 2.8521180511517565 -4.499999902262333
    vertex 34.742355119212824 1.602118051151757 -4.499999902262333
  endloop
endfacet
facet normal -1.8654739792546963e-05 0.00014013111364102895 -0.9999999900076358
  outer loop
    vertex 34.742355119212824 -1.9478819488482433 -4.499999902262333
    vertex 34.742355119212824 1.602118051151757 -4.499999902262333
    vertex 34.742355119212824 -0.04788194884824295 -4.499999902262333
  endloop
endfacet
facet normal 0.8050949196707956 0.5931459941028643 -4.446031004315968e-32
  outer loop
    vertex 36.242355119212824 5.5081407406274 -4.499999902262333
    vertex 35.893004541581085 5.981542947029187 -0.5000000000000057
    vertex 36.242472354266155 5.507199761070792 -0.5000000000000057
  endloop
endfacet
facet normal 0.8050949196707956 0.5931459941028643 -4.446031004315968e-32
  outer loop
    vertex 35.893004541581085 5.981542947029187 -0.5000000000000057
    vertex 36.242355119212824 5.5081407406274 -4.499999902262333
    vertex 35.892887306527754 5.982483926585795 -4.499999902262333
  endloop
endfacet
facet normal 1.0 0.0 0.0
  outer loop
    vertex 36.242355119212824 4.961568631174571 -4.499999902262333
    vertex 36.242472354266155 5.507199761070792 -0.5000000000000057
    vertex 36.242472354266155 4.960627651617963 -0.5000000000000057
  endloop
endfacet
facet normal 1.0 0.0 0.0
  outer loop
    vertex 36.242472354266155 5.507199761070792 -0.5000000000000057
    vertex 36.242355119212824 4.961568631174571 -4.499999902262333
    vertex 36.242355119212824 5.5081407406274 -4.499999902262333
  endloop
endfacet
facet normal 0.49151208323638934 0.8708707550679521 -4.173663252206933e-18
  outer loop
    vertex 34.70641642296343 6.6521180511517555 -4.493972902262333
    vertex 35.893004541581085 5.981542947029187 -0.5000000000000057
    vertex 35.892887306527754 5.982483926585795 -4.499999902262333
  endloop
endfacet
facet normal 0.49151208323638934 0.8708707550679521 -4.173663252206933e-18
  outer loop
    vertex 35.893004541581085 5.981542947029187 -0.5000000000000057
    vertex 34.70641642296343 6.6521180511517555 -4.493972902262333
    vertex 34.70653365801676 6.651177071595148 -0.5000000000000057
  endloop
endfacet
facet normal 1.0 0.0 0.0
  outer loop
    vertex 36.342355119212826 2.8521180511517565 -4.499999902262333
    vertex 36.34247235426616 3.97475993448717 -0.5000000000000057
    vertex 36.34247235426616 2.8511770715951488 -0.5000000000000057
  endloop
endfacet
facet normal 1.0 0.0 0.0
  outer loop
    vertex 36.34247235426616 3.97475993448717 -0.5000000000000057
    vertex 36.342355119212826 2.8521180511517565 -4.499999902262333
    vertex 36.342355119212826 3.9757009140437782 -4.499999902262333
  endloop
endfacet
facet normal 0.0 1.0 0.0
  outer loop
    vertex 35.84754999200831 3.97475993448717 -0.5000000000000057
    vertex 36.342355119212826 3.9757009140437782 -4.499999902262333
    vertex 35.84743275695498 3.9757009140437782 -4.499999902262333
  endloop
endfacet
facet normal 0.0 1.0 0.0
  outer loop
    vertex 36.342355119212826 3.9757009140437782 -4.499999902262333
    vertex 35.84754999200831 3.97475993448717 -0.5000000000000057
    vertex 36.34247235426616 3.97475993448717 -0.5000000000000057
  endloop
endfacet
facet normal -0.025702310823414294 0.9996696410406474 0.0
  outer loop
    vertex 35.10742182960347 3.6456546273053565 -0.5000000000000057
    vertex 35.318687170741434 3.652030422978084 -4.499999902262333
    vertex 35.107304594550136 3.6465956068619647 -4.499999902262333
  endloop
endfacet
facet normal -0.025702310823414294 0.9996696410406474 0.0
  outer loop
    vertex 35.318687170741434 3.652030422978084 -4.499999902262333
    vertex 35.10742182960347 3.6456546273053565 -0.5000000000000057
    vertex 35.31880440579476 3.651089443421476 -0.5000000000000057
  endloop
endfacet
facet normal 0.23390701609247166 0.9722589715825287 0.0
  outer loop
    vertex 34.901835306115295 3.6951148345788054 -0.5000000000000057
    vertex 35.107304594550136 3.6465956068619647 -4.499999902262333
    vertex 34.901718071061964 3.696055814135414 -4.499999902262333
  endloop
endfacet
facet normal 0.23390701609247166 0.9722589715825287 0.0
  outer loop
    vertex 35.107304594550136 3.6465956068619647 -4.499999902262333
    vertex 34.901835306115295 3.6951148345788054 -0.5000000000000057
    vertex 35.10742182960347 3.6456546273053565 -0.5000000000000057
  endloop
endfacet
facet normal 0.47757596641128164 0.8785904599449793 0.0
  outer loop
    vertex 34.71605521715818 3.7960994338529965 -0.5000000000000057
    vertex 34.901718071061964 3.696055814135414 -4.499999902262333
    vertex 34.71593798210485 3.7970404134096047 -4.499999902262333
  endloop
endfacet
facet normal 0.47757596641128164 0.8785904599449793 0.0
  outer loop
    vertex 34.901718071061964 3.696055814135414 -4.499999902262333
    vertex 34.71605521715818 3.7960994338529965 -0.5000000000000057
    vertex 34.901835306115295 3.6951148345788054 -0.5000000000000057
  endloop
endfacet
facet normal 0.688698903850763 0.725047460401564 0.0
  outer loop
    vertex 34.56274216877842 3.941726491572333 -0.5000000000000057
    vertex 34.71593798210485 3.7970404134096047 -4.499999902262333
    vertex 34.56262493372509 3.942667471128942 -4.499999902262333
  endloop
endfacet
facet normal 0.688698903850763 0.725047460401564 0.0
  outer loop
    vertex 34.71593798210485 3.7970404134096047 -4.499999902262333
    vertex 34.56274216877842 3.941726491572333 -0.5000000000000057
    vertex 34.71605521715818 3.7960994338529965 -0.5000000000000057
  endloop
endfacet
facet normal 0.8528881491215587 0.5220936746293732 0.0
  outer loop
    vertex 34.56262493372509 3.942667471128942 -4.499999902262333
    vertex 34.452344191861314 4.1220717644133344 -0.5000000000000057
    vertex 34.56274216877842 3.941726491572333 -0.5000000000000057
  endloop
endfacet
facet normal 0.8528881491215587 0.5220936746293732 0.0
  outer loop
    vertex 34.452344191861314 4.1220717644133344 -0.5000000000000057
    vertex 34.56262493372509 3.942667471128942 -4.499999902262333
    vertex 34.45222695680798 4.123012743969943 -4.499999902262333
  endloop
endfacet
facet normal 0.9589544764940398 0.2835600677317637 0.0
  outer loop
    vertex 34.45222695680798 4.123012743969943 -4.499999902262333
    vertex 34.39238472609248 4.324845020066541 -0.5000000000000057
    vertex 34.452344191861314 4.1220717644133344 -0.5000000000000057
  endloop
endfacet
facet normal 0.9589544764940398 0.2835600677317637 0.0
  outer loop
    vertex 34.39238472609248 4.324845020066541 -0.5000000000000057
    vertex 34.45222695680798 4.123012743969943 -4.499999902262333
    vertex 34.392267491039156 4.325785999623149 -4.499999902262333
  endloop
endfacet
facet normal 0.9996696410406475 0.025702310823411133 0.0
  outer loop
    vertex 34.392267491039156 4.325785999623149 -4.499999902262333
    vertex 34.38694990997636 4.536227596257835 -0.5000000000000057
    vertex 34.39238472609248 4.324845020066541 -0.5000000000000057
  endloop
endfacet
facet normal 0.9996696410406475 0.025702310823411133 0.0
  outer loop
    vertex 34.38694990997636 4.536227596257835 -0.5000000000000057
    vertex 34.392267491039156 4.325785999623149 -4.499999902262333
    vertex 34.386832674923035 4.5371685758144435 -4.499999902262333
  endloop
endfacet
facet normal 0.9722589715825276 -0.23390701609247566 0.0
  outer loop
    vertex 34.386832674923035 4.5371685758144435 -4.499999902262333
    vertex 34.436410117249814 4.741814119746006 -0.5000000000000057
    vertex 34.38694990997636 4.536227596257835 -0.5000000000000057
  endloop
endfacet
facet normal 0.9722589715825276 -0.23390701609247566 0.0
  outer loop
    vertex 34.436410117249814 4.741814119746006 -0.5000000000000057
    vertex 34.386832674923035 4.5371685758144435 -4.499999902262333
    vertex 34.43629288219648 4.742755099302614 -4.499999902262333
  endloop
endfacet
facet normal 0.8785904599449815 -0.4775759664112779 0.0
  outer loop
    vertex 34.43629288219648 4.742755099302614 -4.499999902262333
    vertex 34.537394716524005 4.927594208703126 -0.5000000000000057
    vertex 34.436410117249814 4.741814119746006 -0.5000000000000057
  endloop
endfacet
facet normal 0.8785904599449815 -0.4775759664112779 0.0
  outer loop
    vertex 34.537394716524005 4.927594208703126 -0.5000000000000057
    vertex 34.43629288219648 4.742755099302614 -4.499999902262333
    vertex 34.537277481470674 4.928535188259734 -4.499999902262333
  endloop
endfacet
facet normal 0.7250474604015689 -0.6886989038507578 0.0
  outer loop
    vertex 34.537277481470674 4.928535188259734 -4.499999902262333
    vertex 34.683021774243336 5.080907257082883 -0.5000000000000057
    vertex 34.537394716524005 4.927594208703126 -0.5000000000000057
  endloop
endfacet
facet normal 0.7250474604015689 -0.6886989038507578 0.0
  outer loop
    vertex 34.683021774243336 5.080907257082883 -0.5000000000000057
    vertex 34.537277481470674 4.928535188259734 -4.499999902262333
    vertex 34.682904539190005 5.081848236639491 -4.499999902262333
  endloop
endfacet
facet normal 0.522093674629363 -0.852888149121565 0.0
  outer loop
    vertex 34.863367047084346 5.191305233999986 -0.5000000000000057
    vertex 34.682904539190005 5.081848236639491 -4.499999902262333
    vertex 34.863249812031015 5.1922462135565945 -4.499999902262333
  endloop
endfacet
facet normal 0.522093674629363 -0.852888149121565 0.0
  outer loop
    vertex 34.682904539190005 5.081848236639491 -4.499999902262333
    vertex 34.863367047084346 5.191305233999986 -0.5000000000000057
    vertex 34.683021774243336 5.080907257082883 -0.5000000000000057
  endloop
endfacet
facet normal 0.28356006773176673 -0.9589544764940389 0.0
  outer loop
    vertex 35.066140302737544 5.251264699768821 -0.5000000000000057
    vertex 34.863249812031015 5.1922462135565945 -4.499999902262333
    vertex 35.06602306768422 5.252205679325429 -4.499999902262333
  endloop
endfacet
facet normal 0.28356006773176673 -0.9589544764940389 0.0
  outer loop
    vertex 34.863249812031015 5.1922462135565945 -4.499999902262333
    vertex 35.066140302737544 5.251264699768821 -0.5000000000000057
    vertex 34.863367047084346 5.191305233999986 -0.5000000000000057
  endloop
endfacet
facet normal 0.025702310823414294 -0.9996696410406474 0.0
  outer loop
    vertex 35.27752287892884 5.2566995158849394 -0.5000000000000057
    vertex 35.06602306768422 5.252205679325429 -4.499999902262333
    vertex 35.27740564387551 5.257640495441548 -4.499999902262333
  endloop
endfacet
facet normal 0.025702310823414294 -0.9996696410406474 0.0
  outer loop
    vertex 35.06602306768422 5.252205679325429 -4.499999902262333
    vertex 35.27752287892884 5.2566995158849394 -0.5000000000000057
    vertex 35.066140302737544 5.251264699768821 -0.5000000000000057
  endloop
endfacet
facet normal -0.23390701609247166 -0.9722589715825287 -0.0
  outer loop
    vertex 35.48310940241701 5.2072393086114905 -0.5000000000000057
    vertex 35.27740564387551 5.257640495441548 -4.499999902262333
    vertex 35.48299216736368 5.208180288168099 -4.499999902262333
  endloop
endfacet
facet normal -0.23390701609247166 -0.9722589715825287 -0.0
  outer loop
    vertex 35.27740564387551 5.257640495441548 -4.499999902262333
    vertex 35.48310940241701 5.2072393086114905 -0.5000000000000057
    vertex 35.27752287892884 5.2566995158849394 -0.5000000000000057
  endloop
endfacet
facet normal -0.47757596641128164 -0.8785904599449793 -0.0
  outer loop
    vertex 35.66888949137413 5.106254709337299 -0.5000000000000057
    vertex 35.48299216736368 5.208180288168099 -4.499999902262333
    vertex 35.6687722563208 5.107195688893908 -4.499999902262333
  endloop
endfacet
facet normal -0.47757596641128164 -0.8785904599449793 -0.0
  outer loop
    vertex 35.48299216736368 5.208180288168099 -4.499999902262333
    vertex 35.66888949137413 5.106254709337299 -0.5000000000000057
    vertex 35.48310940241701 5.2072393086114905 -0.5000000000000057
  endloop
endfacet
facet normal -0.688698903850763 -0.725047460401564 -0.0
  outer loop
    vertex 35.82220253975389 4.960627651617963 -0.5000000000000057
    vertex 35.6687722563208 5.107195688893908 -4.499999902262333
    vertex 35.82208530470056 4.961568631174571 -4.499999902262333
  endloop
endfacet
facet normal -0.688698903850763 -0.725047460401564 -0.0
  outer loop
    vertex 35.6687722563208 5.107195688893908 -4.499999902262333
    vertex 35.82220253975389 4.960627651617963 -0.5000000000000057
    vertex 35.66888949137413 5.106254709337299 -0.5000000000000057
  endloop
endfacet
facet normal -0.0 -1.0 -0.0
  outer loop
    vertex 36.242472354266155 4.960627651617963 -0.5000000000000057
    vertex 35.82208530470056 4.961568631174571 -4.499999902262333
    vertex 36.242355119212824 4.961568631174571 -4.499999902262333
  endloop
endfacet
facet normal -0.0 -1.0 -0.0
  outer loop
    vertex 35.82208530470056 4.961568631174571 -4.499999902262333
    vertex 36.242472354266155 4.960627651617963 -0.5000000000000057
    vertex 35.82220253975389 4.960627651617963 -0.5000000000000057
  endloop
endfacet
facet normal -0.28356006773176673 0.9589544764940389 0.0
  outer loop
    vertex 35.31880440579476 3.651089443421476 -0.5000000000000057
    vertex 35.52146042639464 3.711989888746918 -4.499999902262333
    vertex 35.318687170741434 3.652030422978084 -4.499999902262333
  endloop
endfacet
facet normal -0.28356006773176673 0.9589544764940389 0.0
  outer loop
    vertex 35.52146042639464 3.711989888746918 -4.499999902262333
    vertex 35.31880440579476 3.651089443421476 -0.5000000000000057
    vertex 35.52157766144797 3.711048909190309 -0.5000000000000057
  endloop
endfacet
facet normal -0.5220936746293688 0.8528881491215613 0.0
  outer loop
    vertex 35.52157766144797 3.711048909190309 -0.5000000000000057
    vertex 35.701805699235635 3.8223878656640213 -4.499999902262333
    vertex 35.52146042639464 3.711989888746918 -4.499999902262333
  endloop
endfacet
facet normal -0.5220936746293688 0.8528881491215613 0.0
  outer loop
    vertex 35.701805699235635 3.8223878656640213 -4.499999902262333
    vertex 35.52157766144797 3.711048909190309 -0.5000000000000057
    vertex 35.701922934288966 3.821446886107413 -0.5000000000000057
  endloop
endfacet
facet normal -0.0 -1.0 -0.0
  outer loop
    vertex 36.34247235426616 2.8511770715951488 -0.5000000000000057
    vertex 34.742355119212824 2.8521180511517565 -4.499999902262333
    vertex 36.342355119212826 2.8521180511517565 -4.499999902262333
  endloop
endfacet
facet normal -0.0 -1.0 -0.0
  outer loop
    vertex 34.742355119212824 2.8521180511517565 -4.499999902262333
    vertex 36.34247235426616 2.8511770715951488 -0.5000000000000057
    vertex 34.742472354266155 2.8511770715951488 -0.5000000000000057
  endloop
endfacet
facet normal -0.7250474604015622 0.6886989038507648 0.0
  outer loop
    vertex 35.84754999200831 3.97475993448717 -0.5000000000000057
    vertex 35.701805699235635 3.8223878656640213 -4.499999902262333
    vertex 35.701922934288966 3.821446886107413 -0.5000000000000057
  endloop
endfacet
facet normal -0.7250474604015622 0.6886989038507648 0.0
  outer loop
    vertex 35.701805699235635 3.8223878656640213 -4.499999902262333
    vertex 35.84754999200831 3.97475993448717 -0.5000000000000057
    vertex 35.84743275695498 3.9757009140437782 -4.499999902262333
  endloop
endfacet
facet normal 0.0 0.0 1.0
  outer loop
    vertex 36.34247235426616 2.8511770715951488 -0.5000000000000057
    vertex 34.742472354266155 3.2511770715951487 -0.5000000000000057
    vertex 34.742472354266155 2.8511770715951488 -0.5000000000000057
  endloop
endfacet
facet normal 0.0 0.0 1.0
  outer loop
    vertex 34.742472354266155 3.2511770715951487 -0.5000000000000057
    vertex 36.34247235426616 2.8511770715951488 -0.5000000000000057
    vertex 34.901835306115295 3.6951148345788054 -0.5000000000000057
  endloop
endfacet
facet normal 0.0 0.0 1.0
  outer loop
    vertex 34.901835306115295 3.6951148345788054 -0.5000000000000057
    vertex 36.34247235426616 2.8511770715951488 -0.5000000000000057
    vertex 35.10742182960347 3.6456546273053565 -0.5000000000000057
  endloop
endfacet
facet normal 0.0 0.0 1.0
  outer loop
    vertex 35.10742182960347 3.6456546273053565 -0.5000000000000057
    vertex 36.34247235426616 2.8511770715951488 -0.5000000000000057
    vertex 35.31880440579476 3.651089443421476 -0.5000000000000057
  endloop
endfacet
facet normal 0.0 0.0 1.0
  outer loop
    vertex 35.31880440579476 3.651089443421476 -0.5000000000000057
    vertex 36.34247235426616 2.8511770715951488 -0.5000000000000057
    vertex 35.52157766144797 3.711048909190309 -0.5000000000000057
  endloop
endfacet
facet normal 0.0 0.0 1.0
  outer loop
    vertex 35.52157766144797 3.711048909190309 -0.5000000000000057
    vertex 36.34247235426616 2.8511770715951488 -0.5000000000000057
    vertex 35.701922934288966 3.821446886107413 -0.5000000000000057
  endloop
endfacet
facet normal 0.0 0.0 1.0
  outer loop
    vertex 35.701922934288966 3.821446886107413 -0.5000000000000057
    vertex 36.34247235426616 2.8511770715951488 -0.5000000000000057
    vertex 35.84754999200831 3.97475993448717 -0.5000000000000057
  endloop
endfacet
facet normal 0.0 0.0 1.0
  outer loop
    vertex 35.84754999200831 3.97475993448717 -0.5000000000000057
    vertex 36.34247235426616 2.8511770715951488 -0.5000000000000057
    vertex 36.34247235426616 3.97475993448717 -0.5000000000000057
  endloop
endfacet
facet normal 0.0 0.0 1.0
  outer loop
    vertex 34.742472354266155 3.2511770715951487 -0.5000000000000057
    vertex 33.89247235426616 4.701297625220356 -0.5000000000000057
    vertex 33.89247235426616 3.6511770715951486 -0.5000000000000057
  endloop
endfacet
facet normal 0.0 0.0 1.0
  outer loop
    vertex 33.89247235426616 4.701297625220356 -0.5000000000000057
    vertex 34.742472354266155 3.2511770715951487 -0.5000000000000057
    vertex 34.452344191861314 4.1220717644133344 -0.5000000000000057
  endloop
endfacet
facet normal 0.0 0.0 1.0
  outer loop
    vertex 33.89247235426616 4.701297625220356 -0.5000000000000057
    vertex 34.452344191861314 4.1220717644133344 -0.5000000000000057
    vertex 34.39238472609248 4.324845020066541 -0.5000000000000057
  endloop
endfacet
facet normal 0.0 0.0 1.0
  outer loop
    vertex 33.89247235426616 4.701297625220356 -0.5000000000000057
    vertex 34.39238472609248 4.324845020066541 -0.5000000000000057
    vertex 33.906533658016755 6.651177071595148 -0.5000000000000057
  endloop
endfacet
facet normal 0.0 0.0 1.0
  outer loop
    vertex 33.906533658016755 6.651177071595148 -0.5000000000000057
    vertex 34.39238472609248 4.324845020066541 -0.5000000000000057
    vertex 34.38694990997636 4.536227596257835 -0.5000000000000057
  endloop
endfacet
facet normal 0.0 0.0 1.0
  outer loop
    vertex 34.452344191861314 4.1220717644133344 -0.5000000000000057
    vertex 34.742472354266155 3.2511770715951487 -0.5000000000000057
    vertex 34.56274216877842 3.941726491572333 -0.5000000000000057
  endloop
endfacet
facet normal 0.0 0.0 1.0
  outer loop
    vertex 34.56274216877842 3.941726491572333 -0.5000000000000057
    vertex 34.742472354266155 3.2511770715951487 -0.5000000000000057
    vertex 34.71605521715818 3.7960994338529965 -0.5000000000000057
  endloop
endfacet
facet normal 0.0 0.0 1.0
  outer loop
    vertex 34.71605521715818 3.7960994338529965 -0.5000000000000057
    vertex 34.742472354266155 3.2511770715951487 -0.5000000000000057
    vertex 34.901835306115295 3.6951148345788054 -0.5000000000000057
  endloop
endfacet
facet normal 0.0 0.0 1.0
  outer loop
    vertex 34.38694990997636 4.536227596257835 -0.5000000000000057
    vertex 34.70653365801676 6.651177071595148 -0.5000000000000057
    vertex 33.906533658016755 6.651177071595148 -0.5000000000000057
  endloop
endfacet
facet normal 0.0 0.0 1.0
  outer loop
    vertex 34.70653365801676 6.651177071595148 -0.5000000000000057
    vertex 34.38694990997636 4.536227596257835 -0.5000000000000057
    vertex 34.436410117249814 4.741814119746006 -0.5000000000000057
  endloop
endfacet
facet normal 0.0 0.0 1.0
  outer loop
    vertex 34.70653365801676 6.651177071595148 -0.5000000000000057
    vertex 34.436410117249814 4.741814119746006 -0.5000000000000057
    vertex 34.537394716524005 4.927594208703126 -0.5000000000000057
  endloop
endfacet
facet normal 0.0 0.0 1.0
  outer loop
    vertex 34.70653365801676 6.651177071595148 -0.5000000000000057
    vertex 34.537394716524005 4.927594208703126 -0.5000000000000057
    vertex 34.683021774243336 5.080907257082883 -0.5000000000000057
  endloop
endfacet
facet normal 0.0 0.0 1.0
  outer loop
    vertex 34.70653365801676 6.651177071595148 -0.5000000000000057
    vertex 34.683021774243336 5.080907257082883 -0.5000000000000057
    vertex 34.863367047084346 5.191305233999986 -0.5000000000000057
  endloop
endfacet
facet normal 0.0 0.0 1.0
  outer loop
    vertex 34.70653365801676 6.651177071595148 -0.5000000000000057
    vertex 34.863367047084346 5.191305233999986 -0.5000000000000057
    vertex 35.893004541581085 5.981542947029187 -0.5000000000000057
  endloop
endfacet
facet normal 0.0 0.0 1.0
  outer loop
    vertex 35.893004541581085 5.981542947029187 -0.5000000000000057
    vertex 34.863367047084346 5.191305233999986 -0.5000000000000057
    vertex 35.066140302737544 5.251264699768821 -0.5000000000000057
  endloop
endfacet
facet normal 0.0 0.0 1.0
  outer loop
    vertex 35.893004541581085 5.981542947029187 -0.5000000000000057
    vertex 35.066140302737544 5.251264699768821 -0.5000000000000057
    vertex 35.27752287892884 5.2566995158849394 -0.5000000000000057
  endloop
endfacet
facet normal 0.0 0.0 1.0
  outer loop
    vertex 35.893004541581085 5.981542947029187 -0.5000000000000057
    vertex 35.27752287892884 5.2566995158849394 -0.5000000000000057
    vertex 35.48310940241701 5.2072393086114905 -0.5000000000000057
  endloop
endfacet
facet normal 0.0 0.0 1.0
  outer loop
    vertex 35.893004541581085 5.981542947029187 -0.5000000000000057
    vertex 35.48310940241701 5.2072393086114905 -0.5000000000000057
    vertex 35.66888949137413 5.106254709337299 -0.5000000000000057
  endloop
endfacet
facet normal 0.0 0.0 1.0
  outer loop
    vertex 35.893004541581085 5.981542947029187 -0.5000000000000057
    vertex 35.66888949137413 5.106254709337299 -0.5000000000000057
    vertex 35.82220253975389 4.960627651617963 -0.5000000000000057
  endloop
endfacet
facet normal 0.0 0.0 1.0
  outer loop
    vertex 35.893004541581085 5.981542947029187 -0.5000000000000057
    vertex 35.82220253975389 4.960627651617963 -0.5000000000000057
    vertex 36.242472354266155 4.960627651617963 -0.5000000000000057
  endloop
endfacet
facet normal 0.0 0.0 1.0
  outer loop
    vertex 35.893004541581085 5.981542947029187 -0.5000000000000057
    vertex 36.242472354266155 4.960627651617963 -0.5000000000000057
    vertex 36.242472354266155 5.507199761070792 -0.5000000000000057
  endloop
endfacet
facet normal -1.9617807208887022e-08 -4.072403013884632e-08 -0.9999999999999991
  outer loop
    vertex 21.242472354266155 4.451177071595148 -4.500000000000005
    vertex 20.242472354266155 2.851177071595148 -4.500000000000005
    vertex 20.242472354266155 4.451177071595148 -4.500000000000005
  endloop
endfacet
facet normal -1.9617807208887022e-08 -4.072403013884632e-08 -0.9999999999999991
  outer loop
    vertex 20.242472354266155 2.851177071595148 -4.500000000000005
    vertex 21.242472354266155 4.451177071595148 -4.500000000000005
    vertex 21.242472354266155 2.851177071595148 -4.499999902262333
  endloop
endfacet
facet normal -1.9617807208887022e-08 -4.072403013884632e-08 -0.9999999999999991
  outer loop
    vertex 21.242472354266155 2.851177071595148 -4.499999902262333
    vertex 21.242472354266155 4.451177071595148 -4.500000000000005
    vertex 22.592472354266157 4.451177071595148 -4.500000000000005
  endloop
endfacet
facet normal -1.9617807208887022e-08 -4.072403013884632e-08 -0.9999999999999991
  outer loop
    vertex 21.242472354266155 2.851177071595148 -4.499999902262333
    vertex 22.592472354266157 4.451177071595148 -4.500000000000005
    vertex 22.592472354266157 2.851177071595148 -4.499999902262333
  endloop
endfacet
facet normal 1.0 0.0 0.0
  outer loop
    vertex 22.592472354266157 4.451177071595148 -4.500000000000005
    vertex 22.592472354266157 2.851177071595148 3.0999999999999943
    vertex 22.592472354266157 2.851177071595148 -4.499999902262333
  endloop
endfacet
facet normal 1.0 0.0 0.0
  outer loop
    vertex 22.592472354266157 2.851177071595148 3.0999999999999943
    vertex 22.592472354266157 4.451177071595148 -4.500000000000005
    vertex 22.592472354266157 4.451177071595148 3.0999999999999943
  endloop
endfacet
facet normal 0.0 0.0 1.0
  outer loop
    vertex 22.592472354266157 2.851177071595148 3.0999999999999943
    vertex 21.242472354266155 4.451177071595148 3.0999999999999943
    vertex 21.242472354266155 2.851177071595148 3.0999999999999943
  endloop
endfacet
facet normal 0.0 0.0 1.0
  outer loop
    vertex 21.242472354266155 4.451177071595148 3.0999999999999943
    vertex 22.592472354266157 2.851177071595148 3.0999999999999943
    vertex 22.592472354266157 4.451177071595148 3.0999999999999943
  endloop
endfacet
facet normal 0.0 0.0 1.0
  outer loop
    vertex 21.242472354266155 2.851177071595148 3.0999999999999943
    vertex 20.242472354266155 4.451177071595148 3.0999999999999943
    vertex 20.242472354266155 2.851177071595148 3.0999999999999943
  endloop
endfacet
facet normal 0.0 0.0 1.0
  outer loop
    vertex 20.242472354266155 4.451177071595148 3.0999999999999943
    vertex 21.242472354266155 2.851177071595148 3.0999999999999943
    vertex 21.242472354266155 4.451177071595148 3.0999999999999943
  endloop
endfacet
facet normal -1.0 0.0 0.0
  outer loop
    vertex 19.842472354266157 4.051177071595148 3.0999999999999934
    vertex 19.842472354266157 3.2511770715951482 -4.500000000000005
    vertex 19.842472354266157 3.2511770715951482 3.0999999999999934
  endloop
endfacet
facet normal -1.0 0.0 0.0
  outer loop
    vertex 19.842472354266157 3.2511770715951482 -4.500000000000005
    vertex 19.842472354266157 4.051177071595148 3.0999999999999934
    vertex 19.842472354266157 4.051177071595148 -4.500000000000005
  endloop
endfacet
facet normal -1.7624790515924396e-15 6.067055483010633e-34 1.0
  outer loop
    vertex 20.242472354266155 2.851177071595148 3.0999999999999943
    vertex 19.842472354266157 4.051177071595148 3.0999999999999934
    vertex 19.842472354266157 3.2511770715951482 3.0999999999999934
  endloop
endfacet
facet normal -1.7624790515924396e-15 6.067055483010633e-34 1.0
  outer loop
    vertex 19.842472354266157 4.051177071595148 3.0999999999999934
    vertex 20.242472354266155 2.851177071595148 3.0999999999999943
    vertex 20.242472354266155 4.451177071595148 3.0999999999999943
  endloop
endfacet
facet normal -3.1026255747752907e-16 -2.907780610735944e-16 1.0
  outer loop
    vertex 22.52201780881161 4.951177071595149 3.0999999999999943
    vertex 21.703900925694725 6.651177071595148 3.0999999999999943
    vertex 21.242472354266155 4.951177071595149 3.0999999999999943
  endloop
endfacet
facet normal -3.1026255747752907e-16 -2.907780610735944e-16 1.0
  outer loop
    vertex 21.703900925694725 6.651177071595148 3.0999999999999943
    vertex 22.52201780881161 4.951177071595149 3.0999999999999943
    vertex 22.282472354266154 6.651177071595148 3.099999999999995
  endloop
endfacet
facet normal 0.0 0.0 1.0
  outer loop
    vertex 22.592472354266157 4.451177071595148 3.0999999999999943
    vertex 21.242472354266155 4.951177071595149 3.0999999999999943
    vertex 21.242472354266155 4.451177071595148 3.0999999999999943
  endloop
endfacet
facet normal 0.0 0.0 1.0
  outer loop
    vertex 21.242472354266155 4.951177071595149 3.0999999999999943
    vertex 22.592472354266157 4.451177071595148 3.0999999999999943
    vertex 22.52201780881161 4.951177071595149 3.0999999999999943
  endloop
endfacet
endsolid Keyboard_Guide
