solid Keyboard_Guide
facet normal 0.4257970363298802 0.9048187022009938 0.0
  outer loop
    vertex 54.8961608660741 -0.9325221785260597 0.30000000000000043
    vertex 55.746160866074085 -1.3325221785260597 -4.499999999999999
    vertex 54.8961608660741 -0.9325221785260597 -4.499999999999999
  endloop
endfacet
facet normal 0.4257970363298802 0.9048187022009938 0.0
  outer loop
    vertex 55.746160866074085 -1.3325221785260597 -4.499999999999999
    vertex 54.8961608660741 -0.9325221785260597 0.30000000000000043
    vertex 55.746160866074085 -1.3325221785260597 0.30000000000000043
  endloop
endfacet
facet normal 0.0 0.0 -1.0
  outer loop
    vertex 54.8961608660741 0.11759837509914733 -4.499999999999999
    vertex 52.79616086607409 -1.7325221785260607 -4.499999999999999
    vertex 52.79616086607409 0.11759837509914733 -4.499999999999999
  endloop
endfacet
facet normal 0.0 0.0 -1.0
  outer loop
    vertex 52.79616086607409 -1.7325221785260607 -4.499999999999999
    vertex 54.8961608660741 0.11759837509914733 -4.499999999999999
    vertex 54.8961608660741 -0.9325221785260597 -4.499999999999999
  endloop
endfacet
facet normal 0.0 0.0 -1.0
  outer loop
    vertex 52.79616086607409 -1.7325221785260607 -4.499999999999999
    vertex 54.8961608660741 -0.9325221785260597 -4.499999999999999
    vertex 55.746160866074085 -1.7325221785260596 -4.499999999999999
  endloop
endfacet
facet normal 0.0 0.0 -1.0
  outer loop
    vertex 55.746160866074085 -1.7325221785260596 -4.499999999999999
    vertex 54.8961608660741 -0.9325221785260597 -4.499999999999999
    vertex 55.746160866074085 -1.3325221785260597 -4.499999999999999
  endloop
endfacet
facet normal 0.0 -1.0 0.0
  outer loop
    vertex 42.246160866074085 -1.7325221785260607 4.299999902262328
    vertex 41.246160866074085 -1.7325221785260607 -3.2999999999999994
    vertex 42.246160866074085 -1.7325221785260607 -3.2999999999999994
  endloop
endfacet
facet normal 0.0 -1.0 0.0
  outer loop
    vertex 41.246160866074085 -1.7325221785260607 -3.2999999999999994
    vertex 42.246160866074085 -1.7325221785260607 4.299999902262328
    vertex 41.246160866074085 -1.7325221785260607 4.3
  endloop
endfacet
facet normal 1.0 0.0 0.0
  outer loop
    vertex 54.8961608660741 0.11759837509914733 -4.499999999999999
    vertex 54.8961608660741 -0.9325221785260597 0.30000000000000043
    vertex 54.8961608660741 -0.9325221785260597 -4.499999999999999
  endloop
endfacet
facet normal 1.0 0.0 0.0
  outer loop
    vertex 54.8961608660741 -0.9325221785260597 0.30000000000000043
    vertex 54.8961608660741 0.11759837509914733 -4.499999999999999
    vertex 54.8961608660741 0.11759837509914733 0.30000000000000043
  endloop
endfacet
facet normal 1.0 0.0 0.0
  outer loop
    vertex 55.746160866074085 -1.3325221785260597 -4.499999999999999
    vertex 55.746160866074085 -1.7325221785260596 -3.2999999999999994
    vertex 55.746160866074085 -1.7325221785260596 -4.499999999999999
  endloop
endfacet
facet normal 1.0 0.0 0.0
  outer loop
    vertex 55.746160866074085 -1.7325221785260596 -3.2999999999999994
    vertex 55.746160866074085 -1.3325221785260597 -4.499999999999999
    vertex 55.746160866074085 -1.7325221785260596 0.30000000000000043
  endloop
endfacet
facet normal 1.0 0.0 0.0
  outer loop
    vertex 55.746160866074085 -1.7325221785260596 0.30000000000000043
    vertex 55.746160866074085 -1.3325221785260597 -4.499999999999999
    vertex 55.746160866074085 -1.3325221785260597 0.30000000000000043
  endloop
endfacet
facet normal 4.499946514704095e-16 -1.0 0.0
  outer loop
    vertex 55.746160866074085 -1.7325221785260596 -3.2999999999999994
    vertex 52.79616086607409 -1.7325221785260607 -4.499999999999999
    vertex 55.746160866074085 -1.7325221785260596 -4.499999999999999
  endloop
endfacet
facet normal 4.499946514704095e-16 -1.0 0.0
  outer loop
    vertex 52.79616086607409 -1.7325221785260607 -4.499999999999999
    vertex 55.746160866074085 -1.7325221785260596 -3.2999999999999994
    vertex 52.79616086607409 -1.7325221785260607 -3.2999999999999994
  endloop
endfacet
facet normal 0.0 1.0 0.0
  outer loop
    vertex 41.246160866074085 -0.13252217852606046 4.3
    vertex 42.246160866074085 -0.13252217852606046 -3.2999999999999994
    vertex 41.246160866074085 -0.13252217852606046 -3.2999999999999994
  endloop
endfacet
facet normal 0.0 1.0 0.0
  outer loop
    vertex 42.246160866074085 -0.13252217852606046 -3.2999999999999994
    vertex 41.246160866074085 -0.13252217852606046 4.3
    vertex 42.246160866074085 -0.13252217852606046 4.3
  endloop
endfacet
facet normal -1.0 0.0 0.0
  outer loop
    vertex 42.246160866074085 0.36747782147394076 4.3
    vertex 42.246160866074085 -0.13252217852606046 -3.2999999999999994
    vertex 42.246160866074085 -0.13252217852606046 4.3
  endloop
endfacet
facet normal -1.0 0.0 0.0
  outer loop
    vertex 42.246160866074085 -0.13252217852606046 -3.2999999999999994
    vertex 42.246160866074085 0.36747782147394076 4.3
    vertex 42.246160866074085 0.36747782147394076 -3.2999999999999994
  endloop
endfacet
facet normal -0.9650812745905352 0.261950631674574 0.0
  outer loop
    vertex 42.707589437502655 2.0674778214739398 4.3
    vertex 42.246160866074085 0.36747782147394076 -3.2999999999999994
    vertex 42.246160866074085 0.36747782147394076 4.3
  endloop
endfacet
facet normal -0.9650812745905352 0.261950631674574 0.0
  outer loop
    vertex 42.246160866074085 0.36747782147394076 -3.2999999999999994
    vertex 42.707589437502655 2.0674778214739398 4.3
    vertex 42.707589437502655 2.0674778214739398 -3.2999999999999994
  endloop
endfacet
facet normal 9.896343751419579e-17 0.5241209276339436 -0.8516438535069307
  outer loop
    vertex 54.11022216982469 2.0674778214739398 -3.2999999999999994
    vertex 54.8961608660741 0.11759837509914733 -4.499999999999999
    vertex 52.79616086607409 0.11759837509914733 -4.499999999999999
  endloop
endfacet
facet normal 9.896343751419579e-17 0.5241209276339436 -0.8516438535069307
  outer loop
    vertex 54.8961608660741 0.11759837509914733 -4.499999999999999
    vertex 54.11022216982469 2.0674778214739398 -3.2999999999999994
    vertex 54.910222169824685 2.0674778214739398 -3.2999999999999994
  endloop
endfacet
facet normal 0.9999739990795238 -0.007211183322076261 1.5092359722157203e-18
  outer loop
    vertex 54.910222169824685 2.0674778214739398 -3.2999999999999994
    vertex 54.8961608660741 0.11759837509914733 0.30000000000000043
    vertex 54.8961608660741 0.11759837509914733 -4.499999999999999
  endloop
endfacet
facet normal 0.9999739990795238 -0.007211183322076261 1.5092359722157203e-18
  outer loop
    vertex 54.8961608660741 0.11759837509914733 0.30000000000000043
    vertex 54.910222169824685 2.0674778214739398 -3.2999999999999994
    vertex 54.910222169824685 2.0674778214739398 0.30000000000000043
  endloop
endfacet
facet normal 0.0 1.0 0.0
  outer loop
    vertex 54.11010493477135 2.0684188010305475 4.299999902262328
    vertex 54.910222169824685 2.0674778214739398 -3.2999999999999994
    vertex 54.11022216982469 2.0674778214739398 -3.2999999999999994
  endloop
endfacet
facet normal 0.0 1.0 0.0
  outer loop
    vertex 54.910222169824685 2.0674778214739398 -3.2999999999999994
    vertex 54.11010493477135 2.0684188010305475 4.299999902262328
    vertex 54.910222169824685 2.0674778214739398 0.30000000000000043
  endloop
endfacet
facet normal 0.0 1.0 0.0
  outer loop
    vertex 54.910222169824685 2.0674778214739398 0.30000000000000043
    vertex 54.11010493477135 2.0684188010305475 4.299999902262328
    vertex 55.71022216982468 2.0674778214739398 0.30000000000000043
  endloop
endfacet
facet normal 0.0 1.0 0.0
  outer loop
    vertex 55.71022216982468 2.0674778214739398 0.30000000000000043
    vertex 54.11010493477135 2.0684188010305475 4.299999902262328
    vertex 55.71010493477136 2.0684188010305475 4.293972902262328
  endloop
endfacet
facet normal 1.0 0.0 0.0
  outer loop
    vertex 55.746160866074085 -1.7325221785260596 -3.2999999999999994
    vertex 55.74604363102076 -2.9815811989694514 4.299999902262328
    vertex 55.746160866074085 -2.9825221785260596 -3.2999999999999994
  endloop
endfacet
facet normal 1.0 0.0 0.0
  outer loop
    vertex 55.74604363102076 -2.9815811989694514 4.299999902262328
    vertex 55.746160866074085 -1.7325221785260596 -3.2999999999999994
    vertex 55.746160866074085 -1.7325221785260596 0.30000000000000043
  endloop
endfacet
facet normal 1.0 0.0 0.0
  outer loop
    vertex 55.74604363102076 -2.9815811989694514 4.299999902262328
    vertex 55.746160866074085 -1.7325221785260596 0.30000000000000043
    vertex 55.74604363102076 -1.7315811989694516 4.299999902262328
  endloop
endfacet
facet normal 0.0 1.0 0.0
  outer loop
    vertex 55.74604363102076 -2.9815811989694514 4.299999902262328
    vertex 56.54616086607408 -2.9825221785260596 -3.2999999999999994
    vertex 55.746160866074085 -2.9825221785260596 -3.2999999999999994
  endloop
endfacet
facet normal 0.0 1.0 0.0
  outer loop
    vertex 56.54616086607408 -2.9825221785260596 -3.2999999999999994
    vertex 55.74604363102076 -2.9815811989694514 4.299999902262328
    vertex 56.54604363102076 -2.9815811989694514 4.299999902262328
  endloop
endfacet
facet normal 0.8998141071961993 -0.43627350651937014 0.0
  outer loop
    vertex 56.54616086607408 -2.9825221785260596 -3.2999999999999994
    vertex 55.74604363102076 -4.631581198969451 4.299999902262328
    vertex 55.746160866074085 -4.6325221785260595 -3.2999999999999994
  endloop
endfacet
facet normal 0.8998141071961993 -0.43627350651937014 0.0
  outer loop
    vertex 55.74604363102076 -4.631581198969451 4.299999902262328
    vertex 56.54616086607408 -2.9825221785260596 -3.2999999999999994
    vertex 56.54604363102076 -2.9815811989694514 4.299999902262328
  endloop
endfacet
facet normal -0.8320502930404381 -0.55470019536029 5.584422221779309e-05
  outer loop
    vertex 42.246074480630874 -4.631828822400256 1.4999999178299626
    vertex 41.14616086607409 -2.982522178526061 -3.2999999999999994
    vertex 42.246160866074085 -4.6325221785260595 -3.2999999999999994
  endloop
endfacet
facet normal -0.8320502930404381 -0.55470019536029 5.584422221779309e-05
  outer loop
    vertex 41.14616086607409 -2.982522178526061 -3.2999999999999994
    vertex 42.246074480630874 -4.631828822400256 1.4999999178299626
    vertex 42.24604363102075 -4.631581198969451 4.299999902262328
  endloop
endfacet
facet normal -0.8320502930404381 -0.55470019536029 5.584422221779309e-05
  outer loop
    vertex 41.14616086607409 -2.982522178526061 -3.2999999999999994
    vertex 42.24604363102075 -4.631581198969451 4.299999902262328
    vertex 41.14604363102075 -2.9815811989694527 4.299999902262328
  endloop
endfacet
facet normal 0.0 1.0 0.0
  outer loop
    vertex 41.14604363102075 -2.9815811989694527 4.299999902262328
    vertex 42.246160866074085 -2.982522178526061 -3.2999999999999994
    vertex 41.14616086607409 -2.982522178526061 -3.2999999999999994
  endloop
endfacet
facet normal 0.0 1.0 0.0
  outer loop
    vertex 42.246160866074085 -2.982522178526061 -3.2999999999999994
    vertex 41.14604363102075 -2.9815811989694527 4.299999902262328
    vertex 42.246043631020754 -2.9815811989694527 4.299999902262328
  endloop
endfacet
facet normal -0.9999999988707098 4.6894007982893496e-05 -7.71573559282189e-06
  outer loop
    vertex 42.246043631020754 -2.9815811989694527 4.299999902262328
    vertex 42.246160866074085 -1.7325221785260607 -3.2999999999999994
    vertex 42.246160866074085 -2.982522178526061 -3.2999999999999994
  endloop
endfacet
facet normal -0.9999999988707098 4.6894007982893496e-05 -7.71573559282189e-06
  outer loop
    vertex 42.246160866074085 -1.7325221785260607 -3.2999999999999994
    vertex 42.246043631020754 -2.9815811989694527 4.299999902262328
    vertex 42.246160866074085 -1.7325221785260607 4.299999902262328
  endloop
endfacet
facet normal 0.0 0.0 -1.0
  outer loop
    vertex 55.746160866074085 -1.7325221785260596 -3.2999999999999994
    vertex 52.79616086607409 -5.4417181785260595 -3.2999999999999994
    vertex 52.79616086607409 -1.7325221785260607 -3.2999999999999994
  endloop
endfacet
facet normal 0.0 0.0 -1.0
  outer loop
    vertex 56.54616086607408 -2.9825221785260596 -3.2999999999999994
    vertex 55.746160866074085 -4.6325221785260595 -3.2999999999999994
    vertex 55.746160866074085 -2.9825221785260596 -3.2999999999999994
  endloop
endfacet
facet normal 0.0 0.0 -1.0
  outer loop
    vertex 43.59616086607409 -1.7325221785260607 -3.2999999999999994
    vertex 42.246160866074085 -2.982522178526061 -3.2999999999999994
    vertex 42.246160866074085 -1.7325221785260607 -3.2999999999999994
  endloop
endfacet
facet normal 0.0 0.0 -1.0
  outer loop
    vertex 42.246160866074085 -2.982522178526061 -3.2999999999999994
    vertex 43.59616086607409 -1.7325221785260607 -3.2999999999999994
    vertex 42.246160866074085 -4.6325221785260595 -3.2999999999999994
  endloop
endfacet
facet normal 0.0 0.0 -1.0
  outer loop
    vertex 42.246160866074085 -4.6325221785260595 -3.2999999999999994
    vertex 43.59616086607409 -1.7325221785260607 -3.2999999999999994
    vertex 42.246160866074085 -6.53252217852606 -3.2999999999999994
  endloop
endfacet
facet normal 0.0 0.0 -1.0
  outer loop
    vertex 42.246160866074085 -6.53252217852606 -3.2999999999999994
    vertex 43.59616086607409 -1.7325221785260607 -3.2999999999999994
    vertex 43.59616086607409 -5.4417181785260595 -3.2999999999999994
  endloop
endfacet
facet normal 0.0 0.0 -1.0
  outer loop
    vertex 42.246160866074085 -6.53252217852606 -3.2999999999999994
    vertex 43.59616086607409 -5.4417181785260595 -3.2999999999999994
    vertex 55.746160866074085 -6.53252217852606 -3.2999999999999994
  endloop
endfacet
facet normal 0.0 0.0 -1.0
  outer loop
    vertex 55.746160866074085 -6.53252217852606 -3.2999999999999994
    vertex 43.59616086607409 -5.4417181785260595 -3.2999999999999994
    vertex 52.79616086607409 -5.4417181785260595 -3.2999999999999994
  endloop
endfacet
facet normal 0.0 0.0 -1.0
  outer loop
    vertex 55.746160866074085 -6.53252217852606 -3.2999999999999994
    vertex 52.79616086607409 -5.4417181785260595 -3.2999999999999994
    vertex 55.746160866074085 -1.7325221785260596 -3.2999999999999994
  endloop
endfacet
facet normal 0.0 0.0 -1.0
  outer loop
    vertex 55.746160866074085 -6.53252217852606 -3.2999999999999994
    vertex 55.746160866074085 -1.7325221785260596 -3.2999999999999994
    vertex 55.746160866074085 -2.9825221785260596 -3.2999999999999994
  endloop
endfacet
facet normal 0.0 0.0 -1.0
  outer loop
    vertex 55.746160866074085 -6.53252217852606 -3.2999999999999994
    vertex 55.746160866074085 -2.9825221785260596 -3.2999999999999994
    vertex 55.746160866074085 -4.6325221785260595 -3.2999999999999994
  endloop
endfacet
facet normal 0.0 0.0 -1.0
  outer loop
    vertex 42.246160866074085 -4.6325221785260595 -3.2999999999999994
    vertex 41.14616086607409 -2.982522178526061 -3.2999999999999994
    vertex 42.246160866074085 -2.982522178526061 -3.2999999999999994
  endloop
endfacet
facet normal 0.0 0.0 1.0
  outer loop
    vertex 41.246160866074085 -1.7325221785260607 4.3
    vertex 40.84616086607409 -0.5325221785260604 4.3
    vertex 40.84616086607409 -1.3325221785260604 4.3
  endloop
endfacet
facet normal 0.0 0.0 1.0
  outer loop
    vertex 40.84616086607409 -0.5325221785260604 4.3
    vertex 41.246160866074085 -1.7325221785260607 4.3
    vertex 41.246160866074085 -0.13252217852606046 4.3
  endloop
endfacet
facet normal -0.7071067811865481 0.7071067811865469 0.0
  outer loop
    vertex 41.246160866074085 -0.13252217852606046 4.3
    vertex 40.84616086607409 -0.5325221785260604 -3.299999999999999
    vertex 40.84616086607409 -0.5325221785260604 4.3
  endloop
endfacet
facet normal -0.7071067811865481 0.7071067811865469 0.0
  outer loop
    vertex 40.84616086607409 -0.5325221785260604 -3.299999999999999
    vertex 41.246160866074085 -0.13252217852606046 4.3
    vertex 41.246160866074085 -0.13252217852606046 -3.2999999999999994
  endloop
endfacet
facet normal -0.7071067811865485 -0.7071067811865467 -2.9949062679836904e-33
  outer loop
    vertex 40.84616086607409 -1.3325221785260604 4.3
    vertex 41.246160866074085 -1.7325221785260607 -3.2999999999999994
    vertex 41.246160866074085 -1.7325221785260607 4.3
  endloop
endfacet
facet normal -0.7071067811865485 -0.7071067811865467 -2.9949062679836904e-33
  outer loop
    vertex 41.246160866074085 -1.7325221785260607 -3.2999999999999994
    vertex 40.84616086607409 -1.3325221785260604 4.3
    vertex 40.84616086607409 -1.3325221785260604 -3.299999999999999
  endloop
endfacet
facet normal -1.0 0.0 0.0
  outer loop
    vertex 52.796043631020765 -5.440777198969451 4.299999902262328
    vertex 52.79616086607409 -1.7325221785260607 -3.2999999999999994
    vertex 52.79616086607409 -5.4417181785260595 -3.2999999999999994
  endloop
endfacet
facet normal -1.0 0.0 0.0
  outer loop
    vertex 52.79616086607409 -1.7325221785260607 -3.2999999999999994
    vertex 52.796043631020765 -5.440777198969451 4.299999902262328
    vertex 52.796043631020765 0.11853935465575567 4.299999902262328
  endloop
endfacet
facet normal -1.0 0.0 0.0
  outer loop
    vertex 52.79616086607409 -1.7325221785260607 -3.2999999999999994
    vertex 52.796043631020765 0.11853935465575567 4.299999902262328
    vertex 52.79616086607409 -1.7325221785260607 -4.499999999999999
  endloop
endfacet
facet normal -1.0 0.0 0.0
  outer loop
    vertex 52.79616086607409 -1.7325221785260607 -4.499999999999999
    vertex 52.796043631020765 0.11853935465575567 4.299999902262328
    vertex 52.79616086607409 0.11759837509914733 -4.499999999999999
  endloop
endfacet
facet normal -0.8292640404339697 0.5588570042892255 -1.8493878306269063e-17
  outer loop
    vertex 52.796043631020765 0.11853935465575567 4.299999902262328
    vertex 54.11022216982469 2.0674778214739398 -3.2999999999999994
    vertex 52.79616086607409 0.11759837509914733 -4.499999999999999
  endloop
endfacet
facet normal -0.8292640404339697 0.5588570042892255 -1.8493878306269063e-17
  outer loop
    vertex 54.11022216982469 2.0674778214739398 -3.2999999999999994
    vertex 52.796043631020765 0.11853935465575567 4.299999902262328
    vertex 54.11010493477135 2.0684188010305475 4.299999902262328
  endloop
endfacet
facet normal 0.0 0.0 1.0
  outer loop
    vertex 43.59616086607409 -0.13252217852606046 4.3
    vertex 42.246160866074085 0.36747782147394076 4.3
    vertex 42.246160866074085 -0.13252217852606046 4.3
  endloop
endfacet
facet normal 0.0 0.0 1.0
  outer loop
    vertex 42.246160866074085 0.36747782147394076 4.3
    vertex 43.59616086607409 -0.13252217852606046 4.3
    vertex 42.707589437502655 2.0674778214739398 4.3
  endloop
endfacet
facet normal 0.0 0.0 1.0
  outer loop
    vertex 42.707589437502655 2.0674778214739398 4.3
    vertex 43.59616086607409 -0.13252217852606046 4.3
    vertex 43.28616086607409 2.0674778214739398 4.3
  endloop
endfacet
facet normal 0.0 1.0 0.0
  outer loop
    vertex 42.707589437502655 2.0674778214739398 -3.2999999999999994
    vertex 43.28616086607409 2.0674778214739398 4.3
    vertex 43.28616086607409 2.0674778214739398 -3.300000000000001
  endloop
endfacet
facet normal 0.0 1.0 0.0
  outer loop
    vertex 43.28616086607409 2.0674778214739398 4.3
    vertex 42.707589437502655 2.0674778214739398 -3.2999999999999994
    vertex 42.707589437502655 2.0674778214739398 4.3
  endloop
endfacet
facet normal 0.9902177480686674 0.13953068268240362 -1.0465495030883073e-18
  outer loop
    vertex 43.52570632061954 0.36747782147394076 -3.2999999999999994
    vertex 43.59616086607409 -0.13252217852606046 4.3
    vertex 43.59616086607409 -0.13252217852606046 -3.2999999999999994
  endloop
endfacet
facet normal 0.9902177480686674 0.13953068268240362 -1.0465495030883073e-18
  outer loop
    vertex 43.59616086607409 -0.13252217852606046 4.3
    vertex 43.52570632061954 0.36747782147394076 -3.2999999999999994
    vertex 43.28616086607409 2.0674778214739398 4.3
  endloop
endfacet
facet normal 0.9902177480686674 0.13953068268240362 -1.0465495030883073e-18
  outer loop
    vertex 43.28616086607409 2.0674778214739398 4.3
    vertex 43.52570632061954 0.36747782147394076 -3.2999999999999994
    vertex 43.28616086607409 2.0674778214739398 -3.300000000000001
  endloop
endfacet
facet normal -3.0106862786483375e-06 -0.9999999917452337 0.0001284541501638486
  outer loop
    vertex 55.74604363102076 -6.531581198969451 4.299999902262328
    vertex 42.246160866074085 -6.53252217852606 -3.2999999999999994
    vertex 55.746160866074085 -6.53252217852606 -3.2999999999999994
  endloop
endfacet
facet normal -3.0106862786483375e-06 -0.9999999917452337 0.0001284541501638486
  outer loop
    vertex 42.246160866074085 -6.53252217852606 -3.2999999999999994
    vertex 55.74604363102076 -6.531581198969451 4.299999902262328
    vertex 45.24604362930091 -6.53158119619989 1.4999999022623278
  endloop
endfacet
facet normal -3.0106862786483375e-06 -0.9999999917452337 0.0001284541501638486
  outer loop
    vertex 45.24604362930091 -6.53158119619989 1.4999999022623278
    vertex 55.74604363102076 -6.531581198969451 4.299999902262328
    vertex 45.24604363102075 -6.531581198969451 4.299999902262328
  endloop
endfacet
facet normal -3.0106862786483375e-06 -0.9999999917452337 0.0001284541501638486
  outer loop
    vertex 42.246160866074085 -6.53252217852606 -3.2999999999999994
    vertex 43.59604362930091 -6.53158119619989 1.49999990428929
    vertex 42.246074480630895 -6.531828822400254 1.4999999178299626
  endloop
endfacet
facet normal -3.0106862786483375e-06 -0.9999999917452337 0.0001284541501638486
  outer loop
    vertex 43.59604362930091 -6.53158119619989 1.49999990428929
    vertex 42.246160866074085 -6.53252217852606 -3.2999999999999994
    vertex 45.24604362930091 -6.53158119619989 1.4999999022623278
  endloop
endfacet
facet normal -0.9999999998810245 -4.452576707128644e-15 -1.5425665109157154e-05
  outer loop
    vertex 42.246074480630895 -6.531828822400254 1.4999999178299626
    vertex 42.246160866074085 -4.6325221785260595 -3.2999999999999994
    vertex 42.246160866074085 -6.53252217852606 -3.2999999999999994
  endloop
endfacet
facet normal -0.9999999998810245 -4.452576707128644e-15 -1.5425665109157154e-05
  outer loop
    vertex 42.246160866074085 -4.6325221785260595 -3.2999999999999994
    vertex 42.246074480630895 -6.531828822400254 1.4999999178299626
    vertex 42.24622159715176 -5.433872808907686 1.4999999162431321
  endloop
endfacet
facet normal -0.9999999998810245 -4.452576707128644e-15 -1.5425665109157154e-05
  outer loop
    vertex 42.246160866074085 -4.6325221785260595 -3.2999999999999994
    vertex 42.24622159715176 -5.433872808907686 1.4999999162431321
    vertex 42.246074480630874 -4.631828822400256 1.4999999178299626
  endloop
endfacet
facet normal 1.0 0.0 0.0
  outer loop
    vertex 55.746160866074085 -4.6325221785260595 -3.2999999999999994
    vertex 55.74604363102076 -6.531581198969451 4.299999902262328
    vertex 55.746160866074085 -6.53252217852606 -3.2999999999999994
  endloop
endfacet
facet normal 1.0 0.0 0.0
  outer loop
    vertex 55.74604363102076 -6.531581198969451 4.299999902262328
    vertex 55.746160866074085 -4.6325221785260595 -3.2999999999999994
    vertex 55.74604363102076 -4.631581198969451 4.299999902262328
  endloop
endfacet
facet normal 0.0 0.0 1.0
  outer loop
    vertex 42.24604363102075 -4.631581198969451 4.299999902262328
    vertex 42.246043631020754 -2.9815811989694527 4.299999902262328
    vertex 41.14604363102075 -2.9815811989694527 4.299999902262328
  endloop
endfacet
facet normal 0.0 0.0 1.0
  outer loop
    vertex 42.246043631020754 -2.9815811989694527 4.299999902262328
    vertex 42.24604363102075 -4.631581198969451 4.299999902262328
    vertex 43.596073134556164 -4.631581198969451 4.299999902262328
  endloop
endfacet
facet normal 0.0 0.0 1.0
  outer loop
    vertex 42.246043631020754 -2.9815811989694527 4.299999902262328
    vertex 43.596073134556164 -4.631581198969451 4.299999902262328
    vertex 42.246160866074085 -1.7325221785260607 4.299999902262328
  endloop
endfacet
facet normal 0.0 0.0 1.0
  outer loop
    vertex 42.246160866074085 -1.7325221785260607 4.299999902262328
    vertex 43.596073134556164 -4.631581198969451 4.299999902262328
    vertex 43.596073134556164 -3.8315811989694515 4.299999902262328
  endloop
endfacet
facet normal 0.0 0.0 1.0
  outer loop
    vertex 42.246160866074085 -1.7325221785260607 4.299999902262328
    vertex 43.596073134556164 -3.8315811989694515 4.299999902262328
    vertex 43.59616086607409 -1.7325221785260607 4.299999902262328
  endloop
endfacet
facet normal 0.8050949196707956 0.5931459941028643 4.446031004315968e-32
  outer loop
    vertex 56.89669305338902 1.3978436969079782 0.30000000000000043
    vertex 57.246043631020754 0.9244414905061924 4.299999902262328
    vertex 57.24616086607408 0.9235005109495841 0.30000000000000043
  endloop
endfacet
facet normal 0.8050949196707956 0.5931459941028643 4.446031004315968e-32
  outer loop
    vertex 57.246043631020754 0.9244414905061924 4.299999902262328
    vertex 56.89669305338902 1.3978436969079782 0.30000000000000043
    vertex 56.89657581833569 1.3987846764645866 4.299999902262328
  endloop
endfacet
facet normal 1.0 0.0 0.0
  outer loop
    vertex 57.24616086607408 0.9235005109495841 0.30000000000000043
    vertex 57.246043631020754 0.37786938105336254 4.299999902262328
    vertex 57.24616086607408 0.3769284014967542 0.30000000000000043
  endloop
endfacet
facet normal 1.0 0.0 0.0
  outer loop
    vertex 57.246043631020754 0.37786938105336254 4.299999902262328
    vertex 57.24616086607408 0.9235005109495841 0.30000000000000043
    vertex 57.246043631020754 0.9244414905061924 4.299999902262328
  endloop
endfacet
facet normal 0.49151208323638934 0.8708707550679521 4.173663252206933e-18
  outer loop
    vertex 55.71010493477136 2.0684188010305475 4.293972902262328
    vertex 56.89669305338902 1.3978436969079782 0.30000000000000043
    vertex 55.71022216982468 2.0674778214739398 0.30000000000000043
  endloop
endfacet
facet normal 0.49151208323638934 0.8708707550679521 4.173663252206933e-18
  outer loop
    vertex 56.89669305338902 1.3978436969079782 0.30000000000000043
    vertex 55.71010493477136 2.0684188010305475 4.293972902262328
    vertex 56.89657581833569 1.3987846764645866 4.299999902262328
  endloop
endfacet
facet normal 1.0 0.0 0.0
  outer loop
    vertex 57.34616086607408 -0.6089393156340384 0.30000000000000043
    vertex 57.346043631020756 -1.7315811989694516 4.299999902262328
    vertex 57.34616086607408 -1.7325221785260596 0.30000000000000043
  endloop
endfacet
facet normal 1.0 0.0 0.0
  outer loop
    vertex 57.346043631020756 -1.7315811989694516 4.299999902262328
    vertex 57.34616086607408 -0.6089393156340384 0.30000000000000043
    vertex 57.346043631020756 -0.6079983360774299 4.299999902262328
  endloop
endfacet
facet normal 0.0 1.0 0.0
  outer loop
    vertex 56.85112126876291 -0.6079983360774299 4.299999902262328
    vertex 57.34616086607408 -0.6089393156340384 0.30000000000000043
    vertex 56.851238503816234 -0.6089393156340384 0.30000000000000043
  endloop
endfacet
facet normal 0.0 1.0 0.0
  outer loop
    vertex 57.34616086607408 -0.6089393156340384 0.30000000000000043
    vertex 56.85112126876291 -0.6079983360774299 4.299999902262328
    vertex 57.346043631020756 -0.6079983360774299 4.299999902262328
  endloop
endfacet
facet normal -0.025702310823414294 0.9996696410406474 0.0
  outer loop
    vertex 56.11099310635806 -0.9371036432592436 4.299999902262328
    vertex 56.322492917602695 -0.9326098066997328 0.30000000000000043
    vertex 56.1111103414114 -0.9380446228158519 0.30000000000000043
  endloop
endfacet
facet normal -0.025702310823414294 0.9996696410406474 0.0
  outer loop
    vertex 56.322492917602695 -0.9326098066997328 0.30000000000000043
    vertex 56.11099310635806 -0.9371036432592436 4.299999902262328
    vertex 56.322375682549364 -0.9316688271431245 4.299999902262328
  endloop
endfacet
facet normal 0.23390701609247166 0.9722589715825287 0.0
  outer loop
    vertex 55.905406582869894 -0.8876434359857945 4.299999902262328
    vertex 56.1111103414114 -0.9380446228158519 0.30000000000000043
    vertex 55.905523817923225 -0.8885844155424029 0.30000000000000043
  endloop
endfacet
facet normal 0.23390701609247166 0.9722589715825287 0.0
  outer loop
    vertex 56.1111103414114 -0.9380446228158519 0.30000000000000043
    vertex 55.905406582869894 -0.8876434359857945 4.299999902262328
    vertex 56.11099310635806 -0.9371036432592436 4.299999902262328
  endloop
endfacet
facet normal 0.47757596641128164 0.8785904599449793 0.0
  outer loop
    vertex 55.71962649391278 -0.7866588367116035 4.299999902262328
    vertex 55.905523817923225 -0.8885844155424029 0.30000000000000043
    vertex 55.7197437289661 -0.7875998162682118 0.30000000000000043
  endloop
endfacet
facet normal 0.47757596641128164 0.8785904599449793 0.0
  outer loop
    vertex 55.905523817923225 -0.8885844155424029 0.30000000000000043
    vertex 55.71962649391278 -0.7866588367116035 4.299999902262328
    vertex 55.905406582869894 -0.8876434359857945 4.299999902262328
  endloop
endfacet
facet normal 0.688698903850763 0.725047460401564 0.0
  outer loop
    vertex 55.56631344553303 -0.6410317789922668 4.299999902262328
    vertex 55.7197437289661 -0.7875998162682118 0.30000000000000043
    vertex 55.56643068058635 -0.6419727585488751 0.30000000000000043
  endloop
endfacet
facet normal 0.688698903850763 0.725047460401564 0.0
  outer loop
    vertex 55.7197437289661 -0.7875998162682118 0.30000000000000043
    vertex 55.56631344553303 -0.6410317789922668 4.299999902262328
    vertex 55.71962649391278 -0.7866588367116035 4.299999902262328
  endloop
endfacet
facet normal 0.8528881491215587 0.5220936746293732 0.0
  outer loop
    vertex 55.456032703669244 -0.46162748570787404 0.30000000000000043
    vertex 55.56631344553303 -0.6410317789922668 4.299999902262328
    vertex 55.56643068058635 -0.6419727585488751 0.30000000000000043
  endloop
endfacet
facet normal 0.8528881491215587 0.5220936746293732 0.0
  outer loop
    vertex 55.56631344553303 -0.6410317789922668 4.299999902262328
    vertex 55.456032703669244 -0.46162748570787404 0.30000000000000043
    vertex 55.45591546861592 -0.4606865061512657 4.299999902262328
  endloop
endfacet
facet normal 0.9589544764940398 0.2835600677317637 0.0
  outer loop
    vertex 55.39607323790041 -0.25885423005466746 0.30000000000000043
    vertex 55.45591546861592 -0.4606865061512657 4.299999902262328
    vertex 55.456032703669244 -0.46162748570787404 0.30000000000000043
  endloop
endfacet
facet normal 0.9589544764940398 0.2835600677317637 0.0
  outer loop
    vertex 55.45591546861592 -0.4606865061512657 4.299999902262328
    vertex 55.39607323790041 -0.25885423005466746 0.30000000000000043
    vertex 55.395956002847086 -0.2579132504980591 4.299999902262328
  endloop
endfacet
facet normal 0.9996696410406475 0.025702310823411133 0.0
  outer loop
    vertex 55.3906384217843 -0.047471653863373195 0.30000000000000043
    vertex 55.395956002847086 -0.2579132504980591 4.299999902262328
    vertex 55.39607323790041 -0.25885423005466746 0.30000000000000043
  endloop
endfacet
facet normal 0.9996696410406475 0.025702310823411133 0.0
  outer loop
    vertex 55.395956002847086 -0.2579132504980591 4.299999902262328
    vertex 55.3906384217843 -0.047471653863373195 0.30000000000000043
    vertex 55.390521186730965 -0.04653067430676486 4.299999902262328
  endloop
endfacet
facet normal 0.9722589715825276 -0.23390701609247566 0.0
  outer loop
    vertex 55.44009862905774 0.15811486962479718 0.30000000000000043
    vertex 55.390521186730965 -0.04653067430676486 4.299999902262328
    vertex 55.3906384217843 -0.047471653863373195 0.30000000000000043
  endloop
endfacet
facet normal 0.9722589715825276 -0.23390701609247566 0.0
  outer loop
    vertex 55.390521186730965 -0.04653067430676486 4.299999902262328
    vertex 55.44009862905774 0.15811486962479718 0.30000000000000043
    vertex 55.43998139400441 0.15905584918140553 4.299999902262328
  endloop
endfacet
facet normal 0.8785904599449815 -0.4775759664112779 0.0
  outer loop
    vertex 55.54108322833193 0.3438949585819174 0.30000000000000043
    vertex 55.43998139400441 0.15905584918140553 4.299999902262328
    vertex 55.44009862905774 0.15811486962479718 0.30000000000000043
  endloop
endfacet
facet normal 0.8785904599449815 -0.4775759664112779 0.0
  outer loop
    vertex 55.43998139400441 0.15905584918140553 4.299999902262328
    vertex 55.54108322833193 0.3438949585819174 0.30000000000000043
    vertex 55.540965993278604 0.34483593813852575 4.299999902262328
  endloop
endfacet
facet normal 0.7250474604015689 -0.6886989038507578 0.0
  outer loop
    vertex 55.68671028605127 0.4972080069616743 0.30000000000000043
    vertex 55.540965993278604 0.34483593813852575 4.299999902262328
    vertex 55.54108322833193 0.3438949585819174 0.30000000000000043
  endloop
endfacet
facet normal 0.7250474604015689 -0.6886989038507578 0.0
  outer loop
    vertex 55.540965993278604 0.34483593813852575 4.299999902262328
    vertex 55.68671028605127 0.4972080069616743 0.30000000000000043
    vertex 55.68659305099794 0.4981489865182826 4.299999902262328
  endloop
endfacet
facet normal 0.522093674629363 -0.852888149121565 0.0
  outer loop
    vertex 55.866938323838944 0.6085469634353865 4.299999902262328
    vertex 55.68671028605127 0.4972080069616743 0.30000000000000043
    vertex 55.86705555889227 0.6076059838787782 0.30000000000000043
  endloop
endfacet
facet normal 0.522093674629363 -0.852888149121565 0.0
  outer loop
    vertex 55.68671028605127 0.4972080069616743 0.30000000000000043
    vertex 55.866938323838944 0.6085469634353865 4.299999902262328
    vertex 55.68659305099794 0.4981489865182826 4.299999902262328
  endloop
endfacet
facet normal 0.28356006773176673 -0.9589544764940389 0.0
  outer loop
    vertex 56.06971157949216 0.6685064292042202 4.299999902262328
    vertex 55.86705555889227 0.6076059838787782 0.30000000000000043
    vertex 56.06982881454548 0.6675654496476119 0.30000000000000043
  endloop
endfacet
facet normal 0.28356006773176673 -0.9589544764940389 0.0
  outer loop
    vertex 55.86705555889227 0.6076059838787782 0.30000000000000043
    vertex 56.06971157949216 0.6685064292042202 4.299999902262328
    vertex 55.866938323838944 0.6085469634353865 4.299999902262328
  endloop
endfacet
facet normal 0.025702310823414294 -0.9996696410406474 0.0
  outer loop
    vertex 56.28109415568345 0.6739412453203394 4.299999902262328
    vertex 56.06982881454548 0.6675654496476119 0.30000000000000043
    vertex 56.28121139073677 0.673000265763731 0.30000000000000043
  endloop
endfacet
facet normal 0.025702310823414294 -0.9996696410406474 0.0
  outer loop
    vertex 56.06982881454548 0.6675654496476119 0.30000000000000043
    vertex 56.28109415568345 0.6739412453203394 4.299999902262328
    vertex 56.06971157949216 0.6685064292042202 4.299999902262328
  endloop
endfacet
facet normal -0.23390701609247166 -0.9722589715825287 -0.0
  outer loop
    vertex 56.48668067917161 0.6244810380468903 4.299999902262328
    vertex 56.28121139073677 0.673000265763731 0.30000000000000043
    vertex 56.48679791422494 0.6235400584902819 0.30000000000000043
  endloop
endfacet
facet normal -0.23390701609247166 -0.9722589715825287 -0.0
  outer loop
    vertex 56.28121139073677 0.673000265763731 0.30000000000000043
    vertex 56.48668067917161 0.6244810380468903 4.299999902262328
    vertex 56.28109415568345 0.6739412453203394 4.299999902262328
  endloop
endfacet
facet normal -0.47757596641128164 -0.8785904599449793 -0.0
  outer loop
    vertex 56.67246076812873 0.5234964387726992 4.299999902262328
    vertex 56.48679791422494 0.6235400584902819 0.30000000000000043
    vertex 56.67257800318206 0.5225554592160909 0.30000000000000043
  endloop
endfacet
facet normal -0.47757596641128164 -0.8785904599449793 -0.0
  outer loop
    vertex 56.48679791422494 0.6235400584902819 0.30000000000000043
    vertex 56.67246076812873 0.5234964387726992 4.299999902262328
    vertex 56.48668067917161 0.6244810380468903 4.299999902262328
  endloop
endfacet
facet normal -0.688698903850763 -0.725047460401564 -0.0
  outer loop
    vertex 56.825773816508494 0.37786938105336254 4.299999902262328
    vertex 56.67257800318206 0.5225554592160909 0.30000000000000043
    vertex 56.82589105156182 0.3769284014967542 0.30000000000000043
  endloop
endfacet
facet normal -0.688698903850763 -0.725047460401564 -0.0
  outer loop
    vertex 56.67257800318206 0.5225554592160909 0.30000000000000043
    vertex 56.825773816508494 0.37786938105336254 4.299999902262328
    vertex 56.67246076812873 0.5234964387726992 4.299999902262328
  endloop
endfacet
facet normal 0.0 -1.0 0.0
  outer loop
    vertex 57.246043631020754 0.37786938105336254 4.299999902262328
    vertex 56.82589105156182 0.3769284014967542 0.30000000000000043
    vertex 57.24616086607408 0.3769284014967542 0.30000000000000043
  endloop
endfacet
facet normal 0.0 -1.0 0.0
  outer loop
    vertex 56.82589105156182 0.3769284014967542 0.30000000000000043
    vertex 57.246043631020754 0.37786938105336254 4.299999902262328
    vertex 56.825773816508494 0.37786938105336254 4.299999902262328
  endloop
endfacet
facet normal -0.28356006773176673 0.9589544764940389 0.0
  outer loop
    vertex 56.322375682549364 -0.9316688271431245 4.299999902262328
    vertex 56.52526617325589 -0.8726503409308991 0.30000000000000043
    vertex 56.322492917602695 -0.9326098066997328 0.30000000000000043
  endloop
endfacet
facet normal -0.28356006773176673 0.9589544764940389 0.0
  outer loop
    vertex 56.52526617325589 -0.8726503409308991 0.30000000000000043
    vertex 56.322375682549364 -0.9316688271431245 4.299999902262328
    vertex 56.52514893820257 -0.8717093613742908 4.299999902262328
  endloop
endfacet
facet normal -0.5220936746293688 0.8528881491215613 0.0
  outer loop
    vertex 56.52514893820257 -0.8717093613742908 4.299999902262328
    vertex 56.70561144609689 -0.7622523640137951 0.30000000000000043
    vertex 56.52526617325589 -0.8726503409308991 0.30000000000000043
  endloop
endfacet
facet normal -0.5220936746293688 0.8528881491215613 0.0
  outer loop
    vertex 56.70561144609689 -0.7622523640137951 0.30000000000000043
    vertex 56.52514893820257 -0.8717093613742908 4.299999902262328
    vertex 56.705494211043565 -0.7613113844571868 4.299999902262328
  endloop
endfacet
facet normal 0.0 -1.0 0.0
  outer loop
    vertex 57.346043631020756 -1.7315811989694516 4.299999902262328
    vertex 55.746160866074085 -1.7325221785260596 0.30000000000000043
    vertex 57.34616086607408 -1.7325221785260596 0.30000000000000043
  endloop
endfacet
facet normal 0.0 -1.0 0.0
  outer loop
    vertex 55.746160866074085 -1.7325221785260596 0.30000000000000043
    vertex 57.346043631020756 -1.7315811989694516 4.299999902262328
    vertex 55.74604363102076 -1.7315811989694516 4.299999902262328
  endloop
endfacet
facet normal -0.7250474604015622 0.6886989038507648 0.0
  outer loop
    vertex 56.705494211043565 -0.7613113844571868 4.299999902262328
    vertex 56.851238503816234 -0.6089393156340384 0.30000000000000043
    vertex 56.70561144609689 -0.7622523640137951 0.30000000000000043
  endloop
endfacet
facet normal -0.7250474604015622 0.6886989038507648 0.0
  outer loop
    vertex 56.851238503816234 -0.6089393156340384 0.30000000000000043
    vertex 56.705494211043565 -0.7613113844571868 4.299999902262328
    vertex 56.85112126876291 -0.6079983360774299 4.299999902262328
  endloop
endfacet
facet normal 0.0 0.0 -1.0
  outer loop
    vertex 55.71022216982468 2.0674778214739398 0.30000000000000043
    vertex 55.3906384217843 -0.047471653863373195 0.30000000000000043
    vertex 54.910222169824685 2.0674778214739398 0.30000000000000043
  endloop
endfacet
facet normal 0.0 0.0 -1.0
  outer loop
    vertex 55.3906384217843 -0.047471653863373195 0.30000000000000043
    vertex 55.71022216982468 2.0674778214739398 0.30000000000000043
    vertex 55.44009862905774 0.15811486962479718 0.30000000000000043
  endloop
endfacet
facet normal 0.0 0.0 -1.0
  outer loop
    vertex 55.44009862905774 0.15811486962479718 0.30000000000000043
    vertex 55.71022216982468 2.0674778214739398 0.30000000000000043
    vertex 55.54108322833193 0.3438949585819174 0.30000000000000043
  endloop
endfacet
facet normal 0.0 0.0 -1.0
  outer loop
    vertex 55.54108322833193 0.3438949585819174 0.30000000000000043
    vertex 55.71022216982468 2.0674778214739398 0.30000000000000043
    vertex 55.68671028605127 0.4972080069616743 0.30000000000000043
  endloop
endfacet
facet normal 0.0 0.0 -1.0
  outer loop
    vertex 55.68671028605127 0.4972080069616743 0.30000000000000043
    vertex 55.71022216982468 2.0674778214739398 0.30000000000000043
    vertex 55.86705555889227 0.6076059838787782 0.30000000000000043
  endloop
endfacet
facet normal 0.0 0.0 -1.0
  outer loop
    vertex 55.86705555889227 0.6076059838787782 0.30000000000000043
    vertex 55.71022216982468 2.0674778214739398 0.30000000000000043
    vertex 56.89669305338902 1.3978436969079782 0.30000000000000043
  endloop
endfacet
facet normal 0.0 0.0 -1.0
  outer loop
    vertex 55.86705555889227 0.6076059838787782 0.30000000000000043
    vertex 56.89669305338902 1.3978436969079782 0.30000000000000043
    vertex 56.06982881454548 0.6675654496476119 0.30000000000000043
  endloop
endfacet
facet normal 0.0 0.0 -1.0
  outer loop
    vertex 56.06982881454548 0.6675654496476119 0.30000000000000043
    vertex 56.89669305338902 1.3978436969079782 0.30000000000000043
    vertex 56.28121139073677 0.673000265763731 0.30000000000000043
  endloop
endfacet
facet normal 0.0 0.0 -1.0
  outer loop
    vertex 56.28121139073677 0.673000265763731 0.30000000000000043
    vertex 56.89669305338902 1.3978436969079782 0.30000000000000043
    vertex 56.48679791422494 0.6235400584902819 0.30000000000000043
  endloop
endfacet
facet normal 0.0 0.0 -1.0
  outer loop
    vertex 56.48679791422494 0.6235400584902819 0.30000000000000043
    vertex 56.89669305338902 1.3978436969079782 0.30000000000000043
    vertex 56.67257800318206 0.5225554592160909 0.30000000000000043
  endloop
endfacet
facet normal 0.0 0.0 -1.0
  outer loop
    vertex 56.67257800318206 0.5225554592160909 0.30000000000000043
    vertex 56.89669305338902 1.3978436969079782 0.30000000000000043
    vertex 56.82589105156182 0.3769284014967542 0.30000000000000043
  endloop
endfacet
facet normal 0.0 0.0 -1.0
  outer loop
    vertex 56.82589105156182 0.3769284014967542 0.30000000000000043
    vertex 56.89669305338902 1.3978436969079782 0.30000000000000043
    vertex 57.24616086607408 0.3769284014967542 0.30000000000000043
  endloop
endfacet
facet normal 0.0 0.0 -1.0
  outer loop
    vertex 57.24616086607408 0.3769284014967542 0.30000000000000043
    vertex 56.89669305338902 1.3978436969079782 0.30000000000000043
    vertex 57.24616086607408 0.9235005109495841 0.30000000000000043
  endloop
endfacet
facet normal 0.0 0.0 -1.0
  outer loop
    vertex 54.910222169824685 2.0674778214739398 0.30000000000000043
    vertex 54.8961608660741 -0.9325221785260597 0.30000000000000043
    vertex 54.8961608660741 0.11759837509914733 0.30000000000000043
  endloop
endfacet
facet normal 0.0 0.0 -1.0
  outer loop
    vertex 54.8961608660741 -0.9325221785260597 0.30000000000000043
    vertex 54.910222169824685 2.0674778214739398 0.30000000000000043
    vertex 55.39607323790041 -0.25885423005466746 0.30000000000000043
  endloop
endfacet
facet normal 0.0 0.0 -1.0
  outer loop
    vertex 54.8961608660741 -0.9325221785260597 0.30000000000000043
    vertex 55.39607323790041 -0.25885423005466746 0.30000000000000043
    vertex 55.456032703669244 -0.46162748570787404 0.30000000000000043
  endloop
endfacet
facet normal 0.0 0.0 -1.0
  outer loop
    vertex 54.8961608660741 -0.9325221785260597 0.30000000000000043
    vertex 55.456032703669244 -0.46162748570787404 0.30000000000000043
    vertex 55.746160866074085 -1.3325221785260597 0.30000000000000043
  endloop
endfacet
facet normal 0.0 0.0 -1.0
  outer loop
    vertex 55.39607323790041 -0.25885423005466746 0.30000000000000043
    vertex 54.910222169824685 2.0674778214739398 0.30000000000000043
    vertex 55.3906384217843 -0.047471653863373195 0.30000000000000043
  endloop
endfacet
facet normal 0.0 0.0 -1.0
  outer loop
    vertex 55.746160866074085 -1.3325221785260597 0.30000000000000043
    vertex 55.456032703669244 -0.46162748570787404 0.30000000000000043
    vertex 55.56643068058635 -0.6419727585488751 0.30000000000000043
  endloop
endfacet
facet normal 0.0 0.0 -1.0
  outer loop
    vertex 55.746160866074085 -1.3325221785260597 0.30000000000000043
    vertex 55.56643068058635 -0.6419727585488751 0.30000000000000043
    vertex 55.7197437289661 -0.7875998162682118 0.30000000000000043
  endloop
endfacet
facet normal 0.0 0.0 -1.0
  outer loop
    vertex 55.746160866074085 -1.3325221785260597 0.30000000000000043
    vertex 55.7197437289661 -0.7875998162682118 0.30000000000000043
    vertex 55.905523817923225 -0.8885844155424029 0.30000000000000043
  endloop
endfacet
facet normal 0.0 0.0 -1.0
  outer loop
    vertex 55.746160866074085 -1.3325221785260597 0.30000000000000043
    vertex 55.905523817923225 -0.8885844155424029 0.30000000000000043
    vertex 55.746160866074085 -1.7325221785260596 0.30000000000000043
  endloop
endfacet
facet normal 0.0 0.0 -1.0
  outer loop
    vertex 55.746160866074085 -1.7325221785260596 0.30000000000000043
    vertex 55.905523817923225 -0.8885844155424029 0.30000000000000043
    vertex 57.34616086607408 -1.7325221785260596 0.30000000000000043
  endloop
endfacet
facet normal 0.0 0.0 -1.0
  outer loop
    vertex 57.34616086607408 -1.7325221785260596 0.30000000000000043
    vertex 55.905523817923225 -0.8885844155424029 0.30000000000000043
    vertex 56.1111103414114 -0.9380446228158519 0.30000000000000043
  endloop
endfacet
facet normal 0.0 0.0 -1.0
  outer loop
    vertex 57.34616086607408 -1.7325221785260596 0.30000000000000043
    vertex 56.1111103414114 -0.9380446228158519 0.30000000000000043
    vertex 56.322492917602695 -0.9326098066997328 0.30000000000000043
  endloop
endfacet
facet normal 0.0 0.0 -1.0
  outer loop
    vertex 57.34616086607408 -1.7325221785260596 0.30000000000000043
    vertex 56.322492917602695 -0.9326098066997328 0.30000000000000043
    vertex 56.52526617325589 -0.8726503409308991 0.30000000000000043
  endloop
endfacet
facet normal 0.0 0.0 -1.0
  outer loop
    vertex 57.34616086607408 -1.7325221785260596 0.30000000000000043
    vertex 56.52526617325589 -0.8726503409308991 0.30000000000000043
    vertex 56.70561144609689 -0.7622523640137951 0.30000000000000043
  endloop
endfacet
facet normal 0.0 0.0 -1.0
  outer loop
    vertex 57.34616086607408 -1.7325221785260596 0.30000000000000043
    vertex 56.70561144609689 -0.7622523640137951 0.30000000000000043
    vertex 56.851238503816234 -0.6089393156340384 0.30000000000000043
  endloop
endfacet
facet normal 0.0 0.0 -1.0
  outer loop
    vertex 57.34616086607408 -1.7325221785260596 0.30000000000000043
    vertex 56.851238503816234 -0.6089393156340384 0.30000000000000043
    vertex 57.34616086607408 -0.6089393156340384 0.30000000000000043
  endloop
endfacet
facet normal -1.9617807208887022e-08 -4.072403013884632e-08 0.9999999999999991
  outer loop
    vertex 42.246160866074085 -1.7325221785260607 4.299999902262328
    vertex 41.246160866074085 -0.13252217852606046 4.3
    vertex 41.246160866074085 -1.7325221785260607 4.3
  endloop
endfacet
facet normal -1.9617807208887022e-08 -4.072403013884632e-08 0.9999999999999991
  outer loop
    vertex 41.246160866074085 -0.13252217852606046 4.3
    vertex 42.246160866074085 -1.7325221785260607 4.299999902262328
    vertex 42.246160866074085 -0.13252217852606046 4.3
  endloop
endfacet
facet normal -1.9617807208887022e-08 -4.072403013884632e-08 0.9999999999999991
  outer loop
    vertex 42.246160866074085 -0.13252217852606046 4.3
    vertex 42.246160866074085 -1.7325221785260607 4.299999902262328
    vertex 43.59616086607409 -1.7325221785260607 4.299999902262328
  endloop
endfacet
facet normal -1.9617807208887022e-08 -4.072403013884632e-08 0.9999999999999991
  outer loop
    vertex 42.246160866074085 -0.13252217852606046 4.3
    vertex 43.59616086607409 -1.7325221785260607 4.299999902262328
    vertex 43.59616086607409 -0.13252217852606046 4.3
  endloop
endfacet
facet normal 1.0 0.0 0.0
  outer loop
    vertex 43.59616086607409 -0.13252217852606046 -3.2999999999999994
    vertex 43.59616086607409 -1.7325221785260607 4.299999902262328
    vertex 43.59616086607409 -1.7325221785260607 -3.2999999999999994
  endloop
endfacet
facet normal 1.0 0.0 0.0
  outer loop
    vertex 43.59616086607409 -1.7325221785260607 4.299999902262328
    vertex 43.59616086607409 -0.13252217852606046 -3.2999999999999994
    vertex 43.59616086607409 -0.13252217852606046 4.3
  endloop
endfacet
facet normal 0.0 0.0 -1.0
  outer loop
    vertex 43.59616086607409 -0.13252217852606046 -3.2999999999999994
    vertex 42.246160866074085 -1.7325221785260607 -3.2999999999999994
    vertex 42.246160866074085 -0.13252217852606046 -3.2999999999999994
  endloop
endfacet
facet normal 0.0 0.0 -1.0
  outer loop
    vertex 42.246160866074085 -1.7325221785260607 -3.2999999999999994
    vertex 43.59616086607409 -0.13252217852606046 -3.2999999999999994
    vertex 43.59616086607409 -1.7325221785260607 -3.2999999999999994
  endloop
endfacet
facet normal 0.0 0.0 -1.0
  outer loop
    vertex 42.246160866074085 -0.13252217852606046 -3.2999999999999994
    vertex 41.246160866074085 -1.7325221785260607 -3.2999999999999994
    vertex 41.246160866074085 -0.13252217852606046 -3.2999999999999994
  endloop
endfacet
facet normal 0.0 0.0 -1.0
  outer loop
    vertex 41.246160866074085 -1.7325221785260607 -3.2999999999999994
    vertex 42.246160866074085 -0.13252217852606046 -3.2999999999999994
    vertex 42.246160866074085 -1.7325221785260607 -3.2999999999999994
  endloop
endfacet
facet normal -1.0 0.0 0.0
  outer loop
    vertex 40.84616086607409 -0.5325221785260604 4.3
    vertex 40.84616086607409 -1.3325221785260604 -3.299999999999999
    vertex 40.84616086607409 -1.3325221785260604 4.3
  endloop
endfacet
facet normal -1.0 0.0 0.0
  outer loop
    vertex 40.84616086607409 -1.3325221785260604 -3.299999999999999
    vertex 40.84616086607409 -0.5325221785260604 4.3
    vertex 40.84616086607409 -0.5325221785260604 -3.299999999999999
  endloop
endfacet
facet normal -1.7624790515924396e-15 6.067055483010633e-34 -1.0
  outer loop
    vertex 41.246160866074085 -0.13252217852606046 -3.2999999999999994
    vertex 40.84616086607409 -1.3325221785260604 -3.299999999999999
    vertex 40.84616086607409 -0.5325221785260604 -3.299999999999999
  endloop
endfacet
facet normal -1.7624790515924396e-15 6.067055483010633e-34 -1.0
  outer loop
    vertex 40.84616086607409 -1.3325221785260604 -3.299999999999999
    vertex 41.246160866074085 -0.13252217852606046 -3.2999999999999994
    vertex 41.246160866074085 -1.7325221785260607 -3.2999999999999994
  endloop
endfacet
facet normal -3.1026255747752907e-16 -2.907780610735944e-16 -1.0
  outer loop
    vertex 42.707589437502655 2.0674778214739398 -3.2999999999999994
    vertex 43.52570632061954 0.36747782147394076 -3.2999999999999994
    vertex 42.246160866074085 0.36747782147394076 -3.2999999999999994
  endloop
endfacet
facet normal -3.1026255747752907e-16 -2.907780610735944e-16 -1.0
  outer loop
    vertex 43.52570632061954 0.36747782147394076 -3.2999999999999994
    vertex 42.707589437502655 2.0674778214739398 -3.2999999999999994
    vertex 43.28616086607409 2.0674778214739398 -3.300000000000001
  endloop
endfacet
facet normal 0.0 0.0 -1.0
  outer loop
    vertex 43.52570632061954 0.36747782147394076 -3.2999999999999994
    vertex 42.246160866074085 -0.13252217852606046 -3.2999999999999994
    vertex 42.246160866074085 0.36747782147394076 -3.2999999999999994
  endloop
endfacet
facet normal 0.0 0.0 -1.0
  outer loop
    vertex 42.246160866074085 -0.13252217852606046 -3.2999999999999994
    vertex 43.52570632061954 0.36747782147394076 -3.2999999999999994
    vertex 43.59616086607409 -0.13252217852606046 -3.2999999999999994
  endloop
endfacet
facet normal -5.9828163433135654e-05 0.0001438255147942121 0.9999999878674061
  outer loop
    vertex 56.54604363102076 -2.9815811989694514 4.299999902262328
    vertex 55.74604363102076 -2.9815811989694514 4.299999902262328
    vertex 55.74604363102076 -4.631581198969451 4.299999902262328
  endloop
endfacet
facet normal -5.9828163433135654e-05 0.0001438255147942121 0.9999999878674061
  outer loop
    vertex 55.74604363102076 -6.531581198969451 4.299999902262328
    vertex 45.24604363102075 -5.440777198969451 4.299999902262328
    vertex 45.24604363102075 -6.531581198969451 4.299999902262328
  endloop
endfacet
facet normal -5.9828163433135654e-05 0.0001438255147942121 0.9999999878674061
  outer loop
    vertex 45.24604363102075 -5.440777198969451 4.299999902262328
    vertex 55.74604363102076 -6.531581198969451 4.299999902262328
    vertex 46.04604363102075 -5.440777198969451 4.299999902262328
  endloop
endfacet
facet normal -5.9828163433135654e-05 0.0001438255147942121 0.9999999878674061
  outer loop
    vertex 46.04604363102075 -5.440777198969451 4.299999902262328
    vertex 55.74604363102076 -6.531581198969451 4.299999902262328
    vertex 52.796043631020765 -5.440777198969451 4.299999902262328
  endloop
endfacet
facet normal -5.9828163433135654e-05 0.0001438255147942121 0.9999999878674061
  outer loop
    vertex 52.796043631020765 -5.440777198969451 4.299999902262328
    vertex 55.74604363102076 -6.531581198969451 4.299999902262328
    vertex 52.796043631020765 0.11853935465575567 4.299999902262328
  endloop
endfacet
facet normal -5.9828163433135654e-05 0.0001438255147942121 0.9999999878674061
  outer loop
    vertex 52.796043631020765 0.11853935465575567 4.299999902262328
    vertex 55.74604363102076 -6.531581198969451 4.299999902262328
    vertex 54.11010493477135 2.0684188010305475 4.299999902262328
  endloop
endfacet
facet normal -5.9828163433135654e-05 0.0001438255147942121 0.9999999878674061
  outer loop
    vertex 54.11010493477135 2.0684188010305475 4.299999902262328
    vertex 55.74604363102076 -6.531581198969451 4.299999902262328
    vertex 55.395956002847086 -0.2579132504980591 4.299999902262328
  endloop
endfacet
facet normal -5.9828163433135654e-05 0.0001438255147942121 0.9999999878674061
  outer loop
    vertex 54.11010493477135 2.0684188010305475 4.299999902262328
    vertex 55.395956002847086 -0.2579132504980591 4.299999902262328
    vertex 55.390521186730965 -0.04653067430676486 4.299999902262328
  endloop
endfacet
facet normal -5.9828163433135654e-05 0.0001438255147942121 0.9999999878674061
  outer loop
    vertex 55.395956002847086 -0.2579132504980591 4.299999902262328
    vertex 55.74604363102076 -6.531581198969451 4.299999902262328
    vertex 55.45591546861592 -0.4606865061512657 4.299999902262328
  endloop
endfacet
facet normal -5.9828163433135654e-05 0.0001438255147942121 0.9999999878674061
  outer loop
    vertex 55.45591546861592 -0.4606865061512657 4.299999902262328
    vertex 55.74604363102076 -6.531581198969451 4.299999902262328
    vertex 55.56631344553303 -0.6410317789922668 4.299999902262328
  endloop
endfacet
facet normal -5.9828163433135654e-05 0.0001438255147942121 0.9999999878674061
  outer loop
    vertex 55.56631344553303 -0.6410317789922668 4.299999902262328
    vertex 55.74604363102076 -6.531581198969451 4.299999902262328
    vertex 55.71962649391278 -0.7866588367116035 4.299999902262328
  endloop
endfacet
facet normal -5.9828163433135654e-05 0.0001438255147942121 0.9999999878674061
  outer loop
    vertex 55.71962649391278 -0.7866588367116035 4.299999902262328
    vertex 55.74604363102076 -6.531581198969451 4.299999902262328
    vertex 55.74604363102076 -1.7315811989694516 4.299999902262328
  endloop
endfacet
facet normal -5.9828163433135654e-05 0.0001438255147942121 0.9999999878674061
  outer loop
    vertex 55.71962649391278 -0.7866588367116035 4.299999902262328
    vertex 55.74604363102076 -1.7315811989694516 4.299999902262328
    vertex 55.905406582869894 -0.8876434359857945 4.299999902262328
  endloop
endfacet
facet normal -5.9828163433135654e-05 0.0001438255147942121 0.9999999878674061
  outer loop
    vertex 55.74604363102076 -1.7315811989694516 4.299999902262328
    vertex 55.74604363102076 -6.531581198969451 4.299999902262328
    vertex 55.74604363102076 -4.631581198969451 4.299999902262328
  endloop
endfacet
facet normal -5.9828163433135654e-05 0.0001438255147942121 0.9999999878674061
  outer loop
    vertex 55.74604363102076 -1.7315811989694516 4.299999902262328
    vertex 55.74604363102076 -4.631581198969451 4.299999902262328
    vertex 55.74604363102076 -2.9815811989694514 4.299999902262328
  endloop
endfacet
facet normal -5.9828163433135654e-05 0.0001438255147942121 0.9999999878674061
  outer loop
    vertex 55.905406582869894 -0.8876434359857945 4.299999902262328
    vertex 55.74604363102076 -1.7315811989694516 4.299999902262328
    vertex 57.346043631020756 -1.7315811989694516 4.299999902262328
  endloop
endfacet
facet normal -5.9828163433135654e-05 0.0001438255147942121 0.9999999878674061
  outer loop
    vertex 55.905406582869894 -0.8876434359857945 4.299999902262328
    vertex 57.346043631020756 -1.7315811989694516 4.299999902262328
    vertex 56.11099310635806 -0.9371036432592436 4.299999902262328
  endloop
endfacet
facet normal -5.9828163433135654e-05 0.0001438255147942121 0.9999999878674061
  outer loop
    vertex 56.11099310635806 -0.9371036432592436 4.299999902262328
    vertex 57.346043631020756 -1.7315811989694516 4.299999902262328
    vertex 56.322375682549364 -0.9316688271431245 4.299999902262328
  endloop
endfacet
facet normal -5.9828163433135654e-05 0.0001438255147942121 0.9999999878674061
  outer loop
    vertex 56.322375682549364 -0.9316688271431245 4.299999902262328
    vertex 57.346043631020756 -1.7315811989694516 4.299999902262328
    vertex 56.52514893820257 -0.8717093613742908 4.299999902262328
  endloop
endfacet
facet normal -5.9828163433135654e-05 0.0001438255147942121 0.9999999878674061
  outer loop
    vertex 56.52514893820257 -0.8717093613742908 4.299999902262328
    vertex 57.346043631020756 -1.7315811989694516 4.299999902262328
    vertex 56.705494211043565 -0.7613113844571868 4.299999902262328
  endloop
endfacet
facet normal -5.9828163433135654e-05 0.0001438255147942121 0.9999999878674061
  outer loop
    vertex 56.705494211043565 -0.7613113844571868 4.299999902262328
    vertex 57.346043631020756 -1.7315811989694516 4.299999902262328
    vertex 56.85112126876291 -0.6079983360774299 4.299999902262328
  endloop
endfacet
facet normal -5.9828163433135654e-05 0.0001438255147942121 0.9999999878674061
  outer loop
    vertex 56.85112126876291 -0.6079983360774299 4.299999902262328
    vertex 57.346043631020756 -1.7315811989694516 4.299999902262328
    vertex 57.346043631020756 -0.6079983360774299 4.299999902262328
  endloop
endfacet
facet normal -5.9828163433135654e-05 0.0001438255147942121 0.9999999878674061
  outer loop
    vertex 55.390521186730965 -0.04653067430676486 4.299999902262328
    vertex 55.71010493477136 2.0684188010305475 4.293972902262328
    vertex 54.11010493477135 2.0684188010305475 4.299999902262328
  endloop
endfacet
facet normal -5.9828163433135654e-05 0.0001438255147942121 0.9999999878674061
  outer loop
    vertex 55.71010493477136 2.0684188010305475 4.293972902262328
    vertex 55.390521186730965 -0.04653067430676486 4.299999902262328
    vertex 55.43998139400441 0.15905584918140553 4.299999902262328
  endloop
endfacet
facet normal -5.9828163433135654e-05 0.0001438255147942121 0.9999999878674061
  outer loop
    vertex 55.71010493477136 2.0684188010305475 4.293972902262328
    vertex 55.43998139400441 0.15905584918140553 4.299999902262328
    vertex 55.540965993278604 0.34483593813852575 4.299999902262328
  endloop
endfacet
facet normal -5.9828163433135654e-05 0.0001438255147942121 0.9999999878674061
  outer loop
    vertex 55.71010493477136 2.0684188010305475 4.293972902262328
    vertex 55.540965993278604 0.34483593813852575 4.299999902262328
    vertex 55.68659305099794 0.4981489865182826 4.299999902262328
  endloop
endfacet
facet normal -5.9828163433135654e-05 0.0001438255147942121 0.9999999878674061
  outer loop
    vertex 55.71010493477136 2.0684188010305475 4.293972902262328
    vertex 55.68659305099794 0.4981489865182826 4.299999902262328
    vertex 55.866938323838944 0.6085469634353865 4.299999902262328
  endloop
endfacet
facet normal -5.9828163433135654e-05 0.0001438255147942121 0.9999999878674061
  outer loop
    vertex 55.71010493477136 2.0684188010305475 4.293972902262328
    vertex 55.866938323838944 0.6085469634353865 4.299999902262328
    vertex 56.89657581833569 1.3987846764645866 4.299999902262328
  endloop
endfacet
facet normal -5.9828163433135654e-05 0.0001438255147942121 0.9999999878674061
  outer loop
    vertex 56.89657581833569 1.3987846764645866 4.299999902262328
    vertex 55.866938323838944 0.6085469634353865 4.299999902262328
    vertex 56.06971157949216 0.6685064292042202 4.299999902262328
  endloop
endfacet
facet normal -5.9828163433135654e-05 0.0001438255147942121 0.9999999878674061
  outer loop
    vertex 56.89657581833569 1.3987846764645866 4.299999902262328
    vertex 56.06971157949216 0.6685064292042202 4.299999902262328
    vertex 56.28109415568345 0.6739412453203394 4.299999902262328
  endloop
endfacet
facet normal -5.9828163433135654e-05 0.0001438255147942121 0.9999999878674061
  outer loop
    vertex 56.89657581833569 1.3987846764645866 4.299999902262328
    vertex 56.28109415568345 0.6739412453203394 4.299999902262328
    vertex 56.48668067917161 0.6244810380468903 4.299999902262328
  endloop
endfacet
facet normal -5.9828163433135654e-05 0.0001438255147942121 0.9999999878674061
  outer loop
    vertex 56.89657581833569 1.3987846764645866 4.299999902262328
    vertex 56.48668067917161 0.6244810380468903 4.299999902262328
    vertex 56.67246076812873 0.5234964387726992 4.299999902262328
  endloop
endfacet
facet normal -5.9828163433135654e-05 0.0001438255147942121 0.9999999878674061
  outer loop
    vertex 56.89657581833569 1.3987846764645866 4.299999902262328
    vertex 56.67246076812873 0.5234964387726992 4.299999902262328
    vertex 56.825773816508494 0.37786938105336254 4.299999902262328
  endloop
endfacet
facet normal -5.9828163433135654e-05 0.0001438255147942121 0.9999999878674061
  outer loop
    vertex 56.89657581833569 1.3987846764645866 4.299999902262328
    vertex 56.825773816508494 0.37786938105336254 4.299999902262328
    vertex 57.246043631020754 0.37786938105336254 4.299999902262328
  endloop
endfacet
facet normal -5.9828163433135654e-05 0.0001438255147942121 0.9999999878674061
  outer loop
    vertex 56.89657581833569 1.3987846764645866 4.299999902262328
    vertex 57.246043631020754 0.37786938105336254 4.299999902262328
    vertex 57.246043631020754 0.9244414905061924 4.299999902262328
  endloop
endfacet
facet normal 0.0 0.0 1.0
  outer loop
    vertex 46.04604363102075 -5.440777198969451 4.299999902262328
    vertex 45.24607313455617 -4.631581198969451 4.299999902262328
    vertex 45.24604363102075 -5.440777198969451 4.299999902262328
  endloop
endfacet
facet normal 0.0 0.0 1.0
  outer loop
    vertex 45.24607313455617 -4.631581198969451 4.299999902262328
    vertex 43.596073134556164 -3.8315811989694515 4.299999902262328
    vertex 43.596073134556164 -4.631581198969451 4.299999902262328
  endloop
endfacet
facet normal 0.0 0.0 1.0
  outer loop
    vertex 43.596073134556164 -3.8315811989694515 4.299999902262328
    vertex 45.24607313455617 -4.631581198969451 4.299999902262328
    vertex 46.04607313455617 -3.8315811989694515 4.299999902262328
  endloop
endfacet
facet normal 0.0 0.0 1.0
  outer loop
    vertex 46.04607313455617 -3.8315811989694515 4.299999902262328
    vertex 45.24607313455617 -4.631581198969451 4.299999902262328
    vertex 46.04604363102075 -5.440777198969451 4.299999902262328
  endloop
endfacet
facet normal 0.0 1.0 0.0
  outer loop
    vertex 43.596073134556164 -3.8315811989694515 4.299999902262328
    vertex 46.04607313455617 -3.831581198969451 2.899999917829961
    vertex 43.596073134556164 -3.831581198969451 2.899999917829961
  endloop
endfacet
facet normal 0.0 1.0 0.0
  outer loop
    vertex 46.04607313455617 -3.831581198969451 2.899999917829961
    vertex 43.596073134556164 -3.8315811989694515 4.299999902262328
    vertex 46.04607313455617 -3.8315811989694515 4.299999902262328
  endloop
endfacet
facet normal 0.0 -1.0 -5.035654489116409e-16
  outer loop
    vertex 43.596073134556164 -4.631581198969451 4.299999902262328
    vertex 43.596073134556164 -4.631581198969451 2.8999999178299625
    vertex 45.24607313455617 -4.631581198969451 4.299999902262328
  endloop
endfacet
facet normal 0.9999999998319261 -1.833433305408658e-05 0.0
  outer loop
    vertex 46.04604363102075 -5.4407771989694504 2.899999917829961
    vertex 46.04607313455617 -3.8315811989694515 4.299999902262328
    vertex 46.04604363102075 -5.440777198969451 4.299999902262328
  endloop
endfacet
facet normal 0.9999999998319261 -1.833433305408658e-05 0.0
  outer loop
    vertex 46.04607313455617 -3.8315811989694515 4.299999902262328
    vertex 46.04604363102075 -5.4407771989694504 2.899999917829961
    vertex 46.04607313455617 -3.831581198969451 2.899999917829961
  endloop
endfacet
facet normal -1.0 4.730034305435803e-10 4.913848021392353e-10
  outer loop
    vertex 45.24604363102075 -5.440777198969451 4.299999902262328
    vertex 45.24604362930091 -6.53158119619989 1.4999999022623278
    vertex 45.24604363102075 -6.531581198969451 4.299999902262328
  endloop
endfacet
facet normal -1.0 4.730034305435803e-10 4.913848021392353e-10
  outer loop
    vertex 45.24604362930091 -6.53158119619989 1.4999999022623278
    vertex 45.24604363102075 -5.440777198969451 4.299999902262328
    vertex 45.24604363102075 -5.4407771989694504 2.8999999178299625
  endloop
endfacet
facet normal 7.550283939098708e-10 -0.7888290021609703 0.6146127279431564
  outer loop
    vertex 45.24604363102075 -5.4407771989694504 2.8999999178299625
    vertex 43.59604362930091 -6.53158119619989 1.49999990428929
    vertex 45.24604362930091 -6.53158119619989 1.4999999022623278
  endloop
endfacet
facet normal 7.550283939098708e-10 -0.7888290021609703 0.6146127279431564
  outer loop
    vertex 43.59604362930091 -6.53158119619989 1.49999990428929
    vertex 45.24604363102075 -5.4407771989694504 2.8999999178299625
    vertex 43.59604363102075 -5.4407771989694504 2.8999999198569246
  endloop
endfacet
facet normal 5.502614215830121e-05 -0.9999999959832724 7.075011777112784e-05
  outer loop
    vertex 43.596073134556164 -4.631581198969451 2.8999999178299625
    vertex 42.24604363102075 -4.631581198969451 4.299999902262328
    vertex 42.246074480630874 -4.631828822400256 1.4999999178299626
  endloop
endfacet
facet normal 5.502614215830121e-05 -0.9999999959832724 7.075011777112784e-05
  outer loop
    vertex 42.24604363102075 -4.631581198969451 4.299999902262328
    vertex 43.596073134556164 -4.631581198969451 2.8999999178299625
    vertex 43.596073134556164 -4.631581198969451 4.299999902262328
  endloop
endfacet
facet normal 0.9999999997046491 -2.226488098694229e-05 9.745609803719358e-06
  outer loop
    vertex 43.59616086607409 -1.7325221785260607 -3.2999999999999994
    vertex 43.59605171603016 -5.440777199214176 1.8999999178299625
    vertex 43.59616086607409 -5.4417181785260595 -3.2999999999999994
  endloop
endfacet
facet normal 0.9999999997046491 -2.226488098694229e-05 9.745609803719358e-06
  outer loop
    vertex 43.59605171603016 -5.440777199214176 1.8999999178299625
    vertex 43.59616086607409 -1.7325221785260607 -3.2999999999999994
    vertex 43.59605171603016 -5.040777199214175 1.8999999178299625
  endloop
endfacet
facet normal 0.9999999997046491 -2.226488098694229e-05 9.745609803719358e-06
  outer loop
    vertex 43.59605171603016 -5.040777199214175 1.8999999178299625
    vertex 43.59616086607409 -1.7325221785260607 -3.2999999999999994
    vertex 43.59607313431047 -4.631581199470424 2.4999999178299626
  endloop
endfacet
facet normal 0.9999999997046491 -2.226488098694229e-05 9.745609803719358e-06
  outer loop
    vertex 43.59607313431047 -4.631581199470424 2.4999999178299626
    vertex 43.59616086607409 -1.7325221785260607 -3.2999999999999994
    vertex 43.596073134556164 -3.831581198969451 2.899999917829961
  endloop
endfacet
facet normal 0.9999999997046491 -2.226488098694229e-05 9.745609803719358e-06
  outer loop
    vertex 43.596073134556164 -3.831581198969451 2.899999917829961
    vertex 43.59616086607409 -1.7325221785260607 4.299999902262328
    vertex 43.596073134556164 -3.8315811989694515 4.299999902262328
  endloop
endfacet
facet normal 0.9999999997046491 -2.226488098694229e-05 9.745609803719358e-06
  outer loop
    vertex 43.59616086607409 -1.7325221785260607 4.299999902262328
    vertex 43.596073134556164 -3.831581198969451 2.899999917829961
    vertex 43.59616086607409 -1.7325221785260607 -3.2999999999999994
  endloop
endfacet
facet normal 0.9999999997046491 -2.226488098694229e-05 9.745609803719358e-06
  outer loop
    vertex 43.59607313431047 -4.631581199470424 2.4999999178299626
    vertex 43.596058214898264 -5.0407771997362945 2.4999999188549613
    vertex 43.59605171603016 -5.040777199214175 1.8999999178299625
  endloop
endfacet
facet normal -0.7198673914390038 -5.2195460878178304e-05 0.6941116163978515
  outer loop
    vertex 43.596073134556164 -4.631581198969451 2.8999999178299625
    vertex 42.24622159715176 -5.433872808907686 1.4999999162431321
    vertex 43.59604363102075 -5.4407771989694504 2.8999999198569246
  endloop
endfacet
facet normal -0.7198673914390038 -5.2195460878178304e-05 0.6941116163978515
  outer loop
    vertex 42.24622159715176 -5.433872808907686 1.4999999162431321
    vertex 43.596073134556164 -4.631581198969451 2.8999999178299625
    vertex 42.246074480630874 -4.631828822400256 1.4999999178299626
  endloop
endfacet
facet normal 0.00014470186148971023 -0.7888289939025576 0.6146127215084717
  outer loop
    vertex 43.59604363102075 -5.4407771989694504 2.8999999198569246
    vertex 42.246074480630895 -6.531828822400254 1.4999999178299626
    vertex 43.59604362930091 -6.53158119619989 1.49999990428929
  endloop
endfacet
facet normal -0.7198897791945271 9.645994905039314e-05 0.6940883924304838
  outer loop
    vertex 42.24622159715176 -5.433872808907686 1.4999999162431321
    vertex 42.246074480630895 -6.531828822400254 1.4999999178299626
    vertex 43.59604363102075 -5.4407771989694504 2.8999999198569246
  endloop
endfacet
facet normal -2.400068756531862e-16 0.44721359527591537 -0.8944271911119371
  outer loop
    vertex 43.596073134556164 -3.831581198969451 2.899999917829961
    vertex 45.24607313431048 -4.631581199470424 2.4999999178299612
    vertex 43.59607313431047 -4.631581199470424 2.4999999178299626
  endloop
endfacet
facet normal -2.400068756531862e-16 0.44721359527591537 -0.8944271911119371
  outer loop
    vertex 45.24607313431048 -4.631581199470424 2.4999999178299612
    vertex 43.596073134556164 -3.831581198969451 2.899999917829961
    vertex 46.04607313455617 -3.831581198969451 2.899999917829961
  endloop
endfacet
facet normal 0.4472175295186224 -9.835506227241454e-06 -0.8944252239256912
  outer loop
    vertex 45.24605821489826 -5.0407771997362945 2.4999999188549613
    vertex 46.04604363102075 -5.4407771989694504 2.899999917829961
    vertex 45.246043630775056 -5.440777199470424 2.4999999178299626
  endloop
endfacet
facet normal 0.4472175295186224 -9.835506227241454e-06 -0.8944252239256912
  outer loop
    vertex 46.04604363102075 -5.4407771989694504 2.899999917829961
    vertex 45.24605821489826 -5.0407771997362945 2.4999999188549613
    vertex 45.24607313431048 -4.631581199470424 2.4999999178299612
  endloop
endfacet
facet normal 0.4472175295186224 -9.835506227241454e-06 -0.8944252239256912
  outer loop
    vertex 46.04604363102075 -5.4407771989694504 2.899999917829961
    vertex 45.24607313431048 -4.631581199470424 2.4999999178299612
    vertex 46.04607313455617 -3.831581198969451 2.899999917829961
  endloop
endfacet
facet normal -0.999999999335323 3.646030800776618e-05 1.8862716458639804e-20
  outer loop
    vertex 45.24607313455617 -4.631581198969451 4.299999902262328
    vertex 45.24604363102075 -5.4407771989694504 2.8999999178299625
    vertex 45.24604363102075 -5.440777198969451 4.299999902262328
  endloop
endfacet
facet normal 6.147468961303076e-10 -0.8657827898413053 0.5004199844276868
  outer loop
    vertex 45.24607313455617 -4.631581198969451 4.299999902262328
    vertex 43.59604363102075 -5.4407771989694504 2.8999999198569246
    vertex 45.24604363102075 -5.4407771989694504 2.8999999178299625
  endloop
endfacet
facet normal -0.6469774438321989 2.359090690796192e-05 0.7625091387097096
  outer loop
    vertex 45.24607313455617 -4.631581198969451 4.299999902262328
    vertex 43.596073134556164 -4.631581198969451 2.8999999178299625
    vertex 43.59604363102075 -5.4407771989694504 2.8999999198569246
  endloop
endfacet
facet normal -4.2726764885196985e-16 -2.504910364298019e-09 -1.0
  outer loop
    vertex 43.59607313431047 -4.631581199470424 2.4999999178299626
    vertex 45.24605821489826 -5.0407771997362945 2.4999999188549613
    vertex 43.596058214898264 -5.0407771997362945 2.4999999188549613
  endloop
endfacet
facet normal -4.2726764885196985e-16 -2.504910364298019e-09 -1.0
  outer loop
    vertex 45.24605821489826 -5.0407771997362945 2.4999999188549613
    vertex 43.59607313431047 -4.631581199470424 2.4999999178299626
    vertex 45.24607313431048 -4.631581199470424 2.4999999178299612
  endloop
endfacet
facet normal 1.870774569710394e-05 0.9999999906502203 -0.00013546062117524024
  outer loop
    vertex 43.59605171603016 -5.440777199214176 1.8999999178299625
    vertex 52.79616086607409 -5.4417181785260595 -3.2999999999999994
    vertex 43.59616086607409 -5.4417181785260595 -3.2999999999999994
  endloop
endfacet
facet normal 1.870774569710394e-05 0.9999999906502203 -0.00013546062117524024
  outer loop
    vertex 52.79616086607409 -5.4417181785260595 -3.2999999999999994
    vertex 43.59605171603016 -5.440777199214176 1.8999999178299625
    vertex 45.246043630837185 -5.440777199214176 1.8999999178299625
  endloop
endfacet
facet normal 1.870774569710394e-05 0.9999999906502203 -0.00013546062117524024
  outer loop
    vertex 52.79616086607409 -5.4417181785260595 -3.2999999999999994
    vertex 45.246043630837185 -5.440777199214176 1.8999999178299625
    vertex 52.796043631020765 -5.440777198969451 4.299999902262328
  endloop
endfacet
facet normal 1.870774569710394e-05 0.9999999906502203 -0.00013546062117524024
  outer loop
    vertex 52.796043631020765 -5.440777198969451 4.299999902262328
    vertex 45.246043630837185 -5.440777199214176 1.8999999178299625
    vertex 45.246043630775056 -5.440777199470424 2.4999999178299626
  endloop
endfacet
facet normal 1.870774569710394e-05 0.9999999906502203 -0.00013546062117524024
  outer loop
    vertex 52.796043631020765 -5.440777198969451 4.299999902262328
    vertex 45.246043630775056 -5.440777199470424 2.4999999178299626
    vertex 46.04604363102075 -5.4407771989694504 2.899999917829961
  endloop
endfacet
facet normal 1.870774569710394e-05 0.9999999906502203 -0.00013546062117524024
  outer loop
    vertex 52.796043631020765 -5.440777198969451 4.299999902262328
    vertex 46.04604363102075 -5.4407771989694504 2.899999917829961
    vertex 46.04604363102075 -5.440777198969451 4.299999902262328
  endloop
endfacet
facet normal 0.999999999335323 -3.646030800763533e-05 3.222787986638521e-22
  outer loop
    vertex 45.246043630837185 -5.440777199214176 1.8999999178299625
    vertex 45.24605821489826 -5.0407771997362945 2.4999999188549613
    vertex 45.246043630775056 -5.440777199470424 2.4999999178299626
  endloop
endfacet
facet normal 0.999999999335323 -3.646030800763533e-05 3.222787986638521e-22
  outer loop
    vertex 45.24605821489826 -5.0407771997362945 2.4999999188549613
    vertex 45.246043630837185 -5.440777199214176 1.8999999178299625
    vertex 45.246058214960385 -5.040777199480046 1.8999999188549612
  endloop
endfacet
facet normal 3.1060715759037913e-10 1.2812425839712186e-09 -1.0
  outer loop
    vertex 45.246058214960385 -5.040777199480046 1.8999999188549612
    vertex 43.59605171603016 -5.440777199214176 1.8999999178299625
    vertex 43.59605171603016 -5.040777199214175 1.8999999178299625
  endloop
endfacet
facet normal 3.1060715759037913e-10 1.2812425839712186e-09 -1.0
  outer loop
    vertex 43.59605171603016 -5.440777199214176 1.8999999178299625
    vertex 45.246058214960385 -5.040777199480046 1.8999999188549612
    vertex 45.246043630837185 -5.440777199214176 1.8999999178299625
  endloop
endfacet
facet normal 8.056686957019135e-11 1.0 3.3233768290734336e-10
  outer loop
    vertex 43.596058214898264 -5.0407771997362945 2.4999999188549613
    vertex 45.246058214960385 -5.040777199480046 1.8999999188549612
    vertex 43.59605171603016 -5.040777199214175 1.8999999178299625
  endloop
endfacet
facet normal 8.056686957019135e-11 1.0 3.3233768290734336e-10
  outer loop
    vertex 45.246058214960385 -5.040777199480046 1.8999999188549612
    vertex 43.596058214898264 -5.0407771997362945 2.4999999188549613
    vertex 45.24605821489826 -5.0407771997362945 2.4999999188549613
  endloop
endfacet
endsolid Keyboard_Guide
