solid Keyboard_Guide
facet normal 0.0 -1.0 0.0
  outer loop
    vertex 62.900752305241326 2.8999999755655805 -4.780075336264551
    vertex 61.900752317012014 2.8999999999999986 3.419924565997775
    vertex 61.900752317012014 2.8999999999999986 -4.7800754340022245
  endloop
endfacet
facet normal 0.0 -1.0 0.0
  outer loop
    vertex 61.900752317012014 2.8999999999999986 3.419924565997775
    vertex 62.900752305241326 2.8999999755655805 -4.780075336264551
    vertex 62.900752317012014 2.8999999999999986 -4.180075336264552
  endloop
endfacet
facet normal 0.0 -1.0 0.0
  outer loop
    vertex 61.900752317012014 2.8999999999999986 3.419924565997775
    vertex 62.900752317012014 2.8999999999999986 -4.180075336264552
    vertex 62.900752317012014 2.8999999999999986 3.419924565997775
  endloop
endfacet
facet normal 0.0 1.0 0.0
  outer loop
    vertex 61.900752317012014 4.499999999999999 3.419924565997775
    vertex 62.900752317012014 4.499999999999999 -4.7800754340022245
    vertex 61.900752317012014 4.499999999999999 -4.7800754340022245
  endloop
endfacet
facet normal 0.0 1.0 0.0
  outer loop
    vertex 62.900752317012014 4.499999999999999 -4.7800754340022245
    vertex 61.900752317012014 4.499999999999999 3.419924565997775
    vertex 62.900752317012014 4.499999999999999 3.419924565997775
  endloop
endfacet
facet normal -1.0 0.0 0.0
  outer loop
    vertex 62.900752317012014 5.0 3.419924565997775
    vertex 62.900752317012014 4.499999999999999 -4.7800754340022245
    vertex 62.900752317012014 4.499999999999999 3.419924565997775
  endloop
endfacet
facet normal -1.0 0.0 0.0
  outer loop
    vertex 62.900752317012014 4.499999999999999 -4.7800754340022245
    vertex 62.900752317012014 5.0 3.419924565997775
    vertex 62.900752317012014 5.0 -4.7800754340022245
  endloop
endfacet
facet normal -0.9650812745905352 0.261950631674574 0.0
  outer loop
    vertex 63.362180888440584 6.699999999999999 3.419924565997775
    vertex 62.900752317012014 5.0 -4.7800754340022245
    vertex 62.900752317012014 5.0 3.419924565997775
  endloop
endfacet
facet normal -0.9650812745905352 0.261950631674574 0.0
  outer loop
    vertex 62.900752317012014 5.0 -4.7800754340022245
    vertex 63.362180888440584 6.699999999999999 3.419924565997775
    vertex 63.362180888440584 6.699999999999999 -4.7800754340022245
  endloop
endfacet
facet normal 1.9805930929831656e-07 0.9999999923227788 0.00012391288477505357
  outer loop
    vertex 74.76481362076261 6.699999999999999 3.419924565997775
    vertex 75.40074950933464 6.701015030485276 -4.778877586113023
    vertex 74.76481532479872 6.701015030485276 -4.780075319906179
  endloop
endfacet
facet normal 1.9805930929831656e-07 0.9999999923227788 0.00012391288477505357
  outer loop
    vertex 75.40074950933464 6.701015030485276 -4.778877586113023
    vertex 74.76481362076261 6.699999999999999 3.419924565997775
    vertex 75.40176358951896 6.698522075486378 0.4165406212304945
  endloop
endfacet
facet normal 1.9805930929831656e-07 0.9999999923227788 0.00012391288477505357
  outer loop
    vertex 75.40176358951896 6.698522075486378 0.4165406212304945
    vertex 74.76481362076261 6.699999999999999 3.419924565997775
    vertex 76.36582940498303 6.698522075486378 0.4213698874373377
  endloop
endfacet
facet normal 1.9805930929831656e-07 0.9999999923227788 0.00012391288477505357
  outer loop
    vertex 76.36582940498303 6.698522075486378 0.4213698874373377
    vertex 74.76481362076261 6.699999999999999 3.419924565997775
    vertex 76.3648136207626 6.699999999999999 3.4084995659977744
  endloop
endfacet
facet normal 1.9805930929831656e-07 0.9999999923227788 0.00012391288477505357
  outer loop
    vertex 76.3648136207626 6.699999999999999 3.4084995659977744
    vertex 74.76481362076261 6.699999999999999 3.419924565997775
    vertex 75.5648136207626 6.699999999999999 3.419924565997775
  endloop
endfacet
facet normal 0.9999999603088106 -0.00028062401499452015 -2.5150338600501514e-05
  outer loop
    vertex 76.40063508195868 2.9009409795566077 -4.180075336264552
    vertex 76.40176810123243 2.898522075486379 0.415342887437338
    vertex 76.40063508195868 1.6509409795566077 -4.180075336264552
  endloop
endfacet
facet normal 0.9999999603088106 -0.00028062401499452015 -2.5150338600501514e-05
  outer loop
    vertex 76.40063508195868 1.6509409795566077 -4.180075336264552
    vertex 76.400752317012 2.8999999999999995 3.419924565997775
    vertex 76.400752317012 1.6499999999999997 3.419924565997775
  endloop
endfacet
facet normal 0.9999999603088106 -0.00028062401499452015 -2.5150338600501514e-05
  outer loop
    vertex 76.400752317012 2.8999999999999995 3.419924565997775
    vertex 76.40063508195868 1.6509409795566077 -4.180075336264552
    vertex 76.40176810123243 2.898522075486379 0.415342887437338
  endloop
endfacet
facet normal 0.0 1.0 0.0
  outer loop
    vertex 76.400752317012 1.6499999999999997 3.419924565997775
    vertex 77.20063508195868 1.6509409795566077 -4.180075336264552
    vertex 76.40063508195868 1.6509409795566077 -4.180075336264552
  endloop
endfacet
facet normal 0.0 1.0 0.0
  outer loop
    vertex 77.20063508195868 1.6509409795566077 -4.180075336264552
    vertex 76.400752317012 1.6499999999999997 3.419924565997775
    vertex 77.200752317012 1.6499999999999997 3.419924565997775
  endloop
endfacet
facet normal 0.8998141071961993 -0.43627350651937014 0.0
  outer loop
    vertex 76.40063508195868 0.0009409795566076351 -4.180075336264552
    vertex 77.200752317012 1.6499999999999997 3.419924565997775
    vertex 76.400752317012 0.0 3.419924565997775
  endloop
endfacet
facet normal 0.8998141071961993 -0.43627350651937014 0.0
  outer loop
    vertex 77.200752317012 1.6499999999999997 3.419924565997775
    vertex 76.40063508195868 0.0009409795566076351 -4.180075336264552
    vertex 77.20063508195868 1.6509409795566077 -4.180075336264552
  endloop
endfacet
facet normal -0.8320502930404381 -0.55470019536029 -5.584422221779309e-05
  outer loop
    vertex 61.80075231701201 1.6499999999999984 3.419924565997775
    vertex 62.9006659315688 0.0006933561258030185 -1.380075351832187
    vertex 62.900752317012014 0.0 3.419924565997775
  endloop
endfacet
facet normal -0.8320502930404381 -0.55470019536029 -5.584422221779309e-05
  outer loop
    vertex 62.9006659315688 0.0006933561258030185 -1.380075351832187
    vertex 61.80075231701201 1.6499999999999984 3.419924565997775
    vertex 62.900635081958676 0.0009409795566076351 -4.180075336264552
  endloop
endfacet
facet normal -0.8320502930404381 -0.55470019536029 -5.584422221779309e-05
  outer loop
    vertex 62.900635081958676 0.0009409795566076351 -4.180075336264552
    vertex 61.80075231701201 1.6499999999999984 3.419924565997775
    vertex 61.80063508195868 1.6509409795566063 -4.180075336264552
  endloop
endfacet
facet normal 0.0 1.0 0.0
  outer loop
    vertex 61.80075231701201 1.6499999999999984 3.419924565997775
    vertex 62.90063508195869 1.6509409795566063 -4.180075336264552
    vertex 61.80063508195868 1.6509409795566063 -4.180075336264552
  endloop
endfacet
facet normal 0.0 1.0 0.0
  outer loop
    vertex 62.90063508195869 1.6509409795566063 -4.180075336264552
    vertex 61.80075231701201 1.6499999999999984 3.419924565997775
    vertex 62.900752317012014 1.6499999999999984 3.419924565997775
  endloop
endfacet
facet normal -0.9999999988707098 4.6894007982893496e-05 7.71573559282189e-06
  outer loop
    vertex 62.900752317012014 2.8999999999999986 3.419924565997775
    vertex 62.90063508195869 1.6509409795566063 -4.180075336264552
    vertex 62.900752317012014 1.6499999999999984 3.419924565997775
  endloop
endfacet
facet normal -0.9999999988707098 4.6894007982893496e-05 7.71573559282189e-06
  outer loop
    vertex 62.90063508195869 1.6509409795566063 -4.180075336264552
    vertex 62.900752317012014 2.8999999999999986 3.419924565997775
    vertex 62.900752317012014 2.8999999999999986 -4.180075336264552
  endloop
endfacet
facet normal 0.0 0.0 1.0
  outer loop
    vertex 62.900752317012014 1.6499999999999984 3.419924565997775
    vertex 61.80075231701201 1.6499999999999984 3.419924565997775
    vertex 62.900752317012014 0.0 3.419924565997775
  endloop
endfacet
facet normal 0.0 0.0 1.0
  outer loop
    vertex 77.200752317012 1.6499999999999997 3.419924565997775
    vertex 76.400752317012 1.6499999999999997 3.419924565997775
    vertex 76.400752317012 0.0 3.419924565997775
  endloop
endfacet
facet normal 0.0 0.0 1.0
  outer loop
    vertex 62.900752317012014 -1.9000000000000008 3.419924565997775
    vertex 64.25075231701202 -0.8091960000000002 3.419924565997775
    vertex 62.900752317012014 0.0 3.419924565997775
  endloop
endfacet
facet normal 0.0 0.0 1.0
  outer loop
    vertex 64.25075231701202 -0.8091960000000002 3.419924565997775
    vertex 62.900752317012014 -1.9000000000000008 3.419924565997775
    vertex 76.400752317012 -1.9000000000000008 3.419924565997775
  endloop
endfacet
facet normal 0.0 0.0 1.0
  outer loop
    vertex 62.900752317012014 0.0 3.419924565997775
    vertex 64.25075231701202 -0.8091960000000002 3.419924565997775
    vertex 62.900752317012014 1.6499999999999984 3.419924565997775
  endloop
endfacet
facet normal 0.0 0.0 1.0
  outer loop
    vertex 62.900752317012014 1.6499999999999984 3.419924565997775
    vertex 64.25075231701202 -0.8091960000000002 3.419924565997775
    vertex 62.900752317012014 2.8999999999999986 3.419924565997775
  endloop
endfacet
facet normal 0.0 0.0 1.0
  outer loop
    vertex 64.25075231701202 -0.8091960000000002 3.419924565997775
    vertex 76.400752317012 -1.9000000000000008 3.419924565997775
    vertex 73.45075231701202 -0.8091960000000002 3.419924565997775
  endloop
endfacet
facet normal 0.0 0.0 1.0
  outer loop
    vertex 73.45075231701202 -0.8091960000000002 3.419924565997775
    vertex 76.400752317012 -1.9000000000000008 3.419924565997775
    vertex 73.45075231701202 2.8999999999999986 3.419924565997775
  endloop
endfacet
facet normal 0.0 0.0 1.0
  outer loop
    vertex 73.45075231701202 2.8999999999999986 3.419924565997775
    vertex 76.400752317012 -1.9000000000000008 3.419924565997775
    vertex 76.400752317012 2.8999999999999995 3.419924565997775
  endloop
endfacet
facet normal 0.0 0.0 1.0
  outer loop
    vertex 76.400752317012 2.8999999999999995 3.419924565997775
    vertex 76.400752317012 -1.9000000000000008 3.419924565997775
    vertex 76.400752317012 0.0 3.419924565997775
  endloop
endfacet
facet normal 0.0 0.0 1.0
  outer loop
    vertex 76.400752317012 2.8999999999999995 3.419924565997775
    vertex 76.400752317012 0.0 3.419924565997775
    vertex 76.400752317012 1.6499999999999997 3.419924565997775
  endloop
endfacet
facet normal 0.0 0.0 1.0
  outer loop
    vertex 64.25075231701202 2.8999999999999986 3.419924565997775
    vertex 62.900752317012014 2.8999999999999986 3.419924565997775
    vertex 64.25075231701202 -0.8091960000000002 3.419924565997775
  endloop
endfacet
facet normal 0.0 0.0 -1.0
  outer loop
    vertex 61.900752317012014 4.499999999999999 -4.7800754340022245
    vertex 61.500752317012015 3.299999999999999 -4.7800754340022245
    vertex 61.500752317012015 4.099999999999999 -4.7800754340022245
  endloop
endfacet
facet normal 0.0 0.0 -1.0
  outer loop
    vertex 61.500752317012015 3.299999999999999 -4.7800754340022245
    vertex 61.900752317012014 4.499999999999999 -4.7800754340022245
    vertex 61.900752317012014 2.8999999999999986 -4.7800754340022245
  endloop
endfacet
facet normal -0.7071067811865481 0.707106781186547 2.5726618982560706e-33
  outer loop
    vertex 61.900752317012014 4.499999999999999 3.419924565997775
    vertex 61.500752317012015 4.099999999999999 -4.7800754340022245
    vertex 61.500752317012015 4.099999999999999 3.4199245659977744
  endloop
endfacet
facet normal -0.7071067811865481 0.707106781186547 2.5726618982560706e-33
  outer loop
    vertex 61.500752317012015 4.099999999999999 -4.7800754340022245
    vertex 61.900752317012014 4.499999999999999 3.419924565997775
    vertex 61.900752317012014 4.499999999999999 -4.7800754340022245
  endloop
endfacet
facet normal -0.7071067811865485 -0.7071067811865467 2.9949062679836904e-33
  outer loop
    vertex 61.500752317012015 3.299999999999999 3.4199245659977744
    vertex 61.900752317012014 2.8999999999999986 -4.7800754340022245
    vertex 61.900752317012014 2.8999999999999986 3.419924565997775
  endloop
endfacet
facet normal -0.7071067811865485 -0.7071067811865467 2.9949062679836904e-33
  outer loop
    vertex 61.900752317012014 2.8999999999999986 -4.7800754340022245
    vertex 61.500752317012015 3.299999999999999 3.4199245659977744
    vertex 61.500752317012015 3.299999999999999 -4.7800754340022245
  endloop
endfacet
facet normal -0.9999999998809053 1.3584517014691928e-08 1.5433389324445298e-05
  outer loop
    vertex 73.45075231701202 2.8999999999999986 3.419924565997775
    vertex 73.4506350819587 -0.8082550204433919 -4.180075336264552
    vertex 73.45075231701202 -0.8091960000000002 3.419924565997775
  endloop
endfacet
facet normal -0.9999999998809053 1.3584517014691928e-08 1.5433389324445298e-05
  outer loop
    vertex 73.4506350819587 -0.8082550204433919 -4.180075336264552
    vertex 73.45075231701202 2.8999999999999986 3.419924565997775
    vertex 73.4506350819587 2.9009409795566077 -4.180075336264552
  endloop
endfacet
facet normal -0.9999999998809053 1.3584517014691928e-08 1.5433389324445298e-05
  outer loop
    vertex 73.4506350819587 2.9009409795566077 -4.180075336264552
    vertex 73.45075231701202 2.8999999999999986 3.419924565997775
    vertex 73.45075231701202 4.750120553625207 3.4084995659977744
  endloop
endfacet
facet normal -0.9999999998809053 1.3584517014691928e-08 1.5433389324445298e-05
  outer loop
    vertex 73.4506350819587 2.9009409795566077 -4.180075336264552
    vertex 73.45075231701202 4.750120553625207 3.4084995659977744
    vertex 73.45075402104813 2.901015030485276 -4.780075319906179
  endloop
endfacet
facet normal -0.9999999998809053 1.3584517014691928e-08 1.5433389324445298e-05
  outer loop
    vertex 73.45075402104813 2.901015030485276 -4.780075319906179
    vertex 73.45075231701202 4.750120553625207 3.4084995659977744
    vertex 73.45075402104813 4.751135584110483 -4.780075319906179
  endloop
endfacet
facet normal 0.0 0.0 -1.0
  outer loop
    vertex 63.362180888440584 6.699999999999999 -4.7800754340022245
    vertex 62.900752317012014 4.499999999999999 -4.7800754340022245
    vertex 62.900752317012014 5.0 -4.7800754340022245
  endloop
endfacet
facet normal 0.0 0.0 -1.0
  outer loop
    vertex 62.900752317012014 4.499999999999999 -4.7800754340022245
    vertex 63.362180888440584 6.699999999999999 -4.7800754340022245
    vertex 64.25075231701202 4.499999999999999 -4.7800754340022245
  endloop
endfacet
facet normal 0.0 0.0 -1.0
  outer loop
    vertex 64.25075231701202 4.499999999999999 -4.7800754340022245
    vertex 63.362180888440584 6.699999999999999 -4.7800754340022245
    vertex 63.94075231701202 6.699999999999999 -4.7800754340022245
  endloop
endfacet
facet normal 0.0 1.0 0.0
  outer loop
    vertex 63.362180888440584 6.699999999999999 3.419924565997775
    vertex 63.94075231701202 6.699999999999999 -4.7800754340022245
    vertex 63.362180888440584 6.699999999999999 -4.7800754340022245
  endloop
endfacet
facet normal 0.0 1.0 0.0
  outer loop
    vertex 63.94075231701202 6.699999999999999 -4.7800754340022245
    vertex 63.362180888440584 6.699999999999999 3.419924565997775
    vertex 63.94075231701202 6.699999999999999 3.4199245659977766
  endloop
endfacet
facet normal -3.0106862786483366e-06 -0.9999999917452335 -0.00012845415016384857
  outer loop
    vertex 76.400752317012 -1.9000000000000008 3.419924565997775
    vertex 65.90063508195868 -1.8990590204433917 -4.180075336264552
    vertex 76.40063508195868 -1.8990590204433917 -4.180075336264552
  endloop
endfacet
facet normal -3.0106862786483366e-06 -0.9999999917452335 -0.00012845415016384857
  outer loop
    vertex 65.90063508195868 -1.8990590204433917 -4.180075336264552
    vertex 76.400752317012 -1.9000000000000008 3.419924565997775
    vertex 65.90063508023883 -1.8990590176738307 -1.3800753362645524
  endloop
endfacet
facet normal -3.0106862786483366e-06 -0.9999999917452335 -0.00012845415016384857
  outer loop
    vertex 64.25063508023884 -1.8990590176738307 -1.3800753382915147
    vertex 62.900752317012014 -1.9000000000000008 3.419924565997775
    vertex 62.900665931568824 -1.8993066438741941 -1.380075351832187
  endloop
endfacet
facet normal -3.0106862786483366e-06 -0.9999999917452335 -0.00012845415016384857
  outer loop
    vertex 62.900752317012014 -1.9000000000000008 3.419924565997775
    vertex 64.25063508023884 -1.8990590176738307 -1.3800753382915147
    vertex 65.90063508023883 -1.8990590176738307 -1.3800753362645524
  endloop
endfacet
facet normal -3.0106862786483366e-06 -0.9999999917452335 -0.00012845415016384857
  outer loop
    vertex 62.900752317012014 -1.9000000000000008 3.419924565997775
    vertex 65.90063508023883 -1.8990590176738307 -1.3800753362645524
    vertex 76.400752317012 -1.9000000000000008 3.419924565997775
  endloop
endfacet
facet normal -0.9999999998810245 -4.452576707128644e-15 1.5425665109157154e-05
  outer loop
    vertex 62.900752317012014 0.0 3.419924565997775
    vertex 62.900665931568824 -1.8993066438741941 -1.380075351832187
    vertex 62.900752317012014 -1.9000000000000008 3.419924565997775
  endloop
endfacet
facet normal -0.9999999998810245 -4.452576707128644e-15 1.5425665109157154e-05
  outer loop
    vertex 62.900665931568824 -1.8993066438741941 -1.380075351832187
    vertex 62.900752317012014 0.0 3.419924565997775
    vertex 62.90081304808969 -0.8013506303816261 -1.3800753502453569
  endloop
endfacet
facet normal -0.9999999998810245 -4.452576707128644e-15 1.5425665109157154e-05
  outer loop
    vertex 62.90081304808969 -0.8013506303816261 -1.3800753502453569
    vertex 62.900752317012014 0.0 3.419924565997775
    vertex 62.9006659315688 0.0006933561258030185 -1.380075351832187
  endloop
endfacet
facet normal 1.0 0.0 0.0
  outer loop
    vertex 76.40063508195868 -1.8990590204433917 -4.180075336264552
    vertex 76.400752317012 0.0 3.419924565997775
    vertex 76.400752317012 -1.9000000000000008 3.419924565997775
  endloop
endfacet
facet normal 1.0 0.0 0.0
  outer loop
    vertex 76.400752317012 0.0 3.419924565997775
    vertex 76.40063508195868 -1.8990590204433917 -4.180075336264552
    vertex 76.40063508195868 0.0009409795566076351 -4.180075336264552
  endloop
endfacet
facet normal 0.0 0.0 -1.0
  outer loop
    vertex 64.25075231701202 2.8999999999999986 -4.180075336264552
    vertex 64.25066458549409 0.8009409795566076 -4.180075336264552
    vertex 62.900752317012014 2.8999999999999986 -4.180075336264552
  endloop
endfacet
facet normal 0.0 0.0 -1.0
  outer loop
    vertex 62.90063508195869 1.6509409795566063 -4.180075336264552
    vertex 62.900635081958676 0.0009409795566076351 -4.180075336264552
    vertex 61.80063508195868 1.6509409795566063 -4.180075336264552
  endloop
endfacet
facet normal 0.0 0.0 -1.0
  outer loop
    vertex 62.900635081958676 0.0009409795566076351 -4.180075336264552
    vertex 62.90063508195869 1.6509409795566063 -4.180075336264552
    vertex 64.25066458549409 0.0009409795566076351 -4.180075336264552
  endloop
endfacet
facet normal 0.0 0.0 -1.0
  outer loop
    vertex 64.25066458549409 0.0009409795566076351 -4.180075336264552
    vertex 62.90063508195869 1.6509409795566063 -4.180075336264552
    vertex 62.900752317012014 2.8999999999999986 -4.180075336264552
  endloop
endfacet
facet normal 0.0 0.0 -1.0
  outer loop
    vertex 64.25066458549409 0.0009409795566076351 -4.180075336264552
    vertex 62.900752317012014 2.8999999999999986 -4.180075336264552
    vertex 64.25066458549409 0.8009409795566076 -4.180075336264552
  endloop
endfacet
facet normal 0.8050949196707956 0.5931459941028643 -4.446031004315968e-32
  outer loop
    vertex 77.55230028854736 6.028887950920419 0.415342887437338
    vertex 77.900752317012 5.556022689475643 3.4084995659977744
    vertex 77.90176810123243 5.554544764962025 0.415342887437338
  endloop
endfacet
facet normal 0.8050949196707956 0.5931459941028643 -4.446031004315968e-32
  outer loop
    vertex 77.900752317012 5.556022689475643 3.4084995659977744
    vertex 77.55230028854736 6.028887950920419 0.415342887437338
    vertex 77.55128450432696 6.030365875434037 3.4084995659977744
  endloop
endfacet
facet normal 1.0 0.0 0.0
  outer loop
    vertex 77.90176810123243 5.554544764962025 0.415342887437338
    vertex 77.900752317012 5.009450580022813 3.4084995659977744
    vertex 77.90176810123243 5.007972655509194 0.415342887437338
  endloop
endfacet
facet normal 1.0 0.0 0.0
  outer loop
    vertex 77.900752317012 5.009450580022813 3.4084995659977744
    vertex 77.90176810123243 5.554544764962025 0.415342887437338
    vertex 77.900752317012 5.556022689475643 3.4084995659977744
  endloop
endfacet
facet normal 0.49151208323638934 0.8708707550679521 -4.173663252206933e-18
  outer loop
    vertex 76.36582940498303 6.698522075486378 0.4213698874373377
    vertex 77.55128450432696 6.030365875434037 3.4084995659977744
    vertex 77.55230028854736 6.028887950920419 0.415342887437338
  endloop
endfacet
facet normal 0.49151208323638934 0.8708707550679521 -4.173663252206933e-18
  outer loop
    vertex 77.55128450432696 6.030365875434037 3.4084995659977744
    vertex 76.36582940498303 6.698522075486378 0.4213698874373377
    vertex 76.3648136207626 6.699999999999999 3.4084995659977744
  endloop
endfacet
facet normal 1.0 0.0 0.0
  outer loop
    vertex 78.00176810123243 4.022104938378402 0.415342887437338
    vertex 78.00075231701202 2.8999999999999995 3.4084995659977744
    vertex 78.00176810123243 2.898522075486379 0.415342887437338
  endloop
endfacet
facet normal 1.0 0.0 0.0
  outer loop
    vertex 78.00075231701202 2.8999999999999995 3.4084995659977744
    vertex 78.00176810123243 4.022104938378402 0.415342887437338
    vertex 78.00075231701202 4.023582862892021 3.4084995659977744
  endloop
endfacet
facet normal 0.0 1.0 0.0
  outer loop
    vertex 77.50582995475416 4.023582862892021 3.4084995659977744
    vertex 78.00176810123243 4.022104938378402 0.415342887437338
    vertex 77.50684573897459 4.022104938378402 0.415342887437338
  endloop
endfacet
facet normal 0.0 1.0 0.0
  outer loop
    vertex 78.00176810123243 4.022104938378402 0.415342887437338
    vertex 77.50582995475416 4.023582862892021 3.4084995659977744
    vertex 78.00075231701202 4.023582862892021 3.4084995659977744
  endloop
endfacet
facet normal -0.025702310823414294 0.9996696410406474 0.0
  outer loop
    vertex 76.76570179234932 3.694477555710207 3.4084995659977744
    vertex 76.97810015276104 3.6984344473127084 0.415342887437338
    vertex 76.76671757656973 3.692999631196589 0.415342887437338
  endloop
endfacet
facet normal -0.025702310823414294 0.9996696410406474 0.0
  outer loop
    vertex 76.97810015276104 3.6984344473127084 0.415342887437338
    vertex 76.76570179234932 3.694477555710207 3.4084995659977744
    vertex 76.97708436854063 3.6999123718263265 3.4084995659977744
  endloop
endfacet
facet normal 0.23390701609247166 0.9722589715825287 0.0
  outer loop
    vertex 76.56011526886115 3.7439377629836565 3.4084995659977744
    vertex 76.76671757656973 3.692999631196589 0.415342887437338
    vertex 76.56113105308157 3.742459838470038 0.415342887437338
  endloop
endfacet
facet normal 0.23390701609247166 0.9722589715825287 0.0
  outer loop
    vertex 76.76671757656973 3.692999631196589 0.415342887437338
    vertex 76.56011526886115 3.7439377629836565 3.4084995659977744
    vertex 76.76570179234932 3.694477555710207 3.4084995659977744
  endloop
endfacet
facet normal 0.47757596641128175 0.8785904599449795 0.0
  outer loop
    vertex 76.37433517990404 3.8449223622578472 3.4084995659977744
    vertex 76.56113105308157 3.742459838470038 0.415342887437338
    vertex 76.37535096412445 3.8434444377442283 0.415342887437338
  endloop
endfacet
facet normal 0.47757596641128175 0.8785904599449795 0.0
  outer loop
    vertex 76.56113105308157 3.742459838470038 0.415342887437338
    vertex 76.37433517990404 3.8449223622578472 3.4084995659977744
    vertex 76.56011526886115 3.7439377629836565 3.4084995659977744
  endloop
endfacet
facet normal 0.688698903850763 0.725047460401564 0.0
  outer loop
    vertex 76.22102213152428 3.9905494199771843 3.4084995659977744
    vertex 76.37535096412445 3.8434444377442283 0.415342887437338
    vertex 76.2220379157447 3.9890714954635653 0.415342887437338
  endloop
endfacet
facet normal 0.688698903850763 0.725047460401564 0.0
  outer loop
    vertex 76.37535096412445 3.8434444377442283 0.415342887437338
    vertex 76.22102213152428 3.9905494199771843 3.4084995659977744
    vertex 76.37433517990404 3.8449223622578472 3.4084995659977744
  endloop
endfacet
facet normal 0.8528881491215587 0.5220936746293732 0.0
  outer loop
    vertex 76.1116399388276 4.169416768304567 0.415342887437338
    vertex 76.22102213152428 3.9905494199771843 3.4084995659977744
    vertex 76.2220379157447 3.9890714954635653 0.415342887437338
  endloop
endfacet
facet normal 0.8528881491215587 0.5220936746293732 0.0
  outer loop
    vertex 76.22102213152428 3.9905494199771843 3.4084995659977744
    vertex 76.1116399388276 4.169416768304567 0.415342887437338
    vertex 76.11062415460718 4.170894692818186 3.4084995659977744
  endloop
endfacet
facet normal 0.9589544764940398 0.2835600677317637 0.0
  outer loop
    vertex 76.05168047305877 4.3721900239577725 0.415342887437338
    vertex 76.11062415460718 4.170894692818186 3.4084995659977744
    vertex 76.1116399388276 4.169416768304567 0.415342887437338
  endloop
endfacet
facet normal 0.9589544764940398 0.2835600677317637 0.0
  outer loop
    vertex 76.11062415460718 4.170894692818186 3.4084995659977744
    vertex 76.05168047305877 4.3721900239577725 0.415342887437338
    vertex 76.05066468883834 4.373667948471391 3.4084995659977744
  endloop
endfacet
facet normal 0.9996696410406475 0.025702310823411133 0.0
  outer loop
    vertex 76.04624565694265 4.5835726001490675 0.415342887437338
    vertex 76.05066468883834 4.373667948471391 3.4084995659977744
    vertex 76.05168047305877 4.3721900239577725 0.415342887437338
  endloop
endfacet
facet normal 0.9996696410406475 0.025702310823411133 0.0
  outer loop
    vertex 76.05066468883834 4.373667948471391 3.4084995659977744
    vertex 76.04624565694265 4.5835726001490675 0.415342887437338
    vertex 76.04522987272223 4.5850505246626865 3.4084995659977744
  endloop
endfacet
facet normal 0.9722589715825278 -0.23390701609247572 0.0
  outer loop
    vertex 76.09570586421609 4.789159123637237 0.415342887437338
    vertex 76.04522987272223 4.5850505246626865 3.4084995659977744
    vertex 76.04624565694265 4.5835726001490675 0.415342887437338
  endloop
endfacet
facet normal 0.9722589715825278 -0.23390701609247572 0.0
  outer loop
    vertex 76.04522987272223 4.5850505246626865 3.4084995659977744
    vertex 76.09570586421609 4.789159123637237 0.415342887437338
    vertex 76.09469007999567 4.790637048150857 3.4084995659977744
  endloop
endfacet
facet normal 0.8785904599449815 -0.4775759664112779 0.0
  outer loop
    vertex 76.19669046349028 4.974939212594358 0.415342887437338
    vertex 76.09469007999567 4.790637048150857 3.4084995659977744
    vertex 76.09570586421609 4.789159123637237 0.415342887437338
  endloop
endfacet
facet normal 0.8785904599449815 -0.4775759664112779 0.0
  outer loop
    vertex 76.09469007999567 4.790637048150857 3.4084995659977744
    vertex 76.19669046349028 4.974939212594358 0.415342887437338
    vertex 76.19567467926986 4.976417137107977 3.4084995659977744
  endloop
endfacet
facet normal 0.7250474604015689 -0.6886989038507578 0.0
  outer loop
    vertex 76.34231752120962 5.128252260974114 0.415342887437338
    vertex 76.19567467926986 4.976417137107977 3.4084995659977744
    vertex 76.19669046349028 4.974939212594358 0.415342887437338
  endloop
endfacet
facet normal 0.7250474604015689 -0.6886989038507578 0.0
  outer loop
    vertex 76.19567467926986 4.976417137107977 3.4084995659977744
    vertex 76.34231752120962 5.128252260974114 0.415342887437338
    vertex 76.34130173698921 5.129730185487734 3.4084995659977744
  endloop
endfacet
facet normal 0.522093674629363 -0.852888149121565 0.0
  outer loop
    vertex 76.5216470098302 5.2401281624048375 3.4084995659977744
    vertex 76.34231752120962 5.128252260974114 0.415342887437338
    vertex 76.52266279405062 5.2386502378912185 0.415342887437338
  endloop
endfacet
facet normal 0.522093674629363 -0.852888149121565 0.0
  outer loop
    vertex 76.34231752120962 5.128252260974114 0.415342887437338
    vertex 76.5216470098302 5.2401281624048375 3.4084995659977744
    vertex 76.34130173698921 5.129730185487734 3.4084995659977744
  endloop
endfacet
facet normal 0.28356006773176673 -0.9589544764940389 0.0
  outer loop
    vertex 76.7244202654834 5.300087628173671 3.4084995659977744
    vertex 76.52266279405062 5.2386502378912185 0.415342887437338
    vertex 76.72543604970383 5.298609703660052 0.415342887437338
  endloop
endfacet
facet normal 0.28356006773176673 -0.9589544764940389 0.0
  outer loop
    vertex 76.52266279405062 5.2386502378912185 0.415342887437338
    vertex 76.7244202654834 5.300087628173671 3.4084995659977744
    vertex 76.5216470098302 5.2401281624048375 3.4084995659977744
  endloop
endfacet
facet normal 0.025702310823414294 -0.9996696410406474 0.0
  outer loop
    vertex 76.9358028416747 5.305522444289791 3.4084995659977744
    vertex 76.72543604970383 5.298609703660052 0.415342887437338
    vertex 76.93681862589511 5.304044519776172 0.415342887437338
  endloop
endfacet
facet normal 0.025702310823414294 -0.9996696410406474 0.0
  outer loop
    vertex 76.72543604970383 5.298609703660052 0.415342887437338
    vertex 76.9358028416747 5.305522444289791 3.4084995659977744
    vertex 76.7244202654834 5.300087628173671 3.4084995659977744
  endloop
endfacet
facet normal -0.23390701609247166 -0.9722589715825287 0.0
  outer loop
    vertex 77.14138936516287 5.256062237016341 3.4084995659977744
    vertex 76.93681862589511 5.304044519776172 0.415342887437338
    vertex 77.1424051493833 5.254584312502722 0.415342887437338
  endloop
endfacet
facet normal -0.23390701609247166 -0.9722589715825287 0.0
  outer loop
    vertex 76.93681862589511 5.304044519776172 0.415342887437338
    vertex 77.14138936516287 5.256062237016341 3.4084995659977744
    vertex 76.9358028416747 5.305522444289791 3.4084995659977744
  endloop
endfacet
facet normal -0.47757596641128175 -0.8785904599449795 0.0
  outer loop
    vertex 77.32716945412 5.15507763774215 3.4084995659977744
    vertex 77.1424051493833 5.254584312502722 0.415342887437338
    vertex 77.32818523834041 5.153599713228531 0.415342887437338
  endloop
endfacet
facet normal -0.47757596641128175 -0.8785904599449795 0.0
  outer loop
    vertex 77.1424051493833 5.254584312502722 0.415342887437338
    vertex 77.32716945412 5.15507763774215 3.4084995659977744
    vertex 77.14138936516287 5.256062237016341 3.4084995659977744
  endloop
endfacet
facet normal -0.688698903850763 -0.725047460401564 0.0
  outer loop
    vertex 77.48048250249974 5.009450580022813 3.4084995659977744
    vertex 77.32818523834041 5.153599713228531 0.415342887437338
    vertex 77.48149828672017 5.007972655509194 0.415342887437338
  endloop
endfacet
facet normal -0.688698903850763 -0.725047460401564 0.0
  outer loop
    vertex 77.32818523834041 5.153599713228531 0.415342887437338
    vertex 77.48048250249974 5.009450580022813 3.4084995659977744
    vertex 77.32716945412 5.15507763774215 3.4084995659977744
  endloop
endfacet
facet normal 0.0 -1.0 0.0
  outer loop
    vertex 77.900752317012 5.009450580022813 3.4084995659977744
    vertex 77.48149828672017 5.007972655509194 0.415342887437338
    vertex 77.90176810123243 5.007972655509194 0.415342887437338
  endloop
endfacet
facet normal 0.0 -1.0 0.0
  outer loop
    vertex 77.48149828672017 5.007972655509194 0.415342887437338
    vertex 77.900752317012 5.009450580022813 3.4084995659977744
    vertex 77.48048250249974 5.009450580022813 3.4084995659977744
  endloop
endfacet
facet normal -0.28356006773176673 0.9589544764940389 0.0
  outer loop
    vertex 76.97708436854063 3.6999123718263265 3.4084995659977744
    vertex 77.18087340841424 3.758393913081542 0.415342887437338
    vertex 76.97810015276104 3.6984344473127084 0.415342887437338
  endloop
endfacet
facet normal -0.28356006773176673 0.9589544764940389 0.0
  outer loop
    vertex 77.18087340841424 3.758393913081542 0.415342887437338
    vertex 76.97708436854063 3.6999123718263265 3.4084995659977744
    vertex 77.17985762419383 3.7598718375951603 3.4084995659977744
  endloop
endfacet
facet normal -0.522093674629369 0.8528881491215615 0.0
  outer loop
    vertex 77.17985762419383 3.7598718375951603 3.4084995659977744
    vertex 77.36121868125524 3.8687918899986453 0.415342887437338
    vertex 77.18087340841424 3.758393913081542 0.415342887437338
  endloop
endfacet
facet normal -0.522093674629369 0.8528881491215615 0.0
  outer loop
    vertex 77.36121868125524 3.8687918899986453 0.415342887437338
    vertex 77.17985762419383 3.7598718375951603 3.4084995659977744
    vertex 77.36020289703482 3.8702698145122643 3.4084995659977744
  endloop
endfacet
facet normal 1.759540767962048e-06 -0.9999998785597023 0.0004928260189713785
  outer loop
    vertex 78.00075231701202 2.8999999999999995 3.4084995659977744
    vertex 76.40176810123243 2.898522075486379 0.415342887437338
    vertex 78.00176810123243 2.898522075486379 0.415342887437338
  endloop
endfacet
facet normal 1.759540767962048e-06 -0.9999998785597023 0.0004928260189713785
  outer loop
    vertex 76.40176810123243 2.898522075486379 0.415342887437338
    vertex 78.00075231701202 2.8999999999999995 3.4084995659977744
    vertex 76.400752317012 2.8999999999999995 3.419924565997775
  endloop
endfacet
facet normal -0.7250474604015622 0.6886989038507648 0.0
  outer loop
    vertex 77.36020289703482 3.8702698145122643 3.4084995659977744
    vertex 77.50684573897459 4.022104938378402 0.415342887437338
    vertex 77.36121868125524 3.8687918899986453 0.415342887437338
  endloop
endfacet
facet normal -0.7250474604015622 0.6886989038507648 0.0
  outer loop
    vertex 77.50684573897459 4.022104938378402 0.415342887437338
    vertex 77.36020289703482 3.8702698145122643 3.4084995659977744
    vertex 77.50582995475416 4.023582862892021 3.4084995659977744
  endloop
endfacet
facet normal 0.0010675858936277421 -0.0001354608955830287 0.9999994209551852
  outer loop
    vertex 78.00075231701202 2.8999999999999995 3.4084995659977744
    vertex 76.400752317012 3.2999999999999994 3.4084995659977744
    vertex 76.400752317012 2.8999999999999995 3.419924565997775
  endloop
endfacet
facet normal 0.0010675858936277421 -0.0001354608955830287 0.9999994209551852
  outer loop
    vertex 76.400752317012 3.2999999999999994 3.4084995659977744
    vertex 78.00075231701202 2.8999999999999995 3.4084995659977744
    vertex 76.56011526886115 3.7439377629836565 3.4084995659977744
  endloop
endfacet
facet normal 0.0010675858936277421 -0.0001354608955830287 0.9999994209551852
  outer loop
    vertex 76.56011526886115 3.7439377629836565 3.4084995659977744
    vertex 78.00075231701202 2.8999999999999995 3.4084995659977744
    vertex 76.76570179234932 3.694477555710207 3.4084995659977744
  endloop
endfacet
facet normal 0.0010675858936277421 -0.0001354608955830287 0.9999994209551852
  outer loop
    vertex 76.76570179234932 3.694477555710207 3.4084995659977744
    vertex 78.00075231701202 2.8999999999999995 3.4084995659977744
    vertex 76.97708436854063 3.6999123718263265 3.4084995659977744
  endloop
endfacet
facet normal 0.0010675858936277421 -0.0001354608955830287 0.9999994209551852
  outer loop
    vertex 76.97708436854063 3.6999123718263265 3.4084995659977744
    vertex 78.00075231701202 2.8999999999999995 3.4084995659977744
    vertex 77.17985762419383 3.7598718375951603 3.4084995659977744
  endloop
endfacet
facet normal 0.0010675858936277421 -0.0001354608955830287 0.9999994209551852
  outer loop
    vertex 77.17985762419383 3.7598718375951603 3.4084995659977744
    vertex 78.00075231701202 2.8999999999999995 3.4084995659977744
    vertex 77.36020289703482 3.8702698145122643 3.4084995659977744
  endloop
endfacet
facet normal 0.0010675858936277421 -0.0001354608955830287 0.9999994209551852
  outer loop
    vertex 77.36020289703482 3.8702698145122643 3.4084995659977744
    vertex 78.00075231701202 2.8999999999999995 3.4084995659977744
    vertex 77.50582995475416 4.023582862892021 3.4084995659977744
  endloop
endfacet
facet normal 0.0010675858936277421 -0.0001354608955830287 0.9999994209551852
  outer loop
    vertex 77.50582995475416 4.023582862892021 3.4084995659977744
    vertex 78.00075231701202 2.8999999999999995 3.4084995659977744
    vertex 78.00075231701202 4.023582862892021 3.4084995659977744
  endloop
endfacet
facet normal 0.0010675858936277421 -0.0001354608955830287 0.9999994209551852
  outer loop
    vertex 76.400752317012 3.2999999999999994 3.4084995659977744
    vertex 75.55075231701203 4.750120553625207 3.4084995659977744
    vertex 75.55075231701203 3.6999999999999997 3.4084995659977744
  endloop
endfacet
facet normal 0.0010675858936277421 -0.0001354608955830287 0.9999994209551852
  outer loop
    vertex 75.55075231701203 4.750120553625207 3.4084995659977744
    vertex 76.400752317012 3.2999999999999994 3.4084995659977744
    vertex 76.11062415460718 4.170894692818186 3.4084995659977744
  endloop
endfacet
facet normal 0.0010675858936277421 -0.0001354608955830287 0.9999994209551852
  outer loop
    vertex 75.55075231701203 4.750120553625207 3.4084995659977744
    vertex 76.11062415460718 4.170894692818186 3.4084995659977744
    vertex 76.05066468883834 4.373667948471391 3.4084995659977744
  endloop
endfacet
facet normal 0.0010675858936277421 -0.0001354608955830287 0.9999994209551852
  outer loop
    vertex 75.55075231701203 4.750120553625207 3.4084995659977744
    vertex 76.05066468883834 4.373667948471391 3.4084995659977744
    vertex 75.5648136207626 6.699999999999999 3.419924565997775
  endloop
endfacet
facet normal 0.0010675858936277421 -0.0001354608955830287 0.9999994209551852
  outer loop
    vertex 75.5648136207626 6.699999999999999 3.419924565997775
    vertex 76.05066468883834 4.373667948471391 3.4084995659977744
    vertex 76.04522987272223 4.5850505246626865 3.4084995659977744
  endloop
endfacet
facet normal 0.0010675858936277421 -0.0001354608955830287 0.9999994209551852
  outer loop
    vertex 76.11062415460718 4.170894692818186 3.4084995659977744
    vertex 76.400752317012 3.2999999999999994 3.4084995659977744
    vertex 76.22102213152428 3.9905494199771843 3.4084995659977744
  endloop
endfacet
facet normal 0.0010675858936277421 -0.0001354608955830287 0.9999994209551852
  outer loop
    vertex 76.22102213152428 3.9905494199771843 3.4084995659977744
    vertex 76.400752317012 3.2999999999999994 3.4084995659977744
    vertex 76.37433517990404 3.8449223622578472 3.4084995659977744
  endloop
endfacet
facet normal 0.0010675858936277421 -0.0001354608955830287 0.9999994209551852
  outer loop
    vertex 76.37433517990404 3.8449223622578472 3.4084995659977744
    vertex 76.400752317012 3.2999999999999994 3.4084995659977744
    vertex 76.56011526886115 3.7439377629836565 3.4084995659977744
  endloop
endfacet
facet normal 0.0010675858936277421 -0.0001354608955830287 0.9999994209551852
  outer loop
    vertex 76.04522987272223 4.5850505246626865 3.4084995659977744
    vertex 76.3648136207626 6.699999999999999 3.4084995659977744
    vertex 75.5648136207626 6.699999999999999 3.419924565997775
  endloop
endfacet
facet normal 0.0010675858936277421 -0.0001354608955830287 0.9999994209551852
  outer loop
    vertex 76.3648136207626 6.699999999999999 3.4084995659977744
    vertex 76.04522987272223 4.5850505246626865 3.4084995659977744
    vertex 76.09469007999567 4.790637048150857 3.4084995659977744
  endloop
endfacet
facet normal 0.0010675858936277421 -0.0001354608955830287 0.9999994209551852
  outer loop
    vertex 76.3648136207626 6.699999999999999 3.4084995659977744
    vertex 76.09469007999567 4.790637048150857 3.4084995659977744
    vertex 76.19567467926986 4.976417137107977 3.4084995659977744
  endloop
endfacet
facet normal 0.0010675858936277421 -0.0001354608955830287 0.9999994209551852
  outer loop
    vertex 76.3648136207626 6.699999999999999 3.4084995659977744
    vertex 76.19567467926986 4.976417137107977 3.4084995659977744
    vertex 76.34130173698921 5.129730185487734 3.4084995659977744
  endloop
endfacet
facet normal 0.0010675858936277421 -0.0001354608955830287 0.9999994209551852
  outer loop
    vertex 76.3648136207626 6.699999999999999 3.4084995659977744
    vertex 76.34130173698921 5.129730185487734 3.4084995659977744
    vertex 76.5216470098302 5.2401281624048375 3.4084995659977744
  endloop
endfacet
facet normal 0.0010675858936277421 -0.0001354608955830287 0.9999994209551852
  outer loop
    vertex 76.3648136207626 6.699999999999999 3.4084995659977744
    vertex 76.5216470098302 5.2401281624048375 3.4084995659977744
    vertex 77.55128450432696 6.030365875434037 3.4084995659977744
  endloop
endfacet
facet normal 0.0010675858936277421 -0.0001354608955830287 0.9999994209551852
  outer loop
    vertex 77.55128450432696 6.030365875434037 3.4084995659977744
    vertex 76.5216470098302 5.2401281624048375 3.4084995659977744
    vertex 76.7244202654834 5.300087628173671 3.4084995659977744
  endloop
endfacet
facet normal 0.0010675858936277421 -0.0001354608955830287 0.9999994209551852
  outer loop
    vertex 77.55128450432696 6.030365875434037 3.4084995659977744
    vertex 76.7244202654834 5.300087628173671 3.4084995659977744
    vertex 76.9358028416747 5.305522444289791 3.4084995659977744
  endloop
endfacet
facet normal 0.0010675858936277421 -0.0001354608955830287 0.9999994209551852
  outer loop
    vertex 77.55128450432696 6.030365875434037 3.4084995659977744
    vertex 76.9358028416747 5.305522444289791 3.4084995659977744
    vertex 77.14138936516287 5.256062237016341 3.4084995659977744
  endloop
endfacet
facet normal 0.0010675858936277421 -0.0001354608955830287 0.9999994209551852
  outer loop
    vertex 77.55128450432696 6.030365875434037 3.4084995659977744
    vertex 77.14138936516287 5.256062237016341 3.4084995659977744
    vertex 77.32716945412 5.15507763774215 3.4084995659977744
  endloop
endfacet
facet normal 0.0010675858936277421 -0.0001354608955830287 0.9999994209551852
  outer loop
    vertex 77.55128450432696 6.030365875434037 3.4084995659977744
    vertex 77.32716945412 5.15507763774215 3.4084995659977744
    vertex 77.48048250249974 5.009450580022813 3.4084995659977744
  endloop
endfacet
facet normal 0.0010675858936277421 -0.0001354608955830287 0.9999994209551852
  outer loop
    vertex 77.55128450432696 6.030365875434037 3.4084995659977744
    vertex 77.48048250249974 5.009450580022813 3.4084995659977744
    vertex 77.900752317012 5.009450580022813 3.4084995659977744
  endloop
endfacet
facet normal 0.0010675858936277421 -0.0001354608955830287 0.9999994209551852
  outer loop
    vertex 77.55128450432696 6.030365875434037 3.4084995659977744
    vertex 77.900752317012 5.009450580022813 3.4084995659977744
    vertex 77.900752317012 5.556022689475643 3.4084995659977744
  endloop
endfacet
facet normal 1.0 -2.118354246446826e-09 -4.5788189700744284e-10
  outer loop
    vertex 64.25075231701202 4.499999999999999 -4.7800754340022245
    vertex 64.25075231701202 2.8999999999999986 -4.180075336264552
    vertex 64.25075230524133 2.8999999755655805 -4.780075336264551
  endloop
endfacet
facet normal 1.0 -2.118354246446826e-09 -4.5788189700744284e-10
  outer loop
    vertex 64.25075231701202 2.8999999999999986 -4.180075336264552
    vertex 64.25075231701202 4.499999999999999 -4.7800754340022245
    vertex 64.25075231701202 2.8999999999999986 3.419924565997775
  endloop
endfacet
facet normal 1.0 -2.118354246446826e-09 -4.5788189700744284e-10
  outer loop
    vertex 64.25075231701202 2.8999999999999986 3.419924565997775
    vertex 64.25075231701202 4.499999999999999 -4.7800754340022245
    vertex 64.25075231701202 4.499999999999999 3.419924565997775
  endloop
endfacet
facet normal 0.0 0.0 1.0
  outer loop
    vertex 64.25075231701202 2.8999999999999986 3.419924565997775
    vertex 62.900752317012014 4.499999999999999 3.419924565997775
    vertex 62.900752317012014 2.8999999999999986 3.419924565997775
  endloop
endfacet
facet normal 0.0 0.0 1.0
  outer loop
    vertex 62.900752317012014 4.499999999999999 3.419924565997775
    vertex 64.25075231701202 2.8999999999999986 3.419924565997775
    vertex 64.25075231701202 4.499999999999999 3.419924565997775
  endloop
endfacet
facet normal 0.0 0.0 1.0
  outer loop
    vertex 62.900752317012014 2.8999999999999986 3.419924565997775
    vertex 61.900752317012014 4.499999999999999 3.419924565997775
    vertex 61.900752317012014 2.8999999999999986 3.419924565997775
  endloop
endfacet
facet normal 0.0 0.0 1.0
  outer loop
    vertex 61.900752317012014 4.499999999999999 3.419924565997775
    vertex 62.900752317012014 2.8999999999999986 3.419924565997775
    vertex 62.900752317012014 4.499999999999999 3.419924565997775
  endloop
endfacet
facet normal -1.0 0.0 0.0
  outer loop
    vertex 61.500752317012015 4.099999999999999 3.4199245659977744
    vertex 61.500752317012015 3.299999999999999 -4.7800754340022245
    vertex 61.500752317012015 3.299999999999999 3.4199245659977744
  endloop
endfacet
facet normal -1.0 0.0 0.0
  outer loop
    vertex 61.500752317012015 3.299999999999999 -4.7800754340022245
    vertex 61.500752317012015 4.099999999999999 3.4199245659977744
    vertex 61.500752317012015 4.099999999999999 -4.7800754340022245
  endloop
endfacet
facet normal -1.7624790515924396e-15 6.067055483010633e-34 1.0
  outer loop
    vertex 61.900752317012014 2.8999999999999986 3.419924565997775
    vertex 61.500752317012015 4.099999999999999 3.4199245659977744
    vertex 61.500752317012015 3.299999999999999 3.4199245659977744
  endloop
endfacet
facet normal -1.7624790515924396e-15 6.067055483010633e-34 1.0
  outer loop
    vertex 61.500752317012015 4.099999999999999 3.4199245659977744
    vertex 61.900752317012014 2.8999999999999986 3.419924565997775
    vertex 61.900752317012014 4.499999999999999 3.419924565997775
  endloop
endfacet
facet normal -3.1026255747752907e-16 -2.907780610735944e-16 1.0
  outer loop
    vertex 64.18029777155748 5.0 3.419924565997775
    vertex 63.362180888440584 6.699999999999999 3.419924565997775
    vertex 62.900752317012014 5.0 3.419924565997775
  endloop
endfacet
facet normal -3.1026255747752907e-16 -2.907780610735944e-16 1.0
  outer loop
    vertex 63.362180888440584 6.699999999999999 3.419924565997775
    vertex 64.18029777155748 5.0 3.419924565997775
    vertex 63.94075231701202 6.699999999999999 3.4199245659977766
  endloop
endfacet
facet normal 0.0 0.0 1.0
  outer loop
    vertex 64.25075231701202 4.499999999999999 3.419924565997775
    vertex 62.900752317012014 5.0 3.419924565997775
    vertex 62.900752317012014 4.499999999999999 3.419924565997775
  endloop
endfacet
facet normal 0.0 0.0 1.0
  outer loop
    vertex 62.900752317012014 5.0 3.419924565997775
    vertex 64.25075231701202 4.499999999999999 3.419924565997775
    vertex 64.18029777155748 5.0 3.419924565997775
  endloop
endfacet
facet normal 0.0 0.0 -1.0
  outer loop
    vertex 75.40063508195868 2.9009409795566077 -4.180075336264552
    vertex 73.4506350819587 -0.8082550204433919 -4.180075336264552
    vertex 73.4506350819587 2.9009409795566077 -4.180075336264552
  endloop
endfacet
facet normal 0.0 0.0 -1.0
  outer loop
    vertex 77.20063508195868 1.6509409795566077 -4.180075336264552
    vertex 76.40063508195868 0.0009409795566076351 -4.180075336264552
    vertex 76.40063508195868 1.6509409795566077 -4.180075336264552
  endloop
endfacet
facet normal 0.0 0.0 -1.0
  outer loop
    vertex 66.70063508195868 -0.8082550204433919 -4.180075336264552
    vertex 65.90063508195868 -1.8990590204433917 -4.180075336264552
    vertex 65.90063508195868 -0.8082550204433919 -4.180075336264552
  endloop
endfacet
facet normal 0.0 0.0 -1.0
  outer loop
    vertex 65.90063508195868 -1.8990590204433917 -4.180075336264552
    vertex 66.70063508195868 -0.8082550204433919 -4.180075336264552
    vertex 76.40063508195868 -1.8990590204433917 -4.180075336264552
  endloop
endfacet
facet normal 0.0 0.0 -1.0
  outer loop
    vertex 76.40063508195868 -1.8990590204433917 -4.180075336264552
    vertex 66.70063508195868 -0.8082550204433919 -4.180075336264552
    vertex 73.4506350819587 -0.8082550204433919 -4.180075336264552
  endloop
endfacet
facet normal 0.0 0.0 -1.0
  outer loop
    vertex 76.40063508195868 -1.8990590204433917 -4.180075336264552
    vertex 73.4506350819587 -0.8082550204433919 -4.180075336264552
    vertex 75.40063508195868 2.9009409795566077 -4.180075336264552
  endloop
endfacet
facet normal 0.0 0.0 -1.0
  outer loop
    vertex 76.40063508195868 -1.8990590204433917 -4.180075336264552
    vertex 75.40063508195868 2.9009409795566077 -4.180075336264552
    vertex 76.40063508195868 2.9009409795566077 -4.180075336264552
  endloop
endfacet
facet normal 0.0 0.0 -1.0
  outer loop
    vertex 76.40063508195868 -1.8990590204433917 -4.180075336264552
    vertex 76.40063508195868 2.9009409795566077 -4.180075336264552
    vertex 76.40063508195868 1.6509409795566077 -4.180075336264552
  endloop
endfacet
facet normal 0.0 0.0 -1.0
  outer loop
    vertex 76.40063508195868 -1.8990590204433917 -4.180075336264552
    vertex 76.40063508195868 1.6509409795566077 -4.180075336264552
    vertex 76.40063508195868 0.0009409795566076351 -4.180075336264552
  endloop
endfacet
facet normal 0.0 0.0 -1.0
  outer loop
    vertex 66.7006645854941 0.8009409795566076 -4.180075336264552
    vertex 64.25066458549409 0.0009409795566076351 -4.180075336264552
    vertex 64.25066458549409 0.8009409795566076 -4.180075336264552
  endloop
endfacet
facet normal 0.0 0.0 -1.0
  outer loop
    vertex 64.25066458549409 0.0009409795566076351 -4.180075336264552
    vertex 66.7006645854941 0.8009409795566076 -4.180075336264552
    vertex 65.9006645854941 0.0009409795566076351 -4.180075336264552
  endloop
endfacet
facet normal 0.0 0.0 -1.0
  outer loop
    vertex 65.9006645854941 0.0009409795566076351 -4.180075336264552
    vertex 66.7006645854941 0.8009409795566076 -4.180075336264552
    vertex 66.70063508195868 -0.8082550204433919 -4.180075336264552
  endloop
endfacet
facet normal 0.0 0.0 -1.0
  outer loop
    vertex 66.70063508195868 -0.8082550204433919 -4.180075336264552
    vertex 65.90063508195868 -0.8082550204433919 -4.180075336264552
    vertex 65.9006645854941 0.0009409795566076351 -4.180075336264552
  endloop
endfacet
facet normal 0.0 1.0 0.0
  outer loop
    vertex 64.25066458549409 0.8009409795566083 -2.7800753518321857
    vertex 66.7006645854941 0.8009409795566076 -4.180075336264552
    vertex 64.25066458549409 0.8009409795566076 -4.180075336264552
  endloop
endfacet
facet normal 0.0 1.0 0.0
  outer loop
    vertex 66.7006645854941 0.8009409795566076 -4.180075336264552
    vertex 64.25066458549409 0.8009409795566083 -2.7800753518321857
    vertex 66.7006645854941 0.8009409795566083 -2.7800753518321857
  endloop
endfacet
facet normal 0.0 -1.0 5.035654489116409e-16
  outer loop
    vertex 64.25066458549409 0.00094097955660834 -2.780075351832187
    vertex 64.25066458549409 0.0009409795566076351 -4.180075336264552
    vertex 65.9006645854941 0.0009409795566076351 -4.180075336264552
  endloop
endfacet
facet normal 0.9999999998319261 -1.833433305408658e-05 0.0
  outer loop
    vertex 66.7006645854941 0.8009409795566076 -4.180075336264552
    vertex 66.70063508195868 -0.8082550204433911 -2.7800753518321857
    vertex 66.70063508195868 -0.8082550204433919 -4.180075336264552
  endloop
endfacet
facet normal 0.9999999998319261 -1.833433305408658e-05 0.0
  outer loop
    vertex 66.70063508195868 -0.8082550204433911 -2.7800753518321857
    vertex 66.7006645854941 0.8009409795566076 -4.180075336264552
    vertex 66.7006645854941 0.8009409795566083 -2.7800753518321857
  endloop
endfacet
facet normal -1.0 4.730034305435803e-10 -4.913848021392353e-10
  outer loop
    vertex 65.90063508023883 -1.8990590176738307 -1.3800753362645524
    vertex 65.90063508195868 -0.8082550204433919 -4.180075336264552
    vertex 65.90063508195868 -1.8990590204433917 -4.180075336264552
  endloop
endfacet
facet normal -1.0 4.730034305435803e-10 -4.913848021392353e-10
  outer loop
    vertex 65.90063508195868 -0.8082550204433919 -4.180075336264552
    vertex 65.90063508023883 -1.8990590176738307 -1.3800753362645524
    vertex 65.90063508195868 -0.8082550204433911 -2.780075351832187
  endloop
endfacet
facet normal 5.502614215830121e-05 -0.9999999959832724 -7.075011777112784e-05
  outer loop
    vertex 64.25066458549409 0.00094097955660834 -2.780075351832187
    vertex 62.900635081958676 0.0009409795566076351 -4.180075336264552
    vertex 64.25066458549409 0.0009409795566076351 -4.180075336264552
  endloop
endfacet
facet normal 5.502614215830121e-05 -0.9999999959832724 -7.075011777112784e-05
  outer loop
    vertex 62.900635081958676 0.0009409795566076351 -4.180075336264552
    vertex 64.25066458549409 0.00094097955660834 -2.780075351832187
    vertex 62.9006659315688 0.0006933561258030185 -1.380075351832187
  endloop
endfacet
facet normal 0.9999999997046491 -2.226488098694229e-05 -9.745609803719358e-06
  outer loop
    vertex 64.2506645852484 0.0009409790556349495 -2.380075351832187
    vertex 64.25064316696808 -0.40825502068811637 -1.7800753518321872
    vertex 64.25064966583619 -0.40825502121023527 -2.380075352857186
  endloop
endfacet
facet normal 0.9999999997046491 -2.226488098694229e-05 -9.745609803719358e-06
  outer loop
    vertex 64.25075231701202 2.8999999999999986 -4.180075336264552
    vertex 64.25066458549409 0.8009409795566083 -2.7800753518321857
    vertex 64.25066458549409 0.8009409795566076 -4.180075336264552
  endloop
endfacet
facet normal 0.9999999997046491 -2.226488098694229e-05 -9.745609803719358e-06
  outer loop
    vertex 64.25064316696808 -0.8082550206881163 -1.7800753518321872
    vertex 64.25075231701202 2.8999999999999986 3.419924565997775
    vertex 64.25075231701202 -0.8091960000000002 3.419924565997775
  endloop
endfacet
facet normal 0.9999999997046491 -2.226488098694229e-05 -9.745609803719358e-06
  outer loop
    vertex 64.25075231701202 2.8999999999999986 3.419924565997775
    vertex 64.25064316696808 -0.8082550206881163 -1.7800753518321872
    vertex 64.25064316696808 -0.40825502068811637 -1.7800753518321872
  endloop
endfacet
facet normal 0.9999999997046491 -2.226488098694229e-05 -9.745609803719358e-06
  outer loop
    vertex 64.25075231701202 2.8999999999999986 3.419924565997775
    vertex 64.25064316696808 -0.40825502068811637 -1.7800753518321872
    vertex 64.2506645852484 0.0009409790556349495 -2.380075351832187
  endloop
endfacet
facet normal 0.9999999997046491 -2.226488098694229e-05 -9.745609803719358e-06
  outer loop
    vertex 64.25075231701202 2.8999999999999986 3.419924565997775
    vertex 64.2506645852484 0.0009409790556349495 -2.380075351832187
    vertex 64.25066458549409 0.8009409795566083 -2.7800753518321857
  endloop
endfacet
facet normal 0.9999999997046491 -2.226488098694229e-05 -9.745609803719358e-06
  outer loop
    vertex 64.25075231701202 2.8999999999999986 3.419924565997775
    vertex 64.25066458549409 0.8009409795566083 -2.7800753518321857
    vertex 64.25075231701202 2.8999999999999986 -4.180075336264552
  endloop
endfacet
facet normal -2.400068756531862e-16 0.44721359527591537 0.8944271911119371
  outer loop
    vertex 65.90066458524839 0.0009409790556349495 -2.3800753518321858
    vertex 64.25066458549409 0.8009409795566083 -2.7800753518321857
    vertex 64.2506645852484 0.0009409790556349495 -2.380075351832187
  endloop
endfacet
facet normal -2.400068756531862e-16 0.44721359527591537 0.8944271911119371
  outer loop
    vertex 64.25066458549409 0.8009409795566083 -2.7800753518321857
    vertex 65.90066458524839 0.0009409790556349495 -2.3800753518321858
    vertex 66.7006645854941 0.8009409795566083 -2.7800753518321857
  endloop
endfacet
facet normal 0.4472175295186224 -9.835506227241454e-06 0.8944252239256912
  outer loop
    vertex 66.70063508195868 -0.8082550204433911 -2.7800753518321857
    vertex 65.90064966583618 -0.40825502121023527 -2.380075352857186
    vertex 65.90063508171299 -0.8082550209443645 -2.380075351832187
  endloop
endfacet
facet normal 0.4472175295186224 -9.835506227241454e-06 0.8944252239256912
  outer loop
    vertex 65.90064966583618 -0.40825502121023527 -2.380075352857186
    vertex 66.70063508195868 -0.8082550204433911 -2.7800753518321857
    vertex 65.90066458524839 0.0009409790556349495 -2.3800753518321858
  endloop
endfacet
facet normal 0.4472175295186224 -9.835506227241454e-06 0.8944252239256912
  outer loop
    vertex 65.90066458524839 0.0009409790556349495 -2.3800753518321858
    vertex 66.70063508195868 -0.8082550204433911 -2.7800753518321857
    vertex 66.7006645854941 0.8009409795566083 -2.7800753518321857
  endloop
endfacet
facet normal -0.999999999335323 3.646030800776618e-05 -1.8862716458639804e-20
  outer loop
    vertex 65.9006645854941 0.0009409795566076351 -4.180075336264552
    vertex 65.90063508195868 -0.8082550204433919 -4.180075336264552
    vertex 65.90063508195868 -0.8082550204433911 -2.780075351832187
  endloop
endfacet
facet normal -4.2726764885196985e-16 -2.504910364298019e-09 1.0
  outer loop
    vertex 65.90064966583618 -0.40825502121023527 -2.380075352857186
    vertex 64.2506645852484 0.0009409790556349495 -2.380075351832187
    vertex 64.25064966583619 -0.40825502121023527 -2.380075352857186
  endloop
endfacet
facet normal -4.2726764885196985e-16 -2.504910364298019e-09 1.0
  outer loop
    vertex 64.2506645852484 0.0009409790556349495 -2.380075351832187
    vertex 65.90064966583618 -0.40825502121023527 -2.380075352857186
    vertex 65.90066458524839 0.0009409790556349495 -2.3800753518321858
  endloop
endfacet
facet normal 1.870774569710394e-05 0.9999999906502203 0.00013546062117524024
  outer loop
    vertex 64.25075231701202 -0.8091960000000002 3.419924565997775
    vertex 65.90063508177512 -0.8082550206881163 -1.7800753518321872
    vertex 64.25064316696808 -0.8082550206881163 -1.7800753518321872
  endloop
endfacet
facet normal 1.870774569710394e-05 0.9999999906502203 0.00013546062117524024
  outer loop
    vertex 66.70063508195868 -0.8082550204433911 -2.7800753518321857
    vertex 73.4506350819587 -0.8082550204433919 -4.180075336264552
    vertex 66.70063508195868 -0.8082550204433919 -4.180075336264552
  endloop
endfacet
facet normal 1.870774569710394e-05 0.9999999906502203 0.00013546062117524024
  outer loop
    vertex 73.4506350819587 -0.8082550204433919 -4.180075336264552
    vertex 66.70063508195868 -0.8082550204433911 -2.7800753518321857
    vertex 73.45075231701202 -0.8091960000000002 3.419924565997775
  endloop
endfacet
facet normal 1.870774569710394e-05 0.9999999906502203 0.00013546062117524024
  outer loop
    vertex 73.45075231701202 -0.8091960000000002 3.419924565997775
    vertex 66.70063508195868 -0.8082550204433911 -2.7800753518321857
    vertex 65.90063508171299 -0.8082550209443645 -2.380075351832187
  endloop
endfacet
facet normal 1.870774569710394e-05 0.9999999906502203 0.00013546062117524024
  outer loop
    vertex 73.45075231701202 -0.8091960000000002 3.419924565997775
    vertex 65.90063508171299 -0.8082550209443645 -2.380075351832187
    vertex 65.90063508177512 -0.8082550206881163 -1.7800753518321872
  endloop
endfacet
facet normal 1.870774569710394e-05 0.9999999906502203 0.00013546062117524024
  outer loop
    vertex 73.45075231701202 -0.8091960000000002 3.419924565997775
    vertex 65.90063508177512 -0.8082550206881163 -1.7800753518321872
    vertex 64.25075231701202 -0.8091960000000002 3.419924565997775
  endloop
endfacet
facet normal 0.999999999335323 -3.646030800763533e-05 -3.222787986638521e-22
  outer loop
    vertex 65.90064966583618 -0.40825502121023527 -2.380075352857186
    vertex 65.90063508177512 -0.8082550206881163 -1.7800753518321872
    vertex 65.90063508171299 -0.8082550209443645 -2.380075351832187
  endloop
endfacet
facet normal 0.999999999335323 -3.646030800763533e-05 -3.222787986638521e-22
  outer loop
    vertex 65.90063508177512 -0.8082550206881163 -1.7800753518321872
    vertex 65.90064966583618 -0.40825502121023527 -2.380075352857186
    vertex 65.90064966589831 -0.408255020953987 -1.7800753528571858
  endloop
endfacet
facet normal 3.1060715759037913e-10 1.2812425839712186e-09 1.0
  outer loop
    vertex 65.90063508177512 -0.8082550206881163 -1.7800753518321872
    vertex 64.25064316696808 -0.40825502068811637 -1.7800753518321872
    vertex 64.25064316696808 -0.8082550206881163 -1.7800753518321872
  endloop
endfacet
facet normal 3.1060715759037913e-10 1.2812425839712186e-09 1.0
  outer loop
    vertex 64.25064316696808 -0.40825502068811637 -1.7800753518321872
    vertex 65.90063508177512 -0.8082550206881163 -1.7800753518321872
    vertex 65.90064966589831 -0.408255020953987 -1.7800753528571858
  endloop
endfacet
facet normal 8.056686957019135e-11 1.0 -3.3233768290734336e-10
  outer loop
    vertex 64.25064316696808 -0.40825502068811637 -1.7800753518321872
    vertex 65.90064966583618 -0.40825502121023527 -2.380075352857186
    vertex 64.25064966583619 -0.40825502121023527 -2.380075352857186
  endloop
endfacet
facet normal 8.056686957019135e-11 1.0 -3.3233768290734336e-10
  outer loop
    vertex 65.90064966583618 -0.40825502121023527 -2.380075352857186
    vertex 64.25064316696808 -0.40825502068811637 -1.7800753518321872
    vertex 65.90064966589831 -0.408255020953987 -1.7800753528571858
  endloop
endfacet
facet normal 1.9617806963996304e-08 -4.0724030095666704e-08 -0.9999999999999991
  outer loop
    vertex 62.900752317012014 4.499999999999999 -4.7800754340022245
    vertex 61.900752317012014 2.8999999999999986 -4.7800754340022245
    vertex 61.900752317012014 4.499999999999999 -4.7800754340022245
  endloop
endfacet
facet normal 1.9617806963996304e-08 -4.0724030095666704e-08 -0.9999999999999991
  outer loop
    vertex 61.900752317012014 2.8999999999999986 -4.7800754340022245
    vertex 62.900752317012014 4.499999999999999 -4.7800754340022245
    vertex 62.900752305241326 2.8999999755655805 -4.780075336264551
  endloop
endfacet
facet normal 1.9617806963996304e-08 -4.0724030095666704e-08 -0.9999999999999991
  outer loop
    vertex 62.900752305241326 2.8999999755655805 -4.780075336264551
    vertex 62.900752317012014 4.499999999999999 -4.7800754340022245
    vertex 64.25075230524133 2.8999999755655805 -4.780075336264551
  endloop
endfacet
facet normal 1.9617806963996304e-08 -4.0724030095666704e-08 -0.9999999999999991
  outer loop
    vertex 64.25075230524133 2.8999999755655805 -4.780075336264551
    vertex 62.900752317012014 4.499999999999999 -4.7800754340022245
    vertex 64.25075231701202 4.499999999999999 -4.7800754340022245
  endloop
endfacet
facet normal 0.0 -0.9999999999999993 4.0724030138846326e-08
  outer loop
    vertex 64.25075231701202 2.8999999999999986 -4.180075336264552
    vertex 62.900752305241326 2.8999999755655805 -4.780075336264551
    vertex 64.25075230524133 2.8999999755655805 -4.780075336264551
  endloop
endfacet
facet normal 0.0 -0.9999999999999993 4.0724030138846326e-08
  outer loop
    vertex 62.900752305241326 2.8999999755655805 -4.780075336264551
    vertex 64.25075231701202 2.8999999999999986 -4.180075336264552
    vertex 62.900752317012014 2.8999999999999986 -4.180075336264552
  endloop
endfacet
facet normal 0.0014483646185489488 0.005718986171748128 0.9999825975671273
  outer loop
    vertex 76.400752317012 2.8999999999999995 3.419924565997775
    vertex 73.45075231701202 4.750120553625207 3.4084995659977744
    vertex 73.45075231701202 2.8999999999999986 3.419924565997775
  endloop
endfacet
facet normal 0.0014483646185489488 0.005718986171748128 0.9999825975671273
  outer loop
    vertex 73.45075231701202 4.750120553625207 3.4084995659977744
    vertex 76.400752317012 2.8999999999999995 3.419924565997775
    vertex 75.55075231701203 3.6999999999999997 3.4084995659977744
  endloop
endfacet
facet normal 0.0014483646185489488 0.005718986171748128 0.9999825975671273
  outer loop
    vertex 75.55075231701203 3.6999999999999997 3.4084995659977744
    vertex 76.400752317012 2.8999999999999995 3.419924565997775
    vertex 76.400752317012 3.2999999999999994 3.4084995659977744
  endloop
endfacet
facet normal 0.0014483646185489488 0.005718986171748128 0.9999825975671273
  outer loop
    vertex 75.55075231701203 4.750120553625207 3.4084995659977744
    vertex 73.45075231701202 4.750120553625207 3.4084995659977744
    vertex 75.55075231701203 3.6999999999999997 3.4084995659977744
  endloop
endfacet
facet normal -0.8292641490406001 0.5588568371096468 8.204737323801972e-05
  outer loop
    vertex 74.76481362076261 6.699999999999999 3.419924565997775
    vertex 73.45075402104813 4.751135584110483 -4.780075319906179
    vertex 73.45075231701202 4.750120553625207 3.4084995659977744
  endloop
endfacet
facet normal -0.8292641490406001 0.5588568371096468 8.204737323801972e-05
  outer loop
    vertex 73.45075402104813 4.751135584110483 -4.780075319906179
    vertex 74.76481362076261 6.699999999999999 3.419924565997775
    vertex 74.76481532479872 6.701015030485276 -4.780075319906179
  endloop
endfacet
facet normal 0.0 -0.005859236018790295 0.9999828345293115
  outer loop
    vertex 75.55075231701203 4.750120553625207 3.4084995659977744
    vertex 74.76481362076261 6.699999999999999 3.419924565997775
    vertex 73.45075231701202 4.750120553625207 3.4084995659977744
  endloop
endfacet
facet normal 0.0 -0.005859236018790295 0.9999828345293115
  outer loop
    vertex 74.76481362076261 6.699999999999999 3.419924565997775
    vertex 75.55075231701203 4.750120553625207 3.4084995659977744
    vertex 75.5648136207626 6.699999999999999 3.419924565997775
  endloop
endfacet
facet normal 0.9902177480686674 0.13953068268240243 -3.534608436550969e-17
  outer loop
    vertex 63.94075231701202 6.699999999999999 -4.7800754340022245
    vertex 64.25075231701202 4.499999999999999 3.419924565997775
    vertex 64.25075231701202 4.499999999999999 -4.7800754340022245
  endloop
endfacet
facet normal 0.9902177480686674 0.13953068268240243 -3.534608436550969e-17
  outer loop
    vertex 64.25075231701202 4.499999999999999 3.419924565997775
    vertex 63.94075231701202 6.699999999999999 -4.7800754340022245
    vertex 64.18029777155748 5.0 3.419924565997775
  endloop
endfacet
facet normal 0.9902177480686674 0.13953068268240243 -3.534608436550969e-17
  outer loop
    vertex 64.18029777155748 5.0 3.419924565997775
    vertex 63.94075231701202 6.699999999999999 -4.7800754340022245
    vertex 63.94075231701202 6.699999999999999 3.4199245659977766
  endloop
endfacet
facet normal 0.9999999855151545 9.408803527275056e-06 -0.00016994459473922558
  outer loop
    vertex 75.40176810123243 3.7054430109350003 -4.7707951077271895
    vertex 75.40176810123243 3.698522075486379 0.415342887437338
    vertex 75.40176810123243 3.698522075486379 -4.170874112562661
  endloop
endfacet
facet normal 0.9999999855151545 9.408803527275056e-06 -0.00016994459473922558
  outer loop
    vertex 75.40176810123243 3.698522075486379 0.415342887437338
    vertex 75.40176810123243 3.7054430109350003 -4.7707951077271895
    vertex 75.40176358951896 6.698522075486378 0.4165406212304945
  endloop
endfacet
facet normal 0.9999999855151545 9.408803527275056e-06 -0.00016994459473922558
  outer loop
    vertex 75.40176358951896 6.698522075486378 0.4165406212304945
    vertex 75.40176810123243 3.7054430109350003 -4.7707951077271895
    vertex 75.40074950933464 6.701015030485276 -4.778877586113023
  endloop
endfacet
facet normal -0.0002465540734702877 0.0005263729096796674 -0.9999998310713102
  outer loop
    vertex 76.36582940498303 6.698522075486378 0.4213698874373377
    vertex 75.40176810123243 3.698522075486379 0.415342887437338
    vertex 75.40176358951896 6.698522075486378 0.4165406212304945
  endloop
endfacet
facet normal -0.0002465540734702877 0.0005263729096796674 -0.9999998310713102
  outer loop
    vertex 75.40176810123243 3.698522075486379 0.415342887437338
    vertex 76.36582940498303 6.698522075486378 0.4213698874373377
    vertex 76.04624565694265 4.5835726001490675 0.415342887437338
  endloop
endfacet
facet normal -0.0002465540734702877 0.0005263729096796674 -0.9999998310713102
  outer loop
    vertex 76.04624565694265 4.5835726001490675 0.415342887437338
    vertex 76.36582940498303 6.698522075486378 0.4213698874373377
    vertex 76.09570586421609 4.789159123637237 0.415342887437338
  endloop
endfacet
facet normal -0.0002465540734702877 0.0005263729096796674 -0.9999998310713102
  outer loop
    vertex 76.09570586421609 4.789159123637237 0.415342887437338
    vertex 76.36582940498303 6.698522075486378 0.4213698874373377
    vertex 76.19669046349028 4.974939212594358 0.415342887437338
  endloop
endfacet
facet normal -0.0002465540734702877 0.0005263729096796674 -0.9999998310713102
  outer loop
    vertex 76.19669046349028 4.974939212594358 0.415342887437338
    vertex 76.36582940498303 6.698522075486378 0.4213698874373377
    vertex 76.34231752120962 5.128252260974114 0.415342887437338
  endloop
endfacet
facet normal -0.0002465540734702877 0.0005263729096796674 -0.9999998310713102
  outer loop
    vertex 76.34231752120962 5.128252260974114 0.415342887437338
    vertex 76.36582940498303 6.698522075486378 0.4213698874373377
    vertex 76.52266279405062 5.2386502378912185 0.415342887437338
  endloop
endfacet
facet normal -0.0002465540734702877 0.0005263729096796674 -0.9999998310713102
  outer loop
    vertex 76.52266279405062 5.2386502378912185 0.415342887437338
    vertex 76.36582940498303 6.698522075486378 0.4213698874373377
    vertex 77.55230028854736 6.028887950920419 0.415342887437338
  endloop
endfacet
facet normal -0.0002465540734702877 0.0005263729096796674 -0.9999998310713102
  outer loop
    vertex 76.52266279405062 5.2386502378912185 0.415342887437338
    vertex 77.55230028854736 6.028887950920419 0.415342887437338
    vertex 76.72543604970383 5.298609703660052 0.415342887437338
  endloop
endfacet
facet normal -0.0002465540734702877 0.0005263729096796674 -0.9999998310713102
  outer loop
    vertex 76.72543604970383 5.298609703660052 0.415342887437338
    vertex 77.55230028854736 6.028887950920419 0.415342887437338
    vertex 76.93681862589511 5.304044519776172 0.415342887437338
  endloop
endfacet
facet normal -0.0002465540734702877 0.0005263729096796674 -0.9999998310713102
  outer loop
    vertex 76.93681862589511 5.304044519776172 0.415342887437338
    vertex 77.55230028854736 6.028887950920419 0.415342887437338
    vertex 77.1424051493833 5.254584312502722 0.415342887437338
  endloop
endfacet
facet normal -0.0002465540734702877 0.0005263729096796674 -0.9999998310713102
  outer loop
    vertex 77.1424051493833 5.254584312502722 0.415342887437338
    vertex 77.55230028854736 6.028887950920419 0.415342887437338
    vertex 77.32818523834041 5.153599713228531 0.415342887437338
  endloop
endfacet
facet normal -0.0002465540734702877 0.0005263729096796674 -0.9999998310713102
  outer loop
    vertex 77.32818523834041 5.153599713228531 0.415342887437338
    vertex 77.55230028854736 6.028887950920419 0.415342887437338
    vertex 77.48149828672017 5.007972655509194 0.415342887437338
  endloop
endfacet
facet normal -0.0002465540734702877 0.0005263729096796674 -0.9999998310713102
  outer loop
    vertex 77.48149828672017 5.007972655509194 0.415342887437338
    vertex 77.55230028854736 6.028887950920419 0.415342887437338
    vertex 77.90176810123243 5.007972655509194 0.415342887437338
  endloop
endfacet
facet normal -0.0002465540734702877 0.0005263729096796674 -0.9999998310713102
  outer loop
    vertex 77.90176810123243 5.007972655509194 0.415342887437338
    vertex 77.55230028854736 6.028887950920419 0.415342887437338
    vertex 77.90176810123243 5.554544764962025 0.415342887437338
  endloop
endfacet
facet normal -0.0002465540734702877 0.0005263729096796674 -0.9999998310713102
  outer loop
    vertex 75.40176810123243 3.698522075486379 0.415342887437338
    vertex 76.05168047305877 4.3721900239577725 0.415342887437338
    vertex 76.40176810123243 2.898522075486379 0.415342887437338
  endloop
endfacet
facet normal -0.0002465540734702877 0.0005263729096796674 -0.9999998310713102
  outer loop
    vertex 76.05168047305877 4.3721900239577725 0.415342887437338
    vertex 75.40176810123243 3.698522075486379 0.415342887437338
    vertex 76.04624565694265 4.5835726001490675 0.415342887437338
  endloop
endfacet
facet normal -0.0002465540734702877 0.0005263729096796674 -0.9999998310713102
  outer loop
    vertex 76.40176810123243 2.898522075486379 0.415342887437338
    vertex 76.05168047305877 4.3721900239577725 0.415342887437338
    vertex 76.1116399388276 4.169416768304567 0.415342887437338
  endloop
endfacet
facet normal -0.0002465540734702877 0.0005263729096796674 -0.9999998310713102
  outer loop
    vertex 76.40176810123243 2.898522075486379 0.415342887437338
    vertex 76.1116399388276 4.169416768304567 0.415342887437338
    vertex 76.2220379157447 3.9890714954635653 0.415342887437338
  endloop
endfacet
facet normal -0.0002465540734702877 0.0005263729096796674 -0.9999998310713102
  outer loop
    vertex 76.40176810123243 2.898522075486379 0.415342887437338
    vertex 76.2220379157447 3.9890714954635653 0.415342887437338
    vertex 76.37535096412445 3.8434444377442283 0.415342887437338
  endloop
endfacet
facet normal -0.0002465540734702877 0.0005263729096796674 -0.9999998310713102
  outer loop
    vertex 76.40176810123243 2.898522075486379 0.415342887437338
    vertex 76.37535096412445 3.8434444377442283 0.415342887437338
    vertex 76.56113105308157 3.742459838470038 0.415342887437338
  endloop
endfacet
facet normal -0.0002465540734702877 0.0005263729096796674 -0.9999998310713102
  outer loop
    vertex 76.40176810123243 2.898522075486379 0.415342887437338
    vertex 76.56113105308157 3.742459838470038 0.415342887437338
    vertex 78.00176810123243 2.898522075486379 0.415342887437338
  endloop
endfacet
facet normal -0.0002465540734702877 0.0005263729096796674 -0.9999998310713102
  outer loop
    vertex 78.00176810123243 2.898522075486379 0.415342887437338
    vertex 76.56113105308157 3.742459838470038 0.415342887437338
    vertex 76.76671757656973 3.692999631196589 0.415342887437338
  endloop
endfacet
facet normal -0.0002465540734702877 0.0005263729096796674 -0.9999998310713102
  outer loop
    vertex 78.00176810123243 2.898522075486379 0.415342887437338
    vertex 76.76671757656973 3.692999631196589 0.415342887437338
    vertex 76.97810015276104 3.6984344473127084 0.415342887437338
  endloop
endfacet
facet normal -0.0002465540734702877 0.0005263729096796674 -0.9999998310713102
  outer loop
    vertex 78.00176810123243 2.898522075486379 0.415342887437338
    vertex 76.97810015276104 3.6984344473127084 0.415342887437338
    vertex 77.18087340841424 3.758393913081542 0.415342887437338
  endloop
endfacet
facet normal -0.0002465540734702877 0.0005263729096796674 -0.9999998310713102
  outer loop
    vertex 78.00176810123243 2.898522075486379 0.415342887437338
    vertex 77.18087340841424 3.758393913081542 0.415342887437338
    vertex 77.36121868125524 3.8687918899986453 0.415342887437338
  endloop
endfacet
facet normal -0.0002465540734702877 0.0005263729096796674 -0.9999998310713102
  outer loop
    vertex 78.00176810123243 2.898522075486379 0.415342887437338
    vertex 77.36121868125524 3.8687918899986453 0.415342887437338
    vertex 77.50684573897459 4.022104938378402 0.415342887437338
  endloop
endfacet
facet normal -0.0002465540734702877 0.0005263729096796674 -0.9999998310713102
  outer loop
    vertex 78.00176810123243 2.898522075486379 0.415342887437338
    vertex 77.50684573897459 4.022104938378402 0.415342887437338
    vertex 78.00176810123243 4.022104938378402 0.415342887437338
  endloop
endfacet
facet normal 0.0001982318157272806 0.00012341821444750416 -0.9999999727360455
  outer loop
    vertex 74.76481532479872 6.701015030485276 -4.780075319906179
    vertex 73.45075402104813 2.901015030485276 -4.780075319906179
    vertex 73.45075402104813 4.751135584110483 -4.780075319906179
  endloop
endfacet
facet normal 0.0001982318157272806 0.00012341821444750416 -0.9999999727360455
  outer loop
    vertex 73.45075402104813 2.901015030485276 -4.780075319906179
    vertex 74.76481532479872 6.701015030485276 -4.780075319906179
    vertex 75.40063508195868 2.9078619150052285 -4.779996331429081
  endloop
endfacet
facet normal 0.0001982318157272806 0.00012341821444750416 -0.9999999727360455
  outer loop
    vertex 75.40063508195868 2.9078619150052285 -4.779996331429081
    vertex 74.76481532479872 6.701015030485276 -4.780075319906179
    vertex 75.40074950933464 6.701015030485276 -4.778877586113023
  endloop
endfacet
facet normal 0.0001982318157272806 0.00012341821444750416 -0.9999999727360455
  outer loop
    vertex 75.40063508195868 2.9078619150052285 -4.779996331429081
    vertex 75.40074950933464 6.701015030485276 -4.778877586113023
    vertex 75.40176810123243 3.7054430109350003 -4.7707951077271895
  endloop
endfacet
facet normal 2.662481358666906e-22 -0.9999999923839719 -0.0001234182168725293
  outer loop
    vertex 75.40063508195868 2.9078619150052285 -4.779996331429081
    vertex 73.4506350819587 2.9009409795566077 -4.180075336264552
    vertex 73.45075402104813 2.901015030485276 -4.780075319906179
  endloop
endfacet
facet normal 2.662481358666906e-22 -0.9999999923839719 -0.0001234182168725293
  outer loop
    vertex 73.4506350819587 2.9009409795566077 -4.180075336264552
    vertex 75.40063508195868 2.9078619150052285 -4.779996331429081
    vertex 75.40063508195868 2.9009409795566077 -4.180075336264552
  endloop
endfacet
facet normal 0.6243351270902829 0.781156599198079 0.00012888154224879127
  outer loop
    vertex 75.40176810123243 3.698522075486379 -4.170874112562661
    vertex 76.40176810123243 2.898522075486379 0.415342887437338
    vertex 76.40063508195868 2.9009409795566077 -4.180075336264552
  endloop
endfacet
facet normal 0.6243351270902829 0.781156599198079 0.00012888154224879127
  outer loop
    vertex 76.40176810123243 2.898522075486379 0.415342887437338
    vertex 75.40176810123243 3.698522075486379 -4.170874112562661
    vertex 75.40176810123243 3.698522075486379 0.415342887437338
  endloop
endfacet
facet normal -8.117978012647112e-19 0.011535643861284311 -0.9999334622467166
  outer loop
    vertex 76.40063508195868 2.9078619150052285 -4.779996331429081
    vertex 75.40063508195868 2.9078619150052285 -4.779996331429081
    vertex 75.40176810123243 3.7054430109350003 -4.7707951077271895
  endloop
endfacet
facet normal 0.6239986296167411 0.7813734405609928 0.009014245520622506
  outer loop
    vertex 75.40176810123243 3.7054430109350003 -4.7707951077271895
    vertex 76.40063508195868 2.9009409795566077 -4.180075336264552
    vertex 76.40063508195868 2.9078619150052285 -4.779996331429081
  endloop
endfacet
facet normal 0.6239986296167411 0.7813734405609928 0.009014245520622506
  outer loop
    vertex 76.40063508195868 2.9009409795566077 -4.180075336264552
    vertex 75.40176810123243 3.7054430109350003 -4.7707951077271895
    vertex 75.40176810123243 3.698522075486379 -4.170874112562661
  endloop
endfacet
facet normal 0.0 -0.9999334622467165 -0.011535643861284311
  outer loop
    vertex 76.40063508195868 2.9009409795566077 -4.180075336264552
    vertex 75.40063508195868 2.9078619150052285 -4.779996331429081
    vertex 76.40063508195868 2.9078619150052285 -4.779996331429081
  endloop
endfacet
facet normal 0.0 -0.9999334622467165 -0.011535643861284311
  outer loop
    vertex 75.40063508195868 2.9078619150052285 -4.779996331429081
    vertex 76.40063508195868 2.9009409795566077 -4.180075336264552
    vertex 75.40063508195868 2.9009409795566077 -4.180075336264552
  endloop
endfacet
facet normal -0.7198673914390038 -5.2195460878178304e-05 -0.6941116163978515
  outer loop
    vertex 62.90081304808969 -0.8013506303816261 -1.3800753502453569
    vertex 64.25066458549409 0.00094097955660834 -2.780075351832187
    vertex 64.25063508195868 -0.8082550204433911 -2.780075353859149
  endloop
endfacet
facet normal -0.7198673914390038 -5.2195460878178304e-05 -0.6941116163978515
  outer loop
    vertex 64.25066458549409 0.00094097955660834 -2.780075351832187
    vertex 62.90081304808969 -0.8013506303816261 -1.3800753502453569
    vertex 62.9006659315688 0.0006933561258030185 -1.380075351832187
  endloop
endfacet
facet normal 7.550283939098706e-10 -0.7888290021609701 -0.6146127279431562
  outer loop
    vertex 65.90063508195868 -0.8082550204433911 -2.780075351832187
    vertex 64.25063508023884 -1.8990590176738307 -1.3800753382915147
    vertex 64.25063508195868 -0.8082550204433911 -2.780075353859149
  endloop
endfacet
facet normal 7.550283939098706e-10 -0.7888290021609701 -0.6146127279431562
  outer loop
    vertex 64.25063508023884 -1.8990590176738307 -1.3800753382915147
    vertex 65.90063508195868 -0.8082550204433911 -2.780075351832187
    vertex 65.90063508023883 -1.8990590176738307 -1.3800753362645524
  endloop
endfacet
facet normal -0.7198897791945271 9.645994905039314e-05 -0.6940883924304838
  outer loop
    vertex 62.90081304808969 -0.8013506303816261 -1.3800753502453569
    vertex 64.25063508195868 -0.8082550204433911 -2.780075353859149
    vertex 62.900665931568824 -1.8993066438741941 -1.380075351832187
  endloop
endfacet
facet normal 0.00014470186148971023 -0.7888289939025576 -0.6146127215084717
  outer loop
    vertex 64.25063508023884 -1.8990590176738307 -1.3800753382915147
    vertex 62.900665931568824 -1.8993066438741941 -1.380075351832187
    vertex 64.25063508195868 -0.8082550204433911 -2.780075353859149
  endloop
endfacet
facet normal 6.147468961303076e-10 -0.8657827898413053 -0.5004199844276868
  outer loop
    vertex 65.90063508195868 -0.8082550204433911 -2.780075351832187
    vertex 64.25063508195868 -0.8082550204433911 -2.780075353859149
    vertex 65.9006645854941 0.0009409795566076351 -4.180075336264552
  endloop
endfacet
facet normal -0.6469774438321989 2.359090690796192e-05 -0.7625091387097096
  outer loop
    vertex 65.9006645854941 0.0009409795566076351 -4.180075336264552
    vertex 64.25063508195868 -0.8082550204433911 -2.780075353859149
    vertex 64.25066458549409 0.00094097955660834 -2.780075351832187
  endloop
endfacet
endsolid Keyboard_Guide
