solid Keyboard_LEDs
facet normal 1.0 -0.0 -0.0
  outer loop
    vertex 24.62000001490116 13.95 0.0
    vertex 24.62000001490116 0.9999999999999999 3.7999999999999994
    vertex 24.62000001490116 0.9999999999999999 0.0
  endloop
endfacet
facet normal 1.0 -0.0 -0.0
  outer loop
    vertex 24.62000001490116 0.9999999999999999 3.7999999999999994
    vertex 24.62000001490116 13.95 0.0
    vertex 24.62000001490116 13.95 3.7999999999999994
  endloop
endfacet
facet normal 1.1076012971223176e-13 -1.0 -1.209617201724578e-13
  outer loop
    vertex 6.15 13.150000000000002 3.8000000000000003
    vertex 2.000000014901161 13.150000000000002 0.0
    vertex 6.15 13.150000000000002 0.0
  endloop
endfacet
facet normal 1.1076012971223176e-13 -1.0 -1.209617201724578e-13
  outer loop
    vertex 2.000000014901161 13.150000000000002 0.0
    vertex 6.15 13.150000000000002 3.8000000000000003
    vertex 2.0000000149017443 13.149999999999082 3.7999999999999994
  endloop
endfacet
facet normal 0.0 -1.0 0.0
  outer loop
    vertex 23.112380931294943 13.150000000000002 3.7999999999999994
    vertex 18.962380931294945 13.150000000000002 0.0
    vertex 23.112380931294943 13.150000000000002 0.0
  endloop
endfacet
facet normal 0.0 -1.0 0.0
  outer loop
    vertex 18.962380931294945 13.150000000000002 0.0
    vertex 23.112380931294943 13.150000000000002 3.7999999999999994
    vertex 18.962380931294945 13.150000000000002 3.8000000000000003
  endloop
endfacet
facet normal -0.0 -0.0 1.0
  outer loop
    vertex 6.15 6.975000000000001 3.8000000000000003
    vertex 2.0000000203468034 7.608547000000001 3.8000000000000003
    vertex 2.0000000149011616 6.975000000000001 3.8000000000000003
  endloop
endfacet
facet normal -0.0 -0.0 1.0
  outer loop
    vertex 2.0000000203468034 7.608547000000001 3.8000000000000003
    vertex 6.15 6.975000000000001 3.8000000000000003
    vertex 6.15 7.608547000000001 3.8000000000000003
  endloop
endfacet
facet normal -1.0 0.0 0.0
  outer loop
    vertex 18.962380931294945 6.011764705882355 1.9999999999999998
    vertex 18.962380931294945 5.199999999999999 0.0
    vertex 18.962380931294945 5.199999999999999 1.9999999999999998
  endloop
endfacet
facet normal -1.0 0.0 0.0
  outer loop
    vertex 18.962380931294945 5.199999999999999 0.0
    vertex 18.962380931294945 6.011764705882355 1.9999999999999998
    vertex 18.962380931294945 6.600000000000002 0.0
  endloop
endfacet
facet normal -0.0 1.0 -0.0
  outer loop
    vertex 23.112380931294943 14.950000000000001 3.7999999999999994
    vertex 23.62000001490116 14.950000000000001 0.0
    vertex 23.112380931294943 14.950000000000001 0.0
  endloop
endfacet
facet normal -0.0 1.0 -0.0
  outer loop
    vertex 23.62000001490116 14.950000000000001 0.0
    vertex 23.112380931294943 14.950000000000001 3.7999999999999994
    vertex 23.62000001490116 14.950000000000001 3.7999999999999994
  endloop
endfacet
facet normal 1.810024998100511e-13 1.0 -6.663596299923852e-29
  outer loop
    vertex 20.96238093129494 14.95000000000039 3.7999999999999994
    vertex 23.112380931294943 14.950000000000001 0.0
    vertex 20.96238093129494 14.95000000000039 0.0
  endloop
endfacet
facet normal 1.810024998100511e-13 1.0 -6.663596299923852e-29
  outer loop
    vertex 23.112380931294943 14.950000000000001 0.0
    vertex 20.96238093129494 14.95000000000039 3.7999999999999994
    vertex 23.112380931294943 14.950000000000001 3.7999999999999994
  endloop
endfacet
facet normal -1.0 -8.996130039534322e-10 6.117424313140668e-14
  outer loop
    vertex 1.4902463511295413e-08 7.975000000000653 3.799999999997638
    vertex 1.4901163253311365e-08 6.975000000000001 2.4
    vertex 1.4901163112313043e-08 6.975000000000001 3.799999999997638
  endloop
endfacet
facet normal -1.0 -8.996130039534322e-10 6.117424313140668e-14
  outer loop
    vertex 1.4901163253311365e-08 6.975000000000001 2.4
    vertex 1.4902463511295413e-08 7.975000000000653 3.799999999997638
    vertex 1.4901163253311365e-08 7.975 2.4
  endloop
endfacet
facet normal -1.0 -8.996130039534322e-10 6.117424313140668e-14
  outer loop
    vertex 1.4901164594243175e-08 1.9999999999999991 3.7999999999999994
    vertex 1.4901161843328125e-08 0.9999999999999999 0.0
    vertex 1.4901161843328125e-08 0.9999999999999999 3.7999999999999994
  endloop
endfacet
facet normal -1.0 -8.996130039534322e-10 6.117424313140668e-14
  outer loop
    vertex 1.4901161843328125e-08 0.9999999999999999 0.0
    vertex 1.4901164594243175e-08 1.9999999999999991 3.7999999999999994
    vertex 1.4901164663294608e-08 1.9999999999999991 2.4
  endloop
endfacet
facet normal -1.0 -8.996130039534322e-10 6.117424313140668e-14
  outer loop
    vertex 1.4901161843328125e-08 0.9999999999999999 0.0
    vertex 1.4901164663294608e-08 1.9999999999999991 2.4
    vertex 7.451522659317479e-09 13.950000000003556 0.0
  endloop
endfacet
facet normal -1.0 -8.996130039534322e-10 6.117424313140668e-14
  outer loop
    vertex 7.451522659317479e-09 13.950000000003556 0.0
    vertex 1.4901164663294608e-08 1.9999999999999991 2.4
    vertex 1.4901163253311365e-08 6.975000000000001 2.4
  endloop
endfacet
facet normal -1.0 -8.996130039534322e-10 6.117424313140668e-14
  outer loop
    vertex 7.451522659317479e-09 13.950000000003556 0.0
    vertex 1.4901163253311365e-08 6.975000000000001 2.4
    vertex 1.4901163253311365e-08 7.975 2.4
  endloop
endfacet
facet normal -1.0 -8.996130039534322e-10 6.117424313140668e-14
  outer loop
    vertex 7.451522659317479e-09 13.950000000003556 0.0
    vertex 1.4901163253311365e-08 7.975 2.4
    vertex 0.0 12.950000000000001 2.4
  endloop
endfacet
facet normal -1.0 -8.996130039534322e-10 6.117424313140668e-14
  outer loop
    vertex 7.451522659317479e-09 13.950000000003556 0.0
    vertex 0.0 12.950000000000001 2.4
    vertex 1.3002579840481367e-12 12.950000000000657 3.799999999997638
  endloop
endfacet
facet normal -1.0 -8.996130039534322e-10 6.117424313140668e-14
  outer loop
    vertex 7.451522659317479e-09 13.950000000003556 0.0
    vertex 1.3002579840481367e-12 12.950000000000657 3.799999999997638
    vertex 7.451522659317479e-09 13.949999999999081 3.7999999999988194
  endloop
endfacet
facet normal 0.0 -1.0 0.0
  outer loop
    vertex 4.15 0.0 3.7999999999999994
    vertex 1.0000000149011619 0.0 0.0
    vertex 4.15 0.0 0.0
  endloop
endfacet
facet normal 0.0 -1.0 0.0
  outer loop
    vertex 1.0000000149011619 0.0 0.0
    vertex 4.15 0.0 3.7999999999999994
    vertex 1.0000000149011619 0.0 3.7999999999999994
  endloop
endfacet
facet normal 0.0 -1.0 0.0
  outer loop
    vertex 1.0000000149011619 0.0 3.7999999999999994
    vertex 4.15 0.0 3.7999999999999994
    vertex 2.000000014901161 0.0 3.7999999999999994
  endloop
endfacet
facet normal -0.0 -0.0 1.0
  outer loop
    vertex 23.104650931294938 8.196782294117646 1.9999999999999998
    vertex 18.962380931294945 9.350000000000003 1.9999999999999998
    vertex 18.962380931294945 8.196782294117646 1.9999999999999998
  endloop
endfacet
facet normal -0.0 -0.0 1.0
  outer loop
    vertex 18.962380931294945 9.350000000000003 1.9999999999999998
    vertex 23.104650931294938 8.196782294117646 1.9999999999999998
    vertex 23.112380931294943 9.350000000000003 1.9999999999999998
  endloop
endfacet
facet normal -1.0 0.0 0.0
  outer loop
    vertex 18.962380931294945 8.196782294117646 1.9999999999999998
    vertex 18.962380931294945 9.350000000000003 0.0
    vertex 18.962380931294945 7.608547000000001 0.0
  endloop
endfacet
facet normal -1.0 0.0 0.0
  outer loop
    vertex 18.962380931294945 9.350000000000003 0.0
    vertex 18.962380931294945 8.196782294117646 1.9999999999999998
    vertex 18.962380931294945 9.350000000000003 1.9999999999999998
  endloop
endfacet
facet normal 1.0 -0.0 -0.0
  outer loop
    vertex 6.15 9.350000000000003 0.0
    vertex 6.15 8.196782294117646 1.9999999999999998
    vertex 6.15 7.608547000000001 0.0
  endloop
endfacet
facet normal 1.0 -0.0 -0.0
  outer loop
    vertex 6.15 8.196782294117646 1.9999999999999998
    vertex 6.15 9.350000000000003 0.0
    vertex 6.15 9.350000000000003 1.9999999999999998
  endloop
endfacet
facet normal -0.0 -0.0 1.0
  outer loop
    vertex 2.012380931294943 5.200009640726585 1.9999999999999998
    vertex 6.15 6.011768675593301 1.9999999999999998
    vertex 2.010737358391415 6.011768675593301 1.9999999999999998
  endloop
endfacet
facet normal -0.0 -0.0 1.0
  outer loop
    vertex 6.15 6.011768675593301 1.9999999999999998
    vertex 2.012380931294943 5.200009640726585 1.9999999999999998
    vertex 6.15 5.200009640726585 1.9999999999999998
  endloop
endfacet
facet normal -0.0 -0.0 1.0
  outer loop
    vertex 23.112380931294943 5.199999999999999 1.9999999999999998
    vertex 18.962380931294945 6.011764705882355 1.9999999999999998
    vertex 18.962380931294945 5.199999999999999 1.9999999999999998
  endloop
endfacet
facet normal -0.0 -0.0 1.0
  outer loop
    vertex 18.962380931294945 6.011764705882355 1.9999999999999998
    vertex 23.112380931294943 5.199999999999999 1.9999999999999998
    vertex 23.112380931294943 6.011764705882355 1.9999999999999998
  endloop
endfacet
facet normal -1.0 0.0 0.0
  outer loop
    vertex 23.112380931294943 5.600000000000002 3.8000000000000003
    vertex 23.112380931294943 5.199999999999999 1.9999999999999998
    vertex 23.112380931294943 5.199999999999999 3.7999999999999994
  endloop
endfacet
facet normal -1.0 0.0 0.0
  outer loop
    vertex 23.112380931294943 5.199999999999999 1.9999999999999998
    vertex 23.112380931294943 5.600000000000002 3.8000000000000003
    vertex 23.112380931294943 5.600000000000002 3.4
  endloop
endfacet
facet normal -1.0 0.0 0.0
  outer loop
    vertex 23.112380931294943 5.199999999999999 1.9999999999999998
    vertex 23.112380931294943 5.600000000000002 3.4
    vertex 23.112380931294943 6.011764705882355 1.9999999999999998
  endloop
endfacet
facet normal -1.0 -2.9064456023074654e-16 -7.501776980590445e-17
  outer loop
    vertex 1.4901163112313043e-08 6.975000000000001 3.799999999997638
    vertex 1.4901164663294608e-08 1.9999999999999991 2.4
    vertex 1.4901164594243175e-08 1.9999999999999991 3.7999999999999994
  endloop
endfacet
facet normal -1.0 -2.9064456023074654e-16 -7.501776980590445e-17
  outer loop
    vertex 1.4901164663294608e-08 1.9999999999999991 2.4
    vertex 1.4901163112313043e-08 6.975000000000001 3.799999999997638
    vertex 1.4901163253311365e-08 6.975000000000001 2.4
  endloop
endfacet
facet normal -1.0 -2.9952086941329366e-09 9.287557042925513e-13
  outer loop
    vertex 1.4902463511295413e-08 7.975000000000653 3.799999999997638
    vertex 0.0 12.950000000000001 2.4
    vertex 1.4901163253311365e-08 7.975 2.4
  endloop
endfacet
facet normal -1.0 -2.9952086941329366e-09 9.287557042925513e-13
  outer loop
    vertex 0.0 12.950000000000001 2.4
    vertex 1.4902463511295413e-08 7.975000000000653 3.799999999997638
    vertex 1.3002579840481367e-12 12.950000000000657 3.799999999997638
  endloop
endfacet
facet normal 0.0 -1.0 0.0
  outer loop
    vertex 23.112380931294943 5.199999999999999 0.0011065525900052025
    vertex 18.962380931294945 5.199999999999999 1.9999999999999998
    vertex 18.962380931294945 5.199999999999999 0.0
  endloop
endfacet
facet normal 0.0 -1.0 0.0
  outer loop
    vertex 18.962380931294945 5.199999999999999 1.9999999999999998
    vertex 23.112380931294943 5.199999999999999 0.0011065525900052025
    vertex 23.112380931294943 5.199999999999999 1.9999999999999998
  endloop
endfacet
facet normal 0.0 1.0 0.0
  outer loop
    vertex 2.000000024567175 9.350000000000003 1.9999999999999998
    vertex 6.15 9.350000000000003 0.0
    vertex 2.000000024567175 9.350000000000003 0.0
  endloop
endfacet
facet normal 0.0 1.0 0.0
  outer loop
    vertex 6.15 9.350000000000003 0.0
    vertex 2.000000024567175 9.350000000000003 1.9999999999999998
    vertex 6.15 9.350000000000003 1.9999999999999998
  endloop
endfacet
facet normal 0.0 -1.0 0.0
  outer loop
    vertex 6.15 5.200009640726585 1.9999999999999998
    vertex 2.012380931294943 5.200009640726585 0.0
    vertex 6.15 5.200009640726585 0.0
  endloop
endfacet
facet normal 0.0 -1.0 0.0
  outer loop
    vertex 2.012380931294943 5.200009640726585 0.0
    vertex 6.15 5.200009640726585 1.9999999999999998
    vertex 2.012380931294943 5.200009640726585 1.9999999999999998
  endloop
endfacet
facet normal 1.0 -0.0 -0.0
  outer loop
    vertex 6.15 6.600009640726586 0.0
    vertex 6.15 5.200009640726585 1.9999999999999998
    vertex 6.15 5.200009640726585 0.0
  endloop
endfacet
facet normal 1.0 -0.0 -0.0
  outer loop
    vertex 6.15 5.200009640726585 1.9999999999999998
    vertex 6.15 6.600009640726586 0.0
    vertex 6.15 6.011768675593301 1.9999999999999998
  endloop
endfacet
facet normal -0.0 -0.0 1.0
  outer loop
    vertex 23.112380931294943 6.600000000000002 3.8000000000000003
    vertex 18.962380931294945 6.975000000000001 3.8000000000000003
    vertex 18.962380931294945 6.600000000000002 3.8000000000000003
  endloop
endfacet
facet normal -0.0 -0.0 1.0
  outer loop
    vertex 18.962380931294945 6.975000000000001 3.8000000000000003
    vertex 23.112380931294943 6.600000000000002 3.8000000000000003
    vertex 23.112380931294943 6.975000000000001 3.8000000000000003
  endloop
endfacet
facet normal -0.0 -0.0 1.0
  outer loop
    vertex 6.15 8.196782294117646 1.9999999999999998
    vertex 2.000000024567175 9.350000000000003 1.9999999999999998
    vertex 2.0000000216942553 8.196782294117646 1.9999999999999998
  endloop
endfacet
facet normal -0.0 -0.0 1.0
  outer loop
    vertex 2.000000024567175 9.350000000000003 1.9999999999999998
    vertex 6.15 8.196782294117646 1.9999999999999998
    vertex 6.15 9.350000000000003 1.9999999999999998
  endloop
endfacet
facet normal 1.0 -2.9410984596128884e-09 3.681882367324578e-10
  outer loop
    vertex 2.000000024567175 9.350000000000003 1.9999999999999998
    vertex 2.000000021694258 8.608547 3.4
    vertex 2.0000000216942553 8.196782294117646 1.9999999999999998
  endloop
endfacet
facet normal 1.0 -2.9410984596128884e-09 3.681882367324578e-10
  outer loop
    vertex 2.000000021694258 8.608547 3.4
    vertex 2.000000024567175 9.350000000000003 1.9999999999999998
    vertex 2.0000000216955582 8.608547000000653 3.799999999997639
  endloop
endfacet
facet normal 1.0 -2.9410984596128884e-09 3.681882367324578e-10
  outer loop
    vertex 2.0000000216955582 8.608547000000653 3.799999999997639
    vertex 2.000000024567175 9.350000000000003 1.9999999999999998
    vertex 2.000000024463617 9.350000000000003 2.3844469999999998
  endloop
endfacet
facet normal 1.0 -2.9410984596128884e-09 3.681882367324578e-10
  outer loop
    vertex 2.0000000216955582 8.608547000000653 3.799999999997639
    vertex 2.000000024463617 9.350000000000003 2.3844469999999998
    vertex 2.0000000245684753 9.350000000000657 3.799999999997638
  endloop
endfacet
facet normal 0.9999966817448612 0.002553362812261654 0.0003418151778298384
  outer loop
    vertex 2.010737358391415 6.011768675593301 1.9999999999999998
    vertex 2.012380931294943 5.200009640726585 3.7999999999999994
    vertex 2.012380931294943 5.200009640726585 1.9999999999999998
  endloop
endfacet
facet normal 0.9999966817448612 0.002553362812261654 0.0003418151778298384
  outer loop
    vertex 2.012380931294943 5.200009640726585 3.7999999999999994
    vertex 2.010737358391415 6.011768675593301 1.9999999999999998
    vertex 2.010737358391415 5.600000000000002 3.4
  endloop
endfacet
facet normal 0.9999966817448612 0.002553362812261654 0.0003418151778298384
  outer loop
    vertex 2.010737358391415 5.600000000000002 3.8000000000000003
    vertex 2.012380931294943 5.200009640726585 3.7999999999999994
    vertex 2.010737358391415 5.600000000000002 3.4
  endloop
endfacet
facet normal -1.1980763911249805e-21 0.9593655015712705 -0.28216632399155034
  outer loop
    vertex 2.000000021694258 8.608547 3.4
    vertex 6.15 8.196782294117646 1.9999999999999998
    vertex 2.0000000216942553 8.196782294117646 1.9999999999999998
  endloop
endfacet
facet normal -1.1980763911249805e-21 0.9593655015712705 -0.28216632399155034
  outer loop
    vertex 6.15 8.196782294117646 1.9999999999999998
    vertex 2.000000021694258 8.608547 3.4
    vertex 18.962380931294945 8.196782294117646 1.9999999999999998
  endloop
endfacet
facet normal -1.1980763911249805e-21 0.9593655015712705 -0.28216632399155034
  outer loop
    vertex 18.962380931294945 8.196782294117646 1.9999999999999998
    vertex 2.000000021694258 8.608547 3.4
    vertex 23.104650931294938 8.196782294117646 1.9999999999999998
  endloop
endfacet
facet normal -1.1980763911249805e-21 0.9593655015712705 -0.28216632399155034
  outer loop
    vertex 23.104650931294938 8.196782294117646 1.9999999999999998
    vertex 2.000000021694258 8.608547 3.4
    vertex 23.104650931294938 8.608547 3.4
  endloop
endfacet
facet normal -1.2245785781458312e-07 -0.9593651334422497 -0.28216757562717804
  outer loop
    vertex 23.112380931294943 5.600000000000002 3.4
    vertex 18.962380931294945 6.011764705882355 1.9999999999999998
    vertex 23.112380931294943 6.011764705882355 1.9999999999999998
  endloop
endfacet
facet normal -1.2245785781458312e-07 -0.9593651334422497 -0.28216757562717804
  outer loop
    vertex 18.962380931294945 6.011764705882355 1.9999999999999998
    vertex 23.112380931294943 5.600000000000002 3.4
    vertex 6.15 6.011768675593301 1.9999999999999998
  endloop
endfacet
facet normal -1.2245785781458312e-07 -0.9593651334422497 -0.28216757562717804
  outer loop
    vertex 6.15 6.011768675593301 1.9999999999999998
    vertex 23.112380931294943 5.600000000000002 3.4
    vertex 2.010737358391415 6.011768675593301 1.9999999999999998
  endloop
endfacet
facet normal -1.2245785781458312e-07 -0.9593651334422497 -0.28216757562717804
  outer loop
    vertex 2.010737358391415 6.011768675593301 1.9999999999999998
    vertex 23.112380931294943 5.600000000000002 3.4
    vertex 2.010737358391415 5.600000000000002 3.4
  endloop
endfacet
facet normal 0.0012762596368442493 0.0009865934525772394 -0.9999986988965031
  outer loop
    vertex 23.112380931294943 9.350000000000003 0.009710999999999475
    vertex 18.962380931294945 7.608547000000001 0.0
    vertex 18.962380931294945 9.350000000000003 0.0
  endloop
endfacet
facet normal 0.0012762596368442493 0.0009865934525772394 -0.9999986988965031
  outer loop
    vertex 18.962380931294945 7.608547000000001 0.0
    vertex 23.112380931294943 9.350000000000003 0.009710999999999475
    vertex 18.962380931294945 7.508547 0.0
  endloop
endfacet
facet normal 0.0012762596368442493 0.0009865934525772394 -0.9999986988965031
  outer loop
    vertex 18.962380931294945 7.508547 0.0
    vertex 23.112380931294943 9.350000000000003 0.009710999999999475
    vertex 18.962380931294945 6.700000000000002 0.0
  endloop
endfacet
facet normal 0.0012762596368442493 0.0009865934525772394 -0.9999986988965031
  outer loop
    vertex 18.962380931294945 6.700000000000002 0.0
    vertex 23.112380931294943 9.350000000000003 0.009710999999999475
    vertex 18.962380931294945 6.600000000000002 0.0
  endloop
endfacet
facet normal 0.0012762596368442493 0.0009865934525772394 -0.9999986988965031
  outer loop
    vertex 18.962380931294945 6.600000000000002 0.0
    vertex 23.112380931294943 9.350000000000003 0.009710999999999475
    vertex 18.962380931294945 5.199999999999999 0.0
  endloop
endfacet
facet normal 0.0012762596368442493 0.0009865934525772394 -0.9999986988965031
  outer loop
    vertex 18.962380931294945 5.199999999999999 0.0
    vertex 23.112380931294943 9.350000000000003 0.009710999999999475
    vertex 23.112380931294943 5.199999999999999 0.0011065525900052025
  endloop
endfacet
facet normal 1.0 -0.0 -0.0
  outer loop
    vertex 6.15 6.700009640726586 0.0
    vertex 6.15 6.011768675593301 1.9999999999999998
    vertex 6.15 6.600009640726586 0.0
  endloop
endfacet
facet normal 1.0 -0.0 -0.0
  outer loop
    vertex 6.15 8.196782294117646 1.9999999999999998
    vertex 6.15 7.500009640726587 0.0
    vertex 6.15 7.608547000000001 0.0
  endloop
endfacet
facet normal -1.0 0.0 0.0
  outer loop
    vertex 18.962380931294945 8.196782294117646 1.9999999999999998
    vertex 18.962380931294945 7.608547000000001 0.0
    vertex 18.962380931294945 7.508547 0.0
  endloop
endfacet
facet normal -1.0 0.0 0.0
  outer loop
    vertex 18.962380931294945 6.700000000000002 0.0
    vertex 18.962380931294945 6.600000000000002 0.0
    vertex 18.962380931294945 6.011764705882355 1.9999999999999998
  endloop
endfacet
facet normal -0.0003148298700202783 0.9449573560319723 -0.32719336204027377
  outer loop
    vertex 6.15 8.196782294117646 1.9999999999999998
    vertex 18.962380931294945 7.508547 0.0
    vertex 6.15 7.500009640726587 0.0
  endloop
endfacet
facet normal -0.0003148298700202783 0.9449573560319723 -0.32719336204027377
  outer loop
    vertex 18.962380931294945 7.508547 0.0
    vertex 6.15 8.196782294117646 1.9999999999999998
    vertex 18.962380931294945 8.196782294117646 1.9999999999999998
  endloop
endfacet
facet normal 0.0 0.0 -1.0
  outer loop
    vertex 18.962380931294945 7.508547 0.0
    vertex 6.15 6.700009640726586 0.0
    vertex 6.15 7.500009640726587 0.0
  endloop
endfacet
facet normal 0.0 0.0 -1.0
  outer loop
    vertex 6.15 6.700009640726586 0.0
    vertex 18.962380931294945 7.508547 0.0
    vertex 18.962380931294945 6.700000000000002 0.0
  endloop
endfacet
facet normal -5.022387158008836e-07 -0.9455792631125053 -0.3253918517285883
  outer loop
    vertex 18.962380931294945 6.011764705882355 1.9999999999999998
    vertex 6.15 6.700009640726586 0.0
    vertex 18.962380931294945 6.700000000000002 0.0
  endloop
endfacet
facet normal -5.022387158008836e-07 -0.9455792631125053 -0.3253918517285883
  outer loop
    vertex 6.15 6.700009640726586 0.0
    vertex 18.962380931294945 6.011764705882355 1.9999999999999998
    vertex 6.15 6.011768675593301 1.9999999999999998
  endloop
endfacet
facet normal -0.0 1.0 -0.0
  outer loop
    vertex 18.962380931294945 9.350000000000003 1.9999999999999998
    vertex 23.112380931294943 9.350000000000003 0.009710999999999475
    vertex 18.962380931294945 9.350000000000003 0.0
  endloop
endfacet
facet normal -0.0 1.0 -0.0
  outer loop
    vertex 23.112380931294943 9.350000000000003 0.009710999999999475
    vertex 18.962380931294945 9.350000000000003 1.9999999999999998
    vertex 23.112380931294943 9.350000000000003 1.9999999999999998
  endloop
endfacet
facet normal 1.0 3.0206294225158347e-09 2.606410851558718e-40
  outer loop
    vertex 1.700000014901161 12.949999999119298 -1.302929860541923e-11
    vertex 1.700000023963049 9.9499999991193 2.3999999999869703
    vertex 1.700000023963049 9.9499999991193 -1.302929860541923e-11
  endloop
endfacet
facet normal 1.0 3.0206294225158347e-09 2.606410851558718e-40
  outer loop
    vertex 1.700000023963049 9.9499999991193 2.3999999999869703
    vertex 1.700000014901161 12.949999999119298 -1.302929860541923e-11
    vertex 1.700000014901161 12.949999999119298 2.3999999999869703
  endloop
endfacet
facet normal 1.0 3.0206294225158343e-09 -9.288264616027229e-13
  outer loop
    vertex 1.700000014901161 12.949999999119298 2.3999999999869703
    vertex 1.7000000239643496 9.949999999119953 3.7999999999846095
    vertex 1.700000023963049 9.9499999991193 2.3999999999869703
  endloop
endfacet
facet normal 1.0 3.0206294225158343e-09 -9.288264616027229e-13
  outer loop
    vertex 1.7000000239643496 9.949999999119953 3.7999999999846095
    vertex 1.700000014901161 12.949999999119298 2.3999999999869703
    vertex 1.7000000149024612 12.949999999119953 3.7999999999846095
  endloop
endfacet
facet normal 0.9999914842140262 -0.004126923724668201 -0.0
  outer loop
    vertex 1.7123834860307356 5.001247717843987 2.4
    vertex 1.7000025696369536 2.0012380771174 3.7999999999999994
    vertex 1.7000025696369536 2.0012380771174 2.4
  endloop
endfacet
facet normal 0.9999914842140262 -0.004126923724668201 -0.0
  outer loop
    vertex 1.7000025696369536 2.0012380771174 3.7999999999999994
    vertex 1.7123834860307356 5.001247717843987 2.4
    vertex 1.7123834860307356 5.001247717843987 3.7999999999999994
  endloop
endfacet
facet normal 0.9999914842140262 -0.0041269237246682015 -0.0
  outer loop
    vertex 1.7123834860307356 5.001247717843987 0.0
    vertex 1.7000025696369536 2.0012380771174 2.4
    vertex 1.7000025696369536 2.0012380771174 0.0
  endloop
endfacet
facet normal 0.9999914842140262 -0.0041269237246682015 -0.0
  outer loop
    vertex 1.7000025696369536 2.0012380771174 2.4
    vertex 1.7123834860307356 5.001247717843987 0.0
    vertex 1.7123834860307356 5.001247717843987 2.4
  endloop
endfacet
facet normal -1.0 0.0 0.0
  outer loop
    vertex 23.412380931294944 12.950000000000001 3.7999999999999994
    vertex 23.412380931294944 9.950000000000001 0.00971099999999965
    vertex 23.412380931294944 9.950000000000001 3.7999999999999994
  endloop
endfacet
facet normal -1.0 0.0 0.0
  outer loop
    vertex 23.412380931294944 9.950000000000001 0.00971099999999965
    vertex 23.412380931294944 12.950000000000001 3.7999999999999994
    vertex 23.412380931294944 12.950000000000001 1.762479051592436e-16
  endloop
endfacet
facet normal -1.0 0.0 0.0
  outer loop
    vertex 23.412380931294944 4.999999999999998 3.7999999999999994
    vertex 23.412380931294944 1.9999999999999996 -3.524958103184872e-16
    vertex 23.412380931294944 1.9999999999999996 3.7999999999999994
  endloop
endfacet
facet normal -1.0 0.0 0.0
  outer loop
    vertex 23.412380931294944 1.9999999999999996 -3.524958103184872e-16
    vertex 23.412380931294944 4.999999999999998 3.7999999999999994
    vertex 23.412380931294944 4.999999999999998 0.0011065525900052025
  endloop
endfacet
facet normal 0.5547001979150993 -0.8320502932112638 -1.6259188828578644e-13
  outer loop
    vertex 2.000000014901161 13.150000000000002 0.0
    vertex 1.700000014901161 12.949999999119298 2.3999999999869703
    vertex 1.700000014901161 12.949999999119298 -1.302929860541923e-11
  endloop
endfacet
facet normal 0.5547001979150993 -0.8320502932112638 -1.6259188828578644e-13
  outer loop
    vertex 1.700000014901161 12.949999999119298 2.3999999999869703
    vertex 2.000000014901161 13.150000000000002 0.0
    vertex 2.0000000149017443 13.149999999999082 3.7999999999999994
  endloop
endfacet
facet normal 0.5547001979150993 -0.8320502932112638 -1.6259188828578644e-13
  outer loop
    vertex 1.700000014901161 12.949999999119298 2.3999999999869703
    vertex 2.0000000149017443 13.149999999999082 3.7999999999999994
    vertex 1.7000000149024612 12.949999999119953 3.7999999999846095
  endloop
endfacet
facet normal 0.0 0.0 -1.0
  outer loop
    vertex 20.96238093129494 14.95000000000039 0.0
    vertex 18.962380931294945 13.150000000000002 0.0
    vertex 18.962380931294945 14.950000000000754 0.0
  endloop
endfacet
facet normal 0.0 0.0 -1.0
  outer loop
    vertex 18.962380931294945 13.150000000000002 0.0
    vertex 20.96238093129494 14.95000000000039 0.0
    vertex 23.112380931294943 13.150000000000002 0.0
  endloop
endfacet
facet normal 0.0 0.0 -1.0
  outer loop
    vertex 23.112380931294943 13.150000000000002 0.0
    vertex 20.96238093129494 14.95000000000039 0.0
    vertex 23.112380931294943 14.950000000000001 0.0
  endloop
endfacet
facet normal 0.5523194135295829 -0.8336325722033284 -2.8474542388762096e-18
  outer loop
    vertex 2.012380931294943 5.200009640726585 1.9999999999999998
    vertex 1.7123834860307356 5.001247717843987 0.0
    vertex 2.012380931294943 5.200009640726585 0.0
  endloop
endfacet
facet normal 0.5523194135295829 -0.8336325722033284 -2.8474542388762096e-18
  outer loop
    vertex 1.7123834860307356 5.001247717843987 0.0
    vertex 2.012380931294943 5.200009640726585 1.9999999999999998
    vertex 1.7123834860307356 5.001247717843987 2.4
  endloop
endfacet
facet normal 0.5523194135295829 -0.8336325722033284 -2.8474542388762096e-18
  outer loop
    vertex 1.7123834860307356 5.001247717843987 2.4
    vertex 2.012380931294943 5.200009640726585 1.9999999999999998
    vertex 2.012380931294943 5.200009640726585 3.7999999999999994
  endloop
endfacet
facet normal 0.5523194135295829 -0.8336325722033284 -2.8474542388762096e-18
  outer loop
    vertex 1.7123834860307356 5.001247717843987 2.4
    vertex 2.012380931294943 5.200009640726585 3.7999999999999994
    vertex 1.7123834860307356 5.001247717843987 3.7999999999999994
  endloop
endfacet
facet normal -0.554700196225229 -0.8320502943378437 6.717518039174486e-19
  outer loop
    vertex 23.412380931294944 12.950000000000001 1.762479051592436e-16
    vertex 23.112380931294943 13.150000000000002 3.7999999999999994
    vertex 23.112380931294943 13.150000000000002 0.0
  endloop
endfacet
facet normal -0.554700196225229 -0.8320502943378437 6.717518039174486e-19
  outer loop
    vertex 23.112380931294943 13.150000000000002 3.7999999999999994
    vertex 23.412380931294944 12.950000000000001 1.762479051592436e-16
    vertex 23.412380931294944 12.950000000000001 3.7999999999999994
  endloop
endfacet
facet normal -0.5547001962252305 -0.8320502943378429 -2.284254300939523e-18
  outer loop
    vertex 23.412380931294944 4.999999999999998 3.7999999999999994
    vertex 23.112380931294943 5.199999999999999 0.0011065525900052025
    vertex 23.412380931294944 4.999999999999998 0.0011065525900052025
  endloop
endfacet
facet normal -0.5547001962252305 -0.8320502943378429 -2.284254300939523e-18
  outer loop
    vertex 23.112380931294943 5.199999999999999 0.0011065525900052025
    vertex 23.412380931294944 4.999999999999998 3.7999999999999994
    vertex 23.112380931294943 5.199999999999999 1.9999999999999998
  endloop
endfacet
facet normal -0.5547001962252305 -0.8320502943378429 -2.284254300939523e-18
  outer loop
    vertex 23.112380931294943 5.199999999999999 1.9999999999999998
    vertex 23.412380931294944 4.999999999999998 3.7999999999999994
    vertex 23.112380931294943 5.199999999999999 3.7999999999999994
  endloop
endfacet
facet normal -0.9999689895506813 0.007791474050179205 -0.0011458050073792966
  outer loop
    vertex 23.104650931294938 8.608547 3.4
    vertex 23.112380931294943 9.350000000000003 1.9999999999999998
    vertex 23.104650931294938 8.196782294117646 1.9999999999999998
  endloop
endfacet
facet normal -0.9999689895506813 0.007791474050179205 -0.0011458050073792966
  outer loop
    vertex 23.112380931294943 9.350000000000003 1.9999999999999998
    vertex 23.104650931294938 8.608547 3.4
    vertex 23.112380931294943 9.350000000000003 3.3999999999999995
  endloop
endfacet
facet normal -0.0 1.0 -0.0
  outer loop
    vertex 18.962380931294945 1.3999999999999995 3.7999999999999994
    vertex 23.112380931294943 1.3999999999999995 0.0
    vertex 18.962380931294945 1.3999999999999995 0.0
  endloop
endfacet
facet normal -0.0 1.0 -0.0
  outer loop
    vertex 23.112380931294943 1.3999999999999995 0.0
    vertex 18.962380931294945 1.3999999999999995 3.7999999999999994
    vertex 23.112380931294943 1.3999999999999995 3.7999999999999994
  endloop
endfacet
facet normal -0.0 1.0 -0.0
  outer loop
    vertex 2.000000014901161 1.3999999999999995 3.7999999999999994
    vertex 6.15 1.3999999999999995 0.0
    vertex 2.000000014901161 1.3999999999999995 0.0
  endloop
endfacet
facet normal -0.0 1.0 -0.0
  outer loop
    vertex 6.15 1.3999999999999995 0.0
    vertex 2.000000014901161 1.3999999999999995 3.7999999999999994
    vertex 6.15 1.3999999999999995 3.7999999999999994
  endloop
endfacet
facet normal -0.001801713626295768 0.00012538529071442673 -0.9999983690519388
  outer loop
    vertex 23.62000001490116 14.950000000000001 0.0
    vertex 23.112380931294943 13.150000000000002 0.0
    vertex 23.112380931294943 14.950000000000001 0.0
  endloop
endfacet
facet normal -0.001801713626295768 0.00012538529071442673 -0.9999983690519388
  outer loop
    vertex 23.112380931294943 13.150000000000002 0.0
    vertex 23.62000001490116 14.950000000000001 0.0
    vertex 23.412380931294944 12.950000000000001 1.762479051592436e-16
  endloop
endfacet
facet normal -0.001801713626295768 0.00012538529071442673 -0.9999983690519388
  outer loop
    vertex 23.412380931294944 12.950000000000001 1.762479051592436e-16
    vertex 23.62000001490116 14.950000000000001 0.0
    vertex 23.412380931294944 9.950000000000001 0.00971099999999965
  endloop
endfacet
facet normal -0.001801713626295768 0.00012538529071442673 -0.9999983690519388
  outer loop
    vertex 23.412380931294944 9.950000000000001 0.00971099999999965
    vertex 23.62000001490116 14.950000000000001 0.0
    vertex 23.412380931294944 9.750000000000002 0.00971099999999965
  endloop
endfacet
facet normal -0.001801713626295768 0.00012538529071442673 -0.9999983690519388
  outer loop
    vertex 23.412380931294944 9.750000000000002 0.00971099999999965
    vertex 23.62000001490116 14.950000000000001 0.0
    vertex 23.412380931294944 4.999999999999998 0.0011065525900052025
  endloop
endfacet
facet normal -0.001801713626295768 0.00012538529071442673 -0.9999983690519388
  outer loop
    vertex 23.412380931294944 4.999999999999998 0.0011065525900052025
    vertex 23.62000001490116 14.950000000000001 0.0
    vertex 23.412380931294944 1.9999999999999996 -3.524958103184872e-16
  endloop
endfacet
facet normal -0.001801713626295768 0.00012538529071442673 -0.9999983690519388
  outer loop
    vertex 23.412380931294944 1.9999999999999996 -3.524958103184872e-16
    vertex 23.62000001490116 14.950000000000001 0.0
    vertex 23.412380931294944 1.7999999999999996 -3.524958103184872e-16
  endloop
endfacet
facet normal -0.001801713626295768 0.00012538529071442673 -0.9999983690519388
  outer loop
    vertex 23.112380931294943 1.3999999999999995 0.0
    vertex 23.62000001490116 -7.304169426249653e-19 0.0
    vertex 23.112380931294943 0.0 0.0
  endloop
endfacet
facet normal -0.001801713626295768 0.00012538529071442673 -0.9999983690519388
  outer loop
    vertex 23.62000001490116 -7.304169426249653e-19 0.0
    vertex 23.112380931294943 1.3999999999999995 0.0
    vertex 23.412380931294944 1.7999999999999996 -3.524958103184872e-16
  endloop
endfacet
facet normal -0.001801713626295768 0.00012538529071442673 -0.9999983690519388
  outer loop
    vertex 23.62000001490116 -7.304169426249653e-19 0.0
    vertex 23.412380931294944 1.7999999999999996 -3.524958103184872e-16
    vertex 23.62000001490116 14.950000000000001 0.0
  endloop
endfacet
facet normal -0.001801713626295768 0.00012538529071442673 -0.9999983690519388
  outer loop
    vertex 23.62000001490116 -7.304169426249653e-19 0.0
    vertex 23.62000001490116 14.950000000000001 0.0
    vertex 24.62000001490116 13.95 0.0
  endloop
endfacet
facet normal -0.001801713626295768 0.00012538529071442673 -0.9999983690519388
  outer loop
    vertex 23.62000001490116 -7.304169426249653e-19 0.0
    vertex 24.62000001490116 13.95 0.0
    vertex 24.62000001490116 0.9999999999999999 0.0
  endloop
endfacet
facet normal -0.001801713626295768 0.00012538529071442673 -0.9999983690519388
  outer loop
    vertex 23.412380931294944 9.750000000000002 0.00971099999999965
    vertex 23.112380931294943 5.199999999999999 0.0011065525900052025
    vertex 23.112380931294943 9.350000000000003 0.009710999999999475
  endloop
endfacet
facet normal -0.001801713626295768 0.00012538529071442673 -0.9999983690519388
  outer loop
    vertex 23.112380931294943 5.199999999999999 0.0011065525900052025
    vertex 23.412380931294944 9.750000000000002 0.00971099999999965
    vertex 23.412380931294944 4.999999999999998 0.0011065525900052025
  endloop
endfacet
facet normal 0.7999999987859331 0.600000001618756 3.4744796158422585e-11
  outer loop
    vertex 1.700000023963049 9.7499999991193 -1.302929860541923e-11
    vertex 2.000000024567175 9.350000000000003 1.9999999999999998
    vertex 2.000000024567175 9.350000000000003 0.0
  endloop
endfacet
facet normal 0.7999999987859331 0.600000001618756 3.4744796158422585e-11
  outer loop
    vertex 2.000000024567175 9.350000000000003 1.9999999999999998
    vertex 1.700000023963049 9.7499999991193 -1.302929860541923e-11
    vertex 2.000000024463617 9.350000000000003 2.3844469999999998
  endloop
endfacet
facet normal 0.7999999987859331 0.600000001618756 3.4744796158422585e-11
  outer loop
    vertex 2.000000024463617 9.350000000000003 2.3844469999999998
    vertex 1.700000023963049 9.7499999991193 -1.302929860541923e-11
    vertex 1.7000000238594912 9.7499999991193 2.3844469999869706
  endloop
endfacet
facet normal 1.0 -2.5973380994462647e-10 2.1574123541029004e-11
  outer loop
    vertex 1.700000023963049 9.9499999991193 -1.302929860541923e-11
    vertex 1.7000000238594912 9.7499999991193 2.3844469999869706
    vertex 1.700000023963049 9.7499999991193 -1.302929860541923e-11
  endloop
endfacet
facet normal 1.0 -2.5973380994462647e-10 2.1574123541029004e-11
  outer loop
    vertex 1.7000000238594912 9.7499999991193 2.3844469999869706
    vertex 1.700000023963049 9.9499999991193 -1.302929860541923e-11
    vertex 1.700000023963049 9.9499999991193 2.3999999999869703
  endloop
endfacet
facet normal 1.0 -5.177899081720847e-10 9.86577149101142e-28
  outer loop
    vertex 1.700000023963049 9.9499999991193 2.3999999999869703
    vertex 1.7000000238607915 9.749999999119954 3.79999999999221
    vertex 1.7000000238594912 9.7499999991193 2.3844469999869706
  endloop
endfacet
facet normal 1.0 -5.177899081720847e-10 9.86577149101142e-28
  outer loop
    vertex 1.7000000238607915 9.749999999119954 3.79999999999221
    vertex 1.700000023963049 9.9499999991193 2.3999999999869703
    vertex 1.7000000239643496 9.949999999119953 3.7999999999846095
  endloop
endfacet
facet normal 0.7999999987362254 0.6000000016850331 -4.078879968309308e-11
  outer loop
    vertex 1.7000000238594912 9.7499999991193 2.3844469999869706
    vertex 2.0000000245684753 9.350000000000657 3.799999999997638
    vertex 2.000000024463617 9.350000000000003 2.3844469999999998
  endloop
endfacet
facet normal 0.7999999987362254 0.6000000016850331 -4.078879968309308e-11
  outer loop
    vertex 2.0000000245684753 9.350000000000657 3.799999999997638
    vertex 1.7000000238594912 9.7499999991193 2.3844469999869706
    vertex 1.7000000238607915 9.749999999119954 3.79999999999221
  endloop
endfacet
facet normal 0.8008912183557468 0.59880986661932 -1.8005869224327442e-20
  outer loop
    vertex 1.7000025696369536 1.8012380771173997 0.0
    vertex 2.000000014901161 1.3999999999999995 3.7999999999999994
    vertex 2.000000014901161 1.3999999999999995 0.0
  endloop
endfacet
facet normal 0.8008912183557468 0.59880986661932 -1.8005869224327442e-20
  outer loop
    vertex 2.000000014901161 1.3999999999999995 3.7999999999999994
    vertex 1.7000025696369536 1.8012380771173997 0.0
    vertex 1.7000025696369536 1.8012380771173997 3.7999999999999985
  endloop
endfacet
facet normal 1.0 -0.0 -0.0
  outer loop
    vertex 1.7000025696369536 2.0012380771174 0.0
    vertex 1.7000025696369536 1.8012380771173997 3.7999999999999985
    vertex 1.7000025696369536 1.8012380771173997 0.0
  endloop
endfacet
facet normal 1.0 -0.0 -0.0
  outer loop
    vertex 1.7000025696369536 1.8012380771173997 3.7999999999999985
    vertex 1.7000025696369536 2.0012380771174 0.0
    vertex 1.7000025696369536 2.0012380771174 3.7999999999999994
  endloop
endfacet
facet normal 1.0 -0.0 -0.0
  outer loop
    vertex 1.7000025696369536 2.0012380771174 3.7999999999999994
    vertex 1.7000025696369536 2.0012380771174 0.0
    vertex 1.7000025696369536 2.0012380771174 2.4
  endloop
endfacet
facet normal -1.0 0.0 0.0
  outer loop
    vertex 23.412380931294944 1.9999999999999996 3.7999999999999994
    vertex 23.412380931294944 1.7999999999999996 -3.524958103184872e-16
    vertex 23.412380931294944 1.7999999999999996 3.7999999999999994
  endloop
endfacet
facet normal -1.0 0.0 0.0
  outer loop
    vertex 23.412380931294944 1.7999999999999996 -3.524958103184872e-16
    vertex 23.412380931294944 1.9999999999999996 3.7999999999999994
    vertex 23.412380931294944 1.9999999999999996 -3.524958103184872e-16
  endloop
endfacet
facet normal -0.8000000000000006 0.5999999999999994 9.688142293639131e-19
  outer loop
    vertex 23.412380931294944 1.7999999999999996 3.7999999999999994
    vertex 23.112380931294943 1.3999999999999995 0.0
    vertex 23.112380931294943 1.3999999999999995 3.7999999999999994
  endloop
endfacet
facet normal -0.8000000000000006 0.5999999999999994 9.688142293639131e-19
  outer loop
    vertex 23.112380931294943 1.3999999999999995 0.0
    vertex 23.412380931294944 1.7999999999999996 3.7999999999999994
    vertex 23.412380931294944 1.7999999999999996 -3.524958103184872e-16
  endloop
endfacet
facet normal -1.0 0.0 0.0
  outer loop
    vertex 23.412380931294944 9.950000000000001 3.7999999999999994
    vertex 23.412380931294944 9.750000000000002 0.00971099999999965
    vertex 23.412380931294944 9.750000000000002 3.7999999999999994
  endloop
endfacet
facet normal -1.0 0.0 0.0
  outer loop
    vertex 23.412380931294944 9.750000000000002 0.00971099999999965
    vertex 23.412380931294944 9.950000000000001 3.7999999999999994
    vertex 23.412380931294944 9.950000000000001 0.00971099999999965
  endloop
endfacet
facet normal -0.8 0.5999999999999999 -1.4901947760316996e-18
  outer loop
    vertex 23.412380931294944 9.750000000000002 3.7999999999999994
    vertex 23.112380931294943 9.350000000000003 3.3999999999999995
    vertex 23.112380931294943 9.350000000000003 3.7999999999999994
  endloop
endfacet
facet normal -0.8 0.5999999999999999 -1.4901947760316996e-18
  outer loop
    vertex 23.112380931294943 9.350000000000003 3.3999999999999995
    vertex 23.412380931294944 9.750000000000002 3.7999999999999994
    vertex 23.112380931294943 9.350000000000003 1.9999999999999998
  endloop
endfacet
facet normal -0.8 0.5999999999999999 -1.4901947760316996e-18
  outer loop
    vertex 23.112380931294943 9.350000000000003 1.9999999999999998
    vertex 23.412380931294944 9.750000000000002 3.7999999999999994
    vertex 23.112380931294943 9.350000000000003 0.009710999999999475
  endloop
endfacet
facet normal -0.8 0.5999999999999999 -1.4901947760316996e-18
  outer loop
    vertex 23.112380931294943 9.350000000000003 0.009710999999999475
    vertex 23.412380931294944 9.750000000000002 3.7999999999999994
    vertex 23.412380931294944 9.750000000000002 0.00971099999999965
  endloop
endfacet
facet normal -1.0093566311059452e-17 -1.587566263289054e-16 1.0
  outer loop
    vertex 2.0000000149017443 13.149999999999082 3.7999999999999994
    vertex 4.15 14.950000000003444 3.8000000000000003
    vertex 2.0000000149011616 14.950000000000001 3.8000000000000003
  endloop
endfacet
facet normal -1.0093566311059452e-17 -1.587566263289054e-16 1.0
  outer loop
    vertex 4.15 14.950000000003444 3.8000000000000003
    vertex 2.0000000149017443 13.149999999999082 3.7999999999999994
    vertex 6.15 13.150000000000002 3.8000000000000003
  endloop
endfacet
facet normal -1.0093566311059452e-17 -1.587566263289054e-16 1.0
  outer loop
    vertex 4.15 14.950000000003444 3.8000000000000003
    vertex 6.15 13.150000000000002 3.8000000000000003
    vertex 6.15 13.950000000000003 3.8000000000000003
  endloop
endfacet
facet normal -1.0093566311059452e-17 -1.587566263289054e-16 1.0
  outer loop
    vertex 4.15 14.950000000003444 3.8000000000000003
    vertex 6.15 13.950000000000003 3.8000000000000003
    vertex 18.98609100000001 14.95000000000308 3.8000000000000003
  endloop
endfacet
facet normal -1.0093566311059452e-17 -1.587566263289054e-16 1.0
  outer loop
    vertex 18.98609100000001 14.95000000000308 3.8000000000000003
    vertex 6.15 13.950000000000003 3.8000000000000003
    vertex 18.98609100000001 13.950000000000003 3.8000000000000003
  endloop
endfacet
facet normal 2.318654694349216e-16 3.053904099647689e-19 1.0
  outer loop
    vertex 23.62000001490116 -7.304169426249653e-19 3.7999999999999994
    vertex 23.112380931294943 1.3999999999999995 3.7999999999999994
    vertex 23.112380931294943 0.0 3.7999999999999994
  endloop
endfacet
facet normal 2.318654694349216e-16 3.053904099647689e-19 1.0
  outer loop
    vertex 23.112380931294943 1.3999999999999995 3.7999999999999994
    vertex 23.62000001490116 -7.304169426249653e-19 3.7999999999999994
    vertex 23.412380931294944 1.7999999999999996 3.7999999999999994
  endloop
endfacet
facet normal 2.318654694349216e-16 3.053904099647689e-19 1.0
  outer loop
    vertex 23.412380931294944 1.7999999999999996 3.7999999999999994
    vertex 23.62000001490116 -7.304169426249653e-19 3.7999999999999994
    vertex 23.412380931294944 1.9999999999999996 3.7999999999999994
  endloop
endfacet
facet normal 2.318654694349216e-16 3.053904099647689e-19 1.0
  outer loop
    vertex 23.412380931294944 1.9999999999999996 3.7999999999999994
    vertex 23.62000001490116 -7.304169426249653e-19 3.7999999999999994
    vertex 23.412380931294944 4.999999999999998 3.7999999999999994
  endloop
endfacet
facet normal 2.318654694349216e-16 3.053904099647689e-19 1.0
  outer loop
    vertex 23.412380931294944 4.999999999999998 3.7999999999999994
    vertex 23.62000001490116 -7.304169426249653e-19 3.7999999999999994
    vertex 23.412380931294944 9.750000000000002 3.7999999999999994
  endloop
endfacet
facet normal 2.318654694349216e-16 3.053904099647689e-19 1.0
  outer loop
    vertex 23.412380931294944 9.750000000000002 3.7999999999999994
    vertex 23.62000001490116 -7.304169426249653e-19 3.7999999999999994
    vertex 23.412380931294944 9.950000000000001 3.7999999999999994
  endloop
endfacet
facet normal 2.318654694349216e-16 3.053904099647689e-19 1.0
  outer loop
    vertex 23.412380931294944 9.950000000000001 3.7999999999999994
    vertex 23.62000001490116 -7.304169426249653e-19 3.7999999999999994
    vertex 23.412380931294944 12.950000000000001 3.7999999999999994
  endloop
endfacet
facet normal 2.318654694349216e-16 3.053904099647689e-19 1.0
  outer loop
    vertex 23.412380931294944 12.950000000000001 3.7999999999999994
    vertex 23.112380931294943 14.950000000000001 3.7999999999999994
    vertex 23.112380931294943 13.150000000000002 3.7999999999999994
  endloop
endfacet
facet normal 2.318654694349216e-16 3.053904099647689e-19 1.0
  outer loop
    vertex 23.112380931294943 14.950000000000001 3.7999999999999994
    vertex 23.412380931294944 12.950000000000001 3.7999999999999994
    vertex 23.62000001490116 14.950000000000001 3.7999999999999994
  endloop
endfacet
facet normal 2.318654694349216e-16 3.053904099647689e-19 1.0
  outer loop
    vertex 23.62000001490116 14.950000000000001 3.7999999999999994
    vertex 23.412380931294944 12.950000000000001 3.7999999999999994
    vertex 23.62000001490116 -7.304169426249653e-19 3.7999999999999994
  endloop
endfacet
facet normal 2.318654694349216e-16 3.053904099647689e-19 1.0
  outer loop
    vertex 23.62000001490116 14.950000000000001 3.7999999999999994
    vertex 23.62000001490116 -7.304169426249653e-19 3.7999999999999994
    vertex 24.62000001490116 0.9999999999999999 3.7999999999999994
  endloop
endfacet
facet normal 2.318654694349216e-16 3.053904099647689e-19 1.0
  outer loop
    vertex 23.62000001490116 14.950000000000001 3.7999999999999994
    vertex 24.62000001490116 0.9999999999999999 3.7999999999999994
    vertex 24.62000001490116 13.95 3.7999999999999994
  endloop
endfacet
facet normal 2.318654694349216e-16 3.053904099647689e-19 1.0
  outer loop
    vertex 23.412380931294944 4.999999999999998 3.7999999999999994
    vertex 23.112380931294943 5.600000000000002 3.8000000000000003
    vertex 23.112380931294943 5.199999999999999 3.7999999999999994
  endloop
endfacet
facet normal 2.318654694349216e-16 3.053904099647689e-19 1.0
  outer loop
    vertex 23.112380931294943 5.600000000000002 3.8000000000000003
    vertex 23.412380931294944 4.999999999999998 3.7999999999999994
    vertex 23.112380931294943 6.600000000000002 3.8000000000000003
  endloop
endfacet
facet normal 2.318654694349216e-16 3.053904099647689e-19 1.0
  outer loop
    vertex 23.112380931294943 6.600000000000002 3.8000000000000003
    vertex 23.412380931294944 4.999999999999998 3.7999999999999994
    vertex 23.112380931294943 6.975000000000001 3.8000000000000003
  endloop
endfacet
facet normal 2.318654694349216e-16 3.053904099647689e-19 1.0
  outer loop
    vertex 23.112380931294943 6.975000000000001 3.8000000000000003
    vertex 23.412380931294944 4.999999999999998 3.7999999999999994
    vertex 23.112380931294943 7.608547000000001 3.8000000000000003
  endloop
endfacet
facet normal 2.318654694349216e-16 3.053904099647689e-19 1.0
  outer loop
    vertex 23.112380931294943 7.608547000000001 3.8000000000000003
    vertex 23.412380931294944 4.999999999999998 3.7999999999999994
    vertex 23.112380931294943 9.350000000000003 3.7999999999999994
  endloop
endfacet
facet normal 2.318654694349216e-16 3.053904099647689e-19 1.0
  outer loop
    vertex 23.112380931294943 9.350000000000003 3.7999999999999994
    vertex 23.412380931294944 4.999999999999998 3.7999999999999994
    vertex 23.412380931294944 9.750000000000002 3.7999999999999994
  endloop
endfacet
facet normal 2.318654694349216e-16 3.053904099647689e-19 1.0
  outer loop
    vertex 23.112380931294943 9.350000000000003 3.7999999999999994
    vertex 23.104650931294938 8.608547 3.8000000000000003
    vertex 23.112380931294943 7.608547000000001 3.8000000000000003
  endloop
endfacet
facet normal -0.9999456591612182 0.010424908855078992 -5.408111224590369e-19
  outer loop
    vertex 23.112380931294943 9.350000000000003 3.7999999999999994
    vertex 23.104650931294938 8.608547 3.4
    vertex 23.104650931294938 8.608547 3.8000000000000003
  endloop
endfacet
facet normal -0.9999456591612182 0.010424908855078992 -5.408111224590369e-19
  outer loop
    vertex 23.104650931294938 8.608547 3.4
    vertex 23.112380931294943 9.350000000000003 3.7999999999999994
    vertex 23.112380931294943 9.350000000000003 3.3999999999999995
  endloop
endfacet
facet normal -0.0 -0.0 1.0
  outer loop
    vertex 20.96238093129494 0.0 3.7999999999999994
    vertex 18.962380931294945 0.5999999999999994 3.7999999999999994
    vertex 18.96238093129494 0.0 3.7999999999999994
  endloop
endfacet
facet normal -0.0 -0.0 1.0
  outer loop
    vertex 18.962380931294945 0.5999999999999994 3.7999999999999994
    vertex 20.96238093129494 0.0 3.7999999999999994
    vertex 18.962380931294945 1.3999999999999995 3.7999999999999994
  endloop
endfacet
facet normal -0.0 -0.0 1.0
  outer loop
    vertex 18.962380931294945 1.3999999999999995 3.7999999999999994
    vertex 20.96238093129494 0.0 3.7999999999999994
    vertex 23.112380931294943 1.3999999999999995 3.7999999999999994
  endloop
endfacet
facet normal -0.0 -0.0 1.0
  outer loop
    vertex 23.112380931294943 1.3999999999999995 3.7999999999999994
    vertex 20.96238093129494 0.0 3.7999999999999994
    vertex 23.112380931294943 0.0 3.7999999999999994
  endloop
endfacet
facet normal 6.353312172157539e-17 8.751251794567937e-17 1.0
  outer loop
    vertex 2.000000014901161 0.0 3.7999999999999994
    vertex 1.7000025696369536 1.8012380771173997 3.7999999999999985
    vertex 1.0000000149011619 0.0 3.7999999999999994
  endloop
endfacet
facet normal 6.353312172157539e-17 8.751251794567937e-17 1.0
  outer loop
    vertex 1.7000025696369536 1.8012380771173997 3.7999999999999985
    vertex 2.000000014901161 0.0 3.7999999999999994
    vertex 2.000000014901161 1.3999999999999995 3.7999999999999994
  endloop
endfacet
facet normal 6.353312172157539e-17 8.751251794567937e-17 1.0
  outer loop
    vertex 1.0000000149011619 0.0 3.7999999999999994
    vertex 1.4901164594243175e-08 1.9999999999999991 3.7999999999999994
    vertex 1.4901161843328125e-08 0.9999999999999999 3.7999999999999994
  endloop
endfacet
facet normal 6.353312172157539e-17 8.751251794567937e-17 1.0
  outer loop
    vertex 1.4901164594243175e-08 1.9999999999999991 3.7999999999999994
    vertex 1.0000000149011619 0.0 3.7999999999999994
    vertex 1.7000025696369536 2.0012380771174 3.7999999999999994
  endloop
endfacet
facet normal 6.353312172157539e-17 8.751251794567937e-17 1.0
  outer loop
    vertex 1.7000025696369536 2.0012380771174 3.7999999999999994
    vertex 1.0000000149011619 0.0 3.7999999999999994
    vertex 1.7000025696369536 1.8012380771173997 3.7999999999999985
  endloop
endfacet
facet normal -7.425044143656139e-13 2.4026978332268335e-13 1.0
  outer loop
    vertex 1.4901164594243175e-08 1.9999999999999991 3.7999999999999994
    vertex 2.0000000149011616 6.975000000000001 3.8000000000000003
    vertex 1.4901163112313043e-08 6.975000000000001 3.799999999997638
  endloop
endfacet
facet normal -7.425044143656139e-13 2.4026978332268335e-13 1.0
  outer loop
    vertex 2.0000000149011616 6.975000000000001 3.8000000000000003
    vertex 1.4901164594243175e-08 1.9999999999999991 3.7999999999999994
    vertex 1.7123834860307356 5.001247717843987 3.7999999999999994
  endloop
endfacet
facet normal -7.425044143656139e-13 2.4026978332268335e-13 1.0
  outer loop
    vertex 1.7123834860307356 5.001247717843987 3.7999999999999994
    vertex 1.4901164594243175e-08 1.9999999999999991 3.7999999999999994
    vertex 1.7000025696369536 2.0012380771174 3.7999999999999994
  endloop
endfacet
facet normal -7.425044143656139e-13 2.4026978332268335e-13 1.0
  outer loop
    vertex 2.0000000149011616 6.975000000000001 3.8000000000000003
    vertex 1.7123834860307356 5.001247717843987 3.7999999999999994
    vertex 2.012380931294943 5.200009640726585 3.7999999999999994
  endloop
endfacet
facet normal -7.425044143656139e-13 2.4026978332268335e-13 1.0
  outer loop
    vertex 2.0000000149011616 6.975000000000001 3.8000000000000003
    vertex 2.012380931294943 5.200009640726585 3.7999999999999994
    vertex 2.0026157156701334 6.600000000000002 3.8000000000000003
  endloop
endfacet
facet normal -7.425044143656139e-13 2.4026978332268335e-13 1.0
  outer loop
    vertex 2.0026157156701334 6.600000000000002 3.8000000000000003
    vertex 2.012380931294943 5.200009640726585 3.7999999999999994
    vertex 2.010737358391415 5.600000000000002 3.8000000000000003
  endloop
endfacet
facet normal 1.0654529655526163e-12 -3.21326432437487e-12 1.0
  outer loop
    vertex 1.7000000149024612 12.949999999119953 3.7999999999846095
    vertex 7.451522659317479e-09 13.949999999999081 3.7999999999988194
    vertex 1.3002579840481367e-12 12.950000000000657 3.799999999997638
  endloop
endfacet
facet normal 1.0654529655526163e-12 -3.21326432437487e-12 1.0
  outer loop
    vertex 7.451522659317479e-09 13.949999999999081 3.7999999999988194
    vertex 1.7000000149024612 12.949999999119953 3.7999999999846095
    vertex 1.000000014901745 14.949999999999541 3.7999999999999994
  endloop
endfacet
facet normal 1.0654529655526163e-12 -3.21326432437487e-12 1.0
  outer loop
    vertex 1.000000014901745 14.949999999999541 3.7999999999999994
    vertex 1.7000000149024612 12.949999999119953 3.7999999999846095
    vertex 2.0000000149011616 14.950000000000001 3.8000000000000003
  endloop
endfacet
facet normal 1.0654529655526163e-12 -3.21326432437487e-12 1.0
  outer loop
    vertex 2.0000000149011616 14.950000000000001 3.8000000000000003
    vertex 1.7000000149024612 12.949999999119953 3.7999999999846095
    vertex 2.0000000149017443 13.149999999999082 3.7999999999999994
  endloop
endfacet
facet normal 2.79807816241509e-12 1.664539421279571e-12 1.0
  outer loop
    vertex 1.4902463511295413e-08 7.975000000000653 3.799999999997638
    vertex 1.7000000149024612 12.949999999119953 3.7999999999846095
    vertex 1.3002579840481367e-12 12.950000000000657 3.799999999997638
  endloop
endfacet
facet normal 2.79807816241509e-12 1.664539421279571e-12 1.0
  outer loop
    vertex 1.7000000149024612 12.949999999119953 3.7999999999846095
    vertex 1.4902463511295413e-08 7.975000000000653 3.799999999997638
    vertex 1.7000000238607915 9.749999999119954 3.79999999999221
  endloop
endfacet
facet normal 2.79807816241509e-12 1.664539421279571e-12 1.0
  outer loop
    vertex 1.7000000238607915 9.749999999119954 3.79999999999221
    vertex 1.4902463511295413e-08 7.975000000000653 3.799999999997638
    vertex 2.000000020348104 7.975000000000653 3.799999999997639
  endloop
endfacet
facet normal 2.79807816241509e-12 1.664539421279571e-12 1.0
  outer loop
    vertex 1.7000000238607915 9.749999999119954 3.79999999999221
    vertex 2.000000020348104 7.975000000000653 3.799999999997639
    vertex 2.0000000216955582 8.608547000000653 3.799999999997639
  endloop
endfacet
facet normal 2.79807816241509e-12 1.664539421279571e-12 1.0
  outer loop
    vertex 1.7000000238607915 9.749999999119954 3.79999999999221
    vertex 2.0000000216955582 8.608547000000653 3.799999999997639
    vertex 2.0000000245684753 9.350000000000657 3.799999999997638
  endloop
endfacet
facet normal 2.79807816241509e-12 1.664539421279571e-12 1.0
  outer loop
    vertex 1.7000000239643496 9.949999999119953 3.7999999999846095
    vertex 1.7000000149024612 12.949999999119953 3.7999999999846095
    vertex 1.7000000238607915 9.749999999119954 3.79999999999221
  endloop
endfacet
facet normal -8.110130982123516e-13 1.0627700333023263e-12 1.0
  outer loop
    vertex 2.0000000149011616 6.975000000000001 3.8000000000000003
    vertex 1.4902463511295413e-08 7.975000000000653 3.799999999997638
    vertex 1.4901163112313043e-08 6.975000000000001 3.799999999997638
  endloop
endfacet
facet normal -8.110130982123516e-13 1.0627700333023263e-12 1.0
  outer loop
    vertex 1.4902463511295413e-08 7.975000000000653 3.799999999997638
    vertex 2.0000000149011616 6.975000000000001 3.8000000000000003
    vertex 2.000000020348104 7.975000000000653 3.799999999997639
  endloop
endfacet
facet normal -8.110130982123516e-13 1.0627700333023263e-12 1.0
  outer loop
    vertex 2.000000020348104 7.975000000000653 3.799999999997639
    vertex 2.0000000149011616 6.975000000000001 3.8000000000000003
    vertex 2.0000000203468034 7.608547000000001 3.8000000000000003
  endloop
endfacet
facet normal -3.826593464071899e-14 6.145861915852976e-13 1.0
  outer loop
    vertex 6.15 7.608547000000001 3.8000000000000003
    vertex 2.000000020348104 7.975000000000653 3.799999999997639
    vertex 2.0000000203468034 7.608547000000001 3.8000000000000003
  endloop
endfacet
facet normal -3.826593464071899e-14 6.145861915852976e-13 1.0
  outer loop
    vertex 2.000000020348104 7.975000000000653 3.799999999997639
    vertex 6.15 7.608547000000001 3.8000000000000003
    vertex 2.0000000216955582 8.608547000000653 3.799999999997639
  endloop
endfacet
facet normal -3.826593464071899e-14 6.145861915852976e-13 1.0
  outer loop
    vertex 2.0000000216955582 8.608547000000653 3.799999999997639
    vertex 6.15 7.608547000000001 3.8000000000000003
    vertex 23.104650931294938 8.608547 3.8000000000000003
  endloop
endfacet
facet normal -3.826593464071899e-14 6.145861915852976e-13 1.0
  outer loop
    vertex 23.104650931294938 8.608547 3.8000000000000003
    vertex 6.15 7.608547000000001 3.8000000000000003
    vertex 18.962380931294945 7.608547000000001 3.799999999997639
  endloop
endfacet
facet normal -3.826593464071899e-14 6.145861915852976e-13 1.0
  outer loop
    vertex 23.104650931294938 8.608547 3.8000000000000003
    vertex 18.962380931294945 7.608547000000001 3.799999999997639
    vertex 23.112380931294943 7.608547000000001 3.8000000000000003
  endloop
endfacet
facet normal 1.549971678648869e-14 1.0 -8.177902799389158e-13
  outer loop
    vertex 2.0000000216955582 8.608547000000653 3.799999999997639
    vertex 23.104650931294938 8.608547 3.4
    vertex 2.000000021694258 8.608547 3.4
  endloop
endfacet
facet normal 1.549971678648869e-14 1.0 -8.177902799389158e-13
  outer loop
    vertex 23.104650931294938 8.608547 3.4
    vertex 2.0000000216955582 8.608547000000653 3.799999999997639
    vertex 23.104650931294938 8.608547 3.8000000000000003
  endloop
endfacet
facet normal -0.0 -0.0 1.0
  outer loop
    vertex 2.010737358391415 5.600000000000002 3.8000000000000003
    vertex 6.15 6.600000000000002 3.8000000000000003
    vertex 2.0026157156701334 6.600000000000002 3.8000000000000003
  endloop
endfacet
facet normal -0.0 -0.0 1.0
  outer loop
    vertex 6.15 6.600000000000002 3.8000000000000003
    vertex 2.010737358391415 5.600000000000002 3.8000000000000003
    vertex 23.112380931294943 5.600000000000002 3.8000000000000003
  endloop
endfacet
facet normal -0.0 -0.0 1.0
  outer loop
    vertex 6.15 6.600000000000002 3.8000000000000003
    vertex 23.112380931294943 5.600000000000002 3.8000000000000003
    vertex 18.962380931294945 6.600000000000002 3.8000000000000003
  endloop
endfacet
facet normal -0.0 -0.0 1.0
  outer loop
    vertex 18.962380931294945 6.600000000000002 3.8000000000000003
    vertex 23.112380931294943 5.600000000000002 3.8000000000000003
    vertex 23.112380931294943 6.600000000000002 3.8000000000000003
  endloop
endfacet
facet normal 0.0 -1.0 0.0
  outer loop
    vertex 23.112380931294943 5.600000000000002 3.8000000000000003
    vertex 2.010737358391415 5.600000000000002 3.4
    vertex 23.112380931294943 5.600000000000002 3.4
  endloop
endfacet
facet normal 0.0 -1.0 0.0
  outer loop
    vertex 2.010737358391415 5.600000000000002 3.4
    vertex 23.112380931294943 5.600000000000002 3.8000000000000003
    vertex 2.010737358391415 5.600000000000002 3.8000000000000003
  endloop
endfacet
facet normal 9.21381025967747e-14 1.8633321107299307e-12 1.0
  outer loop
    vertex 18.962380931294945 6.975000000000001 3.8000000000000003
    vertex 6.15 7.608547000000001 3.8000000000000003
    vertex 6.15 6.975000000000001 3.8000000000000003
  endloop
endfacet
facet normal 9.21381025967747e-14 1.8633321107299307e-12 1.0
  outer loop
    vertex 6.15 7.608547000000001 3.8000000000000003
    vertex 18.962380931294945 6.975000000000001 3.8000000000000003
    vertex 18.962380931294945 7.608547000000001 3.799999999997639
  endloop
endfacet
facet normal -0.0 -0.0 1.0
  outer loop
    vertex 18.962380931294945 6.600000000000002 3.8000000000000003
    vertex 6.15 6.975000000000001 3.8000000000000003
    vertex 6.15 6.600000000000002 3.8000000000000003
  endloop
endfacet
facet normal -0.0 -0.0 1.0
  outer loop
    vertex 6.15 6.975000000000001 3.8000000000000003
    vertex 18.962380931294945 6.600000000000002 3.8000000000000003
    vertex 18.962380931294945 6.975000000000001 3.8000000000000003
  endloop
endfacet
facet normal -0.0 -0.0 1.0
  outer loop
    vertex 2.0026157156701334 6.600000000000002 3.8000000000000003
    vertex 6.15 6.975000000000001 3.8000000000000003
    vertex 2.0000000149011616 6.975000000000001 3.8000000000000003
  endloop
endfacet
facet normal -0.0 -0.0 1.0
  outer loop
    vertex 6.15 6.975000000000001 3.8000000000000003
    vertex 2.0026157156701334 6.600000000000002 3.8000000000000003
    vertex 6.15 6.600000000000002 3.8000000000000003
  endloop
endfacet
facet normal -2.8445987198954534e-13 1.8633321107299303e-12 1.0
  outer loop
    vertex 23.112380931294943 6.975000000000001 3.8000000000000003
    vertex 18.962380931294945 7.608547000000001 3.799999999997639
    vertex 18.962380931294945 6.975000000000001 3.8000000000000003
  endloop
endfacet
facet normal -2.8445987198954534e-13 1.8633321107299303e-12 1.0
  outer loop
    vertex 18.962380931294945 7.608547000000001 3.799999999997639
    vertex 23.112380931294943 6.975000000000001 3.8000000000000003
    vertex 23.112380931294943 7.608547000000001 3.8000000000000003
  endloop
endfacet
facet normal -0.7071067811865476 -0.7071067811865476 0.0
  outer loop
    vertex 1.4901161843328125e-08 0.9999999999999999 3.7999999999999994
    vertex 1.0000000149011619 0.0 0.0
    vertex 1.0000000149011619 0.0 3.7999999999999994
  endloop
endfacet
facet normal -0.7071067811865476 -0.7071067811865476 0.0
  outer loop
    vertex 1.0000000149011619 0.0 0.0
    vertex 1.4901161843328125e-08 0.9999999999999999 3.7999999999999994
    vertex 1.4901161843328125e-08 0.9999999999999999 0.0
  endloop
endfacet
facet normal 0.7071067811865471 -0.707106781186548 0.0
  outer loop
    vertex 24.62000001490116 0.9999999999999999 3.7999999999999994
    vertex 23.62000001490116 -7.304169426249653e-19 0.0
    vertex 24.62000001490116 0.9999999999999999 0.0
  endloop
endfacet
facet normal 0.7071067811865471 -0.707106781186548 0.0
  outer loop
    vertex 23.62000001490116 -7.304169426249653e-19 0.0
    vertex 24.62000001490116 0.9999999999999999 3.7999999999999994
    vertex 23.62000001490116 -7.304169426249653e-19 3.7999999999999994
  endloop
endfacet
facet normal 0.7071067811865476 0.7071067811865476 -0.0
  outer loop
    vertex 23.62000001490116 14.950000000000001 0.0
    vertex 24.62000001490116 13.95 3.7999999999999994
    vertex 24.62000001490116 13.95 0.0
  endloop
endfacet
facet normal 0.7071067811865476 0.7071067811865476 -0.0
  outer loop
    vertex 24.62000001490116 13.95 3.7999999999999994
    vertex 23.62000001490116 14.950000000000001 0.0
    vertex 23.62000001490116 14.950000000000001 3.7999999999999994
  endloop
endfacet
facet normal -0.707106778552659 0.707106783820436 8.327666970622373e-13
  outer loop
    vertex 7.451522659317479e-09 13.949999999999081 3.7999999999988194
    vertex 1.000000014901745 14.950000000004016 1.1801559729462951e-12
    vertex 7.451522659317479e-09 13.950000000003556 0.0
  endloop
endfacet
facet normal -0.707106778552659 0.707106783820436 8.327666970622373e-13
  outer loop
    vertex 1.000000014901745 14.950000000004016 1.1801559729462951e-12
    vertex 7.451522659317479e-09 13.949999999999081 3.7999999999988194
    vertex 1.000000014901745 14.949999999999541 3.7999999999999994
  endloop
endfacet
facet normal 3.5249863477938865e-43 3.882768055435615e-30 -1.0
  outer loop
    vertex 6.150000000000363 16.95000000000308 6.988982499791546e-30
    vertex 18.962380931294945 15.15 0.0
    vertex 6.15 15.15 0.0
  endloop
endfacet
facet normal 3.5249863477938865e-43 3.882768055435615e-30 -1.0
  outer loop
    vertex 18.962380931294945 15.15 0.0
    vertex 6.150000000000363 16.95000000000308 6.988982499791546e-30
    vertex 18.962380931295307 16.950000000000752 6.988982499791546e-30
  endloop
endfacet
facet normal 4.890244900502845e-13 -1.9450179536489817e-13 -1.0
  outer loop
    vertex 4.15 14.950000000003444 4.583130005285927e-13
    vertex 1.700000014901161 12.949999999119298 -1.302929860541923e-11
    vertex 1.000000014901745 14.950000000004016 1.1801559729462951e-12
  endloop
endfacet
facet normal 4.890244900502845e-13 -1.9450179536489817e-13 -1.0
  outer loop
    vertex 1.700000014901161 12.949999999119298 -1.302929860541923e-11
    vertex 4.15 14.950000000003444 4.583130005285927e-13
    vertex 2.000000014901161 13.150000000000002 0.0
  endloop
endfacet
facet normal 4.890244900502845e-13 -1.9450179536489817e-13 -1.0
  outer loop
    vertex 2.000000014901161 13.150000000000002 0.0
    vertex 4.15 14.950000000003444 4.583130005285927e-13
    vertex 6.15 13.150000000000002 0.0
  endloop
endfacet
facet normal 4.890244900502845e-13 -1.9450179536489817e-13 -1.0
  outer loop
    vertex 6.15 13.150000000000002 0.0
    vertex 4.15 14.950000000003444 4.583130005285927e-13
    vertex 6.15 14.95000000000308 0.0
  endloop
endfacet
facet normal 4.890244900502845e-13 -1.9450179536489817e-13 -1.0
  outer loop
    vertex 1.700000023963049 9.7499999991193 -1.302929860541923e-11
    vertex 1.7123834860307356 5.001247717843987 0.0
    vertex 1.7000025696369536 2.0012380771174 0.0
  endloop
endfacet
facet normal 4.890244900502845e-13 -1.9450179536489817e-13 -1.0
  outer loop
    vertex 1.7123834860307356 5.001247717843987 0.0
    vertex 1.700000023963049 9.7499999991193 -1.302929860541923e-11
    vertex 2.000000024567175 9.350000000000003 0.0
  endloop
endfacet
facet normal 4.890244900502845e-13 -1.9450179536489817e-13 -1.0
  outer loop
    vertex 1.7123834860307356 5.001247717843987 0.0
    vertex 2.000000024567175 9.350000000000003 0.0
    vertex 2.012380931294943 5.200009640726585 0.0
  endloop
endfacet
facet normal 4.890244900502845e-13 -1.9450179536489817e-13 -1.0
  outer loop
    vertex 2.012380931294943 5.200009640726585 0.0
    vertex 2.000000024567175 9.350000000000003 0.0
    vertex 6.15 9.350000000000003 0.0
  endloop
endfacet
facet normal 4.890244900502845e-13 -1.9450179536489817e-13 -1.0
  outer loop
    vertex 2.012380931294943 5.200009640726585 0.0
    vertex 6.15 9.350000000000003 0.0
    vertex 6.15 5.200009640726585 0.0
  endloop
endfacet
facet normal 4.890244900502845e-13 -1.9450179536489817e-13 -1.0
  outer loop
    vertex 6.15 5.200009640726585 0.0
    vertex 6.15 9.350000000000003 0.0
    vertex 6.15 7.608547000000001 0.0
  endloop
endfacet
facet normal 4.890244900502845e-13 -1.9450179536489817e-13 -1.0
  outer loop
    vertex 6.15 5.200009640726585 0.0
    vertex 6.15 7.608547000000001 0.0
    vertex 6.15 7.500009640726587 0.0
  endloop
endfacet
facet normal 4.890244900502845e-13 -1.9450179536489817e-13 -1.0
  outer loop
    vertex 6.15 5.200009640726585 0.0
    vertex 6.15 7.500009640726587 0.0
    vertex 6.15 6.700009640726586 0.0
  endloop
endfacet
facet normal 4.890244900502845e-13 -1.9450179536489817e-13 -1.0
  outer loop
    vertex 6.15 5.200009640726585 0.0
    vertex 6.15 6.700009640726586 0.0
    vertex 6.15 6.600009640726586 0.0
  endloop
endfacet
facet normal 4.890244900502845e-13 -1.9450179536489817e-13 -1.0
  outer loop
    vertex 1.000000014901745 14.950000000004016 1.1801559729462951e-12
    vertex 1.4901161843328125e-08 0.9999999999999999 0.0
    vertex 7.451522659317479e-09 13.950000000003556 0.0
  endloop
endfacet
facet normal 4.890244900502845e-13 -1.9450179536489817e-13 -1.0
  outer loop
    vertex 1.4901161843328125e-08 0.9999999999999999 0.0
    vertex 1.000000014901745 14.950000000004016 1.1801559729462951e-12
    vertex 1.0000000149011619 0.0 0.0
  endloop
endfacet
facet normal 4.890244900502845e-13 -1.9450179536489817e-13 -1.0
  outer loop
    vertex 1.0000000149011619 0.0 0.0
    vertex 1.000000014901745 14.950000000004016 1.1801559729462951e-12
    vertex 1.7000025696369536 1.8012380771173997 0.0
  endloop
endfacet
facet normal 4.890244900502845e-13 -1.9450179536489817e-13 -1.0
  outer loop
    vertex 1.0000000149011619 0.0 0.0
    vertex 1.7000025696369536 1.8012380771173997 0.0
    vertex 2.000000014901161 1.3999999999999995 0.0
  endloop
endfacet
facet normal 4.890244900502845e-13 -1.9450179536489817e-13 -1.0
  outer loop
    vertex 1.0000000149011619 0.0 0.0
    vertex 2.000000014901161 1.3999999999999995 0.0
    vertex 4.15 0.0 0.0
  endloop
endfacet
facet normal 4.890244900502845e-13 -1.9450179536489817e-13 -1.0
  outer loop
    vertex 1.7000025696369536 1.8012380771173997 0.0
    vertex 1.000000014901745 14.950000000004016 1.1801559729462951e-12
    vertex 1.700000023963049 9.7499999991193 -1.302929860541923e-11
  endloop
endfacet
facet normal 4.890244900502845e-13 -1.9450179536489817e-13 -1.0
  outer loop
    vertex 1.700000023963049 9.7499999991193 -1.302929860541923e-11
    vertex 1.000000014901745 14.950000000004016 1.1801559729462951e-12
    vertex 1.700000014901161 12.949999999119298 -1.302929860541923e-11
  endloop
endfacet
facet normal 4.890244900502845e-13 -1.9450179536489817e-13 -1.0
  outer loop
    vertex 1.700000023963049 9.7499999991193 -1.302929860541923e-11
    vertex 1.700000014901161 12.949999999119298 -1.302929860541923e-11
    vertex 1.700000023963049 9.9499999991193 -1.302929860541923e-11
  endloop
endfacet
facet normal 4.890244900502845e-13 -1.9450179536489817e-13 -1.0
  outer loop
    vertex 1.7000025696369536 1.8012380771173997 0.0
    vertex 1.700000023963049 9.7499999991193 -1.302929860541923e-11
    vertex 1.7000025696369536 2.0012380771174 0.0
  endloop
endfacet
facet normal 4.890244900502845e-13 -1.9450179536489817e-13 -1.0
  outer loop
    vertex 4.15 0.0 0.0
    vertex 2.000000014901161 1.3999999999999995 0.0
    vertex 6.15 1.3999999999999995 0.0
  endloop
endfacet
facet normal 4.890244900502845e-13 -1.9450179536489817e-13 -1.0
  outer loop
    vertex 4.15 0.0 0.0
    vertex 6.15 1.3999999999999995 0.0
    vertex 6.15 0.0 0.0
  endloop
endfacet
facet normal 1.8158001706142526e-13 1.0 3.494491249895773e-30
  outer loop
    vertex 6.150000000000363 16.95000000000308 3.8000000000000003
    vertex 18.962380931295307 16.950000000000752 6.988982499791546e-30
    vertex 6.150000000000363 16.95000000000308 6.988982499791546e-30
  endloop
endfacet
facet normal 1.8158001706142526e-13 1.0 3.494491249895773e-30
  outer loop
    vertex 18.962380931295307 16.950000000000752 6.988982499791546e-30
    vertex 6.150000000000363 16.95000000000308 3.8000000000000003
    vertex 18.962380931295307 16.950000000000752 3.7999999999999994
  endloop
endfacet
facet normal 1.7393642089648054e-16 6.983561054157295e-17 1.0
  outer loop
    vertex 23.112380931294943 13.150000000000002 3.7999999999999994
    vertex 18.98609100000001 13.950000000000003 3.8000000000000003
    vertex 18.962380931294945 13.150000000000002 3.8000000000000003
  endloop
endfacet
facet normal 1.7393642089648054e-16 6.983561054157295e-17 1.0
  outer loop
    vertex 18.98609100000001 13.950000000000003 3.8000000000000003
    vertex 23.112380931294943 13.150000000000002 3.7999999999999994
    vertex 18.98609100000001 14.95000000000308 3.8000000000000003
  endloop
endfacet
facet normal 1.7393642089648054e-16 6.983561054157295e-17 1.0
  outer loop
    vertex 18.98609100000001 14.95000000000308 3.8000000000000003
    vertex 23.112380931294943 13.150000000000002 3.7999999999999994
    vertex 20.96238093129494 14.95000000000039 3.7999999999999994
  endloop
endfacet
facet normal 1.7393642089648054e-16 6.983561054157295e-17 1.0
  outer loop
    vertex 20.96238093129494 14.95000000000039 3.7999999999999994
    vertex 23.112380931294943 13.150000000000002 3.7999999999999994
    vertex 23.112380931294943 14.950000000000001 3.7999999999999994
  endloop
endfacet
facet normal 2.751212379720342e-17 1.9583100573215234e-16 1.0
  outer loop
    vertex 18.962380931294945 15.15 3.8000000000000003
    vertex 6.150000000000363 16.95000000000308 3.8000000000000003
    vertex 6.15 15.15 3.8000000000000003
  endloop
endfacet
facet normal 2.751212379720342e-17 1.9583100573215234e-16 1.0
  outer loop
    vertex 6.150000000000363 16.95000000000308 3.8000000000000003
    vertex 18.962380931294945 15.15 3.8000000000000003
    vertex 18.962380931295307 16.950000000000752 3.7999999999999994
  endloop
endfacet
facet normal -0.9999864056208166 0.00345287568661072 0.0039072014348501055
  outer loop
    vertex 18.98609100000001 13.950000000000003 3.8000000000000003
    vertex 18.962380931294945 13.150000000000002 0.0
    vertex 18.962380931294945 13.150000000000002 3.8000000000000003
  endloop
endfacet
facet normal -0.9999864056208166 0.00345287568661072 0.0039072014348501055
  outer loop
    vertex 18.962380931294945 13.150000000000002 0.0
    vertex 18.98609100000001 13.950000000000003 3.8000000000000003
    vertex 18.962380931294945 14.950000000000754 0.0
  endloop
endfacet
facet normal -0.9999864056208166 0.00345287568661072 0.0039072014348501055
  outer loop
    vertex 18.962380931294945 14.950000000000754 0.0
    vertex 18.98609100000001 13.950000000000003 3.8000000000000003
    vertex 18.962380931294945 15.15 0.0
  endloop
endfacet
facet normal -5.735225452710705e-13 1.0 6.907821948873934e-13
  outer loop
    vertex 1.000000014901745 14.950000000004016 1.1801559729462951e-12
    vertex 4.15 14.950000000003444 3.8000000000000003
    vertex 4.15 14.950000000003444 4.583130005285927e-13
  endloop
endfacet
facet normal -5.735225452710705e-13 1.0 6.907821948873934e-13
  outer loop
    vertex 4.15 14.950000000003444 3.8000000000000003
    vertex 1.000000014901745 14.950000000004016 1.1801559729462951e-12
    vertex 1.000000014901745 14.949999999999541 3.7999999999999994
  endloop
endfacet
facet normal -5.735225452710705e-13 1.0 6.907821948873934e-13
  outer loop
    vertex 4.15 14.950000000003444 3.8000000000000003
    vertex 1.000000014901745 14.949999999999541 3.7999999999999994
    vertex 2.0000000149011616 14.950000000000001 3.8000000000000003
  endloop
endfacet
facet normal -0.0 -0.0 1.0
  outer loop
    vertex 18.98609100000001 14.95000000000308 3.8000000000000003
    vertex 6.15 15.15 3.8000000000000003
    vertex 4.15 14.950000000003444 3.8000000000000003
  endloop
endfacet
facet normal -0.0 -0.0 1.0
  outer loop
    vertex 6.15 15.15 3.8000000000000003
    vertex 18.98609100000001 14.95000000000308 3.8000000000000003
    vertex 18.962380931294945 15.15 3.8000000000000003
  endloop
endfacet
facet normal -0.0 -0.0 1.0
  outer loop
    vertex 6.150000000000363 16.95000000000308 3.8000000000000003
    vertex 4.15 14.950000000003444 3.8000000000000003
    vertex 6.15 15.15 3.8000000000000003
  endloop
endfacet
facet normal -2.2915650026429845e-13 4.3495173586675603e-26 -1.0
  outer loop
    vertex 6.150000000000363 16.95000000000308 6.988982499791546e-30
    vertex 6.15 15.15 0.0
    vertex 4.15 14.950000000003444 4.583130005285927e-13
  endloop
endfacet
facet normal -2.2915650026429845e-13 4.3495173586675603e-26 -1.0
  outer loop
    vertex 6.15 14.95000000000308 0.0
    vertex 4.15 14.950000000003444 4.583130005285927e-13
    vertex 6.15 15.15 0.0
  endloop
endfacet
facet normal -0.7071067811864189 0.7071067811866762 1.370110223402704e-17
  outer loop
    vertex 4.15 14.950000000003444 4.583130005285927e-13
    vertex 6.150000000000363 16.95000000000308 3.8000000000000003
    vertex 6.150000000000363 16.95000000000308 6.988982499791546e-30
  endloop
endfacet
facet normal -0.7071067811864189 0.7071067811866762 1.370110223402704e-17
  outer loop
    vertex 6.150000000000363 16.95000000000308 3.8000000000000003
    vertex 4.15 14.950000000003444 4.583130005285927e-13
    vertex 4.15 14.950000000003444 3.8000000000000003
  endloop
endfacet
facet normal 3.726656152062288e-16 3.707718711440418e-16 1.0
  outer loop
    vertex 18.98609100000001 14.95000000000308 3.8000000000000003
    vertex 18.962380931295307 16.950000000000752 3.7999999999999994
    vertex 18.962380931294945 15.15 3.8000000000000003
  endloop
endfacet
facet normal 3.726656152062288e-16 3.707718711440418e-16 1.0
  outer loop
    vertex 18.962380931295307 16.950000000000752 3.7999999999999994
    vertex 18.98609100000001 14.95000000000308 3.8000000000000003
    vertex 20.96238093129494 14.95000000000039 3.7999999999999994
  endloop
endfacet
facet normal 1.7280451235751515e-31 3.648095260879689e-30 -1.0
  outer loop
    vertex 18.962380931295307 16.950000000000752 6.988982499791546e-30
    vertex 18.962380931294945 14.950000000000754 0.0
    vertex 18.962380931294945 15.15 0.0
  endloop
endfacet
facet normal 1.7280451235751515e-31 3.648095260879689e-30 -1.0
  outer loop
    vertex 18.962380931294945 14.950000000000754 0.0
    vertex 18.962380931295307 16.950000000000752 6.988982499791546e-30
    vertex 20.96238093129494 14.95000000000039 0.0
  endloop
endfacet
facet normal 0.7071067811866761 0.707106781186419 -0.0
  outer loop
    vertex 18.962380931295307 16.950000000000752 6.988982499791546e-30
    vertex 20.96238093129494 14.95000000000039 3.7999999999999994
    vertex 20.96238093129494 14.95000000000039 0.0
  endloop
endfacet
facet normal 0.7071067811866761 0.707106781186419 -0.0
  outer loop
    vertex 20.96238093129494 14.95000000000039 3.7999999999999994
    vertex 18.962380931295307 16.950000000000752 6.988982499791546e-30
    vertex 18.962380931295307 16.950000000000752 3.7999999999999994
  endloop
endfacet
facet normal 1.0 -0.0 -0.0
  outer loop
    vertex 6.15 14.95000000000308 0.0
    vertex 6.15 13.150000000000002 3.8000000000000003
    vertex 6.15 13.150000000000002 0.0
  endloop
endfacet
facet normal 1.0 -0.0 -0.0
  outer loop
    vertex 6.15 13.150000000000002 3.8000000000000003
    vertex 6.15 14.95000000000308 0.0
    vertex 6.15 13.950000000000003 3.8000000000000003
  endloop
endfacet
facet normal 1.0 -0.0 -0.0
  outer loop
    vertex 6.15 13.950000000000003 3.8000000000000003
    vertex 6.15 14.95000000000308 0.0
    vertex 6.15 15.15 0.0
  endloop
endfacet
facet normal -3.2206560984485872e-18 -0.9535826651341419 -0.3011313679370969
  outer loop
    vertex 18.98609100000001 13.950000000000003 3.8000000000000003
    vertex 6.15 15.15 0.0
    vertex 18.962380931294945 15.15 0.0
  endloop
endfacet
facet normal -3.2206560984485872e-18 -0.9535826651341419 -0.3011313679370969
  outer loop
    vertex 6.15 15.15 0.0
    vertex 18.98609100000001 13.950000000000003 3.8000000000000003
    vertex 6.15 13.950000000000003 3.8000000000000003
  endloop
endfacet
facet normal 0.0 0.0 -1.0
  outer loop
    vertex 18.962380931294945 -0.6000000000000003 0.0
    vertex 6.15 -1.9999999999999998 0.0
    vertex 6.15 -0.6000000000000003 0.0
  endloop
endfacet
facet normal 0.0 0.0 -1.0
  outer loop
    vertex 6.15 -1.9999999999999998 0.0
    vertex 18.962380931294945 -0.6000000000000003 0.0
    vertex 18.962380931294945 -1.9999999999999998 0.0
  endloop
endfacet
facet normal 0.0 0.0 -1.0
  outer loop
    vertex 23.112380931294943 1.3999999999999995 0.0
    vertex 18.962380931294945 0.0 0.0
    vertex 18.962380931294945 1.3999999999999995 0.0
  endloop
endfacet
facet normal 0.0 0.0 -1.0
  outer loop
    vertex 18.962380931294945 0.0 0.0
    vertex 23.112380931294943 1.3999999999999995 0.0
    vertex 20.96238093129494 0.0 0.0
  endloop
endfacet
facet normal 0.0 0.0 -1.0
  outer loop
    vertex 20.96238093129494 0.0 0.0
    vertex 23.112380931294943 1.3999999999999995 0.0
    vertex 23.112380931294943 0.0 0.0
  endloop
endfacet
facet normal 0.0 -1.0 0.0
  outer loop
    vertex 18.96238093129494 -1.9999999999999998 3.7999999999999994
    vertex 6.15 -1.9999999999999998 0.0
    vertex 18.962380931294945 -1.9999999999999998 0.0
  endloop
endfacet
facet normal 0.0 -1.0 0.0
  outer loop
    vertex 6.15 -1.9999999999999998 0.0
    vertex 18.96238093129494 -1.9999999999999998 3.7999999999999994
    vertex 6.15 -1.9999999999999998 3.7999999999999994
  endloop
endfacet
facet normal -1.9357959190554442e-19 -1.0 5.001137684068041e-35
  outer loop
    vertex 23.62000001490116 -7.304169426249653e-19 3.7999999999999994
    vertex 23.112380931294943 0.0 0.0
    vertex 23.62000001490116 -7.304169426249653e-19 0.0
  endloop
endfacet
facet normal -1.9357959190554442e-19 -1.0 5.001137684068041e-35
  outer loop
    vertex 23.112380931294943 0.0 0.0
    vertex 23.62000001490116 -7.304169426249653e-19 3.7999999999999994
    vertex 20.96238093129494 0.0 0.0
  endloop
endfacet
facet normal -1.9357959190554442e-19 -1.0 5.001137684068041e-35
  outer loop
    vertex 20.96238093129494 0.0 0.0
    vertex 23.62000001490116 -7.304169426249653e-19 3.7999999999999994
    vertex 20.96238093129494 0.0 3.7999999999999994
  endloop
endfacet
facet normal -1.9357959190554442e-19 -1.0 5.001137684068041e-35
  outer loop
    vertex 20.96238093129494 0.0 3.7999999999999994
    vertex 23.62000001490116 -7.304169426249653e-19 3.7999999999999994
    vertex 23.112380931294943 0.0 3.7999999999999994
  endloop
endfacet
facet normal -0.0 -0.0 1.0
  outer loop
    vertex 20.96238093129494 0.0 3.7999999999999994
    vertex 18.962380931294945 -0.6000000000000003 3.7999999999999994
    vertex 18.96238093129494 -1.9999999999999998 3.7999999999999994
  endloop
endfacet
facet normal -0.0 -0.0 1.0
  outer loop
    vertex 20.96238093129494 0.0 3.7999999999999994
    vertex 18.96238093129494 0.0 3.7999999999999994
    vertex 18.962380931294945 -0.6000000000000003 3.7999999999999994
  endloop
endfacet
facet normal 0.0 0.0 -1.0
  outer loop
    vertex 20.96238093129494 0.0 0.0
    vertex 18.962380931294945 -0.6000000000000003 0.0
    vertex 18.962380931294945 0.0 0.0
  endloop
endfacet
facet normal 0.0 0.0 -1.0
  outer loop
    vertex 18.962380931294945 -0.6000000000000003 0.0
    vertex 20.96238093129494 0.0 0.0
    vertex 18.962380931294945 -1.9999999999999998 0.0
  endloop
endfacet
facet normal 0.7071067811865474 -0.7071067811865477 2.6032094229143305e-16
  outer loop
    vertex 20.96238093129494 0.0 3.7999999999999994
    vertex 18.962380931294945 -1.9999999999999998 0.0
    vertex 20.96238093129494 0.0 0.0
  endloop
endfacet
facet normal 0.7071067811865474 -0.7071067811865477 2.6032094229143305e-16
  outer loop
    vertex 18.962380931294945 -1.9999999999999998 0.0
    vertex 20.96238093129494 0.0 3.7999999999999994
    vertex 18.96238093129494 -1.9999999999999998 3.7999999999999994
  endloop
endfacet
facet normal 0.0 0.0 -1.0
  outer loop
    vertex 6.15 0.0 0.0
    vertex 6.15 -1.9999999999999998 0.0
    vertex 4.15 0.0 0.0
  endloop
endfacet
facet normal 0.0 0.0 -1.0
  outer loop
    vertex 6.15 -1.9999999999999998 0.0
    vertex 6.15 0.0 0.0
    vertex 6.15 -0.6000000000000003 0.0
  endloop
endfacet
facet normal -0.0 -0.0 1.0
  outer loop
    vertex 6.15 -1.9999999999999998 3.7999999999999994
    vertex 6.15 0.0 3.7999999999999994
    vertex 4.15 0.0 3.7999999999999994
  endloop
endfacet
facet normal -0.0 -0.0 1.0
  outer loop
    vertex 6.15 0.0 3.7999999999999994
    vertex 6.15 -1.9999999999999998 3.7999999999999994
    vertex 6.15 -0.6000000000000003 3.7999999999999994
  endloop
endfacet
facet normal -0.7071067811865476 -0.7071067811865475 0.0
  outer loop
    vertex 4.15 0.0 3.7999999999999994
    vertex 6.15 -1.9999999999999998 0.0
    vertex 6.15 -1.9999999999999998 3.7999999999999994
  endloop
endfacet
facet normal -0.7071067811865476 -0.7071067811865475 0.0
  outer loop
    vertex 6.15 -1.9999999999999998 0.0
    vertex 4.15 0.0 3.7999999999999994
    vertex 4.15 0.0 0.0
  endloop
endfacet
facet normal -0.0 -0.0 1.0
  outer loop
    vertex 4.15 0.0 3.7999999999999994
    vertex 2.000000014901161 1.3999999999999995 3.7999999999999994
    vertex 2.000000014901161 0.0 3.7999999999999994
  endloop
endfacet
facet normal -0.0 -0.0 1.0
  outer loop
    vertex 2.000000014901161 1.3999999999999995 3.7999999999999994
    vertex 4.15 0.0 3.7999999999999994
    vertex 6.15 1.3999999999999995 3.7999999999999994
  endloop
endfacet
facet normal -0.0 -0.0 1.0
  outer loop
    vertex 6.15 1.3999999999999995 3.7999999999999994
    vertex 4.15 0.0 3.7999999999999994
    vertex 6.15 0.0 3.7999999999999994
  endloop
endfacet
facet normal -0.0 -0.0 1.0
  outer loop
    vertex 6.15 1.3999999999999995 3.7999999999999994
    vertex 6.15 0.0 3.7999999999999994
    vertex 6.15 0.5999999999999994 3.7999999999999994
  endloop
endfacet
facet normal -0.0 -0.0 1.0
  outer loop
    vertex 18.96238093129494 -1.9999999999999998 3.7999999999999994
    vertex 6.15 -0.6000000000000003 3.7999999999999994
    vertex 6.15 -1.9999999999999998 3.7999999999999994
  endloop
endfacet
facet normal -0.0 -0.0 1.0
  outer loop
    vertex 6.15 -0.6000000000000003 3.7999999999999994
    vertex 18.96238093129494 -1.9999999999999998 3.7999999999999994
    vertex 18.962380931294945 -0.6000000000000003 3.7999999999999994
  endloop
endfacet
facet normal 1.0 1.1620740999510573e-16 -1.151880467495346e-16
  outer loop
    vertex 6.15 0.0 0.0
    vertex 6.15 0.5999999999999994 3.7999999999999994
    vertex 6.15 -0.6000000000000003 0.0
  endloop
endfacet
facet normal 1.0 1.1620740999510573e-16 -1.151880467495346e-16
  outer loop
    vertex 6.15 0.5999999999999994 3.7999999999999994
    vertex 6.15 0.0 0.0
    vertex 6.15 1.3999999999999995 0.0
  endloop
endfacet
facet normal 1.0 1.1620740999510573e-16 -1.151880467495346e-16
  outer loop
    vertex 6.15 0.5999999999999994 3.7999999999999994
    vertex 6.15 1.3999999999999995 0.0
    vertex 6.15 1.3999999999999995 3.7999999999999994
  endloop
endfacet
facet normal -1.0 0.0 0.0
  outer loop
    vertex 18.962380931294945 0.5999999999999994 3.7999999999999994
    vertex 18.962380931294945 0.0 0.0
    vertex 18.962380931294945 -0.6000000000000003 0.0
  endloop
endfacet
facet normal -1.0 0.0 0.0
  outer loop
    vertex 18.962380931294945 0.0 0.0
    vertex 18.962380931294945 0.5999999999999994 3.7999999999999994
    vertex 18.962380931294945 1.3999999999999995 0.0
  endloop
endfacet
facet normal -1.0 0.0 0.0
  outer loop
    vertex 18.962380931294945 1.3999999999999995 0.0
    vertex 18.962380931294945 0.5999999999999994 3.7999999999999994
    vertex 18.962380931294945 1.3999999999999995 3.7999999999999994
  endloop
endfacet
facet normal -0.0 -0.0 1.0
  outer loop
    vertex 18.962380931294945 -0.6000000000000003 3.7999999999999994
    vertex 6.15 0.0 3.7999999999999994
    vertex 6.15 -0.6000000000000003 3.7999999999999994
  endloop
endfacet
facet normal -0.0 -0.0 1.0
  outer loop
    vertex 6.15 0.0 3.7999999999999994
    vertex 18.962380931294945 -0.6000000000000003 3.7999999999999994
    vertex 6.15 0.5999999999999994 3.7999999999999994
  endloop
endfacet
facet normal -0.0 -0.0 1.0
  outer loop
    vertex 6.15 0.5999999999999994 3.7999999999999994
    vertex 18.962380931294945 -0.6000000000000003 3.7999999999999994
    vertex 18.96238093129494 0.0 3.7999999999999994
  endloop
endfacet
facet normal -0.0 -0.0 1.0
  outer loop
    vertex 18.962380931294945 0.5999999999999994 3.7999999999999994
    vertex 6.15 0.5999999999999994 3.7999999999999994
    vertex 18.96238093129494 0.0 3.7999999999999994
  endloop
endfacet
facet normal -0.0 0.9535826651341417 -0.3011313679370973
  outer loop
    vertex 6.15 0.5999999999999994 3.7999999999999994
    vertex 18.962380931294945 -0.6000000000000003 0.0
    vertex 6.15 -0.6000000000000003 0.0
  endloop
endfacet
facet normal -0.0 0.9535826651341417 -0.3011313679370973
  outer loop
    vertex 18.962380931294945 -0.6000000000000003 0.0
    vertex 6.15 0.5999999999999994 3.7999999999999994
    vertex 18.962380931294945 0.5999999999999994 3.7999999999999994
  endloop
endfacet
endsolid Keyboard_LEDs
