solid Keyboard_LEDs
facet normal 0.0 -2.7755575615628914e-16 1.0
  outer loop
    vertex 19.150000024567174 9.549999999999997 6.6999999999999975
    vertex 4.050000024567175 10.849999999999994 6.699999999999999
    vertex 4.050000024567175 9.549999999999997 6.6999999999999975
  endloop
endfacet
facet normal 0.0 -2.7755575615628914e-16 1.0
  outer loop
    vertex 4.050000024567175 10.849999999999994 6.699999999999999
    vertex 19.150000024567174 9.549999999999997 6.6999999999999975
    vertex 19.150000024567174 10.849999999999993 6.699999999999999
  endloop
endfacet
facet normal 1.5128824653542586e-18 1.0 3.6516988689412267e-16
  outer loop
    vertex 2.000000024567175 12.950000000000001 2.0000000000000004
    vertex 4.100000009666014 12.950000000000001 7.049916206369744e-16
    vertex 2.000000024567175 12.950000000000001 7.049916206369744e-16
  endloop
endfacet
facet normal 1.5128824653542586e-18 1.0 3.6516988689412267e-16
  outer loop
    vertex 4.100000009666014 12.950000000000001 7.049916206369744e-16
    vertex 2.000000024567175 12.950000000000001 2.0000000000000004
    vertex 5.100000039468337 12.950000000000001 7.049916206369744e-16
  endloop
endfacet
facet normal 1.5128824653542586e-18 1.0 3.6516988689412267e-16
  outer loop
    vertex 5.100000039468337 12.950000000000001 7.049916206369744e-16
    vertex 2.000000024567175 12.950000000000001 2.0000000000000004
    vertex 6.150000024567174 12.950000000000001 7.049916206369744e-16
  endloop
endfacet
facet normal 1.5128824653542586e-18 1.0 3.6516988689412267e-16
  outer loop
    vertex 6.150000024567174 12.950000000000001 7.049916206369744e-16
    vertex 2.000000024567175 12.950000000000001 2.0000000000000004
    vertex 6.150000024567174 12.950000000000001 1.8500000000000008
  endloop
endfacet
facet normal 1.5128824653542586e-18 1.0 3.6516988689412267e-16
  outer loop
    vertex 6.150000024567174 12.950000000000001 1.8500000000000008
    vertex 2.000000024567175 12.950000000000001 2.0000000000000004
    vertex 18.950000024567178 12.950000000000001 1.8500000000000008
  endloop
endfacet
facet normal 1.5128824653542586e-18 1.0 3.6516988689412267e-16
  outer loop
    vertex 4.050000024567175 12.949999999999994 3.900000000000001
    vertex 19.150000024567174 12.949999999999987 3.5000000000000004
    vertex 4.050000024567175 12.949999999999994 3.5000000000000004
  endloop
endfacet
facet normal 1.5128824653542586e-18 1.0 3.6516988689412267e-16
  outer loop
    vertex 19.150000024567174 12.949999999999987 3.5000000000000004
    vertex 4.050000024567175 12.949999999999994 3.900000000000001
    vertex 19.15000002456718 12.949999999999996 4.300000000000012
  endloop
endfacet
facet normal 1.5128824653542586e-18 1.0 3.6516988689412267e-16
  outer loop
    vertex 19.15000002456718 12.949999999999996 4.300000000000012
    vertex 4.050000024567175 12.949999999999994 3.900000000000001
    vertex 4.050000024567175 12.95 11.500000000000002
  endloop
endfacet
facet normal 1.5128824653542586e-18 1.0 3.6516988689412267e-16
  outer loop
    vertex 19.15000002456718 12.949999999999996 4.300000000000012
    vertex 4.050000024567175 12.95 11.500000000000002
    vertex 19.150000024567174 12.95 11.500000000000002
  endloop
endfacet
facet normal 1.5128824653542586e-18 1.0 3.6516988689412267e-16
  outer loop
    vertex 3.550000024567175 12.949999999999994 3.5000000000000004
    vertex 20.050000024567176 12.950000000000001 2.0000000000000004
    vertex 3.550000024567175 12.950000000000001 2.0000000000000004
  endloop
endfacet
facet normal 1.5128824653542586e-18 1.0 3.6516988689412267e-16
  outer loop
    vertex 20.050000024567176 12.950000000000001 2.0000000000000004
    vertex 3.550000024567175 12.949999999999994 3.5000000000000004
    vertex 20.050000024567176 12.950000000000001 3.0
  endloop
endfacet
facet normal 1.5128824653542586e-18 1.0 3.6516988689412267e-16
  outer loop
    vertex 20.050000024567176 12.950000000000001 3.0
    vertex 3.550000024567175 12.949999999999994 3.5000000000000004
    vertex 20.050000024567176 12.949999999999987 3.5000000000000004
  endloop
endfacet
facet normal 1.5128824653542586e-18 1.0 3.6516988689412267e-16
  outer loop
    vertex 20.050000024567176 12.949999999999987 3.5000000000000004
    vertex 3.550000024567175 12.949999999999994 3.5000000000000004
    vertex 4.050000024567175 12.949999999999994 3.5000000000000004
  endloop
endfacet
facet normal 1.5128824653542586e-18 1.0 3.6516988689412267e-16
  outer loop
    vertex 20.050000024567176 12.949999999999987 3.5000000000000004
    vertex 4.050000024567175 12.949999999999994 3.5000000000000004
    vertex 19.150000024567174 12.949999999999987 3.5000000000000004
  endloop
endfacet
facet normal 1.5128824653542586e-18 1.0 3.6516988689412267e-16
  outer loop
    vertex 18.950000024567178 12.950000000000001 1.8500000000000008
    vertex 20.000000024567175 12.950000000000001 7.049916206369744e-16
    vertex 18.950000024567178 12.950000000000001 7.049916206369744e-16
  endloop
endfacet
facet normal 1.5128824653542586e-18 1.0 3.6516988689412267e-16
  outer loop
    vertex 20.000000024567175 12.950000000000001 7.049916206369744e-16
    vertex 18.950000024567178 12.950000000000001 1.8500000000000008
    vertex 21.000000024567175 12.950000000000001 7.049916206369744e-16
  endloop
endfacet
facet normal 1.5128824653542586e-18 1.0 3.6516988689412267e-16
  outer loop
    vertex 21.000000024567175 12.950000000000001 7.049916206369744e-16
    vertex 18.950000024567178 12.950000000000001 1.8500000000000008
    vertex 23.100000024567176 12.950000000000001 7.049916206369744e-16
  endloop
endfacet
facet normal 1.5128824653542586e-18 1.0 3.6516988689412267e-16
  outer loop
    vertex 23.100000024567176 12.950000000000001 7.049916206369744e-16
    vertex 18.950000024567178 12.950000000000001 1.8500000000000008
    vertex 23.100000024567176 12.950000000000001 2.0000000000000004
  endloop
endfacet
facet normal 1.5128824653542586e-18 1.0 3.6516988689412267e-16
  outer loop
    vertex 23.100000024567176 12.950000000000001 2.0000000000000004
    vertex 18.950000024567178 12.950000000000001 1.8500000000000008
    vertex 2.000000024567175 12.950000000000001 2.0000000000000004
  endloop
endfacet
facet normal 1.5128824653542586e-18 1.0 3.6516988689412267e-16
  outer loop
    vertex 23.100000024567176 12.950000000000001 2.0000000000000004
    vertex 2.000000024567175 12.950000000000001 2.0000000000000004
    vertex 3.550000024567175 12.950000000000001 2.0000000000000004
  endloop
endfacet
facet normal 1.5128824653542586e-18 1.0 3.6516988689412267e-16
  outer loop
    vertex 23.100000024567176 12.950000000000001 2.0000000000000004
    vertex 3.550000024567175 12.950000000000001 2.0000000000000004
    vertex 20.050000024567176 12.950000000000001 2.0000000000000004
  endloop
endfacet
facet normal 1.5128824653542586e-18 1.0 3.6516988689412267e-16
  outer loop
    vertex 23.100000024567176 12.950000000000001 2.0000000000000004
    vertex 20.050000024567176 12.950000000000001 2.0000000000000004
    vertex 21.050000024567176 12.950000000000001 2.0000000000000004
  endloop
endfacet
facet normal 1.5128824653542586e-18 1.0 3.6516988689412267e-16
  outer loop
    vertex 23.100000024567176 12.950000000000001 2.0000000000000004
    vertex 21.050000024567176 12.950000000000001 2.0000000000000004
    vertex 21.550000024567176 12.950000000000001 2.0000000000000004
  endloop
endfacet
facet normal 1.5128824653542586e-18 1.0 3.6516988689412267e-16
  outer loop
    vertex 20.000000024567175 12.950000000000001 7.049916206369744e-16
    vertex 21.000000024567175 12.950000000000001 -3.999999999999999
    vertex 20.000000024567175 12.950000000000001 -3.999999999999999
  endloop
endfacet
facet normal 1.5128824653542586e-18 1.0 3.6516988689412267e-16
  outer loop
    vertex 21.000000024567175 12.950000000000001 -3.999999999999999
    vertex 20.000000024567175 12.950000000000001 7.049916206369744e-16
    vertex 21.000000024567175 12.950000000000001 7.049916206369744e-16
  endloop
endfacet
facet normal 1.5128824653542586e-18 1.0 3.6516988689412267e-16
  outer loop
    vertex 4.100000009666014 12.950000000000001 7.049916206369744e-16
    vertex 5.100000039468337 12.950000000000001 -3.999999999999999
    vertex 4.100000009666014 12.950000000000001 -3.999999999999999
  endloop
endfacet
facet normal 1.5128824653542586e-18 1.0 3.6516988689412267e-16
  outer loop
    vertex 5.100000039468337 12.950000000000001 -3.999999999999999
    vertex 4.100000009666014 12.950000000000001 7.049916206369744e-16
    vertex 5.100000039468337 12.950000000000001 7.049916206369744e-16
  endloop
endfacet
facet normal -1.0 -0.0 0.0
  outer loop
    vertex 18.950000024567178 12.950000000000001 1.8500000000000008
    vertex 18.950000024567178 9.550000000000002 -1.4099832412739487e-15
    vertex 18.950000024567178 9.549999999999995 1.85
  endloop
endfacet
facet normal -1.0 -0.0 0.0
  outer loop
    vertex 18.950000024567178 9.550000000000002 -1.4099832412739487e-15
    vertex 18.950000024567178 12.950000000000001 1.8500000000000008
    vertex 18.950000024567178 12.950000000000001 7.049916206369744e-16
  endloop
endfacet
facet normal 5.685416295459471e-16 5.183761916448345e-17 1.0
  outer loop
    vertex 23.100000024567176 9.549999999999995 1.9999999999999998
    vertex 21.550000024567176 12.950000000000001 2.0000000000000004
    vertex 21.550000024567176 9.549999999999994 2.0000000000000013
  endloop
endfacet
facet normal 5.685416295459471e-16 5.183761916448345e-17 1.0
  outer loop
    vertex 21.550000024567176 12.950000000000001 2.0000000000000004
    vertex 23.100000024567176 9.549999999999995 1.9999999999999998
    vertex 23.100000024567176 12.950000000000001 2.0000000000000004
  endloop
endfacet
facet normal 1.0 0.0 0.0
  outer loop
    vertex 23.100000024567176 9.550000000000002 -1.4099832412739487e-15
    vertex 23.100000024567176 12.950000000000001 2.0000000000000004
    vertex 23.100000024567176 9.549999999999995 1.9999999999999998
  endloop
endfacet
facet normal 1.0 0.0 0.0
  outer loop
    vertex 23.100000024567176 12.950000000000001 2.0000000000000004
    vertex 23.100000024567176 9.550000000000002 -1.4099832412739487e-15
    vertex 23.100000024567176 12.950000000000001 7.049916206369744e-16
  endloop
endfacet
facet normal 1.0 0.0 0.0
  outer loop
    vertex 6.150000024567174 9.550000000000002 -1.4099832412739487e-15
    vertex 6.150000024567174 12.950000000000001 1.8500000000000008
    vertex 6.150000024567174 9.549999999999995 1.85
  endloop
endfacet
facet normal 1.0 0.0 0.0
  outer loop
    vertex 6.150000024567174 12.950000000000001 1.8500000000000008
    vertex 6.150000024567174 9.550000000000002 -1.4099832412739487e-15
    vertex 6.150000024567174 12.950000000000001 7.049916206369744e-16
  endloop
endfacet
facet normal 0.0 2.7755575615628914e-16 -1.0
  outer loop
    vertex 18.950000024567178 12.950000000000001 1.8500000000000008
    vertex 6.150000024567174 9.549999999999995 1.85
    vertex 6.150000024567174 12.950000000000001 1.8500000000000008
  endloop
endfacet
facet normal 0.0 2.7755575615628914e-16 -1.0
  outer loop
    vertex 6.150000024567174 9.549999999999995 1.85
    vertex 18.950000024567178 12.950000000000001 1.8500000000000008
    vertex 18.950000024567178 9.549999999999995 1.85
  endloop
endfacet
facet normal -0.13052619160448126 0.9914448614548518 2.751812282083687e-16
  outer loop
    vertex 19.741180980664105 12.915925826610462 7.049916206369744e-16
    vertex 20.000000024567175 12.950000000000001 -3.999999999999999
    vertex 19.741180980664105 12.915925826610462 -3.999999999999999
  endloop
endfacet
facet normal -0.13052619160448126 0.9914448614548518 2.751812282083687e-16
  outer loop
    vertex 20.000000024567175 12.950000000000001 -3.999999999999999
    vertex 19.741180980664105 12.915925826610462 7.049916206369744e-16
    vertex 20.000000024567175 12.950000000000001 7.049916206369744e-16
  endloop
endfacet
facet normal -0.3826834306442311 0.9238795332240898 2.564280824413317e-16
  outer loop
    vertex 19.500000026717974 12.816025405026204 7.049916206369744e-16
    vertex 19.741180980664105 12.915925826610462 -3.999999999999999
    vertex 19.500000026717974 12.816025405026204 -3.999999999999999
  endloop
endfacet
facet normal -0.3826834306442311 0.9238795332240898 2.564280824413317e-16
  outer loop
    vertex 19.741180980664105 12.915925826610462 -3.999999999999999
    vertex 19.500000026717974 12.816025405026204 7.049916206369744e-16
    vertex 19.741180980664105 12.915925826610462 7.049916206369744e-16
  endloop
endfacet
facet normal -0.7933533376454557 0.6087614324567675 1.6896523970432397e-16
  outer loop
    vertex 19.133974623266266 12.450000004301597 7.049916206369744e-16
    vertex 19.292893246014806 12.657106783820721 -3.999999999999999
    vertex 19.133974623266266 12.450000004301591 -3.999999999999999
  endloop
endfacet
facet normal -0.7933533376454557 0.6087614324567675 1.6896523970432397e-16
  outer loop
    vertex 19.292893246014806 12.657106783820721 -3.999999999999999
    vertex 19.133974623266266 12.450000004301597 7.049916206369744e-16
    vertex 19.292893246014806 12.657106783820726 7.049916206369744e-16
  endloop
endfacet
facet normal -0.9238795303728757 0.38268343752767076 1.0621599087148068e-16
  outer loop
    vertex 19.03407419988507 12.208819051099779 -1.4099832412739487e-15
    vertex 19.133974623266266 12.450000004301591 -3.999999999999999
    vertex 19.03407419988507 12.208819051099775 -3.9999999999999996
  endloop
endfacet
facet normal -0.9238795303728757 0.38268343752767076 1.0621599087148068e-16
  outer loop
    vertex 19.133974623266266 12.450000004301591 -3.999999999999999
    vertex 19.03407419988507 12.208819051099779 -1.4099832412739487e-15
    vertex 19.133974623266266 12.450000004301597 7.049916206369744e-16
  endloop
endfacet
facet normal -0.9914448604823556 0.13052619899132398 3.622829785924319e-17
  outer loop
    vertex 19.000000024567175 11.950000007450582 3.524958103184872e-16
    vertex 19.03407419988507 12.208819051099775 -3.9999999999999996
    vertex 19.000000024567175 11.950000007450576 -3.9999999999999996
  endloop
endfacet
facet normal -0.9914448604823556 0.13052619899132398 3.622829785924319e-17
  outer loop
    vertex 19.03407419988507 12.208819051099775 -3.9999999999999996
    vertex 19.000000024567175 11.950000007450582 3.524958103184872e-16
    vertex 19.03407419988507 12.208819051099779 -1.4099832412739487e-15
  endloop
endfacet
facet normal -0.6087614265458245 0.7933533421810818 2.2019978678818936e-16
  outer loop
    vertex 19.292893246014806 12.657106783820726 7.049916206369744e-16
    vertex 19.500000026717974 12.816025405026204 -3.999999999999999
    vertex 19.292893246014806 12.657106783820721 -3.999999999999999
  endloop
endfacet
facet normal -0.6087614265458245 0.7933533421810818 2.2019978678818936e-16
  outer loop
    vertex 19.500000026717974 12.816025405026204 -3.999999999999999
    vertex 19.292893246014806 12.657106783820726 7.049916206369744e-16
    vertex 19.500000026717974 12.816025405026204 7.049916206369744e-16
  endloop
endfacet
facet normal -0.9914448624273476 -0.13052618421764298 -3.622829375872299e-17
  outer loop
    vertex 19.034074196028364 11.69118096329364 3.524958103184872e-16
    vertex 19.000000024567175 11.950000007450576 -3.9999999999999996
    vertex 19.034074196028364 11.691180963293634 -3.9999999999999996
  endloop
endfacet
facet normal -0.9914448624273476 -0.13052618421764298 -3.622829375872299e-17
  outer loop
    vertex 19.000000024567175 11.950000007450576 -3.9999999999999996
    vertex 19.034074196028364 11.69118096329364 3.524958103184872e-16
    vertex 19.000000024567175 11.950000007450582 3.524958103184872e-16
  endloop
endfacet
facet normal -0.7933533467167081 -0.6087614206348811 -1.6896523642309123e-16
  outer loop
    vertex 19.133974615815685 11.45000000860319 3.524958103184872e-16
    vertex 19.292893235478093 11.242893226715987 -3.9999999999999996
    vertex 19.292893235478093 11.242893226715987 3.524958103184872e-16
  endloop
endfacet
facet normal -0.7933533467167081 -0.6087614206348811 -1.6896523642309123e-16
  outer loop
    vertex 19.292893235478093 11.242893226715987 -3.9999999999999996
    vertex 19.133974615815685 11.45000000860319 3.524958103184872e-16
    vertex 19.133974615815685 11.450000008603187 -3.9999999999999996
  endloop
endfacet
facet normal -0.6087614383677121 -0.7933533331098283 -2.2019978427041072e-16
  outer loop
    vertex 19.50000001381319 11.08397460242438 3.524958103184872e-16
    vertex 19.292893235478093 11.242893226715987 -3.9999999999999996
    vertex 19.50000001381319 11.08397460242438 -3.9999999999999996
  endloop
endfacet
facet normal -0.6087614383677121 -0.7933533331098283 -2.2019978427041072e-16
  outer loop
    vertex 19.292893235478093 11.242893226715987 -3.9999999999999996
    vertex 19.50000001381319 11.08397460242438 3.524958103184872e-16
    vertex 19.292893235478093 11.242893226715987 3.524958103184872e-16
  endloop
endfacet
facet normal -0.38268344441110885 -0.9238795275216622 -2.564280808585901e-16
  outer loop
    vertex 19.74118096627069 10.984074177246244 -1.762479051592436e-15
    vertex 19.50000001381319 11.08397460242438 -3.9999999999999996
    vertex 19.74118096627069 10.984074177246244 -3.9999999999999996
  endloop
endfacet
facet normal -0.38268344441110885 -0.9238795275216622 -2.564280808585901e-16
  outer loop
    vertex 19.50000001381319 11.08397460242438 -3.9999999999999996
    vertex 19.74118096627069 10.984074177246244 -1.762479051592436e-15
    vertex 19.50000001381319 11.08397460242438 3.524958103184872e-16
  endloop
endfacet
facet normal -0.1305262063781595 -0.99144485950986 -3.494588285629077e-16
  outer loop
    vertex 20.000000009666014 10.95 -1.762479051592436e-15
    vertex 19.74118096627069 10.984074177246244 -3.9999999999999996
    vertex 20.000000009666014 10.950000000000003 -3.9999999999999996
  endloop
endfacet
facet normal -0.1305262063781595 -0.99144485950986 -3.494588285629077e-16
  outer loop
    vertex 19.74118096627069 10.984074177246244 -3.9999999999999996
    vertex 20.000000009666014 10.95 -1.762479051592436e-15
    vertex 19.74118096627069 10.984074177246244 -1.762479051592436e-15
  endloop
endfacet
facet normal 0.38268344441110885 -0.9238795275216622 -2.564280808585901e-16
  outer loop
    vertex 21.50000003532116 11.08397460242438 3.524958103184872e-16
    vertex 21.25881908286366 10.984074177246244 -3.9999999999999996
    vertex 21.50000003532116 11.08397460242438 -3.9999999999999996
  endloop
endfacet
facet normal 0.38268344441110885 -0.9238795275216622 -2.564280808585901e-16
  outer loop
    vertex 21.25881908286366 10.984074177246244 -3.9999999999999996
    vertex 21.50000003532116 11.08397460242438 3.524958103184872e-16
    vertex 21.25881908286366 10.984074177246244 -1.762479051592436e-15
  endloop
endfacet
facet normal 0.7933533467167081 -0.6087614206348811 -1.6896523642309123e-16
  outer loop
    vertex 21.866025433318665 11.450000008603187 -3.9999999999999996
    vertex 21.707106813656257 11.242893226715987 3.524958103184872e-16
    vertex 21.707106813656257 11.242893226715987 -3.9999999999999996
  endloop
endfacet
facet normal 0.7933533467167081 -0.6087614206348811 -1.6896523642309123e-16
  outer loop
    vertex 21.707106813656257 11.242893226715987 3.524958103184872e-16
    vertex 21.866025433318665 11.450000008603187 -3.9999999999999996
    vertex 21.866025433318665 11.45000000860319 3.524958103184872e-16
  endloop
endfacet
facet normal 0.9238795360753017 -0.38268342376079617 -1.0621598705040534e-16
  outer loop
    vertex 21.965925853105986 11.691180963293634 -3.9999999999999996
    vertex 21.866025433318665 11.45000000860319 3.524958103184872e-16
    vertex 21.866025433318665 11.450000008603187 -3.9999999999999996
  endloop
endfacet
facet normal 0.9238795360753017 -0.38268342376079617 -1.0621598705040534e-16
  outer loop
    vertex 21.866025433318665 11.45000000860319 3.524958103184872e-16
    vertex 21.965925853105986 11.691180963293634 -3.9999999999999996
    vertex 21.965925853105986 11.69118096329364 3.524958103184872e-16
  endloop
endfacet
facet normal 0.9914448624273476 -0.13052618421764298 -3.622829375872299e-17
  outer loop
    vertex 22.000000024567175 11.950000007450576 -3.9999999999999996
    vertex 21.965925853105986 11.69118096329364 3.524958103184872e-16
    vertex 21.965925853105986 11.691180963293634 -3.9999999999999996
  endloop
endfacet
facet normal 0.9914448624273476 -0.13052618421764298 -3.622829375872299e-17
  outer loop
    vertex 21.965925853105986 11.69118096329364 3.524958103184872e-16
    vertex 22.000000024567175 11.950000007450576 -3.9999999999999996
    vertex 22.000000024567175 11.950000007450582 3.524958103184872e-16
  endloop
endfacet
facet normal 0.6087614383677121 -0.7933533331098283 -2.2019978427041072e-16
  outer loop
    vertex 21.707106813656257 11.242893226715987 3.524958103184872e-16
    vertex 21.50000003532116 11.08397460242438 -3.9999999999999996
    vertex 21.707106813656257 11.242893226715987 -3.9999999999999996
  endloop
endfacet
facet normal 0.6087614383677121 -0.7933533331098283 -2.2019978427041072e-16
  outer loop
    vertex 21.50000003532116 11.08397460242438 -3.9999999999999996
    vertex 21.707106813656257 11.242893226715987 3.524958103184872e-16
    vertex 21.50000003532116 11.08397460242438 3.524958103184872e-16
  endloop
endfacet
facet normal 0.9914448604823556 0.13052619899132398 3.622829785924319e-17
  outer loop
    vertex 21.96592584924928 12.208819051099775 -3.9999999999999996
    vertex 22.000000024567175 11.950000007450582 3.524958103184872e-16
    vertex 22.000000024567175 11.950000007450576 -3.9999999999999996
  endloop
endfacet
facet normal 0.9914448604823556 0.13052619899132398 3.622829785924319e-17
  outer loop
    vertex 22.000000024567175 11.950000007450582 3.524958103184872e-16
    vertex 21.96592584924928 12.208819051099775 -3.9999999999999996
    vertex 21.96592584924928 12.208819051099779 -1.4099832412739487e-15
  endloop
endfacet
facet normal 0.6087614265458245 0.7933533421810818 2.2019978678818936e-16
  outer loop
    vertex 21.500000022416376 12.816025405026204 7.049916206369744e-16
    vertex 21.707106803119544 12.657106783820721 -3.999999999999999
    vertex 21.500000022416376 12.816025405026204 -3.999999999999999
  endloop
endfacet
facet normal 0.6087614265458245 0.7933533421810818 2.2019978678818936e-16
  outer loop
    vertex 21.707106803119544 12.657106783820721 -3.999999999999999
    vertex 21.500000022416376 12.816025405026204 7.049916206369744e-16
    vertex 21.707106803119544 12.657106783820726 7.049916206369744e-16
  endloop
endfacet
facet normal 0.3826834306442311 0.9238795332240898 2.564280824413317e-16
  outer loop
    vertex 21.258819068470245 12.915925826610462 7.049916206369744e-16
    vertex 21.500000022416376 12.816025405026204 -3.999999999999999
    vertex 21.258819068470245 12.915925826610462 -3.999999999999999
  endloop
endfacet
facet normal 0.3826834306442311 0.9238795332240898 2.564280824413317e-16
  outer loop
    vertex 21.500000022416376 12.816025405026204 -3.999999999999999
    vertex 21.258819068470245 12.915925826610462 7.049916206369744e-16
    vertex 21.500000022416376 12.816025405026204 7.049916206369744e-16
  endloop
endfacet
facet normal -5.731843968004589e-32 4.067860078803651e-16 -1.0
  outer loop
    vertex 19.03407419988507 12.208819051099775 -3.9999999999999996
    vertex 19.034074196028364 11.691180963293634 -3.9999999999999996
    vertex 19.000000024567175 11.950000007450576 -3.9999999999999996
  endloop
endfacet
facet normal -5.731843968004589e-32 4.067860078803651e-16 -1.0
  outer loop
    vertex 19.034074196028364 11.691180963293634 -3.9999999999999996
    vertex 19.03407419988507 12.208819051099775 -3.9999999999999996
    vertex 19.133974615815685 11.450000008603187 -3.9999999999999996
  endloop
endfacet
facet normal -5.731843968004589e-32 4.067860078803651e-16 -1.0
  outer loop
    vertex 19.133974615815685 11.450000008603187 -3.9999999999999996
    vertex 19.03407419988507 12.208819051099775 -3.9999999999999996
    vertex 19.133974623266266 12.450000004301591 -3.999999999999999
  endloop
endfacet
facet normal -5.731843968004589e-32 4.067860078803651e-16 -1.0
  outer loop
    vertex 19.133974615815685 11.450000008603187 -3.9999999999999996
    vertex 19.133974623266266 12.450000004301591 -3.999999999999999
    vertex 19.292893235478093 11.242893226715987 -3.9999999999999996
  endloop
endfacet
facet normal -5.731843968004589e-32 4.067860078803651e-16 -1.0
  outer loop
    vertex 19.292893235478093 11.242893226715987 -3.9999999999999996
    vertex 19.133974623266266 12.450000004301591 -3.999999999999999
    vertex 19.292893246014806 12.657106783820721 -3.999999999999999
  endloop
endfacet
facet normal -5.731843968004589e-32 4.067860078803651e-16 -1.0
  outer loop
    vertex 19.292893235478093 11.242893226715987 -3.9999999999999996
    vertex 19.292893246014806 12.657106783820721 -3.999999999999999
    vertex 19.50000001381319 11.08397460242438 -3.9999999999999996
  endloop
endfacet
facet normal -5.731843968004589e-32 4.067860078803651e-16 -1.0
  outer loop
    vertex 19.50000001381319 11.08397460242438 -3.9999999999999996
    vertex 19.292893246014806 12.657106783820721 -3.999999999999999
    vertex 19.500000026717974 12.816025405026204 -3.999999999999999
  endloop
endfacet
facet normal -5.731843968004589e-32 4.067860078803651e-16 -1.0
  outer loop
    vertex 19.50000001381319 11.08397460242438 -3.9999999999999996
    vertex 19.500000026717974 12.816025405026204 -3.999999999999999
    vertex 19.74118096627069 10.984074177246244 -3.9999999999999996
  endloop
endfacet
facet normal -5.731843968004589e-32 4.067860078803651e-16 -1.0
  outer loop
    vertex 19.74118096627069 10.984074177246244 -3.9999999999999996
    vertex 19.500000026717974 12.816025405026204 -3.999999999999999
    vertex 19.741180980664105 12.915925826610462 -3.999999999999999
  endloop
endfacet
facet normal -5.731843968004589e-32 4.067860078803651e-16 -1.0
  outer loop
    vertex 19.74118096627069 10.984074177246244 -3.9999999999999996
    vertex 19.741180980664105 12.915925826610462 -3.999999999999999
    vertex 20.000000009666014 10.950000000000003 -3.9999999999999996
  endloop
endfacet
facet normal -5.731843968004589e-32 4.067860078803651e-16 -1.0
  outer loop
    vertex 20.000000009666014 10.950000000000003 -3.9999999999999996
    vertex 19.741180980664105 12.915925826610462 -3.999999999999999
    vertex 20.000000024567175 12.950000000000001 -3.999999999999999
  endloop
endfacet
facet normal -5.731843968004589e-32 4.067860078803651e-16 -1.0
  outer loop
    vertex 20.000000009666014 10.950000000000003 -3.9999999999999996
    vertex 20.000000024567175 12.950000000000001 -3.999999999999999
    vertex 21.000000039468336 10.950000000000003 -3.9999999999999996
  endloop
endfacet
facet normal -5.731843968004589e-32 4.067860078803651e-16 -1.0
  outer loop
    vertex 21.000000039468336 10.950000000000003 -3.9999999999999996
    vertex 20.000000024567175 12.950000000000001 -3.999999999999999
    vertex 21.000000024567175 12.950000000000001 -3.999999999999999
  endloop
endfacet
facet normal -5.731843968004589e-32 4.067860078803651e-16 -1.0
  outer loop
    vertex 21.000000039468336 10.950000000000003 -3.9999999999999996
    vertex 21.000000024567175 12.950000000000001 -3.999999999999999
    vertex 21.258819068470245 12.915925826610462 -3.999999999999999
  endloop
endfacet
facet normal -5.731843968004589e-32 4.067860078803651e-16 -1.0
  outer loop
    vertex 21.000000039468336 10.950000000000003 -3.9999999999999996
    vertex 21.258819068470245 12.915925826610462 -3.999999999999999
    vertex 21.25881908286366 10.984074177246244 -3.9999999999999996
  endloop
endfacet
facet normal -5.731843968004589e-32 4.067860078803651e-16 -1.0
  outer loop
    vertex 21.25881908286366 10.984074177246244 -3.9999999999999996
    vertex 21.258819068470245 12.915925826610462 -3.999999999999999
    vertex 21.500000022416376 12.816025405026204 -3.999999999999999
  endloop
endfacet
facet normal -5.731843968004589e-32 4.067860078803651e-16 -1.0
  outer loop
    vertex 21.25881908286366 10.984074177246244 -3.9999999999999996
    vertex 21.500000022416376 12.816025405026204 -3.999999999999999
    vertex 21.50000003532116 11.08397460242438 -3.9999999999999996
  endloop
endfacet
facet normal -5.731843968004589e-32 4.067860078803651e-16 -1.0
  outer loop
    vertex 21.50000003532116 11.08397460242438 -3.9999999999999996
    vertex 21.500000022416376 12.816025405026204 -3.999999999999999
    vertex 21.707106803119544 12.657106783820721 -3.999999999999999
  endloop
endfacet
facet normal -5.731843968004589e-32 4.067860078803651e-16 -1.0
  outer loop
    vertex 21.50000003532116 11.08397460242438 -3.9999999999999996
    vertex 21.707106803119544 12.657106783820721 -3.999999999999999
    vertex 21.707106813656257 11.242893226715987 -3.9999999999999996
  endloop
endfacet
facet normal -5.731843968004589e-32 4.067860078803651e-16 -1.0
  outer loop
    vertex 21.707106813656257 11.242893226715987 -3.9999999999999996
    vertex 21.707106803119544 12.657106783820721 -3.999999999999999
    vertex 21.866025425868084 12.450000004301591 -3.999999999999999
  endloop
endfacet
facet normal -5.731843968004589e-32 4.067860078803651e-16 -1.0
  outer loop
    vertex 21.707106813656257 11.242893226715987 -3.9999999999999996
    vertex 21.866025425868084 12.450000004301591 -3.999999999999999
    vertex 21.866025433318665 11.450000008603187 -3.9999999999999996
  endloop
endfacet
facet normal -5.731843968004589e-32 4.067860078803651e-16 -1.0
  outer loop
    vertex 21.866025433318665 11.450000008603187 -3.9999999999999996
    vertex 21.866025425868084 12.450000004301591 -3.999999999999999
    vertex 21.96592584924928 12.208819051099775 -3.9999999999999996
  endloop
endfacet
facet normal -5.731843968004589e-32 4.067860078803651e-16 -1.0
  outer loop
    vertex 21.866025433318665 11.450000008603187 -3.9999999999999996
    vertex 21.96592584924928 12.208819051099775 -3.9999999999999996
    vertex 21.965925853105986 11.691180963293634 -3.9999999999999996
  endloop
endfacet
facet normal -5.731843968004589e-32 4.067860078803651e-16 -1.0
  outer loop
    vertex 21.965925853105986 11.691180963293634 -3.9999999999999996
    vertex 21.96592584924928 12.208819051099775 -3.9999999999999996
    vertex 22.000000024567175 11.950000007450576 -3.9999999999999996
  endloop
endfacet
facet normal 0.0 2.7755575615628914e-16 -1.0
  outer loop
    vertex 18.950000024567178 12.950000000000001 7.049916206369744e-16
    vertex 19.000000024567175 11.950000007450582 3.524958103184872e-16
    vertex 18.950000024567178 9.550000000000002 -1.4099832412739487e-15
  endloop
endfacet
facet normal 0.0 2.7755575615628914e-16 -1.0
  outer loop
    vertex 19.000000024567175 11.950000007450582 3.524958103184872e-16
    vertex 18.950000024567178 12.950000000000001 7.049916206369744e-16
    vertex 19.03407419988507 12.208819051099779 -1.4099832412739487e-15
  endloop
endfacet
facet normal 0.0 2.7755575615628914e-16 -1.0
  outer loop
    vertex 19.03407419988507 12.208819051099779 -1.4099832412739487e-15
    vertex 18.950000024567178 12.950000000000001 7.049916206369744e-16
    vertex 19.133974623266266 12.450000004301597 7.049916206369744e-16
  endloop
endfacet
facet normal 0.0 2.7755575615628914e-16 -1.0
  outer loop
    vertex 19.133974623266266 12.450000004301597 7.049916206369744e-16
    vertex 18.950000024567178 12.950000000000001 7.049916206369744e-16
    vertex 19.292893246014806 12.657106783820726 7.049916206369744e-16
  endloop
endfacet
facet normal 0.0 2.7755575615628914e-16 -1.0
  outer loop
    vertex 19.292893246014806 12.657106783820726 7.049916206369744e-16
    vertex 18.950000024567178 12.950000000000001 7.049916206369744e-16
    vertex 19.500000026717974 12.816025405026204 7.049916206369744e-16
  endloop
endfacet
facet normal 0.0 2.7755575615628914e-16 -1.0
  outer loop
    vertex 19.500000026717974 12.816025405026204 7.049916206369744e-16
    vertex 18.950000024567178 12.950000000000001 7.049916206369744e-16
    vertex 19.741180980664105 12.915925826610462 7.049916206369744e-16
  endloop
endfacet
facet normal 0.0 2.7755575615628914e-16 -1.0
  outer loop
    vertex 19.741180980664105 12.915925826610462 7.049916206369744e-16
    vertex 18.950000024567178 12.950000000000001 7.049916206369744e-16
    vertex 20.000000024567175 12.950000000000001 7.049916206369744e-16
  endloop
endfacet
facet normal 0.0 2.7755575615628914e-16 -1.0
  outer loop
    vertex 23.100000024567176 12.950000000000001 7.049916206369744e-16
    vertex 21.258819068470245 12.915925826610462 7.049916206369744e-16
    vertex 21.000000024567175 12.950000000000001 7.049916206369744e-16
  endloop
endfacet
facet normal 0.0 2.7755575615628914e-16 -1.0
  outer loop
    vertex 21.258819068470245 12.915925826610462 7.049916206369744e-16
    vertex 23.100000024567176 12.950000000000001 7.049916206369744e-16
    vertex 21.500000022416376 12.816025405026204 7.049916206369744e-16
  endloop
endfacet
facet normal 0.0 2.7755575615628914e-16 -1.0
  outer loop
    vertex 21.500000022416376 12.816025405026204 7.049916206369744e-16
    vertex 23.100000024567176 12.950000000000001 7.049916206369744e-16
    vertex 21.707106803119544 12.657106783820726 7.049916206369744e-16
  endloop
endfacet
facet normal 0.0 2.7755575615628914e-16 -1.0
  outer loop
    vertex 21.707106803119544 12.657106783820726 7.049916206369744e-16
    vertex 23.100000024567176 12.950000000000001 7.049916206369744e-16
    vertex 21.866025425868084 12.450000004301597 7.049916206369744e-16
  endloop
endfacet
facet normal 0.0 2.7755575615628914e-16 -1.0
  outer loop
    vertex 21.866025425868084 12.450000004301597 7.049916206369744e-16
    vertex 23.100000024567176 12.950000000000001 7.049916206369744e-16
    vertex 21.96592584924928 12.208819051099779 -1.4099832412739487e-15
  endloop
endfacet
facet normal 0.0 2.7755575615628914e-16 -1.0
  outer loop
    vertex 21.96592584924928 12.208819051099779 -1.4099832412739487e-15
    vertex 23.100000024567176 12.950000000000001 7.049916206369744e-16
    vertex 22.000000024567175 11.950000007450582 3.524958103184872e-16
  endloop
endfacet
facet normal 0.0 2.7755575615628914e-16 -1.0
  outer loop
    vertex 18.950000024567178 9.550000000000002 -1.4099832412739487e-15
    vertex 20.400000024567174 10.6 -7.049916206369744e-16
    vertex 23.100000024567176 9.550000000000002 -1.4099832412739487e-15
  endloop
endfacet
facet normal 0.0 2.7755575615628914e-16 -1.0
  outer loop
    vertex 20.400000024567174 10.6 -7.049916206369744e-16
    vertex 18.950000024567178 9.550000000000002 -1.4099832412739487e-15
    vertex 19.50000001381319 11.08397460242438 3.524958103184872e-16
  endloop
endfacet
facet normal 0.0 2.7755575615628914e-16 -1.0
  outer loop
    vertex 19.50000001381319 11.08397460242438 3.524958103184872e-16
    vertex 18.950000024567178 9.550000000000002 -1.4099832412739487e-15
    vertex 19.292893235478093 11.242893226715987 3.524958103184872e-16
  endloop
endfacet
facet normal 0.0 2.7755575615628914e-16 -1.0
  outer loop
    vertex 19.292893235478093 11.242893226715987 3.524958103184872e-16
    vertex 18.950000024567178 9.550000000000002 -1.4099832412739487e-15
    vertex 19.133974615815685 11.45000000860319 3.524958103184872e-16
  endloop
endfacet
facet normal 0.0 2.7755575615628914e-16 -1.0
  outer loop
    vertex 19.133974615815685 11.45000000860319 3.524958103184872e-16
    vertex 18.950000024567178 9.550000000000002 -1.4099832412739487e-15
    vertex 19.034074196028364 11.69118096329364 3.524958103184872e-16
  endloop
endfacet
facet normal 0.0 2.7755575615628914e-16 -1.0
  outer loop
    vertex 19.034074196028364 11.69118096329364 3.524958103184872e-16
    vertex 18.950000024567178 9.550000000000002 -1.4099832412739487e-15
    vertex 19.000000024567175 11.950000007450582 3.524958103184872e-16
  endloop
endfacet
facet normal 0.0 2.7755575615628914e-16 -1.0
  outer loop
    vertex 20.400000024567174 10.6 -7.049916206369744e-16
    vertex 19.50000001381319 11.08397460242438 3.524958103184872e-16
    vertex 19.74118096627069 10.984074177246244 -1.762479051592436e-15
  endloop
endfacet
facet normal 0.0 2.7755575615628914e-16 -1.0
  outer loop
    vertex 20.400000024567174 10.6 -7.049916206369744e-16
    vertex 19.74118096627069 10.984074177246244 -1.762479051592436e-15
    vertex 20.000000009666014 10.95 -1.762479051592436e-15
  endloop
endfacet
facet normal 0.0 2.7755575615628914e-16 -1.0
  outer loop
    vertex 23.100000024567176 9.550000000000002 -1.4099832412739487e-15
    vertex 20.400000024567174 10.6 -7.049916206369744e-16
    vertex 20.600000024567176 10.6 -7.049916206369744e-16
  endloop
endfacet
facet normal 0.0 2.7755575615628914e-16 -1.0
  outer loop
    vertex 23.100000024567176 9.550000000000002 -1.4099832412739487e-15
    vertex 20.600000024567176 10.6 -7.049916206369744e-16
    vertex 21.000000039468336 10.95 -1.762479051592436e-15
  endloop
endfacet
facet normal 0.0 2.7755575615628914e-16 -1.0
  outer loop
    vertex 23.100000024567176 9.550000000000002 -1.4099832412739487e-15
    vertex 21.000000039468336 10.95 -1.762479051592436e-15
    vertex 21.25881908286366 10.984074177246244 -1.762479051592436e-15
  endloop
endfacet
facet normal 0.0 2.7755575615628914e-16 -1.0
  outer loop
    vertex 23.100000024567176 9.550000000000002 -1.4099832412739487e-15
    vertex 21.25881908286366 10.984074177246244 -1.762479051592436e-15
    vertex 21.50000003532116 11.08397460242438 3.524958103184872e-16
  endloop
endfacet
facet normal 0.0 2.7755575615628914e-16 -1.0
  outer loop
    vertex 23.100000024567176 9.550000000000002 -1.4099832412739487e-15
    vertex 21.50000003532116 11.08397460242438 3.524958103184872e-16
    vertex 21.707106813656257 11.242893226715987 3.524958103184872e-16
  endloop
endfacet
facet normal 0.0 2.7755575615628914e-16 -1.0
  outer loop
    vertex 23.100000024567176 9.550000000000002 -1.4099832412739487e-15
    vertex 21.707106813656257 11.242893226715987 3.524958103184872e-16
    vertex 21.866025433318665 11.45000000860319 3.524958103184872e-16
  endloop
endfacet
facet normal 0.0 2.7755575615628914e-16 -1.0
  outer loop
    vertex 23.100000024567176 9.550000000000002 -1.4099832412739487e-15
    vertex 21.866025433318665 11.45000000860319 3.524958103184872e-16
    vertex 21.965925853105986 11.69118096329364 3.524958103184872e-16
  endloop
endfacet
facet normal 0.0 2.7755575615628914e-16 -1.0
  outer loop
    vertex 23.100000024567176 9.550000000000002 -1.4099832412739487e-15
    vertex 21.965925853105986 11.69118096329364 3.524958103184872e-16
    vertex 22.000000024567175 11.950000007450582 3.524958103184872e-16
  endloop
endfacet
facet normal 0.0 2.7755575615628914e-16 -1.0
  outer loop
    vertex 23.100000024567176 9.550000000000002 -1.4099832412739487e-15
    vertex 22.000000024567175 11.950000007450582 3.524958103184872e-16
    vertex 23.100000024567176 12.950000000000001 7.049916206369744e-16
  endloop
endfacet
facet normal -0.7933533467167052 0.6087614206348851 1.6896523642309234e-16
  outer loop
    vertex 3.2339746158156832 12.449999991396812 7.049916206369744e-16
    vertex 3.3928932354780943 12.65710677328401 -3.999999999999999
    vertex 3.2339746158156832 12.449999991396806 -3.999999999999999
  endloop
endfacet
facet normal -0.7933533467167052 0.6087614206348851 1.6896523642309234e-16
  outer loop
    vertex 3.3928932354780943 12.65710677328401 -3.999999999999999
    vertex 3.2339746158156832 12.449999991396812 7.049916206369744e-16
    vertex 3.3928932354780943 12.657106773284013 7.049916206369744e-16
  endloop
endfacet
facet normal -0.9238795360753017 -0.38268342376079617 -1.0621598705040534e-16
  outer loop
    vertex 19.133974615815685 11.45000000860319 3.524958103184872e-16
    vertex 19.034074196028364 11.691180963293634 -3.9999999999999996
    vertex 19.133974615815685 11.450000008603187 -3.9999999999999996
  endloop
endfacet
facet normal -0.9238795360753017 -0.38268342376079617 -1.0621598705040534e-16
  outer loop
    vertex 19.034074196028364 11.691180963293634 -3.9999999999999996
    vertex 19.133974615815685 11.45000000860319 3.524958103184872e-16
    vertex 19.034074196028364 11.69118096329364 3.524958103184872e-16
  endloop
endfacet
facet normal 0.9238795303728757 0.38268343752767076 1.0621599087148068e-16
  outer loop
    vertex 21.866025425868084 12.450000004301591 -3.999999999999999
    vertex 21.96592584924928 12.208819051099779 -1.4099832412739487e-15
    vertex 21.96592584924928 12.208819051099775 -3.9999999999999996
  endloop
endfacet
facet normal 0.9238795303728757 0.38268343752767076 1.0621599087148068e-16
  outer loop
    vertex 21.96592584924928 12.208819051099779 -1.4099832412739487e-15
    vertex 21.866025425868084 12.450000004301591 -3.999999999999999
    vertex 21.866025425868084 12.450000004301597 7.049916206369744e-16
  endloop
endfacet
facet normal 0.1305262063781595 -0.99144485950986 -3.494588285629077e-16
  outer loop
    vertex 21.25881908286366 10.984074177246244 -1.762479051592436e-15
    vertex 21.000000039468336 10.950000000000003 -3.9999999999999996
    vertex 21.25881908286366 10.984074177246244 -3.9999999999999996
  endloop
endfacet
facet normal 0.1305262063781595 -0.99144485950986 -3.494588285629077e-16
  outer loop
    vertex 21.000000039468336 10.950000000000003 -3.9999999999999996
    vertex 21.25881908286366 10.984074177246244 -1.762479051592436e-15
    vertex 21.000000039468336 10.95 -1.762479051592436e-15
  endloop
endfacet
facet normal 0.7933533376454557 0.6087614324567675 1.6896523970432397e-16
  outer loop
    vertex 21.707106803119544 12.657106783820721 -3.999999999999999
    vertex 21.866025425868084 12.450000004301597 7.049916206369744e-16
    vertex 21.866025425868084 12.450000004301591 -3.999999999999999
  endloop
endfacet
facet normal 0.7933533376454557 0.6087614324567675 1.6896523970432397e-16
  outer loop
    vertex 21.866025425868084 12.450000004301597 7.049916206369744e-16
    vertex 21.707106803119544 12.657106783820721 -3.999999999999999
    vertex 21.707106803119544 12.657106783820726 7.049916206369744e-16
  endloop
endfacet
facet normal 0.13052619160448126 0.9914448614548518 2.751812282083687e-16
  outer loop
    vertex 21.000000024567175 12.950000000000001 7.049916206369744e-16
    vertex 21.258819068470245 12.915925826610462 -3.999999999999999
    vertex 21.000000024567175 12.950000000000001 -3.999999999999999
  endloop
endfacet
facet normal 0.13052619160448126 0.9914448614548518 2.751812282083687e-16
  outer loop
    vertex 21.258819068470245 12.915925826610462 -3.999999999999999
    vertex 21.000000024567175 12.950000000000001 7.049916206369744e-16
    vertex 21.258819068470245 12.915925826610462 7.049916206369744e-16
  endloop
endfacet
facet normal -1.0 -0.0 0.0
  outer loop
    vertex 2.000000024567175 12.950000000000001 2.0000000000000004
    vertex 2.000000024567175 9.550000000000002 -1.4099832412739487e-15
    vertex 2.000000024567175 9.549999999999995 1.9999999999999998
  endloop
endfacet
facet normal -1.0 -0.0 0.0
  outer loop
    vertex 2.000000024567175 9.550000000000002 -1.4099832412739487e-15
    vertex 2.000000024567175 12.950000000000001 2.0000000000000004
    vertex 2.000000024567175 12.950000000000001 7.049916206369744e-16
  endloop
endfacet
facet normal -0.13052620637816098 0.9914448595098599 2.7518122766852504e-16
  outer loop
    vertex 3.8411809662706893 12.915925822753756 7.049916206369744e-16
    vertex 4.100000009666014 12.950000000000001 -3.999999999999999
    vertex 3.8411809662706893 12.915925822753756 -3.999999999999999
  endloop
endfacet
facet normal -0.13052620637816098 0.9914448595098599 2.7518122766852504e-16
  outer loop
    vertex 4.100000009666014 12.950000000000001 -3.999999999999999
    vertex 3.8411809662706893 12.915925822753756 7.049916206369744e-16
    vertex 4.100000009666014 12.950000000000001 7.049916206369744e-16
  endloop
endfacet
facet normal 3.7473184340831847e-32 4.067860087650418e-16 -1.0
  outer loop
    vertex 3.1340741960283633 12.208819036706357 -3.9999999999999996
    vertex 3.1340741998850676 11.691180948900218 -3.9999999999999996
    vertex 3.1000000245671755 11.949999992549415 -3.9999999999999996
  endloop
endfacet
facet normal 3.7473184340831847e-32 4.067860087650418e-16 -1.0
  outer loop
    vertex 3.1340741998850676 11.691180948900218 -3.9999999999999996
    vertex 3.1340741960283633 12.208819036706357 -3.9999999999999996
    vertex 3.2339746158156832 12.449999991396806 -3.999999999999999
  endloop
endfacet
facet normal 3.7473184340831847e-32 4.067860087650418e-16 -1.0
  outer loop
    vertex 3.1340741998850676 11.691180948900218 -3.9999999999999996
    vertex 3.2339746158156832 12.449999991396806 -3.999999999999999
    vertex 3.233974623266264 11.449999995698402 -3.9999999999999996
  endloop
endfacet
facet normal 3.7473184340831847e-32 4.067860087650418e-16 -1.0
  outer loop
    vertex 3.233974623266264 11.449999995698402 -3.9999999999999996
    vertex 3.2339746158156832 12.449999991396806 -3.999999999999999
    vertex 3.3928932354780943 12.65710677328401 -3.999999999999999
  endloop
endfacet
facet normal 3.7473184340831847e-32 4.067860087650418e-16 -1.0
  outer loop
    vertex 3.233974623266264 11.449999995698402 -3.9999999999999996
    vertex 3.3928932354780943 12.65710677328401 -3.999999999999999
    vertex 3.3928932460148062 11.242893216179276 -3.9999999999999996
  endloop
endfacet
facet normal 3.7473184340831847e-32 4.067860087650418e-16 -1.0
  outer loop
    vertex 3.3928932460148062 11.242893216179276 -3.9999999999999996
    vertex 3.3928932354780943 12.65710677328401 -3.999999999999999
    vertex 3.600000013813189 12.816025397575624 -3.999999999999999
  endloop
endfacet
facet normal 3.7473184340831847e-32 4.067860087650418e-16 -1.0
  outer loop
    vertex 3.3928932460148062 11.242893216179276 -3.9999999999999996
    vertex 3.600000013813189 12.816025397575624 -3.999999999999999
    vertex 3.6000000267179733 11.083974594973801 -3.9999999999999996
  endloop
endfacet
facet normal 3.7473184340831847e-32 4.067860087650418e-16 -1.0
  outer loop
    vertex 3.6000000267179733 11.083974594973801 -3.9999999999999996
    vertex 3.600000013813189 12.816025397575624 -3.999999999999999
    vertex 3.8411809662706893 12.915925822753756 -3.999999999999999
  endloop
endfacet
facet normal 3.7473184340831847e-32 4.067860087650418e-16 -1.0
  outer loop
    vertex 3.6000000267179733 11.083974594973801 -3.9999999999999996
    vertex 3.8411809662706893 12.915925822753756 -3.999999999999999
    vertex 3.8411809806641064 10.98407417338954 -3.9999999999999996
  endloop
endfacet
facet normal 3.7473184340831847e-32 4.067860087650418e-16 -1.0
  outer loop
    vertex 3.8411809806641064 10.98407417338954 -3.9999999999999996
    vertex 3.8411809662706893 12.915925822753756 -3.999999999999999
    vertex 4.100000009666014 12.950000000000001 -3.999999999999999
  endloop
endfacet
facet normal 3.7473184340831847e-32 4.067860087650418e-16 -1.0
  outer loop
    vertex 3.8411809806641064 10.98407417338954 -3.9999999999999996
    vertex 4.100000009666014 12.950000000000001 -3.999999999999999
    vertex 4.1000000245671755 10.950000000000003 -3.9999999999999996
  endloop
endfacet
facet normal 3.7473184340831847e-32 4.067860087650418e-16 -1.0
  outer loop
    vertex 4.1000000245671755 10.950000000000003 -3.9999999999999996
    vertex 4.100000009666014 12.950000000000001 -3.999999999999999
    vertex 5.100000039468337 12.950000000000001 -3.999999999999999
  endloop
endfacet
facet normal 3.7473184340831847e-32 4.067860087650418e-16 -1.0
  outer loop
    vertex 4.1000000245671755 10.950000000000003 -3.9999999999999996
    vertex 5.100000039468337 12.950000000000001 -3.999999999999999
    vertex 5.1000000245671755 10.950000000000003 -3.9999999999999996
  endloop
endfacet
facet normal 3.7473184340831847e-32 4.067860087650418e-16 -1.0
  outer loop
    vertex 5.1000000245671755 10.950000000000003 -3.9999999999999996
    vertex 5.100000039468337 12.950000000000001 -3.999999999999999
    vertex 5.358819068470245 10.98407417338954 -3.9999999999999996
  endloop
endfacet
facet normal 3.7473184340831847e-32 4.067860087650418e-16 -1.0
  outer loop
    vertex 5.358819068470245 10.98407417338954 -3.9999999999999996
    vertex 5.100000039468337 12.950000000000001 -3.999999999999999
    vertex 5.358819082863661 12.915925822753756 -3.999999999999999
  endloop
endfacet
facet normal 3.7473184340831847e-32 4.067860087650418e-16 -1.0
  outer loop
    vertex 5.358819068470245 10.98407417338954 -3.9999999999999996
    vertex 5.358819082863661 12.915925822753756 -3.999999999999999
    vertex 5.600000022416378 11.083974594973801 -3.9999999999999996
  endloop
endfacet
facet normal 3.7473184340831847e-32 4.067860087650418e-16 -1.0
  outer loop
    vertex 5.600000022416378 11.083974594973801 -3.9999999999999996
    vertex 5.358819082863661 12.915925822753756 -3.999999999999999
    vertex 5.600000035321162 12.816025397575624 -3.999999999999999
  endloop
endfacet
facet normal 3.7473184340831847e-32 4.067860087650418e-16 -1.0
  outer loop
    vertex 5.600000022416378 11.083974594973801 -3.9999999999999996
    vertex 5.600000035321162 12.816025397575624 -3.999999999999999
    vertex 5.807106803119545 11.242893216179276 -3.9999999999999996
  endloop
endfacet
facet normal 3.7473184340831847e-32 4.067860087650418e-16 -1.0
  outer loop
    vertex 5.807106803119545 11.242893216179276 -3.9999999999999996
    vertex 5.600000035321162 12.816025397575624 -3.999999999999999
    vertex 5.807106813656257 12.65710677328401 -3.999999999999999
  endloop
endfacet
facet normal 3.7473184340831847e-32 4.067860087650418e-16 -1.0
  outer loop
    vertex 5.807106803119545 11.242893216179276 -3.9999999999999996
    vertex 5.807106813656257 12.65710677328401 -3.999999999999999
    vertex 5.966025425868088 11.449999995698402 -3.9999999999999996
  endloop
endfacet
facet normal 3.7473184340831847e-32 4.067860087650418e-16 -1.0
  outer loop
    vertex 5.966025425868088 11.449999995698402 -3.9999999999999996
    vertex 5.807106813656257 12.65710677328401 -3.999999999999999
    vertex 5.966025433318668 12.449999991396806 -3.999999999999999
  endloop
endfacet
facet normal 3.7473184340831847e-32 4.067860087650418e-16 -1.0
  outer loop
    vertex 5.966025425868088 11.449999995698402 -3.9999999999999996
    vertex 5.966025433318668 12.449999991396806 -3.999999999999999
    vertex 6.065925849249283 11.691180948900218 -3.9999999999999996
  endloop
endfacet
facet normal 3.7473184340831847e-32 4.067860087650418e-16 -1.0
  outer loop
    vertex 6.065925849249283 11.691180948900218 -3.9999999999999996
    vertex 5.966025433318668 12.449999991396806 -3.999999999999999
    vertex 6.065925853105988 12.208819036706357 -3.9999999999999996
  endloop
endfacet
facet normal 3.7473184340831847e-32 4.067860087650418e-16 -1.0
  outer loop
    vertex 6.065925849249283 11.691180948900218 -3.9999999999999996
    vertex 6.065925853105988 12.208819036706357 -3.9999999999999996
    vertex 6.1000000245671755 11.949999992549415 -3.9999999999999996
  endloop
endfacet
facet normal 0.130526206378161 0.9914448595098599 2.7518122766852504e-16
  outer loop
    vertex 5.100000039468337 12.950000000000001 7.049916206369744e-16
    vertex 5.358819082863661 12.915925822753756 -3.999999999999999
    vertex 5.100000039468337 12.950000000000001 -3.999999999999999
  endloop
endfacet
facet normal 0.130526206378161 0.9914448595098599 2.7518122766852504e-16
  outer loop
    vertex 5.358819082863661 12.915925822753756 -3.999999999999999
    vertex 5.100000039468337 12.950000000000001 7.049916206369744e-16
    vertex 5.358819082863661 12.915925822753756 7.049916206369744e-16
  endloop
endfacet
facet normal 0.382683444411108 0.9238795275216625 2.5642808085859015e-16
  outer loop
    vertex 5.358819082863661 12.915925822753756 7.049916206369744e-16
    vertex 5.600000035321162 12.816025397575624 -3.999999999999999
    vertex 5.358819082863661 12.915925822753756 -3.999999999999999
  endloop
endfacet
facet normal 0.382683444411108 0.9238795275216625 2.5642808085859015e-16
  outer loop
    vertex 5.600000035321162 12.816025397575624 -3.999999999999999
    vertex 5.358819082863661 12.915925822753756 7.049916206369744e-16
    vertex 5.600000035321162 12.81602539757562 7.049916206369744e-16
  endloop
endfacet
facet normal 0.6087614383677137 0.7933533331098273 2.2019978427041045e-16
  outer loop
    vertex 5.600000035321162 12.81602539757562 7.049916206369744e-16
    vertex 5.807106813656257 12.65710677328401 -3.999999999999999
    vertex 5.600000035321162 12.816025397575624 -3.999999999999999
  endloop
endfacet
facet normal 0.6087614383677137 0.7933533331098273 2.2019978427041045e-16
  outer loop
    vertex 5.807106813656257 12.65710677328401 -3.999999999999999
    vertex 5.600000035321162 12.81602539757562 7.049916206369744e-16
    vertex 5.807106813656257 12.657106773284013 7.049916206369744e-16
  endloop
endfacet
facet normal 0.7933533467167052 0.6087614206348848 1.6896523642309224e-16
  outer loop
    vertex 5.807106813656257 12.65710677328401 -3.999999999999999
    vertex 5.966025433318668 12.449999991396812 7.049916206369744e-16
    vertex 5.966025433318668 12.449999991396806 -3.999999999999999
  endloop
endfacet
facet normal 0.7933533467167052 0.6087614206348848 1.6896523642309224e-16
  outer loop
    vertex 5.966025433318668 12.449999991396812 7.049916206369744e-16
    vertex 5.807106813656257 12.65710677328401 -3.999999999999999
    vertex 5.807106813656257 12.657106773284013 7.049916206369744e-16
  endloop
endfacet
facet normal 0.9238795360753039 0.3826834237607912 1.0621598705040402e-16
  outer loop
    vertex 5.966025433318668 12.449999991396806 -3.999999999999999
    vertex 6.065925853105988 12.208819036706362 -1.4099832412739487e-15
    vertex 6.065925853105988 12.208819036706357 -3.9999999999999996
  endloop
endfacet
facet normal 0.9238795360753039 0.3826834237607912 1.0621598705040402e-16
  outer loop
    vertex 6.065925853105988 12.208819036706362 -1.4099832412739487e-15
    vertex 5.966025433318668 12.449999991396806 -3.999999999999999
    vertex 5.966025433318668 12.449999991396812 7.049916206369744e-16
  endloop
endfacet
facet normal 0.9914448624273476 0.13052618421764164 3.622829375872262e-17
  outer loop
    vertex 6.065925853105988 12.208819036706357 -3.9999999999999996
    vertex 6.1000000245671755 11.94999999254942 3.524958103184872e-16
    vertex 6.1000000245671755 11.949999992549415 -3.9999999999999996
  endloop
endfacet
facet normal 0.9914448624273476 0.13052618421764164 3.622829375872262e-17
  outer loop
    vertex 6.1000000245671755 11.94999999254942 3.524958103184872e-16
    vertex 6.065925853105988 12.208819036706357 -3.9999999999999996
    vertex 6.065925853105988 12.208819036706362 -1.4099832412739487e-15
  endloop
endfacet
facet normal 0.9914448604823557 -0.13052619899132195 -3.622829785924263e-17
  outer loop
    vertex 6.1000000245671755 11.949999992549415 -3.9999999999999996
    vertex 6.065925849249283 11.691180948900223 3.524958103184872e-16
    vertex 6.065925849249283 11.691180948900218 -3.9999999999999996
  endloop
endfacet
facet normal 0.9914448604823557 -0.13052619899132195 -3.622829785924263e-17
  outer loop
    vertex 6.065925849249283 11.691180948900223 3.524958103184872e-16
    vertex 6.1000000245671755 11.949999992549415 -3.9999999999999996
    vertex 6.1000000245671755 11.94999999254942 3.524958103184872e-16
  endloop
endfacet
facet normal 0.9238795303728765 -0.3826834375276691 -1.0621599087148023e-16
  outer loop
    vertex 6.065925849249283 11.691180948900218 -3.9999999999999996
    vertex 5.966025425868088 11.449999995698406 3.524958103184872e-16
    vertex 5.966025425868088 11.449999995698402 -3.9999999999999996
  endloop
endfacet
facet normal 0.9238795303728765 -0.3826834375276691 -1.0621599087148023e-16
  outer loop
    vertex 5.966025425868088 11.449999995698406 3.524958103184872e-16
    vertex 6.065925849249283 11.691180948900218 -3.9999999999999996
    vertex 6.065925849249283 11.691180948900223 3.524958103184872e-16
  endloop
endfacet
facet normal 0.7933533376454533 -0.6087614324567705 -1.6896523970432466e-16
  outer loop
    vertex 5.966025425868088 11.449999995698402 -3.9999999999999996
    vertex 5.807106803119545 11.242893216179276 3.524958103184872e-16
    vertex 5.807106803119545 11.242893216179276 -3.9999999999999996
  endloop
endfacet
facet normal 0.7933533376454533 -0.6087614324567705 -1.6896523970432466e-16
  outer loop
    vertex 5.807106803119545 11.242893216179276 3.524958103184872e-16
    vertex 5.966025425868088 11.449999995698402 -3.9999999999999996
    vertex 5.966025425868088 11.449999995698406 3.524958103184872e-16
  endloop
endfacet
facet normal 0.6087614265458277 -0.7933533421810796 -2.2019978678818874e-16
  outer loop
    vertex 5.807106803119545 11.242893216179276 3.524958103184872e-16
    vertex 5.600000022416378 11.083974594973801 -3.9999999999999996
    vertex 5.807106803119545 11.242893216179276 -3.9999999999999996
  endloop
endfacet
facet normal 0.6087614265458277 -0.7933533421810796 -2.2019978678818874e-16
  outer loop
    vertex 5.600000022416378 11.083974594973801 -3.9999999999999996
    vertex 5.807106803119545 11.242893216179276 3.524958103184872e-16
    vertex 5.600000022416378 11.083974594973798 3.524958103184872e-16
  endloop
endfacet
facet normal 0.38268343064422994 -0.9238795332240902 -2.5642808244133183e-16
  outer loop
    vertex 5.600000022416378 11.083974594973798 3.524958103184872e-16
    vertex 5.358819068470245 10.98407417338954 -3.9999999999999996
    vertex 5.600000022416378 11.083974594973801 -3.9999999999999996
  endloop
endfacet
facet normal 0.38268343064422994 -0.9238795332240902 -2.5642808244133183e-16
  outer loop
    vertex 5.358819068470245 10.98407417338954 -3.9999999999999996
    vertex 5.600000022416378 11.083974594973798 3.524958103184872e-16
    vertex 5.358819068470245 10.98407417338954 -1.762479051592436e-15
  endloop
endfacet
facet normal 0.1305261916044783 -0.9914448614548523 -3.4945882924846743e-16
  outer loop
    vertex 5.358819068470245 10.98407417338954 -1.762479051592436e-15
    vertex 5.1000000245671755 10.950000000000003 -3.9999999999999996
    vertex 5.358819068470245 10.98407417338954 -3.9999999999999996
  endloop
endfacet
facet normal 0.1305261916044783 -0.9914448614548523 -3.4945882924846743e-16
  outer loop
    vertex 5.1000000245671755 10.950000000000003 -3.9999999999999996
    vertex 5.358819068470245 10.98407417338954 -1.762479051592436e-15
    vertex 5.1000000245671755 10.95 -1.762479051592436e-15
  endloop
endfacet
facet normal -0.1305261916044783 -0.9914448614548523 -3.4945882924846743e-16
  outer loop
    vertex 4.1000000245671755 10.95 -1.762479051592436e-15
    vertex 3.8411809806641064 10.98407417338954 -3.9999999999999996
    vertex 4.1000000245671755 10.950000000000003 -3.9999999999999996
  endloop
endfacet
facet normal -0.1305261916044783 -0.9914448614548523 -3.4945882924846743e-16
  outer loop
    vertex 3.8411809806641064 10.98407417338954 -3.9999999999999996
    vertex 4.1000000245671755 10.95 -1.762479051592436e-15
    vertex 3.8411809806641064 10.98407417338954 -1.762479051592436e-15
  endloop
endfacet
facet normal -0.3826834306442299 -0.9238795332240902 -2.5642808244133183e-16
  outer loop
    vertex 3.8411809806641064 10.98407417338954 -1.762479051592436e-15
    vertex 3.6000000267179733 11.083974594973801 -3.9999999999999996
    vertex 3.8411809806641064 10.98407417338954 -3.9999999999999996
  endloop
endfacet
facet normal -0.3826834306442299 -0.9238795332240902 -2.5642808244133183e-16
  outer loop
    vertex 3.6000000267179733 11.083974594973801 -3.9999999999999996
    vertex 3.8411809806641064 10.98407417338954 -1.762479051592436e-15
    vertex 3.6000000267179733 11.083974594973798 3.524958103184872e-16
  endloop
endfacet
facet normal -0.6087614265458278 -0.7933533421810793 -2.2019978678818867e-16
  outer loop
    vertex 3.6000000267179733 11.083974594973798 3.524958103184872e-16
    vertex 3.3928932460148062 11.242893216179276 -3.9999999999999996
    vertex 3.6000000267179733 11.083974594973801 -3.9999999999999996
  endloop
endfacet
facet normal -0.6087614265458278 -0.7933533421810793 -2.2019978678818867e-16
  outer loop
    vertex 3.3928932460148062 11.242893216179276 -3.9999999999999996
    vertex 3.6000000267179733 11.083974594973798 3.524958103184872e-16
    vertex 3.3928932460148062 11.242893216179276 3.524958103184872e-16
  endloop
endfacet
facet normal -0.7933533376454538 -0.6087614324567702 -1.6896523970432459e-16
  outer loop
    vertex 3.233974623266264 11.449999995698406 3.524958103184872e-16
    vertex 3.3928932460148062 11.242893216179276 -3.9999999999999996
    vertex 3.3928932460148062 11.242893216179276 3.524958103184872e-16
  endloop
endfacet
facet normal -0.7933533376454538 -0.6087614324567702 -1.6896523970432459e-16
  outer loop
    vertex 3.3928932460148062 11.242893216179276 -3.9999999999999996
    vertex 3.233974623266264 11.449999995698406 3.524958103184872e-16
    vertex 3.233974623266264 11.449999995698402 -3.9999999999999996
  endloop
endfacet
facet normal -0.9238795303728762 -0.3826834375276696 -1.0621599087148036e-16
  outer loop
    vertex 3.233974623266264 11.449999995698406 3.524958103184872e-16
    vertex 3.1340741998850676 11.691180948900218 -3.9999999999999996
    vertex 3.233974623266264 11.449999995698402 -3.9999999999999996
  endloop
endfacet
facet normal -0.9238795303728762 -0.3826834375276696 -1.0621599087148036e-16
  outer loop
    vertex 3.1340741998850676 11.691180948900218 -3.9999999999999996
    vertex 3.233974623266264 11.449999995698406 3.524958103184872e-16
    vertex 3.1340741998850676 11.691180948900223 3.524958103184872e-16
  endloop
endfacet
facet normal -0.9914448604823557 -0.13052619899132265 -3.622829785924282e-17
  outer loop
    vertex 3.1340741998850676 11.691180948900223 3.524958103184872e-16
    vertex 3.1000000245671755 11.949999992549415 -3.9999999999999996
    vertex 3.1340741998850676 11.691180948900218 -3.9999999999999996
  endloop
endfacet
facet normal -0.9914448604823557 -0.13052619899132265 -3.622829785924282e-17
  outer loop
    vertex 3.1000000245671755 11.949999992549415 -3.9999999999999996
    vertex 3.1340741998850676 11.691180948900223 3.524958103184872e-16
    vertex 3.1000000245671755 11.94999999254942 3.524958103184872e-16
  endloop
endfacet
facet normal -0.9914448624273476 0.13052618421764298 3.622829375872299e-17
  outer loop
    vertex 3.1000000245671755 11.94999999254942 3.524958103184872e-16
    vertex 3.1340741960283633 12.208819036706357 -3.9999999999999996
    vertex 3.1000000245671755 11.949999992549415 -3.9999999999999996
  endloop
endfacet
facet normal -0.9914448624273476 0.13052618421764298 3.622829375872299e-17
  outer loop
    vertex 3.1340741960283633 12.208819036706357 -3.9999999999999996
    vertex 3.1000000245671755 11.94999999254942 3.524958103184872e-16
    vertex 3.1340741960283633 12.208819036706362 -1.4099832412739487e-15
  endloop
endfacet
facet normal -0.9238795360753043 0.38268342376079056 1.0621598705040385e-16
  outer loop
    vertex 3.1340741960283633 12.208819036706362 -1.4099832412739487e-15
    vertex 3.2339746158156832 12.449999991396806 -3.999999999999999
    vertex 3.1340741960283633 12.208819036706357 -3.9999999999999996
  endloop
endfacet
facet normal -0.9238795360753043 0.38268342376079056 1.0621598705040385e-16
  outer loop
    vertex 3.2339746158156832 12.449999991396806 -3.999999999999999
    vertex 3.1340741960283633 12.208819036706362 -1.4099832412739487e-15
    vertex 3.2339746158156832 12.449999991396812 7.049916206369744e-16
  endloop
endfacet
facet normal -0.3826834444111081 0.9238795275216625 2.5642808085859015e-16
  outer loop
    vertex 3.600000013813189 12.81602539757562 7.049916206369744e-16
    vertex 3.8411809662706893 12.915925822753756 -3.999999999999999
    vertex 3.600000013813189 12.816025397575624 -3.999999999999999
  endloop
endfacet
facet normal -0.3826834444111081 0.9238795275216625 2.5642808085859015e-16
  outer loop
    vertex 3.8411809662706893 12.915925822753756 -3.999999999999999
    vertex 3.600000013813189 12.81602539757562 7.049916206369744e-16
    vertex 3.8411809662706893 12.915925822753756 7.049916206369744e-16
  endloop
endfacet
facet normal -0.6087614383677139 0.7933533331098271 2.201997842704104e-16
  outer loop
    vertex 3.3928932354780943 12.657106773284013 7.049916206369744e-16
    vertex 3.600000013813189 12.816025397575624 -3.999999999999999
    vertex 3.3928932354780943 12.65710677328401 -3.999999999999999
  endloop
endfacet
facet normal -0.6087614383677139 0.7933533331098271 2.201997842704104e-16
  outer loop
    vertex 3.600000013813189 12.816025397575624 -3.999999999999999
    vertex 3.3928932354780943 12.657106773284013 7.049916206369744e-16
    vertex 3.600000013813189 12.81602539757562 7.049916206369744e-16
  endloop
endfacet
facet normal 0.0 1.0 2.7755575615628914e-16
  outer loop
    vertex 20.050000024567176 12.950000000000001 3.0
    vertex 21.050000024567176 12.950000000000001 2.0000000000000004
    vertex 20.050000024567176 12.950000000000001 2.0000000000000004
  endloop
endfacet
facet normal 0.0 -2.7755575615628914e-16 1.0
  outer loop
    vertex 19.150000024567174 10.84999999999999 11.500000000000002
    vertex 4.050000024567175 12.95 11.500000000000002
    vertex 4.050000024567175 10.849999999999993 11.500000000000002
  endloop
endfacet
facet normal 0.0 -2.7755575615628914e-16 1.0
  outer loop
    vertex 4.050000024567175 12.95 11.500000000000002
    vertex 19.150000024567174 10.84999999999999 11.500000000000002
    vertex 19.150000024567174 12.95 11.500000000000002
  endloop
endfacet
facet normal 0.0 2.7755575615628914e-16 -1.0
  outer loop
    vertex 2.000000024567175 12.950000000000001 7.049916206369744e-16
    vertex 3.2339746158156832 12.449999991396812 7.049916206369744e-16
    vertex 2.000000024567175 9.550000000000002 -1.4099832412739487e-15
  endloop
endfacet
facet normal 0.0 2.7755575615628914e-16 -1.0
  outer loop
    vertex 3.2339746158156832 12.449999991396812 7.049916206369744e-16
    vertex 2.000000024567175 12.950000000000001 7.049916206369744e-16
    vertex 3.3928932354780943 12.657106773284013 7.049916206369744e-16
  endloop
endfacet
facet normal 0.0 2.7755575615628914e-16 -1.0
  outer loop
    vertex 3.3928932354780943 12.657106773284013 7.049916206369744e-16
    vertex 2.000000024567175 12.950000000000001 7.049916206369744e-16
    vertex 3.600000013813189 12.81602539757562 7.049916206369744e-16
  endloop
endfacet
facet normal 0.0 2.7755575615628914e-16 -1.0
  outer loop
    vertex 3.600000013813189 12.81602539757562 7.049916206369744e-16
    vertex 2.000000024567175 12.950000000000001 7.049916206369744e-16
    vertex 3.8411809662706893 12.915925822753756 7.049916206369744e-16
  endloop
endfacet
facet normal 0.0 2.7755575615628914e-16 -1.0
  outer loop
    vertex 3.8411809662706893 12.915925822753756 7.049916206369744e-16
    vertex 2.000000024567175 12.950000000000001 7.049916206369744e-16
    vertex 4.100000009666014 12.950000000000001 7.049916206369744e-16
  endloop
endfacet
facet normal 0.0 2.7755575615628914e-16 -1.0
  outer loop
    vertex 2.000000024567175 9.550000000000002 -1.4099832412739487e-15
    vertex 3.2339746158156832 12.449999991396812 7.049916206369744e-16
    vertex 3.1340741960283633 12.208819036706362 -1.4099832412739487e-15
  endloop
endfacet
facet normal 0.0 2.7755575615628914e-16 -1.0
  outer loop
    vertex 2.000000024567175 9.550000000000002 -1.4099832412739487e-15
    vertex 3.1340741960283633 12.208819036706362 -1.4099832412739487e-15
    vertex 3.1000000245671755 11.94999999254942 3.524958103184872e-16
  endloop
endfacet
facet normal 0.0 2.7755575615628914e-16 -1.0
  outer loop
    vertex 6.150000024567174 12.950000000000001 7.049916206369744e-16
    vertex 5.358819082863661 12.915925822753756 7.049916206369744e-16
    vertex 5.100000039468337 12.950000000000001 7.049916206369744e-16
  endloop
endfacet
facet normal 0.0 2.7755575615628914e-16 -1.0
  outer loop
    vertex 5.358819082863661 12.915925822753756 7.049916206369744e-16
    vertex 6.150000024567174 12.950000000000001 7.049916206369744e-16
    vertex 5.600000035321162 12.81602539757562 7.049916206369744e-16
  endloop
endfacet
facet normal 0.0 2.7755575615628914e-16 -1.0
  outer loop
    vertex 5.600000035321162 12.81602539757562 7.049916206369744e-16
    vertex 6.150000024567174 12.950000000000001 7.049916206369744e-16
    vertex 5.807106813656257 12.657106773284013 7.049916206369744e-16
  endloop
endfacet
facet normal 0.0 2.7755575615628914e-16 -1.0
  outer loop
    vertex 5.807106813656257 12.657106773284013 7.049916206369744e-16
    vertex 6.150000024567174 12.950000000000001 7.049916206369744e-16
    vertex 5.966025433318668 12.449999991396812 7.049916206369744e-16
  endloop
endfacet
facet normal 0.0 2.7755575615628914e-16 -1.0
  outer loop
    vertex 5.966025433318668 12.449999991396812 7.049916206369744e-16
    vertex 6.150000024567174 12.950000000000001 7.049916206369744e-16
    vertex 6.065925853105988 12.208819036706362 -1.4099832412739487e-15
  endloop
endfacet
facet normal 0.0 2.7755575615628914e-16 -1.0
  outer loop
    vertex 6.065925853105988 12.208819036706362 -1.4099832412739487e-15
    vertex 6.150000024567174 12.950000000000001 7.049916206369744e-16
    vertex 6.1000000245671755 11.94999999254942 3.524958103184872e-16
  endloop
endfacet
facet normal 0.0 2.7755575615628914e-16 -1.0
  outer loop
    vertex 2.000000024567175 9.550000000000002 -1.4099832412739487e-15
    vertex 3.6000000267179733 11.083974594973798 3.524958103184872e-16
    vertex 6.150000024567174 9.550000000000002 -1.4099832412739487e-15
  endloop
endfacet
facet normal 0.0 2.7755575615628914e-16 -1.0
  outer loop
    vertex 3.6000000267179733 11.083974594973798 3.524958103184872e-16
    vertex 2.000000024567175 9.550000000000002 -1.4099832412739487e-15
    vertex 3.3928932460148062 11.242893216179276 3.524958103184872e-16
  endloop
endfacet
facet normal 0.0 2.7755575615628914e-16 -1.0
  outer loop
    vertex 3.3928932460148062 11.242893216179276 3.524958103184872e-16
    vertex 2.000000024567175 9.550000000000002 -1.4099832412739487e-15
    vertex 3.233974623266264 11.449999995698406 3.524958103184872e-16
  endloop
endfacet
facet normal 0.0 2.7755575615628914e-16 -1.0
  outer loop
    vertex 3.233974623266264 11.449999995698406 3.524958103184872e-16
    vertex 2.000000024567175 9.550000000000002 -1.4099832412739487e-15
    vertex 3.1340741998850676 11.691180948900223 3.524958103184872e-16
  endloop
endfacet
facet normal 0.0 2.7755575615628914e-16 -1.0
  outer loop
    vertex 3.1340741998850676 11.691180948900223 3.524958103184872e-16
    vertex 2.000000024567175 9.550000000000002 -1.4099832412739487e-15
    vertex 3.1000000245671755 11.94999999254942 3.524958103184872e-16
  endloop
endfacet
facet normal 0.0 2.7755575615628914e-16 -1.0
  outer loop
    vertex 6.150000024567174 9.550000000000002 -1.4099832412739487e-15
    vertex 3.6000000267179733 11.083974594973798 3.524958103184872e-16
    vertex 3.8411809806641064 10.98407417338954 -1.762479051592436e-15
  endloop
endfacet
facet normal 0.0 2.7755575615628914e-16 -1.0
  outer loop
    vertex 6.150000024567174 9.550000000000002 -1.4099832412739487e-15
    vertex 3.8411809806641064 10.98407417338954 -1.762479051592436e-15
    vertex 4.500000024567176 10.6 -7.049916206369744e-16
  endloop
endfacet
facet normal 0.0 2.7755575615628914e-16 -1.0
  outer loop
    vertex 4.500000024567176 10.6 -7.049916206369744e-16
    vertex 3.8411809806641064 10.98407417338954 -1.762479051592436e-15
    vertex 4.1000000245671755 10.95 -1.762479051592436e-15
  endloop
endfacet
facet normal 0.0 2.7755575615628914e-16 -1.0
  outer loop
    vertex 6.150000024567174 9.550000000000002 -1.4099832412739487e-15
    vertex 4.500000024567176 10.6 -7.049916206369744e-16
    vertex 4.700000024567176 10.6 -7.049916206369744e-16
  endloop
endfacet
facet normal 0.0 2.7755575615628914e-16 -1.0
  outer loop
    vertex 6.150000024567174 9.550000000000002 -1.4099832412739487e-15
    vertex 4.700000024567176 10.6 -7.049916206369744e-16
    vertex 5.1000000245671755 10.95 -1.762479051592436e-15
  endloop
endfacet
facet normal 0.0 2.7755575615628914e-16 -1.0
  outer loop
    vertex 6.150000024567174 9.550000000000002 -1.4099832412739487e-15
    vertex 5.1000000245671755 10.95 -1.762479051592436e-15
    vertex 5.358819068470245 10.98407417338954 -1.762479051592436e-15
  endloop
endfacet
facet normal 0.0 2.7755575615628914e-16 -1.0
  outer loop
    vertex 6.150000024567174 9.550000000000002 -1.4099832412739487e-15
    vertex 5.358819068470245 10.98407417338954 -1.762479051592436e-15
    vertex 5.600000022416378 11.083974594973798 3.524958103184872e-16
  endloop
endfacet
facet normal 0.0 2.7755575615628914e-16 -1.0
  outer loop
    vertex 6.150000024567174 9.550000000000002 -1.4099832412739487e-15
    vertex 5.600000022416378 11.083974594973798 3.524958103184872e-16
    vertex 5.807106803119545 11.242893216179276 3.524958103184872e-16
  endloop
endfacet
facet normal 0.0 2.7755575615628914e-16 -1.0
  outer loop
    vertex 6.150000024567174 9.550000000000002 -1.4099832412739487e-15
    vertex 5.807106803119545 11.242893216179276 3.524958103184872e-16
    vertex 5.966025425868088 11.449999995698406 3.524958103184872e-16
  endloop
endfacet
facet normal 0.0 2.7755575615628914e-16 -1.0
  outer loop
    vertex 6.150000024567174 9.550000000000002 -1.4099832412739487e-15
    vertex 5.966025425868088 11.449999995698406 3.524958103184872e-16
    vertex 6.065925849249283 11.691180948900223 3.524958103184872e-16
  endloop
endfacet
facet normal 0.0 2.7755575615628914e-16 -1.0
  outer loop
    vertex 6.150000024567174 9.550000000000002 -1.4099832412739487e-15
    vertex 6.065925849249283 11.691180948900223 3.524958103184872e-16
    vertex 6.1000000245671755 11.94999999254942 3.524958103184872e-16
  endloop
endfacet
facet normal 0.0 2.7755575615628914e-16 -1.0
  outer loop
    vertex 6.150000024567174 9.550000000000002 -1.4099832412739487e-15
    vertex 6.1000000245671755 11.94999999254942 3.524958103184872e-16
    vertex 6.150000024567174 12.950000000000001 7.049916206369744e-16
  endloop
endfacet
facet normal 0.0 -1.0 -2.7755575615628914e-16
  outer loop
    vertex 19.150000024567174 10.84999999999999 11.500000000000002
    vertex 4.050000024567175 10.849999999999994 6.699999999999999
    vertex 19.150000024567174 10.849999999999993 6.699999999999999
  endloop
endfacet
facet normal 0.0 -1.0 -2.7755575615628914e-16
  outer loop
    vertex 4.050000024567175 10.849999999999994 6.699999999999999
    vertex 19.150000024567174 10.84999999999999 11.500000000000002
    vertex 4.050000024567175 10.849999999999993 11.500000000000002
  endloop
endfacet
facet normal 8.676819946301223e-15 1.0 1.388291191408196e-14
  outer loop
    vertex 20.050000024567176 12.950000000000001 3.0
    vertex 21.550000024567176 12.950000000000001 2.0000000000000004
    vertex 21.050000024567176 12.950000000000001 2.0000000000000004
  endloop
endfacet
facet normal 8.676819946301223e-15 1.0 1.388291191408196e-14
  outer loop
    vertex 21.550000024567176 12.950000000000001 2.0000000000000004
    vertex 20.050000024567176 12.950000000000001 3.0
    vertex 20.050000024567176 12.949999999999987 3.5000000000000004
  endloop
endfacet
facet normal 2.277665235904064e-15 -1.0 3.3622677291917163e-15
  outer loop
    vertex 20.050000024567176 9.55 3.500000000000002
    vertex 21.050000024567176 9.549999999999992 2.0000000000000013
    vertex 21.550000024567176 9.549999999999994 2.0000000000000013
  endloop
endfacet
facet normal 2.277665235904064e-15 -1.0 3.3622677291917163e-15
  outer loop
    vertex 21.050000024567176 9.549999999999992 2.0000000000000013
    vertex 20.050000024567176 9.55 3.500000000000002
    vertex 20.050000024567176 9.549999999999999 3.000000000000001
  endloop
endfacet
facet normal 0.7071067811865476 2.224888330310862e-16 0.7071067811865475
  outer loop
    vertex 21.550000024567176 12.950000000000001 2.0000000000000004
    vertex 20.050000024567176 9.55 3.500000000000002
    vertex 21.550000024567176 9.549999999999994 2.0000000000000013
  endloop
endfacet
facet normal 0.7071067811865476 2.224888330310862e-16 0.7071067811865475
  outer loop
    vertex 20.050000024567176 9.55 3.500000000000002
    vertex 21.550000024567176 12.950000000000001 2.0000000000000004
    vertex 20.050000024567176 12.949999999999987 3.5000000000000004
  endloop
endfacet
facet normal -1.3774573829629471e-17 -1.0 -5.585641248191522e-16
  outer loop
    vertex 23.100000024567176 9.549999999999995 1.9999999999999998
    vertex 18.950000024567178 9.550000000000002 -1.4099832412739487e-15
    vertex 23.100000024567176 9.550000000000002 -1.4099832412739487e-15
  endloop
endfacet
facet normal -1.3774573829629471e-17 -1.0 -5.585641248191522e-16
  outer loop
    vertex 18.950000024567178 9.550000000000002 -1.4099832412739487e-15
    vertex 23.100000024567176 9.549999999999995 1.9999999999999998
    vertex 18.950000024567178 9.549999999999995 1.85
  endloop
endfacet
facet normal -1.3774573829629471e-17 -1.0 -5.585641248191522e-16
  outer loop
    vertex 18.950000024567178 9.549999999999995 1.85
    vertex 23.100000024567176 9.549999999999995 1.9999999999999998
    vertex 6.150000024567174 9.549999999999995 1.85
  endloop
endfacet
facet normal -1.3774573829629471e-17 -1.0 -5.585641248191522e-16
  outer loop
    vertex 6.150000024567174 9.549999999999995 1.85
    vertex 23.100000024567176 9.549999999999995 1.9999999999999998
    vertex 20.050000024567176 9.549999999999997 1.9999999999999991
  endloop
endfacet
facet normal -1.3774573829629471e-17 -1.0 -5.585641248191522e-16
  outer loop
    vertex 20.050000024567176 9.549999999999997 1.9999999999999991
    vertex 23.100000024567176 9.549999999999995 1.9999999999999998
    vertex 21.050000024567176 9.549999999999992 2.0000000000000013
  endloop
endfacet
facet normal -1.3774573829629471e-17 -1.0 -5.585641248191522e-16
  outer loop
    vertex 21.050000024567176 9.549999999999992 2.0000000000000013
    vertex 23.100000024567176 9.549999999999995 1.9999999999999998
    vertex 21.550000024567176 9.549999999999994 2.0000000000000013
  endloop
endfacet
facet normal -1.3774573829629471e-17 -1.0 -5.585641248191522e-16
  outer loop
    vertex 20.050000024567176 9.549999999999999 3.000000000000001
    vertex 3.550000024567175 9.549999999999995 1.9999999999999998
    vertex 20.050000024567176 9.549999999999997 1.9999999999999991
  endloop
endfacet
facet normal -1.3774573829629471e-17 -1.0 -5.585641248191522e-16
  outer loop
    vertex 3.550000024567175 9.549999999999995 1.9999999999999998
    vertex 20.050000024567176 9.549999999999999 3.000000000000001
    vertex 3.550000024567175 9.549999999999999 3.499999999999999
  endloop
endfacet
facet normal -1.3774573829629471e-17 -1.0 -5.585641248191522e-16
  outer loop
    vertex 3.550000024567175 9.549999999999999 3.499999999999999
    vertex 20.050000024567176 9.549999999999999 3.000000000000001
    vertex 4.050000024567175 9.549999999999999 3.499999999999999
  endloop
endfacet
facet normal -1.3774573829629471e-17 -1.0 -5.585641248191522e-16
  outer loop
    vertex 6.150000024567174 9.549999999999995 1.85
    vertex 2.000000024567175 9.550000000000002 -1.4099832412739487e-15
    vertex 6.150000024567174 9.550000000000002 -1.4099832412739487e-15
  endloop
endfacet
facet normal -1.3774573829629471e-17 -1.0 -5.585641248191522e-16
  outer loop
    vertex 2.000000024567175 9.550000000000002 -1.4099832412739487e-15
    vertex 6.150000024567174 9.549999999999995 1.85
    vertex 2.000000024567175 9.549999999999995 1.9999999999999998
  endloop
endfacet
facet normal -1.3774573829629471e-17 -1.0 -5.585641248191522e-16
  outer loop
    vertex 2.000000024567175 9.549999999999995 1.9999999999999998
    vertex 6.150000024567174 9.549999999999995 1.85
    vertex 20.050000024567176 9.549999999999997 1.9999999999999991
  endloop
endfacet
facet normal -1.3774573829629471e-17 -1.0 -5.585641248191522e-16
  outer loop
    vertex 2.000000024567175 9.549999999999995 1.9999999999999998
    vertex 20.050000024567176 9.549999999999997 1.9999999999999991
    vertex 3.550000024567175 9.549999999999995 1.9999999999999998
  endloop
endfacet
facet normal -1.3774573829629471e-17 -1.0 -5.585641248191522e-16
  outer loop
    vertex 20.050000024567176 9.549999999999999 3.000000000000001
    vertex 19.150000024567174 9.550000000000002 3.5000000000000004
    vertex 4.050000024567175 9.549999999999999 3.499999999999999
  endloop
endfacet
facet normal -1.3774573829629471e-17 -1.0 -5.585641248191522e-16
  outer loop
    vertex 19.150000024567174 9.550000000000002 3.5000000000000004
    vertex 20.050000024567176 9.549999999999999 3.000000000000001
    vertex 20.050000024567176 9.55 3.500000000000002
  endloop
endfacet
facet normal -1.3774573829629471e-17 -1.0 -5.585641248191522e-16
  outer loop
    vertex 19.150000024567174 9.550000000000002 3.5000000000000004
    vertex 4.050000024567175 9.549999999999997 3.900000000000001
    vertex 4.050000024567175 9.549999999999999 3.499999999999999
  endloop
endfacet
facet normal -1.3774573829629471e-17 -1.0 -5.585641248191522e-16
  outer loop
    vertex 4.050000024567175 9.549999999999997 3.900000000000001
    vertex 19.150000024567174 9.550000000000002 3.5000000000000004
    vertex 19.150000024567174 9.549999999999999 4.300000000000001
  endloop
endfacet
facet normal -1.3774573829629471e-17 -1.0 -5.585641248191522e-16
  outer loop
    vertex 4.050000024567175 9.549999999999997 3.900000000000001
    vertex 19.150000024567174 9.549999999999999 4.300000000000001
    vertex 4.050000024567175 9.549999999999997 6.6999999999999975
  endloop
endfacet
facet normal -1.3774573829629471e-17 -1.0 -5.585641248191522e-16
  outer loop
    vertex 4.050000024567175 9.549999999999997 6.6999999999999975
    vertex 19.150000024567174 9.549999999999999 4.300000000000001
    vertex 19.150000024567174 9.549999999999997 6.6999999999999975
  endloop
endfacet
facet normal -4.229949723821837e-15 -1.0 -2.8199664825478935e-15
  outer loop
    vertex 20.050000024567176 9.549999999999999 3.000000000000001
    vertex 20.050000024567176 9.549999999999997 1.9999999999999991
    vertex 21.050000024567176 9.549999999999992 2.0000000000000013
  endloop
endfacet
facet normal 1.0 -6.522098766032161e-16 2.059514566633343e-16
  outer loop
    vertex 19.150000024567174 9.549999999999999 4.300000000000001
    vertex 19.150000024567174 10.849999999999993 6.699999999999999
    vertex 19.150000024567174 9.549999999999997 6.6999999999999975
  endloop
endfacet
facet normal 1.0 -6.522098766032161e-16 2.059514566633343e-16
  outer loop
    vertex 19.150000024567174 10.849999999999993 6.699999999999999
    vertex 19.150000024567174 9.549999999999999 4.300000000000001
    vertex 19.15000002456718 12.949999999999996 4.300000000000012
  endloop
endfacet
facet normal 1.0 -6.522098766032161e-16 2.059514566633343e-16
  outer loop
    vertex 19.150000024567174 10.849999999999993 6.699999999999999
    vertex 19.150000024567174 12.95 11.500000000000002
    vertex 19.150000024567174 10.84999999999999 11.500000000000002
  endloop
endfacet
facet normal 1.0 -6.522098766032161e-16 2.059514566633343e-16
  outer loop
    vertex 19.150000024567174 12.95 11.500000000000002
    vertex 19.150000024567174 10.849999999999993 6.699999999999999
    vertex 19.15000002456718 12.949999999999996 4.300000000000012
  endloop
endfacet
facet normal 0.0 -1.0 1.8799776550319318e-15
  outer loop
    vertex 3.550000024567175 9.549999999999999 3.499999999999999
    vertex 2.000000024567175 9.549999999999995 1.9999999999999998
    vertex 3.550000024567175 9.549999999999995 1.9999999999999998
  endloop
endfacet
facet normal 0.0 1.0 0.0
  outer loop
    vertex 3.550000024567175 12.949999999999994 3.5000000000000004
    vertex 3.550000024567175 12.950000000000001 2.0000000000000004
    vertex 2.000000024567175 12.950000000000001 2.0000000000000004
  endloop
endfacet
facet normal -0.6954214275160556 -2.3901011243720647e-16 0.7186021417665908
  outer loop
    vertex 3.550000024567175 9.549999999999999 3.499999999999999
    vertex 2.000000024567175 12.950000000000001 2.0000000000000004
    vertex 2.000000024567175 9.549999999999995 1.9999999999999998
  endloop
endfacet
facet normal -0.6954214275160556 -2.3901011243720647e-16 0.7186021417665908
  outer loop
    vertex 2.000000024567175 12.950000000000001 2.0000000000000004
    vertex 3.550000024567175 9.549999999999999 3.499999999999999
    vertex 3.550000024567175 12.949999999999994 3.5000000000000004
  endloop
endfacet
facet normal -1.115811779248249e-18 -0.09081813614015351 -0.9958674942722192
  outer loop
    vertex 5.1000000245671755 10.950000000000003 -3.9999999999999996
    vertex 4.6000000245671755 10.75 -3.9817609999999997
    vertex 4.1000000245671755 10.950000000000003 -3.9999999999999996
  endloop
endfacet
facet normal -1.1212483520156633e-43 1.4099832412739318e-14 -1.0
  outer loop
    vertex 21.000000039468336 10.950000000000003 -3.9999999999999996
    vertex 20.500000024567175 10.75 -4.000000000000003
    vertex 20.000000009666014 10.950000000000003 -3.9999999999999996
  endloop
endfacet
facet normal 4.242077804912834e-18 -0.05330653964047095 -0.9985781956519774
  outer loop
    vertex 4.6000000245671755 10.75 -3.9817609999999997
    vertex 4.500000024567176 10.6 -3.981761000000002
    vertex 4.1000000245671755 10.950000000000003 -3.9999999999999996
  endloop
endfacet
facet normal 4.242077804912834e-18 -0.05330653964047095 -0.9985781956519774
  outer loop
    vertex 4.500000024567176 10.6 -3.981761000000002
    vertex 4.6000000245671755 10.75 -3.9817609999999997
    vertex 4.700000024567176 10.6 -3.981761000000002
  endloop
endfacet
facet normal 4.242077804912834e-18 -0.05330653964047095 -0.9985781956519774
  outer loop
    vertex 4.700000024567176 10.6 -3.981761000000002
    vertex 4.6000000245671755 10.75 -3.9817609999999997
    vertex 5.1000000245671755 10.950000000000003 -3.9999999999999996
  endloop
endfacet
facet normal 0.658504607868519 -0.7525766947068773 -2.6649759961604634e-16
  outer loop
    vertex 5.1000000245671755 10.95 -1.762479051592436e-15
    vertex 4.700000024567176 10.6 -3.981761000000002
    vertex 5.1000000245671755 10.950000000000003 -3.9999999999999996
  endloop
endfacet
facet normal 0.658504607868519 -0.7525766947068773 -2.6649759961604634e-16
  outer loop
    vertex 4.700000024567176 10.6 -3.981761000000002
    vertex 5.1000000245671755 10.95 -1.762479051592436e-15
    vertex 4.700000024567176 10.6 -7.049916206369744e-16
  endloop
endfacet
facet normal 0.0 -1.0 -1.1508409401602233e-16
  outer loop
    vertex 4.700000024567176 10.6 -7.049916206369744e-16
    vertex 4.500000024567176 10.6 -3.981761000000002
    vertex 4.700000024567176 10.6 -3.981761000000002
  endloop
endfacet
facet normal 0.0 -1.0 -1.1508409401602233e-16
  outer loop
    vertex 4.500000024567176 10.6 -3.981761000000002
    vertex 4.700000024567176 10.6 -7.049916206369744e-16
    vertex 4.500000024567176 10.6 -7.049916206369744e-16
  endloop
endfacet
facet normal -0.6585046078685183 -0.7525766947068777 -2.668280525724561e-16
  outer loop
    vertex 4.500000024567176 10.6 -3.981761000000002
    vertex 4.1000000245671755 10.95 -1.762479051592436e-15
    vertex 4.1000000245671755 10.950000000000003 -3.9999999999999996
  endloop
endfacet
facet normal -0.6585046078685183 -0.7525766947068777 -2.668280525724561e-16
  outer loop
    vertex 4.1000000245671755 10.95 -1.762479051592436e-15
    vertex 4.500000024567176 10.6 -3.981761000000002
    vertex 4.500000024567176 10.6 -7.049916206369744e-16
  endloop
endfacet
facet normal 1.8230760796835664e-32 2.407288460711623e-15 -1.0
  outer loop
    vertex 20.500000024567175 10.75 -4.000000000000003
    vertex 20.400000024567174 10.6 -4.0
    vertex 20.000000009666014 10.950000000000003 -3.9999999999999996
  endloop
endfacet
facet normal 1.8230760796835664e-32 2.407288460711623e-15 -1.0
  outer loop
    vertex 20.400000024567174 10.6 -4.0
    vertex 20.500000024567175 10.75 -4.000000000000003
    vertex 20.600000024567176 10.6 -4.0
  endloop
endfacet
facet normal 1.8230760796835664e-32 2.407288460711623e-15 -1.0
  outer loop
    vertex 20.600000024567176 10.6 -4.0
    vertex 20.500000024567175 10.75 -4.000000000000003
    vertex 21.000000039468336 10.950000000000003 -3.9999999999999996
  endloop
endfacet
facet normal 0.6585045939747369 -0.7525767068639363 -2.656752064135391e-16
  outer loop
    vertex 21.000000039468336 10.950000000000003 -3.9999999999999996
    vertex 20.600000024567176 10.6 -7.049916206369744e-16
    vertex 20.600000024567176 10.6 -4.0
  endloop
endfacet
facet normal 0.6585045939747369 -0.7525767068639363 -2.656752064135391e-16
  outer loop
    vertex 20.600000024567176 10.6 -7.049916206369744e-16
    vertex 21.000000039468336 10.950000000000003 -3.9999999999999996
    vertex 21.000000039468336 10.95 -1.762479051592436e-15
  endloop
endfacet
facet normal 0.0 -1.0 -1.1508409401602188e-16
  outer loop
    vertex 20.600000024567176 10.6 -7.049916206369744e-16
    vertex 20.400000024567174 10.6 -4.0
    vertex 20.600000024567176 10.6 -4.0
  endloop
endfacet
facet normal 0.0 -1.0 -1.1508409401602188e-16
  outer loop
    vertex 20.400000024567174 10.6 -4.0
    vertex 20.600000024567176 10.6 -7.049916206369744e-16
    vertex 20.400000024567174 10.6 -7.049916206369744e-16
  endloop
endfacet
facet normal -0.6585045939747369 -0.7525767068639363 -2.6567520641353913e-16
  outer loop
    vertex 20.400000024567174 10.6 -7.049916206369744e-16
    vertex 20.000000009666014 10.950000000000003 -3.9999999999999996
    vertex 20.400000024567174 10.6 -4.0
  endloop
endfacet
facet normal -0.6585045939747369 -0.7525767068639363 -2.6567520641353913e-16
  outer loop
    vertex 20.000000009666014 10.950000000000003 -3.9999999999999996
    vertex 20.400000024567174 10.6 -7.049916206369744e-16
    vertex 20.000000009666014 10.95 -1.762479051592436e-15
  endloop
endfacet
facet normal -7.833240229299703e-16 2.073504766579344e-16 1.0
  outer loop
    vertex 20.050000024567176 9.55 3.500000000000002
    vertex 19.150000024567174 12.949999999999987 3.5000000000000004
    vertex 19.150000024567174 9.550000000000002 3.5000000000000004
  endloop
endfacet
facet normal -7.833240229299703e-16 2.073504766579344e-16 1.0
  outer loop
    vertex 19.150000024567174 12.949999999999987 3.5000000000000004
    vertex 20.050000024567176 9.55 3.500000000000002
    vertex 20.050000024567176 12.949999999999987 3.5000000000000004
  endloop
endfacet
facet normal -1.0 0.0 0.0
  outer loop
    vertex 4.050000024567175 12.95 11.500000000000002
    vertex 4.050000024567175 10.849999999999994 6.699999999999999
    vertex 4.050000024567175 10.849999999999993 11.500000000000002
  endloop
endfacet
facet normal -1.0 0.0 0.0
  outer loop
    vertex 4.050000024567175 10.849999999999994 6.699999999999999
    vertex 4.050000024567175 12.95 11.500000000000002
    vertex 4.050000024567175 12.949999999999994 3.900000000000001
  endloop
endfacet
facet normal -1.0 0.0 0.0
  outer loop
    vertex 4.050000024567175 10.849999999999994 6.699999999999999
    vertex 4.050000024567175 9.549999999999997 3.900000000000001
    vertex 4.050000024567175 9.549999999999997 6.6999999999999975
  endloop
endfacet
facet normal -1.0 0.0 0.0
  outer loop
    vertex 4.050000024567175 9.549999999999997 3.900000000000001
    vertex 4.050000024567175 10.849999999999994 6.699999999999999
    vertex 4.050000024567175 12.949999999999994 3.900000000000001
  endloop
endfacet
facet normal 3.297789467197916e-45 -4.147009533158676e-16 1.0
  outer loop
    vertex 4.050000024567175 9.549999999999999 3.499999999999999
    vertex 3.550000024567175 12.949999999999994 3.5000000000000004
    vertex 3.550000024567175 9.549999999999999 3.499999999999999
  endloop
endfacet
facet normal 3.297789467197916e-45 -4.147009533158676e-16 1.0
  outer loop
    vertex 3.550000024567175 12.949999999999994 3.5000000000000004
    vertex 4.050000024567175 9.549999999999999 3.499999999999999
    vertex 4.050000024567175 12.949999999999994 3.5000000000000004
  endloop
endfacet
facet normal 0.0 1.0 0.0
  outer loop
    vertex 4.050000024567175 12.949999999999994 3.900000000000001
    vertex 4.050000024567175 12.949999999999994 3.5000000000000004
    vertex 3.550000024567175 12.949999999999994 3.5000000000000004
  endloop
endfacet
facet normal 0.0 -1.0 -7.04991620636972e-15
  outer loop
    vertex 4.050000024567175 9.549999999999997 3.900000000000001
    vertex 3.550000024567175 9.549999999999999 3.499999999999999
    vertex 4.050000024567175 9.549999999999999 3.499999999999999
  endloop
endfacet
facet normal -0.6246950475544252 -1.6537352842657918e-16 0.7808688094430298
  outer loop
    vertex 4.050000024567175 9.549999999999997 3.900000000000001
    vertex 3.550000024567175 12.949999999999994 3.5000000000000004
    vertex 3.550000024567175 9.549999999999999 3.499999999999999
  endloop
endfacet
facet normal -0.6246950475544252 -1.6537352842657918e-16 0.7808688094430298
  outer loop
    vertex 3.550000024567175 12.949999999999994 3.5000000000000004
    vertex 4.050000024567175 9.549999999999997 3.900000000000001
    vertex 4.050000024567175 12.949999999999994 3.900000000000001
  endloop
endfacet
facet normal -1.0 0.0 0.0
  outer loop
    vertex 4.050000024567175 12.949999999999994 3.900000000000001
    vertex 4.050000024567175 9.549999999999999 3.499999999999999
    vertex 4.050000024567175 9.549999999999997 3.900000000000001
  endloop
endfacet
facet normal -1.0 0.0 0.0
  outer loop
    vertex 4.050000024567175 9.549999999999999 3.499999999999999
    vertex 4.050000024567175 12.949999999999994 3.900000000000001
    vertex 4.050000024567175 12.949999999999994 3.5000000000000004
  endloop
endfacet
facet normal -1.5666480458599356e-15 -1.0 -3.5249581031848724e-15
  outer loop
    vertex 19.150000024567174 9.549999999999999 4.300000000000001
    vertex 19.150000024567174 9.550000000000002 3.5000000000000004
    vertex 20.050000024567176 9.55 3.500000000000002
  endloop
endfacet
facet normal 9.060697952360947e-31 1.0 -1.0574874309554457e-14
  outer loop
    vertex 19.15000002456718 12.949999999999996 4.300000000000012
    vertex 20.050000024567176 12.949999999999987 3.5000000000000004
    vertex 19.150000024567174 12.949999999999987 3.5000000000000004
  endloop
endfacet
facet normal 0.6643638388299228 -1.7255842256605367e-15 0.747409318683657
  outer loop
    vertex 20.050000024567176 9.55 3.500000000000002
    vertex 19.15000002456718 12.949999999999996 4.300000000000012
    vertex 19.150000024567174 9.549999999999999 4.300000000000001
  endloop
endfacet
facet normal 0.6643638388299228 -1.7255842256605367e-15 0.747409318683657
  outer loop
    vertex 19.15000002456718 12.949999999999996 4.300000000000012
    vertex 20.050000024567176 9.55 3.500000000000002
    vertex 20.050000024567176 12.949999999999987 3.5000000000000004
  endloop
endfacet
facet normal 1.0 -8.294019066317313e-16 -3.5249581031848693e-15
  outer loop
    vertex 19.150000024567174 9.550000000000002 3.5000000000000004
    vertex 19.15000002456718 12.949999999999996 4.300000000000012
    vertex 19.150000024567174 9.549999999999999 4.300000000000001
  endloop
endfacet
facet normal 1.0 -8.294019066317313e-16 -3.5249581031848693e-15
  outer loop
    vertex 19.15000002456718 12.949999999999996 4.300000000000012
    vertex 19.150000024567174 9.550000000000002 3.5000000000000004
    vertex 19.150000024567174 12.949999999999987 3.5000000000000004
  endloop
endfacet
endsolid Keyboard_LEDs
