%TF.GenerationSoftware,KiCad,Pcbnew,9.0.1*%
%TF.CreationDate,2026-01-03T11:05:00+01:00*%
%TF.ProjectId,A500KBPlate,41353030-4b42-4506-9c61-74652e6b6963,rev?*%
%TF.SameCoordinates,Original*%
%TF.FileFunction,Drillmap*%
%TF.FilePolarity,Positive*%
%FSLAX45Y45*%
G04 Gerber Fmt 4.5, Leading zero omitted, Abs format (unit mm)*
G04 Created by KiCad (PCBNEW 9.0.1) date 2026-01-03 11:05:00*
%MOMM*%
%LPD*%
G01*
G04 APERTURE LIST*
%ADD10C,0.050000*%
%ADD11C,0.120000*%
%ADD12C,0.100000*%
%ADD13C,0.200000*%
%ADD14C,0.250000*%
%ADD15C,0.400000*%
G04 APERTURE END LIST*
D10*
X2540000Y-23422000D02*
X2603500Y-23422000D01*
X2540000Y-36068000D02*
X2540000Y-23422000D01*
X2603500Y-23422000D02*
X30289500Y-23422000D01*
X47371000Y-26279500D02*
X47371000Y-36068000D01*
X30289500Y-26279500D02*
X47371000Y-26279500D01*
X30289500Y-23422000D02*
X30289500Y-26279500D01*
X47371000Y-36068000D02*
X2540000Y-36068000D01*
D11*
X2844840Y-23921760D02*
X4246840Y-23921760D01*
X2844840Y-25323760D02*
X2844840Y-23921760D01*
X4246840Y-23921760D02*
X4246840Y-25323760D01*
X4246840Y-25323760D02*
X2844840Y-25323760D01*
X3303360Y-26747560D02*
X3303360Y-26967560D01*
X3303360Y-26967560D02*
X3313360Y-26967560D01*
X3303360Y-27967560D02*
X3303360Y-28187560D01*
X3303360Y-27967560D02*
X3313360Y-27967560D01*
X3313360Y-26967560D02*
X3313360Y-27167560D01*
X3313360Y-27167560D02*
X3323360Y-27167560D01*
X3313360Y-27767560D02*
X3313360Y-27967560D01*
X3313360Y-27767560D02*
X3323360Y-27767560D01*
X3323360Y-27767560D02*
X3323360Y-27167560D01*
X3523360Y-26747560D02*
X3303360Y-26747560D01*
X3523360Y-26747560D02*
X3523360Y-26757560D01*
X3523360Y-28177560D02*
X3523360Y-28187560D01*
X3523360Y-28187560D02*
X3303360Y-28187560D01*
X3723360Y-26757560D02*
X3523360Y-26757560D01*
X3723360Y-26757560D02*
X3723360Y-26767560D01*
X3723360Y-26767560D02*
X4323360Y-26767560D01*
X3723360Y-28167560D02*
X3723360Y-28177560D01*
X3723360Y-28177560D02*
X3523360Y-28177560D01*
X4323360Y-26757560D02*
X4323360Y-26767560D01*
X4323360Y-28167560D02*
X3723360Y-28167560D01*
X4323360Y-28167560D02*
X4323360Y-28177560D01*
X4523360Y-26747560D02*
X4523360Y-26757560D01*
X4523360Y-26757560D02*
X4323360Y-26757560D01*
X4523360Y-28177560D02*
X4323360Y-28177560D01*
X4523360Y-28177560D02*
X4523360Y-28187560D01*
X4723360Y-27167560D02*
X4723360Y-27767560D01*
X4723360Y-27167560D02*
X4733360Y-27167560D01*
X4723360Y-27767560D02*
X4733360Y-27767560D01*
X4733360Y-26967560D02*
X4733360Y-27167560D01*
X4733360Y-26967560D02*
X4743360Y-26967560D01*
X4733360Y-27767560D02*
X4733360Y-27967560D01*
X4733360Y-27967560D02*
X4743360Y-27967560D01*
X4743360Y-26747560D02*
X4523360Y-26747560D01*
X4743360Y-26747560D02*
X4743360Y-26967560D01*
X4743360Y-27967560D02*
X4743360Y-28187560D01*
X4743360Y-28187560D02*
X4523360Y-28187560D01*
X3077480Y-30574720D02*
X4487480Y-30574720D01*
X3077480Y-31984720D02*
X3077480Y-30574720D01*
X4487480Y-30574720D02*
X4487480Y-31984720D01*
X4487480Y-31984720D02*
X3077480Y-31984720D01*
X4504120Y-34394880D02*
X5914120Y-34394880D01*
X4504120Y-35804880D02*
X4504120Y-34394880D01*
X5914120Y-34394880D02*
X5914120Y-35804880D01*
X5914120Y-35804880D02*
X4504120Y-35804880D01*
X5709960Y-26766560D02*
X7111960Y-26766560D01*
X5709960Y-28168560D02*
X5709960Y-26766560D01*
X7111960Y-26766560D02*
X7111960Y-28168560D01*
X7111960Y-28168560D02*
X5709960Y-28168560D01*
X5225240Y-30578720D02*
X6627240Y-30578720D01*
X5225240Y-31980720D02*
X5225240Y-30578720D01*
X6627240Y-30578720D02*
X6627240Y-31980720D01*
X6627240Y-31980720D02*
X5225240Y-31980720D01*
X6884520Y-34392720D02*
X8294520Y-34392720D01*
X6884520Y-35802720D02*
X6884520Y-34392720D01*
X8294520Y-34392720D02*
X8294520Y-35802720D01*
X8294520Y-35802720D02*
X6884520Y-35802720D01*
X8322160Y-23917760D02*
X9732160Y-23917760D01*
X8322160Y-25327760D02*
X8322160Y-23917760D01*
X9732160Y-23917760D02*
X9732160Y-25327760D01*
X9732160Y-25327760D02*
X8322160Y-25327760D01*
X7614960Y-26766560D02*
X9016960Y-26766560D01*
X7614960Y-28168560D02*
X7614960Y-26766560D01*
X9016960Y-26766560D02*
X9016960Y-28168560D01*
X9016960Y-28168560D02*
X7614960Y-28168560D01*
X7132360Y-30581640D02*
X8534360Y-30581640D01*
X7132360Y-31983640D02*
X7132360Y-30581640D01*
X8534360Y-30581640D02*
X8534360Y-31983640D01*
X8534360Y-31983640D02*
X7132360Y-31983640D01*
X8082320Y-32486640D02*
X9484320Y-32486640D01*
X8082320Y-33888640D02*
X8082320Y-32486640D01*
X9484320Y-32486640D02*
X9484320Y-33888640D01*
X9484320Y-33888640D02*
X8082320Y-33888640D01*
X10704680Y-23917760D02*
X12114680Y-23917760D01*
X10704680Y-25327760D02*
X10704680Y-23917760D01*
X12114680Y-23917760D02*
X12114680Y-25327760D01*
X12114680Y-25327760D02*
X10704680Y-25327760D01*
X9519960Y-26766560D02*
X10921960Y-26766560D01*
X9519960Y-28168560D02*
X9519960Y-26766560D01*
X10921960Y-26766560D02*
X10921960Y-28168560D01*
X10921960Y-28168560D02*
X9519960Y-28168560D01*
X10464840Y-28674100D02*
X11866840Y-28674100D01*
X10464840Y-30076100D02*
X10464840Y-28674100D01*
X11866840Y-28674100D02*
X11866840Y-30076100D01*
X11866840Y-30076100D02*
X10464840Y-30076100D01*
X9037360Y-30581640D02*
X10439360Y-30581640D01*
X9037360Y-31983640D02*
X9037360Y-30581640D01*
X10439360Y-30581640D02*
X10439360Y-31983640D01*
X10439360Y-31983640D02*
X9037360Y-31983640D01*
X9987320Y-32486640D02*
X11389320Y-32486640D01*
X9987320Y-33888640D02*
X9987320Y-32486640D01*
X11389320Y-32486640D02*
X11389320Y-33888640D01*
X11389320Y-33888640D02*
X9987320Y-33888640D01*
X13087200Y-23917760D02*
X14497200Y-23917760D01*
X13087200Y-25327760D02*
X13087200Y-23917760D01*
X14497200Y-23917760D02*
X14497200Y-25327760D01*
X14497200Y-25327760D02*
X13087200Y-25327760D01*
X11424960Y-26766560D02*
X12826960Y-26766560D01*
X11424960Y-28168560D02*
X11424960Y-26766560D01*
X12826960Y-26766560D02*
X12826960Y-28168560D01*
X12826960Y-28168560D02*
X11424960Y-28168560D01*
X12369840Y-28676640D02*
X13771840Y-28676640D01*
X12369840Y-30078640D02*
X12369840Y-28676640D01*
X13771840Y-28676640D02*
X13771840Y-30078640D01*
X13771840Y-30078640D02*
X12369840Y-30078640D01*
X10944480Y-30583800D02*
X12346480Y-30583800D01*
X10944480Y-31985800D02*
X10944480Y-30583800D01*
X12346480Y-30583800D02*
X12346480Y-31985800D01*
X12346480Y-31985800D02*
X10944480Y-31985800D01*
X11892320Y-32486640D02*
X13294320Y-32486640D01*
X11892320Y-33888640D02*
X11892320Y-32486640D01*
X13294320Y-32486640D02*
X13294320Y-33888640D01*
X13294320Y-33888640D02*
X11892320Y-33888640D01*
X15469720Y-23917760D02*
X16879720Y-23917760D01*
X15469720Y-25327760D02*
X15469720Y-23917760D01*
X16879720Y-23917760D02*
X16879720Y-25327760D01*
X16879720Y-25327760D02*
X15469720Y-25327760D01*
X14274840Y-28676640D02*
X15676840Y-28676640D01*
X14274840Y-30078640D02*
X14274840Y-28676640D01*
X15676840Y-28676640D02*
X15676840Y-30078640D01*
X15676840Y-30078640D02*
X14274840Y-30078640D01*
X13797320Y-32486640D02*
X15199320Y-32486640D01*
X13797320Y-33888640D02*
X13797320Y-32486640D01*
X15199320Y-32486640D02*
X15199320Y-33888640D01*
X15199320Y-33888640D02*
X13797320Y-33888640D01*
X18797120Y-23917760D02*
X20207120Y-23917760D01*
X18797120Y-25327760D02*
X18797120Y-23917760D01*
X20207120Y-23917760D02*
X20207120Y-25327760D01*
X20207120Y-25327760D02*
X18797120Y-25327760D01*
X15240040Y-26771640D02*
X16642040Y-26771640D01*
X15240040Y-28173640D02*
X15240040Y-26771640D01*
X16642040Y-26771640D02*
X16642040Y-28173640D01*
X16642040Y-28173640D02*
X15240040Y-28173640D01*
X14755320Y-30583800D02*
X16157320Y-30583800D01*
X14755320Y-31985800D02*
X14755320Y-30583800D01*
X16157320Y-30583800D02*
X16157320Y-31985800D01*
X16157320Y-31985800D02*
X14755320Y-31985800D01*
X15707400Y-32486640D02*
X17109400Y-32486640D01*
X15707400Y-33888640D02*
X15707400Y-32486640D01*
X17109400Y-32486640D02*
X17109400Y-33888640D01*
X17109400Y-33888640D02*
X15707400Y-33888640D01*
X21179640Y-23917760D02*
X22589640Y-23917760D01*
X21179640Y-25327760D02*
X21179640Y-23917760D01*
X22589640Y-23917760D02*
X22589640Y-25327760D01*
X22589640Y-25327760D02*
X21179640Y-25327760D01*
X17145040Y-26771640D02*
X18547040Y-26771640D01*
X17145040Y-28173640D02*
X17145040Y-26771640D01*
X18547040Y-26771640D02*
X18547040Y-28173640D01*
X18547040Y-28173640D02*
X17145040Y-28173640D01*
X18095000Y-28676640D02*
X19497000Y-28676640D01*
X18095000Y-30078640D02*
X18095000Y-28676640D01*
X19497000Y-28676640D02*
X19497000Y-30078640D01*
X19497000Y-30078640D02*
X18095000Y-30078640D01*
X16662440Y-30581640D02*
X18064440Y-30581640D01*
X16662440Y-31983640D02*
X16662440Y-30581640D01*
X18064440Y-30581640D02*
X18064440Y-31983640D01*
X18064440Y-31983640D02*
X16662440Y-31983640D01*
X17610280Y-32486640D02*
X19012280Y-32486640D01*
X17610280Y-33888640D02*
X17610280Y-32486640D01*
X19012280Y-32486640D02*
X19012280Y-33888640D01*
X19012280Y-33888640D02*
X17610280Y-33888640D01*
X19050040Y-26771640D02*
X20452040Y-26771640D01*
X19050040Y-28173640D02*
X19050040Y-26771640D01*
X20452040Y-26771640D02*
X20452040Y-28173640D01*
X20452040Y-28173640D02*
X19050040Y-28173640D01*
X20000000Y-28676640D02*
X21402000Y-28676640D01*
X20000000Y-30078640D02*
X20000000Y-28676640D01*
X21402000Y-28676640D02*
X21402000Y-30078640D01*
X21402000Y-30078640D02*
X20000000Y-30078640D01*
X18567440Y-30581640D02*
X19969440Y-30581640D01*
X18567440Y-31983640D02*
X18567440Y-30581640D01*
X19969440Y-30581640D02*
X19969440Y-31983640D01*
X19969440Y-31983640D02*
X18567440Y-31983640D01*
X25946800Y-23919920D02*
X27356800Y-23919920D01*
X25946800Y-25329920D02*
X25946800Y-23919920D01*
X27356800Y-23919920D02*
X27356800Y-25329920D01*
X27356800Y-25329920D02*
X25946800Y-25329920D01*
X20960120Y-26771640D02*
X22362120Y-26771640D01*
X20960120Y-28173640D02*
X20960120Y-26771640D01*
X22362120Y-26771640D02*
X22362120Y-28173640D01*
X22362120Y-28173640D02*
X20960120Y-28173640D01*
X21910080Y-28676640D02*
X23312080Y-28676640D01*
X21910080Y-30078640D02*
X21910080Y-28676640D01*
X23312080Y-28676640D02*
X23312080Y-30078640D01*
X23312080Y-30078640D02*
X21910080Y-30078640D01*
X20477520Y-30581640D02*
X21879520Y-30581640D01*
X20477520Y-31983640D02*
X20477520Y-30581640D01*
X21879520Y-30581640D02*
X21879520Y-31983640D01*
X21879520Y-31983640D02*
X20477520Y-31983640D01*
X21417320Y-32486640D02*
X22819320Y-32486640D01*
X21417320Y-33888640D02*
X21417320Y-32486640D01*
X22819320Y-32486640D02*
X22819320Y-33888640D01*
X22819320Y-33888640D02*
X21417320Y-33888640D01*
X28327200Y-23917760D02*
X29737200Y-23917760D01*
X28327200Y-25327760D02*
X28327200Y-23917760D01*
X29737200Y-23917760D02*
X29737200Y-25327760D01*
X29737200Y-25327760D02*
X28327200Y-25327760D01*
X22865120Y-26771640D02*
X24267120Y-26771640D01*
X22865120Y-28173640D02*
X22865120Y-26771640D01*
X24267120Y-26771640D02*
X24267120Y-28173640D01*
X24267120Y-28173640D02*
X22865120Y-28173640D01*
X23815080Y-28676640D02*
X25217080Y-28676640D01*
X23815080Y-30078640D02*
X23815080Y-28676640D01*
X25217080Y-28676640D02*
X25217080Y-30078640D01*
X25217080Y-30078640D02*
X23815080Y-30078640D01*
X22387600Y-30581640D02*
X23789600Y-30581640D01*
X22387600Y-31983640D02*
X22387600Y-30581640D01*
X23789600Y-30581640D02*
X23789600Y-31983640D01*
X23789600Y-31983640D02*
X22387600Y-31983640D01*
X23322320Y-32486640D02*
X24724320Y-32486640D01*
X23322320Y-33888640D02*
X23322320Y-32486640D01*
X24724320Y-32486640D02*
X24724320Y-33888640D01*
X24724320Y-33888640D02*
X23322320Y-33888640D01*
X26425160Y-34389800D02*
X27835160Y-34389800D01*
X26425160Y-35799800D02*
X26425160Y-34389800D01*
X27835160Y-34389800D02*
X27835160Y-35799800D01*
X27835160Y-35799800D02*
X26425160Y-35799800D01*
X24770120Y-26771640D02*
X26172120Y-26771640D01*
X24770120Y-28173640D02*
X24770120Y-26771640D01*
X26172120Y-26771640D02*
X26172120Y-28173640D01*
X26172120Y-28173640D02*
X24770120Y-28173640D01*
X25720080Y-28676640D02*
X27122080Y-28676640D01*
X25720080Y-30078640D02*
X25720080Y-28676640D01*
X27122080Y-28676640D02*
X27122080Y-30078640D01*
X27122080Y-30078640D02*
X25720080Y-30078640D01*
X24292600Y-30581640D02*
X25694600Y-30581640D01*
X24292600Y-31983640D02*
X24292600Y-30581640D01*
X25694600Y-30581640D02*
X25694600Y-31983640D01*
X25694600Y-31983640D02*
X24292600Y-31983640D01*
X25227320Y-32486640D02*
X26629320Y-32486640D01*
X25227320Y-33888640D02*
X25227320Y-32486640D01*
X26629320Y-32486640D02*
X26629320Y-33888640D01*
X26629320Y-33888640D02*
X25227320Y-33888640D01*
X28812760Y-34389800D02*
X30222760Y-34389800D01*
X28812760Y-35799800D02*
X28812760Y-34389800D01*
X30222760Y-34389800D02*
X30222760Y-35799800D01*
X30222760Y-35799800D02*
X28812760Y-35799800D01*
X26675120Y-26771640D02*
X28077120Y-26771640D01*
X26675120Y-28173640D02*
X26675120Y-26771640D01*
X28077120Y-26771640D02*
X28077120Y-28173640D01*
X28077120Y-28173640D02*
X26675120Y-28173640D01*
X26197600Y-30581640D02*
X27599600Y-30581640D01*
X26197600Y-31983640D02*
X26197600Y-30581640D01*
X27599600Y-30581640D02*
X27599600Y-31983640D01*
X27599600Y-31983640D02*
X26197600Y-31983640D01*
X27889560Y-32957640D02*
X27889560Y-33237640D01*
X27927060Y-32634640D02*
X27927060Y-32957640D01*
X27927060Y-32957640D02*
X27889560Y-32957640D01*
X27927060Y-33237640D02*
X27889560Y-33237640D01*
X27927060Y-33864640D02*
X27927060Y-33237640D01*
X28159560Y-33864640D02*
X27927060Y-33864640D01*
X28159560Y-33984640D02*
X28159560Y-33864640D01*
X28459560Y-33984640D02*
X28159560Y-33984640D01*
X28459560Y-33984640D02*
X28459560Y-33864640D01*
X28642060Y-32634640D02*
X27927060Y-32634640D01*
X28642060Y-32714640D02*
X28642060Y-32634640D01*
X28642060Y-33784640D02*
X28799560Y-33784640D01*
X28642060Y-33864640D02*
X28459560Y-33864640D01*
X28642060Y-33864640D02*
X28642060Y-33784640D01*
X28799560Y-32487640D02*
X30199560Y-32487640D01*
X28799560Y-32714640D02*
X28642060Y-32714640D01*
X28799560Y-32714640D02*
X28799560Y-32487640D01*
X28799560Y-33784640D02*
X28799560Y-33887640D01*
X30199560Y-32714640D02*
X30199560Y-32487640D01*
X30199560Y-33784640D02*
X30199560Y-33887640D01*
X30199560Y-33887640D02*
X28799560Y-33887640D01*
X30357060Y-32634640D02*
X31072060Y-32634640D01*
X30357060Y-32714640D02*
X30199560Y-32714640D01*
X30357060Y-32714640D02*
X30357060Y-32634640D01*
X30357060Y-33784640D02*
X30199560Y-33784640D01*
X30357060Y-33864640D02*
X30357060Y-33784640D01*
X30539560Y-33864640D02*
X30357060Y-33864640D01*
X30539560Y-33984640D02*
X30539560Y-33864640D01*
X30539560Y-33984640D02*
X30839560Y-33984640D01*
X30839560Y-33984640D02*
X30839560Y-33864640D01*
X31072060Y-32634640D02*
X31072060Y-32957640D01*
X31072060Y-32957640D02*
X31109560Y-32957640D01*
X31072060Y-33237640D02*
X31109560Y-33237640D01*
X31072060Y-33864640D02*
X30839560Y-33864640D01*
X31072060Y-33864640D02*
X31072060Y-33237640D01*
X31109560Y-32957640D02*
X31109560Y-33237640D01*
X28580120Y-26771640D02*
X29982120Y-26771640D01*
X28580120Y-28173640D02*
X28580120Y-26771640D01*
X29982120Y-26771640D02*
X29982120Y-28173640D01*
X29982120Y-28173640D02*
X28580120Y-28173640D01*
X28062640Y-31983660D02*
X28062640Y-30581660D01*
X29464640Y-30581660D02*
X28062640Y-30581660D01*
X29464640Y-30581660D02*
X29464640Y-31983660D01*
X29464640Y-31983660D02*
X28062640Y-31983660D01*
X29995240Y-29629760D02*
X29995240Y-31029760D01*
X30142240Y-28757260D02*
X30465240Y-28757260D01*
X30142240Y-29472260D02*
X30142240Y-28757260D01*
X30142240Y-31187260D02*
X30142240Y-31902260D01*
X30142240Y-31902260D02*
X30465240Y-31902260D01*
X30222240Y-29472260D02*
X30142240Y-29472260D01*
X30222240Y-29629760D02*
X29995240Y-29629760D01*
X30222240Y-29629760D02*
X30222240Y-29472260D01*
X30222240Y-31029760D02*
X29995240Y-31029760D01*
X30222240Y-31187260D02*
X30142240Y-31187260D01*
X30222240Y-31187260D02*
X30222240Y-31029760D01*
X30465240Y-28719760D02*
X30745240Y-28719760D01*
X30465240Y-28757260D02*
X30465240Y-28719760D01*
X30465240Y-31902260D02*
X30465240Y-31939760D01*
X30465240Y-31939760D02*
X30745240Y-31939760D01*
X30745240Y-28757260D02*
X30745240Y-28719760D01*
X30745240Y-31902260D02*
X30745240Y-31939760D01*
X31292240Y-29472260D02*
X31292240Y-29629760D01*
X31292240Y-29629760D02*
X31395240Y-29629760D01*
X31292240Y-31029760D02*
X31395240Y-31029760D01*
X31292240Y-31187260D02*
X31292240Y-31029760D01*
X31372240Y-28757260D02*
X30745240Y-28757260D01*
X31372240Y-28989760D02*
X31372240Y-28757260D01*
X31372240Y-29472260D02*
X31292240Y-29472260D01*
X31372240Y-29472260D02*
X31372240Y-29289760D01*
X31372240Y-31187260D02*
X31292240Y-31187260D01*
X31372240Y-31369760D02*
X31372240Y-31187260D01*
X31372240Y-31902260D02*
X30745240Y-31902260D01*
X31372240Y-31902260D02*
X31372240Y-31669760D01*
X31395240Y-31029760D02*
X31395240Y-29629760D01*
X31492240Y-28989760D02*
X31372240Y-28989760D01*
X31492240Y-29289760D02*
X31372240Y-29289760D01*
X31492240Y-29289760D02*
X31492240Y-28989760D01*
X31492240Y-31369760D02*
X31372240Y-31369760D01*
X31492240Y-31369760D02*
X31492240Y-31669760D01*
X31492240Y-31669760D02*
X31372240Y-31669760D01*
X30485120Y-26771640D02*
X31887120Y-26771640D01*
X30485120Y-28173640D02*
X30485120Y-26771640D01*
X31887120Y-26771640D02*
X31887120Y-28173640D01*
X31887120Y-28173640D02*
X30485120Y-28173640D01*
X33791400Y-26752640D02*
X33791400Y-26972640D01*
X33791400Y-26972640D02*
X33801400Y-26972640D01*
X33791400Y-27972640D02*
X33791400Y-28192640D01*
X33791400Y-27972640D02*
X33801400Y-27972640D01*
X33801400Y-26972640D02*
X33801400Y-27172640D01*
X33801400Y-27172640D02*
X33811400Y-27172640D01*
X33801400Y-27772640D02*
X33801400Y-27972640D01*
X33801400Y-27772640D02*
X33811400Y-27772640D01*
X33811400Y-27772640D02*
X33811400Y-27172640D01*
X34011400Y-26752640D02*
X33791400Y-26752640D01*
X34011400Y-26752640D02*
X34011400Y-26762640D01*
X34011400Y-28182640D02*
X34011400Y-28192640D01*
X34011400Y-28192640D02*
X33791400Y-28192640D01*
X34211400Y-26762640D02*
X34011400Y-26762640D01*
X34211400Y-26762640D02*
X34211400Y-26772640D01*
X34211400Y-26772640D02*
X34811400Y-26772640D01*
X34211400Y-28172640D02*
X34211400Y-28182640D01*
X34211400Y-28182640D02*
X34011400Y-28182640D01*
X34811400Y-26762640D02*
X34811400Y-26772640D01*
X34811400Y-28172640D02*
X34211400Y-28172640D01*
X34811400Y-28172640D02*
X34811400Y-28182640D01*
X35011400Y-26752640D02*
X35011400Y-26762640D01*
X35011400Y-26762640D02*
X34811400Y-26762640D01*
X35011400Y-28182640D02*
X34811400Y-28182640D01*
X35011400Y-28182640D02*
X35011400Y-28192640D01*
X35211400Y-27172640D02*
X35211400Y-27772640D01*
X35211400Y-27172640D02*
X35221400Y-27172640D01*
X35211400Y-27772640D02*
X35221400Y-27772640D01*
X35221400Y-26972640D02*
X35221400Y-27172640D01*
X35221400Y-26972640D02*
X35231400Y-26972640D01*
X35221400Y-27772640D02*
X35221400Y-27972640D01*
X35221400Y-27972640D02*
X35231400Y-27972640D01*
X35231400Y-26752640D02*
X35011400Y-26752640D01*
X35231400Y-26752640D02*
X35231400Y-26972640D01*
X35231400Y-27972640D02*
X35231400Y-28192640D01*
X35231400Y-28192640D02*
X35011400Y-28192640D01*
X33314680Y-32486640D02*
X34716680Y-32486640D01*
X33314680Y-33888640D02*
X33314680Y-32486640D01*
X34716680Y-32486640D02*
X34716680Y-33888640D01*
X34716680Y-33888640D02*
X33314680Y-33888640D01*
X35219680Y-30581640D02*
X36621680Y-30581640D01*
X35219680Y-31983640D02*
X35219680Y-30581640D01*
X36621680Y-30581640D02*
X36621680Y-31983640D01*
X36621680Y-31983640D02*
X35219680Y-31983640D01*
X35222640Y-32486640D02*
X36624640Y-32486640D01*
X35222640Y-33888640D02*
X35222640Y-32486640D01*
X36624640Y-32486640D02*
X36624640Y-33888640D01*
X36624640Y-33888640D02*
X35222640Y-33888640D01*
X36651440Y-26752640D02*
X36651440Y-26972640D01*
X36651440Y-26972640D02*
X36661440Y-26972640D01*
X36651440Y-27972640D02*
X36651440Y-28192640D01*
X36651440Y-27972640D02*
X36661440Y-27972640D01*
X36661440Y-26972640D02*
X36661440Y-27172640D01*
X36661440Y-27172640D02*
X36671440Y-27172640D01*
X36661440Y-27772640D02*
X36661440Y-27972640D01*
X36661440Y-27772640D02*
X36671440Y-27772640D01*
X36671440Y-27772640D02*
X36671440Y-27172640D01*
X36871440Y-26752640D02*
X36651440Y-26752640D01*
X36871440Y-26752640D02*
X36871440Y-26762640D01*
X36871440Y-28182640D02*
X36871440Y-28192640D01*
X36871440Y-28192640D02*
X36651440Y-28192640D01*
X37071440Y-26762640D02*
X36871440Y-26762640D01*
X37071440Y-26762640D02*
X37071440Y-26772640D01*
X37071440Y-26772640D02*
X37671440Y-26772640D01*
X37071440Y-28172640D02*
X37071440Y-28182640D01*
X37071440Y-28182640D02*
X36871440Y-28182640D01*
X37671440Y-26762640D02*
X37671440Y-26772640D01*
X37671440Y-28172640D02*
X37071440Y-28172640D01*
X37671440Y-28172640D02*
X37671440Y-28182640D01*
X37871440Y-26752640D02*
X37871440Y-26762640D01*
X37871440Y-26762640D02*
X37671440Y-26762640D01*
X37871440Y-28182640D02*
X37671440Y-28182640D01*
X37871440Y-28182640D02*
X37871440Y-28192640D01*
X38071440Y-27172640D02*
X38071440Y-27772640D01*
X38071440Y-27172640D02*
X38081440Y-27172640D01*
X38071440Y-27772640D02*
X38081440Y-27772640D01*
X38081440Y-26972640D02*
X38081440Y-27172640D01*
X38081440Y-26972640D02*
X38091440Y-26972640D01*
X38081440Y-27772640D02*
X38081440Y-27972640D01*
X38081440Y-27972640D02*
X38091440Y-27972640D01*
X38091440Y-26752640D02*
X37871440Y-26752640D01*
X38091440Y-26752640D02*
X38091440Y-26972640D01*
X38091440Y-27972640D02*
X38091440Y-28192640D01*
X38091440Y-28192640D02*
X37871440Y-28192640D01*
X37124680Y-32486640D02*
X38526680Y-32486640D01*
X37124680Y-33888640D02*
X37124680Y-32486640D01*
X38526680Y-32486640D02*
X38526680Y-33888640D01*
X38526680Y-33888640D02*
X37124680Y-33888640D01*
X39969480Y-26776720D02*
X41371480Y-26776720D01*
X39969480Y-28178720D02*
X39969480Y-26776720D01*
X41371480Y-26776720D02*
X41371480Y-28178720D01*
X41371480Y-28178720D02*
X39969480Y-28178720D01*
X39969480Y-28681720D02*
X41371480Y-28681720D01*
X39969480Y-30083720D02*
X39969480Y-28681720D01*
X41371480Y-28681720D02*
X41371480Y-30083720D01*
X41371480Y-30083720D02*
X39969480Y-30083720D01*
X39969480Y-30586720D02*
X41371480Y-30586720D01*
X39969480Y-31988720D02*
X39969480Y-30586720D01*
X41371480Y-30586720D02*
X41371480Y-31988720D01*
X41371480Y-31988720D02*
X39969480Y-31988720D01*
X39972440Y-32488800D02*
X41374440Y-32488800D01*
X39972440Y-33890800D02*
X39972440Y-32488800D01*
X41374440Y-32488800D02*
X41374440Y-33890800D01*
X41374440Y-33890800D02*
X39972440Y-33890800D01*
X40017425Y-35325180D02*
X40017425Y-35045180D01*
X40054925Y-34418180D02*
X40054925Y-35045180D01*
X40054925Y-34418180D02*
X40287425Y-34418180D01*
X40054925Y-35045180D02*
X40017425Y-35045180D01*
X40054925Y-35325180D02*
X40017425Y-35325180D01*
X40054925Y-35648180D02*
X40054925Y-35325180D01*
X40287425Y-34298180D02*
X40287425Y-34418180D01*
X40587425Y-34298180D02*
X40287425Y-34298180D01*
X40587425Y-34298180D02*
X40587425Y-34418180D01*
X40587425Y-34418180D02*
X40769925Y-34418180D01*
X40769925Y-34418180D02*
X40769925Y-34498180D01*
X40769925Y-34498180D02*
X40927425Y-34498180D01*
X40769925Y-35568180D02*
X40769925Y-35648180D01*
X40769925Y-35568180D02*
X40927425Y-35568180D01*
X40769925Y-35648180D02*
X40054925Y-35648180D01*
X40927425Y-34395180D02*
X42327425Y-34395180D01*
X40927425Y-34498180D02*
X40927425Y-34395180D01*
X40927425Y-35568180D02*
X40927425Y-35795180D01*
X42327425Y-34498180D02*
X42327425Y-34395180D01*
X42327425Y-35568180D02*
X42327425Y-35795180D01*
X42327425Y-35568180D02*
X42484925Y-35568180D01*
X42327425Y-35795180D02*
X40927425Y-35795180D01*
X42484925Y-34418180D02*
X42484925Y-34498180D01*
X42484925Y-34418180D02*
X42667425Y-34418180D01*
X42484925Y-34498180D02*
X42327425Y-34498180D01*
X42484925Y-35568180D02*
X42484925Y-35648180D01*
X42484925Y-35648180D02*
X43199925Y-35648180D01*
X42667425Y-34298180D02*
X42667425Y-34418180D01*
X42667425Y-34298180D02*
X42967425Y-34298180D01*
X42967425Y-34298180D02*
X42967425Y-34418180D01*
X42967425Y-34418180D02*
X43199925Y-34418180D01*
X43199925Y-34418180D02*
X43199925Y-35045180D01*
X43199925Y-35045180D02*
X43237425Y-35045180D01*
X43199925Y-35325180D02*
X43237425Y-35325180D01*
X43199925Y-35648180D02*
X43199925Y-35325180D01*
X43237425Y-35325180D02*
X43237425Y-35045180D01*
X41874480Y-28681720D02*
X43276480Y-28681720D01*
X41874480Y-30083720D02*
X41874480Y-28681720D01*
X43276480Y-28681720D02*
X43276480Y-30083720D01*
X43276480Y-30083720D02*
X41874480Y-30083720D01*
X41874480Y-30586720D02*
X43276480Y-30586720D01*
X41874480Y-31988720D02*
X41874480Y-30586720D01*
X43276480Y-30586720D02*
X43276480Y-31988720D01*
X43276480Y-31988720D02*
X41874480Y-31988720D01*
X41877440Y-32488800D02*
X43279440Y-32488800D01*
X41877440Y-33890800D02*
X41877440Y-32488800D01*
X43279440Y-32488800D02*
X43279440Y-33890800D01*
X43279440Y-33890800D02*
X41877440Y-33890800D01*
X43789640Y-26781800D02*
X45191640Y-26781800D01*
X43789640Y-28183800D02*
X43789640Y-26781800D01*
X45191640Y-26781800D02*
X45191640Y-28183800D01*
X45191640Y-28183800D02*
X43789640Y-28183800D01*
X43779480Y-28681720D02*
X45181480Y-28681720D01*
X43779480Y-30083720D02*
X43779480Y-28681720D01*
X45181480Y-28681720D02*
X45181480Y-30083720D01*
X45181480Y-30083720D02*
X43779480Y-30083720D01*
X43784560Y-30586720D02*
X45186560Y-30586720D01*
X43784560Y-31988720D02*
X43784560Y-30586720D01*
X45186560Y-30586720D02*
X45186560Y-31988720D01*
X45186560Y-31988720D02*
X43784560Y-31988720D01*
X43784560Y-32486640D02*
X45186560Y-32486640D01*
X43784560Y-33888640D02*
X43784560Y-32486640D01*
X45186560Y-32486640D02*
X45186560Y-33888640D01*
X45186560Y-33888640D02*
X43784560Y-33888640D01*
X43782440Y-34393800D02*
X45184440Y-34393800D01*
X43782440Y-35795800D02*
X43782440Y-34393800D01*
X45184440Y-34393800D02*
X45184440Y-35795800D01*
X45184440Y-35795800D02*
X43782440Y-35795800D01*
X45699720Y-26781800D02*
X47101720Y-26781800D01*
X45699720Y-28183800D02*
X45699720Y-26781800D01*
X47101720Y-26781800D02*
X47101720Y-28183800D01*
X47101720Y-28183800D02*
X45699720Y-28183800D01*
X45699720Y-28676640D02*
X47101720Y-28676640D01*
X45699720Y-30078640D02*
X45699720Y-28676640D01*
X47101720Y-28676640D02*
X47101720Y-30078640D01*
X47101720Y-30078640D02*
X45699720Y-30078640D01*
X45699720Y-30581640D02*
X47101720Y-30581640D01*
X45699720Y-31983640D02*
X45699720Y-30581640D01*
X47101720Y-30581640D02*
X47101720Y-31983640D01*
X47101720Y-31983640D02*
X45699720Y-31983640D01*
X45601180Y-32802680D02*
X45721180Y-32802680D01*
X45601180Y-33102680D02*
X45601180Y-32802680D01*
X45601180Y-33102680D02*
X45721180Y-33102680D01*
X45601180Y-35182680D02*
X45601180Y-35482680D01*
X45601180Y-35182680D02*
X45721180Y-35182680D01*
X45601180Y-35482680D02*
X45721180Y-35482680D01*
X45698180Y-33442680D02*
X45698180Y-34842680D01*
X45721180Y-32570180D02*
X45721180Y-32802680D01*
X45721180Y-32570180D02*
X46348180Y-32570180D01*
X45721180Y-33102680D02*
X45721180Y-33285180D01*
X45721180Y-33285180D02*
X45801180Y-33285180D01*
X45721180Y-35000180D02*
X45721180Y-35182680D01*
X45721180Y-35000180D02*
X45801180Y-35000180D01*
X45721180Y-35482680D02*
X45721180Y-35715180D01*
X45721180Y-35715180D02*
X46348180Y-35715180D01*
X45801180Y-33285180D02*
X45801180Y-33442680D01*
X45801180Y-33442680D02*
X45698180Y-33442680D01*
X45801180Y-34842680D02*
X45698180Y-34842680D01*
X45801180Y-35000180D02*
X45801180Y-34842680D01*
X46348180Y-32570180D02*
X46348180Y-32532680D01*
X46348180Y-35715180D02*
X46348180Y-35752680D01*
X46628180Y-32532680D02*
X46348180Y-32532680D01*
X46628180Y-32570180D02*
X46628180Y-32532680D01*
X46628180Y-35715180D02*
X46628180Y-35752680D01*
X46628180Y-35752680D02*
X46348180Y-35752680D01*
X46871180Y-33285180D02*
X46871180Y-33442680D01*
X46871180Y-33285180D02*
X46951180Y-33285180D01*
X46871180Y-33442680D02*
X47098180Y-33442680D01*
X46871180Y-34842680D02*
X46871180Y-35000180D01*
X46871180Y-34842680D02*
X47098180Y-34842680D01*
X46871180Y-35000180D02*
X46951180Y-35000180D01*
X46951180Y-32570180D02*
X46628180Y-32570180D01*
X46951180Y-33285180D02*
X46951180Y-32570180D01*
X46951180Y-35000180D02*
X46951180Y-35715180D01*
X46951180Y-35715180D02*
X46628180Y-35715180D01*
X47098180Y-34842680D02*
X47098180Y-33442680D01*
X6652720Y-28673720D02*
X8054720Y-28673720D01*
X6652720Y-30075720D02*
X6652720Y-28673720D01*
X8054720Y-28673720D02*
X8054720Y-30075720D01*
X8054720Y-30075720D02*
X6652720Y-30075720D01*
X8559840Y-28674100D02*
X9961840Y-28674100D01*
X8559840Y-30076100D02*
X8559840Y-28674100D01*
X9961840Y-28674100D02*
X9961840Y-30076100D01*
X9961840Y-30076100D02*
X8559840Y-30076100D01*
X5944720Y-23917760D02*
X7354720Y-23917760D01*
X5944720Y-25327760D02*
X5944720Y-23917760D01*
X7354720Y-23917760D02*
X7354720Y-25327760D01*
X7354720Y-25327760D02*
X5944720Y-25327760D01*
X2887705Y-29144720D02*
X2887705Y-29424720D01*
X2925205Y-28821720D02*
X2925205Y-29144720D01*
X2925205Y-29144720D02*
X2887705Y-29144720D01*
X2925205Y-29424720D02*
X2887705Y-29424720D01*
X2925205Y-30051720D02*
X2925205Y-29424720D01*
X3157705Y-30051720D02*
X2925205Y-30051720D01*
X3157705Y-30171720D02*
X3157705Y-30051720D01*
X3457705Y-30171720D02*
X3157705Y-30171720D01*
X3457705Y-30171720D02*
X3457705Y-30051720D01*
X3640205Y-28821720D02*
X2925205Y-28821720D01*
X3640205Y-28901720D02*
X3640205Y-28821720D01*
X3640205Y-29971720D02*
X3797705Y-29971720D01*
X3640205Y-30051720D02*
X3457705Y-30051720D01*
X3640205Y-30051720D02*
X3640205Y-29971720D01*
X3797705Y-28674720D02*
X5197705Y-28674720D01*
X3797705Y-28901720D02*
X3640205Y-28901720D01*
X3797705Y-28901720D02*
X3797705Y-28674720D01*
X3797705Y-29971720D02*
X3797705Y-30074720D01*
X5197705Y-28901720D02*
X5197705Y-28674720D01*
X5197705Y-29971720D02*
X5197705Y-30074720D01*
X5197705Y-30074720D02*
X3797705Y-30074720D01*
X5355205Y-28821720D02*
X6070205Y-28821720D01*
X5355205Y-28901720D02*
X5197705Y-28901720D01*
X5355205Y-28901720D02*
X5355205Y-28821720D01*
X5355205Y-29971720D02*
X5197705Y-29971720D01*
X5355205Y-30051720D02*
X5355205Y-29971720D01*
X5537705Y-30051720D02*
X5355205Y-30051720D01*
X5537705Y-30171720D02*
X5537705Y-30051720D01*
X5537705Y-30171720D02*
X5837705Y-30171720D01*
X5837705Y-30171720D02*
X5837705Y-30051720D01*
X6070205Y-28821720D02*
X6070205Y-29144720D01*
X6070205Y-29144720D02*
X6107705Y-29144720D01*
X6070205Y-29424720D02*
X6107705Y-29424720D01*
X6070205Y-30051720D02*
X5837705Y-30051720D01*
X6070205Y-30051720D02*
X6070205Y-29424720D01*
X6107705Y-29144720D02*
X6107705Y-29424720D01*
X16190000Y-28676640D02*
X17592000Y-28676640D01*
X16190000Y-30078640D02*
X16190000Y-28676640D01*
X17592000Y-28676640D02*
X17592000Y-30078640D01*
X17592000Y-30078640D02*
X16190000Y-30078640D01*
X12852440Y-30583800D02*
X14254440Y-30583800D01*
X12852440Y-31985800D02*
X12852440Y-30583800D01*
X14254440Y-30583800D02*
X14254440Y-31985800D01*
X14254440Y-31985800D02*
X12852440Y-31985800D01*
X13332920Y-26768720D02*
X14734920Y-26768720D01*
X13332920Y-28170720D02*
X13332920Y-26768720D01*
X14734920Y-26768720D02*
X14734920Y-28170720D01*
X14734920Y-28170720D02*
X13332920Y-28170720D01*
X19512320Y-32486640D02*
X20914320Y-32486640D01*
X19512320Y-33888640D02*
X19512320Y-32486640D01*
X20914320Y-32486640D02*
X20914320Y-33888640D01*
X20914320Y-33888640D02*
X19512320Y-33888640D01*
X27625080Y-28676640D02*
X29027080Y-28676640D01*
X27625080Y-30078640D02*
X27625080Y-28676640D01*
X29027080Y-28676640D02*
X29027080Y-30078640D01*
X29027080Y-30078640D02*
X27625080Y-30078640D01*
X41879560Y-26781800D02*
X43281560Y-26781800D01*
X41879560Y-28183800D02*
X41879560Y-26781800D01*
X43281560Y-26781800D02*
X43281560Y-28183800D01*
X43281560Y-28183800D02*
X41879560Y-28183800D01*
X23562160Y-23917760D02*
X24972160Y-23917760D01*
X23562160Y-25327760D02*
X23562160Y-23917760D01*
X24972160Y-23917760D02*
X24972160Y-25327760D01*
X24972160Y-25327760D02*
X23562160Y-25327760D01*
X10271900Y-35333180D02*
X10271900Y-35053180D01*
X10309400Y-34426180D02*
X10309400Y-35053180D01*
X10309400Y-34426180D02*
X10541900Y-34426180D01*
X10309400Y-35053180D02*
X10271900Y-35053180D01*
X10309400Y-35333180D02*
X10271900Y-35333180D01*
X10309400Y-35656180D02*
X10309400Y-35333180D01*
X10541900Y-34306180D02*
X10541900Y-34426180D01*
X10841900Y-34306180D02*
X10541900Y-34306180D01*
X10841900Y-34306180D02*
X10841900Y-34426180D01*
X10841900Y-34426180D02*
X11024400Y-34426180D01*
X11024400Y-34426180D02*
X11024400Y-34865180D01*
X11024400Y-34865180D02*
X16660900Y-34865180D01*
X11024400Y-35325180D02*
X11024400Y-35656180D01*
X11024400Y-35325180D02*
X16660900Y-35325180D01*
X11024400Y-35656180D02*
X10309400Y-35656180D01*
X16660900Y-34395180D02*
X18060900Y-34395180D01*
X16660900Y-34865180D02*
X16660900Y-34395180D01*
X16660900Y-35325180D02*
X16660900Y-35795180D01*
X18060900Y-34865180D02*
X18060900Y-34395180D01*
X18060900Y-35325180D02*
X18060900Y-35795180D01*
X18060900Y-35325180D02*
X23697400Y-35325180D01*
X18060900Y-35795180D02*
X16660900Y-35795180D01*
X23697400Y-34426180D02*
X23697400Y-34865180D01*
X23697400Y-34426180D02*
X23879900Y-34426180D01*
X23697400Y-34865180D02*
X18060900Y-34865180D01*
X23697400Y-35325180D02*
X23697400Y-35656180D01*
X23697400Y-35656180D02*
X24412400Y-35656180D01*
X23879900Y-34306180D02*
X23879900Y-34426180D01*
X23879900Y-34306180D02*
X24179900Y-34306180D01*
X24179900Y-34306180D02*
X24179900Y-34426180D01*
X24179900Y-34426180D02*
X24412400Y-34426180D01*
X24412400Y-34426180D02*
X24412400Y-35053180D01*
X24412400Y-35053180D02*
X24449900Y-35053180D01*
X24412400Y-35333180D02*
X24449900Y-35333180D01*
X24412400Y-35656180D02*
X24412400Y-35333180D01*
X24449900Y-35333180D02*
X24449900Y-35053180D01*
D12*
X18963885Y-25520000D02*
X19963885Y-25520000D01*
X19963885Y-26520000D01*
X18963885Y-26520000D01*
X18963885Y-25520000D01*
X32100000Y-26972640D02*
X33100000Y-26972640D01*
X33100000Y-27972640D01*
X32100000Y-27972640D01*
X32100000Y-26972640D01*
X22142590Y-25520000D02*
X23142590Y-25520000D01*
X23142590Y-26520000D01*
X22142590Y-26520000D01*
X22142590Y-25520000D01*
X15785180Y-25520000D02*
X16785180Y-25520000D01*
X16785180Y-26520000D01*
X15785180Y-26520000D01*
X15785180Y-25520000D01*
X38750000Y-26972640D02*
X39750000Y-26972640D01*
X39750000Y-27972640D01*
X38750000Y-27972640D01*
X38750000Y-26972640D01*
X38750000Y-32687640D02*
X39750000Y-32687640D01*
X39750000Y-33687640D01*
X38750000Y-33687640D01*
X38750000Y-32687640D01*
X28500000Y-25520000D02*
X29500000Y-25520000D01*
X29500000Y-26520000D01*
X28500000Y-26520000D01*
X28500000Y-25520000D01*
D11*
X3602000Y-33417640D02*
X3602000Y-33137640D01*
X3689500Y-32510640D02*
X3689500Y-33137640D01*
X3689500Y-32510640D02*
X3872000Y-32510640D01*
X3689500Y-33137640D02*
X3602000Y-33137640D01*
X3689500Y-33417640D02*
X3602000Y-33417640D01*
X3689500Y-33740640D02*
X3689500Y-33417640D01*
X3872000Y-32390640D02*
X3872000Y-32510640D01*
X4172000Y-32390640D02*
X3872000Y-32390640D01*
X4172000Y-32390640D02*
X4172000Y-32510640D01*
X4172000Y-32510640D02*
X4354500Y-32510640D01*
X4354500Y-32510640D02*
X4354500Y-32590640D01*
X4354500Y-32590640D02*
X4512000Y-32590640D01*
X4354500Y-33660640D02*
X4354500Y-33740640D01*
X4354500Y-33660640D02*
X4512000Y-33660640D01*
X4354500Y-33740640D02*
X3689500Y-33740640D01*
X4512000Y-32487640D02*
X5912000Y-32487640D01*
X4512000Y-32590640D02*
X4512000Y-32487640D01*
X4512000Y-33660640D02*
X4512000Y-33887640D01*
X5912000Y-32590640D02*
X5912000Y-32487640D01*
X5912000Y-33660640D02*
X5912000Y-33887640D01*
X5912000Y-33660640D02*
X6069500Y-33660640D01*
X5912000Y-33887640D02*
X4512000Y-33887640D01*
X6069500Y-32510640D02*
X6069500Y-32590640D01*
X6069500Y-32510640D02*
X6252000Y-32510640D01*
X6069500Y-32590640D02*
X5912000Y-32590640D01*
X6069500Y-33660640D02*
X6069500Y-33740640D01*
X6069500Y-33740640D02*
X6734500Y-33740640D01*
X6252000Y-32390640D02*
X6252000Y-32510640D01*
X6252000Y-32390640D02*
X6552000Y-32390640D01*
X6552000Y-32390640D02*
X6552000Y-32510640D01*
X6552000Y-32510640D02*
X6734500Y-32510640D01*
X6734500Y-32510640D02*
X6734500Y-33137640D01*
X6734500Y-33137640D02*
X6822000Y-33137640D01*
X6734500Y-33417640D02*
X6822000Y-33417640D01*
X6734500Y-33740640D02*
X6734500Y-33417640D01*
X6822000Y-33417640D02*
X6822000Y-33137640D01*
D12*
X9427770Y-25520000D02*
X10427770Y-25520000D01*
X10427770Y-26520000D01*
X9427770Y-26520000D01*
X9427770Y-25520000D01*
X32100000Y-32685000D02*
X33100000Y-32685000D01*
X33100000Y-33685000D01*
X32100000Y-33685000D01*
X32100000Y-32685000D01*
X3070360Y-25520000D02*
X4070360Y-25520000D01*
X4070360Y-26520000D01*
X3070360Y-26520000D01*
X3070360Y-25520000D01*
X6249065Y-25520000D02*
X7249065Y-25520000D01*
X7249065Y-26520000D01*
X6249065Y-26520000D01*
X6249065Y-25520000D01*
X35415000Y-29370000D02*
X36415000Y-29370000D01*
X36415000Y-30370000D01*
X35415000Y-30370000D01*
X35415000Y-29370000D01*
X12606475Y-25520000D02*
X13606475Y-25520000D01*
X13606475Y-26520000D01*
X12606475Y-26520000D01*
X12606475Y-25520000D01*
X25321295Y-25520000D02*
X26321295Y-25520000D01*
X26321295Y-26520000D01*
X25321295Y-26520000D01*
X25321295Y-25520000D01*
X35420000Y-34100000D02*
X36420000Y-34100000D01*
X36420000Y-35100000D01*
X35420000Y-35100000D01*
X35420000Y-34100000D01*
D13*
D14*
X6288500Y-30228000D02*
X6538500Y-30478000D01*
X6538500Y-30228000D02*
X6288500Y-30478000D01*
X6758400Y-30545500D02*
X7008400Y-30795500D01*
X7008400Y-30545500D02*
X6758400Y-30795500D01*
D15*
X5175000Y-24615000D02*
G75*
G02*
X4775000Y-24615000I-200000J0D01*
G01*
X4775000Y-24615000D02*
G75*
G02*
X5175000Y-24615000I200000J0D01*
G01*
X39445000Y-29385000D02*
G75*
G02*
X39045000Y-29385000I-200000J0D01*
G01*
X39045000Y-29385000D02*
G75*
G02*
X39445000Y-29385000I200000J0D01*
G01*
D13*
X2798277Y-36381984D02*
X2798277Y-36181984D01*
X2798277Y-36181984D02*
X2845896Y-36181984D01*
X2845896Y-36181984D02*
X2874467Y-36191508D01*
X2874467Y-36191508D02*
X2893515Y-36210555D01*
X2893515Y-36210555D02*
X2903039Y-36229603D01*
X2903039Y-36229603D02*
X2912562Y-36267698D01*
X2912562Y-36267698D02*
X2912562Y-36296270D01*
X2912562Y-36296270D02*
X2903039Y-36334365D01*
X2903039Y-36334365D02*
X2893515Y-36353412D01*
X2893515Y-36353412D02*
X2874467Y-36372460D01*
X2874467Y-36372460D02*
X2845896Y-36381984D01*
X2845896Y-36381984D02*
X2798277Y-36381984D01*
X2998277Y-36381984D02*
X2998277Y-36248650D01*
X2998277Y-36286746D02*
X3007801Y-36267698D01*
X3007801Y-36267698D02*
X3017324Y-36258174D01*
X3017324Y-36258174D02*
X3036372Y-36248650D01*
X3036372Y-36248650D02*
X3055420Y-36248650D01*
X3122086Y-36381984D02*
X3122086Y-36248650D01*
X3122086Y-36181984D02*
X3112562Y-36191508D01*
X3112562Y-36191508D02*
X3122086Y-36201031D01*
X3122086Y-36201031D02*
X3131610Y-36191508D01*
X3131610Y-36191508D02*
X3122086Y-36181984D01*
X3122086Y-36181984D02*
X3122086Y-36201031D01*
X3245896Y-36381984D02*
X3226848Y-36372460D01*
X3226848Y-36372460D02*
X3217324Y-36353412D01*
X3217324Y-36353412D02*
X3217324Y-36181984D01*
X3350658Y-36381984D02*
X3331610Y-36372460D01*
X3331610Y-36372460D02*
X3322086Y-36353412D01*
X3322086Y-36353412D02*
X3322086Y-36181984D01*
X3579229Y-36381984D02*
X3579229Y-36181984D01*
X3579229Y-36181984D02*
X3645896Y-36324841D01*
X3645896Y-36324841D02*
X3712562Y-36181984D01*
X3712562Y-36181984D02*
X3712562Y-36381984D01*
X3893515Y-36381984D02*
X3893515Y-36277222D01*
X3893515Y-36277222D02*
X3883991Y-36258174D01*
X3883991Y-36258174D02*
X3864943Y-36248650D01*
X3864943Y-36248650D02*
X3826848Y-36248650D01*
X3826848Y-36248650D02*
X3807801Y-36258174D01*
X3893515Y-36372460D02*
X3874467Y-36381984D01*
X3874467Y-36381984D02*
X3826848Y-36381984D01*
X3826848Y-36381984D02*
X3807801Y-36372460D01*
X3807801Y-36372460D02*
X3798277Y-36353412D01*
X3798277Y-36353412D02*
X3798277Y-36334365D01*
X3798277Y-36334365D02*
X3807801Y-36315317D01*
X3807801Y-36315317D02*
X3826848Y-36305793D01*
X3826848Y-36305793D02*
X3874467Y-36305793D01*
X3874467Y-36305793D02*
X3893515Y-36296270D01*
X3988753Y-36248650D02*
X3988753Y-36448650D01*
X3988753Y-36258174D02*
X4007801Y-36248650D01*
X4007801Y-36248650D02*
X4045896Y-36248650D01*
X4045896Y-36248650D02*
X4064943Y-36258174D01*
X4064943Y-36258174D02*
X4074467Y-36267698D01*
X4074467Y-36267698D02*
X4083991Y-36286746D01*
X4083991Y-36286746D02*
X4083991Y-36343889D01*
X4083991Y-36343889D02*
X4074467Y-36362936D01*
X4074467Y-36362936D02*
X4064943Y-36372460D01*
X4064943Y-36372460D02*
X4045896Y-36381984D01*
X4045896Y-36381984D02*
X4007801Y-36381984D01*
X4007801Y-36381984D02*
X3988753Y-36372460D01*
X4169705Y-36362936D02*
X4179229Y-36372460D01*
X4179229Y-36372460D02*
X4169705Y-36381984D01*
X4169705Y-36381984D02*
X4160182Y-36372460D01*
X4160182Y-36372460D02*
X4169705Y-36362936D01*
X4169705Y-36362936D02*
X4169705Y-36381984D01*
X4169705Y-36258174D02*
X4179229Y-36267698D01*
X4179229Y-36267698D02*
X4169705Y-36277222D01*
X4169705Y-36277222D02*
X4160182Y-36267698D01*
X4160182Y-36267698D02*
X4169705Y-36258174D01*
X4169705Y-36258174D02*
X4169705Y-36277222D01*
X2337500Y-36610500D02*
X2537500Y-36810500D01*
X2537500Y-36610500D02*
X2337500Y-36810500D01*
X2788753Y-36621031D02*
X2798277Y-36611508D01*
X2798277Y-36611508D02*
X2817324Y-36601984D01*
X2817324Y-36601984D02*
X2864943Y-36601984D01*
X2864943Y-36601984D02*
X2883991Y-36611508D01*
X2883991Y-36611508D02*
X2893515Y-36621031D01*
X2893515Y-36621031D02*
X2903039Y-36640079D01*
X2903039Y-36640079D02*
X2903039Y-36659127D01*
X2903039Y-36659127D02*
X2893515Y-36687698D01*
X2893515Y-36687698D02*
X2779229Y-36801984D01*
X2779229Y-36801984D02*
X2903039Y-36801984D01*
X2988753Y-36782936D02*
X2998277Y-36792460D01*
X2998277Y-36792460D02*
X2988753Y-36801984D01*
X2988753Y-36801984D02*
X2979229Y-36792460D01*
X2979229Y-36792460D02*
X2988753Y-36782936D01*
X2988753Y-36782936D02*
X2988753Y-36801984D01*
X3179229Y-36601984D02*
X3083991Y-36601984D01*
X3083991Y-36601984D02*
X3074467Y-36697222D01*
X3074467Y-36697222D02*
X3083991Y-36687698D01*
X3083991Y-36687698D02*
X3103039Y-36678174D01*
X3103039Y-36678174D02*
X3150658Y-36678174D01*
X3150658Y-36678174D02*
X3169705Y-36687698D01*
X3169705Y-36687698D02*
X3179229Y-36697222D01*
X3179229Y-36697222D02*
X3188753Y-36716270D01*
X3188753Y-36716270D02*
X3188753Y-36763889D01*
X3188753Y-36763889D02*
X3179229Y-36782936D01*
X3179229Y-36782936D02*
X3169705Y-36792460D01*
X3169705Y-36792460D02*
X3150658Y-36801984D01*
X3150658Y-36801984D02*
X3103039Y-36801984D01*
X3103039Y-36801984D02*
X3083991Y-36792460D01*
X3083991Y-36792460D02*
X3074467Y-36782936D01*
X3312562Y-36601984D02*
X3331610Y-36601984D01*
X3331610Y-36601984D02*
X3350658Y-36611508D01*
X3350658Y-36611508D02*
X3360182Y-36621031D01*
X3360182Y-36621031D02*
X3369705Y-36640079D01*
X3369705Y-36640079D02*
X3379229Y-36678174D01*
X3379229Y-36678174D02*
X3379229Y-36725793D01*
X3379229Y-36725793D02*
X3369705Y-36763889D01*
X3369705Y-36763889D02*
X3360182Y-36782936D01*
X3360182Y-36782936D02*
X3350658Y-36792460D01*
X3350658Y-36792460D02*
X3331610Y-36801984D01*
X3331610Y-36801984D02*
X3312562Y-36801984D01*
X3312562Y-36801984D02*
X3293515Y-36792460D01*
X3293515Y-36792460D02*
X3283991Y-36782936D01*
X3283991Y-36782936D02*
X3274467Y-36763889D01*
X3274467Y-36763889D02*
X3264943Y-36725793D01*
X3264943Y-36725793D02*
X3264943Y-36678174D01*
X3264943Y-36678174D02*
X3274467Y-36640079D01*
X3274467Y-36640079D02*
X3283991Y-36621031D01*
X3283991Y-36621031D02*
X3293515Y-36611508D01*
X3293515Y-36611508D02*
X3312562Y-36601984D01*
X3503039Y-36601984D02*
X3522086Y-36601984D01*
X3522086Y-36601984D02*
X3541134Y-36611508D01*
X3541134Y-36611508D02*
X3550658Y-36621031D01*
X3550658Y-36621031D02*
X3560182Y-36640079D01*
X3560182Y-36640079D02*
X3569705Y-36678174D01*
X3569705Y-36678174D02*
X3569705Y-36725793D01*
X3569705Y-36725793D02*
X3560182Y-36763889D01*
X3560182Y-36763889D02*
X3550658Y-36782936D01*
X3550658Y-36782936D02*
X3541134Y-36792460D01*
X3541134Y-36792460D02*
X3522086Y-36801984D01*
X3522086Y-36801984D02*
X3503039Y-36801984D01*
X3503039Y-36801984D02*
X3483991Y-36792460D01*
X3483991Y-36792460D02*
X3474467Y-36782936D01*
X3474467Y-36782936D02*
X3464943Y-36763889D01*
X3464943Y-36763889D02*
X3455420Y-36725793D01*
X3455420Y-36725793D02*
X3455420Y-36678174D01*
X3455420Y-36678174D02*
X3464943Y-36640079D01*
X3464943Y-36640079D02*
X3474467Y-36621031D01*
X3474467Y-36621031D02*
X3483991Y-36611508D01*
X3483991Y-36611508D02*
X3503039Y-36601984D01*
X3655420Y-36801984D02*
X3655420Y-36668650D01*
X3655420Y-36687698D02*
X3664943Y-36678174D01*
X3664943Y-36678174D02*
X3683991Y-36668650D01*
X3683991Y-36668650D02*
X3712563Y-36668650D01*
X3712563Y-36668650D02*
X3731610Y-36678174D01*
X3731610Y-36678174D02*
X3741134Y-36697222D01*
X3741134Y-36697222D02*
X3741134Y-36801984D01*
X3741134Y-36697222D02*
X3750658Y-36678174D01*
X3750658Y-36678174D02*
X3769705Y-36668650D01*
X3769705Y-36668650D02*
X3798277Y-36668650D01*
X3798277Y-36668650D02*
X3817324Y-36678174D01*
X3817324Y-36678174D02*
X3826848Y-36697222D01*
X3826848Y-36697222D02*
X3826848Y-36801984D01*
X3922086Y-36801984D02*
X3922086Y-36668650D01*
X3922086Y-36687698D02*
X3931610Y-36678174D01*
X3931610Y-36678174D02*
X3950658Y-36668650D01*
X3950658Y-36668650D02*
X3979229Y-36668650D01*
X3979229Y-36668650D02*
X3998277Y-36678174D01*
X3998277Y-36678174D02*
X4007801Y-36697222D01*
X4007801Y-36697222D02*
X4007801Y-36801984D01*
X4007801Y-36697222D02*
X4017324Y-36678174D01*
X4017324Y-36678174D02*
X4036372Y-36668650D01*
X4036372Y-36668650D02*
X4064943Y-36668650D01*
X4064943Y-36668650D02*
X4083991Y-36678174D01*
X4083991Y-36678174D02*
X4093515Y-36697222D01*
X4093515Y-36697222D02*
X4093515Y-36801984D01*
X4483991Y-36592460D02*
X4312563Y-36849603D01*
X4741134Y-36601984D02*
X4760182Y-36601984D01*
X4760182Y-36601984D02*
X4779229Y-36611508D01*
X4779229Y-36611508D02*
X4788753Y-36621031D01*
X4788753Y-36621031D02*
X4798277Y-36640079D01*
X4798277Y-36640079D02*
X4807801Y-36678174D01*
X4807801Y-36678174D02*
X4807801Y-36725793D01*
X4807801Y-36725793D02*
X4798277Y-36763889D01*
X4798277Y-36763889D02*
X4788753Y-36782936D01*
X4788753Y-36782936D02*
X4779229Y-36792460D01*
X4779229Y-36792460D02*
X4760182Y-36801984D01*
X4760182Y-36801984D02*
X4741134Y-36801984D01*
X4741134Y-36801984D02*
X4722087Y-36792460D01*
X4722087Y-36792460D02*
X4712563Y-36782936D01*
X4712563Y-36782936D02*
X4703039Y-36763889D01*
X4703039Y-36763889D02*
X4693515Y-36725793D01*
X4693515Y-36725793D02*
X4693515Y-36678174D01*
X4693515Y-36678174D02*
X4703039Y-36640079D01*
X4703039Y-36640079D02*
X4712563Y-36621031D01*
X4712563Y-36621031D02*
X4722087Y-36611508D01*
X4722087Y-36611508D02*
X4741134Y-36601984D01*
X4893515Y-36782936D02*
X4903039Y-36792460D01*
X4903039Y-36792460D02*
X4893515Y-36801984D01*
X4893515Y-36801984D02*
X4883991Y-36792460D01*
X4883991Y-36792460D02*
X4893515Y-36782936D01*
X4893515Y-36782936D02*
X4893515Y-36801984D01*
X5026848Y-36601984D02*
X5045896Y-36601984D01*
X5045896Y-36601984D02*
X5064944Y-36611508D01*
X5064944Y-36611508D02*
X5074468Y-36621031D01*
X5074468Y-36621031D02*
X5083991Y-36640079D01*
X5083991Y-36640079D02*
X5093515Y-36678174D01*
X5093515Y-36678174D02*
X5093515Y-36725793D01*
X5093515Y-36725793D02*
X5083991Y-36763889D01*
X5083991Y-36763889D02*
X5074468Y-36782936D01*
X5074468Y-36782936D02*
X5064944Y-36792460D01*
X5064944Y-36792460D02*
X5045896Y-36801984D01*
X5045896Y-36801984D02*
X5026848Y-36801984D01*
X5026848Y-36801984D02*
X5007801Y-36792460D01*
X5007801Y-36792460D02*
X4998277Y-36782936D01*
X4998277Y-36782936D02*
X4988753Y-36763889D01*
X4988753Y-36763889D02*
X4979229Y-36725793D01*
X4979229Y-36725793D02*
X4979229Y-36678174D01*
X4979229Y-36678174D02*
X4988753Y-36640079D01*
X4988753Y-36640079D02*
X4998277Y-36621031D01*
X4998277Y-36621031D02*
X5007801Y-36611508D01*
X5007801Y-36611508D02*
X5026848Y-36601984D01*
X5188753Y-36801984D02*
X5226848Y-36801984D01*
X5226848Y-36801984D02*
X5245896Y-36792460D01*
X5245896Y-36792460D02*
X5255420Y-36782936D01*
X5255420Y-36782936D02*
X5274468Y-36754365D01*
X5274468Y-36754365D02*
X5283991Y-36716270D01*
X5283991Y-36716270D02*
X5283991Y-36640079D01*
X5283991Y-36640079D02*
X5274468Y-36621031D01*
X5274468Y-36621031D02*
X5264944Y-36611508D01*
X5264944Y-36611508D02*
X5245896Y-36601984D01*
X5245896Y-36601984D02*
X5207801Y-36601984D01*
X5207801Y-36601984D02*
X5188753Y-36611508D01*
X5188753Y-36611508D02*
X5179229Y-36621031D01*
X5179229Y-36621031D02*
X5169706Y-36640079D01*
X5169706Y-36640079D02*
X5169706Y-36687698D01*
X5169706Y-36687698D02*
X5179229Y-36706746D01*
X5179229Y-36706746D02*
X5188753Y-36716270D01*
X5188753Y-36716270D02*
X5207801Y-36725793D01*
X5207801Y-36725793D02*
X5245896Y-36725793D01*
X5245896Y-36725793D02*
X5264944Y-36716270D01*
X5264944Y-36716270D02*
X5274468Y-36706746D01*
X5274468Y-36706746D02*
X5283991Y-36687698D01*
X5398277Y-36687698D02*
X5379229Y-36678174D01*
X5379229Y-36678174D02*
X5369706Y-36668650D01*
X5369706Y-36668650D02*
X5360182Y-36649603D01*
X5360182Y-36649603D02*
X5360182Y-36640079D01*
X5360182Y-36640079D02*
X5369706Y-36621031D01*
X5369706Y-36621031D02*
X5379229Y-36611508D01*
X5379229Y-36611508D02*
X5398277Y-36601984D01*
X5398277Y-36601984D02*
X5436372Y-36601984D01*
X5436372Y-36601984D02*
X5455420Y-36611508D01*
X5455420Y-36611508D02*
X5464944Y-36621031D01*
X5464944Y-36621031D02*
X5474468Y-36640079D01*
X5474468Y-36640079D02*
X5474468Y-36649603D01*
X5474468Y-36649603D02*
X5464944Y-36668650D01*
X5464944Y-36668650D02*
X5455420Y-36678174D01*
X5455420Y-36678174D02*
X5436372Y-36687698D01*
X5436372Y-36687698D02*
X5398277Y-36687698D01*
X5398277Y-36687698D02*
X5379229Y-36697222D01*
X5379229Y-36697222D02*
X5369706Y-36706746D01*
X5369706Y-36706746D02*
X5360182Y-36725793D01*
X5360182Y-36725793D02*
X5360182Y-36763889D01*
X5360182Y-36763889D02*
X5369706Y-36782936D01*
X5369706Y-36782936D02*
X5379229Y-36792460D01*
X5379229Y-36792460D02*
X5398277Y-36801984D01*
X5398277Y-36801984D02*
X5436372Y-36801984D01*
X5436372Y-36801984D02*
X5455420Y-36792460D01*
X5455420Y-36792460D02*
X5464944Y-36782936D01*
X5464944Y-36782936D02*
X5474468Y-36763889D01*
X5474468Y-36763889D02*
X5474468Y-36725793D01*
X5474468Y-36725793D02*
X5464944Y-36706746D01*
X5464944Y-36706746D02*
X5455420Y-36697222D01*
X5455420Y-36697222D02*
X5436372Y-36687698D01*
X5645896Y-36668650D02*
X5645896Y-36801984D01*
X5598277Y-36592460D02*
X5550658Y-36735317D01*
X5550658Y-36735317D02*
X5674467Y-36735317D01*
X5741134Y-36601984D02*
X5741134Y-36640079D01*
X5817325Y-36601984D02*
X5817325Y-36640079D01*
X6112563Y-36878174D02*
X6103039Y-36868650D01*
X6103039Y-36868650D02*
X6083991Y-36840079D01*
X6083991Y-36840079D02*
X6074468Y-36821031D01*
X6074468Y-36821031D02*
X6064944Y-36792460D01*
X6064944Y-36792460D02*
X6055420Y-36744841D01*
X6055420Y-36744841D02*
X6055420Y-36706746D01*
X6055420Y-36706746D02*
X6064944Y-36659127D01*
X6064944Y-36659127D02*
X6074468Y-36630555D01*
X6074468Y-36630555D02*
X6083991Y-36611508D01*
X6083991Y-36611508D02*
X6103039Y-36582936D01*
X6103039Y-36582936D02*
X6112563Y-36573412D01*
X6179229Y-36621031D02*
X6188753Y-36611508D01*
X6188753Y-36611508D02*
X6207801Y-36601984D01*
X6207801Y-36601984D02*
X6255420Y-36601984D01*
X6255420Y-36601984D02*
X6274468Y-36611508D01*
X6274468Y-36611508D02*
X6283991Y-36621031D01*
X6283991Y-36621031D02*
X6293515Y-36640079D01*
X6293515Y-36640079D02*
X6293515Y-36659127D01*
X6293515Y-36659127D02*
X6283991Y-36687698D01*
X6283991Y-36687698D02*
X6169706Y-36801984D01*
X6169706Y-36801984D02*
X6293515Y-36801984D01*
X6531610Y-36801984D02*
X6531610Y-36601984D01*
X6617325Y-36801984D02*
X6617325Y-36697222D01*
X6617325Y-36697222D02*
X6607801Y-36678174D01*
X6607801Y-36678174D02*
X6588753Y-36668650D01*
X6588753Y-36668650D02*
X6560182Y-36668650D01*
X6560182Y-36668650D02*
X6541134Y-36678174D01*
X6541134Y-36678174D02*
X6531610Y-36687698D01*
X6741134Y-36801984D02*
X6722087Y-36792460D01*
X6722087Y-36792460D02*
X6712563Y-36782936D01*
X6712563Y-36782936D02*
X6703039Y-36763889D01*
X6703039Y-36763889D02*
X6703039Y-36706746D01*
X6703039Y-36706746D02*
X6712563Y-36687698D01*
X6712563Y-36687698D02*
X6722087Y-36678174D01*
X6722087Y-36678174D02*
X6741134Y-36668650D01*
X6741134Y-36668650D02*
X6769706Y-36668650D01*
X6769706Y-36668650D02*
X6788753Y-36678174D01*
X6788753Y-36678174D02*
X6798277Y-36687698D01*
X6798277Y-36687698D02*
X6807801Y-36706746D01*
X6807801Y-36706746D02*
X6807801Y-36763889D01*
X6807801Y-36763889D02*
X6798277Y-36782936D01*
X6798277Y-36782936D02*
X6788753Y-36792460D01*
X6788753Y-36792460D02*
X6769706Y-36801984D01*
X6769706Y-36801984D02*
X6741134Y-36801984D01*
X6922087Y-36801984D02*
X6903039Y-36792460D01*
X6903039Y-36792460D02*
X6893515Y-36773412D01*
X6893515Y-36773412D02*
X6893515Y-36601984D01*
X7074468Y-36792460D02*
X7055420Y-36801984D01*
X7055420Y-36801984D02*
X7017325Y-36801984D01*
X7017325Y-36801984D02*
X6998277Y-36792460D01*
X6998277Y-36792460D02*
X6988753Y-36773412D01*
X6988753Y-36773412D02*
X6988753Y-36697222D01*
X6988753Y-36697222D02*
X6998277Y-36678174D01*
X6998277Y-36678174D02*
X7017325Y-36668650D01*
X7017325Y-36668650D02*
X7055420Y-36668650D01*
X7055420Y-36668650D02*
X7074468Y-36678174D01*
X7074468Y-36678174D02*
X7083991Y-36697222D01*
X7083991Y-36697222D02*
X7083991Y-36716270D01*
X7083991Y-36716270D02*
X6988753Y-36735317D01*
X7160182Y-36792460D02*
X7179230Y-36801984D01*
X7179230Y-36801984D02*
X7217325Y-36801984D01*
X7217325Y-36801984D02*
X7236372Y-36792460D01*
X7236372Y-36792460D02*
X7245896Y-36773412D01*
X7245896Y-36773412D02*
X7245896Y-36763889D01*
X7245896Y-36763889D02*
X7236372Y-36744841D01*
X7236372Y-36744841D02*
X7217325Y-36735317D01*
X7217325Y-36735317D02*
X7188753Y-36735317D01*
X7188753Y-36735317D02*
X7169706Y-36725793D01*
X7169706Y-36725793D02*
X7160182Y-36706746D01*
X7160182Y-36706746D02*
X7160182Y-36697222D01*
X7160182Y-36697222D02*
X7169706Y-36678174D01*
X7169706Y-36678174D02*
X7188753Y-36668650D01*
X7188753Y-36668650D02*
X7217325Y-36668650D01*
X7217325Y-36668650D02*
X7236372Y-36678174D01*
X7312563Y-36878174D02*
X7322087Y-36868650D01*
X7322087Y-36868650D02*
X7341134Y-36840079D01*
X7341134Y-36840079D02*
X7350658Y-36821031D01*
X7350658Y-36821031D02*
X7360182Y-36792460D01*
X7360182Y-36792460D02*
X7369706Y-36744841D01*
X7369706Y-36744841D02*
X7369706Y-36706746D01*
X7369706Y-36706746D02*
X7360182Y-36659127D01*
X7360182Y-36659127D02*
X7350658Y-36630555D01*
X7350658Y-36630555D02*
X7341134Y-36611508D01*
X7341134Y-36611508D02*
X7322087Y-36582936D01*
X7322087Y-36582936D02*
X7312563Y-36573412D01*
X7674468Y-36878174D02*
X7664944Y-36868650D01*
X7664944Y-36868650D02*
X7645896Y-36840079D01*
X7645896Y-36840079D02*
X7636372Y-36821031D01*
X7636372Y-36821031D02*
X7626849Y-36792460D01*
X7626849Y-36792460D02*
X7617325Y-36744841D01*
X7617325Y-36744841D02*
X7617325Y-36706746D01*
X7617325Y-36706746D02*
X7626849Y-36659127D01*
X7626849Y-36659127D02*
X7636372Y-36630555D01*
X7636372Y-36630555D02*
X7645896Y-36611508D01*
X7645896Y-36611508D02*
X7664944Y-36582936D01*
X7664944Y-36582936D02*
X7674468Y-36573412D01*
X7750658Y-36668650D02*
X7750658Y-36801984D01*
X7750658Y-36687698D02*
X7760182Y-36678174D01*
X7760182Y-36678174D02*
X7779230Y-36668650D01*
X7779230Y-36668650D02*
X7807801Y-36668650D01*
X7807801Y-36668650D02*
X7826849Y-36678174D01*
X7826849Y-36678174D02*
X7836372Y-36697222D01*
X7836372Y-36697222D02*
X7836372Y-36801984D01*
X7960182Y-36801984D02*
X7941134Y-36792460D01*
X7941134Y-36792460D02*
X7931611Y-36782936D01*
X7931611Y-36782936D02*
X7922087Y-36763889D01*
X7922087Y-36763889D02*
X7922087Y-36706746D01*
X7922087Y-36706746D02*
X7931611Y-36687698D01*
X7931611Y-36687698D02*
X7941134Y-36678174D01*
X7941134Y-36678174D02*
X7960182Y-36668650D01*
X7960182Y-36668650D02*
X7988753Y-36668650D01*
X7988753Y-36668650D02*
X8007801Y-36678174D01*
X8007801Y-36678174D02*
X8017325Y-36687698D01*
X8017325Y-36687698D02*
X8026849Y-36706746D01*
X8026849Y-36706746D02*
X8026849Y-36763889D01*
X8026849Y-36763889D02*
X8017325Y-36782936D01*
X8017325Y-36782936D02*
X8007801Y-36792460D01*
X8007801Y-36792460D02*
X7988753Y-36801984D01*
X7988753Y-36801984D02*
X7960182Y-36801984D01*
X8083992Y-36668650D02*
X8160182Y-36668650D01*
X8112563Y-36601984D02*
X8112563Y-36773412D01*
X8112563Y-36773412D02*
X8122087Y-36792460D01*
X8122087Y-36792460D02*
X8141134Y-36801984D01*
X8141134Y-36801984D02*
X8160182Y-36801984D01*
X8379230Y-36668650D02*
X8379230Y-36868650D01*
X8379230Y-36678174D02*
X8398277Y-36668650D01*
X8398277Y-36668650D02*
X8436373Y-36668650D01*
X8436373Y-36668650D02*
X8455420Y-36678174D01*
X8455420Y-36678174D02*
X8464944Y-36687698D01*
X8464944Y-36687698D02*
X8474468Y-36706746D01*
X8474468Y-36706746D02*
X8474468Y-36763889D01*
X8474468Y-36763889D02*
X8464944Y-36782936D01*
X8464944Y-36782936D02*
X8455420Y-36792460D01*
X8455420Y-36792460D02*
X8436373Y-36801984D01*
X8436373Y-36801984D02*
X8398277Y-36801984D01*
X8398277Y-36801984D02*
X8379230Y-36792460D01*
X8588754Y-36801984D02*
X8569706Y-36792460D01*
X8569706Y-36792460D02*
X8560182Y-36773412D01*
X8560182Y-36773412D02*
X8560182Y-36601984D01*
X8750658Y-36801984D02*
X8750658Y-36697222D01*
X8750658Y-36697222D02*
X8741135Y-36678174D01*
X8741135Y-36678174D02*
X8722087Y-36668650D01*
X8722087Y-36668650D02*
X8683992Y-36668650D01*
X8683992Y-36668650D02*
X8664944Y-36678174D01*
X8750658Y-36792460D02*
X8731611Y-36801984D01*
X8731611Y-36801984D02*
X8683992Y-36801984D01*
X8683992Y-36801984D02*
X8664944Y-36792460D01*
X8664944Y-36792460D02*
X8655420Y-36773412D01*
X8655420Y-36773412D02*
X8655420Y-36754365D01*
X8655420Y-36754365D02*
X8664944Y-36735317D01*
X8664944Y-36735317D02*
X8683992Y-36725793D01*
X8683992Y-36725793D02*
X8731611Y-36725793D01*
X8731611Y-36725793D02*
X8750658Y-36716270D01*
X8817325Y-36668650D02*
X8893515Y-36668650D01*
X8845896Y-36601984D02*
X8845896Y-36773412D01*
X8845896Y-36773412D02*
X8855420Y-36792460D01*
X8855420Y-36792460D02*
X8874468Y-36801984D01*
X8874468Y-36801984D02*
X8893515Y-36801984D01*
X9036373Y-36792460D02*
X9017325Y-36801984D01*
X9017325Y-36801984D02*
X8979230Y-36801984D01*
X8979230Y-36801984D02*
X8960182Y-36792460D01*
X8960182Y-36792460D02*
X8950658Y-36773412D01*
X8950658Y-36773412D02*
X8950658Y-36697222D01*
X8950658Y-36697222D02*
X8960182Y-36678174D01*
X8960182Y-36678174D02*
X8979230Y-36668650D01*
X8979230Y-36668650D02*
X9017325Y-36668650D01*
X9017325Y-36668650D02*
X9036373Y-36678174D01*
X9036373Y-36678174D02*
X9045896Y-36697222D01*
X9045896Y-36697222D02*
X9045896Y-36716270D01*
X9045896Y-36716270D02*
X8950658Y-36735317D01*
X9217325Y-36801984D02*
X9217325Y-36601984D01*
X9217325Y-36792460D02*
X9198277Y-36801984D01*
X9198277Y-36801984D02*
X9160182Y-36801984D01*
X9160182Y-36801984D02*
X9141135Y-36792460D01*
X9141135Y-36792460D02*
X9131611Y-36782936D01*
X9131611Y-36782936D02*
X9122087Y-36763889D01*
X9122087Y-36763889D02*
X9122087Y-36706746D01*
X9122087Y-36706746D02*
X9131611Y-36687698D01*
X9131611Y-36687698D02*
X9141135Y-36678174D01*
X9141135Y-36678174D02*
X9160182Y-36668650D01*
X9160182Y-36668650D02*
X9198277Y-36668650D01*
X9198277Y-36668650D02*
X9217325Y-36678174D01*
X9293516Y-36878174D02*
X9303039Y-36868650D01*
X9303039Y-36868650D02*
X9322087Y-36840079D01*
X9322087Y-36840079D02*
X9331611Y-36821031D01*
X9331611Y-36821031D02*
X9341135Y-36792460D01*
X9341135Y-36792460D02*
X9350658Y-36744841D01*
X9350658Y-36744841D02*
X9350658Y-36706746D01*
X9350658Y-36706746D02*
X9341135Y-36659127D01*
X9341135Y-36659127D02*
X9331611Y-36630555D01*
X9331611Y-36630555D02*
X9322087Y-36611508D01*
X9322087Y-36611508D02*
X9303039Y-36582936D01*
X9303039Y-36582936D02*
X9293516Y-36573412D01*
X2537500Y-37030500D02*
G75*
G02*
X2337500Y-37030500I-100000J0D01*
G01*
X2337500Y-37030500D02*
G75*
G02*
X2537500Y-37030500I100000J0D01*
G01*
X2883991Y-36988650D02*
X2883991Y-37121984D01*
X2836372Y-36912460D02*
X2788753Y-37055317D01*
X2788753Y-37055317D02*
X2912562Y-37055317D01*
X2988753Y-37102936D02*
X2998277Y-37112460D01*
X2998277Y-37112460D02*
X2988753Y-37121984D01*
X2988753Y-37121984D02*
X2979229Y-37112460D01*
X2979229Y-37112460D02*
X2988753Y-37102936D01*
X2988753Y-37102936D02*
X2988753Y-37121984D01*
X3122086Y-36921984D02*
X3141134Y-36921984D01*
X3141134Y-36921984D02*
X3160182Y-36931508D01*
X3160182Y-36931508D02*
X3169705Y-36941031D01*
X3169705Y-36941031D02*
X3179229Y-36960079D01*
X3179229Y-36960079D02*
X3188753Y-36998174D01*
X3188753Y-36998174D02*
X3188753Y-37045793D01*
X3188753Y-37045793D02*
X3179229Y-37083889D01*
X3179229Y-37083889D02*
X3169705Y-37102936D01*
X3169705Y-37102936D02*
X3160182Y-37112460D01*
X3160182Y-37112460D02*
X3141134Y-37121984D01*
X3141134Y-37121984D02*
X3122086Y-37121984D01*
X3122086Y-37121984D02*
X3103039Y-37112460D01*
X3103039Y-37112460D02*
X3093515Y-37102936D01*
X3093515Y-37102936D02*
X3083991Y-37083889D01*
X3083991Y-37083889D02*
X3074467Y-37045793D01*
X3074467Y-37045793D02*
X3074467Y-36998174D01*
X3074467Y-36998174D02*
X3083991Y-36960079D01*
X3083991Y-36960079D02*
X3093515Y-36941031D01*
X3093515Y-36941031D02*
X3103039Y-36931508D01*
X3103039Y-36931508D02*
X3122086Y-36921984D01*
X3312562Y-36921984D02*
X3331610Y-36921984D01*
X3331610Y-36921984D02*
X3350658Y-36931508D01*
X3350658Y-36931508D02*
X3360182Y-36941031D01*
X3360182Y-36941031D02*
X3369705Y-36960079D01*
X3369705Y-36960079D02*
X3379229Y-36998174D01*
X3379229Y-36998174D02*
X3379229Y-37045793D01*
X3379229Y-37045793D02*
X3369705Y-37083889D01*
X3369705Y-37083889D02*
X3360182Y-37102936D01*
X3360182Y-37102936D02*
X3350658Y-37112460D01*
X3350658Y-37112460D02*
X3331610Y-37121984D01*
X3331610Y-37121984D02*
X3312562Y-37121984D01*
X3312562Y-37121984D02*
X3293515Y-37112460D01*
X3293515Y-37112460D02*
X3283991Y-37102936D01*
X3283991Y-37102936D02*
X3274467Y-37083889D01*
X3274467Y-37083889D02*
X3264943Y-37045793D01*
X3264943Y-37045793D02*
X3264943Y-36998174D01*
X3264943Y-36998174D02*
X3274467Y-36960079D01*
X3274467Y-36960079D02*
X3283991Y-36941031D01*
X3283991Y-36941031D02*
X3293515Y-36931508D01*
X3293515Y-36931508D02*
X3312562Y-36921984D01*
X3503039Y-36921984D02*
X3522086Y-36921984D01*
X3522086Y-36921984D02*
X3541134Y-36931508D01*
X3541134Y-36931508D02*
X3550658Y-36941031D01*
X3550658Y-36941031D02*
X3560182Y-36960079D01*
X3560182Y-36960079D02*
X3569705Y-36998174D01*
X3569705Y-36998174D02*
X3569705Y-37045793D01*
X3569705Y-37045793D02*
X3560182Y-37083889D01*
X3560182Y-37083889D02*
X3550658Y-37102936D01*
X3550658Y-37102936D02*
X3541134Y-37112460D01*
X3541134Y-37112460D02*
X3522086Y-37121984D01*
X3522086Y-37121984D02*
X3503039Y-37121984D01*
X3503039Y-37121984D02*
X3483991Y-37112460D01*
X3483991Y-37112460D02*
X3474467Y-37102936D01*
X3474467Y-37102936D02*
X3464943Y-37083889D01*
X3464943Y-37083889D02*
X3455420Y-37045793D01*
X3455420Y-37045793D02*
X3455420Y-36998174D01*
X3455420Y-36998174D02*
X3464943Y-36960079D01*
X3464943Y-36960079D02*
X3474467Y-36941031D01*
X3474467Y-36941031D02*
X3483991Y-36931508D01*
X3483991Y-36931508D02*
X3503039Y-36921984D01*
X3655420Y-37121984D02*
X3655420Y-36988650D01*
X3655420Y-37007698D02*
X3664943Y-36998174D01*
X3664943Y-36998174D02*
X3683991Y-36988650D01*
X3683991Y-36988650D02*
X3712563Y-36988650D01*
X3712563Y-36988650D02*
X3731610Y-36998174D01*
X3731610Y-36998174D02*
X3741134Y-37017222D01*
X3741134Y-37017222D02*
X3741134Y-37121984D01*
X3741134Y-37017222D02*
X3750658Y-36998174D01*
X3750658Y-36998174D02*
X3769705Y-36988650D01*
X3769705Y-36988650D02*
X3798277Y-36988650D01*
X3798277Y-36988650D02*
X3817324Y-36998174D01*
X3817324Y-36998174D02*
X3826848Y-37017222D01*
X3826848Y-37017222D02*
X3826848Y-37121984D01*
X3922086Y-37121984D02*
X3922086Y-36988650D01*
X3922086Y-37007698D02*
X3931610Y-36998174D01*
X3931610Y-36998174D02*
X3950658Y-36988650D01*
X3950658Y-36988650D02*
X3979229Y-36988650D01*
X3979229Y-36988650D02*
X3998277Y-36998174D01*
X3998277Y-36998174D02*
X4007801Y-37017222D01*
X4007801Y-37017222D02*
X4007801Y-37121984D01*
X4007801Y-37017222D02*
X4017324Y-36998174D01*
X4017324Y-36998174D02*
X4036372Y-36988650D01*
X4036372Y-36988650D02*
X4064943Y-36988650D01*
X4064943Y-36988650D02*
X4083991Y-36998174D01*
X4083991Y-36998174D02*
X4093515Y-37017222D01*
X4093515Y-37017222D02*
X4093515Y-37121984D01*
X4483991Y-36912460D02*
X4312563Y-37169603D01*
X4741134Y-36921984D02*
X4760182Y-36921984D01*
X4760182Y-36921984D02*
X4779229Y-36931508D01*
X4779229Y-36931508D02*
X4788753Y-36941031D01*
X4788753Y-36941031D02*
X4798277Y-36960079D01*
X4798277Y-36960079D02*
X4807801Y-36998174D01*
X4807801Y-36998174D02*
X4807801Y-37045793D01*
X4807801Y-37045793D02*
X4798277Y-37083889D01*
X4798277Y-37083889D02*
X4788753Y-37102936D01*
X4788753Y-37102936D02*
X4779229Y-37112460D01*
X4779229Y-37112460D02*
X4760182Y-37121984D01*
X4760182Y-37121984D02*
X4741134Y-37121984D01*
X4741134Y-37121984D02*
X4722087Y-37112460D01*
X4722087Y-37112460D02*
X4712563Y-37102936D01*
X4712563Y-37102936D02*
X4703039Y-37083889D01*
X4703039Y-37083889D02*
X4693515Y-37045793D01*
X4693515Y-37045793D02*
X4693515Y-36998174D01*
X4693515Y-36998174D02*
X4703039Y-36960079D01*
X4703039Y-36960079D02*
X4712563Y-36941031D01*
X4712563Y-36941031D02*
X4722087Y-36931508D01*
X4722087Y-36931508D02*
X4741134Y-36921984D01*
X4893515Y-37102936D02*
X4903039Y-37112460D01*
X4903039Y-37112460D02*
X4893515Y-37121984D01*
X4893515Y-37121984D02*
X4883991Y-37112460D01*
X4883991Y-37112460D02*
X4893515Y-37102936D01*
X4893515Y-37102936D02*
X4893515Y-37121984D01*
X5093515Y-37121984D02*
X4979229Y-37121984D01*
X5036372Y-37121984D02*
X5036372Y-36921984D01*
X5036372Y-36921984D02*
X5017325Y-36950555D01*
X5017325Y-36950555D02*
X4998277Y-36969603D01*
X4998277Y-36969603D02*
X4979229Y-36979127D01*
X5274468Y-36921984D02*
X5179229Y-36921984D01*
X5179229Y-36921984D02*
X5169706Y-37017222D01*
X5169706Y-37017222D02*
X5179229Y-37007698D01*
X5179229Y-37007698D02*
X5198277Y-36998174D01*
X5198277Y-36998174D02*
X5245896Y-36998174D01*
X5245896Y-36998174D02*
X5264944Y-37007698D01*
X5264944Y-37007698D02*
X5274468Y-37017222D01*
X5274468Y-37017222D02*
X5283991Y-37036270D01*
X5283991Y-37036270D02*
X5283991Y-37083889D01*
X5283991Y-37083889D02*
X5274468Y-37102936D01*
X5274468Y-37102936D02*
X5264944Y-37112460D01*
X5264944Y-37112460D02*
X5245896Y-37121984D01*
X5245896Y-37121984D02*
X5198277Y-37121984D01*
X5198277Y-37121984D02*
X5179229Y-37112460D01*
X5179229Y-37112460D02*
X5169706Y-37102936D01*
X5350658Y-36921984D02*
X5483991Y-36921984D01*
X5483991Y-36921984D02*
X5398277Y-37121984D01*
X5655420Y-36921984D02*
X5560182Y-36921984D01*
X5560182Y-36921984D02*
X5550658Y-37017222D01*
X5550658Y-37017222D02*
X5560182Y-37007698D01*
X5560182Y-37007698D02*
X5579229Y-36998174D01*
X5579229Y-36998174D02*
X5626848Y-36998174D01*
X5626848Y-36998174D02*
X5645896Y-37007698D01*
X5645896Y-37007698D02*
X5655420Y-37017222D01*
X5655420Y-37017222D02*
X5664944Y-37036270D01*
X5664944Y-37036270D02*
X5664944Y-37083889D01*
X5664944Y-37083889D02*
X5655420Y-37102936D01*
X5655420Y-37102936D02*
X5645896Y-37112460D01*
X5645896Y-37112460D02*
X5626848Y-37121984D01*
X5626848Y-37121984D02*
X5579229Y-37121984D01*
X5579229Y-37121984D02*
X5560182Y-37112460D01*
X5560182Y-37112460D02*
X5550658Y-37102936D01*
X5741134Y-36921984D02*
X5741134Y-36960079D01*
X5817325Y-36921984D02*
X5817325Y-36960079D01*
X6112563Y-37198174D02*
X6103039Y-37188650D01*
X6103039Y-37188650D02*
X6083991Y-37160079D01*
X6083991Y-37160079D02*
X6074468Y-37141031D01*
X6074468Y-37141031D02*
X6064944Y-37112460D01*
X6064944Y-37112460D02*
X6055420Y-37064841D01*
X6055420Y-37064841D02*
X6055420Y-37026746D01*
X6055420Y-37026746D02*
X6064944Y-36979127D01*
X6064944Y-36979127D02*
X6074468Y-36950555D01*
X6074468Y-36950555D02*
X6083991Y-36931508D01*
X6083991Y-36931508D02*
X6103039Y-36902936D01*
X6103039Y-36902936D02*
X6112563Y-36893412D01*
X6179229Y-36941031D02*
X6188753Y-36931508D01*
X6188753Y-36931508D02*
X6207801Y-36921984D01*
X6207801Y-36921984D02*
X6255420Y-36921984D01*
X6255420Y-36921984D02*
X6274468Y-36931508D01*
X6274468Y-36931508D02*
X6283991Y-36941031D01*
X6283991Y-36941031D02*
X6293515Y-36960079D01*
X6293515Y-36960079D02*
X6293515Y-36979127D01*
X6293515Y-36979127D02*
X6283991Y-37007698D01*
X6283991Y-37007698D02*
X6169706Y-37121984D01*
X6169706Y-37121984D02*
X6293515Y-37121984D01*
X6531610Y-37121984D02*
X6531610Y-36921984D01*
X6617325Y-37121984D02*
X6617325Y-37017222D01*
X6617325Y-37017222D02*
X6607801Y-36998174D01*
X6607801Y-36998174D02*
X6588753Y-36988650D01*
X6588753Y-36988650D02*
X6560182Y-36988650D01*
X6560182Y-36988650D02*
X6541134Y-36998174D01*
X6541134Y-36998174D02*
X6531610Y-37007698D01*
X6741134Y-37121984D02*
X6722087Y-37112460D01*
X6722087Y-37112460D02*
X6712563Y-37102936D01*
X6712563Y-37102936D02*
X6703039Y-37083889D01*
X6703039Y-37083889D02*
X6703039Y-37026746D01*
X6703039Y-37026746D02*
X6712563Y-37007698D01*
X6712563Y-37007698D02*
X6722087Y-36998174D01*
X6722087Y-36998174D02*
X6741134Y-36988650D01*
X6741134Y-36988650D02*
X6769706Y-36988650D01*
X6769706Y-36988650D02*
X6788753Y-36998174D01*
X6788753Y-36998174D02*
X6798277Y-37007698D01*
X6798277Y-37007698D02*
X6807801Y-37026746D01*
X6807801Y-37026746D02*
X6807801Y-37083889D01*
X6807801Y-37083889D02*
X6798277Y-37102936D01*
X6798277Y-37102936D02*
X6788753Y-37112460D01*
X6788753Y-37112460D02*
X6769706Y-37121984D01*
X6769706Y-37121984D02*
X6741134Y-37121984D01*
X6922087Y-37121984D02*
X6903039Y-37112460D01*
X6903039Y-37112460D02*
X6893515Y-37093412D01*
X6893515Y-37093412D02*
X6893515Y-36921984D01*
X7074468Y-37112460D02*
X7055420Y-37121984D01*
X7055420Y-37121984D02*
X7017325Y-37121984D01*
X7017325Y-37121984D02*
X6998277Y-37112460D01*
X6998277Y-37112460D02*
X6988753Y-37093412D01*
X6988753Y-37093412D02*
X6988753Y-37017222D01*
X6988753Y-37017222D02*
X6998277Y-36998174D01*
X6998277Y-36998174D02*
X7017325Y-36988650D01*
X7017325Y-36988650D02*
X7055420Y-36988650D01*
X7055420Y-36988650D02*
X7074468Y-36998174D01*
X7074468Y-36998174D02*
X7083991Y-37017222D01*
X7083991Y-37017222D02*
X7083991Y-37036270D01*
X7083991Y-37036270D02*
X6988753Y-37055317D01*
X7160182Y-37112460D02*
X7179230Y-37121984D01*
X7179230Y-37121984D02*
X7217325Y-37121984D01*
X7217325Y-37121984D02*
X7236372Y-37112460D01*
X7236372Y-37112460D02*
X7245896Y-37093412D01*
X7245896Y-37093412D02*
X7245896Y-37083889D01*
X7245896Y-37083889D02*
X7236372Y-37064841D01*
X7236372Y-37064841D02*
X7217325Y-37055317D01*
X7217325Y-37055317D02*
X7188753Y-37055317D01*
X7188753Y-37055317D02*
X7169706Y-37045793D01*
X7169706Y-37045793D02*
X7160182Y-37026746D01*
X7160182Y-37026746D02*
X7160182Y-37017222D01*
X7160182Y-37017222D02*
X7169706Y-36998174D01*
X7169706Y-36998174D02*
X7188753Y-36988650D01*
X7188753Y-36988650D02*
X7217325Y-36988650D01*
X7217325Y-36988650D02*
X7236372Y-36998174D01*
X7312563Y-37198174D02*
X7322087Y-37188650D01*
X7322087Y-37188650D02*
X7341134Y-37160079D01*
X7341134Y-37160079D02*
X7350658Y-37141031D01*
X7350658Y-37141031D02*
X7360182Y-37112460D01*
X7360182Y-37112460D02*
X7369706Y-37064841D01*
X7369706Y-37064841D02*
X7369706Y-37026746D01*
X7369706Y-37026746D02*
X7360182Y-36979127D01*
X7360182Y-36979127D02*
X7350658Y-36950555D01*
X7350658Y-36950555D02*
X7341134Y-36931508D01*
X7341134Y-36931508D02*
X7322087Y-36902936D01*
X7322087Y-36902936D02*
X7312563Y-36893412D01*
X7674468Y-37198174D02*
X7664944Y-37188650D01*
X7664944Y-37188650D02*
X7645896Y-37160079D01*
X7645896Y-37160079D02*
X7636372Y-37141031D01*
X7636372Y-37141031D02*
X7626849Y-37112460D01*
X7626849Y-37112460D02*
X7617325Y-37064841D01*
X7617325Y-37064841D02*
X7617325Y-37026746D01*
X7617325Y-37026746D02*
X7626849Y-36979127D01*
X7626849Y-36979127D02*
X7636372Y-36950555D01*
X7636372Y-36950555D02*
X7645896Y-36931508D01*
X7645896Y-36931508D02*
X7664944Y-36902936D01*
X7664944Y-36902936D02*
X7674468Y-36893412D01*
X7750658Y-36988650D02*
X7750658Y-37121984D01*
X7750658Y-37007698D02*
X7760182Y-36998174D01*
X7760182Y-36998174D02*
X7779230Y-36988650D01*
X7779230Y-36988650D02*
X7807801Y-36988650D01*
X7807801Y-36988650D02*
X7826849Y-36998174D01*
X7826849Y-36998174D02*
X7836372Y-37017222D01*
X7836372Y-37017222D02*
X7836372Y-37121984D01*
X7960182Y-37121984D02*
X7941134Y-37112460D01*
X7941134Y-37112460D02*
X7931611Y-37102936D01*
X7931611Y-37102936D02*
X7922087Y-37083889D01*
X7922087Y-37083889D02*
X7922087Y-37026746D01*
X7922087Y-37026746D02*
X7931611Y-37007698D01*
X7931611Y-37007698D02*
X7941134Y-36998174D01*
X7941134Y-36998174D02*
X7960182Y-36988650D01*
X7960182Y-36988650D02*
X7988753Y-36988650D01*
X7988753Y-36988650D02*
X8007801Y-36998174D01*
X8007801Y-36998174D02*
X8017325Y-37007698D01*
X8017325Y-37007698D02*
X8026849Y-37026746D01*
X8026849Y-37026746D02*
X8026849Y-37083889D01*
X8026849Y-37083889D02*
X8017325Y-37102936D01*
X8017325Y-37102936D02*
X8007801Y-37112460D01*
X8007801Y-37112460D02*
X7988753Y-37121984D01*
X7988753Y-37121984D02*
X7960182Y-37121984D01*
X8083992Y-36988650D02*
X8160182Y-36988650D01*
X8112563Y-36921984D02*
X8112563Y-37093412D01*
X8112563Y-37093412D02*
X8122087Y-37112460D01*
X8122087Y-37112460D02*
X8141134Y-37121984D01*
X8141134Y-37121984D02*
X8160182Y-37121984D01*
X8379230Y-36988650D02*
X8379230Y-37188650D01*
X8379230Y-36998174D02*
X8398277Y-36988650D01*
X8398277Y-36988650D02*
X8436373Y-36988650D01*
X8436373Y-36988650D02*
X8455420Y-36998174D01*
X8455420Y-36998174D02*
X8464944Y-37007698D01*
X8464944Y-37007698D02*
X8474468Y-37026746D01*
X8474468Y-37026746D02*
X8474468Y-37083889D01*
X8474468Y-37083889D02*
X8464944Y-37102936D01*
X8464944Y-37102936D02*
X8455420Y-37112460D01*
X8455420Y-37112460D02*
X8436373Y-37121984D01*
X8436373Y-37121984D02*
X8398277Y-37121984D01*
X8398277Y-37121984D02*
X8379230Y-37112460D01*
X8588754Y-37121984D02*
X8569706Y-37112460D01*
X8569706Y-37112460D02*
X8560182Y-37093412D01*
X8560182Y-37093412D02*
X8560182Y-36921984D01*
X8750658Y-37121984D02*
X8750658Y-37017222D01*
X8750658Y-37017222D02*
X8741135Y-36998174D01*
X8741135Y-36998174D02*
X8722087Y-36988650D01*
X8722087Y-36988650D02*
X8683992Y-36988650D01*
X8683992Y-36988650D02*
X8664944Y-36998174D01*
X8750658Y-37112460D02*
X8731611Y-37121984D01*
X8731611Y-37121984D02*
X8683992Y-37121984D01*
X8683992Y-37121984D02*
X8664944Y-37112460D01*
X8664944Y-37112460D02*
X8655420Y-37093412D01*
X8655420Y-37093412D02*
X8655420Y-37074365D01*
X8655420Y-37074365D02*
X8664944Y-37055317D01*
X8664944Y-37055317D02*
X8683992Y-37045793D01*
X8683992Y-37045793D02*
X8731611Y-37045793D01*
X8731611Y-37045793D02*
X8750658Y-37036270D01*
X8817325Y-36988650D02*
X8893515Y-36988650D01*
X8845896Y-36921984D02*
X8845896Y-37093412D01*
X8845896Y-37093412D02*
X8855420Y-37112460D01*
X8855420Y-37112460D02*
X8874468Y-37121984D01*
X8874468Y-37121984D02*
X8893515Y-37121984D01*
X9036373Y-37112460D02*
X9017325Y-37121984D01*
X9017325Y-37121984D02*
X8979230Y-37121984D01*
X8979230Y-37121984D02*
X8960182Y-37112460D01*
X8960182Y-37112460D02*
X8950658Y-37093412D01*
X8950658Y-37093412D02*
X8950658Y-37017222D01*
X8950658Y-37017222D02*
X8960182Y-36998174D01*
X8960182Y-36998174D02*
X8979230Y-36988650D01*
X8979230Y-36988650D02*
X9017325Y-36988650D01*
X9017325Y-36988650D02*
X9036373Y-36998174D01*
X9036373Y-36998174D02*
X9045896Y-37017222D01*
X9045896Y-37017222D02*
X9045896Y-37036270D01*
X9045896Y-37036270D02*
X8950658Y-37055317D01*
X9217325Y-37121984D02*
X9217325Y-36921984D01*
X9217325Y-37112460D02*
X9198277Y-37121984D01*
X9198277Y-37121984D02*
X9160182Y-37121984D01*
X9160182Y-37121984D02*
X9141135Y-37112460D01*
X9141135Y-37112460D02*
X9131611Y-37102936D01*
X9131611Y-37102936D02*
X9122087Y-37083889D01*
X9122087Y-37083889D02*
X9122087Y-37026746D01*
X9122087Y-37026746D02*
X9131611Y-37007698D01*
X9131611Y-37007698D02*
X9141135Y-36998174D01*
X9141135Y-36998174D02*
X9160182Y-36988650D01*
X9160182Y-36988650D02*
X9198277Y-36988650D01*
X9198277Y-36988650D02*
X9217325Y-36998174D01*
X9293516Y-37198174D02*
X9303039Y-37188650D01*
X9303039Y-37188650D02*
X9322087Y-37160079D01*
X9322087Y-37160079D02*
X9331611Y-37141031D01*
X9331611Y-37141031D02*
X9341135Y-37112460D01*
X9341135Y-37112460D02*
X9350658Y-37064841D01*
X9350658Y-37064841D02*
X9350658Y-37026746D01*
X9350658Y-37026746D02*
X9341135Y-36979127D01*
X9341135Y-36979127D02*
X9331611Y-36950555D01*
X9331611Y-36950555D02*
X9322087Y-36931508D01*
X9322087Y-36931508D02*
X9303039Y-36902936D01*
X9303039Y-36902936D02*
X9293516Y-36893412D01*
M02*
