%TF.GenerationSoftware,KiCad,Pcbnew,(5.1.6-0)*%
%TF.CreationDate,2023-03-06T10:11:25+01:00*%
%TF.ProjectId,A500KB,41353030-4b42-42e6-9b69-6361645f7063,3*%
%TF.SameCoordinates,Original*%
%TF.FileFunction,Soldermask,Top*%
%TF.FilePolarity,Negative*%
%FSLAX46Y46*%
G04 Gerber Fmt 4.6, Leading zero omitted, Abs format (unit mm)*
G04 Created by KiCad (PCBNEW (5.1.6-0)) date 2023-03-06 10:11:25*
%MOMM*%
%LPD*%
G01*
G04 APERTURE LIST*
%ADD10C,4.400000*%
%ADD11R,0.900000X2.100000*%
%ADD12C,2.600000*%
%ADD13C,3.300000*%
%ADD14O,1.300000X2.000000*%
%ADD15C,1.550000*%
%ADD16R,1.000000X0.900000*%
%ADD17R,5.100000X5.100000*%
%ADD18C,1.600000*%
%ADD19R,1.600000X1.600000*%
%ADD20O,1.800000X1.800000*%
%ADD21R,1.800000X1.800000*%
%ADD22R,1.800000X2.500000*%
%ADD23R,0.650000X1.600000*%
%ADD24R,1.600000X0.650000*%
%ADD25C,1.700000*%
G04 APERTURE END LIST*
D10*
%TO.C,H26*%
X386402580Y-226021900D03*
%TD*%
D11*
%TO.C,D51*%
X451383400Y-240737500D03*
X451383400Y-246137500D03*
X452783400Y-246137500D03*
X452783400Y-240737500D03*
%TD*%
D12*
%TO.C,H25*%
X465376260Y-238102140D03*
%TD*%
%TO.C,H24*%
X445394080Y-257342640D03*
%TD*%
D13*
%TO.C,H23*%
X312681620Y-258340860D03*
%TD*%
%TO.C,H22*%
X462699100Y-258343400D03*
%TD*%
D14*
%TO.C,J2*%
X323450000Y-224150000D03*
X316450000Y-224150000D03*
D15*
X322450000Y-226850000D03*
X317450000Y-226850000D03*
%TD*%
%TO.C,R16*%
G36*
G01*
X360407478Y-229209440D02*
X361364002Y-229209440D01*
G75*
G02*
X361635740Y-229481178I0J-271738D01*
G01*
X361635740Y-230187702D01*
G75*
G02*
X361364002Y-230459440I-271738J0D01*
G01*
X360407478Y-230459440D01*
G75*
G02*
X360135740Y-230187702I0J271738D01*
G01*
X360135740Y-229481178D01*
G75*
G02*
X360407478Y-229209440I271738J0D01*
G01*
G37*
G36*
G01*
X360407478Y-227159440D02*
X361364002Y-227159440D01*
G75*
G02*
X361635740Y-227431178I0J-271738D01*
G01*
X361635740Y-228137702D01*
G75*
G02*
X361364002Y-228409440I-271738J0D01*
G01*
X360407478Y-228409440D01*
G75*
G02*
X360135740Y-228137702I0J271738D01*
G01*
X360135740Y-227431178D01*
G75*
G02*
X360407478Y-227159440I271738J0D01*
G01*
G37*
%TD*%
%TO.C,R15*%
G36*
G01*
X363633278Y-229232520D02*
X364589802Y-229232520D01*
G75*
G02*
X364861540Y-229504258I0J-271738D01*
G01*
X364861540Y-230210782D01*
G75*
G02*
X364589802Y-230482520I-271738J0D01*
G01*
X363633278Y-230482520D01*
G75*
G02*
X363361540Y-230210782I0J271738D01*
G01*
X363361540Y-229504258D01*
G75*
G02*
X363633278Y-229232520I271738J0D01*
G01*
G37*
G36*
G01*
X363633278Y-227182520D02*
X364589802Y-227182520D01*
G75*
G02*
X364861540Y-227454258I0J-271738D01*
G01*
X364861540Y-228160782D01*
G75*
G02*
X364589802Y-228432520I-271738J0D01*
G01*
X363633278Y-228432520D01*
G75*
G02*
X363361540Y-228160782I0J271738D01*
G01*
X363361540Y-227454258D01*
G75*
G02*
X363633278Y-227182520I271738J0D01*
G01*
G37*
%TD*%
%TO.C,R14*%
G36*
G01*
X407698000Y-242032262D02*
X407698000Y-241075738D01*
G75*
G02*
X407969738Y-240804000I271738J0D01*
G01*
X408676262Y-240804000D01*
G75*
G02*
X408948000Y-241075738I0J-271738D01*
G01*
X408948000Y-242032262D01*
G75*
G02*
X408676262Y-242304000I-271738J0D01*
G01*
X407969738Y-242304000D01*
G75*
G02*
X407698000Y-242032262I0J271738D01*
G01*
G37*
G36*
G01*
X405648000Y-242032262D02*
X405648000Y-241075738D01*
G75*
G02*
X405919738Y-240804000I271738J0D01*
G01*
X406626262Y-240804000D01*
G75*
G02*
X406898000Y-241075738I0J-271738D01*
G01*
X406898000Y-242032262D01*
G75*
G02*
X406626262Y-242304000I-271738J0D01*
G01*
X405919738Y-242304000D01*
G75*
G02*
X405648000Y-242032262I0J271738D01*
G01*
G37*
%TD*%
%TO.C,R13*%
G36*
G01*
X413522000Y-242032262D02*
X413522000Y-241075738D01*
G75*
G02*
X413793738Y-240804000I271738J0D01*
G01*
X414500262Y-240804000D01*
G75*
G02*
X414772000Y-241075738I0J-271738D01*
G01*
X414772000Y-242032262D01*
G75*
G02*
X414500262Y-242304000I-271738J0D01*
G01*
X413793738Y-242304000D01*
G75*
G02*
X413522000Y-242032262I0J271738D01*
G01*
G37*
G36*
G01*
X411472000Y-242032262D02*
X411472000Y-241075738D01*
G75*
G02*
X411743738Y-240804000I271738J0D01*
G01*
X412450262Y-240804000D01*
G75*
G02*
X412722000Y-241075738I0J-271738D01*
G01*
X412722000Y-242032262D01*
G75*
G02*
X412450262Y-242304000I-271738J0D01*
G01*
X411743738Y-242304000D01*
G75*
G02*
X411472000Y-242032262I0J271738D01*
G01*
G37*
%TD*%
%TO.C,R12*%
G36*
G01*
X418963000Y-229391738D02*
X418963000Y-230348262D01*
G75*
G02*
X418691262Y-230620000I-271738J0D01*
G01*
X417984738Y-230620000D01*
G75*
G02*
X417713000Y-230348262I0J271738D01*
G01*
X417713000Y-229391738D01*
G75*
G02*
X417984738Y-229120000I271738J0D01*
G01*
X418691262Y-229120000D01*
G75*
G02*
X418963000Y-229391738I0J-271738D01*
G01*
G37*
G36*
G01*
X421013000Y-229391738D02*
X421013000Y-230348262D01*
G75*
G02*
X420741262Y-230620000I-271738J0D01*
G01*
X420034738Y-230620000D01*
G75*
G02*
X419763000Y-230348262I0J271738D01*
G01*
X419763000Y-229391738D01*
G75*
G02*
X420034738Y-229120000I271738J0D01*
G01*
X420741262Y-229120000D01*
G75*
G02*
X421013000Y-229391738I0J-271738D01*
G01*
G37*
%TD*%
%TO.C,R11*%
G36*
G01*
X363503738Y-236865000D02*
X364460262Y-236865000D01*
G75*
G02*
X364732000Y-237136738I0J-271738D01*
G01*
X364732000Y-237843262D01*
G75*
G02*
X364460262Y-238115000I-271738J0D01*
G01*
X363503738Y-238115000D01*
G75*
G02*
X363232000Y-237843262I0J271738D01*
G01*
X363232000Y-237136738D01*
G75*
G02*
X363503738Y-236865000I271738J0D01*
G01*
G37*
G36*
G01*
X363503738Y-234815000D02*
X364460262Y-234815000D01*
G75*
G02*
X364732000Y-235086738I0J-271738D01*
G01*
X364732000Y-235793262D01*
G75*
G02*
X364460262Y-236065000I-271738J0D01*
G01*
X363503738Y-236065000D01*
G75*
G02*
X363232000Y-235793262I0J271738D01*
G01*
X363232000Y-235086738D01*
G75*
G02*
X363503738Y-234815000I271738J0D01*
G01*
G37*
%TD*%
%TO.C,R10*%
G36*
G01*
X361217738Y-236874000D02*
X362174262Y-236874000D01*
G75*
G02*
X362446000Y-237145738I0J-271738D01*
G01*
X362446000Y-237852262D01*
G75*
G02*
X362174262Y-238124000I-271738J0D01*
G01*
X361217738Y-238124000D01*
G75*
G02*
X360946000Y-237852262I0J271738D01*
G01*
X360946000Y-237145738D01*
G75*
G02*
X361217738Y-236874000I271738J0D01*
G01*
G37*
G36*
G01*
X361217738Y-234824000D02*
X362174262Y-234824000D01*
G75*
G02*
X362446000Y-235095738I0J-271738D01*
G01*
X362446000Y-235802262D01*
G75*
G02*
X362174262Y-236074000I-271738J0D01*
G01*
X361217738Y-236074000D01*
G75*
G02*
X360946000Y-235802262I0J271738D01*
G01*
X360946000Y-235095738D01*
G75*
G02*
X361217738Y-234824000I271738J0D01*
G01*
G37*
%TD*%
%TO.C,R9*%
G36*
G01*
X418954000Y-231931738D02*
X418954000Y-232888262D01*
G75*
G02*
X418682262Y-233160000I-271738J0D01*
G01*
X417975738Y-233160000D01*
G75*
G02*
X417704000Y-232888262I0J271738D01*
G01*
X417704000Y-231931738D01*
G75*
G02*
X417975738Y-231660000I271738J0D01*
G01*
X418682262Y-231660000D01*
G75*
G02*
X418954000Y-231931738I0J-271738D01*
G01*
G37*
G36*
G01*
X421004000Y-231931738D02*
X421004000Y-232888262D01*
G75*
G02*
X420732262Y-233160000I-271738J0D01*
G01*
X420025738Y-233160000D01*
G75*
G02*
X419754000Y-232888262I0J271738D01*
G01*
X419754000Y-231931738D01*
G75*
G02*
X420025738Y-231660000I271738J0D01*
G01*
X420732262Y-231660000D01*
G75*
G02*
X421004000Y-231931738I0J-271738D01*
G01*
G37*
%TD*%
%TO.C,R8*%
G36*
G01*
X418954000Y-234471738D02*
X418954000Y-235428262D01*
G75*
G02*
X418682262Y-235700000I-271738J0D01*
G01*
X417975738Y-235700000D01*
G75*
G02*
X417704000Y-235428262I0J271738D01*
G01*
X417704000Y-234471738D01*
G75*
G02*
X417975738Y-234200000I271738J0D01*
G01*
X418682262Y-234200000D01*
G75*
G02*
X418954000Y-234471738I0J-271738D01*
G01*
G37*
G36*
G01*
X421004000Y-234471738D02*
X421004000Y-235428262D01*
G75*
G02*
X420732262Y-235700000I-271738J0D01*
G01*
X420025738Y-235700000D01*
G75*
G02*
X419754000Y-235428262I0J271738D01*
G01*
X419754000Y-234471738D01*
G75*
G02*
X420025738Y-234200000I271738J0D01*
G01*
X420732262Y-234200000D01*
G75*
G02*
X421004000Y-234471738I0J-271738D01*
G01*
G37*
%TD*%
%TO.C,C16*%
G36*
G01*
X420812500Y-240965625D02*
X420812500Y-242134375D01*
G75*
G02*
X420546875Y-242400000I-265625J0D01*
G01*
X417653125Y-242400000D01*
G75*
G02*
X417387500Y-242134375I0J265625D01*
G01*
X417387500Y-240965625D01*
G75*
G02*
X417653125Y-240700000I265625J0D01*
G01*
X420546875Y-240700000D01*
G75*
G02*
X420812500Y-240965625I0J-265625D01*
G01*
G37*
G36*
G01*
X425887500Y-240965625D02*
X425887500Y-242134375D01*
G75*
G02*
X425621875Y-242400000I-265625J0D01*
G01*
X422728125Y-242400000D01*
G75*
G02*
X422462500Y-242134375I0J265625D01*
G01*
X422462500Y-240965625D01*
G75*
G02*
X422728125Y-240700000I265625J0D01*
G01*
X425621875Y-240700000D01*
G75*
G02*
X425887500Y-240965625I0J-265625D01*
G01*
G37*
%TD*%
%TO.C,C15*%
G36*
G01*
X420812500Y-249065625D02*
X420812500Y-250234375D01*
G75*
G02*
X420546875Y-250500000I-265625J0D01*
G01*
X417653125Y-250500000D01*
G75*
G02*
X417387500Y-250234375I0J265625D01*
G01*
X417387500Y-249065625D01*
G75*
G02*
X417653125Y-248800000I265625J0D01*
G01*
X420546875Y-248800000D01*
G75*
G02*
X420812500Y-249065625I0J-265625D01*
G01*
G37*
G36*
G01*
X425887500Y-249065625D02*
X425887500Y-250234375D01*
G75*
G02*
X425621875Y-250500000I-265625J0D01*
G01*
X422728125Y-250500000D01*
G75*
G02*
X422462500Y-250234375I0J265625D01*
G01*
X422462500Y-249065625D01*
G75*
G02*
X422728125Y-248800000I265625J0D01*
G01*
X425621875Y-248800000D01*
G75*
G02*
X425887500Y-249065625I0J-265625D01*
G01*
G37*
%TD*%
%TO.C,R7*%
G36*
G01*
X430425000Y-254178262D02*
X430425000Y-253221738D01*
G75*
G02*
X430696738Y-252950000I271738J0D01*
G01*
X431403262Y-252950000D01*
G75*
G02*
X431675000Y-253221738I0J-271738D01*
G01*
X431675000Y-254178262D01*
G75*
G02*
X431403262Y-254450000I-271738J0D01*
G01*
X430696738Y-254450000D01*
G75*
G02*
X430425000Y-254178262I0J271738D01*
G01*
G37*
G36*
G01*
X428375000Y-254178262D02*
X428375000Y-253221738D01*
G75*
G02*
X428646738Y-252950000I271738J0D01*
G01*
X429353262Y-252950000D01*
G75*
G02*
X429625000Y-253221738I0J-271738D01*
G01*
X429625000Y-254178262D01*
G75*
G02*
X429353262Y-254450000I-271738J0D01*
G01*
X428646738Y-254450000D01*
G75*
G02*
X428375000Y-254178262I0J271738D01*
G01*
G37*
%TD*%
%TO.C,R6*%
G36*
G01*
X409950000Y-231721738D02*
X409950000Y-232678262D01*
G75*
G02*
X409678262Y-232950000I-271738J0D01*
G01*
X408971738Y-232950000D01*
G75*
G02*
X408700000Y-232678262I0J271738D01*
G01*
X408700000Y-231721738D01*
G75*
G02*
X408971738Y-231450000I271738J0D01*
G01*
X409678262Y-231450000D01*
G75*
G02*
X409950000Y-231721738I0J-271738D01*
G01*
G37*
G36*
G01*
X412000000Y-231721738D02*
X412000000Y-232678262D01*
G75*
G02*
X411728262Y-232950000I-271738J0D01*
G01*
X411021738Y-232950000D01*
G75*
G02*
X410750000Y-232678262I0J271738D01*
G01*
X410750000Y-231721738D01*
G75*
G02*
X411021738Y-231450000I271738J0D01*
G01*
X411728262Y-231450000D01*
G75*
G02*
X412000000Y-231721738I0J-271738D01*
G01*
G37*
%TD*%
%TO.C,R5*%
G36*
G01*
X370650000Y-240421738D02*
X370650000Y-241378262D01*
G75*
G02*
X370378262Y-241650000I-271738J0D01*
G01*
X369671738Y-241650000D01*
G75*
G02*
X369400000Y-241378262I0J271738D01*
G01*
X369400000Y-240421738D01*
G75*
G02*
X369671738Y-240150000I271738J0D01*
G01*
X370378262Y-240150000D01*
G75*
G02*
X370650000Y-240421738I0J-271738D01*
G01*
G37*
G36*
G01*
X372700000Y-240421738D02*
X372700000Y-241378262D01*
G75*
G02*
X372428262Y-241650000I-271738J0D01*
G01*
X371721738Y-241650000D01*
G75*
G02*
X371450000Y-241378262I0J271738D01*
G01*
X371450000Y-240421738D01*
G75*
G02*
X371721738Y-240150000I271738J0D01*
G01*
X372428262Y-240150000D01*
G75*
G02*
X372700000Y-240421738I0J-271738D01*
G01*
G37*
%TD*%
%TO.C,R4*%
G36*
G01*
X321528262Y-234525000D02*
X320571738Y-234525000D01*
G75*
G02*
X320300000Y-234253262I0J271738D01*
G01*
X320300000Y-233546738D01*
G75*
G02*
X320571738Y-233275000I271738J0D01*
G01*
X321528262Y-233275000D01*
G75*
G02*
X321800000Y-233546738I0J-271738D01*
G01*
X321800000Y-234253262D01*
G75*
G02*
X321528262Y-234525000I-271738J0D01*
G01*
G37*
G36*
G01*
X321528262Y-236575000D02*
X320571738Y-236575000D01*
G75*
G02*
X320300000Y-236303262I0J271738D01*
G01*
X320300000Y-235596738D01*
G75*
G02*
X320571738Y-235325000I271738J0D01*
G01*
X321528262Y-235325000D01*
G75*
G02*
X321800000Y-235596738I0J-271738D01*
G01*
X321800000Y-236303262D01*
G75*
G02*
X321528262Y-236575000I-271738J0D01*
G01*
G37*
%TD*%
%TO.C,R3*%
G36*
G01*
X319178262Y-234525000D02*
X318221738Y-234525000D01*
G75*
G02*
X317950000Y-234253262I0J271738D01*
G01*
X317950000Y-233546738D01*
G75*
G02*
X318221738Y-233275000I271738J0D01*
G01*
X319178262Y-233275000D01*
G75*
G02*
X319450000Y-233546738I0J-271738D01*
G01*
X319450000Y-234253262D01*
G75*
G02*
X319178262Y-234525000I-271738J0D01*
G01*
G37*
G36*
G01*
X319178262Y-236575000D02*
X318221738Y-236575000D01*
G75*
G02*
X317950000Y-236303262I0J271738D01*
G01*
X317950000Y-235596738D01*
G75*
G02*
X318221738Y-235325000I271738J0D01*
G01*
X319178262Y-235325000D01*
G75*
G02*
X319450000Y-235596738I0J-271738D01*
G01*
X319450000Y-236303262D01*
G75*
G02*
X319178262Y-236575000I-271738J0D01*
G01*
G37*
%TD*%
%TO.C,R2*%
G36*
G01*
X367650000Y-252578262D02*
X367650000Y-251621738D01*
G75*
G02*
X367921738Y-251350000I271738J0D01*
G01*
X368628262Y-251350000D01*
G75*
G02*
X368900000Y-251621738I0J-271738D01*
G01*
X368900000Y-252578262D01*
G75*
G02*
X368628262Y-252850000I-271738J0D01*
G01*
X367921738Y-252850000D01*
G75*
G02*
X367650000Y-252578262I0J271738D01*
G01*
G37*
G36*
G01*
X365600000Y-252578262D02*
X365600000Y-251621738D01*
G75*
G02*
X365871738Y-251350000I271738J0D01*
G01*
X366578262Y-251350000D01*
G75*
G02*
X366850000Y-251621738I0J-271738D01*
G01*
X366850000Y-252578262D01*
G75*
G02*
X366578262Y-252850000I-271738J0D01*
G01*
X365871738Y-252850000D01*
G75*
G02*
X365600000Y-252578262I0J271738D01*
G01*
G37*
%TD*%
%TO.C,R1*%
G36*
G01*
X377278262Y-251675000D02*
X376321738Y-251675000D01*
G75*
G02*
X376050000Y-251403262I0J271738D01*
G01*
X376050000Y-250696738D01*
G75*
G02*
X376321738Y-250425000I271738J0D01*
G01*
X377278262Y-250425000D01*
G75*
G02*
X377550000Y-250696738I0J-271738D01*
G01*
X377550000Y-251403262D01*
G75*
G02*
X377278262Y-251675000I-271738J0D01*
G01*
G37*
G36*
G01*
X377278262Y-253725000D02*
X376321738Y-253725000D01*
G75*
G02*
X376050000Y-253453262I0J271738D01*
G01*
X376050000Y-252746738D01*
G75*
G02*
X376321738Y-252475000I271738J0D01*
G01*
X377278262Y-252475000D01*
G75*
G02*
X377550000Y-252746738I0J-271738D01*
G01*
X377550000Y-253453262D01*
G75*
G02*
X377278262Y-253725000I-271738J0D01*
G01*
G37*
%TD*%
D16*
%TO.C,Q1*%
X371250000Y-252100000D03*
X373250000Y-251150000D03*
X373250000Y-253050000D03*
%TD*%
D10*
%TO.C,H19*%
X395097000Y-256971800D03*
%TD*%
D12*
%TO.C,H18*%
X468193120Y-232435400D03*
%TD*%
%TO.C,H17*%
X468172800Y-258927600D03*
%TD*%
%TO.C,H16*%
X307195220Y-232443020D03*
%TD*%
%TO.C,H15*%
X307200000Y-258950000D03*
%TD*%
%TO.C,C9*%
G36*
G01*
X434875000Y-255471738D02*
X434875000Y-256428262D01*
G75*
G02*
X434603262Y-256700000I-271738J0D01*
G01*
X433896738Y-256700000D01*
G75*
G02*
X433625000Y-256428262I0J271738D01*
G01*
X433625000Y-255471738D01*
G75*
G02*
X433896738Y-255200000I271738J0D01*
G01*
X434603262Y-255200000D01*
G75*
G02*
X434875000Y-255471738I0J-271738D01*
G01*
G37*
G36*
G01*
X436925000Y-255471738D02*
X436925000Y-256428262D01*
G75*
G02*
X436653262Y-256700000I-271738J0D01*
G01*
X435946738Y-256700000D01*
G75*
G02*
X435675000Y-256428262I0J271738D01*
G01*
X435675000Y-255471738D01*
G75*
G02*
X435946738Y-255200000I271738J0D01*
G01*
X436653262Y-255200000D01*
G75*
G02*
X436925000Y-255471738I0J-271738D01*
G01*
G37*
%TD*%
%TO.C,C13*%
G36*
G01*
X429650000Y-250571738D02*
X429650000Y-251528262D01*
G75*
G02*
X429378262Y-251800000I-271738J0D01*
G01*
X428671738Y-251800000D01*
G75*
G02*
X428400000Y-251528262I0J271738D01*
G01*
X428400000Y-250571738D01*
G75*
G02*
X428671738Y-250300000I271738J0D01*
G01*
X429378262Y-250300000D01*
G75*
G02*
X429650000Y-250571738I0J-271738D01*
G01*
G37*
G36*
G01*
X431700000Y-250571738D02*
X431700000Y-251528262D01*
G75*
G02*
X431428262Y-251800000I-271738J0D01*
G01*
X430721738Y-251800000D01*
G75*
G02*
X430450000Y-251528262I0J271738D01*
G01*
X430450000Y-250571738D01*
G75*
G02*
X430721738Y-250300000I271738J0D01*
G01*
X431428262Y-250300000D01*
G75*
G02*
X431700000Y-250571738I0J-271738D01*
G01*
G37*
%TD*%
%TO.C,C14*%
G36*
G01*
X405750000Y-232678262D02*
X405750000Y-231721738D01*
G75*
G02*
X406021738Y-231450000I271738J0D01*
G01*
X406728262Y-231450000D01*
G75*
G02*
X407000000Y-231721738I0J-271738D01*
G01*
X407000000Y-232678262D01*
G75*
G02*
X406728262Y-232950000I-271738J0D01*
G01*
X406021738Y-232950000D01*
G75*
G02*
X405750000Y-232678262I0J271738D01*
G01*
G37*
G36*
G01*
X403700000Y-232678262D02*
X403700000Y-231721738D01*
G75*
G02*
X403971738Y-231450000I271738J0D01*
G01*
X404678262Y-231450000D01*
G75*
G02*
X404950000Y-231721738I0J-271738D01*
G01*
X404950000Y-232678262D01*
G75*
G02*
X404678262Y-232950000I-271738J0D01*
G01*
X403971738Y-232950000D01*
G75*
G02*
X403700000Y-232678262I0J271738D01*
G01*
G37*
%TD*%
D13*
%TO.C,H4*%
X463956400Y-243382800D03*
%TD*%
%TO.C,H3*%
X448056000Y-243400000D03*
%TD*%
%TO.C,H2*%
X448081400Y-251358400D03*
%TD*%
%TO.C,H1*%
X463956400Y-251358400D03*
%TD*%
%TO.C,C12*%
G36*
G01*
X428671738Y-247575000D02*
X429628262Y-247575000D01*
G75*
G02*
X429900000Y-247846738I0J-271738D01*
G01*
X429900000Y-248553262D01*
G75*
G02*
X429628262Y-248825000I-271738J0D01*
G01*
X428671738Y-248825000D01*
G75*
G02*
X428400000Y-248553262I0J271738D01*
G01*
X428400000Y-247846738D01*
G75*
G02*
X428671738Y-247575000I271738J0D01*
G01*
G37*
G36*
G01*
X428671738Y-245525000D02*
X429628262Y-245525000D01*
G75*
G02*
X429900000Y-245796738I0J-271738D01*
G01*
X429900000Y-246503262D01*
G75*
G02*
X429628262Y-246775000I-271738J0D01*
G01*
X428671738Y-246775000D01*
G75*
G02*
X428400000Y-246503262I0J271738D01*
G01*
X428400000Y-245796738D01*
G75*
G02*
X428671738Y-245525000I271738J0D01*
G01*
G37*
%TD*%
%TO.C,C11*%
G36*
G01*
X440825000Y-256428262D02*
X440825000Y-255471738D01*
G75*
G02*
X441096738Y-255200000I271738J0D01*
G01*
X441803262Y-255200000D01*
G75*
G02*
X442075000Y-255471738I0J-271738D01*
G01*
X442075000Y-256428262D01*
G75*
G02*
X441803262Y-256700000I-271738J0D01*
G01*
X441096738Y-256700000D01*
G75*
G02*
X440825000Y-256428262I0J271738D01*
G01*
G37*
G36*
G01*
X438775000Y-256428262D02*
X438775000Y-255471738D01*
G75*
G02*
X439046738Y-255200000I271738J0D01*
G01*
X439753262Y-255200000D01*
G75*
G02*
X440025000Y-255471738I0J-271738D01*
G01*
X440025000Y-256428262D01*
G75*
G02*
X439753262Y-256700000I-271738J0D01*
G01*
X439046738Y-256700000D01*
G75*
G02*
X438775000Y-256428262I0J271738D01*
G01*
G37*
%TD*%
D17*
%TO.C,U1*%
X436462500Y-246900000D03*
G36*
G01*
X439412500Y-250375000D02*
X439412500Y-251750000D01*
G75*
G02*
X439312500Y-251850000I-100000J0D01*
G01*
X439112500Y-251850000D01*
G75*
G02*
X439012500Y-251750000I0J100000D01*
G01*
X439012500Y-250375000D01*
G75*
G02*
X439112500Y-250275000I100000J0D01*
G01*
X439312500Y-250275000D01*
G75*
G02*
X439412500Y-250375000I0J-100000D01*
G01*
G37*
G36*
G01*
X438912500Y-250375000D02*
X438912500Y-251750000D01*
G75*
G02*
X438812500Y-251850000I-100000J0D01*
G01*
X438612500Y-251850000D01*
G75*
G02*
X438512500Y-251750000I0J100000D01*
G01*
X438512500Y-250375000D01*
G75*
G02*
X438612500Y-250275000I100000J0D01*
G01*
X438812500Y-250275000D01*
G75*
G02*
X438912500Y-250375000I0J-100000D01*
G01*
G37*
G36*
G01*
X438412500Y-250375000D02*
X438412500Y-251750000D01*
G75*
G02*
X438312500Y-251850000I-100000J0D01*
G01*
X438112500Y-251850000D01*
G75*
G02*
X438012500Y-251750000I0J100000D01*
G01*
X438012500Y-250375000D01*
G75*
G02*
X438112500Y-250275000I100000J0D01*
G01*
X438312500Y-250275000D01*
G75*
G02*
X438412500Y-250375000I0J-100000D01*
G01*
G37*
G36*
G01*
X437912500Y-250375000D02*
X437912500Y-251750000D01*
G75*
G02*
X437812500Y-251850000I-100000J0D01*
G01*
X437612500Y-251850000D01*
G75*
G02*
X437512500Y-251750000I0J100000D01*
G01*
X437512500Y-250375000D01*
G75*
G02*
X437612500Y-250275000I100000J0D01*
G01*
X437812500Y-250275000D01*
G75*
G02*
X437912500Y-250375000I0J-100000D01*
G01*
G37*
G36*
G01*
X437412500Y-250375000D02*
X437412500Y-251750000D01*
G75*
G02*
X437312500Y-251850000I-100000J0D01*
G01*
X437112500Y-251850000D01*
G75*
G02*
X437012500Y-251750000I0J100000D01*
G01*
X437012500Y-250375000D01*
G75*
G02*
X437112500Y-250275000I100000J0D01*
G01*
X437312500Y-250275000D01*
G75*
G02*
X437412500Y-250375000I0J-100000D01*
G01*
G37*
G36*
G01*
X436912500Y-250375000D02*
X436912500Y-251750000D01*
G75*
G02*
X436812500Y-251850000I-100000J0D01*
G01*
X436612500Y-251850000D01*
G75*
G02*
X436512500Y-251750000I0J100000D01*
G01*
X436512500Y-250375000D01*
G75*
G02*
X436612500Y-250275000I100000J0D01*
G01*
X436812500Y-250275000D01*
G75*
G02*
X436912500Y-250375000I0J-100000D01*
G01*
G37*
G36*
G01*
X436412500Y-250375000D02*
X436412500Y-251750000D01*
G75*
G02*
X436312500Y-251850000I-100000J0D01*
G01*
X436112500Y-251850000D01*
G75*
G02*
X436012500Y-251750000I0J100000D01*
G01*
X436012500Y-250375000D01*
G75*
G02*
X436112500Y-250275000I100000J0D01*
G01*
X436312500Y-250275000D01*
G75*
G02*
X436412500Y-250375000I0J-100000D01*
G01*
G37*
G36*
G01*
X435912500Y-250375000D02*
X435912500Y-251750000D01*
G75*
G02*
X435812500Y-251850000I-100000J0D01*
G01*
X435612500Y-251850000D01*
G75*
G02*
X435512500Y-251750000I0J100000D01*
G01*
X435512500Y-250375000D01*
G75*
G02*
X435612500Y-250275000I100000J0D01*
G01*
X435812500Y-250275000D01*
G75*
G02*
X435912500Y-250375000I0J-100000D01*
G01*
G37*
G36*
G01*
X435412500Y-250375000D02*
X435412500Y-251750000D01*
G75*
G02*
X435312500Y-251850000I-100000J0D01*
G01*
X435112500Y-251850000D01*
G75*
G02*
X435012500Y-251750000I0J100000D01*
G01*
X435012500Y-250375000D01*
G75*
G02*
X435112500Y-250275000I100000J0D01*
G01*
X435312500Y-250275000D01*
G75*
G02*
X435412500Y-250375000I0J-100000D01*
G01*
G37*
G36*
G01*
X434912500Y-250375000D02*
X434912500Y-251750000D01*
G75*
G02*
X434812500Y-251850000I-100000J0D01*
G01*
X434612500Y-251850000D01*
G75*
G02*
X434512500Y-251750000I0J100000D01*
G01*
X434512500Y-250375000D01*
G75*
G02*
X434612500Y-250275000I100000J0D01*
G01*
X434812500Y-250275000D01*
G75*
G02*
X434912500Y-250375000I0J-100000D01*
G01*
G37*
G36*
G01*
X434412500Y-250375000D02*
X434412500Y-251750000D01*
G75*
G02*
X434312500Y-251850000I-100000J0D01*
G01*
X434112500Y-251850000D01*
G75*
G02*
X434012500Y-251750000I0J100000D01*
G01*
X434012500Y-250375000D01*
G75*
G02*
X434112500Y-250275000I100000J0D01*
G01*
X434312500Y-250275000D01*
G75*
G02*
X434412500Y-250375000I0J-100000D01*
G01*
G37*
G36*
G01*
X433912500Y-250375000D02*
X433912500Y-251750000D01*
G75*
G02*
X433812500Y-251850000I-100000J0D01*
G01*
X433612500Y-251850000D01*
G75*
G02*
X433512500Y-251750000I0J100000D01*
G01*
X433512500Y-250375000D01*
G75*
G02*
X433612500Y-250275000I100000J0D01*
G01*
X433812500Y-250275000D01*
G75*
G02*
X433912500Y-250375000I0J-100000D01*
G01*
G37*
G36*
G01*
X433087500Y-249550000D02*
X433087500Y-249750000D01*
G75*
G02*
X432987500Y-249850000I-100000J0D01*
G01*
X431612500Y-249850000D01*
G75*
G02*
X431512500Y-249750000I0J100000D01*
G01*
X431512500Y-249550000D01*
G75*
G02*
X431612500Y-249450000I100000J0D01*
G01*
X432987500Y-249450000D01*
G75*
G02*
X433087500Y-249550000I0J-100000D01*
G01*
G37*
G36*
G01*
X433087500Y-249050000D02*
X433087500Y-249250000D01*
G75*
G02*
X432987500Y-249350000I-100000J0D01*
G01*
X431612500Y-249350000D01*
G75*
G02*
X431512500Y-249250000I0J100000D01*
G01*
X431512500Y-249050000D01*
G75*
G02*
X431612500Y-248950000I100000J0D01*
G01*
X432987500Y-248950000D01*
G75*
G02*
X433087500Y-249050000I0J-100000D01*
G01*
G37*
G36*
G01*
X433087500Y-248550000D02*
X433087500Y-248750000D01*
G75*
G02*
X432987500Y-248850000I-100000J0D01*
G01*
X431612500Y-248850000D01*
G75*
G02*
X431512500Y-248750000I0J100000D01*
G01*
X431512500Y-248550000D01*
G75*
G02*
X431612500Y-248450000I100000J0D01*
G01*
X432987500Y-248450000D01*
G75*
G02*
X433087500Y-248550000I0J-100000D01*
G01*
G37*
G36*
G01*
X433087500Y-248050000D02*
X433087500Y-248250000D01*
G75*
G02*
X432987500Y-248350000I-100000J0D01*
G01*
X431612500Y-248350000D01*
G75*
G02*
X431512500Y-248250000I0J100000D01*
G01*
X431512500Y-248050000D01*
G75*
G02*
X431612500Y-247950000I100000J0D01*
G01*
X432987500Y-247950000D01*
G75*
G02*
X433087500Y-248050000I0J-100000D01*
G01*
G37*
G36*
G01*
X433087500Y-247550000D02*
X433087500Y-247750000D01*
G75*
G02*
X432987500Y-247850000I-100000J0D01*
G01*
X431612500Y-247850000D01*
G75*
G02*
X431512500Y-247750000I0J100000D01*
G01*
X431512500Y-247550000D01*
G75*
G02*
X431612500Y-247450000I100000J0D01*
G01*
X432987500Y-247450000D01*
G75*
G02*
X433087500Y-247550000I0J-100000D01*
G01*
G37*
G36*
G01*
X433087500Y-247050000D02*
X433087500Y-247250000D01*
G75*
G02*
X432987500Y-247350000I-100000J0D01*
G01*
X431612500Y-247350000D01*
G75*
G02*
X431512500Y-247250000I0J100000D01*
G01*
X431512500Y-247050000D01*
G75*
G02*
X431612500Y-246950000I100000J0D01*
G01*
X432987500Y-246950000D01*
G75*
G02*
X433087500Y-247050000I0J-100000D01*
G01*
G37*
G36*
G01*
X433087500Y-246550000D02*
X433087500Y-246750000D01*
G75*
G02*
X432987500Y-246850000I-100000J0D01*
G01*
X431612500Y-246850000D01*
G75*
G02*
X431512500Y-246750000I0J100000D01*
G01*
X431512500Y-246550000D01*
G75*
G02*
X431612500Y-246450000I100000J0D01*
G01*
X432987500Y-246450000D01*
G75*
G02*
X433087500Y-246550000I0J-100000D01*
G01*
G37*
G36*
G01*
X433087500Y-246050000D02*
X433087500Y-246250000D01*
G75*
G02*
X432987500Y-246350000I-100000J0D01*
G01*
X431612500Y-246350000D01*
G75*
G02*
X431512500Y-246250000I0J100000D01*
G01*
X431512500Y-246050000D01*
G75*
G02*
X431612500Y-245950000I100000J0D01*
G01*
X432987500Y-245950000D01*
G75*
G02*
X433087500Y-246050000I0J-100000D01*
G01*
G37*
G36*
G01*
X433087500Y-245550000D02*
X433087500Y-245750000D01*
G75*
G02*
X432987500Y-245850000I-100000J0D01*
G01*
X431612500Y-245850000D01*
G75*
G02*
X431512500Y-245750000I0J100000D01*
G01*
X431512500Y-245550000D01*
G75*
G02*
X431612500Y-245450000I100000J0D01*
G01*
X432987500Y-245450000D01*
G75*
G02*
X433087500Y-245550000I0J-100000D01*
G01*
G37*
G36*
G01*
X433087500Y-245050000D02*
X433087500Y-245250000D01*
G75*
G02*
X432987500Y-245350000I-100000J0D01*
G01*
X431612500Y-245350000D01*
G75*
G02*
X431512500Y-245250000I0J100000D01*
G01*
X431512500Y-245050000D01*
G75*
G02*
X431612500Y-244950000I100000J0D01*
G01*
X432987500Y-244950000D01*
G75*
G02*
X433087500Y-245050000I0J-100000D01*
G01*
G37*
G36*
G01*
X433087500Y-244550000D02*
X433087500Y-244750000D01*
G75*
G02*
X432987500Y-244850000I-100000J0D01*
G01*
X431612500Y-244850000D01*
G75*
G02*
X431512500Y-244750000I0J100000D01*
G01*
X431512500Y-244550000D01*
G75*
G02*
X431612500Y-244450000I100000J0D01*
G01*
X432987500Y-244450000D01*
G75*
G02*
X433087500Y-244550000I0J-100000D01*
G01*
G37*
G36*
G01*
X433087500Y-244050000D02*
X433087500Y-244250000D01*
G75*
G02*
X432987500Y-244350000I-100000J0D01*
G01*
X431612500Y-244350000D01*
G75*
G02*
X431512500Y-244250000I0J100000D01*
G01*
X431512500Y-244050000D01*
G75*
G02*
X431612500Y-243950000I100000J0D01*
G01*
X432987500Y-243950000D01*
G75*
G02*
X433087500Y-244050000I0J-100000D01*
G01*
G37*
G36*
G01*
X433912500Y-242050000D02*
X433912500Y-243425000D01*
G75*
G02*
X433812500Y-243525000I-100000J0D01*
G01*
X433612500Y-243525000D01*
G75*
G02*
X433512500Y-243425000I0J100000D01*
G01*
X433512500Y-242050000D01*
G75*
G02*
X433612500Y-241950000I100000J0D01*
G01*
X433812500Y-241950000D01*
G75*
G02*
X433912500Y-242050000I0J-100000D01*
G01*
G37*
G36*
G01*
X434412500Y-242050000D02*
X434412500Y-243425000D01*
G75*
G02*
X434312500Y-243525000I-100000J0D01*
G01*
X434112500Y-243525000D01*
G75*
G02*
X434012500Y-243425000I0J100000D01*
G01*
X434012500Y-242050000D01*
G75*
G02*
X434112500Y-241950000I100000J0D01*
G01*
X434312500Y-241950000D01*
G75*
G02*
X434412500Y-242050000I0J-100000D01*
G01*
G37*
G36*
G01*
X434912500Y-242050000D02*
X434912500Y-243425000D01*
G75*
G02*
X434812500Y-243525000I-100000J0D01*
G01*
X434612500Y-243525000D01*
G75*
G02*
X434512500Y-243425000I0J100000D01*
G01*
X434512500Y-242050000D01*
G75*
G02*
X434612500Y-241950000I100000J0D01*
G01*
X434812500Y-241950000D01*
G75*
G02*
X434912500Y-242050000I0J-100000D01*
G01*
G37*
G36*
G01*
X435412500Y-242050000D02*
X435412500Y-243425000D01*
G75*
G02*
X435312500Y-243525000I-100000J0D01*
G01*
X435112500Y-243525000D01*
G75*
G02*
X435012500Y-243425000I0J100000D01*
G01*
X435012500Y-242050000D01*
G75*
G02*
X435112500Y-241950000I100000J0D01*
G01*
X435312500Y-241950000D01*
G75*
G02*
X435412500Y-242050000I0J-100000D01*
G01*
G37*
G36*
G01*
X435912500Y-242050000D02*
X435912500Y-243425000D01*
G75*
G02*
X435812500Y-243525000I-100000J0D01*
G01*
X435612500Y-243525000D01*
G75*
G02*
X435512500Y-243425000I0J100000D01*
G01*
X435512500Y-242050000D01*
G75*
G02*
X435612500Y-241950000I100000J0D01*
G01*
X435812500Y-241950000D01*
G75*
G02*
X435912500Y-242050000I0J-100000D01*
G01*
G37*
G36*
G01*
X436412500Y-242050000D02*
X436412500Y-243425000D01*
G75*
G02*
X436312500Y-243525000I-100000J0D01*
G01*
X436112500Y-243525000D01*
G75*
G02*
X436012500Y-243425000I0J100000D01*
G01*
X436012500Y-242050000D01*
G75*
G02*
X436112500Y-241950000I100000J0D01*
G01*
X436312500Y-241950000D01*
G75*
G02*
X436412500Y-242050000I0J-100000D01*
G01*
G37*
G36*
G01*
X436912500Y-242050000D02*
X436912500Y-243425000D01*
G75*
G02*
X436812500Y-243525000I-100000J0D01*
G01*
X436612500Y-243525000D01*
G75*
G02*
X436512500Y-243425000I0J100000D01*
G01*
X436512500Y-242050000D01*
G75*
G02*
X436612500Y-241950000I100000J0D01*
G01*
X436812500Y-241950000D01*
G75*
G02*
X436912500Y-242050000I0J-100000D01*
G01*
G37*
G36*
G01*
X437412500Y-242050000D02*
X437412500Y-243425000D01*
G75*
G02*
X437312500Y-243525000I-100000J0D01*
G01*
X437112500Y-243525000D01*
G75*
G02*
X437012500Y-243425000I0J100000D01*
G01*
X437012500Y-242050000D01*
G75*
G02*
X437112500Y-241950000I100000J0D01*
G01*
X437312500Y-241950000D01*
G75*
G02*
X437412500Y-242050000I0J-100000D01*
G01*
G37*
G36*
G01*
X437912500Y-242050000D02*
X437912500Y-243425000D01*
G75*
G02*
X437812500Y-243525000I-100000J0D01*
G01*
X437612500Y-243525000D01*
G75*
G02*
X437512500Y-243425000I0J100000D01*
G01*
X437512500Y-242050000D01*
G75*
G02*
X437612500Y-241950000I100000J0D01*
G01*
X437812500Y-241950000D01*
G75*
G02*
X437912500Y-242050000I0J-100000D01*
G01*
G37*
G36*
G01*
X438412500Y-242050000D02*
X438412500Y-243425000D01*
G75*
G02*
X438312500Y-243525000I-100000J0D01*
G01*
X438112500Y-243525000D01*
G75*
G02*
X438012500Y-243425000I0J100000D01*
G01*
X438012500Y-242050000D01*
G75*
G02*
X438112500Y-241950000I100000J0D01*
G01*
X438312500Y-241950000D01*
G75*
G02*
X438412500Y-242050000I0J-100000D01*
G01*
G37*
G36*
G01*
X438912500Y-242050000D02*
X438912500Y-243425000D01*
G75*
G02*
X438812500Y-243525000I-100000J0D01*
G01*
X438612500Y-243525000D01*
G75*
G02*
X438512500Y-243425000I0J100000D01*
G01*
X438512500Y-242050000D01*
G75*
G02*
X438612500Y-241950000I100000J0D01*
G01*
X438812500Y-241950000D01*
G75*
G02*
X438912500Y-242050000I0J-100000D01*
G01*
G37*
G36*
G01*
X439412500Y-242050000D02*
X439412500Y-243425000D01*
G75*
G02*
X439312500Y-243525000I-100000J0D01*
G01*
X439112500Y-243525000D01*
G75*
G02*
X439012500Y-243425000I0J100000D01*
G01*
X439012500Y-242050000D01*
G75*
G02*
X439112500Y-241950000I100000J0D01*
G01*
X439312500Y-241950000D01*
G75*
G02*
X439412500Y-242050000I0J-100000D01*
G01*
G37*
G36*
G01*
X441412500Y-244050000D02*
X441412500Y-244250000D01*
G75*
G02*
X441312500Y-244350000I-100000J0D01*
G01*
X439937500Y-244350000D01*
G75*
G02*
X439837500Y-244250000I0J100000D01*
G01*
X439837500Y-244050000D01*
G75*
G02*
X439937500Y-243950000I100000J0D01*
G01*
X441312500Y-243950000D01*
G75*
G02*
X441412500Y-244050000I0J-100000D01*
G01*
G37*
G36*
G01*
X441412500Y-244550000D02*
X441412500Y-244750000D01*
G75*
G02*
X441312500Y-244850000I-100000J0D01*
G01*
X439937500Y-244850000D01*
G75*
G02*
X439837500Y-244750000I0J100000D01*
G01*
X439837500Y-244550000D01*
G75*
G02*
X439937500Y-244450000I100000J0D01*
G01*
X441312500Y-244450000D01*
G75*
G02*
X441412500Y-244550000I0J-100000D01*
G01*
G37*
G36*
G01*
X441412500Y-245050000D02*
X441412500Y-245250000D01*
G75*
G02*
X441312500Y-245350000I-100000J0D01*
G01*
X439937500Y-245350000D01*
G75*
G02*
X439837500Y-245250000I0J100000D01*
G01*
X439837500Y-245050000D01*
G75*
G02*
X439937500Y-244950000I100000J0D01*
G01*
X441312500Y-244950000D01*
G75*
G02*
X441412500Y-245050000I0J-100000D01*
G01*
G37*
G36*
G01*
X441412500Y-245550000D02*
X441412500Y-245750000D01*
G75*
G02*
X441312500Y-245850000I-100000J0D01*
G01*
X439937500Y-245850000D01*
G75*
G02*
X439837500Y-245750000I0J100000D01*
G01*
X439837500Y-245550000D01*
G75*
G02*
X439937500Y-245450000I100000J0D01*
G01*
X441312500Y-245450000D01*
G75*
G02*
X441412500Y-245550000I0J-100000D01*
G01*
G37*
G36*
G01*
X441412500Y-246050000D02*
X441412500Y-246250000D01*
G75*
G02*
X441312500Y-246350000I-100000J0D01*
G01*
X439937500Y-246350000D01*
G75*
G02*
X439837500Y-246250000I0J100000D01*
G01*
X439837500Y-246050000D01*
G75*
G02*
X439937500Y-245950000I100000J0D01*
G01*
X441312500Y-245950000D01*
G75*
G02*
X441412500Y-246050000I0J-100000D01*
G01*
G37*
G36*
G01*
X441412500Y-246550000D02*
X441412500Y-246750000D01*
G75*
G02*
X441312500Y-246850000I-100000J0D01*
G01*
X439937500Y-246850000D01*
G75*
G02*
X439837500Y-246750000I0J100000D01*
G01*
X439837500Y-246550000D01*
G75*
G02*
X439937500Y-246450000I100000J0D01*
G01*
X441312500Y-246450000D01*
G75*
G02*
X441412500Y-246550000I0J-100000D01*
G01*
G37*
G36*
G01*
X441412500Y-247050000D02*
X441412500Y-247250000D01*
G75*
G02*
X441312500Y-247350000I-100000J0D01*
G01*
X439937500Y-247350000D01*
G75*
G02*
X439837500Y-247250000I0J100000D01*
G01*
X439837500Y-247050000D01*
G75*
G02*
X439937500Y-246950000I100000J0D01*
G01*
X441312500Y-246950000D01*
G75*
G02*
X441412500Y-247050000I0J-100000D01*
G01*
G37*
G36*
G01*
X441412500Y-247550000D02*
X441412500Y-247750000D01*
G75*
G02*
X441312500Y-247850000I-100000J0D01*
G01*
X439937500Y-247850000D01*
G75*
G02*
X439837500Y-247750000I0J100000D01*
G01*
X439837500Y-247550000D01*
G75*
G02*
X439937500Y-247450000I100000J0D01*
G01*
X441312500Y-247450000D01*
G75*
G02*
X441412500Y-247550000I0J-100000D01*
G01*
G37*
G36*
G01*
X441412500Y-248050000D02*
X441412500Y-248250000D01*
G75*
G02*
X441312500Y-248350000I-100000J0D01*
G01*
X439937500Y-248350000D01*
G75*
G02*
X439837500Y-248250000I0J100000D01*
G01*
X439837500Y-248050000D01*
G75*
G02*
X439937500Y-247950000I100000J0D01*
G01*
X441312500Y-247950000D01*
G75*
G02*
X441412500Y-248050000I0J-100000D01*
G01*
G37*
G36*
G01*
X441412500Y-248550000D02*
X441412500Y-248750000D01*
G75*
G02*
X441312500Y-248850000I-100000J0D01*
G01*
X439937500Y-248850000D01*
G75*
G02*
X439837500Y-248750000I0J100000D01*
G01*
X439837500Y-248550000D01*
G75*
G02*
X439937500Y-248450000I100000J0D01*
G01*
X441312500Y-248450000D01*
G75*
G02*
X441412500Y-248550000I0J-100000D01*
G01*
G37*
G36*
G01*
X441412500Y-249050000D02*
X441412500Y-249250000D01*
G75*
G02*
X441312500Y-249350000I-100000J0D01*
G01*
X439937500Y-249350000D01*
G75*
G02*
X439837500Y-249250000I0J100000D01*
G01*
X439837500Y-249050000D01*
G75*
G02*
X439937500Y-248950000I100000J0D01*
G01*
X441312500Y-248950000D01*
G75*
G02*
X441412500Y-249050000I0J-100000D01*
G01*
G37*
G36*
G01*
X441412500Y-249550000D02*
X441412500Y-249750000D01*
G75*
G02*
X441312500Y-249850000I-100000J0D01*
G01*
X439937500Y-249850000D01*
G75*
G02*
X439837500Y-249750000I0J100000D01*
G01*
X439837500Y-249550000D01*
G75*
G02*
X439937500Y-249450000I100000J0D01*
G01*
X441312500Y-249450000D01*
G75*
G02*
X441412500Y-249550000I0J-100000D01*
G01*
G37*
%TD*%
%TO.C,C8*%
G36*
G01*
X332125000Y-228521738D02*
X332125000Y-229478262D01*
G75*
G02*
X331853262Y-229750000I-271738J0D01*
G01*
X331146738Y-229750000D01*
G75*
G02*
X330875000Y-229478262I0J271738D01*
G01*
X330875000Y-228521738D01*
G75*
G02*
X331146738Y-228250000I271738J0D01*
G01*
X331853262Y-228250000D01*
G75*
G02*
X332125000Y-228521738I0J-271738D01*
G01*
G37*
G36*
G01*
X334175000Y-228521738D02*
X334175000Y-229478262D01*
G75*
G02*
X333903262Y-229750000I-271738J0D01*
G01*
X333196738Y-229750000D01*
G75*
G02*
X332925000Y-229478262I0J271738D01*
G01*
X332925000Y-228521738D01*
G75*
G02*
X333196738Y-228250000I271738J0D01*
G01*
X333903262Y-228250000D01*
G75*
G02*
X334175000Y-228521738I0J-271738D01*
G01*
G37*
%TD*%
%TO.C,C7*%
G36*
G01*
X429628262Y-241925000D02*
X428671738Y-241925000D01*
G75*
G02*
X428400000Y-241653262I0J271738D01*
G01*
X428400000Y-240946738D01*
G75*
G02*
X428671738Y-240675000I271738J0D01*
G01*
X429628262Y-240675000D01*
G75*
G02*
X429900000Y-240946738I0J-271738D01*
G01*
X429900000Y-241653262D01*
G75*
G02*
X429628262Y-241925000I-271738J0D01*
G01*
G37*
G36*
G01*
X429628262Y-243975000D02*
X428671738Y-243975000D01*
G75*
G02*
X428400000Y-243703262I0J271738D01*
G01*
X428400000Y-242996738D01*
G75*
G02*
X428671738Y-242725000I271738J0D01*
G01*
X429628262Y-242725000D01*
G75*
G02*
X429900000Y-242996738I0J-271738D01*
G01*
X429900000Y-243703262D01*
G75*
G02*
X429628262Y-243975000I-271738J0D01*
G01*
G37*
%TD*%
%TO.C,C2*%
G36*
G01*
X332925000Y-242528262D02*
X332925000Y-241571738D01*
G75*
G02*
X333196738Y-241300000I271738J0D01*
G01*
X333903262Y-241300000D01*
G75*
G02*
X334175000Y-241571738I0J-271738D01*
G01*
X334175000Y-242528262D01*
G75*
G02*
X333903262Y-242800000I-271738J0D01*
G01*
X333196738Y-242800000D01*
G75*
G02*
X332925000Y-242528262I0J271738D01*
G01*
G37*
G36*
G01*
X330875000Y-242528262D02*
X330875000Y-241571738D01*
G75*
G02*
X331146738Y-241300000I271738J0D01*
G01*
X331853262Y-241300000D01*
G75*
G02*
X332125000Y-241571738I0J-271738D01*
G01*
X332125000Y-242528262D01*
G75*
G02*
X331853262Y-242800000I-271738J0D01*
G01*
X331146738Y-242800000D01*
G75*
G02*
X330875000Y-242528262I0J271738D01*
G01*
G37*
%TD*%
%TO.C,C1*%
G36*
G01*
X334335500Y-247787362D02*
X334335500Y-246830838D01*
G75*
G02*
X334607238Y-246559100I271738J0D01*
G01*
X335313762Y-246559100D01*
G75*
G02*
X335585500Y-246830838I0J-271738D01*
G01*
X335585500Y-247787362D01*
G75*
G02*
X335313762Y-248059100I-271738J0D01*
G01*
X334607238Y-248059100D01*
G75*
G02*
X334335500Y-247787362I0J271738D01*
G01*
G37*
G36*
G01*
X332285500Y-247787362D02*
X332285500Y-246830838D01*
G75*
G02*
X332557238Y-246559100I271738J0D01*
G01*
X333263762Y-246559100D01*
G75*
G02*
X333535500Y-246830838I0J-271738D01*
G01*
X333535500Y-247787362D01*
G75*
G02*
X333263762Y-248059100I-271738J0D01*
G01*
X332557238Y-248059100D01*
G75*
G02*
X332285500Y-247787362I0J271738D01*
G01*
G37*
%TD*%
D11*
%TO.C,D53*%
X459447200Y-240717200D03*
X459447200Y-246117200D03*
X460847200Y-246117200D03*
X460847200Y-240717200D03*
%TD*%
%TO.C,D52*%
X455395900Y-240729900D03*
X455395900Y-246129900D03*
X456795900Y-246129900D03*
X456795900Y-240729900D03*
%TD*%
D18*
%TO.C,D4*%
X460829400Y-251358400D03*
X458779400Y-251358400D03*
D19*
X451129400Y-251358400D03*
D18*
X453179400Y-251358400D03*
%TD*%
%TO.C,D3*%
X460804000Y-243357400D03*
X458754000Y-243357400D03*
D19*
X451104000Y-243357400D03*
D18*
X453154000Y-243357400D03*
%TD*%
D20*
%TO.C,J5*%
X378838460Y-228178360D03*
D21*
X376298460Y-228178360D03*
%TD*%
D22*
%TO.C,Y2*%
X342123300Y-247321800D03*
X345823300Y-247321800D03*
%TD*%
D11*
%TO.C,D7*%
X460858400Y-254075000D03*
X460858400Y-248675000D03*
X459458400Y-248675000D03*
X459458400Y-254075000D03*
%TD*%
%TO.C,D6*%
X456794400Y-254075000D03*
X456794400Y-248675000D03*
X455394400Y-248675000D03*
X455394400Y-254075000D03*
%TD*%
%TO.C,D5*%
X452767000Y-254088000D03*
X452767000Y-248688000D03*
X451367000Y-248688000D03*
X451367000Y-254088000D03*
%TD*%
D20*
%TO.C,J4*%
X414380000Y-228200000D03*
X411840000Y-228200000D03*
X409300000Y-228200000D03*
X406760000Y-228200000D03*
X404220000Y-228200000D03*
X401680000Y-228200000D03*
X399140000Y-228200000D03*
D21*
X396600000Y-228200000D03*
%TD*%
D23*
%TO.C,U2*%
X338748400Y-227004200D03*
X339548400Y-227004200D03*
X340348400Y-227004200D03*
X341148400Y-227004200D03*
X341948400Y-227004200D03*
X342748400Y-227004200D03*
X343548400Y-227004200D03*
X344348400Y-227004200D03*
X345148400Y-227004200D03*
X345948400Y-227004200D03*
X346748400Y-227004200D03*
X347548400Y-227004200D03*
X348348400Y-227004200D03*
X349148400Y-227004200D03*
X349948400Y-227004200D03*
X350748400Y-227004200D03*
D24*
X352448400Y-228704200D03*
X352448400Y-229504200D03*
X352448400Y-230304200D03*
X352448400Y-231104200D03*
X352448400Y-231904200D03*
X352448400Y-232704200D03*
X352448400Y-233504200D03*
X352448400Y-234304200D03*
X352448400Y-235104200D03*
X352448400Y-235904200D03*
X352448400Y-236704200D03*
X352448400Y-237504200D03*
X352448400Y-238304200D03*
X352448400Y-239104200D03*
X352448400Y-239904200D03*
X352448400Y-240704200D03*
D23*
X350748400Y-242404200D03*
X349948400Y-242404200D03*
X349148400Y-242404200D03*
X348348400Y-242404200D03*
X347548400Y-242404200D03*
X346748400Y-242404200D03*
X345948400Y-242404200D03*
X345148400Y-242404200D03*
X344348400Y-242404200D03*
X343548400Y-242404200D03*
X342748400Y-242404200D03*
X341948400Y-242404200D03*
X341148400Y-242404200D03*
X340348400Y-242404200D03*
X339548400Y-242404200D03*
X338748400Y-242404200D03*
D24*
X337048400Y-240704200D03*
X337048400Y-239904200D03*
X337048400Y-239104200D03*
X337048400Y-238304200D03*
X337048400Y-237504200D03*
X337048400Y-236704200D03*
X337048400Y-235904200D03*
X337048400Y-235104200D03*
X337048400Y-234304200D03*
X337048400Y-233504200D03*
X337048400Y-232704200D03*
X337048400Y-231904200D03*
X337048400Y-231104200D03*
X337048400Y-230304200D03*
X337048400Y-229504200D03*
X337048400Y-228704200D03*
%TD*%
D20*
%TO.C,J3*%
X373280000Y-234060000D03*
X373280000Y-236600000D03*
X370740000Y-234060000D03*
X370740000Y-236600000D03*
X368200000Y-234060000D03*
D21*
X368200000Y-236600000D03*
%TD*%
%TO.C,C6*%
G36*
G01*
X357166438Y-229242680D02*
X358122962Y-229242680D01*
G75*
G02*
X358394700Y-229514418I0J-271738D01*
G01*
X358394700Y-230220942D01*
G75*
G02*
X358122962Y-230492680I-271738J0D01*
G01*
X357166438Y-230492680D01*
G75*
G02*
X356894700Y-230220942I0J271738D01*
G01*
X356894700Y-229514418D01*
G75*
G02*
X357166438Y-229242680I271738J0D01*
G01*
G37*
G36*
G01*
X357166438Y-227192680D02*
X358122962Y-227192680D01*
G75*
G02*
X358394700Y-227464418I0J-271738D01*
G01*
X358394700Y-228170942D01*
G75*
G02*
X358122962Y-228442680I-271738J0D01*
G01*
X357166438Y-228442680D01*
G75*
G02*
X356894700Y-228170942I0J271738D01*
G01*
X356894700Y-227464418D01*
G75*
G02*
X357166438Y-227192680I271738J0D01*
G01*
G37*
%TD*%
%TO.C,C5*%
G36*
G01*
X332100000Y-232571738D02*
X332100000Y-233528262D01*
G75*
G02*
X331828262Y-233800000I-271738J0D01*
G01*
X331121738Y-233800000D01*
G75*
G02*
X330850000Y-233528262I0J271738D01*
G01*
X330850000Y-232571738D01*
G75*
G02*
X331121738Y-232300000I271738J0D01*
G01*
X331828262Y-232300000D01*
G75*
G02*
X332100000Y-232571738I0J-271738D01*
G01*
G37*
G36*
G01*
X334150000Y-232571738D02*
X334150000Y-233528262D01*
G75*
G02*
X333878262Y-233800000I-271738J0D01*
G01*
X333171738Y-233800000D01*
G75*
G02*
X332900000Y-233528262I0J271738D01*
G01*
X332900000Y-232571738D01*
G75*
G02*
X333171738Y-232300000I271738J0D01*
G01*
X333878262Y-232300000D01*
G75*
G02*
X334150000Y-232571738I0J-271738D01*
G01*
G37*
%TD*%
%TO.C,C4*%
G36*
G01*
X339446200Y-247774662D02*
X339446200Y-246818138D01*
G75*
G02*
X339717938Y-246546400I271738J0D01*
G01*
X340424462Y-246546400D01*
G75*
G02*
X340696200Y-246818138I0J-271738D01*
G01*
X340696200Y-247774662D01*
G75*
G02*
X340424462Y-248046400I-271738J0D01*
G01*
X339717938Y-248046400D01*
G75*
G02*
X339446200Y-247774662I0J271738D01*
G01*
G37*
G36*
G01*
X337396200Y-247774662D02*
X337396200Y-246818138D01*
G75*
G02*
X337667938Y-246546400I271738J0D01*
G01*
X338374462Y-246546400D01*
G75*
G02*
X338646200Y-246818138I0J-271738D01*
G01*
X338646200Y-247774662D01*
G75*
G02*
X338374462Y-248046400I-271738J0D01*
G01*
X337667938Y-248046400D01*
G75*
G02*
X337396200Y-247774662I0J271738D01*
G01*
G37*
%TD*%
%TO.C,C3*%
G36*
G01*
X349321500Y-247838162D02*
X349321500Y-246881638D01*
G75*
G02*
X349593238Y-246609900I271738J0D01*
G01*
X350299762Y-246609900D01*
G75*
G02*
X350571500Y-246881638I0J-271738D01*
G01*
X350571500Y-247838162D01*
G75*
G02*
X350299762Y-248109900I-271738J0D01*
G01*
X349593238Y-248109900D01*
G75*
G02*
X349321500Y-247838162I0J271738D01*
G01*
G37*
G36*
G01*
X347271500Y-247838162D02*
X347271500Y-246881638D01*
G75*
G02*
X347543238Y-246609900I271738J0D01*
G01*
X348249762Y-246609900D01*
G75*
G02*
X348521500Y-246881638I0J-271738D01*
G01*
X348521500Y-247838162D01*
G75*
G02*
X348249762Y-248109900I-271738J0D01*
G01*
X347543238Y-248109900D01*
G75*
G02*
X347271500Y-247838162I0J271738D01*
G01*
G37*
%TD*%
D25*
%TO.C,J1*%
X360350000Y-257400000D03*
X359100000Y-252400000D03*
X357850000Y-257400000D03*
X356600000Y-252400000D03*
X355350000Y-257400000D03*
X354100000Y-252400000D03*
X352850000Y-257400000D03*
X351600000Y-252400000D03*
X350350000Y-257400000D03*
X349100000Y-252400000D03*
X347850000Y-257400000D03*
X346600000Y-252400000D03*
X345350000Y-257400000D03*
X344100000Y-252400000D03*
X342850000Y-257400000D03*
X341600000Y-252400000D03*
X340350000Y-257400000D03*
X339100000Y-252400000D03*
X337850000Y-257400000D03*
X336600000Y-252400000D03*
X335350000Y-257400000D03*
X334100000Y-252400000D03*
X332850000Y-257400000D03*
X331600000Y-252400000D03*
X330350000Y-257400000D03*
X329100000Y-252400000D03*
X327850000Y-257400000D03*
X326600000Y-252400000D03*
X325350000Y-257400000D03*
X324100000Y-252400000D03*
X322850000Y-257400000D03*
%TD*%
M02*
