%TF.GenerationSoftware,KiCad,Pcbnew,(5.1.6-0)*%
%TF.CreationDate,2023-03-06T10:11:25+01:00*%
%TF.ProjectId,A500KB,41353030-4b42-42e6-9b69-6361645f7063,3*%
%TF.SameCoordinates,Original*%
%TF.FileFunction,Other,Fab,Top*%
%FSLAX46Y46*%
G04 Gerber Fmt 4.6, Leading zero omitted, Abs format (unit mm)*
G04 Created by KiCad (PCBNEW (5.1.6-0)) date 2023-03-06 10:11:25*
%MOMM*%
%LPD*%
G01*
G04 APERTURE LIST*
%ADD10C,0.100000*%
%ADD11C,0.150000*%
%ADD12C,0.075000*%
%ADD13C,0.080000*%
G04 APERTURE END LIST*
D10*
%TO.C,D51*%
X453203400Y-243437500D02*
G75*
G03*
X453203400Y-243437500I-1120000J0D01*
G01*
X453483400Y-242837500D02*
X452483400Y-241837500D01*
X453483400Y-241837500D02*
X450683400Y-241837500D01*
X450683400Y-241837500D02*
X450683400Y-245037500D01*
X450683400Y-245037500D02*
X453483400Y-245037500D01*
X453483400Y-245037500D02*
X453483400Y-241837500D01*
%TO.C,R16*%
X360285740Y-227809440D02*
X361485740Y-227809440D01*
X361485740Y-227809440D02*
X361485740Y-229809440D01*
X361485740Y-229809440D02*
X360285740Y-229809440D01*
X360285740Y-229809440D02*
X360285740Y-227809440D01*
%TO.C,R15*%
X363511540Y-227832520D02*
X364711540Y-227832520D01*
X364711540Y-227832520D02*
X364711540Y-229832520D01*
X364711540Y-229832520D02*
X363511540Y-229832520D01*
X363511540Y-229832520D02*
X363511540Y-227832520D01*
%TO.C,R14*%
X406298000Y-242154000D02*
X406298000Y-240954000D01*
X406298000Y-240954000D02*
X408298000Y-240954000D01*
X408298000Y-240954000D02*
X408298000Y-242154000D01*
X408298000Y-242154000D02*
X406298000Y-242154000D01*
%TO.C,R13*%
X412122000Y-242154000D02*
X412122000Y-240954000D01*
X412122000Y-240954000D02*
X414122000Y-240954000D01*
X414122000Y-240954000D02*
X414122000Y-242154000D01*
X414122000Y-242154000D02*
X412122000Y-242154000D01*
%TO.C,R12*%
X420363000Y-229270000D02*
X420363000Y-230470000D01*
X420363000Y-230470000D02*
X418363000Y-230470000D01*
X418363000Y-230470000D02*
X418363000Y-229270000D01*
X418363000Y-229270000D02*
X420363000Y-229270000D01*
%TO.C,R11*%
X363382000Y-235465000D02*
X364582000Y-235465000D01*
X364582000Y-235465000D02*
X364582000Y-237465000D01*
X364582000Y-237465000D02*
X363382000Y-237465000D01*
X363382000Y-237465000D02*
X363382000Y-235465000D01*
%TO.C,R10*%
X361096000Y-235474000D02*
X362296000Y-235474000D01*
X362296000Y-235474000D02*
X362296000Y-237474000D01*
X362296000Y-237474000D02*
X361096000Y-237474000D01*
X361096000Y-237474000D02*
X361096000Y-235474000D01*
%TO.C,R9*%
X420354000Y-231810000D02*
X420354000Y-233010000D01*
X420354000Y-233010000D02*
X418354000Y-233010000D01*
X418354000Y-233010000D02*
X418354000Y-231810000D01*
X418354000Y-231810000D02*
X420354000Y-231810000D01*
%TO.C,R8*%
X420354000Y-234350000D02*
X420354000Y-235550000D01*
X420354000Y-235550000D02*
X418354000Y-235550000D01*
X418354000Y-235550000D02*
X418354000Y-234350000D01*
X418354000Y-234350000D02*
X420354000Y-234350000D01*
%TO.C,C16*%
X424787500Y-241550000D02*
G75*
G03*
X424787500Y-241550000I-3150000J0D01*
G01*
X418337500Y-244850000D02*
X418337500Y-238250000D01*
X423937500Y-244850000D02*
X418337500Y-244850000D01*
X423937500Y-238250000D02*
X418337500Y-238250000D01*
X424937500Y-243850000D02*
X424937500Y-239250000D01*
X424937500Y-243850000D02*
X423937500Y-244850000D01*
X424937500Y-239250000D02*
X423937500Y-238250000D01*
%TO.C,C15*%
X424787500Y-249650000D02*
G75*
G03*
X424787500Y-249650000I-3150000J0D01*
G01*
X418337500Y-252950000D02*
X418337500Y-246350000D01*
X423937500Y-252950000D02*
X418337500Y-252950000D01*
X423937500Y-246350000D02*
X418337500Y-246350000D01*
X424937500Y-251950000D02*
X424937500Y-247350000D01*
X424937500Y-251950000D02*
X423937500Y-252950000D01*
X424937500Y-247350000D02*
X423937500Y-246350000D01*
%TO.C,R7*%
X429025000Y-254300000D02*
X429025000Y-253100000D01*
X429025000Y-253100000D02*
X431025000Y-253100000D01*
X431025000Y-253100000D02*
X431025000Y-254300000D01*
X431025000Y-254300000D02*
X429025000Y-254300000D01*
%TO.C,R6*%
X411350000Y-231600000D02*
X411350000Y-232800000D01*
X411350000Y-232800000D02*
X409350000Y-232800000D01*
X409350000Y-232800000D02*
X409350000Y-231600000D01*
X409350000Y-231600000D02*
X411350000Y-231600000D01*
%TO.C,R5*%
X372050000Y-240300000D02*
X372050000Y-241500000D01*
X372050000Y-241500000D02*
X370050000Y-241500000D01*
X370050000Y-241500000D02*
X370050000Y-240300000D01*
X370050000Y-240300000D02*
X372050000Y-240300000D01*
%TO.C,R4*%
X321650000Y-235925000D02*
X320450000Y-235925000D01*
X320450000Y-235925000D02*
X320450000Y-233925000D01*
X320450000Y-233925000D02*
X321650000Y-233925000D01*
X321650000Y-233925000D02*
X321650000Y-235925000D01*
%TO.C,R3*%
X319300000Y-235925000D02*
X318100000Y-235925000D01*
X318100000Y-235925000D02*
X318100000Y-233925000D01*
X318100000Y-233925000D02*
X319300000Y-233925000D01*
X319300000Y-233925000D02*
X319300000Y-235925000D01*
%TO.C,R2*%
X366250000Y-252700000D02*
X366250000Y-251500000D01*
X366250000Y-251500000D02*
X368250000Y-251500000D01*
X368250000Y-251500000D02*
X368250000Y-252700000D01*
X368250000Y-252700000D02*
X366250000Y-252700000D01*
%TO.C,R1*%
X377400000Y-253075000D02*
X376200000Y-253075000D01*
X376200000Y-253075000D02*
X376200000Y-251075000D01*
X376200000Y-251075000D02*
X377400000Y-251075000D01*
X377400000Y-251075000D02*
X377400000Y-253075000D01*
%TO.C,Q1*%
X372950000Y-253050000D02*
X372950000Y-250600000D01*
X372400000Y-253620000D02*
X371550000Y-253620000D01*
X372950000Y-253050000D02*
X372400000Y-253620000D01*
X371550000Y-253620000D02*
X371550000Y-250580000D01*
X372950000Y-250580000D02*
X371550000Y-250580000D01*
%TO.C,C9*%
X436275000Y-255350000D02*
X436275000Y-256550000D01*
X436275000Y-256550000D02*
X434275000Y-256550000D01*
X434275000Y-256550000D02*
X434275000Y-255350000D01*
X434275000Y-255350000D02*
X436275000Y-255350000D01*
%TO.C,C13*%
X431050000Y-250450000D02*
X431050000Y-251650000D01*
X431050000Y-251650000D02*
X429050000Y-251650000D01*
X429050000Y-251650000D02*
X429050000Y-250450000D01*
X429050000Y-250450000D02*
X431050000Y-250450000D01*
%TO.C,C14*%
X404350000Y-232800000D02*
X404350000Y-231600000D01*
X404350000Y-231600000D02*
X406350000Y-231600000D01*
X406350000Y-231600000D02*
X406350000Y-232800000D01*
X406350000Y-232800000D02*
X404350000Y-232800000D01*
%TO.C,C12*%
X428550000Y-246175000D02*
X429750000Y-246175000D01*
X429750000Y-246175000D02*
X429750000Y-248175000D01*
X429750000Y-248175000D02*
X428550000Y-248175000D01*
X428550000Y-248175000D02*
X428550000Y-246175000D01*
%TO.C,C11*%
X439425000Y-256550000D02*
X439425000Y-255350000D01*
X439425000Y-255350000D02*
X441425000Y-255350000D01*
X441425000Y-255350000D02*
X441425000Y-256550000D01*
X441425000Y-256550000D02*
X439425000Y-256550000D01*
%TO.C,U1*%
X438962500Y-250400000D02*
X432962500Y-250400000D01*
X432962500Y-250400000D02*
X432962500Y-243400000D01*
X432962500Y-243400000D02*
X439962500Y-243400000D01*
X439962500Y-243400000D02*
X439962500Y-249400000D01*
X439962500Y-249400000D02*
X438962500Y-250400000D01*
%TO.C,C8*%
X333525000Y-228400000D02*
X333525000Y-229600000D01*
X333525000Y-229600000D02*
X331525000Y-229600000D01*
X331525000Y-229600000D02*
X331525000Y-228400000D01*
X331525000Y-228400000D02*
X333525000Y-228400000D01*
%TO.C,C7*%
X429750000Y-243325000D02*
X428550000Y-243325000D01*
X428550000Y-243325000D02*
X428550000Y-241325000D01*
X428550000Y-241325000D02*
X429750000Y-241325000D01*
X429750000Y-241325000D02*
X429750000Y-243325000D01*
%TO.C,C2*%
X331525000Y-242650000D02*
X331525000Y-241450000D01*
X331525000Y-241450000D02*
X333525000Y-241450000D01*
X333525000Y-241450000D02*
X333525000Y-242650000D01*
X333525000Y-242650000D02*
X331525000Y-242650000D01*
%TO.C,C1*%
X332935500Y-247909100D02*
X332935500Y-246709100D01*
X332935500Y-246709100D02*
X334935500Y-246709100D01*
X334935500Y-246709100D02*
X334935500Y-247909100D01*
X334935500Y-247909100D02*
X332935500Y-247909100D01*
%TO.C,D53*%
X461267200Y-243417200D02*
G75*
G03*
X461267200Y-243417200I-1120000J0D01*
G01*
X461547200Y-242817200D02*
X460547200Y-241817200D01*
X461547200Y-241817200D02*
X458747200Y-241817200D01*
X458747200Y-241817200D02*
X458747200Y-245017200D01*
X458747200Y-245017200D02*
X461547200Y-245017200D01*
X461547200Y-245017200D02*
X461547200Y-241817200D01*
%TO.C,D52*%
X457215900Y-243429900D02*
G75*
G03*
X457215900Y-243429900I-1120000J0D01*
G01*
X457495900Y-242829900D02*
X456495900Y-241829900D01*
X457495900Y-241829900D02*
X454695900Y-241829900D01*
X454695900Y-241829900D02*
X454695900Y-245029900D01*
X454695900Y-245029900D02*
X457495900Y-245029900D01*
X457495900Y-245029900D02*
X457495900Y-241829900D01*
%TO.C,J5*%
X375028460Y-228813360D02*
X375028460Y-226908360D01*
X375028460Y-226908360D02*
X380108460Y-226908360D01*
X380108460Y-226908360D02*
X380108460Y-229448360D01*
X380108460Y-229448360D02*
X375663460Y-229448360D01*
X375663460Y-229448360D02*
X375028460Y-228813360D01*
%TO.C,Y2*%
X346473300Y-248921800D02*
X341473300Y-248921800D01*
X341473300Y-248921800D02*
X341473300Y-245721800D01*
X346473300Y-245721800D02*
X341473300Y-245721800D01*
X346473300Y-248921800D02*
X346473300Y-245721800D01*
%TO.C,D7*%
X461278400Y-251375000D02*
G75*
G03*
X461278400Y-251375000I-1120000J0D01*
G01*
X458758400Y-251975000D02*
X459758400Y-252975000D01*
X458758400Y-252975000D02*
X461558400Y-252975000D01*
X461558400Y-252975000D02*
X461558400Y-249775000D01*
X461558400Y-249775000D02*
X458758400Y-249775000D01*
X458758400Y-249775000D02*
X458758400Y-252975000D01*
%TO.C,D6*%
X457214400Y-251375000D02*
G75*
G03*
X457214400Y-251375000I-1120000J0D01*
G01*
X454694400Y-251975000D02*
X455694400Y-252975000D01*
X454694400Y-252975000D02*
X457494400Y-252975000D01*
X457494400Y-252975000D02*
X457494400Y-249775000D01*
X457494400Y-249775000D02*
X454694400Y-249775000D01*
X454694400Y-249775000D02*
X454694400Y-252975000D01*
%TO.C,D5*%
X453187000Y-251388000D02*
G75*
G03*
X453187000Y-251388000I-1120000J0D01*
G01*
X450667000Y-251988000D02*
X451667000Y-252988000D01*
X450667000Y-252988000D02*
X453467000Y-252988000D01*
X453467000Y-252988000D02*
X453467000Y-249788000D01*
X453467000Y-249788000D02*
X450667000Y-249788000D01*
X450667000Y-249788000D02*
X450667000Y-252988000D01*
%TO.C,J4*%
X395330000Y-228835000D02*
X395330000Y-226930000D01*
X395330000Y-226930000D02*
X415650000Y-226930000D01*
X415650000Y-226930000D02*
X415650000Y-229470000D01*
X415650000Y-229470000D02*
X395965000Y-229470000D01*
X395965000Y-229470000D02*
X395330000Y-228835000D01*
D11*
%TO.C,U2*%
X338748400Y-227704200D02*
X351748400Y-227704200D01*
X351748400Y-227704200D02*
X351748400Y-241704200D01*
X351748400Y-241704200D02*
X337748400Y-241704200D01*
X337748400Y-241704200D02*
X337748400Y-228704200D01*
X337748400Y-228704200D02*
X338748400Y-227704200D01*
D10*
%TO.C,J3*%
X366930000Y-236600000D02*
X366930000Y-232790000D01*
X366930000Y-232790000D02*
X374550000Y-232790000D01*
X374550000Y-232790000D02*
X374550000Y-237870000D01*
X374550000Y-237870000D02*
X368200000Y-237870000D01*
X368200000Y-237870000D02*
X366930000Y-236600000D01*
%TO.C,C6*%
X357044700Y-227842680D02*
X358244700Y-227842680D01*
X358244700Y-227842680D02*
X358244700Y-229842680D01*
X358244700Y-229842680D02*
X357044700Y-229842680D01*
X357044700Y-229842680D02*
X357044700Y-227842680D01*
%TO.C,C5*%
X333500000Y-232450000D02*
X333500000Y-233650000D01*
X333500000Y-233650000D02*
X331500000Y-233650000D01*
X331500000Y-233650000D02*
X331500000Y-232450000D01*
X331500000Y-232450000D02*
X333500000Y-232450000D01*
%TO.C,C4*%
X338046200Y-247896400D02*
X338046200Y-246696400D01*
X338046200Y-246696400D02*
X340046200Y-246696400D01*
X340046200Y-246696400D02*
X340046200Y-247896400D01*
X340046200Y-247896400D02*
X338046200Y-247896400D01*
%TO.C,C3*%
X347921500Y-247959900D02*
X347921500Y-246759900D01*
X347921500Y-246759900D02*
X349921500Y-246759900D01*
X349921500Y-246759900D02*
X349921500Y-247959900D01*
X349921500Y-247959900D02*
X347921500Y-247959900D01*
%TD*%
%TO.C,H26*%
D11*
X381616865Y-231774280D02*
X381616865Y-230774280D01*
X381950199Y-231488566D01*
X382283532Y-230774280D01*
X382283532Y-231774280D01*
X382902580Y-231774280D02*
X382807341Y-231726661D01*
X382759722Y-231679042D01*
X382712103Y-231583804D01*
X382712103Y-231298090D01*
X382759722Y-231202852D01*
X382807341Y-231155233D01*
X382902580Y-231107614D01*
X383045437Y-231107614D01*
X383140675Y-231155233D01*
X383188294Y-231202852D01*
X383235913Y-231298090D01*
X383235913Y-231583804D01*
X383188294Y-231679042D01*
X383140675Y-231726661D01*
X383045437Y-231774280D01*
X382902580Y-231774280D01*
X384093056Y-231107614D02*
X384093056Y-231774280D01*
X383664484Y-231107614D02*
X383664484Y-231631423D01*
X383712103Y-231726661D01*
X383807341Y-231774280D01*
X383950199Y-231774280D01*
X384045437Y-231726661D01*
X384093056Y-231679042D01*
X384569246Y-231107614D02*
X384569246Y-231774280D01*
X384569246Y-231202852D02*
X384616865Y-231155233D01*
X384712103Y-231107614D01*
X384854960Y-231107614D01*
X384950199Y-231155233D01*
X384997818Y-231250471D01*
X384997818Y-231774280D01*
X385331151Y-231107614D02*
X385712103Y-231107614D01*
X385474008Y-230774280D02*
X385474008Y-231631423D01*
X385521627Y-231726661D01*
X385616865Y-231774280D01*
X385712103Y-231774280D01*
X386045437Y-231774280D02*
X386045437Y-231107614D01*
X386045437Y-230774280D02*
X385997818Y-230821900D01*
X386045437Y-230869519D01*
X386093056Y-230821900D01*
X386045437Y-230774280D01*
X386045437Y-230869519D01*
X386521627Y-231107614D02*
X386521627Y-231774280D01*
X386521627Y-231202852D02*
X386569246Y-231155233D01*
X386664484Y-231107614D01*
X386807341Y-231107614D01*
X386902580Y-231155233D01*
X386950199Y-231250471D01*
X386950199Y-231774280D01*
X387854960Y-231107614D02*
X387854960Y-231917138D01*
X387807341Y-232012376D01*
X387759722Y-232059995D01*
X387664484Y-232107614D01*
X387521627Y-232107614D01*
X387426389Y-232059995D01*
X387854960Y-231726661D02*
X387759722Y-231774280D01*
X387569246Y-231774280D01*
X387474008Y-231726661D01*
X387426389Y-231679042D01*
X387378770Y-231583804D01*
X387378770Y-231298090D01*
X387426389Y-231202852D01*
X387474008Y-231155233D01*
X387569246Y-231107614D01*
X387759722Y-231107614D01*
X387854960Y-231155233D01*
X388331151Y-231774280D02*
X388331151Y-230774280D01*
X388331151Y-231250471D02*
X388902580Y-231250471D01*
X388902580Y-231774280D02*
X388902580Y-230774280D01*
X389521627Y-231774280D02*
X389426389Y-231726661D01*
X389378770Y-231679042D01*
X389331151Y-231583804D01*
X389331151Y-231298090D01*
X389378770Y-231202852D01*
X389426389Y-231155233D01*
X389521627Y-231107614D01*
X389664484Y-231107614D01*
X389759722Y-231155233D01*
X389807341Y-231202852D01*
X389854960Y-231298090D01*
X389854960Y-231583804D01*
X389807341Y-231679042D01*
X389759722Y-231726661D01*
X389664484Y-231774280D01*
X389521627Y-231774280D01*
X390426389Y-231774280D02*
X390331151Y-231726661D01*
X390283532Y-231631423D01*
X390283532Y-230774280D01*
X391188294Y-231726661D02*
X391093056Y-231774280D01*
X390902580Y-231774280D01*
X390807341Y-231726661D01*
X390759722Y-231631423D01*
X390759722Y-231250471D01*
X390807341Y-231155233D01*
X390902580Y-231107614D01*
X391093056Y-231107614D01*
X391188294Y-231155233D01*
X391235913Y-231250471D01*
X391235913Y-231345709D01*
X390759722Y-231440947D01*
X385194964Y-223124020D02*
X385194964Y-222124020D01*
X385194964Y-222600211D02*
X385766393Y-222600211D01*
X385766393Y-223124020D02*
X385766393Y-222124020D01*
X386194964Y-222219259D02*
X386242583Y-222171640D01*
X386337821Y-222124020D01*
X386575917Y-222124020D01*
X386671155Y-222171640D01*
X386718774Y-222219259D01*
X386766393Y-222314497D01*
X386766393Y-222409735D01*
X386718774Y-222552592D01*
X386147345Y-223124020D01*
X386766393Y-223124020D01*
X387623536Y-222124020D02*
X387433060Y-222124020D01*
X387337821Y-222171640D01*
X387290202Y-222219259D01*
X387194964Y-222362116D01*
X387147345Y-222552592D01*
X387147345Y-222933544D01*
X387194964Y-223028782D01*
X387242583Y-223076401D01*
X387337821Y-223124020D01*
X387528298Y-223124020D01*
X387623536Y-223076401D01*
X387671155Y-223028782D01*
X387718774Y-222933544D01*
X387718774Y-222695449D01*
X387671155Y-222600211D01*
X387623536Y-222552592D01*
X387528298Y-222504973D01*
X387337821Y-222504973D01*
X387242583Y-222552592D01*
X387194964Y-222600211D01*
X387147345Y-222695449D01*
%TO.C,D51*%
X449885780Y-246389880D02*
X449885780Y-246866071D01*
X448885780Y-246866071D01*
X449361971Y-246056547D02*
X449361971Y-245723214D01*
X449885780Y-245580357D02*
X449885780Y-246056547D01*
X448885780Y-246056547D01*
X448885780Y-245580357D01*
X449885780Y-245151785D02*
X448885780Y-245151785D01*
X448885780Y-244913690D01*
X448933400Y-244770833D01*
X449028638Y-244675595D01*
X449123876Y-244627976D01*
X449314352Y-244580357D01*
X449457209Y-244580357D01*
X449647685Y-244627976D01*
X449742923Y-244675595D01*
X449838161Y-244770833D01*
X449885780Y-244913690D01*
X449885780Y-245151785D01*
X449981019Y-244389880D02*
X449981019Y-243627976D01*
X449600066Y-243437500D02*
X449600066Y-242961309D01*
X449885780Y-243532738D02*
X448885780Y-243199404D01*
X449885780Y-242866071D01*
X449885780Y-241961309D02*
X449409590Y-242294642D01*
X449885780Y-242532738D02*
X448885780Y-242532738D01*
X448885780Y-242151785D01*
X448933400Y-242056547D01*
X448981019Y-242008928D01*
X449076257Y-241961309D01*
X449219114Y-241961309D01*
X449314352Y-242008928D01*
X449361971Y-242056547D01*
X449409590Y-242151785D01*
X449409590Y-242532738D01*
X449361971Y-241199404D02*
X449409590Y-241056547D01*
X449457209Y-241008928D01*
X449552447Y-240961309D01*
X449695304Y-240961309D01*
X449790542Y-241008928D01*
X449838161Y-241056547D01*
X449885780Y-241151785D01*
X449885780Y-241532738D01*
X448885780Y-241532738D01*
X448885780Y-241199404D01*
X448933400Y-241104166D01*
X448981019Y-241056547D01*
X449076257Y-241008928D01*
X449171495Y-241008928D01*
X449266733Y-241056547D01*
X449314352Y-241104166D01*
X449361971Y-241199404D01*
X449361971Y-241532738D01*
X448933400Y-240008928D02*
X448885780Y-240104166D01*
X448885780Y-240247023D01*
X448933400Y-240389880D01*
X449028638Y-240485119D01*
X449123876Y-240532738D01*
X449314352Y-240580357D01*
X449457209Y-240580357D01*
X449647685Y-240532738D01*
X449742923Y-240485119D01*
X449838161Y-240389880D01*
X449885780Y-240247023D01*
X449885780Y-240151785D01*
X449838161Y-240008928D01*
X449790542Y-239961309D01*
X449457209Y-239961309D01*
X449457209Y-240151785D01*
D12*
X451476257Y-243663690D02*
X451476257Y-243163690D01*
X451595304Y-243163690D01*
X451666733Y-243187500D01*
X451714352Y-243235119D01*
X451738161Y-243282738D01*
X451761971Y-243377976D01*
X451761971Y-243449404D01*
X451738161Y-243544642D01*
X451714352Y-243592261D01*
X451666733Y-243639880D01*
X451595304Y-243663690D01*
X451476257Y-243663690D01*
X452214352Y-243163690D02*
X451976257Y-243163690D01*
X451952447Y-243401785D01*
X451976257Y-243377976D01*
X452023876Y-243354166D01*
X452142923Y-243354166D01*
X452190542Y-243377976D01*
X452214352Y-243401785D01*
X452238161Y-243449404D01*
X452238161Y-243568452D01*
X452214352Y-243616071D01*
X452190542Y-243639880D01*
X452142923Y-243663690D01*
X452023876Y-243663690D01*
X451976257Y-243639880D01*
X451952447Y-243616071D01*
X452714352Y-243663690D02*
X452428638Y-243663690D01*
X452571495Y-243663690D02*
X452571495Y-243163690D01*
X452523876Y-243235119D01*
X452476257Y-243282738D01*
X452428638Y-243306547D01*
%TO.C,H25*%
D11*
X460590545Y-242054520D02*
X460590545Y-241054520D01*
X460923879Y-241768806D01*
X461257212Y-241054520D01*
X461257212Y-242054520D01*
X461876260Y-242054520D02*
X461781021Y-242006901D01*
X461733402Y-241959282D01*
X461685783Y-241864044D01*
X461685783Y-241578330D01*
X461733402Y-241483092D01*
X461781021Y-241435473D01*
X461876260Y-241387854D01*
X462019117Y-241387854D01*
X462114355Y-241435473D01*
X462161974Y-241483092D01*
X462209593Y-241578330D01*
X462209593Y-241864044D01*
X462161974Y-241959282D01*
X462114355Y-242006901D01*
X462019117Y-242054520D01*
X461876260Y-242054520D01*
X463066736Y-241387854D02*
X463066736Y-242054520D01*
X462638164Y-241387854D02*
X462638164Y-241911663D01*
X462685783Y-242006901D01*
X462781021Y-242054520D01*
X462923879Y-242054520D01*
X463019117Y-242006901D01*
X463066736Y-241959282D01*
X463542926Y-241387854D02*
X463542926Y-242054520D01*
X463542926Y-241483092D02*
X463590545Y-241435473D01*
X463685783Y-241387854D01*
X463828640Y-241387854D01*
X463923879Y-241435473D01*
X463971498Y-241530711D01*
X463971498Y-242054520D01*
X464304831Y-241387854D02*
X464685783Y-241387854D01*
X464447688Y-241054520D02*
X464447688Y-241911663D01*
X464495307Y-242006901D01*
X464590545Y-242054520D01*
X464685783Y-242054520D01*
X465019117Y-242054520D02*
X465019117Y-241387854D01*
X465019117Y-241054520D02*
X464971498Y-241102140D01*
X465019117Y-241149759D01*
X465066736Y-241102140D01*
X465019117Y-241054520D01*
X465019117Y-241149759D01*
X465495307Y-241387854D02*
X465495307Y-242054520D01*
X465495307Y-241483092D02*
X465542926Y-241435473D01*
X465638164Y-241387854D01*
X465781021Y-241387854D01*
X465876260Y-241435473D01*
X465923879Y-241530711D01*
X465923879Y-242054520D01*
X466828640Y-241387854D02*
X466828640Y-242197378D01*
X466781021Y-242292616D01*
X466733402Y-242340235D01*
X466638164Y-242387854D01*
X466495307Y-242387854D01*
X466400069Y-242340235D01*
X466828640Y-242006901D02*
X466733402Y-242054520D01*
X466542926Y-242054520D01*
X466447688Y-242006901D01*
X466400069Y-241959282D01*
X466352450Y-241864044D01*
X466352450Y-241578330D01*
X466400069Y-241483092D01*
X466447688Y-241435473D01*
X466542926Y-241387854D01*
X466733402Y-241387854D01*
X466828640Y-241435473D01*
X467304831Y-242054520D02*
X467304831Y-241054520D01*
X467304831Y-241530711D02*
X467876260Y-241530711D01*
X467876260Y-242054520D02*
X467876260Y-241054520D01*
X468495307Y-242054520D02*
X468400069Y-242006901D01*
X468352450Y-241959282D01*
X468304831Y-241864044D01*
X468304831Y-241578330D01*
X468352450Y-241483092D01*
X468400069Y-241435473D01*
X468495307Y-241387854D01*
X468638164Y-241387854D01*
X468733402Y-241435473D01*
X468781021Y-241483092D01*
X468828640Y-241578330D01*
X468828640Y-241864044D01*
X468781021Y-241959282D01*
X468733402Y-242006901D01*
X468638164Y-242054520D01*
X468495307Y-242054520D01*
X469400069Y-242054520D02*
X469304831Y-242006901D01*
X469257212Y-241911663D01*
X469257212Y-241054520D01*
X470161974Y-242006901D02*
X470066736Y-242054520D01*
X469876260Y-242054520D01*
X469781021Y-242006901D01*
X469733402Y-241911663D01*
X469733402Y-241530711D01*
X469781021Y-241435473D01*
X469876260Y-241387854D01*
X470066736Y-241387854D01*
X470161974Y-241435473D01*
X470209593Y-241530711D01*
X470209593Y-241625949D01*
X469733402Y-241721187D01*
X464061964Y-235125520D02*
X464061964Y-234125520D01*
X464061964Y-234601711D02*
X464633393Y-234601711D01*
X464633393Y-235125520D02*
X464633393Y-234125520D01*
X465061964Y-234220759D02*
X465109583Y-234173140D01*
X465204821Y-234125520D01*
X465442917Y-234125520D01*
X465538155Y-234173140D01*
X465585774Y-234220759D01*
X465633393Y-234315997D01*
X465633393Y-234411235D01*
X465585774Y-234554092D01*
X465014345Y-235125520D01*
X465633393Y-235125520D01*
X466538155Y-234125520D02*
X466061964Y-234125520D01*
X466014345Y-234601711D01*
X466061964Y-234554092D01*
X466157202Y-234506473D01*
X466395298Y-234506473D01*
X466490536Y-234554092D01*
X466538155Y-234601711D01*
X466585774Y-234696949D01*
X466585774Y-234935044D01*
X466538155Y-235030282D01*
X466490536Y-235077901D01*
X466395298Y-235125520D01*
X466157202Y-235125520D01*
X466061964Y-235077901D01*
X466014345Y-235030282D01*
%TO.C,H24*%
X440608365Y-261295020D02*
X440608365Y-260295020D01*
X440941699Y-261009306D01*
X441275032Y-260295020D01*
X441275032Y-261295020D01*
X441894080Y-261295020D02*
X441798841Y-261247401D01*
X441751222Y-261199782D01*
X441703603Y-261104544D01*
X441703603Y-260818830D01*
X441751222Y-260723592D01*
X441798841Y-260675973D01*
X441894080Y-260628354D01*
X442036937Y-260628354D01*
X442132175Y-260675973D01*
X442179794Y-260723592D01*
X442227413Y-260818830D01*
X442227413Y-261104544D01*
X442179794Y-261199782D01*
X442132175Y-261247401D01*
X442036937Y-261295020D01*
X441894080Y-261295020D01*
X443084556Y-260628354D02*
X443084556Y-261295020D01*
X442655984Y-260628354D02*
X442655984Y-261152163D01*
X442703603Y-261247401D01*
X442798841Y-261295020D01*
X442941699Y-261295020D01*
X443036937Y-261247401D01*
X443084556Y-261199782D01*
X443560746Y-260628354D02*
X443560746Y-261295020D01*
X443560746Y-260723592D02*
X443608365Y-260675973D01*
X443703603Y-260628354D01*
X443846460Y-260628354D01*
X443941699Y-260675973D01*
X443989318Y-260771211D01*
X443989318Y-261295020D01*
X444322651Y-260628354D02*
X444703603Y-260628354D01*
X444465508Y-260295020D02*
X444465508Y-261152163D01*
X444513127Y-261247401D01*
X444608365Y-261295020D01*
X444703603Y-261295020D01*
X445036937Y-261295020D02*
X445036937Y-260628354D01*
X445036937Y-260295020D02*
X444989318Y-260342640D01*
X445036937Y-260390259D01*
X445084556Y-260342640D01*
X445036937Y-260295020D01*
X445036937Y-260390259D01*
X445513127Y-260628354D02*
X445513127Y-261295020D01*
X445513127Y-260723592D02*
X445560746Y-260675973D01*
X445655984Y-260628354D01*
X445798841Y-260628354D01*
X445894080Y-260675973D01*
X445941699Y-260771211D01*
X445941699Y-261295020D01*
X446846460Y-260628354D02*
X446846460Y-261437878D01*
X446798841Y-261533116D01*
X446751222Y-261580735D01*
X446655984Y-261628354D01*
X446513127Y-261628354D01*
X446417889Y-261580735D01*
X446846460Y-261247401D02*
X446751222Y-261295020D01*
X446560746Y-261295020D01*
X446465508Y-261247401D01*
X446417889Y-261199782D01*
X446370270Y-261104544D01*
X446370270Y-260818830D01*
X446417889Y-260723592D01*
X446465508Y-260675973D01*
X446560746Y-260628354D01*
X446751222Y-260628354D01*
X446846460Y-260675973D01*
X447322651Y-261295020D02*
X447322651Y-260295020D01*
X447322651Y-260771211D02*
X447894080Y-260771211D01*
X447894080Y-261295020D02*
X447894080Y-260295020D01*
X448513127Y-261295020D02*
X448417889Y-261247401D01*
X448370270Y-261199782D01*
X448322651Y-261104544D01*
X448322651Y-260818830D01*
X448370270Y-260723592D01*
X448417889Y-260675973D01*
X448513127Y-260628354D01*
X448655984Y-260628354D01*
X448751222Y-260675973D01*
X448798841Y-260723592D01*
X448846460Y-260818830D01*
X448846460Y-261104544D01*
X448798841Y-261199782D01*
X448751222Y-261247401D01*
X448655984Y-261295020D01*
X448513127Y-261295020D01*
X449417889Y-261295020D02*
X449322651Y-261247401D01*
X449275032Y-261152163D01*
X449275032Y-260295020D01*
X450179794Y-261247401D02*
X450084556Y-261295020D01*
X449894080Y-261295020D01*
X449798841Y-261247401D01*
X449751222Y-261152163D01*
X449751222Y-260771211D01*
X449798841Y-260675973D01*
X449894080Y-260628354D01*
X450084556Y-260628354D01*
X450179794Y-260675973D01*
X450227413Y-260771211D01*
X450227413Y-260866449D01*
X449751222Y-260961687D01*
X444069624Y-252908060D02*
X444069624Y-251908060D01*
X444069624Y-252384251D02*
X444641053Y-252384251D01*
X444641053Y-252908060D02*
X444641053Y-251908060D01*
X445069624Y-252003299D02*
X445117243Y-251955680D01*
X445212481Y-251908060D01*
X445450577Y-251908060D01*
X445545815Y-251955680D01*
X445593434Y-252003299D01*
X445641053Y-252098537D01*
X445641053Y-252193775D01*
X445593434Y-252336632D01*
X445022005Y-252908060D01*
X445641053Y-252908060D01*
X446498196Y-252241394D02*
X446498196Y-252908060D01*
X446260100Y-251860441D02*
X446022005Y-252574727D01*
X446641053Y-252574727D01*
%TO.C,H23*%
X307895905Y-262643240D02*
X307895905Y-261643240D01*
X308229239Y-262357526D01*
X308562572Y-261643240D01*
X308562572Y-262643240D01*
X309181620Y-262643240D02*
X309086381Y-262595621D01*
X309038762Y-262548002D01*
X308991143Y-262452764D01*
X308991143Y-262167050D01*
X309038762Y-262071812D01*
X309086381Y-262024193D01*
X309181620Y-261976574D01*
X309324477Y-261976574D01*
X309419715Y-262024193D01*
X309467334Y-262071812D01*
X309514953Y-262167050D01*
X309514953Y-262452764D01*
X309467334Y-262548002D01*
X309419715Y-262595621D01*
X309324477Y-262643240D01*
X309181620Y-262643240D01*
X310372096Y-261976574D02*
X310372096Y-262643240D01*
X309943524Y-261976574D02*
X309943524Y-262500383D01*
X309991143Y-262595621D01*
X310086381Y-262643240D01*
X310229239Y-262643240D01*
X310324477Y-262595621D01*
X310372096Y-262548002D01*
X310848286Y-261976574D02*
X310848286Y-262643240D01*
X310848286Y-262071812D02*
X310895905Y-262024193D01*
X310991143Y-261976574D01*
X311134000Y-261976574D01*
X311229239Y-262024193D01*
X311276858Y-262119431D01*
X311276858Y-262643240D01*
X311610191Y-261976574D02*
X311991143Y-261976574D01*
X311753048Y-261643240D02*
X311753048Y-262500383D01*
X311800667Y-262595621D01*
X311895905Y-262643240D01*
X311991143Y-262643240D01*
X312324477Y-262643240D02*
X312324477Y-261976574D01*
X312324477Y-261643240D02*
X312276858Y-261690860D01*
X312324477Y-261738479D01*
X312372096Y-261690860D01*
X312324477Y-261643240D01*
X312324477Y-261738479D01*
X312800667Y-261976574D02*
X312800667Y-262643240D01*
X312800667Y-262071812D02*
X312848286Y-262024193D01*
X312943524Y-261976574D01*
X313086381Y-261976574D01*
X313181620Y-262024193D01*
X313229239Y-262119431D01*
X313229239Y-262643240D01*
X314134000Y-261976574D02*
X314134000Y-262786098D01*
X314086381Y-262881336D01*
X314038762Y-262928955D01*
X313943524Y-262976574D01*
X313800667Y-262976574D01*
X313705429Y-262928955D01*
X314134000Y-262595621D02*
X314038762Y-262643240D01*
X313848286Y-262643240D01*
X313753048Y-262595621D01*
X313705429Y-262548002D01*
X313657810Y-262452764D01*
X313657810Y-262167050D01*
X313705429Y-262071812D01*
X313753048Y-262024193D01*
X313848286Y-261976574D01*
X314038762Y-261976574D01*
X314134000Y-262024193D01*
X314610191Y-262643240D02*
X314610191Y-261643240D01*
X314610191Y-262119431D02*
X315181620Y-262119431D01*
X315181620Y-262643240D02*
X315181620Y-261643240D01*
X315800667Y-262643240D02*
X315705429Y-262595621D01*
X315657810Y-262548002D01*
X315610191Y-262452764D01*
X315610191Y-262167050D01*
X315657810Y-262071812D01*
X315705429Y-262024193D01*
X315800667Y-261976574D01*
X315943524Y-261976574D01*
X316038762Y-262024193D01*
X316086381Y-262071812D01*
X316134000Y-262167050D01*
X316134000Y-262452764D01*
X316086381Y-262548002D01*
X316038762Y-262595621D01*
X315943524Y-262643240D01*
X315800667Y-262643240D01*
X316705429Y-262643240D02*
X316610191Y-262595621D01*
X316562572Y-262500383D01*
X316562572Y-261643240D01*
X317467334Y-262595621D02*
X317372096Y-262643240D01*
X317181620Y-262643240D01*
X317086381Y-262595621D01*
X317038762Y-262500383D01*
X317038762Y-262119431D01*
X317086381Y-262024193D01*
X317181620Y-261976574D01*
X317372096Y-261976574D01*
X317467334Y-262024193D01*
X317514953Y-262119431D01*
X317514953Y-262214669D01*
X317038762Y-262309907D01*
X311743524Y-258793240D02*
X311743524Y-257793240D01*
X311743524Y-258269431D02*
X312314953Y-258269431D01*
X312314953Y-258793240D02*
X312314953Y-257793240D01*
X312743524Y-257888479D02*
X312791143Y-257840860D01*
X312886381Y-257793240D01*
X313124477Y-257793240D01*
X313219715Y-257840860D01*
X313267334Y-257888479D01*
X313314953Y-257983717D01*
X313314953Y-258078955D01*
X313267334Y-258221812D01*
X312695905Y-258793240D01*
X313314953Y-258793240D01*
X313648286Y-257793240D02*
X314267334Y-257793240D01*
X313934000Y-258174193D01*
X314076858Y-258174193D01*
X314172096Y-258221812D01*
X314219715Y-258269431D01*
X314267334Y-258364669D01*
X314267334Y-258602764D01*
X314219715Y-258698002D01*
X314172096Y-258745621D01*
X314076858Y-258793240D01*
X313791143Y-258793240D01*
X313695905Y-258745621D01*
X313648286Y-258698002D01*
%TO.C,H22*%
X457913385Y-262645780D02*
X457913385Y-261645780D01*
X458246719Y-262360066D01*
X458580052Y-261645780D01*
X458580052Y-262645780D01*
X459199100Y-262645780D02*
X459103861Y-262598161D01*
X459056242Y-262550542D01*
X459008623Y-262455304D01*
X459008623Y-262169590D01*
X459056242Y-262074352D01*
X459103861Y-262026733D01*
X459199100Y-261979114D01*
X459341957Y-261979114D01*
X459437195Y-262026733D01*
X459484814Y-262074352D01*
X459532433Y-262169590D01*
X459532433Y-262455304D01*
X459484814Y-262550542D01*
X459437195Y-262598161D01*
X459341957Y-262645780D01*
X459199100Y-262645780D01*
X460389576Y-261979114D02*
X460389576Y-262645780D01*
X459961004Y-261979114D02*
X459961004Y-262502923D01*
X460008623Y-262598161D01*
X460103861Y-262645780D01*
X460246719Y-262645780D01*
X460341957Y-262598161D01*
X460389576Y-262550542D01*
X460865766Y-261979114D02*
X460865766Y-262645780D01*
X460865766Y-262074352D02*
X460913385Y-262026733D01*
X461008623Y-261979114D01*
X461151480Y-261979114D01*
X461246719Y-262026733D01*
X461294338Y-262121971D01*
X461294338Y-262645780D01*
X461627671Y-261979114D02*
X462008623Y-261979114D01*
X461770528Y-261645780D02*
X461770528Y-262502923D01*
X461818147Y-262598161D01*
X461913385Y-262645780D01*
X462008623Y-262645780D01*
X462341957Y-262645780D02*
X462341957Y-261979114D01*
X462341957Y-261645780D02*
X462294338Y-261693400D01*
X462341957Y-261741019D01*
X462389576Y-261693400D01*
X462341957Y-261645780D01*
X462341957Y-261741019D01*
X462818147Y-261979114D02*
X462818147Y-262645780D01*
X462818147Y-262074352D02*
X462865766Y-262026733D01*
X462961004Y-261979114D01*
X463103861Y-261979114D01*
X463199100Y-262026733D01*
X463246719Y-262121971D01*
X463246719Y-262645780D01*
X464151480Y-261979114D02*
X464151480Y-262788638D01*
X464103861Y-262883876D01*
X464056242Y-262931495D01*
X463961004Y-262979114D01*
X463818147Y-262979114D01*
X463722909Y-262931495D01*
X464151480Y-262598161D02*
X464056242Y-262645780D01*
X463865766Y-262645780D01*
X463770528Y-262598161D01*
X463722909Y-262550542D01*
X463675290Y-262455304D01*
X463675290Y-262169590D01*
X463722909Y-262074352D01*
X463770528Y-262026733D01*
X463865766Y-261979114D01*
X464056242Y-261979114D01*
X464151480Y-262026733D01*
X464627671Y-262645780D02*
X464627671Y-261645780D01*
X464627671Y-262121971D02*
X465199100Y-262121971D01*
X465199100Y-262645780D02*
X465199100Y-261645780D01*
X465818147Y-262645780D02*
X465722909Y-262598161D01*
X465675290Y-262550542D01*
X465627671Y-262455304D01*
X465627671Y-262169590D01*
X465675290Y-262074352D01*
X465722909Y-262026733D01*
X465818147Y-261979114D01*
X465961004Y-261979114D01*
X466056242Y-262026733D01*
X466103861Y-262074352D01*
X466151480Y-262169590D01*
X466151480Y-262455304D01*
X466103861Y-262550542D01*
X466056242Y-262598161D01*
X465961004Y-262645780D01*
X465818147Y-262645780D01*
X466722909Y-262645780D02*
X466627671Y-262598161D01*
X466580052Y-262502923D01*
X466580052Y-261645780D01*
X467484814Y-262598161D02*
X467389576Y-262645780D01*
X467199100Y-262645780D01*
X467103861Y-262598161D01*
X467056242Y-262502923D01*
X467056242Y-262121971D01*
X467103861Y-262026733D01*
X467199100Y-261979114D01*
X467389576Y-261979114D01*
X467484814Y-262026733D01*
X467532433Y-262121971D01*
X467532433Y-262217209D01*
X467056242Y-262312447D01*
X461761004Y-258795780D02*
X461761004Y-257795780D01*
X461761004Y-258271971D02*
X462332433Y-258271971D01*
X462332433Y-258795780D02*
X462332433Y-257795780D01*
X462761004Y-257891019D02*
X462808623Y-257843400D01*
X462903861Y-257795780D01*
X463141957Y-257795780D01*
X463237195Y-257843400D01*
X463284814Y-257891019D01*
X463332433Y-257986257D01*
X463332433Y-258081495D01*
X463284814Y-258224352D01*
X462713385Y-258795780D01*
X463332433Y-258795780D01*
X463713385Y-257891019D02*
X463761004Y-257843400D01*
X463856242Y-257795780D01*
X464094338Y-257795780D01*
X464189576Y-257843400D01*
X464237195Y-257891019D01*
X464284814Y-257986257D01*
X464284814Y-258081495D01*
X464237195Y-258224352D01*
X463665766Y-258795780D01*
X464284814Y-258795780D01*
%TO.C,R16*%
X359688120Y-229404678D02*
X359688120Y-229976106D01*
X359688120Y-229690392D02*
X358688120Y-229690392D01*
X358830978Y-229785630D01*
X358926216Y-229880868D01*
X358973835Y-229976106D01*
X358688120Y-228785630D02*
X358688120Y-228690392D01*
X358735740Y-228595154D01*
X358783359Y-228547535D01*
X358878597Y-228499916D01*
X359069073Y-228452297D01*
X359307168Y-228452297D01*
X359497644Y-228499916D01*
X359592882Y-228547535D01*
X359640501Y-228595154D01*
X359688120Y-228690392D01*
X359688120Y-228785630D01*
X359640501Y-228880868D01*
X359592882Y-228928487D01*
X359497644Y-228976106D01*
X359307168Y-229023725D01*
X359069073Y-229023725D01*
X358878597Y-228976106D01*
X358783359Y-228928487D01*
X358735740Y-228880868D01*
X358688120Y-228785630D01*
X359688120Y-228023725D02*
X358688120Y-228023725D01*
X359307168Y-227928487D02*
X359688120Y-227642773D01*
X359021454Y-227642773D02*
X359402406Y-228023725D01*
D13*
X361111930Y-229130868D02*
X360873835Y-229297535D01*
X361111930Y-229416582D02*
X360611930Y-229416582D01*
X360611930Y-229226106D01*
X360635740Y-229178487D01*
X360659549Y-229154678D01*
X360707168Y-229130868D01*
X360778597Y-229130868D01*
X360826216Y-229154678D01*
X360850025Y-229178487D01*
X360873835Y-229226106D01*
X360873835Y-229416582D01*
X361111930Y-228654678D02*
X361111930Y-228940392D01*
X361111930Y-228797535D02*
X360611930Y-228797535D01*
X360683359Y-228845154D01*
X360730978Y-228892773D01*
X360754787Y-228940392D01*
X360611930Y-228226106D02*
X360611930Y-228321344D01*
X360635740Y-228368963D01*
X360659549Y-228392773D01*
X360730978Y-228440392D01*
X360826216Y-228464201D01*
X361016692Y-228464201D01*
X361064311Y-228440392D01*
X361088120Y-228416582D01*
X361111930Y-228368963D01*
X361111930Y-228273725D01*
X361088120Y-228226106D01*
X361064311Y-228202297D01*
X361016692Y-228178487D01*
X360897644Y-228178487D01*
X360850025Y-228202297D01*
X360826216Y-228226106D01*
X360802406Y-228273725D01*
X360802406Y-228368963D01*
X360826216Y-228416582D01*
X360850025Y-228440392D01*
X360897644Y-228464201D01*
%TO.C,R15*%
D11*
X362913920Y-229427758D02*
X362913920Y-229999186D01*
X362913920Y-229713472D02*
X361913920Y-229713472D01*
X362056778Y-229808710D01*
X362152016Y-229903948D01*
X362199635Y-229999186D01*
X361913920Y-228808710D02*
X361913920Y-228713472D01*
X361961540Y-228618234D01*
X362009159Y-228570615D01*
X362104397Y-228522996D01*
X362294873Y-228475377D01*
X362532968Y-228475377D01*
X362723444Y-228522996D01*
X362818682Y-228570615D01*
X362866301Y-228618234D01*
X362913920Y-228713472D01*
X362913920Y-228808710D01*
X362866301Y-228903948D01*
X362818682Y-228951567D01*
X362723444Y-228999186D01*
X362532968Y-229046805D01*
X362294873Y-229046805D01*
X362104397Y-228999186D01*
X362009159Y-228951567D01*
X361961540Y-228903948D01*
X361913920Y-228808710D01*
X362913920Y-228046805D02*
X361913920Y-228046805D01*
X362532968Y-227951567D02*
X362913920Y-227665853D01*
X362247254Y-227665853D02*
X362628206Y-228046805D01*
D13*
X364337730Y-229153948D02*
X364099635Y-229320615D01*
X364337730Y-229439662D02*
X363837730Y-229439662D01*
X363837730Y-229249186D01*
X363861540Y-229201567D01*
X363885349Y-229177758D01*
X363932968Y-229153948D01*
X364004397Y-229153948D01*
X364052016Y-229177758D01*
X364075825Y-229201567D01*
X364099635Y-229249186D01*
X364099635Y-229439662D01*
X364337730Y-228677758D02*
X364337730Y-228963472D01*
X364337730Y-228820615D02*
X363837730Y-228820615D01*
X363909159Y-228868234D01*
X363956778Y-228915853D01*
X363980587Y-228963472D01*
X363837730Y-228225377D02*
X363837730Y-228463472D01*
X364075825Y-228487281D01*
X364052016Y-228463472D01*
X364028206Y-228415853D01*
X364028206Y-228296805D01*
X364052016Y-228249186D01*
X364075825Y-228225377D01*
X364123444Y-228201567D01*
X364242492Y-228201567D01*
X364290111Y-228225377D01*
X364313920Y-228249186D01*
X364337730Y-228296805D01*
X364337730Y-228415853D01*
X364313920Y-228463472D01*
X364290111Y-228487281D01*
%TO.C,R14*%
D11*
X405845619Y-242656380D02*
X406464666Y-242656380D01*
X406131333Y-243037333D01*
X406274190Y-243037333D01*
X406369428Y-243084952D01*
X406417047Y-243132571D01*
X406464666Y-243227809D01*
X406464666Y-243465904D01*
X406417047Y-243561142D01*
X406369428Y-243608761D01*
X406274190Y-243656380D01*
X405988476Y-243656380D01*
X405893238Y-243608761D01*
X405845619Y-243561142D01*
X406893238Y-243561142D02*
X406940857Y-243608761D01*
X406893238Y-243656380D01*
X406845619Y-243608761D01*
X406893238Y-243561142D01*
X406893238Y-243656380D01*
X407274190Y-242656380D02*
X407893238Y-242656380D01*
X407559904Y-243037333D01*
X407702761Y-243037333D01*
X407798000Y-243084952D01*
X407845619Y-243132571D01*
X407893238Y-243227809D01*
X407893238Y-243465904D01*
X407845619Y-243561142D01*
X407798000Y-243608761D01*
X407702761Y-243656380D01*
X407417047Y-243656380D01*
X407321809Y-243608761D01*
X407274190Y-243561142D01*
X408321809Y-243656380D02*
X408321809Y-242656380D01*
X408417047Y-243275428D02*
X408702761Y-243656380D01*
X408702761Y-242989714D02*
X408321809Y-243370666D01*
D13*
X406976571Y-241780190D02*
X406809904Y-241542095D01*
X406690857Y-241780190D02*
X406690857Y-241280190D01*
X406881333Y-241280190D01*
X406928952Y-241304000D01*
X406952761Y-241327809D01*
X406976571Y-241375428D01*
X406976571Y-241446857D01*
X406952761Y-241494476D01*
X406928952Y-241518285D01*
X406881333Y-241542095D01*
X406690857Y-241542095D01*
X407452761Y-241780190D02*
X407167047Y-241780190D01*
X407309904Y-241780190D02*
X407309904Y-241280190D01*
X407262285Y-241351619D01*
X407214666Y-241399238D01*
X407167047Y-241423047D01*
X407881333Y-241446857D02*
X407881333Y-241780190D01*
X407762285Y-241256380D02*
X407643238Y-241613523D01*
X407952761Y-241613523D01*
%TO.C,R13*%
D11*
X411669619Y-242656380D02*
X412288666Y-242656380D01*
X411955333Y-243037333D01*
X412098190Y-243037333D01*
X412193428Y-243084952D01*
X412241047Y-243132571D01*
X412288666Y-243227809D01*
X412288666Y-243465904D01*
X412241047Y-243561142D01*
X412193428Y-243608761D01*
X412098190Y-243656380D01*
X411812476Y-243656380D01*
X411717238Y-243608761D01*
X411669619Y-243561142D01*
X412717238Y-243561142D02*
X412764857Y-243608761D01*
X412717238Y-243656380D01*
X412669619Y-243608761D01*
X412717238Y-243561142D01*
X412717238Y-243656380D01*
X413098190Y-242656380D02*
X413717238Y-242656380D01*
X413383904Y-243037333D01*
X413526761Y-243037333D01*
X413622000Y-243084952D01*
X413669619Y-243132571D01*
X413717238Y-243227809D01*
X413717238Y-243465904D01*
X413669619Y-243561142D01*
X413622000Y-243608761D01*
X413526761Y-243656380D01*
X413241047Y-243656380D01*
X413145809Y-243608761D01*
X413098190Y-243561142D01*
X414145809Y-243656380D02*
X414145809Y-242656380D01*
X414241047Y-243275428D02*
X414526761Y-243656380D01*
X414526761Y-242989714D02*
X414145809Y-243370666D01*
D13*
X412800571Y-241780190D02*
X412633904Y-241542095D01*
X412514857Y-241780190D02*
X412514857Y-241280190D01*
X412705333Y-241280190D01*
X412752952Y-241304000D01*
X412776761Y-241327809D01*
X412800571Y-241375428D01*
X412800571Y-241446857D01*
X412776761Y-241494476D01*
X412752952Y-241518285D01*
X412705333Y-241542095D01*
X412514857Y-241542095D01*
X413276761Y-241780190D02*
X412991047Y-241780190D01*
X413133904Y-241780190D02*
X413133904Y-241280190D01*
X413086285Y-241351619D01*
X413038666Y-241399238D01*
X412991047Y-241423047D01*
X413443428Y-241280190D02*
X413752952Y-241280190D01*
X413586285Y-241470666D01*
X413657714Y-241470666D01*
X413705333Y-241494476D01*
X413729142Y-241518285D01*
X413752952Y-241565904D01*
X413752952Y-241684952D01*
X413729142Y-241732571D01*
X413705333Y-241756380D01*
X413657714Y-241780190D01*
X413514857Y-241780190D01*
X413467238Y-241756380D01*
X413443428Y-241732571D01*
%TO.C,R12*%
D11*
X419243952Y-228672380D02*
X418672523Y-228672380D01*
X418958238Y-228672380D02*
X418958238Y-227672380D01*
X418863000Y-227815238D01*
X418767761Y-227910476D01*
X418672523Y-227958095D01*
X419672523Y-228672380D02*
X419672523Y-227672380D01*
X419767761Y-228291428D02*
X420053476Y-228672380D01*
X420053476Y-228005714D02*
X419672523Y-228386666D01*
D13*
X419041571Y-230096190D02*
X418874904Y-229858095D01*
X418755857Y-230096190D02*
X418755857Y-229596190D01*
X418946333Y-229596190D01*
X418993952Y-229620000D01*
X419017761Y-229643809D01*
X419041571Y-229691428D01*
X419041571Y-229762857D01*
X419017761Y-229810476D01*
X418993952Y-229834285D01*
X418946333Y-229858095D01*
X418755857Y-229858095D01*
X419517761Y-230096190D02*
X419232047Y-230096190D01*
X419374904Y-230096190D02*
X419374904Y-229596190D01*
X419327285Y-229667619D01*
X419279666Y-229715238D01*
X419232047Y-229739047D01*
X419708238Y-229643809D02*
X419732047Y-229620000D01*
X419779666Y-229596190D01*
X419898714Y-229596190D01*
X419946333Y-229620000D01*
X419970142Y-229643809D01*
X419993952Y-229691428D01*
X419993952Y-229739047D01*
X419970142Y-229810476D01*
X419684428Y-230096190D01*
X419993952Y-230096190D01*
%TO.C,R11*%
D11*
X362784380Y-237060238D02*
X362784380Y-237631666D01*
X362784380Y-237345952D02*
X361784380Y-237345952D01*
X361927238Y-237441190D01*
X362022476Y-237536428D01*
X362070095Y-237631666D01*
X361784380Y-236441190D02*
X361784380Y-236345952D01*
X361832000Y-236250714D01*
X361879619Y-236203095D01*
X361974857Y-236155476D01*
X362165333Y-236107857D01*
X362403428Y-236107857D01*
X362593904Y-236155476D01*
X362689142Y-236203095D01*
X362736761Y-236250714D01*
X362784380Y-236345952D01*
X362784380Y-236441190D01*
X362736761Y-236536428D01*
X362689142Y-236584047D01*
X362593904Y-236631666D01*
X362403428Y-236679285D01*
X362165333Y-236679285D01*
X361974857Y-236631666D01*
X361879619Y-236584047D01*
X361832000Y-236536428D01*
X361784380Y-236441190D01*
X362784380Y-235679285D02*
X361784380Y-235679285D01*
X362403428Y-235584047D02*
X362784380Y-235298333D01*
X362117714Y-235298333D02*
X362498666Y-235679285D01*
D13*
X364208190Y-236786428D02*
X363970095Y-236953095D01*
X364208190Y-237072142D02*
X363708190Y-237072142D01*
X363708190Y-236881666D01*
X363732000Y-236834047D01*
X363755809Y-236810238D01*
X363803428Y-236786428D01*
X363874857Y-236786428D01*
X363922476Y-236810238D01*
X363946285Y-236834047D01*
X363970095Y-236881666D01*
X363970095Y-237072142D01*
X364208190Y-236310238D02*
X364208190Y-236595952D01*
X364208190Y-236453095D02*
X363708190Y-236453095D01*
X363779619Y-236500714D01*
X363827238Y-236548333D01*
X363851047Y-236595952D01*
X364208190Y-235834047D02*
X364208190Y-236119761D01*
X364208190Y-235976904D02*
X363708190Y-235976904D01*
X363779619Y-236024523D01*
X363827238Y-236072142D01*
X363851047Y-236119761D01*
%TO.C,R10*%
D11*
X360498380Y-237069238D02*
X360498380Y-237640666D01*
X360498380Y-237354952D02*
X359498380Y-237354952D01*
X359641238Y-237450190D01*
X359736476Y-237545428D01*
X359784095Y-237640666D01*
X359498380Y-236450190D02*
X359498380Y-236354952D01*
X359546000Y-236259714D01*
X359593619Y-236212095D01*
X359688857Y-236164476D01*
X359879333Y-236116857D01*
X360117428Y-236116857D01*
X360307904Y-236164476D01*
X360403142Y-236212095D01*
X360450761Y-236259714D01*
X360498380Y-236354952D01*
X360498380Y-236450190D01*
X360450761Y-236545428D01*
X360403142Y-236593047D01*
X360307904Y-236640666D01*
X360117428Y-236688285D01*
X359879333Y-236688285D01*
X359688857Y-236640666D01*
X359593619Y-236593047D01*
X359546000Y-236545428D01*
X359498380Y-236450190D01*
X360498380Y-235688285D02*
X359498380Y-235688285D01*
X360117428Y-235593047D02*
X360498380Y-235307333D01*
X359831714Y-235307333D02*
X360212666Y-235688285D01*
D13*
X361922190Y-236795428D02*
X361684095Y-236962095D01*
X361922190Y-237081142D02*
X361422190Y-237081142D01*
X361422190Y-236890666D01*
X361446000Y-236843047D01*
X361469809Y-236819238D01*
X361517428Y-236795428D01*
X361588857Y-236795428D01*
X361636476Y-236819238D01*
X361660285Y-236843047D01*
X361684095Y-236890666D01*
X361684095Y-237081142D01*
X361922190Y-236319238D02*
X361922190Y-236604952D01*
X361922190Y-236462095D02*
X361422190Y-236462095D01*
X361493619Y-236509714D01*
X361541238Y-236557333D01*
X361565047Y-236604952D01*
X361422190Y-236009714D02*
X361422190Y-235962095D01*
X361446000Y-235914476D01*
X361469809Y-235890666D01*
X361517428Y-235866857D01*
X361612666Y-235843047D01*
X361731714Y-235843047D01*
X361826952Y-235866857D01*
X361874571Y-235890666D01*
X361898380Y-235914476D01*
X361922190Y-235962095D01*
X361922190Y-236009714D01*
X361898380Y-236057333D01*
X361874571Y-236081142D01*
X361826952Y-236104952D01*
X361731714Y-236128761D01*
X361612666Y-236128761D01*
X361517428Y-236104952D01*
X361469809Y-236081142D01*
X361446000Y-236057333D01*
X361422190Y-236009714D01*
%TO.C,R9*%
D11*
X421640095Y-231957619D02*
X421687714Y-231910000D01*
X421782952Y-231862380D01*
X422021047Y-231862380D01*
X422116285Y-231910000D01*
X422163904Y-231957619D01*
X422211523Y-232052857D01*
X422211523Y-232148095D01*
X422163904Y-232290952D01*
X421592476Y-232862380D01*
X422211523Y-232862380D01*
X422592476Y-231957619D02*
X422640095Y-231910000D01*
X422735333Y-231862380D01*
X422973428Y-231862380D01*
X423068666Y-231910000D01*
X423116285Y-231957619D01*
X423163904Y-232052857D01*
X423163904Y-232148095D01*
X423116285Y-232290952D01*
X422544857Y-232862380D01*
X423163904Y-232862380D01*
D13*
X419270666Y-232636190D02*
X419104000Y-232398095D01*
X418984952Y-232636190D02*
X418984952Y-232136190D01*
X419175428Y-232136190D01*
X419223047Y-232160000D01*
X419246857Y-232183809D01*
X419270666Y-232231428D01*
X419270666Y-232302857D01*
X419246857Y-232350476D01*
X419223047Y-232374285D01*
X419175428Y-232398095D01*
X418984952Y-232398095D01*
X419508761Y-232636190D02*
X419604000Y-232636190D01*
X419651619Y-232612380D01*
X419675428Y-232588571D01*
X419723047Y-232517142D01*
X419746857Y-232421904D01*
X419746857Y-232231428D01*
X419723047Y-232183809D01*
X419699238Y-232160000D01*
X419651619Y-232136190D01*
X419556380Y-232136190D01*
X419508761Y-232160000D01*
X419484952Y-232183809D01*
X419461142Y-232231428D01*
X419461142Y-232350476D01*
X419484952Y-232398095D01*
X419508761Y-232421904D01*
X419556380Y-232445714D01*
X419651619Y-232445714D01*
X419699238Y-232421904D01*
X419723047Y-232398095D01*
X419746857Y-232350476D01*
%TO.C,R8*%
D11*
X421640095Y-234497619D02*
X421687714Y-234450000D01*
X421782952Y-234402380D01*
X422021047Y-234402380D01*
X422116285Y-234450000D01*
X422163904Y-234497619D01*
X422211523Y-234592857D01*
X422211523Y-234688095D01*
X422163904Y-234830952D01*
X421592476Y-235402380D01*
X422211523Y-235402380D01*
X422592476Y-234497619D02*
X422640095Y-234450000D01*
X422735333Y-234402380D01*
X422973428Y-234402380D01*
X423068666Y-234450000D01*
X423116285Y-234497619D01*
X423163904Y-234592857D01*
X423163904Y-234688095D01*
X423116285Y-234830952D01*
X422544857Y-235402380D01*
X423163904Y-235402380D01*
D13*
X419270666Y-235176190D02*
X419104000Y-234938095D01*
X418984952Y-235176190D02*
X418984952Y-234676190D01*
X419175428Y-234676190D01*
X419223047Y-234700000D01*
X419246857Y-234723809D01*
X419270666Y-234771428D01*
X419270666Y-234842857D01*
X419246857Y-234890476D01*
X419223047Y-234914285D01*
X419175428Y-234938095D01*
X418984952Y-234938095D01*
X419556380Y-234890476D02*
X419508761Y-234866666D01*
X419484952Y-234842857D01*
X419461142Y-234795238D01*
X419461142Y-234771428D01*
X419484952Y-234723809D01*
X419508761Y-234700000D01*
X419556380Y-234676190D01*
X419651619Y-234676190D01*
X419699238Y-234700000D01*
X419723047Y-234723809D01*
X419746857Y-234771428D01*
X419746857Y-234795238D01*
X419723047Y-234842857D01*
X419699238Y-234866666D01*
X419651619Y-234890476D01*
X419556380Y-234890476D01*
X419508761Y-234914285D01*
X419484952Y-234938095D01*
X419461142Y-234985714D01*
X419461142Y-235080952D01*
X419484952Y-235128571D01*
X419508761Y-235152380D01*
X419556380Y-235176190D01*
X419651619Y-235176190D01*
X419699238Y-235152380D01*
X419723047Y-235128571D01*
X419746857Y-235080952D01*
X419746857Y-234985714D01*
X419723047Y-234938095D01*
X419699238Y-234914285D01*
X419651619Y-234890476D01*
%TO.C,C16*%
D11*
X415494642Y-236985714D02*
X415494642Y-237652380D01*
X415256547Y-236604761D02*
X415018452Y-237319047D01*
X415637500Y-237319047D01*
X415923214Y-236652380D02*
X416589880Y-236652380D01*
X416161309Y-237652380D01*
X418161309Y-236985714D02*
X418161309Y-237652380D01*
X417732738Y-236985714D02*
X417732738Y-237509523D01*
X417780357Y-237604761D01*
X417875595Y-237652380D01*
X418018452Y-237652380D01*
X418113690Y-237604761D01*
X418161309Y-237557142D01*
X418970833Y-237128571D02*
X418637500Y-237128571D01*
X418637500Y-237652380D02*
X418637500Y-236652380D01*
X419113690Y-236652380D01*
X420208928Y-237604761D02*
X420351785Y-237652380D01*
X420589880Y-237652380D01*
X420685119Y-237604761D01*
X420732738Y-237557142D01*
X420780357Y-237461904D01*
X420780357Y-237366666D01*
X420732738Y-237271428D01*
X420685119Y-237223809D01*
X420589880Y-237176190D01*
X420399404Y-237128571D01*
X420304166Y-237080952D01*
X420256547Y-237033333D01*
X420208928Y-236938095D01*
X420208928Y-236842857D01*
X420256547Y-236747619D01*
X420304166Y-236700000D01*
X420399404Y-236652380D01*
X420637500Y-236652380D01*
X420780357Y-236700000D01*
X421066071Y-236652380D02*
X421399404Y-237652380D01*
X421732738Y-236652380D01*
X422066071Y-237652380D02*
X422066071Y-236652380D01*
X422447023Y-236652380D01*
X422542261Y-236700000D01*
X422589880Y-236747619D01*
X422637500Y-236842857D01*
X422637500Y-236985714D01*
X422589880Y-237080952D01*
X422542261Y-237128571D01*
X422447023Y-237176190D01*
X422066071Y-237176190D01*
X424256547Y-236985714D02*
X424256547Y-237652380D01*
X424018452Y-236604761D02*
X423780357Y-237319047D01*
X424399404Y-237319047D01*
X424685119Y-236652380D02*
X425351785Y-236652380D01*
X424923214Y-237652380D01*
X426447023Y-236604761D02*
X425589880Y-237890476D01*
X427304166Y-237652380D02*
X426732738Y-237652380D01*
X427018452Y-237652380D02*
X427018452Y-236652380D01*
X426923214Y-236795238D01*
X426827976Y-236890476D01*
X426732738Y-236938095D01*
X427923214Y-236652380D02*
X428018452Y-236652380D01*
X428113690Y-236700000D01*
X428161309Y-236747619D01*
X428208928Y-236842857D01*
X428256547Y-237033333D01*
X428256547Y-237271428D01*
X428208928Y-237461904D01*
X428161309Y-237557142D01*
X428113690Y-237604761D01*
X428018452Y-237652380D01*
X427923214Y-237652380D01*
X427827976Y-237604761D01*
X427780357Y-237557142D01*
X427732738Y-237461904D01*
X427685119Y-237271428D01*
X427685119Y-237033333D01*
X427732738Y-236842857D01*
X427780357Y-236747619D01*
X427827976Y-236700000D01*
X427923214Y-236652380D01*
X420994642Y-241907142D02*
X420947023Y-241954761D01*
X420804166Y-242002380D01*
X420708928Y-242002380D01*
X420566071Y-241954761D01*
X420470833Y-241859523D01*
X420423214Y-241764285D01*
X420375595Y-241573809D01*
X420375595Y-241430952D01*
X420423214Y-241240476D01*
X420470833Y-241145238D01*
X420566071Y-241050000D01*
X420708928Y-241002380D01*
X420804166Y-241002380D01*
X420947023Y-241050000D01*
X420994642Y-241097619D01*
X421947023Y-242002380D02*
X421375595Y-242002380D01*
X421661309Y-242002380D02*
X421661309Y-241002380D01*
X421566071Y-241145238D01*
X421470833Y-241240476D01*
X421375595Y-241288095D01*
X422804166Y-241002380D02*
X422613690Y-241002380D01*
X422518452Y-241050000D01*
X422470833Y-241097619D01*
X422375595Y-241240476D01*
X422327976Y-241430952D01*
X422327976Y-241811904D01*
X422375595Y-241907142D01*
X422423214Y-241954761D01*
X422518452Y-242002380D01*
X422708928Y-242002380D01*
X422804166Y-241954761D01*
X422851785Y-241907142D01*
X422899404Y-241811904D01*
X422899404Y-241573809D01*
X422851785Y-241478571D01*
X422804166Y-241430952D01*
X422708928Y-241383333D01*
X422518452Y-241383333D01*
X422423214Y-241430952D01*
X422375595Y-241478571D01*
X422327976Y-241573809D01*
%TO.C,C15*%
X415875595Y-245085714D02*
X415875595Y-245752380D01*
X415637500Y-244704761D02*
X415399404Y-245419047D01*
X416018452Y-245419047D01*
X416304166Y-244752380D02*
X416970833Y-244752380D01*
X416542261Y-245752380D01*
X417780357Y-245085714D02*
X417780357Y-245752380D01*
X417351785Y-245085714D02*
X417351785Y-245609523D01*
X417399404Y-245704761D01*
X417494642Y-245752380D01*
X417637500Y-245752380D01*
X417732738Y-245704761D01*
X417780357Y-245657142D01*
X418589880Y-245228571D02*
X418256547Y-245228571D01*
X418256547Y-245752380D02*
X418256547Y-244752380D01*
X418732738Y-244752380D01*
X419827976Y-245704761D02*
X419970833Y-245752380D01*
X420208928Y-245752380D01*
X420304166Y-245704761D01*
X420351785Y-245657142D01*
X420399404Y-245561904D01*
X420399404Y-245466666D01*
X420351785Y-245371428D01*
X420304166Y-245323809D01*
X420208928Y-245276190D01*
X420018452Y-245228571D01*
X419923214Y-245180952D01*
X419875595Y-245133333D01*
X419827976Y-245038095D01*
X419827976Y-244942857D01*
X419875595Y-244847619D01*
X419923214Y-244800000D01*
X420018452Y-244752380D01*
X420256547Y-244752380D01*
X420399404Y-244800000D01*
X420685119Y-244752380D02*
X421018452Y-245752380D01*
X421351785Y-244752380D01*
X421685119Y-245752380D02*
X421685119Y-244752380D01*
X422066071Y-244752380D01*
X422161309Y-244800000D01*
X422208928Y-244847619D01*
X422256547Y-244942857D01*
X422256547Y-245085714D01*
X422208928Y-245180952D01*
X422161309Y-245228571D01*
X422066071Y-245276190D01*
X421685119Y-245276190D01*
X423875595Y-245085714D02*
X423875595Y-245752380D01*
X423637500Y-244704761D02*
X423399404Y-245419047D01*
X424018452Y-245419047D01*
X424304166Y-244752380D02*
X424970833Y-244752380D01*
X424542261Y-245752380D01*
X426066071Y-244704761D02*
X425208928Y-245990476D01*
X426923214Y-245752380D02*
X426351785Y-245752380D01*
X426637500Y-245752380D02*
X426637500Y-244752380D01*
X426542261Y-244895238D01*
X426447023Y-244990476D01*
X426351785Y-245038095D01*
X427542261Y-244752380D02*
X427637500Y-244752380D01*
X427732738Y-244800000D01*
X427780357Y-244847619D01*
X427827976Y-244942857D01*
X427875595Y-245133333D01*
X427875595Y-245371428D01*
X427827976Y-245561904D01*
X427780357Y-245657142D01*
X427732738Y-245704761D01*
X427637500Y-245752380D01*
X427542261Y-245752380D01*
X427447023Y-245704761D01*
X427399404Y-245657142D01*
X427351785Y-245561904D01*
X427304166Y-245371428D01*
X427304166Y-245133333D01*
X427351785Y-244942857D01*
X427399404Y-244847619D01*
X427447023Y-244800000D01*
X427542261Y-244752380D01*
X420994642Y-250007142D02*
X420947023Y-250054761D01*
X420804166Y-250102380D01*
X420708928Y-250102380D01*
X420566071Y-250054761D01*
X420470833Y-249959523D01*
X420423214Y-249864285D01*
X420375595Y-249673809D01*
X420375595Y-249530952D01*
X420423214Y-249340476D01*
X420470833Y-249245238D01*
X420566071Y-249150000D01*
X420708928Y-249102380D01*
X420804166Y-249102380D01*
X420947023Y-249150000D01*
X420994642Y-249197619D01*
X421947023Y-250102380D02*
X421375595Y-250102380D01*
X421661309Y-250102380D02*
X421661309Y-249102380D01*
X421566071Y-249245238D01*
X421470833Y-249340476D01*
X421375595Y-249388095D01*
X422851785Y-249102380D02*
X422375595Y-249102380D01*
X422327976Y-249578571D01*
X422375595Y-249530952D01*
X422470833Y-249483333D01*
X422708928Y-249483333D01*
X422804166Y-249530952D01*
X422851785Y-249578571D01*
X422899404Y-249673809D01*
X422899404Y-249911904D01*
X422851785Y-250007142D01*
X422804166Y-250054761D01*
X422708928Y-250102380D01*
X422470833Y-250102380D01*
X422375595Y-250054761D01*
X422327976Y-250007142D01*
%TO.C,R7*%
X428572619Y-254802380D02*
X429191666Y-254802380D01*
X428858333Y-255183333D01*
X429001190Y-255183333D01*
X429096428Y-255230952D01*
X429144047Y-255278571D01*
X429191666Y-255373809D01*
X429191666Y-255611904D01*
X429144047Y-255707142D01*
X429096428Y-255754761D01*
X429001190Y-255802380D01*
X428715476Y-255802380D01*
X428620238Y-255754761D01*
X428572619Y-255707142D01*
X429620238Y-255707142D02*
X429667857Y-255754761D01*
X429620238Y-255802380D01*
X429572619Y-255754761D01*
X429620238Y-255707142D01*
X429620238Y-255802380D01*
X430144047Y-255802380D02*
X430334523Y-255802380D01*
X430429761Y-255754761D01*
X430477380Y-255707142D01*
X430572619Y-255564285D01*
X430620238Y-255373809D01*
X430620238Y-254992857D01*
X430572619Y-254897619D01*
X430525000Y-254850000D01*
X430429761Y-254802380D01*
X430239285Y-254802380D01*
X430144047Y-254850000D01*
X430096428Y-254897619D01*
X430048809Y-254992857D01*
X430048809Y-255230952D01*
X430096428Y-255326190D01*
X430144047Y-255373809D01*
X430239285Y-255421428D01*
X430429761Y-255421428D01*
X430525000Y-255373809D01*
X430572619Y-255326190D01*
X430620238Y-255230952D01*
X431048809Y-255802380D02*
X431048809Y-254802380D01*
X431144047Y-255421428D02*
X431429761Y-255802380D01*
X431429761Y-255135714D02*
X431048809Y-255516666D01*
D13*
X429941666Y-253926190D02*
X429775000Y-253688095D01*
X429655952Y-253926190D02*
X429655952Y-253426190D01*
X429846428Y-253426190D01*
X429894047Y-253450000D01*
X429917857Y-253473809D01*
X429941666Y-253521428D01*
X429941666Y-253592857D01*
X429917857Y-253640476D01*
X429894047Y-253664285D01*
X429846428Y-253688095D01*
X429655952Y-253688095D01*
X430108333Y-253426190D02*
X430441666Y-253426190D01*
X430227380Y-253926190D01*
%TO.C,R6*%
D11*
X409064285Y-230002380D02*
X409683333Y-230002380D01*
X409350000Y-230383333D01*
X409492857Y-230383333D01*
X409588095Y-230430952D01*
X409635714Y-230478571D01*
X409683333Y-230573809D01*
X409683333Y-230811904D01*
X409635714Y-230907142D01*
X409588095Y-230954761D01*
X409492857Y-231002380D01*
X409207142Y-231002380D01*
X409111904Y-230954761D01*
X409064285Y-230907142D01*
X410159523Y-231002380D02*
X410350000Y-231002380D01*
X410445238Y-230954761D01*
X410492857Y-230907142D01*
X410588095Y-230764285D01*
X410635714Y-230573809D01*
X410635714Y-230192857D01*
X410588095Y-230097619D01*
X410540476Y-230050000D01*
X410445238Y-230002380D01*
X410254761Y-230002380D01*
X410159523Y-230050000D01*
X410111904Y-230097619D01*
X410064285Y-230192857D01*
X410064285Y-230430952D01*
X410111904Y-230526190D01*
X410159523Y-230573809D01*
X410254761Y-230621428D01*
X410445238Y-230621428D01*
X410540476Y-230573809D01*
X410588095Y-230526190D01*
X410635714Y-230430952D01*
X411254761Y-230002380D02*
X411350000Y-230002380D01*
X411445238Y-230050000D01*
X411492857Y-230097619D01*
X411540476Y-230192857D01*
X411588095Y-230383333D01*
X411588095Y-230621428D01*
X411540476Y-230811904D01*
X411492857Y-230907142D01*
X411445238Y-230954761D01*
X411350000Y-231002380D01*
X411254761Y-231002380D01*
X411159523Y-230954761D01*
X411111904Y-230907142D01*
X411064285Y-230811904D01*
X411016666Y-230621428D01*
X411016666Y-230383333D01*
X411064285Y-230192857D01*
X411111904Y-230097619D01*
X411159523Y-230050000D01*
X411254761Y-230002380D01*
D13*
X410266666Y-232426190D02*
X410100000Y-232188095D01*
X409980952Y-232426190D02*
X409980952Y-231926190D01*
X410171428Y-231926190D01*
X410219047Y-231950000D01*
X410242857Y-231973809D01*
X410266666Y-232021428D01*
X410266666Y-232092857D01*
X410242857Y-232140476D01*
X410219047Y-232164285D01*
X410171428Y-232188095D01*
X409980952Y-232188095D01*
X410695238Y-231926190D02*
X410600000Y-231926190D01*
X410552380Y-231950000D01*
X410528571Y-231973809D01*
X410480952Y-232045238D01*
X410457142Y-232140476D01*
X410457142Y-232330952D01*
X410480952Y-232378571D01*
X410504761Y-232402380D01*
X410552380Y-232426190D01*
X410647619Y-232426190D01*
X410695238Y-232402380D01*
X410719047Y-232378571D01*
X410742857Y-232330952D01*
X410742857Y-232211904D01*
X410719047Y-232164285D01*
X410695238Y-232140476D01*
X410647619Y-232116666D01*
X410552380Y-232116666D01*
X410504761Y-232140476D01*
X410480952Y-232164285D01*
X410457142Y-232211904D01*
%TO.C,R5*%
D11*
X370121428Y-239035714D02*
X370121428Y-239702380D01*
X369883333Y-238654761D02*
X369645238Y-239369047D01*
X370264285Y-239369047D01*
X370645238Y-239607142D02*
X370692857Y-239654761D01*
X370645238Y-239702380D01*
X370597619Y-239654761D01*
X370645238Y-239607142D01*
X370645238Y-239702380D01*
X371026190Y-238702380D02*
X371692857Y-238702380D01*
X371264285Y-239702380D01*
X372073809Y-239702380D02*
X372073809Y-238702380D01*
X372169047Y-239321428D02*
X372454761Y-239702380D01*
X372454761Y-239035714D02*
X372073809Y-239416666D01*
D13*
X370966666Y-241126190D02*
X370800000Y-240888095D01*
X370680952Y-241126190D02*
X370680952Y-240626190D01*
X370871428Y-240626190D01*
X370919047Y-240650000D01*
X370942857Y-240673809D01*
X370966666Y-240721428D01*
X370966666Y-240792857D01*
X370942857Y-240840476D01*
X370919047Y-240864285D01*
X370871428Y-240888095D01*
X370680952Y-240888095D01*
X371419047Y-240626190D02*
X371180952Y-240626190D01*
X371157142Y-240864285D01*
X371180952Y-240840476D01*
X371228571Y-240816666D01*
X371347619Y-240816666D01*
X371395238Y-240840476D01*
X371419047Y-240864285D01*
X371442857Y-240911904D01*
X371442857Y-241030952D01*
X371419047Y-241078571D01*
X371395238Y-241102380D01*
X371347619Y-241126190D01*
X371228571Y-241126190D01*
X371180952Y-241102380D01*
X371157142Y-241078571D01*
%TO.C,R4*%
D11*
X322247619Y-235686904D02*
X322200000Y-235639285D01*
X322152380Y-235544047D01*
X322152380Y-235305952D01*
X322200000Y-235210714D01*
X322247619Y-235163095D01*
X322342857Y-235115476D01*
X322438095Y-235115476D01*
X322580952Y-235163095D01*
X323152380Y-235734523D01*
X323152380Y-235115476D01*
X322247619Y-234734523D02*
X322200000Y-234686904D01*
X322152380Y-234591666D01*
X322152380Y-234353571D01*
X322200000Y-234258333D01*
X322247619Y-234210714D01*
X322342857Y-234163095D01*
X322438095Y-234163095D01*
X322580952Y-234210714D01*
X323152380Y-234782142D01*
X323152380Y-234163095D01*
D13*
X321276190Y-235008333D02*
X321038095Y-235175000D01*
X321276190Y-235294047D02*
X320776190Y-235294047D01*
X320776190Y-235103571D01*
X320800000Y-235055952D01*
X320823809Y-235032142D01*
X320871428Y-235008333D01*
X320942857Y-235008333D01*
X320990476Y-235032142D01*
X321014285Y-235055952D01*
X321038095Y-235103571D01*
X321038095Y-235294047D01*
X320942857Y-234579761D02*
X321276190Y-234579761D01*
X320752380Y-234698809D02*
X321109523Y-234817857D01*
X321109523Y-234508333D01*
%TO.C,R3*%
D11*
X319897619Y-235686904D02*
X319850000Y-235639285D01*
X319802380Y-235544047D01*
X319802380Y-235305952D01*
X319850000Y-235210714D01*
X319897619Y-235163095D01*
X319992857Y-235115476D01*
X320088095Y-235115476D01*
X320230952Y-235163095D01*
X320802380Y-235734523D01*
X320802380Y-235115476D01*
X319897619Y-234734523D02*
X319850000Y-234686904D01*
X319802380Y-234591666D01*
X319802380Y-234353571D01*
X319850000Y-234258333D01*
X319897619Y-234210714D01*
X319992857Y-234163095D01*
X320088095Y-234163095D01*
X320230952Y-234210714D01*
X320802380Y-234782142D01*
X320802380Y-234163095D01*
D13*
X318926190Y-235008333D02*
X318688095Y-235175000D01*
X318926190Y-235294047D02*
X318426190Y-235294047D01*
X318426190Y-235103571D01*
X318450000Y-235055952D01*
X318473809Y-235032142D01*
X318521428Y-235008333D01*
X318592857Y-235008333D01*
X318640476Y-235032142D01*
X318664285Y-235055952D01*
X318688095Y-235103571D01*
X318688095Y-235294047D01*
X318426190Y-234841666D02*
X318426190Y-234532142D01*
X318616666Y-234698809D01*
X318616666Y-234627380D01*
X318640476Y-234579761D01*
X318664285Y-234555952D01*
X318711904Y-234532142D01*
X318830952Y-234532142D01*
X318878571Y-234555952D01*
X318902380Y-234579761D01*
X318926190Y-234627380D01*
X318926190Y-234770238D01*
X318902380Y-234817857D01*
X318878571Y-234841666D01*
%TO.C,R2*%
D11*
X366583333Y-254202380D02*
X366011904Y-254202380D01*
X366297619Y-254202380D02*
X366297619Y-253202380D01*
X366202380Y-253345238D01*
X366107142Y-253440476D01*
X366011904Y-253488095D01*
X367154761Y-253630952D02*
X367059523Y-253583333D01*
X367011904Y-253535714D01*
X366964285Y-253440476D01*
X366964285Y-253392857D01*
X367011904Y-253297619D01*
X367059523Y-253250000D01*
X367154761Y-253202380D01*
X367345238Y-253202380D01*
X367440476Y-253250000D01*
X367488095Y-253297619D01*
X367535714Y-253392857D01*
X367535714Y-253440476D01*
X367488095Y-253535714D01*
X367440476Y-253583333D01*
X367345238Y-253630952D01*
X367154761Y-253630952D01*
X367059523Y-253678571D01*
X367011904Y-253726190D01*
X366964285Y-253821428D01*
X366964285Y-254011904D01*
X367011904Y-254107142D01*
X367059523Y-254154761D01*
X367154761Y-254202380D01*
X367345238Y-254202380D01*
X367440476Y-254154761D01*
X367488095Y-254107142D01*
X367535714Y-254011904D01*
X367535714Y-253821428D01*
X367488095Y-253726190D01*
X367440476Y-253678571D01*
X367345238Y-253630952D01*
X368154761Y-253202380D02*
X368250000Y-253202380D01*
X368345238Y-253250000D01*
X368392857Y-253297619D01*
X368440476Y-253392857D01*
X368488095Y-253583333D01*
X368488095Y-253821428D01*
X368440476Y-254011904D01*
X368392857Y-254107142D01*
X368345238Y-254154761D01*
X368250000Y-254202380D01*
X368154761Y-254202380D01*
X368059523Y-254154761D01*
X368011904Y-254107142D01*
X367964285Y-254011904D01*
X367916666Y-253821428D01*
X367916666Y-253583333D01*
X367964285Y-253392857D01*
X368011904Y-253297619D01*
X368059523Y-253250000D01*
X368154761Y-253202380D01*
D13*
X367166666Y-252326190D02*
X367000000Y-252088095D01*
X366880952Y-252326190D02*
X366880952Y-251826190D01*
X367071428Y-251826190D01*
X367119047Y-251850000D01*
X367142857Y-251873809D01*
X367166666Y-251921428D01*
X367166666Y-251992857D01*
X367142857Y-252040476D01*
X367119047Y-252064285D01*
X367071428Y-252088095D01*
X366880952Y-252088095D01*
X367357142Y-251873809D02*
X367380952Y-251850000D01*
X367428571Y-251826190D01*
X367547619Y-251826190D01*
X367595238Y-251850000D01*
X367619047Y-251873809D01*
X367642857Y-251921428D01*
X367642857Y-251969047D01*
X367619047Y-252040476D01*
X367333333Y-252326190D01*
X367642857Y-252326190D01*
%TO.C,R1*%
D11*
X378902380Y-252194047D02*
X378902380Y-252765476D01*
X378902380Y-252479761D02*
X377902380Y-252479761D01*
X378045238Y-252575000D01*
X378140476Y-252670238D01*
X378188095Y-252765476D01*
X378902380Y-251765476D02*
X377902380Y-251765476D01*
X378521428Y-251670238D02*
X378902380Y-251384523D01*
X378235714Y-251384523D02*
X378616666Y-251765476D01*
D13*
X377026190Y-252158333D02*
X376788095Y-252325000D01*
X377026190Y-252444047D02*
X376526190Y-252444047D01*
X376526190Y-252253571D01*
X376550000Y-252205952D01*
X376573809Y-252182142D01*
X376621428Y-252158333D01*
X376692857Y-252158333D01*
X376740476Y-252182142D01*
X376764285Y-252205952D01*
X376788095Y-252253571D01*
X376788095Y-252444047D01*
X377026190Y-251682142D02*
X377026190Y-251967857D01*
X377026190Y-251825000D02*
X376526190Y-251825000D01*
X376597619Y-251872619D01*
X376645238Y-251920238D01*
X376669047Y-251967857D01*
%TO.C,Q1*%
D11*
X368559523Y-250052380D02*
X368559523Y-249052380D01*
X368892857Y-249766666D01*
X369226190Y-249052380D01*
X369226190Y-250052380D01*
X369702380Y-250052380D02*
X369702380Y-249052380D01*
X370035714Y-249766666D01*
X370369047Y-249052380D01*
X370369047Y-250052380D01*
X371178571Y-249528571D02*
X371321428Y-249576190D01*
X371369047Y-249623809D01*
X371416666Y-249719047D01*
X371416666Y-249861904D01*
X371369047Y-249957142D01*
X371321428Y-250004761D01*
X371226190Y-250052380D01*
X370845238Y-250052380D01*
X370845238Y-249052380D01*
X371178571Y-249052380D01*
X371273809Y-249100000D01*
X371321428Y-249147619D01*
X371369047Y-249242857D01*
X371369047Y-249338095D01*
X371321428Y-249433333D01*
X371273809Y-249480952D01*
X371178571Y-249528571D01*
X370845238Y-249528571D01*
X371702380Y-249052380D02*
X372273809Y-249052380D01*
X371988095Y-250052380D02*
X371988095Y-249052380D01*
X372511904Y-249052380D02*
X373130952Y-249052380D01*
X372797619Y-249433333D01*
X372940476Y-249433333D01*
X373035714Y-249480952D01*
X373083333Y-249528571D01*
X373130952Y-249623809D01*
X373130952Y-249861904D01*
X373083333Y-249957142D01*
X373035714Y-250004761D01*
X372940476Y-250052380D01*
X372654761Y-250052380D01*
X372559523Y-250004761D01*
X372511904Y-249957142D01*
X373607142Y-250052380D02*
X373797619Y-250052380D01*
X373892857Y-250004761D01*
X373940476Y-249957142D01*
X374035714Y-249814285D01*
X374083333Y-249623809D01*
X374083333Y-249242857D01*
X374035714Y-249147619D01*
X373988095Y-249100000D01*
X373892857Y-249052380D01*
X373702380Y-249052380D01*
X373607142Y-249100000D01*
X373559523Y-249147619D01*
X373511904Y-249242857D01*
X373511904Y-249480952D01*
X373559523Y-249576190D01*
X373607142Y-249623809D01*
X373702380Y-249671428D01*
X373892857Y-249671428D01*
X373988095Y-249623809D01*
X374035714Y-249576190D01*
X374083333Y-249480952D01*
X374702380Y-249052380D02*
X374797619Y-249052380D01*
X374892857Y-249100000D01*
X374940476Y-249147619D01*
X374988095Y-249242857D01*
X375035714Y-249433333D01*
X375035714Y-249671428D01*
X374988095Y-249861904D01*
X374940476Y-249957142D01*
X374892857Y-250004761D01*
X374797619Y-250052380D01*
X374702380Y-250052380D01*
X374607142Y-250004761D01*
X374559523Y-249957142D01*
X374511904Y-249861904D01*
X374464285Y-249671428D01*
X374464285Y-249433333D01*
X374511904Y-249242857D01*
X374559523Y-249147619D01*
X374607142Y-249100000D01*
X374702380Y-249052380D01*
X375892857Y-249385714D02*
X375892857Y-250052380D01*
X375654761Y-249004761D02*
X375416666Y-249719047D01*
X376035714Y-249719047D01*
D12*
X372523809Y-252147619D02*
X372500000Y-252195238D01*
X372452380Y-252242857D01*
X372380952Y-252314285D01*
X372357142Y-252361904D01*
X372357142Y-252409523D01*
X372476190Y-252385714D02*
X372452380Y-252433333D01*
X372404761Y-252480952D01*
X372309523Y-252504761D01*
X372142857Y-252504761D01*
X372047619Y-252480952D01*
X372000000Y-252433333D01*
X371976190Y-252385714D01*
X371976190Y-252290476D01*
X372000000Y-252242857D01*
X372047619Y-252195238D01*
X372142857Y-252171428D01*
X372309523Y-252171428D01*
X372404761Y-252195238D01*
X372452380Y-252242857D01*
X372476190Y-252290476D01*
X372476190Y-252385714D01*
X372476190Y-251695238D02*
X372476190Y-251980952D01*
X372476190Y-251838095D02*
X371976190Y-251838095D01*
X372047619Y-251885714D01*
X372095238Y-251933333D01*
X372119047Y-251980952D01*
%TO.C,H19*%
D11*
X390311285Y-262724180D02*
X390311285Y-261724180D01*
X390644619Y-262438466D01*
X390977952Y-261724180D01*
X390977952Y-262724180D01*
X391597000Y-262724180D02*
X391501761Y-262676561D01*
X391454142Y-262628942D01*
X391406523Y-262533704D01*
X391406523Y-262247990D01*
X391454142Y-262152752D01*
X391501761Y-262105133D01*
X391597000Y-262057514D01*
X391739857Y-262057514D01*
X391835095Y-262105133D01*
X391882714Y-262152752D01*
X391930333Y-262247990D01*
X391930333Y-262533704D01*
X391882714Y-262628942D01*
X391835095Y-262676561D01*
X391739857Y-262724180D01*
X391597000Y-262724180D01*
X392787476Y-262057514D02*
X392787476Y-262724180D01*
X392358904Y-262057514D02*
X392358904Y-262581323D01*
X392406523Y-262676561D01*
X392501761Y-262724180D01*
X392644619Y-262724180D01*
X392739857Y-262676561D01*
X392787476Y-262628942D01*
X393263666Y-262057514D02*
X393263666Y-262724180D01*
X393263666Y-262152752D02*
X393311285Y-262105133D01*
X393406523Y-262057514D01*
X393549380Y-262057514D01*
X393644619Y-262105133D01*
X393692238Y-262200371D01*
X393692238Y-262724180D01*
X394025571Y-262057514D02*
X394406523Y-262057514D01*
X394168428Y-261724180D02*
X394168428Y-262581323D01*
X394216047Y-262676561D01*
X394311285Y-262724180D01*
X394406523Y-262724180D01*
X394739857Y-262724180D02*
X394739857Y-262057514D01*
X394739857Y-261724180D02*
X394692238Y-261771800D01*
X394739857Y-261819419D01*
X394787476Y-261771800D01*
X394739857Y-261724180D01*
X394739857Y-261819419D01*
X395216047Y-262057514D02*
X395216047Y-262724180D01*
X395216047Y-262152752D02*
X395263666Y-262105133D01*
X395358904Y-262057514D01*
X395501761Y-262057514D01*
X395597000Y-262105133D01*
X395644619Y-262200371D01*
X395644619Y-262724180D01*
X396549380Y-262057514D02*
X396549380Y-262867038D01*
X396501761Y-262962276D01*
X396454142Y-263009895D01*
X396358904Y-263057514D01*
X396216047Y-263057514D01*
X396120809Y-263009895D01*
X396549380Y-262676561D02*
X396454142Y-262724180D01*
X396263666Y-262724180D01*
X396168428Y-262676561D01*
X396120809Y-262628942D01*
X396073190Y-262533704D01*
X396073190Y-262247990D01*
X396120809Y-262152752D01*
X396168428Y-262105133D01*
X396263666Y-262057514D01*
X396454142Y-262057514D01*
X396549380Y-262105133D01*
X397025571Y-262724180D02*
X397025571Y-261724180D01*
X397025571Y-262200371D02*
X397597000Y-262200371D01*
X397597000Y-262724180D02*
X397597000Y-261724180D01*
X398216047Y-262724180D02*
X398120809Y-262676561D01*
X398073190Y-262628942D01*
X398025571Y-262533704D01*
X398025571Y-262247990D01*
X398073190Y-262152752D01*
X398120809Y-262105133D01*
X398216047Y-262057514D01*
X398358904Y-262057514D01*
X398454142Y-262105133D01*
X398501761Y-262152752D01*
X398549380Y-262247990D01*
X398549380Y-262533704D01*
X398501761Y-262628942D01*
X398454142Y-262676561D01*
X398358904Y-262724180D01*
X398216047Y-262724180D01*
X399120809Y-262724180D02*
X399025571Y-262676561D01*
X398977952Y-262581323D01*
X398977952Y-261724180D01*
X399882714Y-262676561D02*
X399787476Y-262724180D01*
X399597000Y-262724180D01*
X399501761Y-262676561D01*
X399454142Y-262581323D01*
X399454142Y-262200371D01*
X399501761Y-262105133D01*
X399597000Y-262057514D01*
X399787476Y-262057514D01*
X399882714Y-262105133D01*
X399930333Y-262200371D01*
X399930333Y-262295609D01*
X399454142Y-262390847D01*
X394158904Y-257424180D02*
X394158904Y-256424180D01*
X394158904Y-256900371D02*
X394730333Y-256900371D01*
X394730333Y-257424180D02*
X394730333Y-256424180D01*
X395730333Y-257424180D02*
X395158904Y-257424180D01*
X395444619Y-257424180D02*
X395444619Y-256424180D01*
X395349380Y-256567038D01*
X395254142Y-256662276D01*
X395158904Y-256709895D01*
X396206523Y-257424180D02*
X396397000Y-257424180D01*
X396492238Y-257376561D01*
X396539857Y-257328942D01*
X396635095Y-257186085D01*
X396682714Y-256995609D01*
X396682714Y-256614657D01*
X396635095Y-256519419D01*
X396587476Y-256471800D01*
X396492238Y-256424180D01*
X396301761Y-256424180D01*
X396206523Y-256471800D01*
X396158904Y-256519419D01*
X396111285Y-256614657D01*
X396111285Y-256852752D01*
X396158904Y-256947990D01*
X396206523Y-256995609D01*
X396301761Y-257043228D01*
X396492238Y-257043228D01*
X396587476Y-256995609D01*
X396635095Y-256947990D01*
X396682714Y-256852752D01*
%TO.C,H18*%
X463407405Y-236387780D02*
X463407405Y-235387780D01*
X463740739Y-236102066D01*
X464074072Y-235387780D01*
X464074072Y-236387780D01*
X464693120Y-236387780D02*
X464597881Y-236340161D01*
X464550262Y-236292542D01*
X464502643Y-236197304D01*
X464502643Y-235911590D01*
X464550262Y-235816352D01*
X464597881Y-235768733D01*
X464693120Y-235721114D01*
X464835977Y-235721114D01*
X464931215Y-235768733D01*
X464978834Y-235816352D01*
X465026453Y-235911590D01*
X465026453Y-236197304D01*
X464978834Y-236292542D01*
X464931215Y-236340161D01*
X464835977Y-236387780D01*
X464693120Y-236387780D01*
X465883596Y-235721114D02*
X465883596Y-236387780D01*
X465455024Y-235721114D02*
X465455024Y-236244923D01*
X465502643Y-236340161D01*
X465597881Y-236387780D01*
X465740739Y-236387780D01*
X465835977Y-236340161D01*
X465883596Y-236292542D01*
X466359786Y-235721114D02*
X466359786Y-236387780D01*
X466359786Y-235816352D02*
X466407405Y-235768733D01*
X466502643Y-235721114D01*
X466645500Y-235721114D01*
X466740739Y-235768733D01*
X466788358Y-235863971D01*
X466788358Y-236387780D01*
X467121691Y-235721114D02*
X467502643Y-235721114D01*
X467264548Y-235387780D02*
X467264548Y-236244923D01*
X467312167Y-236340161D01*
X467407405Y-236387780D01*
X467502643Y-236387780D01*
X467835977Y-236387780D02*
X467835977Y-235721114D01*
X467835977Y-235387780D02*
X467788358Y-235435400D01*
X467835977Y-235483019D01*
X467883596Y-235435400D01*
X467835977Y-235387780D01*
X467835977Y-235483019D01*
X468312167Y-235721114D02*
X468312167Y-236387780D01*
X468312167Y-235816352D02*
X468359786Y-235768733D01*
X468455024Y-235721114D01*
X468597881Y-235721114D01*
X468693120Y-235768733D01*
X468740739Y-235863971D01*
X468740739Y-236387780D01*
X469645500Y-235721114D02*
X469645500Y-236530638D01*
X469597881Y-236625876D01*
X469550262Y-236673495D01*
X469455024Y-236721114D01*
X469312167Y-236721114D01*
X469216929Y-236673495D01*
X469645500Y-236340161D02*
X469550262Y-236387780D01*
X469359786Y-236387780D01*
X469264548Y-236340161D01*
X469216929Y-236292542D01*
X469169310Y-236197304D01*
X469169310Y-235911590D01*
X469216929Y-235816352D01*
X469264548Y-235768733D01*
X469359786Y-235721114D01*
X469550262Y-235721114D01*
X469645500Y-235768733D01*
X470121691Y-236387780D02*
X470121691Y-235387780D01*
X470121691Y-235863971D02*
X470693120Y-235863971D01*
X470693120Y-236387780D02*
X470693120Y-235387780D01*
X471312167Y-236387780D02*
X471216929Y-236340161D01*
X471169310Y-236292542D01*
X471121691Y-236197304D01*
X471121691Y-235911590D01*
X471169310Y-235816352D01*
X471216929Y-235768733D01*
X471312167Y-235721114D01*
X471455024Y-235721114D01*
X471550262Y-235768733D01*
X471597881Y-235816352D01*
X471645500Y-235911590D01*
X471645500Y-236197304D01*
X471597881Y-236292542D01*
X471550262Y-236340161D01*
X471455024Y-236387780D01*
X471312167Y-236387780D01*
X472216929Y-236387780D02*
X472121691Y-236340161D01*
X472074072Y-236244923D01*
X472074072Y-235387780D01*
X472978834Y-236340161D02*
X472883596Y-236387780D01*
X472693120Y-236387780D01*
X472597881Y-236340161D01*
X472550262Y-236244923D01*
X472550262Y-235863971D01*
X472597881Y-235768733D01*
X472693120Y-235721114D01*
X472883596Y-235721114D01*
X472978834Y-235768733D01*
X473026453Y-235863971D01*
X473026453Y-235959209D01*
X472550262Y-236054447D01*
X467255024Y-232887780D02*
X467255024Y-231887780D01*
X467255024Y-232363971D02*
X467826453Y-232363971D01*
X467826453Y-232887780D02*
X467826453Y-231887780D01*
X468826453Y-232887780D02*
X468255024Y-232887780D01*
X468540739Y-232887780D02*
X468540739Y-231887780D01*
X468445500Y-232030638D01*
X468350262Y-232125876D01*
X468255024Y-232173495D01*
X469397881Y-232316352D02*
X469302643Y-232268733D01*
X469255024Y-232221114D01*
X469207405Y-232125876D01*
X469207405Y-232078257D01*
X469255024Y-231983019D01*
X469302643Y-231935400D01*
X469397881Y-231887780D01*
X469588358Y-231887780D01*
X469683596Y-231935400D01*
X469731215Y-231983019D01*
X469778834Y-232078257D01*
X469778834Y-232125876D01*
X469731215Y-232221114D01*
X469683596Y-232268733D01*
X469588358Y-232316352D01*
X469397881Y-232316352D01*
X469302643Y-232363971D01*
X469255024Y-232411590D01*
X469207405Y-232506828D01*
X469207405Y-232697304D01*
X469255024Y-232792542D01*
X469302643Y-232840161D01*
X469397881Y-232887780D01*
X469588358Y-232887780D01*
X469683596Y-232840161D01*
X469731215Y-232792542D01*
X469778834Y-232697304D01*
X469778834Y-232506828D01*
X469731215Y-232411590D01*
X469683596Y-232363971D01*
X469588358Y-232316352D01*
%TO.C,H17*%
X463387085Y-262879980D02*
X463387085Y-261879980D01*
X463720419Y-262594266D01*
X464053752Y-261879980D01*
X464053752Y-262879980D01*
X464672800Y-262879980D02*
X464577561Y-262832361D01*
X464529942Y-262784742D01*
X464482323Y-262689504D01*
X464482323Y-262403790D01*
X464529942Y-262308552D01*
X464577561Y-262260933D01*
X464672800Y-262213314D01*
X464815657Y-262213314D01*
X464910895Y-262260933D01*
X464958514Y-262308552D01*
X465006133Y-262403790D01*
X465006133Y-262689504D01*
X464958514Y-262784742D01*
X464910895Y-262832361D01*
X464815657Y-262879980D01*
X464672800Y-262879980D01*
X465863276Y-262213314D02*
X465863276Y-262879980D01*
X465434704Y-262213314D02*
X465434704Y-262737123D01*
X465482323Y-262832361D01*
X465577561Y-262879980D01*
X465720419Y-262879980D01*
X465815657Y-262832361D01*
X465863276Y-262784742D01*
X466339466Y-262213314D02*
X466339466Y-262879980D01*
X466339466Y-262308552D02*
X466387085Y-262260933D01*
X466482323Y-262213314D01*
X466625180Y-262213314D01*
X466720419Y-262260933D01*
X466768038Y-262356171D01*
X466768038Y-262879980D01*
X467101371Y-262213314D02*
X467482323Y-262213314D01*
X467244228Y-261879980D02*
X467244228Y-262737123D01*
X467291847Y-262832361D01*
X467387085Y-262879980D01*
X467482323Y-262879980D01*
X467815657Y-262879980D02*
X467815657Y-262213314D01*
X467815657Y-261879980D02*
X467768038Y-261927600D01*
X467815657Y-261975219D01*
X467863276Y-261927600D01*
X467815657Y-261879980D01*
X467815657Y-261975219D01*
X468291847Y-262213314D02*
X468291847Y-262879980D01*
X468291847Y-262308552D02*
X468339466Y-262260933D01*
X468434704Y-262213314D01*
X468577561Y-262213314D01*
X468672800Y-262260933D01*
X468720419Y-262356171D01*
X468720419Y-262879980D01*
X469625180Y-262213314D02*
X469625180Y-263022838D01*
X469577561Y-263118076D01*
X469529942Y-263165695D01*
X469434704Y-263213314D01*
X469291847Y-263213314D01*
X469196609Y-263165695D01*
X469625180Y-262832361D02*
X469529942Y-262879980D01*
X469339466Y-262879980D01*
X469244228Y-262832361D01*
X469196609Y-262784742D01*
X469148990Y-262689504D01*
X469148990Y-262403790D01*
X469196609Y-262308552D01*
X469244228Y-262260933D01*
X469339466Y-262213314D01*
X469529942Y-262213314D01*
X469625180Y-262260933D01*
X470101371Y-262879980D02*
X470101371Y-261879980D01*
X470101371Y-262356171D02*
X470672800Y-262356171D01*
X470672800Y-262879980D02*
X470672800Y-261879980D01*
X471291847Y-262879980D02*
X471196609Y-262832361D01*
X471148990Y-262784742D01*
X471101371Y-262689504D01*
X471101371Y-262403790D01*
X471148990Y-262308552D01*
X471196609Y-262260933D01*
X471291847Y-262213314D01*
X471434704Y-262213314D01*
X471529942Y-262260933D01*
X471577561Y-262308552D01*
X471625180Y-262403790D01*
X471625180Y-262689504D01*
X471577561Y-262784742D01*
X471529942Y-262832361D01*
X471434704Y-262879980D01*
X471291847Y-262879980D01*
X472196609Y-262879980D02*
X472101371Y-262832361D01*
X472053752Y-262737123D01*
X472053752Y-261879980D01*
X472958514Y-262832361D02*
X472863276Y-262879980D01*
X472672800Y-262879980D01*
X472577561Y-262832361D01*
X472529942Y-262737123D01*
X472529942Y-262356171D01*
X472577561Y-262260933D01*
X472672800Y-262213314D01*
X472863276Y-262213314D01*
X472958514Y-262260933D01*
X473006133Y-262356171D01*
X473006133Y-262451409D01*
X472529942Y-262546647D01*
X467234704Y-259379980D02*
X467234704Y-258379980D01*
X467234704Y-258856171D02*
X467806133Y-258856171D01*
X467806133Y-259379980D02*
X467806133Y-258379980D01*
X468806133Y-259379980D02*
X468234704Y-259379980D01*
X468520419Y-259379980D02*
X468520419Y-258379980D01*
X468425180Y-258522838D01*
X468329942Y-258618076D01*
X468234704Y-258665695D01*
X469139466Y-258379980D02*
X469806133Y-258379980D01*
X469377561Y-259379980D01*
%TO.C,H16*%
X302409505Y-236395400D02*
X302409505Y-235395400D01*
X302742839Y-236109686D01*
X303076172Y-235395400D01*
X303076172Y-236395400D01*
X303695220Y-236395400D02*
X303599981Y-236347781D01*
X303552362Y-236300162D01*
X303504743Y-236204924D01*
X303504743Y-235919210D01*
X303552362Y-235823972D01*
X303599981Y-235776353D01*
X303695220Y-235728734D01*
X303838077Y-235728734D01*
X303933315Y-235776353D01*
X303980934Y-235823972D01*
X304028553Y-235919210D01*
X304028553Y-236204924D01*
X303980934Y-236300162D01*
X303933315Y-236347781D01*
X303838077Y-236395400D01*
X303695220Y-236395400D01*
X304885696Y-235728734D02*
X304885696Y-236395400D01*
X304457124Y-235728734D02*
X304457124Y-236252543D01*
X304504743Y-236347781D01*
X304599981Y-236395400D01*
X304742839Y-236395400D01*
X304838077Y-236347781D01*
X304885696Y-236300162D01*
X305361886Y-235728734D02*
X305361886Y-236395400D01*
X305361886Y-235823972D02*
X305409505Y-235776353D01*
X305504743Y-235728734D01*
X305647600Y-235728734D01*
X305742839Y-235776353D01*
X305790458Y-235871591D01*
X305790458Y-236395400D01*
X306123791Y-235728734D02*
X306504743Y-235728734D01*
X306266648Y-235395400D02*
X306266648Y-236252543D01*
X306314267Y-236347781D01*
X306409505Y-236395400D01*
X306504743Y-236395400D01*
X306838077Y-236395400D02*
X306838077Y-235728734D01*
X306838077Y-235395400D02*
X306790458Y-235443020D01*
X306838077Y-235490639D01*
X306885696Y-235443020D01*
X306838077Y-235395400D01*
X306838077Y-235490639D01*
X307314267Y-235728734D02*
X307314267Y-236395400D01*
X307314267Y-235823972D02*
X307361886Y-235776353D01*
X307457124Y-235728734D01*
X307599981Y-235728734D01*
X307695220Y-235776353D01*
X307742839Y-235871591D01*
X307742839Y-236395400D01*
X308647600Y-235728734D02*
X308647600Y-236538258D01*
X308599981Y-236633496D01*
X308552362Y-236681115D01*
X308457124Y-236728734D01*
X308314267Y-236728734D01*
X308219029Y-236681115D01*
X308647600Y-236347781D02*
X308552362Y-236395400D01*
X308361886Y-236395400D01*
X308266648Y-236347781D01*
X308219029Y-236300162D01*
X308171410Y-236204924D01*
X308171410Y-235919210D01*
X308219029Y-235823972D01*
X308266648Y-235776353D01*
X308361886Y-235728734D01*
X308552362Y-235728734D01*
X308647600Y-235776353D01*
X309123791Y-236395400D02*
X309123791Y-235395400D01*
X309123791Y-235871591D02*
X309695220Y-235871591D01*
X309695220Y-236395400D02*
X309695220Y-235395400D01*
X310314267Y-236395400D02*
X310219029Y-236347781D01*
X310171410Y-236300162D01*
X310123791Y-236204924D01*
X310123791Y-235919210D01*
X310171410Y-235823972D01*
X310219029Y-235776353D01*
X310314267Y-235728734D01*
X310457124Y-235728734D01*
X310552362Y-235776353D01*
X310599981Y-235823972D01*
X310647600Y-235919210D01*
X310647600Y-236204924D01*
X310599981Y-236300162D01*
X310552362Y-236347781D01*
X310457124Y-236395400D01*
X310314267Y-236395400D01*
X311219029Y-236395400D02*
X311123791Y-236347781D01*
X311076172Y-236252543D01*
X311076172Y-235395400D01*
X311980934Y-236347781D02*
X311885696Y-236395400D01*
X311695220Y-236395400D01*
X311599981Y-236347781D01*
X311552362Y-236252543D01*
X311552362Y-235871591D01*
X311599981Y-235776353D01*
X311695220Y-235728734D01*
X311885696Y-235728734D01*
X311980934Y-235776353D01*
X312028553Y-235871591D01*
X312028553Y-235966829D01*
X311552362Y-236062067D01*
X306257124Y-232895400D02*
X306257124Y-231895400D01*
X306257124Y-232371591D02*
X306828553Y-232371591D01*
X306828553Y-232895400D02*
X306828553Y-231895400D01*
X307828553Y-232895400D02*
X307257124Y-232895400D01*
X307542839Y-232895400D02*
X307542839Y-231895400D01*
X307447600Y-232038258D01*
X307352362Y-232133496D01*
X307257124Y-232181115D01*
X308685696Y-231895400D02*
X308495220Y-231895400D01*
X308399981Y-231943020D01*
X308352362Y-231990639D01*
X308257124Y-232133496D01*
X308209505Y-232323972D01*
X308209505Y-232704924D01*
X308257124Y-232800162D01*
X308304743Y-232847781D01*
X308399981Y-232895400D01*
X308590458Y-232895400D01*
X308685696Y-232847781D01*
X308733315Y-232800162D01*
X308780934Y-232704924D01*
X308780934Y-232466829D01*
X308733315Y-232371591D01*
X308685696Y-232323972D01*
X308590458Y-232276353D01*
X308399981Y-232276353D01*
X308304743Y-232323972D01*
X308257124Y-232371591D01*
X308209505Y-232466829D01*
%TO.C,H15*%
X302414285Y-262902380D02*
X302414285Y-261902380D01*
X302747619Y-262616666D01*
X303080952Y-261902380D01*
X303080952Y-262902380D01*
X303700000Y-262902380D02*
X303604761Y-262854761D01*
X303557142Y-262807142D01*
X303509523Y-262711904D01*
X303509523Y-262426190D01*
X303557142Y-262330952D01*
X303604761Y-262283333D01*
X303700000Y-262235714D01*
X303842857Y-262235714D01*
X303938095Y-262283333D01*
X303985714Y-262330952D01*
X304033333Y-262426190D01*
X304033333Y-262711904D01*
X303985714Y-262807142D01*
X303938095Y-262854761D01*
X303842857Y-262902380D01*
X303700000Y-262902380D01*
X304890476Y-262235714D02*
X304890476Y-262902380D01*
X304461904Y-262235714D02*
X304461904Y-262759523D01*
X304509523Y-262854761D01*
X304604761Y-262902380D01*
X304747619Y-262902380D01*
X304842857Y-262854761D01*
X304890476Y-262807142D01*
X305366666Y-262235714D02*
X305366666Y-262902380D01*
X305366666Y-262330952D02*
X305414285Y-262283333D01*
X305509523Y-262235714D01*
X305652380Y-262235714D01*
X305747619Y-262283333D01*
X305795238Y-262378571D01*
X305795238Y-262902380D01*
X306128571Y-262235714D02*
X306509523Y-262235714D01*
X306271428Y-261902380D02*
X306271428Y-262759523D01*
X306319047Y-262854761D01*
X306414285Y-262902380D01*
X306509523Y-262902380D01*
X306842857Y-262902380D02*
X306842857Y-262235714D01*
X306842857Y-261902380D02*
X306795238Y-261950000D01*
X306842857Y-261997619D01*
X306890476Y-261950000D01*
X306842857Y-261902380D01*
X306842857Y-261997619D01*
X307319047Y-262235714D02*
X307319047Y-262902380D01*
X307319047Y-262330952D02*
X307366666Y-262283333D01*
X307461904Y-262235714D01*
X307604761Y-262235714D01*
X307700000Y-262283333D01*
X307747619Y-262378571D01*
X307747619Y-262902380D01*
X308652380Y-262235714D02*
X308652380Y-263045238D01*
X308604761Y-263140476D01*
X308557142Y-263188095D01*
X308461904Y-263235714D01*
X308319047Y-263235714D01*
X308223809Y-263188095D01*
X308652380Y-262854761D02*
X308557142Y-262902380D01*
X308366666Y-262902380D01*
X308271428Y-262854761D01*
X308223809Y-262807142D01*
X308176190Y-262711904D01*
X308176190Y-262426190D01*
X308223809Y-262330952D01*
X308271428Y-262283333D01*
X308366666Y-262235714D01*
X308557142Y-262235714D01*
X308652380Y-262283333D01*
X309128571Y-262902380D02*
X309128571Y-261902380D01*
X309128571Y-262378571D02*
X309700000Y-262378571D01*
X309700000Y-262902380D02*
X309700000Y-261902380D01*
X310319047Y-262902380D02*
X310223809Y-262854761D01*
X310176190Y-262807142D01*
X310128571Y-262711904D01*
X310128571Y-262426190D01*
X310176190Y-262330952D01*
X310223809Y-262283333D01*
X310319047Y-262235714D01*
X310461904Y-262235714D01*
X310557142Y-262283333D01*
X310604761Y-262330952D01*
X310652380Y-262426190D01*
X310652380Y-262711904D01*
X310604761Y-262807142D01*
X310557142Y-262854761D01*
X310461904Y-262902380D01*
X310319047Y-262902380D01*
X311223809Y-262902380D02*
X311128571Y-262854761D01*
X311080952Y-262759523D01*
X311080952Y-261902380D01*
X311985714Y-262854761D02*
X311890476Y-262902380D01*
X311700000Y-262902380D01*
X311604761Y-262854761D01*
X311557142Y-262759523D01*
X311557142Y-262378571D01*
X311604761Y-262283333D01*
X311700000Y-262235714D01*
X311890476Y-262235714D01*
X311985714Y-262283333D01*
X312033333Y-262378571D01*
X312033333Y-262473809D01*
X311557142Y-262569047D01*
X306261904Y-259402380D02*
X306261904Y-258402380D01*
X306261904Y-258878571D02*
X306833333Y-258878571D01*
X306833333Y-259402380D02*
X306833333Y-258402380D01*
X307833333Y-259402380D02*
X307261904Y-259402380D01*
X307547619Y-259402380D02*
X307547619Y-258402380D01*
X307452380Y-258545238D01*
X307357142Y-258640476D01*
X307261904Y-258688095D01*
X308738095Y-258402380D02*
X308261904Y-258402380D01*
X308214285Y-258878571D01*
X308261904Y-258830952D01*
X308357142Y-258783333D01*
X308595238Y-258783333D01*
X308690476Y-258830952D01*
X308738095Y-258878571D01*
X308785714Y-258973809D01*
X308785714Y-259211904D01*
X308738095Y-259307142D01*
X308690476Y-259354761D01*
X308595238Y-259402380D01*
X308357142Y-259402380D01*
X308261904Y-259354761D01*
X308214285Y-259307142D01*
%TO.C,C9*%
X433727380Y-254752380D02*
X433155952Y-254752380D01*
X433441666Y-254752380D02*
X433441666Y-253752380D01*
X433346428Y-253895238D01*
X433251190Y-253990476D01*
X433155952Y-254038095D01*
X434346428Y-253752380D02*
X434441666Y-253752380D01*
X434536904Y-253800000D01*
X434584523Y-253847619D01*
X434632142Y-253942857D01*
X434679761Y-254133333D01*
X434679761Y-254371428D01*
X434632142Y-254561904D01*
X434584523Y-254657142D01*
X434536904Y-254704761D01*
X434441666Y-254752380D01*
X434346428Y-254752380D01*
X434251190Y-254704761D01*
X434203571Y-254657142D01*
X434155952Y-254561904D01*
X434108333Y-254371428D01*
X434108333Y-254133333D01*
X434155952Y-253942857D01*
X434203571Y-253847619D01*
X434251190Y-253800000D01*
X434346428Y-253752380D01*
X435298809Y-253752380D02*
X435394047Y-253752380D01*
X435489285Y-253800000D01*
X435536904Y-253847619D01*
X435584523Y-253942857D01*
X435632142Y-254133333D01*
X435632142Y-254371428D01*
X435584523Y-254561904D01*
X435536904Y-254657142D01*
X435489285Y-254704761D01*
X435394047Y-254752380D01*
X435298809Y-254752380D01*
X435203571Y-254704761D01*
X435155952Y-254657142D01*
X435108333Y-254561904D01*
X435060714Y-254371428D01*
X435060714Y-254133333D01*
X435108333Y-253942857D01*
X435155952Y-253847619D01*
X435203571Y-253800000D01*
X435298809Y-253752380D01*
X436060714Y-254085714D02*
X436060714Y-254752380D01*
X436060714Y-254180952D02*
X436108333Y-254133333D01*
X436203571Y-254085714D01*
X436346428Y-254085714D01*
X436441666Y-254133333D01*
X436489285Y-254228571D01*
X436489285Y-254752380D01*
X437298809Y-254228571D02*
X436965476Y-254228571D01*
X436965476Y-254752380D02*
X436965476Y-253752380D01*
X437441666Y-253752380D01*
D13*
X435191666Y-256128571D02*
X435167857Y-256152380D01*
X435096428Y-256176190D01*
X435048809Y-256176190D01*
X434977380Y-256152380D01*
X434929761Y-256104761D01*
X434905952Y-256057142D01*
X434882142Y-255961904D01*
X434882142Y-255890476D01*
X434905952Y-255795238D01*
X434929761Y-255747619D01*
X434977380Y-255700000D01*
X435048809Y-255676190D01*
X435096428Y-255676190D01*
X435167857Y-255700000D01*
X435191666Y-255723809D01*
X435429761Y-256176190D02*
X435525000Y-256176190D01*
X435572619Y-256152380D01*
X435596428Y-256128571D01*
X435644047Y-256057142D01*
X435667857Y-255961904D01*
X435667857Y-255771428D01*
X435644047Y-255723809D01*
X435620238Y-255700000D01*
X435572619Y-255676190D01*
X435477380Y-255676190D01*
X435429761Y-255700000D01*
X435405952Y-255723809D01*
X435382142Y-255771428D01*
X435382142Y-255890476D01*
X435405952Y-255938095D01*
X435429761Y-255961904D01*
X435477380Y-255985714D01*
X435572619Y-255985714D01*
X435620238Y-255961904D01*
X435644047Y-255938095D01*
X435667857Y-255890476D01*
%TO.C,C13*%
D11*
X428502380Y-249852380D02*
X427930952Y-249852380D01*
X428216666Y-249852380D02*
X428216666Y-248852380D01*
X428121428Y-248995238D01*
X428026190Y-249090476D01*
X427930952Y-249138095D01*
X429121428Y-248852380D02*
X429216666Y-248852380D01*
X429311904Y-248900000D01*
X429359523Y-248947619D01*
X429407142Y-249042857D01*
X429454761Y-249233333D01*
X429454761Y-249471428D01*
X429407142Y-249661904D01*
X429359523Y-249757142D01*
X429311904Y-249804761D01*
X429216666Y-249852380D01*
X429121428Y-249852380D01*
X429026190Y-249804761D01*
X428978571Y-249757142D01*
X428930952Y-249661904D01*
X428883333Y-249471428D01*
X428883333Y-249233333D01*
X428930952Y-249042857D01*
X428978571Y-248947619D01*
X429026190Y-248900000D01*
X429121428Y-248852380D01*
X430073809Y-248852380D02*
X430169047Y-248852380D01*
X430264285Y-248900000D01*
X430311904Y-248947619D01*
X430359523Y-249042857D01*
X430407142Y-249233333D01*
X430407142Y-249471428D01*
X430359523Y-249661904D01*
X430311904Y-249757142D01*
X430264285Y-249804761D01*
X430169047Y-249852380D01*
X430073809Y-249852380D01*
X429978571Y-249804761D01*
X429930952Y-249757142D01*
X429883333Y-249661904D01*
X429835714Y-249471428D01*
X429835714Y-249233333D01*
X429883333Y-249042857D01*
X429930952Y-248947619D01*
X429978571Y-248900000D01*
X430073809Y-248852380D01*
X430835714Y-249185714D02*
X430835714Y-249852380D01*
X430835714Y-249280952D02*
X430883333Y-249233333D01*
X430978571Y-249185714D01*
X431121428Y-249185714D01*
X431216666Y-249233333D01*
X431264285Y-249328571D01*
X431264285Y-249852380D01*
X432073809Y-249328571D02*
X431740476Y-249328571D01*
X431740476Y-249852380D02*
X431740476Y-248852380D01*
X432216666Y-248852380D01*
D13*
X429728571Y-251228571D02*
X429704761Y-251252380D01*
X429633333Y-251276190D01*
X429585714Y-251276190D01*
X429514285Y-251252380D01*
X429466666Y-251204761D01*
X429442857Y-251157142D01*
X429419047Y-251061904D01*
X429419047Y-250990476D01*
X429442857Y-250895238D01*
X429466666Y-250847619D01*
X429514285Y-250800000D01*
X429585714Y-250776190D01*
X429633333Y-250776190D01*
X429704761Y-250800000D01*
X429728571Y-250823809D01*
X430204761Y-251276190D02*
X429919047Y-251276190D01*
X430061904Y-251276190D02*
X430061904Y-250776190D01*
X430014285Y-250847619D01*
X429966666Y-250895238D01*
X429919047Y-250919047D01*
X430371428Y-250776190D02*
X430680952Y-250776190D01*
X430514285Y-250966666D01*
X430585714Y-250966666D01*
X430633333Y-250990476D01*
X430657142Y-251014285D01*
X430680952Y-251061904D01*
X430680952Y-251180952D01*
X430657142Y-251228571D01*
X430633333Y-251252380D01*
X430585714Y-251276190D01*
X430442857Y-251276190D01*
X430395238Y-251252380D01*
X430371428Y-251228571D01*
%TO.C,C14*%
D11*
X404278571Y-231052380D02*
X403707142Y-231052380D01*
X403992857Y-231052380D02*
X403992857Y-230052380D01*
X403897619Y-230195238D01*
X403802380Y-230290476D01*
X403707142Y-230338095D01*
X404897619Y-230052380D02*
X404992857Y-230052380D01*
X405088095Y-230100000D01*
X405135714Y-230147619D01*
X405183333Y-230242857D01*
X405230952Y-230433333D01*
X405230952Y-230671428D01*
X405183333Y-230861904D01*
X405135714Y-230957142D01*
X405088095Y-231004761D01*
X404992857Y-231052380D01*
X404897619Y-231052380D01*
X404802380Y-231004761D01*
X404754761Y-230957142D01*
X404707142Y-230861904D01*
X404659523Y-230671428D01*
X404659523Y-230433333D01*
X404707142Y-230242857D01*
X404754761Y-230147619D01*
X404802380Y-230100000D01*
X404897619Y-230052380D01*
X406088095Y-230385714D02*
X406088095Y-231052380D01*
X405659523Y-230385714D02*
X405659523Y-230909523D01*
X405707142Y-231004761D01*
X405802380Y-231052380D01*
X405945238Y-231052380D01*
X406040476Y-231004761D01*
X406088095Y-230957142D01*
X406897619Y-230528571D02*
X406564285Y-230528571D01*
X406564285Y-231052380D02*
X406564285Y-230052380D01*
X407040476Y-230052380D01*
D13*
X405028571Y-232378571D02*
X405004761Y-232402380D01*
X404933333Y-232426190D01*
X404885714Y-232426190D01*
X404814285Y-232402380D01*
X404766666Y-232354761D01*
X404742857Y-232307142D01*
X404719047Y-232211904D01*
X404719047Y-232140476D01*
X404742857Y-232045238D01*
X404766666Y-231997619D01*
X404814285Y-231950000D01*
X404885714Y-231926190D01*
X404933333Y-231926190D01*
X405004761Y-231950000D01*
X405028571Y-231973809D01*
X405504761Y-232426190D02*
X405219047Y-232426190D01*
X405361904Y-232426190D02*
X405361904Y-231926190D01*
X405314285Y-231997619D01*
X405266666Y-232045238D01*
X405219047Y-232069047D01*
X405933333Y-232092857D02*
X405933333Y-232426190D01*
X405814285Y-231902380D02*
X405695238Y-232259523D01*
X406004761Y-232259523D01*
%TO.C,H4*%
D11*
X459170685Y-247685180D02*
X459170685Y-246685180D01*
X459504019Y-247399466D01*
X459837352Y-246685180D01*
X459837352Y-247685180D01*
X460456400Y-247685180D02*
X460361161Y-247637561D01*
X460313542Y-247589942D01*
X460265923Y-247494704D01*
X460265923Y-247208990D01*
X460313542Y-247113752D01*
X460361161Y-247066133D01*
X460456400Y-247018514D01*
X460599257Y-247018514D01*
X460694495Y-247066133D01*
X460742114Y-247113752D01*
X460789733Y-247208990D01*
X460789733Y-247494704D01*
X460742114Y-247589942D01*
X460694495Y-247637561D01*
X460599257Y-247685180D01*
X460456400Y-247685180D01*
X461646876Y-247018514D02*
X461646876Y-247685180D01*
X461218304Y-247018514D02*
X461218304Y-247542323D01*
X461265923Y-247637561D01*
X461361161Y-247685180D01*
X461504019Y-247685180D01*
X461599257Y-247637561D01*
X461646876Y-247589942D01*
X462123066Y-247018514D02*
X462123066Y-247685180D01*
X462123066Y-247113752D02*
X462170685Y-247066133D01*
X462265923Y-247018514D01*
X462408780Y-247018514D01*
X462504019Y-247066133D01*
X462551638Y-247161371D01*
X462551638Y-247685180D01*
X462884971Y-247018514D02*
X463265923Y-247018514D01*
X463027828Y-246685180D02*
X463027828Y-247542323D01*
X463075447Y-247637561D01*
X463170685Y-247685180D01*
X463265923Y-247685180D01*
X463599257Y-247685180D02*
X463599257Y-247018514D01*
X463599257Y-246685180D02*
X463551638Y-246732800D01*
X463599257Y-246780419D01*
X463646876Y-246732800D01*
X463599257Y-246685180D01*
X463599257Y-246780419D01*
X464075447Y-247018514D02*
X464075447Y-247685180D01*
X464075447Y-247113752D02*
X464123066Y-247066133D01*
X464218304Y-247018514D01*
X464361161Y-247018514D01*
X464456400Y-247066133D01*
X464504019Y-247161371D01*
X464504019Y-247685180D01*
X465408780Y-247018514D02*
X465408780Y-247828038D01*
X465361161Y-247923276D01*
X465313542Y-247970895D01*
X465218304Y-248018514D01*
X465075447Y-248018514D01*
X464980209Y-247970895D01*
X465408780Y-247637561D02*
X465313542Y-247685180D01*
X465123066Y-247685180D01*
X465027828Y-247637561D01*
X464980209Y-247589942D01*
X464932590Y-247494704D01*
X464932590Y-247208990D01*
X464980209Y-247113752D01*
X465027828Y-247066133D01*
X465123066Y-247018514D01*
X465313542Y-247018514D01*
X465408780Y-247066133D01*
X465884971Y-247685180D02*
X465884971Y-246685180D01*
X465884971Y-247161371D02*
X466456400Y-247161371D01*
X466456400Y-247685180D02*
X466456400Y-246685180D01*
X467075447Y-247685180D02*
X466980209Y-247637561D01*
X466932590Y-247589942D01*
X466884971Y-247494704D01*
X466884971Y-247208990D01*
X466932590Y-247113752D01*
X466980209Y-247066133D01*
X467075447Y-247018514D01*
X467218304Y-247018514D01*
X467313542Y-247066133D01*
X467361161Y-247113752D01*
X467408780Y-247208990D01*
X467408780Y-247494704D01*
X467361161Y-247589942D01*
X467313542Y-247637561D01*
X467218304Y-247685180D01*
X467075447Y-247685180D01*
X467980209Y-247685180D02*
X467884971Y-247637561D01*
X467837352Y-247542323D01*
X467837352Y-246685180D01*
X468742114Y-247637561D02*
X468646876Y-247685180D01*
X468456400Y-247685180D01*
X468361161Y-247637561D01*
X468313542Y-247542323D01*
X468313542Y-247161371D01*
X468361161Y-247066133D01*
X468456400Y-247018514D01*
X468646876Y-247018514D01*
X468742114Y-247066133D01*
X468789733Y-247161371D01*
X468789733Y-247256609D01*
X468313542Y-247351847D01*
X463494495Y-243835180D02*
X463494495Y-242835180D01*
X463494495Y-243311371D02*
X464065923Y-243311371D01*
X464065923Y-243835180D02*
X464065923Y-242835180D01*
X464970685Y-243168514D02*
X464970685Y-243835180D01*
X464732590Y-242787561D02*
X464494495Y-243501847D01*
X465113542Y-243501847D01*
%TO.C,H3*%
X443270285Y-247702380D02*
X443270285Y-246702380D01*
X443603619Y-247416666D01*
X443936952Y-246702380D01*
X443936952Y-247702380D01*
X444556000Y-247702380D02*
X444460761Y-247654761D01*
X444413142Y-247607142D01*
X444365523Y-247511904D01*
X444365523Y-247226190D01*
X444413142Y-247130952D01*
X444460761Y-247083333D01*
X444556000Y-247035714D01*
X444698857Y-247035714D01*
X444794095Y-247083333D01*
X444841714Y-247130952D01*
X444889333Y-247226190D01*
X444889333Y-247511904D01*
X444841714Y-247607142D01*
X444794095Y-247654761D01*
X444698857Y-247702380D01*
X444556000Y-247702380D01*
X445746476Y-247035714D02*
X445746476Y-247702380D01*
X445317904Y-247035714D02*
X445317904Y-247559523D01*
X445365523Y-247654761D01*
X445460761Y-247702380D01*
X445603619Y-247702380D01*
X445698857Y-247654761D01*
X445746476Y-247607142D01*
X446222666Y-247035714D02*
X446222666Y-247702380D01*
X446222666Y-247130952D02*
X446270285Y-247083333D01*
X446365523Y-247035714D01*
X446508380Y-247035714D01*
X446603619Y-247083333D01*
X446651238Y-247178571D01*
X446651238Y-247702380D01*
X446984571Y-247035714D02*
X447365523Y-247035714D01*
X447127428Y-246702380D02*
X447127428Y-247559523D01*
X447175047Y-247654761D01*
X447270285Y-247702380D01*
X447365523Y-247702380D01*
X447698857Y-247702380D02*
X447698857Y-247035714D01*
X447698857Y-246702380D02*
X447651238Y-246750000D01*
X447698857Y-246797619D01*
X447746476Y-246750000D01*
X447698857Y-246702380D01*
X447698857Y-246797619D01*
X448175047Y-247035714D02*
X448175047Y-247702380D01*
X448175047Y-247130952D02*
X448222666Y-247083333D01*
X448317904Y-247035714D01*
X448460761Y-247035714D01*
X448556000Y-247083333D01*
X448603619Y-247178571D01*
X448603619Y-247702380D01*
X449508380Y-247035714D02*
X449508380Y-247845238D01*
X449460761Y-247940476D01*
X449413142Y-247988095D01*
X449317904Y-248035714D01*
X449175047Y-248035714D01*
X449079809Y-247988095D01*
X449508380Y-247654761D02*
X449413142Y-247702380D01*
X449222666Y-247702380D01*
X449127428Y-247654761D01*
X449079809Y-247607142D01*
X449032190Y-247511904D01*
X449032190Y-247226190D01*
X449079809Y-247130952D01*
X449127428Y-247083333D01*
X449222666Y-247035714D01*
X449413142Y-247035714D01*
X449508380Y-247083333D01*
X449984571Y-247702380D02*
X449984571Y-246702380D01*
X449984571Y-247178571D02*
X450556000Y-247178571D01*
X450556000Y-247702380D02*
X450556000Y-246702380D01*
X451175047Y-247702380D02*
X451079809Y-247654761D01*
X451032190Y-247607142D01*
X450984571Y-247511904D01*
X450984571Y-247226190D01*
X451032190Y-247130952D01*
X451079809Y-247083333D01*
X451175047Y-247035714D01*
X451317904Y-247035714D01*
X451413142Y-247083333D01*
X451460761Y-247130952D01*
X451508380Y-247226190D01*
X451508380Y-247511904D01*
X451460761Y-247607142D01*
X451413142Y-247654761D01*
X451317904Y-247702380D01*
X451175047Y-247702380D01*
X452079809Y-247702380D02*
X451984571Y-247654761D01*
X451936952Y-247559523D01*
X451936952Y-246702380D01*
X452841714Y-247654761D02*
X452746476Y-247702380D01*
X452556000Y-247702380D01*
X452460761Y-247654761D01*
X452413142Y-247559523D01*
X452413142Y-247178571D01*
X452460761Y-247083333D01*
X452556000Y-247035714D01*
X452746476Y-247035714D01*
X452841714Y-247083333D01*
X452889333Y-247178571D01*
X452889333Y-247273809D01*
X452413142Y-247369047D01*
X447217895Y-241777780D02*
X447217895Y-240777780D01*
X447217895Y-241253971D02*
X447789323Y-241253971D01*
X447789323Y-241777780D02*
X447789323Y-240777780D01*
X448170276Y-240777780D02*
X448789323Y-240777780D01*
X448455990Y-241158733D01*
X448598847Y-241158733D01*
X448694085Y-241206352D01*
X448741704Y-241253971D01*
X448789323Y-241349209D01*
X448789323Y-241587304D01*
X448741704Y-241682542D01*
X448694085Y-241730161D01*
X448598847Y-241777780D01*
X448313133Y-241777780D01*
X448217895Y-241730161D01*
X448170276Y-241682542D01*
%TO.C,H2*%
X443295685Y-255660780D02*
X443295685Y-254660780D01*
X443629019Y-255375066D01*
X443962352Y-254660780D01*
X443962352Y-255660780D01*
X444581400Y-255660780D02*
X444486161Y-255613161D01*
X444438542Y-255565542D01*
X444390923Y-255470304D01*
X444390923Y-255184590D01*
X444438542Y-255089352D01*
X444486161Y-255041733D01*
X444581400Y-254994114D01*
X444724257Y-254994114D01*
X444819495Y-255041733D01*
X444867114Y-255089352D01*
X444914733Y-255184590D01*
X444914733Y-255470304D01*
X444867114Y-255565542D01*
X444819495Y-255613161D01*
X444724257Y-255660780D01*
X444581400Y-255660780D01*
X445771876Y-254994114D02*
X445771876Y-255660780D01*
X445343304Y-254994114D02*
X445343304Y-255517923D01*
X445390923Y-255613161D01*
X445486161Y-255660780D01*
X445629019Y-255660780D01*
X445724257Y-255613161D01*
X445771876Y-255565542D01*
X446248066Y-254994114D02*
X446248066Y-255660780D01*
X446248066Y-255089352D02*
X446295685Y-255041733D01*
X446390923Y-254994114D01*
X446533780Y-254994114D01*
X446629019Y-255041733D01*
X446676638Y-255136971D01*
X446676638Y-255660780D01*
X447009971Y-254994114D02*
X447390923Y-254994114D01*
X447152828Y-254660780D02*
X447152828Y-255517923D01*
X447200447Y-255613161D01*
X447295685Y-255660780D01*
X447390923Y-255660780D01*
X447724257Y-255660780D02*
X447724257Y-254994114D01*
X447724257Y-254660780D02*
X447676638Y-254708400D01*
X447724257Y-254756019D01*
X447771876Y-254708400D01*
X447724257Y-254660780D01*
X447724257Y-254756019D01*
X448200447Y-254994114D02*
X448200447Y-255660780D01*
X448200447Y-255089352D02*
X448248066Y-255041733D01*
X448343304Y-254994114D01*
X448486161Y-254994114D01*
X448581400Y-255041733D01*
X448629019Y-255136971D01*
X448629019Y-255660780D01*
X449533780Y-254994114D02*
X449533780Y-255803638D01*
X449486161Y-255898876D01*
X449438542Y-255946495D01*
X449343304Y-255994114D01*
X449200447Y-255994114D01*
X449105209Y-255946495D01*
X449533780Y-255613161D02*
X449438542Y-255660780D01*
X449248066Y-255660780D01*
X449152828Y-255613161D01*
X449105209Y-255565542D01*
X449057590Y-255470304D01*
X449057590Y-255184590D01*
X449105209Y-255089352D01*
X449152828Y-255041733D01*
X449248066Y-254994114D01*
X449438542Y-254994114D01*
X449533780Y-255041733D01*
X450009971Y-255660780D02*
X450009971Y-254660780D01*
X450009971Y-255136971D02*
X450581400Y-255136971D01*
X450581400Y-255660780D02*
X450581400Y-254660780D01*
X451200447Y-255660780D02*
X451105209Y-255613161D01*
X451057590Y-255565542D01*
X451009971Y-255470304D01*
X451009971Y-255184590D01*
X451057590Y-255089352D01*
X451105209Y-255041733D01*
X451200447Y-254994114D01*
X451343304Y-254994114D01*
X451438542Y-255041733D01*
X451486161Y-255089352D01*
X451533780Y-255184590D01*
X451533780Y-255470304D01*
X451486161Y-255565542D01*
X451438542Y-255613161D01*
X451343304Y-255660780D01*
X451200447Y-255660780D01*
X452105209Y-255660780D02*
X452009971Y-255613161D01*
X451962352Y-255517923D01*
X451962352Y-254660780D01*
X452867114Y-255613161D02*
X452771876Y-255660780D01*
X452581400Y-255660780D01*
X452486161Y-255613161D01*
X452438542Y-255517923D01*
X452438542Y-255136971D01*
X452486161Y-255041733D01*
X452581400Y-254994114D01*
X452771876Y-254994114D01*
X452867114Y-255041733D01*
X452914733Y-255136971D01*
X452914733Y-255232209D01*
X452438542Y-255327447D01*
X447619495Y-251810780D02*
X447619495Y-250810780D01*
X447619495Y-251286971D02*
X448190923Y-251286971D01*
X448190923Y-251810780D02*
X448190923Y-250810780D01*
X448619495Y-250906019D02*
X448667114Y-250858400D01*
X448762352Y-250810780D01*
X449000447Y-250810780D01*
X449095685Y-250858400D01*
X449143304Y-250906019D01*
X449190923Y-251001257D01*
X449190923Y-251096495D01*
X449143304Y-251239352D01*
X448571876Y-251810780D01*
X449190923Y-251810780D01*
%TO.C,H1*%
X459170685Y-255660780D02*
X459170685Y-254660780D01*
X459504019Y-255375066D01*
X459837352Y-254660780D01*
X459837352Y-255660780D01*
X460456400Y-255660780D02*
X460361161Y-255613161D01*
X460313542Y-255565542D01*
X460265923Y-255470304D01*
X460265923Y-255184590D01*
X460313542Y-255089352D01*
X460361161Y-255041733D01*
X460456400Y-254994114D01*
X460599257Y-254994114D01*
X460694495Y-255041733D01*
X460742114Y-255089352D01*
X460789733Y-255184590D01*
X460789733Y-255470304D01*
X460742114Y-255565542D01*
X460694495Y-255613161D01*
X460599257Y-255660780D01*
X460456400Y-255660780D01*
X461646876Y-254994114D02*
X461646876Y-255660780D01*
X461218304Y-254994114D02*
X461218304Y-255517923D01*
X461265923Y-255613161D01*
X461361161Y-255660780D01*
X461504019Y-255660780D01*
X461599257Y-255613161D01*
X461646876Y-255565542D01*
X462123066Y-254994114D02*
X462123066Y-255660780D01*
X462123066Y-255089352D02*
X462170685Y-255041733D01*
X462265923Y-254994114D01*
X462408780Y-254994114D01*
X462504019Y-255041733D01*
X462551638Y-255136971D01*
X462551638Y-255660780D01*
X462884971Y-254994114D02*
X463265923Y-254994114D01*
X463027828Y-254660780D02*
X463027828Y-255517923D01*
X463075447Y-255613161D01*
X463170685Y-255660780D01*
X463265923Y-255660780D01*
X463599257Y-255660780D02*
X463599257Y-254994114D01*
X463599257Y-254660780D02*
X463551638Y-254708400D01*
X463599257Y-254756019D01*
X463646876Y-254708400D01*
X463599257Y-254660780D01*
X463599257Y-254756019D01*
X464075447Y-254994114D02*
X464075447Y-255660780D01*
X464075447Y-255089352D02*
X464123066Y-255041733D01*
X464218304Y-254994114D01*
X464361161Y-254994114D01*
X464456400Y-255041733D01*
X464504019Y-255136971D01*
X464504019Y-255660780D01*
X465408780Y-254994114D02*
X465408780Y-255803638D01*
X465361161Y-255898876D01*
X465313542Y-255946495D01*
X465218304Y-255994114D01*
X465075447Y-255994114D01*
X464980209Y-255946495D01*
X465408780Y-255613161D02*
X465313542Y-255660780D01*
X465123066Y-255660780D01*
X465027828Y-255613161D01*
X464980209Y-255565542D01*
X464932590Y-255470304D01*
X464932590Y-255184590D01*
X464980209Y-255089352D01*
X465027828Y-255041733D01*
X465123066Y-254994114D01*
X465313542Y-254994114D01*
X465408780Y-255041733D01*
X465884971Y-255660780D02*
X465884971Y-254660780D01*
X465884971Y-255136971D02*
X466456400Y-255136971D01*
X466456400Y-255660780D02*
X466456400Y-254660780D01*
X467075447Y-255660780D02*
X466980209Y-255613161D01*
X466932590Y-255565542D01*
X466884971Y-255470304D01*
X466884971Y-255184590D01*
X466932590Y-255089352D01*
X466980209Y-255041733D01*
X467075447Y-254994114D01*
X467218304Y-254994114D01*
X467313542Y-255041733D01*
X467361161Y-255089352D01*
X467408780Y-255184590D01*
X467408780Y-255470304D01*
X467361161Y-255565542D01*
X467313542Y-255613161D01*
X467218304Y-255660780D01*
X467075447Y-255660780D01*
X467980209Y-255660780D02*
X467884971Y-255613161D01*
X467837352Y-255517923D01*
X467837352Y-254660780D01*
X468742114Y-255613161D02*
X468646876Y-255660780D01*
X468456400Y-255660780D01*
X468361161Y-255613161D01*
X468313542Y-255517923D01*
X468313542Y-255136971D01*
X468361161Y-255041733D01*
X468456400Y-254994114D01*
X468646876Y-254994114D01*
X468742114Y-255041733D01*
X468789733Y-255136971D01*
X468789733Y-255232209D01*
X468313542Y-255327447D01*
X463494495Y-251810780D02*
X463494495Y-250810780D01*
X463494495Y-251286971D02*
X464065923Y-251286971D01*
X464065923Y-251810780D02*
X464065923Y-250810780D01*
X465065923Y-251810780D02*
X464494495Y-251810780D01*
X464780209Y-251810780D02*
X464780209Y-250810780D01*
X464684971Y-250953638D01*
X464589733Y-251048876D01*
X464494495Y-251096495D01*
%TO.C,C12*%
X427952380Y-248246428D02*
X427952380Y-248817857D01*
X427952380Y-248532142D02*
X426952380Y-248532142D01*
X427095238Y-248627380D01*
X427190476Y-248722619D01*
X427238095Y-248817857D01*
X426952380Y-247627380D02*
X426952380Y-247532142D01*
X427000000Y-247436904D01*
X427047619Y-247389285D01*
X427142857Y-247341666D01*
X427333333Y-247294047D01*
X427571428Y-247294047D01*
X427761904Y-247341666D01*
X427857142Y-247389285D01*
X427904761Y-247436904D01*
X427952380Y-247532142D01*
X427952380Y-247627380D01*
X427904761Y-247722619D01*
X427857142Y-247770238D01*
X427761904Y-247817857D01*
X427571428Y-247865476D01*
X427333333Y-247865476D01*
X427142857Y-247817857D01*
X427047619Y-247770238D01*
X427000000Y-247722619D01*
X426952380Y-247627380D01*
X427285714Y-246436904D02*
X427952380Y-246436904D01*
X427285714Y-246865476D02*
X427809523Y-246865476D01*
X427904761Y-246817857D01*
X427952380Y-246722619D01*
X427952380Y-246579761D01*
X427904761Y-246484523D01*
X427857142Y-246436904D01*
X427428571Y-245627380D02*
X427428571Y-245960714D01*
X427952380Y-245960714D02*
X426952380Y-245960714D01*
X426952380Y-245484523D01*
D13*
X429328571Y-247496428D02*
X429352380Y-247520238D01*
X429376190Y-247591666D01*
X429376190Y-247639285D01*
X429352380Y-247710714D01*
X429304761Y-247758333D01*
X429257142Y-247782142D01*
X429161904Y-247805952D01*
X429090476Y-247805952D01*
X428995238Y-247782142D01*
X428947619Y-247758333D01*
X428900000Y-247710714D01*
X428876190Y-247639285D01*
X428876190Y-247591666D01*
X428900000Y-247520238D01*
X428923809Y-247496428D01*
X429376190Y-247020238D02*
X429376190Y-247305952D01*
X429376190Y-247163095D02*
X428876190Y-247163095D01*
X428947619Y-247210714D01*
X428995238Y-247258333D01*
X429019047Y-247305952D01*
X428923809Y-246829761D02*
X428900000Y-246805952D01*
X428876190Y-246758333D01*
X428876190Y-246639285D01*
X428900000Y-246591666D01*
X428923809Y-246567857D01*
X428971428Y-246544047D01*
X429019047Y-246544047D01*
X429090476Y-246567857D01*
X429376190Y-246853571D01*
X429376190Y-246544047D01*
%TO.C,C11*%
D11*
X439353571Y-258052380D02*
X438782142Y-258052380D01*
X439067857Y-258052380D02*
X439067857Y-257052380D01*
X438972619Y-257195238D01*
X438877380Y-257290476D01*
X438782142Y-257338095D01*
X439972619Y-257052380D02*
X440067857Y-257052380D01*
X440163095Y-257100000D01*
X440210714Y-257147619D01*
X440258333Y-257242857D01*
X440305952Y-257433333D01*
X440305952Y-257671428D01*
X440258333Y-257861904D01*
X440210714Y-257957142D01*
X440163095Y-258004761D01*
X440067857Y-258052380D01*
X439972619Y-258052380D01*
X439877380Y-258004761D01*
X439829761Y-257957142D01*
X439782142Y-257861904D01*
X439734523Y-257671428D01*
X439734523Y-257433333D01*
X439782142Y-257242857D01*
X439829761Y-257147619D01*
X439877380Y-257100000D01*
X439972619Y-257052380D01*
X441163095Y-257385714D02*
X441163095Y-258052380D01*
X440734523Y-257385714D02*
X440734523Y-257909523D01*
X440782142Y-258004761D01*
X440877380Y-258052380D01*
X441020238Y-258052380D01*
X441115476Y-258004761D01*
X441163095Y-257957142D01*
X441972619Y-257528571D02*
X441639285Y-257528571D01*
X441639285Y-258052380D02*
X441639285Y-257052380D01*
X442115476Y-257052380D01*
D13*
X440103571Y-256128571D02*
X440079761Y-256152380D01*
X440008333Y-256176190D01*
X439960714Y-256176190D01*
X439889285Y-256152380D01*
X439841666Y-256104761D01*
X439817857Y-256057142D01*
X439794047Y-255961904D01*
X439794047Y-255890476D01*
X439817857Y-255795238D01*
X439841666Y-255747619D01*
X439889285Y-255700000D01*
X439960714Y-255676190D01*
X440008333Y-255676190D01*
X440079761Y-255700000D01*
X440103571Y-255723809D01*
X440579761Y-256176190D02*
X440294047Y-256176190D01*
X440436904Y-256176190D02*
X440436904Y-255676190D01*
X440389285Y-255747619D01*
X440341666Y-255795238D01*
X440294047Y-255819047D01*
X441055952Y-256176190D02*
X440770238Y-256176190D01*
X440913095Y-256176190D02*
X440913095Y-255676190D01*
X440865476Y-255747619D01*
X440817857Y-255795238D01*
X440770238Y-255819047D01*
%TO.C,U1*%
D11*
X430938690Y-241502380D02*
X430938690Y-240502380D01*
X431367261Y-241454761D02*
X431510119Y-241502380D01*
X431748214Y-241502380D01*
X431843452Y-241454761D01*
X431891071Y-241407142D01*
X431938690Y-241311904D01*
X431938690Y-241216666D01*
X431891071Y-241121428D01*
X431843452Y-241073809D01*
X431748214Y-241026190D01*
X431557738Y-240978571D01*
X431462500Y-240930952D01*
X431414880Y-240883333D01*
X431367261Y-240788095D01*
X431367261Y-240692857D01*
X431414880Y-240597619D01*
X431462500Y-240550000D01*
X431557738Y-240502380D01*
X431795833Y-240502380D01*
X431938690Y-240550000D01*
X432272023Y-240502380D02*
X432891071Y-240502380D01*
X432557738Y-240883333D01*
X432700595Y-240883333D01*
X432795833Y-240930952D01*
X432843452Y-240978571D01*
X432891071Y-241073809D01*
X432891071Y-241311904D01*
X432843452Y-241407142D01*
X432795833Y-241454761D01*
X432700595Y-241502380D01*
X432414880Y-241502380D01*
X432319642Y-241454761D01*
X432272023Y-241407142D01*
X433272023Y-240597619D02*
X433319642Y-240550000D01*
X433414880Y-240502380D01*
X433652976Y-240502380D01*
X433748214Y-240550000D01*
X433795833Y-240597619D01*
X433843452Y-240692857D01*
X433843452Y-240788095D01*
X433795833Y-240930952D01*
X433224404Y-241502380D01*
X433843452Y-241502380D01*
X434605357Y-240978571D02*
X434272023Y-240978571D01*
X434272023Y-241502380D02*
X434272023Y-240502380D01*
X434748214Y-240502380D01*
X435605357Y-241502380D02*
X435129166Y-241502380D01*
X435129166Y-240502380D01*
X435843452Y-240502380D02*
X436462500Y-240502380D01*
X436129166Y-240883333D01*
X436272023Y-240883333D01*
X436367261Y-240930952D01*
X436414880Y-240978571D01*
X436462500Y-241073809D01*
X436462500Y-241311904D01*
X436414880Y-241407142D01*
X436367261Y-241454761D01*
X436272023Y-241502380D01*
X435986309Y-241502380D01*
X435891071Y-241454761D01*
X435843452Y-241407142D01*
X436843452Y-240597619D02*
X436891071Y-240550000D01*
X436986309Y-240502380D01*
X437224404Y-240502380D01*
X437319642Y-240550000D01*
X437367261Y-240597619D01*
X437414880Y-240692857D01*
X437414880Y-240788095D01*
X437367261Y-240930952D01*
X436795833Y-241502380D01*
X437414880Y-241502380D01*
X437748214Y-240502380D02*
X438367261Y-240502380D01*
X438033928Y-240883333D01*
X438176785Y-240883333D01*
X438272023Y-240930952D01*
X438319642Y-240978571D01*
X438367261Y-241073809D01*
X438367261Y-241311904D01*
X438319642Y-241407142D01*
X438272023Y-241454761D01*
X438176785Y-241502380D01*
X437891071Y-241502380D01*
X437795833Y-241454761D01*
X437748214Y-241407142D01*
X438700595Y-240502380D02*
X439367261Y-240502380D01*
X438938690Y-241502380D01*
X439510119Y-241597619D02*
X440272023Y-241597619D01*
X440510119Y-241502380D02*
X440510119Y-240502380D01*
X440748214Y-240502380D01*
X440891071Y-240550000D01*
X440986309Y-240645238D01*
X441033928Y-240740476D01*
X441081547Y-240930952D01*
X441081547Y-241073809D01*
X441033928Y-241264285D01*
X440986309Y-241359523D01*
X440891071Y-241454761D01*
X440748214Y-241502380D01*
X440510119Y-241502380D01*
X441462500Y-241454761D02*
X441605357Y-241502380D01*
X441843452Y-241502380D01*
X441938690Y-241454761D01*
X441986309Y-241407142D01*
X442033928Y-241311904D01*
X442033928Y-241216666D01*
X441986309Y-241121428D01*
X441938690Y-241073809D01*
X441843452Y-241026190D01*
X441652976Y-240978571D01*
X441557738Y-240930952D01*
X441510119Y-240883333D01*
X441462500Y-240788095D01*
X441462500Y-240692857D01*
X441510119Y-240597619D01*
X441557738Y-240550000D01*
X441652976Y-240502380D01*
X441891071Y-240502380D01*
X442033928Y-240550000D01*
X435700595Y-246352380D02*
X435700595Y-247161904D01*
X435748214Y-247257142D01*
X435795833Y-247304761D01*
X435891071Y-247352380D01*
X436081547Y-247352380D01*
X436176785Y-247304761D01*
X436224404Y-247257142D01*
X436272023Y-247161904D01*
X436272023Y-246352380D01*
X437272023Y-247352380D02*
X436700595Y-247352380D01*
X436986309Y-247352380D02*
X436986309Y-246352380D01*
X436891071Y-246495238D01*
X436795833Y-246590476D01*
X436700595Y-246638095D01*
%TO.C,C8*%
X330977380Y-227802380D02*
X330405952Y-227802380D01*
X330691666Y-227802380D02*
X330691666Y-226802380D01*
X330596428Y-226945238D01*
X330501190Y-227040476D01*
X330405952Y-227088095D01*
X331596428Y-226802380D02*
X331691666Y-226802380D01*
X331786904Y-226850000D01*
X331834523Y-226897619D01*
X331882142Y-226992857D01*
X331929761Y-227183333D01*
X331929761Y-227421428D01*
X331882142Y-227611904D01*
X331834523Y-227707142D01*
X331786904Y-227754761D01*
X331691666Y-227802380D01*
X331596428Y-227802380D01*
X331501190Y-227754761D01*
X331453571Y-227707142D01*
X331405952Y-227611904D01*
X331358333Y-227421428D01*
X331358333Y-227183333D01*
X331405952Y-226992857D01*
X331453571Y-226897619D01*
X331501190Y-226850000D01*
X331596428Y-226802380D01*
X332548809Y-226802380D02*
X332644047Y-226802380D01*
X332739285Y-226850000D01*
X332786904Y-226897619D01*
X332834523Y-226992857D01*
X332882142Y-227183333D01*
X332882142Y-227421428D01*
X332834523Y-227611904D01*
X332786904Y-227707142D01*
X332739285Y-227754761D01*
X332644047Y-227802380D01*
X332548809Y-227802380D01*
X332453571Y-227754761D01*
X332405952Y-227707142D01*
X332358333Y-227611904D01*
X332310714Y-227421428D01*
X332310714Y-227183333D01*
X332358333Y-226992857D01*
X332405952Y-226897619D01*
X332453571Y-226850000D01*
X332548809Y-226802380D01*
X333310714Y-227135714D02*
X333310714Y-227802380D01*
X333310714Y-227230952D02*
X333358333Y-227183333D01*
X333453571Y-227135714D01*
X333596428Y-227135714D01*
X333691666Y-227183333D01*
X333739285Y-227278571D01*
X333739285Y-227802380D01*
X334548809Y-227278571D02*
X334215476Y-227278571D01*
X334215476Y-227802380D02*
X334215476Y-226802380D01*
X334691666Y-226802380D01*
D13*
X332441666Y-229178571D02*
X332417857Y-229202380D01*
X332346428Y-229226190D01*
X332298809Y-229226190D01*
X332227380Y-229202380D01*
X332179761Y-229154761D01*
X332155952Y-229107142D01*
X332132142Y-229011904D01*
X332132142Y-228940476D01*
X332155952Y-228845238D01*
X332179761Y-228797619D01*
X332227380Y-228750000D01*
X332298809Y-228726190D01*
X332346428Y-228726190D01*
X332417857Y-228750000D01*
X332441666Y-228773809D01*
X332727380Y-228940476D02*
X332679761Y-228916666D01*
X332655952Y-228892857D01*
X332632142Y-228845238D01*
X332632142Y-228821428D01*
X332655952Y-228773809D01*
X332679761Y-228750000D01*
X332727380Y-228726190D01*
X332822619Y-228726190D01*
X332870238Y-228750000D01*
X332894047Y-228773809D01*
X332917857Y-228821428D01*
X332917857Y-228845238D01*
X332894047Y-228892857D01*
X332870238Y-228916666D01*
X332822619Y-228940476D01*
X332727380Y-228940476D01*
X332679761Y-228964285D01*
X332655952Y-228988095D01*
X332632142Y-229035714D01*
X332632142Y-229130952D01*
X332655952Y-229178571D01*
X332679761Y-229202380D01*
X332727380Y-229226190D01*
X332822619Y-229226190D01*
X332870238Y-229202380D01*
X332894047Y-229178571D01*
X332917857Y-229130952D01*
X332917857Y-229035714D01*
X332894047Y-228988095D01*
X332870238Y-228964285D01*
X332822619Y-228940476D01*
%TO.C,C7*%
D11*
X431252380Y-243872619D02*
X431252380Y-244444047D01*
X431252380Y-244158333D02*
X430252380Y-244158333D01*
X430395238Y-244253571D01*
X430490476Y-244348809D01*
X430538095Y-244444047D01*
X430252380Y-243253571D02*
X430252380Y-243158333D01*
X430300000Y-243063095D01*
X430347619Y-243015476D01*
X430442857Y-242967857D01*
X430633333Y-242920238D01*
X430871428Y-242920238D01*
X431061904Y-242967857D01*
X431157142Y-243015476D01*
X431204761Y-243063095D01*
X431252380Y-243158333D01*
X431252380Y-243253571D01*
X431204761Y-243348809D01*
X431157142Y-243396428D01*
X431061904Y-243444047D01*
X430871428Y-243491666D01*
X430633333Y-243491666D01*
X430442857Y-243444047D01*
X430347619Y-243396428D01*
X430300000Y-243348809D01*
X430252380Y-243253571D01*
X430252380Y-242301190D02*
X430252380Y-242205952D01*
X430300000Y-242110714D01*
X430347619Y-242063095D01*
X430442857Y-242015476D01*
X430633333Y-241967857D01*
X430871428Y-241967857D01*
X431061904Y-242015476D01*
X431157142Y-242063095D01*
X431204761Y-242110714D01*
X431252380Y-242205952D01*
X431252380Y-242301190D01*
X431204761Y-242396428D01*
X431157142Y-242444047D01*
X431061904Y-242491666D01*
X430871428Y-242539285D01*
X430633333Y-242539285D01*
X430442857Y-242491666D01*
X430347619Y-242444047D01*
X430300000Y-242396428D01*
X430252380Y-242301190D01*
X430585714Y-241539285D02*
X431252380Y-241539285D01*
X430680952Y-241539285D02*
X430633333Y-241491666D01*
X430585714Y-241396428D01*
X430585714Y-241253571D01*
X430633333Y-241158333D01*
X430728571Y-241110714D01*
X431252380Y-241110714D01*
X430728571Y-240301190D02*
X430728571Y-240634523D01*
X431252380Y-240634523D02*
X430252380Y-240634523D01*
X430252380Y-240158333D01*
D13*
X429328571Y-242408333D02*
X429352380Y-242432142D01*
X429376190Y-242503571D01*
X429376190Y-242551190D01*
X429352380Y-242622619D01*
X429304761Y-242670238D01*
X429257142Y-242694047D01*
X429161904Y-242717857D01*
X429090476Y-242717857D01*
X428995238Y-242694047D01*
X428947619Y-242670238D01*
X428900000Y-242622619D01*
X428876190Y-242551190D01*
X428876190Y-242503571D01*
X428900000Y-242432142D01*
X428923809Y-242408333D01*
X428876190Y-242241666D02*
X428876190Y-241908333D01*
X429376190Y-242122619D01*
%TO.C,C2*%
D11*
X330977380Y-244152380D02*
X330405952Y-244152380D01*
X330691666Y-244152380D02*
X330691666Y-243152380D01*
X330596428Y-243295238D01*
X330501190Y-243390476D01*
X330405952Y-243438095D01*
X331596428Y-243152380D02*
X331691666Y-243152380D01*
X331786904Y-243200000D01*
X331834523Y-243247619D01*
X331882142Y-243342857D01*
X331929761Y-243533333D01*
X331929761Y-243771428D01*
X331882142Y-243961904D01*
X331834523Y-244057142D01*
X331786904Y-244104761D01*
X331691666Y-244152380D01*
X331596428Y-244152380D01*
X331501190Y-244104761D01*
X331453571Y-244057142D01*
X331405952Y-243961904D01*
X331358333Y-243771428D01*
X331358333Y-243533333D01*
X331405952Y-243342857D01*
X331453571Y-243247619D01*
X331501190Y-243200000D01*
X331596428Y-243152380D01*
X332548809Y-243152380D02*
X332644047Y-243152380D01*
X332739285Y-243200000D01*
X332786904Y-243247619D01*
X332834523Y-243342857D01*
X332882142Y-243533333D01*
X332882142Y-243771428D01*
X332834523Y-243961904D01*
X332786904Y-244057142D01*
X332739285Y-244104761D01*
X332644047Y-244152380D01*
X332548809Y-244152380D01*
X332453571Y-244104761D01*
X332405952Y-244057142D01*
X332358333Y-243961904D01*
X332310714Y-243771428D01*
X332310714Y-243533333D01*
X332358333Y-243342857D01*
X332405952Y-243247619D01*
X332453571Y-243200000D01*
X332548809Y-243152380D01*
X333310714Y-243485714D02*
X333310714Y-244152380D01*
X333310714Y-243580952D02*
X333358333Y-243533333D01*
X333453571Y-243485714D01*
X333596428Y-243485714D01*
X333691666Y-243533333D01*
X333739285Y-243628571D01*
X333739285Y-244152380D01*
X334548809Y-243628571D02*
X334215476Y-243628571D01*
X334215476Y-244152380D02*
X334215476Y-243152380D01*
X334691666Y-243152380D01*
D13*
X332441666Y-242228571D02*
X332417857Y-242252380D01*
X332346428Y-242276190D01*
X332298809Y-242276190D01*
X332227380Y-242252380D01*
X332179761Y-242204761D01*
X332155952Y-242157142D01*
X332132142Y-242061904D01*
X332132142Y-241990476D01*
X332155952Y-241895238D01*
X332179761Y-241847619D01*
X332227380Y-241800000D01*
X332298809Y-241776190D01*
X332346428Y-241776190D01*
X332417857Y-241800000D01*
X332441666Y-241823809D01*
X332632142Y-241823809D02*
X332655952Y-241800000D01*
X332703571Y-241776190D01*
X332822619Y-241776190D01*
X332870238Y-241800000D01*
X332894047Y-241823809D01*
X332917857Y-241871428D01*
X332917857Y-241919047D01*
X332894047Y-241990476D01*
X332608333Y-242276190D01*
X332917857Y-242276190D01*
%TO.C,C1*%
D11*
X332864071Y-249411480D02*
X332292642Y-249411480D01*
X332578357Y-249411480D02*
X332578357Y-248411480D01*
X332483119Y-248554338D01*
X332387880Y-248649576D01*
X332292642Y-248697195D01*
X333483119Y-248411480D02*
X333578357Y-248411480D01*
X333673595Y-248459100D01*
X333721214Y-248506719D01*
X333768833Y-248601957D01*
X333816452Y-248792433D01*
X333816452Y-249030528D01*
X333768833Y-249221004D01*
X333721214Y-249316242D01*
X333673595Y-249363861D01*
X333578357Y-249411480D01*
X333483119Y-249411480D01*
X333387880Y-249363861D01*
X333340261Y-249316242D01*
X333292642Y-249221004D01*
X333245023Y-249030528D01*
X333245023Y-248792433D01*
X333292642Y-248601957D01*
X333340261Y-248506719D01*
X333387880Y-248459100D01*
X333483119Y-248411480D01*
X334673595Y-248744814D02*
X334673595Y-249411480D01*
X334245023Y-248744814D02*
X334245023Y-249268623D01*
X334292642Y-249363861D01*
X334387880Y-249411480D01*
X334530738Y-249411480D01*
X334625976Y-249363861D01*
X334673595Y-249316242D01*
X335483119Y-248887671D02*
X335149785Y-248887671D01*
X335149785Y-249411480D02*
X335149785Y-248411480D01*
X335625976Y-248411480D01*
D13*
X333852166Y-247487671D02*
X333828357Y-247511480D01*
X333756928Y-247535290D01*
X333709309Y-247535290D01*
X333637880Y-247511480D01*
X333590261Y-247463861D01*
X333566452Y-247416242D01*
X333542642Y-247321004D01*
X333542642Y-247249576D01*
X333566452Y-247154338D01*
X333590261Y-247106719D01*
X333637880Y-247059100D01*
X333709309Y-247035290D01*
X333756928Y-247035290D01*
X333828357Y-247059100D01*
X333852166Y-247082909D01*
X334328357Y-247535290D02*
X334042642Y-247535290D01*
X334185500Y-247535290D02*
X334185500Y-247035290D01*
X334137880Y-247106719D01*
X334090261Y-247154338D01*
X334042642Y-247178147D01*
%TO.C,D53*%
D11*
X457949580Y-246369580D02*
X457949580Y-246845771D01*
X456949580Y-246845771D01*
X457425771Y-246036247D02*
X457425771Y-245702914D01*
X457949580Y-245560057D02*
X457949580Y-246036247D01*
X456949580Y-246036247D01*
X456949580Y-245560057D01*
X457949580Y-245131485D02*
X456949580Y-245131485D01*
X456949580Y-244893390D01*
X456997200Y-244750533D01*
X457092438Y-244655295D01*
X457187676Y-244607676D01*
X457378152Y-244560057D01*
X457521009Y-244560057D01*
X457711485Y-244607676D01*
X457806723Y-244655295D01*
X457901961Y-244750533D01*
X457949580Y-244893390D01*
X457949580Y-245131485D01*
X458044819Y-244369580D02*
X458044819Y-243607676D01*
X457663866Y-243417200D02*
X457663866Y-242941009D01*
X457949580Y-243512438D02*
X456949580Y-243179104D01*
X457949580Y-242845771D01*
X457949580Y-241941009D02*
X457473390Y-242274342D01*
X457949580Y-242512438D02*
X456949580Y-242512438D01*
X456949580Y-242131485D01*
X456997200Y-242036247D01*
X457044819Y-241988628D01*
X457140057Y-241941009D01*
X457282914Y-241941009D01*
X457378152Y-241988628D01*
X457425771Y-242036247D01*
X457473390Y-242131485D01*
X457473390Y-242512438D01*
X457425771Y-241179104D02*
X457473390Y-241036247D01*
X457521009Y-240988628D01*
X457616247Y-240941009D01*
X457759104Y-240941009D01*
X457854342Y-240988628D01*
X457901961Y-241036247D01*
X457949580Y-241131485D01*
X457949580Y-241512438D01*
X456949580Y-241512438D01*
X456949580Y-241179104D01*
X456997200Y-241083866D01*
X457044819Y-241036247D01*
X457140057Y-240988628D01*
X457235295Y-240988628D01*
X457330533Y-241036247D01*
X457378152Y-241083866D01*
X457425771Y-241179104D01*
X457425771Y-241512438D01*
X456997200Y-239988628D02*
X456949580Y-240083866D01*
X456949580Y-240226723D01*
X456997200Y-240369580D01*
X457092438Y-240464819D01*
X457187676Y-240512438D01*
X457378152Y-240560057D01*
X457521009Y-240560057D01*
X457711485Y-240512438D01*
X457806723Y-240464819D01*
X457901961Y-240369580D01*
X457949580Y-240226723D01*
X457949580Y-240131485D01*
X457901961Y-239988628D01*
X457854342Y-239941009D01*
X457521009Y-239941009D01*
X457521009Y-240131485D01*
D12*
X459540057Y-243643390D02*
X459540057Y-243143390D01*
X459659104Y-243143390D01*
X459730533Y-243167200D01*
X459778152Y-243214819D01*
X459801961Y-243262438D01*
X459825771Y-243357676D01*
X459825771Y-243429104D01*
X459801961Y-243524342D01*
X459778152Y-243571961D01*
X459730533Y-243619580D01*
X459659104Y-243643390D01*
X459540057Y-243643390D01*
X460278152Y-243143390D02*
X460040057Y-243143390D01*
X460016247Y-243381485D01*
X460040057Y-243357676D01*
X460087676Y-243333866D01*
X460206723Y-243333866D01*
X460254342Y-243357676D01*
X460278152Y-243381485D01*
X460301961Y-243429104D01*
X460301961Y-243548152D01*
X460278152Y-243595771D01*
X460254342Y-243619580D01*
X460206723Y-243643390D01*
X460087676Y-243643390D01*
X460040057Y-243619580D01*
X460016247Y-243595771D01*
X460468628Y-243143390D02*
X460778152Y-243143390D01*
X460611485Y-243333866D01*
X460682914Y-243333866D01*
X460730533Y-243357676D01*
X460754342Y-243381485D01*
X460778152Y-243429104D01*
X460778152Y-243548152D01*
X460754342Y-243595771D01*
X460730533Y-243619580D01*
X460682914Y-243643390D01*
X460540057Y-243643390D01*
X460492438Y-243619580D01*
X460468628Y-243595771D01*
%TO.C,D52*%
D11*
X453898280Y-246382280D02*
X453898280Y-246858471D01*
X452898280Y-246858471D01*
X453374471Y-246048947D02*
X453374471Y-245715614D01*
X453898280Y-245572757D02*
X453898280Y-246048947D01*
X452898280Y-246048947D01*
X452898280Y-245572757D01*
X453898280Y-245144185D02*
X452898280Y-245144185D01*
X452898280Y-244906090D01*
X452945900Y-244763233D01*
X453041138Y-244667995D01*
X453136376Y-244620376D01*
X453326852Y-244572757D01*
X453469709Y-244572757D01*
X453660185Y-244620376D01*
X453755423Y-244667995D01*
X453850661Y-244763233D01*
X453898280Y-244906090D01*
X453898280Y-245144185D01*
X453993519Y-244382280D02*
X453993519Y-243620376D01*
X453612566Y-243429900D02*
X453612566Y-242953709D01*
X453898280Y-243525138D02*
X452898280Y-243191804D01*
X453898280Y-242858471D01*
X453898280Y-241953709D02*
X453422090Y-242287042D01*
X453898280Y-242525138D02*
X452898280Y-242525138D01*
X452898280Y-242144185D01*
X452945900Y-242048947D01*
X452993519Y-242001328D01*
X453088757Y-241953709D01*
X453231614Y-241953709D01*
X453326852Y-242001328D01*
X453374471Y-242048947D01*
X453422090Y-242144185D01*
X453422090Y-242525138D01*
X453374471Y-241191804D02*
X453422090Y-241048947D01*
X453469709Y-241001328D01*
X453564947Y-240953709D01*
X453707804Y-240953709D01*
X453803042Y-241001328D01*
X453850661Y-241048947D01*
X453898280Y-241144185D01*
X453898280Y-241525138D01*
X452898280Y-241525138D01*
X452898280Y-241191804D01*
X452945900Y-241096566D01*
X452993519Y-241048947D01*
X453088757Y-241001328D01*
X453183995Y-241001328D01*
X453279233Y-241048947D01*
X453326852Y-241096566D01*
X453374471Y-241191804D01*
X453374471Y-241525138D01*
X452945900Y-240001328D02*
X452898280Y-240096566D01*
X452898280Y-240239423D01*
X452945900Y-240382280D01*
X453041138Y-240477519D01*
X453136376Y-240525138D01*
X453326852Y-240572757D01*
X453469709Y-240572757D01*
X453660185Y-240525138D01*
X453755423Y-240477519D01*
X453850661Y-240382280D01*
X453898280Y-240239423D01*
X453898280Y-240144185D01*
X453850661Y-240001328D01*
X453803042Y-239953709D01*
X453469709Y-239953709D01*
X453469709Y-240144185D01*
D12*
X455488757Y-243656090D02*
X455488757Y-243156090D01*
X455607804Y-243156090D01*
X455679233Y-243179900D01*
X455726852Y-243227519D01*
X455750661Y-243275138D01*
X455774471Y-243370376D01*
X455774471Y-243441804D01*
X455750661Y-243537042D01*
X455726852Y-243584661D01*
X455679233Y-243632280D01*
X455607804Y-243656090D01*
X455488757Y-243656090D01*
X456226852Y-243156090D02*
X455988757Y-243156090D01*
X455964947Y-243394185D01*
X455988757Y-243370376D01*
X456036376Y-243346566D01*
X456155423Y-243346566D01*
X456203042Y-243370376D01*
X456226852Y-243394185D01*
X456250661Y-243441804D01*
X456250661Y-243560852D01*
X456226852Y-243608471D01*
X456203042Y-243632280D01*
X456155423Y-243656090D01*
X456036376Y-243656090D01*
X455988757Y-243632280D01*
X455964947Y-243608471D01*
X456441138Y-243203709D02*
X456464947Y-243179900D01*
X456512566Y-243156090D01*
X456631614Y-243156090D01*
X456679233Y-243179900D01*
X456703042Y-243203709D01*
X456726852Y-243251328D01*
X456726852Y-243298947D01*
X456703042Y-243370376D01*
X456417328Y-243656090D01*
X456726852Y-243656090D01*
%TO.C,J5*%
D11*
X381525602Y-231916455D02*
X381573221Y-231964074D01*
X381620840Y-232106931D01*
X381620840Y-232202169D01*
X381573221Y-232345026D01*
X381477983Y-232440264D01*
X381382745Y-232487883D01*
X381192269Y-232535502D01*
X381049412Y-232535502D01*
X380858936Y-232487883D01*
X380763698Y-232440264D01*
X380668460Y-232345026D01*
X380620840Y-232202169D01*
X380620840Y-232106931D01*
X380668460Y-231964074D01*
X380716079Y-231916455D01*
X381620840Y-231345026D02*
X381573221Y-231440264D01*
X381525602Y-231487883D01*
X381430364Y-231535502D01*
X381144650Y-231535502D01*
X381049412Y-231487883D01*
X381001793Y-231440264D01*
X380954174Y-231345026D01*
X380954174Y-231202169D01*
X381001793Y-231106931D01*
X381049412Y-231059312D01*
X381144650Y-231011693D01*
X381430364Y-231011693D01*
X381525602Y-231059312D01*
X381573221Y-231106931D01*
X381620840Y-231202169D01*
X381620840Y-231345026D01*
X380954174Y-230583121D02*
X381620840Y-230583121D01*
X381049412Y-230583121D02*
X381001793Y-230535502D01*
X380954174Y-230440264D01*
X380954174Y-230297407D01*
X381001793Y-230202169D01*
X381097031Y-230154550D01*
X381620840Y-230154550D01*
X380954174Y-229678360D02*
X381620840Y-229678360D01*
X381049412Y-229678360D02*
X381001793Y-229630740D01*
X380954174Y-229535502D01*
X380954174Y-229392645D01*
X381001793Y-229297407D01*
X381097031Y-229249788D01*
X381620840Y-229249788D01*
X381716079Y-229011693D02*
X381716079Y-228249788D01*
X380620840Y-227821217D02*
X380620840Y-227725979D01*
X380668460Y-227630740D01*
X380716079Y-227583121D01*
X380811317Y-227535502D01*
X381001793Y-227487883D01*
X381239888Y-227487883D01*
X381430364Y-227535502D01*
X381525602Y-227583121D01*
X381573221Y-227630740D01*
X381620840Y-227725979D01*
X381620840Y-227821217D01*
X381573221Y-227916455D01*
X381525602Y-227964074D01*
X381430364Y-228011693D01*
X381239888Y-228059312D01*
X381001793Y-228059312D01*
X380811317Y-228011693D01*
X380716079Y-227964074D01*
X380668460Y-227916455D01*
X380620840Y-227821217D01*
X381620840Y-226535502D02*
X381620840Y-227106931D01*
X381620840Y-226821217D02*
X380620840Y-226821217D01*
X380763698Y-226916455D01*
X380858936Y-227011693D01*
X380906555Y-227106931D01*
X381620840Y-226202169D02*
X380954174Y-225678360D01*
X380954174Y-226202169D02*
X381620840Y-225678360D01*
X380620840Y-225106931D02*
X380620840Y-225011693D01*
X380668460Y-224916455D01*
X380716079Y-224868836D01*
X380811317Y-224821217D01*
X381001793Y-224773598D01*
X381239888Y-224773598D01*
X381430364Y-224821217D01*
X381525602Y-224868836D01*
X381573221Y-224916455D01*
X381620840Y-225011693D01*
X381620840Y-225106931D01*
X381573221Y-225202169D01*
X381525602Y-225249788D01*
X381430364Y-225297407D01*
X381239888Y-225345026D01*
X381001793Y-225345026D01*
X380811317Y-225297407D01*
X380716079Y-225249788D01*
X380668460Y-225202169D01*
X380620840Y-225106931D01*
X380716079Y-224392645D02*
X380668460Y-224345026D01*
X380620840Y-224249788D01*
X380620840Y-224011693D01*
X380668460Y-223916455D01*
X380716079Y-223868836D01*
X380811317Y-223821217D01*
X380906555Y-223821217D01*
X381049412Y-223868836D01*
X381620840Y-224440264D01*
X381620840Y-223821217D01*
X377235126Y-227630740D02*
X377235126Y-228345026D01*
X377187507Y-228487883D01*
X377092269Y-228583121D01*
X376949412Y-228630740D01*
X376854174Y-228630740D01*
X378187507Y-227630740D02*
X377711317Y-227630740D01*
X377663698Y-228106931D01*
X377711317Y-228059312D01*
X377806555Y-228011693D01*
X378044650Y-228011693D01*
X378139888Y-228059312D01*
X378187507Y-228106931D01*
X378235126Y-228202169D01*
X378235126Y-228440264D01*
X378187507Y-228535502D01*
X378139888Y-228583121D01*
X378044650Y-228630740D01*
X377806555Y-228630740D01*
X377711317Y-228583121D01*
X377663698Y-228535502D01*
%TO.C,Y2*%
X341901871Y-245074180D02*
X341330442Y-245074180D01*
X341616157Y-245074180D02*
X341616157Y-244074180D01*
X341520919Y-244217038D01*
X341425680Y-244312276D01*
X341330442Y-244359895D01*
X342759014Y-244074180D02*
X342568538Y-244074180D01*
X342473300Y-244121800D01*
X342425680Y-244169419D01*
X342330442Y-244312276D01*
X342282823Y-244502752D01*
X342282823Y-244883704D01*
X342330442Y-244978942D01*
X342378061Y-245026561D01*
X342473300Y-245074180D01*
X342663776Y-245074180D01*
X342759014Y-245026561D01*
X342806633Y-244978942D01*
X342854252Y-244883704D01*
X342854252Y-244645609D01*
X342806633Y-244550371D01*
X342759014Y-244502752D01*
X342663776Y-244455133D01*
X342473300Y-244455133D01*
X342378061Y-244502752D01*
X342330442Y-244550371D01*
X342282823Y-244645609D01*
X344044728Y-245074180D02*
X344044728Y-244074180D01*
X344378061Y-244788466D01*
X344711395Y-244074180D01*
X344711395Y-245074180D01*
X345187585Y-245074180D02*
X345187585Y-244074180D01*
X345187585Y-244550371D02*
X345759014Y-244550371D01*
X345759014Y-245074180D02*
X345759014Y-244074180D01*
X346139966Y-244407514D02*
X346663776Y-244407514D01*
X346139966Y-245074180D01*
X346663776Y-245074180D01*
X343497109Y-249797990D02*
X343497109Y-250274180D01*
X343163776Y-249274180D02*
X343497109Y-249797990D01*
X343830442Y-249274180D01*
X344116157Y-249369419D02*
X344163776Y-249321800D01*
X344259014Y-249274180D01*
X344497109Y-249274180D01*
X344592347Y-249321800D01*
X344639966Y-249369419D01*
X344687585Y-249464657D01*
X344687585Y-249559895D01*
X344639966Y-249702752D01*
X344068538Y-250274180D01*
X344687585Y-250274180D01*
%TO.C,D7*%
X463260780Y-254327380D02*
X463260780Y-254803571D01*
X462260780Y-254803571D01*
X462736971Y-253994047D02*
X462736971Y-253660714D01*
X463260780Y-253517857D02*
X463260780Y-253994047D01*
X462260780Y-253994047D01*
X462260780Y-253517857D01*
X463260780Y-253089285D02*
X462260780Y-253089285D01*
X462260780Y-252851190D01*
X462308400Y-252708333D01*
X462403638Y-252613095D01*
X462498876Y-252565476D01*
X462689352Y-252517857D01*
X462832209Y-252517857D01*
X463022685Y-252565476D01*
X463117923Y-252613095D01*
X463213161Y-252708333D01*
X463260780Y-252851190D01*
X463260780Y-253089285D01*
X463356019Y-252327380D02*
X463356019Y-251565476D01*
X462975066Y-251375000D02*
X462975066Y-250898809D01*
X463260780Y-251470238D02*
X462260780Y-251136904D01*
X463260780Y-250803571D01*
X463260780Y-249898809D02*
X462784590Y-250232142D01*
X463260780Y-250470238D02*
X462260780Y-250470238D01*
X462260780Y-250089285D01*
X462308400Y-249994047D01*
X462356019Y-249946428D01*
X462451257Y-249898809D01*
X462594114Y-249898809D01*
X462689352Y-249946428D01*
X462736971Y-249994047D01*
X462784590Y-250089285D01*
X462784590Y-250470238D01*
X462736971Y-249136904D02*
X462784590Y-248994047D01*
X462832209Y-248946428D01*
X462927447Y-248898809D01*
X463070304Y-248898809D01*
X463165542Y-248946428D01*
X463213161Y-248994047D01*
X463260780Y-249089285D01*
X463260780Y-249470238D01*
X462260780Y-249470238D01*
X462260780Y-249136904D01*
X462308400Y-249041666D01*
X462356019Y-248994047D01*
X462451257Y-248946428D01*
X462546495Y-248946428D01*
X462641733Y-248994047D01*
X462689352Y-249041666D01*
X462736971Y-249136904D01*
X462736971Y-249470238D01*
X462308400Y-247946428D02*
X462260780Y-248041666D01*
X462260780Y-248184523D01*
X462308400Y-248327380D01*
X462403638Y-248422619D01*
X462498876Y-248470238D01*
X462689352Y-248517857D01*
X462832209Y-248517857D01*
X463022685Y-248470238D01*
X463117923Y-248422619D01*
X463213161Y-248327380D01*
X463260780Y-248184523D01*
X463260780Y-248089285D01*
X463213161Y-247946428D01*
X463165542Y-247898809D01*
X462832209Y-247898809D01*
X462832209Y-248089285D01*
D12*
X460384590Y-251744047D02*
X459884590Y-251744047D01*
X459884590Y-251625000D01*
X459908400Y-251553571D01*
X459956019Y-251505952D01*
X460003638Y-251482142D01*
X460098876Y-251458333D01*
X460170304Y-251458333D01*
X460265542Y-251482142D01*
X460313161Y-251505952D01*
X460360780Y-251553571D01*
X460384590Y-251625000D01*
X460384590Y-251744047D01*
X459884590Y-251291666D02*
X459884590Y-250958333D01*
X460384590Y-251172619D01*
%TO.C,D6*%
D11*
X459196780Y-254327380D02*
X459196780Y-254803571D01*
X458196780Y-254803571D01*
X458672971Y-253994047D02*
X458672971Y-253660714D01*
X459196780Y-253517857D02*
X459196780Y-253994047D01*
X458196780Y-253994047D01*
X458196780Y-253517857D01*
X459196780Y-253089285D02*
X458196780Y-253089285D01*
X458196780Y-252851190D01*
X458244400Y-252708333D01*
X458339638Y-252613095D01*
X458434876Y-252565476D01*
X458625352Y-252517857D01*
X458768209Y-252517857D01*
X458958685Y-252565476D01*
X459053923Y-252613095D01*
X459149161Y-252708333D01*
X459196780Y-252851190D01*
X459196780Y-253089285D01*
X459292019Y-252327380D02*
X459292019Y-251565476D01*
X458911066Y-251375000D02*
X458911066Y-250898809D01*
X459196780Y-251470238D02*
X458196780Y-251136904D01*
X459196780Y-250803571D01*
X459196780Y-249898809D02*
X458720590Y-250232142D01*
X459196780Y-250470238D02*
X458196780Y-250470238D01*
X458196780Y-250089285D01*
X458244400Y-249994047D01*
X458292019Y-249946428D01*
X458387257Y-249898809D01*
X458530114Y-249898809D01*
X458625352Y-249946428D01*
X458672971Y-249994047D01*
X458720590Y-250089285D01*
X458720590Y-250470238D01*
X458672971Y-249136904D02*
X458720590Y-248994047D01*
X458768209Y-248946428D01*
X458863447Y-248898809D01*
X459006304Y-248898809D01*
X459101542Y-248946428D01*
X459149161Y-248994047D01*
X459196780Y-249089285D01*
X459196780Y-249470238D01*
X458196780Y-249470238D01*
X458196780Y-249136904D01*
X458244400Y-249041666D01*
X458292019Y-248994047D01*
X458387257Y-248946428D01*
X458482495Y-248946428D01*
X458577733Y-248994047D01*
X458625352Y-249041666D01*
X458672971Y-249136904D01*
X458672971Y-249470238D01*
X458244400Y-247946428D02*
X458196780Y-248041666D01*
X458196780Y-248184523D01*
X458244400Y-248327380D01*
X458339638Y-248422619D01*
X458434876Y-248470238D01*
X458625352Y-248517857D01*
X458768209Y-248517857D01*
X458958685Y-248470238D01*
X459053923Y-248422619D01*
X459149161Y-248327380D01*
X459196780Y-248184523D01*
X459196780Y-248089285D01*
X459149161Y-247946428D01*
X459101542Y-247898809D01*
X458768209Y-247898809D01*
X458768209Y-248089285D01*
D12*
X456320590Y-251744047D02*
X455820590Y-251744047D01*
X455820590Y-251625000D01*
X455844400Y-251553571D01*
X455892019Y-251505952D01*
X455939638Y-251482142D01*
X456034876Y-251458333D01*
X456106304Y-251458333D01*
X456201542Y-251482142D01*
X456249161Y-251505952D01*
X456296780Y-251553571D01*
X456320590Y-251625000D01*
X456320590Y-251744047D01*
X455820590Y-251029761D02*
X455820590Y-251125000D01*
X455844400Y-251172619D01*
X455868209Y-251196428D01*
X455939638Y-251244047D01*
X456034876Y-251267857D01*
X456225352Y-251267857D01*
X456272971Y-251244047D01*
X456296780Y-251220238D01*
X456320590Y-251172619D01*
X456320590Y-251077380D01*
X456296780Y-251029761D01*
X456272971Y-251005952D01*
X456225352Y-250982142D01*
X456106304Y-250982142D01*
X456058685Y-251005952D01*
X456034876Y-251029761D01*
X456011066Y-251077380D01*
X456011066Y-251172619D01*
X456034876Y-251220238D01*
X456058685Y-251244047D01*
X456106304Y-251267857D01*
%TO.C,D5*%
D11*
X455169380Y-254340380D02*
X455169380Y-254816571D01*
X454169380Y-254816571D01*
X454645571Y-254007047D02*
X454645571Y-253673714D01*
X455169380Y-253530857D02*
X455169380Y-254007047D01*
X454169380Y-254007047D01*
X454169380Y-253530857D01*
X455169380Y-253102285D02*
X454169380Y-253102285D01*
X454169380Y-252864190D01*
X454217000Y-252721333D01*
X454312238Y-252626095D01*
X454407476Y-252578476D01*
X454597952Y-252530857D01*
X454740809Y-252530857D01*
X454931285Y-252578476D01*
X455026523Y-252626095D01*
X455121761Y-252721333D01*
X455169380Y-252864190D01*
X455169380Y-253102285D01*
X455264619Y-252340380D02*
X455264619Y-251578476D01*
X454883666Y-251388000D02*
X454883666Y-250911809D01*
X455169380Y-251483238D02*
X454169380Y-251149904D01*
X455169380Y-250816571D01*
X455169380Y-249911809D02*
X454693190Y-250245142D01*
X455169380Y-250483238D02*
X454169380Y-250483238D01*
X454169380Y-250102285D01*
X454217000Y-250007047D01*
X454264619Y-249959428D01*
X454359857Y-249911809D01*
X454502714Y-249911809D01*
X454597952Y-249959428D01*
X454645571Y-250007047D01*
X454693190Y-250102285D01*
X454693190Y-250483238D01*
X454645571Y-249149904D02*
X454693190Y-249007047D01*
X454740809Y-248959428D01*
X454836047Y-248911809D01*
X454978904Y-248911809D01*
X455074142Y-248959428D01*
X455121761Y-249007047D01*
X455169380Y-249102285D01*
X455169380Y-249483238D01*
X454169380Y-249483238D01*
X454169380Y-249149904D01*
X454217000Y-249054666D01*
X454264619Y-249007047D01*
X454359857Y-248959428D01*
X454455095Y-248959428D01*
X454550333Y-249007047D01*
X454597952Y-249054666D01*
X454645571Y-249149904D01*
X454645571Y-249483238D01*
X454217000Y-247959428D02*
X454169380Y-248054666D01*
X454169380Y-248197523D01*
X454217000Y-248340380D01*
X454312238Y-248435619D01*
X454407476Y-248483238D01*
X454597952Y-248530857D01*
X454740809Y-248530857D01*
X454931285Y-248483238D01*
X455026523Y-248435619D01*
X455121761Y-248340380D01*
X455169380Y-248197523D01*
X455169380Y-248102285D01*
X455121761Y-247959428D01*
X455074142Y-247911809D01*
X454740809Y-247911809D01*
X454740809Y-248102285D01*
D12*
X452293190Y-251757047D02*
X451793190Y-251757047D01*
X451793190Y-251638000D01*
X451817000Y-251566571D01*
X451864619Y-251518952D01*
X451912238Y-251495142D01*
X452007476Y-251471333D01*
X452078904Y-251471333D01*
X452174142Y-251495142D01*
X452221761Y-251518952D01*
X452269380Y-251566571D01*
X452293190Y-251638000D01*
X452293190Y-251757047D01*
X451793190Y-251018952D02*
X451793190Y-251257047D01*
X452031285Y-251280857D01*
X452007476Y-251257047D01*
X451983666Y-251209428D01*
X451983666Y-251090380D01*
X452007476Y-251042761D01*
X452031285Y-251018952D01*
X452078904Y-250995142D01*
X452197952Y-250995142D01*
X452245571Y-251018952D01*
X452269380Y-251042761D01*
X452293190Y-251090380D01*
X452293190Y-251209428D01*
X452269380Y-251257047D01*
X452245571Y-251280857D01*
%TO.C,J4*%
D11*
X417067142Y-234033333D02*
X417114761Y-234080952D01*
X417162380Y-234223809D01*
X417162380Y-234319047D01*
X417114761Y-234461904D01*
X417019523Y-234557142D01*
X416924285Y-234604761D01*
X416733809Y-234652380D01*
X416590952Y-234652380D01*
X416400476Y-234604761D01*
X416305238Y-234557142D01*
X416210000Y-234461904D01*
X416162380Y-234319047D01*
X416162380Y-234223809D01*
X416210000Y-234080952D01*
X416257619Y-234033333D01*
X417162380Y-233461904D02*
X417114761Y-233557142D01*
X417067142Y-233604761D01*
X416971904Y-233652380D01*
X416686190Y-233652380D01*
X416590952Y-233604761D01*
X416543333Y-233557142D01*
X416495714Y-233461904D01*
X416495714Y-233319047D01*
X416543333Y-233223809D01*
X416590952Y-233176190D01*
X416686190Y-233128571D01*
X416971904Y-233128571D01*
X417067142Y-233176190D01*
X417114761Y-233223809D01*
X417162380Y-233319047D01*
X417162380Y-233461904D01*
X416495714Y-232700000D02*
X417162380Y-232700000D01*
X416590952Y-232700000D02*
X416543333Y-232652380D01*
X416495714Y-232557142D01*
X416495714Y-232414285D01*
X416543333Y-232319047D01*
X416638571Y-232271428D01*
X417162380Y-232271428D01*
X416495714Y-231795238D02*
X417162380Y-231795238D01*
X416590952Y-231795238D02*
X416543333Y-231747619D01*
X416495714Y-231652380D01*
X416495714Y-231509523D01*
X416543333Y-231414285D01*
X416638571Y-231366666D01*
X417162380Y-231366666D01*
X417257619Y-231128571D02*
X417257619Y-230366666D01*
X416162380Y-229938095D02*
X416162380Y-229842857D01*
X416210000Y-229747619D01*
X416257619Y-229700000D01*
X416352857Y-229652380D01*
X416543333Y-229604761D01*
X416781428Y-229604761D01*
X416971904Y-229652380D01*
X417067142Y-229700000D01*
X417114761Y-229747619D01*
X417162380Y-229842857D01*
X417162380Y-229938095D01*
X417114761Y-230033333D01*
X417067142Y-230080952D01*
X416971904Y-230128571D01*
X416781428Y-230176190D01*
X416543333Y-230176190D01*
X416352857Y-230128571D01*
X416257619Y-230080952D01*
X416210000Y-230033333D01*
X416162380Y-229938095D01*
X417162380Y-228652380D02*
X417162380Y-229223809D01*
X417162380Y-228938095D02*
X416162380Y-228938095D01*
X416305238Y-229033333D01*
X416400476Y-229128571D01*
X416448095Y-229223809D01*
X417162380Y-228319047D02*
X416495714Y-227795238D01*
X416495714Y-228319047D02*
X417162380Y-227795238D01*
X416162380Y-227223809D02*
X416162380Y-227128571D01*
X416210000Y-227033333D01*
X416257619Y-226985714D01*
X416352857Y-226938095D01*
X416543333Y-226890476D01*
X416781428Y-226890476D01*
X416971904Y-226938095D01*
X417067142Y-226985714D01*
X417114761Y-227033333D01*
X417162380Y-227128571D01*
X417162380Y-227223809D01*
X417114761Y-227319047D01*
X417067142Y-227366666D01*
X416971904Y-227414285D01*
X416781428Y-227461904D01*
X416543333Y-227461904D01*
X416352857Y-227414285D01*
X416257619Y-227366666D01*
X416210000Y-227319047D01*
X416162380Y-227223809D01*
X416590952Y-226319047D02*
X416543333Y-226414285D01*
X416495714Y-226461904D01*
X416400476Y-226509523D01*
X416352857Y-226509523D01*
X416257619Y-226461904D01*
X416210000Y-226414285D01*
X416162380Y-226319047D01*
X416162380Y-226128571D01*
X416210000Y-226033333D01*
X416257619Y-225985714D01*
X416352857Y-225938095D01*
X416400476Y-225938095D01*
X416495714Y-225985714D01*
X416543333Y-226033333D01*
X416590952Y-226128571D01*
X416590952Y-226319047D01*
X416638571Y-226414285D01*
X416686190Y-226461904D01*
X416781428Y-226509523D01*
X416971904Y-226509523D01*
X417067142Y-226461904D01*
X417114761Y-226414285D01*
X417162380Y-226319047D01*
X417162380Y-226128571D01*
X417114761Y-226033333D01*
X417067142Y-225985714D01*
X416971904Y-225938095D01*
X416781428Y-225938095D01*
X416686190Y-225985714D01*
X416638571Y-226033333D01*
X416590952Y-226128571D01*
X417257619Y-225747619D02*
X417257619Y-224985714D01*
X417162380Y-224747619D02*
X416162380Y-224747619D01*
X416876666Y-224414285D01*
X416162380Y-224080952D01*
X417162380Y-224080952D01*
X417162380Y-223176190D02*
X416638571Y-223176190D01*
X416543333Y-223223809D01*
X416495714Y-223319047D01*
X416495714Y-223509523D01*
X416543333Y-223604761D01*
X417114761Y-223176190D02*
X417162380Y-223271428D01*
X417162380Y-223509523D01*
X417114761Y-223604761D01*
X417019523Y-223652380D01*
X416924285Y-223652380D01*
X416829047Y-223604761D01*
X416781428Y-223509523D01*
X416781428Y-223271428D01*
X416733809Y-223176190D01*
X417162380Y-222557142D02*
X417114761Y-222652380D01*
X417019523Y-222700000D01*
X416162380Y-222700000D01*
X417114761Y-221795238D02*
X417162380Y-221890476D01*
X417162380Y-222080952D01*
X417114761Y-222176190D01*
X417019523Y-222223809D01*
X416638571Y-222223809D01*
X416543333Y-222176190D01*
X416495714Y-222080952D01*
X416495714Y-221890476D01*
X416543333Y-221795238D01*
X416638571Y-221747619D01*
X416733809Y-221747619D01*
X416829047Y-222223809D01*
X405156666Y-227652380D02*
X405156666Y-228366666D01*
X405109047Y-228509523D01*
X405013809Y-228604761D01*
X404870952Y-228652380D01*
X404775714Y-228652380D01*
X406061428Y-227985714D02*
X406061428Y-228652380D01*
X405823333Y-227604761D02*
X405585238Y-228319047D01*
X406204285Y-228319047D01*
%TO.C,U2*%
X338200780Y-244320866D02*
X338676971Y-244320866D01*
X338105542Y-244606580D02*
X338438876Y-243606580D01*
X338772209Y-244606580D01*
X338962685Y-243606580D02*
X339534114Y-243606580D01*
X339248400Y-244606580D02*
X339248400Y-243606580D01*
X339915066Y-244606580D02*
X340105542Y-244606580D01*
X340200780Y-244558961D01*
X340248400Y-244511342D01*
X340343638Y-244368485D01*
X340391257Y-244178009D01*
X340391257Y-243797057D01*
X340343638Y-243701819D01*
X340296019Y-243654200D01*
X340200780Y-243606580D01*
X340010304Y-243606580D01*
X339915066Y-243654200D01*
X339867447Y-243701819D01*
X339819828Y-243797057D01*
X339819828Y-244035152D01*
X339867447Y-244130390D01*
X339915066Y-244178009D01*
X340010304Y-244225628D01*
X340200780Y-244225628D01*
X340296019Y-244178009D01*
X340343638Y-244130390D01*
X340391257Y-244035152D01*
X341010304Y-243606580D02*
X341105542Y-243606580D01*
X341200780Y-243654200D01*
X341248400Y-243701819D01*
X341296019Y-243797057D01*
X341343638Y-243987533D01*
X341343638Y-244225628D01*
X341296019Y-244416104D01*
X341248400Y-244511342D01*
X341200780Y-244558961D01*
X341105542Y-244606580D01*
X341010304Y-244606580D01*
X340915066Y-244558961D01*
X340867447Y-244511342D01*
X340819828Y-244416104D01*
X340772209Y-244225628D01*
X340772209Y-243987533D01*
X340819828Y-243797057D01*
X340867447Y-243701819D01*
X340915066Y-243654200D01*
X341010304Y-243606580D01*
X341772209Y-243606580D02*
X341772209Y-244416104D01*
X341819828Y-244511342D01*
X341867447Y-244558961D01*
X341962685Y-244606580D01*
X342153161Y-244606580D01*
X342248400Y-244558961D01*
X342296019Y-244511342D01*
X342343638Y-244416104D01*
X342343638Y-243606580D01*
X342772209Y-244558961D02*
X342915066Y-244606580D01*
X343153161Y-244606580D01*
X343248400Y-244558961D01*
X343296019Y-244511342D01*
X343343638Y-244416104D01*
X343343638Y-244320866D01*
X343296019Y-244225628D01*
X343248400Y-244178009D01*
X343153161Y-244130390D01*
X342962685Y-244082771D01*
X342867447Y-244035152D01*
X342819828Y-243987533D01*
X342772209Y-243892295D01*
X342772209Y-243797057D01*
X342819828Y-243701819D01*
X342867447Y-243654200D01*
X342962685Y-243606580D01*
X343200780Y-243606580D01*
X343343638Y-243654200D01*
X344105542Y-244082771D02*
X344248400Y-244130390D01*
X344296019Y-244178009D01*
X344343638Y-244273247D01*
X344343638Y-244416104D01*
X344296019Y-244511342D01*
X344248400Y-244558961D01*
X344153161Y-244606580D01*
X343772209Y-244606580D01*
X343772209Y-243606580D01*
X344105542Y-243606580D01*
X344200780Y-243654200D01*
X344248400Y-243701819D01*
X344296019Y-243797057D01*
X344296019Y-243892295D01*
X344248400Y-243987533D01*
X344200780Y-244035152D01*
X344105542Y-244082771D01*
X343772209Y-244082771D01*
X345296019Y-244606580D02*
X344724590Y-244606580D01*
X345010304Y-244606580D02*
X345010304Y-243606580D01*
X344915066Y-243749438D01*
X344819828Y-243844676D01*
X344724590Y-243892295D01*
X345676971Y-243701819D02*
X345724590Y-243654200D01*
X345819828Y-243606580D01*
X346057923Y-243606580D01*
X346153161Y-243654200D01*
X346200780Y-243701819D01*
X346248400Y-243797057D01*
X346248400Y-243892295D01*
X346200780Y-244035152D01*
X345629352Y-244606580D01*
X346248400Y-244606580D01*
X346819828Y-244035152D02*
X346724590Y-243987533D01*
X346676971Y-243939914D01*
X346629352Y-243844676D01*
X346629352Y-243797057D01*
X346676971Y-243701819D01*
X346724590Y-243654200D01*
X346819828Y-243606580D01*
X347010304Y-243606580D01*
X347105542Y-243654200D01*
X347153161Y-243701819D01*
X347200780Y-243797057D01*
X347200780Y-243844676D01*
X347153161Y-243939914D01*
X347105542Y-243987533D01*
X347010304Y-244035152D01*
X346819828Y-244035152D01*
X346724590Y-244082771D01*
X346676971Y-244130390D01*
X346629352Y-244225628D01*
X346629352Y-244416104D01*
X346676971Y-244511342D01*
X346724590Y-244558961D01*
X346819828Y-244606580D01*
X347010304Y-244606580D01*
X347105542Y-244558961D01*
X347153161Y-244511342D01*
X347200780Y-244416104D01*
X347200780Y-244225628D01*
X347153161Y-244130390D01*
X347105542Y-244082771D01*
X347010304Y-244035152D01*
X347534114Y-243606580D02*
X348200780Y-243606580D01*
X347772209Y-244606580D01*
X348581733Y-244225628D02*
X349343638Y-244225628D01*
X349772209Y-244320866D02*
X350248400Y-244320866D01*
X349676971Y-244606580D02*
X350010304Y-243606580D01*
X350343638Y-244606580D01*
X350676971Y-243606580D02*
X350676971Y-244416104D01*
X350724590Y-244511342D01*
X350772209Y-244558961D01*
X350867447Y-244606580D01*
X351057923Y-244606580D01*
X351153161Y-244558961D01*
X351200780Y-244511342D01*
X351248400Y-244416104D01*
X351248400Y-243606580D01*
X343986495Y-234156580D02*
X343986495Y-234966104D01*
X344034114Y-235061342D01*
X344081733Y-235108961D01*
X344176971Y-235156580D01*
X344367447Y-235156580D01*
X344462685Y-235108961D01*
X344510304Y-235061342D01*
X344557923Y-234966104D01*
X344557923Y-234156580D01*
X344986495Y-234251819D02*
X345034114Y-234204200D01*
X345129352Y-234156580D01*
X345367447Y-234156580D01*
X345462685Y-234204200D01*
X345510304Y-234251819D01*
X345557923Y-234347057D01*
X345557923Y-234442295D01*
X345510304Y-234585152D01*
X344938876Y-235156580D01*
X345557923Y-235156580D01*
%TO.C,J3*%
X375967142Y-242972857D02*
X376014761Y-243020476D01*
X376062380Y-243163333D01*
X376062380Y-243258571D01*
X376014761Y-243401428D01*
X375919523Y-243496666D01*
X375824285Y-243544285D01*
X375633809Y-243591904D01*
X375490952Y-243591904D01*
X375300476Y-243544285D01*
X375205238Y-243496666D01*
X375110000Y-243401428D01*
X375062380Y-243258571D01*
X375062380Y-243163333D01*
X375110000Y-243020476D01*
X375157619Y-242972857D01*
X376062380Y-242401428D02*
X376014761Y-242496666D01*
X375967142Y-242544285D01*
X375871904Y-242591904D01*
X375586190Y-242591904D01*
X375490952Y-242544285D01*
X375443333Y-242496666D01*
X375395714Y-242401428D01*
X375395714Y-242258571D01*
X375443333Y-242163333D01*
X375490952Y-242115714D01*
X375586190Y-242068095D01*
X375871904Y-242068095D01*
X375967142Y-242115714D01*
X376014761Y-242163333D01*
X376062380Y-242258571D01*
X376062380Y-242401428D01*
X375395714Y-241639523D02*
X376062380Y-241639523D01*
X375490952Y-241639523D02*
X375443333Y-241591904D01*
X375395714Y-241496666D01*
X375395714Y-241353809D01*
X375443333Y-241258571D01*
X375538571Y-241210952D01*
X376062380Y-241210952D01*
X375395714Y-240734761D02*
X376062380Y-240734761D01*
X375490952Y-240734761D02*
X375443333Y-240687142D01*
X375395714Y-240591904D01*
X375395714Y-240449047D01*
X375443333Y-240353809D01*
X375538571Y-240306190D01*
X376062380Y-240306190D01*
X376157619Y-240068095D02*
X376157619Y-239306190D01*
X375062380Y-238877619D02*
X375062380Y-238782380D01*
X375110000Y-238687142D01*
X375157619Y-238639523D01*
X375252857Y-238591904D01*
X375443333Y-238544285D01*
X375681428Y-238544285D01*
X375871904Y-238591904D01*
X375967142Y-238639523D01*
X376014761Y-238687142D01*
X376062380Y-238782380D01*
X376062380Y-238877619D01*
X376014761Y-238972857D01*
X375967142Y-239020476D01*
X375871904Y-239068095D01*
X375681428Y-239115714D01*
X375443333Y-239115714D01*
X375252857Y-239068095D01*
X375157619Y-239020476D01*
X375110000Y-238972857D01*
X375062380Y-238877619D01*
X375157619Y-238163333D02*
X375110000Y-238115714D01*
X375062380Y-238020476D01*
X375062380Y-237782380D01*
X375110000Y-237687142D01*
X375157619Y-237639523D01*
X375252857Y-237591904D01*
X375348095Y-237591904D01*
X375490952Y-237639523D01*
X376062380Y-238210952D01*
X376062380Y-237591904D01*
X376062380Y-237258571D02*
X375395714Y-236734761D01*
X375395714Y-237258571D02*
X376062380Y-236734761D01*
X375062380Y-236163333D02*
X375062380Y-236068095D01*
X375110000Y-235972857D01*
X375157619Y-235925238D01*
X375252857Y-235877619D01*
X375443333Y-235830000D01*
X375681428Y-235830000D01*
X375871904Y-235877619D01*
X375967142Y-235925238D01*
X376014761Y-235972857D01*
X376062380Y-236068095D01*
X376062380Y-236163333D01*
X376014761Y-236258571D01*
X375967142Y-236306190D01*
X375871904Y-236353809D01*
X375681428Y-236401428D01*
X375443333Y-236401428D01*
X375252857Y-236353809D01*
X375157619Y-236306190D01*
X375110000Y-236258571D01*
X375062380Y-236163333D01*
X375062380Y-235496666D02*
X375062380Y-234877619D01*
X375443333Y-235210952D01*
X375443333Y-235068095D01*
X375490952Y-234972857D01*
X375538571Y-234925238D01*
X375633809Y-234877619D01*
X375871904Y-234877619D01*
X375967142Y-234925238D01*
X376014761Y-234972857D01*
X376062380Y-235068095D01*
X376062380Y-235353809D01*
X376014761Y-235449047D01*
X375967142Y-235496666D01*
X376157619Y-234687142D02*
X376157619Y-233925238D01*
X375062380Y-233496666D02*
X375062380Y-233306190D01*
X375110000Y-233210952D01*
X375205238Y-233115714D01*
X375395714Y-233068095D01*
X375729047Y-233068095D01*
X375919523Y-233115714D01*
X376014761Y-233210952D01*
X376062380Y-233306190D01*
X376062380Y-233496666D01*
X376014761Y-233591904D01*
X375919523Y-233687142D01*
X375729047Y-233734761D01*
X375395714Y-233734761D01*
X375205238Y-233687142D01*
X375110000Y-233591904D01*
X375062380Y-233496666D01*
X376062380Y-232210952D02*
X375062380Y-232210952D01*
X376014761Y-232210952D02*
X376062380Y-232306190D01*
X376062380Y-232496666D01*
X376014761Y-232591904D01*
X375967142Y-232639523D01*
X375871904Y-232687142D01*
X375586190Y-232687142D01*
X375490952Y-232639523D01*
X375443333Y-232591904D01*
X375395714Y-232496666D01*
X375395714Y-232306190D01*
X375443333Y-232210952D01*
X376062380Y-231306190D02*
X375062380Y-231306190D01*
X376014761Y-231306190D02*
X376062380Y-231401428D01*
X376062380Y-231591904D01*
X376014761Y-231687142D01*
X375967142Y-231734761D01*
X375871904Y-231782380D01*
X375586190Y-231782380D01*
X375490952Y-231734761D01*
X375443333Y-231687142D01*
X375395714Y-231591904D01*
X375395714Y-231401428D01*
X375443333Y-231306190D01*
X376157619Y-231068095D02*
X376157619Y-230306190D01*
X375538571Y-230068095D02*
X375538571Y-229734761D01*
X376062380Y-229591904D02*
X376062380Y-230068095D01*
X375062380Y-230068095D01*
X375062380Y-229591904D01*
X375395714Y-229258571D02*
X376062380Y-229020476D01*
X375395714Y-228782380D01*
X376014761Y-228020476D02*
X376062380Y-228115714D01*
X376062380Y-228306190D01*
X376014761Y-228401428D01*
X375919523Y-228449047D01*
X375538571Y-228449047D01*
X375443333Y-228401428D01*
X375395714Y-228306190D01*
X375395714Y-228115714D01*
X375443333Y-228020476D01*
X375538571Y-227972857D01*
X375633809Y-227972857D01*
X375729047Y-228449047D01*
X375395714Y-227544285D02*
X376062380Y-227544285D01*
X375490952Y-227544285D02*
X375443333Y-227496666D01*
X375395714Y-227401428D01*
X375395714Y-227258571D01*
X375443333Y-227163333D01*
X375538571Y-227115714D01*
X376062380Y-227115714D01*
X370406666Y-234782380D02*
X370406666Y-235496666D01*
X370359047Y-235639523D01*
X370263809Y-235734761D01*
X370120952Y-235782380D01*
X370025714Y-235782380D01*
X370787619Y-234782380D02*
X371406666Y-234782380D01*
X371073333Y-235163333D01*
X371216190Y-235163333D01*
X371311428Y-235210952D01*
X371359047Y-235258571D01*
X371406666Y-235353809D01*
X371406666Y-235591904D01*
X371359047Y-235687142D01*
X371311428Y-235734761D01*
X371216190Y-235782380D01*
X370930476Y-235782380D01*
X370835238Y-235734761D01*
X370787619Y-235687142D01*
%TO.C,C6*%
X356447080Y-230390299D02*
X356447080Y-230961727D01*
X356447080Y-230676013D02*
X355447080Y-230676013D01*
X355589938Y-230771251D01*
X355685176Y-230866489D01*
X355732795Y-230961727D01*
X355447080Y-229771251D02*
X355447080Y-229676013D01*
X355494700Y-229580775D01*
X355542319Y-229533156D01*
X355637557Y-229485537D01*
X355828033Y-229437918D01*
X356066128Y-229437918D01*
X356256604Y-229485537D01*
X356351842Y-229533156D01*
X356399461Y-229580775D01*
X356447080Y-229676013D01*
X356447080Y-229771251D01*
X356399461Y-229866489D01*
X356351842Y-229914108D01*
X356256604Y-229961727D01*
X356066128Y-230009346D01*
X355828033Y-230009346D01*
X355637557Y-229961727D01*
X355542319Y-229914108D01*
X355494700Y-229866489D01*
X355447080Y-229771251D01*
X355447080Y-228818870D02*
X355447080Y-228723632D01*
X355494700Y-228628394D01*
X355542319Y-228580775D01*
X355637557Y-228533156D01*
X355828033Y-228485537D01*
X356066128Y-228485537D01*
X356256604Y-228533156D01*
X356351842Y-228580775D01*
X356399461Y-228628394D01*
X356447080Y-228723632D01*
X356447080Y-228818870D01*
X356399461Y-228914108D01*
X356351842Y-228961727D01*
X356256604Y-229009346D01*
X356066128Y-229056965D01*
X355828033Y-229056965D01*
X355637557Y-229009346D01*
X355542319Y-228961727D01*
X355494700Y-228914108D01*
X355447080Y-228818870D01*
X355780414Y-228056965D02*
X356447080Y-228056965D01*
X355875652Y-228056965D02*
X355828033Y-228009346D01*
X355780414Y-227914108D01*
X355780414Y-227771251D01*
X355828033Y-227676013D01*
X355923271Y-227628394D01*
X356447080Y-227628394D01*
X355923271Y-226818870D02*
X355923271Y-227152203D01*
X356447080Y-227152203D02*
X355447080Y-227152203D01*
X355447080Y-226676013D01*
D13*
X357823271Y-228926013D02*
X357847080Y-228949822D01*
X357870890Y-229021251D01*
X357870890Y-229068870D01*
X357847080Y-229140299D01*
X357799461Y-229187918D01*
X357751842Y-229211727D01*
X357656604Y-229235537D01*
X357585176Y-229235537D01*
X357489938Y-229211727D01*
X357442319Y-229187918D01*
X357394700Y-229140299D01*
X357370890Y-229068870D01*
X357370890Y-229021251D01*
X357394700Y-228949822D01*
X357418509Y-228926013D01*
X357370890Y-228497441D02*
X357370890Y-228592680D01*
X357394700Y-228640299D01*
X357418509Y-228664108D01*
X357489938Y-228711727D01*
X357585176Y-228735537D01*
X357775652Y-228735537D01*
X357823271Y-228711727D01*
X357847080Y-228687918D01*
X357870890Y-228640299D01*
X357870890Y-228545060D01*
X357847080Y-228497441D01*
X357823271Y-228473632D01*
X357775652Y-228449822D01*
X357656604Y-228449822D01*
X357608985Y-228473632D01*
X357585176Y-228497441D01*
X357561366Y-228545060D01*
X357561366Y-228640299D01*
X357585176Y-228687918D01*
X357608985Y-228711727D01*
X357656604Y-228735537D01*
%TO.C,C5*%
D11*
X331904761Y-231852380D02*
X331333333Y-231852380D01*
X331619047Y-231852380D02*
X331619047Y-230852380D01*
X331523809Y-230995238D01*
X331428571Y-231090476D01*
X331333333Y-231138095D01*
X332761904Y-231185714D02*
X332761904Y-231852380D01*
X332333333Y-231185714D02*
X332333333Y-231709523D01*
X332380952Y-231804761D01*
X332476190Y-231852380D01*
X332619047Y-231852380D01*
X332714285Y-231804761D01*
X332761904Y-231757142D01*
X333571428Y-231328571D02*
X333238095Y-231328571D01*
X333238095Y-231852380D02*
X333238095Y-230852380D01*
X333714285Y-230852380D01*
D13*
X332416666Y-233228571D02*
X332392857Y-233252380D01*
X332321428Y-233276190D01*
X332273809Y-233276190D01*
X332202380Y-233252380D01*
X332154761Y-233204761D01*
X332130952Y-233157142D01*
X332107142Y-233061904D01*
X332107142Y-232990476D01*
X332130952Y-232895238D01*
X332154761Y-232847619D01*
X332202380Y-232800000D01*
X332273809Y-232776190D01*
X332321428Y-232776190D01*
X332392857Y-232800000D01*
X332416666Y-232823809D01*
X332869047Y-232776190D02*
X332630952Y-232776190D01*
X332607142Y-233014285D01*
X332630952Y-232990476D01*
X332678571Y-232966666D01*
X332797619Y-232966666D01*
X332845238Y-232990476D01*
X332869047Y-233014285D01*
X332892857Y-233061904D01*
X332892857Y-233180952D01*
X332869047Y-233228571D01*
X332845238Y-233252380D01*
X332797619Y-233276190D01*
X332678571Y-233276190D01*
X332630952Y-233252380D01*
X332607142Y-233228571D01*
%TO.C,C4*%
D11*
X337403342Y-248494019D02*
X337450961Y-248446400D01*
X337546200Y-248398780D01*
X337784295Y-248398780D01*
X337879533Y-248446400D01*
X337927152Y-248494019D01*
X337974771Y-248589257D01*
X337974771Y-248684495D01*
X337927152Y-248827352D01*
X337355723Y-249398780D01*
X337974771Y-249398780D01*
X338355723Y-248494019D02*
X338403342Y-248446400D01*
X338498580Y-248398780D01*
X338736676Y-248398780D01*
X338831914Y-248446400D01*
X338879533Y-248494019D01*
X338927152Y-248589257D01*
X338927152Y-248684495D01*
X338879533Y-248827352D01*
X338308104Y-249398780D01*
X338927152Y-249398780D01*
X339355723Y-248732114D02*
X339355723Y-249732114D01*
X339355723Y-248779733D02*
X339450961Y-248732114D01*
X339641438Y-248732114D01*
X339736676Y-248779733D01*
X339784295Y-248827352D01*
X339831914Y-248922590D01*
X339831914Y-249208304D01*
X339784295Y-249303542D01*
X339736676Y-249351161D01*
X339641438Y-249398780D01*
X339450961Y-249398780D01*
X339355723Y-249351161D01*
X340593819Y-248874971D02*
X340260485Y-248874971D01*
X340260485Y-249398780D02*
X340260485Y-248398780D01*
X340736676Y-248398780D01*
D13*
X338962866Y-247474971D02*
X338939057Y-247498780D01*
X338867628Y-247522590D01*
X338820009Y-247522590D01*
X338748580Y-247498780D01*
X338700961Y-247451161D01*
X338677152Y-247403542D01*
X338653342Y-247308304D01*
X338653342Y-247236876D01*
X338677152Y-247141638D01*
X338700961Y-247094019D01*
X338748580Y-247046400D01*
X338820009Y-247022590D01*
X338867628Y-247022590D01*
X338939057Y-247046400D01*
X338962866Y-247070209D01*
X339391438Y-247189257D02*
X339391438Y-247522590D01*
X339272390Y-246998780D02*
X339153342Y-247355923D01*
X339462866Y-247355923D01*
%TO.C,C3*%
D11*
X347278642Y-248557519D02*
X347326261Y-248509900D01*
X347421500Y-248462280D01*
X347659595Y-248462280D01*
X347754833Y-248509900D01*
X347802452Y-248557519D01*
X347850071Y-248652757D01*
X347850071Y-248747995D01*
X347802452Y-248890852D01*
X347231023Y-249462280D01*
X347850071Y-249462280D01*
X348231023Y-248557519D02*
X348278642Y-248509900D01*
X348373880Y-248462280D01*
X348611976Y-248462280D01*
X348707214Y-248509900D01*
X348754833Y-248557519D01*
X348802452Y-248652757D01*
X348802452Y-248747995D01*
X348754833Y-248890852D01*
X348183404Y-249462280D01*
X348802452Y-249462280D01*
X349231023Y-248795614D02*
X349231023Y-249795614D01*
X349231023Y-248843233D02*
X349326261Y-248795614D01*
X349516738Y-248795614D01*
X349611976Y-248843233D01*
X349659595Y-248890852D01*
X349707214Y-248986090D01*
X349707214Y-249271804D01*
X349659595Y-249367042D01*
X349611976Y-249414661D01*
X349516738Y-249462280D01*
X349326261Y-249462280D01*
X349231023Y-249414661D01*
X350469119Y-248938471D02*
X350135785Y-248938471D01*
X350135785Y-249462280D02*
X350135785Y-248462280D01*
X350611976Y-248462280D01*
D13*
X348838166Y-247538471D02*
X348814357Y-247562280D01*
X348742928Y-247586090D01*
X348695309Y-247586090D01*
X348623880Y-247562280D01*
X348576261Y-247514661D01*
X348552452Y-247467042D01*
X348528642Y-247371804D01*
X348528642Y-247300376D01*
X348552452Y-247205138D01*
X348576261Y-247157519D01*
X348623880Y-247109900D01*
X348695309Y-247086090D01*
X348742928Y-247086090D01*
X348814357Y-247109900D01*
X348838166Y-247133709D01*
X349004833Y-247086090D02*
X349314357Y-247086090D01*
X349147690Y-247276566D01*
X349219119Y-247276566D01*
X349266738Y-247300376D01*
X349290547Y-247324185D01*
X349314357Y-247371804D01*
X349314357Y-247490852D01*
X349290547Y-247538471D01*
X349266738Y-247562280D01*
X349219119Y-247586090D01*
X349076261Y-247586090D01*
X349028642Y-247562280D01*
X349004833Y-247538471D01*
%TO.C,J1*%
D11*
X339111904Y-261757142D02*
X339064285Y-261804761D01*
X338921428Y-261852380D01*
X338826190Y-261852380D01*
X338683333Y-261804761D01*
X338588095Y-261709523D01*
X338540476Y-261614285D01*
X338492857Y-261423809D01*
X338492857Y-261280952D01*
X338540476Y-261090476D01*
X338588095Y-260995238D01*
X338683333Y-260900000D01*
X338826190Y-260852380D01*
X338921428Y-260852380D01*
X339064285Y-260900000D01*
X339111904Y-260947619D01*
X339683333Y-261852380D02*
X339588095Y-261804761D01*
X339540476Y-261757142D01*
X339492857Y-261661904D01*
X339492857Y-261376190D01*
X339540476Y-261280952D01*
X339588095Y-261233333D01*
X339683333Y-261185714D01*
X339826190Y-261185714D01*
X339921428Y-261233333D01*
X339969047Y-261280952D01*
X340016666Y-261376190D01*
X340016666Y-261661904D01*
X339969047Y-261757142D01*
X339921428Y-261804761D01*
X339826190Y-261852380D01*
X339683333Y-261852380D01*
X340445238Y-261185714D02*
X340445238Y-261852380D01*
X340445238Y-261280952D02*
X340492857Y-261233333D01*
X340588095Y-261185714D01*
X340730952Y-261185714D01*
X340826190Y-261233333D01*
X340873809Y-261328571D01*
X340873809Y-261852380D01*
X341350000Y-261185714D02*
X341350000Y-261852380D01*
X341350000Y-261280952D02*
X341397619Y-261233333D01*
X341492857Y-261185714D01*
X341635714Y-261185714D01*
X341730952Y-261233333D01*
X341778571Y-261328571D01*
X341778571Y-261852380D01*
X342016666Y-261947619D02*
X342778571Y-261947619D01*
X343207142Y-260852380D02*
X343302380Y-260852380D01*
X343397619Y-260900000D01*
X343445238Y-260947619D01*
X343492857Y-261042857D01*
X343540476Y-261233333D01*
X343540476Y-261471428D01*
X343492857Y-261661904D01*
X343445238Y-261757142D01*
X343397619Y-261804761D01*
X343302380Y-261852380D01*
X343207142Y-261852380D01*
X343111904Y-261804761D01*
X343064285Y-261757142D01*
X343016666Y-261661904D01*
X342969047Y-261471428D01*
X342969047Y-261233333D01*
X343016666Y-261042857D01*
X343064285Y-260947619D01*
X343111904Y-260900000D01*
X343207142Y-260852380D01*
X344492857Y-261852380D02*
X343921428Y-261852380D01*
X344207142Y-261852380D02*
X344207142Y-260852380D01*
X344111904Y-260995238D01*
X344016666Y-261090476D01*
X343921428Y-261138095D01*
X344826190Y-261852380D02*
X345350000Y-261185714D01*
X344826190Y-261185714D02*
X345350000Y-261852380D01*
X345635714Y-260852380D02*
X346254761Y-260852380D01*
X345921428Y-261233333D01*
X346064285Y-261233333D01*
X346159523Y-261280952D01*
X346207142Y-261328571D01*
X346254761Y-261423809D01*
X346254761Y-261661904D01*
X346207142Y-261757142D01*
X346159523Y-261804761D01*
X346064285Y-261852380D01*
X345778571Y-261852380D01*
X345683333Y-261804761D01*
X345635714Y-261757142D01*
X347207142Y-261852380D02*
X346635714Y-261852380D01*
X346921428Y-261852380D02*
X346921428Y-260852380D01*
X346826190Y-260995238D01*
X346730952Y-261090476D01*
X346635714Y-261138095D01*
%TD*%
M02*
