%TF.GenerationSoftware,KiCad,Pcbnew,7.0.2-0*%
%TF.CreationDate,2023-12-20T15:00:36+01:00*%
%TF.ProjectId,A500KBMini,41353030-4b42-44d6-996e-692e6b696361,3*%
%TF.SameCoordinates,Original*%
%TF.FileFunction,Soldermask,Bot*%
%TF.FilePolarity,Negative*%
%FSLAX46Y46*%
G04 Gerber Fmt 4.6, Leading zero omitted, Abs format (unit mm)*
G04 Created by KiCad (PCBNEW 7.0.2-0) date 2023-12-20 15:00:36*
%MOMM*%
%LPD*%
G01*
G04 APERTURE LIST*
G04 Aperture macros list*
%AMRoundRect*
0 Rectangle with rounded corners*
0 $1 Rounding radius*
0 $2 $3 $4 $5 $6 $7 $8 $9 X,Y pos of 4 corners*
0 Add a 4 corners polygon primitive as box body*
4,1,4,$2,$3,$4,$5,$6,$7,$8,$9,$2,$3,0*
0 Add four circle primitives for the rounded corners*
1,1,$1+$1,$2,$3*
1,1,$1+$1,$4,$5*
1,1,$1+$1,$6,$7*
1,1,$1+$1,$8,$9*
0 Add four rect primitives between the rounded corners*
20,1,$1+$1,$2,$3,$4,$5,0*
20,1,$1+$1,$4,$5,$6,$7,0*
20,1,$1+$1,$6,$7,$8,$9,0*
20,1,$1+$1,$8,$9,$2,$3,0*%
G04 Aperture macros list end*
%ADD10C,4.300000*%
%ADD11C,2.500000*%
%ADD12C,3.200000*%
%ADD13RoundRect,0.050000X-0.600000X-0.950000X0.600000X-0.950000X0.600000X0.950000X-0.600000X0.950000X0*%
%ADD14O,1.300000X2.000000*%
%ADD15RoundRect,0.050000X-0.750000X-0.950000X0.750000X-0.950000X0.750000X0.950000X-0.750000X0.950000X0*%
%ADD16C,1.550000*%
%ADD17RoundRect,0.050000X-0.200000X-0.675000X0.200000X-0.675000X0.200000X0.675000X-0.200000X0.675000X0*%
%ADD18C,1.300000*%
%ADD19RoundRect,0.050000X-0.600000X-0.600000X0.600000X-0.600000X0.600000X0.600000X-0.600000X0.600000X0*%
%ADD20O,1.800000X1.800000*%
%ADD21RoundRect,0.050000X0.850000X-0.850000X0.850000X0.850000X-0.850000X0.850000X-0.850000X-0.850000X0*%
%ADD22C,1.700000*%
G04 APERTURE END LIST*
D10*
%TO.C,H26*%
X386402580Y-226021900D03*
%TD*%
D11*
%TO.C,H25*%
X465376260Y-238102140D03*
%TD*%
%TO.C,H24*%
X445394080Y-257342640D03*
%TD*%
D12*
%TO.C,H23*%
X312681620Y-258340860D03*
%TD*%
%TO.C,H22*%
X462699100Y-258343400D03*
%TD*%
D13*
%TO.C,J2*%
X317050000Y-224150000D03*
X322850000Y-224150000D03*
D14*
X323450000Y-224150000D03*
X316450000Y-224150000D03*
D15*
X318950000Y-224150000D03*
D16*
X322450000Y-226850000D03*
D17*
X319950000Y-226850000D03*
X320600000Y-226850000D03*
X321250000Y-226850000D03*
X318650000Y-226850000D03*
X319300000Y-226850000D03*
D16*
X317450000Y-226850000D03*
D15*
X320950000Y-224150000D03*
%TD*%
D10*
%TO.C,H19*%
X395097000Y-256971800D03*
%TD*%
D11*
%TO.C,H18*%
X468193120Y-232435400D03*
%TD*%
%TO.C,H17*%
X468172800Y-258927600D03*
%TD*%
%TO.C,H16*%
X307195220Y-232443020D03*
%TD*%
%TO.C,H15*%
X307200000Y-258950000D03*
%TD*%
D12*
%TO.C,H4*%
X463956400Y-243382800D03*
%TD*%
%TO.C,H3*%
X448056000Y-243400000D03*
%TD*%
%TO.C,H2*%
X448081400Y-251358400D03*
%TD*%
%TO.C,H1*%
X463956400Y-251358400D03*
%TD*%
D18*
%TO.C,D4*%
X460829400Y-251358400D03*
X458779400Y-251358400D03*
D19*
X451129400Y-251358400D03*
D18*
X453179400Y-251358400D03*
%TD*%
%TO.C,D3*%
X460801240Y-243420900D03*
X458751240Y-243420900D03*
D19*
X451101240Y-243420900D03*
D18*
X453151240Y-243420900D03*
%TD*%
D20*
%TO.C,J5*%
X378838460Y-228178360D03*
D21*
X376298460Y-228178360D03*
%TD*%
D20*
%TO.C,J4*%
X414380000Y-228200000D03*
X411840000Y-228200000D03*
X409300000Y-228200000D03*
X406760000Y-228200000D03*
X404220000Y-228200000D03*
X401680000Y-228200000D03*
X399140000Y-228200000D03*
D21*
X396600000Y-228200000D03*
%TD*%
D20*
%TO.C,J3*%
X373280000Y-234060000D03*
X373280000Y-236600000D03*
X370740000Y-234060000D03*
X370740000Y-236600000D03*
X368200000Y-234060000D03*
D21*
X368200000Y-236600000D03*
%TD*%
D22*
%TO.C,J1*%
X360326000Y-257984000D03*
X359076000Y-252984000D03*
X357826000Y-257984000D03*
X356576000Y-252984000D03*
X355326000Y-257984000D03*
X354076000Y-252984000D03*
X352826000Y-257984000D03*
X351576000Y-252984000D03*
X350326000Y-257984000D03*
X349076000Y-252984000D03*
X347826000Y-257984000D03*
X346576000Y-252984000D03*
X345326000Y-257984000D03*
X344076000Y-252984000D03*
X342826000Y-257984000D03*
X341576000Y-252984000D03*
X340326000Y-257984000D03*
X339076000Y-252984000D03*
X337826000Y-257984000D03*
X336576000Y-252984000D03*
X335326000Y-257984000D03*
X334076000Y-252984000D03*
X332826000Y-257984000D03*
X331576000Y-252984000D03*
X330326000Y-257984000D03*
X329076000Y-252984000D03*
X327826000Y-257984000D03*
X326576000Y-252984000D03*
X325326000Y-257984000D03*
X324076000Y-252984000D03*
X322826000Y-257984000D03*
%TD*%
M02*
