%TF.GenerationSoftware,KiCad,Pcbnew,7.0.2-0*%
%TF.CreationDate,2023-12-20T15:00:36+01:00*%
%TF.ProjectId,A500KBMini,41353030-4b42-44d6-996e-692e6b696361,3*%
%TF.SameCoordinates,Original*%
%TF.FileFunction,Legend,Bot*%
%TF.FilePolarity,Positive*%
%FSLAX46Y46*%
G04 Gerber Fmt 4.6, Leading zero omitted, Abs format (unit mm)*
G04 Created by KiCad (PCBNEW 7.0.2-0) date 2023-12-20 15:00:36*
%MOMM*%
%LPD*%
G01*
G04 APERTURE LIST*
%ADD10C,0.150000*%
%ADD11C,0.120000*%
G04 APERTURE END LIST*
D10*
X371201019Y-229466972D02*
X370201019Y-229466972D01*
X370201019Y-229466972D02*
X370915304Y-229800305D01*
X370915304Y-229800305D02*
X370201019Y-230133638D01*
X370201019Y-230133638D02*
X371201019Y-230133638D01*
X370201019Y-230800305D02*
X370201019Y-230990781D01*
X370201019Y-230990781D02*
X370248638Y-231086019D01*
X370248638Y-231086019D02*
X370343876Y-231181257D01*
X370343876Y-231181257D02*
X370534352Y-231228876D01*
X370534352Y-231228876D02*
X370867685Y-231228876D01*
X370867685Y-231228876D02*
X371058161Y-231181257D01*
X371058161Y-231181257D02*
X371153400Y-231086019D01*
X371153400Y-231086019D02*
X371201019Y-230990781D01*
X371201019Y-230990781D02*
X371201019Y-230800305D01*
X371201019Y-230800305D02*
X371153400Y-230705067D01*
X371153400Y-230705067D02*
X371058161Y-230609829D01*
X371058161Y-230609829D02*
X370867685Y-230562210D01*
X370867685Y-230562210D02*
X370534352Y-230562210D01*
X370534352Y-230562210D02*
X370343876Y-230609829D01*
X370343876Y-230609829D02*
X370248638Y-230705067D01*
X370248638Y-230705067D02*
X370201019Y-230800305D01*
X371153400Y-231609829D02*
X371201019Y-231752686D01*
X371201019Y-231752686D02*
X371201019Y-231990781D01*
X371201019Y-231990781D02*
X371153400Y-232086019D01*
X371153400Y-232086019D02*
X371105780Y-232133638D01*
X371105780Y-232133638D02*
X371010542Y-232181257D01*
X371010542Y-232181257D02*
X370915304Y-232181257D01*
X370915304Y-232181257D02*
X370820066Y-232133638D01*
X370820066Y-232133638D02*
X370772447Y-232086019D01*
X370772447Y-232086019D02*
X370724828Y-231990781D01*
X370724828Y-231990781D02*
X370677209Y-231800305D01*
X370677209Y-231800305D02*
X370629590Y-231705067D01*
X370629590Y-231705067D02*
X370581971Y-231657448D01*
X370581971Y-231657448D02*
X370486733Y-231609829D01*
X370486733Y-231609829D02*
X370391495Y-231609829D01*
X370391495Y-231609829D02*
X370296257Y-231657448D01*
X370296257Y-231657448D02*
X370248638Y-231705067D01*
X370248638Y-231705067D02*
X370201019Y-231800305D01*
X370201019Y-231800305D02*
X370201019Y-232038400D01*
X370201019Y-232038400D02*
X370248638Y-232181257D01*
X371201019Y-232609829D02*
X370201019Y-232609829D01*
X368280066Y-229905086D02*
X368280066Y-230666991D01*
X368661019Y-230286038D02*
X367899114Y-230286038D01*
X367661019Y-231619371D02*
X367661019Y-231143181D01*
X367661019Y-231143181D02*
X368137209Y-231095562D01*
X368137209Y-231095562D02*
X368089590Y-231143181D01*
X368089590Y-231143181D02*
X368041971Y-231238419D01*
X368041971Y-231238419D02*
X368041971Y-231476514D01*
X368041971Y-231476514D02*
X368089590Y-231571752D01*
X368089590Y-231571752D02*
X368137209Y-231619371D01*
X368137209Y-231619371D02*
X368232447Y-231666990D01*
X368232447Y-231666990D02*
X368470542Y-231666990D01*
X368470542Y-231666990D02*
X368565780Y-231619371D01*
X368565780Y-231619371D02*
X368613400Y-231571752D01*
X368613400Y-231571752D02*
X368661019Y-231476514D01*
X368661019Y-231476514D02*
X368661019Y-231238419D01*
X368661019Y-231238419D02*
X368613400Y-231143181D01*
X368613400Y-231143181D02*
X368565780Y-231095562D01*
X367661019Y-231952705D02*
X368661019Y-232286038D01*
X368661019Y-232286038D02*
X367661019Y-232619371D01*
X372737838Y-230581295D02*
X372690219Y-230486057D01*
X372690219Y-230486057D02*
X372690219Y-230343200D01*
X372690219Y-230343200D02*
X372737838Y-230200343D01*
X372737838Y-230200343D02*
X372833076Y-230105105D01*
X372833076Y-230105105D02*
X372928314Y-230057486D01*
X372928314Y-230057486D02*
X373118790Y-230009867D01*
X373118790Y-230009867D02*
X373261647Y-230009867D01*
X373261647Y-230009867D02*
X373452123Y-230057486D01*
X373452123Y-230057486D02*
X373547361Y-230105105D01*
X373547361Y-230105105D02*
X373642600Y-230200343D01*
X373642600Y-230200343D02*
X373690219Y-230343200D01*
X373690219Y-230343200D02*
X373690219Y-230438438D01*
X373690219Y-230438438D02*
X373642600Y-230581295D01*
X373642600Y-230581295D02*
X373594980Y-230628914D01*
X373594980Y-230628914D02*
X373261647Y-230628914D01*
X373261647Y-230628914D02*
X373261647Y-230438438D01*
X373690219Y-231057486D02*
X372690219Y-231057486D01*
X372690219Y-231057486D02*
X373690219Y-231628914D01*
X373690219Y-231628914D02*
X372690219Y-231628914D01*
X373690219Y-232105105D02*
X372690219Y-232105105D01*
X372690219Y-232105105D02*
X372690219Y-232343200D01*
X372690219Y-232343200D02*
X372737838Y-232486057D01*
X372737838Y-232486057D02*
X372833076Y-232581295D01*
X372833076Y-232581295D02*
X372928314Y-232628914D01*
X372928314Y-232628914D02*
X373118790Y-232676533D01*
X373118790Y-232676533D02*
X373261647Y-232676533D01*
X373261647Y-232676533D02*
X373452123Y-232628914D01*
X373452123Y-232628914D02*
X373547361Y-232581295D01*
X373547361Y-232581295D02*
X373642600Y-232486057D01*
X373642600Y-232486057D02*
X373690219Y-232343200D01*
X373690219Y-232343200D02*
X373690219Y-232105105D01*
X373791819Y-238567980D02*
X373315628Y-238234647D01*
X373791819Y-237996552D02*
X372791819Y-237996552D01*
X372791819Y-237996552D02*
X372791819Y-238377504D01*
X372791819Y-238377504D02*
X372839438Y-238472742D01*
X372839438Y-238472742D02*
X372887057Y-238520361D01*
X372887057Y-238520361D02*
X372982295Y-238567980D01*
X372982295Y-238567980D02*
X373125152Y-238567980D01*
X373125152Y-238567980D02*
X373220390Y-238520361D01*
X373220390Y-238520361D02*
X373268009Y-238472742D01*
X373268009Y-238472742D02*
X373315628Y-238377504D01*
X373315628Y-238377504D02*
X373315628Y-237996552D01*
X373744200Y-238948933D02*
X373791819Y-239091790D01*
X373791819Y-239091790D02*
X373791819Y-239329885D01*
X373791819Y-239329885D02*
X373744200Y-239425123D01*
X373744200Y-239425123D02*
X373696580Y-239472742D01*
X373696580Y-239472742D02*
X373601342Y-239520361D01*
X373601342Y-239520361D02*
X373506104Y-239520361D01*
X373506104Y-239520361D02*
X373410866Y-239472742D01*
X373410866Y-239472742D02*
X373363247Y-239425123D01*
X373363247Y-239425123D02*
X373315628Y-239329885D01*
X373315628Y-239329885D02*
X373268009Y-239139409D01*
X373268009Y-239139409D02*
X373220390Y-239044171D01*
X373220390Y-239044171D02*
X373172771Y-238996552D01*
X373172771Y-238996552D02*
X373077533Y-238948933D01*
X373077533Y-238948933D02*
X372982295Y-238948933D01*
X372982295Y-238948933D02*
X372887057Y-238996552D01*
X372887057Y-238996552D02*
X372839438Y-239044171D01*
X372839438Y-239044171D02*
X372791819Y-239139409D01*
X372791819Y-239139409D02*
X372791819Y-239377504D01*
X372791819Y-239377504D02*
X372839438Y-239520361D01*
X372791819Y-239806076D02*
X372791819Y-240377504D01*
X373791819Y-240091790D02*
X372791819Y-240091790D01*
X371102600Y-238034724D02*
X371150219Y-238177581D01*
X371150219Y-238177581D02*
X371150219Y-238415676D01*
X371150219Y-238415676D02*
X371102600Y-238510914D01*
X371102600Y-238510914D02*
X371054980Y-238558533D01*
X371054980Y-238558533D02*
X370959742Y-238606152D01*
X370959742Y-238606152D02*
X370864504Y-238606152D01*
X370864504Y-238606152D02*
X370769266Y-238558533D01*
X370769266Y-238558533D02*
X370721647Y-238510914D01*
X370721647Y-238510914D02*
X370674028Y-238415676D01*
X370674028Y-238415676D02*
X370626409Y-238225200D01*
X370626409Y-238225200D02*
X370578790Y-238129962D01*
X370578790Y-238129962D02*
X370531171Y-238082343D01*
X370531171Y-238082343D02*
X370435933Y-238034724D01*
X370435933Y-238034724D02*
X370340695Y-238034724D01*
X370340695Y-238034724D02*
X370245457Y-238082343D01*
X370245457Y-238082343D02*
X370197838Y-238129962D01*
X370197838Y-238129962D02*
X370150219Y-238225200D01*
X370150219Y-238225200D02*
X370150219Y-238463295D01*
X370150219Y-238463295D02*
X370197838Y-238606152D01*
X371054980Y-239606152D02*
X371102600Y-239558533D01*
X371102600Y-239558533D02*
X371150219Y-239415676D01*
X371150219Y-239415676D02*
X371150219Y-239320438D01*
X371150219Y-239320438D02*
X371102600Y-239177581D01*
X371102600Y-239177581D02*
X371007361Y-239082343D01*
X371007361Y-239082343D02*
X370912123Y-239034724D01*
X370912123Y-239034724D02*
X370721647Y-238987105D01*
X370721647Y-238987105D02*
X370578790Y-238987105D01*
X370578790Y-238987105D02*
X370388314Y-239034724D01*
X370388314Y-239034724D02*
X370293076Y-239082343D01*
X370293076Y-239082343D02*
X370197838Y-239177581D01*
X370197838Y-239177581D02*
X370150219Y-239320438D01*
X370150219Y-239320438D02*
X370150219Y-239415676D01*
X370150219Y-239415676D02*
X370197838Y-239558533D01*
X370197838Y-239558533D02*
X370245457Y-239606152D01*
X371150219Y-240510914D02*
X371150219Y-240034724D01*
X371150219Y-240034724D02*
X370150219Y-240034724D01*
X371150219Y-240844248D02*
X370150219Y-240844248D01*
X371150219Y-241415676D02*
X370578790Y-240987105D01*
X370150219Y-241415676D02*
X370721647Y-240844248D01*
X368661019Y-238052172D02*
X367661019Y-238052172D01*
X367661019Y-238052172D02*
X368375304Y-238385505D01*
X368375304Y-238385505D02*
X367661019Y-238718838D01*
X367661019Y-238718838D02*
X368661019Y-238718838D01*
X368661019Y-239195029D02*
X367661019Y-239195029D01*
X368613400Y-239623600D02*
X368661019Y-239766457D01*
X368661019Y-239766457D02*
X368661019Y-240004552D01*
X368661019Y-240004552D02*
X368613400Y-240099790D01*
X368613400Y-240099790D02*
X368565780Y-240147409D01*
X368565780Y-240147409D02*
X368470542Y-240195028D01*
X368470542Y-240195028D02*
X368375304Y-240195028D01*
X368375304Y-240195028D02*
X368280066Y-240147409D01*
X368280066Y-240147409D02*
X368232447Y-240099790D01*
X368232447Y-240099790D02*
X368184828Y-240004552D01*
X368184828Y-240004552D02*
X368137209Y-239814076D01*
X368137209Y-239814076D02*
X368089590Y-239718838D01*
X368089590Y-239718838D02*
X368041971Y-239671219D01*
X368041971Y-239671219D02*
X367946733Y-239623600D01*
X367946733Y-239623600D02*
X367851495Y-239623600D01*
X367851495Y-239623600D02*
X367756257Y-239671219D01*
X367756257Y-239671219D02*
X367708638Y-239718838D01*
X367708638Y-239718838D02*
X367661019Y-239814076D01*
X367661019Y-239814076D02*
X367661019Y-240052171D01*
X367661019Y-240052171D02*
X367708638Y-240195028D01*
X367661019Y-240814076D02*
X367661019Y-241004552D01*
X367661019Y-241004552D02*
X367708638Y-241099790D01*
X367708638Y-241099790D02*
X367803876Y-241195028D01*
X367803876Y-241195028D02*
X367994352Y-241242647D01*
X367994352Y-241242647D02*
X368327685Y-241242647D01*
X368327685Y-241242647D02*
X368518161Y-241195028D01*
X368518161Y-241195028D02*
X368613400Y-241099790D01*
X368613400Y-241099790D02*
X368661019Y-241004552D01*
X368661019Y-241004552D02*
X368661019Y-240814076D01*
X368661019Y-240814076D02*
X368613400Y-240718838D01*
X368613400Y-240718838D02*
X368518161Y-240623600D01*
X368518161Y-240623600D02*
X368327685Y-240575981D01*
X368327685Y-240575981D02*
X367994352Y-240575981D01*
X367994352Y-240575981D02*
X367803876Y-240623600D01*
X367803876Y-240623600D02*
X367708638Y-240718838D01*
X367708638Y-240718838D02*
X367661019Y-240814076D01*
X414723357Y-223616971D02*
X413823357Y-223616971D01*
X413823357Y-223616971D02*
X413823357Y-223831257D01*
X413823357Y-223831257D02*
X413866214Y-223959828D01*
X413866214Y-223959828D02*
X413951928Y-224045543D01*
X413951928Y-224045543D02*
X414037642Y-224088400D01*
X414037642Y-224088400D02*
X414209071Y-224131257D01*
X414209071Y-224131257D02*
X414337642Y-224131257D01*
X414337642Y-224131257D02*
X414509071Y-224088400D01*
X414509071Y-224088400D02*
X414594785Y-224045543D01*
X414594785Y-224045543D02*
X414680500Y-223959828D01*
X414680500Y-223959828D02*
X414723357Y-223831257D01*
X414723357Y-223831257D02*
X414723357Y-223616971D01*
X414723357Y-225031257D02*
X414294785Y-224731257D01*
X414723357Y-224516971D02*
X413823357Y-224516971D01*
X413823357Y-224516971D02*
X413823357Y-224859828D01*
X413823357Y-224859828D02*
X413866214Y-224945543D01*
X413866214Y-224945543D02*
X413909071Y-224988400D01*
X413909071Y-224988400D02*
X413994785Y-225031257D01*
X413994785Y-225031257D02*
X414123357Y-225031257D01*
X414123357Y-225031257D02*
X414209071Y-224988400D01*
X414209071Y-224988400D02*
X414251928Y-224945543D01*
X414251928Y-224945543D02*
X414294785Y-224859828D01*
X414294785Y-224859828D02*
X414294785Y-224516971D01*
X413823357Y-225288400D02*
X414723357Y-225588400D01*
X414723357Y-225588400D02*
X413823357Y-225888400D01*
X416181357Y-224109829D02*
X416181357Y-223681257D01*
X416181357Y-223681257D02*
X415281357Y-223681257D01*
X415709928Y-224409828D02*
X415709928Y-224709828D01*
X416181357Y-224838400D02*
X416181357Y-224409828D01*
X416181357Y-224409828D02*
X415281357Y-224409828D01*
X415281357Y-224409828D02*
X415281357Y-224838400D01*
X416181357Y-225224114D02*
X415281357Y-225224114D01*
X415281357Y-225224114D02*
X415281357Y-225438400D01*
X415281357Y-225438400D02*
X415324214Y-225566971D01*
X415324214Y-225566971D02*
X415409928Y-225652686D01*
X415409928Y-225652686D02*
X415495642Y-225695543D01*
X415495642Y-225695543D02*
X415667071Y-225738400D01*
X415667071Y-225738400D02*
X415795642Y-225738400D01*
X415795642Y-225738400D02*
X415967071Y-225695543D01*
X415967071Y-225695543D02*
X416052785Y-225652686D01*
X416052785Y-225652686D02*
X416138500Y-225566971D01*
X416138500Y-225566971D02*
X416181357Y-225438400D01*
X416181357Y-225438400D02*
X416181357Y-225224114D01*
X412201157Y-223637657D02*
X411301157Y-223637657D01*
X411301157Y-223637657D02*
X411301157Y-223980514D01*
X411301157Y-223980514D02*
X411344014Y-224066229D01*
X411344014Y-224066229D02*
X411386871Y-224109086D01*
X411386871Y-224109086D02*
X411472585Y-224151943D01*
X411472585Y-224151943D02*
X411601157Y-224151943D01*
X411601157Y-224151943D02*
X411686871Y-224109086D01*
X411686871Y-224109086D02*
X411729728Y-224066229D01*
X411729728Y-224066229D02*
X411772585Y-223980514D01*
X411772585Y-223980514D02*
X411772585Y-223637657D01*
X412201157Y-224966229D02*
X412201157Y-224537657D01*
X412201157Y-224537657D02*
X411301157Y-224537657D01*
X411729728Y-225266228D02*
X411729728Y-225566228D01*
X412201157Y-225694800D02*
X412201157Y-225266228D01*
X412201157Y-225266228D02*
X411301157Y-225266228D01*
X411301157Y-225266228D02*
X411301157Y-225694800D01*
X412201157Y-226080514D02*
X411301157Y-226080514D01*
X411301157Y-226080514D02*
X411301157Y-226294800D01*
X411301157Y-226294800D02*
X411344014Y-226423371D01*
X411344014Y-226423371D02*
X411429728Y-226509086D01*
X411429728Y-226509086D02*
X411515442Y-226551943D01*
X411515442Y-226551943D02*
X411686871Y-226594800D01*
X411686871Y-226594800D02*
X411815442Y-226594800D01*
X411815442Y-226594800D02*
X411986871Y-226551943D01*
X411986871Y-226551943D02*
X412072585Y-226509086D01*
X412072585Y-226509086D02*
X412158300Y-226423371D01*
X412158300Y-226423371D02*
X412201157Y-226294800D01*
X412201157Y-226294800D02*
X412201157Y-226080514D01*
X408805838Y-224180495D02*
X408758219Y-224085257D01*
X408758219Y-224085257D02*
X408758219Y-223942400D01*
X408758219Y-223942400D02*
X408805838Y-223799543D01*
X408805838Y-223799543D02*
X408901076Y-223704305D01*
X408901076Y-223704305D02*
X408996314Y-223656686D01*
X408996314Y-223656686D02*
X409186790Y-223609067D01*
X409186790Y-223609067D02*
X409329647Y-223609067D01*
X409329647Y-223609067D02*
X409520123Y-223656686D01*
X409520123Y-223656686D02*
X409615361Y-223704305D01*
X409615361Y-223704305D02*
X409710600Y-223799543D01*
X409710600Y-223799543D02*
X409758219Y-223942400D01*
X409758219Y-223942400D02*
X409758219Y-224037638D01*
X409758219Y-224037638D02*
X409710600Y-224180495D01*
X409710600Y-224180495D02*
X409662980Y-224228114D01*
X409662980Y-224228114D02*
X409329647Y-224228114D01*
X409329647Y-224228114D02*
X409329647Y-224037638D01*
X409758219Y-224656686D02*
X408758219Y-224656686D01*
X408758219Y-224656686D02*
X409758219Y-225228114D01*
X409758219Y-225228114D02*
X408758219Y-225228114D01*
X409758219Y-225704305D02*
X408758219Y-225704305D01*
X408758219Y-225704305D02*
X408758219Y-225942400D01*
X408758219Y-225942400D02*
X408805838Y-226085257D01*
X408805838Y-226085257D02*
X408901076Y-226180495D01*
X408901076Y-226180495D02*
X408996314Y-226228114D01*
X408996314Y-226228114D02*
X409186790Y-226275733D01*
X409186790Y-226275733D02*
X409329647Y-226275733D01*
X409329647Y-226275733D02*
X409520123Y-226228114D01*
X409520123Y-226228114D02*
X409615361Y-226180495D01*
X409615361Y-226180495D02*
X409710600Y-226085257D01*
X409710600Y-226085257D02*
X409758219Y-225942400D01*
X409758219Y-225942400D02*
X409758219Y-225704305D01*
X404195666Y-223605886D02*
X404195666Y-224367791D01*
X404576619Y-223986838D02*
X403814714Y-223986838D01*
X403576619Y-225320171D02*
X403576619Y-224843981D01*
X403576619Y-224843981D02*
X404052809Y-224796362D01*
X404052809Y-224796362D02*
X404005190Y-224843981D01*
X404005190Y-224843981D02*
X403957571Y-224939219D01*
X403957571Y-224939219D02*
X403957571Y-225177314D01*
X403957571Y-225177314D02*
X404005190Y-225272552D01*
X404005190Y-225272552D02*
X404052809Y-225320171D01*
X404052809Y-225320171D02*
X404148047Y-225367790D01*
X404148047Y-225367790D02*
X404386142Y-225367790D01*
X404386142Y-225367790D02*
X404481380Y-225320171D01*
X404481380Y-225320171D02*
X404529000Y-225272552D01*
X404529000Y-225272552D02*
X404576619Y-225177314D01*
X404576619Y-225177314D02*
X404576619Y-224939219D01*
X404576619Y-224939219D02*
X404529000Y-224843981D01*
X404529000Y-224843981D02*
X404481380Y-224796362D01*
X403576619Y-225653505D02*
X404576619Y-225986838D01*
X404576619Y-225986838D02*
X403576619Y-226320171D01*
X402036619Y-224191580D02*
X401560428Y-223858247D01*
X402036619Y-223620152D02*
X401036619Y-223620152D01*
X401036619Y-223620152D02*
X401036619Y-224001104D01*
X401036619Y-224001104D02*
X401084238Y-224096342D01*
X401084238Y-224096342D02*
X401131857Y-224143961D01*
X401131857Y-224143961D02*
X401227095Y-224191580D01*
X401227095Y-224191580D02*
X401369952Y-224191580D01*
X401369952Y-224191580D02*
X401465190Y-224143961D01*
X401465190Y-224143961D02*
X401512809Y-224096342D01*
X401512809Y-224096342D02*
X401560428Y-224001104D01*
X401560428Y-224001104D02*
X401560428Y-223620152D01*
X401989000Y-224572533D02*
X402036619Y-224715390D01*
X402036619Y-224715390D02*
X402036619Y-224953485D01*
X402036619Y-224953485D02*
X401989000Y-225048723D01*
X401989000Y-225048723D02*
X401941380Y-225096342D01*
X401941380Y-225096342D02*
X401846142Y-225143961D01*
X401846142Y-225143961D02*
X401750904Y-225143961D01*
X401750904Y-225143961D02*
X401655666Y-225096342D01*
X401655666Y-225096342D02*
X401608047Y-225048723D01*
X401608047Y-225048723D02*
X401560428Y-224953485D01*
X401560428Y-224953485D02*
X401512809Y-224763009D01*
X401512809Y-224763009D02*
X401465190Y-224667771D01*
X401465190Y-224667771D02*
X401417571Y-224620152D01*
X401417571Y-224620152D02*
X401322333Y-224572533D01*
X401322333Y-224572533D02*
X401227095Y-224572533D01*
X401227095Y-224572533D02*
X401131857Y-224620152D01*
X401131857Y-224620152D02*
X401084238Y-224667771D01*
X401084238Y-224667771D02*
X401036619Y-224763009D01*
X401036619Y-224763009D02*
X401036619Y-225001104D01*
X401036619Y-225001104D02*
X401084238Y-225143961D01*
X401036619Y-225429676D02*
X401036619Y-226001104D01*
X402036619Y-225715390D02*
X401036619Y-225715390D01*
X399547419Y-223624971D02*
X398547419Y-223624971D01*
X399547419Y-224196399D02*
X398975990Y-223767828D01*
X398547419Y-224196399D02*
X399118847Y-223624971D01*
X399547419Y-224624971D02*
X398547419Y-224624971D01*
X398547419Y-224624971D02*
X398547419Y-224863066D01*
X398547419Y-224863066D02*
X398595038Y-225005923D01*
X398595038Y-225005923D02*
X398690276Y-225101161D01*
X398690276Y-225101161D02*
X398785514Y-225148780D01*
X398785514Y-225148780D02*
X398975990Y-225196399D01*
X398975990Y-225196399D02*
X399118847Y-225196399D01*
X399118847Y-225196399D02*
X399309323Y-225148780D01*
X399309323Y-225148780D02*
X399404561Y-225101161D01*
X399404561Y-225101161D02*
X399499800Y-225005923D01*
X399499800Y-225005923D02*
X399547419Y-224863066D01*
X399547419Y-224863066D02*
X399547419Y-224624971D01*
X399261704Y-225577352D02*
X399261704Y-226053542D01*
X399547419Y-225482114D02*
X398547419Y-225815447D01*
X398547419Y-225815447D02*
X399547419Y-226148780D01*
X398547419Y-226339257D02*
X398547419Y-226910685D01*
X399547419Y-226624971D02*
X398547419Y-226624971D01*
X396962980Y-224245561D02*
X397010600Y-224197942D01*
X397010600Y-224197942D02*
X397058219Y-224055085D01*
X397058219Y-224055085D02*
X397058219Y-223959847D01*
X397058219Y-223959847D02*
X397010600Y-223816990D01*
X397010600Y-223816990D02*
X396915361Y-223721752D01*
X396915361Y-223721752D02*
X396820123Y-223674133D01*
X396820123Y-223674133D02*
X396629647Y-223626514D01*
X396629647Y-223626514D02*
X396486790Y-223626514D01*
X396486790Y-223626514D02*
X396296314Y-223674133D01*
X396296314Y-223674133D02*
X396201076Y-223721752D01*
X396201076Y-223721752D02*
X396105838Y-223816990D01*
X396105838Y-223816990D02*
X396058219Y-223959847D01*
X396058219Y-223959847D02*
X396058219Y-224055085D01*
X396058219Y-224055085D02*
X396105838Y-224197942D01*
X396105838Y-224197942D02*
X396153457Y-224245561D01*
X397058219Y-225150323D02*
X397058219Y-224674133D01*
X397058219Y-224674133D02*
X396058219Y-224674133D01*
X397058219Y-225483657D02*
X396058219Y-225483657D01*
X397058219Y-226055085D02*
X396486790Y-225626514D01*
X396058219Y-226055085D02*
X396629647Y-225483657D01*
X379265519Y-229678029D02*
X378265519Y-229678029D01*
X378598852Y-230154219D02*
X379265519Y-230154219D01*
X378694090Y-230154219D02*
X378646471Y-230201838D01*
X378646471Y-230201838D02*
X378598852Y-230297076D01*
X378598852Y-230297076D02*
X378598852Y-230439933D01*
X378598852Y-230439933D02*
X378646471Y-230535171D01*
X378646471Y-230535171D02*
X378741709Y-230582790D01*
X378741709Y-230582790D02*
X379265519Y-230582790D01*
X378598852Y-231487552D02*
X379265519Y-231487552D01*
X378217900Y-231249457D02*
X378932185Y-231011362D01*
X378932185Y-231011362D02*
X378932185Y-231630409D01*
X376888079Y-229705969D02*
X375888079Y-229705969D01*
X376221412Y-230182159D02*
X376888079Y-230182159D01*
X376316650Y-230182159D02*
X376269031Y-230229778D01*
X376269031Y-230229778D02*
X376221412Y-230325016D01*
X376221412Y-230325016D02*
X376221412Y-230467873D01*
X376221412Y-230467873D02*
X376269031Y-230563111D01*
X376269031Y-230563111D02*
X376364269Y-230610730D01*
X376364269Y-230610730D02*
X376888079Y-230610730D01*
X375888079Y-230991683D02*
X375888079Y-231610730D01*
X375888079Y-231610730D02*
X376269031Y-231277397D01*
X376269031Y-231277397D02*
X376269031Y-231420254D01*
X376269031Y-231420254D02*
X376316650Y-231515492D01*
X376316650Y-231515492D02*
X376364269Y-231563111D01*
X376364269Y-231563111D02*
X376459507Y-231610730D01*
X376459507Y-231610730D02*
X376697602Y-231610730D01*
X376697602Y-231610730D02*
X376792840Y-231563111D01*
X376792840Y-231563111D02*
X376840460Y-231515492D01*
X376840460Y-231515492D02*
X376888079Y-231420254D01*
X376888079Y-231420254D02*
X376888079Y-231134540D01*
X376888079Y-231134540D02*
X376840460Y-231039302D01*
X376840460Y-231039302D02*
X376792840Y-230991683D01*
%TO.C,J2*%
X320283333Y-227962619D02*
X320283333Y-228676904D01*
X320283333Y-228676904D02*
X320330952Y-228819761D01*
X320330952Y-228819761D02*
X320426190Y-228915000D01*
X320426190Y-228915000D02*
X320569047Y-228962619D01*
X320569047Y-228962619D02*
X320664285Y-228962619D01*
X319854761Y-228057857D02*
X319807142Y-228010238D01*
X319807142Y-228010238D02*
X319711904Y-227962619D01*
X319711904Y-227962619D02*
X319473809Y-227962619D01*
X319473809Y-227962619D02*
X319378571Y-228010238D01*
X319378571Y-228010238D02*
X319330952Y-228057857D01*
X319330952Y-228057857D02*
X319283333Y-228153095D01*
X319283333Y-228153095D02*
X319283333Y-228248333D01*
X319283333Y-228248333D02*
X319330952Y-228391190D01*
X319330952Y-228391190D02*
X319902380Y-228962619D01*
X319902380Y-228962619D02*
X319283333Y-228962619D01*
%TO.C,D4*%
X456681494Y-251906019D02*
X456681494Y-250906019D01*
X456681494Y-250906019D02*
X456443399Y-250906019D01*
X456443399Y-250906019D02*
X456300542Y-250953638D01*
X456300542Y-250953638D02*
X456205304Y-251048876D01*
X456205304Y-251048876D02*
X456157685Y-251144114D01*
X456157685Y-251144114D02*
X456110066Y-251334590D01*
X456110066Y-251334590D02*
X456110066Y-251477447D01*
X456110066Y-251477447D02*
X456157685Y-251667923D01*
X456157685Y-251667923D02*
X456205304Y-251763161D01*
X456205304Y-251763161D02*
X456300542Y-251858400D01*
X456300542Y-251858400D02*
X456443399Y-251906019D01*
X456443399Y-251906019D02*
X456681494Y-251906019D01*
X455252923Y-251239352D02*
X455252923Y-251906019D01*
X455491018Y-250858400D02*
X455729113Y-251572685D01*
X455729113Y-251572685D02*
X455110066Y-251572685D01*
%TO.C,D3*%
X456701334Y-244095519D02*
X456701334Y-243095519D01*
X456701334Y-243095519D02*
X456463239Y-243095519D01*
X456463239Y-243095519D02*
X456320382Y-243143138D01*
X456320382Y-243143138D02*
X456225144Y-243238376D01*
X456225144Y-243238376D02*
X456177525Y-243333614D01*
X456177525Y-243333614D02*
X456129906Y-243524090D01*
X456129906Y-243524090D02*
X456129906Y-243666947D01*
X456129906Y-243666947D02*
X456177525Y-243857423D01*
X456177525Y-243857423D02*
X456225144Y-243952661D01*
X456225144Y-243952661D02*
X456320382Y-244047900D01*
X456320382Y-244047900D02*
X456463239Y-244095519D01*
X456463239Y-244095519D02*
X456701334Y-244095519D01*
X455796572Y-243095519D02*
X455177525Y-243095519D01*
X455177525Y-243095519D02*
X455510858Y-243476471D01*
X455510858Y-243476471D02*
X455368001Y-243476471D01*
X455368001Y-243476471D02*
X455272763Y-243524090D01*
X455272763Y-243524090D02*
X455225144Y-243571709D01*
X455225144Y-243571709D02*
X455177525Y-243666947D01*
X455177525Y-243666947D02*
X455177525Y-243905042D01*
X455177525Y-243905042D02*
X455225144Y-244000280D01*
X455225144Y-244000280D02*
X455272763Y-244047900D01*
X455272763Y-244047900D02*
X455368001Y-244095519D01*
X455368001Y-244095519D02*
X455653715Y-244095519D01*
X455653715Y-244095519D02*
X455748953Y-244047900D01*
X455748953Y-244047900D02*
X455796572Y-244000280D01*
D11*
%TO.C,J2*%
X318250000Y-227700000D02*
X318250000Y-227250000D01*
X318250000Y-227700000D02*
X318700000Y-227700000D01*
X323850000Y-227150000D02*
X323400000Y-227150000D01*
X323850000Y-225300000D02*
X323850000Y-227150000D01*
X316050000Y-222750000D02*
X316050000Y-223000000D01*
X323850000Y-222750000D02*
X323850000Y-223000000D01*
X316050000Y-225300000D02*
X316050000Y-227150000D01*
X316050000Y-227150000D02*
X316500000Y-227150000D01*
%TD*%
M02*
