%TF.GenerationSoftware,KiCad,Pcbnew,(5.1.6-0)*%
%TF.CreationDate,2023-03-06T10:11:25+01:00*%
%TF.ProjectId,A500KB,41353030-4b42-42e6-9b69-6361645f7063,3*%
%TF.SameCoordinates,Original*%
%TF.FileFunction,Legend,Top*%
%TF.FilePolarity,Positive*%
%FSLAX46Y46*%
G04 Gerber Fmt 4.6, Leading zero omitted, Abs format (unit mm)*
G04 Created by KiCad (PCBNEW (5.1.6-0)) date 2023-03-06 10:11:25*
%MOMM*%
%LPD*%
G01*
G04 APERTURE LIST*
%ADD10C,0.200000*%
%ADD11C,0.300000*%
%ADD12C,0.120000*%
%ADD13C,0.150000*%
G04 APERTURE END LIST*
D10*
X362131241Y-244202601D02*
X362178860Y-244059744D01*
X362178860Y-243821649D01*
X362131241Y-243726411D01*
X362083622Y-243678792D01*
X361988384Y-243631173D01*
X361893146Y-243631173D01*
X361797908Y-243678792D01*
X361750289Y-243726411D01*
X361702670Y-243821649D01*
X361655051Y-244012125D01*
X361607432Y-244107363D01*
X361559813Y-244154982D01*
X361464575Y-244202601D01*
X361369337Y-244202601D01*
X361274099Y-244154982D01*
X361226480Y-244107363D01*
X361178860Y-244012125D01*
X361178860Y-243774030D01*
X361226480Y-243631173D01*
X361512194Y-243202601D02*
X362512194Y-243202601D01*
X361559813Y-243202601D02*
X361512194Y-243107363D01*
X361512194Y-242916887D01*
X361559813Y-242821649D01*
X361607432Y-242774030D01*
X361702670Y-242726411D01*
X361988384Y-242726411D01*
X362083622Y-242774030D01*
X362131241Y-242821649D01*
X362178860Y-242916887D01*
X362178860Y-243107363D01*
X362131241Y-243202601D01*
X362178860Y-241869268D02*
X361655051Y-241869268D01*
X361559813Y-241916887D01*
X361512194Y-242012125D01*
X361512194Y-242202601D01*
X361559813Y-242297840D01*
X362131241Y-241869268D02*
X362178860Y-241964506D01*
X362178860Y-242202601D01*
X362131241Y-242297840D01*
X362036003Y-242345459D01*
X361940765Y-242345459D01*
X361845527Y-242297840D01*
X361797908Y-242202601D01*
X361797908Y-241964506D01*
X361750289Y-241869268D01*
X362178860Y-241393078D02*
X361512194Y-241393078D01*
X361702670Y-241393078D02*
X361607432Y-241345459D01*
X361559813Y-241297840D01*
X361512194Y-241202601D01*
X361512194Y-241107363D01*
X362131241Y-240393078D02*
X362178860Y-240488316D01*
X362178860Y-240678792D01*
X362131241Y-240774030D01*
X362036003Y-240821649D01*
X361655051Y-240821649D01*
X361559813Y-240774030D01*
X361512194Y-240678792D01*
X361512194Y-240488316D01*
X361559813Y-240393078D01*
X361655051Y-240345459D01*
X361750289Y-240345459D01*
X361845527Y-240821649D01*
X362178860Y-239393078D02*
X362178860Y-239964506D01*
X362178860Y-239678792D02*
X361178860Y-239678792D01*
X361321718Y-239774030D01*
X361416956Y-239869268D01*
X361464575Y-239964506D01*
X364523280Y-247183374D02*
X363523280Y-247183374D01*
X364523280Y-246611945D01*
X363523280Y-246611945D01*
X364523280Y-245992898D02*
X364475661Y-246088136D01*
X364428042Y-246135755D01*
X364332804Y-246183374D01*
X364047090Y-246183374D01*
X363951852Y-246135755D01*
X363904233Y-246088136D01*
X363856614Y-245992898D01*
X363856614Y-245850040D01*
X363904233Y-245754802D01*
X363951852Y-245707183D01*
X364047090Y-245659564D01*
X364332804Y-245659564D01*
X364428042Y-245707183D01*
X364475661Y-245754802D01*
X364523280Y-245850040D01*
X364523280Y-245992898D01*
X364428042Y-243897660D02*
X364475661Y-243945279D01*
X364523280Y-244088136D01*
X364523280Y-244183374D01*
X364475661Y-244326231D01*
X364380423Y-244421469D01*
X364285185Y-244469088D01*
X364094709Y-244516707D01*
X363951852Y-244516707D01*
X363761376Y-244469088D01*
X363666138Y-244421469D01*
X363570900Y-244326231D01*
X363523280Y-244183374D01*
X363523280Y-244088136D01*
X363570900Y-243945279D01*
X363618519Y-243897660D01*
X364523280Y-243040517D02*
X363999471Y-243040517D01*
X363904233Y-243088136D01*
X363856614Y-243183374D01*
X363856614Y-243373850D01*
X363904233Y-243469088D01*
X364475661Y-243040517D02*
X364523280Y-243135755D01*
X364523280Y-243373850D01*
X364475661Y-243469088D01*
X364380423Y-243516707D01*
X364285185Y-243516707D01*
X364189947Y-243469088D01*
X364142328Y-243373850D01*
X364142328Y-243135755D01*
X364094709Y-243040517D01*
X363856614Y-242564326D02*
X364856614Y-242564326D01*
X363904233Y-242564326D02*
X363856614Y-242469088D01*
X363856614Y-242278612D01*
X363904233Y-242183374D01*
X363951852Y-242135755D01*
X364047090Y-242088136D01*
X364332804Y-242088136D01*
X364428042Y-242135755D01*
X364475661Y-242183374D01*
X364523280Y-242278612D01*
X364523280Y-242469088D01*
X364475661Y-242564326D01*
X364475661Y-241707183D02*
X364523280Y-241611945D01*
X364523280Y-241421469D01*
X364475661Y-241326231D01*
X364380423Y-241278612D01*
X364332804Y-241278612D01*
X364237566Y-241326231D01*
X364189947Y-241421469D01*
X364189947Y-241564326D01*
X364142328Y-241659564D01*
X364047090Y-241707183D01*
X363999471Y-241707183D01*
X363904233Y-241659564D01*
X363856614Y-241564326D01*
X363856614Y-241421469D01*
X363904233Y-241326231D01*
X364523280Y-240373850D02*
X364523280Y-240850040D01*
X363523280Y-240850040D01*
X363999471Y-240040517D02*
X363999471Y-239707183D01*
X364523280Y-239564326D02*
X364523280Y-240040517D01*
X363523280Y-240040517D01*
X363523280Y-239564326D01*
X364523280Y-239135755D02*
X363523280Y-239135755D01*
X363523280Y-238897660D01*
X363570900Y-238754802D01*
X363666138Y-238659564D01*
X363761376Y-238611945D01*
X363951852Y-238564326D01*
X364094709Y-238564326D01*
X364285185Y-238611945D01*
X364380423Y-238659564D01*
X364475661Y-238754802D01*
X364523280Y-238897660D01*
X364523280Y-239135755D01*
D11*
X417364285Y-225025000D02*
X418078571Y-225025000D01*
X417221428Y-225453571D02*
X417721428Y-223953571D01*
X418221428Y-225453571D01*
X419435714Y-223953571D02*
X418721428Y-223953571D01*
X418650000Y-224667857D01*
X418721428Y-224596428D01*
X418864285Y-224525000D01*
X419221428Y-224525000D01*
X419364285Y-224596428D01*
X419435714Y-224667857D01*
X419507142Y-224810714D01*
X419507142Y-225167857D01*
X419435714Y-225310714D01*
X419364285Y-225382142D01*
X419221428Y-225453571D01*
X418864285Y-225453571D01*
X418721428Y-225382142D01*
X418650000Y-225310714D01*
X420435714Y-223953571D02*
X420578571Y-223953571D01*
X420721428Y-224025000D01*
X420792857Y-224096428D01*
X420864285Y-224239285D01*
X420935714Y-224525000D01*
X420935714Y-224882142D01*
X420864285Y-225167857D01*
X420792857Y-225310714D01*
X420721428Y-225382142D01*
X420578571Y-225453571D01*
X420435714Y-225453571D01*
X420292857Y-225382142D01*
X420221428Y-225310714D01*
X420150000Y-225167857D01*
X420078571Y-224882142D01*
X420078571Y-224525000D01*
X420150000Y-224239285D01*
X420221428Y-224096428D01*
X420292857Y-224025000D01*
X420435714Y-223953571D01*
X421864285Y-223953571D02*
X422007142Y-223953571D01*
X422150000Y-224025000D01*
X422221428Y-224096428D01*
X422292857Y-224239285D01*
X422364285Y-224525000D01*
X422364285Y-224882142D01*
X422292857Y-225167857D01*
X422221428Y-225310714D01*
X422150000Y-225382142D01*
X422007142Y-225453571D01*
X421864285Y-225453571D01*
X421721428Y-225382142D01*
X421650000Y-225310714D01*
X421578571Y-225167857D01*
X421507142Y-224882142D01*
X421507142Y-224525000D01*
X421578571Y-224239285D01*
X421650000Y-224096428D01*
X421721428Y-224025000D01*
X421864285Y-223953571D01*
X423007142Y-225453571D02*
X423007142Y-223953571D01*
X423864285Y-225453571D02*
X423221428Y-224596428D01*
X423864285Y-223953571D02*
X423007142Y-224810714D01*
X425007142Y-224667857D02*
X425221428Y-224739285D01*
X425292857Y-224810714D01*
X425364285Y-224953571D01*
X425364285Y-225167857D01*
X425292857Y-225310714D01*
X425221428Y-225382142D01*
X425078571Y-225453571D01*
X424507142Y-225453571D01*
X424507142Y-223953571D01*
X425007142Y-223953571D01*
X425150000Y-224025000D01*
X425221428Y-224096428D01*
X425292857Y-224239285D01*
X425292857Y-224382142D01*
X425221428Y-224525000D01*
X425150000Y-224596428D01*
X425007142Y-224667857D01*
X424507142Y-224667857D01*
X426935714Y-224453571D02*
X427507142Y-224453571D01*
X427150000Y-225453571D02*
X427150000Y-224167857D01*
X427221428Y-224025000D01*
X427364285Y-223953571D01*
X427507142Y-223953571D01*
X428221428Y-225453571D02*
X428078571Y-225382142D01*
X428007142Y-225310714D01*
X427935714Y-225167857D01*
X427935714Y-224739285D01*
X428007142Y-224596428D01*
X428078571Y-224525000D01*
X428221428Y-224453571D01*
X428435714Y-224453571D01*
X428578571Y-224525000D01*
X428650000Y-224596428D01*
X428721428Y-224739285D01*
X428721428Y-225167857D01*
X428650000Y-225310714D01*
X428578571Y-225382142D01*
X428435714Y-225453571D01*
X428221428Y-225453571D01*
X429364285Y-225453571D02*
X429364285Y-224453571D01*
X429364285Y-224739285D02*
X429435714Y-224596428D01*
X429507142Y-224525000D01*
X429650000Y-224453571D01*
X429792857Y-224453571D01*
X431435714Y-225453571D02*
X431435714Y-223953571D01*
X431935714Y-225025000D01*
X432435714Y-223953571D01*
X432435714Y-225453571D01*
X433150000Y-225453571D02*
X433150000Y-224453571D01*
X433150000Y-223953571D02*
X433078571Y-224025000D01*
X433150000Y-224096428D01*
X433221428Y-224025000D01*
X433150000Y-223953571D01*
X433150000Y-224096428D01*
X433650000Y-224453571D02*
X434221428Y-224453571D01*
X433864285Y-223953571D02*
X433864285Y-225239285D01*
X433935714Y-225382142D01*
X434078571Y-225453571D01*
X434221428Y-225453571D01*
X434650000Y-225382142D02*
X434792857Y-225453571D01*
X435078571Y-225453571D01*
X435221428Y-225382142D01*
X435292857Y-225239285D01*
X435292857Y-225167857D01*
X435221428Y-225025000D01*
X435078571Y-224953571D01*
X434864285Y-224953571D01*
X434721428Y-224882142D01*
X434650000Y-224739285D01*
X434650000Y-224667857D01*
X434721428Y-224525000D01*
X434864285Y-224453571D01*
X435078571Y-224453571D01*
X435221428Y-224525000D01*
X436578571Y-224453571D02*
X436578571Y-225453571D01*
X435935714Y-224453571D02*
X435935714Y-225239285D01*
X436007142Y-225382142D01*
X436150000Y-225453571D01*
X436364285Y-225453571D01*
X436507142Y-225382142D01*
X436578571Y-225310714D01*
X437292857Y-225453571D02*
X437292857Y-224453571D01*
X437292857Y-224596428D02*
X437364285Y-224525000D01*
X437507142Y-224453571D01*
X437721428Y-224453571D01*
X437864285Y-224525000D01*
X437935714Y-224667857D01*
X437935714Y-225453571D01*
X437935714Y-224667857D02*
X438007142Y-224525000D01*
X438150000Y-224453571D01*
X438364285Y-224453571D01*
X438507142Y-224525000D01*
X438578571Y-224667857D01*
X438578571Y-225453571D01*
X439292857Y-225453571D02*
X439292857Y-224453571D01*
X439292857Y-223953571D02*
X439221428Y-224025000D01*
X439292857Y-224096428D01*
X439364285Y-224025000D01*
X439292857Y-223953571D01*
X439292857Y-224096428D01*
X441364285Y-225453571D02*
X441221428Y-225382142D01*
X441150000Y-225310714D01*
X441078571Y-225167857D01*
X441078571Y-224739285D01*
X441150000Y-224596428D01*
X441221428Y-224525000D01*
X441364285Y-224453571D01*
X441578571Y-224453571D01*
X441721428Y-224525000D01*
X441792857Y-224596428D01*
X441864285Y-224739285D01*
X441864285Y-225167857D01*
X441792857Y-225310714D01*
X441721428Y-225382142D01*
X441578571Y-225453571D01*
X441364285Y-225453571D01*
X442507142Y-225453571D02*
X442507142Y-224453571D01*
X442507142Y-224739285D02*
X442578571Y-224596428D01*
X442650000Y-224525000D01*
X442792857Y-224453571D01*
X442935714Y-224453571D01*
X445435714Y-225310714D02*
X445364285Y-225382142D01*
X445150000Y-225453571D01*
X445007142Y-225453571D01*
X444792857Y-225382142D01*
X444650000Y-225239285D01*
X444578571Y-225096428D01*
X444507142Y-224810714D01*
X444507142Y-224596428D01*
X444578571Y-224310714D01*
X444650000Y-224167857D01*
X444792857Y-224025000D01*
X445007142Y-223953571D01*
X445150000Y-223953571D01*
X445364285Y-224025000D01*
X445435714Y-224096428D01*
X446078571Y-225453571D02*
X446078571Y-223953571D01*
X446721428Y-225453571D02*
X446721428Y-224667857D01*
X446650000Y-224525000D01*
X446507142Y-224453571D01*
X446292857Y-224453571D01*
X446150000Y-224525000D01*
X446078571Y-224596428D01*
X448007142Y-225382142D02*
X447864285Y-225453571D01*
X447578571Y-225453571D01*
X447435714Y-225382142D01*
X447364285Y-225239285D01*
X447364285Y-224667857D01*
X447435714Y-224525000D01*
X447578571Y-224453571D01*
X447864285Y-224453571D01*
X448007142Y-224525000D01*
X448078571Y-224667857D01*
X448078571Y-224810714D01*
X447364285Y-224953571D01*
X448721428Y-225453571D02*
X448721428Y-224453571D01*
X448721428Y-224739285D02*
X448792857Y-224596428D01*
X448864285Y-224525000D01*
X449007142Y-224453571D01*
X449150000Y-224453571D01*
X449650000Y-225453571D02*
X449650000Y-224453571D01*
X449650000Y-224739285D02*
X449721428Y-224596428D01*
X449792857Y-224525000D01*
X449935714Y-224453571D01*
X450078571Y-224453571D01*
X450435714Y-224453571D02*
X450792857Y-225453571D01*
X451150000Y-224453571D02*
X450792857Y-225453571D01*
X450650000Y-225810714D01*
X450578571Y-225882142D01*
X450435714Y-225953571D01*
X452792857Y-225382142D02*
X452935714Y-225453571D01*
X453221428Y-225453571D01*
X453364285Y-225382142D01*
X453435714Y-225239285D01*
X453435714Y-225167857D01*
X453364285Y-225025000D01*
X453221428Y-224953571D01*
X453007142Y-224953571D01*
X452864285Y-224882142D01*
X452792857Y-224739285D01*
X452792857Y-224667857D01*
X452864285Y-224525000D01*
X453007142Y-224453571D01*
X453221428Y-224453571D01*
X453364285Y-224525000D01*
X453935714Y-224453571D02*
X454221428Y-225453571D01*
X454507142Y-224739285D01*
X454792857Y-225453571D01*
X455078571Y-224453571D01*
X455650000Y-225453571D02*
X455650000Y-224453571D01*
X455650000Y-223953571D02*
X455578571Y-224025000D01*
X455650000Y-224096428D01*
X455721428Y-224025000D01*
X455650000Y-223953571D01*
X455650000Y-224096428D01*
X456150000Y-224453571D02*
X456721428Y-224453571D01*
X456364285Y-223953571D02*
X456364285Y-225239285D01*
X456435714Y-225382142D01*
X456578571Y-225453571D01*
X456721428Y-225453571D01*
X457864285Y-225382142D02*
X457721428Y-225453571D01*
X457435714Y-225453571D01*
X457292857Y-225382142D01*
X457221428Y-225310714D01*
X457150000Y-225167857D01*
X457150000Y-224739285D01*
X457221428Y-224596428D01*
X457292857Y-224525000D01*
X457435714Y-224453571D01*
X457721428Y-224453571D01*
X457864285Y-224525000D01*
X458507142Y-225453571D02*
X458507142Y-223953571D01*
X459150000Y-225453571D02*
X459150000Y-224667857D01*
X459078571Y-224525000D01*
X458935714Y-224453571D01*
X458721428Y-224453571D01*
X458578571Y-224525000D01*
X458507142Y-224596428D01*
X460435714Y-225382142D02*
X460292857Y-225453571D01*
X460007142Y-225453571D01*
X459864285Y-225382142D01*
X459792857Y-225239285D01*
X459792857Y-224667857D01*
X459864285Y-224525000D01*
X460007142Y-224453571D01*
X460292857Y-224453571D01*
X460435714Y-224525000D01*
X460507142Y-224667857D01*
X460507142Y-224810714D01*
X459792857Y-224953571D01*
X461078571Y-225382142D02*
X461221428Y-225453571D01*
X461507142Y-225453571D01*
X461650000Y-225382142D01*
X461721428Y-225239285D01*
X461721428Y-225167857D01*
X461650000Y-225025000D01*
X461507142Y-224953571D01*
X461292857Y-224953571D01*
X461150000Y-224882142D01*
X461078571Y-224739285D01*
X461078571Y-224667857D01*
X461150000Y-224525000D01*
X461292857Y-224453571D01*
X461507142Y-224453571D01*
X461650000Y-224525000D01*
X464364285Y-225453571D02*
X463864285Y-224739285D01*
X463507142Y-225453571D02*
X463507142Y-223953571D01*
X464078571Y-223953571D01*
X464221428Y-224025000D01*
X464292857Y-224096428D01*
X464364285Y-224239285D01*
X464364285Y-224453571D01*
X464292857Y-224596428D01*
X464221428Y-224667857D01*
X464078571Y-224739285D01*
X463507142Y-224739285D01*
X465578571Y-225382142D02*
X465435714Y-225453571D01*
X465150000Y-225453571D01*
X465007142Y-225382142D01*
X464935714Y-225239285D01*
X464935714Y-224667857D01*
X465007142Y-224525000D01*
X465150000Y-224453571D01*
X465435714Y-224453571D01*
X465578571Y-224525000D01*
X465650000Y-224667857D01*
X465650000Y-224810714D01*
X464935714Y-224953571D01*
X466150000Y-224453571D02*
X466507142Y-225453571D01*
X466864285Y-224453571D01*
X467435714Y-225310714D02*
X467507142Y-225382142D01*
X467435714Y-225453571D01*
X467364285Y-225382142D01*
X467435714Y-225310714D01*
X467435714Y-225453571D01*
X468007142Y-223953571D02*
X468935714Y-223953571D01*
X468435714Y-224525000D01*
X468650000Y-224525000D01*
X468792857Y-224596428D01*
X468864285Y-224667857D01*
X468935714Y-224810714D01*
X468935714Y-225167857D01*
X468864285Y-225310714D01*
X468792857Y-225382142D01*
X468650000Y-225453571D01*
X468221428Y-225453571D01*
X468078571Y-225382142D01*
X468007142Y-225310714D01*
X428792857Y-226860714D02*
X428650000Y-226789285D01*
X428364285Y-226789285D01*
X428221428Y-226860714D01*
X428078571Y-227003571D01*
X428007142Y-227146428D01*
X428007142Y-227432142D01*
X428078571Y-227575000D01*
X428221428Y-227717857D01*
X428364285Y-227789285D01*
X428650000Y-227789285D01*
X428792857Y-227717857D01*
X428507142Y-226289285D02*
X428150000Y-226360714D01*
X427792857Y-226575000D01*
X427578571Y-226932142D01*
X427507142Y-227289285D01*
X427578571Y-227646428D01*
X427792857Y-228003571D01*
X428150000Y-228217857D01*
X428507142Y-228289285D01*
X428864285Y-228217857D01*
X429221428Y-228003571D01*
X429435714Y-227646428D01*
X429507142Y-227289285D01*
X429435714Y-226932142D01*
X429221428Y-226575000D01*
X428864285Y-226360714D01*
X428507142Y-226289285D01*
X431221428Y-226646428D02*
X431292857Y-226575000D01*
X431435714Y-226503571D01*
X431792857Y-226503571D01*
X431935714Y-226575000D01*
X432007142Y-226646428D01*
X432078571Y-226789285D01*
X432078571Y-226932142D01*
X432007142Y-227146428D01*
X431150000Y-228003571D01*
X432078571Y-228003571D01*
X433007142Y-226503571D02*
X433150000Y-226503571D01*
X433292857Y-226575000D01*
X433364285Y-226646428D01*
X433435714Y-226789285D01*
X433507142Y-227075000D01*
X433507142Y-227432142D01*
X433435714Y-227717857D01*
X433364285Y-227860714D01*
X433292857Y-227932142D01*
X433150000Y-228003571D01*
X433007142Y-228003571D01*
X432864285Y-227932142D01*
X432792857Y-227860714D01*
X432721428Y-227717857D01*
X432650000Y-227432142D01*
X432650000Y-227075000D01*
X432721428Y-226789285D01*
X432792857Y-226646428D01*
X432864285Y-226575000D01*
X433007142Y-226503571D01*
X434078571Y-226646428D02*
X434150000Y-226575000D01*
X434292857Y-226503571D01*
X434650000Y-226503571D01*
X434792857Y-226575000D01*
X434864285Y-226646428D01*
X434935714Y-226789285D01*
X434935714Y-226932142D01*
X434864285Y-227146428D01*
X434007142Y-228003571D01*
X434935714Y-228003571D01*
X436364285Y-228003571D02*
X435507142Y-228003571D01*
X435935714Y-228003571D02*
X435935714Y-226503571D01*
X435792857Y-226717857D01*
X435650000Y-226860714D01*
X435507142Y-226932142D01*
X437007142Y-227432142D02*
X438150000Y-227432142D01*
X438792857Y-226646428D02*
X438864285Y-226575000D01*
X439007142Y-226503571D01*
X439364285Y-226503571D01*
X439507142Y-226575000D01*
X439578571Y-226646428D01*
X439650000Y-226789285D01*
X439650000Y-226932142D01*
X439578571Y-227146428D01*
X438721428Y-228003571D01*
X439650000Y-228003571D01*
X440150000Y-226503571D02*
X441078571Y-226503571D01*
X440578571Y-227075000D01*
X440792857Y-227075000D01*
X440935714Y-227146428D01*
X441007142Y-227217857D01*
X441078571Y-227360714D01*
X441078571Y-227717857D01*
X441007142Y-227860714D01*
X440935714Y-227932142D01*
X440792857Y-228003571D01*
X440364285Y-228003571D01*
X440221428Y-227932142D01*
X440150000Y-227860714D01*
X442864285Y-228003571D02*
X442864285Y-226503571D01*
X442864285Y-227217857D02*
X443721428Y-227217857D01*
X443721428Y-228003571D02*
X443721428Y-226503571D01*
X445007142Y-227932142D02*
X444864285Y-228003571D01*
X444578571Y-228003571D01*
X444435714Y-227932142D01*
X444364285Y-227789285D01*
X444364285Y-227217857D01*
X444435714Y-227075000D01*
X444578571Y-227003571D01*
X444864285Y-227003571D01*
X445007142Y-227075000D01*
X445078571Y-227217857D01*
X445078571Y-227360714D01*
X444364285Y-227503571D01*
X445721428Y-227003571D02*
X445721428Y-228003571D01*
X445721428Y-227146428D02*
X445792857Y-227075000D01*
X445935714Y-227003571D01*
X446150000Y-227003571D01*
X446292857Y-227075000D01*
X446364285Y-227217857D01*
X446364285Y-228003571D01*
X447078571Y-228003571D02*
X447078571Y-227003571D01*
X447078571Y-227289285D02*
X447150000Y-227146428D01*
X447221428Y-227075000D01*
X447364285Y-227003571D01*
X447507142Y-227003571D01*
X447864285Y-227003571D02*
X448221428Y-228003571D01*
X448578571Y-227003571D02*
X448221428Y-228003571D01*
X448078571Y-228360714D01*
X448007142Y-228432142D01*
X447864285Y-228503571D01*
X449150000Y-228003571D02*
X449150000Y-226503571D01*
X449292857Y-227432142D02*
X449721428Y-228003571D01*
X449721428Y-227003571D02*
X449150000Y-227575000D01*
X452364285Y-228003571D02*
X451864285Y-227289285D01*
X451507142Y-228003571D02*
X451507142Y-226503571D01*
X452078571Y-226503571D01*
X452221428Y-226575000D01*
X452292857Y-226646428D01*
X452364285Y-226789285D01*
X452364285Y-227003571D01*
X452292857Y-227146428D01*
X452221428Y-227217857D01*
X452078571Y-227289285D01*
X451507142Y-227289285D01*
X453007142Y-228003571D02*
X453007142Y-227003571D01*
X453007142Y-226503571D02*
X452935714Y-226575000D01*
X453007142Y-226646428D01*
X453078571Y-226575000D01*
X453007142Y-226503571D01*
X453007142Y-226646428D01*
X454364285Y-227932142D02*
X454221428Y-228003571D01*
X453935714Y-228003571D01*
X453792857Y-227932142D01*
X453721428Y-227860714D01*
X453650000Y-227717857D01*
X453650000Y-227289285D01*
X453721428Y-227146428D01*
X453792857Y-227075000D01*
X453935714Y-227003571D01*
X454221428Y-227003571D01*
X454364285Y-227075000D01*
X455007142Y-228003571D02*
X455007142Y-226503571D01*
X455650000Y-228003571D02*
X455650000Y-227217857D01*
X455578571Y-227075000D01*
X455435714Y-227003571D01*
X455221428Y-227003571D01*
X455078571Y-227075000D01*
X455007142Y-227146428D01*
X456150000Y-227003571D02*
X456721428Y-227003571D01*
X456364285Y-226503571D02*
X456364285Y-227789285D01*
X456435714Y-227932142D01*
X456578571Y-228003571D01*
X456721428Y-228003571D01*
X457792857Y-227932142D02*
X457650000Y-228003571D01*
X457364285Y-228003571D01*
X457221428Y-227932142D01*
X457150000Y-227789285D01*
X457150000Y-227217857D01*
X457221428Y-227075000D01*
X457364285Y-227003571D01*
X457650000Y-227003571D01*
X457792857Y-227075000D01*
X457864285Y-227217857D01*
X457864285Y-227360714D01*
X457150000Y-227503571D01*
X458507142Y-228003571D02*
X458507142Y-227003571D01*
X458507142Y-227289285D02*
X458578571Y-227146428D01*
X458650000Y-227075000D01*
X458792857Y-227003571D01*
X458935714Y-227003571D01*
D12*
X66700000Y-307600000D02*
X66800000Y-307700000D01*
X66550000Y-307900000D02*
X66650000Y-308000000D01*
X66250000Y-307600000D02*
X66300000Y-307800000D01*
X66250000Y-307600000D02*
X66450000Y-307650000D01*
X66550000Y-307900000D02*
X66250000Y-307600000D01*
X66400000Y-307250000D02*
X66600000Y-307350000D01*
X66350000Y-307250000D02*
X66450000Y-307500000D01*
X66700000Y-307600000D02*
X66350000Y-307250000D01*
X67150000Y-307450000D02*
X67150000Y-306900000D01*
X66850000Y-307450000D02*
X67400000Y-307450000D01*
X67150000Y-308050000D02*
X67150000Y-308550000D01*
X67150000Y-307500000D02*
X67400000Y-308000000D01*
X66850000Y-308050000D02*
X67150000Y-307500000D01*
X67400000Y-308050000D02*
X66850000Y-308050000D01*
D13*
X61678571Y-304952380D02*
X61583333Y-304904761D01*
X61535714Y-304857142D01*
X61488095Y-304761904D01*
X61488095Y-304476190D01*
X61535714Y-304380952D01*
X61583333Y-304333333D01*
X61678571Y-304285714D01*
X61821428Y-304285714D01*
X61916666Y-304333333D01*
X61964285Y-304380952D01*
X62011904Y-304476190D01*
X62011904Y-304761904D01*
X61964285Y-304857142D01*
X61916666Y-304904761D01*
X61821428Y-304952380D01*
X61678571Y-304952380D01*
X461802171Y-241269780D02*
X461706933Y-241222161D01*
X461659314Y-241174542D01*
X461611695Y-241079304D01*
X461611695Y-240793590D01*
X461659314Y-240698352D01*
X461706933Y-240650733D01*
X461802171Y-240603114D01*
X461945028Y-240603114D01*
X462040266Y-240650733D01*
X462087885Y-240698352D01*
X462135504Y-240793590D01*
X462135504Y-241079304D01*
X462087885Y-241174542D01*
X462040266Y-241222161D01*
X461945028Y-241269780D01*
X461802171Y-241269780D01*
X457738171Y-241252380D02*
X457642933Y-241204761D01*
X457595314Y-241157142D01*
X457547695Y-241061904D01*
X457547695Y-240776190D01*
X457595314Y-240680952D01*
X457642933Y-240633333D01*
X457738171Y-240585714D01*
X457881028Y-240585714D01*
X457976266Y-240633333D01*
X458023885Y-240680952D01*
X458071504Y-240776190D01*
X458071504Y-241061904D01*
X458023885Y-241157142D01*
X457976266Y-241204761D01*
X457881028Y-241252380D01*
X457738171Y-241252380D01*
X453724971Y-241252380D02*
X453629733Y-241204761D01*
X453582114Y-241157142D01*
X453534495Y-241061904D01*
X453534495Y-240776190D01*
X453582114Y-240680952D01*
X453629733Y-240633333D01*
X453724971Y-240585714D01*
X453867828Y-240585714D01*
X453963066Y-240633333D01*
X454010685Y-240680952D01*
X454058304Y-240776190D01*
X454058304Y-241061904D01*
X454010685Y-241157142D01*
X453963066Y-241204761D01*
X453867828Y-241252380D01*
X453724971Y-241252380D01*
X450270571Y-254299980D02*
X450175333Y-254252361D01*
X450127714Y-254204742D01*
X450080095Y-254109504D01*
X450080095Y-253823790D01*
X450127714Y-253728552D01*
X450175333Y-253680933D01*
X450270571Y-253633314D01*
X450413428Y-253633314D01*
X450508666Y-253680933D01*
X450556285Y-253728552D01*
X450603904Y-253823790D01*
X450603904Y-254109504D01*
X450556285Y-254204742D01*
X450508666Y-254252361D01*
X450413428Y-254299980D01*
X450270571Y-254299980D01*
X454334571Y-254299980D02*
X454239333Y-254252361D01*
X454191714Y-254204742D01*
X454144095Y-254109504D01*
X454144095Y-253823790D01*
X454191714Y-253728552D01*
X454239333Y-253680933D01*
X454334571Y-253633314D01*
X454477428Y-253633314D01*
X454572666Y-253680933D01*
X454620285Y-253728552D01*
X454667904Y-253823790D01*
X454667904Y-254109504D01*
X454620285Y-254204742D01*
X454572666Y-254252361D01*
X454477428Y-254299980D01*
X454334571Y-254299980D01*
X458347771Y-254299980D02*
X458252533Y-254252361D01*
X458204914Y-254204742D01*
X458157295Y-254109504D01*
X458157295Y-253823790D01*
X458204914Y-253728552D01*
X458252533Y-253680933D01*
X458347771Y-253633314D01*
X458490628Y-253633314D01*
X458585866Y-253680933D01*
X458633485Y-253728552D01*
X458681104Y-253823790D01*
X458681104Y-254109504D01*
X458633485Y-254204742D01*
X458585866Y-254252361D01*
X458490628Y-254299980D01*
X458347771Y-254299980D01*
D12*
X302700000Y-226900000D02*
X302700000Y-226950000D01*
X302700000Y-225950000D02*
X302700000Y-226900000D01*
X302700000Y-225950000D02*
G75*
G02*
X305950000Y-222700000I3250000J0D01*
G01*
X302700000Y-258950000D02*
X302700000Y-226850000D01*
X472282520Y-225945700D02*
X472282520Y-258945700D01*
X469031320Y-222686880D02*
G75*
G02*
X472281320Y-225936880I0J-3250000D01*
G01*
X469031320Y-222686880D02*
X305950000Y-222700000D01*
X305950000Y-262200000D02*
X307250000Y-262200000D01*
X305950000Y-262200000D02*
G75*
G02*
X302700000Y-258950000I0J3250000D01*
G01*
X469950000Y-262200000D02*
X307250000Y-262200000D01*
X472276120Y-258958080D02*
G75*
G02*
X469044020Y-262201660I-3243600J0D01*
G01*
%TO.C,D51*%
X452783400Y-241487500D02*
X453583400Y-241487500D01*
X453583400Y-241487500D02*
X453583400Y-245387500D01*
X450583400Y-241487500D02*
X450583400Y-245387500D01*
%TO.C,R16*%
X361595740Y-228548188D02*
X361595740Y-229070692D01*
X360175740Y-228548188D02*
X360175740Y-229070692D01*
%TO.C,R15*%
X364821540Y-228571268D02*
X364821540Y-229093772D01*
X363401540Y-228571268D02*
X363401540Y-229093772D01*
%TO.C,R14*%
X407036748Y-240844000D02*
X407559252Y-240844000D01*
X407036748Y-242264000D02*
X407559252Y-242264000D01*
%TO.C,R13*%
X412860748Y-240844000D02*
X413383252Y-240844000D01*
X412860748Y-242264000D02*
X413383252Y-242264000D01*
%TO.C,R12*%
X419624252Y-230580000D02*
X419101748Y-230580000D01*
X419624252Y-229160000D02*
X419101748Y-229160000D01*
%TO.C,R11*%
X364692000Y-236203748D02*
X364692000Y-236726252D01*
X363272000Y-236203748D02*
X363272000Y-236726252D01*
%TO.C,R10*%
X362406000Y-236212748D02*
X362406000Y-236735252D01*
X360986000Y-236212748D02*
X360986000Y-236735252D01*
%TO.C,R9*%
X419615252Y-233120000D02*
X419092748Y-233120000D01*
X419615252Y-231700000D02*
X419092748Y-231700000D01*
%TO.C,R8*%
X419615252Y-235660000D02*
X419092748Y-235660000D01*
X419615252Y-234240000D02*
X419092748Y-234240000D01*
%TO.C,C16*%
X418227500Y-238140000D02*
X418227500Y-240490000D01*
X418227500Y-244960000D02*
X418227500Y-242610000D01*
X423983063Y-244960000D02*
X418227500Y-244960000D01*
X423983063Y-238140000D02*
X418227500Y-238140000D01*
X425047500Y-239204437D02*
X425047500Y-240490000D01*
X425047500Y-243895563D02*
X425047500Y-242610000D01*
X425047500Y-243895563D02*
X423983063Y-244960000D01*
X425047500Y-239204437D02*
X423983063Y-238140000D01*
%TO.C,C15*%
X418227500Y-246240000D02*
X418227500Y-248590000D01*
X418227500Y-253060000D02*
X418227500Y-250710000D01*
X423983063Y-253060000D02*
X418227500Y-253060000D01*
X423983063Y-246240000D02*
X418227500Y-246240000D01*
X425047500Y-247304437D02*
X425047500Y-248590000D01*
X425047500Y-251995563D02*
X425047500Y-250710000D01*
X425047500Y-251995563D02*
X423983063Y-253060000D01*
X425047500Y-247304437D02*
X423983063Y-246240000D01*
%TO.C,R7*%
X429763748Y-252990000D02*
X430286252Y-252990000D01*
X429763748Y-254410000D02*
X430286252Y-254410000D01*
%TO.C,R6*%
X410611252Y-232910000D02*
X410088748Y-232910000D01*
X410611252Y-231490000D02*
X410088748Y-231490000D01*
%TO.C,R5*%
X371311252Y-241610000D02*
X370788748Y-241610000D01*
X371311252Y-240190000D02*
X370788748Y-240190000D01*
%TO.C,R4*%
X320340000Y-235186252D02*
X320340000Y-234663748D01*
X321760000Y-235186252D02*
X321760000Y-234663748D01*
%TO.C,R3*%
X317990000Y-235186252D02*
X317990000Y-234663748D01*
X319410000Y-235186252D02*
X319410000Y-234663748D01*
%TO.C,R2*%
X366988748Y-251390000D02*
X367511252Y-251390000D01*
X366988748Y-252810000D02*
X367511252Y-252810000D01*
%TO.C,R1*%
X376090000Y-252336252D02*
X376090000Y-251813748D01*
X377510000Y-252336252D02*
X377510000Y-251813748D01*
%TO.C,Q1*%
X371490000Y-250520000D02*
X371490000Y-251450000D01*
X371490000Y-253680000D02*
X371490000Y-252750000D01*
X371490000Y-253680000D02*
X373650000Y-253680000D01*
X371490000Y-250520000D02*
X372950000Y-250520000D01*
%TO.C,C9*%
X435536252Y-256660000D02*
X435013748Y-256660000D01*
X435536252Y-255240000D02*
X435013748Y-255240000D01*
%TO.C,C13*%
X430311252Y-251760000D02*
X429788748Y-251760000D01*
X430311252Y-250340000D02*
X429788748Y-250340000D01*
%TO.C,C14*%
X405088748Y-231490000D02*
X405611252Y-231490000D01*
X405088748Y-232910000D02*
X405611252Y-232910000D01*
%TO.C,C12*%
X429860000Y-246913748D02*
X429860000Y-247436252D01*
X428440000Y-246913748D02*
X428440000Y-247436252D01*
%TO.C,C11*%
X440163748Y-255240000D02*
X440686252Y-255240000D01*
X440163748Y-256660000D02*
X440686252Y-256660000D01*
%TO.C,U1*%
X433302500Y-243290000D02*
X432852500Y-243290000D01*
X432852500Y-243290000D02*
X432852500Y-243740000D01*
X439622500Y-243290000D02*
X440072500Y-243290000D01*
X440072500Y-243290000D02*
X440072500Y-243740000D01*
X433302500Y-250510000D02*
X432852500Y-250510000D01*
X432852500Y-250510000D02*
X432852500Y-250060000D01*
X439622500Y-250510000D02*
X440072500Y-250510000D01*
X440072500Y-250510000D02*
X440072500Y-250060000D01*
X440072500Y-250060000D02*
X441362500Y-250060000D01*
%TO.C,C8*%
X332786252Y-229710000D02*
X332263748Y-229710000D01*
X332786252Y-228290000D02*
X332263748Y-228290000D01*
%TO.C,C7*%
X428440000Y-242586252D02*
X428440000Y-242063748D01*
X429860000Y-242586252D02*
X429860000Y-242063748D01*
%TO.C,C2*%
X332263748Y-241340000D02*
X332786252Y-241340000D01*
X332263748Y-242760000D02*
X332786252Y-242760000D01*
%TO.C,C1*%
X333674248Y-246599100D02*
X334196752Y-246599100D01*
X333674248Y-248019100D02*
X334196752Y-248019100D01*
%TO.C,D53*%
X460847200Y-241467200D02*
X461647200Y-241467200D01*
X461647200Y-241467200D02*
X461647200Y-245367200D01*
X458647200Y-241467200D02*
X458647200Y-245367200D01*
%TO.C,D52*%
X456795900Y-241479900D02*
X457595900Y-241479900D01*
X457595900Y-241479900D02*
X457595900Y-245379900D01*
X454595900Y-241479900D02*
X454595900Y-245379900D01*
%TO.C,J5*%
X380168460Y-229508360D02*
X380168460Y-226848360D01*
X377568460Y-229508360D02*
X380168460Y-229508360D01*
X377568460Y-226848360D02*
X380168460Y-226848360D01*
X377568460Y-229508360D02*
X377568460Y-226848360D01*
X376298460Y-229508360D02*
X374968460Y-229508360D01*
X374968460Y-229508360D02*
X374968460Y-228178360D01*
%TO.C,Y2*%
X346473300Y-249031800D02*
X341473300Y-249031800D01*
X346473300Y-245611800D02*
X341473300Y-245611800D01*
%TO.C,D7*%
X459458400Y-253325000D02*
X458658400Y-253325000D01*
X458658400Y-253325000D02*
X458658400Y-249425000D01*
X461658400Y-253325000D02*
X461658400Y-249425000D01*
%TO.C,D6*%
X455394400Y-253325000D02*
X454594400Y-253325000D01*
X454594400Y-253325000D02*
X454594400Y-249425000D01*
X457594400Y-253325000D02*
X457594400Y-249425000D01*
%TO.C,D5*%
X451367000Y-253338000D02*
X450567000Y-253338000D01*
X450567000Y-253338000D02*
X450567000Y-249438000D01*
X453567000Y-253338000D02*
X453567000Y-249438000D01*
%TO.C,J4*%
X415710000Y-229530000D02*
X415710000Y-226870000D01*
X397870000Y-229530000D02*
X415710000Y-229530000D01*
X397870000Y-226870000D02*
X415710000Y-226870000D01*
X397870000Y-229530000D02*
X397870000Y-226870000D01*
X396600000Y-229530000D02*
X395270000Y-229530000D01*
X395270000Y-229530000D02*
X395270000Y-228200000D01*
D13*
%TO.C,U2*%
X337573400Y-227529200D02*
X337573400Y-228104200D01*
X351923400Y-227529200D02*
X351923400Y-228204200D01*
X351923400Y-241879200D02*
X351923400Y-241204200D01*
X337573400Y-241879200D02*
X337573400Y-241204200D01*
X337573400Y-227529200D02*
X338248400Y-227529200D01*
X337573400Y-241879200D02*
X338248400Y-241879200D01*
X351923400Y-241879200D02*
X351248400Y-241879200D01*
X351923400Y-227529200D02*
X351248400Y-227529200D01*
X337573400Y-228104200D02*
X336298400Y-228104200D01*
D12*
%TO.C,J3*%
X374610000Y-237930000D02*
X374610000Y-232730000D01*
X369470000Y-237930000D02*
X374610000Y-237930000D01*
X366870000Y-232730000D02*
X374610000Y-232730000D01*
X369470000Y-237930000D02*
X369470000Y-235330000D01*
X369470000Y-235330000D02*
X366870000Y-235330000D01*
X366870000Y-235330000D02*
X366870000Y-232730000D01*
X368200000Y-237930000D02*
X366870000Y-237930000D01*
X366870000Y-237930000D02*
X366870000Y-236600000D01*
%TO.C,C6*%
X358354700Y-228581428D02*
X358354700Y-229103932D01*
X356934700Y-228581428D02*
X356934700Y-229103932D01*
%TO.C,C5*%
X332761252Y-233760000D02*
X332238748Y-233760000D01*
X332761252Y-232340000D02*
X332238748Y-232340000D01*
%TO.C,C4*%
X338784948Y-246586400D02*
X339307452Y-246586400D01*
X338784948Y-248006400D02*
X339307452Y-248006400D01*
%TO.C,C3*%
X348660248Y-246649900D02*
X349182752Y-246649900D01*
X348660248Y-248069900D02*
X349182752Y-248069900D01*
D13*
%TO.C,J1*%
X321350000Y-256150000D02*
X321350000Y-264150000D01*
X321350000Y-264150000D02*
X363100000Y-264150000D01*
X363100000Y-264150000D02*
X363100000Y-256150000D01*
X363100000Y-256150000D02*
X321350000Y-256150000D01*
D12*
X321350000Y-256150000D02*
X321350000Y-251150000D01*
X321350000Y-251150000D02*
X362850000Y-251150000D01*
X363100000Y-256150000D02*
X363100000Y-251150000D01*
X363100000Y-251150000D02*
X362850000Y-251150000D01*
%TO.C,H26*%
D13*
X385164484Y-221174280D02*
X385164484Y-220174280D01*
X385164484Y-220650471D02*
X385735913Y-220650471D01*
X385735913Y-221174280D02*
X385735913Y-220174280D01*
X386164484Y-220269519D02*
X386212103Y-220221900D01*
X386307341Y-220174280D01*
X386545437Y-220174280D01*
X386640675Y-220221900D01*
X386688294Y-220269519D01*
X386735913Y-220364757D01*
X386735913Y-220459995D01*
X386688294Y-220602852D01*
X386116865Y-221174280D01*
X386735913Y-221174280D01*
X387593056Y-220174280D02*
X387402580Y-220174280D01*
X387307341Y-220221900D01*
X387259722Y-220269519D01*
X387164484Y-220412376D01*
X387116865Y-220602852D01*
X387116865Y-220983804D01*
X387164484Y-221079042D01*
X387212103Y-221126661D01*
X387307341Y-221174280D01*
X387497818Y-221174280D01*
X387593056Y-221126661D01*
X387640675Y-221079042D01*
X387688294Y-220983804D01*
X387688294Y-220745709D01*
X387640675Y-220650471D01*
X387593056Y-220602852D01*
X387497818Y-220555233D01*
X387307341Y-220555233D01*
X387212103Y-220602852D01*
X387164484Y-220650471D01*
X387116865Y-220745709D01*
%TO.C,D51*%
X452513980Y-239364285D02*
X451513980Y-239364285D01*
X451513980Y-239126190D01*
X451561600Y-238983333D01*
X451656838Y-238888095D01*
X451752076Y-238840476D01*
X451942552Y-238792857D01*
X452085409Y-238792857D01*
X452275885Y-238840476D01*
X452371123Y-238888095D01*
X452466361Y-238983333D01*
X452513980Y-239126190D01*
X452513980Y-239364285D01*
X451513980Y-237888095D02*
X451513980Y-238364285D01*
X451990171Y-238411904D01*
X451942552Y-238364285D01*
X451894933Y-238269047D01*
X451894933Y-238030952D01*
X451942552Y-237935714D01*
X451990171Y-237888095D01*
X452085409Y-237840476D01*
X452323504Y-237840476D01*
X452418742Y-237888095D01*
X452466361Y-237935714D01*
X452513980Y-238030952D01*
X452513980Y-238269047D01*
X452466361Y-238364285D01*
X452418742Y-238411904D01*
X452513980Y-236888095D02*
X452513980Y-237459523D01*
X452513980Y-237173809D02*
X451513980Y-237173809D01*
X451656838Y-237269047D01*
X451752076Y-237364285D01*
X451799695Y-237459523D01*
%TO.C,H25*%
X464138164Y-235054520D02*
X464138164Y-234054520D01*
X464138164Y-234530711D02*
X464709593Y-234530711D01*
X464709593Y-235054520D02*
X464709593Y-234054520D01*
X465138164Y-234149759D02*
X465185783Y-234102140D01*
X465281021Y-234054520D01*
X465519117Y-234054520D01*
X465614355Y-234102140D01*
X465661974Y-234149759D01*
X465709593Y-234244997D01*
X465709593Y-234340235D01*
X465661974Y-234483092D01*
X465090545Y-235054520D01*
X465709593Y-235054520D01*
X466614355Y-234054520D02*
X466138164Y-234054520D01*
X466090545Y-234530711D01*
X466138164Y-234483092D01*
X466233402Y-234435473D01*
X466471498Y-234435473D01*
X466566736Y-234483092D01*
X466614355Y-234530711D01*
X466661974Y-234625949D01*
X466661974Y-234864044D01*
X466614355Y-234959282D01*
X466566736Y-235006901D01*
X466471498Y-235054520D01*
X466233402Y-235054520D01*
X466138164Y-235006901D01*
X466090545Y-234959282D01*
%TO.C,H24*%
X444155984Y-254295020D02*
X444155984Y-253295020D01*
X444155984Y-253771211D02*
X444727413Y-253771211D01*
X444727413Y-254295020D02*
X444727413Y-253295020D01*
X445155984Y-253390259D02*
X445203603Y-253342640D01*
X445298841Y-253295020D01*
X445536937Y-253295020D01*
X445632175Y-253342640D01*
X445679794Y-253390259D01*
X445727413Y-253485497D01*
X445727413Y-253580735D01*
X445679794Y-253723592D01*
X445108365Y-254295020D01*
X445727413Y-254295020D01*
X446584556Y-253628354D02*
X446584556Y-254295020D01*
X446346460Y-253247401D02*
X446108365Y-253961687D01*
X446727413Y-253961687D01*
%TO.C,H23*%
X311443524Y-254943240D02*
X311443524Y-253943240D01*
X311443524Y-254419431D02*
X312014953Y-254419431D01*
X312014953Y-254943240D02*
X312014953Y-253943240D01*
X312443524Y-254038479D02*
X312491143Y-253990860D01*
X312586381Y-253943240D01*
X312824477Y-253943240D01*
X312919715Y-253990860D01*
X312967334Y-254038479D01*
X313014953Y-254133717D01*
X313014953Y-254228955D01*
X312967334Y-254371812D01*
X312395905Y-254943240D01*
X313014953Y-254943240D01*
X313348286Y-253943240D02*
X313967334Y-253943240D01*
X313634000Y-254324193D01*
X313776858Y-254324193D01*
X313872096Y-254371812D01*
X313919715Y-254419431D01*
X313967334Y-254514669D01*
X313967334Y-254752764D01*
X313919715Y-254848002D01*
X313872096Y-254895621D01*
X313776858Y-254943240D01*
X313491143Y-254943240D01*
X313395905Y-254895621D01*
X313348286Y-254848002D01*
%TO.C,H22*%
X461461004Y-254945780D02*
X461461004Y-253945780D01*
X461461004Y-254421971D02*
X462032433Y-254421971D01*
X462032433Y-254945780D02*
X462032433Y-253945780D01*
X462461004Y-254041019D02*
X462508623Y-253993400D01*
X462603861Y-253945780D01*
X462841957Y-253945780D01*
X462937195Y-253993400D01*
X462984814Y-254041019D01*
X463032433Y-254136257D01*
X463032433Y-254231495D01*
X462984814Y-254374352D01*
X462413385Y-254945780D01*
X463032433Y-254945780D01*
X463413385Y-254041019D02*
X463461004Y-253993400D01*
X463556242Y-253945780D01*
X463794338Y-253945780D01*
X463889576Y-253993400D01*
X463937195Y-254041019D01*
X463984814Y-254136257D01*
X463984814Y-254231495D01*
X463937195Y-254374352D01*
X463365766Y-254945780D01*
X463984814Y-254945780D01*
%TO.C,R16*%
X362988120Y-229452297D02*
X362511930Y-229785630D01*
X362988120Y-230023725D02*
X361988120Y-230023725D01*
X361988120Y-229642773D01*
X362035740Y-229547535D01*
X362083359Y-229499916D01*
X362178597Y-229452297D01*
X362321454Y-229452297D01*
X362416692Y-229499916D01*
X362464311Y-229547535D01*
X362511930Y-229642773D01*
X362511930Y-230023725D01*
X362988120Y-228499916D02*
X362988120Y-229071344D01*
X362988120Y-228785630D02*
X361988120Y-228785630D01*
X362130978Y-228880868D01*
X362226216Y-228976106D01*
X362273835Y-229071344D01*
X361988120Y-227642773D02*
X361988120Y-227833249D01*
X362035740Y-227928487D01*
X362083359Y-227976106D01*
X362226216Y-228071344D01*
X362416692Y-228118963D01*
X362797644Y-228118963D01*
X362892882Y-228071344D01*
X362940501Y-228023725D01*
X362988120Y-227928487D01*
X362988120Y-227738011D01*
X362940501Y-227642773D01*
X362892882Y-227595154D01*
X362797644Y-227547535D01*
X362559549Y-227547535D01*
X362464311Y-227595154D01*
X362416692Y-227642773D01*
X362369073Y-227738011D01*
X362369073Y-227928487D01*
X362416692Y-228023725D01*
X362464311Y-228071344D01*
X362559549Y-228118963D01*
%TO.C,R15*%
X366213920Y-229475377D02*
X365737730Y-229808710D01*
X366213920Y-230046805D02*
X365213920Y-230046805D01*
X365213920Y-229665853D01*
X365261540Y-229570615D01*
X365309159Y-229522996D01*
X365404397Y-229475377D01*
X365547254Y-229475377D01*
X365642492Y-229522996D01*
X365690111Y-229570615D01*
X365737730Y-229665853D01*
X365737730Y-230046805D01*
X366213920Y-228522996D02*
X366213920Y-229094424D01*
X366213920Y-228808710D02*
X365213920Y-228808710D01*
X365356778Y-228903948D01*
X365452016Y-228999186D01*
X365499635Y-229094424D01*
X365213920Y-227618234D02*
X365213920Y-228094424D01*
X365690111Y-228142043D01*
X365642492Y-228094424D01*
X365594873Y-227999186D01*
X365594873Y-227761091D01*
X365642492Y-227665853D01*
X365690111Y-227618234D01*
X365785349Y-227570615D01*
X366023444Y-227570615D01*
X366118682Y-227618234D01*
X366166301Y-227665853D01*
X366213920Y-227761091D01*
X366213920Y-227999186D01*
X366166301Y-228094424D01*
X366118682Y-228142043D01*
%TO.C,R14*%
X406655142Y-240356380D02*
X406321809Y-239880190D01*
X406083714Y-240356380D02*
X406083714Y-239356380D01*
X406464666Y-239356380D01*
X406559904Y-239404000D01*
X406607523Y-239451619D01*
X406655142Y-239546857D01*
X406655142Y-239689714D01*
X406607523Y-239784952D01*
X406559904Y-239832571D01*
X406464666Y-239880190D01*
X406083714Y-239880190D01*
X407607523Y-240356380D02*
X407036095Y-240356380D01*
X407321809Y-240356380D02*
X407321809Y-239356380D01*
X407226571Y-239499238D01*
X407131333Y-239594476D01*
X407036095Y-239642095D01*
X408464666Y-239689714D02*
X408464666Y-240356380D01*
X408226571Y-239308761D02*
X407988476Y-240023047D01*
X408607523Y-240023047D01*
%TO.C,R13*%
X412479142Y-240356380D02*
X412145809Y-239880190D01*
X411907714Y-240356380D02*
X411907714Y-239356380D01*
X412288666Y-239356380D01*
X412383904Y-239404000D01*
X412431523Y-239451619D01*
X412479142Y-239546857D01*
X412479142Y-239689714D01*
X412431523Y-239784952D01*
X412383904Y-239832571D01*
X412288666Y-239880190D01*
X411907714Y-239880190D01*
X413431523Y-240356380D02*
X412860095Y-240356380D01*
X413145809Y-240356380D02*
X413145809Y-239356380D01*
X413050571Y-239499238D01*
X412955333Y-239594476D01*
X412860095Y-239642095D01*
X413764857Y-239356380D02*
X414383904Y-239356380D01*
X414050571Y-239737333D01*
X414193428Y-239737333D01*
X414288666Y-239784952D01*
X414336285Y-239832571D01*
X414383904Y-239927809D01*
X414383904Y-240165904D01*
X414336285Y-240261142D01*
X414288666Y-240308761D01*
X414193428Y-240356380D01*
X413907714Y-240356380D01*
X413812476Y-240308761D01*
X413764857Y-240261142D01*
%TO.C,R12*%
X421962342Y-230322380D02*
X421629009Y-229846190D01*
X421390914Y-230322380D02*
X421390914Y-229322380D01*
X421771866Y-229322380D01*
X421867104Y-229370000D01*
X421914723Y-229417619D01*
X421962342Y-229512857D01*
X421962342Y-229655714D01*
X421914723Y-229750952D01*
X421867104Y-229798571D01*
X421771866Y-229846190D01*
X421390914Y-229846190D01*
X422914723Y-230322380D02*
X422343295Y-230322380D01*
X422629009Y-230322380D02*
X422629009Y-229322380D01*
X422533771Y-229465238D01*
X422438533Y-229560476D01*
X422343295Y-229608095D01*
X423295676Y-229417619D02*
X423343295Y-229370000D01*
X423438533Y-229322380D01*
X423676628Y-229322380D01*
X423771866Y-229370000D01*
X423819485Y-229417619D01*
X423867104Y-229512857D01*
X423867104Y-229608095D01*
X423819485Y-229750952D01*
X423248057Y-230322380D01*
X423867104Y-230322380D01*
%TO.C,R11*%
X364391200Y-233901217D02*
X363915010Y-234234550D01*
X364391200Y-234472645D02*
X363391200Y-234472645D01*
X363391200Y-234091693D01*
X363438820Y-233996455D01*
X363486439Y-233948836D01*
X363581677Y-233901217D01*
X363724534Y-233901217D01*
X363819772Y-233948836D01*
X363867391Y-233996455D01*
X363915010Y-234091693D01*
X363915010Y-234472645D01*
X364391200Y-232948836D02*
X364391200Y-233520264D01*
X364391200Y-233234550D02*
X363391200Y-233234550D01*
X363534058Y-233329788D01*
X363629296Y-233425026D01*
X363676915Y-233520264D01*
X364391200Y-231996455D02*
X364391200Y-232567883D01*
X364391200Y-232282169D02*
X363391200Y-232282169D01*
X363534058Y-232377407D01*
X363629296Y-232472645D01*
X363676915Y-232567883D01*
%TO.C,R10*%
X362145840Y-233901217D02*
X361669650Y-234234550D01*
X362145840Y-234472645D02*
X361145840Y-234472645D01*
X361145840Y-234091693D01*
X361193460Y-233996455D01*
X361241079Y-233948836D01*
X361336317Y-233901217D01*
X361479174Y-233901217D01*
X361574412Y-233948836D01*
X361622031Y-233996455D01*
X361669650Y-234091693D01*
X361669650Y-234472645D01*
X362145840Y-232948836D02*
X362145840Y-233520264D01*
X362145840Y-233234550D02*
X361145840Y-233234550D01*
X361288698Y-233329788D01*
X361383936Y-233425026D01*
X361431555Y-233520264D01*
X361145840Y-232329788D02*
X361145840Y-232234550D01*
X361193460Y-232139312D01*
X361241079Y-232091693D01*
X361336317Y-232044074D01*
X361526793Y-231996455D01*
X361764888Y-231996455D01*
X361955364Y-232044074D01*
X362050602Y-232091693D01*
X362098221Y-232139312D01*
X362145840Y-232234550D01*
X362145840Y-232329788D01*
X362098221Y-232425026D01*
X362050602Y-232472645D01*
X361955364Y-232520264D01*
X361764888Y-232567883D01*
X361526793Y-232567883D01*
X361336317Y-232520264D01*
X361241079Y-232472645D01*
X361193460Y-232425026D01*
X361145840Y-232329788D01*
%TO.C,R9*%
X421930533Y-232913180D02*
X421597200Y-232436990D01*
X421359104Y-232913180D02*
X421359104Y-231913180D01*
X421740057Y-231913180D01*
X421835295Y-231960800D01*
X421882914Y-232008419D01*
X421930533Y-232103657D01*
X421930533Y-232246514D01*
X421882914Y-232341752D01*
X421835295Y-232389371D01*
X421740057Y-232436990D01*
X421359104Y-232436990D01*
X422406723Y-232913180D02*
X422597200Y-232913180D01*
X422692438Y-232865561D01*
X422740057Y-232817942D01*
X422835295Y-232675085D01*
X422882914Y-232484609D01*
X422882914Y-232103657D01*
X422835295Y-232008419D01*
X422787676Y-231960800D01*
X422692438Y-231913180D01*
X422501961Y-231913180D01*
X422406723Y-231960800D01*
X422359104Y-232008419D01*
X422311485Y-232103657D01*
X422311485Y-232341752D01*
X422359104Y-232436990D01*
X422406723Y-232484609D01*
X422501961Y-232532228D01*
X422692438Y-232532228D01*
X422787676Y-232484609D01*
X422835295Y-232436990D01*
X422882914Y-232341752D01*
%TO.C,R8*%
X421930533Y-235402380D02*
X421597200Y-234926190D01*
X421359104Y-235402380D02*
X421359104Y-234402380D01*
X421740057Y-234402380D01*
X421835295Y-234450000D01*
X421882914Y-234497619D01*
X421930533Y-234592857D01*
X421930533Y-234735714D01*
X421882914Y-234830952D01*
X421835295Y-234878571D01*
X421740057Y-234926190D01*
X421359104Y-234926190D01*
X422501961Y-234830952D02*
X422406723Y-234783333D01*
X422359104Y-234735714D01*
X422311485Y-234640476D01*
X422311485Y-234592857D01*
X422359104Y-234497619D01*
X422406723Y-234450000D01*
X422501961Y-234402380D01*
X422692438Y-234402380D01*
X422787676Y-234450000D01*
X422835295Y-234497619D01*
X422882914Y-234592857D01*
X422882914Y-234640476D01*
X422835295Y-234735714D01*
X422787676Y-234783333D01*
X422692438Y-234830952D01*
X422501961Y-234830952D01*
X422406723Y-234878571D01*
X422359104Y-234926190D01*
X422311485Y-235021428D01*
X422311485Y-235211904D01*
X422359104Y-235307142D01*
X422406723Y-235354761D01*
X422501961Y-235402380D01*
X422692438Y-235402380D01*
X422787676Y-235354761D01*
X422835295Y-235307142D01*
X422882914Y-235211904D01*
X422882914Y-235021428D01*
X422835295Y-234926190D01*
X422787676Y-234878571D01*
X422692438Y-234830952D01*
%TO.C,C16*%
X420994642Y-246257142D02*
X420947023Y-246304761D01*
X420804166Y-246352380D01*
X420708928Y-246352380D01*
X420566071Y-246304761D01*
X420470833Y-246209523D01*
X420423214Y-246114285D01*
X420375595Y-245923809D01*
X420375595Y-245780952D01*
X420423214Y-245590476D01*
X420470833Y-245495238D01*
X420566071Y-245400000D01*
X420708928Y-245352380D01*
X420804166Y-245352380D01*
X420947023Y-245400000D01*
X420994642Y-245447619D01*
X421947023Y-246352380D02*
X421375595Y-246352380D01*
X421661309Y-246352380D02*
X421661309Y-245352380D01*
X421566071Y-245495238D01*
X421470833Y-245590476D01*
X421375595Y-245638095D01*
X422804166Y-245352380D02*
X422613690Y-245352380D01*
X422518452Y-245400000D01*
X422470833Y-245447619D01*
X422375595Y-245590476D01*
X422327976Y-245780952D01*
X422327976Y-246161904D01*
X422375595Y-246257142D01*
X422423214Y-246304761D01*
X422518452Y-246352380D01*
X422708928Y-246352380D01*
X422804166Y-246304761D01*
X422851785Y-246257142D01*
X422899404Y-246161904D01*
X422899404Y-245923809D01*
X422851785Y-245828571D01*
X422804166Y-245780952D01*
X422708928Y-245733333D01*
X422518452Y-245733333D01*
X422423214Y-245780952D01*
X422375595Y-245828571D01*
X422327976Y-245923809D01*
%TO.C,C15*%
X420994642Y-254357142D02*
X420947023Y-254404761D01*
X420804166Y-254452380D01*
X420708928Y-254452380D01*
X420566071Y-254404761D01*
X420470833Y-254309523D01*
X420423214Y-254214285D01*
X420375595Y-254023809D01*
X420375595Y-253880952D01*
X420423214Y-253690476D01*
X420470833Y-253595238D01*
X420566071Y-253500000D01*
X420708928Y-253452380D01*
X420804166Y-253452380D01*
X420947023Y-253500000D01*
X420994642Y-253547619D01*
X421947023Y-254452380D02*
X421375595Y-254452380D01*
X421661309Y-254452380D02*
X421661309Y-253452380D01*
X421566071Y-253595238D01*
X421470833Y-253690476D01*
X421375595Y-253738095D01*
X422851785Y-253452380D02*
X422375595Y-253452380D01*
X422327976Y-253928571D01*
X422375595Y-253880952D01*
X422470833Y-253833333D01*
X422708928Y-253833333D01*
X422804166Y-253880952D01*
X422851785Y-253928571D01*
X422899404Y-254023809D01*
X422899404Y-254261904D01*
X422851785Y-254357142D01*
X422804166Y-254404761D01*
X422708928Y-254452380D01*
X422470833Y-254452380D01*
X422375595Y-254404761D01*
X422327976Y-254357142D01*
%TO.C,R7*%
X427952380Y-253866666D02*
X427476190Y-254200000D01*
X427952380Y-254438095D02*
X426952380Y-254438095D01*
X426952380Y-254057142D01*
X427000000Y-253961904D01*
X427047619Y-253914285D01*
X427142857Y-253866666D01*
X427285714Y-253866666D01*
X427380952Y-253914285D01*
X427428571Y-253961904D01*
X427476190Y-254057142D01*
X427476190Y-254438095D01*
X426952380Y-253533333D02*
X426952380Y-252866666D01*
X427952380Y-253295238D01*
%TO.C,R6*%
X410183333Y-234302380D02*
X409850000Y-233826190D01*
X409611904Y-234302380D02*
X409611904Y-233302380D01*
X409992857Y-233302380D01*
X410088095Y-233350000D01*
X410135714Y-233397619D01*
X410183333Y-233492857D01*
X410183333Y-233635714D01*
X410135714Y-233730952D01*
X410088095Y-233778571D01*
X409992857Y-233826190D01*
X409611904Y-233826190D01*
X411040476Y-233302380D02*
X410850000Y-233302380D01*
X410754761Y-233350000D01*
X410707142Y-233397619D01*
X410611904Y-233540476D01*
X410564285Y-233730952D01*
X410564285Y-234111904D01*
X410611904Y-234207142D01*
X410659523Y-234254761D01*
X410754761Y-234302380D01*
X410945238Y-234302380D01*
X411040476Y-234254761D01*
X411088095Y-234207142D01*
X411135714Y-234111904D01*
X411135714Y-233873809D01*
X411088095Y-233778571D01*
X411040476Y-233730952D01*
X410945238Y-233683333D01*
X410754761Y-233683333D01*
X410659523Y-233730952D01*
X410611904Y-233778571D01*
X410564285Y-233873809D01*
%TO.C,R5*%
X370883333Y-243002380D02*
X370550000Y-242526190D01*
X370311904Y-243002380D02*
X370311904Y-242002380D01*
X370692857Y-242002380D01*
X370788095Y-242050000D01*
X370835714Y-242097619D01*
X370883333Y-242192857D01*
X370883333Y-242335714D01*
X370835714Y-242430952D01*
X370788095Y-242478571D01*
X370692857Y-242526190D01*
X370311904Y-242526190D01*
X371788095Y-242002380D02*
X371311904Y-242002380D01*
X371264285Y-242478571D01*
X371311904Y-242430952D01*
X371407142Y-242383333D01*
X371645238Y-242383333D01*
X371740476Y-242430952D01*
X371788095Y-242478571D01*
X371835714Y-242573809D01*
X371835714Y-242811904D01*
X371788095Y-242907142D01*
X371740476Y-242954761D01*
X371645238Y-243002380D01*
X371407142Y-243002380D01*
X371311904Y-242954761D01*
X371264285Y-242907142D01*
%TO.C,R4*%
X323149380Y-235171666D02*
X322673190Y-235505000D01*
X323149380Y-235743095D02*
X322149380Y-235743095D01*
X322149380Y-235362142D01*
X322197000Y-235266904D01*
X322244619Y-235219285D01*
X322339857Y-235171666D01*
X322482714Y-235171666D01*
X322577952Y-235219285D01*
X322625571Y-235266904D01*
X322673190Y-235362142D01*
X322673190Y-235743095D01*
X322482714Y-234314523D02*
X323149380Y-234314523D01*
X322101761Y-234552619D02*
X322816047Y-234790714D01*
X322816047Y-234171666D01*
%TO.C,R3*%
X317358380Y-235053666D02*
X316882190Y-235387000D01*
X317358380Y-235625095D02*
X316358380Y-235625095D01*
X316358380Y-235244142D01*
X316406000Y-235148904D01*
X316453619Y-235101285D01*
X316548857Y-235053666D01*
X316691714Y-235053666D01*
X316786952Y-235101285D01*
X316834571Y-235148904D01*
X316882190Y-235244142D01*
X316882190Y-235625095D01*
X316358380Y-234720333D02*
X316358380Y-234101285D01*
X316739333Y-234434619D01*
X316739333Y-234291761D01*
X316786952Y-234196523D01*
X316834571Y-234148904D01*
X316929809Y-234101285D01*
X317167904Y-234101285D01*
X317263142Y-234148904D01*
X317310761Y-234196523D01*
X317358380Y-234291761D01*
X317358380Y-234577476D01*
X317310761Y-234672714D01*
X317263142Y-234720333D01*
%TO.C,R2*%
X367083333Y-250845580D02*
X366750000Y-250369390D01*
X366511904Y-250845580D02*
X366511904Y-249845580D01*
X366892857Y-249845580D01*
X366988095Y-249893200D01*
X367035714Y-249940819D01*
X367083333Y-250036057D01*
X367083333Y-250178914D01*
X367035714Y-250274152D01*
X366988095Y-250321771D01*
X366892857Y-250369390D01*
X366511904Y-250369390D01*
X367464285Y-249940819D02*
X367511904Y-249893200D01*
X367607142Y-249845580D01*
X367845238Y-249845580D01*
X367940476Y-249893200D01*
X367988095Y-249940819D01*
X368035714Y-250036057D01*
X368035714Y-250131295D01*
X367988095Y-250274152D01*
X367416666Y-250845580D01*
X368035714Y-250845580D01*
%TO.C,R1*%
X376616933Y-250032780D02*
X376283600Y-249556590D01*
X376045504Y-250032780D02*
X376045504Y-249032780D01*
X376426457Y-249032780D01*
X376521695Y-249080400D01*
X376569314Y-249128019D01*
X376616933Y-249223257D01*
X376616933Y-249366114D01*
X376569314Y-249461352D01*
X376521695Y-249508971D01*
X376426457Y-249556590D01*
X376045504Y-249556590D01*
X377569314Y-250032780D02*
X376997885Y-250032780D01*
X377283600Y-250032780D02*
X377283600Y-249032780D01*
X377188361Y-249175638D01*
X377093123Y-249270876D01*
X376997885Y-249318495D01*
%TO.C,Q1*%
X372116361Y-250331219D02*
X372021123Y-250283600D01*
X371925885Y-250188361D01*
X371783028Y-250045504D01*
X371687790Y-249997885D01*
X371592552Y-249997885D01*
X371640171Y-250235980D02*
X371544933Y-250188361D01*
X371449695Y-250093123D01*
X371402076Y-249902647D01*
X371402076Y-249569314D01*
X371449695Y-249378838D01*
X371544933Y-249283600D01*
X371640171Y-249235980D01*
X371830647Y-249235980D01*
X371925885Y-249283600D01*
X372021123Y-249378838D01*
X372068742Y-249569314D01*
X372068742Y-249902647D01*
X372021123Y-250093123D01*
X371925885Y-250188361D01*
X371830647Y-250235980D01*
X371640171Y-250235980D01*
X373021123Y-250235980D02*
X372449695Y-250235980D01*
X372735409Y-250235980D02*
X372735409Y-249235980D01*
X372640171Y-249378838D01*
X372544933Y-249474076D01*
X372449695Y-249521695D01*
%TO.C,H19*%
X393858904Y-252124180D02*
X393858904Y-251124180D01*
X393858904Y-251600371D02*
X394430333Y-251600371D01*
X394430333Y-252124180D02*
X394430333Y-251124180D01*
X395430333Y-252124180D02*
X394858904Y-252124180D01*
X395144619Y-252124180D02*
X395144619Y-251124180D01*
X395049380Y-251267038D01*
X394954142Y-251362276D01*
X394858904Y-251409895D01*
X395906523Y-252124180D02*
X396097000Y-252124180D01*
X396192238Y-252076561D01*
X396239857Y-252028942D01*
X396335095Y-251886085D01*
X396382714Y-251695609D01*
X396382714Y-251314657D01*
X396335095Y-251219419D01*
X396287476Y-251171800D01*
X396192238Y-251124180D01*
X396001761Y-251124180D01*
X395906523Y-251171800D01*
X395858904Y-251219419D01*
X395811285Y-251314657D01*
X395811285Y-251552752D01*
X395858904Y-251647990D01*
X395906523Y-251695609D01*
X396001761Y-251743228D01*
X396192238Y-251743228D01*
X396287476Y-251695609D01*
X396335095Y-251647990D01*
X396382714Y-251552752D01*
%TO.C,H18*%
X466955024Y-229387780D02*
X466955024Y-228387780D01*
X466955024Y-228863971D02*
X467526453Y-228863971D01*
X467526453Y-229387780D02*
X467526453Y-228387780D01*
X468526453Y-229387780D02*
X467955024Y-229387780D01*
X468240739Y-229387780D02*
X468240739Y-228387780D01*
X468145500Y-228530638D01*
X468050262Y-228625876D01*
X467955024Y-228673495D01*
X469097881Y-228816352D02*
X469002643Y-228768733D01*
X468955024Y-228721114D01*
X468907405Y-228625876D01*
X468907405Y-228578257D01*
X468955024Y-228483019D01*
X469002643Y-228435400D01*
X469097881Y-228387780D01*
X469288358Y-228387780D01*
X469383596Y-228435400D01*
X469431215Y-228483019D01*
X469478834Y-228578257D01*
X469478834Y-228625876D01*
X469431215Y-228721114D01*
X469383596Y-228768733D01*
X469288358Y-228816352D01*
X469097881Y-228816352D01*
X469002643Y-228863971D01*
X468955024Y-228911590D01*
X468907405Y-229006828D01*
X468907405Y-229197304D01*
X468955024Y-229292542D01*
X469002643Y-229340161D01*
X469097881Y-229387780D01*
X469288358Y-229387780D01*
X469383596Y-229340161D01*
X469431215Y-229292542D01*
X469478834Y-229197304D01*
X469478834Y-229006828D01*
X469431215Y-228911590D01*
X469383596Y-228863971D01*
X469288358Y-228816352D01*
%TO.C,H17*%
X466934704Y-255879980D02*
X466934704Y-254879980D01*
X466934704Y-255356171D02*
X467506133Y-255356171D01*
X467506133Y-255879980D02*
X467506133Y-254879980D01*
X468506133Y-255879980D02*
X467934704Y-255879980D01*
X468220419Y-255879980D02*
X468220419Y-254879980D01*
X468125180Y-255022838D01*
X468029942Y-255118076D01*
X467934704Y-255165695D01*
X468839466Y-254879980D02*
X469506133Y-254879980D01*
X469077561Y-255879980D01*
%TO.C,H16*%
X305957124Y-229395400D02*
X305957124Y-228395400D01*
X305957124Y-228871591D02*
X306528553Y-228871591D01*
X306528553Y-229395400D02*
X306528553Y-228395400D01*
X307528553Y-229395400D02*
X306957124Y-229395400D01*
X307242839Y-229395400D02*
X307242839Y-228395400D01*
X307147600Y-228538258D01*
X307052362Y-228633496D01*
X306957124Y-228681115D01*
X308385696Y-228395400D02*
X308195220Y-228395400D01*
X308099981Y-228443020D01*
X308052362Y-228490639D01*
X307957124Y-228633496D01*
X307909505Y-228823972D01*
X307909505Y-229204924D01*
X307957124Y-229300162D01*
X308004743Y-229347781D01*
X308099981Y-229395400D01*
X308290458Y-229395400D01*
X308385696Y-229347781D01*
X308433315Y-229300162D01*
X308480934Y-229204924D01*
X308480934Y-228966829D01*
X308433315Y-228871591D01*
X308385696Y-228823972D01*
X308290458Y-228776353D01*
X308099981Y-228776353D01*
X308004743Y-228823972D01*
X307957124Y-228871591D01*
X307909505Y-228966829D01*
%TO.C,H15*%
X305961904Y-255902380D02*
X305961904Y-254902380D01*
X305961904Y-255378571D02*
X306533333Y-255378571D01*
X306533333Y-255902380D02*
X306533333Y-254902380D01*
X307533333Y-255902380D02*
X306961904Y-255902380D01*
X307247619Y-255902380D02*
X307247619Y-254902380D01*
X307152380Y-255045238D01*
X307057142Y-255140476D01*
X306961904Y-255188095D01*
X308438095Y-254902380D02*
X307961904Y-254902380D01*
X307914285Y-255378571D01*
X307961904Y-255330952D01*
X308057142Y-255283333D01*
X308295238Y-255283333D01*
X308390476Y-255330952D01*
X308438095Y-255378571D01*
X308485714Y-255473809D01*
X308485714Y-255711904D01*
X308438095Y-255807142D01*
X308390476Y-255854761D01*
X308295238Y-255902380D01*
X308057142Y-255902380D01*
X307961904Y-255854761D01*
X307914285Y-255807142D01*
%TO.C,C9*%
X435108333Y-257957142D02*
X435060714Y-258004761D01*
X434917857Y-258052380D01*
X434822619Y-258052380D01*
X434679761Y-258004761D01*
X434584523Y-257909523D01*
X434536904Y-257814285D01*
X434489285Y-257623809D01*
X434489285Y-257480952D01*
X434536904Y-257290476D01*
X434584523Y-257195238D01*
X434679761Y-257100000D01*
X434822619Y-257052380D01*
X434917857Y-257052380D01*
X435060714Y-257100000D01*
X435108333Y-257147619D01*
X435584523Y-258052380D02*
X435775000Y-258052380D01*
X435870238Y-258004761D01*
X435917857Y-257957142D01*
X436013095Y-257814285D01*
X436060714Y-257623809D01*
X436060714Y-257242857D01*
X436013095Y-257147619D01*
X435965476Y-257100000D01*
X435870238Y-257052380D01*
X435679761Y-257052380D01*
X435584523Y-257100000D01*
X435536904Y-257147619D01*
X435489285Y-257242857D01*
X435489285Y-257480952D01*
X435536904Y-257576190D01*
X435584523Y-257623809D01*
X435679761Y-257671428D01*
X435870238Y-257671428D01*
X435965476Y-257623809D01*
X436013095Y-257576190D01*
X436060714Y-257480952D01*
%TO.C,C13*%
X427907142Y-251642857D02*
X427954761Y-251690476D01*
X428002380Y-251833333D01*
X428002380Y-251928571D01*
X427954761Y-252071428D01*
X427859523Y-252166666D01*
X427764285Y-252214285D01*
X427573809Y-252261904D01*
X427430952Y-252261904D01*
X427240476Y-252214285D01*
X427145238Y-252166666D01*
X427050000Y-252071428D01*
X427002380Y-251928571D01*
X427002380Y-251833333D01*
X427050000Y-251690476D01*
X427097619Y-251642857D01*
X428002380Y-250690476D02*
X428002380Y-251261904D01*
X428002380Y-250976190D02*
X427002380Y-250976190D01*
X427145238Y-251071428D01*
X427240476Y-251166666D01*
X427288095Y-251261904D01*
X427002380Y-250357142D02*
X427002380Y-249738095D01*
X427383333Y-250071428D01*
X427383333Y-249928571D01*
X427430952Y-249833333D01*
X427478571Y-249785714D01*
X427573809Y-249738095D01*
X427811904Y-249738095D01*
X427907142Y-249785714D01*
X427954761Y-249833333D01*
X428002380Y-249928571D01*
X428002380Y-250214285D01*
X427954761Y-250309523D01*
X427907142Y-250357142D01*
%TO.C,C14*%
X404757142Y-234157142D02*
X404709523Y-234204761D01*
X404566666Y-234252380D01*
X404471428Y-234252380D01*
X404328571Y-234204761D01*
X404233333Y-234109523D01*
X404185714Y-234014285D01*
X404138095Y-233823809D01*
X404138095Y-233680952D01*
X404185714Y-233490476D01*
X404233333Y-233395238D01*
X404328571Y-233300000D01*
X404471428Y-233252380D01*
X404566666Y-233252380D01*
X404709523Y-233300000D01*
X404757142Y-233347619D01*
X405709523Y-234252380D02*
X405138095Y-234252380D01*
X405423809Y-234252380D02*
X405423809Y-233252380D01*
X405328571Y-233395238D01*
X405233333Y-233490476D01*
X405138095Y-233538095D01*
X406566666Y-233585714D02*
X406566666Y-234252380D01*
X406328571Y-233204761D02*
X406090476Y-233919047D01*
X406709523Y-233919047D01*
%TO.C,H4*%
X463194495Y-239985180D02*
X463194495Y-238985180D01*
X463194495Y-239461371D02*
X463765923Y-239461371D01*
X463765923Y-239985180D02*
X463765923Y-238985180D01*
X464670685Y-239318514D02*
X464670685Y-239985180D01*
X464432590Y-238937561D02*
X464194495Y-239651847D01*
X464813542Y-239651847D01*
%TO.C,H3*%
X447294095Y-240002380D02*
X447294095Y-239002380D01*
X447294095Y-239478571D02*
X447865523Y-239478571D01*
X447865523Y-240002380D02*
X447865523Y-239002380D01*
X448246476Y-239002380D02*
X448865523Y-239002380D01*
X448532190Y-239383333D01*
X448675047Y-239383333D01*
X448770285Y-239430952D01*
X448817904Y-239478571D01*
X448865523Y-239573809D01*
X448865523Y-239811904D01*
X448817904Y-239907142D01*
X448770285Y-239954761D01*
X448675047Y-240002380D01*
X448389333Y-240002380D01*
X448294095Y-239954761D01*
X448246476Y-239907142D01*
%TO.C,H2*%
X447319495Y-247960780D02*
X447319495Y-246960780D01*
X447319495Y-247436971D02*
X447890923Y-247436971D01*
X447890923Y-247960780D02*
X447890923Y-246960780D01*
X448319495Y-247056019D02*
X448367114Y-247008400D01*
X448462352Y-246960780D01*
X448700447Y-246960780D01*
X448795685Y-247008400D01*
X448843304Y-247056019D01*
X448890923Y-247151257D01*
X448890923Y-247246495D01*
X448843304Y-247389352D01*
X448271876Y-247960780D01*
X448890923Y-247960780D01*
%TO.C,H1*%
X463194495Y-247960780D02*
X463194495Y-246960780D01*
X463194495Y-247436971D02*
X463765923Y-247436971D01*
X463765923Y-247960780D02*
X463765923Y-246960780D01*
X464765923Y-247960780D02*
X464194495Y-247960780D01*
X464480209Y-247960780D02*
X464480209Y-246960780D01*
X464384971Y-247103638D01*
X464289733Y-247198876D01*
X464194495Y-247246495D01*
%TO.C,C12*%
X427857142Y-247842857D02*
X427904761Y-247890476D01*
X427952380Y-248033333D01*
X427952380Y-248128571D01*
X427904761Y-248271428D01*
X427809523Y-248366666D01*
X427714285Y-248414285D01*
X427523809Y-248461904D01*
X427380952Y-248461904D01*
X427190476Y-248414285D01*
X427095238Y-248366666D01*
X427000000Y-248271428D01*
X426952380Y-248128571D01*
X426952380Y-248033333D01*
X427000000Y-247890476D01*
X427047619Y-247842857D01*
X427952380Y-246890476D02*
X427952380Y-247461904D01*
X427952380Y-247176190D02*
X426952380Y-247176190D01*
X427095238Y-247271428D01*
X427190476Y-247366666D01*
X427238095Y-247461904D01*
X427047619Y-246509523D02*
X427000000Y-246461904D01*
X426952380Y-246366666D01*
X426952380Y-246128571D01*
X427000000Y-246033333D01*
X427047619Y-245985714D01*
X427142857Y-245938095D01*
X427238095Y-245938095D01*
X427380952Y-245985714D01*
X427952380Y-246557142D01*
X427952380Y-245938095D01*
%TO.C,C11*%
X439757142Y-257957142D02*
X439709523Y-258004761D01*
X439566666Y-258052380D01*
X439471428Y-258052380D01*
X439328571Y-258004761D01*
X439233333Y-257909523D01*
X439185714Y-257814285D01*
X439138095Y-257623809D01*
X439138095Y-257480952D01*
X439185714Y-257290476D01*
X439233333Y-257195238D01*
X439328571Y-257100000D01*
X439471428Y-257052380D01*
X439566666Y-257052380D01*
X439709523Y-257100000D01*
X439757142Y-257147619D01*
X440709523Y-258052380D02*
X440138095Y-258052380D01*
X440423809Y-258052380D02*
X440423809Y-257052380D01*
X440328571Y-257195238D01*
X440233333Y-257290476D01*
X440138095Y-257338095D01*
X441661904Y-258052380D02*
X441090476Y-258052380D01*
X441376190Y-258052380D02*
X441376190Y-257052380D01*
X441280952Y-257195238D01*
X441185714Y-257290476D01*
X441090476Y-257338095D01*
%TO.C,U1*%
X435700595Y-252202380D02*
X435700595Y-253011904D01*
X435748214Y-253107142D01*
X435795833Y-253154761D01*
X435891071Y-253202380D01*
X436081547Y-253202380D01*
X436176785Y-253154761D01*
X436224404Y-253107142D01*
X436272023Y-253011904D01*
X436272023Y-252202380D01*
X437272023Y-253202380D02*
X436700595Y-253202380D01*
X436986309Y-253202380D02*
X436986309Y-252202380D01*
X436891071Y-252345238D01*
X436795833Y-252440476D01*
X436700595Y-252488095D01*
%TO.C,C8*%
X332358333Y-231007142D02*
X332310714Y-231054761D01*
X332167857Y-231102380D01*
X332072619Y-231102380D01*
X331929761Y-231054761D01*
X331834523Y-230959523D01*
X331786904Y-230864285D01*
X331739285Y-230673809D01*
X331739285Y-230530952D01*
X331786904Y-230340476D01*
X331834523Y-230245238D01*
X331929761Y-230150000D01*
X332072619Y-230102380D01*
X332167857Y-230102380D01*
X332310714Y-230150000D01*
X332358333Y-230197619D01*
X332929761Y-230530952D02*
X332834523Y-230483333D01*
X332786904Y-230435714D01*
X332739285Y-230340476D01*
X332739285Y-230292857D01*
X332786904Y-230197619D01*
X332834523Y-230150000D01*
X332929761Y-230102380D01*
X333120238Y-230102380D01*
X333215476Y-230150000D01*
X333263095Y-230197619D01*
X333310714Y-230292857D01*
X333310714Y-230340476D01*
X333263095Y-230435714D01*
X333215476Y-230483333D01*
X333120238Y-230530952D01*
X332929761Y-230530952D01*
X332834523Y-230578571D01*
X332786904Y-230626190D01*
X332739285Y-230721428D01*
X332739285Y-230911904D01*
X332786904Y-231007142D01*
X332834523Y-231054761D01*
X332929761Y-231102380D01*
X333120238Y-231102380D01*
X333215476Y-231054761D01*
X333263095Y-231007142D01*
X333310714Y-230911904D01*
X333310714Y-230721428D01*
X333263095Y-230626190D01*
X333215476Y-230578571D01*
X333120238Y-230530952D01*
%TO.C,C7*%
X427857142Y-242491666D02*
X427904761Y-242539285D01*
X427952380Y-242682142D01*
X427952380Y-242777380D01*
X427904761Y-242920238D01*
X427809523Y-243015476D01*
X427714285Y-243063095D01*
X427523809Y-243110714D01*
X427380952Y-243110714D01*
X427190476Y-243063095D01*
X427095238Y-243015476D01*
X427000000Y-242920238D01*
X426952380Y-242777380D01*
X426952380Y-242682142D01*
X427000000Y-242539285D01*
X427047619Y-242491666D01*
X426952380Y-242158333D02*
X426952380Y-241491666D01*
X427952380Y-241920238D01*
%TO.C,C2*%
X332358333Y-240757142D02*
X332310714Y-240804761D01*
X332167857Y-240852380D01*
X332072619Y-240852380D01*
X331929761Y-240804761D01*
X331834523Y-240709523D01*
X331786904Y-240614285D01*
X331739285Y-240423809D01*
X331739285Y-240280952D01*
X331786904Y-240090476D01*
X331834523Y-239995238D01*
X331929761Y-239900000D01*
X332072619Y-239852380D01*
X332167857Y-239852380D01*
X332310714Y-239900000D01*
X332358333Y-239947619D01*
X332739285Y-239947619D02*
X332786904Y-239900000D01*
X332882142Y-239852380D01*
X333120238Y-239852380D01*
X333215476Y-239900000D01*
X333263095Y-239947619D01*
X333310714Y-240042857D01*
X333310714Y-240138095D01*
X333263095Y-240280952D01*
X332691666Y-240852380D01*
X333310714Y-240852380D01*
%TO.C,C1*%
X333768833Y-246016242D02*
X333721214Y-246063861D01*
X333578357Y-246111480D01*
X333483119Y-246111480D01*
X333340261Y-246063861D01*
X333245023Y-245968623D01*
X333197404Y-245873385D01*
X333149785Y-245682909D01*
X333149785Y-245540052D01*
X333197404Y-245349576D01*
X333245023Y-245254338D01*
X333340261Y-245159100D01*
X333483119Y-245111480D01*
X333578357Y-245111480D01*
X333721214Y-245159100D01*
X333768833Y-245206719D01*
X334721214Y-246111480D02*
X334149785Y-246111480D01*
X334435500Y-246111480D02*
X334435500Y-245111480D01*
X334340261Y-245254338D01*
X334245023Y-245349576D01*
X334149785Y-245397195D01*
%TO.C,D53*%
X460611780Y-239364285D02*
X459611780Y-239364285D01*
X459611780Y-239126190D01*
X459659400Y-238983333D01*
X459754638Y-238888095D01*
X459849876Y-238840476D01*
X460040352Y-238792857D01*
X460183209Y-238792857D01*
X460373685Y-238840476D01*
X460468923Y-238888095D01*
X460564161Y-238983333D01*
X460611780Y-239126190D01*
X460611780Y-239364285D01*
X459611780Y-237888095D02*
X459611780Y-238364285D01*
X460087971Y-238411904D01*
X460040352Y-238364285D01*
X459992733Y-238269047D01*
X459992733Y-238030952D01*
X460040352Y-237935714D01*
X460087971Y-237888095D01*
X460183209Y-237840476D01*
X460421304Y-237840476D01*
X460516542Y-237888095D01*
X460564161Y-237935714D01*
X460611780Y-238030952D01*
X460611780Y-238269047D01*
X460564161Y-238364285D01*
X460516542Y-238411904D01*
X459611780Y-237507142D02*
X459611780Y-236888095D01*
X459992733Y-237221428D01*
X459992733Y-237078571D01*
X460040352Y-236983333D01*
X460087971Y-236935714D01*
X460183209Y-236888095D01*
X460421304Y-236888095D01*
X460516542Y-236935714D01*
X460564161Y-236983333D01*
X460611780Y-237078571D01*
X460611780Y-237364285D01*
X460564161Y-237459523D01*
X460516542Y-237507142D01*
%TO.C,D52*%
X456561780Y-239464285D02*
X455561780Y-239464285D01*
X455561780Y-239226190D01*
X455609400Y-239083333D01*
X455704638Y-238988095D01*
X455799876Y-238940476D01*
X455990352Y-238892857D01*
X456133209Y-238892857D01*
X456323685Y-238940476D01*
X456418923Y-238988095D01*
X456514161Y-239083333D01*
X456561780Y-239226190D01*
X456561780Y-239464285D01*
X455561780Y-237988095D02*
X455561780Y-238464285D01*
X456037971Y-238511904D01*
X455990352Y-238464285D01*
X455942733Y-238369047D01*
X455942733Y-238130952D01*
X455990352Y-238035714D01*
X456037971Y-237988095D01*
X456133209Y-237940476D01*
X456371304Y-237940476D01*
X456466542Y-237988095D01*
X456514161Y-238035714D01*
X456561780Y-238130952D01*
X456561780Y-238369047D01*
X456514161Y-238464285D01*
X456466542Y-238511904D01*
X455657019Y-237559523D02*
X455609400Y-237511904D01*
X455561780Y-237416666D01*
X455561780Y-237178571D01*
X455609400Y-237083333D01*
X455657019Y-237035714D01*
X455752257Y-236988095D01*
X455847495Y-236988095D01*
X455990352Y-237035714D01*
X456561780Y-237607142D01*
X456561780Y-236988095D01*
%TO.C,J5*%
X373420840Y-228511693D02*
X374135126Y-228511693D01*
X374277983Y-228559312D01*
X374373221Y-228654550D01*
X374420840Y-228797407D01*
X374420840Y-228892645D01*
X373420840Y-227559312D02*
X373420840Y-228035502D01*
X373897031Y-228083121D01*
X373849412Y-228035502D01*
X373801793Y-227940264D01*
X373801793Y-227702169D01*
X373849412Y-227606931D01*
X373897031Y-227559312D01*
X373992269Y-227511693D01*
X374230364Y-227511693D01*
X374325602Y-227559312D01*
X374373221Y-227606931D01*
X374420840Y-227702169D01*
X374420840Y-227940264D01*
X374373221Y-228035502D01*
X374325602Y-228083121D01*
%TO.C,Y2*%
X343497109Y-249797990D02*
X343497109Y-250274180D01*
X343163776Y-249274180D02*
X343497109Y-249797990D01*
X343830442Y-249274180D01*
X344116157Y-249369419D02*
X344163776Y-249321800D01*
X344259014Y-249274180D01*
X344497109Y-249274180D01*
X344592347Y-249321800D01*
X344639966Y-249369419D01*
X344687585Y-249464657D01*
X344687585Y-249559895D01*
X344639966Y-249702752D01*
X344068538Y-250274180D01*
X344687585Y-250274180D01*
%TO.C,D7*%
X460561780Y-256588095D02*
X459561780Y-256588095D01*
X459561780Y-256350000D01*
X459609400Y-256207142D01*
X459704638Y-256111904D01*
X459799876Y-256064285D01*
X459990352Y-256016666D01*
X460133209Y-256016666D01*
X460323685Y-256064285D01*
X460418923Y-256111904D01*
X460514161Y-256207142D01*
X460561780Y-256350000D01*
X460561780Y-256588095D01*
X459561780Y-255683333D02*
X459561780Y-255016666D01*
X460561780Y-255445238D01*
%TO.C,D6*%
X456561780Y-256388095D02*
X455561780Y-256388095D01*
X455561780Y-256150000D01*
X455609400Y-256007142D01*
X455704638Y-255911904D01*
X455799876Y-255864285D01*
X455990352Y-255816666D01*
X456133209Y-255816666D01*
X456323685Y-255864285D01*
X456418923Y-255911904D01*
X456514161Y-256007142D01*
X456561780Y-256150000D01*
X456561780Y-256388095D01*
X455561780Y-254959523D02*
X455561780Y-255150000D01*
X455609400Y-255245238D01*
X455657019Y-255292857D01*
X455799876Y-255388095D01*
X455990352Y-255435714D01*
X456371304Y-255435714D01*
X456466542Y-255388095D01*
X456514161Y-255340476D01*
X456561780Y-255245238D01*
X456561780Y-255054761D01*
X456514161Y-254959523D01*
X456466542Y-254911904D01*
X456371304Y-254864285D01*
X456133209Y-254864285D01*
X456037971Y-254911904D01*
X455990352Y-254959523D01*
X455942733Y-255054761D01*
X455942733Y-255245238D01*
X455990352Y-255340476D01*
X456037971Y-255388095D01*
X456133209Y-255435714D01*
%TO.C,D5*%
X452586380Y-256438095D02*
X451586380Y-256438095D01*
X451586380Y-256200000D01*
X451634000Y-256057142D01*
X451729238Y-255961904D01*
X451824476Y-255914285D01*
X452014952Y-255866666D01*
X452157809Y-255866666D01*
X452348285Y-255914285D01*
X452443523Y-255961904D01*
X452538761Y-256057142D01*
X452586380Y-256200000D01*
X452586380Y-256438095D01*
X451586380Y-254961904D02*
X451586380Y-255438095D01*
X452062571Y-255485714D01*
X452014952Y-255438095D01*
X451967333Y-255342857D01*
X451967333Y-255104761D01*
X452014952Y-255009523D01*
X452062571Y-254961904D01*
X452157809Y-254914285D01*
X452395904Y-254914285D01*
X452491142Y-254961904D01*
X452538761Y-255009523D01*
X452586380Y-255104761D01*
X452586380Y-255342857D01*
X452538761Y-255438095D01*
X452491142Y-255485714D01*
%TO.C,J4*%
X393722380Y-228533333D02*
X394436666Y-228533333D01*
X394579523Y-228580952D01*
X394674761Y-228676190D01*
X394722380Y-228819047D01*
X394722380Y-228914285D01*
X394055714Y-227628571D02*
X394722380Y-227628571D01*
X393674761Y-227866666D02*
X394389047Y-228104761D01*
X394389047Y-227485714D01*
%TO.C,U2*%
X343986495Y-224706580D02*
X343986495Y-225516104D01*
X344034114Y-225611342D01*
X344081733Y-225658961D01*
X344176971Y-225706580D01*
X344367447Y-225706580D01*
X344462685Y-225658961D01*
X344510304Y-225611342D01*
X344557923Y-225516104D01*
X344557923Y-224706580D01*
X344986495Y-224801819D02*
X345034114Y-224754200D01*
X345129352Y-224706580D01*
X345367447Y-224706580D01*
X345462685Y-224754200D01*
X345510304Y-224801819D01*
X345557923Y-224897057D01*
X345557923Y-224992295D01*
X345510304Y-225135152D01*
X344938876Y-225706580D01*
X345557923Y-225706580D01*
%TO.C,J3*%
X365322380Y-235663333D02*
X366036666Y-235663333D01*
X366179523Y-235710952D01*
X366274761Y-235806190D01*
X366322380Y-235949047D01*
X366322380Y-236044285D01*
X365322380Y-235282380D02*
X365322380Y-234663333D01*
X365703333Y-234996666D01*
X365703333Y-234853809D01*
X365750952Y-234758571D01*
X365798571Y-234710952D01*
X365893809Y-234663333D01*
X366131904Y-234663333D01*
X366227142Y-234710952D01*
X366274761Y-234758571D01*
X366322380Y-234853809D01*
X366322380Y-235139523D01*
X366274761Y-235234761D01*
X366227142Y-235282380D01*
%TO.C,C6*%
X356528642Y-229060146D02*
X356576261Y-229107765D01*
X356623880Y-229250622D01*
X356623880Y-229345860D01*
X356576261Y-229488718D01*
X356481023Y-229583956D01*
X356385785Y-229631575D01*
X356195309Y-229679194D01*
X356052452Y-229679194D01*
X355861976Y-229631575D01*
X355766738Y-229583956D01*
X355671500Y-229488718D01*
X355623880Y-229345860D01*
X355623880Y-229250622D01*
X355671500Y-229107765D01*
X355719119Y-229060146D01*
X355623880Y-228203003D02*
X355623880Y-228393480D01*
X355671500Y-228488718D01*
X355719119Y-228536337D01*
X355861976Y-228631575D01*
X356052452Y-228679194D01*
X356433404Y-228679194D01*
X356528642Y-228631575D01*
X356576261Y-228583956D01*
X356623880Y-228488718D01*
X356623880Y-228298241D01*
X356576261Y-228203003D01*
X356528642Y-228155384D01*
X356433404Y-228107765D01*
X356195309Y-228107765D01*
X356100071Y-228155384D01*
X356052452Y-228203003D01*
X356004833Y-228298241D01*
X356004833Y-228488718D01*
X356052452Y-228583956D01*
X356100071Y-228631575D01*
X356195309Y-228679194D01*
%TO.C,C5*%
X332333333Y-235057142D02*
X332285714Y-235104761D01*
X332142857Y-235152380D01*
X332047619Y-235152380D01*
X331904761Y-235104761D01*
X331809523Y-235009523D01*
X331761904Y-234914285D01*
X331714285Y-234723809D01*
X331714285Y-234580952D01*
X331761904Y-234390476D01*
X331809523Y-234295238D01*
X331904761Y-234200000D01*
X332047619Y-234152380D01*
X332142857Y-234152380D01*
X332285714Y-234200000D01*
X332333333Y-234247619D01*
X333238095Y-234152380D02*
X332761904Y-234152380D01*
X332714285Y-234628571D01*
X332761904Y-234580952D01*
X332857142Y-234533333D01*
X333095238Y-234533333D01*
X333190476Y-234580952D01*
X333238095Y-234628571D01*
X333285714Y-234723809D01*
X333285714Y-234961904D01*
X333238095Y-235057142D01*
X333190476Y-235104761D01*
X333095238Y-235152380D01*
X332857142Y-235152380D01*
X332761904Y-235104761D01*
X332714285Y-235057142D01*
%TO.C,C4*%
X338879533Y-246003542D02*
X338831914Y-246051161D01*
X338689057Y-246098780D01*
X338593819Y-246098780D01*
X338450961Y-246051161D01*
X338355723Y-245955923D01*
X338308104Y-245860685D01*
X338260485Y-245670209D01*
X338260485Y-245527352D01*
X338308104Y-245336876D01*
X338355723Y-245241638D01*
X338450961Y-245146400D01*
X338593819Y-245098780D01*
X338689057Y-245098780D01*
X338831914Y-245146400D01*
X338879533Y-245194019D01*
X339736676Y-245432114D02*
X339736676Y-246098780D01*
X339498580Y-245051161D02*
X339260485Y-245765447D01*
X339879533Y-245765447D01*
%TO.C,C3*%
X348754833Y-246067042D02*
X348707214Y-246114661D01*
X348564357Y-246162280D01*
X348469119Y-246162280D01*
X348326261Y-246114661D01*
X348231023Y-246019423D01*
X348183404Y-245924185D01*
X348135785Y-245733709D01*
X348135785Y-245590852D01*
X348183404Y-245400376D01*
X348231023Y-245305138D01*
X348326261Y-245209900D01*
X348469119Y-245162280D01*
X348564357Y-245162280D01*
X348707214Y-245209900D01*
X348754833Y-245257519D01*
X349088166Y-245162280D02*
X349707214Y-245162280D01*
X349373880Y-245543233D01*
X349516738Y-245543233D01*
X349611976Y-245590852D01*
X349659595Y-245638471D01*
X349707214Y-245733709D01*
X349707214Y-245971804D01*
X349659595Y-246067042D01*
X349611976Y-246114661D01*
X349516738Y-246162280D01*
X349231023Y-246162280D01*
X349135785Y-246114661D01*
X349088166Y-246067042D01*
%TO.C,J1*%
X342516666Y-254102380D02*
X342516666Y-254816666D01*
X342469047Y-254959523D01*
X342373809Y-255054761D01*
X342230952Y-255102380D01*
X342135714Y-255102380D01*
X343516666Y-255102380D02*
X342945238Y-255102380D01*
X343230952Y-255102380D02*
X343230952Y-254102380D01*
X343135714Y-254245238D01*
X343040476Y-254340476D01*
X342945238Y-254388095D01*
%TD*%
M02*
