%TF.GenerationSoftware,KiCad,Pcbnew,7.0.2-0*%
%TF.CreationDate,2023-12-20T15:00:36+01:00*%
%TF.ProjectId,A500KBMini,41353030-4b42-44d6-996e-692e6b696361,3*%
%TF.SameCoordinates,Original*%
%TF.FileFunction,Soldermask,Top*%
%TF.FilePolarity,Negative*%
%FSLAX46Y46*%
G04 Gerber Fmt 4.6, Leading zero omitted, Abs format (unit mm)*
G04 Created by KiCad (PCBNEW 7.0.2-0) date 2023-12-20 15:00:36*
%MOMM*%
%LPD*%
G01*
G04 APERTURE LIST*
G04 Aperture macros list*
%AMRoundRect*
0 Rectangle with rounded corners*
0 $1 Rounding radius*
0 $2 $3 $4 $5 $6 $7 $8 $9 X,Y pos of 4 corners*
0 Add a 4 corners polygon primitive as box body*
4,1,4,$2,$3,$4,$5,$6,$7,$8,$9,$2,$3,0*
0 Add four circle primitives for the rounded corners*
1,1,$1+$1,$2,$3*
1,1,$1+$1,$4,$5*
1,1,$1+$1,$6,$7*
1,1,$1+$1,$8,$9*
0 Add four rect primitives between the rounded corners*
20,1,$1+$1,$2,$3,$4,$5,0*
20,1,$1+$1,$4,$5,$6,$7,0*
20,1,$1+$1,$6,$7,$8,$9,0*
20,1,$1+$1,$8,$9,$2,$3,0*%
G04 Aperture macros list end*
%ADD10C,4.300000*%
%ADD11RoundRect,0.050000X-0.400000X1.375000X-0.400000X-1.375000X0.400000X-1.375000X0.400000X1.375000X0*%
%ADD12C,2.500000*%
%ADD13C,3.200000*%
%ADD14O,1.300000X2.000000*%
%ADD15C,1.550000*%
%ADD16RoundRect,0.300000X-0.450000X0.325000X-0.450000X-0.325000X0.450000X-0.325000X0.450000X0.325000X0*%
%ADD17RoundRect,0.300000X-0.325000X-0.450000X0.325000X-0.450000X0.325000X0.450000X-0.325000X0.450000X0*%
%ADD18RoundRect,0.300000X0.325000X0.450000X-0.325000X0.450000X-0.325000X-0.450000X0.325000X-0.450000X0*%
%ADD19RoundRect,0.300000X1.412500X0.550000X-1.412500X0.550000X-1.412500X-0.550000X1.412500X-0.550000X0*%
%ADD20RoundRect,0.300000X0.450000X-0.325000X0.450000X0.325000X-0.450000X0.325000X-0.450000X-0.325000X0*%
%ADD21RoundRect,0.050000X0.450000X0.400000X-0.450000X0.400000X-0.450000X-0.400000X0.450000X-0.400000X0*%
%ADD22RoundRect,0.125000X0.075000X0.662500X-0.075000X0.662500X-0.075000X-0.662500X0.075000X-0.662500X0*%
%ADD23RoundRect,0.125000X0.662500X0.075000X-0.662500X0.075000X-0.662500X-0.075000X0.662500X-0.075000X0*%
%ADD24RoundRect,0.300000X2.250000X2.250000X-2.250000X2.250000X-2.250000X-2.250000X2.250000X-2.250000X0*%
%ADD25C,1.300000*%
%ADD26RoundRect,0.050000X-0.600000X-0.600000X0.600000X-0.600000X0.600000X0.600000X-0.600000X0.600000X0*%
%ADD27O,1.800000X1.800000*%
%ADD28RoundRect,0.050000X0.850000X-0.850000X0.850000X0.850000X-0.850000X0.850000X-0.850000X-0.850000X0*%
%ADD29RoundRect,0.050000X0.850000X1.200000X-0.850000X1.200000X-0.850000X-1.200000X0.850000X-1.200000X0*%
%ADD30RoundRect,0.050000X0.400000X-1.375000X0.400000X1.375000X-0.400000X1.375000X-0.400000X-1.375000X0*%
%ADD31RoundRect,0.050000X0.275000X-0.750000X0.275000X0.750000X-0.275000X0.750000X-0.275000X-0.750000X0*%
%ADD32RoundRect,0.050000X-0.750000X-0.275000X0.750000X-0.275000X0.750000X0.275000X-0.750000X0.275000X0*%
%ADD33C,1.700000*%
G04 APERTURE END LIST*
D10*
%TO.C,H26*%
X386402580Y-226021900D03*
%TD*%
D11*
%TO.C,D51*%
X451383400Y-241187500D03*
X451383400Y-245687500D03*
X452783400Y-245687500D03*
X452783400Y-241187500D03*
%TD*%
D12*
%TO.C,H25*%
X465376260Y-238102140D03*
%TD*%
%TO.C,H24*%
X445394080Y-257342640D03*
%TD*%
D13*
%TO.C,H23*%
X312681620Y-258340860D03*
%TD*%
%TO.C,H22*%
X462699100Y-258343400D03*
%TD*%
D14*
%TO.C,J2*%
X323450000Y-224150000D03*
X316450000Y-224150000D03*
D15*
X322450000Y-226850000D03*
X317450000Y-226850000D03*
%TD*%
D16*
%TO.C,R16*%
X360885740Y-229834440D03*
X360885740Y-227784440D03*
%TD*%
%TO.C,R15*%
X364111540Y-229857520D03*
X364111540Y-227807520D03*
%TD*%
D17*
%TO.C,R14*%
X408323000Y-241554000D03*
X406273000Y-241554000D03*
%TD*%
%TO.C,R13*%
X414147000Y-241554000D03*
X412097000Y-241554000D03*
%TD*%
D18*
%TO.C,R12*%
X418338000Y-229870000D03*
X420388000Y-229870000D03*
%TD*%
D16*
%TO.C,R11*%
X363982000Y-237490000D03*
X363982000Y-235440000D03*
%TD*%
%TO.C,R10*%
X361696000Y-237499000D03*
X361696000Y-235449000D03*
%TD*%
D18*
%TO.C,R9*%
X418329000Y-232410000D03*
X420379000Y-232410000D03*
%TD*%
%TO.C,R8*%
X418329000Y-234950000D03*
X420379000Y-234950000D03*
%TD*%
D19*
%TO.C,C16*%
X419100000Y-241550000D03*
X424175000Y-241550000D03*
%TD*%
%TO.C,C15*%
X419100000Y-249650000D03*
X424175000Y-249650000D03*
%TD*%
D17*
%TO.C,R7*%
X431050000Y-253700000D03*
X429000000Y-253700000D03*
%TD*%
D18*
%TO.C,R6*%
X409325000Y-232200000D03*
X411375000Y-232200000D03*
%TD*%
%TO.C,R5*%
X370025000Y-240900000D03*
X372075000Y-240900000D03*
%TD*%
D20*
%TO.C,R4*%
X321050000Y-233900000D03*
X321050000Y-235950000D03*
%TD*%
%TO.C,R3*%
X318700000Y-233900000D03*
X318700000Y-235950000D03*
%TD*%
D17*
%TO.C,R2*%
X368275000Y-252100000D03*
X366225000Y-252100000D03*
%TD*%
D20*
%TO.C,R1*%
X376800000Y-251050000D03*
X376800000Y-253100000D03*
%TD*%
D21*
%TO.C,Q1*%
X371250000Y-252100000D03*
X373250000Y-251150000D03*
X373250000Y-253050000D03*
%TD*%
D10*
%TO.C,H19*%
X395097000Y-256971800D03*
%TD*%
D12*
%TO.C,H18*%
X468193120Y-232435400D03*
%TD*%
%TO.C,H17*%
X468172800Y-258927600D03*
%TD*%
%TO.C,H16*%
X307195220Y-232443020D03*
%TD*%
%TO.C,H15*%
X307200000Y-258950000D03*
%TD*%
D18*
%TO.C,C9*%
X434250000Y-255950000D03*
X436300000Y-255950000D03*
%TD*%
%TO.C,C13*%
X429025000Y-251050000D03*
X431075000Y-251050000D03*
%TD*%
D17*
%TO.C,C14*%
X406375000Y-232200000D03*
X404325000Y-232200000D03*
%TD*%
D13*
%TO.C,H4*%
X463956400Y-243382800D03*
%TD*%
%TO.C,H3*%
X448056000Y-243400000D03*
%TD*%
%TO.C,H2*%
X448081400Y-251358400D03*
%TD*%
%TO.C,H1*%
X463956400Y-251358400D03*
%TD*%
D16*
%TO.C,C12*%
X429150000Y-248200000D03*
X429150000Y-246150000D03*
%TD*%
D17*
%TO.C,C11*%
X441450000Y-255950000D03*
X439400000Y-255950000D03*
%TD*%
D22*
%TO.C,U1*%
X439212500Y-251062500D03*
X438712500Y-251062500D03*
X438212500Y-251062500D03*
X437712500Y-251062500D03*
X437212500Y-251062500D03*
X436712500Y-251062500D03*
X436212500Y-251062500D03*
X435712500Y-251062500D03*
X435212500Y-251062500D03*
X434712500Y-251062500D03*
X434212500Y-251062500D03*
X433712500Y-251062500D03*
D23*
X432300000Y-249650000D03*
X432300000Y-249150000D03*
X432300000Y-248650000D03*
X432300000Y-248150000D03*
X432300000Y-247650000D03*
X432300000Y-247150000D03*
X432300000Y-246650000D03*
X432300000Y-246150000D03*
X432300000Y-245650000D03*
X432300000Y-245150000D03*
X432300000Y-244650000D03*
X432300000Y-244150000D03*
D22*
X433712500Y-242737500D03*
X434212500Y-242737500D03*
X434712500Y-242737500D03*
X435212500Y-242737500D03*
X435712500Y-242737500D03*
X436212500Y-242737500D03*
X436712500Y-242737500D03*
X437212500Y-242737500D03*
X437712500Y-242737500D03*
X438212500Y-242737500D03*
X438712500Y-242737500D03*
X439212500Y-242737500D03*
D23*
X440625000Y-244150000D03*
X440625000Y-244650000D03*
X440625000Y-245150000D03*
X440625000Y-245650000D03*
X440625000Y-246150000D03*
X440625000Y-246650000D03*
X440625000Y-247150000D03*
X440625000Y-247650000D03*
X440625000Y-248150000D03*
X440625000Y-248650000D03*
X440625000Y-249150000D03*
X440625000Y-249650000D03*
D24*
X436462500Y-246900000D03*
%TD*%
D18*
%TO.C,C8*%
X331500000Y-229000000D03*
X333550000Y-229000000D03*
%TD*%
D20*
%TO.C,C7*%
X429150000Y-241300000D03*
X429150000Y-243350000D03*
%TD*%
D17*
%TO.C,C2*%
X333550000Y-242050000D03*
X331500000Y-242050000D03*
%TD*%
%TO.C,C1*%
X334960500Y-247309100D03*
X332910500Y-247309100D03*
%TD*%
D11*
%TO.C,D53*%
X459447200Y-241167200D03*
X459447200Y-245667200D03*
X460847200Y-245667200D03*
X460847200Y-241167200D03*
%TD*%
%TO.C,D52*%
X455395900Y-241179900D03*
X455395900Y-245679900D03*
X456795900Y-245679900D03*
X456795900Y-241179900D03*
%TD*%
D25*
%TO.C,D4*%
X460829400Y-251358400D03*
X458779400Y-251358400D03*
D26*
X451129400Y-251358400D03*
D25*
X453179400Y-251358400D03*
%TD*%
%TO.C,D3*%
X460801240Y-243420900D03*
X458751240Y-243420900D03*
D26*
X451101240Y-243420900D03*
D25*
X453151240Y-243420900D03*
%TD*%
D27*
%TO.C,J5*%
X378838460Y-228178360D03*
D28*
X376298460Y-228178360D03*
%TD*%
D29*
%TO.C,Y2*%
X342123300Y-247321800D03*
X345823300Y-247321800D03*
%TD*%
D30*
%TO.C,D7*%
X460858400Y-253625000D03*
X460858400Y-249125000D03*
X459458400Y-249125000D03*
X459458400Y-253625000D03*
%TD*%
%TO.C,D6*%
X456794400Y-253625000D03*
X456794400Y-249125000D03*
X455394400Y-249125000D03*
X455394400Y-253625000D03*
%TD*%
%TO.C,D5*%
X452767000Y-253638000D03*
X452767000Y-249138000D03*
X451367000Y-249138000D03*
X451367000Y-253638000D03*
%TD*%
D27*
%TO.C,J4*%
X414380000Y-228200000D03*
X411840000Y-228200000D03*
X409300000Y-228200000D03*
X406760000Y-228200000D03*
X404220000Y-228200000D03*
X401680000Y-228200000D03*
X399140000Y-228200000D03*
D28*
X396600000Y-228200000D03*
%TD*%
D31*
%TO.C,U2*%
X338748400Y-227004200D03*
X339548400Y-227004200D03*
X340348400Y-227004200D03*
X341148400Y-227004200D03*
X341948400Y-227004200D03*
X342748400Y-227004200D03*
X343548400Y-227004200D03*
X344348400Y-227004200D03*
X345148400Y-227004200D03*
X345948400Y-227004200D03*
X346748400Y-227004200D03*
X347548400Y-227004200D03*
X348348400Y-227004200D03*
X349148400Y-227004200D03*
X349948400Y-227004200D03*
X350748400Y-227004200D03*
D32*
X352448400Y-228704200D03*
X352448400Y-229504200D03*
X352448400Y-230304200D03*
X352448400Y-231104200D03*
X352448400Y-231904200D03*
X352448400Y-232704200D03*
X352448400Y-233504200D03*
X352448400Y-234304200D03*
X352448400Y-235104200D03*
X352448400Y-235904200D03*
X352448400Y-236704200D03*
X352448400Y-237504200D03*
X352448400Y-238304200D03*
X352448400Y-239104200D03*
X352448400Y-239904200D03*
X352448400Y-240704200D03*
D31*
X350748400Y-242404200D03*
X349948400Y-242404200D03*
X349148400Y-242404200D03*
X348348400Y-242404200D03*
X347548400Y-242404200D03*
X346748400Y-242404200D03*
X345948400Y-242404200D03*
X345148400Y-242404200D03*
X344348400Y-242404200D03*
X343548400Y-242404200D03*
X342748400Y-242404200D03*
X341948400Y-242404200D03*
X341148400Y-242404200D03*
X340348400Y-242404200D03*
X339548400Y-242404200D03*
X338748400Y-242404200D03*
D32*
X337048400Y-240704200D03*
X337048400Y-239904200D03*
X337048400Y-239104200D03*
X337048400Y-238304200D03*
X337048400Y-237504200D03*
X337048400Y-236704200D03*
X337048400Y-235904200D03*
X337048400Y-235104200D03*
X337048400Y-234304200D03*
X337048400Y-233504200D03*
X337048400Y-232704200D03*
X337048400Y-231904200D03*
X337048400Y-231104200D03*
X337048400Y-230304200D03*
X337048400Y-229504200D03*
X337048400Y-228704200D03*
%TD*%
D27*
%TO.C,J3*%
X373280000Y-234060000D03*
X373280000Y-236600000D03*
X370740000Y-234060000D03*
X370740000Y-236600000D03*
X368200000Y-234060000D03*
D28*
X368200000Y-236600000D03*
%TD*%
D16*
%TO.C,C6*%
X357644700Y-229867680D03*
X357644700Y-227817680D03*
%TD*%
D18*
%TO.C,C5*%
X331475000Y-233050000D03*
X333525000Y-233050000D03*
%TD*%
D17*
%TO.C,C4*%
X340071200Y-247296400D03*
X338021200Y-247296400D03*
%TD*%
%TO.C,C3*%
X349946500Y-247359900D03*
X347896500Y-247359900D03*
%TD*%
D33*
%TO.C,J1*%
X360326000Y-257984000D03*
X359076000Y-252984000D03*
X357826000Y-257984000D03*
X356576000Y-252984000D03*
X355326000Y-257984000D03*
X354076000Y-252984000D03*
X352826000Y-257984000D03*
X351576000Y-252984000D03*
X350326000Y-257984000D03*
X349076000Y-252984000D03*
X347826000Y-257984000D03*
X346576000Y-252984000D03*
X345326000Y-257984000D03*
X344076000Y-252984000D03*
X342826000Y-257984000D03*
X341576000Y-252984000D03*
X340326000Y-257984000D03*
X339076000Y-252984000D03*
X337826000Y-257984000D03*
X336576000Y-252984000D03*
X335326000Y-257984000D03*
X334076000Y-252984000D03*
X332826000Y-257984000D03*
X331576000Y-252984000D03*
X330326000Y-257984000D03*
X329076000Y-252984000D03*
X327826000Y-257984000D03*
X326576000Y-252984000D03*
X325326000Y-257984000D03*
X324076000Y-252984000D03*
X322826000Y-257984000D03*
%TD*%
M02*
