%TF.GenerationSoftware,KiCad,Pcbnew,(5.1.6-0)*%
%TF.CreationDate,2023-03-06T10:11:25+01:00*%
%TF.ProjectId,A500KB,41353030-4b42-42e6-9b69-6361645f7063,3*%
%TF.SameCoordinates,Original*%
%TF.FileFunction,Soldermask,Bot*%
%TF.FilePolarity,Negative*%
%FSLAX46Y46*%
G04 Gerber Fmt 4.6, Leading zero omitted, Abs format (unit mm)*
G04 Created by KiCad (PCBNEW (5.1.6-0)) date 2023-03-06 10:11:25*
%MOMM*%
%LPD*%
G01*
G04 APERTURE LIST*
%ADD10C,4.400000*%
%ADD11C,2.600000*%
%ADD12C,3.300000*%
%ADD13R,1.300000X2.000000*%
%ADD14O,1.300000X2.000000*%
%ADD15R,1.600000X2.000000*%
%ADD16C,1.550000*%
%ADD17R,0.500000X1.450000*%
%ADD18C,1.600000*%
%ADD19R,1.600000X1.600000*%
%ADD20O,1.800000X1.800000*%
%ADD21R,1.800000X1.800000*%
%ADD22C,1.700000*%
G04 APERTURE END LIST*
D10*
%TO.C,H26*%
X386402580Y-226021900D03*
%TD*%
D11*
%TO.C,H25*%
X465376260Y-238102140D03*
%TD*%
%TO.C,H24*%
X445394080Y-257342640D03*
%TD*%
D12*
%TO.C,H23*%
X312681620Y-258340860D03*
%TD*%
%TO.C,H22*%
X462699100Y-258343400D03*
%TD*%
D13*
%TO.C,J2*%
X317050000Y-224150000D03*
X322850000Y-224150000D03*
D14*
X323450000Y-224150000D03*
X316450000Y-224150000D03*
D15*
X318950000Y-224150000D03*
D16*
X322450000Y-226850000D03*
D17*
X319950000Y-226850000D03*
X320600000Y-226850000D03*
X321250000Y-226850000D03*
X318650000Y-226850000D03*
X319300000Y-226850000D03*
D16*
X317450000Y-226850000D03*
D15*
X320950000Y-224150000D03*
%TD*%
D10*
%TO.C,H19*%
X395097000Y-256971800D03*
%TD*%
D11*
%TO.C,H18*%
X468193120Y-232435400D03*
%TD*%
%TO.C,H17*%
X468172800Y-258927600D03*
%TD*%
%TO.C,H16*%
X307195220Y-232443020D03*
%TD*%
%TO.C,H15*%
X307200000Y-258950000D03*
%TD*%
D12*
%TO.C,H4*%
X463956400Y-243382800D03*
%TD*%
%TO.C,H3*%
X448056000Y-243400000D03*
%TD*%
%TO.C,H2*%
X448081400Y-251358400D03*
%TD*%
%TO.C,H1*%
X463956400Y-251358400D03*
%TD*%
D18*
%TO.C,D4*%
X460829400Y-251358400D03*
X458779400Y-251358400D03*
D19*
X451129400Y-251358400D03*
D18*
X453179400Y-251358400D03*
%TD*%
%TO.C,D3*%
X460804000Y-243357400D03*
X458754000Y-243357400D03*
D19*
X451104000Y-243357400D03*
D18*
X453154000Y-243357400D03*
%TD*%
D20*
%TO.C,J5*%
X378838460Y-228178360D03*
D21*
X376298460Y-228178360D03*
%TD*%
D20*
%TO.C,J4*%
X414380000Y-228200000D03*
X411840000Y-228200000D03*
X409300000Y-228200000D03*
X406760000Y-228200000D03*
X404220000Y-228200000D03*
X401680000Y-228200000D03*
X399140000Y-228200000D03*
D21*
X396600000Y-228200000D03*
%TD*%
D20*
%TO.C,J3*%
X373280000Y-234060000D03*
X373280000Y-236600000D03*
X370740000Y-234060000D03*
X370740000Y-236600000D03*
X368200000Y-234060000D03*
D21*
X368200000Y-236600000D03*
%TD*%
D22*
%TO.C,J1*%
X360350000Y-257400000D03*
X359100000Y-252400000D03*
X357850000Y-257400000D03*
X356600000Y-252400000D03*
X355350000Y-257400000D03*
X354100000Y-252400000D03*
X352850000Y-257400000D03*
X351600000Y-252400000D03*
X350350000Y-257400000D03*
X349100000Y-252400000D03*
X347850000Y-257400000D03*
X346600000Y-252400000D03*
X345350000Y-257400000D03*
X344100000Y-252400000D03*
X342850000Y-257400000D03*
X341600000Y-252400000D03*
X340350000Y-257400000D03*
X339100000Y-252400000D03*
X337850000Y-257400000D03*
X336600000Y-252400000D03*
X335350000Y-257400000D03*
X334100000Y-252400000D03*
X332850000Y-257400000D03*
X331600000Y-252400000D03*
X330350000Y-257400000D03*
X329100000Y-252400000D03*
X327850000Y-257400000D03*
X326600000Y-252400000D03*
X325350000Y-257400000D03*
X324100000Y-252400000D03*
X322850000Y-257400000D03*
%TD*%
M02*
