M48
; DRILL file {KiCad (5.1.6-0)} date Monday, 06. March 2023 um 10:11:30 AM
; FORMAT={-:-/ absolute / metric / decimal}
; #@! TF.CreationDate,2023-03-06T10:11:30+01:00
; #@! TF.GenerationSoftware,Kicad,Pcbnew,(5.1.6-0)
FMAT,2
METRIC
T1C0.200
T2C0.300
T3C0.400
T4C0.600
T5C0.850
T6C0.900
T7C1.000
T8C2.500
T9C3.200
T10C4.300
%
G90
G05
T1
X434.212Y-244.65
X434.212Y-245.775
X434.212Y-246.9
X434.212Y-248.025
X434.212Y-249.15
X435.337Y-244.65
X435.337Y-245.775
X435.337Y-246.9
X435.337Y-248.025
X435.337Y-249.15
X436.462Y-244.65
X436.462Y-245.775
X436.462Y-246.9
X436.462Y-248.025
X436.462Y-249.15
X437.587Y-244.65
X437.587Y-245.775
X437.587Y-246.9
X437.587Y-248.025
X437.587Y-249.15
X438.712Y-244.65
X438.712Y-245.775
X438.712Y-246.9
X438.712Y-248.025
X438.712Y-249.15
T2
X322.65Y-232.75
X323.25Y-243.25
X325.4Y-245.05
X329.3Y-241.25
X329.5Y-245.05
X329.9Y-232.85
X330.525Y-235.95
X331.495Y-226.334
X332.15Y-236.75
X332.838Y-244.59
X334.9Y-237.5
X334.9Y-242.05
X335.25Y-234.3
X335.55Y-249.5
X337.553Y-227.78
X338.5Y-237.45
X338.5Y-238.25
X338.5Y-239.1
X338.65Y-239.9
X338.85Y-232.75
X338.948Y-240.7
X339.613Y-229.606
X340.3Y-236.6
X340.693Y-230.335
X340.9Y-237.35
X341.5Y-237.95
X341.689Y-229.767
X341.75Y-238.85
X342.534Y-230.046
X342.748Y-239.752
X342.9Y-234.0
X343.2Y-250.2
X343.62Y-229.396
X343.7Y-228.6
X344.092Y-235.104
X344.244Y-230.0
X345.35Y-250.3
X345.45Y-239.7
X347.98Y-240.046
X348.742Y-241.046
X348.742Y-246.0
X348.843Y-239.522
X349.05Y-232.65
X350.391Y-234.304
X350.644Y-232.767
X350.698Y-233.565
X350.963Y-235.092
X353.617Y-235.93
X354.036Y-236.616
X354.777Y-227.538
X355.092Y-224.384
X355.28Y-237.467
X356.18Y-233.5
X356.589Y-238.317
X356.78Y-234.174
X357.18Y-234.971
X357.833Y-239.105
X358.0Y-236.1
X358.75Y-236.75
X359.029Y-242.57
X359.05Y-250.25
X359.088Y-248.284
X359.493Y-235.757
X360.9Y-255.95
X361.7Y-255.95
X362.0Y-253.162
X362.75Y-256.05
X362.85Y-255.091
X363.258Y-253.174
X369.45Y-231.012
X370.7Y-231.65
X371.8Y-232.05
X374.4Y-232.05
X374.966Y-231.45
X381.61Y-230.937
X391.008Y-228.346
X396.6Y-244.4
X398.17Y-230.937
X399.1Y-244.4
X400.1Y-244.4
X402.133Y-230.937
X406.273Y-241.554
X406.273Y-244.792
X409.575Y-243.967
X411.988Y-241.554
X411.988Y-245.2
X412.75Y-232.2
X413.029Y-234.154
X413.85Y-233.5
X416.052Y-231.14
X423.654Y-237.475
X424.3Y-245.0
X424.541Y-237.925
X425.05Y-245.6
X425.1Y-238.775
X425.704Y-246.38
X430.276Y-250.425
X453.634Y-248.25
T3
X307.45Y-247.1
X314.55Y-226.85
X317.7Y-228.85
X317.7Y-231.2
X318.2Y-238.0
X319.941Y-229.654
X319.941Y-230.8
X322.65Y-229.7
X327.25Y-234.95
X328.7Y-237.65
X334.436Y-232.704
X335.25Y-230.3
X338.729Y-225.776
X338.742Y-249.008
X338.75Y-243.8
X340.345Y-239.745
X340.61Y-238.781
X348.336Y-225.826
X350.266Y-236.855
X357.083Y-230.792
X359.689Y-227.795
X362.966Y-239.776
X363.982Y-233.426
X365.896Y-228.7
X366.742Y-232.447
X367.02Y-227.658
X368.186Y-226.802
X369.471Y-227.658
X374.5Y-239.05
X384.2Y-260.8
X389.0Y-238.1
X389.95Y-237.3
X391.3Y-238.15
X394.25Y-260.55
X395.25Y-242.75
X395.25Y-246.634
X397.764Y-235.077
X403.25Y-244.0
X403.25Y-246.634
X407.88Y-232.2
X407.924Y-235.204
X409.349Y-230.886
X416.56Y-241.3
X416.56Y-243.586
X421.767Y-243.586
X421.894Y-234.488
X422.5Y-246.75
X422.646Y-235.213
X424.5Y-227.5
X424.5Y-231.47
X424.5Y-236.5
X426.72Y-226.06
X426.9Y-231.5
X426.95Y-233.45
X427.0Y-241.3
X427.0Y-242.7
X427.0Y-244.1
X427.55Y-248.25
X427.55Y-250.325
X427.55Y-253.15
X428.6Y-257.65
X430.05Y-255.35
X430.55Y-249.35
X430.8Y-233.4
X431.947Y-255.947
X432.0Y-241.2
X432.0Y-242.5
X432.55Y-254.8
X433.85Y-253.65
X434.076Y-239.524
X434.45Y-233.4
X434.512Y-238.612
X434.95Y-252.85
X435.498Y-237.752
X436.438Y-252.85
X436.45Y-241.1
X436.88Y-226.06
X436.987Y-240.257
X437.2Y-253.6
X437.7Y-236.3
X437.907Y-254.307
X438.438Y-239.1
X438.916Y-254.3
X438.938Y-240.39
X440.113Y-239.437
X440.55Y-242.85
X440.65Y-251.1
X440.9Y-237.45
X441.0Y-254.45
X442.5Y-242.85
X443.05Y-254.5
X443.05Y-257.85
X443.3Y-251.15
X443.4Y-238.25
X444.243Y-244.376
X444.735Y-237.315
X444.856Y-249.401
X445.05Y-253.65
X445.531Y-239.416
X445.757Y-254.375
X445.948Y-249.199
X446.2Y-247.475
X446.29Y-238.765
X447.04Y-226.06
X447.159Y-246.242
X447.433Y-247.692
X447.689Y-249.179
X448.5Y-247.7
X449.15Y-234.8
X450.418Y-245.033
X450.608Y-235.645
X451.37Y-239.49
X452.831Y-238.912
X454.131Y-241.321
X455.473Y-238.04
X455.803Y-242.485
X456.768Y-237.363
X457.2Y-226.06
X457.999Y-248.2
X458.064Y-238.735
X458.193Y-254.97
X458.54Y-253.37
X459.435Y-236.83
X461.809Y-253.28
X461.848Y-239.945
X461.975Y-247.853
X462.65Y-235.85
X463.35Y-254.65
X464.16Y-248.59
X465.463Y-247.297
X467.36Y-226.06
X468.765Y-241.795
X469.108Y-249.888
T4
X321.5Y-254.5
T5
X317.45Y-226.85
X322.45Y-226.85
X322.85Y-257.4
X324.1Y-252.4
X325.35Y-257.4
X326.6Y-252.4
X327.85Y-257.4
X329.1Y-252.4
X330.35Y-257.4
X331.6Y-252.4
X332.85Y-257.4
X334.1Y-252.4
X335.35Y-257.4
X336.6Y-252.4
X337.85Y-257.4
X339.1Y-252.4
X340.35Y-257.4
X341.6Y-252.4
X342.85Y-257.4
X344.1Y-252.4
X345.35Y-257.4
X346.6Y-252.4
X347.85Y-257.4
X349.1Y-252.4
X350.35Y-257.4
X351.6Y-252.4
X352.85Y-257.4
X354.1Y-252.4
X355.35Y-257.4
X356.6Y-252.4
X357.85Y-257.4
X359.1Y-252.4
X360.35Y-257.4
T6
X451.104Y-243.357
X453.154Y-243.357
X458.754Y-243.357
X460.804Y-243.357
X451.129Y-251.358
X453.179Y-251.358
X458.779Y-251.358
X460.829Y-251.358
T7
X368.2Y-234.06
X368.2Y-236.6
X370.74Y-234.06
X370.74Y-236.6
X373.28Y-234.06
X373.28Y-236.6
X376.298Y-228.178
X378.838Y-228.178
X396.6Y-228.2
X399.14Y-228.2
X401.68Y-228.2
X404.22Y-228.2
X406.76Y-228.2
X409.3Y-228.2
X411.84Y-228.2
X414.38Y-228.2
T8
X465.376Y-238.102
X445.394Y-257.343
X468.193Y-232.435
X468.173Y-258.928
X307.195Y-232.443
X307.2Y-258.95
T9
X312.682Y-258.341
X462.699Y-258.343
X463.956Y-243.383
X448.056Y-243.4
X448.081Y-251.358
X463.956Y-251.358
T10
X386.403Y-226.022
X395.097Y-256.972
T4
G00X316.45Y-224.5
M15
G01X316.45Y-223.8
M16
G05
G00X323.45Y-223.8
M15
G01X323.45Y-224.5
M16
G05
T0
M30
