%TF.GenerationSoftware,KiCad,Pcbnew,7.0.2-0*%
%TF.CreationDate,2023-12-20T15:00:36+01:00*%
%TF.ProjectId,A500KBMini,41353030-4b42-44d6-996e-692e6b696361,3*%
%TF.SameCoordinates,Original*%
%TF.FileFunction,Legend,Top*%
%TF.FilePolarity,Positive*%
%FSLAX46Y46*%
G04 Gerber Fmt 4.6, Leading zero omitted, Abs format (unit mm)*
G04 Created by KiCad (PCBNEW 7.0.2-0) date 2023-12-20 15:00:36*
%MOMM*%
%LPD*%
G01*
G04 APERTURE LIST*
%ADD10C,0.200000*%
%ADD11C,0.300000*%
%ADD12C,0.150000*%
%ADD13C,0.120000*%
G04 APERTURE END LIST*
D10*
X362141480Y-244202601D02*
X362189099Y-244059744D01*
X362189099Y-244059744D02*
X362189099Y-243821649D01*
X362189099Y-243821649D02*
X362141480Y-243726411D01*
X362141480Y-243726411D02*
X362093860Y-243678792D01*
X362093860Y-243678792D02*
X361998622Y-243631173D01*
X361998622Y-243631173D02*
X361903384Y-243631173D01*
X361903384Y-243631173D02*
X361808146Y-243678792D01*
X361808146Y-243678792D02*
X361760527Y-243726411D01*
X361760527Y-243726411D02*
X361712908Y-243821649D01*
X361712908Y-243821649D02*
X361665289Y-244012125D01*
X361665289Y-244012125D02*
X361617670Y-244107363D01*
X361617670Y-244107363D02*
X361570051Y-244154982D01*
X361570051Y-244154982D02*
X361474813Y-244202601D01*
X361474813Y-244202601D02*
X361379575Y-244202601D01*
X361379575Y-244202601D02*
X361284337Y-244154982D01*
X361284337Y-244154982D02*
X361236718Y-244107363D01*
X361236718Y-244107363D02*
X361189099Y-244012125D01*
X361189099Y-244012125D02*
X361189099Y-243774030D01*
X361189099Y-243774030D02*
X361236718Y-243631173D01*
X361522432Y-243202601D02*
X362522432Y-243202601D01*
X361570051Y-243202601D02*
X361522432Y-243107363D01*
X361522432Y-243107363D02*
X361522432Y-242916887D01*
X361522432Y-242916887D02*
X361570051Y-242821649D01*
X361570051Y-242821649D02*
X361617670Y-242774030D01*
X361617670Y-242774030D02*
X361712908Y-242726411D01*
X361712908Y-242726411D02*
X361998622Y-242726411D01*
X361998622Y-242726411D02*
X362093860Y-242774030D01*
X362093860Y-242774030D02*
X362141480Y-242821649D01*
X362141480Y-242821649D02*
X362189099Y-242916887D01*
X362189099Y-242916887D02*
X362189099Y-243107363D01*
X362189099Y-243107363D02*
X362141480Y-243202601D01*
X362189099Y-241869268D02*
X361665289Y-241869268D01*
X361665289Y-241869268D02*
X361570051Y-241916887D01*
X361570051Y-241916887D02*
X361522432Y-242012125D01*
X361522432Y-242012125D02*
X361522432Y-242202601D01*
X361522432Y-242202601D02*
X361570051Y-242297839D01*
X362141480Y-241869268D02*
X362189099Y-241964506D01*
X362189099Y-241964506D02*
X362189099Y-242202601D01*
X362189099Y-242202601D02*
X362141480Y-242297839D01*
X362141480Y-242297839D02*
X362046241Y-242345458D01*
X362046241Y-242345458D02*
X361951003Y-242345458D01*
X361951003Y-242345458D02*
X361855765Y-242297839D01*
X361855765Y-242297839D02*
X361808146Y-242202601D01*
X361808146Y-242202601D02*
X361808146Y-241964506D01*
X361808146Y-241964506D02*
X361760527Y-241869268D01*
X362189099Y-241393077D02*
X361522432Y-241393077D01*
X361712908Y-241393077D02*
X361617670Y-241345458D01*
X361617670Y-241345458D02*
X361570051Y-241297839D01*
X361570051Y-241297839D02*
X361522432Y-241202601D01*
X361522432Y-241202601D02*
X361522432Y-241107363D01*
X362141480Y-240393077D02*
X362189099Y-240488315D01*
X362189099Y-240488315D02*
X362189099Y-240678791D01*
X362189099Y-240678791D02*
X362141480Y-240774029D01*
X362141480Y-240774029D02*
X362046241Y-240821648D01*
X362046241Y-240821648D02*
X361665289Y-240821648D01*
X361665289Y-240821648D02*
X361570051Y-240774029D01*
X361570051Y-240774029D02*
X361522432Y-240678791D01*
X361522432Y-240678791D02*
X361522432Y-240488315D01*
X361522432Y-240488315D02*
X361570051Y-240393077D01*
X361570051Y-240393077D02*
X361665289Y-240345458D01*
X361665289Y-240345458D02*
X361760527Y-240345458D01*
X361760527Y-240345458D02*
X361855765Y-240821648D01*
X362189099Y-239393077D02*
X362189099Y-239964505D01*
X362189099Y-239678791D02*
X361189099Y-239678791D01*
X361189099Y-239678791D02*
X361331956Y-239774029D01*
X361331956Y-239774029D02*
X361427194Y-239869267D01*
X361427194Y-239869267D02*
X361474813Y-239964505D01*
X364533519Y-247183374D02*
X363533519Y-247183374D01*
X363533519Y-247183374D02*
X364533519Y-246611946D01*
X364533519Y-246611946D02*
X363533519Y-246611946D01*
X364533519Y-245992898D02*
X364485900Y-246088136D01*
X364485900Y-246088136D02*
X364438280Y-246135755D01*
X364438280Y-246135755D02*
X364343042Y-246183374D01*
X364343042Y-246183374D02*
X364057328Y-246183374D01*
X364057328Y-246183374D02*
X363962090Y-246135755D01*
X363962090Y-246135755D02*
X363914471Y-246088136D01*
X363914471Y-246088136D02*
X363866852Y-245992898D01*
X363866852Y-245992898D02*
X363866852Y-245850041D01*
X363866852Y-245850041D02*
X363914471Y-245754803D01*
X363914471Y-245754803D02*
X363962090Y-245707184D01*
X363962090Y-245707184D02*
X364057328Y-245659565D01*
X364057328Y-245659565D02*
X364343042Y-245659565D01*
X364343042Y-245659565D02*
X364438280Y-245707184D01*
X364438280Y-245707184D02*
X364485900Y-245754803D01*
X364485900Y-245754803D02*
X364533519Y-245850041D01*
X364533519Y-245850041D02*
X364533519Y-245992898D01*
X364438280Y-243897660D02*
X364485900Y-243945279D01*
X364485900Y-243945279D02*
X364533519Y-244088136D01*
X364533519Y-244088136D02*
X364533519Y-244183374D01*
X364533519Y-244183374D02*
X364485900Y-244326231D01*
X364485900Y-244326231D02*
X364390661Y-244421469D01*
X364390661Y-244421469D02*
X364295423Y-244469088D01*
X364295423Y-244469088D02*
X364104947Y-244516707D01*
X364104947Y-244516707D02*
X363962090Y-244516707D01*
X363962090Y-244516707D02*
X363771614Y-244469088D01*
X363771614Y-244469088D02*
X363676376Y-244421469D01*
X363676376Y-244421469D02*
X363581138Y-244326231D01*
X363581138Y-244326231D02*
X363533519Y-244183374D01*
X363533519Y-244183374D02*
X363533519Y-244088136D01*
X363533519Y-244088136D02*
X363581138Y-243945279D01*
X363581138Y-243945279D02*
X363628757Y-243897660D01*
X364533519Y-243040517D02*
X364009709Y-243040517D01*
X364009709Y-243040517D02*
X363914471Y-243088136D01*
X363914471Y-243088136D02*
X363866852Y-243183374D01*
X363866852Y-243183374D02*
X363866852Y-243373850D01*
X363866852Y-243373850D02*
X363914471Y-243469088D01*
X364485900Y-243040517D02*
X364533519Y-243135755D01*
X364533519Y-243135755D02*
X364533519Y-243373850D01*
X364533519Y-243373850D02*
X364485900Y-243469088D01*
X364485900Y-243469088D02*
X364390661Y-243516707D01*
X364390661Y-243516707D02*
X364295423Y-243516707D01*
X364295423Y-243516707D02*
X364200185Y-243469088D01*
X364200185Y-243469088D02*
X364152566Y-243373850D01*
X364152566Y-243373850D02*
X364152566Y-243135755D01*
X364152566Y-243135755D02*
X364104947Y-243040517D01*
X363866852Y-242564326D02*
X364866852Y-242564326D01*
X363914471Y-242564326D02*
X363866852Y-242469088D01*
X363866852Y-242469088D02*
X363866852Y-242278612D01*
X363866852Y-242278612D02*
X363914471Y-242183374D01*
X363914471Y-242183374D02*
X363962090Y-242135755D01*
X363962090Y-242135755D02*
X364057328Y-242088136D01*
X364057328Y-242088136D02*
X364343042Y-242088136D01*
X364343042Y-242088136D02*
X364438280Y-242135755D01*
X364438280Y-242135755D02*
X364485900Y-242183374D01*
X364485900Y-242183374D02*
X364533519Y-242278612D01*
X364533519Y-242278612D02*
X364533519Y-242469088D01*
X364533519Y-242469088D02*
X364485900Y-242564326D01*
X364485900Y-241707183D02*
X364533519Y-241611945D01*
X364533519Y-241611945D02*
X364533519Y-241421469D01*
X364533519Y-241421469D02*
X364485900Y-241326231D01*
X364485900Y-241326231D02*
X364390661Y-241278612D01*
X364390661Y-241278612D02*
X364343042Y-241278612D01*
X364343042Y-241278612D02*
X364247804Y-241326231D01*
X364247804Y-241326231D02*
X364200185Y-241421469D01*
X364200185Y-241421469D02*
X364200185Y-241564326D01*
X364200185Y-241564326D02*
X364152566Y-241659564D01*
X364152566Y-241659564D02*
X364057328Y-241707183D01*
X364057328Y-241707183D02*
X364009709Y-241707183D01*
X364009709Y-241707183D02*
X363914471Y-241659564D01*
X363914471Y-241659564D02*
X363866852Y-241564326D01*
X363866852Y-241564326D02*
X363866852Y-241421469D01*
X363866852Y-241421469D02*
X363914471Y-241326231D01*
X364533519Y-240373850D02*
X364533519Y-240850040D01*
X364533519Y-240850040D02*
X363533519Y-240850040D01*
X364009709Y-240040516D02*
X364009709Y-239707183D01*
X364533519Y-239564326D02*
X364533519Y-240040516D01*
X364533519Y-240040516D02*
X363533519Y-240040516D01*
X363533519Y-240040516D02*
X363533519Y-239564326D01*
X364533519Y-239135754D02*
X363533519Y-239135754D01*
X363533519Y-239135754D02*
X363533519Y-238897659D01*
X363533519Y-238897659D02*
X363581138Y-238754802D01*
X363581138Y-238754802D02*
X363676376Y-238659564D01*
X363676376Y-238659564D02*
X363771614Y-238611945D01*
X363771614Y-238611945D02*
X363962090Y-238564326D01*
X363962090Y-238564326D02*
X364104947Y-238564326D01*
X364104947Y-238564326D02*
X364295423Y-238611945D01*
X364295423Y-238611945D02*
X364390661Y-238659564D01*
X364390661Y-238659564D02*
X364485900Y-238754802D01*
X364485900Y-238754802D02*
X364533519Y-238897659D01*
X364533519Y-238897659D02*
X364533519Y-239135754D01*
D11*
X417364287Y-225100357D02*
X418078573Y-225100357D01*
X417221430Y-225528928D02*
X417721430Y-224028928D01*
X417721430Y-224028928D02*
X418221430Y-225528928D01*
X419435715Y-224028928D02*
X418721429Y-224028928D01*
X418721429Y-224028928D02*
X418650001Y-224743214D01*
X418650001Y-224743214D02*
X418721429Y-224671785D01*
X418721429Y-224671785D02*
X418864287Y-224600357D01*
X418864287Y-224600357D02*
X419221429Y-224600357D01*
X419221429Y-224600357D02*
X419364287Y-224671785D01*
X419364287Y-224671785D02*
X419435715Y-224743214D01*
X419435715Y-224743214D02*
X419507144Y-224886071D01*
X419507144Y-224886071D02*
X419507144Y-225243214D01*
X419507144Y-225243214D02*
X419435715Y-225386071D01*
X419435715Y-225386071D02*
X419364287Y-225457500D01*
X419364287Y-225457500D02*
X419221429Y-225528928D01*
X419221429Y-225528928D02*
X418864287Y-225528928D01*
X418864287Y-225528928D02*
X418721429Y-225457500D01*
X418721429Y-225457500D02*
X418650001Y-225386071D01*
X420435715Y-224028928D02*
X420578572Y-224028928D01*
X420578572Y-224028928D02*
X420721429Y-224100357D01*
X420721429Y-224100357D02*
X420792858Y-224171785D01*
X420792858Y-224171785D02*
X420864286Y-224314642D01*
X420864286Y-224314642D02*
X420935715Y-224600357D01*
X420935715Y-224600357D02*
X420935715Y-224957500D01*
X420935715Y-224957500D02*
X420864286Y-225243214D01*
X420864286Y-225243214D02*
X420792858Y-225386071D01*
X420792858Y-225386071D02*
X420721429Y-225457500D01*
X420721429Y-225457500D02*
X420578572Y-225528928D01*
X420578572Y-225528928D02*
X420435715Y-225528928D01*
X420435715Y-225528928D02*
X420292858Y-225457500D01*
X420292858Y-225457500D02*
X420221429Y-225386071D01*
X420221429Y-225386071D02*
X420150000Y-225243214D01*
X420150000Y-225243214D02*
X420078572Y-224957500D01*
X420078572Y-224957500D02*
X420078572Y-224600357D01*
X420078572Y-224600357D02*
X420150000Y-224314642D01*
X420150000Y-224314642D02*
X420221429Y-224171785D01*
X420221429Y-224171785D02*
X420292858Y-224100357D01*
X420292858Y-224100357D02*
X420435715Y-224028928D01*
X421864286Y-224028928D02*
X422007143Y-224028928D01*
X422007143Y-224028928D02*
X422150000Y-224100357D01*
X422150000Y-224100357D02*
X422221429Y-224171785D01*
X422221429Y-224171785D02*
X422292857Y-224314642D01*
X422292857Y-224314642D02*
X422364286Y-224600357D01*
X422364286Y-224600357D02*
X422364286Y-224957500D01*
X422364286Y-224957500D02*
X422292857Y-225243214D01*
X422292857Y-225243214D02*
X422221429Y-225386071D01*
X422221429Y-225386071D02*
X422150000Y-225457500D01*
X422150000Y-225457500D02*
X422007143Y-225528928D01*
X422007143Y-225528928D02*
X421864286Y-225528928D01*
X421864286Y-225528928D02*
X421721429Y-225457500D01*
X421721429Y-225457500D02*
X421650000Y-225386071D01*
X421650000Y-225386071D02*
X421578571Y-225243214D01*
X421578571Y-225243214D02*
X421507143Y-224957500D01*
X421507143Y-224957500D02*
X421507143Y-224600357D01*
X421507143Y-224600357D02*
X421578571Y-224314642D01*
X421578571Y-224314642D02*
X421650000Y-224171785D01*
X421650000Y-224171785D02*
X421721429Y-224100357D01*
X421721429Y-224100357D02*
X421864286Y-224028928D01*
X423007142Y-225528928D02*
X423007142Y-224028928D01*
X423864285Y-225528928D02*
X423221428Y-224671785D01*
X423864285Y-224028928D02*
X423007142Y-224886071D01*
X425007142Y-224743214D02*
X425221428Y-224814642D01*
X425221428Y-224814642D02*
X425292857Y-224886071D01*
X425292857Y-224886071D02*
X425364285Y-225028928D01*
X425364285Y-225028928D02*
X425364285Y-225243214D01*
X425364285Y-225243214D02*
X425292857Y-225386071D01*
X425292857Y-225386071D02*
X425221428Y-225457500D01*
X425221428Y-225457500D02*
X425078571Y-225528928D01*
X425078571Y-225528928D02*
X424507142Y-225528928D01*
X424507142Y-225528928D02*
X424507142Y-224028928D01*
X424507142Y-224028928D02*
X425007142Y-224028928D01*
X425007142Y-224028928D02*
X425150000Y-224100357D01*
X425150000Y-224100357D02*
X425221428Y-224171785D01*
X425221428Y-224171785D02*
X425292857Y-224314642D01*
X425292857Y-224314642D02*
X425292857Y-224457500D01*
X425292857Y-224457500D02*
X425221428Y-224600357D01*
X425221428Y-224600357D02*
X425150000Y-224671785D01*
X425150000Y-224671785D02*
X425007142Y-224743214D01*
X425007142Y-224743214D02*
X424507142Y-224743214D01*
X426935714Y-224528928D02*
X427507142Y-224528928D01*
X427149999Y-225528928D02*
X427149999Y-224243214D01*
X427149999Y-224243214D02*
X427221428Y-224100357D01*
X427221428Y-224100357D02*
X427364285Y-224028928D01*
X427364285Y-224028928D02*
X427507142Y-224028928D01*
X428221428Y-225528928D02*
X428078571Y-225457500D01*
X428078571Y-225457500D02*
X428007142Y-225386071D01*
X428007142Y-225386071D02*
X427935714Y-225243214D01*
X427935714Y-225243214D02*
X427935714Y-224814642D01*
X427935714Y-224814642D02*
X428007142Y-224671785D01*
X428007142Y-224671785D02*
X428078571Y-224600357D01*
X428078571Y-224600357D02*
X428221428Y-224528928D01*
X428221428Y-224528928D02*
X428435714Y-224528928D01*
X428435714Y-224528928D02*
X428578571Y-224600357D01*
X428578571Y-224600357D02*
X428650000Y-224671785D01*
X428650000Y-224671785D02*
X428721428Y-224814642D01*
X428721428Y-224814642D02*
X428721428Y-225243214D01*
X428721428Y-225243214D02*
X428650000Y-225386071D01*
X428650000Y-225386071D02*
X428578571Y-225457500D01*
X428578571Y-225457500D02*
X428435714Y-225528928D01*
X428435714Y-225528928D02*
X428221428Y-225528928D01*
X429364285Y-225528928D02*
X429364285Y-224528928D01*
X429364285Y-224814642D02*
X429435714Y-224671785D01*
X429435714Y-224671785D02*
X429507143Y-224600357D01*
X429507143Y-224600357D02*
X429650000Y-224528928D01*
X429650000Y-224528928D02*
X429792857Y-224528928D01*
X431435713Y-225528928D02*
X431435713Y-224028928D01*
X431435713Y-224028928D02*
X431935713Y-225100357D01*
X431935713Y-225100357D02*
X432435713Y-224028928D01*
X432435713Y-224028928D02*
X432435713Y-225528928D01*
X433149999Y-225528928D02*
X433149999Y-224528928D01*
X433149999Y-224028928D02*
X433078571Y-224100357D01*
X433078571Y-224100357D02*
X433149999Y-224171785D01*
X433149999Y-224171785D02*
X433221428Y-224100357D01*
X433221428Y-224100357D02*
X433149999Y-224028928D01*
X433149999Y-224028928D02*
X433149999Y-224171785D01*
X433650000Y-224528928D02*
X434221428Y-224528928D01*
X433864285Y-224028928D02*
X433864285Y-225314642D01*
X433864285Y-225314642D02*
X433935714Y-225457500D01*
X433935714Y-225457500D02*
X434078571Y-225528928D01*
X434078571Y-225528928D02*
X434221428Y-225528928D01*
X434650000Y-225457500D02*
X434792857Y-225528928D01*
X434792857Y-225528928D02*
X435078571Y-225528928D01*
X435078571Y-225528928D02*
X435221428Y-225457500D01*
X435221428Y-225457500D02*
X435292857Y-225314642D01*
X435292857Y-225314642D02*
X435292857Y-225243214D01*
X435292857Y-225243214D02*
X435221428Y-225100357D01*
X435221428Y-225100357D02*
X435078571Y-225028928D01*
X435078571Y-225028928D02*
X434864286Y-225028928D01*
X434864286Y-225028928D02*
X434721428Y-224957500D01*
X434721428Y-224957500D02*
X434650000Y-224814642D01*
X434650000Y-224814642D02*
X434650000Y-224743214D01*
X434650000Y-224743214D02*
X434721428Y-224600357D01*
X434721428Y-224600357D02*
X434864286Y-224528928D01*
X434864286Y-224528928D02*
X435078571Y-224528928D01*
X435078571Y-224528928D02*
X435221428Y-224600357D01*
X436578572Y-224528928D02*
X436578572Y-225528928D01*
X435935714Y-224528928D02*
X435935714Y-225314642D01*
X435935714Y-225314642D02*
X436007143Y-225457500D01*
X436007143Y-225457500D02*
X436150000Y-225528928D01*
X436150000Y-225528928D02*
X436364286Y-225528928D01*
X436364286Y-225528928D02*
X436507143Y-225457500D01*
X436507143Y-225457500D02*
X436578572Y-225386071D01*
X437292857Y-225528928D02*
X437292857Y-224528928D01*
X437292857Y-224671785D02*
X437364286Y-224600357D01*
X437364286Y-224600357D02*
X437507143Y-224528928D01*
X437507143Y-224528928D02*
X437721429Y-224528928D01*
X437721429Y-224528928D02*
X437864286Y-224600357D01*
X437864286Y-224600357D02*
X437935715Y-224743214D01*
X437935715Y-224743214D02*
X437935715Y-225528928D01*
X437935715Y-224743214D02*
X438007143Y-224600357D01*
X438007143Y-224600357D02*
X438150000Y-224528928D01*
X438150000Y-224528928D02*
X438364286Y-224528928D01*
X438364286Y-224528928D02*
X438507143Y-224600357D01*
X438507143Y-224600357D02*
X438578572Y-224743214D01*
X438578572Y-224743214D02*
X438578572Y-225528928D01*
X439292857Y-225528928D02*
X439292857Y-224528928D01*
X439292857Y-224028928D02*
X439221429Y-224100357D01*
X439221429Y-224100357D02*
X439292857Y-224171785D01*
X439292857Y-224171785D02*
X439364286Y-224100357D01*
X439364286Y-224100357D02*
X439292857Y-224028928D01*
X439292857Y-224028928D02*
X439292857Y-224171785D01*
X441364286Y-225528928D02*
X441221429Y-225457500D01*
X441221429Y-225457500D02*
X441150000Y-225386071D01*
X441150000Y-225386071D02*
X441078572Y-225243214D01*
X441078572Y-225243214D02*
X441078572Y-224814642D01*
X441078572Y-224814642D02*
X441150000Y-224671785D01*
X441150000Y-224671785D02*
X441221429Y-224600357D01*
X441221429Y-224600357D02*
X441364286Y-224528928D01*
X441364286Y-224528928D02*
X441578572Y-224528928D01*
X441578572Y-224528928D02*
X441721429Y-224600357D01*
X441721429Y-224600357D02*
X441792858Y-224671785D01*
X441792858Y-224671785D02*
X441864286Y-224814642D01*
X441864286Y-224814642D02*
X441864286Y-225243214D01*
X441864286Y-225243214D02*
X441792858Y-225386071D01*
X441792858Y-225386071D02*
X441721429Y-225457500D01*
X441721429Y-225457500D02*
X441578572Y-225528928D01*
X441578572Y-225528928D02*
X441364286Y-225528928D01*
X442507143Y-225528928D02*
X442507143Y-224528928D01*
X442507143Y-224814642D02*
X442578572Y-224671785D01*
X442578572Y-224671785D02*
X442650001Y-224600357D01*
X442650001Y-224600357D02*
X442792858Y-224528928D01*
X442792858Y-224528928D02*
X442935715Y-224528928D01*
X445435714Y-225386071D02*
X445364286Y-225457500D01*
X445364286Y-225457500D02*
X445150000Y-225528928D01*
X445150000Y-225528928D02*
X445007143Y-225528928D01*
X445007143Y-225528928D02*
X444792857Y-225457500D01*
X444792857Y-225457500D02*
X444650000Y-225314642D01*
X444650000Y-225314642D02*
X444578571Y-225171785D01*
X444578571Y-225171785D02*
X444507143Y-224886071D01*
X444507143Y-224886071D02*
X444507143Y-224671785D01*
X444507143Y-224671785D02*
X444578571Y-224386071D01*
X444578571Y-224386071D02*
X444650000Y-224243214D01*
X444650000Y-224243214D02*
X444792857Y-224100357D01*
X444792857Y-224100357D02*
X445007143Y-224028928D01*
X445007143Y-224028928D02*
X445150000Y-224028928D01*
X445150000Y-224028928D02*
X445364286Y-224100357D01*
X445364286Y-224100357D02*
X445435714Y-224171785D01*
X446078571Y-225528928D02*
X446078571Y-224028928D01*
X446721429Y-225528928D02*
X446721429Y-224743214D01*
X446721429Y-224743214D02*
X446650000Y-224600357D01*
X446650000Y-224600357D02*
X446507143Y-224528928D01*
X446507143Y-224528928D02*
X446292857Y-224528928D01*
X446292857Y-224528928D02*
X446150000Y-224600357D01*
X446150000Y-224600357D02*
X446078571Y-224671785D01*
X448007143Y-225457500D02*
X447864286Y-225528928D01*
X447864286Y-225528928D02*
X447578572Y-225528928D01*
X447578572Y-225528928D02*
X447435714Y-225457500D01*
X447435714Y-225457500D02*
X447364286Y-225314642D01*
X447364286Y-225314642D02*
X447364286Y-224743214D01*
X447364286Y-224743214D02*
X447435714Y-224600357D01*
X447435714Y-224600357D02*
X447578572Y-224528928D01*
X447578572Y-224528928D02*
X447864286Y-224528928D01*
X447864286Y-224528928D02*
X448007143Y-224600357D01*
X448007143Y-224600357D02*
X448078572Y-224743214D01*
X448078572Y-224743214D02*
X448078572Y-224886071D01*
X448078572Y-224886071D02*
X447364286Y-225028928D01*
X448721428Y-225528928D02*
X448721428Y-224528928D01*
X448721428Y-224814642D02*
X448792857Y-224671785D01*
X448792857Y-224671785D02*
X448864286Y-224600357D01*
X448864286Y-224600357D02*
X449007143Y-224528928D01*
X449007143Y-224528928D02*
X449150000Y-224528928D01*
X449649999Y-225528928D02*
X449649999Y-224528928D01*
X449649999Y-224814642D02*
X449721428Y-224671785D01*
X449721428Y-224671785D02*
X449792857Y-224600357D01*
X449792857Y-224600357D02*
X449935714Y-224528928D01*
X449935714Y-224528928D02*
X450078571Y-224528928D01*
X450435713Y-224528928D02*
X450792856Y-225528928D01*
X451149999Y-224528928D02*
X450792856Y-225528928D01*
X450792856Y-225528928D02*
X450649999Y-225886071D01*
X450649999Y-225886071D02*
X450578570Y-225957500D01*
X450578570Y-225957500D02*
X450435713Y-226028928D01*
X452792856Y-225457500D02*
X452935713Y-225528928D01*
X452935713Y-225528928D02*
X453221427Y-225528928D01*
X453221427Y-225528928D02*
X453364284Y-225457500D01*
X453364284Y-225457500D02*
X453435713Y-225314642D01*
X453435713Y-225314642D02*
X453435713Y-225243214D01*
X453435713Y-225243214D02*
X453364284Y-225100357D01*
X453364284Y-225100357D02*
X453221427Y-225028928D01*
X453221427Y-225028928D02*
X453007142Y-225028928D01*
X453007142Y-225028928D02*
X452864284Y-224957500D01*
X452864284Y-224957500D02*
X452792856Y-224814642D01*
X452792856Y-224814642D02*
X452792856Y-224743214D01*
X452792856Y-224743214D02*
X452864284Y-224600357D01*
X452864284Y-224600357D02*
X453007142Y-224528928D01*
X453007142Y-224528928D02*
X453221427Y-224528928D01*
X453221427Y-224528928D02*
X453364284Y-224600357D01*
X453935713Y-224528928D02*
X454221428Y-225528928D01*
X454221428Y-225528928D02*
X454507142Y-224814642D01*
X454507142Y-224814642D02*
X454792856Y-225528928D01*
X454792856Y-225528928D02*
X455078570Y-224528928D01*
X455649999Y-225528928D02*
X455649999Y-224528928D01*
X455649999Y-224028928D02*
X455578571Y-224100357D01*
X455578571Y-224100357D02*
X455649999Y-224171785D01*
X455649999Y-224171785D02*
X455721428Y-224100357D01*
X455721428Y-224100357D02*
X455649999Y-224028928D01*
X455649999Y-224028928D02*
X455649999Y-224171785D01*
X456150000Y-224528928D02*
X456721428Y-224528928D01*
X456364285Y-224028928D02*
X456364285Y-225314642D01*
X456364285Y-225314642D02*
X456435714Y-225457500D01*
X456435714Y-225457500D02*
X456578571Y-225528928D01*
X456578571Y-225528928D02*
X456721428Y-225528928D01*
X457864286Y-225457500D02*
X457721428Y-225528928D01*
X457721428Y-225528928D02*
X457435714Y-225528928D01*
X457435714Y-225528928D02*
X457292857Y-225457500D01*
X457292857Y-225457500D02*
X457221428Y-225386071D01*
X457221428Y-225386071D02*
X457150000Y-225243214D01*
X457150000Y-225243214D02*
X457150000Y-224814642D01*
X457150000Y-224814642D02*
X457221428Y-224671785D01*
X457221428Y-224671785D02*
X457292857Y-224600357D01*
X457292857Y-224600357D02*
X457435714Y-224528928D01*
X457435714Y-224528928D02*
X457721428Y-224528928D01*
X457721428Y-224528928D02*
X457864286Y-224600357D01*
X458507142Y-225528928D02*
X458507142Y-224028928D01*
X459150000Y-225528928D02*
X459150000Y-224743214D01*
X459150000Y-224743214D02*
X459078571Y-224600357D01*
X459078571Y-224600357D02*
X458935714Y-224528928D01*
X458935714Y-224528928D02*
X458721428Y-224528928D01*
X458721428Y-224528928D02*
X458578571Y-224600357D01*
X458578571Y-224600357D02*
X458507142Y-224671785D01*
X460435714Y-225457500D02*
X460292857Y-225528928D01*
X460292857Y-225528928D02*
X460007143Y-225528928D01*
X460007143Y-225528928D02*
X459864285Y-225457500D01*
X459864285Y-225457500D02*
X459792857Y-225314642D01*
X459792857Y-225314642D02*
X459792857Y-224743214D01*
X459792857Y-224743214D02*
X459864285Y-224600357D01*
X459864285Y-224600357D02*
X460007143Y-224528928D01*
X460007143Y-224528928D02*
X460292857Y-224528928D01*
X460292857Y-224528928D02*
X460435714Y-224600357D01*
X460435714Y-224600357D02*
X460507143Y-224743214D01*
X460507143Y-224743214D02*
X460507143Y-224886071D01*
X460507143Y-224886071D02*
X459792857Y-225028928D01*
X461078571Y-225457500D02*
X461221428Y-225528928D01*
X461221428Y-225528928D02*
X461507142Y-225528928D01*
X461507142Y-225528928D02*
X461649999Y-225457500D01*
X461649999Y-225457500D02*
X461721428Y-225314642D01*
X461721428Y-225314642D02*
X461721428Y-225243214D01*
X461721428Y-225243214D02*
X461649999Y-225100357D01*
X461649999Y-225100357D02*
X461507142Y-225028928D01*
X461507142Y-225028928D02*
X461292857Y-225028928D01*
X461292857Y-225028928D02*
X461149999Y-224957500D01*
X461149999Y-224957500D02*
X461078571Y-224814642D01*
X461078571Y-224814642D02*
X461078571Y-224743214D01*
X461078571Y-224743214D02*
X461149999Y-224600357D01*
X461149999Y-224600357D02*
X461292857Y-224528928D01*
X461292857Y-224528928D02*
X461507142Y-224528928D01*
X461507142Y-224528928D02*
X461649999Y-224600357D01*
X464364285Y-225528928D02*
X463864285Y-224814642D01*
X463507142Y-225528928D02*
X463507142Y-224028928D01*
X463507142Y-224028928D02*
X464078571Y-224028928D01*
X464078571Y-224028928D02*
X464221428Y-224100357D01*
X464221428Y-224100357D02*
X464292857Y-224171785D01*
X464292857Y-224171785D02*
X464364285Y-224314642D01*
X464364285Y-224314642D02*
X464364285Y-224528928D01*
X464364285Y-224528928D02*
X464292857Y-224671785D01*
X464292857Y-224671785D02*
X464221428Y-224743214D01*
X464221428Y-224743214D02*
X464078571Y-224814642D01*
X464078571Y-224814642D02*
X463507142Y-224814642D01*
X465578571Y-225457500D02*
X465435714Y-225528928D01*
X465435714Y-225528928D02*
X465150000Y-225528928D01*
X465150000Y-225528928D02*
X465007142Y-225457500D01*
X465007142Y-225457500D02*
X464935714Y-225314642D01*
X464935714Y-225314642D02*
X464935714Y-224743214D01*
X464935714Y-224743214D02*
X465007142Y-224600357D01*
X465007142Y-224600357D02*
X465150000Y-224528928D01*
X465150000Y-224528928D02*
X465435714Y-224528928D01*
X465435714Y-224528928D02*
X465578571Y-224600357D01*
X465578571Y-224600357D02*
X465650000Y-224743214D01*
X465650000Y-224743214D02*
X465650000Y-224886071D01*
X465650000Y-224886071D02*
X464935714Y-225028928D01*
X466149999Y-224528928D02*
X466507142Y-225528928D01*
X466507142Y-225528928D02*
X466864285Y-224528928D01*
X467435713Y-225386071D02*
X467507142Y-225457500D01*
X467507142Y-225457500D02*
X467435713Y-225528928D01*
X467435713Y-225528928D02*
X467364285Y-225457500D01*
X467364285Y-225457500D02*
X467435713Y-225386071D01*
X467435713Y-225386071D02*
X467435713Y-225528928D01*
X468007142Y-224028928D02*
X468935714Y-224028928D01*
X468935714Y-224028928D02*
X468435714Y-224600357D01*
X468435714Y-224600357D02*
X468649999Y-224600357D01*
X468649999Y-224600357D02*
X468792857Y-224671785D01*
X468792857Y-224671785D02*
X468864285Y-224743214D01*
X468864285Y-224743214D02*
X468935714Y-224886071D01*
X468935714Y-224886071D02*
X468935714Y-225243214D01*
X468935714Y-225243214D02*
X468864285Y-225386071D01*
X468864285Y-225386071D02*
X468792857Y-225457500D01*
X468792857Y-225457500D02*
X468649999Y-225528928D01*
X468649999Y-225528928D02*
X468221428Y-225528928D01*
X468221428Y-225528928D02*
X468078571Y-225457500D01*
X468078571Y-225457500D02*
X468007142Y-225386071D01*
X428792858Y-226816071D02*
X428650001Y-226744642D01*
X428650001Y-226744642D02*
X428364287Y-226744642D01*
X428364287Y-226744642D02*
X428221430Y-226816071D01*
X428221430Y-226816071D02*
X428078572Y-226958928D01*
X428078572Y-226958928D02*
X428007144Y-227101785D01*
X428007144Y-227101785D02*
X428007144Y-227387500D01*
X428007144Y-227387500D02*
X428078572Y-227530357D01*
X428078572Y-227530357D02*
X428221430Y-227673214D01*
X428221430Y-227673214D02*
X428364287Y-227744642D01*
X428364287Y-227744642D02*
X428650001Y-227744642D01*
X428650001Y-227744642D02*
X428792858Y-227673214D01*
X428507144Y-226244642D02*
X428150001Y-226316071D01*
X428150001Y-226316071D02*
X427792858Y-226530357D01*
X427792858Y-226530357D02*
X427578572Y-226887500D01*
X427578572Y-226887500D02*
X427507144Y-227244642D01*
X427507144Y-227244642D02*
X427578572Y-227601785D01*
X427578572Y-227601785D02*
X427792858Y-227958928D01*
X427792858Y-227958928D02*
X428150001Y-228173214D01*
X428150001Y-228173214D02*
X428507144Y-228244642D01*
X428507144Y-228244642D02*
X428864287Y-228173214D01*
X428864287Y-228173214D02*
X429221430Y-227958928D01*
X429221430Y-227958928D02*
X429435715Y-227601785D01*
X429435715Y-227601785D02*
X429507144Y-227244642D01*
X429507144Y-227244642D02*
X429435715Y-226887500D01*
X429435715Y-226887500D02*
X429221430Y-226530357D01*
X429221430Y-226530357D02*
X428864287Y-226316071D01*
X428864287Y-226316071D02*
X428507144Y-226244642D01*
X431221430Y-226601785D02*
X431292858Y-226530357D01*
X431292858Y-226530357D02*
X431435716Y-226458928D01*
X431435716Y-226458928D02*
X431792858Y-226458928D01*
X431792858Y-226458928D02*
X431935716Y-226530357D01*
X431935716Y-226530357D02*
X432007144Y-226601785D01*
X432007144Y-226601785D02*
X432078573Y-226744642D01*
X432078573Y-226744642D02*
X432078573Y-226887500D01*
X432078573Y-226887500D02*
X432007144Y-227101785D01*
X432007144Y-227101785D02*
X431150001Y-227958928D01*
X431150001Y-227958928D02*
X432078573Y-227958928D01*
X433007144Y-226458928D02*
X433150001Y-226458928D01*
X433150001Y-226458928D02*
X433292858Y-226530357D01*
X433292858Y-226530357D02*
X433364287Y-226601785D01*
X433364287Y-226601785D02*
X433435715Y-226744642D01*
X433435715Y-226744642D02*
X433507144Y-227030357D01*
X433507144Y-227030357D02*
X433507144Y-227387500D01*
X433507144Y-227387500D02*
X433435715Y-227673214D01*
X433435715Y-227673214D02*
X433364287Y-227816071D01*
X433364287Y-227816071D02*
X433292858Y-227887500D01*
X433292858Y-227887500D02*
X433150001Y-227958928D01*
X433150001Y-227958928D02*
X433007144Y-227958928D01*
X433007144Y-227958928D02*
X432864287Y-227887500D01*
X432864287Y-227887500D02*
X432792858Y-227816071D01*
X432792858Y-227816071D02*
X432721429Y-227673214D01*
X432721429Y-227673214D02*
X432650001Y-227387500D01*
X432650001Y-227387500D02*
X432650001Y-227030357D01*
X432650001Y-227030357D02*
X432721429Y-226744642D01*
X432721429Y-226744642D02*
X432792858Y-226601785D01*
X432792858Y-226601785D02*
X432864287Y-226530357D01*
X432864287Y-226530357D02*
X433007144Y-226458928D01*
X434078572Y-226601785D02*
X434150000Y-226530357D01*
X434150000Y-226530357D02*
X434292858Y-226458928D01*
X434292858Y-226458928D02*
X434650000Y-226458928D01*
X434650000Y-226458928D02*
X434792858Y-226530357D01*
X434792858Y-226530357D02*
X434864286Y-226601785D01*
X434864286Y-226601785D02*
X434935715Y-226744642D01*
X434935715Y-226744642D02*
X434935715Y-226887500D01*
X434935715Y-226887500D02*
X434864286Y-227101785D01*
X434864286Y-227101785D02*
X434007143Y-227958928D01*
X434007143Y-227958928D02*
X434935715Y-227958928D01*
X436364286Y-227958928D02*
X435507143Y-227958928D01*
X435935714Y-227958928D02*
X435935714Y-226458928D01*
X435935714Y-226458928D02*
X435792857Y-226673214D01*
X435792857Y-226673214D02*
X435650000Y-226816071D01*
X435650000Y-226816071D02*
X435507143Y-226887500D01*
X437007142Y-227387500D02*
X438150000Y-227387500D01*
X438792857Y-226601785D02*
X438864285Y-226530357D01*
X438864285Y-226530357D02*
X439007143Y-226458928D01*
X439007143Y-226458928D02*
X439364285Y-226458928D01*
X439364285Y-226458928D02*
X439507143Y-226530357D01*
X439507143Y-226530357D02*
X439578571Y-226601785D01*
X439578571Y-226601785D02*
X439650000Y-226744642D01*
X439650000Y-226744642D02*
X439650000Y-226887500D01*
X439650000Y-226887500D02*
X439578571Y-227101785D01*
X439578571Y-227101785D02*
X438721428Y-227958928D01*
X438721428Y-227958928D02*
X439650000Y-227958928D01*
X440149999Y-226458928D02*
X441078571Y-226458928D01*
X441078571Y-226458928D02*
X440578571Y-227030357D01*
X440578571Y-227030357D02*
X440792856Y-227030357D01*
X440792856Y-227030357D02*
X440935714Y-227101785D01*
X440935714Y-227101785D02*
X441007142Y-227173214D01*
X441007142Y-227173214D02*
X441078571Y-227316071D01*
X441078571Y-227316071D02*
X441078571Y-227673214D01*
X441078571Y-227673214D02*
X441007142Y-227816071D01*
X441007142Y-227816071D02*
X440935714Y-227887500D01*
X440935714Y-227887500D02*
X440792856Y-227958928D01*
X440792856Y-227958928D02*
X440364285Y-227958928D01*
X440364285Y-227958928D02*
X440221428Y-227887500D01*
X440221428Y-227887500D02*
X440149999Y-227816071D01*
X442864284Y-227958928D02*
X442864284Y-226458928D01*
X442864284Y-227173214D02*
X443721427Y-227173214D01*
X443721427Y-227958928D02*
X443721427Y-226458928D01*
X445007142Y-227887500D02*
X444864285Y-227958928D01*
X444864285Y-227958928D02*
X444578571Y-227958928D01*
X444578571Y-227958928D02*
X444435713Y-227887500D01*
X444435713Y-227887500D02*
X444364285Y-227744642D01*
X444364285Y-227744642D02*
X444364285Y-227173214D01*
X444364285Y-227173214D02*
X444435713Y-227030357D01*
X444435713Y-227030357D02*
X444578571Y-226958928D01*
X444578571Y-226958928D02*
X444864285Y-226958928D01*
X444864285Y-226958928D02*
X445007142Y-227030357D01*
X445007142Y-227030357D02*
X445078571Y-227173214D01*
X445078571Y-227173214D02*
X445078571Y-227316071D01*
X445078571Y-227316071D02*
X444364285Y-227458928D01*
X445721427Y-226958928D02*
X445721427Y-227958928D01*
X445721427Y-227101785D02*
X445792856Y-227030357D01*
X445792856Y-227030357D02*
X445935713Y-226958928D01*
X445935713Y-226958928D02*
X446149999Y-226958928D01*
X446149999Y-226958928D02*
X446292856Y-227030357D01*
X446292856Y-227030357D02*
X446364285Y-227173214D01*
X446364285Y-227173214D02*
X446364285Y-227958928D01*
X447078570Y-227958928D02*
X447078570Y-226958928D01*
X447078570Y-227244642D02*
X447149999Y-227101785D01*
X447149999Y-227101785D02*
X447221428Y-227030357D01*
X447221428Y-227030357D02*
X447364285Y-226958928D01*
X447364285Y-226958928D02*
X447507142Y-226958928D01*
X447864284Y-226958928D02*
X448221427Y-227958928D01*
X448578570Y-226958928D02*
X448221427Y-227958928D01*
X448221427Y-227958928D02*
X448078570Y-228316071D01*
X448078570Y-228316071D02*
X448007141Y-228387500D01*
X448007141Y-228387500D02*
X447864284Y-228458928D01*
X449149998Y-227958928D02*
X449149998Y-226458928D01*
X449292856Y-227387500D02*
X449721427Y-227958928D01*
X449721427Y-226958928D02*
X449149998Y-227530357D01*
X452364284Y-227958928D02*
X451864284Y-227244642D01*
X451507141Y-227958928D02*
X451507141Y-226458928D01*
X451507141Y-226458928D02*
X452078570Y-226458928D01*
X452078570Y-226458928D02*
X452221427Y-226530357D01*
X452221427Y-226530357D02*
X452292856Y-226601785D01*
X452292856Y-226601785D02*
X452364284Y-226744642D01*
X452364284Y-226744642D02*
X452364284Y-226958928D01*
X452364284Y-226958928D02*
X452292856Y-227101785D01*
X452292856Y-227101785D02*
X452221427Y-227173214D01*
X452221427Y-227173214D02*
X452078570Y-227244642D01*
X452078570Y-227244642D02*
X451507141Y-227244642D01*
X453007141Y-227958928D02*
X453007141Y-226958928D01*
X453007141Y-226458928D02*
X452935713Y-226530357D01*
X452935713Y-226530357D02*
X453007141Y-226601785D01*
X453007141Y-226601785D02*
X453078570Y-226530357D01*
X453078570Y-226530357D02*
X453007141Y-226458928D01*
X453007141Y-226458928D02*
X453007141Y-226601785D01*
X454364285Y-227887500D02*
X454221427Y-227958928D01*
X454221427Y-227958928D02*
X453935713Y-227958928D01*
X453935713Y-227958928D02*
X453792856Y-227887500D01*
X453792856Y-227887500D02*
X453721427Y-227816071D01*
X453721427Y-227816071D02*
X453649999Y-227673214D01*
X453649999Y-227673214D02*
X453649999Y-227244642D01*
X453649999Y-227244642D02*
X453721427Y-227101785D01*
X453721427Y-227101785D02*
X453792856Y-227030357D01*
X453792856Y-227030357D02*
X453935713Y-226958928D01*
X453935713Y-226958928D02*
X454221427Y-226958928D01*
X454221427Y-226958928D02*
X454364285Y-227030357D01*
X455007141Y-227958928D02*
X455007141Y-226458928D01*
X455649999Y-227958928D02*
X455649999Y-227173214D01*
X455649999Y-227173214D02*
X455578570Y-227030357D01*
X455578570Y-227030357D02*
X455435713Y-226958928D01*
X455435713Y-226958928D02*
X455221427Y-226958928D01*
X455221427Y-226958928D02*
X455078570Y-227030357D01*
X455078570Y-227030357D02*
X455007141Y-227101785D01*
X456149999Y-226958928D02*
X456721427Y-226958928D01*
X456364284Y-226458928D02*
X456364284Y-227744642D01*
X456364284Y-227744642D02*
X456435713Y-227887500D01*
X456435713Y-227887500D02*
X456578570Y-227958928D01*
X456578570Y-227958928D02*
X456721427Y-227958928D01*
X457792856Y-227887500D02*
X457649999Y-227958928D01*
X457649999Y-227958928D02*
X457364285Y-227958928D01*
X457364285Y-227958928D02*
X457221427Y-227887500D01*
X457221427Y-227887500D02*
X457149999Y-227744642D01*
X457149999Y-227744642D02*
X457149999Y-227173214D01*
X457149999Y-227173214D02*
X457221427Y-227030357D01*
X457221427Y-227030357D02*
X457364285Y-226958928D01*
X457364285Y-226958928D02*
X457649999Y-226958928D01*
X457649999Y-226958928D02*
X457792856Y-227030357D01*
X457792856Y-227030357D02*
X457864285Y-227173214D01*
X457864285Y-227173214D02*
X457864285Y-227316071D01*
X457864285Y-227316071D02*
X457149999Y-227458928D01*
X458507141Y-227958928D02*
X458507141Y-226958928D01*
X458507141Y-227244642D02*
X458578570Y-227101785D01*
X458578570Y-227101785D02*
X458649999Y-227030357D01*
X458649999Y-227030357D02*
X458792856Y-226958928D01*
X458792856Y-226958928D02*
X458935713Y-226958928D01*
D12*
X461802171Y-241280019D02*
X461706933Y-241232400D01*
X461706933Y-241232400D02*
X461659314Y-241184780D01*
X461659314Y-241184780D02*
X461611695Y-241089542D01*
X461611695Y-241089542D02*
X461611695Y-240803828D01*
X461611695Y-240803828D02*
X461659314Y-240708590D01*
X461659314Y-240708590D02*
X461706933Y-240660971D01*
X461706933Y-240660971D02*
X461802171Y-240613352D01*
X461802171Y-240613352D02*
X461945028Y-240613352D01*
X461945028Y-240613352D02*
X462040266Y-240660971D01*
X462040266Y-240660971D02*
X462087885Y-240708590D01*
X462087885Y-240708590D02*
X462135504Y-240803828D01*
X462135504Y-240803828D02*
X462135504Y-241089542D01*
X462135504Y-241089542D02*
X462087885Y-241184780D01*
X462087885Y-241184780D02*
X462040266Y-241232400D01*
X462040266Y-241232400D02*
X461945028Y-241280019D01*
X461945028Y-241280019D02*
X461802171Y-241280019D01*
X457738171Y-241262619D02*
X457642933Y-241215000D01*
X457642933Y-241215000D02*
X457595314Y-241167380D01*
X457595314Y-241167380D02*
X457547695Y-241072142D01*
X457547695Y-241072142D02*
X457547695Y-240786428D01*
X457547695Y-240786428D02*
X457595314Y-240691190D01*
X457595314Y-240691190D02*
X457642933Y-240643571D01*
X457642933Y-240643571D02*
X457738171Y-240595952D01*
X457738171Y-240595952D02*
X457881028Y-240595952D01*
X457881028Y-240595952D02*
X457976266Y-240643571D01*
X457976266Y-240643571D02*
X458023885Y-240691190D01*
X458023885Y-240691190D02*
X458071504Y-240786428D01*
X458071504Y-240786428D02*
X458071504Y-241072142D01*
X458071504Y-241072142D02*
X458023885Y-241167380D01*
X458023885Y-241167380D02*
X457976266Y-241215000D01*
X457976266Y-241215000D02*
X457881028Y-241262619D01*
X457881028Y-241262619D02*
X457738171Y-241262619D01*
X453724971Y-241262619D02*
X453629733Y-241215000D01*
X453629733Y-241215000D02*
X453582114Y-241167380D01*
X453582114Y-241167380D02*
X453534495Y-241072142D01*
X453534495Y-241072142D02*
X453534495Y-240786428D01*
X453534495Y-240786428D02*
X453582114Y-240691190D01*
X453582114Y-240691190D02*
X453629733Y-240643571D01*
X453629733Y-240643571D02*
X453724971Y-240595952D01*
X453724971Y-240595952D02*
X453867828Y-240595952D01*
X453867828Y-240595952D02*
X453963066Y-240643571D01*
X453963066Y-240643571D02*
X454010685Y-240691190D01*
X454010685Y-240691190D02*
X454058304Y-240786428D01*
X454058304Y-240786428D02*
X454058304Y-241072142D01*
X454058304Y-241072142D02*
X454010685Y-241167380D01*
X454010685Y-241167380D02*
X453963066Y-241215000D01*
X453963066Y-241215000D02*
X453867828Y-241262619D01*
X453867828Y-241262619D02*
X453724971Y-241262619D01*
X450270571Y-254310219D02*
X450175333Y-254262600D01*
X450175333Y-254262600D02*
X450127714Y-254214980D01*
X450127714Y-254214980D02*
X450080095Y-254119742D01*
X450080095Y-254119742D02*
X450080095Y-253834028D01*
X450080095Y-253834028D02*
X450127714Y-253738790D01*
X450127714Y-253738790D02*
X450175333Y-253691171D01*
X450175333Y-253691171D02*
X450270571Y-253643552D01*
X450270571Y-253643552D02*
X450413428Y-253643552D01*
X450413428Y-253643552D02*
X450508666Y-253691171D01*
X450508666Y-253691171D02*
X450556285Y-253738790D01*
X450556285Y-253738790D02*
X450603904Y-253834028D01*
X450603904Y-253834028D02*
X450603904Y-254119742D01*
X450603904Y-254119742D02*
X450556285Y-254214980D01*
X450556285Y-254214980D02*
X450508666Y-254262600D01*
X450508666Y-254262600D02*
X450413428Y-254310219D01*
X450413428Y-254310219D02*
X450270571Y-254310219D01*
X454334571Y-254310219D02*
X454239333Y-254262600D01*
X454239333Y-254262600D02*
X454191714Y-254214980D01*
X454191714Y-254214980D02*
X454144095Y-254119742D01*
X454144095Y-254119742D02*
X454144095Y-253834028D01*
X454144095Y-253834028D02*
X454191714Y-253738790D01*
X454191714Y-253738790D02*
X454239333Y-253691171D01*
X454239333Y-253691171D02*
X454334571Y-253643552D01*
X454334571Y-253643552D02*
X454477428Y-253643552D01*
X454477428Y-253643552D02*
X454572666Y-253691171D01*
X454572666Y-253691171D02*
X454620285Y-253738790D01*
X454620285Y-253738790D02*
X454667904Y-253834028D01*
X454667904Y-253834028D02*
X454667904Y-254119742D01*
X454667904Y-254119742D02*
X454620285Y-254214980D01*
X454620285Y-254214980D02*
X454572666Y-254262600D01*
X454572666Y-254262600D02*
X454477428Y-254310219D01*
X454477428Y-254310219D02*
X454334571Y-254310219D01*
X458347771Y-254310219D02*
X458252533Y-254262600D01*
X458252533Y-254262600D02*
X458204914Y-254214980D01*
X458204914Y-254214980D02*
X458157295Y-254119742D01*
X458157295Y-254119742D02*
X458157295Y-253834028D01*
X458157295Y-253834028D02*
X458204914Y-253738790D01*
X458204914Y-253738790D02*
X458252533Y-253691171D01*
X458252533Y-253691171D02*
X458347771Y-253643552D01*
X458347771Y-253643552D02*
X458490628Y-253643552D01*
X458490628Y-253643552D02*
X458585866Y-253691171D01*
X458585866Y-253691171D02*
X458633485Y-253738790D01*
X458633485Y-253738790D02*
X458681104Y-253834028D01*
X458681104Y-253834028D02*
X458681104Y-254119742D01*
X458681104Y-254119742D02*
X458633485Y-254214980D01*
X458633485Y-254214980D02*
X458585866Y-254262600D01*
X458585866Y-254262600D02*
X458490628Y-254310219D01*
X458490628Y-254310219D02*
X458347771Y-254310219D01*
D13*
X302700000Y-226900000D02*
X302700000Y-226950000D01*
X302700000Y-225950000D02*
X302700000Y-226900000D01*
X305950000Y-222700000D02*
G75*
G03*
X302700000Y-225950000I0J-3250000D01*
G01*
X302700000Y-258950000D02*
X302700000Y-226850000D01*
X472282520Y-225945700D02*
X472282520Y-258945700D01*
X472281320Y-225936880D02*
G75*
G03*
X469031320Y-222686880I-3250000J0D01*
G01*
X469031320Y-222686880D02*
X305950000Y-222700000D01*
X305950000Y-262200000D02*
X307250000Y-262200000D01*
X302700000Y-258950000D02*
G75*
G03*
X305950000Y-262200000I3250000J0D01*
G01*
X469950000Y-262200000D02*
X307250000Y-262200000D01*
X469044020Y-262201660D02*
G75*
G03*
X472276120Y-258958080I-11500J3243580D01*
G01*
D12*
%TO.C,H26*%
X385164485Y-221184519D02*
X385164485Y-220184519D01*
X385164485Y-220660709D02*
X385735913Y-220660709D01*
X385735913Y-221184519D02*
X385735913Y-220184519D01*
X386164485Y-220279757D02*
X386212104Y-220232138D01*
X386212104Y-220232138D02*
X386307342Y-220184519D01*
X386307342Y-220184519D02*
X386545437Y-220184519D01*
X386545437Y-220184519D02*
X386640675Y-220232138D01*
X386640675Y-220232138D02*
X386688294Y-220279757D01*
X386688294Y-220279757D02*
X386735913Y-220374995D01*
X386735913Y-220374995D02*
X386735913Y-220470233D01*
X386735913Y-220470233D02*
X386688294Y-220613090D01*
X386688294Y-220613090D02*
X386116866Y-221184519D01*
X386116866Y-221184519D02*
X386735913Y-221184519D01*
X387593056Y-220184519D02*
X387402580Y-220184519D01*
X387402580Y-220184519D02*
X387307342Y-220232138D01*
X387307342Y-220232138D02*
X387259723Y-220279757D01*
X387259723Y-220279757D02*
X387164485Y-220422614D01*
X387164485Y-220422614D02*
X387116866Y-220613090D01*
X387116866Y-220613090D02*
X387116866Y-220994042D01*
X387116866Y-220994042D02*
X387164485Y-221089280D01*
X387164485Y-221089280D02*
X387212104Y-221136900D01*
X387212104Y-221136900D02*
X387307342Y-221184519D01*
X387307342Y-221184519D02*
X387497818Y-221184519D01*
X387497818Y-221184519D02*
X387593056Y-221136900D01*
X387593056Y-221136900D02*
X387640675Y-221089280D01*
X387640675Y-221089280D02*
X387688294Y-220994042D01*
X387688294Y-220994042D02*
X387688294Y-220755947D01*
X387688294Y-220755947D02*
X387640675Y-220660709D01*
X387640675Y-220660709D02*
X387593056Y-220613090D01*
X387593056Y-220613090D02*
X387497818Y-220565471D01*
X387497818Y-220565471D02*
X387307342Y-220565471D01*
X387307342Y-220565471D02*
X387212104Y-220613090D01*
X387212104Y-220613090D02*
X387164485Y-220660709D01*
X387164485Y-220660709D02*
X387116866Y-220755947D01*
%TO.C,D51*%
X452524219Y-239364285D02*
X451524219Y-239364285D01*
X451524219Y-239364285D02*
X451524219Y-239126190D01*
X451524219Y-239126190D02*
X451571838Y-238983333D01*
X451571838Y-238983333D02*
X451667076Y-238888095D01*
X451667076Y-238888095D02*
X451762314Y-238840476D01*
X451762314Y-238840476D02*
X451952790Y-238792857D01*
X451952790Y-238792857D02*
X452095647Y-238792857D01*
X452095647Y-238792857D02*
X452286123Y-238840476D01*
X452286123Y-238840476D02*
X452381361Y-238888095D01*
X452381361Y-238888095D02*
X452476600Y-238983333D01*
X452476600Y-238983333D02*
X452524219Y-239126190D01*
X452524219Y-239126190D02*
X452524219Y-239364285D01*
X451524219Y-237888095D02*
X451524219Y-238364285D01*
X451524219Y-238364285D02*
X452000409Y-238411904D01*
X452000409Y-238411904D02*
X451952790Y-238364285D01*
X451952790Y-238364285D02*
X451905171Y-238269047D01*
X451905171Y-238269047D02*
X451905171Y-238030952D01*
X451905171Y-238030952D02*
X451952790Y-237935714D01*
X451952790Y-237935714D02*
X452000409Y-237888095D01*
X452000409Y-237888095D02*
X452095647Y-237840476D01*
X452095647Y-237840476D02*
X452333742Y-237840476D01*
X452333742Y-237840476D02*
X452428980Y-237888095D01*
X452428980Y-237888095D02*
X452476600Y-237935714D01*
X452476600Y-237935714D02*
X452524219Y-238030952D01*
X452524219Y-238030952D02*
X452524219Y-238269047D01*
X452524219Y-238269047D02*
X452476600Y-238364285D01*
X452476600Y-238364285D02*
X452428980Y-238411904D01*
X452524219Y-236888095D02*
X452524219Y-237459523D01*
X452524219Y-237173809D02*
X451524219Y-237173809D01*
X451524219Y-237173809D02*
X451667076Y-237269047D01*
X451667076Y-237269047D02*
X451762314Y-237364285D01*
X451762314Y-237364285D02*
X451809933Y-237459523D01*
%TO.C,H25*%
X464138165Y-235064759D02*
X464138165Y-234064759D01*
X464138165Y-234540949D02*
X464709593Y-234540949D01*
X464709593Y-235064759D02*
X464709593Y-234064759D01*
X465138165Y-234159997D02*
X465185784Y-234112378D01*
X465185784Y-234112378D02*
X465281022Y-234064759D01*
X465281022Y-234064759D02*
X465519117Y-234064759D01*
X465519117Y-234064759D02*
X465614355Y-234112378D01*
X465614355Y-234112378D02*
X465661974Y-234159997D01*
X465661974Y-234159997D02*
X465709593Y-234255235D01*
X465709593Y-234255235D02*
X465709593Y-234350473D01*
X465709593Y-234350473D02*
X465661974Y-234493330D01*
X465661974Y-234493330D02*
X465090546Y-235064759D01*
X465090546Y-235064759D02*
X465709593Y-235064759D01*
X466614355Y-234064759D02*
X466138165Y-234064759D01*
X466138165Y-234064759D02*
X466090546Y-234540949D01*
X466090546Y-234540949D02*
X466138165Y-234493330D01*
X466138165Y-234493330D02*
X466233403Y-234445711D01*
X466233403Y-234445711D02*
X466471498Y-234445711D01*
X466471498Y-234445711D02*
X466566736Y-234493330D01*
X466566736Y-234493330D02*
X466614355Y-234540949D01*
X466614355Y-234540949D02*
X466661974Y-234636187D01*
X466661974Y-234636187D02*
X466661974Y-234874282D01*
X466661974Y-234874282D02*
X466614355Y-234969520D01*
X466614355Y-234969520D02*
X466566736Y-235017140D01*
X466566736Y-235017140D02*
X466471498Y-235064759D01*
X466471498Y-235064759D02*
X466233403Y-235064759D01*
X466233403Y-235064759D02*
X466138165Y-235017140D01*
X466138165Y-235017140D02*
X466090546Y-234969520D01*
%TO.C,H24*%
X444155985Y-254305259D02*
X444155985Y-253305259D01*
X444155985Y-253781449D02*
X444727413Y-253781449D01*
X444727413Y-254305259D02*
X444727413Y-253305259D01*
X445155985Y-253400497D02*
X445203604Y-253352878D01*
X445203604Y-253352878D02*
X445298842Y-253305259D01*
X445298842Y-253305259D02*
X445536937Y-253305259D01*
X445536937Y-253305259D02*
X445632175Y-253352878D01*
X445632175Y-253352878D02*
X445679794Y-253400497D01*
X445679794Y-253400497D02*
X445727413Y-253495735D01*
X445727413Y-253495735D02*
X445727413Y-253590973D01*
X445727413Y-253590973D02*
X445679794Y-253733830D01*
X445679794Y-253733830D02*
X445108366Y-254305259D01*
X445108366Y-254305259D02*
X445727413Y-254305259D01*
X446584556Y-253638592D02*
X446584556Y-254305259D01*
X446346461Y-253257640D02*
X446108366Y-253971925D01*
X446108366Y-253971925D02*
X446727413Y-253971925D01*
%TO.C,H23*%
X311443525Y-254953479D02*
X311443525Y-253953479D01*
X311443525Y-254429669D02*
X312014953Y-254429669D01*
X312014953Y-254953479D02*
X312014953Y-253953479D01*
X312443525Y-254048717D02*
X312491144Y-254001098D01*
X312491144Y-254001098D02*
X312586382Y-253953479D01*
X312586382Y-253953479D02*
X312824477Y-253953479D01*
X312824477Y-253953479D02*
X312919715Y-254001098D01*
X312919715Y-254001098D02*
X312967334Y-254048717D01*
X312967334Y-254048717D02*
X313014953Y-254143955D01*
X313014953Y-254143955D02*
X313014953Y-254239193D01*
X313014953Y-254239193D02*
X312967334Y-254382050D01*
X312967334Y-254382050D02*
X312395906Y-254953479D01*
X312395906Y-254953479D02*
X313014953Y-254953479D01*
X313348287Y-253953479D02*
X313967334Y-253953479D01*
X313967334Y-253953479D02*
X313634001Y-254334431D01*
X313634001Y-254334431D02*
X313776858Y-254334431D01*
X313776858Y-254334431D02*
X313872096Y-254382050D01*
X313872096Y-254382050D02*
X313919715Y-254429669D01*
X313919715Y-254429669D02*
X313967334Y-254524907D01*
X313967334Y-254524907D02*
X313967334Y-254763002D01*
X313967334Y-254763002D02*
X313919715Y-254858240D01*
X313919715Y-254858240D02*
X313872096Y-254905860D01*
X313872096Y-254905860D02*
X313776858Y-254953479D01*
X313776858Y-254953479D02*
X313491144Y-254953479D01*
X313491144Y-254953479D02*
X313395906Y-254905860D01*
X313395906Y-254905860D02*
X313348287Y-254858240D01*
%TO.C,H22*%
X461461005Y-254956019D02*
X461461005Y-253956019D01*
X461461005Y-254432209D02*
X462032433Y-254432209D01*
X462032433Y-254956019D02*
X462032433Y-253956019D01*
X462461005Y-254051257D02*
X462508624Y-254003638D01*
X462508624Y-254003638D02*
X462603862Y-253956019D01*
X462603862Y-253956019D02*
X462841957Y-253956019D01*
X462841957Y-253956019D02*
X462937195Y-254003638D01*
X462937195Y-254003638D02*
X462984814Y-254051257D01*
X462984814Y-254051257D02*
X463032433Y-254146495D01*
X463032433Y-254146495D02*
X463032433Y-254241733D01*
X463032433Y-254241733D02*
X462984814Y-254384590D01*
X462984814Y-254384590D02*
X462413386Y-254956019D01*
X462413386Y-254956019D02*
X463032433Y-254956019D01*
X463413386Y-254051257D02*
X463461005Y-254003638D01*
X463461005Y-254003638D02*
X463556243Y-253956019D01*
X463556243Y-253956019D02*
X463794338Y-253956019D01*
X463794338Y-253956019D02*
X463889576Y-254003638D01*
X463889576Y-254003638D02*
X463937195Y-254051257D01*
X463937195Y-254051257D02*
X463984814Y-254146495D01*
X463984814Y-254146495D02*
X463984814Y-254241733D01*
X463984814Y-254241733D02*
X463937195Y-254384590D01*
X463937195Y-254384590D02*
X463365767Y-254956019D01*
X463365767Y-254956019D02*
X463984814Y-254956019D01*
%TO.C,R16*%
X362998359Y-229452297D02*
X362522168Y-229785630D01*
X362998359Y-230023725D02*
X361998359Y-230023725D01*
X361998359Y-230023725D02*
X361998359Y-229642773D01*
X361998359Y-229642773D02*
X362045978Y-229547535D01*
X362045978Y-229547535D02*
X362093597Y-229499916D01*
X362093597Y-229499916D02*
X362188835Y-229452297D01*
X362188835Y-229452297D02*
X362331692Y-229452297D01*
X362331692Y-229452297D02*
X362426930Y-229499916D01*
X362426930Y-229499916D02*
X362474549Y-229547535D01*
X362474549Y-229547535D02*
X362522168Y-229642773D01*
X362522168Y-229642773D02*
X362522168Y-230023725D01*
X362998359Y-228499916D02*
X362998359Y-229071344D01*
X362998359Y-228785630D02*
X361998359Y-228785630D01*
X361998359Y-228785630D02*
X362141216Y-228880868D01*
X362141216Y-228880868D02*
X362236454Y-228976106D01*
X362236454Y-228976106D02*
X362284073Y-229071344D01*
X361998359Y-227642773D02*
X361998359Y-227833249D01*
X361998359Y-227833249D02*
X362045978Y-227928487D01*
X362045978Y-227928487D02*
X362093597Y-227976106D01*
X362093597Y-227976106D02*
X362236454Y-228071344D01*
X362236454Y-228071344D02*
X362426930Y-228118963D01*
X362426930Y-228118963D02*
X362807882Y-228118963D01*
X362807882Y-228118963D02*
X362903120Y-228071344D01*
X362903120Y-228071344D02*
X362950740Y-228023725D01*
X362950740Y-228023725D02*
X362998359Y-227928487D01*
X362998359Y-227928487D02*
X362998359Y-227738011D01*
X362998359Y-227738011D02*
X362950740Y-227642773D01*
X362950740Y-227642773D02*
X362903120Y-227595154D01*
X362903120Y-227595154D02*
X362807882Y-227547535D01*
X362807882Y-227547535D02*
X362569787Y-227547535D01*
X362569787Y-227547535D02*
X362474549Y-227595154D01*
X362474549Y-227595154D02*
X362426930Y-227642773D01*
X362426930Y-227642773D02*
X362379311Y-227738011D01*
X362379311Y-227738011D02*
X362379311Y-227928487D01*
X362379311Y-227928487D02*
X362426930Y-228023725D01*
X362426930Y-228023725D02*
X362474549Y-228071344D01*
X362474549Y-228071344D02*
X362569787Y-228118963D01*
%TO.C,R15*%
X366224159Y-229475377D02*
X365747968Y-229808710D01*
X366224159Y-230046805D02*
X365224159Y-230046805D01*
X365224159Y-230046805D02*
X365224159Y-229665853D01*
X365224159Y-229665853D02*
X365271778Y-229570615D01*
X365271778Y-229570615D02*
X365319397Y-229522996D01*
X365319397Y-229522996D02*
X365414635Y-229475377D01*
X365414635Y-229475377D02*
X365557492Y-229475377D01*
X365557492Y-229475377D02*
X365652730Y-229522996D01*
X365652730Y-229522996D02*
X365700349Y-229570615D01*
X365700349Y-229570615D02*
X365747968Y-229665853D01*
X365747968Y-229665853D02*
X365747968Y-230046805D01*
X366224159Y-228522996D02*
X366224159Y-229094424D01*
X366224159Y-228808710D02*
X365224159Y-228808710D01*
X365224159Y-228808710D02*
X365367016Y-228903948D01*
X365367016Y-228903948D02*
X365462254Y-228999186D01*
X365462254Y-228999186D02*
X365509873Y-229094424D01*
X365224159Y-227618234D02*
X365224159Y-228094424D01*
X365224159Y-228094424D02*
X365700349Y-228142043D01*
X365700349Y-228142043D02*
X365652730Y-228094424D01*
X365652730Y-228094424D02*
X365605111Y-227999186D01*
X365605111Y-227999186D02*
X365605111Y-227761091D01*
X365605111Y-227761091D02*
X365652730Y-227665853D01*
X365652730Y-227665853D02*
X365700349Y-227618234D01*
X365700349Y-227618234D02*
X365795587Y-227570615D01*
X365795587Y-227570615D02*
X366033682Y-227570615D01*
X366033682Y-227570615D02*
X366128920Y-227618234D01*
X366128920Y-227618234D02*
X366176540Y-227665853D01*
X366176540Y-227665853D02*
X366224159Y-227761091D01*
X366224159Y-227761091D02*
X366224159Y-227999186D01*
X366224159Y-227999186D02*
X366176540Y-228094424D01*
X366176540Y-228094424D02*
X366128920Y-228142043D01*
%TO.C,R14*%
X406655142Y-240366619D02*
X406321809Y-239890428D01*
X406083714Y-240366619D02*
X406083714Y-239366619D01*
X406083714Y-239366619D02*
X406464666Y-239366619D01*
X406464666Y-239366619D02*
X406559904Y-239414238D01*
X406559904Y-239414238D02*
X406607523Y-239461857D01*
X406607523Y-239461857D02*
X406655142Y-239557095D01*
X406655142Y-239557095D02*
X406655142Y-239699952D01*
X406655142Y-239699952D02*
X406607523Y-239795190D01*
X406607523Y-239795190D02*
X406559904Y-239842809D01*
X406559904Y-239842809D02*
X406464666Y-239890428D01*
X406464666Y-239890428D02*
X406083714Y-239890428D01*
X407607523Y-240366619D02*
X407036095Y-240366619D01*
X407321809Y-240366619D02*
X407321809Y-239366619D01*
X407321809Y-239366619D02*
X407226571Y-239509476D01*
X407226571Y-239509476D02*
X407131333Y-239604714D01*
X407131333Y-239604714D02*
X407036095Y-239652333D01*
X408464666Y-239699952D02*
X408464666Y-240366619D01*
X408226571Y-239319000D02*
X407988476Y-240033285D01*
X407988476Y-240033285D02*
X408607523Y-240033285D01*
%TO.C,R13*%
X412479142Y-240366619D02*
X412145809Y-239890428D01*
X411907714Y-240366619D02*
X411907714Y-239366619D01*
X411907714Y-239366619D02*
X412288666Y-239366619D01*
X412288666Y-239366619D02*
X412383904Y-239414238D01*
X412383904Y-239414238D02*
X412431523Y-239461857D01*
X412431523Y-239461857D02*
X412479142Y-239557095D01*
X412479142Y-239557095D02*
X412479142Y-239699952D01*
X412479142Y-239699952D02*
X412431523Y-239795190D01*
X412431523Y-239795190D02*
X412383904Y-239842809D01*
X412383904Y-239842809D02*
X412288666Y-239890428D01*
X412288666Y-239890428D02*
X411907714Y-239890428D01*
X413431523Y-240366619D02*
X412860095Y-240366619D01*
X413145809Y-240366619D02*
X413145809Y-239366619D01*
X413145809Y-239366619D02*
X413050571Y-239509476D01*
X413050571Y-239509476D02*
X412955333Y-239604714D01*
X412955333Y-239604714D02*
X412860095Y-239652333D01*
X413764857Y-239366619D02*
X414383904Y-239366619D01*
X414383904Y-239366619D02*
X414050571Y-239747571D01*
X414050571Y-239747571D02*
X414193428Y-239747571D01*
X414193428Y-239747571D02*
X414288666Y-239795190D01*
X414288666Y-239795190D02*
X414336285Y-239842809D01*
X414336285Y-239842809D02*
X414383904Y-239938047D01*
X414383904Y-239938047D02*
X414383904Y-240176142D01*
X414383904Y-240176142D02*
X414336285Y-240271380D01*
X414336285Y-240271380D02*
X414288666Y-240319000D01*
X414288666Y-240319000D02*
X414193428Y-240366619D01*
X414193428Y-240366619D02*
X413907714Y-240366619D01*
X413907714Y-240366619D02*
X413812476Y-240319000D01*
X413812476Y-240319000D02*
X413764857Y-240271380D01*
%TO.C,R12*%
X421962342Y-230332619D02*
X421629009Y-229856428D01*
X421390914Y-230332619D02*
X421390914Y-229332619D01*
X421390914Y-229332619D02*
X421771866Y-229332619D01*
X421771866Y-229332619D02*
X421867104Y-229380238D01*
X421867104Y-229380238D02*
X421914723Y-229427857D01*
X421914723Y-229427857D02*
X421962342Y-229523095D01*
X421962342Y-229523095D02*
X421962342Y-229665952D01*
X421962342Y-229665952D02*
X421914723Y-229761190D01*
X421914723Y-229761190D02*
X421867104Y-229808809D01*
X421867104Y-229808809D02*
X421771866Y-229856428D01*
X421771866Y-229856428D02*
X421390914Y-229856428D01*
X422914723Y-230332619D02*
X422343295Y-230332619D01*
X422629009Y-230332619D02*
X422629009Y-229332619D01*
X422629009Y-229332619D02*
X422533771Y-229475476D01*
X422533771Y-229475476D02*
X422438533Y-229570714D01*
X422438533Y-229570714D02*
X422343295Y-229618333D01*
X423295676Y-229427857D02*
X423343295Y-229380238D01*
X423343295Y-229380238D02*
X423438533Y-229332619D01*
X423438533Y-229332619D02*
X423676628Y-229332619D01*
X423676628Y-229332619D02*
X423771866Y-229380238D01*
X423771866Y-229380238D02*
X423819485Y-229427857D01*
X423819485Y-229427857D02*
X423867104Y-229523095D01*
X423867104Y-229523095D02*
X423867104Y-229618333D01*
X423867104Y-229618333D02*
X423819485Y-229761190D01*
X423819485Y-229761190D02*
X423248057Y-230332619D01*
X423248057Y-230332619D02*
X423867104Y-230332619D01*
%TO.C,R11*%
X364401439Y-233901217D02*
X363925248Y-234234550D01*
X364401439Y-234472645D02*
X363401439Y-234472645D01*
X363401439Y-234472645D02*
X363401439Y-234091693D01*
X363401439Y-234091693D02*
X363449058Y-233996455D01*
X363449058Y-233996455D02*
X363496677Y-233948836D01*
X363496677Y-233948836D02*
X363591915Y-233901217D01*
X363591915Y-233901217D02*
X363734772Y-233901217D01*
X363734772Y-233901217D02*
X363830010Y-233948836D01*
X363830010Y-233948836D02*
X363877629Y-233996455D01*
X363877629Y-233996455D02*
X363925248Y-234091693D01*
X363925248Y-234091693D02*
X363925248Y-234472645D01*
X364401439Y-232948836D02*
X364401439Y-233520264D01*
X364401439Y-233234550D02*
X363401439Y-233234550D01*
X363401439Y-233234550D02*
X363544296Y-233329788D01*
X363544296Y-233329788D02*
X363639534Y-233425026D01*
X363639534Y-233425026D02*
X363687153Y-233520264D01*
X364401439Y-231996455D02*
X364401439Y-232567883D01*
X364401439Y-232282169D02*
X363401439Y-232282169D01*
X363401439Y-232282169D02*
X363544296Y-232377407D01*
X363544296Y-232377407D02*
X363639534Y-232472645D01*
X363639534Y-232472645D02*
X363687153Y-232567883D01*
%TO.C,R10*%
X362156079Y-233901217D02*
X361679888Y-234234550D01*
X362156079Y-234472645D02*
X361156079Y-234472645D01*
X361156079Y-234472645D02*
X361156079Y-234091693D01*
X361156079Y-234091693D02*
X361203698Y-233996455D01*
X361203698Y-233996455D02*
X361251317Y-233948836D01*
X361251317Y-233948836D02*
X361346555Y-233901217D01*
X361346555Y-233901217D02*
X361489412Y-233901217D01*
X361489412Y-233901217D02*
X361584650Y-233948836D01*
X361584650Y-233948836D02*
X361632269Y-233996455D01*
X361632269Y-233996455D02*
X361679888Y-234091693D01*
X361679888Y-234091693D02*
X361679888Y-234472645D01*
X362156079Y-232948836D02*
X362156079Y-233520264D01*
X362156079Y-233234550D02*
X361156079Y-233234550D01*
X361156079Y-233234550D02*
X361298936Y-233329788D01*
X361298936Y-233329788D02*
X361394174Y-233425026D01*
X361394174Y-233425026D02*
X361441793Y-233520264D01*
X361156079Y-232329788D02*
X361156079Y-232234550D01*
X361156079Y-232234550D02*
X361203698Y-232139312D01*
X361203698Y-232139312D02*
X361251317Y-232091693D01*
X361251317Y-232091693D02*
X361346555Y-232044074D01*
X361346555Y-232044074D02*
X361537031Y-231996455D01*
X361537031Y-231996455D02*
X361775126Y-231996455D01*
X361775126Y-231996455D02*
X361965602Y-232044074D01*
X361965602Y-232044074D02*
X362060840Y-232091693D01*
X362060840Y-232091693D02*
X362108460Y-232139312D01*
X362108460Y-232139312D02*
X362156079Y-232234550D01*
X362156079Y-232234550D02*
X362156079Y-232329788D01*
X362156079Y-232329788D02*
X362108460Y-232425026D01*
X362108460Y-232425026D02*
X362060840Y-232472645D01*
X362060840Y-232472645D02*
X361965602Y-232520264D01*
X361965602Y-232520264D02*
X361775126Y-232567883D01*
X361775126Y-232567883D02*
X361537031Y-232567883D01*
X361537031Y-232567883D02*
X361346555Y-232520264D01*
X361346555Y-232520264D02*
X361251317Y-232472645D01*
X361251317Y-232472645D02*
X361203698Y-232425026D01*
X361203698Y-232425026D02*
X361156079Y-232329788D01*
%TO.C,R9*%
X421930533Y-232923419D02*
X421597200Y-232447228D01*
X421359105Y-232923419D02*
X421359105Y-231923419D01*
X421359105Y-231923419D02*
X421740057Y-231923419D01*
X421740057Y-231923419D02*
X421835295Y-231971038D01*
X421835295Y-231971038D02*
X421882914Y-232018657D01*
X421882914Y-232018657D02*
X421930533Y-232113895D01*
X421930533Y-232113895D02*
X421930533Y-232256752D01*
X421930533Y-232256752D02*
X421882914Y-232351990D01*
X421882914Y-232351990D02*
X421835295Y-232399609D01*
X421835295Y-232399609D02*
X421740057Y-232447228D01*
X421740057Y-232447228D02*
X421359105Y-232447228D01*
X422406724Y-232923419D02*
X422597200Y-232923419D01*
X422597200Y-232923419D02*
X422692438Y-232875800D01*
X422692438Y-232875800D02*
X422740057Y-232828180D01*
X422740057Y-232828180D02*
X422835295Y-232685323D01*
X422835295Y-232685323D02*
X422882914Y-232494847D01*
X422882914Y-232494847D02*
X422882914Y-232113895D01*
X422882914Y-232113895D02*
X422835295Y-232018657D01*
X422835295Y-232018657D02*
X422787676Y-231971038D01*
X422787676Y-231971038D02*
X422692438Y-231923419D01*
X422692438Y-231923419D02*
X422501962Y-231923419D01*
X422501962Y-231923419D02*
X422406724Y-231971038D01*
X422406724Y-231971038D02*
X422359105Y-232018657D01*
X422359105Y-232018657D02*
X422311486Y-232113895D01*
X422311486Y-232113895D02*
X422311486Y-232351990D01*
X422311486Y-232351990D02*
X422359105Y-232447228D01*
X422359105Y-232447228D02*
X422406724Y-232494847D01*
X422406724Y-232494847D02*
X422501962Y-232542466D01*
X422501962Y-232542466D02*
X422692438Y-232542466D01*
X422692438Y-232542466D02*
X422787676Y-232494847D01*
X422787676Y-232494847D02*
X422835295Y-232447228D01*
X422835295Y-232447228D02*
X422882914Y-232351990D01*
%TO.C,R8*%
X421930533Y-235412619D02*
X421597200Y-234936428D01*
X421359105Y-235412619D02*
X421359105Y-234412619D01*
X421359105Y-234412619D02*
X421740057Y-234412619D01*
X421740057Y-234412619D02*
X421835295Y-234460238D01*
X421835295Y-234460238D02*
X421882914Y-234507857D01*
X421882914Y-234507857D02*
X421930533Y-234603095D01*
X421930533Y-234603095D02*
X421930533Y-234745952D01*
X421930533Y-234745952D02*
X421882914Y-234841190D01*
X421882914Y-234841190D02*
X421835295Y-234888809D01*
X421835295Y-234888809D02*
X421740057Y-234936428D01*
X421740057Y-234936428D02*
X421359105Y-234936428D01*
X422501962Y-234841190D02*
X422406724Y-234793571D01*
X422406724Y-234793571D02*
X422359105Y-234745952D01*
X422359105Y-234745952D02*
X422311486Y-234650714D01*
X422311486Y-234650714D02*
X422311486Y-234603095D01*
X422311486Y-234603095D02*
X422359105Y-234507857D01*
X422359105Y-234507857D02*
X422406724Y-234460238D01*
X422406724Y-234460238D02*
X422501962Y-234412619D01*
X422501962Y-234412619D02*
X422692438Y-234412619D01*
X422692438Y-234412619D02*
X422787676Y-234460238D01*
X422787676Y-234460238D02*
X422835295Y-234507857D01*
X422835295Y-234507857D02*
X422882914Y-234603095D01*
X422882914Y-234603095D02*
X422882914Y-234650714D01*
X422882914Y-234650714D02*
X422835295Y-234745952D01*
X422835295Y-234745952D02*
X422787676Y-234793571D01*
X422787676Y-234793571D02*
X422692438Y-234841190D01*
X422692438Y-234841190D02*
X422501962Y-234841190D01*
X422501962Y-234841190D02*
X422406724Y-234888809D01*
X422406724Y-234888809D02*
X422359105Y-234936428D01*
X422359105Y-234936428D02*
X422311486Y-235031666D01*
X422311486Y-235031666D02*
X422311486Y-235222142D01*
X422311486Y-235222142D02*
X422359105Y-235317380D01*
X422359105Y-235317380D02*
X422406724Y-235365000D01*
X422406724Y-235365000D02*
X422501962Y-235412619D01*
X422501962Y-235412619D02*
X422692438Y-235412619D01*
X422692438Y-235412619D02*
X422787676Y-235365000D01*
X422787676Y-235365000D02*
X422835295Y-235317380D01*
X422835295Y-235317380D02*
X422882914Y-235222142D01*
X422882914Y-235222142D02*
X422882914Y-235031666D01*
X422882914Y-235031666D02*
X422835295Y-234936428D01*
X422835295Y-234936428D02*
X422787676Y-234888809D01*
X422787676Y-234888809D02*
X422692438Y-234841190D01*
%TO.C,C16*%
X420994642Y-246267380D02*
X420947023Y-246315000D01*
X420947023Y-246315000D02*
X420804166Y-246362619D01*
X420804166Y-246362619D02*
X420708928Y-246362619D01*
X420708928Y-246362619D02*
X420566071Y-246315000D01*
X420566071Y-246315000D02*
X420470833Y-246219761D01*
X420470833Y-246219761D02*
X420423214Y-246124523D01*
X420423214Y-246124523D02*
X420375595Y-245934047D01*
X420375595Y-245934047D02*
X420375595Y-245791190D01*
X420375595Y-245791190D02*
X420423214Y-245600714D01*
X420423214Y-245600714D02*
X420470833Y-245505476D01*
X420470833Y-245505476D02*
X420566071Y-245410238D01*
X420566071Y-245410238D02*
X420708928Y-245362619D01*
X420708928Y-245362619D02*
X420804166Y-245362619D01*
X420804166Y-245362619D02*
X420947023Y-245410238D01*
X420947023Y-245410238D02*
X420994642Y-245457857D01*
X421947023Y-246362619D02*
X421375595Y-246362619D01*
X421661309Y-246362619D02*
X421661309Y-245362619D01*
X421661309Y-245362619D02*
X421566071Y-245505476D01*
X421566071Y-245505476D02*
X421470833Y-245600714D01*
X421470833Y-245600714D02*
X421375595Y-245648333D01*
X422804166Y-245362619D02*
X422613690Y-245362619D01*
X422613690Y-245362619D02*
X422518452Y-245410238D01*
X422518452Y-245410238D02*
X422470833Y-245457857D01*
X422470833Y-245457857D02*
X422375595Y-245600714D01*
X422375595Y-245600714D02*
X422327976Y-245791190D01*
X422327976Y-245791190D02*
X422327976Y-246172142D01*
X422327976Y-246172142D02*
X422375595Y-246267380D01*
X422375595Y-246267380D02*
X422423214Y-246315000D01*
X422423214Y-246315000D02*
X422518452Y-246362619D01*
X422518452Y-246362619D02*
X422708928Y-246362619D01*
X422708928Y-246362619D02*
X422804166Y-246315000D01*
X422804166Y-246315000D02*
X422851785Y-246267380D01*
X422851785Y-246267380D02*
X422899404Y-246172142D01*
X422899404Y-246172142D02*
X422899404Y-245934047D01*
X422899404Y-245934047D02*
X422851785Y-245838809D01*
X422851785Y-245838809D02*
X422804166Y-245791190D01*
X422804166Y-245791190D02*
X422708928Y-245743571D01*
X422708928Y-245743571D02*
X422518452Y-245743571D01*
X422518452Y-245743571D02*
X422423214Y-245791190D01*
X422423214Y-245791190D02*
X422375595Y-245838809D01*
X422375595Y-245838809D02*
X422327976Y-245934047D01*
%TO.C,C15*%
X420994642Y-254367380D02*
X420947023Y-254415000D01*
X420947023Y-254415000D02*
X420804166Y-254462619D01*
X420804166Y-254462619D02*
X420708928Y-254462619D01*
X420708928Y-254462619D02*
X420566071Y-254415000D01*
X420566071Y-254415000D02*
X420470833Y-254319761D01*
X420470833Y-254319761D02*
X420423214Y-254224523D01*
X420423214Y-254224523D02*
X420375595Y-254034047D01*
X420375595Y-254034047D02*
X420375595Y-253891190D01*
X420375595Y-253891190D02*
X420423214Y-253700714D01*
X420423214Y-253700714D02*
X420470833Y-253605476D01*
X420470833Y-253605476D02*
X420566071Y-253510238D01*
X420566071Y-253510238D02*
X420708928Y-253462619D01*
X420708928Y-253462619D02*
X420804166Y-253462619D01*
X420804166Y-253462619D02*
X420947023Y-253510238D01*
X420947023Y-253510238D02*
X420994642Y-253557857D01*
X421947023Y-254462619D02*
X421375595Y-254462619D01*
X421661309Y-254462619D02*
X421661309Y-253462619D01*
X421661309Y-253462619D02*
X421566071Y-253605476D01*
X421566071Y-253605476D02*
X421470833Y-253700714D01*
X421470833Y-253700714D02*
X421375595Y-253748333D01*
X422851785Y-253462619D02*
X422375595Y-253462619D01*
X422375595Y-253462619D02*
X422327976Y-253938809D01*
X422327976Y-253938809D02*
X422375595Y-253891190D01*
X422375595Y-253891190D02*
X422470833Y-253843571D01*
X422470833Y-253843571D02*
X422708928Y-253843571D01*
X422708928Y-253843571D02*
X422804166Y-253891190D01*
X422804166Y-253891190D02*
X422851785Y-253938809D01*
X422851785Y-253938809D02*
X422899404Y-254034047D01*
X422899404Y-254034047D02*
X422899404Y-254272142D01*
X422899404Y-254272142D02*
X422851785Y-254367380D01*
X422851785Y-254367380D02*
X422804166Y-254415000D01*
X422804166Y-254415000D02*
X422708928Y-254462619D01*
X422708928Y-254462619D02*
X422470833Y-254462619D01*
X422470833Y-254462619D02*
X422375595Y-254415000D01*
X422375595Y-254415000D02*
X422327976Y-254367380D01*
%TO.C,R7*%
X427962619Y-253866666D02*
X427486428Y-254199999D01*
X427962619Y-254438094D02*
X426962619Y-254438094D01*
X426962619Y-254438094D02*
X426962619Y-254057142D01*
X426962619Y-254057142D02*
X427010238Y-253961904D01*
X427010238Y-253961904D02*
X427057857Y-253914285D01*
X427057857Y-253914285D02*
X427153095Y-253866666D01*
X427153095Y-253866666D02*
X427295952Y-253866666D01*
X427295952Y-253866666D02*
X427391190Y-253914285D01*
X427391190Y-253914285D02*
X427438809Y-253961904D01*
X427438809Y-253961904D02*
X427486428Y-254057142D01*
X427486428Y-254057142D02*
X427486428Y-254438094D01*
X426962619Y-253533332D02*
X426962619Y-252866666D01*
X426962619Y-252866666D02*
X427962619Y-253295237D01*
%TO.C,R6*%
X410183333Y-234312619D02*
X409850000Y-233836428D01*
X409611905Y-234312619D02*
X409611905Y-233312619D01*
X409611905Y-233312619D02*
X409992857Y-233312619D01*
X409992857Y-233312619D02*
X410088095Y-233360238D01*
X410088095Y-233360238D02*
X410135714Y-233407857D01*
X410135714Y-233407857D02*
X410183333Y-233503095D01*
X410183333Y-233503095D02*
X410183333Y-233645952D01*
X410183333Y-233645952D02*
X410135714Y-233741190D01*
X410135714Y-233741190D02*
X410088095Y-233788809D01*
X410088095Y-233788809D02*
X409992857Y-233836428D01*
X409992857Y-233836428D02*
X409611905Y-233836428D01*
X411040476Y-233312619D02*
X410850000Y-233312619D01*
X410850000Y-233312619D02*
X410754762Y-233360238D01*
X410754762Y-233360238D02*
X410707143Y-233407857D01*
X410707143Y-233407857D02*
X410611905Y-233550714D01*
X410611905Y-233550714D02*
X410564286Y-233741190D01*
X410564286Y-233741190D02*
X410564286Y-234122142D01*
X410564286Y-234122142D02*
X410611905Y-234217380D01*
X410611905Y-234217380D02*
X410659524Y-234265000D01*
X410659524Y-234265000D02*
X410754762Y-234312619D01*
X410754762Y-234312619D02*
X410945238Y-234312619D01*
X410945238Y-234312619D02*
X411040476Y-234265000D01*
X411040476Y-234265000D02*
X411088095Y-234217380D01*
X411088095Y-234217380D02*
X411135714Y-234122142D01*
X411135714Y-234122142D02*
X411135714Y-233884047D01*
X411135714Y-233884047D02*
X411088095Y-233788809D01*
X411088095Y-233788809D02*
X411040476Y-233741190D01*
X411040476Y-233741190D02*
X410945238Y-233693571D01*
X410945238Y-233693571D02*
X410754762Y-233693571D01*
X410754762Y-233693571D02*
X410659524Y-233741190D01*
X410659524Y-233741190D02*
X410611905Y-233788809D01*
X410611905Y-233788809D02*
X410564286Y-233884047D01*
%TO.C,R5*%
X370883333Y-243012619D02*
X370550000Y-242536428D01*
X370311905Y-243012619D02*
X370311905Y-242012619D01*
X370311905Y-242012619D02*
X370692857Y-242012619D01*
X370692857Y-242012619D02*
X370788095Y-242060238D01*
X370788095Y-242060238D02*
X370835714Y-242107857D01*
X370835714Y-242107857D02*
X370883333Y-242203095D01*
X370883333Y-242203095D02*
X370883333Y-242345952D01*
X370883333Y-242345952D02*
X370835714Y-242441190D01*
X370835714Y-242441190D02*
X370788095Y-242488809D01*
X370788095Y-242488809D02*
X370692857Y-242536428D01*
X370692857Y-242536428D02*
X370311905Y-242536428D01*
X371788095Y-242012619D02*
X371311905Y-242012619D01*
X371311905Y-242012619D02*
X371264286Y-242488809D01*
X371264286Y-242488809D02*
X371311905Y-242441190D01*
X371311905Y-242441190D02*
X371407143Y-242393571D01*
X371407143Y-242393571D02*
X371645238Y-242393571D01*
X371645238Y-242393571D02*
X371740476Y-242441190D01*
X371740476Y-242441190D02*
X371788095Y-242488809D01*
X371788095Y-242488809D02*
X371835714Y-242584047D01*
X371835714Y-242584047D02*
X371835714Y-242822142D01*
X371835714Y-242822142D02*
X371788095Y-242917380D01*
X371788095Y-242917380D02*
X371740476Y-242965000D01*
X371740476Y-242965000D02*
X371645238Y-243012619D01*
X371645238Y-243012619D02*
X371407143Y-243012619D01*
X371407143Y-243012619D02*
X371311905Y-242965000D01*
X371311905Y-242965000D02*
X371264286Y-242917380D01*
%TO.C,R4*%
X323159619Y-235171666D02*
X322683428Y-235504999D01*
X323159619Y-235743094D02*
X322159619Y-235743094D01*
X322159619Y-235743094D02*
X322159619Y-235362142D01*
X322159619Y-235362142D02*
X322207238Y-235266904D01*
X322207238Y-235266904D02*
X322254857Y-235219285D01*
X322254857Y-235219285D02*
X322350095Y-235171666D01*
X322350095Y-235171666D02*
X322492952Y-235171666D01*
X322492952Y-235171666D02*
X322588190Y-235219285D01*
X322588190Y-235219285D02*
X322635809Y-235266904D01*
X322635809Y-235266904D02*
X322683428Y-235362142D01*
X322683428Y-235362142D02*
X322683428Y-235743094D01*
X322492952Y-234314523D02*
X323159619Y-234314523D01*
X322112000Y-234552618D02*
X322826285Y-234790713D01*
X322826285Y-234790713D02*
X322826285Y-234171666D01*
%TO.C,R3*%
X317368619Y-235053666D02*
X316892428Y-235386999D01*
X317368619Y-235625094D02*
X316368619Y-235625094D01*
X316368619Y-235625094D02*
X316368619Y-235244142D01*
X316368619Y-235244142D02*
X316416238Y-235148904D01*
X316416238Y-235148904D02*
X316463857Y-235101285D01*
X316463857Y-235101285D02*
X316559095Y-235053666D01*
X316559095Y-235053666D02*
X316701952Y-235053666D01*
X316701952Y-235053666D02*
X316797190Y-235101285D01*
X316797190Y-235101285D02*
X316844809Y-235148904D01*
X316844809Y-235148904D02*
X316892428Y-235244142D01*
X316892428Y-235244142D02*
X316892428Y-235625094D01*
X316368619Y-234720332D02*
X316368619Y-234101285D01*
X316368619Y-234101285D02*
X316749571Y-234434618D01*
X316749571Y-234434618D02*
X316749571Y-234291761D01*
X316749571Y-234291761D02*
X316797190Y-234196523D01*
X316797190Y-234196523D02*
X316844809Y-234148904D01*
X316844809Y-234148904D02*
X316940047Y-234101285D01*
X316940047Y-234101285D02*
X317178142Y-234101285D01*
X317178142Y-234101285D02*
X317273380Y-234148904D01*
X317273380Y-234148904D02*
X317321000Y-234196523D01*
X317321000Y-234196523D02*
X317368619Y-234291761D01*
X317368619Y-234291761D02*
X317368619Y-234577475D01*
X317368619Y-234577475D02*
X317321000Y-234672713D01*
X317321000Y-234672713D02*
X317273380Y-234720332D01*
%TO.C,R2*%
X367083333Y-250855819D02*
X366750000Y-250379628D01*
X366511905Y-250855819D02*
X366511905Y-249855819D01*
X366511905Y-249855819D02*
X366892857Y-249855819D01*
X366892857Y-249855819D02*
X366988095Y-249903438D01*
X366988095Y-249903438D02*
X367035714Y-249951057D01*
X367035714Y-249951057D02*
X367083333Y-250046295D01*
X367083333Y-250046295D02*
X367083333Y-250189152D01*
X367083333Y-250189152D02*
X367035714Y-250284390D01*
X367035714Y-250284390D02*
X366988095Y-250332009D01*
X366988095Y-250332009D02*
X366892857Y-250379628D01*
X366892857Y-250379628D02*
X366511905Y-250379628D01*
X367464286Y-249951057D02*
X367511905Y-249903438D01*
X367511905Y-249903438D02*
X367607143Y-249855819D01*
X367607143Y-249855819D02*
X367845238Y-249855819D01*
X367845238Y-249855819D02*
X367940476Y-249903438D01*
X367940476Y-249903438D02*
X367988095Y-249951057D01*
X367988095Y-249951057D02*
X368035714Y-250046295D01*
X368035714Y-250046295D02*
X368035714Y-250141533D01*
X368035714Y-250141533D02*
X367988095Y-250284390D01*
X367988095Y-250284390D02*
X367416667Y-250855819D01*
X367416667Y-250855819D02*
X368035714Y-250855819D01*
%TO.C,R1*%
X376616933Y-250043019D02*
X376283600Y-249566828D01*
X376045505Y-250043019D02*
X376045505Y-249043019D01*
X376045505Y-249043019D02*
X376426457Y-249043019D01*
X376426457Y-249043019D02*
X376521695Y-249090638D01*
X376521695Y-249090638D02*
X376569314Y-249138257D01*
X376569314Y-249138257D02*
X376616933Y-249233495D01*
X376616933Y-249233495D02*
X376616933Y-249376352D01*
X376616933Y-249376352D02*
X376569314Y-249471590D01*
X376569314Y-249471590D02*
X376521695Y-249519209D01*
X376521695Y-249519209D02*
X376426457Y-249566828D01*
X376426457Y-249566828D02*
X376045505Y-249566828D01*
X377569314Y-250043019D02*
X376997886Y-250043019D01*
X377283600Y-250043019D02*
X377283600Y-249043019D01*
X377283600Y-249043019D02*
X377188362Y-249185876D01*
X377188362Y-249185876D02*
X377093124Y-249281114D01*
X377093124Y-249281114D02*
X376997886Y-249328733D01*
%TO.C,Q1*%
X372116361Y-250341457D02*
X372021123Y-250293838D01*
X372021123Y-250293838D02*
X371925885Y-250198600D01*
X371925885Y-250198600D02*
X371783028Y-250055742D01*
X371783028Y-250055742D02*
X371687790Y-250008123D01*
X371687790Y-250008123D02*
X371592552Y-250008123D01*
X371640171Y-250246219D02*
X371544933Y-250198600D01*
X371544933Y-250198600D02*
X371449695Y-250103361D01*
X371449695Y-250103361D02*
X371402076Y-249912885D01*
X371402076Y-249912885D02*
X371402076Y-249579552D01*
X371402076Y-249579552D02*
X371449695Y-249389076D01*
X371449695Y-249389076D02*
X371544933Y-249293838D01*
X371544933Y-249293838D02*
X371640171Y-249246219D01*
X371640171Y-249246219D02*
X371830647Y-249246219D01*
X371830647Y-249246219D02*
X371925885Y-249293838D01*
X371925885Y-249293838D02*
X372021123Y-249389076D01*
X372021123Y-249389076D02*
X372068742Y-249579552D01*
X372068742Y-249579552D02*
X372068742Y-249912885D01*
X372068742Y-249912885D02*
X372021123Y-250103361D01*
X372021123Y-250103361D02*
X371925885Y-250198600D01*
X371925885Y-250198600D02*
X371830647Y-250246219D01*
X371830647Y-250246219D02*
X371640171Y-250246219D01*
X373021123Y-250246219D02*
X372449695Y-250246219D01*
X372735409Y-250246219D02*
X372735409Y-249246219D01*
X372735409Y-249246219D02*
X372640171Y-249389076D01*
X372640171Y-249389076D02*
X372544933Y-249484314D01*
X372544933Y-249484314D02*
X372449695Y-249531933D01*
%TO.C,H19*%
X393858905Y-252134419D02*
X393858905Y-251134419D01*
X393858905Y-251610609D02*
X394430333Y-251610609D01*
X394430333Y-252134419D02*
X394430333Y-251134419D01*
X395430333Y-252134419D02*
X394858905Y-252134419D01*
X395144619Y-252134419D02*
X395144619Y-251134419D01*
X395144619Y-251134419D02*
X395049381Y-251277276D01*
X395049381Y-251277276D02*
X394954143Y-251372514D01*
X394954143Y-251372514D02*
X394858905Y-251420133D01*
X395906524Y-252134419D02*
X396097000Y-252134419D01*
X396097000Y-252134419D02*
X396192238Y-252086800D01*
X396192238Y-252086800D02*
X396239857Y-252039180D01*
X396239857Y-252039180D02*
X396335095Y-251896323D01*
X396335095Y-251896323D02*
X396382714Y-251705847D01*
X396382714Y-251705847D02*
X396382714Y-251324895D01*
X396382714Y-251324895D02*
X396335095Y-251229657D01*
X396335095Y-251229657D02*
X396287476Y-251182038D01*
X396287476Y-251182038D02*
X396192238Y-251134419D01*
X396192238Y-251134419D02*
X396001762Y-251134419D01*
X396001762Y-251134419D02*
X395906524Y-251182038D01*
X395906524Y-251182038D02*
X395858905Y-251229657D01*
X395858905Y-251229657D02*
X395811286Y-251324895D01*
X395811286Y-251324895D02*
X395811286Y-251562990D01*
X395811286Y-251562990D02*
X395858905Y-251658228D01*
X395858905Y-251658228D02*
X395906524Y-251705847D01*
X395906524Y-251705847D02*
X396001762Y-251753466D01*
X396001762Y-251753466D02*
X396192238Y-251753466D01*
X396192238Y-251753466D02*
X396287476Y-251705847D01*
X396287476Y-251705847D02*
X396335095Y-251658228D01*
X396335095Y-251658228D02*
X396382714Y-251562990D01*
%TO.C,H18*%
X466955025Y-229398019D02*
X466955025Y-228398019D01*
X466955025Y-228874209D02*
X467526453Y-228874209D01*
X467526453Y-229398019D02*
X467526453Y-228398019D01*
X468526453Y-229398019D02*
X467955025Y-229398019D01*
X468240739Y-229398019D02*
X468240739Y-228398019D01*
X468240739Y-228398019D02*
X468145501Y-228540876D01*
X468145501Y-228540876D02*
X468050263Y-228636114D01*
X468050263Y-228636114D02*
X467955025Y-228683733D01*
X469097882Y-228826590D02*
X469002644Y-228778971D01*
X469002644Y-228778971D02*
X468955025Y-228731352D01*
X468955025Y-228731352D02*
X468907406Y-228636114D01*
X468907406Y-228636114D02*
X468907406Y-228588495D01*
X468907406Y-228588495D02*
X468955025Y-228493257D01*
X468955025Y-228493257D02*
X469002644Y-228445638D01*
X469002644Y-228445638D02*
X469097882Y-228398019D01*
X469097882Y-228398019D02*
X469288358Y-228398019D01*
X469288358Y-228398019D02*
X469383596Y-228445638D01*
X469383596Y-228445638D02*
X469431215Y-228493257D01*
X469431215Y-228493257D02*
X469478834Y-228588495D01*
X469478834Y-228588495D02*
X469478834Y-228636114D01*
X469478834Y-228636114D02*
X469431215Y-228731352D01*
X469431215Y-228731352D02*
X469383596Y-228778971D01*
X469383596Y-228778971D02*
X469288358Y-228826590D01*
X469288358Y-228826590D02*
X469097882Y-228826590D01*
X469097882Y-228826590D02*
X469002644Y-228874209D01*
X469002644Y-228874209D02*
X468955025Y-228921828D01*
X468955025Y-228921828D02*
X468907406Y-229017066D01*
X468907406Y-229017066D02*
X468907406Y-229207542D01*
X468907406Y-229207542D02*
X468955025Y-229302780D01*
X468955025Y-229302780D02*
X469002644Y-229350400D01*
X469002644Y-229350400D02*
X469097882Y-229398019D01*
X469097882Y-229398019D02*
X469288358Y-229398019D01*
X469288358Y-229398019D02*
X469383596Y-229350400D01*
X469383596Y-229350400D02*
X469431215Y-229302780D01*
X469431215Y-229302780D02*
X469478834Y-229207542D01*
X469478834Y-229207542D02*
X469478834Y-229017066D01*
X469478834Y-229017066D02*
X469431215Y-228921828D01*
X469431215Y-228921828D02*
X469383596Y-228874209D01*
X469383596Y-228874209D02*
X469288358Y-228826590D01*
%TO.C,H17*%
X466934705Y-255890219D02*
X466934705Y-254890219D01*
X466934705Y-255366409D02*
X467506133Y-255366409D01*
X467506133Y-255890219D02*
X467506133Y-254890219D01*
X468506133Y-255890219D02*
X467934705Y-255890219D01*
X468220419Y-255890219D02*
X468220419Y-254890219D01*
X468220419Y-254890219D02*
X468125181Y-255033076D01*
X468125181Y-255033076D02*
X468029943Y-255128314D01*
X468029943Y-255128314D02*
X467934705Y-255175933D01*
X468839467Y-254890219D02*
X469506133Y-254890219D01*
X469506133Y-254890219D02*
X469077562Y-255890219D01*
%TO.C,H16*%
X305957125Y-229405639D02*
X305957125Y-228405639D01*
X305957125Y-228881829D02*
X306528553Y-228881829D01*
X306528553Y-229405639D02*
X306528553Y-228405639D01*
X307528553Y-229405639D02*
X306957125Y-229405639D01*
X307242839Y-229405639D02*
X307242839Y-228405639D01*
X307242839Y-228405639D02*
X307147601Y-228548496D01*
X307147601Y-228548496D02*
X307052363Y-228643734D01*
X307052363Y-228643734D02*
X306957125Y-228691353D01*
X308385696Y-228405639D02*
X308195220Y-228405639D01*
X308195220Y-228405639D02*
X308099982Y-228453258D01*
X308099982Y-228453258D02*
X308052363Y-228500877D01*
X308052363Y-228500877D02*
X307957125Y-228643734D01*
X307957125Y-228643734D02*
X307909506Y-228834210D01*
X307909506Y-228834210D02*
X307909506Y-229215162D01*
X307909506Y-229215162D02*
X307957125Y-229310400D01*
X307957125Y-229310400D02*
X308004744Y-229358020D01*
X308004744Y-229358020D02*
X308099982Y-229405639D01*
X308099982Y-229405639D02*
X308290458Y-229405639D01*
X308290458Y-229405639D02*
X308385696Y-229358020D01*
X308385696Y-229358020D02*
X308433315Y-229310400D01*
X308433315Y-229310400D02*
X308480934Y-229215162D01*
X308480934Y-229215162D02*
X308480934Y-228977067D01*
X308480934Y-228977067D02*
X308433315Y-228881829D01*
X308433315Y-228881829D02*
X308385696Y-228834210D01*
X308385696Y-228834210D02*
X308290458Y-228786591D01*
X308290458Y-228786591D02*
X308099982Y-228786591D01*
X308099982Y-228786591D02*
X308004744Y-228834210D01*
X308004744Y-228834210D02*
X307957125Y-228881829D01*
X307957125Y-228881829D02*
X307909506Y-228977067D01*
%TO.C,H15*%
X305961905Y-255912619D02*
X305961905Y-254912619D01*
X305961905Y-255388809D02*
X306533333Y-255388809D01*
X306533333Y-255912619D02*
X306533333Y-254912619D01*
X307533333Y-255912619D02*
X306961905Y-255912619D01*
X307247619Y-255912619D02*
X307247619Y-254912619D01*
X307247619Y-254912619D02*
X307152381Y-255055476D01*
X307152381Y-255055476D02*
X307057143Y-255150714D01*
X307057143Y-255150714D02*
X306961905Y-255198333D01*
X308438095Y-254912619D02*
X307961905Y-254912619D01*
X307961905Y-254912619D02*
X307914286Y-255388809D01*
X307914286Y-255388809D02*
X307961905Y-255341190D01*
X307961905Y-255341190D02*
X308057143Y-255293571D01*
X308057143Y-255293571D02*
X308295238Y-255293571D01*
X308295238Y-255293571D02*
X308390476Y-255341190D01*
X308390476Y-255341190D02*
X308438095Y-255388809D01*
X308438095Y-255388809D02*
X308485714Y-255484047D01*
X308485714Y-255484047D02*
X308485714Y-255722142D01*
X308485714Y-255722142D02*
X308438095Y-255817380D01*
X308438095Y-255817380D02*
X308390476Y-255865000D01*
X308390476Y-255865000D02*
X308295238Y-255912619D01*
X308295238Y-255912619D02*
X308057143Y-255912619D01*
X308057143Y-255912619D02*
X307961905Y-255865000D01*
X307961905Y-255865000D02*
X307914286Y-255817380D01*
%TO.C,C9*%
X435108333Y-257967380D02*
X435060714Y-258015000D01*
X435060714Y-258015000D02*
X434917857Y-258062619D01*
X434917857Y-258062619D02*
X434822619Y-258062619D01*
X434822619Y-258062619D02*
X434679762Y-258015000D01*
X434679762Y-258015000D02*
X434584524Y-257919761D01*
X434584524Y-257919761D02*
X434536905Y-257824523D01*
X434536905Y-257824523D02*
X434489286Y-257634047D01*
X434489286Y-257634047D02*
X434489286Y-257491190D01*
X434489286Y-257491190D02*
X434536905Y-257300714D01*
X434536905Y-257300714D02*
X434584524Y-257205476D01*
X434584524Y-257205476D02*
X434679762Y-257110238D01*
X434679762Y-257110238D02*
X434822619Y-257062619D01*
X434822619Y-257062619D02*
X434917857Y-257062619D01*
X434917857Y-257062619D02*
X435060714Y-257110238D01*
X435060714Y-257110238D02*
X435108333Y-257157857D01*
X435584524Y-258062619D02*
X435775000Y-258062619D01*
X435775000Y-258062619D02*
X435870238Y-258015000D01*
X435870238Y-258015000D02*
X435917857Y-257967380D01*
X435917857Y-257967380D02*
X436013095Y-257824523D01*
X436013095Y-257824523D02*
X436060714Y-257634047D01*
X436060714Y-257634047D02*
X436060714Y-257253095D01*
X436060714Y-257253095D02*
X436013095Y-257157857D01*
X436013095Y-257157857D02*
X435965476Y-257110238D01*
X435965476Y-257110238D02*
X435870238Y-257062619D01*
X435870238Y-257062619D02*
X435679762Y-257062619D01*
X435679762Y-257062619D02*
X435584524Y-257110238D01*
X435584524Y-257110238D02*
X435536905Y-257157857D01*
X435536905Y-257157857D02*
X435489286Y-257253095D01*
X435489286Y-257253095D02*
X435489286Y-257491190D01*
X435489286Y-257491190D02*
X435536905Y-257586428D01*
X435536905Y-257586428D02*
X435584524Y-257634047D01*
X435584524Y-257634047D02*
X435679762Y-257681666D01*
X435679762Y-257681666D02*
X435870238Y-257681666D01*
X435870238Y-257681666D02*
X435965476Y-257634047D01*
X435965476Y-257634047D02*
X436013095Y-257586428D01*
X436013095Y-257586428D02*
X436060714Y-257491190D01*
%TO.C,C13*%
X427917380Y-251642857D02*
X427965000Y-251690476D01*
X427965000Y-251690476D02*
X428012619Y-251833333D01*
X428012619Y-251833333D02*
X428012619Y-251928571D01*
X428012619Y-251928571D02*
X427965000Y-252071428D01*
X427965000Y-252071428D02*
X427869761Y-252166666D01*
X427869761Y-252166666D02*
X427774523Y-252214285D01*
X427774523Y-252214285D02*
X427584047Y-252261904D01*
X427584047Y-252261904D02*
X427441190Y-252261904D01*
X427441190Y-252261904D02*
X427250714Y-252214285D01*
X427250714Y-252214285D02*
X427155476Y-252166666D01*
X427155476Y-252166666D02*
X427060238Y-252071428D01*
X427060238Y-252071428D02*
X427012619Y-251928571D01*
X427012619Y-251928571D02*
X427012619Y-251833333D01*
X427012619Y-251833333D02*
X427060238Y-251690476D01*
X427060238Y-251690476D02*
X427107857Y-251642857D01*
X428012619Y-250690476D02*
X428012619Y-251261904D01*
X428012619Y-250976190D02*
X427012619Y-250976190D01*
X427012619Y-250976190D02*
X427155476Y-251071428D01*
X427155476Y-251071428D02*
X427250714Y-251166666D01*
X427250714Y-251166666D02*
X427298333Y-251261904D01*
X427012619Y-250357142D02*
X427012619Y-249738095D01*
X427012619Y-249738095D02*
X427393571Y-250071428D01*
X427393571Y-250071428D02*
X427393571Y-249928571D01*
X427393571Y-249928571D02*
X427441190Y-249833333D01*
X427441190Y-249833333D02*
X427488809Y-249785714D01*
X427488809Y-249785714D02*
X427584047Y-249738095D01*
X427584047Y-249738095D02*
X427822142Y-249738095D01*
X427822142Y-249738095D02*
X427917380Y-249785714D01*
X427917380Y-249785714D02*
X427965000Y-249833333D01*
X427965000Y-249833333D02*
X428012619Y-249928571D01*
X428012619Y-249928571D02*
X428012619Y-250214285D01*
X428012619Y-250214285D02*
X427965000Y-250309523D01*
X427965000Y-250309523D02*
X427917380Y-250357142D01*
%TO.C,C14*%
X404757142Y-234167380D02*
X404709523Y-234215000D01*
X404709523Y-234215000D02*
X404566666Y-234262619D01*
X404566666Y-234262619D02*
X404471428Y-234262619D01*
X404471428Y-234262619D02*
X404328571Y-234215000D01*
X404328571Y-234215000D02*
X404233333Y-234119761D01*
X404233333Y-234119761D02*
X404185714Y-234024523D01*
X404185714Y-234024523D02*
X404138095Y-233834047D01*
X404138095Y-233834047D02*
X404138095Y-233691190D01*
X404138095Y-233691190D02*
X404185714Y-233500714D01*
X404185714Y-233500714D02*
X404233333Y-233405476D01*
X404233333Y-233405476D02*
X404328571Y-233310238D01*
X404328571Y-233310238D02*
X404471428Y-233262619D01*
X404471428Y-233262619D02*
X404566666Y-233262619D01*
X404566666Y-233262619D02*
X404709523Y-233310238D01*
X404709523Y-233310238D02*
X404757142Y-233357857D01*
X405709523Y-234262619D02*
X405138095Y-234262619D01*
X405423809Y-234262619D02*
X405423809Y-233262619D01*
X405423809Y-233262619D02*
X405328571Y-233405476D01*
X405328571Y-233405476D02*
X405233333Y-233500714D01*
X405233333Y-233500714D02*
X405138095Y-233548333D01*
X406566666Y-233595952D02*
X406566666Y-234262619D01*
X406328571Y-233215000D02*
X406090476Y-233929285D01*
X406090476Y-233929285D02*
X406709523Y-233929285D01*
%TO.C,H4*%
X463194495Y-239995419D02*
X463194495Y-238995419D01*
X463194495Y-239471609D02*
X463765923Y-239471609D01*
X463765923Y-239995419D02*
X463765923Y-238995419D01*
X464670685Y-239328752D02*
X464670685Y-239995419D01*
X464432590Y-238947800D02*
X464194495Y-239662085D01*
X464194495Y-239662085D02*
X464813542Y-239662085D01*
%TO.C,H3*%
X447294095Y-240012619D02*
X447294095Y-239012619D01*
X447294095Y-239488809D02*
X447865523Y-239488809D01*
X447865523Y-240012619D02*
X447865523Y-239012619D01*
X448246476Y-239012619D02*
X448865523Y-239012619D01*
X448865523Y-239012619D02*
X448532190Y-239393571D01*
X448532190Y-239393571D02*
X448675047Y-239393571D01*
X448675047Y-239393571D02*
X448770285Y-239441190D01*
X448770285Y-239441190D02*
X448817904Y-239488809D01*
X448817904Y-239488809D02*
X448865523Y-239584047D01*
X448865523Y-239584047D02*
X448865523Y-239822142D01*
X448865523Y-239822142D02*
X448817904Y-239917380D01*
X448817904Y-239917380D02*
X448770285Y-239965000D01*
X448770285Y-239965000D02*
X448675047Y-240012619D01*
X448675047Y-240012619D02*
X448389333Y-240012619D01*
X448389333Y-240012619D02*
X448294095Y-239965000D01*
X448294095Y-239965000D02*
X448246476Y-239917380D01*
%TO.C,H2*%
X447319495Y-247971019D02*
X447319495Y-246971019D01*
X447319495Y-247447209D02*
X447890923Y-247447209D01*
X447890923Y-247971019D02*
X447890923Y-246971019D01*
X448319495Y-247066257D02*
X448367114Y-247018638D01*
X448367114Y-247018638D02*
X448462352Y-246971019D01*
X448462352Y-246971019D02*
X448700447Y-246971019D01*
X448700447Y-246971019D02*
X448795685Y-247018638D01*
X448795685Y-247018638D02*
X448843304Y-247066257D01*
X448843304Y-247066257D02*
X448890923Y-247161495D01*
X448890923Y-247161495D02*
X448890923Y-247256733D01*
X448890923Y-247256733D02*
X448843304Y-247399590D01*
X448843304Y-247399590D02*
X448271876Y-247971019D01*
X448271876Y-247971019D02*
X448890923Y-247971019D01*
%TO.C,H1*%
X463194495Y-247971019D02*
X463194495Y-246971019D01*
X463194495Y-247447209D02*
X463765923Y-247447209D01*
X463765923Y-247971019D02*
X463765923Y-246971019D01*
X464765923Y-247971019D02*
X464194495Y-247971019D01*
X464480209Y-247971019D02*
X464480209Y-246971019D01*
X464480209Y-246971019D02*
X464384971Y-247113876D01*
X464384971Y-247113876D02*
X464289733Y-247209114D01*
X464289733Y-247209114D02*
X464194495Y-247256733D01*
%TO.C,C12*%
X427867380Y-247842857D02*
X427915000Y-247890476D01*
X427915000Y-247890476D02*
X427962619Y-248033333D01*
X427962619Y-248033333D02*
X427962619Y-248128571D01*
X427962619Y-248128571D02*
X427915000Y-248271428D01*
X427915000Y-248271428D02*
X427819761Y-248366666D01*
X427819761Y-248366666D02*
X427724523Y-248414285D01*
X427724523Y-248414285D02*
X427534047Y-248461904D01*
X427534047Y-248461904D02*
X427391190Y-248461904D01*
X427391190Y-248461904D02*
X427200714Y-248414285D01*
X427200714Y-248414285D02*
X427105476Y-248366666D01*
X427105476Y-248366666D02*
X427010238Y-248271428D01*
X427010238Y-248271428D02*
X426962619Y-248128571D01*
X426962619Y-248128571D02*
X426962619Y-248033333D01*
X426962619Y-248033333D02*
X427010238Y-247890476D01*
X427010238Y-247890476D02*
X427057857Y-247842857D01*
X427962619Y-246890476D02*
X427962619Y-247461904D01*
X427962619Y-247176190D02*
X426962619Y-247176190D01*
X426962619Y-247176190D02*
X427105476Y-247271428D01*
X427105476Y-247271428D02*
X427200714Y-247366666D01*
X427200714Y-247366666D02*
X427248333Y-247461904D01*
X427057857Y-246509523D02*
X427010238Y-246461904D01*
X427010238Y-246461904D02*
X426962619Y-246366666D01*
X426962619Y-246366666D02*
X426962619Y-246128571D01*
X426962619Y-246128571D02*
X427010238Y-246033333D01*
X427010238Y-246033333D02*
X427057857Y-245985714D01*
X427057857Y-245985714D02*
X427153095Y-245938095D01*
X427153095Y-245938095D02*
X427248333Y-245938095D01*
X427248333Y-245938095D02*
X427391190Y-245985714D01*
X427391190Y-245985714D02*
X427962619Y-246557142D01*
X427962619Y-246557142D02*
X427962619Y-245938095D01*
%TO.C,C11*%
X439757142Y-257967380D02*
X439709523Y-258015000D01*
X439709523Y-258015000D02*
X439566666Y-258062619D01*
X439566666Y-258062619D02*
X439471428Y-258062619D01*
X439471428Y-258062619D02*
X439328571Y-258015000D01*
X439328571Y-258015000D02*
X439233333Y-257919761D01*
X439233333Y-257919761D02*
X439185714Y-257824523D01*
X439185714Y-257824523D02*
X439138095Y-257634047D01*
X439138095Y-257634047D02*
X439138095Y-257491190D01*
X439138095Y-257491190D02*
X439185714Y-257300714D01*
X439185714Y-257300714D02*
X439233333Y-257205476D01*
X439233333Y-257205476D02*
X439328571Y-257110238D01*
X439328571Y-257110238D02*
X439471428Y-257062619D01*
X439471428Y-257062619D02*
X439566666Y-257062619D01*
X439566666Y-257062619D02*
X439709523Y-257110238D01*
X439709523Y-257110238D02*
X439757142Y-257157857D01*
X440709523Y-258062619D02*
X440138095Y-258062619D01*
X440423809Y-258062619D02*
X440423809Y-257062619D01*
X440423809Y-257062619D02*
X440328571Y-257205476D01*
X440328571Y-257205476D02*
X440233333Y-257300714D01*
X440233333Y-257300714D02*
X440138095Y-257348333D01*
X441661904Y-258062619D02*
X441090476Y-258062619D01*
X441376190Y-258062619D02*
X441376190Y-257062619D01*
X441376190Y-257062619D02*
X441280952Y-257205476D01*
X441280952Y-257205476D02*
X441185714Y-257300714D01*
X441185714Y-257300714D02*
X441090476Y-257348333D01*
%TO.C,U1*%
X435700595Y-252212619D02*
X435700595Y-253022142D01*
X435700595Y-253022142D02*
X435748214Y-253117380D01*
X435748214Y-253117380D02*
X435795833Y-253165000D01*
X435795833Y-253165000D02*
X435891071Y-253212619D01*
X435891071Y-253212619D02*
X436081547Y-253212619D01*
X436081547Y-253212619D02*
X436176785Y-253165000D01*
X436176785Y-253165000D02*
X436224404Y-253117380D01*
X436224404Y-253117380D02*
X436272023Y-253022142D01*
X436272023Y-253022142D02*
X436272023Y-252212619D01*
X437272023Y-253212619D02*
X436700595Y-253212619D01*
X436986309Y-253212619D02*
X436986309Y-252212619D01*
X436986309Y-252212619D02*
X436891071Y-252355476D01*
X436891071Y-252355476D02*
X436795833Y-252450714D01*
X436795833Y-252450714D02*
X436700595Y-252498333D01*
%TO.C,C8*%
X332358333Y-231017380D02*
X332310714Y-231065000D01*
X332310714Y-231065000D02*
X332167857Y-231112619D01*
X332167857Y-231112619D02*
X332072619Y-231112619D01*
X332072619Y-231112619D02*
X331929762Y-231065000D01*
X331929762Y-231065000D02*
X331834524Y-230969761D01*
X331834524Y-230969761D02*
X331786905Y-230874523D01*
X331786905Y-230874523D02*
X331739286Y-230684047D01*
X331739286Y-230684047D02*
X331739286Y-230541190D01*
X331739286Y-230541190D02*
X331786905Y-230350714D01*
X331786905Y-230350714D02*
X331834524Y-230255476D01*
X331834524Y-230255476D02*
X331929762Y-230160238D01*
X331929762Y-230160238D02*
X332072619Y-230112619D01*
X332072619Y-230112619D02*
X332167857Y-230112619D01*
X332167857Y-230112619D02*
X332310714Y-230160238D01*
X332310714Y-230160238D02*
X332358333Y-230207857D01*
X332929762Y-230541190D02*
X332834524Y-230493571D01*
X332834524Y-230493571D02*
X332786905Y-230445952D01*
X332786905Y-230445952D02*
X332739286Y-230350714D01*
X332739286Y-230350714D02*
X332739286Y-230303095D01*
X332739286Y-230303095D02*
X332786905Y-230207857D01*
X332786905Y-230207857D02*
X332834524Y-230160238D01*
X332834524Y-230160238D02*
X332929762Y-230112619D01*
X332929762Y-230112619D02*
X333120238Y-230112619D01*
X333120238Y-230112619D02*
X333215476Y-230160238D01*
X333215476Y-230160238D02*
X333263095Y-230207857D01*
X333263095Y-230207857D02*
X333310714Y-230303095D01*
X333310714Y-230303095D02*
X333310714Y-230350714D01*
X333310714Y-230350714D02*
X333263095Y-230445952D01*
X333263095Y-230445952D02*
X333215476Y-230493571D01*
X333215476Y-230493571D02*
X333120238Y-230541190D01*
X333120238Y-230541190D02*
X332929762Y-230541190D01*
X332929762Y-230541190D02*
X332834524Y-230588809D01*
X332834524Y-230588809D02*
X332786905Y-230636428D01*
X332786905Y-230636428D02*
X332739286Y-230731666D01*
X332739286Y-230731666D02*
X332739286Y-230922142D01*
X332739286Y-230922142D02*
X332786905Y-231017380D01*
X332786905Y-231017380D02*
X332834524Y-231065000D01*
X332834524Y-231065000D02*
X332929762Y-231112619D01*
X332929762Y-231112619D02*
X333120238Y-231112619D01*
X333120238Y-231112619D02*
X333215476Y-231065000D01*
X333215476Y-231065000D02*
X333263095Y-231017380D01*
X333263095Y-231017380D02*
X333310714Y-230922142D01*
X333310714Y-230922142D02*
X333310714Y-230731666D01*
X333310714Y-230731666D02*
X333263095Y-230636428D01*
X333263095Y-230636428D02*
X333215476Y-230588809D01*
X333215476Y-230588809D02*
X333120238Y-230541190D01*
%TO.C,C7*%
X427867380Y-242491666D02*
X427915000Y-242539285D01*
X427915000Y-242539285D02*
X427962619Y-242682142D01*
X427962619Y-242682142D02*
X427962619Y-242777380D01*
X427962619Y-242777380D02*
X427915000Y-242920237D01*
X427915000Y-242920237D02*
X427819761Y-243015475D01*
X427819761Y-243015475D02*
X427724523Y-243063094D01*
X427724523Y-243063094D02*
X427534047Y-243110713D01*
X427534047Y-243110713D02*
X427391190Y-243110713D01*
X427391190Y-243110713D02*
X427200714Y-243063094D01*
X427200714Y-243063094D02*
X427105476Y-243015475D01*
X427105476Y-243015475D02*
X427010238Y-242920237D01*
X427010238Y-242920237D02*
X426962619Y-242777380D01*
X426962619Y-242777380D02*
X426962619Y-242682142D01*
X426962619Y-242682142D02*
X427010238Y-242539285D01*
X427010238Y-242539285D02*
X427057857Y-242491666D01*
X426962619Y-242158332D02*
X426962619Y-241491666D01*
X426962619Y-241491666D02*
X427962619Y-241920237D01*
%TO.C,C2*%
X332358333Y-240767380D02*
X332310714Y-240815000D01*
X332310714Y-240815000D02*
X332167857Y-240862619D01*
X332167857Y-240862619D02*
X332072619Y-240862619D01*
X332072619Y-240862619D02*
X331929762Y-240815000D01*
X331929762Y-240815000D02*
X331834524Y-240719761D01*
X331834524Y-240719761D02*
X331786905Y-240624523D01*
X331786905Y-240624523D02*
X331739286Y-240434047D01*
X331739286Y-240434047D02*
X331739286Y-240291190D01*
X331739286Y-240291190D02*
X331786905Y-240100714D01*
X331786905Y-240100714D02*
X331834524Y-240005476D01*
X331834524Y-240005476D02*
X331929762Y-239910238D01*
X331929762Y-239910238D02*
X332072619Y-239862619D01*
X332072619Y-239862619D02*
X332167857Y-239862619D01*
X332167857Y-239862619D02*
X332310714Y-239910238D01*
X332310714Y-239910238D02*
X332358333Y-239957857D01*
X332739286Y-239957857D02*
X332786905Y-239910238D01*
X332786905Y-239910238D02*
X332882143Y-239862619D01*
X332882143Y-239862619D02*
X333120238Y-239862619D01*
X333120238Y-239862619D02*
X333215476Y-239910238D01*
X333215476Y-239910238D02*
X333263095Y-239957857D01*
X333263095Y-239957857D02*
X333310714Y-240053095D01*
X333310714Y-240053095D02*
X333310714Y-240148333D01*
X333310714Y-240148333D02*
X333263095Y-240291190D01*
X333263095Y-240291190D02*
X332691667Y-240862619D01*
X332691667Y-240862619D02*
X333310714Y-240862619D01*
%TO.C,C1*%
X333768833Y-246026480D02*
X333721214Y-246074100D01*
X333721214Y-246074100D02*
X333578357Y-246121719D01*
X333578357Y-246121719D02*
X333483119Y-246121719D01*
X333483119Y-246121719D02*
X333340262Y-246074100D01*
X333340262Y-246074100D02*
X333245024Y-245978861D01*
X333245024Y-245978861D02*
X333197405Y-245883623D01*
X333197405Y-245883623D02*
X333149786Y-245693147D01*
X333149786Y-245693147D02*
X333149786Y-245550290D01*
X333149786Y-245550290D02*
X333197405Y-245359814D01*
X333197405Y-245359814D02*
X333245024Y-245264576D01*
X333245024Y-245264576D02*
X333340262Y-245169338D01*
X333340262Y-245169338D02*
X333483119Y-245121719D01*
X333483119Y-245121719D02*
X333578357Y-245121719D01*
X333578357Y-245121719D02*
X333721214Y-245169338D01*
X333721214Y-245169338D02*
X333768833Y-245216957D01*
X334721214Y-246121719D02*
X334149786Y-246121719D01*
X334435500Y-246121719D02*
X334435500Y-245121719D01*
X334435500Y-245121719D02*
X334340262Y-245264576D01*
X334340262Y-245264576D02*
X334245024Y-245359814D01*
X334245024Y-245359814D02*
X334149786Y-245407433D01*
%TO.C,D53*%
X460622019Y-239364285D02*
X459622019Y-239364285D01*
X459622019Y-239364285D02*
X459622019Y-239126190D01*
X459622019Y-239126190D02*
X459669638Y-238983333D01*
X459669638Y-238983333D02*
X459764876Y-238888095D01*
X459764876Y-238888095D02*
X459860114Y-238840476D01*
X459860114Y-238840476D02*
X460050590Y-238792857D01*
X460050590Y-238792857D02*
X460193447Y-238792857D01*
X460193447Y-238792857D02*
X460383923Y-238840476D01*
X460383923Y-238840476D02*
X460479161Y-238888095D01*
X460479161Y-238888095D02*
X460574400Y-238983333D01*
X460574400Y-238983333D02*
X460622019Y-239126190D01*
X460622019Y-239126190D02*
X460622019Y-239364285D01*
X459622019Y-237888095D02*
X459622019Y-238364285D01*
X459622019Y-238364285D02*
X460098209Y-238411904D01*
X460098209Y-238411904D02*
X460050590Y-238364285D01*
X460050590Y-238364285D02*
X460002971Y-238269047D01*
X460002971Y-238269047D02*
X460002971Y-238030952D01*
X460002971Y-238030952D02*
X460050590Y-237935714D01*
X460050590Y-237935714D02*
X460098209Y-237888095D01*
X460098209Y-237888095D02*
X460193447Y-237840476D01*
X460193447Y-237840476D02*
X460431542Y-237840476D01*
X460431542Y-237840476D02*
X460526780Y-237888095D01*
X460526780Y-237888095D02*
X460574400Y-237935714D01*
X460574400Y-237935714D02*
X460622019Y-238030952D01*
X460622019Y-238030952D02*
X460622019Y-238269047D01*
X460622019Y-238269047D02*
X460574400Y-238364285D01*
X460574400Y-238364285D02*
X460526780Y-238411904D01*
X459622019Y-237507142D02*
X459622019Y-236888095D01*
X459622019Y-236888095D02*
X460002971Y-237221428D01*
X460002971Y-237221428D02*
X460002971Y-237078571D01*
X460002971Y-237078571D02*
X460050590Y-236983333D01*
X460050590Y-236983333D02*
X460098209Y-236935714D01*
X460098209Y-236935714D02*
X460193447Y-236888095D01*
X460193447Y-236888095D02*
X460431542Y-236888095D01*
X460431542Y-236888095D02*
X460526780Y-236935714D01*
X460526780Y-236935714D02*
X460574400Y-236983333D01*
X460574400Y-236983333D02*
X460622019Y-237078571D01*
X460622019Y-237078571D02*
X460622019Y-237364285D01*
X460622019Y-237364285D02*
X460574400Y-237459523D01*
X460574400Y-237459523D02*
X460526780Y-237507142D01*
%TO.C,D52*%
X456572019Y-239464285D02*
X455572019Y-239464285D01*
X455572019Y-239464285D02*
X455572019Y-239226190D01*
X455572019Y-239226190D02*
X455619638Y-239083333D01*
X455619638Y-239083333D02*
X455714876Y-238988095D01*
X455714876Y-238988095D02*
X455810114Y-238940476D01*
X455810114Y-238940476D02*
X456000590Y-238892857D01*
X456000590Y-238892857D02*
X456143447Y-238892857D01*
X456143447Y-238892857D02*
X456333923Y-238940476D01*
X456333923Y-238940476D02*
X456429161Y-238988095D01*
X456429161Y-238988095D02*
X456524400Y-239083333D01*
X456524400Y-239083333D02*
X456572019Y-239226190D01*
X456572019Y-239226190D02*
X456572019Y-239464285D01*
X455572019Y-237988095D02*
X455572019Y-238464285D01*
X455572019Y-238464285D02*
X456048209Y-238511904D01*
X456048209Y-238511904D02*
X456000590Y-238464285D01*
X456000590Y-238464285D02*
X455952971Y-238369047D01*
X455952971Y-238369047D02*
X455952971Y-238130952D01*
X455952971Y-238130952D02*
X456000590Y-238035714D01*
X456000590Y-238035714D02*
X456048209Y-237988095D01*
X456048209Y-237988095D02*
X456143447Y-237940476D01*
X456143447Y-237940476D02*
X456381542Y-237940476D01*
X456381542Y-237940476D02*
X456476780Y-237988095D01*
X456476780Y-237988095D02*
X456524400Y-238035714D01*
X456524400Y-238035714D02*
X456572019Y-238130952D01*
X456572019Y-238130952D02*
X456572019Y-238369047D01*
X456572019Y-238369047D02*
X456524400Y-238464285D01*
X456524400Y-238464285D02*
X456476780Y-238511904D01*
X455667257Y-237559523D02*
X455619638Y-237511904D01*
X455619638Y-237511904D02*
X455572019Y-237416666D01*
X455572019Y-237416666D02*
X455572019Y-237178571D01*
X455572019Y-237178571D02*
X455619638Y-237083333D01*
X455619638Y-237083333D02*
X455667257Y-237035714D01*
X455667257Y-237035714D02*
X455762495Y-236988095D01*
X455762495Y-236988095D02*
X455857733Y-236988095D01*
X455857733Y-236988095D02*
X456000590Y-237035714D01*
X456000590Y-237035714D02*
X456572019Y-237607142D01*
X456572019Y-237607142D02*
X456572019Y-236988095D01*
%TO.C,J5*%
X373431079Y-228511693D02*
X374145364Y-228511693D01*
X374145364Y-228511693D02*
X374288221Y-228559312D01*
X374288221Y-228559312D02*
X374383460Y-228654550D01*
X374383460Y-228654550D02*
X374431079Y-228797407D01*
X374431079Y-228797407D02*
X374431079Y-228892645D01*
X373431079Y-227559312D02*
X373431079Y-228035502D01*
X373431079Y-228035502D02*
X373907269Y-228083121D01*
X373907269Y-228083121D02*
X373859650Y-228035502D01*
X373859650Y-228035502D02*
X373812031Y-227940264D01*
X373812031Y-227940264D02*
X373812031Y-227702169D01*
X373812031Y-227702169D02*
X373859650Y-227606931D01*
X373859650Y-227606931D02*
X373907269Y-227559312D01*
X373907269Y-227559312D02*
X374002507Y-227511693D01*
X374002507Y-227511693D02*
X374240602Y-227511693D01*
X374240602Y-227511693D02*
X374335840Y-227559312D01*
X374335840Y-227559312D02*
X374383460Y-227606931D01*
X374383460Y-227606931D02*
X374431079Y-227702169D01*
X374431079Y-227702169D02*
X374431079Y-227940264D01*
X374431079Y-227940264D02*
X374383460Y-228035502D01*
X374383460Y-228035502D02*
X374335840Y-228083121D01*
%TO.C,Y2*%
X343497109Y-249808228D02*
X343497109Y-250284419D01*
X343163776Y-249284419D02*
X343497109Y-249808228D01*
X343497109Y-249808228D02*
X343830442Y-249284419D01*
X344116157Y-249379657D02*
X344163776Y-249332038D01*
X344163776Y-249332038D02*
X344259014Y-249284419D01*
X344259014Y-249284419D02*
X344497109Y-249284419D01*
X344497109Y-249284419D02*
X344592347Y-249332038D01*
X344592347Y-249332038D02*
X344639966Y-249379657D01*
X344639966Y-249379657D02*
X344687585Y-249474895D01*
X344687585Y-249474895D02*
X344687585Y-249570133D01*
X344687585Y-249570133D02*
X344639966Y-249712990D01*
X344639966Y-249712990D02*
X344068538Y-250284419D01*
X344068538Y-250284419D02*
X344687585Y-250284419D01*
%TO.C,D7*%
X460572019Y-256588094D02*
X459572019Y-256588094D01*
X459572019Y-256588094D02*
X459572019Y-256349999D01*
X459572019Y-256349999D02*
X459619638Y-256207142D01*
X459619638Y-256207142D02*
X459714876Y-256111904D01*
X459714876Y-256111904D02*
X459810114Y-256064285D01*
X459810114Y-256064285D02*
X460000590Y-256016666D01*
X460000590Y-256016666D02*
X460143447Y-256016666D01*
X460143447Y-256016666D02*
X460333923Y-256064285D01*
X460333923Y-256064285D02*
X460429161Y-256111904D01*
X460429161Y-256111904D02*
X460524400Y-256207142D01*
X460524400Y-256207142D02*
X460572019Y-256349999D01*
X460572019Y-256349999D02*
X460572019Y-256588094D01*
X459572019Y-255683332D02*
X459572019Y-255016666D01*
X459572019Y-255016666D02*
X460572019Y-255445237D01*
%TO.C,D6*%
X456572019Y-256388094D02*
X455572019Y-256388094D01*
X455572019Y-256388094D02*
X455572019Y-256149999D01*
X455572019Y-256149999D02*
X455619638Y-256007142D01*
X455619638Y-256007142D02*
X455714876Y-255911904D01*
X455714876Y-255911904D02*
X455810114Y-255864285D01*
X455810114Y-255864285D02*
X456000590Y-255816666D01*
X456000590Y-255816666D02*
X456143447Y-255816666D01*
X456143447Y-255816666D02*
X456333923Y-255864285D01*
X456333923Y-255864285D02*
X456429161Y-255911904D01*
X456429161Y-255911904D02*
X456524400Y-256007142D01*
X456524400Y-256007142D02*
X456572019Y-256149999D01*
X456572019Y-256149999D02*
X456572019Y-256388094D01*
X455572019Y-254959523D02*
X455572019Y-255149999D01*
X455572019Y-255149999D02*
X455619638Y-255245237D01*
X455619638Y-255245237D02*
X455667257Y-255292856D01*
X455667257Y-255292856D02*
X455810114Y-255388094D01*
X455810114Y-255388094D02*
X456000590Y-255435713D01*
X456000590Y-255435713D02*
X456381542Y-255435713D01*
X456381542Y-255435713D02*
X456476780Y-255388094D01*
X456476780Y-255388094D02*
X456524400Y-255340475D01*
X456524400Y-255340475D02*
X456572019Y-255245237D01*
X456572019Y-255245237D02*
X456572019Y-255054761D01*
X456572019Y-255054761D02*
X456524400Y-254959523D01*
X456524400Y-254959523D02*
X456476780Y-254911904D01*
X456476780Y-254911904D02*
X456381542Y-254864285D01*
X456381542Y-254864285D02*
X456143447Y-254864285D01*
X456143447Y-254864285D02*
X456048209Y-254911904D01*
X456048209Y-254911904D02*
X456000590Y-254959523D01*
X456000590Y-254959523D02*
X455952971Y-255054761D01*
X455952971Y-255054761D02*
X455952971Y-255245237D01*
X455952971Y-255245237D02*
X456000590Y-255340475D01*
X456000590Y-255340475D02*
X456048209Y-255388094D01*
X456048209Y-255388094D02*
X456143447Y-255435713D01*
%TO.C,D5*%
X452596619Y-256438094D02*
X451596619Y-256438094D01*
X451596619Y-256438094D02*
X451596619Y-256199999D01*
X451596619Y-256199999D02*
X451644238Y-256057142D01*
X451644238Y-256057142D02*
X451739476Y-255961904D01*
X451739476Y-255961904D02*
X451834714Y-255914285D01*
X451834714Y-255914285D02*
X452025190Y-255866666D01*
X452025190Y-255866666D02*
X452168047Y-255866666D01*
X452168047Y-255866666D02*
X452358523Y-255914285D01*
X452358523Y-255914285D02*
X452453761Y-255961904D01*
X452453761Y-255961904D02*
X452549000Y-256057142D01*
X452549000Y-256057142D02*
X452596619Y-256199999D01*
X452596619Y-256199999D02*
X452596619Y-256438094D01*
X451596619Y-254961904D02*
X451596619Y-255438094D01*
X451596619Y-255438094D02*
X452072809Y-255485713D01*
X452072809Y-255485713D02*
X452025190Y-255438094D01*
X452025190Y-255438094D02*
X451977571Y-255342856D01*
X451977571Y-255342856D02*
X451977571Y-255104761D01*
X451977571Y-255104761D02*
X452025190Y-255009523D01*
X452025190Y-255009523D02*
X452072809Y-254961904D01*
X452072809Y-254961904D02*
X452168047Y-254914285D01*
X452168047Y-254914285D02*
X452406142Y-254914285D01*
X452406142Y-254914285D02*
X452501380Y-254961904D01*
X452501380Y-254961904D02*
X452549000Y-255009523D01*
X452549000Y-255009523D02*
X452596619Y-255104761D01*
X452596619Y-255104761D02*
X452596619Y-255342856D01*
X452596619Y-255342856D02*
X452549000Y-255438094D01*
X452549000Y-255438094D02*
X452501380Y-255485713D01*
%TO.C,J4*%
X393732619Y-228533333D02*
X394446904Y-228533333D01*
X394446904Y-228533333D02*
X394589761Y-228580952D01*
X394589761Y-228580952D02*
X394685000Y-228676190D01*
X394685000Y-228676190D02*
X394732619Y-228819047D01*
X394732619Y-228819047D02*
X394732619Y-228914285D01*
X394065952Y-227628571D02*
X394732619Y-227628571D01*
X393685000Y-227866666D02*
X394399285Y-228104761D01*
X394399285Y-228104761D02*
X394399285Y-227485714D01*
%TO.C,U2*%
X343986495Y-224716819D02*
X343986495Y-225526342D01*
X343986495Y-225526342D02*
X344034114Y-225621580D01*
X344034114Y-225621580D02*
X344081733Y-225669200D01*
X344081733Y-225669200D02*
X344176971Y-225716819D01*
X344176971Y-225716819D02*
X344367447Y-225716819D01*
X344367447Y-225716819D02*
X344462685Y-225669200D01*
X344462685Y-225669200D02*
X344510304Y-225621580D01*
X344510304Y-225621580D02*
X344557923Y-225526342D01*
X344557923Y-225526342D02*
X344557923Y-224716819D01*
X344986495Y-224812057D02*
X345034114Y-224764438D01*
X345034114Y-224764438D02*
X345129352Y-224716819D01*
X345129352Y-224716819D02*
X345367447Y-224716819D01*
X345367447Y-224716819D02*
X345462685Y-224764438D01*
X345462685Y-224764438D02*
X345510304Y-224812057D01*
X345510304Y-224812057D02*
X345557923Y-224907295D01*
X345557923Y-224907295D02*
X345557923Y-225002533D01*
X345557923Y-225002533D02*
X345510304Y-225145390D01*
X345510304Y-225145390D02*
X344938876Y-225716819D01*
X344938876Y-225716819D02*
X345557923Y-225716819D01*
%TO.C,J3*%
X365332619Y-235663333D02*
X366046904Y-235663333D01*
X366046904Y-235663333D02*
X366189761Y-235710952D01*
X366189761Y-235710952D02*
X366285000Y-235806190D01*
X366285000Y-235806190D02*
X366332619Y-235949047D01*
X366332619Y-235949047D02*
X366332619Y-236044285D01*
X365332619Y-235282380D02*
X365332619Y-234663333D01*
X365332619Y-234663333D02*
X365713571Y-234996666D01*
X365713571Y-234996666D02*
X365713571Y-234853809D01*
X365713571Y-234853809D02*
X365761190Y-234758571D01*
X365761190Y-234758571D02*
X365808809Y-234710952D01*
X365808809Y-234710952D02*
X365904047Y-234663333D01*
X365904047Y-234663333D02*
X366142142Y-234663333D01*
X366142142Y-234663333D02*
X366237380Y-234710952D01*
X366237380Y-234710952D02*
X366285000Y-234758571D01*
X366285000Y-234758571D02*
X366332619Y-234853809D01*
X366332619Y-234853809D02*
X366332619Y-235139523D01*
X366332619Y-235139523D02*
X366285000Y-235234761D01*
X366285000Y-235234761D02*
X366237380Y-235282380D01*
%TO.C,C6*%
X356538880Y-229060146D02*
X356586500Y-229107765D01*
X356586500Y-229107765D02*
X356634119Y-229250622D01*
X356634119Y-229250622D02*
X356634119Y-229345860D01*
X356634119Y-229345860D02*
X356586500Y-229488717D01*
X356586500Y-229488717D02*
X356491261Y-229583955D01*
X356491261Y-229583955D02*
X356396023Y-229631574D01*
X356396023Y-229631574D02*
X356205547Y-229679193D01*
X356205547Y-229679193D02*
X356062690Y-229679193D01*
X356062690Y-229679193D02*
X355872214Y-229631574D01*
X355872214Y-229631574D02*
X355776976Y-229583955D01*
X355776976Y-229583955D02*
X355681738Y-229488717D01*
X355681738Y-229488717D02*
X355634119Y-229345860D01*
X355634119Y-229345860D02*
X355634119Y-229250622D01*
X355634119Y-229250622D02*
X355681738Y-229107765D01*
X355681738Y-229107765D02*
X355729357Y-229060146D01*
X355634119Y-228203003D02*
X355634119Y-228393479D01*
X355634119Y-228393479D02*
X355681738Y-228488717D01*
X355681738Y-228488717D02*
X355729357Y-228536336D01*
X355729357Y-228536336D02*
X355872214Y-228631574D01*
X355872214Y-228631574D02*
X356062690Y-228679193D01*
X356062690Y-228679193D02*
X356443642Y-228679193D01*
X356443642Y-228679193D02*
X356538880Y-228631574D01*
X356538880Y-228631574D02*
X356586500Y-228583955D01*
X356586500Y-228583955D02*
X356634119Y-228488717D01*
X356634119Y-228488717D02*
X356634119Y-228298241D01*
X356634119Y-228298241D02*
X356586500Y-228203003D01*
X356586500Y-228203003D02*
X356538880Y-228155384D01*
X356538880Y-228155384D02*
X356443642Y-228107765D01*
X356443642Y-228107765D02*
X356205547Y-228107765D01*
X356205547Y-228107765D02*
X356110309Y-228155384D01*
X356110309Y-228155384D02*
X356062690Y-228203003D01*
X356062690Y-228203003D02*
X356015071Y-228298241D01*
X356015071Y-228298241D02*
X356015071Y-228488717D01*
X356015071Y-228488717D02*
X356062690Y-228583955D01*
X356062690Y-228583955D02*
X356110309Y-228631574D01*
X356110309Y-228631574D02*
X356205547Y-228679193D01*
%TO.C,C5*%
X332333333Y-235067380D02*
X332285714Y-235115000D01*
X332285714Y-235115000D02*
X332142857Y-235162619D01*
X332142857Y-235162619D02*
X332047619Y-235162619D01*
X332047619Y-235162619D02*
X331904762Y-235115000D01*
X331904762Y-235115000D02*
X331809524Y-235019761D01*
X331809524Y-235019761D02*
X331761905Y-234924523D01*
X331761905Y-234924523D02*
X331714286Y-234734047D01*
X331714286Y-234734047D02*
X331714286Y-234591190D01*
X331714286Y-234591190D02*
X331761905Y-234400714D01*
X331761905Y-234400714D02*
X331809524Y-234305476D01*
X331809524Y-234305476D02*
X331904762Y-234210238D01*
X331904762Y-234210238D02*
X332047619Y-234162619D01*
X332047619Y-234162619D02*
X332142857Y-234162619D01*
X332142857Y-234162619D02*
X332285714Y-234210238D01*
X332285714Y-234210238D02*
X332333333Y-234257857D01*
X333238095Y-234162619D02*
X332761905Y-234162619D01*
X332761905Y-234162619D02*
X332714286Y-234638809D01*
X332714286Y-234638809D02*
X332761905Y-234591190D01*
X332761905Y-234591190D02*
X332857143Y-234543571D01*
X332857143Y-234543571D02*
X333095238Y-234543571D01*
X333095238Y-234543571D02*
X333190476Y-234591190D01*
X333190476Y-234591190D02*
X333238095Y-234638809D01*
X333238095Y-234638809D02*
X333285714Y-234734047D01*
X333285714Y-234734047D02*
X333285714Y-234972142D01*
X333285714Y-234972142D02*
X333238095Y-235067380D01*
X333238095Y-235067380D02*
X333190476Y-235115000D01*
X333190476Y-235115000D02*
X333095238Y-235162619D01*
X333095238Y-235162619D02*
X332857143Y-235162619D01*
X332857143Y-235162619D02*
X332761905Y-235115000D01*
X332761905Y-235115000D02*
X332714286Y-235067380D01*
%TO.C,C4*%
X338879533Y-246013780D02*
X338831914Y-246061400D01*
X338831914Y-246061400D02*
X338689057Y-246109019D01*
X338689057Y-246109019D02*
X338593819Y-246109019D01*
X338593819Y-246109019D02*
X338450962Y-246061400D01*
X338450962Y-246061400D02*
X338355724Y-245966161D01*
X338355724Y-245966161D02*
X338308105Y-245870923D01*
X338308105Y-245870923D02*
X338260486Y-245680447D01*
X338260486Y-245680447D02*
X338260486Y-245537590D01*
X338260486Y-245537590D02*
X338308105Y-245347114D01*
X338308105Y-245347114D02*
X338355724Y-245251876D01*
X338355724Y-245251876D02*
X338450962Y-245156638D01*
X338450962Y-245156638D02*
X338593819Y-245109019D01*
X338593819Y-245109019D02*
X338689057Y-245109019D01*
X338689057Y-245109019D02*
X338831914Y-245156638D01*
X338831914Y-245156638D02*
X338879533Y-245204257D01*
X339736676Y-245442352D02*
X339736676Y-246109019D01*
X339498581Y-245061400D02*
X339260486Y-245775685D01*
X339260486Y-245775685D02*
X339879533Y-245775685D01*
%TO.C,C3*%
X348754833Y-246077280D02*
X348707214Y-246124900D01*
X348707214Y-246124900D02*
X348564357Y-246172519D01*
X348564357Y-246172519D02*
X348469119Y-246172519D01*
X348469119Y-246172519D02*
X348326262Y-246124900D01*
X348326262Y-246124900D02*
X348231024Y-246029661D01*
X348231024Y-246029661D02*
X348183405Y-245934423D01*
X348183405Y-245934423D02*
X348135786Y-245743947D01*
X348135786Y-245743947D02*
X348135786Y-245601090D01*
X348135786Y-245601090D02*
X348183405Y-245410614D01*
X348183405Y-245410614D02*
X348231024Y-245315376D01*
X348231024Y-245315376D02*
X348326262Y-245220138D01*
X348326262Y-245220138D02*
X348469119Y-245172519D01*
X348469119Y-245172519D02*
X348564357Y-245172519D01*
X348564357Y-245172519D02*
X348707214Y-245220138D01*
X348707214Y-245220138D02*
X348754833Y-245267757D01*
X349088167Y-245172519D02*
X349707214Y-245172519D01*
X349707214Y-245172519D02*
X349373881Y-245553471D01*
X349373881Y-245553471D02*
X349516738Y-245553471D01*
X349516738Y-245553471D02*
X349611976Y-245601090D01*
X349611976Y-245601090D02*
X349659595Y-245648709D01*
X349659595Y-245648709D02*
X349707214Y-245743947D01*
X349707214Y-245743947D02*
X349707214Y-245982042D01*
X349707214Y-245982042D02*
X349659595Y-246077280D01*
X349659595Y-246077280D02*
X349611976Y-246124900D01*
X349611976Y-246124900D02*
X349516738Y-246172519D01*
X349516738Y-246172519D02*
X349231024Y-246172519D01*
X349231024Y-246172519D02*
X349135786Y-246124900D01*
X349135786Y-246124900D02*
X349088167Y-246077280D01*
%TO.C,J1*%
X342492666Y-254696619D02*
X342492666Y-255410904D01*
X342492666Y-255410904D02*
X342445047Y-255553761D01*
X342445047Y-255553761D02*
X342349809Y-255649000D01*
X342349809Y-255649000D02*
X342206952Y-255696619D01*
X342206952Y-255696619D02*
X342111714Y-255696619D01*
X343492666Y-255696619D02*
X342921238Y-255696619D01*
X343206952Y-255696619D02*
X343206952Y-254696619D01*
X343206952Y-254696619D02*
X343111714Y-254839476D01*
X343111714Y-254839476D02*
X343016476Y-254934714D01*
X343016476Y-254934714D02*
X342921238Y-254982333D01*
D13*
%TO.C,D51*%
X450583400Y-241487500D02*
X450583400Y-245387500D01*
X453583400Y-241487500D02*
X453583400Y-245387500D01*
X452783400Y-241487500D02*
X453583400Y-241487500D01*
%TO.C,R16*%
X360175740Y-228548188D02*
X360175740Y-229070692D01*
X361595740Y-228548188D02*
X361595740Y-229070692D01*
%TO.C,R15*%
X363401540Y-228571268D02*
X363401540Y-229093772D01*
X364821540Y-228571268D02*
X364821540Y-229093772D01*
%TO.C,R14*%
X407036748Y-242264000D02*
X407559252Y-242264000D01*
X407036748Y-240844000D02*
X407559252Y-240844000D01*
%TO.C,R13*%
X412860748Y-242264000D02*
X413383252Y-242264000D01*
X412860748Y-240844000D02*
X413383252Y-240844000D01*
%TO.C,R12*%
X419624252Y-229160000D02*
X419101748Y-229160000D01*
X419624252Y-230580000D02*
X419101748Y-230580000D01*
%TO.C,R11*%
X363272000Y-236203748D02*
X363272000Y-236726252D01*
X364692000Y-236203748D02*
X364692000Y-236726252D01*
%TO.C,R10*%
X360986000Y-236212748D02*
X360986000Y-236735252D01*
X362406000Y-236212748D02*
X362406000Y-236735252D01*
%TO.C,R9*%
X419615252Y-231700000D02*
X419092748Y-231700000D01*
X419615252Y-233120000D02*
X419092748Y-233120000D01*
%TO.C,R8*%
X419615252Y-234240000D02*
X419092748Y-234240000D01*
X419615252Y-235660000D02*
X419092748Y-235660000D01*
%TO.C,C16*%
X425047500Y-239204437D02*
X423983063Y-238140000D01*
X425047500Y-243895563D02*
X423983063Y-244960000D01*
X425047500Y-243895563D02*
X425047500Y-242610000D01*
X425047500Y-239204437D02*
X425047500Y-240490000D01*
X423983063Y-238140000D02*
X418227500Y-238140000D01*
X423983063Y-244960000D02*
X418227500Y-244960000D01*
X418227500Y-244960000D02*
X418227500Y-242610000D01*
X418227500Y-238140000D02*
X418227500Y-240490000D01*
%TO.C,C15*%
X425047500Y-247304437D02*
X423983063Y-246240000D01*
X425047500Y-251995563D02*
X423983063Y-253060000D01*
X425047500Y-251995563D02*
X425047500Y-250710000D01*
X425047500Y-247304437D02*
X425047500Y-248590000D01*
X423983063Y-246240000D02*
X418227500Y-246240000D01*
X423983063Y-253060000D02*
X418227500Y-253060000D01*
X418227500Y-253060000D02*
X418227500Y-250710000D01*
X418227500Y-246240000D02*
X418227500Y-248590000D01*
%TO.C,R7*%
X429763748Y-254410000D02*
X430286252Y-254410000D01*
X429763748Y-252990000D02*
X430286252Y-252990000D01*
%TO.C,R6*%
X410611252Y-231490000D02*
X410088748Y-231490000D01*
X410611252Y-232910000D02*
X410088748Y-232910000D01*
%TO.C,R5*%
X371311252Y-240190000D02*
X370788748Y-240190000D01*
X371311252Y-241610000D02*
X370788748Y-241610000D01*
%TO.C,R4*%
X321760000Y-235186252D02*
X321760000Y-234663748D01*
X320340000Y-235186252D02*
X320340000Y-234663748D01*
%TO.C,R3*%
X319410000Y-235186252D02*
X319410000Y-234663748D01*
X317990000Y-235186252D02*
X317990000Y-234663748D01*
%TO.C,R2*%
X366988748Y-252810000D02*
X367511252Y-252810000D01*
X366988748Y-251390000D02*
X367511252Y-251390000D01*
%TO.C,R1*%
X377510000Y-252336252D02*
X377510000Y-251813748D01*
X376090000Y-252336252D02*
X376090000Y-251813748D01*
%TO.C,Q1*%
X371490000Y-250520000D02*
X372950000Y-250520000D01*
X371490000Y-253680000D02*
X373650000Y-253680000D01*
X371490000Y-253680000D02*
X371490000Y-252750000D01*
X371490000Y-250520000D02*
X371490000Y-251450000D01*
%TO.C,C9*%
X435536252Y-255240000D02*
X435013748Y-255240000D01*
X435536252Y-256660000D02*
X435013748Y-256660000D01*
%TO.C,C13*%
X430311252Y-250340000D02*
X429788748Y-250340000D01*
X430311252Y-251760000D02*
X429788748Y-251760000D01*
%TO.C,C14*%
X405088748Y-232910000D02*
X405611252Y-232910000D01*
X405088748Y-231490000D02*
X405611252Y-231490000D01*
%TO.C,C12*%
X428440000Y-246913748D02*
X428440000Y-247436252D01*
X429860000Y-246913748D02*
X429860000Y-247436252D01*
%TO.C,C11*%
X440163748Y-256660000D02*
X440686252Y-256660000D01*
X440163748Y-255240000D02*
X440686252Y-255240000D01*
%TO.C,U1*%
X440072500Y-250060000D02*
X441362500Y-250060000D01*
X432852500Y-243290000D02*
X432852500Y-243740000D01*
X433302500Y-243290000D02*
X432852500Y-243290000D01*
X440072500Y-243290000D02*
X440072500Y-243740000D01*
X439622500Y-243290000D02*
X440072500Y-243290000D01*
X432852500Y-250510000D02*
X432852500Y-250060000D01*
X433302500Y-250510000D02*
X432852500Y-250510000D01*
X440072500Y-250510000D02*
X440072500Y-250060000D01*
X439622500Y-250510000D02*
X440072500Y-250510000D01*
%TO.C,C8*%
X332786252Y-228290000D02*
X332263748Y-228290000D01*
X332786252Y-229710000D02*
X332263748Y-229710000D01*
%TO.C,C7*%
X429860000Y-242586252D02*
X429860000Y-242063748D01*
X428440000Y-242586252D02*
X428440000Y-242063748D01*
%TO.C,C2*%
X332263748Y-242760000D02*
X332786252Y-242760000D01*
X332263748Y-241340000D02*
X332786252Y-241340000D01*
%TO.C,C1*%
X333674248Y-248019100D02*
X334196752Y-248019100D01*
X333674248Y-246599100D02*
X334196752Y-246599100D01*
%TO.C,D53*%
X458647200Y-241467200D02*
X458647200Y-245367200D01*
X461647200Y-241467200D02*
X461647200Y-245367200D01*
X460847200Y-241467200D02*
X461647200Y-241467200D01*
%TO.C,D52*%
X454595900Y-241479900D02*
X454595900Y-245379900D01*
X457595900Y-241479900D02*
X457595900Y-245379900D01*
X456795900Y-241479900D02*
X457595900Y-241479900D01*
%TO.C,J5*%
X374968460Y-229508360D02*
X374968460Y-228178360D01*
X376298460Y-229508360D02*
X374968460Y-229508360D01*
X377568460Y-229508360D02*
X377568460Y-226848360D01*
X377568460Y-226848360D02*
X380168460Y-226848360D01*
X377568460Y-229508360D02*
X380168460Y-229508360D01*
X380168460Y-229508360D02*
X380168460Y-226848360D01*
%TO.C,Y2*%
X346473300Y-245611800D02*
X341473300Y-245611800D01*
X346473300Y-249031800D02*
X341473300Y-249031800D01*
%TO.C,D7*%
X461658400Y-253325000D02*
X461658400Y-249425000D01*
X458658400Y-253325000D02*
X458658400Y-249425000D01*
X459458400Y-253325000D02*
X458658400Y-253325000D01*
%TO.C,D6*%
X457594400Y-253325000D02*
X457594400Y-249425000D01*
X454594400Y-253325000D02*
X454594400Y-249425000D01*
X455394400Y-253325000D02*
X454594400Y-253325000D01*
%TO.C,D5*%
X453567000Y-253338000D02*
X453567000Y-249438000D01*
X450567000Y-253338000D02*
X450567000Y-249438000D01*
X451367000Y-253338000D02*
X450567000Y-253338000D01*
%TO.C,J4*%
X395270000Y-229530000D02*
X395270000Y-228200000D01*
X396600000Y-229530000D02*
X395270000Y-229530000D01*
X397870000Y-229530000D02*
X397870000Y-226870000D01*
X397870000Y-226870000D02*
X415710000Y-226870000D01*
X397870000Y-229530000D02*
X415710000Y-229530000D01*
X415710000Y-229530000D02*
X415710000Y-226870000D01*
D12*
%TO.C,U2*%
X337573400Y-228104200D02*
X336298400Y-228104200D01*
X351923400Y-227529200D02*
X351248400Y-227529200D01*
X351923400Y-241879200D02*
X351248400Y-241879200D01*
X337573400Y-241879200D02*
X338248400Y-241879200D01*
X337573400Y-227529200D02*
X338248400Y-227529200D01*
X337573400Y-241879200D02*
X337573400Y-241204200D01*
X351923400Y-241879200D02*
X351923400Y-241204200D01*
X351923400Y-227529200D02*
X351923400Y-228204200D01*
X337573400Y-227529200D02*
X337573400Y-228104200D01*
D13*
%TO.C,J3*%
X366870000Y-237930000D02*
X366870000Y-236600000D01*
X368200000Y-237930000D02*
X366870000Y-237930000D01*
X366870000Y-235330000D02*
X366870000Y-232730000D01*
X369470000Y-235330000D02*
X366870000Y-235330000D01*
X369470000Y-237930000D02*
X369470000Y-235330000D01*
X366870000Y-232730000D02*
X374610000Y-232730000D01*
X369470000Y-237930000D02*
X374610000Y-237930000D01*
X374610000Y-237930000D02*
X374610000Y-232730000D01*
%TO.C,C6*%
X356934700Y-228581428D02*
X356934700Y-229103932D01*
X358354700Y-228581428D02*
X358354700Y-229103932D01*
%TO.C,C5*%
X332761252Y-232340000D02*
X332238748Y-232340000D01*
X332761252Y-233760000D02*
X332238748Y-233760000D01*
%TO.C,C4*%
X338784948Y-248006400D02*
X339307452Y-248006400D01*
X338784948Y-246586400D02*
X339307452Y-246586400D01*
%TO.C,C3*%
X348660248Y-248069900D02*
X349182752Y-248069900D01*
X348660248Y-246649900D02*
X349182752Y-246649900D01*
%TO.C,J1*%
X363076000Y-251734000D02*
X362826000Y-251734000D01*
X363076000Y-256734000D02*
X363076000Y-251734000D01*
X321326000Y-251734000D02*
X362826000Y-251734000D01*
X321326000Y-256734000D02*
X321326000Y-251734000D01*
D12*
X363076000Y-256734000D02*
X321326000Y-256734000D01*
X363076000Y-264734000D02*
X363076000Y-256734000D01*
X321326000Y-264734000D02*
X363076000Y-264734000D01*
X321326000Y-256734000D02*
X321326000Y-264734000D01*
%TD*%
M02*
