%TF.GenerationSoftware,KiCad,Pcbnew,7.0.2-0*%
%TF.CreationDate,2023-12-20T15:00:36+01:00*%
%TF.ProjectId,A500KBMini,41353030-4b42-44d6-996e-692e6b696361,3*%
%TF.SameCoordinates,Original*%
%TF.FileFunction,AssemblyDrawing,Bot*%
%FSLAX46Y46*%
G04 Gerber Fmt 4.6, Leading zero omitted, Abs format (unit mm)*
G04 Created by KiCad (PCBNEW 7.0.2-0) date 2023-12-20 15:00:36*
%MOMM*%
%LPD*%
G01*
G04 APERTURE LIST*
%ADD10C,0.150000*%
%ADD11C,0.100000*%
G04 APERTURE END LIST*
D10*
%TO.C,J2*%
X324773809Y-220512619D02*
X324773809Y-221322142D01*
X324773809Y-221322142D02*
X324726190Y-221417380D01*
X324726190Y-221417380D02*
X324678571Y-221465000D01*
X324678571Y-221465000D02*
X324583333Y-221512619D01*
X324583333Y-221512619D02*
X324392857Y-221512619D01*
X324392857Y-221512619D02*
X324297619Y-221465000D01*
X324297619Y-221465000D02*
X324250000Y-221417380D01*
X324250000Y-221417380D02*
X324202381Y-221322142D01*
X324202381Y-221322142D02*
X324202381Y-220512619D01*
X323773809Y-221465000D02*
X323630952Y-221512619D01*
X323630952Y-221512619D02*
X323392857Y-221512619D01*
X323392857Y-221512619D02*
X323297619Y-221465000D01*
X323297619Y-221465000D02*
X323250000Y-221417380D01*
X323250000Y-221417380D02*
X323202381Y-221322142D01*
X323202381Y-221322142D02*
X323202381Y-221226904D01*
X323202381Y-221226904D02*
X323250000Y-221131666D01*
X323250000Y-221131666D02*
X323297619Y-221084047D01*
X323297619Y-221084047D02*
X323392857Y-221036428D01*
X323392857Y-221036428D02*
X323583333Y-220988809D01*
X323583333Y-220988809D02*
X323678571Y-220941190D01*
X323678571Y-220941190D02*
X323726190Y-220893571D01*
X323726190Y-220893571D02*
X323773809Y-220798333D01*
X323773809Y-220798333D02*
X323773809Y-220703095D01*
X323773809Y-220703095D02*
X323726190Y-220607857D01*
X323726190Y-220607857D02*
X323678571Y-220560238D01*
X323678571Y-220560238D02*
X323583333Y-220512619D01*
X323583333Y-220512619D02*
X323345238Y-220512619D01*
X323345238Y-220512619D02*
X323202381Y-220560238D01*
X322440476Y-220988809D02*
X322297619Y-221036428D01*
X322297619Y-221036428D02*
X322250000Y-221084047D01*
X322250000Y-221084047D02*
X322202381Y-221179285D01*
X322202381Y-221179285D02*
X322202381Y-221322142D01*
X322202381Y-221322142D02*
X322250000Y-221417380D01*
X322250000Y-221417380D02*
X322297619Y-221465000D01*
X322297619Y-221465000D02*
X322392857Y-221512619D01*
X322392857Y-221512619D02*
X322773809Y-221512619D01*
X322773809Y-221512619D02*
X322773809Y-220512619D01*
X322773809Y-220512619D02*
X322440476Y-220512619D01*
X322440476Y-220512619D02*
X322345238Y-220560238D01*
X322345238Y-220560238D02*
X322297619Y-220607857D01*
X322297619Y-220607857D02*
X322250000Y-220703095D01*
X322250000Y-220703095D02*
X322250000Y-220798333D01*
X322250000Y-220798333D02*
X322297619Y-220893571D01*
X322297619Y-220893571D02*
X322345238Y-220941190D01*
X322345238Y-220941190D02*
X322440476Y-220988809D01*
X322440476Y-220988809D02*
X322773809Y-220988809D01*
X322011905Y-221607857D02*
X321250000Y-221607857D01*
X320678571Y-220988809D02*
X320535714Y-221036428D01*
X320535714Y-221036428D02*
X320488095Y-221084047D01*
X320488095Y-221084047D02*
X320440476Y-221179285D01*
X320440476Y-221179285D02*
X320440476Y-221322142D01*
X320440476Y-221322142D02*
X320488095Y-221417380D01*
X320488095Y-221417380D02*
X320535714Y-221465000D01*
X320535714Y-221465000D02*
X320630952Y-221512619D01*
X320630952Y-221512619D02*
X321011904Y-221512619D01*
X321011904Y-221512619D02*
X321011904Y-220512619D01*
X321011904Y-220512619D02*
X320678571Y-220512619D01*
X320678571Y-220512619D02*
X320583333Y-220560238D01*
X320583333Y-220560238D02*
X320535714Y-220607857D01*
X320535714Y-220607857D02*
X320488095Y-220703095D01*
X320488095Y-220703095D02*
X320488095Y-220798333D01*
X320488095Y-220798333D02*
X320535714Y-220893571D01*
X320535714Y-220893571D02*
X320583333Y-220941190D01*
X320583333Y-220941190D02*
X320678571Y-220988809D01*
X320678571Y-220988809D02*
X321011904Y-220988809D01*
X320250000Y-221607857D02*
X319488095Y-221607857D01*
X319249999Y-221512619D02*
X319249999Y-220512619D01*
X319249999Y-220512619D02*
X318916666Y-221226904D01*
X318916666Y-221226904D02*
X318583333Y-220512619D01*
X318583333Y-220512619D02*
X318583333Y-221512619D01*
X318107142Y-221512619D02*
X318107142Y-220845952D01*
X318107142Y-220512619D02*
X318154761Y-220560238D01*
X318154761Y-220560238D02*
X318107142Y-220607857D01*
X318107142Y-220607857D02*
X318059523Y-220560238D01*
X318059523Y-220560238D02*
X318107142Y-220512619D01*
X318107142Y-220512619D02*
X318107142Y-220607857D01*
X317202381Y-221465000D02*
X317297619Y-221512619D01*
X317297619Y-221512619D02*
X317488095Y-221512619D01*
X317488095Y-221512619D02*
X317583333Y-221465000D01*
X317583333Y-221465000D02*
X317630952Y-221417380D01*
X317630952Y-221417380D02*
X317678571Y-221322142D01*
X317678571Y-221322142D02*
X317678571Y-221036428D01*
X317678571Y-221036428D02*
X317630952Y-220941190D01*
X317630952Y-220941190D02*
X317583333Y-220893571D01*
X317583333Y-220893571D02*
X317488095Y-220845952D01*
X317488095Y-220845952D02*
X317297619Y-220845952D01*
X317297619Y-220845952D02*
X317202381Y-220893571D01*
X316773809Y-221512619D02*
X316773809Y-220845952D01*
X316773809Y-221036428D02*
X316726190Y-220941190D01*
X316726190Y-220941190D02*
X316678571Y-220893571D01*
X316678571Y-220893571D02*
X316583333Y-220845952D01*
X316583333Y-220845952D02*
X316488095Y-220845952D01*
X316011904Y-221512619D02*
X316107142Y-221465000D01*
X316107142Y-221465000D02*
X316154761Y-221417380D01*
X316154761Y-221417380D02*
X316202380Y-221322142D01*
X316202380Y-221322142D02*
X316202380Y-221036428D01*
X316202380Y-221036428D02*
X316154761Y-220941190D01*
X316154761Y-220941190D02*
X316107142Y-220893571D01*
X316107142Y-220893571D02*
X316011904Y-220845952D01*
X316011904Y-220845952D02*
X315869047Y-220845952D01*
X315869047Y-220845952D02*
X315773809Y-220893571D01*
X315773809Y-220893571D02*
X315726190Y-220941190D01*
X315726190Y-220941190D02*
X315678571Y-221036428D01*
X315678571Y-221036428D02*
X315678571Y-221322142D01*
X315678571Y-221322142D02*
X315726190Y-221417380D01*
X315726190Y-221417380D02*
X315773809Y-221465000D01*
X315773809Y-221465000D02*
X315869047Y-221512619D01*
X315869047Y-221512619D02*
X316011904Y-221512619D01*
X320283333Y-223962619D02*
X320283333Y-224676904D01*
X320283333Y-224676904D02*
X320330952Y-224819761D01*
X320330952Y-224819761D02*
X320426190Y-224915000D01*
X320426190Y-224915000D02*
X320569047Y-224962619D01*
X320569047Y-224962619D02*
X320664285Y-224962619D01*
X319854761Y-224057857D02*
X319807142Y-224010238D01*
X319807142Y-224010238D02*
X319711904Y-223962619D01*
X319711904Y-223962619D02*
X319473809Y-223962619D01*
X319473809Y-223962619D02*
X319378571Y-224010238D01*
X319378571Y-224010238D02*
X319330952Y-224057857D01*
X319330952Y-224057857D02*
X319283333Y-224153095D01*
X319283333Y-224153095D02*
X319283333Y-224248333D01*
X319283333Y-224248333D02*
X319330952Y-224391190D01*
X319330952Y-224391190D02*
X319902380Y-224962619D01*
X319902380Y-224962619D02*
X319283333Y-224962619D01*
%TO.C,D4*%
X460907972Y-249721019D02*
X461384162Y-249721019D01*
X461384162Y-249721019D02*
X461384162Y-248721019D01*
X460574638Y-249197209D02*
X460241305Y-249197209D01*
X460098448Y-249721019D02*
X460574638Y-249721019D01*
X460574638Y-249721019D02*
X460574638Y-248721019D01*
X460574638Y-248721019D02*
X460098448Y-248721019D01*
X459669876Y-249721019D02*
X459669876Y-248721019D01*
X459669876Y-248721019D02*
X459431781Y-248721019D01*
X459431781Y-248721019D02*
X459288924Y-248768638D01*
X459288924Y-248768638D02*
X459193686Y-248863876D01*
X459193686Y-248863876D02*
X459146067Y-248959114D01*
X459146067Y-248959114D02*
X459098448Y-249149590D01*
X459098448Y-249149590D02*
X459098448Y-249292447D01*
X459098448Y-249292447D02*
X459146067Y-249482923D01*
X459146067Y-249482923D02*
X459193686Y-249578161D01*
X459193686Y-249578161D02*
X459288924Y-249673400D01*
X459288924Y-249673400D02*
X459431781Y-249721019D01*
X459431781Y-249721019D02*
X459669876Y-249721019D01*
X458907972Y-249816257D02*
X458146067Y-249816257D01*
X457907971Y-249721019D02*
X457907971Y-248721019D01*
X457907971Y-248721019D02*
X457669876Y-248721019D01*
X457669876Y-248721019D02*
X457527019Y-248768638D01*
X457527019Y-248768638D02*
X457431781Y-248863876D01*
X457431781Y-248863876D02*
X457384162Y-248959114D01*
X457384162Y-248959114D02*
X457336543Y-249149590D01*
X457336543Y-249149590D02*
X457336543Y-249292447D01*
X457336543Y-249292447D02*
X457384162Y-249482923D01*
X457384162Y-249482923D02*
X457431781Y-249578161D01*
X457431781Y-249578161D02*
X457527019Y-249673400D01*
X457527019Y-249673400D02*
X457669876Y-249721019D01*
X457669876Y-249721019D02*
X457907971Y-249721019D01*
X456479400Y-249054352D02*
X456479400Y-249721019D01*
X456907971Y-249054352D02*
X456907971Y-249578161D01*
X456907971Y-249578161D02*
X456860352Y-249673400D01*
X456860352Y-249673400D02*
X456765114Y-249721019D01*
X456765114Y-249721019D02*
X456622257Y-249721019D01*
X456622257Y-249721019D02*
X456527019Y-249673400D01*
X456527019Y-249673400D02*
X456479400Y-249625780D01*
X455574638Y-249721019D02*
X455574638Y-249197209D01*
X455574638Y-249197209D02*
X455622257Y-249101971D01*
X455622257Y-249101971D02*
X455717495Y-249054352D01*
X455717495Y-249054352D02*
X455907971Y-249054352D01*
X455907971Y-249054352D02*
X456003209Y-249101971D01*
X455574638Y-249673400D02*
X455669876Y-249721019D01*
X455669876Y-249721019D02*
X455907971Y-249721019D01*
X455907971Y-249721019D02*
X456003209Y-249673400D01*
X456003209Y-249673400D02*
X456050828Y-249578161D01*
X456050828Y-249578161D02*
X456050828Y-249482923D01*
X456050828Y-249482923D02*
X456003209Y-249387685D01*
X456003209Y-249387685D02*
X455907971Y-249340066D01*
X455907971Y-249340066D02*
X455669876Y-249340066D01*
X455669876Y-249340066D02*
X455574638Y-249292447D01*
X454955590Y-249721019D02*
X455050828Y-249673400D01*
X455050828Y-249673400D02*
X455098447Y-249578161D01*
X455098447Y-249578161D02*
X455098447Y-248721019D01*
X454812733Y-249816257D02*
X454050828Y-249816257D01*
X453860351Y-249435304D02*
X453384161Y-249435304D01*
X453955589Y-249721019D02*
X453622256Y-248721019D01*
X453622256Y-248721019D02*
X453288923Y-249721019D01*
X452384161Y-249625780D02*
X452431780Y-249673400D01*
X452431780Y-249673400D02*
X452574637Y-249721019D01*
X452574637Y-249721019D02*
X452669875Y-249721019D01*
X452669875Y-249721019D02*
X452812732Y-249673400D01*
X452812732Y-249673400D02*
X452907970Y-249578161D01*
X452907970Y-249578161D02*
X452955589Y-249482923D01*
X452955589Y-249482923D02*
X453003208Y-249292447D01*
X453003208Y-249292447D02*
X453003208Y-249149590D01*
X453003208Y-249149590D02*
X452955589Y-248959114D01*
X452955589Y-248959114D02*
X452907970Y-248863876D01*
X452907970Y-248863876D02*
X452812732Y-248768638D01*
X452812732Y-248768638D02*
X452669875Y-248721019D01*
X452669875Y-248721019D02*
X452574637Y-248721019D01*
X452574637Y-248721019D02*
X452431780Y-248768638D01*
X452431780Y-248768638D02*
X452384161Y-248816257D01*
X452003208Y-249435304D02*
X451527018Y-249435304D01*
X452098446Y-249721019D02*
X451765113Y-248721019D01*
X451765113Y-248721019D02*
X451431780Y-249721019D01*
X450527018Y-249625780D02*
X450574637Y-249673400D01*
X450574637Y-249673400D02*
X450717494Y-249721019D01*
X450717494Y-249721019D02*
X450812732Y-249721019D01*
X450812732Y-249721019D02*
X450955589Y-249673400D01*
X450955589Y-249673400D02*
X451050827Y-249578161D01*
X451050827Y-249578161D02*
X451098446Y-249482923D01*
X451098446Y-249482923D02*
X451146065Y-249292447D01*
X451146065Y-249292447D02*
X451146065Y-249149590D01*
X451146065Y-249149590D02*
X451098446Y-248959114D01*
X451098446Y-248959114D02*
X451050827Y-248863876D01*
X451050827Y-248863876D02*
X450955589Y-248768638D01*
X450955589Y-248768638D02*
X450812732Y-248721019D01*
X450812732Y-248721019D02*
X450717494Y-248721019D01*
X450717494Y-248721019D02*
X450574637Y-248768638D01*
X450574637Y-248768638D02*
X450527018Y-248816257D01*
%TO.C,D3*%
X460879812Y-241783519D02*
X461356002Y-241783519D01*
X461356002Y-241783519D02*
X461356002Y-240783519D01*
X460546478Y-241259709D02*
X460213145Y-241259709D01*
X460070288Y-241783519D02*
X460546478Y-241783519D01*
X460546478Y-241783519D02*
X460546478Y-240783519D01*
X460546478Y-240783519D02*
X460070288Y-240783519D01*
X459641716Y-241783519D02*
X459641716Y-240783519D01*
X459641716Y-240783519D02*
X459403621Y-240783519D01*
X459403621Y-240783519D02*
X459260764Y-240831138D01*
X459260764Y-240831138D02*
X459165526Y-240926376D01*
X459165526Y-240926376D02*
X459117907Y-241021614D01*
X459117907Y-241021614D02*
X459070288Y-241212090D01*
X459070288Y-241212090D02*
X459070288Y-241354947D01*
X459070288Y-241354947D02*
X459117907Y-241545423D01*
X459117907Y-241545423D02*
X459165526Y-241640661D01*
X459165526Y-241640661D02*
X459260764Y-241735900D01*
X459260764Y-241735900D02*
X459403621Y-241783519D01*
X459403621Y-241783519D02*
X459641716Y-241783519D01*
X458879812Y-241878757D02*
X458117907Y-241878757D01*
X457879811Y-241783519D02*
X457879811Y-240783519D01*
X457879811Y-240783519D02*
X457641716Y-240783519D01*
X457641716Y-240783519D02*
X457498859Y-240831138D01*
X457498859Y-240831138D02*
X457403621Y-240926376D01*
X457403621Y-240926376D02*
X457356002Y-241021614D01*
X457356002Y-241021614D02*
X457308383Y-241212090D01*
X457308383Y-241212090D02*
X457308383Y-241354947D01*
X457308383Y-241354947D02*
X457356002Y-241545423D01*
X457356002Y-241545423D02*
X457403621Y-241640661D01*
X457403621Y-241640661D02*
X457498859Y-241735900D01*
X457498859Y-241735900D02*
X457641716Y-241783519D01*
X457641716Y-241783519D02*
X457879811Y-241783519D01*
X456451240Y-241116852D02*
X456451240Y-241783519D01*
X456879811Y-241116852D02*
X456879811Y-241640661D01*
X456879811Y-241640661D02*
X456832192Y-241735900D01*
X456832192Y-241735900D02*
X456736954Y-241783519D01*
X456736954Y-241783519D02*
X456594097Y-241783519D01*
X456594097Y-241783519D02*
X456498859Y-241735900D01*
X456498859Y-241735900D02*
X456451240Y-241688280D01*
X455546478Y-241783519D02*
X455546478Y-241259709D01*
X455546478Y-241259709D02*
X455594097Y-241164471D01*
X455594097Y-241164471D02*
X455689335Y-241116852D01*
X455689335Y-241116852D02*
X455879811Y-241116852D01*
X455879811Y-241116852D02*
X455975049Y-241164471D01*
X455546478Y-241735900D02*
X455641716Y-241783519D01*
X455641716Y-241783519D02*
X455879811Y-241783519D01*
X455879811Y-241783519D02*
X455975049Y-241735900D01*
X455975049Y-241735900D02*
X456022668Y-241640661D01*
X456022668Y-241640661D02*
X456022668Y-241545423D01*
X456022668Y-241545423D02*
X455975049Y-241450185D01*
X455975049Y-241450185D02*
X455879811Y-241402566D01*
X455879811Y-241402566D02*
X455641716Y-241402566D01*
X455641716Y-241402566D02*
X455546478Y-241354947D01*
X454927430Y-241783519D02*
X455022668Y-241735900D01*
X455022668Y-241735900D02*
X455070287Y-241640661D01*
X455070287Y-241640661D02*
X455070287Y-240783519D01*
X454784573Y-241878757D02*
X454022668Y-241878757D01*
X453832191Y-241497804D02*
X453356001Y-241497804D01*
X453927429Y-241783519D02*
X453594096Y-240783519D01*
X453594096Y-240783519D02*
X453260763Y-241783519D01*
X452356001Y-241688280D02*
X452403620Y-241735900D01*
X452403620Y-241735900D02*
X452546477Y-241783519D01*
X452546477Y-241783519D02*
X452641715Y-241783519D01*
X452641715Y-241783519D02*
X452784572Y-241735900D01*
X452784572Y-241735900D02*
X452879810Y-241640661D01*
X452879810Y-241640661D02*
X452927429Y-241545423D01*
X452927429Y-241545423D02*
X452975048Y-241354947D01*
X452975048Y-241354947D02*
X452975048Y-241212090D01*
X452975048Y-241212090D02*
X452927429Y-241021614D01*
X452927429Y-241021614D02*
X452879810Y-240926376D01*
X452879810Y-240926376D02*
X452784572Y-240831138D01*
X452784572Y-240831138D02*
X452641715Y-240783519D01*
X452641715Y-240783519D02*
X452546477Y-240783519D01*
X452546477Y-240783519D02*
X452403620Y-240831138D01*
X452403620Y-240831138D02*
X452356001Y-240878757D01*
X451975048Y-241497804D02*
X451498858Y-241497804D01*
X452070286Y-241783519D02*
X451736953Y-240783519D01*
X451736953Y-240783519D02*
X451403620Y-241783519D01*
X450498858Y-241688280D02*
X450546477Y-241735900D01*
X450546477Y-241735900D02*
X450689334Y-241783519D01*
X450689334Y-241783519D02*
X450784572Y-241783519D01*
X450784572Y-241783519D02*
X450927429Y-241735900D01*
X450927429Y-241735900D02*
X451022667Y-241640661D01*
X451022667Y-241640661D02*
X451070286Y-241545423D01*
X451070286Y-241545423D02*
X451117905Y-241354947D01*
X451117905Y-241354947D02*
X451117905Y-241212090D01*
X451117905Y-241212090D02*
X451070286Y-241021614D01*
X451070286Y-241021614D02*
X451022667Y-240926376D01*
X451022667Y-240926376D02*
X450927429Y-240831138D01*
X450927429Y-240831138D02*
X450784572Y-240783519D01*
X450784572Y-240783519D02*
X450689334Y-240783519D01*
X450689334Y-240783519D02*
X450546477Y-240831138D01*
X450546477Y-240831138D02*
X450498858Y-240878757D01*
D11*
%TO.C,J2*%
X318850000Y-227510000D02*
X318850000Y-227300000D01*
X318450000Y-227510000D02*
X318450000Y-227300000D01*
X318450000Y-227510000D02*
X318850000Y-227510000D01*
X318850000Y-227300000D02*
X318650000Y-227100000D01*
X318650000Y-227100000D02*
X318450000Y-227300000D01*
X316200000Y-222000000D02*
X316200000Y-227000000D01*
X316200000Y-227000000D02*
X323700000Y-227000000D01*
X316200000Y-221998296D02*
X323700000Y-221998296D01*
X316950000Y-222698296D02*
X322950000Y-222698296D01*
X323700000Y-222000000D02*
X323700000Y-227000000D01*
%TO.C,D4*%
X451219400Y-251358400D02*
X451219400Y-251358400D01*
%TO.C,D3*%
X451191240Y-243420900D02*
X451191240Y-243420900D01*
%TD*%
M02*
