%TF.GenerationSoftware,KiCad,Pcbnew,(5.1.6-0)*%
%TF.CreationDate,2022-03-16T08:36:45+01:00*%
%TF.ProjectId,A500KBPlate,41353030-4b42-4506-9c61-74652e6b6963,rev?*%
%TF.SameCoordinates,Original*%
%TF.FileFunction,Legend,Top*%
%TF.FilePolarity,Positive*%
%FSLAX46Y46*%
G04 Gerber Fmt 4.6, Leading zero omitted, Abs format (unit mm)*
G04 Created by KiCad (PCBNEW (5.1.6-0)) date 2022-03-16 08:36:45*
%MOMM*%
%LPD*%
G01*
G04 APERTURE LIST*
%TA.AperFunction,Profile*%
%ADD10C,0.050000*%
%TD*%
%TA.AperFunction,Profile*%
%ADD11C,0.120000*%
%TD*%
%ADD12C,0.120000*%
%ADD13C,0.150000*%
G04 APERTURE END LIST*
D10*
X25400000Y-236220000D02*
X26035000Y-236220000D01*
X25400000Y-360680000D02*
X25400000Y-236220000D01*
X473710000Y-360680000D02*
X25400000Y-360680000D01*
X473710000Y-264795000D02*
X473710000Y-360680000D01*
X302895000Y-264795000D02*
X473710000Y-264795000D01*
X302895000Y-236220000D02*
X302895000Y-264795000D01*
X26035000Y-236220000D02*
X302895000Y-236220000D01*
D11*
%TO.C,MX71*%
X302402400Y-296247600D02*
X316502400Y-296247600D01*
X316502400Y-296247600D02*
X316502400Y-310347600D01*
X316502400Y-310347600D02*
X302402400Y-310347600D01*
X302402400Y-310347600D02*
X302402400Y-296247600D01*
X301952400Y-316297600D02*
X301952400Y-313097600D01*
X316952400Y-316297600D02*
X301952400Y-316297600D01*
X316952400Y-313097600D02*
X316952400Y-316297600D01*
X301952400Y-313097600D02*
X316952400Y-313097600D01*
X316952400Y-293497600D02*
X301952400Y-293497600D01*
X316952400Y-290297600D02*
X316952400Y-293497600D01*
X301952400Y-290297600D02*
X316952400Y-290297600D01*
X301952400Y-293497600D02*
X301952400Y-290297600D01*
D12*
%TO.C,D15*%
X328914000Y-329618000D02*
X328914000Y-334618000D01*
X324614000Y-335718000D02*
X323514000Y-335718000D01*
X323514000Y-335718000D02*
X323514000Y-329618000D01*
%TO.C,D14*%
X357024000Y-348152000D02*
X362024000Y-348152000D01*
X363124000Y-352452000D02*
X363124000Y-353552000D01*
X363124000Y-353552000D02*
X357024000Y-353552000D01*
%TO.C,D13*%
X389808000Y-334478000D02*
X389808000Y-329478000D01*
X394108000Y-328378000D02*
X395208000Y-328378000D01*
X395208000Y-328378000D02*
X395208000Y-334478000D01*
%TO.C,J1*%
X297942000Y-254508000D02*
X299212000Y-254508000D01*
X297942000Y-255778000D02*
X297942000Y-254508000D01*
X300254929Y-263778000D02*
X300652000Y-263778000D01*
X300254929Y-263018000D02*
X300652000Y-263018000D01*
X309312000Y-263778000D02*
X303312000Y-263778000D01*
X309312000Y-263018000D02*
X309312000Y-263778000D01*
X303312000Y-263018000D02*
X309312000Y-263018000D01*
X300652000Y-262128000D02*
X303312000Y-262128000D01*
X300254929Y-261238000D02*
X300652000Y-261238000D01*
X300254929Y-260478000D02*
X300652000Y-260478000D01*
X309312000Y-261238000D02*
X303312000Y-261238000D01*
X309312000Y-260478000D02*
X309312000Y-261238000D01*
X303312000Y-260478000D02*
X309312000Y-260478000D01*
X300652000Y-259588000D02*
X303312000Y-259588000D01*
X300254929Y-258698000D02*
X300652000Y-258698000D01*
X300254929Y-257938000D02*
X300652000Y-257938000D01*
X309312000Y-258698000D02*
X303312000Y-258698000D01*
X309312000Y-257938000D02*
X309312000Y-258698000D01*
X303312000Y-257938000D02*
X309312000Y-257938000D01*
X300652000Y-257048000D02*
X303312000Y-257048000D01*
X300322000Y-256158000D02*
X300652000Y-256158000D01*
X300322000Y-255398000D02*
X300652000Y-255398000D01*
X303312000Y-256058000D02*
X309312000Y-256058000D01*
X303312000Y-255938000D02*
X309312000Y-255938000D01*
X303312000Y-255818000D02*
X309312000Y-255818000D01*
X303312000Y-255698000D02*
X309312000Y-255698000D01*
X303312000Y-255578000D02*
X309312000Y-255578000D01*
X303312000Y-255458000D02*
X309312000Y-255458000D01*
X309312000Y-256158000D02*
X303312000Y-256158000D01*
X309312000Y-255398000D02*
X309312000Y-256158000D01*
X303312000Y-255398000D02*
X309312000Y-255398000D01*
X303312000Y-254448000D02*
X300652000Y-254448000D01*
X303312000Y-264728000D02*
X303312000Y-254448000D01*
X300652000Y-264728000D02*
X303312000Y-264728000D01*
X300652000Y-254448000D02*
X300652000Y-264728000D01*
%TO.C,D12*%
X382100000Y-294850000D02*
X382100000Y-289850000D01*
X386400000Y-288750000D02*
X387500000Y-288750000D01*
X387500000Y-288750000D02*
X387500000Y-294850000D01*
%TO.C,D11*%
X361910000Y-294800000D02*
X356910000Y-294800000D01*
X355810000Y-290500000D02*
X355810000Y-289400000D01*
X355810000Y-289400000D02*
X361910000Y-289400000D01*
%TO.C,D10*%
X323260000Y-294460000D02*
X323260000Y-289460000D01*
X327560000Y-288360000D02*
X328660000Y-288360000D01*
X328660000Y-288360000D02*
X328660000Y-294460000D01*
%TO.C,D9*%
X323260000Y-272870000D02*
X323260000Y-267870000D01*
X327560000Y-266770000D02*
X328660000Y-266770000D01*
X328660000Y-266770000D02*
X328660000Y-272870000D01*
%TO.C,D8*%
X33200000Y-257220000D02*
X38200000Y-257220000D01*
X39300000Y-261520000D02*
X39300000Y-262620000D01*
X39300000Y-262620000D02*
X33200000Y-262620000D01*
%TO.C,D7*%
X69890000Y-257220000D02*
X74890000Y-257220000D01*
X75990000Y-261520000D02*
X75990000Y-262620000D01*
X75990000Y-262620000D02*
X69890000Y-262620000D01*
%TO.C,D6*%
X103050000Y-257220000D02*
X108050000Y-257220000D01*
X109150000Y-261520000D02*
X109150000Y-262620000D01*
X109150000Y-262620000D02*
X103050000Y-262620000D01*
%TO.C,D5*%
X141150000Y-257446800D02*
X146150000Y-257446800D01*
X147250000Y-261746800D02*
X147250000Y-262846800D01*
X147250000Y-262846800D02*
X141150000Y-262846800D01*
%TO.C,D4*%
X176570000Y-257372400D02*
X181570000Y-257372400D01*
X182670000Y-261672400D02*
X182670000Y-262772400D01*
X182670000Y-262772400D02*
X176570000Y-262772400D01*
%TO.C,D3*%
X211990000Y-257419600D02*
X216990000Y-257419600D01*
X218090000Y-261719600D02*
X218090000Y-262819600D01*
X218090000Y-262819600D02*
X211990000Y-262819600D01*
%TO.C,D2*%
X246420000Y-257423200D02*
X251420000Y-257423200D01*
X252520000Y-261723200D02*
X252520000Y-262823200D01*
X252520000Y-262823200D02*
X246420000Y-262823200D01*
%TO.C,D1*%
X275896400Y-257419600D02*
X280896400Y-257419600D01*
X281996400Y-261719600D02*
X281996400Y-262819600D01*
X281996400Y-262819600D02*
X275896400Y-262819600D01*
D11*
%TO.C,MX33*%
X232209000Y-357951800D02*
X232209000Y-343951800D01*
X240009000Y-357951800D02*
X232209000Y-357951800D01*
X240009000Y-343951800D02*
X240009000Y-357951800D01*
X232209000Y-343951800D02*
X240009000Y-343951800D01*
X115009000Y-357951800D02*
X115009000Y-343951800D01*
X107209000Y-357951800D02*
X115009000Y-357951800D01*
X107209000Y-343951800D02*
X107209000Y-357951800D01*
X115009000Y-343951800D02*
X107209000Y-343951800D01*
X166559000Y-343901800D02*
X180659000Y-343901800D01*
X180659000Y-343901800D02*
X180659000Y-358001800D01*
X180659000Y-358001800D02*
X166559000Y-358001800D01*
X166559000Y-358001800D02*
X166559000Y-343901800D01*
%TO.C,MX68*%
X287945600Y-324826400D02*
X302045600Y-324826400D01*
X302045600Y-324826400D02*
X302045600Y-338926400D01*
X302045600Y-338926400D02*
X287945600Y-338926400D01*
X287945600Y-338926400D02*
X287945600Y-324826400D01*
X285195600Y-339376400D02*
X285195600Y-324376400D01*
X281995600Y-339376400D02*
X285195600Y-339376400D01*
X281995600Y-324376400D02*
X281995600Y-339376400D01*
X285195600Y-324376400D02*
X281995600Y-324376400D01*
X304795600Y-339376400D02*
X304795600Y-324376400D01*
X307995600Y-339376400D02*
X304795600Y-339376400D01*
X307995600Y-324376400D02*
X307995600Y-339376400D01*
X304795600Y-324376400D02*
X307995600Y-324376400D01*
%TO.C,MX5*%
X32770400Y-339376400D02*
X32770400Y-324376400D01*
X29570400Y-339376400D02*
X32770400Y-339376400D01*
X29570400Y-324376400D02*
X29570400Y-339376400D01*
X32770400Y-324376400D02*
X29570400Y-324376400D01*
X52370400Y-339376400D02*
X52370400Y-324376400D01*
X55570400Y-339376400D02*
X52370400Y-339376400D01*
X55570400Y-324376400D02*
X55570400Y-339376400D01*
X52370400Y-324376400D02*
X55570400Y-324376400D01*
X35520400Y-324826400D02*
X49620400Y-324826400D01*
X49620400Y-324826400D02*
X49620400Y-338926400D01*
X49620400Y-338926400D02*
X35520400Y-338926400D01*
X35520400Y-338926400D02*
X35520400Y-324826400D01*
%TO.C,MX77*%
X366664400Y-267698000D02*
X380764400Y-267698000D01*
X380764400Y-267698000D02*
X380764400Y-281798000D01*
X380764400Y-281798000D02*
X366664400Y-281798000D01*
X366664400Y-281798000D02*
X366664400Y-267698000D01*
%TO.C,MX73*%
X338064000Y-267698000D02*
X352164000Y-267698000D01*
X352164000Y-267698000D02*
X352164000Y-281798000D01*
X352164000Y-281798000D02*
X338064000Y-281798000D01*
X338064000Y-281798000D02*
X338064000Y-267698000D01*
%TO.C,MX2*%
X33183600Y-267651000D02*
X47283600Y-267651000D01*
X47283600Y-267651000D02*
X47283600Y-281751000D01*
X47283600Y-281751000D02*
X33183600Y-281751000D01*
X33183600Y-281751000D02*
X33183600Y-267651000D01*
%TO.C,MX3*%
X35177050Y-301251000D02*
X35177050Y-286251000D01*
X31977050Y-301251000D02*
X35177050Y-301251000D01*
X31977050Y-286251000D02*
X31977050Y-301251000D01*
X35177050Y-286251000D02*
X31977050Y-286251000D01*
X54777050Y-301251000D02*
X54777050Y-286251000D01*
X57977050Y-301251000D02*
X54777050Y-301251000D01*
X57977050Y-286251000D02*
X57977050Y-301251000D01*
X54777050Y-286251000D02*
X57977050Y-286251000D01*
X37927050Y-286701000D02*
X52027050Y-286701000D01*
X52027050Y-286701000D02*
X52027050Y-300801000D01*
X52027050Y-300801000D02*
X37927050Y-300801000D01*
X37927050Y-300801000D02*
X37927050Y-286701000D01*
%TO.C,MX64*%
X288127600Y-343898000D02*
X302227600Y-343898000D01*
X302227600Y-343898000D02*
X302227600Y-357998000D01*
X302227600Y-357998000D02*
X288127600Y-357998000D01*
X288127600Y-357998000D02*
X288127600Y-343898000D01*
%TO.C,MX59*%
X264251600Y-343898000D02*
X278351600Y-343898000D01*
X278351600Y-343898000D02*
X278351600Y-357998000D01*
X278351600Y-357998000D02*
X264251600Y-357998000D01*
X264251600Y-357998000D02*
X264251600Y-343898000D01*
%TO.C,MX54*%
X283272000Y-239177600D02*
X297372000Y-239177600D01*
X297372000Y-239177600D02*
X297372000Y-253277600D01*
X297372000Y-253277600D02*
X283272000Y-253277600D01*
X283272000Y-253277600D02*
X283272000Y-239177600D01*
%TO.C,MX49*%
X259468000Y-239199200D02*
X273568000Y-239199200D01*
X273568000Y-239199200D02*
X273568000Y-253299200D01*
X273568000Y-253299200D02*
X259468000Y-253299200D01*
X259468000Y-253299200D02*
X259468000Y-239199200D01*
%TO.C,MX44*%
X235621600Y-239177600D02*
X249721600Y-239177600D01*
X249721600Y-239177600D02*
X249721600Y-253277600D01*
X249721600Y-253277600D02*
X235621600Y-253277600D01*
X235621600Y-253277600D02*
X235621600Y-239177600D01*
%TO.C,MX39*%
X211796400Y-239177600D02*
X225896400Y-239177600D01*
X225896400Y-239177600D02*
X225896400Y-253277600D01*
X225896400Y-253277600D02*
X211796400Y-253277600D01*
X211796400Y-253277600D02*
X211796400Y-239177600D01*
%TO.C,MX34*%
X187971200Y-239177600D02*
X202071200Y-239177600D01*
X202071200Y-239177600D02*
X202071200Y-253277600D01*
X202071200Y-253277600D02*
X187971200Y-253277600D01*
X187971200Y-253277600D02*
X187971200Y-239177600D01*
%TO.C,MX28*%
X154697200Y-239177600D02*
X168797200Y-239177600D01*
X168797200Y-239177600D02*
X168797200Y-253277600D01*
X168797200Y-253277600D02*
X154697200Y-253277600D01*
X154697200Y-253277600D02*
X154697200Y-239177600D01*
%TO.C,MX23*%
X130872000Y-239177600D02*
X144972000Y-239177600D01*
X144972000Y-239177600D02*
X144972000Y-253277600D01*
X144972000Y-253277600D02*
X130872000Y-253277600D01*
X130872000Y-253277600D02*
X130872000Y-239177600D01*
%TO.C,MX18*%
X107046800Y-239177600D02*
X121146800Y-239177600D01*
X121146800Y-239177600D02*
X121146800Y-253277600D01*
X121146800Y-253277600D02*
X107046800Y-253277600D01*
X107046800Y-253277600D02*
X107046800Y-239177600D01*
%TO.C,MX13*%
X83221600Y-239177600D02*
X97321600Y-239177600D01*
X97321600Y-239177600D02*
X97321600Y-253277600D01*
X97321600Y-253277600D02*
X83221600Y-253277600D01*
X83221600Y-253277600D02*
X83221600Y-239177600D01*
%TO.C,MX12*%
X68845200Y-343927200D02*
X82945200Y-343927200D01*
X82945200Y-343927200D02*
X82945200Y-358027200D01*
X82945200Y-358027200D02*
X68845200Y-358027200D01*
X68845200Y-358027200D02*
X68845200Y-343927200D01*
%TO.C,MX7*%
X59447200Y-239177600D02*
X73547200Y-239177600D01*
X73547200Y-239177600D02*
X73547200Y-253277600D01*
X73547200Y-253277600D02*
X59447200Y-253277600D01*
X59447200Y-253277600D02*
X59447200Y-239177600D01*
%TO.C,MX6*%
X45041200Y-343948800D02*
X59141200Y-343948800D01*
X59141200Y-343948800D02*
X59141200Y-358048800D01*
X59141200Y-358048800D02*
X45041200Y-358048800D01*
X45041200Y-358048800D02*
X45041200Y-343948800D01*
%TO.C,MX4*%
X30774800Y-305747200D02*
X44874800Y-305747200D01*
X44874800Y-305747200D02*
X44874800Y-319847200D01*
X44874800Y-319847200D02*
X30774800Y-319847200D01*
X30774800Y-319847200D02*
X30774800Y-305747200D01*
%TO.C,MX83*%
X406474250Y-358451800D02*
X406474250Y-343451800D01*
X403274250Y-358451800D02*
X406474250Y-358451800D01*
X403274250Y-343451800D02*
X403274250Y-358451800D01*
X406474250Y-343451800D02*
X403274250Y-343451800D01*
X426074250Y-358451800D02*
X426074250Y-343451800D01*
X429274250Y-358451800D02*
X426074250Y-358451800D01*
X429274250Y-343451800D02*
X429274250Y-358451800D01*
X426074250Y-343451800D02*
X429274250Y-343451800D01*
X409224250Y-343901800D02*
X423324250Y-343901800D01*
X423324250Y-343901800D02*
X423324250Y-358001800D01*
X423324250Y-358001800D02*
X409224250Y-358001800D01*
X409224250Y-358001800D02*
X409224250Y-343901800D01*
%TO.C,MX96*%
X456481800Y-354426800D02*
X456481800Y-351226800D01*
X471481800Y-354426800D02*
X456481800Y-354426800D01*
X471481800Y-351226800D02*
X471481800Y-354426800D01*
X456481800Y-351226800D02*
X471481800Y-351226800D01*
X471481800Y-331626800D02*
X456481800Y-331626800D01*
X471481800Y-328426800D02*
X471481800Y-331626800D01*
X456481800Y-328426800D02*
X471481800Y-328426800D01*
X456481800Y-331626800D02*
X456481800Y-328426800D01*
X456931800Y-334376800D02*
X471031800Y-334376800D01*
X471031800Y-334376800D02*
X471031800Y-348476800D01*
X471031800Y-348476800D02*
X456931800Y-348476800D01*
X456931800Y-348476800D02*
X456931800Y-334376800D01*
%TO.C,MX95*%
X456957200Y-305776400D02*
X471057200Y-305776400D01*
X471057200Y-305776400D02*
X471057200Y-319876400D01*
X471057200Y-319876400D02*
X456957200Y-319876400D01*
X456957200Y-319876400D02*
X456957200Y-305776400D01*
%TO.C,MX94*%
X456957200Y-286726400D02*
X471057200Y-286726400D01*
X471057200Y-286726400D02*
X471057200Y-300826400D01*
X471057200Y-300826400D02*
X456957200Y-300826400D01*
X456957200Y-300826400D02*
X456957200Y-286726400D01*
%TO.C,MX93*%
X456957200Y-267778000D02*
X471057200Y-267778000D01*
X471057200Y-267778000D02*
X471057200Y-281878000D01*
X471057200Y-281878000D02*
X456957200Y-281878000D01*
X456957200Y-281878000D02*
X456957200Y-267778000D01*
%TO.C,MX92*%
X437784400Y-343898000D02*
X451884400Y-343898000D01*
X451884400Y-343898000D02*
X451884400Y-357998000D01*
X451884400Y-357998000D02*
X437784400Y-357998000D01*
X437784400Y-357998000D02*
X437784400Y-343898000D01*
%TO.C,MX91*%
X437805600Y-324826400D02*
X451905600Y-324826400D01*
X451905600Y-324826400D02*
X451905600Y-338926400D01*
X451905600Y-338926400D02*
X437805600Y-338926400D01*
X437805600Y-338926400D02*
X437805600Y-324826400D01*
%TO.C,MX90*%
X437805600Y-305827200D02*
X451905600Y-305827200D01*
X451905600Y-305827200D02*
X451905600Y-319927200D01*
X451905600Y-319927200D02*
X437805600Y-319927200D01*
X437805600Y-319927200D02*
X437805600Y-305827200D01*
%TO.C,MX89*%
X437754800Y-286777200D02*
X451854800Y-286777200D01*
X451854800Y-286777200D02*
X451854800Y-300877200D01*
X451854800Y-300877200D02*
X437754800Y-300877200D01*
X437754800Y-300877200D02*
X437754800Y-286777200D01*
%TO.C,MX88*%
X437856400Y-267778000D02*
X451956400Y-267778000D01*
X451956400Y-267778000D02*
X451956400Y-281878000D01*
X451956400Y-281878000D02*
X437856400Y-281878000D01*
X437856400Y-281878000D02*
X437856400Y-267778000D01*
%TO.C,MX87*%
X418734400Y-324848000D02*
X432834400Y-324848000D01*
X432834400Y-324848000D02*
X432834400Y-338948000D01*
X432834400Y-338948000D02*
X418734400Y-338948000D01*
X418734400Y-338948000D02*
X418734400Y-324848000D01*
%TO.C,MX86*%
X418704800Y-305827200D02*
X432804800Y-305827200D01*
X432804800Y-305827200D02*
X432804800Y-319927200D01*
X432804800Y-319927200D02*
X418704800Y-319927200D01*
X418704800Y-319927200D02*
X418704800Y-305827200D01*
%TO.C,MX85*%
X418704800Y-286777200D02*
X432804800Y-286777200D01*
X432804800Y-286777200D02*
X432804800Y-300877200D01*
X432804800Y-300877200D02*
X418704800Y-300877200D01*
X418704800Y-300877200D02*
X418704800Y-286777200D01*
%TO.C,MX84*%
X418755600Y-267778000D02*
X432855600Y-267778000D01*
X432855600Y-267778000D02*
X432855600Y-281878000D01*
X432855600Y-281878000D02*
X418755600Y-281878000D01*
X418755600Y-281878000D02*
X418755600Y-267778000D01*
%TO.C,MX82*%
X399684400Y-324848000D02*
X413784400Y-324848000D01*
X413784400Y-324848000D02*
X413784400Y-338948000D01*
X413784400Y-338948000D02*
X399684400Y-338948000D01*
X399684400Y-338948000D02*
X399684400Y-324848000D01*
%TO.C,MX81*%
X399654800Y-305827200D02*
X413754800Y-305827200D01*
X413754800Y-305827200D02*
X413754800Y-319927200D01*
X413754800Y-319927200D02*
X399654800Y-319927200D01*
X399654800Y-319927200D02*
X399654800Y-305827200D01*
%TO.C,MX80*%
X399654800Y-286777200D02*
X413754800Y-286777200D01*
X413754800Y-286777200D02*
X413754800Y-300877200D01*
X413754800Y-300877200D02*
X399654800Y-300877200D01*
X399654800Y-300877200D02*
X399654800Y-286777200D01*
%TO.C,MX79*%
X399654800Y-267727200D02*
X413754800Y-267727200D01*
X413754800Y-267727200D02*
X413754800Y-281827200D01*
X413754800Y-281827200D02*
X399654800Y-281827200D01*
X399654800Y-281827200D02*
X399654800Y-267727200D01*
%TO.C,MX78*%
X371206800Y-324826400D02*
X385306800Y-324826400D01*
X385306800Y-324826400D02*
X385306800Y-338926400D01*
X385306800Y-338926400D02*
X371206800Y-338926400D01*
X371206800Y-338926400D02*
X371206800Y-324826400D01*
%TO.C,MX76*%
X352186400Y-324826400D02*
X366286400Y-324826400D01*
X366286400Y-324826400D02*
X366286400Y-338926400D01*
X366286400Y-338926400D02*
X352186400Y-338926400D01*
X352186400Y-338926400D02*
X352186400Y-324826400D01*
%TO.C,MX75*%
X352156800Y-305776400D02*
X366256800Y-305776400D01*
X366256800Y-305776400D02*
X366256800Y-319876400D01*
X366256800Y-319876400D02*
X352156800Y-319876400D01*
X352156800Y-319876400D02*
X352156800Y-305776400D01*
%TO.C,MX74*%
X333106800Y-324826400D02*
X347206800Y-324826400D01*
X347206800Y-324826400D02*
X347206800Y-338926400D01*
X347206800Y-338926400D02*
X333106800Y-338926400D01*
X333106800Y-338926400D02*
X333106800Y-324826400D01*
%TO.C,MX72*%
X304811200Y-267676400D02*
X318911200Y-267676400D01*
X318911200Y-267676400D02*
X318911200Y-281776400D01*
X318911200Y-281776400D02*
X304811200Y-281776400D01*
X304811200Y-281776400D02*
X304811200Y-267676400D01*
%TO.C,MX70*%
X280986000Y-305776400D02*
X295086000Y-305776400D01*
X295086000Y-305776400D02*
X295086000Y-319876400D01*
X295086000Y-319876400D02*
X280986000Y-319876400D01*
X280986000Y-319876400D02*
X280986000Y-305776400D01*
%TO.C,MX69*%
X285761200Y-267676400D02*
X299861200Y-267676400D01*
X299861200Y-267676400D02*
X299861200Y-281776400D01*
X299861200Y-281776400D02*
X285761200Y-281776400D01*
X285761200Y-281776400D02*
X285761200Y-267676400D01*
%TO.C,MX67*%
X261936000Y-305776400D02*
X276036000Y-305776400D01*
X276036000Y-305776400D02*
X276036000Y-319876400D01*
X276036000Y-319876400D02*
X261936000Y-319876400D01*
X261936000Y-319876400D02*
X261936000Y-305776400D01*
%TO.C,MX66*%
X276210800Y-286726400D02*
X290310800Y-286726400D01*
X290310800Y-286726400D02*
X290310800Y-300826400D01*
X290310800Y-300826400D02*
X276210800Y-300826400D01*
X276210800Y-300826400D02*
X276210800Y-286726400D01*
%TO.C,MX65*%
X266711200Y-267676400D02*
X280811200Y-267676400D01*
X280811200Y-267676400D02*
X280811200Y-281776400D01*
X280811200Y-281776400D02*
X266711200Y-281776400D01*
X266711200Y-281776400D02*
X266711200Y-267676400D01*
%TO.C,MX63*%
X252233200Y-324826400D02*
X266333200Y-324826400D01*
X266333200Y-324826400D02*
X266333200Y-338926400D01*
X266333200Y-338926400D02*
X252233200Y-338926400D01*
X252233200Y-338926400D02*
X252233200Y-324826400D01*
%TO.C,MX62*%
X242886000Y-305776400D02*
X256986000Y-305776400D01*
X256986000Y-305776400D02*
X256986000Y-319876400D01*
X256986000Y-319876400D02*
X242886000Y-319876400D01*
X242886000Y-319876400D02*
X242886000Y-305776400D01*
%TO.C,MX61*%
X257160800Y-286726400D02*
X271260800Y-286726400D01*
X271260800Y-286726400D02*
X271260800Y-300826400D01*
X271260800Y-300826400D02*
X257160800Y-300826400D01*
X257160800Y-300826400D02*
X257160800Y-286726400D01*
%TO.C,MX60*%
X247661200Y-267676400D02*
X261761200Y-267676400D01*
X261761200Y-267676400D02*
X261761200Y-281776400D01*
X261761200Y-281776400D02*
X247661200Y-281776400D01*
X247661200Y-281776400D02*
X247661200Y-267676400D01*
%TO.C,MX58*%
X233183200Y-324826400D02*
X247283200Y-324826400D01*
X247283200Y-324826400D02*
X247283200Y-338926400D01*
X247283200Y-338926400D02*
X233183200Y-338926400D01*
X233183200Y-338926400D02*
X233183200Y-324826400D01*
%TO.C,MX57*%
X223836000Y-305776400D02*
X237936000Y-305776400D01*
X237936000Y-305776400D02*
X237936000Y-319876400D01*
X237936000Y-319876400D02*
X223836000Y-319876400D01*
X223836000Y-319876400D02*
X223836000Y-305776400D01*
%TO.C,MX56*%
X238110800Y-286726400D02*
X252210800Y-286726400D01*
X252210800Y-286726400D02*
X252210800Y-300826400D01*
X252210800Y-300826400D02*
X238110800Y-300826400D01*
X238110800Y-300826400D02*
X238110800Y-286726400D01*
%TO.C,MX55*%
X228611200Y-267676400D02*
X242711200Y-267676400D01*
X242711200Y-267676400D02*
X242711200Y-281776400D01*
X242711200Y-281776400D02*
X228611200Y-281776400D01*
X228611200Y-281776400D02*
X228611200Y-267676400D01*
%TO.C,MX53*%
X214133200Y-324826400D02*
X228233200Y-324826400D01*
X228233200Y-324826400D02*
X228233200Y-338926400D01*
X228233200Y-338926400D02*
X214133200Y-338926400D01*
X214133200Y-338926400D02*
X214133200Y-324826400D01*
%TO.C,MX52*%
X204735200Y-305776400D02*
X218835200Y-305776400D01*
X218835200Y-305776400D02*
X218835200Y-319876400D01*
X218835200Y-319876400D02*
X204735200Y-319876400D01*
X204735200Y-319876400D02*
X204735200Y-305776400D01*
%TO.C,MX51*%
X219060800Y-286726400D02*
X233160800Y-286726400D01*
X233160800Y-286726400D02*
X233160800Y-300826400D01*
X233160800Y-300826400D02*
X219060800Y-300826400D01*
X219060800Y-300826400D02*
X219060800Y-286726400D01*
%TO.C,MX50*%
X209561200Y-267676400D02*
X223661200Y-267676400D01*
X223661200Y-267676400D02*
X223661200Y-281776400D01*
X223661200Y-281776400D02*
X209561200Y-281776400D01*
X209561200Y-281776400D02*
X209561200Y-267676400D01*
%TO.C,MX48*%
X195083200Y-324826400D02*
X209183200Y-324826400D01*
X209183200Y-324826400D02*
X209183200Y-338926400D01*
X209183200Y-338926400D02*
X195083200Y-338926400D01*
X195083200Y-338926400D02*
X195083200Y-324826400D01*
%TO.C,MX47*%
X185634400Y-305776400D02*
X199734400Y-305776400D01*
X199734400Y-305776400D02*
X199734400Y-319876400D01*
X199734400Y-319876400D02*
X185634400Y-319876400D01*
X185634400Y-319876400D02*
X185634400Y-305776400D01*
%TO.C,MX46*%
X199960000Y-286726400D02*
X214060000Y-286726400D01*
X214060000Y-286726400D02*
X214060000Y-300826400D01*
X214060000Y-300826400D02*
X199960000Y-300826400D01*
X199960000Y-300826400D02*
X199960000Y-286726400D01*
%TO.C,MX45*%
X190460400Y-267676400D02*
X204560400Y-267676400D01*
X204560400Y-267676400D02*
X204560400Y-281776400D01*
X204560400Y-281776400D02*
X190460400Y-281776400D01*
X190460400Y-281776400D02*
X190460400Y-267676400D01*
%TO.C,MX43*%
X176062800Y-324826400D02*
X190162800Y-324826400D01*
X190162800Y-324826400D02*
X190162800Y-338926400D01*
X190162800Y-338926400D02*
X176062800Y-338926400D01*
X176062800Y-338926400D02*
X176062800Y-324826400D01*
%TO.C,MX42*%
X166584400Y-305776400D02*
X180684400Y-305776400D01*
X180684400Y-305776400D02*
X180684400Y-319876400D01*
X180684400Y-319876400D02*
X166584400Y-319876400D01*
X166584400Y-319876400D02*
X166584400Y-305776400D01*
%TO.C,MX41*%
X180910000Y-286726400D02*
X195010000Y-286726400D01*
X195010000Y-286726400D02*
X195010000Y-300826400D01*
X195010000Y-300826400D02*
X180910000Y-300826400D01*
X180910000Y-300826400D02*
X180910000Y-286726400D01*
%TO.C,MX40*%
X171410400Y-267676400D02*
X185510400Y-267676400D01*
X185510400Y-267676400D02*
X185510400Y-281776400D01*
X185510400Y-281776400D02*
X171410400Y-281776400D01*
X171410400Y-281776400D02*
X171410400Y-267676400D01*
%TO.C,MX38*%
X157034000Y-324826400D02*
X171134000Y-324826400D01*
X171134000Y-324826400D02*
X171134000Y-338926400D01*
X171134000Y-338926400D02*
X157034000Y-338926400D01*
X157034000Y-338926400D02*
X157034000Y-324826400D01*
%TO.C,MX37*%
X147513200Y-305798000D02*
X161613200Y-305798000D01*
X161613200Y-305798000D02*
X161613200Y-319898000D01*
X161613200Y-319898000D02*
X147513200Y-319898000D01*
X147513200Y-319898000D02*
X147513200Y-305798000D01*
%TO.C,MX36*%
X161860000Y-286726400D02*
X175960000Y-286726400D01*
X175960000Y-286726400D02*
X175960000Y-300826400D01*
X175960000Y-300826400D02*
X161860000Y-300826400D01*
X161860000Y-300826400D02*
X161860000Y-286726400D01*
%TO.C,MX35*%
X152360400Y-267676400D02*
X166460400Y-267676400D01*
X166460400Y-267676400D02*
X166460400Y-281776400D01*
X166460400Y-281776400D02*
X152360400Y-281776400D01*
X152360400Y-281776400D02*
X152360400Y-267676400D01*
%TO.C,MX32*%
X137933200Y-324826400D02*
X152033200Y-324826400D01*
X152033200Y-324826400D02*
X152033200Y-338926400D01*
X152033200Y-338926400D02*
X137933200Y-338926400D01*
X137933200Y-338926400D02*
X137933200Y-324826400D01*
%TO.C,MX31*%
X128484400Y-305798000D02*
X142584400Y-305798000D01*
X142584400Y-305798000D02*
X142584400Y-319898000D01*
X142584400Y-319898000D02*
X128484400Y-319898000D01*
X128484400Y-319898000D02*
X128484400Y-305798000D01*
%TO.C,MX30*%
X142708400Y-286726400D02*
X156808400Y-286726400D01*
X156808400Y-286726400D02*
X156808400Y-300826400D01*
X156808400Y-300826400D02*
X142708400Y-300826400D01*
X142708400Y-300826400D02*
X142708400Y-286726400D01*
%TO.C,MX29*%
X133289200Y-267647200D02*
X147389200Y-267647200D01*
X147389200Y-267647200D02*
X147389200Y-281747200D01*
X147389200Y-281747200D02*
X133289200Y-281747200D01*
X133289200Y-281747200D02*
X133289200Y-267647200D01*
%TO.C,MX27*%
X118883200Y-324826400D02*
X132983200Y-324826400D01*
X132983200Y-324826400D02*
X132983200Y-338926400D01*
X132983200Y-338926400D02*
X118883200Y-338926400D01*
X118883200Y-338926400D02*
X118883200Y-324826400D01*
%TO.C,MX26*%
X109404800Y-305798000D02*
X123504800Y-305798000D01*
X123504800Y-305798000D02*
X123504800Y-319898000D01*
X123504800Y-319898000D02*
X109404800Y-319898000D01*
X109404800Y-319898000D02*
X109404800Y-305798000D01*
%TO.C,MX25*%
X123658400Y-286726400D02*
X137758400Y-286726400D01*
X137758400Y-286726400D02*
X137758400Y-300826400D01*
X137758400Y-300826400D02*
X123658400Y-300826400D01*
X123658400Y-300826400D02*
X123658400Y-286726400D01*
%TO.C,MX24*%
X114209600Y-267625600D02*
X128309600Y-267625600D01*
X128309600Y-267625600D02*
X128309600Y-281725600D01*
X128309600Y-281725600D02*
X114209600Y-281725600D01*
X114209600Y-281725600D02*
X114209600Y-267625600D01*
%TO.C,MX22*%
X99833200Y-324826400D02*
X113933200Y-324826400D01*
X113933200Y-324826400D02*
X113933200Y-338926400D01*
X113933200Y-338926400D02*
X99833200Y-338926400D01*
X99833200Y-338926400D02*
X99833200Y-324826400D01*
%TO.C,MX21*%
X90333600Y-305776400D02*
X104433600Y-305776400D01*
X104433600Y-305776400D02*
X104433600Y-319876400D01*
X104433600Y-319876400D02*
X90333600Y-319876400D01*
X90333600Y-319876400D02*
X90333600Y-305776400D01*
%TO.C,MX20*%
X104608400Y-286701000D02*
X118708400Y-286701000D01*
X118708400Y-286701000D02*
X118708400Y-300801000D01*
X118708400Y-300801000D02*
X104608400Y-300801000D01*
X104608400Y-300801000D02*
X104608400Y-286701000D01*
%TO.C,MX19*%
X95159600Y-267625600D02*
X109259600Y-267625600D01*
X109259600Y-267625600D02*
X109259600Y-281725600D01*
X109259600Y-281725600D02*
X95159600Y-281725600D01*
X95159600Y-281725600D02*
X95159600Y-267625600D01*
%TO.C,MX17*%
X80783200Y-324826400D02*
X94883200Y-324826400D01*
X94883200Y-324826400D02*
X94883200Y-338926400D01*
X94883200Y-338926400D02*
X80783200Y-338926400D01*
X80783200Y-338926400D02*
X80783200Y-324826400D01*
%TO.C,MX16*%
X71283600Y-305776400D02*
X85383600Y-305776400D01*
X85383600Y-305776400D02*
X85383600Y-319876400D01*
X85383600Y-319876400D02*
X71283600Y-319876400D01*
X71283600Y-319876400D02*
X71283600Y-305776400D01*
%TO.C,MX15*%
X85558400Y-286701000D02*
X99658400Y-286701000D01*
X99658400Y-286701000D02*
X99658400Y-300801000D01*
X99658400Y-300801000D02*
X85558400Y-300801000D01*
X85558400Y-300801000D02*
X85558400Y-286701000D01*
%TO.C,MX14*%
X76109600Y-267625600D02*
X90209600Y-267625600D01*
X90209600Y-267625600D02*
X90209600Y-281725600D01*
X90209600Y-281725600D02*
X76109600Y-281725600D01*
X76109600Y-281725600D02*
X76109600Y-267625600D01*
%TO.C,MX11*%
X61733200Y-324826400D02*
X75833200Y-324826400D01*
X75833200Y-324826400D02*
X75833200Y-338926400D01*
X75833200Y-338926400D02*
X61733200Y-338926400D01*
X61733200Y-338926400D02*
X61733200Y-324826400D01*
%TO.C,MX10*%
X52212400Y-305747200D02*
X66312400Y-305747200D01*
X66312400Y-305747200D02*
X66312400Y-319847200D01*
X66312400Y-319847200D02*
X52212400Y-319847200D01*
X52212400Y-319847200D02*
X52212400Y-305747200D01*
%TO.C,MX9*%
X66487200Y-286697200D02*
X80587200Y-286697200D01*
X80587200Y-286697200D02*
X80587200Y-300797200D01*
X80587200Y-300797200D02*
X66487200Y-300797200D01*
X66487200Y-300797200D02*
X66487200Y-286697200D01*
%TO.C,MX8*%
X57059600Y-267625600D02*
X71159600Y-267625600D01*
X71159600Y-267625600D02*
X71159600Y-281725600D01*
X71159600Y-281725600D02*
X57059600Y-281725600D01*
X57059600Y-281725600D02*
X57059600Y-267625600D01*
%TO.C,MX1*%
X28408400Y-239126800D02*
X42508400Y-239126800D01*
X42508400Y-239126800D02*
X42508400Y-253226800D01*
X42508400Y-253226800D02*
X28408400Y-253226800D01*
X28408400Y-253226800D02*
X28408400Y-239126800D01*
%TD*%
%TO.C,H4*%
D13*
X391688095Y-289002380D02*
X391688095Y-288002380D01*
X391688095Y-288478571D02*
X392259523Y-288478571D01*
X392259523Y-289002380D02*
X392259523Y-288002380D01*
X393164285Y-288335714D02*
X393164285Y-289002380D01*
X392926190Y-287954761D02*
X392688095Y-288669047D01*
X393307142Y-288669047D01*
%TO.C,H3*%
X48988095Y-241302380D02*
X48988095Y-240302380D01*
X48988095Y-240778571D02*
X49559523Y-240778571D01*
X49559523Y-241302380D02*
X49559523Y-240302380D01*
X49940476Y-240302380D02*
X50559523Y-240302380D01*
X50226190Y-240683333D01*
X50369047Y-240683333D01*
X50464285Y-240730952D01*
X50511904Y-240778571D01*
X50559523Y-240873809D01*
X50559523Y-241111904D01*
X50511904Y-241207142D01*
X50464285Y-241254761D01*
X50369047Y-241302380D01*
X50083333Y-241302380D01*
X49988095Y-241254761D01*
X49940476Y-241207142D01*
%TO.C,D15*%
X323166380Y-333332285D02*
X322166380Y-333332285D01*
X322166380Y-333094190D01*
X322214000Y-332951333D01*
X322309238Y-332856095D01*
X322404476Y-332808476D01*
X322594952Y-332760857D01*
X322737809Y-332760857D01*
X322928285Y-332808476D01*
X323023523Y-332856095D01*
X323118761Y-332951333D01*
X323166380Y-333094190D01*
X323166380Y-333332285D01*
X323166380Y-331808476D02*
X323166380Y-332379904D01*
X323166380Y-332094190D02*
X322166380Y-332094190D01*
X322309238Y-332189428D01*
X322404476Y-332284666D01*
X322452095Y-332379904D01*
X322166380Y-330903714D02*
X322166380Y-331379904D01*
X322642571Y-331427523D01*
X322594952Y-331379904D01*
X322547333Y-331284666D01*
X322547333Y-331046571D01*
X322594952Y-330951333D01*
X322642571Y-330903714D01*
X322737809Y-330856095D01*
X322975904Y-330856095D01*
X323071142Y-330903714D01*
X323118761Y-330951333D01*
X323166380Y-331046571D01*
X323166380Y-331284666D01*
X323118761Y-331379904D01*
X323071142Y-331427523D01*
%TO.C,D14*%
X358309714Y-354804380D02*
X358309714Y-353804380D01*
X358547809Y-353804380D01*
X358690666Y-353852000D01*
X358785904Y-353947238D01*
X358833523Y-354042476D01*
X358881142Y-354232952D01*
X358881142Y-354375809D01*
X358833523Y-354566285D01*
X358785904Y-354661523D01*
X358690666Y-354756761D01*
X358547809Y-354804380D01*
X358309714Y-354804380D01*
X359833523Y-354804380D02*
X359262095Y-354804380D01*
X359547809Y-354804380D02*
X359547809Y-353804380D01*
X359452571Y-353947238D01*
X359357333Y-354042476D01*
X359262095Y-354090095D01*
X360690666Y-354137714D02*
X360690666Y-354804380D01*
X360452571Y-353756761D02*
X360214476Y-354471047D01*
X360833523Y-354471047D01*
%TO.C,D13*%
X396460380Y-333192285D02*
X395460380Y-333192285D01*
X395460380Y-332954190D01*
X395508000Y-332811333D01*
X395603238Y-332716095D01*
X395698476Y-332668476D01*
X395888952Y-332620857D01*
X396031809Y-332620857D01*
X396222285Y-332668476D01*
X396317523Y-332716095D01*
X396412761Y-332811333D01*
X396460380Y-332954190D01*
X396460380Y-333192285D01*
X396460380Y-331668476D02*
X396460380Y-332239904D01*
X396460380Y-331954190D02*
X395460380Y-331954190D01*
X395603238Y-332049428D01*
X395698476Y-332144666D01*
X395746095Y-332239904D01*
X395460380Y-331335142D02*
X395460380Y-330716095D01*
X395841333Y-331049428D01*
X395841333Y-330906571D01*
X395888952Y-330811333D01*
X395936571Y-330763714D01*
X396031809Y-330716095D01*
X396269904Y-330716095D01*
X396365142Y-330763714D01*
X396412761Y-330811333D01*
X396460380Y-330906571D01*
X396460380Y-331192285D01*
X396412761Y-331287523D01*
X396365142Y-331335142D01*
%TO.C,J1*%
X303263666Y-252960380D02*
X303263666Y-253674666D01*
X303216047Y-253817523D01*
X303120809Y-253912761D01*
X302977952Y-253960380D01*
X302882714Y-253960380D01*
X304263666Y-253960380D02*
X303692238Y-253960380D01*
X303977952Y-253960380D02*
X303977952Y-252960380D01*
X303882714Y-253103238D01*
X303787476Y-253198476D01*
X303692238Y-253246095D01*
%TO.C,D12*%
X388752380Y-293564285D02*
X387752380Y-293564285D01*
X387752380Y-293326190D01*
X387800000Y-293183333D01*
X387895238Y-293088095D01*
X387990476Y-293040476D01*
X388180952Y-292992857D01*
X388323809Y-292992857D01*
X388514285Y-293040476D01*
X388609523Y-293088095D01*
X388704761Y-293183333D01*
X388752380Y-293326190D01*
X388752380Y-293564285D01*
X388752380Y-292040476D02*
X388752380Y-292611904D01*
X388752380Y-292326190D02*
X387752380Y-292326190D01*
X387895238Y-292421428D01*
X387990476Y-292516666D01*
X388038095Y-292611904D01*
X387847619Y-291659523D02*
X387800000Y-291611904D01*
X387752380Y-291516666D01*
X387752380Y-291278571D01*
X387800000Y-291183333D01*
X387847619Y-291135714D01*
X387942857Y-291088095D01*
X388038095Y-291088095D01*
X388180952Y-291135714D01*
X388752380Y-291707142D01*
X388752380Y-291088095D01*
%TO.C,D11*%
X358195714Y-289052380D02*
X358195714Y-288052380D01*
X358433809Y-288052380D01*
X358576666Y-288100000D01*
X358671904Y-288195238D01*
X358719523Y-288290476D01*
X358767142Y-288480952D01*
X358767142Y-288623809D01*
X358719523Y-288814285D01*
X358671904Y-288909523D01*
X358576666Y-289004761D01*
X358433809Y-289052380D01*
X358195714Y-289052380D01*
X359719523Y-289052380D02*
X359148095Y-289052380D01*
X359433809Y-289052380D02*
X359433809Y-288052380D01*
X359338571Y-288195238D01*
X359243333Y-288290476D01*
X359148095Y-288338095D01*
X360671904Y-289052380D02*
X360100476Y-289052380D01*
X360386190Y-289052380D02*
X360386190Y-288052380D01*
X360290952Y-288195238D01*
X360195714Y-288290476D01*
X360100476Y-288338095D01*
%TO.C,D10*%
X329912380Y-293174285D02*
X328912380Y-293174285D01*
X328912380Y-292936190D01*
X328960000Y-292793333D01*
X329055238Y-292698095D01*
X329150476Y-292650476D01*
X329340952Y-292602857D01*
X329483809Y-292602857D01*
X329674285Y-292650476D01*
X329769523Y-292698095D01*
X329864761Y-292793333D01*
X329912380Y-292936190D01*
X329912380Y-293174285D01*
X329912380Y-291650476D02*
X329912380Y-292221904D01*
X329912380Y-291936190D02*
X328912380Y-291936190D01*
X329055238Y-292031428D01*
X329150476Y-292126666D01*
X329198095Y-292221904D01*
X328912380Y-291031428D02*
X328912380Y-290936190D01*
X328960000Y-290840952D01*
X329007619Y-290793333D01*
X329102857Y-290745714D01*
X329293333Y-290698095D01*
X329531428Y-290698095D01*
X329721904Y-290745714D01*
X329817142Y-290793333D01*
X329864761Y-290840952D01*
X329912380Y-290936190D01*
X329912380Y-291031428D01*
X329864761Y-291126666D01*
X329817142Y-291174285D01*
X329721904Y-291221904D01*
X329531428Y-291269523D01*
X329293333Y-291269523D01*
X329102857Y-291221904D01*
X329007619Y-291174285D01*
X328960000Y-291126666D01*
X328912380Y-291031428D01*
%TO.C,D9*%
X329912380Y-271108095D02*
X328912380Y-271108095D01*
X328912380Y-270870000D01*
X328960000Y-270727142D01*
X329055238Y-270631904D01*
X329150476Y-270584285D01*
X329340952Y-270536666D01*
X329483809Y-270536666D01*
X329674285Y-270584285D01*
X329769523Y-270631904D01*
X329864761Y-270727142D01*
X329912380Y-270870000D01*
X329912380Y-271108095D01*
X329912380Y-270060476D02*
X329912380Y-269870000D01*
X329864761Y-269774761D01*
X329817142Y-269727142D01*
X329674285Y-269631904D01*
X329483809Y-269584285D01*
X329102857Y-269584285D01*
X329007619Y-269631904D01*
X328960000Y-269679523D01*
X328912380Y-269774761D01*
X328912380Y-269965238D01*
X328960000Y-270060476D01*
X329007619Y-270108095D01*
X329102857Y-270155714D01*
X329340952Y-270155714D01*
X329436190Y-270108095D01*
X329483809Y-270060476D01*
X329531428Y-269965238D01*
X329531428Y-269774761D01*
X329483809Y-269679523D01*
X329436190Y-269631904D01*
X329340952Y-269584285D01*
%TO.C,D8*%
X34961904Y-263872380D02*
X34961904Y-262872380D01*
X35200000Y-262872380D01*
X35342857Y-262920000D01*
X35438095Y-263015238D01*
X35485714Y-263110476D01*
X35533333Y-263300952D01*
X35533333Y-263443809D01*
X35485714Y-263634285D01*
X35438095Y-263729523D01*
X35342857Y-263824761D01*
X35200000Y-263872380D01*
X34961904Y-263872380D01*
X36104761Y-263300952D02*
X36009523Y-263253333D01*
X35961904Y-263205714D01*
X35914285Y-263110476D01*
X35914285Y-263062857D01*
X35961904Y-262967619D01*
X36009523Y-262920000D01*
X36104761Y-262872380D01*
X36295238Y-262872380D01*
X36390476Y-262920000D01*
X36438095Y-262967619D01*
X36485714Y-263062857D01*
X36485714Y-263110476D01*
X36438095Y-263205714D01*
X36390476Y-263253333D01*
X36295238Y-263300952D01*
X36104761Y-263300952D01*
X36009523Y-263348571D01*
X35961904Y-263396190D01*
X35914285Y-263491428D01*
X35914285Y-263681904D01*
X35961904Y-263777142D01*
X36009523Y-263824761D01*
X36104761Y-263872380D01*
X36295238Y-263872380D01*
X36390476Y-263824761D01*
X36438095Y-263777142D01*
X36485714Y-263681904D01*
X36485714Y-263491428D01*
X36438095Y-263396190D01*
X36390476Y-263348571D01*
X36295238Y-263300952D01*
%TO.C,D7*%
X71651904Y-263872380D02*
X71651904Y-262872380D01*
X71890000Y-262872380D01*
X72032857Y-262920000D01*
X72128095Y-263015238D01*
X72175714Y-263110476D01*
X72223333Y-263300952D01*
X72223333Y-263443809D01*
X72175714Y-263634285D01*
X72128095Y-263729523D01*
X72032857Y-263824761D01*
X71890000Y-263872380D01*
X71651904Y-263872380D01*
X72556666Y-262872380D02*
X73223333Y-262872380D01*
X72794761Y-263872380D01*
%TO.C,D6*%
X104811904Y-263872380D02*
X104811904Y-262872380D01*
X105050000Y-262872380D01*
X105192857Y-262920000D01*
X105288095Y-263015238D01*
X105335714Y-263110476D01*
X105383333Y-263300952D01*
X105383333Y-263443809D01*
X105335714Y-263634285D01*
X105288095Y-263729523D01*
X105192857Y-263824761D01*
X105050000Y-263872380D01*
X104811904Y-263872380D01*
X106240476Y-262872380D02*
X106050000Y-262872380D01*
X105954761Y-262920000D01*
X105907142Y-262967619D01*
X105811904Y-263110476D01*
X105764285Y-263300952D01*
X105764285Y-263681904D01*
X105811904Y-263777142D01*
X105859523Y-263824761D01*
X105954761Y-263872380D01*
X106145238Y-263872380D01*
X106240476Y-263824761D01*
X106288095Y-263777142D01*
X106335714Y-263681904D01*
X106335714Y-263443809D01*
X106288095Y-263348571D01*
X106240476Y-263300952D01*
X106145238Y-263253333D01*
X105954761Y-263253333D01*
X105859523Y-263300952D01*
X105811904Y-263348571D01*
X105764285Y-263443809D01*
%TO.C,D5*%
X142911904Y-264099180D02*
X142911904Y-263099180D01*
X143150000Y-263099180D01*
X143292857Y-263146800D01*
X143388095Y-263242038D01*
X143435714Y-263337276D01*
X143483333Y-263527752D01*
X143483333Y-263670609D01*
X143435714Y-263861085D01*
X143388095Y-263956323D01*
X143292857Y-264051561D01*
X143150000Y-264099180D01*
X142911904Y-264099180D01*
X144388095Y-263099180D02*
X143911904Y-263099180D01*
X143864285Y-263575371D01*
X143911904Y-263527752D01*
X144007142Y-263480133D01*
X144245238Y-263480133D01*
X144340476Y-263527752D01*
X144388095Y-263575371D01*
X144435714Y-263670609D01*
X144435714Y-263908704D01*
X144388095Y-264003942D01*
X144340476Y-264051561D01*
X144245238Y-264099180D01*
X144007142Y-264099180D01*
X143911904Y-264051561D01*
X143864285Y-264003942D01*
%TO.C,D4*%
X178331904Y-264024780D02*
X178331904Y-263024780D01*
X178570000Y-263024780D01*
X178712857Y-263072400D01*
X178808095Y-263167638D01*
X178855714Y-263262876D01*
X178903333Y-263453352D01*
X178903333Y-263596209D01*
X178855714Y-263786685D01*
X178808095Y-263881923D01*
X178712857Y-263977161D01*
X178570000Y-264024780D01*
X178331904Y-264024780D01*
X179760476Y-263358114D02*
X179760476Y-264024780D01*
X179522380Y-262977161D02*
X179284285Y-263691447D01*
X179903333Y-263691447D01*
%TO.C,D3*%
X213751904Y-264071980D02*
X213751904Y-263071980D01*
X213990000Y-263071980D01*
X214132857Y-263119600D01*
X214228095Y-263214838D01*
X214275714Y-263310076D01*
X214323333Y-263500552D01*
X214323333Y-263643409D01*
X214275714Y-263833885D01*
X214228095Y-263929123D01*
X214132857Y-264024361D01*
X213990000Y-264071980D01*
X213751904Y-264071980D01*
X214656666Y-263071980D02*
X215275714Y-263071980D01*
X214942380Y-263452933D01*
X215085238Y-263452933D01*
X215180476Y-263500552D01*
X215228095Y-263548171D01*
X215275714Y-263643409D01*
X215275714Y-263881504D01*
X215228095Y-263976742D01*
X215180476Y-264024361D01*
X215085238Y-264071980D01*
X214799523Y-264071980D01*
X214704285Y-264024361D01*
X214656666Y-263976742D01*
%TO.C,D2*%
X248181904Y-264075580D02*
X248181904Y-263075580D01*
X248420000Y-263075580D01*
X248562857Y-263123200D01*
X248658095Y-263218438D01*
X248705714Y-263313676D01*
X248753333Y-263504152D01*
X248753333Y-263647009D01*
X248705714Y-263837485D01*
X248658095Y-263932723D01*
X248562857Y-264027961D01*
X248420000Y-264075580D01*
X248181904Y-264075580D01*
X249134285Y-263170819D02*
X249181904Y-263123200D01*
X249277142Y-263075580D01*
X249515238Y-263075580D01*
X249610476Y-263123200D01*
X249658095Y-263170819D01*
X249705714Y-263266057D01*
X249705714Y-263361295D01*
X249658095Y-263504152D01*
X249086666Y-264075580D01*
X249705714Y-264075580D01*
%TO.C,D1*%
X277658304Y-264071980D02*
X277658304Y-263071980D01*
X277896400Y-263071980D01*
X278039257Y-263119600D01*
X278134495Y-263214838D01*
X278182114Y-263310076D01*
X278229733Y-263500552D01*
X278229733Y-263643409D01*
X278182114Y-263833885D01*
X278134495Y-263929123D01*
X278039257Y-264024361D01*
X277896400Y-264071980D01*
X277658304Y-264071980D01*
X279182114Y-264071980D02*
X278610685Y-264071980D01*
X278896400Y-264071980D02*
X278896400Y-263071980D01*
X278801161Y-263214838D01*
X278705923Y-263310076D01*
X278610685Y-263357695D01*
%TO.C,H2*%
X68072095Y-303657380D02*
X68072095Y-302657380D01*
X68072095Y-303133571D02*
X68643523Y-303133571D01*
X68643523Y-303657380D02*
X68643523Y-302657380D01*
X69072095Y-302752619D02*
X69119714Y-302705000D01*
X69214952Y-302657380D01*
X69453047Y-302657380D01*
X69548285Y-302705000D01*
X69595904Y-302752619D01*
X69643523Y-302847857D01*
X69643523Y-302943095D01*
X69595904Y-303085952D01*
X69024476Y-303657380D01*
X69643523Y-303657380D01*
%TO.C,H1*%
X63373095Y-300482380D02*
X63373095Y-299482380D01*
X63373095Y-299958571D02*
X63944523Y-299958571D01*
X63944523Y-300482380D02*
X63944523Y-299482380D01*
X64944523Y-300482380D02*
X64373095Y-300482380D01*
X64658809Y-300482380D02*
X64658809Y-299482380D01*
X64563571Y-299625238D01*
X64468333Y-299720476D01*
X64373095Y-299768095D01*
%TO.C,MX68*%
X293567028Y-324391280D02*
X293233695Y-323915090D01*
X292995600Y-324391280D02*
X292995600Y-323391280D01*
X293376552Y-323391280D01*
X293471790Y-323438900D01*
X293519409Y-323486519D01*
X293567028Y-323581757D01*
X293567028Y-323724614D01*
X293519409Y-323819852D01*
X293471790Y-323867471D01*
X293376552Y-323915090D01*
X292995600Y-323915090D01*
X293947980Y-324343661D02*
X294090838Y-324391280D01*
X294328933Y-324391280D01*
X294424171Y-324343661D01*
X294471790Y-324296042D01*
X294519409Y-324200804D01*
X294519409Y-324105566D01*
X294471790Y-324010328D01*
X294424171Y-323962709D01*
X294328933Y-323915090D01*
X294138457Y-323867471D01*
X294043219Y-323819852D01*
X293995600Y-323772233D01*
X293947980Y-323676995D01*
X293947980Y-323581757D01*
X293995600Y-323486519D01*
X294043219Y-323438900D01*
X294138457Y-323391280D01*
X294376552Y-323391280D01*
X294519409Y-323438900D01*
X294947980Y-324391280D02*
X294947980Y-323391280D01*
X295376552Y-324391280D02*
X295376552Y-323867471D01*
X295328933Y-323772233D01*
X295233695Y-323724614D01*
X295090838Y-323724614D01*
X294995600Y-323772233D01*
X294947980Y-323819852D01*
X295852742Y-324391280D02*
X295852742Y-323724614D01*
X295852742Y-323391280D02*
X295805123Y-323438900D01*
X295852742Y-323486519D01*
X295900361Y-323438900D01*
X295852742Y-323391280D01*
X295852742Y-323486519D01*
X296186076Y-323724614D02*
X296567028Y-323724614D01*
X296328933Y-324391280D02*
X296328933Y-323534138D01*
X296376552Y-323438900D01*
X296471790Y-323391280D01*
X296567028Y-323391280D01*
X296757504Y-323724614D02*
X297138457Y-323724614D01*
X296900361Y-323391280D02*
X296900361Y-324248423D01*
X296947980Y-324343661D01*
X297043219Y-324391280D01*
X297138457Y-324391280D01*
%TO.C,MX77*%
X372071542Y-267262880D02*
X372071542Y-266262880D01*
X372071542Y-266739071D02*
X372642971Y-266739071D01*
X372642971Y-267262880D02*
X372642971Y-266262880D01*
X373119161Y-266739071D02*
X373452495Y-266739071D01*
X373595352Y-267262880D02*
X373119161Y-267262880D01*
X373119161Y-266262880D01*
X373595352Y-266262880D01*
X374500114Y-267262880D02*
X374023923Y-267262880D01*
X374023923Y-266262880D01*
X374833447Y-267262880D02*
X374833447Y-266262880D01*
X375214400Y-266262880D01*
X375309638Y-266310500D01*
X375357257Y-266358119D01*
X375404876Y-266453357D01*
X375404876Y-266596214D01*
X375357257Y-266691452D01*
X375309638Y-266739071D01*
X375214400Y-266786690D01*
X374833447Y-266786690D01*
%TO.C,MX73*%
X343994952Y-267262880D02*
X343994952Y-266262880D01*
X344233047Y-266262880D01*
X344375904Y-266310500D01*
X344471142Y-266405738D01*
X344518761Y-266500976D01*
X344566380Y-266691452D01*
X344566380Y-266834309D01*
X344518761Y-267024785D01*
X344471142Y-267120023D01*
X344375904Y-267215261D01*
X344233047Y-267262880D01*
X343994952Y-267262880D01*
X344994952Y-266739071D02*
X345328285Y-266739071D01*
X345471142Y-267262880D02*
X344994952Y-267262880D01*
X344994952Y-266262880D01*
X345471142Y-266262880D01*
X346375904Y-267262880D02*
X345899714Y-267262880D01*
X345899714Y-266262880D01*
%TO.C,MX2*%
X38662171Y-266549214D02*
X39043123Y-266549214D01*
X38805028Y-266215880D02*
X38805028Y-267073023D01*
X38852647Y-267168261D01*
X38947885Y-267215880D01*
X39043123Y-267215880D01*
X39376457Y-267215880D02*
X39376457Y-266549214D01*
X39376457Y-266215880D02*
X39328838Y-266263500D01*
X39376457Y-266311119D01*
X39424076Y-266263500D01*
X39376457Y-266215880D01*
X39376457Y-266311119D01*
X39995504Y-267215880D02*
X39900266Y-267168261D01*
X39852647Y-267073023D01*
X39852647Y-266215880D01*
X40805028Y-267215880D02*
X40805028Y-266215880D01*
X40805028Y-267168261D02*
X40709790Y-267215880D01*
X40519314Y-267215880D01*
X40424076Y-267168261D01*
X40376457Y-267120642D01*
X40328838Y-267025404D01*
X40328838Y-266739690D01*
X40376457Y-266644452D01*
X40424076Y-266596833D01*
X40519314Y-266549214D01*
X40709790Y-266549214D01*
X40805028Y-266596833D01*
X41662171Y-267168261D02*
X41566933Y-267215880D01*
X41376457Y-267215880D01*
X41281219Y-267168261D01*
X41233600Y-267073023D01*
X41233600Y-266692071D01*
X41281219Y-266596833D01*
X41376457Y-266549214D01*
X41566933Y-266549214D01*
X41662171Y-266596833D01*
X41709790Y-266692071D01*
X41709790Y-266787309D01*
X41233600Y-266882547D01*
%TO.C,MX3*%
X43786573Y-285265880D02*
X44358002Y-285265880D01*
X44072288Y-286265880D02*
X44072288Y-285265880D01*
X45119907Y-286265880D02*
X45119907Y-285742071D01*
X45072288Y-285646833D01*
X44977050Y-285599214D01*
X44786573Y-285599214D01*
X44691335Y-285646833D01*
X45119907Y-286218261D02*
X45024669Y-286265880D01*
X44786573Y-286265880D01*
X44691335Y-286218261D01*
X44643716Y-286123023D01*
X44643716Y-286027785D01*
X44691335Y-285932547D01*
X44786573Y-285884928D01*
X45024669Y-285884928D01*
X45119907Y-285837309D01*
X45596097Y-286265880D02*
X45596097Y-285265880D01*
X45596097Y-285646833D02*
X45691335Y-285599214D01*
X45881811Y-285599214D01*
X45977050Y-285646833D01*
X46024669Y-285694452D01*
X46072288Y-285789690D01*
X46072288Y-286075404D01*
X46024669Y-286170642D01*
X45977050Y-286218261D01*
X45881811Y-286265880D01*
X45691335Y-286265880D01*
X45596097Y-286218261D01*
%TO.C,MX64*%
X294487123Y-343462880D02*
X294153790Y-342986690D01*
X293915695Y-343462880D02*
X293915695Y-342462880D01*
X294296647Y-342462880D01*
X294391885Y-342510500D01*
X294439504Y-342558119D01*
X294487123Y-342653357D01*
X294487123Y-342796214D01*
X294439504Y-342891452D01*
X294391885Y-342939071D01*
X294296647Y-342986690D01*
X293915695Y-342986690D01*
X295344266Y-343462880D02*
X295344266Y-342939071D01*
X295296647Y-342843833D01*
X295201409Y-342796214D01*
X295010933Y-342796214D01*
X294915695Y-342843833D01*
X295344266Y-343415261D02*
X295249028Y-343462880D01*
X295010933Y-343462880D01*
X294915695Y-343415261D01*
X294868076Y-343320023D01*
X294868076Y-343224785D01*
X294915695Y-343129547D01*
X295010933Y-343081928D01*
X295249028Y-343081928D01*
X295344266Y-343034309D01*
X295963314Y-343462880D02*
X295868076Y-343415261D01*
X295820457Y-343320023D01*
X295820457Y-342462880D01*
X296201409Y-342796214D02*
X296582361Y-342796214D01*
X296344266Y-342462880D02*
X296344266Y-343320023D01*
X296391885Y-343415261D01*
X296487123Y-343462880D01*
X296582361Y-343462880D01*
%TO.C,MX59*%
X269349219Y-343462880D02*
X269015885Y-342986690D01*
X268777790Y-343462880D02*
X268777790Y-342462880D01*
X269158742Y-342462880D01*
X269253980Y-342510500D01*
X269301600Y-342558119D01*
X269349219Y-342653357D01*
X269349219Y-342796214D01*
X269301600Y-342891452D01*
X269253980Y-342939071D01*
X269158742Y-342986690D01*
X268777790Y-342986690D01*
X270206361Y-343462880D02*
X270206361Y-342939071D01*
X270158742Y-342843833D01*
X270063504Y-342796214D01*
X269873028Y-342796214D01*
X269777790Y-342843833D01*
X270206361Y-343415261D02*
X270111123Y-343462880D01*
X269873028Y-343462880D01*
X269777790Y-343415261D01*
X269730171Y-343320023D01*
X269730171Y-343224785D01*
X269777790Y-343129547D01*
X269873028Y-343081928D01*
X270111123Y-343081928D01*
X270206361Y-343034309D01*
X270682552Y-343462880D02*
X270682552Y-342796214D01*
X270682552Y-342891452D02*
X270730171Y-342843833D01*
X270825409Y-342796214D01*
X270968266Y-342796214D01*
X271063504Y-342843833D01*
X271111123Y-342939071D01*
X271111123Y-343462880D01*
X271111123Y-342939071D02*
X271158742Y-342843833D01*
X271253980Y-342796214D01*
X271396838Y-342796214D01*
X271492076Y-342843833D01*
X271539695Y-342939071D01*
X271539695Y-343462880D01*
X272015885Y-343462880D02*
X272015885Y-342796214D01*
X272015885Y-342462880D02*
X271968266Y-342510500D01*
X272015885Y-342558119D01*
X272063504Y-342510500D01*
X272015885Y-342462880D01*
X272015885Y-342558119D01*
X272920647Y-342796214D02*
X272920647Y-343605738D01*
X272873028Y-343700976D01*
X272825409Y-343748595D01*
X272730171Y-343796214D01*
X272587314Y-343796214D01*
X272492076Y-343748595D01*
X272920647Y-343415261D02*
X272825409Y-343462880D01*
X272634933Y-343462880D01*
X272539695Y-343415261D01*
X272492076Y-343367642D01*
X272444457Y-343272404D01*
X272444457Y-342986690D01*
X272492076Y-342891452D01*
X272539695Y-342843833D01*
X272634933Y-342796214D01*
X272825409Y-342796214D01*
X272920647Y-342843833D01*
X273825409Y-343462880D02*
X273825409Y-342939071D01*
X273777790Y-342843833D01*
X273682552Y-342796214D01*
X273492076Y-342796214D01*
X273396838Y-342843833D01*
X273825409Y-343415261D02*
X273730171Y-343462880D01*
X273492076Y-343462880D01*
X273396838Y-343415261D01*
X273349219Y-343320023D01*
X273349219Y-343224785D01*
X273396838Y-343129547D01*
X273492076Y-343081928D01*
X273730171Y-343081928D01*
X273825409Y-343034309D01*
%TO.C,MX54*%
X289512476Y-238218671D02*
X289179142Y-238218671D01*
X289179142Y-238742480D02*
X289179142Y-237742480D01*
X289655333Y-237742480D01*
X290560095Y-238742480D02*
X289988666Y-238742480D01*
X290274380Y-238742480D02*
X290274380Y-237742480D01*
X290179142Y-237885338D01*
X290083904Y-237980576D01*
X289988666Y-238028195D01*
X291179142Y-237742480D02*
X291274380Y-237742480D01*
X291369619Y-237790100D01*
X291417238Y-237837719D01*
X291464857Y-237932957D01*
X291512476Y-238123433D01*
X291512476Y-238361528D01*
X291464857Y-238552004D01*
X291417238Y-238647242D01*
X291369619Y-238694861D01*
X291274380Y-238742480D01*
X291179142Y-238742480D01*
X291083904Y-238694861D01*
X291036285Y-238647242D01*
X290988666Y-238552004D01*
X290941047Y-238361528D01*
X290941047Y-238123433D01*
X290988666Y-237932957D01*
X291036285Y-237837719D01*
X291083904Y-237790100D01*
X291179142Y-237742480D01*
%TO.C,MX49*%
X266184666Y-238240271D02*
X265851333Y-238240271D01*
X265851333Y-238764080D02*
X265851333Y-237764080D01*
X266327523Y-237764080D01*
X266756095Y-238764080D02*
X266946571Y-238764080D01*
X267041809Y-238716461D01*
X267089428Y-238668842D01*
X267184666Y-238525985D01*
X267232285Y-238335509D01*
X267232285Y-237954557D01*
X267184666Y-237859319D01*
X267137047Y-237811700D01*
X267041809Y-237764080D01*
X266851333Y-237764080D01*
X266756095Y-237811700D01*
X266708476Y-237859319D01*
X266660857Y-237954557D01*
X266660857Y-238192652D01*
X266708476Y-238287890D01*
X266756095Y-238335509D01*
X266851333Y-238383128D01*
X267041809Y-238383128D01*
X267137047Y-238335509D01*
X267184666Y-238287890D01*
X267232285Y-238192652D01*
%TO.C,MX44*%
X242338266Y-238218671D02*
X242004933Y-238218671D01*
X242004933Y-238742480D02*
X242004933Y-237742480D01*
X242481123Y-237742480D01*
X243004933Y-238171052D02*
X242909695Y-238123433D01*
X242862076Y-238075814D01*
X242814457Y-237980576D01*
X242814457Y-237932957D01*
X242862076Y-237837719D01*
X242909695Y-237790100D01*
X243004933Y-237742480D01*
X243195409Y-237742480D01*
X243290647Y-237790100D01*
X243338266Y-237837719D01*
X243385885Y-237932957D01*
X243385885Y-237980576D01*
X243338266Y-238075814D01*
X243290647Y-238123433D01*
X243195409Y-238171052D01*
X243004933Y-238171052D01*
X242909695Y-238218671D01*
X242862076Y-238266290D01*
X242814457Y-238361528D01*
X242814457Y-238552004D01*
X242862076Y-238647242D01*
X242909695Y-238694861D01*
X243004933Y-238742480D01*
X243195409Y-238742480D01*
X243290647Y-238694861D01*
X243338266Y-238647242D01*
X243385885Y-238552004D01*
X243385885Y-238361528D01*
X243338266Y-238266290D01*
X243290647Y-238218671D01*
X243195409Y-238171052D01*
%TO.C,MX39*%
X218513066Y-238218671D02*
X218179733Y-238218671D01*
X218179733Y-238742480D02*
X218179733Y-237742480D01*
X218655923Y-237742480D01*
X218941638Y-237742480D02*
X219608304Y-237742480D01*
X219179733Y-238742480D01*
%TO.C,MX34*%
X194687866Y-238218671D02*
X194354533Y-238218671D01*
X194354533Y-238742480D02*
X194354533Y-237742480D01*
X194830723Y-237742480D01*
X195640247Y-237742480D02*
X195449771Y-237742480D01*
X195354533Y-237790100D01*
X195306914Y-237837719D01*
X195211676Y-237980576D01*
X195164057Y-238171052D01*
X195164057Y-238552004D01*
X195211676Y-238647242D01*
X195259295Y-238694861D01*
X195354533Y-238742480D01*
X195545009Y-238742480D01*
X195640247Y-238694861D01*
X195687866Y-238647242D01*
X195735485Y-238552004D01*
X195735485Y-238313909D01*
X195687866Y-238218671D01*
X195640247Y-238171052D01*
X195545009Y-238123433D01*
X195354533Y-238123433D01*
X195259295Y-238171052D01*
X195211676Y-238218671D01*
X195164057Y-238313909D01*
%TO.C,MX28*%
X161413866Y-238218671D02*
X161080533Y-238218671D01*
X161080533Y-238742480D02*
X161080533Y-237742480D01*
X161556723Y-237742480D01*
X162413866Y-237742480D02*
X161937676Y-237742480D01*
X161890057Y-238218671D01*
X161937676Y-238171052D01*
X162032914Y-238123433D01*
X162271009Y-238123433D01*
X162366247Y-238171052D01*
X162413866Y-238218671D01*
X162461485Y-238313909D01*
X162461485Y-238552004D01*
X162413866Y-238647242D01*
X162366247Y-238694861D01*
X162271009Y-238742480D01*
X162032914Y-238742480D01*
X161937676Y-238694861D01*
X161890057Y-238647242D01*
%TO.C,MX23*%
X137588666Y-238218671D02*
X137255333Y-238218671D01*
X137255333Y-238742480D02*
X137255333Y-237742480D01*
X137731523Y-237742480D01*
X138541047Y-238075814D02*
X138541047Y-238742480D01*
X138302952Y-237694861D02*
X138064857Y-238409147D01*
X138683904Y-238409147D01*
%TO.C,MX18*%
X113763466Y-238218671D02*
X113430133Y-238218671D01*
X113430133Y-238742480D02*
X113430133Y-237742480D01*
X113906323Y-237742480D01*
X114192038Y-237742480D02*
X114811085Y-237742480D01*
X114477752Y-238123433D01*
X114620609Y-238123433D01*
X114715847Y-238171052D01*
X114763466Y-238218671D01*
X114811085Y-238313909D01*
X114811085Y-238552004D01*
X114763466Y-238647242D01*
X114715847Y-238694861D01*
X114620609Y-238742480D01*
X114334895Y-238742480D01*
X114239657Y-238694861D01*
X114192038Y-238647242D01*
%TO.C,MX13*%
X89938266Y-238218671D02*
X89604933Y-238218671D01*
X89604933Y-238742480D02*
X89604933Y-237742480D01*
X90081123Y-237742480D01*
X90414457Y-237837719D02*
X90462076Y-237790100D01*
X90557314Y-237742480D01*
X90795409Y-237742480D01*
X90890647Y-237790100D01*
X90938266Y-237837719D01*
X90985885Y-237932957D01*
X90985885Y-238028195D01*
X90938266Y-238171052D01*
X90366838Y-238742480D01*
X90985885Y-238742480D01*
%TO.C,MX12*%
X73942819Y-343492080D02*
X73466628Y-343492080D01*
X73466628Y-342492080D01*
X74704723Y-343492080D02*
X74704723Y-342968271D01*
X74657104Y-342873033D01*
X74561866Y-342825414D01*
X74371390Y-342825414D01*
X74276152Y-342873033D01*
X74704723Y-343444461D02*
X74609485Y-343492080D01*
X74371390Y-343492080D01*
X74276152Y-343444461D01*
X74228533Y-343349223D01*
X74228533Y-343253985D01*
X74276152Y-343158747D01*
X74371390Y-343111128D01*
X74609485Y-343111128D01*
X74704723Y-343063509D01*
X75180914Y-343492080D02*
X75180914Y-342825414D01*
X75180914Y-342920652D02*
X75228533Y-342873033D01*
X75323771Y-342825414D01*
X75466628Y-342825414D01*
X75561866Y-342873033D01*
X75609485Y-342968271D01*
X75609485Y-343492080D01*
X75609485Y-342968271D02*
X75657104Y-342873033D01*
X75752342Y-342825414D01*
X75895200Y-342825414D01*
X75990438Y-342873033D01*
X76038057Y-342968271D01*
X76038057Y-343492080D01*
X76514247Y-343492080D02*
X76514247Y-342825414D01*
X76514247Y-342492080D02*
X76466628Y-342539700D01*
X76514247Y-342587319D01*
X76561866Y-342539700D01*
X76514247Y-342492080D01*
X76514247Y-342587319D01*
X77419009Y-342825414D02*
X77419009Y-343634938D01*
X77371390Y-343730176D01*
X77323771Y-343777795D01*
X77228533Y-343825414D01*
X77085676Y-343825414D01*
X76990438Y-343777795D01*
X77419009Y-343444461D02*
X77323771Y-343492080D01*
X77133295Y-343492080D01*
X77038057Y-343444461D01*
X76990438Y-343396842D01*
X76942819Y-343301604D01*
X76942819Y-343015890D01*
X76990438Y-342920652D01*
X77038057Y-342873033D01*
X77133295Y-342825414D01*
X77323771Y-342825414D01*
X77419009Y-342873033D01*
X78323771Y-343492080D02*
X78323771Y-342968271D01*
X78276152Y-342873033D01*
X78180914Y-342825414D01*
X77990438Y-342825414D01*
X77895200Y-342873033D01*
X78323771Y-343444461D02*
X78228533Y-343492080D01*
X77990438Y-343492080D01*
X77895200Y-343444461D01*
X77847580Y-343349223D01*
X77847580Y-343253985D01*
X77895200Y-343158747D01*
X77990438Y-343111128D01*
X78228533Y-343111128D01*
X78323771Y-343063509D01*
%TO.C,MX7*%
X66163866Y-238218671D02*
X65830533Y-238218671D01*
X65830533Y-238742480D02*
X65830533Y-237742480D01*
X66306723Y-237742480D01*
X67211485Y-238742480D02*
X66640057Y-238742480D01*
X66925771Y-238742480D02*
X66925771Y-237742480D01*
X66830533Y-237885338D01*
X66735295Y-237980576D01*
X66640057Y-238028195D01*
%TO.C,MX6*%
X51400723Y-343513680D02*
X50924533Y-343513680D01*
X50924533Y-342513680D01*
X52162628Y-343513680D02*
X52162628Y-342989871D01*
X52115009Y-342894633D01*
X52019771Y-342847014D01*
X51829295Y-342847014D01*
X51734057Y-342894633D01*
X52162628Y-343466061D02*
X52067390Y-343513680D01*
X51829295Y-343513680D01*
X51734057Y-343466061D01*
X51686438Y-343370823D01*
X51686438Y-343275585D01*
X51734057Y-343180347D01*
X51829295Y-343132728D01*
X52067390Y-343132728D01*
X52162628Y-343085109D01*
X52781676Y-343513680D02*
X52686438Y-343466061D01*
X52638819Y-343370823D01*
X52638819Y-342513680D01*
X53019771Y-342847014D02*
X53400723Y-342847014D01*
X53162628Y-342513680D02*
X53162628Y-343370823D01*
X53210247Y-343466061D01*
X53305485Y-343513680D01*
X53400723Y-343513680D01*
%TO.C,MX4*%
X36848609Y-305216842D02*
X36800990Y-305264461D01*
X36658133Y-305312080D01*
X36562895Y-305312080D01*
X36420038Y-305264461D01*
X36324800Y-305169223D01*
X36277180Y-305073985D01*
X36229561Y-304883509D01*
X36229561Y-304740652D01*
X36277180Y-304550176D01*
X36324800Y-304454938D01*
X36420038Y-304359700D01*
X36562895Y-304312080D01*
X36658133Y-304312080D01*
X36800990Y-304359700D01*
X36848609Y-304407319D01*
X37134323Y-304312080D02*
X37705752Y-304312080D01*
X37420038Y-305312080D02*
X37420038Y-304312080D01*
X38610514Y-305312080D02*
X38277180Y-304835890D01*
X38039085Y-305312080D02*
X38039085Y-304312080D01*
X38420038Y-304312080D01*
X38515276Y-304359700D01*
X38562895Y-304407319D01*
X38610514Y-304502557D01*
X38610514Y-304645414D01*
X38562895Y-304740652D01*
X38515276Y-304788271D01*
X38420038Y-304835890D01*
X38039085Y-304835890D01*
X39515276Y-305312080D02*
X39039085Y-305312080D01*
X39039085Y-304312080D01*
%TO.C,MX83*%
X414036154Y-343466680D02*
X414036154Y-342466680D01*
X414607583Y-343466680D01*
X414607583Y-342466680D01*
X415083773Y-342466680D02*
X415083773Y-343276204D01*
X415131392Y-343371442D01*
X415179011Y-343419061D01*
X415274250Y-343466680D01*
X415464726Y-343466680D01*
X415559964Y-343419061D01*
X415607583Y-343371442D01*
X415655202Y-343276204D01*
X415655202Y-342466680D01*
X416131392Y-343466680D02*
X416131392Y-342466680D01*
X416464726Y-343180966D01*
X416798059Y-342466680D01*
X416798059Y-343466680D01*
X417036154Y-343561919D02*
X417798059Y-343561919D01*
X418226630Y-342466680D02*
X418321869Y-342466680D01*
X418417107Y-342514300D01*
X418464726Y-342561919D01*
X418512345Y-342657157D01*
X418559964Y-342847633D01*
X418559964Y-343085728D01*
X418512345Y-343276204D01*
X418464726Y-343371442D01*
X418417107Y-343419061D01*
X418321869Y-343466680D01*
X418226630Y-343466680D01*
X418131392Y-343419061D01*
X418083773Y-343371442D01*
X418036154Y-343276204D01*
X417988535Y-343085728D01*
X417988535Y-342847633D01*
X418036154Y-342657157D01*
X418083773Y-342561919D01*
X418131392Y-342514300D01*
X418226630Y-342466680D01*
%TO.C,MX95*%
X461626247Y-305341280D02*
X461626247Y-304341280D01*
X462197676Y-305341280D01*
X462197676Y-304341280D01*
X462673866Y-304341280D02*
X462673866Y-305150804D01*
X462721485Y-305246042D01*
X462769104Y-305293661D01*
X462864342Y-305341280D01*
X463054819Y-305341280D01*
X463150057Y-305293661D01*
X463197676Y-305246042D01*
X463245295Y-305150804D01*
X463245295Y-304341280D01*
X463721485Y-305341280D02*
X463721485Y-304341280D01*
X464054819Y-305055566D01*
X464388152Y-304341280D01*
X464388152Y-305341280D01*
X464626247Y-305436519D02*
X465388152Y-305436519D01*
X465626247Y-304960328D02*
X466388152Y-304960328D01*
X466007200Y-305341280D02*
X466007200Y-304579376D01*
%TO.C,MX94*%
X461626247Y-286291280D02*
X461626247Y-285291280D01*
X462197676Y-286291280D01*
X462197676Y-285291280D01*
X462673866Y-285291280D02*
X462673866Y-286100804D01*
X462721485Y-286196042D01*
X462769104Y-286243661D01*
X462864342Y-286291280D01*
X463054819Y-286291280D01*
X463150057Y-286243661D01*
X463197676Y-286196042D01*
X463245295Y-286100804D01*
X463245295Y-285291280D01*
X463721485Y-286291280D02*
X463721485Y-285291280D01*
X464054819Y-286005566D01*
X464388152Y-285291280D01*
X464388152Y-286291280D01*
X464626247Y-286386519D02*
X465388152Y-286386519D01*
X465626247Y-285910328D02*
X466388152Y-285910328D01*
%TO.C,MX93*%
X461864342Y-267342880D02*
X461864342Y-266342880D01*
X462435771Y-267342880D01*
X462435771Y-266342880D01*
X462911961Y-266342880D02*
X462911961Y-267152404D01*
X462959580Y-267247642D01*
X463007200Y-267295261D01*
X463102438Y-267342880D01*
X463292914Y-267342880D01*
X463388152Y-267295261D01*
X463435771Y-267247642D01*
X463483390Y-267152404D01*
X463483390Y-266342880D01*
X463959580Y-267342880D02*
X463959580Y-266342880D01*
X464292914Y-267057166D01*
X464626247Y-266342880D01*
X464626247Y-267342880D01*
X464864342Y-267438119D02*
X465626247Y-267438119D01*
X466007200Y-266342880D02*
X466007200Y-266580976D01*
X465769104Y-266485738D02*
X466007200Y-266580976D01*
X466245295Y-266485738D01*
X465864342Y-266771452D02*
X466007200Y-266580976D01*
X466150057Y-266771452D01*
%TO.C,MX92*%
X442834400Y-343462880D02*
X442834400Y-342462880D01*
X443405828Y-343462880D01*
X443405828Y-342462880D01*
X443882019Y-342462880D02*
X443882019Y-343272404D01*
X443929638Y-343367642D01*
X443977257Y-343415261D01*
X444072495Y-343462880D01*
X444262971Y-343462880D01*
X444358209Y-343415261D01*
X444405828Y-343367642D01*
X444453447Y-343272404D01*
X444453447Y-342462880D01*
X444929638Y-343462880D02*
X444929638Y-342462880D01*
X445262971Y-343177166D01*
X445596304Y-342462880D01*
X445596304Y-343462880D01*
X445834400Y-343558119D02*
X446596304Y-343558119D01*
X446834400Y-343367642D02*
X446882019Y-343415261D01*
X446834400Y-343462880D01*
X446786780Y-343415261D01*
X446834400Y-343367642D01*
X446834400Y-343462880D01*
%TO.C,MX91*%
X442617504Y-324391280D02*
X442617504Y-323391280D01*
X443188933Y-324391280D01*
X443188933Y-323391280D01*
X443665123Y-323391280D02*
X443665123Y-324200804D01*
X443712742Y-324296042D01*
X443760361Y-324343661D01*
X443855600Y-324391280D01*
X444046076Y-324391280D01*
X444141314Y-324343661D01*
X444188933Y-324296042D01*
X444236552Y-324200804D01*
X444236552Y-323391280D01*
X444712742Y-324391280D02*
X444712742Y-323391280D01*
X445046076Y-324105566D01*
X445379409Y-323391280D01*
X445379409Y-324391280D01*
X445617504Y-324486519D02*
X446379409Y-324486519D01*
X446522266Y-323391280D02*
X447141314Y-323391280D01*
X446807980Y-323772233D01*
X446950838Y-323772233D01*
X447046076Y-323819852D01*
X447093695Y-323867471D01*
X447141314Y-323962709D01*
X447141314Y-324200804D01*
X447093695Y-324296042D01*
X447046076Y-324343661D01*
X446950838Y-324391280D01*
X446665123Y-324391280D01*
X446569885Y-324343661D01*
X446522266Y-324296042D01*
%TO.C,MX90*%
X442617504Y-305392080D02*
X442617504Y-304392080D01*
X443188933Y-305392080D01*
X443188933Y-304392080D01*
X443665123Y-304392080D02*
X443665123Y-305201604D01*
X443712742Y-305296842D01*
X443760361Y-305344461D01*
X443855600Y-305392080D01*
X444046076Y-305392080D01*
X444141314Y-305344461D01*
X444188933Y-305296842D01*
X444236552Y-305201604D01*
X444236552Y-304392080D01*
X444712742Y-305392080D02*
X444712742Y-304392080D01*
X445046076Y-305106366D01*
X445379409Y-304392080D01*
X445379409Y-305392080D01*
X445617504Y-305487319D02*
X446379409Y-305487319D01*
X447046076Y-304392080D02*
X446855600Y-304392080D01*
X446760361Y-304439700D01*
X446712742Y-304487319D01*
X446617504Y-304630176D01*
X446569885Y-304820652D01*
X446569885Y-305201604D01*
X446617504Y-305296842D01*
X446665123Y-305344461D01*
X446760361Y-305392080D01*
X446950838Y-305392080D01*
X447046076Y-305344461D01*
X447093695Y-305296842D01*
X447141314Y-305201604D01*
X447141314Y-304963509D01*
X447093695Y-304868271D01*
X447046076Y-304820652D01*
X446950838Y-304773033D01*
X446760361Y-304773033D01*
X446665123Y-304820652D01*
X446617504Y-304868271D01*
X446569885Y-304963509D01*
%TO.C,MX89*%
X442566704Y-286342080D02*
X442566704Y-285342080D01*
X443138133Y-286342080D01*
X443138133Y-285342080D01*
X443614323Y-285342080D02*
X443614323Y-286151604D01*
X443661942Y-286246842D01*
X443709561Y-286294461D01*
X443804800Y-286342080D01*
X443995276Y-286342080D01*
X444090514Y-286294461D01*
X444138133Y-286246842D01*
X444185752Y-286151604D01*
X444185752Y-285342080D01*
X444661942Y-286342080D02*
X444661942Y-285342080D01*
X444995276Y-286056366D01*
X445328609Y-285342080D01*
X445328609Y-286342080D01*
X445566704Y-286437319D02*
X446328609Y-286437319D01*
X446614323Y-286342080D02*
X446804800Y-286342080D01*
X446900038Y-286294461D01*
X446947657Y-286246842D01*
X447042895Y-286103985D01*
X447090514Y-285913509D01*
X447090514Y-285532557D01*
X447042895Y-285437319D01*
X446995276Y-285389700D01*
X446900038Y-285342080D01*
X446709561Y-285342080D01*
X446614323Y-285389700D01*
X446566704Y-285437319D01*
X446519085Y-285532557D01*
X446519085Y-285770652D01*
X446566704Y-285865890D01*
X446614323Y-285913509D01*
X446709561Y-285961128D01*
X446900038Y-285961128D01*
X446995276Y-285913509D01*
X447042895Y-285865890D01*
X447090514Y-285770652D01*
%TO.C,MX88*%
X442620685Y-267342880D02*
X442620685Y-266342880D01*
X443192114Y-267342880D01*
X443192114Y-266342880D01*
X443668304Y-266342880D02*
X443668304Y-267152404D01*
X443715923Y-267247642D01*
X443763542Y-267295261D01*
X443858780Y-267342880D01*
X444049257Y-267342880D01*
X444144495Y-267295261D01*
X444192114Y-267247642D01*
X444239733Y-267152404D01*
X444239733Y-266342880D01*
X444715923Y-267342880D02*
X444715923Y-266342880D01*
X445049257Y-267057166D01*
X445382590Y-266342880D01*
X445382590Y-267342880D01*
X445620685Y-267438119D02*
X446382590Y-267438119D01*
X447334971Y-266295261D02*
X446477828Y-267580976D01*
%TO.C,MX87*%
X423546304Y-324412880D02*
X423546304Y-323412880D01*
X424117733Y-324412880D01*
X424117733Y-323412880D01*
X424593923Y-323412880D02*
X424593923Y-324222404D01*
X424641542Y-324317642D01*
X424689161Y-324365261D01*
X424784400Y-324412880D01*
X424974876Y-324412880D01*
X425070114Y-324365261D01*
X425117733Y-324317642D01*
X425165352Y-324222404D01*
X425165352Y-323412880D01*
X425641542Y-324412880D02*
X425641542Y-323412880D01*
X425974876Y-324127166D01*
X426308209Y-323412880D01*
X426308209Y-324412880D01*
X426546304Y-324508119D02*
X427308209Y-324508119D01*
X427498685Y-323508119D02*
X427546304Y-323460500D01*
X427641542Y-323412880D01*
X427879638Y-323412880D01*
X427974876Y-323460500D01*
X428022495Y-323508119D01*
X428070114Y-323603357D01*
X428070114Y-323698595D01*
X428022495Y-323841452D01*
X427451066Y-324412880D01*
X428070114Y-324412880D01*
%TO.C,MX86*%
X423516704Y-305392080D02*
X423516704Y-304392080D01*
X424088133Y-305392080D01*
X424088133Y-304392080D01*
X424564323Y-304392080D02*
X424564323Y-305201604D01*
X424611942Y-305296842D01*
X424659561Y-305344461D01*
X424754800Y-305392080D01*
X424945276Y-305392080D01*
X425040514Y-305344461D01*
X425088133Y-305296842D01*
X425135752Y-305201604D01*
X425135752Y-304392080D01*
X425611942Y-305392080D02*
X425611942Y-304392080D01*
X425945276Y-305106366D01*
X426278609Y-304392080D01*
X426278609Y-305392080D01*
X426516704Y-305487319D02*
X427278609Y-305487319D01*
X427992895Y-304392080D02*
X427516704Y-304392080D01*
X427469085Y-304868271D01*
X427516704Y-304820652D01*
X427611942Y-304773033D01*
X427850038Y-304773033D01*
X427945276Y-304820652D01*
X427992895Y-304868271D01*
X428040514Y-304963509D01*
X428040514Y-305201604D01*
X427992895Y-305296842D01*
X427945276Y-305344461D01*
X427850038Y-305392080D01*
X427611942Y-305392080D01*
X427516704Y-305344461D01*
X427469085Y-305296842D01*
%TO.C,MX85*%
X423516704Y-286342080D02*
X423516704Y-285342080D01*
X424088133Y-286342080D01*
X424088133Y-285342080D01*
X424564323Y-285342080D02*
X424564323Y-286151604D01*
X424611942Y-286246842D01*
X424659561Y-286294461D01*
X424754800Y-286342080D01*
X424945276Y-286342080D01*
X425040514Y-286294461D01*
X425088133Y-286246842D01*
X425135752Y-286151604D01*
X425135752Y-285342080D01*
X425611942Y-286342080D02*
X425611942Y-285342080D01*
X425945276Y-286056366D01*
X426278609Y-285342080D01*
X426278609Y-286342080D01*
X426516704Y-286437319D02*
X427278609Y-286437319D01*
X427659561Y-285770652D02*
X427564323Y-285723033D01*
X427516704Y-285675414D01*
X427469085Y-285580176D01*
X427469085Y-285532557D01*
X427516704Y-285437319D01*
X427564323Y-285389700D01*
X427659561Y-285342080D01*
X427850038Y-285342080D01*
X427945276Y-285389700D01*
X427992895Y-285437319D01*
X428040514Y-285532557D01*
X428040514Y-285580176D01*
X427992895Y-285675414D01*
X427945276Y-285723033D01*
X427850038Y-285770652D01*
X427659561Y-285770652D01*
X427564323Y-285818271D01*
X427516704Y-285865890D01*
X427469085Y-285961128D01*
X427469085Y-286151604D01*
X427516704Y-286246842D01*
X427564323Y-286294461D01*
X427659561Y-286342080D01*
X427850038Y-286342080D01*
X427945276Y-286294461D01*
X427992895Y-286246842D01*
X428040514Y-286151604D01*
X428040514Y-285961128D01*
X427992895Y-285865890D01*
X427945276Y-285818271D01*
X427850038Y-285770652D01*
%TO.C,MX84*%
X423710361Y-267342880D02*
X423710361Y-266342880D01*
X424281790Y-267342880D01*
X424281790Y-266342880D01*
X424757980Y-266342880D02*
X424757980Y-267152404D01*
X424805600Y-267247642D01*
X424853219Y-267295261D01*
X424948457Y-267342880D01*
X425138933Y-267342880D01*
X425234171Y-267295261D01*
X425281790Y-267247642D01*
X425329409Y-267152404D01*
X425329409Y-266342880D01*
X425805600Y-267342880D02*
X425805600Y-266342880D01*
X426138933Y-267057166D01*
X426472266Y-266342880D01*
X426472266Y-267342880D01*
X426710361Y-267438119D02*
X427472266Y-267438119D01*
X427615123Y-267723833D02*
X427662742Y-267676214D01*
X427757980Y-267533357D01*
X427805600Y-267438119D01*
X427853219Y-267295261D01*
X427900838Y-267057166D01*
X427900838Y-266866690D01*
X427853219Y-266628595D01*
X427805600Y-266485738D01*
X427757980Y-266390500D01*
X427662742Y-266247642D01*
X427615123Y-266200023D01*
%TO.C,MX82*%
X404496304Y-324412880D02*
X404496304Y-323412880D01*
X405067733Y-324412880D01*
X405067733Y-323412880D01*
X405543923Y-323412880D02*
X405543923Y-324222404D01*
X405591542Y-324317642D01*
X405639161Y-324365261D01*
X405734400Y-324412880D01*
X405924876Y-324412880D01*
X406020114Y-324365261D01*
X406067733Y-324317642D01*
X406115352Y-324222404D01*
X406115352Y-323412880D01*
X406591542Y-324412880D02*
X406591542Y-323412880D01*
X406924876Y-324127166D01*
X407258209Y-323412880D01*
X407258209Y-324412880D01*
X407496304Y-324508119D02*
X408258209Y-324508119D01*
X409020114Y-324412880D02*
X408448685Y-324412880D01*
X408734400Y-324412880D02*
X408734400Y-323412880D01*
X408639161Y-323555738D01*
X408543923Y-323650976D01*
X408448685Y-323698595D01*
%TO.C,MX81*%
X404466704Y-305392080D02*
X404466704Y-304392080D01*
X405038133Y-305392080D01*
X405038133Y-304392080D01*
X405514323Y-304392080D02*
X405514323Y-305201604D01*
X405561942Y-305296842D01*
X405609561Y-305344461D01*
X405704800Y-305392080D01*
X405895276Y-305392080D01*
X405990514Y-305344461D01*
X406038133Y-305296842D01*
X406085752Y-305201604D01*
X406085752Y-304392080D01*
X406561942Y-305392080D02*
X406561942Y-304392080D01*
X406895276Y-305106366D01*
X407228609Y-304392080D01*
X407228609Y-305392080D01*
X407466704Y-305487319D02*
X408228609Y-305487319D01*
X408895276Y-304725414D02*
X408895276Y-305392080D01*
X408657180Y-304344461D02*
X408419085Y-305058747D01*
X409038133Y-305058747D01*
%TO.C,MX80*%
X404466704Y-286342080D02*
X404466704Y-285342080D01*
X405038133Y-286342080D01*
X405038133Y-285342080D01*
X405514323Y-285342080D02*
X405514323Y-286151604D01*
X405561942Y-286246842D01*
X405609561Y-286294461D01*
X405704800Y-286342080D01*
X405895276Y-286342080D01*
X405990514Y-286294461D01*
X406038133Y-286246842D01*
X406085752Y-286151604D01*
X406085752Y-285342080D01*
X406561942Y-286342080D02*
X406561942Y-285342080D01*
X406895276Y-286056366D01*
X407228609Y-285342080D01*
X407228609Y-286342080D01*
X407466704Y-286437319D02*
X408228609Y-286437319D01*
X408371466Y-285342080D02*
X409038133Y-285342080D01*
X408609561Y-286342080D01*
%TO.C,MX79*%
X404609561Y-267292080D02*
X404609561Y-266292080D01*
X405180990Y-267292080D01*
X405180990Y-266292080D01*
X405657180Y-266292080D02*
X405657180Y-267101604D01*
X405704800Y-267196842D01*
X405752419Y-267244461D01*
X405847657Y-267292080D01*
X406038133Y-267292080D01*
X406133371Y-267244461D01*
X406180990Y-267196842D01*
X406228609Y-267101604D01*
X406228609Y-266292080D01*
X406704800Y-267292080D02*
X406704800Y-266292080D01*
X407038133Y-267006366D01*
X407371466Y-266292080D01*
X407371466Y-267292080D01*
X407609561Y-267387319D02*
X408371466Y-267387319D01*
X408895276Y-267673033D02*
X408847657Y-267625414D01*
X408752419Y-267482557D01*
X408704800Y-267387319D01*
X408657180Y-267244461D01*
X408609561Y-267006366D01*
X408609561Y-266815890D01*
X408657180Y-266577795D01*
X408704800Y-266434938D01*
X408752419Y-266339700D01*
X408847657Y-266196842D01*
X408895276Y-266149223D01*
%TO.C,MX78*%
X376756800Y-324391280D02*
X376756800Y-323724614D01*
X376756800Y-323915090D02*
X376804419Y-323819852D01*
X376852038Y-323772233D01*
X376947276Y-323724614D01*
X377042514Y-323724614D01*
X377375847Y-324391280D02*
X377375847Y-323724614D01*
X377375847Y-323391280D02*
X377328228Y-323438900D01*
X377375847Y-323486519D01*
X377423466Y-323438900D01*
X377375847Y-323391280D01*
X377375847Y-323486519D01*
X378280609Y-323724614D02*
X378280609Y-324534138D01*
X378232990Y-324629376D01*
X378185371Y-324676995D01*
X378090133Y-324724614D01*
X377947276Y-324724614D01*
X377852038Y-324676995D01*
X378280609Y-324343661D02*
X378185371Y-324391280D01*
X377994895Y-324391280D01*
X377899657Y-324343661D01*
X377852038Y-324296042D01*
X377804419Y-324200804D01*
X377804419Y-323915090D01*
X377852038Y-323819852D01*
X377899657Y-323772233D01*
X377994895Y-323724614D01*
X378185371Y-323724614D01*
X378280609Y-323772233D01*
X378756800Y-324391280D02*
X378756800Y-323391280D01*
X379185371Y-324391280D02*
X379185371Y-323867471D01*
X379137752Y-323772233D01*
X379042514Y-323724614D01*
X378899657Y-323724614D01*
X378804419Y-323772233D01*
X378756800Y-323819852D01*
X379518704Y-323724614D02*
X379899657Y-323724614D01*
X379661561Y-323391280D02*
X379661561Y-324248423D01*
X379709180Y-324343661D01*
X379804419Y-324391280D01*
X379899657Y-324391280D01*
%TO.C,MX76*%
X358022114Y-324391280D02*
X358022114Y-323391280D01*
X358022114Y-324343661D02*
X357926876Y-324391280D01*
X357736400Y-324391280D01*
X357641161Y-324343661D01*
X357593542Y-324296042D01*
X357545923Y-324200804D01*
X357545923Y-323915090D01*
X357593542Y-323819852D01*
X357641161Y-323772233D01*
X357736400Y-323724614D01*
X357926876Y-323724614D01*
X358022114Y-323772233D01*
X358641161Y-324391280D02*
X358545923Y-324343661D01*
X358498304Y-324296042D01*
X358450685Y-324200804D01*
X358450685Y-323915090D01*
X358498304Y-323819852D01*
X358545923Y-323772233D01*
X358641161Y-323724614D01*
X358784019Y-323724614D01*
X358879257Y-323772233D01*
X358926876Y-323819852D01*
X358974495Y-323915090D01*
X358974495Y-324200804D01*
X358926876Y-324296042D01*
X358879257Y-324343661D01*
X358784019Y-324391280D01*
X358641161Y-324391280D01*
X359307828Y-323724614D02*
X359498304Y-324391280D01*
X359688780Y-323915090D01*
X359879257Y-324391280D01*
X360069733Y-323724614D01*
X360450685Y-323724614D02*
X360450685Y-324391280D01*
X360450685Y-323819852D02*
X360498304Y-323772233D01*
X360593542Y-323724614D01*
X360736400Y-323724614D01*
X360831638Y-323772233D01*
X360879257Y-323867471D01*
X360879257Y-324391280D01*
%TO.C,MX75*%
X358968704Y-304674614D02*
X358968704Y-305341280D01*
X358540133Y-304674614D02*
X358540133Y-305198423D01*
X358587752Y-305293661D01*
X358682990Y-305341280D01*
X358825847Y-305341280D01*
X358921085Y-305293661D01*
X358968704Y-305246042D01*
X359444895Y-304674614D02*
X359444895Y-305674614D01*
X359444895Y-304722233D02*
X359540133Y-304674614D01*
X359730609Y-304674614D01*
X359825847Y-304722233D01*
X359873466Y-304769852D01*
X359921085Y-304865090D01*
X359921085Y-305150804D01*
X359873466Y-305246042D01*
X359825847Y-305293661D01*
X359730609Y-305341280D01*
X359540133Y-305341280D01*
X359444895Y-305293661D01*
%TO.C,MX74*%
X339275847Y-324391280D02*
X339180609Y-324343661D01*
X339132990Y-324248423D01*
X339132990Y-323391280D01*
X340037752Y-324343661D02*
X339942514Y-324391280D01*
X339752038Y-324391280D01*
X339656800Y-324343661D01*
X339609180Y-324248423D01*
X339609180Y-323867471D01*
X339656800Y-323772233D01*
X339752038Y-323724614D01*
X339942514Y-323724614D01*
X340037752Y-323772233D01*
X340085371Y-323867471D01*
X340085371Y-323962709D01*
X339609180Y-324057947D01*
X340371085Y-323724614D02*
X340752038Y-323724614D01*
X340513942Y-324391280D02*
X340513942Y-323534138D01*
X340561561Y-323438900D01*
X340656800Y-323391280D01*
X340752038Y-323391280D01*
X340942514Y-323724614D02*
X341323466Y-323724614D01*
X341085371Y-323391280D02*
X341085371Y-324248423D01*
X341132990Y-324343661D01*
X341228228Y-324391280D01*
X341323466Y-324391280D01*
%TO.C,MX72*%
X309289771Y-266717471D02*
X309432628Y-266765090D01*
X309480247Y-266812709D01*
X309527866Y-266907947D01*
X309527866Y-267050804D01*
X309480247Y-267146042D01*
X309432628Y-267193661D01*
X309337390Y-267241280D01*
X308956438Y-267241280D01*
X308956438Y-266241280D01*
X309289771Y-266241280D01*
X309385009Y-266288900D01*
X309432628Y-266336519D01*
X309480247Y-266431757D01*
X309480247Y-266526995D01*
X309432628Y-266622233D01*
X309385009Y-266669852D01*
X309289771Y-266717471D01*
X308956438Y-266717471D01*
X309956438Y-267241280D02*
X309956438Y-266241280D01*
X310051676Y-266860328D02*
X310337390Y-267241280D01*
X310337390Y-266574614D02*
X309956438Y-266955566D01*
X310718342Y-267193661D02*
X310861200Y-267241280D01*
X311099295Y-267241280D01*
X311194533Y-267193661D01*
X311242152Y-267146042D01*
X311289771Y-267050804D01*
X311289771Y-266955566D01*
X311242152Y-266860328D01*
X311194533Y-266812709D01*
X311099295Y-266765090D01*
X310908819Y-266717471D01*
X310813580Y-266669852D01*
X310765961Y-266622233D01*
X310718342Y-266526995D01*
X310718342Y-266431757D01*
X310765961Y-266336519D01*
X310813580Y-266288900D01*
X310908819Y-266241280D01*
X311146914Y-266241280D01*
X311289771Y-266288900D01*
X311718342Y-266574614D02*
X311718342Y-267574614D01*
X311718342Y-266622233D02*
X311813580Y-266574614D01*
X312004057Y-266574614D01*
X312099295Y-266622233D01*
X312146914Y-266669852D01*
X312194533Y-266765090D01*
X312194533Y-267050804D01*
X312146914Y-267146042D01*
X312099295Y-267193661D01*
X312004057Y-267241280D01*
X311813580Y-267241280D01*
X311718342Y-267193661D01*
X313051676Y-267241280D02*
X313051676Y-266717471D01*
X313004057Y-266622233D01*
X312908819Y-266574614D01*
X312718342Y-266574614D01*
X312623104Y-266622233D01*
X313051676Y-267193661D02*
X312956438Y-267241280D01*
X312718342Y-267241280D01*
X312623104Y-267193661D01*
X312575485Y-267098423D01*
X312575485Y-267003185D01*
X312623104Y-266907947D01*
X312718342Y-266860328D01*
X312956438Y-266860328D01*
X313051676Y-266812709D01*
X313956438Y-267193661D02*
X313861200Y-267241280D01*
X313670723Y-267241280D01*
X313575485Y-267193661D01*
X313527866Y-267146042D01*
X313480247Y-267050804D01*
X313480247Y-266765090D01*
X313527866Y-266669852D01*
X313575485Y-266622233D01*
X313670723Y-266574614D01*
X313861200Y-266574614D01*
X313956438Y-266622233D01*
X314765961Y-267193661D02*
X314670723Y-267241280D01*
X314480247Y-267241280D01*
X314385009Y-267193661D01*
X314337390Y-267098423D01*
X314337390Y-266717471D01*
X314385009Y-266622233D01*
X314480247Y-266574614D01*
X314670723Y-266574614D01*
X314765961Y-266622233D01*
X314813580Y-266717471D01*
X314813580Y-266812709D01*
X314337390Y-266907947D01*
%TO.C,MX70*%
X287726476Y-304674614D02*
X288440761Y-304674614D01*
X288012190Y-304246042D02*
X287726476Y-305531757D01*
X288345523Y-305103185D02*
X287631238Y-305103185D01*
X288059809Y-305531757D02*
X288345523Y-304246042D01*
%TO.C,MX69*%
X292382628Y-266146042D02*
X293239771Y-267431757D01*
%TO.C,MX67*%
X268795523Y-304341280D02*
X268795523Y-304531757D01*
X269176476Y-304341280D02*
X269176476Y-304531757D01*
%TO.C,MX66*%
X282736990Y-286624614D02*
X282975085Y-286624614D01*
X282975085Y-285196042D01*
X282736990Y-285196042D01*
X283403657Y-286672233D02*
X283451276Y-286672233D01*
X283546514Y-286624614D01*
X283594133Y-286529376D01*
X283594133Y-286053185D01*
X283641752Y-285957947D01*
X283736990Y-285910328D01*
X283641752Y-285862709D01*
X283594133Y-285767471D01*
X283594133Y-285291280D01*
X283546514Y-285196042D01*
X283451276Y-285148423D01*
X283403657Y-285148423D01*
%TO.C,MX65*%
X273380247Y-266860328D02*
X274142152Y-266860328D01*
X273761200Y-267241280D02*
X273761200Y-266479376D01*
%TO.C,MX63*%
X256949866Y-324486519D02*
X256854628Y-324438900D01*
X256759390Y-324343661D01*
X256616533Y-324200804D01*
X256521295Y-324153185D01*
X256426057Y-324153185D01*
X256473676Y-324391280D02*
X256378438Y-324343661D01*
X256283200Y-324248423D01*
X256235580Y-324057947D01*
X256235580Y-323724614D01*
X256283200Y-323534138D01*
X256378438Y-323438900D01*
X256473676Y-323391280D01*
X256664152Y-323391280D01*
X256759390Y-323438900D01*
X256854628Y-323534138D01*
X256902247Y-323724614D01*
X256902247Y-324057947D01*
X256854628Y-324248423D01*
X256759390Y-324343661D01*
X256664152Y-324391280D01*
X256473676Y-324391280D01*
X257759390Y-323724614D02*
X257759390Y-324391280D01*
X257330819Y-323724614D02*
X257330819Y-324248423D01*
X257378438Y-324343661D01*
X257473676Y-324391280D01*
X257616533Y-324391280D01*
X257711771Y-324343661D01*
X257759390Y-324296042D01*
X258616533Y-324343661D02*
X258521295Y-324391280D01*
X258330819Y-324391280D01*
X258235580Y-324343661D01*
X258187961Y-324248423D01*
X258187961Y-323867471D01*
X258235580Y-323772233D01*
X258330819Y-323724614D01*
X258521295Y-323724614D01*
X258616533Y-323772233D01*
X258664152Y-323867471D01*
X258664152Y-323962709D01*
X258187961Y-324057947D01*
X259045104Y-324343661D02*
X259140342Y-324391280D01*
X259330819Y-324391280D01*
X259426057Y-324343661D01*
X259473676Y-324248423D01*
X259473676Y-324200804D01*
X259426057Y-324105566D01*
X259330819Y-324057947D01*
X259187961Y-324057947D01*
X259092723Y-324010328D01*
X259045104Y-323915090D01*
X259045104Y-323867471D01*
X259092723Y-323772233D01*
X259187961Y-323724614D01*
X259330819Y-323724614D01*
X259426057Y-323772233D01*
X259759390Y-323724614D02*
X260140342Y-323724614D01*
X259902247Y-323391280D02*
X259902247Y-324248423D01*
X259949866Y-324343661D01*
X260045104Y-324391280D01*
X260140342Y-324391280D01*
X260473676Y-324391280D02*
X260473676Y-323724614D01*
X260473676Y-323391280D02*
X260426057Y-323438900D01*
X260473676Y-323486519D01*
X260521295Y-323438900D01*
X260473676Y-323391280D01*
X260473676Y-323486519D01*
X261092723Y-324391280D02*
X260997485Y-324343661D01*
X260949866Y-324296042D01*
X260902247Y-324200804D01*
X260902247Y-323915090D01*
X260949866Y-323819852D01*
X260997485Y-323772233D01*
X261092723Y-323724614D01*
X261235580Y-323724614D01*
X261330819Y-323772233D01*
X261378438Y-323819852D01*
X261426057Y-323915090D01*
X261426057Y-324200804D01*
X261378438Y-324296042D01*
X261330819Y-324343661D01*
X261235580Y-324391280D01*
X261092723Y-324391280D01*
X261854628Y-323724614D02*
X261854628Y-324391280D01*
X261854628Y-323819852D02*
X261902247Y-323772233D01*
X261997485Y-323724614D01*
X262140342Y-323724614D01*
X262235580Y-323772233D01*
X262283200Y-323867471D01*
X262283200Y-324391280D01*
%TO.C,MX62*%
X248269333Y-305246042D02*
X248221714Y-305293661D01*
X248078857Y-305341280D01*
X247983619Y-305341280D01*
X247840761Y-305293661D01*
X247745523Y-305198423D01*
X247697904Y-305103185D01*
X247650285Y-304912709D01*
X247650285Y-304769852D01*
X247697904Y-304579376D01*
X247745523Y-304484138D01*
X247840761Y-304388900D01*
X247983619Y-304341280D01*
X248078857Y-304341280D01*
X248221714Y-304388900D01*
X248269333Y-304436519D01*
X248888380Y-304341280D02*
X249078857Y-304341280D01*
X249174095Y-304388900D01*
X249269333Y-304484138D01*
X249316952Y-304674614D01*
X249316952Y-305007947D01*
X249269333Y-305198423D01*
X249174095Y-305293661D01*
X249078857Y-305341280D01*
X248888380Y-305341280D01*
X248793142Y-305293661D01*
X248697904Y-305198423D01*
X248650285Y-305007947D01*
X248650285Y-304674614D01*
X248697904Y-304484138D01*
X248793142Y-304388900D01*
X248888380Y-304341280D01*
X250221714Y-305341280D02*
X249745523Y-305341280D01*
X249745523Y-304341280D01*
X250745523Y-304341280D02*
X250936000Y-304341280D01*
X251031238Y-304388900D01*
X251126476Y-304484138D01*
X251174095Y-304674614D01*
X251174095Y-305007947D01*
X251126476Y-305198423D01*
X251031238Y-305293661D01*
X250936000Y-305341280D01*
X250745523Y-305341280D01*
X250650285Y-305293661D01*
X250555047Y-305198423D01*
X250507428Y-305007947D01*
X250507428Y-304674614D01*
X250555047Y-304484138D01*
X250650285Y-304388900D01*
X250745523Y-304341280D01*
X251602666Y-305341280D02*
X251602666Y-304341280D01*
X252174095Y-305341280D01*
X252174095Y-304341280D01*
%TO.C,MX61*%
X264067942Y-286624614D02*
X263829847Y-286624614D01*
X263829847Y-285196042D01*
X264067942Y-285196042D01*
X264734609Y-286672233D02*
X264686990Y-286672233D01*
X264591752Y-286624614D01*
X264544133Y-286529376D01*
X264544133Y-286053185D01*
X264496514Y-285957947D01*
X264401276Y-285910328D01*
X264496514Y-285862709D01*
X264544133Y-285767471D01*
X264544133Y-285291280D01*
X264591752Y-285196042D01*
X264686990Y-285148423D01*
X264734609Y-285148423D01*
%TO.C,MX60*%
X254330247Y-266860328D02*
X255092152Y-266860328D01*
%TO.C,MX58*%
X240233200Y-324296042D02*
X240280819Y-324343661D01*
X240233200Y-324391280D01*
X240185580Y-324343661D01*
X240233200Y-324296042D01*
X240233200Y-324391280D01*
%TO.C,MX57*%
X231195523Y-305341280D02*
X230719333Y-305341280D01*
X230719333Y-304341280D01*
%TO.C,MX56*%
X244898895Y-286291280D02*
X244898895Y-285291280D01*
X245279847Y-285291280D01*
X245375085Y-285338900D01*
X245422704Y-285386519D01*
X245470323Y-285481757D01*
X245470323Y-285624614D01*
X245422704Y-285719852D01*
X245375085Y-285767471D01*
X245279847Y-285815090D01*
X244898895Y-285815090D01*
%TO.C,MX55*%
X235613580Y-266241280D02*
X235708819Y-266241280D01*
X235804057Y-266288900D01*
X235851676Y-266336519D01*
X235899295Y-266431757D01*
X235946914Y-266622233D01*
X235946914Y-266860328D01*
X235899295Y-267050804D01*
X235851676Y-267146042D01*
X235804057Y-267193661D01*
X235708819Y-267241280D01*
X235613580Y-267241280D01*
X235518342Y-267193661D01*
X235470723Y-267146042D01*
X235423104Y-267050804D01*
X235375485Y-266860328D01*
X235375485Y-266622233D01*
X235423104Y-266431757D01*
X235470723Y-266336519D01*
X235518342Y-266288900D01*
X235613580Y-266241280D01*
%TO.C,MX53*%
X221230819Y-324343661D02*
X221230819Y-324391280D01*
X221183200Y-324486519D01*
X221135580Y-324534138D01*
%TO.C,MX52*%
X211523295Y-305341280D02*
X211523295Y-304341280D01*
X212094723Y-305341280D02*
X211666152Y-304769852D01*
X212094723Y-304341280D02*
X211523295Y-304912709D01*
%TO.C,MX51*%
X226015561Y-285291280D02*
X226206038Y-285291280D01*
X226301276Y-285338900D01*
X226396514Y-285434138D01*
X226444133Y-285624614D01*
X226444133Y-285957947D01*
X226396514Y-286148423D01*
X226301276Y-286243661D01*
X226206038Y-286291280D01*
X226015561Y-286291280D01*
X225920323Y-286243661D01*
X225825085Y-286148423D01*
X225777466Y-285957947D01*
X225777466Y-285624614D01*
X225825085Y-285434138D01*
X225920323Y-285338900D01*
X226015561Y-285291280D01*
%TO.C,MX50*%
X216420723Y-267241280D02*
X216611200Y-267241280D01*
X216706438Y-267193661D01*
X216754057Y-267146042D01*
X216849295Y-267003185D01*
X216896914Y-266812709D01*
X216896914Y-266431757D01*
X216849295Y-266336519D01*
X216801676Y-266288900D01*
X216706438Y-266241280D01*
X216515961Y-266241280D01*
X216420723Y-266288900D01*
X216373104Y-266336519D01*
X216325485Y-266431757D01*
X216325485Y-266669852D01*
X216373104Y-266765090D01*
X216420723Y-266812709D01*
X216515961Y-266860328D01*
X216706438Y-266860328D01*
X216801676Y-266812709D01*
X216849295Y-266765090D01*
X216896914Y-266669852D01*
%TO.C,MX48*%
X201799866Y-324391280D02*
X201799866Y-323391280D01*
X202133200Y-324105566D01*
X202466533Y-323391280D01*
X202466533Y-324391280D01*
%TO.C,MX47*%
X192827257Y-304341280D02*
X192827257Y-305055566D01*
X192779638Y-305198423D01*
X192684400Y-305293661D01*
X192541542Y-305341280D01*
X192446304Y-305341280D01*
%TO.C,MX46*%
X207010000Y-286291280D02*
X207010000Y-285291280D01*
%TO.C,MX45*%
X197415161Y-266669852D02*
X197319923Y-266622233D01*
X197272304Y-266574614D01*
X197224685Y-266479376D01*
X197224685Y-266431757D01*
X197272304Y-266336519D01*
X197319923Y-266288900D01*
X197415161Y-266241280D01*
X197605638Y-266241280D01*
X197700876Y-266288900D01*
X197748495Y-266336519D01*
X197796114Y-266431757D01*
X197796114Y-266479376D01*
X197748495Y-266574614D01*
X197700876Y-266622233D01*
X197605638Y-266669852D01*
X197415161Y-266669852D01*
X197319923Y-266717471D01*
X197272304Y-266765090D01*
X197224685Y-266860328D01*
X197224685Y-267050804D01*
X197272304Y-267146042D01*
X197319923Y-267193661D01*
X197415161Y-267241280D01*
X197605638Y-267241280D01*
X197700876Y-267193661D01*
X197748495Y-267146042D01*
X197796114Y-267050804D01*
X197796114Y-266860328D01*
X197748495Y-266765090D01*
X197700876Y-266717471D01*
X197605638Y-266669852D01*
%TO.C,MX43*%
X182827085Y-324391280D02*
X182827085Y-323391280D01*
X183398514Y-324391280D01*
X183398514Y-323391280D01*
%TO.C,MX42*%
X173348685Y-305341280D02*
X173348685Y-304341280D01*
X173348685Y-304817471D02*
X173920114Y-304817471D01*
X173920114Y-305341280D02*
X173920114Y-304341280D01*
%TO.C,MX41*%
X187674285Y-285291280D02*
X187674285Y-286100804D01*
X187721904Y-286196042D01*
X187769523Y-286243661D01*
X187864761Y-286291280D01*
X188055238Y-286291280D01*
X188150476Y-286243661D01*
X188198095Y-286196042D01*
X188245714Y-286100804D01*
X188245714Y-285291280D01*
%TO.C,MX40*%
X178127066Y-266241280D02*
X178793733Y-266241280D01*
X178365161Y-267241280D01*
%TO.C,MX38*%
X164155428Y-323867471D02*
X164298285Y-323915090D01*
X164345904Y-323962709D01*
X164393523Y-324057947D01*
X164393523Y-324200804D01*
X164345904Y-324296042D01*
X164298285Y-324343661D01*
X164203047Y-324391280D01*
X163822095Y-324391280D01*
X163822095Y-323391280D01*
X164155428Y-323391280D01*
X164250666Y-323438900D01*
X164298285Y-323486519D01*
X164345904Y-323581757D01*
X164345904Y-323676995D01*
X164298285Y-323772233D01*
X164250666Y-323819852D01*
X164155428Y-323867471D01*
X163822095Y-323867471D01*
%TO.C,MX37*%
X154825104Y-304410500D02*
X154729866Y-304362880D01*
X154587009Y-304362880D01*
X154444152Y-304410500D01*
X154348914Y-304505738D01*
X154301295Y-304600976D01*
X154253676Y-304791452D01*
X154253676Y-304934309D01*
X154301295Y-305124785D01*
X154348914Y-305220023D01*
X154444152Y-305315261D01*
X154587009Y-305362880D01*
X154682247Y-305362880D01*
X154825104Y-305315261D01*
X154872723Y-305267642D01*
X154872723Y-304934309D01*
X154682247Y-304934309D01*
%TO.C,MX36*%
X168910000Y-285815090D02*
X168910000Y-286291280D01*
X168576666Y-285291280D02*
X168910000Y-285815090D01*
X169243333Y-285291280D01*
%TO.C,MX35*%
X159600876Y-266241280D02*
X159410400Y-266241280D01*
X159315161Y-266288900D01*
X159267542Y-266336519D01*
X159172304Y-266479376D01*
X159124685Y-266669852D01*
X159124685Y-267050804D01*
X159172304Y-267146042D01*
X159219923Y-267193661D01*
X159315161Y-267241280D01*
X159505638Y-267241280D01*
X159600876Y-267193661D01*
X159648495Y-267146042D01*
X159696114Y-267050804D01*
X159696114Y-266812709D01*
X159648495Y-266717471D01*
X159600876Y-266669852D01*
X159505638Y-266622233D01*
X159315161Y-266622233D01*
X159219923Y-266669852D01*
X159172304Y-266717471D01*
X159124685Y-266812709D01*
%TO.C,MX32*%
X144649866Y-323391280D02*
X144983200Y-324391280D01*
X145316533Y-323391280D01*
%TO.C,MX31*%
X135677257Y-304839071D02*
X135343923Y-304839071D01*
X135343923Y-305362880D02*
X135343923Y-304362880D01*
X135820114Y-304362880D01*
%TO.C,MX30*%
X149472685Y-285291280D02*
X150044114Y-285291280D01*
X149758400Y-286291280D02*
X149758400Y-285291280D01*
%TO.C,MX29*%
X140577295Y-266212080D02*
X140101104Y-266212080D01*
X140053485Y-266688271D01*
X140101104Y-266640652D01*
X140196342Y-266593033D01*
X140434438Y-266593033D01*
X140529676Y-266640652D01*
X140577295Y-266688271D01*
X140624914Y-266783509D01*
X140624914Y-267021604D01*
X140577295Y-267116842D01*
X140529676Y-267164461D01*
X140434438Y-267212080D01*
X140196342Y-267212080D01*
X140101104Y-267164461D01*
X140053485Y-267116842D01*
%TO.C,MX27*%
X126242723Y-324296042D02*
X126195104Y-324343661D01*
X126052247Y-324391280D01*
X125957009Y-324391280D01*
X125814152Y-324343661D01*
X125718914Y-324248423D01*
X125671295Y-324153185D01*
X125623676Y-323962709D01*
X125623676Y-323819852D01*
X125671295Y-323629376D01*
X125718914Y-323534138D01*
X125814152Y-323438900D01*
X125957009Y-323391280D01*
X126052247Y-323391280D01*
X126195104Y-323438900D01*
X126242723Y-323486519D01*
%TO.C,MX26*%
X116192895Y-305362880D02*
X116192895Y-304362880D01*
X116430990Y-304362880D01*
X116573847Y-304410500D01*
X116669085Y-304505738D01*
X116716704Y-304600976D01*
X116764323Y-304791452D01*
X116764323Y-304934309D01*
X116716704Y-305124785D01*
X116669085Y-305220023D01*
X116573847Y-305315261D01*
X116430990Y-305362880D01*
X116192895Y-305362880D01*
%TO.C,MX25*%
X131017923Y-286291280D02*
X130684590Y-285815090D01*
X130446495Y-286291280D02*
X130446495Y-285291280D01*
X130827447Y-285291280D01*
X130922685Y-285338900D01*
X130970304Y-285386519D01*
X131017923Y-285481757D01*
X131017923Y-285624614D01*
X130970304Y-285719852D01*
X130922685Y-285767471D01*
X130827447Y-285815090D01*
X130446495Y-285815090D01*
%TO.C,MX24*%
X121450076Y-266523814D02*
X121450076Y-267190480D01*
X121211980Y-266142861D02*
X120973885Y-266857147D01*
X121592933Y-266857147D01*
%TO.C,MX22*%
X106549866Y-323391280D02*
X107216533Y-324391280D01*
X107216533Y-323391280D02*
X106549866Y-324391280D01*
%TO.C,MX21*%
X97097885Y-305293661D02*
X97240742Y-305341280D01*
X97478838Y-305341280D01*
X97574076Y-305293661D01*
X97621695Y-305246042D01*
X97669314Y-305150804D01*
X97669314Y-305055566D01*
X97621695Y-304960328D01*
X97574076Y-304912709D01*
X97478838Y-304865090D01*
X97288361Y-304817471D01*
X97193123Y-304769852D01*
X97145504Y-304722233D01*
X97097885Y-304626995D01*
X97097885Y-304531757D01*
X97145504Y-304436519D01*
X97193123Y-304388900D01*
X97288361Y-304341280D01*
X97526457Y-304341280D01*
X97669314Y-304388900D01*
%TO.C,MX20*%
X111444114Y-285742071D02*
X111777447Y-285742071D01*
X111920304Y-286265880D02*
X111444114Y-286265880D01*
X111444114Y-285265880D01*
X111920304Y-285265880D01*
%TO.C,MX19*%
X101876266Y-266190480D02*
X102495314Y-266190480D01*
X102161980Y-266571433D01*
X102304838Y-266571433D01*
X102400076Y-266619052D01*
X102447695Y-266666671D01*
X102495314Y-266761909D01*
X102495314Y-267000004D01*
X102447695Y-267095242D01*
X102400076Y-267142861D01*
X102304838Y-267190480D01*
X102019123Y-267190480D01*
X101923885Y-267142861D01*
X101876266Y-267095242D01*
%TO.C,MX17*%
X87499866Y-323391280D02*
X88166533Y-323391280D01*
X87499866Y-324391280D01*
X88166533Y-324391280D01*
%TO.C,MX16*%
X78095504Y-305055566D02*
X78571695Y-305055566D01*
X78000266Y-305341280D02*
X78333600Y-304341280D01*
X78666933Y-305341280D01*
%TO.C,MX15*%
X92179828Y-285265880D02*
X92417923Y-286265880D01*
X92608400Y-285551595D01*
X92798876Y-286265880D01*
X93036971Y-285265880D01*
%TO.C,MX14*%
X82873885Y-266285719D02*
X82921504Y-266238100D01*
X83016742Y-266190480D01*
X83254838Y-266190480D01*
X83350076Y-266238100D01*
X83397695Y-266285719D01*
X83445314Y-266380957D01*
X83445314Y-266476195D01*
X83397695Y-266619052D01*
X82826266Y-267190480D01*
X83445314Y-267190480D01*
%TO.C,MX11*%
X68545104Y-323724614D02*
X67783200Y-324010328D01*
X68545104Y-324296042D01*
X69021295Y-323724614D02*
X69783200Y-324010328D01*
X69021295Y-324296042D01*
%TO.C,MX10*%
X58167161Y-305216842D02*
X58119542Y-305264461D01*
X57976685Y-305312080D01*
X57881447Y-305312080D01*
X57738590Y-305264461D01*
X57643352Y-305169223D01*
X57595733Y-305073985D01*
X57548114Y-304883509D01*
X57548114Y-304740652D01*
X57595733Y-304550176D01*
X57643352Y-304454938D01*
X57738590Y-304359700D01*
X57881447Y-304312080D01*
X57976685Y-304312080D01*
X58119542Y-304359700D01*
X58167161Y-304407319D01*
X58548114Y-305026366D02*
X59024304Y-305026366D01*
X58452876Y-305312080D02*
X58786209Y-304312080D01*
X59119542Y-305312080D01*
X59452876Y-305312080D02*
X59452876Y-304312080D01*
X59833828Y-304312080D01*
X59929066Y-304359700D01*
X59976685Y-304407319D01*
X60024304Y-304502557D01*
X60024304Y-304645414D01*
X59976685Y-304740652D01*
X59929066Y-304788271D01*
X59833828Y-304835890D01*
X59452876Y-304835890D01*
X60405257Y-305264461D02*
X60548114Y-305312080D01*
X60786209Y-305312080D01*
X60881447Y-305264461D01*
X60929066Y-305216842D01*
X60976685Y-305121604D01*
X60976685Y-305026366D01*
X60929066Y-304931128D01*
X60881447Y-304883509D01*
X60786209Y-304835890D01*
X60595733Y-304788271D01*
X60500495Y-304740652D01*
X60452876Y-304693033D01*
X60405257Y-304597795D01*
X60405257Y-304502557D01*
X60452876Y-304407319D01*
X60500495Y-304359700D01*
X60595733Y-304312080D01*
X60833828Y-304312080D01*
X60976685Y-304359700D01*
%TO.C,MX9*%
X73918152Y-286357319D02*
X73822914Y-286309700D01*
X73727676Y-286214461D01*
X73584819Y-286071604D01*
X73489580Y-286023985D01*
X73394342Y-286023985D01*
X73441961Y-286262080D02*
X73346723Y-286214461D01*
X73251485Y-286119223D01*
X73203866Y-285928747D01*
X73203866Y-285595414D01*
X73251485Y-285404938D01*
X73346723Y-285309700D01*
X73441961Y-285262080D01*
X73632438Y-285262080D01*
X73727676Y-285309700D01*
X73822914Y-285404938D01*
X73870533Y-285595414D01*
X73870533Y-285928747D01*
X73822914Y-286119223D01*
X73727676Y-286214461D01*
X73632438Y-286262080D01*
X73441961Y-286262080D01*
%TO.C,MX8*%
X64395314Y-267190480D02*
X63823885Y-267190480D01*
X64109600Y-267190480D02*
X64109600Y-266190480D01*
X64014361Y-266333338D01*
X63919123Y-266428576D01*
X63823885Y-266476195D01*
%TO.C,MX1*%
X34267923Y-238167871D02*
X34601257Y-238167871D01*
X34744114Y-238691680D02*
X34267923Y-238691680D01*
X34267923Y-237691680D01*
X34744114Y-237691680D01*
X35125066Y-238644061D02*
X35267923Y-238691680D01*
X35506019Y-238691680D01*
X35601257Y-238644061D01*
X35648876Y-238596442D01*
X35696495Y-238501204D01*
X35696495Y-238405966D01*
X35648876Y-238310728D01*
X35601257Y-238263109D01*
X35506019Y-238215490D01*
X35315542Y-238167871D01*
X35220304Y-238120252D01*
X35172685Y-238072633D01*
X35125066Y-237977395D01*
X35125066Y-237882157D01*
X35172685Y-237786919D01*
X35220304Y-237739300D01*
X35315542Y-237691680D01*
X35553638Y-237691680D01*
X35696495Y-237739300D01*
X36696495Y-238596442D02*
X36648876Y-238644061D01*
X36506019Y-238691680D01*
X36410780Y-238691680D01*
X36267923Y-238644061D01*
X36172685Y-238548823D01*
X36125066Y-238453585D01*
X36077447Y-238263109D01*
X36077447Y-238120252D01*
X36125066Y-237929776D01*
X36172685Y-237834538D01*
X36267923Y-237739300D01*
X36410780Y-237691680D01*
X36506019Y-237691680D01*
X36648876Y-237739300D01*
X36696495Y-237786919D01*
%TD*%
M02*
