%TF.GenerationSoftware,KiCad,Pcbnew,8.0.5*%
%TF.CreationDate,2025-01-07T19:58:09+01:00*%
%TF.ProjectId,A500KBPlate,41353030-4b42-4506-9c61-74652e6b6963,rev?*%
%TF.SameCoordinates,Original*%
%TF.FileFunction,Soldermask,Top*%
%TF.FilePolarity,Negative*%
%FSLAX46Y46*%
G04 Gerber Fmt 4.6, Leading zero omitted, Abs format (unit mm)*
G04 Created by KiCad (PCBNEW 8.0.5) date 2025-01-07 19:58:09*
%MOMM*%
%LPD*%
G01*
G04 APERTURE LIST*
%ADD10C,2.600000*%
%ADD11C,4.100000*%
%TA.AperFunction,Profile*%
%ADD12C,0.050000*%
%TD*%
%TA.AperFunction,Profile*%
%ADD13C,0.120000*%
%TD*%
%TA.AperFunction,Profile*%
%ADD14C,0.100000*%
%TD*%
G04 APERTURE END LIST*
D10*
%TO.C,H1*%
X64135000Y-303530000D03*
%TD*%
%TO.C,H2*%
X68834000Y-306705000D03*
%TD*%
D11*
%TO.C,H4*%
X392450000Y-293850000D03*
%TD*%
%TO.C,H3*%
X49750000Y-246150000D03*
%TD*%
D12*
X25400000Y-234220000D02*
X26035000Y-234220000D01*
X25400000Y-360680000D02*
X25400000Y-234220000D01*
X26035000Y-234220000D02*
X302895000Y-234220000D01*
X473710000Y-264795000D02*
X473710000Y-360680000D01*
X302895000Y-264795000D02*
X473710000Y-264795000D01*
X302895000Y-234220000D02*
X302895000Y-264795000D01*
X473710000Y-360680000D02*
X25400000Y-360680000D01*
D13*
%TO.C,MX1*%
X28448400Y-239217600D02*
X42468400Y-239217600D01*
X28448400Y-253237600D02*
X28448400Y-239217600D01*
X42468400Y-239217600D02*
X42468400Y-253237600D01*
X42468400Y-253237600D02*
X28448400Y-253237600D01*
%TO.C,MX2*%
X33033600Y-267475600D02*
X33033600Y-269675600D01*
X33033600Y-269675600D02*
X33133600Y-269675600D01*
X33033600Y-279675600D02*
X33033600Y-281875600D01*
X33033600Y-279675600D02*
X33133600Y-279675600D01*
X33133600Y-269675600D02*
X33133600Y-271675600D01*
X33133600Y-271675600D02*
X33233600Y-271675600D01*
X33133600Y-277675600D02*
X33133600Y-279675600D01*
X33133600Y-277675600D02*
X33233600Y-277675600D01*
X33233600Y-277675600D02*
X33233600Y-271675600D01*
X35233600Y-267475600D02*
X33033600Y-267475600D01*
X35233600Y-267475600D02*
X35233600Y-267575600D01*
X35233600Y-281775600D02*
X35233600Y-281875600D01*
X35233600Y-281875600D02*
X33033600Y-281875600D01*
X37233600Y-267575600D02*
X35233600Y-267575600D01*
X37233600Y-267575600D02*
X37233600Y-267675600D01*
X37233600Y-267675600D02*
X43233600Y-267675600D01*
X37233600Y-281675600D02*
X37233600Y-281775600D01*
X37233600Y-281775600D02*
X35233600Y-281775600D01*
X43233600Y-267575600D02*
X43233600Y-267675600D01*
X43233600Y-281675600D02*
X37233600Y-281675600D01*
X43233600Y-281675600D02*
X43233600Y-281775600D01*
X45233600Y-267475600D02*
X45233600Y-267575600D01*
X45233600Y-267575600D02*
X43233600Y-267575600D01*
X45233600Y-281775600D02*
X43233600Y-281775600D01*
X45233600Y-281775600D02*
X45233600Y-281875600D01*
X47233600Y-271675600D02*
X47233600Y-277675600D01*
X47233600Y-271675600D02*
X47333600Y-271675600D01*
X47233600Y-277675600D02*
X47333600Y-277675600D01*
X47333600Y-269675600D02*
X47333600Y-271675600D01*
X47333600Y-269675600D02*
X47433600Y-269675600D01*
X47333600Y-277675600D02*
X47333600Y-279675600D01*
X47333600Y-279675600D02*
X47433600Y-279675600D01*
X47433600Y-267475600D02*
X45233600Y-267475600D01*
X47433600Y-267475600D02*
X47433600Y-269675600D01*
X47433600Y-279675600D02*
X47433600Y-281875600D01*
X47433600Y-281875600D02*
X45233600Y-281875600D01*
%TO.C,MX4*%
X30774800Y-305747200D02*
X44874800Y-305747200D01*
X30774800Y-319847200D02*
X30774800Y-305747200D01*
X44874800Y-305747200D02*
X44874800Y-319847200D01*
X44874800Y-319847200D02*
X30774800Y-319847200D01*
%TO.C,MX5*%
X29770400Y-324526400D02*
X29770400Y-339226400D01*
X29770400Y-339226400D02*
X32970400Y-339226400D01*
X32970400Y-324526400D02*
X29770400Y-324526400D01*
X32970400Y-339226400D02*
X32970400Y-324526400D01*
X35520400Y-324826400D02*
X49620400Y-324826400D01*
X35520400Y-338926400D02*
X35520400Y-324826400D01*
X49620400Y-324826400D02*
X49620400Y-338926400D01*
X49620400Y-338926400D02*
X35520400Y-338926400D01*
X52170400Y-324526400D02*
X55370400Y-324526400D01*
X52170400Y-339226400D02*
X52170400Y-324526400D01*
X55370400Y-324526400D02*
X55370400Y-339226400D01*
X55370400Y-339226400D02*
X52170400Y-339226400D01*
%TO.C,MX6*%
X45041200Y-343948800D02*
X59141200Y-343948800D01*
X45041200Y-358048800D02*
X45041200Y-343948800D01*
X59141200Y-343948800D02*
X59141200Y-358048800D01*
X59141200Y-358048800D02*
X45041200Y-358048800D01*
%TO.C,MX8*%
X57099600Y-267665600D02*
X71119600Y-267665600D01*
X57099600Y-281685600D02*
X57099600Y-267665600D01*
X71119600Y-267665600D02*
X71119600Y-281685600D01*
X71119600Y-281685600D02*
X57099600Y-281685600D01*
%TO.C,MX10*%
X52252400Y-305787200D02*
X66272400Y-305787200D01*
X52252400Y-319807200D02*
X52252400Y-305787200D01*
X66272400Y-305787200D02*
X66272400Y-319807200D01*
X66272400Y-319807200D02*
X52252400Y-319807200D01*
%TO.C,MX11*%
X61773200Y-324866400D02*
X75793200Y-324866400D01*
X61773200Y-338886400D02*
X61773200Y-324866400D01*
X75793200Y-324866400D02*
X75793200Y-338886400D01*
X75793200Y-338886400D02*
X61773200Y-338886400D01*
%TO.C,MX12*%
X68845200Y-343927200D02*
X82945200Y-343927200D01*
X68845200Y-358027200D02*
X68845200Y-343927200D01*
X82945200Y-343927200D02*
X82945200Y-358027200D01*
X82945200Y-358027200D02*
X68845200Y-358027200D01*
%TO.C,MX13*%
X83221600Y-239177600D02*
X97321600Y-239177600D01*
X83221600Y-253277600D02*
X83221600Y-239177600D01*
X97321600Y-239177600D02*
X97321600Y-253277600D01*
X97321600Y-253277600D02*
X83221600Y-253277600D01*
%TO.C,MX14*%
X76149600Y-267665600D02*
X90169600Y-267665600D01*
X76149600Y-281685600D02*
X76149600Y-267665600D01*
X90169600Y-267665600D02*
X90169600Y-281685600D01*
X90169600Y-281685600D02*
X76149600Y-281685600D01*
%TO.C,MX16*%
X71323600Y-305816400D02*
X85343600Y-305816400D01*
X71323600Y-319836400D02*
X71323600Y-305816400D01*
X85343600Y-305816400D02*
X85343600Y-319836400D01*
X85343600Y-319836400D02*
X71323600Y-319836400D01*
%TO.C,MX17*%
X80823200Y-324866400D02*
X94843200Y-324866400D01*
X80823200Y-338886400D02*
X80823200Y-324866400D01*
X94843200Y-324866400D02*
X94843200Y-338886400D01*
X94843200Y-338886400D02*
X80823200Y-338886400D01*
%TO.C,MX18*%
X107046800Y-239177600D02*
X121146800Y-239177600D01*
X107046800Y-253277600D02*
X107046800Y-239177600D01*
X121146800Y-239177600D02*
X121146800Y-253277600D01*
X121146800Y-253277600D02*
X107046800Y-253277600D01*
%TO.C,MX19*%
X95199600Y-267665600D02*
X109219600Y-267665600D01*
X95199600Y-281685600D02*
X95199600Y-267665600D01*
X109219600Y-267665600D02*
X109219600Y-281685600D01*
X109219600Y-281685600D02*
X95199600Y-281685600D01*
%TO.C,MX20*%
X104648400Y-286741000D02*
X118668400Y-286741000D01*
X104648400Y-300761000D02*
X104648400Y-286741000D01*
X118668400Y-286741000D02*
X118668400Y-300761000D01*
X118668400Y-300761000D02*
X104648400Y-300761000D01*
%TO.C,MX21*%
X90373600Y-305816400D02*
X104393600Y-305816400D01*
X90373600Y-319836400D02*
X90373600Y-305816400D01*
X104393600Y-305816400D02*
X104393600Y-319836400D01*
X104393600Y-319836400D02*
X90373600Y-319836400D01*
%TO.C,MX22*%
X99873200Y-324866400D02*
X113893200Y-324866400D01*
X99873200Y-338886400D02*
X99873200Y-324866400D01*
X113893200Y-324866400D02*
X113893200Y-338886400D01*
X113893200Y-338886400D02*
X99873200Y-338886400D01*
%TO.C,MX23*%
X130872000Y-239177600D02*
X144972000Y-239177600D01*
X130872000Y-253277600D02*
X130872000Y-239177600D01*
X144972000Y-239177600D02*
X144972000Y-253277600D01*
X144972000Y-253277600D02*
X130872000Y-253277600D01*
%TO.C,MX24*%
X114249600Y-267665600D02*
X128269600Y-267665600D01*
X114249600Y-281685600D02*
X114249600Y-267665600D01*
X128269600Y-267665600D02*
X128269600Y-281685600D01*
X128269600Y-281685600D02*
X114249600Y-281685600D01*
%TO.C,MX25*%
X123698400Y-286766400D02*
X137718400Y-286766400D01*
X123698400Y-300786400D02*
X123698400Y-286766400D01*
X137718400Y-286766400D02*
X137718400Y-300786400D01*
X137718400Y-300786400D02*
X123698400Y-300786400D01*
%TO.C,MX26*%
X109444800Y-305838000D02*
X123464800Y-305838000D01*
X109444800Y-319858000D02*
X109444800Y-305838000D01*
X123464800Y-305838000D02*
X123464800Y-319858000D01*
X123464800Y-319858000D02*
X109444800Y-319858000D01*
%TO.C,MX27*%
X118923200Y-324866400D02*
X132943200Y-324866400D01*
X118923200Y-338886400D02*
X118923200Y-324866400D01*
X132943200Y-324866400D02*
X132943200Y-338886400D01*
X132943200Y-338886400D02*
X118923200Y-338886400D01*
%TO.C,MX28*%
X154697200Y-239177600D02*
X168797200Y-239177600D01*
X154697200Y-253277600D02*
X154697200Y-239177600D01*
X168797200Y-239177600D02*
X168797200Y-253277600D01*
X168797200Y-253277600D02*
X154697200Y-253277600D01*
%TO.C,MX30*%
X142748400Y-286766400D02*
X156768400Y-286766400D01*
X142748400Y-300786400D02*
X142748400Y-286766400D01*
X156768400Y-286766400D02*
X156768400Y-300786400D01*
X156768400Y-300786400D02*
X142748400Y-300786400D01*
%TO.C,MX32*%
X137973200Y-324866400D02*
X151993200Y-324866400D01*
X137973200Y-338886400D02*
X137973200Y-324866400D01*
X151993200Y-324866400D02*
X151993200Y-338886400D01*
X151993200Y-338886400D02*
X137973200Y-338886400D01*
%TO.C,MX34*%
X187971200Y-239177600D02*
X202071200Y-239177600D01*
X187971200Y-253277600D02*
X187971200Y-239177600D01*
X202071200Y-239177600D02*
X202071200Y-253277600D01*
X202071200Y-253277600D02*
X187971200Y-253277600D01*
%TO.C,MX35*%
X152400400Y-267716400D02*
X166420400Y-267716400D01*
X152400400Y-281736400D02*
X152400400Y-267716400D01*
X166420400Y-267716400D02*
X166420400Y-281736400D01*
X166420400Y-281736400D02*
X152400400Y-281736400D01*
%TO.C,MX37*%
X147553200Y-305838000D02*
X161573200Y-305838000D01*
X147553200Y-319858000D02*
X147553200Y-305838000D01*
X161573200Y-305838000D02*
X161573200Y-319858000D01*
X161573200Y-319858000D02*
X147553200Y-319858000D01*
%TO.C,MX38*%
X157074000Y-324866400D02*
X171094000Y-324866400D01*
X157074000Y-338886400D02*
X157074000Y-324866400D01*
X171094000Y-324866400D02*
X171094000Y-338886400D01*
X171094000Y-338886400D02*
X157074000Y-338886400D01*
%TO.C,MX39*%
X211796400Y-239177600D02*
X225896400Y-239177600D01*
X211796400Y-253277600D02*
X211796400Y-239177600D01*
X225896400Y-239177600D02*
X225896400Y-253277600D01*
X225896400Y-253277600D02*
X211796400Y-253277600D01*
%TO.C,MX40*%
X171450400Y-267716400D02*
X185470400Y-267716400D01*
X171450400Y-281736400D02*
X171450400Y-267716400D01*
X185470400Y-267716400D02*
X185470400Y-281736400D01*
X185470400Y-281736400D02*
X171450400Y-281736400D01*
%TO.C,MX41*%
X180950000Y-286766400D02*
X194970000Y-286766400D01*
X180950000Y-300786400D02*
X180950000Y-286766400D01*
X194970000Y-286766400D02*
X194970000Y-300786400D01*
X194970000Y-300786400D02*
X180950000Y-300786400D01*
%TO.C,MX42*%
X166624400Y-305816400D02*
X180644400Y-305816400D01*
X166624400Y-319836400D02*
X166624400Y-305816400D01*
X180644400Y-305816400D02*
X180644400Y-319836400D01*
X180644400Y-319836400D02*
X166624400Y-319836400D01*
%TO.C,MX43*%
X176102800Y-324866400D02*
X190122800Y-324866400D01*
X176102800Y-338886400D02*
X176102800Y-324866400D01*
X190122800Y-324866400D02*
X190122800Y-338886400D01*
X190122800Y-338886400D02*
X176102800Y-338886400D01*
%TO.C,MX45*%
X190500400Y-267716400D02*
X204520400Y-267716400D01*
X190500400Y-281736400D02*
X190500400Y-267716400D01*
X204520400Y-267716400D02*
X204520400Y-281736400D01*
X204520400Y-281736400D02*
X190500400Y-281736400D01*
%TO.C,MX46*%
X200000000Y-286766400D02*
X214020000Y-286766400D01*
X200000000Y-300786400D02*
X200000000Y-286766400D01*
X214020000Y-286766400D02*
X214020000Y-300786400D01*
X214020000Y-300786400D02*
X200000000Y-300786400D01*
%TO.C,MX47*%
X185674400Y-305816400D02*
X199694400Y-305816400D01*
X185674400Y-319836400D02*
X185674400Y-305816400D01*
X199694400Y-305816400D02*
X199694400Y-319836400D01*
X199694400Y-319836400D02*
X185674400Y-319836400D01*
%TO.C,MX49*%
X259468000Y-239199200D02*
X273568000Y-239199200D01*
X259468000Y-253299200D02*
X259468000Y-239199200D01*
X273568000Y-239199200D02*
X273568000Y-253299200D01*
X273568000Y-253299200D02*
X259468000Y-253299200D01*
%TO.C,MX50*%
X209601200Y-267716400D02*
X223621200Y-267716400D01*
X209601200Y-281736400D02*
X209601200Y-267716400D01*
X223621200Y-267716400D02*
X223621200Y-281736400D01*
X223621200Y-281736400D02*
X209601200Y-281736400D01*
%TO.C,MX51*%
X219100800Y-286766400D02*
X233120800Y-286766400D01*
X219100800Y-300786400D02*
X219100800Y-286766400D01*
X233120800Y-286766400D02*
X233120800Y-300786400D01*
X233120800Y-300786400D02*
X219100800Y-300786400D01*
%TO.C,MX52*%
X204775200Y-305816400D02*
X218795200Y-305816400D01*
X204775200Y-319836400D02*
X204775200Y-305816400D01*
X218795200Y-305816400D02*
X218795200Y-319836400D01*
X218795200Y-319836400D02*
X204775200Y-319836400D01*
%TO.C,MX53*%
X214173200Y-324866400D02*
X228193200Y-324866400D01*
X214173200Y-338886400D02*
X214173200Y-324866400D01*
X228193200Y-324866400D02*
X228193200Y-338886400D01*
X228193200Y-338886400D02*
X214173200Y-338886400D01*
%TO.C,MX54*%
X283272000Y-239177600D02*
X297372000Y-239177600D01*
X283272000Y-253277600D02*
X283272000Y-239177600D01*
X297372000Y-239177600D02*
X297372000Y-253277600D01*
X297372000Y-253277600D02*
X283272000Y-253277600D01*
%TO.C,MX55*%
X228651200Y-267716400D02*
X242671200Y-267716400D01*
X228651200Y-281736400D02*
X228651200Y-267716400D01*
X242671200Y-267716400D02*
X242671200Y-281736400D01*
X242671200Y-281736400D02*
X228651200Y-281736400D01*
%TO.C,MX56*%
X238150800Y-286766400D02*
X252170800Y-286766400D01*
X238150800Y-300786400D02*
X238150800Y-286766400D01*
X252170800Y-286766400D02*
X252170800Y-300786400D01*
X252170800Y-300786400D02*
X238150800Y-300786400D01*
%TO.C,MX57*%
X223876000Y-305816400D02*
X237896000Y-305816400D01*
X223876000Y-319836400D02*
X223876000Y-305816400D01*
X237896000Y-305816400D02*
X237896000Y-319836400D01*
X237896000Y-319836400D02*
X223876000Y-319836400D01*
%TO.C,MX58*%
X233223200Y-324866400D02*
X247243200Y-324866400D01*
X233223200Y-338886400D02*
X233223200Y-324866400D01*
X247243200Y-324866400D02*
X247243200Y-338886400D01*
X247243200Y-338886400D02*
X233223200Y-338886400D01*
%TO.C,MX59*%
X264251600Y-343898000D02*
X278351600Y-343898000D01*
X264251600Y-357998000D02*
X264251600Y-343898000D01*
X278351600Y-343898000D02*
X278351600Y-357998000D01*
X278351600Y-357998000D02*
X264251600Y-357998000D01*
%TO.C,MX60*%
X247701200Y-267716400D02*
X261721200Y-267716400D01*
X247701200Y-281736400D02*
X247701200Y-267716400D01*
X261721200Y-267716400D02*
X261721200Y-281736400D01*
X261721200Y-281736400D02*
X247701200Y-281736400D01*
%TO.C,MX61*%
X257200800Y-286766400D02*
X271220800Y-286766400D01*
X257200800Y-300786400D02*
X257200800Y-286766400D01*
X271220800Y-286766400D02*
X271220800Y-300786400D01*
X271220800Y-300786400D02*
X257200800Y-300786400D01*
%TO.C,MX62*%
X242926000Y-305816400D02*
X256946000Y-305816400D01*
X242926000Y-319836400D02*
X242926000Y-305816400D01*
X256946000Y-305816400D02*
X256946000Y-319836400D01*
X256946000Y-319836400D02*
X242926000Y-319836400D01*
%TO.C,MX63*%
X252273200Y-324866400D02*
X266293200Y-324866400D01*
X252273200Y-338886400D02*
X252273200Y-324866400D01*
X266293200Y-324866400D02*
X266293200Y-338886400D01*
X266293200Y-338886400D02*
X252273200Y-338886400D01*
%TO.C,MX64*%
X288127600Y-343898000D02*
X302227600Y-343898000D01*
X288127600Y-357998000D02*
X288127600Y-343898000D01*
X302227600Y-343898000D02*
X302227600Y-357998000D01*
X302227600Y-357998000D02*
X288127600Y-357998000D01*
%TO.C,MX65*%
X266751200Y-267716400D02*
X280771200Y-267716400D01*
X266751200Y-281736400D02*
X266751200Y-267716400D01*
X280771200Y-267716400D02*
X280771200Y-281736400D01*
X280771200Y-281736400D02*
X266751200Y-281736400D01*
%TO.C,MX67*%
X261976000Y-305816400D02*
X275996000Y-305816400D01*
X261976000Y-319836400D02*
X261976000Y-305816400D01*
X275996000Y-305816400D02*
X275996000Y-319836400D01*
X275996000Y-319836400D02*
X261976000Y-319836400D01*
%TO.C,MX68*%
X278895600Y-329576400D02*
X278895600Y-332376400D01*
X279270600Y-326346400D02*
X279270600Y-329576400D01*
X279270600Y-329576400D02*
X278895600Y-329576400D01*
X279270600Y-332376400D02*
X278895600Y-332376400D01*
X279270600Y-338646400D02*
X279270600Y-332376400D01*
X281595600Y-338646400D02*
X279270600Y-338646400D01*
X281595600Y-339846400D02*
X281595600Y-338646400D01*
X284595600Y-339846400D02*
X281595600Y-339846400D01*
X284595600Y-339846400D02*
X284595600Y-338646400D01*
X286420600Y-326346400D02*
X279270600Y-326346400D01*
X286420600Y-327146400D02*
X286420600Y-326346400D01*
X286420600Y-337846400D02*
X287995600Y-337846400D01*
X286420600Y-338646400D02*
X284595600Y-338646400D01*
X286420600Y-338646400D02*
X286420600Y-337846400D01*
X287995600Y-324876400D02*
X301995600Y-324876400D01*
X287995600Y-327146400D02*
X286420600Y-327146400D01*
X287995600Y-327146400D02*
X287995600Y-324876400D01*
X287995600Y-337846400D02*
X287995600Y-338876400D01*
X301995600Y-327146400D02*
X301995600Y-324876400D01*
X301995600Y-337846400D02*
X301995600Y-338876400D01*
X301995600Y-338876400D02*
X287995600Y-338876400D01*
X303570600Y-326346400D02*
X310720600Y-326346400D01*
X303570600Y-327146400D02*
X301995600Y-327146400D01*
X303570600Y-327146400D02*
X303570600Y-326346400D01*
X303570600Y-337846400D02*
X301995600Y-337846400D01*
X303570600Y-338646400D02*
X303570600Y-337846400D01*
X305395600Y-338646400D02*
X303570600Y-338646400D01*
X305395600Y-339846400D02*
X305395600Y-338646400D01*
X305395600Y-339846400D02*
X308395600Y-339846400D01*
X308395600Y-339846400D02*
X308395600Y-338646400D01*
X310720600Y-326346400D02*
X310720600Y-329576400D01*
X310720600Y-329576400D02*
X311095600Y-329576400D01*
X310720600Y-332376400D02*
X311095600Y-332376400D01*
X310720600Y-338646400D02*
X308395600Y-338646400D01*
X310720600Y-338646400D02*
X310720600Y-332376400D01*
X311095600Y-329576400D02*
X311095600Y-332376400D01*
%TO.C,MX69*%
X285801200Y-267716400D02*
X299821200Y-267716400D01*
X285801200Y-281736400D02*
X285801200Y-267716400D01*
X299821200Y-267716400D02*
X299821200Y-281736400D01*
X299821200Y-281736400D02*
X285801200Y-281736400D01*
%TO.C,MX70*%
X281026000Y-305816400D02*
X295046000Y-305816400D01*
X281026000Y-319836400D02*
X281026000Y-305816400D01*
X295046000Y-305816400D02*
X295046000Y-319836400D01*
X295046000Y-319836400D02*
X281026000Y-319836400D01*
%TO.C,MX71*%
X302452400Y-296297600D02*
X302452400Y-310297600D01*
X303922400Y-287572600D02*
X307152400Y-287572600D01*
X303922400Y-294722600D02*
X303922400Y-287572600D01*
X303922400Y-311872600D02*
X303922400Y-319022600D01*
X303922400Y-319022600D02*
X307152400Y-319022600D01*
X304722400Y-294722600D02*
X303922400Y-294722600D01*
X304722400Y-296297600D02*
X302452400Y-296297600D01*
X304722400Y-296297600D02*
X304722400Y-294722600D01*
X304722400Y-310297600D02*
X302452400Y-310297600D01*
X304722400Y-311872600D02*
X303922400Y-311872600D01*
X304722400Y-311872600D02*
X304722400Y-310297600D01*
X307152400Y-287197600D02*
X309952400Y-287197600D01*
X307152400Y-287572600D02*
X307152400Y-287197600D01*
X307152400Y-319022600D02*
X307152400Y-319397600D01*
X307152400Y-319397600D02*
X309952400Y-319397600D01*
X309952400Y-287572600D02*
X309952400Y-287197600D01*
X309952400Y-319022600D02*
X309952400Y-319397600D01*
X315422400Y-294722600D02*
X315422400Y-296297600D01*
X315422400Y-296297600D02*
X316452400Y-296297600D01*
X315422400Y-310297600D02*
X316452400Y-310297600D01*
X315422400Y-311872600D02*
X315422400Y-310297600D01*
X316222400Y-287572600D02*
X309952400Y-287572600D01*
X316222400Y-289897600D02*
X316222400Y-287572600D01*
X316222400Y-294722600D02*
X315422400Y-294722600D01*
X316222400Y-294722600D02*
X316222400Y-292897600D01*
X316222400Y-311872600D02*
X315422400Y-311872600D01*
X316222400Y-313697600D02*
X316222400Y-311872600D01*
X316222400Y-319022600D02*
X309952400Y-319022600D01*
X316222400Y-319022600D02*
X316222400Y-316697600D01*
X316452400Y-310297600D02*
X316452400Y-296297600D01*
X317422400Y-289897600D02*
X316222400Y-289897600D01*
X317422400Y-292897600D02*
X316222400Y-292897600D01*
X317422400Y-292897600D02*
X317422400Y-289897600D01*
X317422400Y-313697600D02*
X316222400Y-313697600D01*
X317422400Y-313697600D02*
X317422400Y-316697600D01*
X317422400Y-316697600D02*
X316222400Y-316697600D01*
%TO.C,MX72*%
X304851200Y-267716400D02*
X318871200Y-267716400D01*
X304851200Y-281736400D02*
X304851200Y-267716400D01*
X318871200Y-267716400D02*
X318871200Y-281736400D01*
X318871200Y-281736400D02*
X304851200Y-281736400D01*
%TO.C,MX73*%
X337914000Y-267526400D02*
X337914000Y-269726400D01*
X337914000Y-269726400D02*
X338014000Y-269726400D01*
X337914000Y-279726400D02*
X337914000Y-281926400D01*
X337914000Y-279726400D02*
X338014000Y-279726400D01*
X338014000Y-269726400D02*
X338014000Y-271726400D01*
X338014000Y-271726400D02*
X338114000Y-271726400D01*
X338014000Y-277726400D02*
X338014000Y-279726400D01*
X338014000Y-277726400D02*
X338114000Y-277726400D01*
X338114000Y-277726400D02*
X338114000Y-271726400D01*
X340114000Y-267526400D02*
X337914000Y-267526400D01*
X340114000Y-267526400D02*
X340114000Y-267626400D01*
X340114000Y-281826400D02*
X340114000Y-281926400D01*
X340114000Y-281926400D02*
X337914000Y-281926400D01*
X342114000Y-267626400D02*
X340114000Y-267626400D01*
X342114000Y-267626400D02*
X342114000Y-267726400D01*
X342114000Y-267726400D02*
X348114000Y-267726400D01*
X342114000Y-281726400D02*
X342114000Y-281826400D01*
X342114000Y-281826400D02*
X340114000Y-281826400D01*
X348114000Y-267626400D02*
X348114000Y-267726400D01*
X348114000Y-281726400D02*
X342114000Y-281726400D01*
X348114000Y-281726400D02*
X348114000Y-281826400D01*
X350114000Y-267526400D02*
X350114000Y-267626400D01*
X350114000Y-267626400D02*
X348114000Y-267626400D01*
X350114000Y-281826400D02*
X348114000Y-281826400D01*
X350114000Y-281826400D02*
X350114000Y-281926400D01*
X352114000Y-271726400D02*
X352114000Y-277726400D01*
X352114000Y-271726400D02*
X352214000Y-271726400D01*
X352114000Y-277726400D02*
X352214000Y-277726400D01*
X352214000Y-269726400D02*
X352214000Y-271726400D01*
X352214000Y-269726400D02*
X352314000Y-269726400D01*
X352214000Y-277726400D02*
X352214000Y-279726400D01*
X352214000Y-279726400D02*
X352314000Y-279726400D01*
X352314000Y-267526400D02*
X350114000Y-267526400D01*
X352314000Y-267526400D02*
X352314000Y-269726400D01*
X352314000Y-279726400D02*
X352314000Y-281926400D01*
X352314000Y-281926400D02*
X350114000Y-281926400D01*
%TO.C,MX74*%
X333146800Y-324866400D02*
X347166800Y-324866400D01*
X333146800Y-338886400D02*
X333146800Y-324866400D01*
X347166800Y-324866400D02*
X347166800Y-338886400D01*
X347166800Y-338886400D02*
X333146800Y-338886400D01*
%TO.C,MX75*%
X352196800Y-305816400D02*
X366216800Y-305816400D01*
X352196800Y-319836400D02*
X352196800Y-305816400D01*
X366216800Y-305816400D02*
X366216800Y-319836400D01*
X366216800Y-319836400D02*
X352196800Y-319836400D01*
%TO.C,MX76*%
X352226400Y-324866400D02*
X366246400Y-324866400D01*
X352226400Y-338886400D02*
X352226400Y-324866400D01*
X366246400Y-324866400D02*
X366246400Y-338886400D01*
X366246400Y-338886400D02*
X352226400Y-338886400D01*
%TO.C,MX77*%
X366514400Y-267526400D02*
X366514400Y-269726400D01*
X366514400Y-269726400D02*
X366614400Y-269726400D01*
X366514400Y-279726400D02*
X366514400Y-281926400D01*
X366514400Y-279726400D02*
X366614400Y-279726400D01*
X366614400Y-269726400D02*
X366614400Y-271726400D01*
X366614400Y-271726400D02*
X366714400Y-271726400D01*
X366614400Y-277726400D02*
X366614400Y-279726400D01*
X366614400Y-277726400D02*
X366714400Y-277726400D01*
X366714400Y-277726400D02*
X366714400Y-271726400D01*
X368714400Y-267526400D02*
X366514400Y-267526400D01*
X368714400Y-267526400D02*
X368714400Y-267626400D01*
X368714400Y-281826400D02*
X368714400Y-281926400D01*
X368714400Y-281926400D02*
X366514400Y-281926400D01*
X370714400Y-267626400D02*
X368714400Y-267626400D01*
X370714400Y-267626400D02*
X370714400Y-267726400D01*
X370714400Y-267726400D02*
X376714400Y-267726400D01*
X370714400Y-281726400D02*
X370714400Y-281826400D01*
X370714400Y-281826400D02*
X368714400Y-281826400D01*
X376714400Y-267626400D02*
X376714400Y-267726400D01*
X376714400Y-281726400D02*
X370714400Y-281726400D01*
X376714400Y-281726400D02*
X376714400Y-281826400D01*
X378714400Y-267526400D02*
X378714400Y-267626400D01*
X378714400Y-267626400D02*
X376714400Y-267626400D01*
X378714400Y-281826400D02*
X376714400Y-281826400D01*
X378714400Y-281826400D02*
X378714400Y-281926400D01*
X380714400Y-271726400D02*
X380714400Y-277726400D01*
X380714400Y-271726400D02*
X380814400Y-271726400D01*
X380714400Y-277726400D02*
X380814400Y-277726400D01*
X380814400Y-269726400D02*
X380814400Y-271726400D01*
X380814400Y-269726400D02*
X380914400Y-269726400D01*
X380814400Y-277726400D02*
X380814400Y-279726400D01*
X380814400Y-279726400D02*
X380914400Y-279726400D01*
X380914400Y-267526400D02*
X378714400Y-267526400D01*
X380914400Y-267526400D02*
X380914400Y-269726400D01*
X380914400Y-279726400D02*
X380914400Y-281926400D01*
X380914400Y-281926400D02*
X378714400Y-281926400D01*
%TO.C,MX78*%
X371246800Y-324866400D02*
X385266800Y-324866400D01*
X371246800Y-338886400D02*
X371246800Y-324866400D01*
X385266800Y-324866400D02*
X385266800Y-338886400D01*
X385266800Y-338886400D02*
X371246800Y-338886400D01*
%TO.C,MX79*%
X399694800Y-267767200D02*
X413714800Y-267767200D01*
X399694800Y-281787200D02*
X399694800Y-267767200D01*
X413714800Y-267767200D02*
X413714800Y-281787200D01*
X413714800Y-281787200D02*
X399694800Y-281787200D01*
%TO.C,MX80*%
X399694800Y-286817200D02*
X413714800Y-286817200D01*
X399694800Y-300837200D02*
X399694800Y-286817200D01*
X413714800Y-286817200D02*
X413714800Y-300837200D01*
X413714800Y-300837200D02*
X399694800Y-300837200D01*
%TO.C,MX81*%
X399694800Y-305867200D02*
X413714800Y-305867200D01*
X399694800Y-319887200D02*
X399694800Y-305867200D01*
X413714800Y-305867200D02*
X413714800Y-319887200D01*
X413714800Y-319887200D02*
X399694800Y-319887200D01*
%TO.C,MX82*%
X399724400Y-324888000D02*
X413744400Y-324888000D01*
X399724400Y-338908000D02*
X399724400Y-324888000D01*
X413744400Y-324888000D02*
X413744400Y-338908000D01*
X413744400Y-338908000D02*
X399724400Y-338908000D01*
%TO.C,MX83*%
X400174250Y-353251800D02*
X400174250Y-350451800D01*
X400549250Y-344181800D02*
X400549250Y-350451800D01*
X400549250Y-344181800D02*
X402874250Y-344181800D01*
X400549250Y-350451800D02*
X400174250Y-350451800D01*
X400549250Y-353251800D02*
X400174250Y-353251800D01*
X400549250Y-356481800D02*
X400549250Y-353251800D01*
X402874250Y-342981800D02*
X402874250Y-344181800D01*
X405874250Y-342981800D02*
X402874250Y-342981800D01*
X405874250Y-342981800D02*
X405874250Y-344181800D01*
X405874250Y-344181800D02*
X407699250Y-344181800D01*
X407699250Y-344181800D02*
X407699250Y-344981800D01*
X407699250Y-344981800D02*
X409274250Y-344981800D01*
X407699250Y-355681800D02*
X407699250Y-356481800D01*
X407699250Y-355681800D02*
X409274250Y-355681800D01*
X407699250Y-356481800D02*
X400549250Y-356481800D01*
X409274250Y-343951800D02*
X423274250Y-343951800D01*
X409274250Y-344981800D02*
X409274250Y-343951800D01*
X409274250Y-355681800D02*
X409274250Y-357951800D01*
X423274250Y-344981800D02*
X423274250Y-343951800D01*
X423274250Y-355681800D02*
X423274250Y-357951800D01*
X423274250Y-355681800D02*
X424849250Y-355681800D01*
X423274250Y-357951800D02*
X409274250Y-357951800D01*
X424849250Y-344181800D02*
X424849250Y-344981800D01*
X424849250Y-344181800D02*
X426674250Y-344181800D01*
X424849250Y-344981800D02*
X423274250Y-344981800D01*
X424849250Y-355681800D02*
X424849250Y-356481800D01*
X424849250Y-356481800D02*
X431999250Y-356481800D01*
X426674250Y-342981800D02*
X426674250Y-344181800D01*
X426674250Y-342981800D02*
X429674250Y-342981800D01*
X429674250Y-342981800D02*
X429674250Y-344181800D01*
X429674250Y-344181800D02*
X431999250Y-344181800D01*
X431999250Y-344181800D02*
X431999250Y-350451800D01*
X431999250Y-350451800D02*
X432374250Y-350451800D01*
X431999250Y-353251800D02*
X432374250Y-353251800D01*
X431999250Y-356481800D02*
X431999250Y-353251800D01*
X432374250Y-353251800D02*
X432374250Y-350451800D01*
%TO.C,MX85*%
X418744800Y-286817200D02*
X432764800Y-286817200D01*
X418744800Y-300837200D02*
X418744800Y-286817200D01*
X432764800Y-286817200D02*
X432764800Y-300837200D01*
X432764800Y-300837200D02*
X418744800Y-300837200D01*
%TO.C,MX86*%
X418744800Y-305867200D02*
X432764800Y-305867200D01*
X418744800Y-319887200D02*
X418744800Y-305867200D01*
X432764800Y-305867200D02*
X432764800Y-319887200D01*
X432764800Y-319887200D02*
X418744800Y-319887200D01*
%TO.C,MX87*%
X418774400Y-324888000D02*
X432794400Y-324888000D01*
X418774400Y-338908000D02*
X418774400Y-324888000D01*
X432794400Y-324888000D02*
X432794400Y-338908000D01*
X432794400Y-338908000D02*
X418774400Y-338908000D01*
%TO.C,MX88*%
X437896400Y-267818000D02*
X451916400Y-267818000D01*
X437896400Y-281838000D02*
X437896400Y-267818000D01*
X451916400Y-267818000D02*
X451916400Y-281838000D01*
X451916400Y-281838000D02*
X437896400Y-281838000D01*
%TO.C,MX89*%
X437794800Y-286817200D02*
X451814800Y-286817200D01*
X437794800Y-300837200D02*
X437794800Y-286817200D01*
X451814800Y-286817200D02*
X451814800Y-300837200D01*
X451814800Y-300837200D02*
X437794800Y-300837200D01*
%TO.C,MX90*%
X437845600Y-305867200D02*
X451865600Y-305867200D01*
X437845600Y-319887200D02*
X437845600Y-305867200D01*
X451865600Y-305867200D02*
X451865600Y-319887200D01*
X451865600Y-319887200D02*
X437845600Y-319887200D01*
%TO.C,MX91*%
X437845600Y-324866400D02*
X451865600Y-324866400D01*
X437845600Y-338886400D02*
X437845600Y-324866400D01*
X451865600Y-324866400D02*
X451865600Y-338886400D01*
X451865600Y-338886400D02*
X437845600Y-338886400D01*
%TO.C,MX92*%
X437824400Y-343938000D02*
X451844400Y-343938000D01*
X437824400Y-357958000D02*
X437824400Y-343938000D01*
X451844400Y-343938000D02*
X451844400Y-357958000D01*
X451844400Y-357958000D02*
X437824400Y-357958000D01*
%TO.C,MX93*%
X456997200Y-267818000D02*
X471017200Y-267818000D01*
X456997200Y-281838000D02*
X456997200Y-267818000D01*
X471017200Y-267818000D02*
X471017200Y-281838000D01*
X471017200Y-281838000D02*
X456997200Y-281838000D01*
%TO.C,MX94*%
X456997200Y-286766400D02*
X471017200Y-286766400D01*
X456997200Y-300786400D02*
X456997200Y-286766400D01*
X471017200Y-286766400D02*
X471017200Y-300786400D01*
X471017200Y-300786400D02*
X456997200Y-300786400D01*
%TO.C,MX95*%
X456997200Y-305816400D02*
X471017200Y-305816400D01*
X456997200Y-319836400D02*
X456997200Y-305816400D01*
X471017200Y-305816400D02*
X471017200Y-319836400D01*
X471017200Y-319836400D02*
X456997200Y-319836400D01*
%TO.C,MX96*%
X456011800Y-328026800D02*
X457211800Y-328026800D01*
X456011800Y-331026800D02*
X456011800Y-328026800D01*
X456011800Y-331026800D02*
X457211800Y-331026800D01*
X456011800Y-351826800D02*
X456011800Y-354826800D01*
X456011800Y-351826800D02*
X457211800Y-351826800D01*
X456011800Y-354826800D02*
X457211800Y-354826800D01*
X456981800Y-334426800D02*
X456981800Y-348426800D01*
X457211800Y-325701800D02*
X457211800Y-328026800D01*
X457211800Y-325701800D02*
X463481800Y-325701800D01*
X457211800Y-331026800D02*
X457211800Y-332851800D01*
X457211800Y-332851800D02*
X458011800Y-332851800D01*
X457211800Y-350001800D02*
X457211800Y-351826800D01*
X457211800Y-350001800D02*
X458011800Y-350001800D01*
X457211800Y-354826800D02*
X457211800Y-357151800D01*
X457211800Y-357151800D02*
X463481800Y-357151800D01*
X458011800Y-332851800D02*
X458011800Y-334426800D01*
X458011800Y-334426800D02*
X456981800Y-334426800D01*
X458011800Y-348426800D02*
X456981800Y-348426800D01*
X458011800Y-350001800D02*
X458011800Y-348426800D01*
X463481800Y-325701800D02*
X463481800Y-325326800D01*
X463481800Y-357151800D02*
X463481800Y-357526800D01*
X466281800Y-325326800D02*
X463481800Y-325326800D01*
X466281800Y-325701800D02*
X466281800Y-325326800D01*
X466281800Y-357151800D02*
X466281800Y-357526800D01*
X466281800Y-357526800D02*
X463481800Y-357526800D01*
X468711800Y-332851800D02*
X468711800Y-334426800D01*
X468711800Y-332851800D02*
X469511800Y-332851800D01*
X468711800Y-334426800D02*
X470981800Y-334426800D01*
X468711800Y-348426800D02*
X468711800Y-350001800D01*
X468711800Y-348426800D02*
X470981800Y-348426800D01*
X468711800Y-350001800D02*
X469511800Y-350001800D01*
X469511800Y-325701800D02*
X466281800Y-325701800D01*
X469511800Y-332851800D02*
X469511800Y-325701800D01*
X469511800Y-350001800D02*
X469511800Y-357151800D01*
X469511800Y-357151800D02*
X466281800Y-357151800D01*
X470981800Y-348426800D02*
X470981800Y-334426800D01*
%TO.C,MX9*%
X66527200Y-286737200D02*
X80547200Y-286737200D01*
X66527200Y-300757200D02*
X66527200Y-286737200D01*
X80547200Y-286737200D02*
X80547200Y-300757200D01*
X80547200Y-300757200D02*
X66527200Y-300757200D01*
%TO.C,MX15*%
X85598400Y-286741000D02*
X99618400Y-286741000D01*
X85598400Y-300761000D02*
X85598400Y-286741000D01*
X99618400Y-286741000D02*
X99618400Y-300761000D01*
X99618400Y-300761000D02*
X85598400Y-300761000D01*
%TO.C,MX7*%
X59447200Y-239177600D02*
X73547200Y-239177600D01*
X59447200Y-253277600D02*
X59447200Y-239177600D01*
X73547200Y-239177600D02*
X73547200Y-253277600D01*
X73547200Y-253277600D02*
X59447200Y-253277600D01*
%TO.C,MX3*%
X28877050Y-291447200D02*
X28877050Y-294247200D01*
X29252050Y-288217200D02*
X29252050Y-291447200D01*
X29252050Y-291447200D02*
X28877050Y-291447200D01*
X29252050Y-294247200D02*
X28877050Y-294247200D01*
X29252050Y-300517200D02*
X29252050Y-294247200D01*
X31577050Y-300517200D02*
X29252050Y-300517200D01*
X31577050Y-301717200D02*
X31577050Y-300517200D01*
X34577050Y-301717200D02*
X31577050Y-301717200D01*
X34577050Y-301717200D02*
X34577050Y-300517200D01*
X36402050Y-288217200D02*
X29252050Y-288217200D01*
X36402050Y-289017200D02*
X36402050Y-288217200D01*
X36402050Y-299717200D02*
X37977050Y-299717200D01*
X36402050Y-300517200D02*
X34577050Y-300517200D01*
X36402050Y-300517200D02*
X36402050Y-299717200D01*
X37977050Y-286747200D02*
X51977050Y-286747200D01*
X37977050Y-289017200D02*
X36402050Y-289017200D01*
X37977050Y-289017200D02*
X37977050Y-286747200D01*
X37977050Y-299717200D02*
X37977050Y-300747200D01*
X51977050Y-289017200D02*
X51977050Y-286747200D01*
X51977050Y-299717200D02*
X51977050Y-300747200D01*
X51977050Y-300747200D02*
X37977050Y-300747200D01*
X53552050Y-288217200D02*
X60702050Y-288217200D01*
X53552050Y-289017200D02*
X51977050Y-289017200D01*
X53552050Y-289017200D02*
X53552050Y-288217200D01*
X53552050Y-299717200D02*
X51977050Y-299717200D01*
X53552050Y-300517200D02*
X53552050Y-299717200D01*
X55377050Y-300517200D02*
X53552050Y-300517200D01*
X55377050Y-301717200D02*
X55377050Y-300517200D01*
X55377050Y-301717200D02*
X58377050Y-301717200D01*
X58377050Y-301717200D02*
X58377050Y-300517200D01*
X60702050Y-288217200D02*
X60702050Y-291447200D01*
X60702050Y-291447200D02*
X61077050Y-291447200D01*
X60702050Y-294247200D02*
X61077050Y-294247200D01*
X60702050Y-300517200D02*
X58377050Y-300517200D01*
X60702050Y-300517200D02*
X60702050Y-294247200D01*
X61077050Y-291447200D02*
X61077050Y-294247200D01*
%TO.C,MX36*%
X161900000Y-286766400D02*
X175920000Y-286766400D01*
X161900000Y-300786400D02*
X161900000Y-286766400D01*
X175920000Y-286766400D02*
X175920000Y-300786400D01*
X175920000Y-300786400D02*
X161900000Y-300786400D01*
%TO.C,MX31*%
X128524400Y-305838000D02*
X142544400Y-305838000D01*
X128524400Y-319858000D02*
X128524400Y-305838000D01*
X142544400Y-305838000D02*
X142544400Y-319858000D01*
X142544400Y-319858000D02*
X128524400Y-319858000D01*
%TO.C,MX29*%
X133329200Y-267687200D02*
X147349200Y-267687200D01*
X133329200Y-281707200D02*
X133329200Y-267687200D01*
X147349200Y-267687200D02*
X147349200Y-281707200D01*
X147349200Y-281707200D02*
X133329200Y-281707200D01*
%TO.C,MX48*%
X195123200Y-324866400D02*
X209143200Y-324866400D01*
X195123200Y-338886400D02*
X195123200Y-324866400D01*
X209143200Y-324866400D02*
X209143200Y-338886400D01*
X209143200Y-338886400D02*
X195123200Y-338886400D01*
%TO.C,MX66*%
X276250800Y-286766400D02*
X290270800Y-286766400D01*
X276250800Y-300786400D02*
X276250800Y-286766400D01*
X290270800Y-286766400D02*
X290270800Y-300786400D01*
X290270800Y-300786400D02*
X276250800Y-300786400D01*
%TO.C,MX84*%
X418795600Y-267818000D02*
X432815600Y-267818000D01*
X418795600Y-281838000D02*
X418795600Y-267818000D01*
X432815600Y-267818000D02*
X432815600Y-281838000D01*
X432815600Y-281838000D02*
X418795600Y-281838000D01*
%TO.C,MX44*%
X235621600Y-239177600D02*
X249721600Y-239177600D01*
X235621600Y-253277600D02*
X235621600Y-239177600D01*
X249721600Y-239177600D02*
X249721600Y-253277600D01*
X249721600Y-253277600D02*
X235621600Y-253277600D01*
%TO.C,MX33*%
X102719000Y-353331800D02*
X102719000Y-350531800D01*
X103094000Y-344261800D02*
X103094000Y-350531800D01*
X103094000Y-344261800D02*
X105419000Y-344261800D01*
X103094000Y-350531800D02*
X102719000Y-350531800D01*
X103094000Y-353331800D02*
X102719000Y-353331800D01*
X103094000Y-356561800D02*
X103094000Y-353331800D01*
X105419000Y-343061800D02*
X105419000Y-344261800D01*
X108419000Y-343061800D02*
X105419000Y-343061800D01*
X108419000Y-343061800D02*
X108419000Y-344261800D01*
X108419000Y-344261800D02*
X110244000Y-344261800D01*
X110244000Y-344261800D02*
X110244000Y-348651800D01*
X110244000Y-348651800D02*
X166609000Y-348651800D01*
X110244000Y-353251800D02*
X110244000Y-356561800D01*
X110244000Y-353251800D02*
X166609000Y-353251800D01*
X110244000Y-356561800D02*
X103094000Y-356561800D01*
X166609000Y-343951800D02*
X180609000Y-343951800D01*
X166609000Y-348651800D02*
X166609000Y-343951800D01*
X166609000Y-353251800D02*
X166609000Y-357951800D01*
X180609000Y-348651800D02*
X180609000Y-343951800D01*
X180609000Y-353251800D02*
X180609000Y-357951800D01*
X180609000Y-353251800D02*
X236974000Y-353251800D01*
X180609000Y-357951800D02*
X166609000Y-357951800D01*
X236974000Y-344261800D02*
X236974000Y-348651800D01*
X236974000Y-344261800D02*
X238799000Y-344261800D01*
X236974000Y-348651800D02*
X180609000Y-348651800D01*
X236974000Y-353251800D02*
X236974000Y-356561800D01*
X236974000Y-356561800D02*
X244124000Y-356561800D01*
X238799000Y-343061800D02*
X238799000Y-344261800D01*
X238799000Y-343061800D02*
X241799000Y-343061800D01*
X241799000Y-343061800D02*
X241799000Y-344261800D01*
X241799000Y-344261800D02*
X244124000Y-344261800D01*
X244124000Y-344261800D02*
X244124000Y-350531800D01*
X244124000Y-350531800D02*
X244499000Y-350531800D01*
X244124000Y-353331800D02*
X244499000Y-353331800D01*
X244124000Y-356561800D02*
X244124000Y-353331800D01*
X244499000Y-353331800D02*
X244499000Y-350531800D01*
%TO.C,LEDC6*%
D14*
X189638850Y-255200000D02*
X199638850Y-255200000D01*
X199638850Y-265200000D01*
X189638850Y-265200000D01*
X189638850Y-255200000D01*
%TO.C,LEDC10*%
X321000000Y-269726400D02*
X331000000Y-269726400D01*
X331000000Y-279726400D01*
X321000000Y-279726400D01*
X321000000Y-269726400D01*
%TO.C,LEDC7*%
X221425900Y-255200000D02*
X231425900Y-255200000D01*
X231425900Y-265200000D01*
X221425900Y-265200000D01*
X221425900Y-255200000D01*
%TO.C,LEDC5*%
X157851800Y-255200000D02*
X167851800Y-255200000D01*
X167851800Y-265200000D01*
X157851800Y-265200000D01*
X157851800Y-255200000D01*
%TO.C,LEDC12*%
X387500000Y-269726400D02*
X397500000Y-269726400D01*
X397500000Y-279726400D01*
X387500000Y-279726400D01*
X387500000Y-269726400D01*
%TO.C,LEDC13*%
X387500000Y-326876400D02*
X397500000Y-326876400D01*
X397500000Y-336876400D01*
X387500000Y-336876400D01*
X387500000Y-326876400D01*
%TO.C,LEDC9*%
X285000000Y-255200000D02*
X295000000Y-255200000D01*
X295000000Y-265200000D01*
X285000000Y-265200000D01*
X285000000Y-255200000D01*
%TO.C,LEDC3*%
X94277700Y-255200000D02*
X104277700Y-255200000D01*
X104277700Y-265200000D01*
X94277700Y-265200000D01*
X94277700Y-255200000D01*
%TO.C,LEDC15*%
X321000000Y-326850000D02*
X331000000Y-326850000D01*
X331000000Y-336850000D01*
X321000000Y-336850000D01*
X321000000Y-326850000D01*
%TO.C,LEDC1*%
X30703600Y-255200000D02*
X40703600Y-255200000D01*
X40703600Y-265200000D01*
X30703600Y-265200000D01*
X30703600Y-255200000D01*
%TO.C,LEDC2*%
X62490650Y-255200000D02*
X72490650Y-255200000D01*
X72490650Y-265200000D01*
X62490650Y-265200000D01*
X62490650Y-255200000D01*
%TO.C,LEDC11*%
X354150000Y-288900000D02*
X364150000Y-288900000D01*
X364150000Y-298900000D01*
X354150000Y-298900000D01*
X354150000Y-288900000D01*
%TO.C,LEDC4*%
X126064750Y-255200000D02*
X136064750Y-255200000D01*
X136064750Y-265200000D01*
X126064750Y-265200000D01*
X126064750Y-255200000D01*
%TO.C,LEDC8*%
X253212950Y-255200000D02*
X263212950Y-255200000D01*
X263212950Y-265200000D01*
X253212950Y-265200000D01*
X253212950Y-255200000D01*
%TO.C,LEDC14*%
X354200000Y-341000000D02*
X364200000Y-341000000D01*
X364200000Y-351000000D01*
X354200000Y-351000000D01*
X354200000Y-341000000D01*
%TD*%
M02*
