%TF.GenerationSoftware,KiCad,Pcbnew,(5.1.6-0)*%
%TF.CreationDate,2022-03-16T08:36:45+01:00*%
%TF.ProjectId,A500KBPlate,41353030-4b42-4506-9c61-74652e6b6963,rev?*%
%TF.SameCoordinates,Original*%
%TF.FileFunction,Profile,NP*%
%FSLAX46Y46*%
G04 Gerber Fmt 4.6, Leading zero omitted, Abs format (unit mm)*
G04 Created by KiCad (PCBNEW (5.1.6-0)) date 2022-03-16 08:36:45*
%MOMM*%
%LPD*%
G01*
G04 APERTURE LIST*
%TA.AperFunction,Profile*%
%ADD10C,0.050000*%
%TD*%
%TA.AperFunction,Profile*%
%ADD11C,0.120000*%
%TD*%
G04 APERTURE END LIST*
D10*
X25400000Y-236220000D02*
X26035000Y-236220000D01*
X25400000Y-360680000D02*
X25400000Y-236220000D01*
X473710000Y-360680000D02*
X25400000Y-360680000D01*
X473710000Y-264795000D02*
X473710000Y-360680000D01*
X302895000Y-264795000D02*
X473710000Y-264795000D01*
X302895000Y-236220000D02*
X302895000Y-264795000D01*
X26035000Y-236220000D02*
X302895000Y-236220000D01*
D11*
%TO.C,MX71*%
X302402400Y-296247600D02*
X316502400Y-296247600D01*
X316502400Y-296247600D02*
X316502400Y-310347600D01*
X316502400Y-310347600D02*
X302402400Y-310347600D01*
X302402400Y-310347600D02*
X302402400Y-296247600D01*
X301952400Y-316297600D02*
X301952400Y-313097600D01*
X316952400Y-316297600D02*
X301952400Y-316297600D01*
X316952400Y-313097600D02*
X316952400Y-316297600D01*
X301952400Y-313097600D02*
X316952400Y-313097600D01*
X316952400Y-293497600D02*
X301952400Y-293497600D01*
X316952400Y-290297600D02*
X316952400Y-293497600D01*
X301952400Y-290297600D02*
X316952400Y-290297600D01*
X301952400Y-293497600D02*
X301952400Y-290297600D01*
%TO.C,MX33*%
X232209000Y-357951800D02*
X232209000Y-343951800D01*
X240009000Y-357951800D02*
X232209000Y-357951800D01*
X240009000Y-343951800D02*
X240009000Y-357951800D01*
X232209000Y-343951800D02*
X240009000Y-343951800D01*
X115009000Y-357951800D02*
X115009000Y-343951800D01*
X107209000Y-357951800D02*
X115009000Y-357951800D01*
X107209000Y-343951800D02*
X107209000Y-357951800D01*
X115009000Y-343951800D02*
X107209000Y-343951800D01*
X166559000Y-343901800D02*
X180659000Y-343901800D01*
X180659000Y-343901800D02*
X180659000Y-358001800D01*
X180659000Y-358001800D02*
X166559000Y-358001800D01*
X166559000Y-358001800D02*
X166559000Y-343901800D01*
%TO.C,MX68*%
X287945600Y-324826400D02*
X302045600Y-324826400D01*
X302045600Y-324826400D02*
X302045600Y-338926400D01*
X302045600Y-338926400D02*
X287945600Y-338926400D01*
X287945600Y-338926400D02*
X287945600Y-324826400D01*
X285195600Y-339376400D02*
X285195600Y-324376400D01*
X281995600Y-339376400D02*
X285195600Y-339376400D01*
X281995600Y-324376400D02*
X281995600Y-339376400D01*
X285195600Y-324376400D02*
X281995600Y-324376400D01*
X304795600Y-339376400D02*
X304795600Y-324376400D01*
X307995600Y-339376400D02*
X304795600Y-339376400D01*
X307995600Y-324376400D02*
X307995600Y-339376400D01*
X304795600Y-324376400D02*
X307995600Y-324376400D01*
%TO.C,MX5*%
X32770400Y-339376400D02*
X32770400Y-324376400D01*
X29570400Y-339376400D02*
X32770400Y-339376400D01*
X29570400Y-324376400D02*
X29570400Y-339376400D01*
X32770400Y-324376400D02*
X29570400Y-324376400D01*
X52370400Y-339376400D02*
X52370400Y-324376400D01*
X55570400Y-339376400D02*
X52370400Y-339376400D01*
X55570400Y-324376400D02*
X55570400Y-339376400D01*
X52370400Y-324376400D02*
X55570400Y-324376400D01*
X35520400Y-324826400D02*
X49620400Y-324826400D01*
X49620400Y-324826400D02*
X49620400Y-338926400D01*
X49620400Y-338926400D02*
X35520400Y-338926400D01*
X35520400Y-338926400D02*
X35520400Y-324826400D01*
%TO.C,MX77*%
X366664400Y-267698000D02*
X380764400Y-267698000D01*
X380764400Y-267698000D02*
X380764400Y-281798000D01*
X380764400Y-281798000D02*
X366664400Y-281798000D01*
X366664400Y-281798000D02*
X366664400Y-267698000D01*
%TO.C,MX73*%
X338064000Y-267698000D02*
X352164000Y-267698000D01*
X352164000Y-267698000D02*
X352164000Y-281798000D01*
X352164000Y-281798000D02*
X338064000Y-281798000D01*
X338064000Y-281798000D02*
X338064000Y-267698000D01*
%TO.C,MX2*%
X33183600Y-267651000D02*
X47283600Y-267651000D01*
X47283600Y-267651000D02*
X47283600Y-281751000D01*
X47283600Y-281751000D02*
X33183600Y-281751000D01*
X33183600Y-281751000D02*
X33183600Y-267651000D01*
%TO.C,MX3*%
X35177050Y-301251000D02*
X35177050Y-286251000D01*
X31977050Y-301251000D02*
X35177050Y-301251000D01*
X31977050Y-286251000D02*
X31977050Y-301251000D01*
X35177050Y-286251000D02*
X31977050Y-286251000D01*
X54777050Y-301251000D02*
X54777050Y-286251000D01*
X57977050Y-301251000D02*
X54777050Y-301251000D01*
X57977050Y-286251000D02*
X57977050Y-301251000D01*
X54777050Y-286251000D02*
X57977050Y-286251000D01*
X37927050Y-286701000D02*
X52027050Y-286701000D01*
X52027050Y-286701000D02*
X52027050Y-300801000D01*
X52027050Y-300801000D02*
X37927050Y-300801000D01*
X37927050Y-300801000D02*
X37927050Y-286701000D01*
%TO.C,MX64*%
X288127600Y-343898000D02*
X302227600Y-343898000D01*
X302227600Y-343898000D02*
X302227600Y-357998000D01*
X302227600Y-357998000D02*
X288127600Y-357998000D01*
X288127600Y-357998000D02*
X288127600Y-343898000D01*
%TO.C,MX59*%
X264251600Y-343898000D02*
X278351600Y-343898000D01*
X278351600Y-343898000D02*
X278351600Y-357998000D01*
X278351600Y-357998000D02*
X264251600Y-357998000D01*
X264251600Y-357998000D02*
X264251600Y-343898000D01*
%TO.C,MX54*%
X283272000Y-239177600D02*
X297372000Y-239177600D01*
X297372000Y-239177600D02*
X297372000Y-253277600D01*
X297372000Y-253277600D02*
X283272000Y-253277600D01*
X283272000Y-253277600D02*
X283272000Y-239177600D01*
%TO.C,MX49*%
X259468000Y-239199200D02*
X273568000Y-239199200D01*
X273568000Y-239199200D02*
X273568000Y-253299200D01*
X273568000Y-253299200D02*
X259468000Y-253299200D01*
X259468000Y-253299200D02*
X259468000Y-239199200D01*
%TO.C,MX44*%
X235621600Y-239177600D02*
X249721600Y-239177600D01*
X249721600Y-239177600D02*
X249721600Y-253277600D01*
X249721600Y-253277600D02*
X235621600Y-253277600D01*
X235621600Y-253277600D02*
X235621600Y-239177600D01*
%TO.C,MX39*%
X211796400Y-239177600D02*
X225896400Y-239177600D01*
X225896400Y-239177600D02*
X225896400Y-253277600D01*
X225896400Y-253277600D02*
X211796400Y-253277600D01*
X211796400Y-253277600D02*
X211796400Y-239177600D01*
%TO.C,MX34*%
X187971200Y-239177600D02*
X202071200Y-239177600D01*
X202071200Y-239177600D02*
X202071200Y-253277600D01*
X202071200Y-253277600D02*
X187971200Y-253277600D01*
X187971200Y-253277600D02*
X187971200Y-239177600D01*
%TO.C,MX28*%
X154697200Y-239177600D02*
X168797200Y-239177600D01*
X168797200Y-239177600D02*
X168797200Y-253277600D01*
X168797200Y-253277600D02*
X154697200Y-253277600D01*
X154697200Y-253277600D02*
X154697200Y-239177600D01*
%TO.C,MX23*%
X130872000Y-239177600D02*
X144972000Y-239177600D01*
X144972000Y-239177600D02*
X144972000Y-253277600D01*
X144972000Y-253277600D02*
X130872000Y-253277600D01*
X130872000Y-253277600D02*
X130872000Y-239177600D01*
%TO.C,MX18*%
X107046800Y-239177600D02*
X121146800Y-239177600D01*
X121146800Y-239177600D02*
X121146800Y-253277600D01*
X121146800Y-253277600D02*
X107046800Y-253277600D01*
X107046800Y-253277600D02*
X107046800Y-239177600D01*
%TO.C,MX13*%
X83221600Y-239177600D02*
X97321600Y-239177600D01*
X97321600Y-239177600D02*
X97321600Y-253277600D01*
X97321600Y-253277600D02*
X83221600Y-253277600D01*
X83221600Y-253277600D02*
X83221600Y-239177600D01*
%TO.C,MX12*%
X68845200Y-343927200D02*
X82945200Y-343927200D01*
X82945200Y-343927200D02*
X82945200Y-358027200D01*
X82945200Y-358027200D02*
X68845200Y-358027200D01*
X68845200Y-358027200D02*
X68845200Y-343927200D01*
%TO.C,MX7*%
X59447200Y-239177600D02*
X73547200Y-239177600D01*
X73547200Y-239177600D02*
X73547200Y-253277600D01*
X73547200Y-253277600D02*
X59447200Y-253277600D01*
X59447200Y-253277600D02*
X59447200Y-239177600D01*
%TO.C,MX6*%
X45041200Y-343948800D02*
X59141200Y-343948800D01*
X59141200Y-343948800D02*
X59141200Y-358048800D01*
X59141200Y-358048800D02*
X45041200Y-358048800D01*
X45041200Y-358048800D02*
X45041200Y-343948800D01*
%TO.C,MX4*%
X30774800Y-305747200D02*
X44874800Y-305747200D01*
X44874800Y-305747200D02*
X44874800Y-319847200D01*
X44874800Y-319847200D02*
X30774800Y-319847200D01*
X30774800Y-319847200D02*
X30774800Y-305747200D01*
%TO.C,MX83*%
X406474250Y-358451800D02*
X406474250Y-343451800D01*
X403274250Y-358451800D02*
X406474250Y-358451800D01*
X403274250Y-343451800D02*
X403274250Y-358451800D01*
X406474250Y-343451800D02*
X403274250Y-343451800D01*
X426074250Y-358451800D02*
X426074250Y-343451800D01*
X429274250Y-358451800D02*
X426074250Y-358451800D01*
X429274250Y-343451800D02*
X429274250Y-358451800D01*
X426074250Y-343451800D02*
X429274250Y-343451800D01*
X409224250Y-343901800D02*
X423324250Y-343901800D01*
X423324250Y-343901800D02*
X423324250Y-358001800D01*
X423324250Y-358001800D02*
X409224250Y-358001800D01*
X409224250Y-358001800D02*
X409224250Y-343901800D01*
%TO.C,MX96*%
X456481800Y-354426800D02*
X456481800Y-351226800D01*
X471481800Y-354426800D02*
X456481800Y-354426800D01*
X471481800Y-351226800D02*
X471481800Y-354426800D01*
X456481800Y-351226800D02*
X471481800Y-351226800D01*
X471481800Y-331626800D02*
X456481800Y-331626800D01*
X471481800Y-328426800D02*
X471481800Y-331626800D01*
X456481800Y-328426800D02*
X471481800Y-328426800D01*
X456481800Y-331626800D02*
X456481800Y-328426800D01*
X456931800Y-334376800D02*
X471031800Y-334376800D01*
X471031800Y-334376800D02*
X471031800Y-348476800D01*
X471031800Y-348476800D02*
X456931800Y-348476800D01*
X456931800Y-348476800D02*
X456931800Y-334376800D01*
%TO.C,MX95*%
X456957200Y-305776400D02*
X471057200Y-305776400D01*
X471057200Y-305776400D02*
X471057200Y-319876400D01*
X471057200Y-319876400D02*
X456957200Y-319876400D01*
X456957200Y-319876400D02*
X456957200Y-305776400D01*
%TO.C,MX94*%
X456957200Y-286726400D02*
X471057200Y-286726400D01*
X471057200Y-286726400D02*
X471057200Y-300826400D01*
X471057200Y-300826400D02*
X456957200Y-300826400D01*
X456957200Y-300826400D02*
X456957200Y-286726400D01*
%TO.C,MX93*%
X456957200Y-267778000D02*
X471057200Y-267778000D01*
X471057200Y-267778000D02*
X471057200Y-281878000D01*
X471057200Y-281878000D02*
X456957200Y-281878000D01*
X456957200Y-281878000D02*
X456957200Y-267778000D01*
%TO.C,MX92*%
X437784400Y-343898000D02*
X451884400Y-343898000D01*
X451884400Y-343898000D02*
X451884400Y-357998000D01*
X451884400Y-357998000D02*
X437784400Y-357998000D01*
X437784400Y-357998000D02*
X437784400Y-343898000D01*
%TO.C,MX91*%
X437805600Y-324826400D02*
X451905600Y-324826400D01*
X451905600Y-324826400D02*
X451905600Y-338926400D01*
X451905600Y-338926400D02*
X437805600Y-338926400D01*
X437805600Y-338926400D02*
X437805600Y-324826400D01*
%TO.C,MX90*%
X437805600Y-305827200D02*
X451905600Y-305827200D01*
X451905600Y-305827200D02*
X451905600Y-319927200D01*
X451905600Y-319927200D02*
X437805600Y-319927200D01*
X437805600Y-319927200D02*
X437805600Y-305827200D01*
%TO.C,MX89*%
X437754800Y-286777200D02*
X451854800Y-286777200D01*
X451854800Y-286777200D02*
X451854800Y-300877200D01*
X451854800Y-300877200D02*
X437754800Y-300877200D01*
X437754800Y-300877200D02*
X437754800Y-286777200D01*
%TO.C,MX88*%
X437856400Y-267778000D02*
X451956400Y-267778000D01*
X451956400Y-267778000D02*
X451956400Y-281878000D01*
X451956400Y-281878000D02*
X437856400Y-281878000D01*
X437856400Y-281878000D02*
X437856400Y-267778000D01*
%TO.C,MX87*%
X418734400Y-324848000D02*
X432834400Y-324848000D01*
X432834400Y-324848000D02*
X432834400Y-338948000D01*
X432834400Y-338948000D02*
X418734400Y-338948000D01*
X418734400Y-338948000D02*
X418734400Y-324848000D01*
%TO.C,MX86*%
X418704800Y-305827200D02*
X432804800Y-305827200D01*
X432804800Y-305827200D02*
X432804800Y-319927200D01*
X432804800Y-319927200D02*
X418704800Y-319927200D01*
X418704800Y-319927200D02*
X418704800Y-305827200D01*
%TO.C,MX85*%
X418704800Y-286777200D02*
X432804800Y-286777200D01*
X432804800Y-286777200D02*
X432804800Y-300877200D01*
X432804800Y-300877200D02*
X418704800Y-300877200D01*
X418704800Y-300877200D02*
X418704800Y-286777200D01*
%TO.C,MX84*%
X418755600Y-267778000D02*
X432855600Y-267778000D01*
X432855600Y-267778000D02*
X432855600Y-281878000D01*
X432855600Y-281878000D02*
X418755600Y-281878000D01*
X418755600Y-281878000D02*
X418755600Y-267778000D01*
%TO.C,MX82*%
X399684400Y-324848000D02*
X413784400Y-324848000D01*
X413784400Y-324848000D02*
X413784400Y-338948000D01*
X413784400Y-338948000D02*
X399684400Y-338948000D01*
X399684400Y-338948000D02*
X399684400Y-324848000D01*
%TO.C,MX81*%
X399654800Y-305827200D02*
X413754800Y-305827200D01*
X413754800Y-305827200D02*
X413754800Y-319927200D01*
X413754800Y-319927200D02*
X399654800Y-319927200D01*
X399654800Y-319927200D02*
X399654800Y-305827200D01*
%TO.C,MX80*%
X399654800Y-286777200D02*
X413754800Y-286777200D01*
X413754800Y-286777200D02*
X413754800Y-300877200D01*
X413754800Y-300877200D02*
X399654800Y-300877200D01*
X399654800Y-300877200D02*
X399654800Y-286777200D01*
%TO.C,MX79*%
X399654800Y-267727200D02*
X413754800Y-267727200D01*
X413754800Y-267727200D02*
X413754800Y-281827200D01*
X413754800Y-281827200D02*
X399654800Y-281827200D01*
X399654800Y-281827200D02*
X399654800Y-267727200D01*
%TO.C,MX78*%
X371206800Y-324826400D02*
X385306800Y-324826400D01*
X385306800Y-324826400D02*
X385306800Y-338926400D01*
X385306800Y-338926400D02*
X371206800Y-338926400D01*
X371206800Y-338926400D02*
X371206800Y-324826400D01*
%TO.C,MX76*%
X352186400Y-324826400D02*
X366286400Y-324826400D01*
X366286400Y-324826400D02*
X366286400Y-338926400D01*
X366286400Y-338926400D02*
X352186400Y-338926400D01*
X352186400Y-338926400D02*
X352186400Y-324826400D01*
%TO.C,MX75*%
X352156800Y-305776400D02*
X366256800Y-305776400D01*
X366256800Y-305776400D02*
X366256800Y-319876400D01*
X366256800Y-319876400D02*
X352156800Y-319876400D01*
X352156800Y-319876400D02*
X352156800Y-305776400D01*
%TO.C,MX74*%
X333106800Y-324826400D02*
X347206800Y-324826400D01*
X347206800Y-324826400D02*
X347206800Y-338926400D01*
X347206800Y-338926400D02*
X333106800Y-338926400D01*
X333106800Y-338926400D02*
X333106800Y-324826400D01*
%TO.C,MX72*%
X304811200Y-267676400D02*
X318911200Y-267676400D01*
X318911200Y-267676400D02*
X318911200Y-281776400D01*
X318911200Y-281776400D02*
X304811200Y-281776400D01*
X304811200Y-281776400D02*
X304811200Y-267676400D01*
%TO.C,MX70*%
X280986000Y-305776400D02*
X295086000Y-305776400D01*
X295086000Y-305776400D02*
X295086000Y-319876400D01*
X295086000Y-319876400D02*
X280986000Y-319876400D01*
X280986000Y-319876400D02*
X280986000Y-305776400D01*
%TO.C,MX69*%
X285761200Y-267676400D02*
X299861200Y-267676400D01*
X299861200Y-267676400D02*
X299861200Y-281776400D01*
X299861200Y-281776400D02*
X285761200Y-281776400D01*
X285761200Y-281776400D02*
X285761200Y-267676400D01*
%TO.C,MX67*%
X261936000Y-305776400D02*
X276036000Y-305776400D01*
X276036000Y-305776400D02*
X276036000Y-319876400D01*
X276036000Y-319876400D02*
X261936000Y-319876400D01*
X261936000Y-319876400D02*
X261936000Y-305776400D01*
%TO.C,MX66*%
X276210800Y-286726400D02*
X290310800Y-286726400D01*
X290310800Y-286726400D02*
X290310800Y-300826400D01*
X290310800Y-300826400D02*
X276210800Y-300826400D01*
X276210800Y-300826400D02*
X276210800Y-286726400D01*
%TO.C,MX65*%
X266711200Y-267676400D02*
X280811200Y-267676400D01*
X280811200Y-267676400D02*
X280811200Y-281776400D01*
X280811200Y-281776400D02*
X266711200Y-281776400D01*
X266711200Y-281776400D02*
X266711200Y-267676400D01*
%TO.C,MX63*%
X252233200Y-324826400D02*
X266333200Y-324826400D01*
X266333200Y-324826400D02*
X266333200Y-338926400D01*
X266333200Y-338926400D02*
X252233200Y-338926400D01*
X252233200Y-338926400D02*
X252233200Y-324826400D01*
%TO.C,MX62*%
X242886000Y-305776400D02*
X256986000Y-305776400D01*
X256986000Y-305776400D02*
X256986000Y-319876400D01*
X256986000Y-319876400D02*
X242886000Y-319876400D01*
X242886000Y-319876400D02*
X242886000Y-305776400D01*
%TO.C,MX61*%
X257160800Y-286726400D02*
X271260800Y-286726400D01*
X271260800Y-286726400D02*
X271260800Y-300826400D01*
X271260800Y-300826400D02*
X257160800Y-300826400D01*
X257160800Y-300826400D02*
X257160800Y-286726400D01*
%TO.C,MX60*%
X247661200Y-267676400D02*
X261761200Y-267676400D01*
X261761200Y-267676400D02*
X261761200Y-281776400D01*
X261761200Y-281776400D02*
X247661200Y-281776400D01*
X247661200Y-281776400D02*
X247661200Y-267676400D01*
%TO.C,MX58*%
X233183200Y-324826400D02*
X247283200Y-324826400D01*
X247283200Y-324826400D02*
X247283200Y-338926400D01*
X247283200Y-338926400D02*
X233183200Y-338926400D01*
X233183200Y-338926400D02*
X233183200Y-324826400D01*
%TO.C,MX57*%
X223836000Y-305776400D02*
X237936000Y-305776400D01*
X237936000Y-305776400D02*
X237936000Y-319876400D01*
X237936000Y-319876400D02*
X223836000Y-319876400D01*
X223836000Y-319876400D02*
X223836000Y-305776400D01*
%TO.C,MX56*%
X238110800Y-286726400D02*
X252210800Y-286726400D01*
X252210800Y-286726400D02*
X252210800Y-300826400D01*
X252210800Y-300826400D02*
X238110800Y-300826400D01*
X238110800Y-300826400D02*
X238110800Y-286726400D01*
%TO.C,MX55*%
X228611200Y-267676400D02*
X242711200Y-267676400D01*
X242711200Y-267676400D02*
X242711200Y-281776400D01*
X242711200Y-281776400D02*
X228611200Y-281776400D01*
X228611200Y-281776400D02*
X228611200Y-267676400D01*
%TO.C,MX53*%
X214133200Y-324826400D02*
X228233200Y-324826400D01*
X228233200Y-324826400D02*
X228233200Y-338926400D01*
X228233200Y-338926400D02*
X214133200Y-338926400D01*
X214133200Y-338926400D02*
X214133200Y-324826400D01*
%TO.C,MX52*%
X204735200Y-305776400D02*
X218835200Y-305776400D01*
X218835200Y-305776400D02*
X218835200Y-319876400D01*
X218835200Y-319876400D02*
X204735200Y-319876400D01*
X204735200Y-319876400D02*
X204735200Y-305776400D01*
%TO.C,MX51*%
X219060800Y-286726400D02*
X233160800Y-286726400D01*
X233160800Y-286726400D02*
X233160800Y-300826400D01*
X233160800Y-300826400D02*
X219060800Y-300826400D01*
X219060800Y-300826400D02*
X219060800Y-286726400D01*
%TO.C,MX50*%
X209561200Y-267676400D02*
X223661200Y-267676400D01*
X223661200Y-267676400D02*
X223661200Y-281776400D01*
X223661200Y-281776400D02*
X209561200Y-281776400D01*
X209561200Y-281776400D02*
X209561200Y-267676400D01*
%TO.C,MX48*%
X195083200Y-324826400D02*
X209183200Y-324826400D01*
X209183200Y-324826400D02*
X209183200Y-338926400D01*
X209183200Y-338926400D02*
X195083200Y-338926400D01*
X195083200Y-338926400D02*
X195083200Y-324826400D01*
%TO.C,MX47*%
X185634400Y-305776400D02*
X199734400Y-305776400D01*
X199734400Y-305776400D02*
X199734400Y-319876400D01*
X199734400Y-319876400D02*
X185634400Y-319876400D01*
X185634400Y-319876400D02*
X185634400Y-305776400D01*
%TO.C,MX46*%
X199960000Y-286726400D02*
X214060000Y-286726400D01*
X214060000Y-286726400D02*
X214060000Y-300826400D01*
X214060000Y-300826400D02*
X199960000Y-300826400D01*
X199960000Y-300826400D02*
X199960000Y-286726400D01*
%TO.C,MX45*%
X190460400Y-267676400D02*
X204560400Y-267676400D01*
X204560400Y-267676400D02*
X204560400Y-281776400D01*
X204560400Y-281776400D02*
X190460400Y-281776400D01*
X190460400Y-281776400D02*
X190460400Y-267676400D01*
%TO.C,MX43*%
X176062800Y-324826400D02*
X190162800Y-324826400D01*
X190162800Y-324826400D02*
X190162800Y-338926400D01*
X190162800Y-338926400D02*
X176062800Y-338926400D01*
X176062800Y-338926400D02*
X176062800Y-324826400D01*
%TO.C,MX42*%
X166584400Y-305776400D02*
X180684400Y-305776400D01*
X180684400Y-305776400D02*
X180684400Y-319876400D01*
X180684400Y-319876400D02*
X166584400Y-319876400D01*
X166584400Y-319876400D02*
X166584400Y-305776400D01*
%TO.C,MX41*%
X180910000Y-286726400D02*
X195010000Y-286726400D01*
X195010000Y-286726400D02*
X195010000Y-300826400D01*
X195010000Y-300826400D02*
X180910000Y-300826400D01*
X180910000Y-300826400D02*
X180910000Y-286726400D01*
%TO.C,MX40*%
X171410400Y-267676400D02*
X185510400Y-267676400D01*
X185510400Y-267676400D02*
X185510400Y-281776400D01*
X185510400Y-281776400D02*
X171410400Y-281776400D01*
X171410400Y-281776400D02*
X171410400Y-267676400D01*
%TO.C,MX38*%
X157034000Y-324826400D02*
X171134000Y-324826400D01*
X171134000Y-324826400D02*
X171134000Y-338926400D01*
X171134000Y-338926400D02*
X157034000Y-338926400D01*
X157034000Y-338926400D02*
X157034000Y-324826400D01*
%TO.C,MX37*%
X147513200Y-305798000D02*
X161613200Y-305798000D01*
X161613200Y-305798000D02*
X161613200Y-319898000D01*
X161613200Y-319898000D02*
X147513200Y-319898000D01*
X147513200Y-319898000D02*
X147513200Y-305798000D01*
%TO.C,MX36*%
X161860000Y-286726400D02*
X175960000Y-286726400D01*
X175960000Y-286726400D02*
X175960000Y-300826400D01*
X175960000Y-300826400D02*
X161860000Y-300826400D01*
X161860000Y-300826400D02*
X161860000Y-286726400D01*
%TO.C,MX35*%
X152360400Y-267676400D02*
X166460400Y-267676400D01*
X166460400Y-267676400D02*
X166460400Y-281776400D01*
X166460400Y-281776400D02*
X152360400Y-281776400D01*
X152360400Y-281776400D02*
X152360400Y-267676400D01*
%TO.C,MX32*%
X137933200Y-324826400D02*
X152033200Y-324826400D01*
X152033200Y-324826400D02*
X152033200Y-338926400D01*
X152033200Y-338926400D02*
X137933200Y-338926400D01*
X137933200Y-338926400D02*
X137933200Y-324826400D01*
%TO.C,MX31*%
X128484400Y-305798000D02*
X142584400Y-305798000D01*
X142584400Y-305798000D02*
X142584400Y-319898000D01*
X142584400Y-319898000D02*
X128484400Y-319898000D01*
X128484400Y-319898000D02*
X128484400Y-305798000D01*
%TO.C,MX30*%
X142708400Y-286726400D02*
X156808400Y-286726400D01*
X156808400Y-286726400D02*
X156808400Y-300826400D01*
X156808400Y-300826400D02*
X142708400Y-300826400D01*
X142708400Y-300826400D02*
X142708400Y-286726400D01*
%TO.C,MX29*%
X133289200Y-267647200D02*
X147389200Y-267647200D01*
X147389200Y-267647200D02*
X147389200Y-281747200D01*
X147389200Y-281747200D02*
X133289200Y-281747200D01*
X133289200Y-281747200D02*
X133289200Y-267647200D01*
%TO.C,MX27*%
X118883200Y-324826400D02*
X132983200Y-324826400D01*
X132983200Y-324826400D02*
X132983200Y-338926400D01*
X132983200Y-338926400D02*
X118883200Y-338926400D01*
X118883200Y-338926400D02*
X118883200Y-324826400D01*
%TO.C,MX26*%
X109404800Y-305798000D02*
X123504800Y-305798000D01*
X123504800Y-305798000D02*
X123504800Y-319898000D01*
X123504800Y-319898000D02*
X109404800Y-319898000D01*
X109404800Y-319898000D02*
X109404800Y-305798000D01*
%TO.C,MX25*%
X123658400Y-286726400D02*
X137758400Y-286726400D01*
X137758400Y-286726400D02*
X137758400Y-300826400D01*
X137758400Y-300826400D02*
X123658400Y-300826400D01*
X123658400Y-300826400D02*
X123658400Y-286726400D01*
%TO.C,MX24*%
X114209600Y-267625600D02*
X128309600Y-267625600D01*
X128309600Y-267625600D02*
X128309600Y-281725600D01*
X128309600Y-281725600D02*
X114209600Y-281725600D01*
X114209600Y-281725600D02*
X114209600Y-267625600D01*
%TO.C,MX22*%
X99833200Y-324826400D02*
X113933200Y-324826400D01*
X113933200Y-324826400D02*
X113933200Y-338926400D01*
X113933200Y-338926400D02*
X99833200Y-338926400D01*
X99833200Y-338926400D02*
X99833200Y-324826400D01*
%TO.C,MX21*%
X90333600Y-305776400D02*
X104433600Y-305776400D01*
X104433600Y-305776400D02*
X104433600Y-319876400D01*
X104433600Y-319876400D02*
X90333600Y-319876400D01*
X90333600Y-319876400D02*
X90333600Y-305776400D01*
%TO.C,MX20*%
X104608400Y-286701000D02*
X118708400Y-286701000D01*
X118708400Y-286701000D02*
X118708400Y-300801000D01*
X118708400Y-300801000D02*
X104608400Y-300801000D01*
X104608400Y-300801000D02*
X104608400Y-286701000D01*
%TO.C,MX19*%
X95159600Y-267625600D02*
X109259600Y-267625600D01*
X109259600Y-267625600D02*
X109259600Y-281725600D01*
X109259600Y-281725600D02*
X95159600Y-281725600D01*
X95159600Y-281725600D02*
X95159600Y-267625600D01*
%TO.C,MX17*%
X80783200Y-324826400D02*
X94883200Y-324826400D01*
X94883200Y-324826400D02*
X94883200Y-338926400D01*
X94883200Y-338926400D02*
X80783200Y-338926400D01*
X80783200Y-338926400D02*
X80783200Y-324826400D01*
%TO.C,MX16*%
X71283600Y-305776400D02*
X85383600Y-305776400D01*
X85383600Y-305776400D02*
X85383600Y-319876400D01*
X85383600Y-319876400D02*
X71283600Y-319876400D01*
X71283600Y-319876400D02*
X71283600Y-305776400D01*
%TO.C,MX15*%
X85558400Y-286701000D02*
X99658400Y-286701000D01*
X99658400Y-286701000D02*
X99658400Y-300801000D01*
X99658400Y-300801000D02*
X85558400Y-300801000D01*
X85558400Y-300801000D02*
X85558400Y-286701000D01*
%TO.C,MX14*%
X76109600Y-267625600D02*
X90209600Y-267625600D01*
X90209600Y-267625600D02*
X90209600Y-281725600D01*
X90209600Y-281725600D02*
X76109600Y-281725600D01*
X76109600Y-281725600D02*
X76109600Y-267625600D01*
%TO.C,MX11*%
X61733200Y-324826400D02*
X75833200Y-324826400D01*
X75833200Y-324826400D02*
X75833200Y-338926400D01*
X75833200Y-338926400D02*
X61733200Y-338926400D01*
X61733200Y-338926400D02*
X61733200Y-324826400D01*
%TO.C,MX10*%
X52212400Y-305747200D02*
X66312400Y-305747200D01*
X66312400Y-305747200D02*
X66312400Y-319847200D01*
X66312400Y-319847200D02*
X52212400Y-319847200D01*
X52212400Y-319847200D02*
X52212400Y-305747200D01*
%TO.C,MX9*%
X66487200Y-286697200D02*
X80587200Y-286697200D01*
X80587200Y-286697200D02*
X80587200Y-300797200D01*
X80587200Y-300797200D02*
X66487200Y-300797200D01*
X66487200Y-300797200D02*
X66487200Y-286697200D01*
%TO.C,MX8*%
X57059600Y-267625600D02*
X71159600Y-267625600D01*
X71159600Y-267625600D02*
X71159600Y-281725600D01*
X71159600Y-281725600D02*
X57059600Y-281725600D01*
X57059600Y-281725600D02*
X57059600Y-267625600D01*
%TO.C,MX1*%
X28408400Y-239126800D02*
X42508400Y-239126800D01*
X42508400Y-239126800D02*
X42508400Y-253226800D01*
X42508400Y-253226800D02*
X28408400Y-253226800D01*
X28408400Y-253226800D02*
X28408400Y-239126800D01*
%TD*%
M02*
