M48
; DRILL file {KiCad (5.1.6-0)} date Monday, January 10, 2022 at 09:22:41 AM
; FORMAT={-:-/ absolute / metric / decimal}
; #@! TF.CreationDate,2022-01-10T09:22:41+01:00
; #@! TF.GenerationSoftware,Kicad,Pcbnew,(5.1.6-0)
FMAT,2
METRIC
T1C0.400
T2C1.000
T3C2.500
%
G90
G05
T1
X29.718Y-268.224
X31.496Y-259.842
X31.75Y-261.366
X52.324Y-268.224
X67.31Y-263.398
X73.66Y-267.97
X92.71Y-268.478
X100.584Y-263.398
X111.76Y-268.224
X130.81Y-267.97
X137.668Y-263.398
X149.86Y-267.97
X168.91Y-267.97
X173.736Y-263.398
X187.96Y-267.97
X207.01Y-267.97
X208.788Y-263.144
X226.314Y-267.97
X243.078Y-263.144
X245.11Y-267.97
X264.16Y-268.224
X273.05Y-263.144
X283.21Y-267.97
X296.672Y-262.636
X301.752Y-264.414
X302.006Y-267.97
X324.612Y-275.59
X325.882Y-265.938
X327.66Y-266.446
X330.708Y-266.446
X331.216Y-295.91
X354.076Y-348.488
X364.236Y-295.91
X364.744Y-290.322
X365.252Y-292.862
X385.572Y-294.64
X390.144Y-296.926
X390.144Y-336.55
T2
X299.212Y-255.778
X299.212Y-258.318
X299.212Y-260.858
X299.212Y-263.398
T3
X68.834Y-306.705
X64.135Y-303.53
T0
M30
