%TF.GenerationSoftware,KiCad,Pcbnew,(5.1.6-0)*%
%TF.CreationDate,2024-06-02T12:55:36+02:00*%
%TF.ProjectId,A500KBPlate,41353030-4b42-4506-9c61-74652e6b6963,rev?*%
%TF.SameCoordinates,Original*%
%TF.FileFunction,Soldermask,Top*%
%TF.FilePolarity,Negative*%
%FSLAX46Y46*%
G04 Gerber Fmt 4.6, Leading zero omitted, Abs format (unit mm)*
G04 Created by KiCad (PCBNEW (5.1.6-0)) date 2024-06-02 12:55:36*
%MOMM*%
%LPD*%
G01*
G04 APERTURE LIST*
%TA.AperFunction,Profile*%
%ADD10C,0.050000*%
%TD*%
%TA.AperFunction,Profile*%
%ADD11C,0.120000*%
%TD*%
%ADD12R,2.610000X1.100000*%
%ADD13C,4.400000*%
%ADD14R,1.200000X2.100000*%
%ADD15R,2.100000X1.200000*%
%ADD16C,2.600000*%
G04 APERTURE END LIST*
D10*
X25400000Y-234220000D02*
X26035000Y-234220000D01*
X25400000Y-360680000D02*
X25400000Y-234220000D01*
X473710000Y-360680000D02*
X25400000Y-360680000D01*
X473710000Y-264795000D02*
X473710000Y-360680000D01*
X302895000Y-264795000D02*
X473710000Y-264795000D01*
X302895000Y-234220000D02*
X302895000Y-264795000D01*
X26035000Y-234220000D02*
X302895000Y-234220000D01*
D11*
%TO.C,MX33*%
X110244000Y-344261800D02*
X110244000Y-348651800D01*
X108419000Y-344261800D02*
X110244000Y-344261800D01*
X105419000Y-343061800D02*
X105419000Y-344261800D01*
X108419000Y-343061800D02*
X108419000Y-344261800D01*
X103594000Y-344261800D02*
X103594000Y-350531800D01*
X108419000Y-343061800D02*
X105419000Y-343061800D01*
X180609000Y-353251800D02*
X180609000Y-357951800D01*
X166609000Y-343951800D02*
X180609000Y-343951800D01*
X166609000Y-348651800D02*
X166609000Y-343951800D01*
X180609000Y-357951800D02*
X166609000Y-357951800D01*
X110244000Y-356561800D02*
X103594000Y-356561800D01*
X103594000Y-344261800D02*
X105419000Y-344261800D01*
X110244000Y-348651800D02*
X166609000Y-348651800D01*
X103594000Y-350531800D02*
X102719000Y-350531800D01*
X103594000Y-353331800D02*
X102719000Y-353331800D01*
X102719000Y-353331800D02*
X102719000Y-350531800D01*
X103594000Y-356561800D02*
X103594000Y-353331800D01*
X110244000Y-353251800D02*
X110244000Y-356561800D01*
X110244000Y-353251800D02*
X166609000Y-353251800D01*
X166609000Y-353251800D02*
X166609000Y-357951800D01*
X241799000Y-343061800D02*
X241799000Y-344261800D01*
X238799000Y-343061800D02*
X238799000Y-344261800D01*
X243624000Y-344261800D02*
X243624000Y-350531800D01*
X238799000Y-343061800D02*
X241799000Y-343061800D01*
X236974000Y-356561800D02*
X243624000Y-356561800D01*
X241799000Y-344261800D02*
X243624000Y-344261800D01*
X244499000Y-353331800D02*
X244499000Y-350531800D01*
X243624000Y-350531800D02*
X244499000Y-350531800D01*
X236974000Y-353251800D02*
X236974000Y-356561800D01*
X243624000Y-353331800D02*
X244499000Y-353331800D01*
X236974000Y-344261800D02*
X236974000Y-348651800D01*
X236974000Y-344261800D02*
X238799000Y-344261800D01*
X243624000Y-356561800D02*
X243624000Y-353331800D01*
X180609000Y-353251800D02*
X236974000Y-353251800D01*
X180609000Y-348651800D02*
X180609000Y-343951800D01*
X236974000Y-348651800D02*
X180609000Y-348651800D01*
%TO.C,MX96*%
X458011800Y-350001800D02*
X458011800Y-348426800D01*
X458011800Y-348426800D02*
X456981800Y-348426800D01*
X468711800Y-348426800D02*
X468711800Y-350001800D01*
X469511800Y-356651800D02*
X466281800Y-356651800D01*
X457211800Y-350001800D02*
X457211800Y-351826800D01*
X457211800Y-350001800D02*
X458011800Y-350001800D01*
X466281800Y-356651800D02*
X466281800Y-357526800D01*
X468711800Y-350001800D02*
X469511800Y-350001800D01*
X463481800Y-356651800D02*
X463481800Y-357526800D01*
X466281800Y-357526800D02*
X463481800Y-357526800D01*
X457211800Y-354826800D02*
X457211800Y-356651800D01*
X469511800Y-350001800D02*
X469511800Y-356651800D01*
X456011800Y-351826800D02*
X456011800Y-354826800D01*
X457211800Y-356651800D02*
X463481800Y-356651800D01*
X456011800Y-351826800D02*
X457211800Y-351826800D01*
X456011800Y-354826800D02*
X457211800Y-354826800D01*
X468711800Y-334426800D02*
X470981800Y-334426800D01*
X468711800Y-332851800D02*
X468711800Y-334426800D01*
X468711800Y-332851800D02*
X469511800Y-332851800D01*
X469511800Y-326201800D02*
X466281800Y-326201800D01*
X466281800Y-325326800D02*
X463481800Y-325326800D01*
X466281800Y-326201800D02*
X466281800Y-325326800D01*
X463481800Y-326201800D02*
X463481800Y-325326800D01*
X458011800Y-332851800D02*
X458011800Y-334426800D01*
X457211800Y-326201800D02*
X457211800Y-328026800D01*
X469511800Y-332851800D02*
X469511800Y-326201800D01*
X470981800Y-348426800D02*
X470981800Y-334426800D01*
X458011800Y-334426800D02*
X456981800Y-334426800D01*
X456981800Y-334426800D02*
X456981800Y-348426800D01*
X468711800Y-348426800D02*
X470981800Y-348426800D01*
X456011800Y-331026800D02*
X456011800Y-328026800D01*
X457211800Y-326201800D02*
X463481800Y-326201800D01*
X456011800Y-331026800D02*
X457211800Y-331026800D01*
X456011800Y-328026800D02*
X457211800Y-328026800D01*
X457211800Y-331026800D02*
X457211800Y-332851800D01*
X457211800Y-332851800D02*
X458011800Y-332851800D01*
%TO.C,MX71*%
X315422400Y-294722600D02*
X315422400Y-296297600D01*
X315422400Y-296297600D02*
X316452400Y-296297600D01*
X304722400Y-296297600D02*
X304722400Y-294722600D01*
X303922400Y-288072600D02*
X307152400Y-288072600D01*
X316222400Y-294722600D02*
X316222400Y-292897600D01*
X316222400Y-294722600D02*
X315422400Y-294722600D01*
X307152400Y-288072600D02*
X307152400Y-287197600D01*
X304722400Y-294722600D02*
X303922400Y-294722600D01*
X309952400Y-288072600D02*
X309952400Y-287197600D01*
X307152400Y-287197600D02*
X309952400Y-287197600D01*
X316222400Y-289897600D02*
X316222400Y-288072600D01*
X303922400Y-294722600D02*
X303922400Y-288072600D01*
X317422400Y-292897600D02*
X317422400Y-289897600D01*
X316222400Y-288072600D02*
X309952400Y-288072600D01*
X317422400Y-292897600D02*
X316222400Y-292897600D01*
X317422400Y-289897600D02*
X316222400Y-289897600D01*
X304722400Y-310297600D02*
X302452400Y-310297600D01*
X304722400Y-311872600D02*
X304722400Y-310297600D01*
X304722400Y-311872600D02*
X303922400Y-311872600D01*
X303922400Y-318522600D02*
X307152400Y-318522600D01*
X307152400Y-319397600D02*
X309952400Y-319397600D01*
X307152400Y-318522600D02*
X307152400Y-319397600D01*
X309952400Y-318522600D02*
X309952400Y-319397600D01*
X315422400Y-311872600D02*
X315422400Y-310297600D01*
X316222400Y-318522600D02*
X316222400Y-316697600D01*
X303922400Y-311872600D02*
X303922400Y-318522600D01*
X302452400Y-296297600D02*
X302452400Y-310297600D01*
X315422400Y-310297600D02*
X316452400Y-310297600D01*
X316452400Y-310297600D02*
X316452400Y-296297600D01*
X304722400Y-296297600D02*
X302452400Y-296297600D01*
X317422400Y-313697600D02*
X317422400Y-316697600D01*
X316222400Y-318522600D02*
X309952400Y-318522600D01*
X317422400Y-313697600D02*
X316222400Y-313697600D01*
X317422400Y-316697600D02*
X316222400Y-316697600D01*
X316222400Y-313697600D02*
X316222400Y-311872600D01*
X316222400Y-311872600D02*
X315422400Y-311872600D01*
%TO.C,MX68*%
X286420600Y-337846400D02*
X287995600Y-337846400D01*
X287995600Y-337846400D02*
X287995600Y-338876400D01*
X287995600Y-327146400D02*
X286420600Y-327146400D01*
X279770600Y-326346400D02*
X279770600Y-329576400D01*
X286420600Y-338646400D02*
X284595600Y-338646400D01*
X286420600Y-338646400D02*
X286420600Y-337846400D01*
X279770600Y-329576400D02*
X278895600Y-329576400D01*
X286420600Y-327146400D02*
X286420600Y-326346400D01*
X279770600Y-332376400D02*
X278895600Y-332376400D01*
X278895600Y-329576400D02*
X278895600Y-332376400D01*
X281595600Y-338646400D02*
X279770600Y-338646400D01*
X286420600Y-326346400D02*
X279770600Y-326346400D01*
X284595600Y-339846400D02*
X281595600Y-339846400D01*
X279770600Y-338646400D02*
X279770600Y-332376400D01*
X284595600Y-339846400D02*
X284595600Y-338646400D01*
X281595600Y-339846400D02*
X281595600Y-338646400D01*
X301995600Y-327146400D02*
X301995600Y-324876400D01*
X303570600Y-327146400D02*
X301995600Y-327146400D01*
X303570600Y-327146400D02*
X303570600Y-326346400D01*
X310220600Y-326346400D02*
X310220600Y-329576400D01*
X311095600Y-329576400D02*
X311095600Y-332376400D01*
X310220600Y-329576400D02*
X311095600Y-329576400D01*
X310220600Y-332376400D02*
X311095600Y-332376400D01*
X303570600Y-337846400D02*
X301995600Y-337846400D01*
X310220600Y-338646400D02*
X308395600Y-338646400D01*
X303570600Y-326346400D02*
X310220600Y-326346400D01*
X287995600Y-324876400D02*
X301995600Y-324876400D01*
X301995600Y-337846400D02*
X301995600Y-338876400D01*
X301995600Y-338876400D02*
X287995600Y-338876400D01*
X287995600Y-327146400D02*
X287995600Y-324876400D01*
X305395600Y-339846400D02*
X308395600Y-339846400D01*
X310220600Y-338646400D02*
X310220600Y-332376400D01*
X305395600Y-339846400D02*
X305395600Y-338646400D01*
X308395600Y-339846400D02*
X308395600Y-338646400D01*
X305395600Y-338646400D02*
X303570600Y-338646400D01*
X303570600Y-338646400D02*
X303570600Y-337846400D01*
%TO.C,MX5*%
X32970400Y-339226400D02*
X32970400Y-324526400D01*
X29770400Y-339226400D02*
X32970400Y-339226400D01*
X29770400Y-324526400D02*
X29770400Y-339226400D01*
X32970400Y-324526400D02*
X29770400Y-324526400D01*
X52170400Y-339226400D02*
X52170400Y-324526400D01*
X55370400Y-339226400D02*
X52170400Y-339226400D01*
X55370400Y-324526400D02*
X55370400Y-339226400D01*
X52170400Y-324526400D02*
X55370400Y-324526400D01*
X35520400Y-324826400D02*
X49620400Y-324826400D01*
X49620400Y-324826400D02*
X49620400Y-338926400D01*
X49620400Y-338926400D02*
X35520400Y-338926400D01*
X35520400Y-338926400D02*
X35520400Y-324826400D01*
%TO.C,MX77*%
X366514400Y-279726400D02*
X366614400Y-279726400D01*
X366614400Y-277726400D02*
X366614400Y-279726400D01*
X366614400Y-277726400D02*
X366714400Y-277726400D01*
X366514400Y-279726400D02*
X366514400Y-281926400D01*
X368714400Y-281926400D02*
X366514400Y-281926400D01*
X370714400Y-281826400D02*
X368714400Y-281826400D01*
X368714400Y-281826400D02*
X368714400Y-281926400D01*
X370714400Y-281726400D02*
X370714400Y-281826400D01*
X380914400Y-281926400D02*
X378714400Y-281926400D01*
X380914400Y-279726400D02*
X380914400Y-281926400D01*
X380714400Y-277726400D02*
X380814400Y-277726400D01*
X380814400Y-277726400D02*
X380814400Y-279726400D01*
X380814400Y-279726400D02*
X380914400Y-279726400D01*
X378714400Y-281826400D02*
X376714400Y-281826400D01*
X378714400Y-281826400D02*
X378714400Y-281926400D01*
X376714400Y-281726400D02*
X376714400Y-281826400D01*
X380814400Y-269726400D02*
X380914400Y-269726400D01*
X380814400Y-269726400D02*
X380814400Y-271726400D01*
X380714400Y-271726400D02*
X380814400Y-271726400D01*
X380914400Y-267526400D02*
X380914400Y-269726400D01*
X380914400Y-267526400D02*
X378714400Y-267526400D01*
X378714400Y-267526400D02*
X378714400Y-267626400D01*
X378714400Y-267626400D02*
X376714400Y-267626400D01*
X376714400Y-267626400D02*
X376714400Y-267726400D01*
X368714400Y-267526400D02*
X366514400Y-267526400D01*
X368714400Y-267526400D02*
X368714400Y-267626400D01*
X370714400Y-267626400D02*
X368714400Y-267626400D01*
X370714400Y-267626400D02*
X370714400Y-267726400D01*
X366514400Y-267526400D02*
X366514400Y-269726400D01*
X366514400Y-269726400D02*
X366614400Y-269726400D01*
X366614400Y-269726400D02*
X366614400Y-271726400D01*
X366614400Y-271726400D02*
X366714400Y-271726400D01*
X366714400Y-277726400D02*
X366714400Y-271726400D01*
X376714400Y-281726400D02*
X370714400Y-281726400D01*
X380714400Y-271726400D02*
X380714400Y-277726400D01*
X370714400Y-267726400D02*
X376714400Y-267726400D01*
%TO.C,MX73*%
X337914000Y-279726400D02*
X338014000Y-279726400D01*
X338014000Y-277726400D02*
X338014000Y-279726400D01*
X338014000Y-277726400D02*
X338114000Y-277726400D01*
X337914000Y-279726400D02*
X337914000Y-281926400D01*
X340114000Y-281926400D02*
X337914000Y-281926400D01*
X342114000Y-281826400D02*
X340114000Y-281826400D01*
X340114000Y-281826400D02*
X340114000Y-281926400D01*
X342114000Y-281726400D02*
X342114000Y-281826400D01*
X352314000Y-281926400D02*
X350114000Y-281926400D01*
X352314000Y-279726400D02*
X352314000Y-281926400D01*
X352114000Y-277726400D02*
X352214000Y-277726400D01*
X352214000Y-277726400D02*
X352214000Y-279726400D01*
X352214000Y-279726400D02*
X352314000Y-279726400D01*
X350114000Y-281826400D02*
X348114000Y-281826400D01*
X350114000Y-281826400D02*
X350114000Y-281926400D01*
X348114000Y-281726400D02*
X348114000Y-281826400D01*
X352214000Y-269726400D02*
X352314000Y-269726400D01*
X352214000Y-269726400D02*
X352214000Y-271726400D01*
X352114000Y-271726400D02*
X352214000Y-271726400D01*
X352314000Y-267526400D02*
X352314000Y-269726400D01*
X352314000Y-267526400D02*
X350114000Y-267526400D01*
X350114000Y-267526400D02*
X350114000Y-267626400D01*
X350114000Y-267626400D02*
X348114000Y-267626400D01*
X348114000Y-267626400D02*
X348114000Y-267726400D01*
X340114000Y-267526400D02*
X337914000Y-267526400D01*
X340114000Y-267526400D02*
X340114000Y-267626400D01*
X342114000Y-267626400D02*
X340114000Y-267626400D01*
X342114000Y-267626400D02*
X342114000Y-267726400D01*
X337914000Y-267526400D02*
X337914000Y-269726400D01*
X337914000Y-269726400D02*
X338014000Y-269726400D01*
X338014000Y-269726400D02*
X338014000Y-271726400D01*
X338014000Y-271726400D02*
X338114000Y-271726400D01*
X338114000Y-277726400D02*
X338114000Y-271726400D01*
X348114000Y-281726400D02*
X342114000Y-281726400D01*
X352114000Y-271726400D02*
X352114000Y-277726400D01*
X342114000Y-267726400D02*
X348114000Y-267726400D01*
%TO.C,MX2*%
X33033600Y-279675600D02*
X33133600Y-279675600D01*
X33133600Y-277675600D02*
X33133600Y-279675600D01*
X33133600Y-277675600D02*
X33233600Y-277675600D01*
X33033600Y-279675600D02*
X33033600Y-281875600D01*
X35233600Y-281875600D02*
X33033600Y-281875600D01*
X37233600Y-281775600D02*
X35233600Y-281775600D01*
X35233600Y-281775600D02*
X35233600Y-281875600D01*
X37233600Y-281675600D02*
X37233600Y-281775600D01*
X47433600Y-281875600D02*
X45233600Y-281875600D01*
X47433600Y-279675600D02*
X47433600Y-281875600D01*
X47233600Y-277675600D02*
X47333600Y-277675600D01*
X47333600Y-277675600D02*
X47333600Y-279675600D01*
X47333600Y-279675600D02*
X47433600Y-279675600D01*
X45233600Y-281775600D02*
X43233600Y-281775600D01*
X45233600Y-281775600D02*
X45233600Y-281875600D01*
X43233600Y-281675600D02*
X43233600Y-281775600D01*
X47333600Y-269675600D02*
X47433600Y-269675600D01*
X47333600Y-269675600D02*
X47333600Y-271675600D01*
X47233600Y-271675600D02*
X47333600Y-271675600D01*
X47433600Y-267475600D02*
X47433600Y-269675600D01*
X47433600Y-267475600D02*
X45233600Y-267475600D01*
X45233600Y-267475600D02*
X45233600Y-267575600D01*
X45233600Y-267575600D02*
X43233600Y-267575600D01*
X43233600Y-267575600D02*
X43233600Y-267675600D01*
X35233600Y-267475600D02*
X33033600Y-267475600D01*
X35233600Y-267475600D02*
X35233600Y-267575600D01*
X37233600Y-267575600D02*
X35233600Y-267575600D01*
X37233600Y-267575600D02*
X37233600Y-267675600D01*
X33033600Y-267475600D02*
X33033600Y-269675600D01*
X33033600Y-269675600D02*
X33133600Y-269675600D01*
X33133600Y-269675600D02*
X33133600Y-271675600D01*
X33133600Y-271675600D02*
X33233600Y-271675600D01*
X33233600Y-277675600D02*
X33233600Y-271675600D01*
X43233600Y-281675600D02*
X37233600Y-281675600D01*
X47233600Y-271675600D02*
X47233600Y-277675600D01*
X37233600Y-267675600D02*
X43233600Y-267675600D01*
%TO.C,MX3*%
X36402050Y-299717200D02*
X37977050Y-299717200D01*
X37977050Y-299717200D02*
X37977050Y-300747200D01*
X37977050Y-289017200D02*
X36402050Y-289017200D01*
X29752050Y-288217200D02*
X29752050Y-291447200D01*
X36402050Y-300517200D02*
X34577050Y-300517200D01*
X36402050Y-300517200D02*
X36402050Y-299717200D01*
X29752050Y-291447200D02*
X28877050Y-291447200D01*
X36402050Y-289017200D02*
X36402050Y-288217200D01*
X29752050Y-294247200D02*
X28877050Y-294247200D01*
X28877050Y-291447200D02*
X28877050Y-294247200D01*
X31577050Y-300517200D02*
X29752050Y-300517200D01*
X36402050Y-288217200D02*
X29752050Y-288217200D01*
X34577050Y-301717200D02*
X31577050Y-301717200D01*
X29752050Y-300517200D02*
X29752050Y-294247200D01*
X34577050Y-301717200D02*
X34577050Y-300517200D01*
X31577050Y-301717200D02*
X31577050Y-300517200D01*
X51977050Y-289017200D02*
X51977050Y-286747200D01*
X53552050Y-289017200D02*
X51977050Y-289017200D01*
X53552050Y-289017200D02*
X53552050Y-288217200D01*
X60202050Y-288217200D02*
X60202050Y-291447200D01*
X61077050Y-291447200D02*
X61077050Y-294247200D01*
X60202050Y-291447200D02*
X61077050Y-291447200D01*
X60202050Y-294247200D02*
X61077050Y-294247200D01*
X53552050Y-299717200D02*
X51977050Y-299717200D01*
X60202050Y-300517200D02*
X58377050Y-300517200D01*
X53552050Y-288217200D02*
X60202050Y-288217200D01*
X37977050Y-286747200D02*
X51977050Y-286747200D01*
X51977050Y-299717200D02*
X51977050Y-300747200D01*
X51977050Y-300747200D02*
X37977050Y-300747200D01*
X37977050Y-289017200D02*
X37977050Y-286747200D01*
X55377050Y-301717200D02*
X58377050Y-301717200D01*
X60202050Y-300517200D02*
X60202050Y-294247200D01*
X55377050Y-301717200D02*
X55377050Y-300517200D01*
X58377050Y-301717200D02*
X58377050Y-300517200D01*
X55377050Y-300517200D02*
X53552050Y-300517200D01*
X53552050Y-300517200D02*
X53552050Y-299717200D01*
%TO.C,MX64*%
X287977600Y-355948000D02*
X288077600Y-355948000D01*
X288077600Y-353948000D02*
X288077600Y-355948000D01*
X288077600Y-353948000D02*
X288177600Y-353948000D01*
X287977600Y-355948000D02*
X287977600Y-358148000D01*
X290177600Y-358148000D02*
X287977600Y-358148000D01*
X292177600Y-358048000D02*
X290177600Y-358048000D01*
X290177600Y-358048000D02*
X290177600Y-358148000D01*
X292177600Y-357948000D02*
X292177600Y-358048000D01*
X302377600Y-358148000D02*
X300177600Y-358148000D01*
X302377600Y-355948000D02*
X302377600Y-358148000D01*
X302177600Y-353948000D02*
X302277600Y-353948000D01*
X302277600Y-353948000D02*
X302277600Y-355948000D01*
X302277600Y-355948000D02*
X302377600Y-355948000D01*
X300177600Y-358048000D02*
X298177600Y-358048000D01*
X300177600Y-358048000D02*
X300177600Y-358148000D01*
X298177600Y-357948000D02*
X298177600Y-358048000D01*
X302277600Y-345948000D02*
X302377600Y-345948000D01*
X302277600Y-345948000D02*
X302277600Y-347948000D01*
X302177600Y-347948000D02*
X302277600Y-347948000D01*
X302377600Y-343748000D02*
X302377600Y-345948000D01*
X302377600Y-343748000D02*
X300177600Y-343748000D01*
X300177600Y-343748000D02*
X300177600Y-343848000D01*
X300177600Y-343848000D02*
X298177600Y-343848000D01*
X298177600Y-343848000D02*
X298177600Y-343948000D01*
X290177600Y-343748000D02*
X287977600Y-343748000D01*
X290177600Y-343748000D02*
X290177600Y-343848000D01*
X292177600Y-343848000D02*
X290177600Y-343848000D01*
X292177600Y-343848000D02*
X292177600Y-343948000D01*
X287977600Y-343748000D02*
X287977600Y-345948000D01*
X287977600Y-345948000D02*
X288077600Y-345948000D01*
X288077600Y-345948000D02*
X288077600Y-347948000D01*
X288077600Y-347948000D02*
X288177600Y-347948000D01*
X288177600Y-353948000D02*
X288177600Y-347948000D01*
X298177600Y-357948000D02*
X292177600Y-357948000D01*
X302177600Y-347948000D02*
X302177600Y-353948000D01*
X292177600Y-343948000D02*
X298177600Y-343948000D01*
%TO.C,MX59*%
X264101600Y-355948000D02*
X264201600Y-355948000D01*
X264201600Y-353948000D02*
X264201600Y-355948000D01*
X264201600Y-353948000D02*
X264301600Y-353948000D01*
X264101600Y-355948000D02*
X264101600Y-358148000D01*
X266301600Y-358148000D02*
X264101600Y-358148000D01*
X268301600Y-358048000D02*
X266301600Y-358048000D01*
X266301600Y-358048000D02*
X266301600Y-358148000D01*
X268301600Y-357948000D02*
X268301600Y-358048000D01*
X278501600Y-358148000D02*
X276301600Y-358148000D01*
X278501600Y-355948000D02*
X278501600Y-358148000D01*
X278301600Y-353948000D02*
X278401600Y-353948000D01*
X278401600Y-353948000D02*
X278401600Y-355948000D01*
X278401600Y-355948000D02*
X278501600Y-355948000D01*
X276301600Y-358048000D02*
X274301600Y-358048000D01*
X276301600Y-358048000D02*
X276301600Y-358148000D01*
X274301600Y-357948000D02*
X274301600Y-358048000D01*
X278401600Y-345948000D02*
X278501600Y-345948000D01*
X278401600Y-345948000D02*
X278401600Y-347948000D01*
X278301600Y-347948000D02*
X278401600Y-347948000D01*
X278501600Y-343748000D02*
X278501600Y-345948000D01*
X278501600Y-343748000D02*
X276301600Y-343748000D01*
X276301600Y-343748000D02*
X276301600Y-343848000D01*
X276301600Y-343848000D02*
X274301600Y-343848000D01*
X274301600Y-343848000D02*
X274301600Y-343948000D01*
X266301600Y-343748000D02*
X264101600Y-343748000D01*
X266301600Y-343748000D02*
X266301600Y-343848000D01*
X268301600Y-343848000D02*
X266301600Y-343848000D01*
X268301600Y-343848000D02*
X268301600Y-343948000D01*
X264101600Y-343748000D02*
X264101600Y-345948000D01*
X264101600Y-345948000D02*
X264201600Y-345948000D01*
X264201600Y-345948000D02*
X264201600Y-347948000D01*
X264201600Y-347948000D02*
X264301600Y-347948000D01*
X264301600Y-353948000D02*
X264301600Y-347948000D01*
X274301600Y-357948000D02*
X268301600Y-357948000D01*
X278301600Y-347948000D02*
X278301600Y-353948000D01*
X268301600Y-343948000D02*
X274301600Y-343948000D01*
%TO.C,MX54*%
X283122000Y-251227600D02*
X283222000Y-251227600D01*
X283222000Y-249227600D02*
X283222000Y-251227600D01*
X283222000Y-249227600D02*
X283322000Y-249227600D01*
X283122000Y-251227600D02*
X283122000Y-253427600D01*
X285322000Y-253427600D02*
X283122000Y-253427600D01*
X287322000Y-253327600D02*
X285322000Y-253327600D01*
X285322000Y-253327600D02*
X285322000Y-253427600D01*
X287322000Y-253227600D02*
X287322000Y-253327600D01*
X297522000Y-253427600D02*
X295322000Y-253427600D01*
X297522000Y-251227600D02*
X297522000Y-253427600D01*
X297322000Y-249227600D02*
X297422000Y-249227600D01*
X297422000Y-249227600D02*
X297422000Y-251227600D01*
X297422000Y-251227600D02*
X297522000Y-251227600D01*
X295322000Y-253327600D02*
X293322000Y-253327600D01*
X295322000Y-253327600D02*
X295322000Y-253427600D01*
X293322000Y-253227600D02*
X293322000Y-253327600D01*
X297422000Y-241227600D02*
X297522000Y-241227600D01*
X297422000Y-241227600D02*
X297422000Y-243227600D01*
X297322000Y-243227600D02*
X297422000Y-243227600D01*
X297522000Y-239027600D02*
X297522000Y-241227600D01*
X297522000Y-239027600D02*
X295322000Y-239027600D01*
X295322000Y-239027600D02*
X295322000Y-239127600D01*
X295322000Y-239127600D02*
X293322000Y-239127600D01*
X293322000Y-239127600D02*
X293322000Y-239227600D01*
X285322000Y-239027600D02*
X283122000Y-239027600D01*
X285322000Y-239027600D02*
X285322000Y-239127600D01*
X287322000Y-239127600D02*
X285322000Y-239127600D01*
X287322000Y-239127600D02*
X287322000Y-239227600D01*
X283122000Y-239027600D02*
X283122000Y-241227600D01*
X283122000Y-241227600D02*
X283222000Y-241227600D01*
X283222000Y-241227600D02*
X283222000Y-243227600D01*
X283222000Y-243227600D02*
X283322000Y-243227600D01*
X283322000Y-249227600D02*
X283322000Y-243227600D01*
X293322000Y-253227600D02*
X287322000Y-253227600D01*
X297322000Y-243227600D02*
X297322000Y-249227600D01*
X287322000Y-239227600D02*
X293322000Y-239227600D01*
%TO.C,MX49*%
X259318000Y-251249200D02*
X259418000Y-251249200D01*
X259418000Y-249249200D02*
X259418000Y-251249200D01*
X259418000Y-249249200D02*
X259518000Y-249249200D01*
X259318000Y-251249200D02*
X259318000Y-253449200D01*
X261518000Y-253449200D02*
X259318000Y-253449200D01*
X263518000Y-253349200D02*
X261518000Y-253349200D01*
X261518000Y-253349200D02*
X261518000Y-253449200D01*
X263518000Y-253249200D02*
X263518000Y-253349200D01*
X273718000Y-253449200D02*
X271518000Y-253449200D01*
X273718000Y-251249200D02*
X273718000Y-253449200D01*
X273518000Y-249249200D02*
X273618000Y-249249200D01*
X273618000Y-249249200D02*
X273618000Y-251249200D01*
X273618000Y-251249200D02*
X273718000Y-251249200D01*
X271518000Y-253349200D02*
X269518000Y-253349200D01*
X271518000Y-253349200D02*
X271518000Y-253449200D01*
X269518000Y-253249200D02*
X269518000Y-253349200D01*
X273618000Y-241249200D02*
X273718000Y-241249200D01*
X273618000Y-241249200D02*
X273618000Y-243249200D01*
X273518000Y-243249200D02*
X273618000Y-243249200D01*
X273718000Y-239049200D02*
X273718000Y-241249200D01*
X273718000Y-239049200D02*
X271518000Y-239049200D01*
X271518000Y-239049200D02*
X271518000Y-239149200D01*
X271518000Y-239149200D02*
X269518000Y-239149200D01*
X269518000Y-239149200D02*
X269518000Y-239249200D01*
X261518000Y-239049200D02*
X259318000Y-239049200D01*
X261518000Y-239049200D02*
X261518000Y-239149200D01*
X263518000Y-239149200D02*
X261518000Y-239149200D01*
X263518000Y-239149200D02*
X263518000Y-239249200D01*
X259318000Y-239049200D02*
X259318000Y-241249200D01*
X259318000Y-241249200D02*
X259418000Y-241249200D01*
X259418000Y-241249200D02*
X259418000Y-243249200D01*
X259418000Y-243249200D02*
X259518000Y-243249200D01*
X259518000Y-249249200D02*
X259518000Y-243249200D01*
X269518000Y-253249200D02*
X263518000Y-253249200D01*
X273518000Y-243249200D02*
X273518000Y-249249200D01*
X263518000Y-239249200D02*
X269518000Y-239249200D01*
%TO.C,MX44*%
X235471600Y-251227600D02*
X235571600Y-251227600D01*
X235571600Y-249227600D02*
X235571600Y-251227600D01*
X235571600Y-249227600D02*
X235671600Y-249227600D01*
X235471600Y-251227600D02*
X235471600Y-253427600D01*
X237671600Y-253427600D02*
X235471600Y-253427600D01*
X239671600Y-253327600D02*
X237671600Y-253327600D01*
X237671600Y-253327600D02*
X237671600Y-253427600D01*
X239671600Y-253227600D02*
X239671600Y-253327600D01*
X249871600Y-253427600D02*
X247671600Y-253427600D01*
X249871600Y-251227600D02*
X249871600Y-253427600D01*
X249671600Y-249227600D02*
X249771600Y-249227600D01*
X249771600Y-249227600D02*
X249771600Y-251227600D01*
X249771600Y-251227600D02*
X249871600Y-251227600D01*
X247671600Y-253327600D02*
X245671600Y-253327600D01*
X247671600Y-253327600D02*
X247671600Y-253427600D01*
X245671600Y-253227600D02*
X245671600Y-253327600D01*
X249771600Y-241227600D02*
X249871600Y-241227600D01*
X249771600Y-241227600D02*
X249771600Y-243227600D01*
X249671600Y-243227600D02*
X249771600Y-243227600D01*
X249871600Y-239027600D02*
X249871600Y-241227600D01*
X249871600Y-239027600D02*
X247671600Y-239027600D01*
X247671600Y-239027600D02*
X247671600Y-239127600D01*
X247671600Y-239127600D02*
X245671600Y-239127600D01*
X245671600Y-239127600D02*
X245671600Y-239227600D01*
X237671600Y-239027600D02*
X235471600Y-239027600D01*
X237671600Y-239027600D02*
X237671600Y-239127600D01*
X239671600Y-239127600D02*
X237671600Y-239127600D01*
X239671600Y-239127600D02*
X239671600Y-239227600D01*
X235471600Y-239027600D02*
X235471600Y-241227600D01*
X235471600Y-241227600D02*
X235571600Y-241227600D01*
X235571600Y-241227600D02*
X235571600Y-243227600D01*
X235571600Y-243227600D02*
X235671600Y-243227600D01*
X235671600Y-249227600D02*
X235671600Y-243227600D01*
X245671600Y-253227600D02*
X239671600Y-253227600D01*
X249671600Y-243227600D02*
X249671600Y-249227600D01*
X239671600Y-239227600D02*
X245671600Y-239227600D01*
%TO.C,MX39*%
X211646400Y-251227600D02*
X211746400Y-251227600D01*
X211746400Y-249227600D02*
X211746400Y-251227600D01*
X211746400Y-249227600D02*
X211846400Y-249227600D01*
X211646400Y-251227600D02*
X211646400Y-253427600D01*
X213846400Y-253427600D02*
X211646400Y-253427600D01*
X215846400Y-253327600D02*
X213846400Y-253327600D01*
X213846400Y-253327600D02*
X213846400Y-253427600D01*
X215846400Y-253227600D02*
X215846400Y-253327600D01*
X226046400Y-253427600D02*
X223846400Y-253427600D01*
X226046400Y-251227600D02*
X226046400Y-253427600D01*
X225846400Y-249227600D02*
X225946400Y-249227600D01*
X225946400Y-249227600D02*
X225946400Y-251227600D01*
X225946400Y-251227600D02*
X226046400Y-251227600D01*
X223846400Y-253327600D02*
X221846400Y-253327600D01*
X223846400Y-253327600D02*
X223846400Y-253427600D01*
X221846400Y-253227600D02*
X221846400Y-253327600D01*
X225946400Y-241227600D02*
X226046400Y-241227600D01*
X225946400Y-241227600D02*
X225946400Y-243227600D01*
X225846400Y-243227600D02*
X225946400Y-243227600D01*
X226046400Y-239027600D02*
X226046400Y-241227600D01*
X226046400Y-239027600D02*
X223846400Y-239027600D01*
X223846400Y-239027600D02*
X223846400Y-239127600D01*
X223846400Y-239127600D02*
X221846400Y-239127600D01*
X221846400Y-239127600D02*
X221846400Y-239227600D01*
X213846400Y-239027600D02*
X211646400Y-239027600D01*
X213846400Y-239027600D02*
X213846400Y-239127600D01*
X215846400Y-239127600D02*
X213846400Y-239127600D01*
X215846400Y-239127600D02*
X215846400Y-239227600D01*
X211646400Y-239027600D02*
X211646400Y-241227600D01*
X211646400Y-241227600D02*
X211746400Y-241227600D01*
X211746400Y-241227600D02*
X211746400Y-243227600D01*
X211746400Y-243227600D02*
X211846400Y-243227600D01*
X211846400Y-249227600D02*
X211846400Y-243227600D01*
X221846400Y-253227600D02*
X215846400Y-253227600D01*
X225846400Y-243227600D02*
X225846400Y-249227600D01*
X215846400Y-239227600D02*
X221846400Y-239227600D01*
%TO.C,MX34*%
X187821200Y-251227600D02*
X187921200Y-251227600D01*
X187921200Y-249227600D02*
X187921200Y-251227600D01*
X187921200Y-249227600D02*
X188021200Y-249227600D01*
X187821200Y-251227600D02*
X187821200Y-253427600D01*
X190021200Y-253427600D02*
X187821200Y-253427600D01*
X192021200Y-253327600D02*
X190021200Y-253327600D01*
X190021200Y-253327600D02*
X190021200Y-253427600D01*
X192021200Y-253227600D02*
X192021200Y-253327600D01*
X202221200Y-253427600D02*
X200021200Y-253427600D01*
X202221200Y-251227600D02*
X202221200Y-253427600D01*
X202021200Y-249227600D02*
X202121200Y-249227600D01*
X202121200Y-249227600D02*
X202121200Y-251227600D01*
X202121200Y-251227600D02*
X202221200Y-251227600D01*
X200021200Y-253327600D02*
X198021200Y-253327600D01*
X200021200Y-253327600D02*
X200021200Y-253427600D01*
X198021200Y-253227600D02*
X198021200Y-253327600D01*
X202121200Y-241227600D02*
X202221200Y-241227600D01*
X202121200Y-241227600D02*
X202121200Y-243227600D01*
X202021200Y-243227600D02*
X202121200Y-243227600D01*
X202221200Y-239027600D02*
X202221200Y-241227600D01*
X202221200Y-239027600D02*
X200021200Y-239027600D01*
X200021200Y-239027600D02*
X200021200Y-239127600D01*
X200021200Y-239127600D02*
X198021200Y-239127600D01*
X198021200Y-239127600D02*
X198021200Y-239227600D01*
X190021200Y-239027600D02*
X187821200Y-239027600D01*
X190021200Y-239027600D02*
X190021200Y-239127600D01*
X192021200Y-239127600D02*
X190021200Y-239127600D01*
X192021200Y-239127600D02*
X192021200Y-239227600D01*
X187821200Y-239027600D02*
X187821200Y-241227600D01*
X187821200Y-241227600D02*
X187921200Y-241227600D01*
X187921200Y-241227600D02*
X187921200Y-243227600D01*
X187921200Y-243227600D02*
X188021200Y-243227600D01*
X188021200Y-249227600D02*
X188021200Y-243227600D01*
X198021200Y-253227600D02*
X192021200Y-253227600D01*
X202021200Y-243227600D02*
X202021200Y-249227600D01*
X192021200Y-239227600D02*
X198021200Y-239227600D01*
%TO.C,MX28*%
X154547200Y-251227600D02*
X154647200Y-251227600D01*
X154647200Y-249227600D02*
X154647200Y-251227600D01*
X154647200Y-249227600D02*
X154747200Y-249227600D01*
X154547200Y-251227600D02*
X154547200Y-253427600D01*
X156747200Y-253427600D02*
X154547200Y-253427600D01*
X158747200Y-253327600D02*
X156747200Y-253327600D01*
X156747200Y-253327600D02*
X156747200Y-253427600D01*
X158747200Y-253227600D02*
X158747200Y-253327600D01*
X168947200Y-253427600D02*
X166747200Y-253427600D01*
X168947200Y-251227600D02*
X168947200Y-253427600D01*
X168747200Y-249227600D02*
X168847200Y-249227600D01*
X168847200Y-249227600D02*
X168847200Y-251227600D01*
X168847200Y-251227600D02*
X168947200Y-251227600D01*
X166747200Y-253327600D02*
X164747200Y-253327600D01*
X166747200Y-253327600D02*
X166747200Y-253427600D01*
X164747200Y-253227600D02*
X164747200Y-253327600D01*
X168847200Y-241227600D02*
X168947200Y-241227600D01*
X168847200Y-241227600D02*
X168847200Y-243227600D01*
X168747200Y-243227600D02*
X168847200Y-243227600D01*
X168947200Y-239027600D02*
X168947200Y-241227600D01*
X168947200Y-239027600D02*
X166747200Y-239027600D01*
X166747200Y-239027600D02*
X166747200Y-239127600D01*
X166747200Y-239127600D02*
X164747200Y-239127600D01*
X164747200Y-239127600D02*
X164747200Y-239227600D01*
X156747200Y-239027600D02*
X154547200Y-239027600D01*
X156747200Y-239027600D02*
X156747200Y-239127600D01*
X158747200Y-239127600D02*
X156747200Y-239127600D01*
X158747200Y-239127600D02*
X158747200Y-239227600D01*
X154547200Y-239027600D02*
X154547200Y-241227600D01*
X154547200Y-241227600D02*
X154647200Y-241227600D01*
X154647200Y-241227600D02*
X154647200Y-243227600D01*
X154647200Y-243227600D02*
X154747200Y-243227600D01*
X154747200Y-249227600D02*
X154747200Y-243227600D01*
X164747200Y-253227600D02*
X158747200Y-253227600D01*
X168747200Y-243227600D02*
X168747200Y-249227600D01*
X158747200Y-239227600D02*
X164747200Y-239227600D01*
%TO.C,MX23*%
X130722000Y-251227600D02*
X130822000Y-251227600D01*
X130822000Y-249227600D02*
X130822000Y-251227600D01*
X130822000Y-249227600D02*
X130922000Y-249227600D01*
X130722000Y-251227600D02*
X130722000Y-253427600D01*
X132922000Y-253427600D02*
X130722000Y-253427600D01*
X134922000Y-253327600D02*
X132922000Y-253327600D01*
X132922000Y-253327600D02*
X132922000Y-253427600D01*
X134922000Y-253227600D02*
X134922000Y-253327600D01*
X145122000Y-253427600D02*
X142922000Y-253427600D01*
X145122000Y-251227600D02*
X145122000Y-253427600D01*
X144922000Y-249227600D02*
X145022000Y-249227600D01*
X145022000Y-249227600D02*
X145022000Y-251227600D01*
X145022000Y-251227600D02*
X145122000Y-251227600D01*
X142922000Y-253327600D02*
X140922000Y-253327600D01*
X142922000Y-253327600D02*
X142922000Y-253427600D01*
X140922000Y-253227600D02*
X140922000Y-253327600D01*
X145022000Y-241227600D02*
X145122000Y-241227600D01*
X145022000Y-241227600D02*
X145022000Y-243227600D01*
X144922000Y-243227600D02*
X145022000Y-243227600D01*
X145122000Y-239027600D02*
X145122000Y-241227600D01*
X145122000Y-239027600D02*
X142922000Y-239027600D01*
X142922000Y-239027600D02*
X142922000Y-239127600D01*
X142922000Y-239127600D02*
X140922000Y-239127600D01*
X140922000Y-239127600D02*
X140922000Y-239227600D01*
X132922000Y-239027600D02*
X130722000Y-239027600D01*
X132922000Y-239027600D02*
X132922000Y-239127600D01*
X134922000Y-239127600D02*
X132922000Y-239127600D01*
X134922000Y-239127600D02*
X134922000Y-239227600D01*
X130722000Y-239027600D02*
X130722000Y-241227600D01*
X130722000Y-241227600D02*
X130822000Y-241227600D01*
X130822000Y-241227600D02*
X130822000Y-243227600D01*
X130822000Y-243227600D02*
X130922000Y-243227600D01*
X130922000Y-249227600D02*
X130922000Y-243227600D01*
X140922000Y-253227600D02*
X134922000Y-253227600D01*
X144922000Y-243227600D02*
X144922000Y-249227600D01*
X134922000Y-239227600D02*
X140922000Y-239227600D01*
%TO.C,MX18*%
X106896800Y-251227600D02*
X106996800Y-251227600D01*
X106996800Y-249227600D02*
X106996800Y-251227600D01*
X106996800Y-249227600D02*
X107096800Y-249227600D01*
X106896800Y-251227600D02*
X106896800Y-253427600D01*
X109096800Y-253427600D02*
X106896800Y-253427600D01*
X111096800Y-253327600D02*
X109096800Y-253327600D01*
X109096800Y-253327600D02*
X109096800Y-253427600D01*
X111096800Y-253227600D02*
X111096800Y-253327600D01*
X121296800Y-253427600D02*
X119096800Y-253427600D01*
X121296800Y-251227600D02*
X121296800Y-253427600D01*
X121096800Y-249227600D02*
X121196800Y-249227600D01*
X121196800Y-249227600D02*
X121196800Y-251227600D01*
X121196800Y-251227600D02*
X121296800Y-251227600D01*
X119096800Y-253327600D02*
X117096800Y-253327600D01*
X119096800Y-253327600D02*
X119096800Y-253427600D01*
X117096800Y-253227600D02*
X117096800Y-253327600D01*
X121196800Y-241227600D02*
X121296800Y-241227600D01*
X121196800Y-241227600D02*
X121196800Y-243227600D01*
X121096800Y-243227600D02*
X121196800Y-243227600D01*
X121296800Y-239027600D02*
X121296800Y-241227600D01*
X121296800Y-239027600D02*
X119096800Y-239027600D01*
X119096800Y-239027600D02*
X119096800Y-239127600D01*
X119096800Y-239127600D02*
X117096800Y-239127600D01*
X117096800Y-239127600D02*
X117096800Y-239227600D01*
X109096800Y-239027600D02*
X106896800Y-239027600D01*
X109096800Y-239027600D02*
X109096800Y-239127600D01*
X111096800Y-239127600D02*
X109096800Y-239127600D01*
X111096800Y-239127600D02*
X111096800Y-239227600D01*
X106896800Y-239027600D02*
X106896800Y-241227600D01*
X106896800Y-241227600D02*
X106996800Y-241227600D01*
X106996800Y-241227600D02*
X106996800Y-243227600D01*
X106996800Y-243227600D02*
X107096800Y-243227600D01*
X107096800Y-249227600D02*
X107096800Y-243227600D01*
X117096800Y-253227600D02*
X111096800Y-253227600D01*
X121096800Y-243227600D02*
X121096800Y-249227600D01*
X111096800Y-239227600D02*
X117096800Y-239227600D01*
%TO.C,MX13*%
X83071600Y-251227600D02*
X83171600Y-251227600D01*
X83171600Y-249227600D02*
X83171600Y-251227600D01*
X83171600Y-249227600D02*
X83271600Y-249227600D01*
X83071600Y-251227600D02*
X83071600Y-253427600D01*
X85271600Y-253427600D02*
X83071600Y-253427600D01*
X87271600Y-253327600D02*
X85271600Y-253327600D01*
X85271600Y-253327600D02*
X85271600Y-253427600D01*
X87271600Y-253227600D02*
X87271600Y-253327600D01*
X97471600Y-253427600D02*
X95271600Y-253427600D01*
X97471600Y-251227600D02*
X97471600Y-253427600D01*
X97271600Y-249227600D02*
X97371600Y-249227600D01*
X97371600Y-249227600D02*
X97371600Y-251227600D01*
X97371600Y-251227600D02*
X97471600Y-251227600D01*
X95271600Y-253327600D02*
X93271600Y-253327600D01*
X95271600Y-253327600D02*
X95271600Y-253427600D01*
X93271600Y-253227600D02*
X93271600Y-253327600D01*
X97371600Y-241227600D02*
X97471600Y-241227600D01*
X97371600Y-241227600D02*
X97371600Y-243227600D01*
X97271600Y-243227600D02*
X97371600Y-243227600D01*
X97471600Y-239027600D02*
X97471600Y-241227600D01*
X97471600Y-239027600D02*
X95271600Y-239027600D01*
X95271600Y-239027600D02*
X95271600Y-239127600D01*
X95271600Y-239127600D02*
X93271600Y-239127600D01*
X93271600Y-239127600D02*
X93271600Y-239227600D01*
X85271600Y-239027600D02*
X83071600Y-239027600D01*
X85271600Y-239027600D02*
X85271600Y-239127600D01*
X87271600Y-239127600D02*
X85271600Y-239127600D01*
X87271600Y-239127600D02*
X87271600Y-239227600D01*
X83071600Y-239027600D02*
X83071600Y-241227600D01*
X83071600Y-241227600D02*
X83171600Y-241227600D01*
X83171600Y-241227600D02*
X83171600Y-243227600D01*
X83171600Y-243227600D02*
X83271600Y-243227600D01*
X83271600Y-249227600D02*
X83271600Y-243227600D01*
X93271600Y-253227600D02*
X87271600Y-253227600D01*
X97271600Y-243227600D02*
X97271600Y-249227600D01*
X87271600Y-239227600D02*
X93271600Y-239227600D01*
%TO.C,MX12*%
X68695200Y-355977200D02*
X68795200Y-355977200D01*
X68795200Y-353977200D02*
X68795200Y-355977200D01*
X68795200Y-353977200D02*
X68895200Y-353977200D01*
X68695200Y-355977200D02*
X68695200Y-358177200D01*
X70895200Y-358177200D02*
X68695200Y-358177200D01*
X72895200Y-358077200D02*
X70895200Y-358077200D01*
X70895200Y-358077200D02*
X70895200Y-358177200D01*
X72895200Y-357977200D02*
X72895200Y-358077200D01*
X83095200Y-358177200D02*
X80895200Y-358177200D01*
X83095200Y-355977200D02*
X83095200Y-358177200D01*
X82895200Y-353977200D02*
X82995200Y-353977200D01*
X82995200Y-353977200D02*
X82995200Y-355977200D01*
X82995200Y-355977200D02*
X83095200Y-355977200D01*
X80895200Y-358077200D02*
X78895200Y-358077200D01*
X80895200Y-358077200D02*
X80895200Y-358177200D01*
X78895200Y-357977200D02*
X78895200Y-358077200D01*
X82995200Y-345977200D02*
X83095200Y-345977200D01*
X82995200Y-345977200D02*
X82995200Y-347977200D01*
X82895200Y-347977200D02*
X82995200Y-347977200D01*
X83095200Y-343777200D02*
X83095200Y-345977200D01*
X83095200Y-343777200D02*
X80895200Y-343777200D01*
X80895200Y-343777200D02*
X80895200Y-343877200D01*
X80895200Y-343877200D02*
X78895200Y-343877200D01*
X78895200Y-343877200D02*
X78895200Y-343977200D01*
X70895200Y-343777200D02*
X68695200Y-343777200D01*
X70895200Y-343777200D02*
X70895200Y-343877200D01*
X72895200Y-343877200D02*
X70895200Y-343877200D01*
X72895200Y-343877200D02*
X72895200Y-343977200D01*
X68695200Y-343777200D02*
X68695200Y-345977200D01*
X68695200Y-345977200D02*
X68795200Y-345977200D01*
X68795200Y-345977200D02*
X68795200Y-347977200D01*
X68795200Y-347977200D02*
X68895200Y-347977200D01*
X68895200Y-353977200D02*
X68895200Y-347977200D01*
X78895200Y-357977200D02*
X72895200Y-357977200D01*
X82895200Y-347977200D02*
X82895200Y-353977200D01*
X72895200Y-343977200D02*
X78895200Y-343977200D01*
%TO.C,MX7*%
X59297200Y-251227600D02*
X59397200Y-251227600D01*
X59397200Y-249227600D02*
X59397200Y-251227600D01*
X59397200Y-249227600D02*
X59497200Y-249227600D01*
X59297200Y-251227600D02*
X59297200Y-253427600D01*
X61497200Y-253427600D02*
X59297200Y-253427600D01*
X63497200Y-253327600D02*
X61497200Y-253327600D01*
X61497200Y-253327600D02*
X61497200Y-253427600D01*
X63497200Y-253227600D02*
X63497200Y-253327600D01*
X73697200Y-253427600D02*
X71497200Y-253427600D01*
X73697200Y-251227600D02*
X73697200Y-253427600D01*
X73497200Y-249227600D02*
X73597200Y-249227600D01*
X73597200Y-249227600D02*
X73597200Y-251227600D01*
X73597200Y-251227600D02*
X73697200Y-251227600D01*
X71497200Y-253327600D02*
X69497200Y-253327600D01*
X71497200Y-253327600D02*
X71497200Y-253427600D01*
X69497200Y-253227600D02*
X69497200Y-253327600D01*
X73597200Y-241227600D02*
X73697200Y-241227600D01*
X73597200Y-241227600D02*
X73597200Y-243227600D01*
X73497200Y-243227600D02*
X73597200Y-243227600D01*
X73697200Y-239027600D02*
X73697200Y-241227600D01*
X73697200Y-239027600D02*
X71497200Y-239027600D01*
X71497200Y-239027600D02*
X71497200Y-239127600D01*
X71497200Y-239127600D02*
X69497200Y-239127600D01*
X69497200Y-239127600D02*
X69497200Y-239227600D01*
X61497200Y-239027600D02*
X59297200Y-239027600D01*
X61497200Y-239027600D02*
X61497200Y-239127600D01*
X63497200Y-239127600D02*
X61497200Y-239127600D01*
X63497200Y-239127600D02*
X63497200Y-239227600D01*
X59297200Y-239027600D02*
X59297200Y-241227600D01*
X59297200Y-241227600D02*
X59397200Y-241227600D01*
X59397200Y-241227600D02*
X59397200Y-243227600D01*
X59397200Y-243227600D02*
X59497200Y-243227600D01*
X59497200Y-249227600D02*
X59497200Y-243227600D01*
X69497200Y-253227600D02*
X63497200Y-253227600D01*
X73497200Y-243227600D02*
X73497200Y-249227600D01*
X63497200Y-239227600D02*
X69497200Y-239227600D01*
%TO.C,MX6*%
X44891200Y-355998800D02*
X44991200Y-355998800D01*
X44991200Y-353998800D02*
X44991200Y-355998800D01*
X44991200Y-353998800D02*
X45091200Y-353998800D01*
X44891200Y-355998800D02*
X44891200Y-358198800D01*
X47091200Y-358198800D02*
X44891200Y-358198800D01*
X49091200Y-358098800D02*
X47091200Y-358098800D01*
X47091200Y-358098800D02*
X47091200Y-358198800D01*
X49091200Y-357998800D02*
X49091200Y-358098800D01*
X59291200Y-358198800D02*
X57091200Y-358198800D01*
X59291200Y-355998800D02*
X59291200Y-358198800D01*
X59091200Y-353998800D02*
X59191200Y-353998800D01*
X59191200Y-353998800D02*
X59191200Y-355998800D01*
X59191200Y-355998800D02*
X59291200Y-355998800D01*
X57091200Y-358098800D02*
X55091200Y-358098800D01*
X57091200Y-358098800D02*
X57091200Y-358198800D01*
X55091200Y-357998800D02*
X55091200Y-358098800D01*
X59191200Y-345998800D02*
X59291200Y-345998800D01*
X59191200Y-345998800D02*
X59191200Y-347998800D01*
X59091200Y-347998800D02*
X59191200Y-347998800D01*
X59291200Y-343798800D02*
X59291200Y-345998800D01*
X59291200Y-343798800D02*
X57091200Y-343798800D01*
X57091200Y-343798800D02*
X57091200Y-343898800D01*
X57091200Y-343898800D02*
X55091200Y-343898800D01*
X55091200Y-343898800D02*
X55091200Y-343998800D01*
X47091200Y-343798800D02*
X44891200Y-343798800D01*
X47091200Y-343798800D02*
X47091200Y-343898800D01*
X49091200Y-343898800D02*
X47091200Y-343898800D01*
X49091200Y-343898800D02*
X49091200Y-343998800D01*
X44891200Y-343798800D02*
X44891200Y-345998800D01*
X44891200Y-345998800D02*
X44991200Y-345998800D01*
X44991200Y-345998800D02*
X44991200Y-347998800D01*
X44991200Y-347998800D02*
X45091200Y-347998800D01*
X45091200Y-353998800D02*
X45091200Y-347998800D01*
X55091200Y-357998800D02*
X49091200Y-357998800D01*
X59091200Y-347998800D02*
X59091200Y-353998800D01*
X49091200Y-343998800D02*
X55091200Y-343998800D01*
%TO.C,MX4*%
X30624800Y-317797200D02*
X30724800Y-317797200D01*
X30724800Y-315797200D02*
X30724800Y-317797200D01*
X30724800Y-315797200D02*
X30824800Y-315797200D01*
X30624800Y-317797200D02*
X30624800Y-319997200D01*
X32824800Y-319997200D02*
X30624800Y-319997200D01*
X34824800Y-319897200D02*
X32824800Y-319897200D01*
X32824800Y-319897200D02*
X32824800Y-319997200D01*
X34824800Y-319797200D02*
X34824800Y-319897200D01*
X45024800Y-319997200D02*
X42824800Y-319997200D01*
X45024800Y-317797200D02*
X45024800Y-319997200D01*
X44824800Y-315797200D02*
X44924800Y-315797200D01*
X44924800Y-315797200D02*
X44924800Y-317797200D01*
X44924800Y-317797200D02*
X45024800Y-317797200D01*
X42824800Y-319897200D02*
X40824800Y-319897200D01*
X42824800Y-319897200D02*
X42824800Y-319997200D01*
X40824800Y-319797200D02*
X40824800Y-319897200D01*
X44924800Y-307797200D02*
X45024800Y-307797200D01*
X44924800Y-307797200D02*
X44924800Y-309797200D01*
X44824800Y-309797200D02*
X44924800Y-309797200D01*
X45024800Y-305597200D02*
X45024800Y-307797200D01*
X45024800Y-305597200D02*
X42824800Y-305597200D01*
X42824800Y-305597200D02*
X42824800Y-305697200D01*
X42824800Y-305697200D02*
X40824800Y-305697200D01*
X40824800Y-305697200D02*
X40824800Y-305797200D01*
X32824800Y-305597200D02*
X30624800Y-305597200D01*
X32824800Y-305597200D02*
X32824800Y-305697200D01*
X34824800Y-305697200D02*
X32824800Y-305697200D01*
X34824800Y-305697200D02*
X34824800Y-305797200D01*
X30624800Y-305597200D02*
X30624800Y-307797200D01*
X30624800Y-307797200D02*
X30724800Y-307797200D01*
X30724800Y-307797200D02*
X30724800Y-309797200D01*
X30724800Y-309797200D02*
X30824800Y-309797200D01*
X30824800Y-315797200D02*
X30824800Y-309797200D01*
X40824800Y-319797200D02*
X34824800Y-319797200D01*
X44824800Y-309797200D02*
X44824800Y-315797200D01*
X34824800Y-305797200D02*
X40824800Y-305797200D01*
%TO.C,MX83*%
X424849250Y-344981800D02*
X423274250Y-344981800D01*
X423274250Y-344981800D02*
X423274250Y-343951800D01*
X423274250Y-355681800D02*
X424849250Y-355681800D01*
X431499250Y-356481800D02*
X431499250Y-353251800D01*
X424849250Y-344181800D02*
X426674250Y-344181800D01*
X424849250Y-344181800D02*
X424849250Y-344981800D01*
X431499250Y-353251800D02*
X432374250Y-353251800D01*
X424849250Y-355681800D02*
X424849250Y-356481800D01*
X431499250Y-350451800D02*
X432374250Y-350451800D01*
X432374250Y-353251800D02*
X432374250Y-350451800D01*
X429674250Y-344181800D02*
X431499250Y-344181800D01*
X424849250Y-356481800D02*
X431499250Y-356481800D01*
X426674250Y-342981800D02*
X429674250Y-342981800D01*
X431499250Y-344181800D02*
X431499250Y-350451800D01*
X426674250Y-342981800D02*
X426674250Y-344181800D01*
X429674250Y-342981800D02*
X429674250Y-344181800D01*
X409274250Y-355681800D02*
X409274250Y-357951800D01*
X407699250Y-355681800D02*
X409274250Y-355681800D01*
X407699250Y-355681800D02*
X407699250Y-356481800D01*
X401049250Y-356481800D02*
X401049250Y-353251800D01*
X400174250Y-353251800D02*
X400174250Y-350451800D01*
X401049250Y-353251800D02*
X400174250Y-353251800D01*
X401049250Y-350451800D02*
X400174250Y-350451800D01*
X407699250Y-344981800D02*
X409274250Y-344981800D01*
X401049250Y-344181800D02*
X402874250Y-344181800D01*
X407699250Y-356481800D02*
X401049250Y-356481800D01*
X423274250Y-357951800D02*
X409274250Y-357951800D01*
X409274250Y-344981800D02*
X409274250Y-343951800D01*
X409274250Y-343951800D02*
X423274250Y-343951800D01*
X423274250Y-355681800D02*
X423274250Y-357951800D01*
X405874250Y-342981800D02*
X402874250Y-342981800D01*
X401049250Y-344181800D02*
X401049250Y-350451800D01*
X405874250Y-342981800D02*
X405874250Y-344181800D01*
X402874250Y-342981800D02*
X402874250Y-344181800D01*
X405874250Y-344181800D02*
X407699250Y-344181800D01*
X407699250Y-344181800D02*
X407699250Y-344981800D01*
%TO.C,MX95*%
X456807200Y-317826400D02*
X456907200Y-317826400D01*
X456907200Y-315826400D02*
X456907200Y-317826400D01*
X456907200Y-315826400D02*
X457007200Y-315826400D01*
X456807200Y-317826400D02*
X456807200Y-320026400D01*
X459007200Y-320026400D02*
X456807200Y-320026400D01*
X461007200Y-319926400D02*
X459007200Y-319926400D01*
X459007200Y-319926400D02*
X459007200Y-320026400D01*
X461007200Y-319826400D02*
X461007200Y-319926400D01*
X471207200Y-320026400D02*
X469007200Y-320026400D01*
X471207200Y-317826400D02*
X471207200Y-320026400D01*
X471007200Y-315826400D02*
X471107200Y-315826400D01*
X471107200Y-315826400D02*
X471107200Y-317826400D01*
X471107200Y-317826400D02*
X471207200Y-317826400D01*
X469007200Y-319926400D02*
X467007200Y-319926400D01*
X469007200Y-319926400D02*
X469007200Y-320026400D01*
X467007200Y-319826400D02*
X467007200Y-319926400D01*
X471107200Y-307826400D02*
X471207200Y-307826400D01*
X471107200Y-307826400D02*
X471107200Y-309826400D01*
X471007200Y-309826400D02*
X471107200Y-309826400D01*
X471207200Y-305626400D02*
X471207200Y-307826400D01*
X471207200Y-305626400D02*
X469007200Y-305626400D01*
X469007200Y-305626400D02*
X469007200Y-305726400D01*
X469007200Y-305726400D02*
X467007200Y-305726400D01*
X467007200Y-305726400D02*
X467007200Y-305826400D01*
X459007200Y-305626400D02*
X456807200Y-305626400D01*
X459007200Y-305626400D02*
X459007200Y-305726400D01*
X461007200Y-305726400D02*
X459007200Y-305726400D01*
X461007200Y-305726400D02*
X461007200Y-305826400D01*
X456807200Y-305626400D02*
X456807200Y-307826400D01*
X456807200Y-307826400D02*
X456907200Y-307826400D01*
X456907200Y-307826400D02*
X456907200Y-309826400D01*
X456907200Y-309826400D02*
X457007200Y-309826400D01*
X457007200Y-315826400D02*
X457007200Y-309826400D01*
X467007200Y-319826400D02*
X461007200Y-319826400D01*
X471007200Y-309826400D02*
X471007200Y-315826400D01*
X461007200Y-305826400D02*
X467007200Y-305826400D01*
%TO.C,MX94*%
X456807200Y-298776400D02*
X456907200Y-298776400D01*
X456907200Y-296776400D02*
X456907200Y-298776400D01*
X456907200Y-296776400D02*
X457007200Y-296776400D01*
X456807200Y-298776400D02*
X456807200Y-300976400D01*
X459007200Y-300976400D02*
X456807200Y-300976400D01*
X461007200Y-300876400D02*
X459007200Y-300876400D01*
X459007200Y-300876400D02*
X459007200Y-300976400D01*
X461007200Y-300776400D02*
X461007200Y-300876400D01*
X471207200Y-300976400D02*
X469007200Y-300976400D01*
X471207200Y-298776400D02*
X471207200Y-300976400D01*
X471007200Y-296776400D02*
X471107200Y-296776400D01*
X471107200Y-296776400D02*
X471107200Y-298776400D01*
X471107200Y-298776400D02*
X471207200Y-298776400D01*
X469007200Y-300876400D02*
X467007200Y-300876400D01*
X469007200Y-300876400D02*
X469007200Y-300976400D01*
X467007200Y-300776400D02*
X467007200Y-300876400D01*
X471107200Y-288776400D02*
X471207200Y-288776400D01*
X471107200Y-288776400D02*
X471107200Y-290776400D01*
X471007200Y-290776400D02*
X471107200Y-290776400D01*
X471207200Y-286576400D02*
X471207200Y-288776400D01*
X471207200Y-286576400D02*
X469007200Y-286576400D01*
X469007200Y-286576400D02*
X469007200Y-286676400D01*
X469007200Y-286676400D02*
X467007200Y-286676400D01*
X467007200Y-286676400D02*
X467007200Y-286776400D01*
X459007200Y-286576400D02*
X456807200Y-286576400D01*
X459007200Y-286576400D02*
X459007200Y-286676400D01*
X461007200Y-286676400D02*
X459007200Y-286676400D01*
X461007200Y-286676400D02*
X461007200Y-286776400D01*
X456807200Y-286576400D02*
X456807200Y-288776400D01*
X456807200Y-288776400D02*
X456907200Y-288776400D01*
X456907200Y-288776400D02*
X456907200Y-290776400D01*
X456907200Y-290776400D02*
X457007200Y-290776400D01*
X457007200Y-296776400D02*
X457007200Y-290776400D01*
X467007200Y-300776400D02*
X461007200Y-300776400D01*
X471007200Y-290776400D02*
X471007200Y-296776400D01*
X461007200Y-286776400D02*
X467007200Y-286776400D01*
%TO.C,MX93*%
X456807200Y-279828000D02*
X456907200Y-279828000D01*
X456907200Y-277828000D02*
X456907200Y-279828000D01*
X456907200Y-277828000D02*
X457007200Y-277828000D01*
X456807200Y-279828000D02*
X456807200Y-282028000D01*
X459007200Y-282028000D02*
X456807200Y-282028000D01*
X461007200Y-281928000D02*
X459007200Y-281928000D01*
X459007200Y-281928000D02*
X459007200Y-282028000D01*
X461007200Y-281828000D02*
X461007200Y-281928000D01*
X471207200Y-282028000D02*
X469007200Y-282028000D01*
X471207200Y-279828000D02*
X471207200Y-282028000D01*
X471007200Y-277828000D02*
X471107200Y-277828000D01*
X471107200Y-277828000D02*
X471107200Y-279828000D01*
X471107200Y-279828000D02*
X471207200Y-279828000D01*
X469007200Y-281928000D02*
X467007200Y-281928000D01*
X469007200Y-281928000D02*
X469007200Y-282028000D01*
X467007200Y-281828000D02*
X467007200Y-281928000D01*
X471107200Y-269828000D02*
X471207200Y-269828000D01*
X471107200Y-269828000D02*
X471107200Y-271828000D01*
X471007200Y-271828000D02*
X471107200Y-271828000D01*
X471207200Y-267628000D02*
X471207200Y-269828000D01*
X471207200Y-267628000D02*
X469007200Y-267628000D01*
X469007200Y-267628000D02*
X469007200Y-267728000D01*
X469007200Y-267728000D02*
X467007200Y-267728000D01*
X467007200Y-267728000D02*
X467007200Y-267828000D01*
X459007200Y-267628000D02*
X456807200Y-267628000D01*
X459007200Y-267628000D02*
X459007200Y-267728000D01*
X461007200Y-267728000D02*
X459007200Y-267728000D01*
X461007200Y-267728000D02*
X461007200Y-267828000D01*
X456807200Y-267628000D02*
X456807200Y-269828000D01*
X456807200Y-269828000D02*
X456907200Y-269828000D01*
X456907200Y-269828000D02*
X456907200Y-271828000D01*
X456907200Y-271828000D02*
X457007200Y-271828000D01*
X457007200Y-277828000D02*
X457007200Y-271828000D01*
X467007200Y-281828000D02*
X461007200Y-281828000D01*
X471007200Y-271828000D02*
X471007200Y-277828000D01*
X461007200Y-267828000D02*
X467007200Y-267828000D01*
%TO.C,MX92*%
X437634400Y-355948000D02*
X437734400Y-355948000D01*
X437734400Y-353948000D02*
X437734400Y-355948000D01*
X437734400Y-353948000D02*
X437834400Y-353948000D01*
X437634400Y-355948000D02*
X437634400Y-358148000D01*
X439834400Y-358148000D02*
X437634400Y-358148000D01*
X441834400Y-358048000D02*
X439834400Y-358048000D01*
X439834400Y-358048000D02*
X439834400Y-358148000D01*
X441834400Y-357948000D02*
X441834400Y-358048000D01*
X452034400Y-358148000D02*
X449834400Y-358148000D01*
X452034400Y-355948000D02*
X452034400Y-358148000D01*
X451834400Y-353948000D02*
X451934400Y-353948000D01*
X451934400Y-353948000D02*
X451934400Y-355948000D01*
X451934400Y-355948000D02*
X452034400Y-355948000D01*
X449834400Y-358048000D02*
X447834400Y-358048000D01*
X449834400Y-358048000D02*
X449834400Y-358148000D01*
X447834400Y-357948000D02*
X447834400Y-358048000D01*
X451934400Y-345948000D02*
X452034400Y-345948000D01*
X451934400Y-345948000D02*
X451934400Y-347948000D01*
X451834400Y-347948000D02*
X451934400Y-347948000D01*
X452034400Y-343748000D02*
X452034400Y-345948000D01*
X452034400Y-343748000D02*
X449834400Y-343748000D01*
X449834400Y-343748000D02*
X449834400Y-343848000D01*
X449834400Y-343848000D02*
X447834400Y-343848000D01*
X447834400Y-343848000D02*
X447834400Y-343948000D01*
X439834400Y-343748000D02*
X437634400Y-343748000D01*
X439834400Y-343748000D02*
X439834400Y-343848000D01*
X441834400Y-343848000D02*
X439834400Y-343848000D01*
X441834400Y-343848000D02*
X441834400Y-343948000D01*
X437634400Y-343748000D02*
X437634400Y-345948000D01*
X437634400Y-345948000D02*
X437734400Y-345948000D01*
X437734400Y-345948000D02*
X437734400Y-347948000D01*
X437734400Y-347948000D02*
X437834400Y-347948000D01*
X437834400Y-353948000D02*
X437834400Y-347948000D01*
X447834400Y-357948000D02*
X441834400Y-357948000D01*
X451834400Y-347948000D02*
X451834400Y-353948000D01*
X441834400Y-343948000D02*
X447834400Y-343948000D01*
%TO.C,MX91*%
X437655600Y-336876400D02*
X437755600Y-336876400D01*
X437755600Y-334876400D02*
X437755600Y-336876400D01*
X437755600Y-334876400D02*
X437855600Y-334876400D01*
X437655600Y-336876400D02*
X437655600Y-339076400D01*
X439855600Y-339076400D02*
X437655600Y-339076400D01*
X441855600Y-338976400D02*
X439855600Y-338976400D01*
X439855600Y-338976400D02*
X439855600Y-339076400D01*
X441855600Y-338876400D02*
X441855600Y-338976400D01*
X452055600Y-339076400D02*
X449855600Y-339076400D01*
X452055600Y-336876400D02*
X452055600Y-339076400D01*
X451855600Y-334876400D02*
X451955600Y-334876400D01*
X451955600Y-334876400D02*
X451955600Y-336876400D01*
X451955600Y-336876400D02*
X452055600Y-336876400D01*
X449855600Y-338976400D02*
X447855600Y-338976400D01*
X449855600Y-338976400D02*
X449855600Y-339076400D01*
X447855600Y-338876400D02*
X447855600Y-338976400D01*
X451955600Y-326876400D02*
X452055600Y-326876400D01*
X451955600Y-326876400D02*
X451955600Y-328876400D01*
X451855600Y-328876400D02*
X451955600Y-328876400D01*
X452055600Y-324676400D02*
X452055600Y-326876400D01*
X452055600Y-324676400D02*
X449855600Y-324676400D01*
X449855600Y-324676400D02*
X449855600Y-324776400D01*
X449855600Y-324776400D02*
X447855600Y-324776400D01*
X447855600Y-324776400D02*
X447855600Y-324876400D01*
X439855600Y-324676400D02*
X437655600Y-324676400D01*
X439855600Y-324676400D02*
X439855600Y-324776400D01*
X441855600Y-324776400D02*
X439855600Y-324776400D01*
X441855600Y-324776400D02*
X441855600Y-324876400D01*
X437655600Y-324676400D02*
X437655600Y-326876400D01*
X437655600Y-326876400D02*
X437755600Y-326876400D01*
X437755600Y-326876400D02*
X437755600Y-328876400D01*
X437755600Y-328876400D02*
X437855600Y-328876400D01*
X437855600Y-334876400D02*
X437855600Y-328876400D01*
X447855600Y-338876400D02*
X441855600Y-338876400D01*
X451855600Y-328876400D02*
X451855600Y-334876400D01*
X441855600Y-324876400D02*
X447855600Y-324876400D01*
%TO.C,MX90*%
X437655600Y-317877200D02*
X437755600Y-317877200D01*
X437755600Y-315877200D02*
X437755600Y-317877200D01*
X437755600Y-315877200D02*
X437855600Y-315877200D01*
X437655600Y-317877200D02*
X437655600Y-320077200D01*
X439855600Y-320077200D02*
X437655600Y-320077200D01*
X441855600Y-319977200D02*
X439855600Y-319977200D01*
X439855600Y-319977200D02*
X439855600Y-320077200D01*
X441855600Y-319877200D02*
X441855600Y-319977200D01*
X452055600Y-320077200D02*
X449855600Y-320077200D01*
X452055600Y-317877200D02*
X452055600Y-320077200D01*
X451855600Y-315877200D02*
X451955600Y-315877200D01*
X451955600Y-315877200D02*
X451955600Y-317877200D01*
X451955600Y-317877200D02*
X452055600Y-317877200D01*
X449855600Y-319977200D02*
X447855600Y-319977200D01*
X449855600Y-319977200D02*
X449855600Y-320077200D01*
X447855600Y-319877200D02*
X447855600Y-319977200D01*
X451955600Y-307877200D02*
X452055600Y-307877200D01*
X451955600Y-307877200D02*
X451955600Y-309877200D01*
X451855600Y-309877200D02*
X451955600Y-309877200D01*
X452055600Y-305677200D02*
X452055600Y-307877200D01*
X452055600Y-305677200D02*
X449855600Y-305677200D01*
X449855600Y-305677200D02*
X449855600Y-305777200D01*
X449855600Y-305777200D02*
X447855600Y-305777200D01*
X447855600Y-305777200D02*
X447855600Y-305877200D01*
X439855600Y-305677200D02*
X437655600Y-305677200D01*
X439855600Y-305677200D02*
X439855600Y-305777200D01*
X441855600Y-305777200D02*
X439855600Y-305777200D01*
X441855600Y-305777200D02*
X441855600Y-305877200D01*
X437655600Y-305677200D02*
X437655600Y-307877200D01*
X437655600Y-307877200D02*
X437755600Y-307877200D01*
X437755600Y-307877200D02*
X437755600Y-309877200D01*
X437755600Y-309877200D02*
X437855600Y-309877200D01*
X437855600Y-315877200D02*
X437855600Y-309877200D01*
X447855600Y-319877200D02*
X441855600Y-319877200D01*
X451855600Y-309877200D02*
X451855600Y-315877200D01*
X441855600Y-305877200D02*
X447855600Y-305877200D01*
%TO.C,MX89*%
X437604800Y-298827200D02*
X437704800Y-298827200D01*
X437704800Y-296827200D02*
X437704800Y-298827200D01*
X437704800Y-296827200D02*
X437804800Y-296827200D01*
X437604800Y-298827200D02*
X437604800Y-301027200D01*
X439804800Y-301027200D02*
X437604800Y-301027200D01*
X441804800Y-300927200D02*
X439804800Y-300927200D01*
X439804800Y-300927200D02*
X439804800Y-301027200D01*
X441804800Y-300827200D02*
X441804800Y-300927200D01*
X452004800Y-301027200D02*
X449804800Y-301027200D01*
X452004800Y-298827200D02*
X452004800Y-301027200D01*
X451804800Y-296827200D02*
X451904800Y-296827200D01*
X451904800Y-296827200D02*
X451904800Y-298827200D01*
X451904800Y-298827200D02*
X452004800Y-298827200D01*
X449804800Y-300927200D02*
X447804800Y-300927200D01*
X449804800Y-300927200D02*
X449804800Y-301027200D01*
X447804800Y-300827200D02*
X447804800Y-300927200D01*
X451904800Y-288827200D02*
X452004800Y-288827200D01*
X451904800Y-288827200D02*
X451904800Y-290827200D01*
X451804800Y-290827200D02*
X451904800Y-290827200D01*
X452004800Y-286627200D02*
X452004800Y-288827200D01*
X452004800Y-286627200D02*
X449804800Y-286627200D01*
X449804800Y-286627200D02*
X449804800Y-286727200D01*
X449804800Y-286727200D02*
X447804800Y-286727200D01*
X447804800Y-286727200D02*
X447804800Y-286827200D01*
X439804800Y-286627200D02*
X437604800Y-286627200D01*
X439804800Y-286627200D02*
X439804800Y-286727200D01*
X441804800Y-286727200D02*
X439804800Y-286727200D01*
X441804800Y-286727200D02*
X441804800Y-286827200D01*
X437604800Y-286627200D02*
X437604800Y-288827200D01*
X437604800Y-288827200D02*
X437704800Y-288827200D01*
X437704800Y-288827200D02*
X437704800Y-290827200D01*
X437704800Y-290827200D02*
X437804800Y-290827200D01*
X437804800Y-296827200D02*
X437804800Y-290827200D01*
X447804800Y-300827200D02*
X441804800Y-300827200D01*
X451804800Y-290827200D02*
X451804800Y-296827200D01*
X441804800Y-286827200D02*
X447804800Y-286827200D01*
%TO.C,MX88*%
X437706400Y-279828000D02*
X437806400Y-279828000D01*
X437806400Y-277828000D02*
X437806400Y-279828000D01*
X437806400Y-277828000D02*
X437906400Y-277828000D01*
X437706400Y-279828000D02*
X437706400Y-282028000D01*
X439906400Y-282028000D02*
X437706400Y-282028000D01*
X441906400Y-281928000D02*
X439906400Y-281928000D01*
X439906400Y-281928000D02*
X439906400Y-282028000D01*
X441906400Y-281828000D02*
X441906400Y-281928000D01*
X452106400Y-282028000D02*
X449906400Y-282028000D01*
X452106400Y-279828000D02*
X452106400Y-282028000D01*
X451906400Y-277828000D02*
X452006400Y-277828000D01*
X452006400Y-277828000D02*
X452006400Y-279828000D01*
X452006400Y-279828000D02*
X452106400Y-279828000D01*
X449906400Y-281928000D02*
X447906400Y-281928000D01*
X449906400Y-281928000D02*
X449906400Y-282028000D01*
X447906400Y-281828000D02*
X447906400Y-281928000D01*
X452006400Y-269828000D02*
X452106400Y-269828000D01*
X452006400Y-269828000D02*
X452006400Y-271828000D01*
X451906400Y-271828000D02*
X452006400Y-271828000D01*
X452106400Y-267628000D02*
X452106400Y-269828000D01*
X452106400Y-267628000D02*
X449906400Y-267628000D01*
X449906400Y-267628000D02*
X449906400Y-267728000D01*
X449906400Y-267728000D02*
X447906400Y-267728000D01*
X447906400Y-267728000D02*
X447906400Y-267828000D01*
X439906400Y-267628000D02*
X437706400Y-267628000D01*
X439906400Y-267628000D02*
X439906400Y-267728000D01*
X441906400Y-267728000D02*
X439906400Y-267728000D01*
X441906400Y-267728000D02*
X441906400Y-267828000D01*
X437706400Y-267628000D02*
X437706400Y-269828000D01*
X437706400Y-269828000D02*
X437806400Y-269828000D01*
X437806400Y-269828000D02*
X437806400Y-271828000D01*
X437806400Y-271828000D02*
X437906400Y-271828000D01*
X437906400Y-277828000D02*
X437906400Y-271828000D01*
X447906400Y-281828000D02*
X441906400Y-281828000D01*
X451906400Y-271828000D02*
X451906400Y-277828000D01*
X441906400Y-267828000D02*
X447906400Y-267828000D01*
%TO.C,MX87*%
X418584400Y-336898000D02*
X418684400Y-336898000D01*
X418684400Y-334898000D02*
X418684400Y-336898000D01*
X418684400Y-334898000D02*
X418784400Y-334898000D01*
X418584400Y-336898000D02*
X418584400Y-339098000D01*
X420784400Y-339098000D02*
X418584400Y-339098000D01*
X422784400Y-338998000D02*
X420784400Y-338998000D01*
X420784400Y-338998000D02*
X420784400Y-339098000D01*
X422784400Y-338898000D02*
X422784400Y-338998000D01*
X432984400Y-339098000D02*
X430784400Y-339098000D01*
X432984400Y-336898000D02*
X432984400Y-339098000D01*
X432784400Y-334898000D02*
X432884400Y-334898000D01*
X432884400Y-334898000D02*
X432884400Y-336898000D01*
X432884400Y-336898000D02*
X432984400Y-336898000D01*
X430784400Y-338998000D02*
X428784400Y-338998000D01*
X430784400Y-338998000D02*
X430784400Y-339098000D01*
X428784400Y-338898000D02*
X428784400Y-338998000D01*
X432884400Y-326898000D02*
X432984400Y-326898000D01*
X432884400Y-326898000D02*
X432884400Y-328898000D01*
X432784400Y-328898000D02*
X432884400Y-328898000D01*
X432984400Y-324698000D02*
X432984400Y-326898000D01*
X432984400Y-324698000D02*
X430784400Y-324698000D01*
X430784400Y-324698000D02*
X430784400Y-324798000D01*
X430784400Y-324798000D02*
X428784400Y-324798000D01*
X428784400Y-324798000D02*
X428784400Y-324898000D01*
X420784400Y-324698000D02*
X418584400Y-324698000D01*
X420784400Y-324698000D02*
X420784400Y-324798000D01*
X422784400Y-324798000D02*
X420784400Y-324798000D01*
X422784400Y-324798000D02*
X422784400Y-324898000D01*
X418584400Y-324698000D02*
X418584400Y-326898000D01*
X418584400Y-326898000D02*
X418684400Y-326898000D01*
X418684400Y-326898000D02*
X418684400Y-328898000D01*
X418684400Y-328898000D02*
X418784400Y-328898000D01*
X418784400Y-334898000D02*
X418784400Y-328898000D01*
X428784400Y-338898000D02*
X422784400Y-338898000D01*
X432784400Y-328898000D02*
X432784400Y-334898000D01*
X422784400Y-324898000D02*
X428784400Y-324898000D01*
%TO.C,MX86*%
X418554800Y-317877200D02*
X418654800Y-317877200D01*
X418654800Y-315877200D02*
X418654800Y-317877200D01*
X418654800Y-315877200D02*
X418754800Y-315877200D01*
X418554800Y-317877200D02*
X418554800Y-320077200D01*
X420754800Y-320077200D02*
X418554800Y-320077200D01*
X422754800Y-319977200D02*
X420754800Y-319977200D01*
X420754800Y-319977200D02*
X420754800Y-320077200D01*
X422754800Y-319877200D02*
X422754800Y-319977200D01*
X432954800Y-320077200D02*
X430754800Y-320077200D01*
X432954800Y-317877200D02*
X432954800Y-320077200D01*
X432754800Y-315877200D02*
X432854800Y-315877200D01*
X432854800Y-315877200D02*
X432854800Y-317877200D01*
X432854800Y-317877200D02*
X432954800Y-317877200D01*
X430754800Y-319977200D02*
X428754800Y-319977200D01*
X430754800Y-319977200D02*
X430754800Y-320077200D01*
X428754800Y-319877200D02*
X428754800Y-319977200D01*
X432854800Y-307877200D02*
X432954800Y-307877200D01*
X432854800Y-307877200D02*
X432854800Y-309877200D01*
X432754800Y-309877200D02*
X432854800Y-309877200D01*
X432954800Y-305677200D02*
X432954800Y-307877200D01*
X432954800Y-305677200D02*
X430754800Y-305677200D01*
X430754800Y-305677200D02*
X430754800Y-305777200D01*
X430754800Y-305777200D02*
X428754800Y-305777200D01*
X428754800Y-305777200D02*
X428754800Y-305877200D01*
X420754800Y-305677200D02*
X418554800Y-305677200D01*
X420754800Y-305677200D02*
X420754800Y-305777200D01*
X422754800Y-305777200D02*
X420754800Y-305777200D01*
X422754800Y-305777200D02*
X422754800Y-305877200D01*
X418554800Y-305677200D02*
X418554800Y-307877200D01*
X418554800Y-307877200D02*
X418654800Y-307877200D01*
X418654800Y-307877200D02*
X418654800Y-309877200D01*
X418654800Y-309877200D02*
X418754800Y-309877200D01*
X418754800Y-315877200D02*
X418754800Y-309877200D01*
X428754800Y-319877200D02*
X422754800Y-319877200D01*
X432754800Y-309877200D02*
X432754800Y-315877200D01*
X422754800Y-305877200D02*
X428754800Y-305877200D01*
%TO.C,MX85*%
X418554800Y-298827200D02*
X418654800Y-298827200D01*
X418654800Y-296827200D02*
X418654800Y-298827200D01*
X418654800Y-296827200D02*
X418754800Y-296827200D01*
X418554800Y-298827200D02*
X418554800Y-301027200D01*
X420754800Y-301027200D02*
X418554800Y-301027200D01*
X422754800Y-300927200D02*
X420754800Y-300927200D01*
X420754800Y-300927200D02*
X420754800Y-301027200D01*
X422754800Y-300827200D02*
X422754800Y-300927200D01*
X432954800Y-301027200D02*
X430754800Y-301027200D01*
X432954800Y-298827200D02*
X432954800Y-301027200D01*
X432754800Y-296827200D02*
X432854800Y-296827200D01*
X432854800Y-296827200D02*
X432854800Y-298827200D01*
X432854800Y-298827200D02*
X432954800Y-298827200D01*
X430754800Y-300927200D02*
X428754800Y-300927200D01*
X430754800Y-300927200D02*
X430754800Y-301027200D01*
X428754800Y-300827200D02*
X428754800Y-300927200D01*
X432854800Y-288827200D02*
X432954800Y-288827200D01*
X432854800Y-288827200D02*
X432854800Y-290827200D01*
X432754800Y-290827200D02*
X432854800Y-290827200D01*
X432954800Y-286627200D02*
X432954800Y-288827200D01*
X432954800Y-286627200D02*
X430754800Y-286627200D01*
X430754800Y-286627200D02*
X430754800Y-286727200D01*
X430754800Y-286727200D02*
X428754800Y-286727200D01*
X428754800Y-286727200D02*
X428754800Y-286827200D01*
X420754800Y-286627200D02*
X418554800Y-286627200D01*
X420754800Y-286627200D02*
X420754800Y-286727200D01*
X422754800Y-286727200D02*
X420754800Y-286727200D01*
X422754800Y-286727200D02*
X422754800Y-286827200D01*
X418554800Y-286627200D02*
X418554800Y-288827200D01*
X418554800Y-288827200D02*
X418654800Y-288827200D01*
X418654800Y-288827200D02*
X418654800Y-290827200D01*
X418654800Y-290827200D02*
X418754800Y-290827200D01*
X418754800Y-296827200D02*
X418754800Y-290827200D01*
X428754800Y-300827200D02*
X422754800Y-300827200D01*
X432754800Y-290827200D02*
X432754800Y-296827200D01*
X422754800Y-286827200D02*
X428754800Y-286827200D01*
%TO.C,MX84*%
X418605600Y-279828000D02*
X418705600Y-279828000D01*
X418705600Y-277828000D02*
X418705600Y-279828000D01*
X418705600Y-277828000D02*
X418805600Y-277828000D01*
X418605600Y-279828000D02*
X418605600Y-282028000D01*
X420805600Y-282028000D02*
X418605600Y-282028000D01*
X422805600Y-281928000D02*
X420805600Y-281928000D01*
X420805600Y-281928000D02*
X420805600Y-282028000D01*
X422805600Y-281828000D02*
X422805600Y-281928000D01*
X433005600Y-282028000D02*
X430805600Y-282028000D01*
X433005600Y-279828000D02*
X433005600Y-282028000D01*
X432805600Y-277828000D02*
X432905600Y-277828000D01*
X432905600Y-277828000D02*
X432905600Y-279828000D01*
X432905600Y-279828000D02*
X433005600Y-279828000D01*
X430805600Y-281928000D02*
X428805600Y-281928000D01*
X430805600Y-281928000D02*
X430805600Y-282028000D01*
X428805600Y-281828000D02*
X428805600Y-281928000D01*
X432905600Y-269828000D02*
X433005600Y-269828000D01*
X432905600Y-269828000D02*
X432905600Y-271828000D01*
X432805600Y-271828000D02*
X432905600Y-271828000D01*
X433005600Y-267628000D02*
X433005600Y-269828000D01*
X433005600Y-267628000D02*
X430805600Y-267628000D01*
X430805600Y-267628000D02*
X430805600Y-267728000D01*
X430805600Y-267728000D02*
X428805600Y-267728000D01*
X428805600Y-267728000D02*
X428805600Y-267828000D01*
X420805600Y-267628000D02*
X418605600Y-267628000D01*
X420805600Y-267628000D02*
X420805600Y-267728000D01*
X422805600Y-267728000D02*
X420805600Y-267728000D01*
X422805600Y-267728000D02*
X422805600Y-267828000D01*
X418605600Y-267628000D02*
X418605600Y-269828000D01*
X418605600Y-269828000D02*
X418705600Y-269828000D01*
X418705600Y-269828000D02*
X418705600Y-271828000D01*
X418705600Y-271828000D02*
X418805600Y-271828000D01*
X418805600Y-277828000D02*
X418805600Y-271828000D01*
X428805600Y-281828000D02*
X422805600Y-281828000D01*
X432805600Y-271828000D02*
X432805600Y-277828000D01*
X422805600Y-267828000D02*
X428805600Y-267828000D01*
%TO.C,MX82*%
X399534400Y-336898000D02*
X399634400Y-336898000D01*
X399634400Y-334898000D02*
X399634400Y-336898000D01*
X399634400Y-334898000D02*
X399734400Y-334898000D01*
X399534400Y-336898000D02*
X399534400Y-339098000D01*
X401734400Y-339098000D02*
X399534400Y-339098000D01*
X403734400Y-338998000D02*
X401734400Y-338998000D01*
X401734400Y-338998000D02*
X401734400Y-339098000D01*
X403734400Y-338898000D02*
X403734400Y-338998000D01*
X413934400Y-339098000D02*
X411734400Y-339098000D01*
X413934400Y-336898000D02*
X413934400Y-339098000D01*
X413734400Y-334898000D02*
X413834400Y-334898000D01*
X413834400Y-334898000D02*
X413834400Y-336898000D01*
X413834400Y-336898000D02*
X413934400Y-336898000D01*
X411734400Y-338998000D02*
X409734400Y-338998000D01*
X411734400Y-338998000D02*
X411734400Y-339098000D01*
X409734400Y-338898000D02*
X409734400Y-338998000D01*
X413834400Y-326898000D02*
X413934400Y-326898000D01*
X413834400Y-326898000D02*
X413834400Y-328898000D01*
X413734400Y-328898000D02*
X413834400Y-328898000D01*
X413934400Y-324698000D02*
X413934400Y-326898000D01*
X413934400Y-324698000D02*
X411734400Y-324698000D01*
X411734400Y-324698000D02*
X411734400Y-324798000D01*
X411734400Y-324798000D02*
X409734400Y-324798000D01*
X409734400Y-324798000D02*
X409734400Y-324898000D01*
X401734400Y-324698000D02*
X399534400Y-324698000D01*
X401734400Y-324698000D02*
X401734400Y-324798000D01*
X403734400Y-324798000D02*
X401734400Y-324798000D01*
X403734400Y-324798000D02*
X403734400Y-324898000D01*
X399534400Y-324698000D02*
X399534400Y-326898000D01*
X399534400Y-326898000D02*
X399634400Y-326898000D01*
X399634400Y-326898000D02*
X399634400Y-328898000D01*
X399634400Y-328898000D02*
X399734400Y-328898000D01*
X399734400Y-334898000D02*
X399734400Y-328898000D01*
X409734400Y-338898000D02*
X403734400Y-338898000D01*
X413734400Y-328898000D02*
X413734400Y-334898000D01*
X403734400Y-324898000D02*
X409734400Y-324898000D01*
%TO.C,MX81*%
X399504800Y-317877200D02*
X399604800Y-317877200D01*
X399604800Y-315877200D02*
X399604800Y-317877200D01*
X399604800Y-315877200D02*
X399704800Y-315877200D01*
X399504800Y-317877200D02*
X399504800Y-320077200D01*
X401704800Y-320077200D02*
X399504800Y-320077200D01*
X403704800Y-319977200D02*
X401704800Y-319977200D01*
X401704800Y-319977200D02*
X401704800Y-320077200D01*
X403704800Y-319877200D02*
X403704800Y-319977200D01*
X413904800Y-320077200D02*
X411704800Y-320077200D01*
X413904800Y-317877200D02*
X413904800Y-320077200D01*
X413704800Y-315877200D02*
X413804800Y-315877200D01*
X413804800Y-315877200D02*
X413804800Y-317877200D01*
X413804800Y-317877200D02*
X413904800Y-317877200D01*
X411704800Y-319977200D02*
X409704800Y-319977200D01*
X411704800Y-319977200D02*
X411704800Y-320077200D01*
X409704800Y-319877200D02*
X409704800Y-319977200D01*
X413804800Y-307877200D02*
X413904800Y-307877200D01*
X413804800Y-307877200D02*
X413804800Y-309877200D01*
X413704800Y-309877200D02*
X413804800Y-309877200D01*
X413904800Y-305677200D02*
X413904800Y-307877200D01*
X413904800Y-305677200D02*
X411704800Y-305677200D01*
X411704800Y-305677200D02*
X411704800Y-305777200D01*
X411704800Y-305777200D02*
X409704800Y-305777200D01*
X409704800Y-305777200D02*
X409704800Y-305877200D01*
X401704800Y-305677200D02*
X399504800Y-305677200D01*
X401704800Y-305677200D02*
X401704800Y-305777200D01*
X403704800Y-305777200D02*
X401704800Y-305777200D01*
X403704800Y-305777200D02*
X403704800Y-305877200D01*
X399504800Y-305677200D02*
X399504800Y-307877200D01*
X399504800Y-307877200D02*
X399604800Y-307877200D01*
X399604800Y-307877200D02*
X399604800Y-309877200D01*
X399604800Y-309877200D02*
X399704800Y-309877200D01*
X399704800Y-315877200D02*
X399704800Y-309877200D01*
X409704800Y-319877200D02*
X403704800Y-319877200D01*
X413704800Y-309877200D02*
X413704800Y-315877200D01*
X403704800Y-305877200D02*
X409704800Y-305877200D01*
%TO.C,MX80*%
X399504800Y-298827200D02*
X399604800Y-298827200D01*
X399604800Y-296827200D02*
X399604800Y-298827200D01*
X399604800Y-296827200D02*
X399704800Y-296827200D01*
X399504800Y-298827200D02*
X399504800Y-301027200D01*
X401704800Y-301027200D02*
X399504800Y-301027200D01*
X403704800Y-300927200D02*
X401704800Y-300927200D01*
X401704800Y-300927200D02*
X401704800Y-301027200D01*
X403704800Y-300827200D02*
X403704800Y-300927200D01*
X413904800Y-301027200D02*
X411704800Y-301027200D01*
X413904800Y-298827200D02*
X413904800Y-301027200D01*
X413704800Y-296827200D02*
X413804800Y-296827200D01*
X413804800Y-296827200D02*
X413804800Y-298827200D01*
X413804800Y-298827200D02*
X413904800Y-298827200D01*
X411704800Y-300927200D02*
X409704800Y-300927200D01*
X411704800Y-300927200D02*
X411704800Y-301027200D01*
X409704800Y-300827200D02*
X409704800Y-300927200D01*
X413804800Y-288827200D02*
X413904800Y-288827200D01*
X413804800Y-288827200D02*
X413804800Y-290827200D01*
X413704800Y-290827200D02*
X413804800Y-290827200D01*
X413904800Y-286627200D02*
X413904800Y-288827200D01*
X413904800Y-286627200D02*
X411704800Y-286627200D01*
X411704800Y-286627200D02*
X411704800Y-286727200D01*
X411704800Y-286727200D02*
X409704800Y-286727200D01*
X409704800Y-286727200D02*
X409704800Y-286827200D01*
X401704800Y-286627200D02*
X399504800Y-286627200D01*
X401704800Y-286627200D02*
X401704800Y-286727200D01*
X403704800Y-286727200D02*
X401704800Y-286727200D01*
X403704800Y-286727200D02*
X403704800Y-286827200D01*
X399504800Y-286627200D02*
X399504800Y-288827200D01*
X399504800Y-288827200D02*
X399604800Y-288827200D01*
X399604800Y-288827200D02*
X399604800Y-290827200D01*
X399604800Y-290827200D02*
X399704800Y-290827200D01*
X399704800Y-296827200D02*
X399704800Y-290827200D01*
X409704800Y-300827200D02*
X403704800Y-300827200D01*
X413704800Y-290827200D02*
X413704800Y-296827200D01*
X403704800Y-286827200D02*
X409704800Y-286827200D01*
%TO.C,MX79*%
X399504800Y-279777200D02*
X399604800Y-279777200D01*
X399604800Y-277777200D02*
X399604800Y-279777200D01*
X399604800Y-277777200D02*
X399704800Y-277777200D01*
X399504800Y-279777200D02*
X399504800Y-281977200D01*
X401704800Y-281977200D02*
X399504800Y-281977200D01*
X403704800Y-281877200D02*
X401704800Y-281877200D01*
X401704800Y-281877200D02*
X401704800Y-281977200D01*
X403704800Y-281777200D02*
X403704800Y-281877200D01*
X413904800Y-281977200D02*
X411704800Y-281977200D01*
X413904800Y-279777200D02*
X413904800Y-281977200D01*
X413704800Y-277777200D02*
X413804800Y-277777200D01*
X413804800Y-277777200D02*
X413804800Y-279777200D01*
X413804800Y-279777200D02*
X413904800Y-279777200D01*
X411704800Y-281877200D02*
X409704800Y-281877200D01*
X411704800Y-281877200D02*
X411704800Y-281977200D01*
X409704800Y-281777200D02*
X409704800Y-281877200D01*
X413804800Y-269777200D02*
X413904800Y-269777200D01*
X413804800Y-269777200D02*
X413804800Y-271777200D01*
X413704800Y-271777200D02*
X413804800Y-271777200D01*
X413904800Y-267577200D02*
X413904800Y-269777200D01*
X413904800Y-267577200D02*
X411704800Y-267577200D01*
X411704800Y-267577200D02*
X411704800Y-267677200D01*
X411704800Y-267677200D02*
X409704800Y-267677200D01*
X409704800Y-267677200D02*
X409704800Y-267777200D01*
X401704800Y-267577200D02*
X399504800Y-267577200D01*
X401704800Y-267577200D02*
X401704800Y-267677200D01*
X403704800Y-267677200D02*
X401704800Y-267677200D01*
X403704800Y-267677200D02*
X403704800Y-267777200D01*
X399504800Y-267577200D02*
X399504800Y-269777200D01*
X399504800Y-269777200D02*
X399604800Y-269777200D01*
X399604800Y-269777200D02*
X399604800Y-271777200D01*
X399604800Y-271777200D02*
X399704800Y-271777200D01*
X399704800Y-277777200D02*
X399704800Y-271777200D01*
X409704800Y-281777200D02*
X403704800Y-281777200D01*
X413704800Y-271777200D02*
X413704800Y-277777200D01*
X403704800Y-267777200D02*
X409704800Y-267777200D01*
%TO.C,MX78*%
X371056800Y-336876400D02*
X371156800Y-336876400D01*
X371156800Y-334876400D02*
X371156800Y-336876400D01*
X371156800Y-334876400D02*
X371256800Y-334876400D01*
X371056800Y-336876400D02*
X371056800Y-339076400D01*
X373256800Y-339076400D02*
X371056800Y-339076400D01*
X375256800Y-338976400D02*
X373256800Y-338976400D01*
X373256800Y-338976400D02*
X373256800Y-339076400D01*
X375256800Y-338876400D02*
X375256800Y-338976400D01*
X385456800Y-339076400D02*
X383256800Y-339076400D01*
X385456800Y-336876400D02*
X385456800Y-339076400D01*
X385256800Y-334876400D02*
X385356800Y-334876400D01*
X385356800Y-334876400D02*
X385356800Y-336876400D01*
X385356800Y-336876400D02*
X385456800Y-336876400D01*
X383256800Y-338976400D02*
X381256800Y-338976400D01*
X383256800Y-338976400D02*
X383256800Y-339076400D01*
X381256800Y-338876400D02*
X381256800Y-338976400D01*
X385356800Y-326876400D02*
X385456800Y-326876400D01*
X385356800Y-326876400D02*
X385356800Y-328876400D01*
X385256800Y-328876400D02*
X385356800Y-328876400D01*
X385456800Y-324676400D02*
X385456800Y-326876400D01*
X385456800Y-324676400D02*
X383256800Y-324676400D01*
X383256800Y-324676400D02*
X383256800Y-324776400D01*
X383256800Y-324776400D02*
X381256800Y-324776400D01*
X381256800Y-324776400D02*
X381256800Y-324876400D01*
X373256800Y-324676400D02*
X371056800Y-324676400D01*
X373256800Y-324676400D02*
X373256800Y-324776400D01*
X375256800Y-324776400D02*
X373256800Y-324776400D01*
X375256800Y-324776400D02*
X375256800Y-324876400D01*
X371056800Y-324676400D02*
X371056800Y-326876400D01*
X371056800Y-326876400D02*
X371156800Y-326876400D01*
X371156800Y-326876400D02*
X371156800Y-328876400D01*
X371156800Y-328876400D02*
X371256800Y-328876400D01*
X371256800Y-334876400D02*
X371256800Y-328876400D01*
X381256800Y-338876400D02*
X375256800Y-338876400D01*
X385256800Y-328876400D02*
X385256800Y-334876400D01*
X375256800Y-324876400D02*
X381256800Y-324876400D01*
%TO.C,MX76*%
X352036400Y-336876400D02*
X352136400Y-336876400D01*
X352136400Y-334876400D02*
X352136400Y-336876400D01*
X352136400Y-334876400D02*
X352236400Y-334876400D01*
X352036400Y-336876400D02*
X352036400Y-339076400D01*
X354236400Y-339076400D02*
X352036400Y-339076400D01*
X356236400Y-338976400D02*
X354236400Y-338976400D01*
X354236400Y-338976400D02*
X354236400Y-339076400D01*
X356236400Y-338876400D02*
X356236400Y-338976400D01*
X366436400Y-339076400D02*
X364236400Y-339076400D01*
X366436400Y-336876400D02*
X366436400Y-339076400D01*
X366236400Y-334876400D02*
X366336400Y-334876400D01*
X366336400Y-334876400D02*
X366336400Y-336876400D01*
X366336400Y-336876400D02*
X366436400Y-336876400D01*
X364236400Y-338976400D02*
X362236400Y-338976400D01*
X364236400Y-338976400D02*
X364236400Y-339076400D01*
X362236400Y-338876400D02*
X362236400Y-338976400D01*
X366336400Y-326876400D02*
X366436400Y-326876400D01*
X366336400Y-326876400D02*
X366336400Y-328876400D01*
X366236400Y-328876400D02*
X366336400Y-328876400D01*
X366436400Y-324676400D02*
X366436400Y-326876400D01*
X366436400Y-324676400D02*
X364236400Y-324676400D01*
X364236400Y-324676400D02*
X364236400Y-324776400D01*
X364236400Y-324776400D02*
X362236400Y-324776400D01*
X362236400Y-324776400D02*
X362236400Y-324876400D01*
X354236400Y-324676400D02*
X352036400Y-324676400D01*
X354236400Y-324676400D02*
X354236400Y-324776400D01*
X356236400Y-324776400D02*
X354236400Y-324776400D01*
X356236400Y-324776400D02*
X356236400Y-324876400D01*
X352036400Y-324676400D02*
X352036400Y-326876400D01*
X352036400Y-326876400D02*
X352136400Y-326876400D01*
X352136400Y-326876400D02*
X352136400Y-328876400D01*
X352136400Y-328876400D02*
X352236400Y-328876400D01*
X352236400Y-334876400D02*
X352236400Y-328876400D01*
X362236400Y-338876400D02*
X356236400Y-338876400D01*
X366236400Y-328876400D02*
X366236400Y-334876400D01*
X356236400Y-324876400D02*
X362236400Y-324876400D01*
%TO.C,MX75*%
X352006800Y-317826400D02*
X352106800Y-317826400D01*
X352106800Y-315826400D02*
X352106800Y-317826400D01*
X352106800Y-315826400D02*
X352206800Y-315826400D01*
X352006800Y-317826400D02*
X352006800Y-320026400D01*
X354206800Y-320026400D02*
X352006800Y-320026400D01*
X356206800Y-319926400D02*
X354206800Y-319926400D01*
X354206800Y-319926400D02*
X354206800Y-320026400D01*
X356206800Y-319826400D02*
X356206800Y-319926400D01*
X366406800Y-320026400D02*
X364206800Y-320026400D01*
X366406800Y-317826400D02*
X366406800Y-320026400D01*
X366206800Y-315826400D02*
X366306800Y-315826400D01*
X366306800Y-315826400D02*
X366306800Y-317826400D01*
X366306800Y-317826400D02*
X366406800Y-317826400D01*
X364206800Y-319926400D02*
X362206800Y-319926400D01*
X364206800Y-319926400D02*
X364206800Y-320026400D01*
X362206800Y-319826400D02*
X362206800Y-319926400D01*
X366306800Y-307826400D02*
X366406800Y-307826400D01*
X366306800Y-307826400D02*
X366306800Y-309826400D01*
X366206800Y-309826400D02*
X366306800Y-309826400D01*
X366406800Y-305626400D02*
X366406800Y-307826400D01*
X366406800Y-305626400D02*
X364206800Y-305626400D01*
X364206800Y-305626400D02*
X364206800Y-305726400D01*
X364206800Y-305726400D02*
X362206800Y-305726400D01*
X362206800Y-305726400D02*
X362206800Y-305826400D01*
X354206800Y-305626400D02*
X352006800Y-305626400D01*
X354206800Y-305626400D02*
X354206800Y-305726400D01*
X356206800Y-305726400D02*
X354206800Y-305726400D01*
X356206800Y-305726400D02*
X356206800Y-305826400D01*
X352006800Y-305626400D02*
X352006800Y-307826400D01*
X352006800Y-307826400D02*
X352106800Y-307826400D01*
X352106800Y-307826400D02*
X352106800Y-309826400D01*
X352106800Y-309826400D02*
X352206800Y-309826400D01*
X352206800Y-315826400D02*
X352206800Y-309826400D01*
X362206800Y-319826400D02*
X356206800Y-319826400D01*
X366206800Y-309826400D02*
X366206800Y-315826400D01*
X356206800Y-305826400D02*
X362206800Y-305826400D01*
%TO.C,MX74*%
X332956800Y-336876400D02*
X333056800Y-336876400D01*
X333056800Y-334876400D02*
X333056800Y-336876400D01*
X333056800Y-334876400D02*
X333156800Y-334876400D01*
X332956800Y-336876400D02*
X332956800Y-339076400D01*
X335156800Y-339076400D02*
X332956800Y-339076400D01*
X337156800Y-338976400D02*
X335156800Y-338976400D01*
X335156800Y-338976400D02*
X335156800Y-339076400D01*
X337156800Y-338876400D02*
X337156800Y-338976400D01*
X347356800Y-339076400D02*
X345156800Y-339076400D01*
X347356800Y-336876400D02*
X347356800Y-339076400D01*
X347156800Y-334876400D02*
X347256800Y-334876400D01*
X347256800Y-334876400D02*
X347256800Y-336876400D01*
X347256800Y-336876400D02*
X347356800Y-336876400D01*
X345156800Y-338976400D02*
X343156800Y-338976400D01*
X345156800Y-338976400D02*
X345156800Y-339076400D01*
X343156800Y-338876400D02*
X343156800Y-338976400D01*
X347256800Y-326876400D02*
X347356800Y-326876400D01*
X347256800Y-326876400D02*
X347256800Y-328876400D01*
X347156800Y-328876400D02*
X347256800Y-328876400D01*
X347356800Y-324676400D02*
X347356800Y-326876400D01*
X347356800Y-324676400D02*
X345156800Y-324676400D01*
X345156800Y-324676400D02*
X345156800Y-324776400D01*
X345156800Y-324776400D02*
X343156800Y-324776400D01*
X343156800Y-324776400D02*
X343156800Y-324876400D01*
X335156800Y-324676400D02*
X332956800Y-324676400D01*
X335156800Y-324676400D02*
X335156800Y-324776400D01*
X337156800Y-324776400D02*
X335156800Y-324776400D01*
X337156800Y-324776400D02*
X337156800Y-324876400D01*
X332956800Y-324676400D02*
X332956800Y-326876400D01*
X332956800Y-326876400D02*
X333056800Y-326876400D01*
X333056800Y-326876400D02*
X333056800Y-328876400D01*
X333056800Y-328876400D02*
X333156800Y-328876400D01*
X333156800Y-334876400D02*
X333156800Y-328876400D01*
X343156800Y-338876400D02*
X337156800Y-338876400D01*
X347156800Y-328876400D02*
X347156800Y-334876400D01*
X337156800Y-324876400D02*
X343156800Y-324876400D01*
%TO.C,MX72*%
X304661200Y-279726400D02*
X304761200Y-279726400D01*
X304761200Y-277726400D02*
X304761200Y-279726400D01*
X304761200Y-277726400D02*
X304861200Y-277726400D01*
X304661200Y-279726400D02*
X304661200Y-281926400D01*
X306861200Y-281926400D02*
X304661200Y-281926400D01*
X308861200Y-281826400D02*
X306861200Y-281826400D01*
X306861200Y-281826400D02*
X306861200Y-281926400D01*
X308861200Y-281726400D02*
X308861200Y-281826400D01*
X319061200Y-281926400D02*
X316861200Y-281926400D01*
X319061200Y-279726400D02*
X319061200Y-281926400D01*
X318861200Y-277726400D02*
X318961200Y-277726400D01*
X318961200Y-277726400D02*
X318961200Y-279726400D01*
X318961200Y-279726400D02*
X319061200Y-279726400D01*
X316861200Y-281826400D02*
X314861200Y-281826400D01*
X316861200Y-281826400D02*
X316861200Y-281926400D01*
X314861200Y-281726400D02*
X314861200Y-281826400D01*
X318961200Y-269726400D02*
X319061200Y-269726400D01*
X318961200Y-269726400D02*
X318961200Y-271726400D01*
X318861200Y-271726400D02*
X318961200Y-271726400D01*
X319061200Y-267526400D02*
X319061200Y-269726400D01*
X319061200Y-267526400D02*
X316861200Y-267526400D01*
X316861200Y-267526400D02*
X316861200Y-267626400D01*
X316861200Y-267626400D02*
X314861200Y-267626400D01*
X314861200Y-267626400D02*
X314861200Y-267726400D01*
X306861200Y-267526400D02*
X304661200Y-267526400D01*
X306861200Y-267526400D02*
X306861200Y-267626400D01*
X308861200Y-267626400D02*
X306861200Y-267626400D01*
X308861200Y-267626400D02*
X308861200Y-267726400D01*
X304661200Y-267526400D02*
X304661200Y-269726400D01*
X304661200Y-269726400D02*
X304761200Y-269726400D01*
X304761200Y-269726400D02*
X304761200Y-271726400D01*
X304761200Y-271726400D02*
X304861200Y-271726400D01*
X304861200Y-277726400D02*
X304861200Y-271726400D01*
X314861200Y-281726400D02*
X308861200Y-281726400D01*
X318861200Y-271726400D02*
X318861200Y-277726400D01*
X308861200Y-267726400D02*
X314861200Y-267726400D01*
%TO.C,MX70*%
X280836000Y-317826400D02*
X280936000Y-317826400D01*
X280936000Y-315826400D02*
X280936000Y-317826400D01*
X280936000Y-315826400D02*
X281036000Y-315826400D01*
X280836000Y-317826400D02*
X280836000Y-320026400D01*
X283036000Y-320026400D02*
X280836000Y-320026400D01*
X285036000Y-319926400D02*
X283036000Y-319926400D01*
X283036000Y-319926400D02*
X283036000Y-320026400D01*
X285036000Y-319826400D02*
X285036000Y-319926400D01*
X295236000Y-320026400D02*
X293036000Y-320026400D01*
X295236000Y-317826400D02*
X295236000Y-320026400D01*
X295036000Y-315826400D02*
X295136000Y-315826400D01*
X295136000Y-315826400D02*
X295136000Y-317826400D01*
X295136000Y-317826400D02*
X295236000Y-317826400D01*
X293036000Y-319926400D02*
X291036000Y-319926400D01*
X293036000Y-319926400D02*
X293036000Y-320026400D01*
X291036000Y-319826400D02*
X291036000Y-319926400D01*
X295136000Y-307826400D02*
X295236000Y-307826400D01*
X295136000Y-307826400D02*
X295136000Y-309826400D01*
X295036000Y-309826400D02*
X295136000Y-309826400D01*
X295236000Y-305626400D02*
X295236000Y-307826400D01*
X295236000Y-305626400D02*
X293036000Y-305626400D01*
X293036000Y-305626400D02*
X293036000Y-305726400D01*
X293036000Y-305726400D02*
X291036000Y-305726400D01*
X291036000Y-305726400D02*
X291036000Y-305826400D01*
X283036000Y-305626400D02*
X280836000Y-305626400D01*
X283036000Y-305626400D02*
X283036000Y-305726400D01*
X285036000Y-305726400D02*
X283036000Y-305726400D01*
X285036000Y-305726400D02*
X285036000Y-305826400D01*
X280836000Y-305626400D02*
X280836000Y-307826400D01*
X280836000Y-307826400D02*
X280936000Y-307826400D01*
X280936000Y-307826400D02*
X280936000Y-309826400D01*
X280936000Y-309826400D02*
X281036000Y-309826400D01*
X281036000Y-315826400D02*
X281036000Y-309826400D01*
X291036000Y-319826400D02*
X285036000Y-319826400D01*
X295036000Y-309826400D02*
X295036000Y-315826400D01*
X285036000Y-305826400D02*
X291036000Y-305826400D01*
%TO.C,MX69*%
X285611200Y-279726400D02*
X285711200Y-279726400D01*
X285711200Y-277726400D02*
X285711200Y-279726400D01*
X285711200Y-277726400D02*
X285811200Y-277726400D01*
X285611200Y-279726400D02*
X285611200Y-281926400D01*
X287811200Y-281926400D02*
X285611200Y-281926400D01*
X289811200Y-281826400D02*
X287811200Y-281826400D01*
X287811200Y-281826400D02*
X287811200Y-281926400D01*
X289811200Y-281726400D02*
X289811200Y-281826400D01*
X300011200Y-281926400D02*
X297811200Y-281926400D01*
X300011200Y-279726400D02*
X300011200Y-281926400D01*
X299811200Y-277726400D02*
X299911200Y-277726400D01*
X299911200Y-277726400D02*
X299911200Y-279726400D01*
X299911200Y-279726400D02*
X300011200Y-279726400D01*
X297811200Y-281826400D02*
X295811200Y-281826400D01*
X297811200Y-281826400D02*
X297811200Y-281926400D01*
X295811200Y-281726400D02*
X295811200Y-281826400D01*
X299911200Y-269726400D02*
X300011200Y-269726400D01*
X299911200Y-269726400D02*
X299911200Y-271726400D01*
X299811200Y-271726400D02*
X299911200Y-271726400D01*
X300011200Y-267526400D02*
X300011200Y-269726400D01*
X300011200Y-267526400D02*
X297811200Y-267526400D01*
X297811200Y-267526400D02*
X297811200Y-267626400D01*
X297811200Y-267626400D02*
X295811200Y-267626400D01*
X295811200Y-267626400D02*
X295811200Y-267726400D01*
X287811200Y-267526400D02*
X285611200Y-267526400D01*
X287811200Y-267526400D02*
X287811200Y-267626400D01*
X289811200Y-267626400D02*
X287811200Y-267626400D01*
X289811200Y-267626400D02*
X289811200Y-267726400D01*
X285611200Y-267526400D02*
X285611200Y-269726400D01*
X285611200Y-269726400D02*
X285711200Y-269726400D01*
X285711200Y-269726400D02*
X285711200Y-271726400D01*
X285711200Y-271726400D02*
X285811200Y-271726400D01*
X285811200Y-277726400D02*
X285811200Y-271726400D01*
X295811200Y-281726400D02*
X289811200Y-281726400D01*
X299811200Y-271726400D02*
X299811200Y-277726400D01*
X289811200Y-267726400D02*
X295811200Y-267726400D01*
%TO.C,MX67*%
X261786000Y-317826400D02*
X261886000Y-317826400D01*
X261886000Y-315826400D02*
X261886000Y-317826400D01*
X261886000Y-315826400D02*
X261986000Y-315826400D01*
X261786000Y-317826400D02*
X261786000Y-320026400D01*
X263986000Y-320026400D02*
X261786000Y-320026400D01*
X265986000Y-319926400D02*
X263986000Y-319926400D01*
X263986000Y-319926400D02*
X263986000Y-320026400D01*
X265986000Y-319826400D02*
X265986000Y-319926400D01*
X276186000Y-320026400D02*
X273986000Y-320026400D01*
X276186000Y-317826400D02*
X276186000Y-320026400D01*
X275986000Y-315826400D02*
X276086000Y-315826400D01*
X276086000Y-315826400D02*
X276086000Y-317826400D01*
X276086000Y-317826400D02*
X276186000Y-317826400D01*
X273986000Y-319926400D02*
X271986000Y-319926400D01*
X273986000Y-319926400D02*
X273986000Y-320026400D01*
X271986000Y-319826400D02*
X271986000Y-319926400D01*
X276086000Y-307826400D02*
X276186000Y-307826400D01*
X276086000Y-307826400D02*
X276086000Y-309826400D01*
X275986000Y-309826400D02*
X276086000Y-309826400D01*
X276186000Y-305626400D02*
X276186000Y-307826400D01*
X276186000Y-305626400D02*
X273986000Y-305626400D01*
X273986000Y-305626400D02*
X273986000Y-305726400D01*
X273986000Y-305726400D02*
X271986000Y-305726400D01*
X271986000Y-305726400D02*
X271986000Y-305826400D01*
X263986000Y-305626400D02*
X261786000Y-305626400D01*
X263986000Y-305626400D02*
X263986000Y-305726400D01*
X265986000Y-305726400D02*
X263986000Y-305726400D01*
X265986000Y-305726400D02*
X265986000Y-305826400D01*
X261786000Y-305626400D02*
X261786000Y-307826400D01*
X261786000Y-307826400D02*
X261886000Y-307826400D01*
X261886000Y-307826400D02*
X261886000Y-309826400D01*
X261886000Y-309826400D02*
X261986000Y-309826400D01*
X261986000Y-315826400D02*
X261986000Y-309826400D01*
X271986000Y-319826400D02*
X265986000Y-319826400D01*
X275986000Y-309826400D02*
X275986000Y-315826400D01*
X265986000Y-305826400D02*
X271986000Y-305826400D01*
%TO.C,MX66*%
X276060800Y-298776400D02*
X276160800Y-298776400D01*
X276160800Y-296776400D02*
X276160800Y-298776400D01*
X276160800Y-296776400D02*
X276260800Y-296776400D01*
X276060800Y-298776400D02*
X276060800Y-300976400D01*
X278260800Y-300976400D02*
X276060800Y-300976400D01*
X280260800Y-300876400D02*
X278260800Y-300876400D01*
X278260800Y-300876400D02*
X278260800Y-300976400D01*
X280260800Y-300776400D02*
X280260800Y-300876400D01*
X290460800Y-300976400D02*
X288260800Y-300976400D01*
X290460800Y-298776400D02*
X290460800Y-300976400D01*
X290260800Y-296776400D02*
X290360800Y-296776400D01*
X290360800Y-296776400D02*
X290360800Y-298776400D01*
X290360800Y-298776400D02*
X290460800Y-298776400D01*
X288260800Y-300876400D02*
X286260800Y-300876400D01*
X288260800Y-300876400D02*
X288260800Y-300976400D01*
X286260800Y-300776400D02*
X286260800Y-300876400D01*
X290360800Y-288776400D02*
X290460800Y-288776400D01*
X290360800Y-288776400D02*
X290360800Y-290776400D01*
X290260800Y-290776400D02*
X290360800Y-290776400D01*
X290460800Y-286576400D02*
X290460800Y-288776400D01*
X290460800Y-286576400D02*
X288260800Y-286576400D01*
X288260800Y-286576400D02*
X288260800Y-286676400D01*
X288260800Y-286676400D02*
X286260800Y-286676400D01*
X286260800Y-286676400D02*
X286260800Y-286776400D01*
X278260800Y-286576400D02*
X276060800Y-286576400D01*
X278260800Y-286576400D02*
X278260800Y-286676400D01*
X280260800Y-286676400D02*
X278260800Y-286676400D01*
X280260800Y-286676400D02*
X280260800Y-286776400D01*
X276060800Y-286576400D02*
X276060800Y-288776400D01*
X276060800Y-288776400D02*
X276160800Y-288776400D01*
X276160800Y-288776400D02*
X276160800Y-290776400D01*
X276160800Y-290776400D02*
X276260800Y-290776400D01*
X276260800Y-296776400D02*
X276260800Y-290776400D01*
X286260800Y-300776400D02*
X280260800Y-300776400D01*
X290260800Y-290776400D02*
X290260800Y-296776400D01*
X280260800Y-286776400D02*
X286260800Y-286776400D01*
%TO.C,MX65*%
X266561200Y-279726400D02*
X266661200Y-279726400D01*
X266661200Y-277726400D02*
X266661200Y-279726400D01*
X266661200Y-277726400D02*
X266761200Y-277726400D01*
X266561200Y-279726400D02*
X266561200Y-281926400D01*
X268761200Y-281926400D02*
X266561200Y-281926400D01*
X270761200Y-281826400D02*
X268761200Y-281826400D01*
X268761200Y-281826400D02*
X268761200Y-281926400D01*
X270761200Y-281726400D02*
X270761200Y-281826400D01*
X280961200Y-281926400D02*
X278761200Y-281926400D01*
X280961200Y-279726400D02*
X280961200Y-281926400D01*
X280761200Y-277726400D02*
X280861200Y-277726400D01*
X280861200Y-277726400D02*
X280861200Y-279726400D01*
X280861200Y-279726400D02*
X280961200Y-279726400D01*
X278761200Y-281826400D02*
X276761200Y-281826400D01*
X278761200Y-281826400D02*
X278761200Y-281926400D01*
X276761200Y-281726400D02*
X276761200Y-281826400D01*
X280861200Y-269726400D02*
X280961200Y-269726400D01*
X280861200Y-269726400D02*
X280861200Y-271726400D01*
X280761200Y-271726400D02*
X280861200Y-271726400D01*
X280961200Y-267526400D02*
X280961200Y-269726400D01*
X280961200Y-267526400D02*
X278761200Y-267526400D01*
X278761200Y-267526400D02*
X278761200Y-267626400D01*
X278761200Y-267626400D02*
X276761200Y-267626400D01*
X276761200Y-267626400D02*
X276761200Y-267726400D01*
X268761200Y-267526400D02*
X266561200Y-267526400D01*
X268761200Y-267526400D02*
X268761200Y-267626400D01*
X270761200Y-267626400D02*
X268761200Y-267626400D01*
X270761200Y-267626400D02*
X270761200Y-267726400D01*
X266561200Y-267526400D02*
X266561200Y-269726400D01*
X266561200Y-269726400D02*
X266661200Y-269726400D01*
X266661200Y-269726400D02*
X266661200Y-271726400D01*
X266661200Y-271726400D02*
X266761200Y-271726400D01*
X266761200Y-277726400D02*
X266761200Y-271726400D01*
X276761200Y-281726400D02*
X270761200Y-281726400D01*
X280761200Y-271726400D02*
X280761200Y-277726400D01*
X270761200Y-267726400D02*
X276761200Y-267726400D01*
%TO.C,MX63*%
X252083200Y-336876400D02*
X252183200Y-336876400D01*
X252183200Y-334876400D02*
X252183200Y-336876400D01*
X252183200Y-334876400D02*
X252283200Y-334876400D01*
X252083200Y-336876400D02*
X252083200Y-339076400D01*
X254283200Y-339076400D02*
X252083200Y-339076400D01*
X256283200Y-338976400D02*
X254283200Y-338976400D01*
X254283200Y-338976400D02*
X254283200Y-339076400D01*
X256283200Y-338876400D02*
X256283200Y-338976400D01*
X266483200Y-339076400D02*
X264283200Y-339076400D01*
X266483200Y-336876400D02*
X266483200Y-339076400D01*
X266283200Y-334876400D02*
X266383200Y-334876400D01*
X266383200Y-334876400D02*
X266383200Y-336876400D01*
X266383200Y-336876400D02*
X266483200Y-336876400D01*
X264283200Y-338976400D02*
X262283200Y-338976400D01*
X264283200Y-338976400D02*
X264283200Y-339076400D01*
X262283200Y-338876400D02*
X262283200Y-338976400D01*
X266383200Y-326876400D02*
X266483200Y-326876400D01*
X266383200Y-326876400D02*
X266383200Y-328876400D01*
X266283200Y-328876400D02*
X266383200Y-328876400D01*
X266483200Y-324676400D02*
X266483200Y-326876400D01*
X266483200Y-324676400D02*
X264283200Y-324676400D01*
X264283200Y-324676400D02*
X264283200Y-324776400D01*
X264283200Y-324776400D02*
X262283200Y-324776400D01*
X262283200Y-324776400D02*
X262283200Y-324876400D01*
X254283200Y-324676400D02*
X252083200Y-324676400D01*
X254283200Y-324676400D02*
X254283200Y-324776400D01*
X256283200Y-324776400D02*
X254283200Y-324776400D01*
X256283200Y-324776400D02*
X256283200Y-324876400D01*
X252083200Y-324676400D02*
X252083200Y-326876400D01*
X252083200Y-326876400D02*
X252183200Y-326876400D01*
X252183200Y-326876400D02*
X252183200Y-328876400D01*
X252183200Y-328876400D02*
X252283200Y-328876400D01*
X252283200Y-334876400D02*
X252283200Y-328876400D01*
X262283200Y-338876400D02*
X256283200Y-338876400D01*
X266283200Y-328876400D02*
X266283200Y-334876400D01*
X256283200Y-324876400D02*
X262283200Y-324876400D01*
%TO.C,MX62*%
X242736000Y-317826400D02*
X242836000Y-317826400D01*
X242836000Y-315826400D02*
X242836000Y-317826400D01*
X242836000Y-315826400D02*
X242936000Y-315826400D01*
X242736000Y-317826400D02*
X242736000Y-320026400D01*
X244936000Y-320026400D02*
X242736000Y-320026400D01*
X246936000Y-319926400D02*
X244936000Y-319926400D01*
X244936000Y-319926400D02*
X244936000Y-320026400D01*
X246936000Y-319826400D02*
X246936000Y-319926400D01*
X257136000Y-320026400D02*
X254936000Y-320026400D01*
X257136000Y-317826400D02*
X257136000Y-320026400D01*
X256936000Y-315826400D02*
X257036000Y-315826400D01*
X257036000Y-315826400D02*
X257036000Y-317826400D01*
X257036000Y-317826400D02*
X257136000Y-317826400D01*
X254936000Y-319926400D02*
X252936000Y-319926400D01*
X254936000Y-319926400D02*
X254936000Y-320026400D01*
X252936000Y-319826400D02*
X252936000Y-319926400D01*
X257036000Y-307826400D02*
X257136000Y-307826400D01*
X257036000Y-307826400D02*
X257036000Y-309826400D01*
X256936000Y-309826400D02*
X257036000Y-309826400D01*
X257136000Y-305626400D02*
X257136000Y-307826400D01*
X257136000Y-305626400D02*
X254936000Y-305626400D01*
X254936000Y-305626400D02*
X254936000Y-305726400D01*
X254936000Y-305726400D02*
X252936000Y-305726400D01*
X252936000Y-305726400D02*
X252936000Y-305826400D01*
X244936000Y-305626400D02*
X242736000Y-305626400D01*
X244936000Y-305626400D02*
X244936000Y-305726400D01*
X246936000Y-305726400D02*
X244936000Y-305726400D01*
X246936000Y-305726400D02*
X246936000Y-305826400D01*
X242736000Y-305626400D02*
X242736000Y-307826400D01*
X242736000Y-307826400D02*
X242836000Y-307826400D01*
X242836000Y-307826400D02*
X242836000Y-309826400D01*
X242836000Y-309826400D02*
X242936000Y-309826400D01*
X242936000Y-315826400D02*
X242936000Y-309826400D01*
X252936000Y-319826400D02*
X246936000Y-319826400D01*
X256936000Y-309826400D02*
X256936000Y-315826400D01*
X246936000Y-305826400D02*
X252936000Y-305826400D01*
%TO.C,MX61*%
X257010800Y-298776400D02*
X257110800Y-298776400D01*
X257110800Y-296776400D02*
X257110800Y-298776400D01*
X257110800Y-296776400D02*
X257210800Y-296776400D01*
X257010800Y-298776400D02*
X257010800Y-300976400D01*
X259210800Y-300976400D02*
X257010800Y-300976400D01*
X261210800Y-300876400D02*
X259210800Y-300876400D01*
X259210800Y-300876400D02*
X259210800Y-300976400D01*
X261210800Y-300776400D02*
X261210800Y-300876400D01*
X271410800Y-300976400D02*
X269210800Y-300976400D01*
X271410800Y-298776400D02*
X271410800Y-300976400D01*
X271210800Y-296776400D02*
X271310800Y-296776400D01*
X271310800Y-296776400D02*
X271310800Y-298776400D01*
X271310800Y-298776400D02*
X271410800Y-298776400D01*
X269210800Y-300876400D02*
X267210800Y-300876400D01*
X269210800Y-300876400D02*
X269210800Y-300976400D01*
X267210800Y-300776400D02*
X267210800Y-300876400D01*
X271310800Y-288776400D02*
X271410800Y-288776400D01*
X271310800Y-288776400D02*
X271310800Y-290776400D01*
X271210800Y-290776400D02*
X271310800Y-290776400D01*
X271410800Y-286576400D02*
X271410800Y-288776400D01*
X271410800Y-286576400D02*
X269210800Y-286576400D01*
X269210800Y-286576400D02*
X269210800Y-286676400D01*
X269210800Y-286676400D02*
X267210800Y-286676400D01*
X267210800Y-286676400D02*
X267210800Y-286776400D01*
X259210800Y-286576400D02*
X257010800Y-286576400D01*
X259210800Y-286576400D02*
X259210800Y-286676400D01*
X261210800Y-286676400D02*
X259210800Y-286676400D01*
X261210800Y-286676400D02*
X261210800Y-286776400D01*
X257010800Y-286576400D02*
X257010800Y-288776400D01*
X257010800Y-288776400D02*
X257110800Y-288776400D01*
X257110800Y-288776400D02*
X257110800Y-290776400D01*
X257110800Y-290776400D02*
X257210800Y-290776400D01*
X257210800Y-296776400D02*
X257210800Y-290776400D01*
X267210800Y-300776400D02*
X261210800Y-300776400D01*
X271210800Y-290776400D02*
X271210800Y-296776400D01*
X261210800Y-286776400D02*
X267210800Y-286776400D01*
%TO.C,MX60*%
X247511200Y-279726400D02*
X247611200Y-279726400D01*
X247611200Y-277726400D02*
X247611200Y-279726400D01*
X247611200Y-277726400D02*
X247711200Y-277726400D01*
X247511200Y-279726400D02*
X247511200Y-281926400D01*
X249711200Y-281926400D02*
X247511200Y-281926400D01*
X251711200Y-281826400D02*
X249711200Y-281826400D01*
X249711200Y-281826400D02*
X249711200Y-281926400D01*
X251711200Y-281726400D02*
X251711200Y-281826400D01*
X261911200Y-281926400D02*
X259711200Y-281926400D01*
X261911200Y-279726400D02*
X261911200Y-281926400D01*
X261711200Y-277726400D02*
X261811200Y-277726400D01*
X261811200Y-277726400D02*
X261811200Y-279726400D01*
X261811200Y-279726400D02*
X261911200Y-279726400D01*
X259711200Y-281826400D02*
X257711200Y-281826400D01*
X259711200Y-281826400D02*
X259711200Y-281926400D01*
X257711200Y-281726400D02*
X257711200Y-281826400D01*
X261811200Y-269726400D02*
X261911200Y-269726400D01*
X261811200Y-269726400D02*
X261811200Y-271726400D01*
X261711200Y-271726400D02*
X261811200Y-271726400D01*
X261911200Y-267526400D02*
X261911200Y-269726400D01*
X261911200Y-267526400D02*
X259711200Y-267526400D01*
X259711200Y-267526400D02*
X259711200Y-267626400D01*
X259711200Y-267626400D02*
X257711200Y-267626400D01*
X257711200Y-267626400D02*
X257711200Y-267726400D01*
X249711200Y-267526400D02*
X247511200Y-267526400D01*
X249711200Y-267526400D02*
X249711200Y-267626400D01*
X251711200Y-267626400D02*
X249711200Y-267626400D01*
X251711200Y-267626400D02*
X251711200Y-267726400D01*
X247511200Y-267526400D02*
X247511200Y-269726400D01*
X247511200Y-269726400D02*
X247611200Y-269726400D01*
X247611200Y-269726400D02*
X247611200Y-271726400D01*
X247611200Y-271726400D02*
X247711200Y-271726400D01*
X247711200Y-277726400D02*
X247711200Y-271726400D01*
X257711200Y-281726400D02*
X251711200Y-281726400D01*
X261711200Y-271726400D02*
X261711200Y-277726400D01*
X251711200Y-267726400D02*
X257711200Y-267726400D01*
%TO.C,MX58*%
X233033200Y-336876400D02*
X233133200Y-336876400D01*
X233133200Y-334876400D02*
X233133200Y-336876400D01*
X233133200Y-334876400D02*
X233233200Y-334876400D01*
X233033200Y-336876400D02*
X233033200Y-339076400D01*
X235233200Y-339076400D02*
X233033200Y-339076400D01*
X237233200Y-338976400D02*
X235233200Y-338976400D01*
X235233200Y-338976400D02*
X235233200Y-339076400D01*
X237233200Y-338876400D02*
X237233200Y-338976400D01*
X247433200Y-339076400D02*
X245233200Y-339076400D01*
X247433200Y-336876400D02*
X247433200Y-339076400D01*
X247233200Y-334876400D02*
X247333200Y-334876400D01*
X247333200Y-334876400D02*
X247333200Y-336876400D01*
X247333200Y-336876400D02*
X247433200Y-336876400D01*
X245233200Y-338976400D02*
X243233200Y-338976400D01*
X245233200Y-338976400D02*
X245233200Y-339076400D01*
X243233200Y-338876400D02*
X243233200Y-338976400D01*
X247333200Y-326876400D02*
X247433200Y-326876400D01*
X247333200Y-326876400D02*
X247333200Y-328876400D01*
X247233200Y-328876400D02*
X247333200Y-328876400D01*
X247433200Y-324676400D02*
X247433200Y-326876400D01*
X247433200Y-324676400D02*
X245233200Y-324676400D01*
X245233200Y-324676400D02*
X245233200Y-324776400D01*
X245233200Y-324776400D02*
X243233200Y-324776400D01*
X243233200Y-324776400D02*
X243233200Y-324876400D01*
X235233200Y-324676400D02*
X233033200Y-324676400D01*
X235233200Y-324676400D02*
X235233200Y-324776400D01*
X237233200Y-324776400D02*
X235233200Y-324776400D01*
X237233200Y-324776400D02*
X237233200Y-324876400D01*
X233033200Y-324676400D02*
X233033200Y-326876400D01*
X233033200Y-326876400D02*
X233133200Y-326876400D01*
X233133200Y-326876400D02*
X233133200Y-328876400D01*
X233133200Y-328876400D02*
X233233200Y-328876400D01*
X233233200Y-334876400D02*
X233233200Y-328876400D01*
X243233200Y-338876400D02*
X237233200Y-338876400D01*
X247233200Y-328876400D02*
X247233200Y-334876400D01*
X237233200Y-324876400D02*
X243233200Y-324876400D01*
%TO.C,MX57*%
X223686000Y-317826400D02*
X223786000Y-317826400D01*
X223786000Y-315826400D02*
X223786000Y-317826400D01*
X223786000Y-315826400D02*
X223886000Y-315826400D01*
X223686000Y-317826400D02*
X223686000Y-320026400D01*
X225886000Y-320026400D02*
X223686000Y-320026400D01*
X227886000Y-319926400D02*
X225886000Y-319926400D01*
X225886000Y-319926400D02*
X225886000Y-320026400D01*
X227886000Y-319826400D02*
X227886000Y-319926400D01*
X238086000Y-320026400D02*
X235886000Y-320026400D01*
X238086000Y-317826400D02*
X238086000Y-320026400D01*
X237886000Y-315826400D02*
X237986000Y-315826400D01*
X237986000Y-315826400D02*
X237986000Y-317826400D01*
X237986000Y-317826400D02*
X238086000Y-317826400D01*
X235886000Y-319926400D02*
X233886000Y-319926400D01*
X235886000Y-319926400D02*
X235886000Y-320026400D01*
X233886000Y-319826400D02*
X233886000Y-319926400D01*
X237986000Y-307826400D02*
X238086000Y-307826400D01*
X237986000Y-307826400D02*
X237986000Y-309826400D01*
X237886000Y-309826400D02*
X237986000Y-309826400D01*
X238086000Y-305626400D02*
X238086000Y-307826400D01*
X238086000Y-305626400D02*
X235886000Y-305626400D01*
X235886000Y-305626400D02*
X235886000Y-305726400D01*
X235886000Y-305726400D02*
X233886000Y-305726400D01*
X233886000Y-305726400D02*
X233886000Y-305826400D01*
X225886000Y-305626400D02*
X223686000Y-305626400D01*
X225886000Y-305626400D02*
X225886000Y-305726400D01*
X227886000Y-305726400D02*
X225886000Y-305726400D01*
X227886000Y-305726400D02*
X227886000Y-305826400D01*
X223686000Y-305626400D02*
X223686000Y-307826400D01*
X223686000Y-307826400D02*
X223786000Y-307826400D01*
X223786000Y-307826400D02*
X223786000Y-309826400D01*
X223786000Y-309826400D02*
X223886000Y-309826400D01*
X223886000Y-315826400D02*
X223886000Y-309826400D01*
X233886000Y-319826400D02*
X227886000Y-319826400D01*
X237886000Y-309826400D02*
X237886000Y-315826400D01*
X227886000Y-305826400D02*
X233886000Y-305826400D01*
%TO.C,MX56*%
X237960800Y-298776400D02*
X238060800Y-298776400D01*
X238060800Y-296776400D02*
X238060800Y-298776400D01*
X238060800Y-296776400D02*
X238160800Y-296776400D01*
X237960800Y-298776400D02*
X237960800Y-300976400D01*
X240160800Y-300976400D02*
X237960800Y-300976400D01*
X242160800Y-300876400D02*
X240160800Y-300876400D01*
X240160800Y-300876400D02*
X240160800Y-300976400D01*
X242160800Y-300776400D02*
X242160800Y-300876400D01*
X252360800Y-300976400D02*
X250160800Y-300976400D01*
X252360800Y-298776400D02*
X252360800Y-300976400D01*
X252160800Y-296776400D02*
X252260800Y-296776400D01*
X252260800Y-296776400D02*
X252260800Y-298776400D01*
X252260800Y-298776400D02*
X252360800Y-298776400D01*
X250160800Y-300876400D02*
X248160800Y-300876400D01*
X250160800Y-300876400D02*
X250160800Y-300976400D01*
X248160800Y-300776400D02*
X248160800Y-300876400D01*
X252260800Y-288776400D02*
X252360800Y-288776400D01*
X252260800Y-288776400D02*
X252260800Y-290776400D01*
X252160800Y-290776400D02*
X252260800Y-290776400D01*
X252360800Y-286576400D02*
X252360800Y-288776400D01*
X252360800Y-286576400D02*
X250160800Y-286576400D01*
X250160800Y-286576400D02*
X250160800Y-286676400D01*
X250160800Y-286676400D02*
X248160800Y-286676400D01*
X248160800Y-286676400D02*
X248160800Y-286776400D01*
X240160800Y-286576400D02*
X237960800Y-286576400D01*
X240160800Y-286576400D02*
X240160800Y-286676400D01*
X242160800Y-286676400D02*
X240160800Y-286676400D01*
X242160800Y-286676400D02*
X242160800Y-286776400D01*
X237960800Y-286576400D02*
X237960800Y-288776400D01*
X237960800Y-288776400D02*
X238060800Y-288776400D01*
X238060800Y-288776400D02*
X238060800Y-290776400D01*
X238060800Y-290776400D02*
X238160800Y-290776400D01*
X238160800Y-296776400D02*
X238160800Y-290776400D01*
X248160800Y-300776400D02*
X242160800Y-300776400D01*
X252160800Y-290776400D02*
X252160800Y-296776400D01*
X242160800Y-286776400D02*
X248160800Y-286776400D01*
%TO.C,MX55*%
X228461200Y-279726400D02*
X228561200Y-279726400D01*
X228561200Y-277726400D02*
X228561200Y-279726400D01*
X228561200Y-277726400D02*
X228661200Y-277726400D01*
X228461200Y-279726400D02*
X228461200Y-281926400D01*
X230661200Y-281926400D02*
X228461200Y-281926400D01*
X232661200Y-281826400D02*
X230661200Y-281826400D01*
X230661200Y-281826400D02*
X230661200Y-281926400D01*
X232661200Y-281726400D02*
X232661200Y-281826400D01*
X242861200Y-281926400D02*
X240661200Y-281926400D01*
X242861200Y-279726400D02*
X242861200Y-281926400D01*
X242661200Y-277726400D02*
X242761200Y-277726400D01*
X242761200Y-277726400D02*
X242761200Y-279726400D01*
X242761200Y-279726400D02*
X242861200Y-279726400D01*
X240661200Y-281826400D02*
X238661200Y-281826400D01*
X240661200Y-281826400D02*
X240661200Y-281926400D01*
X238661200Y-281726400D02*
X238661200Y-281826400D01*
X242761200Y-269726400D02*
X242861200Y-269726400D01*
X242761200Y-269726400D02*
X242761200Y-271726400D01*
X242661200Y-271726400D02*
X242761200Y-271726400D01*
X242861200Y-267526400D02*
X242861200Y-269726400D01*
X242861200Y-267526400D02*
X240661200Y-267526400D01*
X240661200Y-267526400D02*
X240661200Y-267626400D01*
X240661200Y-267626400D02*
X238661200Y-267626400D01*
X238661200Y-267626400D02*
X238661200Y-267726400D01*
X230661200Y-267526400D02*
X228461200Y-267526400D01*
X230661200Y-267526400D02*
X230661200Y-267626400D01*
X232661200Y-267626400D02*
X230661200Y-267626400D01*
X232661200Y-267626400D02*
X232661200Y-267726400D01*
X228461200Y-267526400D02*
X228461200Y-269726400D01*
X228461200Y-269726400D02*
X228561200Y-269726400D01*
X228561200Y-269726400D02*
X228561200Y-271726400D01*
X228561200Y-271726400D02*
X228661200Y-271726400D01*
X228661200Y-277726400D02*
X228661200Y-271726400D01*
X238661200Y-281726400D02*
X232661200Y-281726400D01*
X242661200Y-271726400D02*
X242661200Y-277726400D01*
X232661200Y-267726400D02*
X238661200Y-267726400D01*
%TO.C,MX53*%
X213983200Y-336876400D02*
X214083200Y-336876400D01*
X214083200Y-334876400D02*
X214083200Y-336876400D01*
X214083200Y-334876400D02*
X214183200Y-334876400D01*
X213983200Y-336876400D02*
X213983200Y-339076400D01*
X216183200Y-339076400D02*
X213983200Y-339076400D01*
X218183200Y-338976400D02*
X216183200Y-338976400D01*
X216183200Y-338976400D02*
X216183200Y-339076400D01*
X218183200Y-338876400D02*
X218183200Y-338976400D01*
X228383200Y-339076400D02*
X226183200Y-339076400D01*
X228383200Y-336876400D02*
X228383200Y-339076400D01*
X228183200Y-334876400D02*
X228283200Y-334876400D01*
X228283200Y-334876400D02*
X228283200Y-336876400D01*
X228283200Y-336876400D02*
X228383200Y-336876400D01*
X226183200Y-338976400D02*
X224183200Y-338976400D01*
X226183200Y-338976400D02*
X226183200Y-339076400D01*
X224183200Y-338876400D02*
X224183200Y-338976400D01*
X228283200Y-326876400D02*
X228383200Y-326876400D01*
X228283200Y-326876400D02*
X228283200Y-328876400D01*
X228183200Y-328876400D02*
X228283200Y-328876400D01*
X228383200Y-324676400D02*
X228383200Y-326876400D01*
X228383200Y-324676400D02*
X226183200Y-324676400D01*
X226183200Y-324676400D02*
X226183200Y-324776400D01*
X226183200Y-324776400D02*
X224183200Y-324776400D01*
X224183200Y-324776400D02*
X224183200Y-324876400D01*
X216183200Y-324676400D02*
X213983200Y-324676400D01*
X216183200Y-324676400D02*
X216183200Y-324776400D01*
X218183200Y-324776400D02*
X216183200Y-324776400D01*
X218183200Y-324776400D02*
X218183200Y-324876400D01*
X213983200Y-324676400D02*
X213983200Y-326876400D01*
X213983200Y-326876400D02*
X214083200Y-326876400D01*
X214083200Y-326876400D02*
X214083200Y-328876400D01*
X214083200Y-328876400D02*
X214183200Y-328876400D01*
X214183200Y-334876400D02*
X214183200Y-328876400D01*
X224183200Y-338876400D02*
X218183200Y-338876400D01*
X228183200Y-328876400D02*
X228183200Y-334876400D01*
X218183200Y-324876400D02*
X224183200Y-324876400D01*
%TO.C,MX52*%
X204585200Y-317826400D02*
X204685200Y-317826400D01*
X204685200Y-315826400D02*
X204685200Y-317826400D01*
X204685200Y-315826400D02*
X204785200Y-315826400D01*
X204585200Y-317826400D02*
X204585200Y-320026400D01*
X206785200Y-320026400D02*
X204585200Y-320026400D01*
X208785200Y-319926400D02*
X206785200Y-319926400D01*
X206785200Y-319926400D02*
X206785200Y-320026400D01*
X208785200Y-319826400D02*
X208785200Y-319926400D01*
X218985200Y-320026400D02*
X216785200Y-320026400D01*
X218985200Y-317826400D02*
X218985200Y-320026400D01*
X218785200Y-315826400D02*
X218885200Y-315826400D01*
X218885200Y-315826400D02*
X218885200Y-317826400D01*
X218885200Y-317826400D02*
X218985200Y-317826400D01*
X216785200Y-319926400D02*
X214785200Y-319926400D01*
X216785200Y-319926400D02*
X216785200Y-320026400D01*
X214785200Y-319826400D02*
X214785200Y-319926400D01*
X218885200Y-307826400D02*
X218985200Y-307826400D01*
X218885200Y-307826400D02*
X218885200Y-309826400D01*
X218785200Y-309826400D02*
X218885200Y-309826400D01*
X218985200Y-305626400D02*
X218985200Y-307826400D01*
X218985200Y-305626400D02*
X216785200Y-305626400D01*
X216785200Y-305626400D02*
X216785200Y-305726400D01*
X216785200Y-305726400D02*
X214785200Y-305726400D01*
X214785200Y-305726400D02*
X214785200Y-305826400D01*
X206785200Y-305626400D02*
X204585200Y-305626400D01*
X206785200Y-305626400D02*
X206785200Y-305726400D01*
X208785200Y-305726400D02*
X206785200Y-305726400D01*
X208785200Y-305726400D02*
X208785200Y-305826400D01*
X204585200Y-305626400D02*
X204585200Y-307826400D01*
X204585200Y-307826400D02*
X204685200Y-307826400D01*
X204685200Y-307826400D02*
X204685200Y-309826400D01*
X204685200Y-309826400D02*
X204785200Y-309826400D01*
X204785200Y-315826400D02*
X204785200Y-309826400D01*
X214785200Y-319826400D02*
X208785200Y-319826400D01*
X218785200Y-309826400D02*
X218785200Y-315826400D01*
X208785200Y-305826400D02*
X214785200Y-305826400D01*
%TO.C,MX51*%
X218910800Y-298776400D02*
X219010800Y-298776400D01*
X219010800Y-296776400D02*
X219010800Y-298776400D01*
X219010800Y-296776400D02*
X219110800Y-296776400D01*
X218910800Y-298776400D02*
X218910800Y-300976400D01*
X221110800Y-300976400D02*
X218910800Y-300976400D01*
X223110800Y-300876400D02*
X221110800Y-300876400D01*
X221110800Y-300876400D02*
X221110800Y-300976400D01*
X223110800Y-300776400D02*
X223110800Y-300876400D01*
X233310800Y-300976400D02*
X231110800Y-300976400D01*
X233310800Y-298776400D02*
X233310800Y-300976400D01*
X233110800Y-296776400D02*
X233210800Y-296776400D01*
X233210800Y-296776400D02*
X233210800Y-298776400D01*
X233210800Y-298776400D02*
X233310800Y-298776400D01*
X231110800Y-300876400D02*
X229110800Y-300876400D01*
X231110800Y-300876400D02*
X231110800Y-300976400D01*
X229110800Y-300776400D02*
X229110800Y-300876400D01*
X233210800Y-288776400D02*
X233310800Y-288776400D01*
X233210800Y-288776400D02*
X233210800Y-290776400D01*
X233110800Y-290776400D02*
X233210800Y-290776400D01*
X233310800Y-286576400D02*
X233310800Y-288776400D01*
X233310800Y-286576400D02*
X231110800Y-286576400D01*
X231110800Y-286576400D02*
X231110800Y-286676400D01*
X231110800Y-286676400D02*
X229110800Y-286676400D01*
X229110800Y-286676400D02*
X229110800Y-286776400D01*
X221110800Y-286576400D02*
X218910800Y-286576400D01*
X221110800Y-286576400D02*
X221110800Y-286676400D01*
X223110800Y-286676400D02*
X221110800Y-286676400D01*
X223110800Y-286676400D02*
X223110800Y-286776400D01*
X218910800Y-286576400D02*
X218910800Y-288776400D01*
X218910800Y-288776400D02*
X219010800Y-288776400D01*
X219010800Y-288776400D02*
X219010800Y-290776400D01*
X219010800Y-290776400D02*
X219110800Y-290776400D01*
X219110800Y-296776400D02*
X219110800Y-290776400D01*
X229110800Y-300776400D02*
X223110800Y-300776400D01*
X233110800Y-290776400D02*
X233110800Y-296776400D01*
X223110800Y-286776400D02*
X229110800Y-286776400D01*
%TO.C,MX50*%
X209411200Y-279726400D02*
X209511200Y-279726400D01*
X209511200Y-277726400D02*
X209511200Y-279726400D01*
X209511200Y-277726400D02*
X209611200Y-277726400D01*
X209411200Y-279726400D02*
X209411200Y-281926400D01*
X211611200Y-281926400D02*
X209411200Y-281926400D01*
X213611200Y-281826400D02*
X211611200Y-281826400D01*
X211611200Y-281826400D02*
X211611200Y-281926400D01*
X213611200Y-281726400D02*
X213611200Y-281826400D01*
X223811200Y-281926400D02*
X221611200Y-281926400D01*
X223811200Y-279726400D02*
X223811200Y-281926400D01*
X223611200Y-277726400D02*
X223711200Y-277726400D01*
X223711200Y-277726400D02*
X223711200Y-279726400D01*
X223711200Y-279726400D02*
X223811200Y-279726400D01*
X221611200Y-281826400D02*
X219611200Y-281826400D01*
X221611200Y-281826400D02*
X221611200Y-281926400D01*
X219611200Y-281726400D02*
X219611200Y-281826400D01*
X223711200Y-269726400D02*
X223811200Y-269726400D01*
X223711200Y-269726400D02*
X223711200Y-271726400D01*
X223611200Y-271726400D02*
X223711200Y-271726400D01*
X223811200Y-267526400D02*
X223811200Y-269726400D01*
X223811200Y-267526400D02*
X221611200Y-267526400D01*
X221611200Y-267526400D02*
X221611200Y-267626400D01*
X221611200Y-267626400D02*
X219611200Y-267626400D01*
X219611200Y-267626400D02*
X219611200Y-267726400D01*
X211611200Y-267526400D02*
X209411200Y-267526400D01*
X211611200Y-267526400D02*
X211611200Y-267626400D01*
X213611200Y-267626400D02*
X211611200Y-267626400D01*
X213611200Y-267626400D02*
X213611200Y-267726400D01*
X209411200Y-267526400D02*
X209411200Y-269726400D01*
X209411200Y-269726400D02*
X209511200Y-269726400D01*
X209511200Y-269726400D02*
X209511200Y-271726400D01*
X209511200Y-271726400D02*
X209611200Y-271726400D01*
X209611200Y-277726400D02*
X209611200Y-271726400D01*
X219611200Y-281726400D02*
X213611200Y-281726400D01*
X223611200Y-271726400D02*
X223611200Y-277726400D01*
X213611200Y-267726400D02*
X219611200Y-267726400D01*
%TO.C,MX48*%
X194933200Y-336876400D02*
X195033200Y-336876400D01*
X195033200Y-334876400D02*
X195033200Y-336876400D01*
X195033200Y-334876400D02*
X195133200Y-334876400D01*
X194933200Y-336876400D02*
X194933200Y-339076400D01*
X197133200Y-339076400D02*
X194933200Y-339076400D01*
X199133200Y-338976400D02*
X197133200Y-338976400D01*
X197133200Y-338976400D02*
X197133200Y-339076400D01*
X199133200Y-338876400D02*
X199133200Y-338976400D01*
X209333200Y-339076400D02*
X207133200Y-339076400D01*
X209333200Y-336876400D02*
X209333200Y-339076400D01*
X209133200Y-334876400D02*
X209233200Y-334876400D01*
X209233200Y-334876400D02*
X209233200Y-336876400D01*
X209233200Y-336876400D02*
X209333200Y-336876400D01*
X207133200Y-338976400D02*
X205133200Y-338976400D01*
X207133200Y-338976400D02*
X207133200Y-339076400D01*
X205133200Y-338876400D02*
X205133200Y-338976400D01*
X209233200Y-326876400D02*
X209333200Y-326876400D01*
X209233200Y-326876400D02*
X209233200Y-328876400D01*
X209133200Y-328876400D02*
X209233200Y-328876400D01*
X209333200Y-324676400D02*
X209333200Y-326876400D01*
X209333200Y-324676400D02*
X207133200Y-324676400D01*
X207133200Y-324676400D02*
X207133200Y-324776400D01*
X207133200Y-324776400D02*
X205133200Y-324776400D01*
X205133200Y-324776400D02*
X205133200Y-324876400D01*
X197133200Y-324676400D02*
X194933200Y-324676400D01*
X197133200Y-324676400D02*
X197133200Y-324776400D01*
X199133200Y-324776400D02*
X197133200Y-324776400D01*
X199133200Y-324776400D02*
X199133200Y-324876400D01*
X194933200Y-324676400D02*
X194933200Y-326876400D01*
X194933200Y-326876400D02*
X195033200Y-326876400D01*
X195033200Y-326876400D02*
X195033200Y-328876400D01*
X195033200Y-328876400D02*
X195133200Y-328876400D01*
X195133200Y-334876400D02*
X195133200Y-328876400D01*
X205133200Y-338876400D02*
X199133200Y-338876400D01*
X209133200Y-328876400D02*
X209133200Y-334876400D01*
X199133200Y-324876400D02*
X205133200Y-324876400D01*
%TO.C,MX47*%
X185484400Y-317826400D02*
X185584400Y-317826400D01*
X185584400Y-315826400D02*
X185584400Y-317826400D01*
X185584400Y-315826400D02*
X185684400Y-315826400D01*
X185484400Y-317826400D02*
X185484400Y-320026400D01*
X187684400Y-320026400D02*
X185484400Y-320026400D01*
X189684400Y-319926400D02*
X187684400Y-319926400D01*
X187684400Y-319926400D02*
X187684400Y-320026400D01*
X189684400Y-319826400D02*
X189684400Y-319926400D01*
X199884400Y-320026400D02*
X197684400Y-320026400D01*
X199884400Y-317826400D02*
X199884400Y-320026400D01*
X199684400Y-315826400D02*
X199784400Y-315826400D01*
X199784400Y-315826400D02*
X199784400Y-317826400D01*
X199784400Y-317826400D02*
X199884400Y-317826400D01*
X197684400Y-319926400D02*
X195684400Y-319926400D01*
X197684400Y-319926400D02*
X197684400Y-320026400D01*
X195684400Y-319826400D02*
X195684400Y-319926400D01*
X199784400Y-307826400D02*
X199884400Y-307826400D01*
X199784400Y-307826400D02*
X199784400Y-309826400D01*
X199684400Y-309826400D02*
X199784400Y-309826400D01*
X199884400Y-305626400D02*
X199884400Y-307826400D01*
X199884400Y-305626400D02*
X197684400Y-305626400D01*
X197684400Y-305626400D02*
X197684400Y-305726400D01*
X197684400Y-305726400D02*
X195684400Y-305726400D01*
X195684400Y-305726400D02*
X195684400Y-305826400D01*
X187684400Y-305626400D02*
X185484400Y-305626400D01*
X187684400Y-305626400D02*
X187684400Y-305726400D01*
X189684400Y-305726400D02*
X187684400Y-305726400D01*
X189684400Y-305726400D02*
X189684400Y-305826400D01*
X185484400Y-305626400D02*
X185484400Y-307826400D01*
X185484400Y-307826400D02*
X185584400Y-307826400D01*
X185584400Y-307826400D02*
X185584400Y-309826400D01*
X185584400Y-309826400D02*
X185684400Y-309826400D01*
X185684400Y-315826400D02*
X185684400Y-309826400D01*
X195684400Y-319826400D02*
X189684400Y-319826400D01*
X199684400Y-309826400D02*
X199684400Y-315826400D01*
X189684400Y-305826400D02*
X195684400Y-305826400D01*
%TO.C,MX46*%
X199810000Y-298776400D02*
X199910000Y-298776400D01*
X199910000Y-296776400D02*
X199910000Y-298776400D01*
X199910000Y-296776400D02*
X200010000Y-296776400D01*
X199810000Y-298776400D02*
X199810000Y-300976400D01*
X202010000Y-300976400D02*
X199810000Y-300976400D01*
X204010000Y-300876400D02*
X202010000Y-300876400D01*
X202010000Y-300876400D02*
X202010000Y-300976400D01*
X204010000Y-300776400D02*
X204010000Y-300876400D01*
X214210000Y-300976400D02*
X212010000Y-300976400D01*
X214210000Y-298776400D02*
X214210000Y-300976400D01*
X214010000Y-296776400D02*
X214110000Y-296776400D01*
X214110000Y-296776400D02*
X214110000Y-298776400D01*
X214110000Y-298776400D02*
X214210000Y-298776400D01*
X212010000Y-300876400D02*
X210010000Y-300876400D01*
X212010000Y-300876400D02*
X212010000Y-300976400D01*
X210010000Y-300776400D02*
X210010000Y-300876400D01*
X214110000Y-288776400D02*
X214210000Y-288776400D01*
X214110000Y-288776400D02*
X214110000Y-290776400D01*
X214010000Y-290776400D02*
X214110000Y-290776400D01*
X214210000Y-286576400D02*
X214210000Y-288776400D01*
X214210000Y-286576400D02*
X212010000Y-286576400D01*
X212010000Y-286576400D02*
X212010000Y-286676400D01*
X212010000Y-286676400D02*
X210010000Y-286676400D01*
X210010000Y-286676400D02*
X210010000Y-286776400D01*
X202010000Y-286576400D02*
X199810000Y-286576400D01*
X202010000Y-286576400D02*
X202010000Y-286676400D01*
X204010000Y-286676400D02*
X202010000Y-286676400D01*
X204010000Y-286676400D02*
X204010000Y-286776400D01*
X199810000Y-286576400D02*
X199810000Y-288776400D01*
X199810000Y-288776400D02*
X199910000Y-288776400D01*
X199910000Y-288776400D02*
X199910000Y-290776400D01*
X199910000Y-290776400D02*
X200010000Y-290776400D01*
X200010000Y-296776400D02*
X200010000Y-290776400D01*
X210010000Y-300776400D02*
X204010000Y-300776400D01*
X214010000Y-290776400D02*
X214010000Y-296776400D01*
X204010000Y-286776400D02*
X210010000Y-286776400D01*
%TO.C,MX45*%
X190310400Y-279726400D02*
X190410400Y-279726400D01*
X190410400Y-277726400D02*
X190410400Y-279726400D01*
X190410400Y-277726400D02*
X190510400Y-277726400D01*
X190310400Y-279726400D02*
X190310400Y-281926400D01*
X192510400Y-281926400D02*
X190310400Y-281926400D01*
X194510400Y-281826400D02*
X192510400Y-281826400D01*
X192510400Y-281826400D02*
X192510400Y-281926400D01*
X194510400Y-281726400D02*
X194510400Y-281826400D01*
X204710400Y-281926400D02*
X202510400Y-281926400D01*
X204710400Y-279726400D02*
X204710400Y-281926400D01*
X204510400Y-277726400D02*
X204610400Y-277726400D01*
X204610400Y-277726400D02*
X204610400Y-279726400D01*
X204610400Y-279726400D02*
X204710400Y-279726400D01*
X202510400Y-281826400D02*
X200510400Y-281826400D01*
X202510400Y-281826400D02*
X202510400Y-281926400D01*
X200510400Y-281726400D02*
X200510400Y-281826400D01*
X204610400Y-269726400D02*
X204710400Y-269726400D01*
X204610400Y-269726400D02*
X204610400Y-271726400D01*
X204510400Y-271726400D02*
X204610400Y-271726400D01*
X204710400Y-267526400D02*
X204710400Y-269726400D01*
X204710400Y-267526400D02*
X202510400Y-267526400D01*
X202510400Y-267526400D02*
X202510400Y-267626400D01*
X202510400Y-267626400D02*
X200510400Y-267626400D01*
X200510400Y-267626400D02*
X200510400Y-267726400D01*
X192510400Y-267526400D02*
X190310400Y-267526400D01*
X192510400Y-267526400D02*
X192510400Y-267626400D01*
X194510400Y-267626400D02*
X192510400Y-267626400D01*
X194510400Y-267626400D02*
X194510400Y-267726400D01*
X190310400Y-267526400D02*
X190310400Y-269726400D01*
X190310400Y-269726400D02*
X190410400Y-269726400D01*
X190410400Y-269726400D02*
X190410400Y-271726400D01*
X190410400Y-271726400D02*
X190510400Y-271726400D01*
X190510400Y-277726400D02*
X190510400Y-271726400D01*
X200510400Y-281726400D02*
X194510400Y-281726400D01*
X204510400Y-271726400D02*
X204510400Y-277726400D01*
X194510400Y-267726400D02*
X200510400Y-267726400D01*
%TO.C,MX43*%
X175912800Y-336876400D02*
X176012800Y-336876400D01*
X176012800Y-334876400D02*
X176012800Y-336876400D01*
X176012800Y-334876400D02*
X176112800Y-334876400D01*
X175912800Y-336876400D02*
X175912800Y-339076400D01*
X178112800Y-339076400D02*
X175912800Y-339076400D01*
X180112800Y-338976400D02*
X178112800Y-338976400D01*
X178112800Y-338976400D02*
X178112800Y-339076400D01*
X180112800Y-338876400D02*
X180112800Y-338976400D01*
X190312800Y-339076400D02*
X188112800Y-339076400D01*
X190312800Y-336876400D02*
X190312800Y-339076400D01*
X190112800Y-334876400D02*
X190212800Y-334876400D01*
X190212800Y-334876400D02*
X190212800Y-336876400D01*
X190212800Y-336876400D02*
X190312800Y-336876400D01*
X188112800Y-338976400D02*
X186112800Y-338976400D01*
X188112800Y-338976400D02*
X188112800Y-339076400D01*
X186112800Y-338876400D02*
X186112800Y-338976400D01*
X190212800Y-326876400D02*
X190312800Y-326876400D01*
X190212800Y-326876400D02*
X190212800Y-328876400D01*
X190112800Y-328876400D02*
X190212800Y-328876400D01*
X190312800Y-324676400D02*
X190312800Y-326876400D01*
X190312800Y-324676400D02*
X188112800Y-324676400D01*
X188112800Y-324676400D02*
X188112800Y-324776400D01*
X188112800Y-324776400D02*
X186112800Y-324776400D01*
X186112800Y-324776400D02*
X186112800Y-324876400D01*
X178112800Y-324676400D02*
X175912800Y-324676400D01*
X178112800Y-324676400D02*
X178112800Y-324776400D01*
X180112800Y-324776400D02*
X178112800Y-324776400D01*
X180112800Y-324776400D02*
X180112800Y-324876400D01*
X175912800Y-324676400D02*
X175912800Y-326876400D01*
X175912800Y-326876400D02*
X176012800Y-326876400D01*
X176012800Y-326876400D02*
X176012800Y-328876400D01*
X176012800Y-328876400D02*
X176112800Y-328876400D01*
X176112800Y-334876400D02*
X176112800Y-328876400D01*
X186112800Y-338876400D02*
X180112800Y-338876400D01*
X190112800Y-328876400D02*
X190112800Y-334876400D01*
X180112800Y-324876400D02*
X186112800Y-324876400D01*
%TO.C,MX42*%
X166434400Y-317826400D02*
X166534400Y-317826400D01*
X166534400Y-315826400D02*
X166534400Y-317826400D01*
X166534400Y-315826400D02*
X166634400Y-315826400D01*
X166434400Y-317826400D02*
X166434400Y-320026400D01*
X168634400Y-320026400D02*
X166434400Y-320026400D01*
X170634400Y-319926400D02*
X168634400Y-319926400D01*
X168634400Y-319926400D02*
X168634400Y-320026400D01*
X170634400Y-319826400D02*
X170634400Y-319926400D01*
X180834400Y-320026400D02*
X178634400Y-320026400D01*
X180834400Y-317826400D02*
X180834400Y-320026400D01*
X180634400Y-315826400D02*
X180734400Y-315826400D01*
X180734400Y-315826400D02*
X180734400Y-317826400D01*
X180734400Y-317826400D02*
X180834400Y-317826400D01*
X178634400Y-319926400D02*
X176634400Y-319926400D01*
X178634400Y-319926400D02*
X178634400Y-320026400D01*
X176634400Y-319826400D02*
X176634400Y-319926400D01*
X180734400Y-307826400D02*
X180834400Y-307826400D01*
X180734400Y-307826400D02*
X180734400Y-309826400D01*
X180634400Y-309826400D02*
X180734400Y-309826400D01*
X180834400Y-305626400D02*
X180834400Y-307826400D01*
X180834400Y-305626400D02*
X178634400Y-305626400D01*
X178634400Y-305626400D02*
X178634400Y-305726400D01*
X178634400Y-305726400D02*
X176634400Y-305726400D01*
X176634400Y-305726400D02*
X176634400Y-305826400D01*
X168634400Y-305626400D02*
X166434400Y-305626400D01*
X168634400Y-305626400D02*
X168634400Y-305726400D01*
X170634400Y-305726400D02*
X168634400Y-305726400D01*
X170634400Y-305726400D02*
X170634400Y-305826400D01*
X166434400Y-305626400D02*
X166434400Y-307826400D01*
X166434400Y-307826400D02*
X166534400Y-307826400D01*
X166534400Y-307826400D02*
X166534400Y-309826400D01*
X166534400Y-309826400D02*
X166634400Y-309826400D01*
X166634400Y-315826400D02*
X166634400Y-309826400D01*
X176634400Y-319826400D02*
X170634400Y-319826400D01*
X180634400Y-309826400D02*
X180634400Y-315826400D01*
X170634400Y-305826400D02*
X176634400Y-305826400D01*
%TO.C,MX41*%
X180760000Y-298776400D02*
X180860000Y-298776400D01*
X180860000Y-296776400D02*
X180860000Y-298776400D01*
X180860000Y-296776400D02*
X180960000Y-296776400D01*
X180760000Y-298776400D02*
X180760000Y-300976400D01*
X182960000Y-300976400D02*
X180760000Y-300976400D01*
X184960000Y-300876400D02*
X182960000Y-300876400D01*
X182960000Y-300876400D02*
X182960000Y-300976400D01*
X184960000Y-300776400D02*
X184960000Y-300876400D01*
X195160000Y-300976400D02*
X192960000Y-300976400D01*
X195160000Y-298776400D02*
X195160000Y-300976400D01*
X194960000Y-296776400D02*
X195060000Y-296776400D01*
X195060000Y-296776400D02*
X195060000Y-298776400D01*
X195060000Y-298776400D02*
X195160000Y-298776400D01*
X192960000Y-300876400D02*
X190960000Y-300876400D01*
X192960000Y-300876400D02*
X192960000Y-300976400D01*
X190960000Y-300776400D02*
X190960000Y-300876400D01*
X195060000Y-288776400D02*
X195160000Y-288776400D01*
X195060000Y-288776400D02*
X195060000Y-290776400D01*
X194960000Y-290776400D02*
X195060000Y-290776400D01*
X195160000Y-286576400D02*
X195160000Y-288776400D01*
X195160000Y-286576400D02*
X192960000Y-286576400D01*
X192960000Y-286576400D02*
X192960000Y-286676400D01*
X192960000Y-286676400D02*
X190960000Y-286676400D01*
X190960000Y-286676400D02*
X190960000Y-286776400D01*
X182960000Y-286576400D02*
X180760000Y-286576400D01*
X182960000Y-286576400D02*
X182960000Y-286676400D01*
X184960000Y-286676400D02*
X182960000Y-286676400D01*
X184960000Y-286676400D02*
X184960000Y-286776400D01*
X180760000Y-286576400D02*
X180760000Y-288776400D01*
X180760000Y-288776400D02*
X180860000Y-288776400D01*
X180860000Y-288776400D02*
X180860000Y-290776400D01*
X180860000Y-290776400D02*
X180960000Y-290776400D01*
X180960000Y-296776400D02*
X180960000Y-290776400D01*
X190960000Y-300776400D02*
X184960000Y-300776400D01*
X194960000Y-290776400D02*
X194960000Y-296776400D01*
X184960000Y-286776400D02*
X190960000Y-286776400D01*
%TO.C,MX40*%
X171260400Y-279726400D02*
X171360400Y-279726400D01*
X171360400Y-277726400D02*
X171360400Y-279726400D01*
X171360400Y-277726400D02*
X171460400Y-277726400D01*
X171260400Y-279726400D02*
X171260400Y-281926400D01*
X173460400Y-281926400D02*
X171260400Y-281926400D01*
X175460400Y-281826400D02*
X173460400Y-281826400D01*
X173460400Y-281826400D02*
X173460400Y-281926400D01*
X175460400Y-281726400D02*
X175460400Y-281826400D01*
X185660400Y-281926400D02*
X183460400Y-281926400D01*
X185660400Y-279726400D02*
X185660400Y-281926400D01*
X185460400Y-277726400D02*
X185560400Y-277726400D01*
X185560400Y-277726400D02*
X185560400Y-279726400D01*
X185560400Y-279726400D02*
X185660400Y-279726400D01*
X183460400Y-281826400D02*
X181460400Y-281826400D01*
X183460400Y-281826400D02*
X183460400Y-281926400D01*
X181460400Y-281726400D02*
X181460400Y-281826400D01*
X185560400Y-269726400D02*
X185660400Y-269726400D01*
X185560400Y-269726400D02*
X185560400Y-271726400D01*
X185460400Y-271726400D02*
X185560400Y-271726400D01*
X185660400Y-267526400D02*
X185660400Y-269726400D01*
X185660400Y-267526400D02*
X183460400Y-267526400D01*
X183460400Y-267526400D02*
X183460400Y-267626400D01*
X183460400Y-267626400D02*
X181460400Y-267626400D01*
X181460400Y-267626400D02*
X181460400Y-267726400D01*
X173460400Y-267526400D02*
X171260400Y-267526400D01*
X173460400Y-267526400D02*
X173460400Y-267626400D01*
X175460400Y-267626400D02*
X173460400Y-267626400D01*
X175460400Y-267626400D02*
X175460400Y-267726400D01*
X171260400Y-267526400D02*
X171260400Y-269726400D01*
X171260400Y-269726400D02*
X171360400Y-269726400D01*
X171360400Y-269726400D02*
X171360400Y-271726400D01*
X171360400Y-271726400D02*
X171460400Y-271726400D01*
X171460400Y-277726400D02*
X171460400Y-271726400D01*
X181460400Y-281726400D02*
X175460400Y-281726400D01*
X185460400Y-271726400D02*
X185460400Y-277726400D01*
X175460400Y-267726400D02*
X181460400Y-267726400D01*
%TO.C,MX38*%
X156884000Y-336876400D02*
X156984000Y-336876400D01*
X156984000Y-334876400D02*
X156984000Y-336876400D01*
X156984000Y-334876400D02*
X157084000Y-334876400D01*
X156884000Y-336876400D02*
X156884000Y-339076400D01*
X159084000Y-339076400D02*
X156884000Y-339076400D01*
X161084000Y-338976400D02*
X159084000Y-338976400D01*
X159084000Y-338976400D02*
X159084000Y-339076400D01*
X161084000Y-338876400D02*
X161084000Y-338976400D01*
X171284000Y-339076400D02*
X169084000Y-339076400D01*
X171284000Y-336876400D02*
X171284000Y-339076400D01*
X171084000Y-334876400D02*
X171184000Y-334876400D01*
X171184000Y-334876400D02*
X171184000Y-336876400D01*
X171184000Y-336876400D02*
X171284000Y-336876400D01*
X169084000Y-338976400D02*
X167084000Y-338976400D01*
X169084000Y-338976400D02*
X169084000Y-339076400D01*
X167084000Y-338876400D02*
X167084000Y-338976400D01*
X171184000Y-326876400D02*
X171284000Y-326876400D01*
X171184000Y-326876400D02*
X171184000Y-328876400D01*
X171084000Y-328876400D02*
X171184000Y-328876400D01*
X171284000Y-324676400D02*
X171284000Y-326876400D01*
X171284000Y-324676400D02*
X169084000Y-324676400D01*
X169084000Y-324676400D02*
X169084000Y-324776400D01*
X169084000Y-324776400D02*
X167084000Y-324776400D01*
X167084000Y-324776400D02*
X167084000Y-324876400D01*
X159084000Y-324676400D02*
X156884000Y-324676400D01*
X159084000Y-324676400D02*
X159084000Y-324776400D01*
X161084000Y-324776400D02*
X159084000Y-324776400D01*
X161084000Y-324776400D02*
X161084000Y-324876400D01*
X156884000Y-324676400D02*
X156884000Y-326876400D01*
X156884000Y-326876400D02*
X156984000Y-326876400D01*
X156984000Y-326876400D02*
X156984000Y-328876400D01*
X156984000Y-328876400D02*
X157084000Y-328876400D01*
X157084000Y-334876400D02*
X157084000Y-328876400D01*
X167084000Y-338876400D02*
X161084000Y-338876400D01*
X171084000Y-328876400D02*
X171084000Y-334876400D01*
X161084000Y-324876400D02*
X167084000Y-324876400D01*
%TO.C,MX37*%
X147363200Y-317848000D02*
X147463200Y-317848000D01*
X147463200Y-315848000D02*
X147463200Y-317848000D01*
X147463200Y-315848000D02*
X147563200Y-315848000D01*
X147363200Y-317848000D02*
X147363200Y-320048000D01*
X149563200Y-320048000D02*
X147363200Y-320048000D01*
X151563200Y-319948000D02*
X149563200Y-319948000D01*
X149563200Y-319948000D02*
X149563200Y-320048000D01*
X151563200Y-319848000D02*
X151563200Y-319948000D01*
X161763200Y-320048000D02*
X159563200Y-320048000D01*
X161763200Y-317848000D02*
X161763200Y-320048000D01*
X161563200Y-315848000D02*
X161663200Y-315848000D01*
X161663200Y-315848000D02*
X161663200Y-317848000D01*
X161663200Y-317848000D02*
X161763200Y-317848000D01*
X159563200Y-319948000D02*
X157563200Y-319948000D01*
X159563200Y-319948000D02*
X159563200Y-320048000D01*
X157563200Y-319848000D02*
X157563200Y-319948000D01*
X161663200Y-307848000D02*
X161763200Y-307848000D01*
X161663200Y-307848000D02*
X161663200Y-309848000D01*
X161563200Y-309848000D02*
X161663200Y-309848000D01*
X161763200Y-305648000D02*
X161763200Y-307848000D01*
X161763200Y-305648000D02*
X159563200Y-305648000D01*
X159563200Y-305648000D02*
X159563200Y-305748000D01*
X159563200Y-305748000D02*
X157563200Y-305748000D01*
X157563200Y-305748000D02*
X157563200Y-305848000D01*
X149563200Y-305648000D02*
X147363200Y-305648000D01*
X149563200Y-305648000D02*
X149563200Y-305748000D01*
X151563200Y-305748000D02*
X149563200Y-305748000D01*
X151563200Y-305748000D02*
X151563200Y-305848000D01*
X147363200Y-305648000D02*
X147363200Y-307848000D01*
X147363200Y-307848000D02*
X147463200Y-307848000D01*
X147463200Y-307848000D02*
X147463200Y-309848000D01*
X147463200Y-309848000D02*
X147563200Y-309848000D01*
X147563200Y-315848000D02*
X147563200Y-309848000D01*
X157563200Y-319848000D02*
X151563200Y-319848000D01*
X161563200Y-309848000D02*
X161563200Y-315848000D01*
X151563200Y-305848000D02*
X157563200Y-305848000D01*
%TO.C,MX36*%
X161710000Y-298776400D02*
X161810000Y-298776400D01*
X161810000Y-296776400D02*
X161810000Y-298776400D01*
X161810000Y-296776400D02*
X161910000Y-296776400D01*
X161710000Y-298776400D02*
X161710000Y-300976400D01*
X163910000Y-300976400D02*
X161710000Y-300976400D01*
X165910000Y-300876400D02*
X163910000Y-300876400D01*
X163910000Y-300876400D02*
X163910000Y-300976400D01*
X165910000Y-300776400D02*
X165910000Y-300876400D01*
X176110000Y-300976400D02*
X173910000Y-300976400D01*
X176110000Y-298776400D02*
X176110000Y-300976400D01*
X175910000Y-296776400D02*
X176010000Y-296776400D01*
X176010000Y-296776400D02*
X176010000Y-298776400D01*
X176010000Y-298776400D02*
X176110000Y-298776400D01*
X173910000Y-300876400D02*
X171910000Y-300876400D01*
X173910000Y-300876400D02*
X173910000Y-300976400D01*
X171910000Y-300776400D02*
X171910000Y-300876400D01*
X176010000Y-288776400D02*
X176110000Y-288776400D01*
X176010000Y-288776400D02*
X176010000Y-290776400D01*
X175910000Y-290776400D02*
X176010000Y-290776400D01*
X176110000Y-286576400D02*
X176110000Y-288776400D01*
X176110000Y-286576400D02*
X173910000Y-286576400D01*
X173910000Y-286576400D02*
X173910000Y-286676400D01*
X173910000Y-286676400D02*
X171910000Y-286676400D01*
X171910000Y-286676400D02*
X171910000Y-286776400D01*
X163910000Y-286576400D02*
X161710000Y-286576400D01*
X163910000Y-286576400D02*
X163910000Y-286676400D01*
X165910000Y-286676400D02*
X163910000Y-286676400D01*
X165910000Y-286676400D02*
X165910000Y-286776400D01*
X161710000Y-286576400D02*
X161710000Y-288776400D01*
X161710000Y-288776400D02*
X161810000Y-288776400D01*
X161810000Y-288776400D02*
X161810000Y-290776400D01*
X161810000Y-290776400D02*
X161910000Y-290776400D01*
X161910000Y-296776400D02*
X161910000Y-290776400D01*
X171910000Y-300776400D02*
X165910000Y-300776400D01*
X175910000Y-290776400D02*
X175910000Y-296776400D01*
X165910000Y-286776400D02*
X171910000Y-286776400D01*
%TO.C,MX35*%
X152210400Y-279726400D02*
X152310400Y-279726400D01*
X152310400Y-277726400D02*
X152310400Y-279726400D01*
X152310400Y-277726400D02*
X152410400Y-277726400D01*
X152210400Y-279726400D02*
X152210400Y-281926400D01*
X154410400Y-281926400D02*
X152210400Y-281926400D01*
X156410400Y-281826400D02*
X154410400Y-281826400D01*
X154410400Y-281826400D02*
X154410400Y-281926400D01*
X156410400Y-281726400D02*
X156410400Y-281826400D01*
X166610400Y-281926400D02*
X164410400Y-281926400D01*
X166610400Y-279726400D02*
X166610400Y-281926400D01*
X166410400Y-277726400D02*
X166510400Y-277726400D01*
X166510400Y-277726400D02*
X166510400Y-279726400D01*
X166510400Y-279726400D02*
X166610400Y-279726400D01*
X164410400Y-281826400D02*
X162410400Y-281826400D01*
X164410400Y-281826400D02*
X164410400Y-281926400D01*
X162410400Y-281726400D02*
X162410400Y-281826400D01*
X166510400Y-269726400D02*
X166610400Y-269726400D01*
X166510400Y-269726400D02*
X166510400Y-271726400D01*
X166410400Y-271726400D02*
X166510400Y-271726400D01*
X166610400Y-267526400D02*
X166610400Y-269726400D01*
X166610400Y-267526400D02*
X164410400Y-267526400D01*
X164410400Y-267526400D02*
X164410400Y-267626400D01*
X164410400Y-267626400D02*
X162410400Y-267626400D01*
X162410400Y-267626400D02*
X162410400Y-267726400D01*
X154410400Y-267526400D02*
X152210400Y-267526400D01*
X154410400Y-267526400D02*
X154410400Y-267626400D01*
X156410400Y-267626400D02*
X154410400Y-267626400D01*
X156410400Y-267626400D02*
X156410400Y-267726400D01*
X152210400Y-267526400D02*
X152210400Y-269726400D01*
X152210400Y-269726400D02*
X152310400Y-269726400D01*
X152310400Y-269726400D02*
X152310400Y-271726400D01*
X152310400Y-271726400D02*
X152410400Y-271726400D01*
X152410400Y-277726400D02*
X152410400Y-271726400D01*
X162410400Y-281726400D02*
X156410400Y-281726400D01*
X166410400Y-271726400D02*
X166410400Y-277726400D01*
X156410400Y-267726400D02*
X162410400Y-267726400D01*
%TO.C,MX32*%
X137783200Y-336876400D02*
X137883200Y-336876400D01*
X137883200Y-334876400D02*
X137883200Y-336876400D01*
X137883200Y-334876400D02*
X137983200Y-334876400D01*
X137783200Y-336876400D02*
X137783200Y-339076400D01*
X139983200Y-339076400D02*
X137783200Y-339076400D01*
X141983200Y-338976400D02*
X139983200Y-338976400D01*
X139983200Y-338976400D02*
X139983200Y-339076400D01*
X141983200Y-338876400D02*
X141983200Y-338976400D01*
X152183200Y-339076400D02*
X149983200Y-339076400D01*
X152183200Y-336876400D02*
X152183200Y-339076400D01*
X151983200Y-334876400D02*
X152083200Y-334876400D01*
X152083200Y-334876400D02*
X152083200Y-336876400D01*
X152083200Y-336876400D02*
X152183200Y-336876400D01*
X149983200Y-338976400D02*
X147983200Y-338976400D01*
X149983200Y-338976400D02*
X149983200Y-339076400D01*
X147983200Y-338876400D02*
X147983200Y-338976400D01*
X152083200Y-326876400D02*
X152183200Y-326876400D01*
X152083200Y-326876400D02*
X152083200Y-328876400D01*
X151983200Y-328876400D02*
X152083200Y-328876400D01*
X152183200Y-324676400D02*
X152183200Y-326876400D01*
X152183200Y-324676400D02*
X149983200Y-324676400D01*
X149983200Y-324676400D02*
X149983200Y-324776400D01*
X149983200Y-324776400D02*
X147983200Y-324776400D01*
X147983200Y-324776400D02*
X147983200Y-324876400D01*
X139983200Y-324676400D02*
X137783200Y-324676400D01*
X139983200Y-324676400D02*
X139983200Y-324776400D01*
X141983200Y-324776400D02*
X139983200Y-324776400D01*
X141983200Y-324776400D02*
X141983200Y-324876400D01*
X137783200Y-324676400D02*
X137783200Y-326876400D01*
X137783200Y-326876400D02*
X137883200Y-326876400D01*
X137883200Y-326876400D02*
X137883200Y-328876400D01*
X137883200Y-328876400D02*
X137983200Y-328876400D01*
X137983200Y-334876400D02*
X137983200Y-328876400D01*
X147983200Y-338876400D02*
X141983200Y-338876400D01*
X151983200Y-328876400D02*
X151983200Y-334876400D01*
X141983200Y-324876400D02*
X147983200Y-324876400D01*
%TO.C,MX31*%
X128334400Y-317848000D02*
X128434400Y-317848000D01*
X128434400Y-315848000D02*
X128434400Y-317848000D01*
X128434400Y-315848000D02*
X128534400Y-315848000D01*
X128334400Y-317848000D02*
X128334400Y-320048000D01*
X130534400Y-320048000D02*
X128334400Y-320048000D01*
X132534400Y-319948000D02*
X130534400Y-319948000D01*
X130534400Y-319948000D02*
X130534400Y-320048000D01*
X132534400Y-319848000D02*
X132534400Y-319948000D01*
X142734400Y-320048000D02*
X140534400Y-320048000D01*
X142734400Y-317848000D02*
X142734400Y-320048000D01*
X142534400Y-315848000D02*
X142634400Y-315848000D01*
X142634400Y-315848000D02*
X142634400Y-317848000D01*
X142634400Y-317848000D02*
X142734400Y-317848000D01*
X140534400Y-319948000D02*
X138534400Y-319948000D01*
X140534400Y-319948000D02*
X140534400Y-320048000D01*
X138534400Y-319848000D02*
X138534400Y-319948000D01*
X142634400Y-307848000D02*
X142734400Y-307848000D01*
X142634400Y-307848000D02*
X142634400Y-309848000D01*
X142534400Y-309848000D02*
X142634400Y-309848000D01*
X142734400Y-305648000D02*
X142734400Y-307848000D01*
X142734400Y-305648000D02*
X140534400Y-305648000D01*
X140534400Y-305648000D02*
X140534400Y-305748000D01*
X140534400Y-305748000D02*
X138534400Y-305748000D01*
X138534400Y-305748000D02*
X138534400Y-305848000D01*
X130534400Y-305648000D02*
X128334400Y-305648000D01*
X130534400Y-305648000D02*
X130534400Y-305748000D01*
X132534400Y-305748000D02*
X130534400Y-305748000D01*
X132534400Y-305748000D02*
X132534400Y-305848000D01*
X128334400Y-305648000D02*
X128334400Y-307848000D01*
X128334400Y-307848000D02*
X128434400Y-307848000D01*
X128434400Y-307848000D02*
X128434400Y-309848000D01*
X128434400Y-309848000D02*
X128534400Y-309848000D01*
X128534400Y-315848000D02*
X128534400Y-309848000D01*
X138534400Y-319848000D02*
X132534400Y-319848000D01*
X142534400Y-309848000D02*
X142534400Y-315848000D01*
X132534400Y-305848000D02*
X138534400Y-305848000D01*
%TO.C,MX30*%
X142558400Y-298776400D02*
X142658400Y-298776400D01*
X142658400Y-296776400D02*
X142658400Y-298776400D01*
X142658400Y-296776400D02*
X142758400Y-296776400D01*
X142558400Y-298776400D02*
X142558400Y-300976400D01*
X144758400Y-300976400D02*
X142558400Y-300976400D01*
X146758400Y-300876400D02*
X144758400Y-300876400D01*
X144758400Y-300876400D02*
X144758400Y-300976400D01*
X146758400Y-300776400D02*
X146758400Y-300876400D01*
X156958400Y-300976400D02*
X154758400Y-300976400D01*
X156958400Y-298776400D02*
X156958400Y-300976400D01*
X156758400Y-296776400D02*
X156858400Y-296776400D01*
X156858400Y-296776400D02*
X156858400Y-298776400D01*
X156858400Y-298776400D02*
X156958400Y-298776400D01*
X154758400Y-300876400D02*
X152758400Y-300876400D01*
X154758400Y-300876400D02*
X154758400Y-300976400D01*
X152758400Y-300776400D02*
X152758400Y-300876400D01*
X156858400Y-288776400D02*
X156958400Y-288776400D01*
X156858400Y-288776400D02*
X156858400Y-290776400D01*
X156758400Y-290776400D02*
X156858400Y-290776400D01*
X156958400Y-286576400D02*
X156958400Y-288776400D01*
X156958400Y-286576400D02*
X154758400Y-286576400D01*
X154758400Y-286576400D02*
X154758400Y-286676400D01*
X154758400Y-286676400D02*
X152758400Y-286676400D01*
X152758400Y-286676400D02*
X152758400Y-286776400D01*
X144758400Y-286576400D02*
X142558400Y-286576400D01*
X144758400Y-286576400D02*
X144758400Y-286676400D01*
X146758400Y-286676400D02*
X144758400Y-286676400D01*
X146758400Y-286676400D02*
X146758400Y-286776400D01*
X142558400Y-286576400D02*
X142558400Y-288776400D01*
X142558400Y-288776400D02*
X142658400Y-288776400D01*
X142658400Y-288776400D02*
X142658400Y-290776400D01*
X142658400Y-290776400D02*
X142758400Y-290776400D01*
X142758400Y-296776400D02*
X142758400Y-290776400D01*
X152758400Y-300776400D02*
X146758400Y-300776400D01*
X156758400Y-290776400D02*
X156758400Y-296776400D01*
X146758400Y-286776400D02*
X152758400Y-286776400D01*
%TO.C,MX29*%
X133139200Y-279697200D02*
X133239200Y-279697200D01*
X133239200Y-277697200D02*
X133239200Y-279697200D01*
X133239200Y-277697200D02*
X133339200Y-277697200D01*
X133139200Y-279697200D02*
X133139200Y-281897200D01*
X135339200Y-281897200D02*
X133139200Y-281897200D01*
X137339200Y-281797200D02*
X135339200Y-281797200D01*
X135339200Y-281797200D02*
X135339200Y-281897200D01*
X137339200Y-281697200D02*
X137339200Y-281797200D01*
X147539200Y-281897200D02*
X145339200Y-281897200D01*
X147539200Y-279697200D02*
X147539200Y-281897200D01*
X147339200Y-277697200D02*
X147439200Y-277697200D01*
X147439200Y-277697200D02*
X147439200Y-279697200D01*
X147439200Y-279697200D02*
X147539200Y-279697200D01*
X145339200Y-281797200D02*
X143339200Y-281797200D01*
X145339200Y-281797200D02*
X145339200Y-281897200D01*
X143339200Y-281697200D02*
X143339200Y-281797200D01*
X147439200Y-269697200D02*
X147539200Y-269697200D01*
X147439200Y-269697200D02*
X147439200Y-271697200D01*
X147339200Y-271697200D02*
X147439200Y-271697200D01*
X147539200Y-267497200D02*
X147539200Y-269697200D01*
X147539200Y-267497200D02*
X145339200Y-267497200D01*
X145339200Y-267497200D02*
X145339200Y-267597200D01*
X145339200Y-267597200D02*
X143339200Y-267597200D01*
X143339200Y-267597200D02*
X143339200Y-267697200D01*
X135339200Y-267497200D02*
X133139200Y-267497200D01*
X135339200Y-267497200D02*
X135339200Y-267597200D01*
X137339200Y-267597200D02*
X135339200Y-267597200D01*
X137339200Y-267597200D02*
X137339200Y-267697200D01*
X133139200Y-267497200D02*
X133139200Y-269697200D01*
X133139200Y-269697200D02*
X133239200Y-269697200D01*
X133239200Y-269697200D02*
X133239200Y-271697200D01*
X133239200Y-271697200D02*
X133339200Y-271697200D01*
X133339200Y-277697200D02*
X133339200Y-271697200D01*
X143339200Y-281697200D02*
X137339200Y-281697200D01*
X147339200Y-271697200D02*
X147339200Y-277697200D01*
X137339200Y-267697200D02*
X143339200Y-267697200D01*
%TO.C,MX27*%
X118733200Y-336876400D02*
X118833200Y-336876400D01*
X118833200Y-334876400D02*
X118833200Y-336876400D01*
X118833200Y-334876400D02*
X118933200Y-334876400D01*
X118733200Y-336876400D02*
X118733200Y-339076400D01*
X120933200Y-339076400D02*
X118733200Y-339076400D01*
X122933200Y-338976400D02*
X120933200Y-338976400D01*
X120933200Y-338976400D02*
X120933200Y-339076400D01*
X122933200Y-338876400D02*
X122933200Y-338976400D01*
X133133200Y-339076400D02*
X130933200Y-339076400D01*
X133133200Y-336876400D02*
X133133200Y-339076400D01*
X132933200Y-334876400D02*
X133033200Y-334876400D01*
X133033200Y-334876400D02*
X133033200Y-336876400D01*
X133033200Y-336876400D02*
X133133200Y-336876400D01*
X130933200Y-338976400D02*
X128933200Y-338976400D01*
X130933200Y-338976400D02*
X130933200Y-339076400D01*
X128933200Y-338876400D02*
X128933200Y-338976400D01*
X133033200Y-326876400D02*
X133133200Y-326876400D01*
X133033200Y-326876400D02*
X133033200Y-328876400D01*
X132933200Y-328876400D02*
X133033200Y-328876400D01*
X133133200Y-324676400D02*
X133133200Y-326876400D01*
X133133200Y-324676400D02*
X130933200Y-324676400D01*
X130933200Y-324676400D02*
X130933200Y-324776400D01*
X130933200Y-324776400D02*
X128933200Y-324776400D01*
X128933200Y-324776400D02*
X128933200Y-324876400D01*
X120933200Y-324676400D02*
X118733200Y-324676400D01*
X120933200Y-324676400D02*
X120933200Y-324776400D01*
X122933200Y-324776400D02*
X120933200Y-324776400D01*
X122933200Y-324776400D02*
X122933200Y-324876400D01*
X118733200Y-324676400D02*
X118733200Y-326876400D01*
X118733200Y-326876400D02*
X118833200Y-326876400D01*
X118833200Y-326876400D02*
X118833200Y-328876400D01*
X118833200Y-328876400D02*
X118933200Y-328876400D01*
X118933200Y-334876400D02*
X118933200Y-328876400D01*
X128933200Y-338876400D02*
X122933200Y-338876400D01*
X132933200Y-328876400D02*
X132933200Y-334876400D01*
X122933200Y-324876400D02*
X128933200Y-324876400D01*
%TO.C,MX26*%
X109254800Y-317848000D02*
X109354800Y-317848000D01*
X109354800Y-315848000D02*
X109354800Y-317848000D01*
X109354800Y-315848000D02*
X109454800Y-315848000D01*
X109254800Y-317848000D02*
X109254800Y-320048000D01*
X111454800Y-320048000D02*
X109254800Y-320048000D01*
X113454800Y-319948000D02*
X111454800Y-319948000D01*
X111454800Y-319948000D02*
X111454800Y-320048000D01*
X113454800Y-319848000D02*
X113454800Y-319948000D01*
X123654800Y-320048000D02*
X121454800Y-320048000D01*
X123654800Y-317848000D02*
X123654800Y-320048000D01*
X123454800Y-315848000D02*
X123554800Y-315848000D01*
X123554800Y-315848000D02*
X123554800Y-317848000D01*
X123554800Y-317848000D02*
X123654800Y-317848000D01*
X121454800Y-319948000D02*
X119454800Y-319948000D01*
X121454800Y-319948000D02*
X121454800Y-320048000D01*
X119454800Y-319848000D02*
X119454800Y-319948000D01*
X123554800Y-307848000D02*
X123654800Y-307848000D01*
X123554800Y-307848000D02*
X123554800Y-309848000D01*
X123454800Y-309848000D02*
X123554800Y-309848000D01*
X123654800Y-305648000D02*
X123654800Y-307848000D01*
X123654800Y-305648000D02*
X121454800Y-305648000D01*
X121454800Y-305648000D02*
X121454800Y-305748000D01*
X121454800Y-305748000D02*
X119454800Y-305748000D01*
X119454800Y-305748000D02*
X119454800Y-305848000D01*
X111454800Y-305648000D02*
X109254800Y-305648000D01*
X111454800Y-305648000D02*
X111454800Y-305748000D01*
X113454800Y-305748000D02*
X111454800Y-305748000D01*
X113454800Y-305748000D02*
X113454800Y-305848000D01*
X109254800Y-305648000D02*
X109254800Y-307848000D01*
X109254800Y-307848000D02*
X109354800Y-307848000D01*
X109354800Y-307848000D02*
X109354800Y-309848000D01*
X109354800Y-309848000D02*
X109454800Y-309848000D01*
X109454800Y-315848000D02*
X109454800Y-309848000D01*
X119454800Y-319848000D02*
X113454800Y-319848000D01*
X123454800Y-309848000D02*
X123454800Y-315848000D01*
X113454800Y-305848000D02*
X119454800Y-305848000D01*
%TO.C,MX25*%
X123508400Y-298776400D02*
X123608400Y-298776400D01*
X123608400Y-296776400D02*
X123608400Y-298776400D01*
X123608400Y-296776400D02*
X123708400Y-296776400D01*
X123508400Y-298776400D02*
X123508400Y-300976400D01*
X125708400Y-300976400D02*
X123508400Y-300976400D01*
X127708400Y-300876400D02*
X125708400Y-300876400D01*
X125708400Y-300876400D02*
X125708400Y-300976400D01*
X127708400Y-300776400D02*
X127708400Y-300876400D01*
X137908400Y-300976400D02*
X135708400Y-300976400D01*
X137908400Y-298776400D02*
X137908400Y-300976400D01*
X137708400Y-296776400D02*
X137808400Y-296776400D01*
X137808400Y-296776400D02*
X137808400Y-298776400D01*
X137808400Y-298776400D02*
X137908400Y-298776400D01*
X135708400Y-300876400D02*
X133708400Y-300876400D01*
X135708400Y-300876400D02*
X135708400Y-300976400D01*
X133708400Y-300776400D02*
X133708400Y-300876400D01*
X137808400Y-288776400D02*
X137908400Y-288776400D01*
X137808400Y-288776400D02*
X137808400Y-290776400D01*
X137708400Y-290776400D02*
X137808400Y-290776400D01*
X137908400Y-286576400D02*
X137908400Y-288776400D01*
X137908400Y-286576400D02*
X135708400Y-286576400D01*
X135708400Y-286576400D02*
X135708400Y-286676400D01*
X135708400Y-286676400D02*
X133708400Y-286676400D01*
X133708400Y-286676400D02*
X133708400Y-286776400D01*
X125708400Y-286576400D02*
X123508400Y-286576400D01*
X125708400Y-286576400D02*
X125708400Y-286676400D01*
X127708400Y-286676400D02*
X125708400Y-286676400D01*
X127708400Y-286676400D02*
X127708400Y-286776400D01*
X123508400Y-286576400D02*
X123508400Y-288776400D01*
X123508400Y-288776400D02*
X123608400Y-288776400D01*
X123608400Y-288776400D02*
X123608400Y-290776400D01*
X123608400Y-290776400D02*
X123708400Y-290776400D01*
X123708400Y-296776400D02*
X123708400Y-290776400D01*
X133708400Y-300776400D02*
X127708400Y-300776400D01*
X137708400Y-290776400D02*
X137708400Y-296776400D01*
X127708400Y-286776400D02*
X133708400Y-286776400D01*
%TO.C,MX24*%
X114059600Y-279675600D02*
X114159600Y-279675600D01*
X114159600Y-277675600D02*
X114159600Y-279675600D01*
X114159600Y-277675600D02*
X114259600Y-277675600D01*
X114059600Y-279675600D02*
X114059600Y-281875600D01*
X116259600Y-281875600D02*
X114059600Y-281875600D01*
X118259600Y-281775600D02*
X116259600Y-281775600D01*
X116259600Y-281775600D02*
X116259600Y-281875600D01*
X118259600Y-281675600D02*
X118259600Y-281775600D01*
X128459600Y-281875600D02*
X126259600Y-281875600D01*
X128459600Y-279675600D02*
X128459600Y-281875600D01*
X128259600Y-277675600D02*
X128359600Y-277675600D01*
X128359600Y-277675600D02*
X128359600Y-279675600D01*
X128359600Y-279675600D02*
X128459600Y-279675600D01*
X126259600Y-281775600D02*
X124259600Y-281775600D01*
X126259600Y-281775600D02*
X126259600Y-281875600D01*
X124259600Y-281675600D02*
X124259600Y-281775600D01*
X128359600Y-269675600D02*
X128459600Y-269675600D01*
X128359600Y-269675600D02*
X128359600Y-271675600D01*
X128259600Y-271675600D02*
X128359600Y-271675600D01*
X128459600Y-267475600D02*
X128459600Y-269675600D01*
X128459600Y-267475600D02*
X126259600Y-267475600D01*
X126259600Y-267475600D02*
X126259600Y-267575600D01*
X126259600Y-267575600D02*
X124259600Y-267575600D01*
X124259600Y-267575600D02*
X124259600Y-267675600D01*
X116259600Y-267475600D02*
X114059600Y-267475600D01*
X116259600Y-267475600D02*
X116259600Y-267575600D01*
X118259600Y-267575600D02*
X116259600Y-267575600D01*
X118259600Y-267575600D02*
X118259600Y-267675600D01*
X114059600Y-267475600D02*
X114059600Y-269675600D01*
X114059600Y-269675600D02*
X114159600Y-269675600D01*
X114159600Y-269675600D02*
X114159600Y-271675600D01*
X114159600Y-271675600D02*
X114259600Y-271675600D01*
X114259600Y-277675600D02*
X114259600Y-271675600D01*
X124259600Y-281675600D02*
X118259600Y-281675600D01*
X128259600Y-271675600D02*
X128259600Y-277675600D01*
X118259600Y-267675600D02*
X124259600Y-267675600D01*
%TO.C,MX22*%
X99683200Y-336876400D02*
X99783200Y-336876400D01*
X99783200Y-334876400D02*
X99783200Y-336876400D01*
X99783200Y-334876400D02*
X99883200Y-334876400D01*
X99683200Y-336876400D02*
X99683200Y-339076400D01*
X101883200Y-339076400D02*
X99683200Y-339076400D01*
X103883200Y-338976400D02*
X101883200Y-338976400D01*
X101883200Y-338976400D02*
X101883200Y-339076400D01*
X103883200Y-338876400D02*
X103883200Y-338976400D01*
X114083200Y-339076400D02*
X111883200Y-339076400D01*
X114083200Y-336876400D02*
X114083200Y-339076400D01*
X113883200Y-334876400D02*
X113983200Y-334876400D01*
X113983200Y-334876400D02*
X113983200Y-336876400D01*
X113983200Y-336876400D02*
X114083200Y-336876400D01*
X111883200Y-338976400D02*
X109883200Y-338976400D01*
X111883200Y-338976400D02*
X111883200Y-339076400D01*
X109883200Y-338876400D02*
X109883200Y-338976400D01*
X113983200Y-326876400D02*
X114083200Y-326876400D01*
X113983200Y-326876400D02*
X113983200Y-328876400D01*
X113883200Y-328876400D02*
X113983200Y-328876400D01*
X114083200Y-324676400D02*
X114083200Y-326876400D01*
X114083200Y-324676400D02*
X111883200Y-324676400D01*
X111883200Y-324676400D02*
X111883200Y-324776400D01*
X111883200Y-324776400D02*
X109883200Y-324776400D01*
X109883200Y-324776400D02*
X109883200Y-324876400D01*
X101883200Y-324676400D02*
X99683200Y-324676400D01*
X101883200Y-324676400D02*
X101883200Y-324776400D01*
X103883200Y-324776400D02*
X101883200Y-324776400D01*
X103883200Y-324776400D02*
X103883200Y-324876400D01*
X99683200Y-324676400D02*
X99683200Y-326876400D01*
X99683200Y-326876400D02*
X99783200Y-326876400D01*
X99783200Y-326876400D02*
X99783200Y-328876400D01*
X99783200Y-328876400D02*
X99883200Y-328876400D01*
X99883200Y-334876400D02*
X99883200Y-328876400D01*
X109883200Y-338876400D02*
X103883200Y-338876400D01*
X113883200Y-328876400D02*
X113883200Y-334876400D01*
X103883200Y-324876400D02*
X109883200Y-324876400D01*
%TO.C,MX21*%
X90183600Y-317826400D02*
X90283600Y-317826400D01*
X90283600Y-315826400D02*
X90283600Y-317826400D01*
X90283600Y-315826400D02*
X90383600Y-315826400D01*
X90183600Y-317826400D02*
X90183600Y-320026400D01*
X92383600Y-320026400D02*
X90183600Y-320026400D01*
X94383600Y-319926400D02*
X92383600Y-319926400D01*
X92383600Y-319926400D02*
X92383600Y-320026400D01*
X94383600Y-319826400D02*
X94383600Y-319926400D01*
X104583600Y-320026400D02*
X102383600Y-320026400D01*
X104583600Y-317826400D02*
X104583600Y-320026400D01*
X104383600Y-315826400D02*
X104483600Y-315826400D01*
X104483600Y-315826400D02*
X104483600Y-317826400D01*
X104483600Y-317826400D02*
X104583600Y-317826400D01*
X102383600Y-319926400D02*
X100383600Y-319926400D01*
X102383600Y-319926400D02*
X102383600Y-320026400D01*
X100383600Y-319826400D02*
X100383600Y-319926400D01*
X104483600Y-307826400D02*
X104583600Y-307826400D01*
X104483600Y-307826400D02*
X104483600Y-309826400D01*
X104383600Y-309826400D02*
X104483600Y-309826400D01*
X104583600Y-305626400D02*
X104583600Y-307826400D01*
X104583600Y-305626400D02*
X102383600Y-305626400D01*
X102383600Y-305626400D02*
X102383600Y-305726400D01*
X102383600Y-305726400D02*
X100383600Y-305726400D01*
X100383600Y-305726400D02*
X100383600Y-305826400D01*
X92383600Y-305626400D02*
X90183600Y-305626400D01*
X92383600Y-305626400D02*
X92383600Y-305726400D01*
X94383600Y-305726400D02*
X92383600Y-305726400D01*
X94383600Y-305726400D02*
X94383600Y-305826400D01*
X90183600Y-305626400D02*
X90183600Y-307826400D01*
X90183600Y-307826400D02*
X90283600Y-307826400D01*
X90283600Y-307826400D02*
X90283600Y-309826400D01*
X90283600Y-309826400D02*
X90383600Y-309826400D01*
X90383600Y-315826400D02*
X90383600Y-309826400D01*
X100383600Y-319826400D02*
X94383600Y-319826400D01*
X104383600Y-309826400D02*
X104383600Y-315826400D01*
X94383600Y-305826400D02*
X100383600Y-305826400D01*
%TO.C,MX20*%
X104458400Y-298751000D02*
X104558400Y-298751000D01*
X104558400Y-296751000D02*
X104558400Y-298751000D01*
X104558400Y-296751000D02*
X104658400Y-296751000D01*
X104458400Y-298751000D02*
X104458400Y-300951000D01*
X106658400Y-300951000D02*
X104458400Y-300951000D01*
X108658400Y-300851000D02*
X106658400Y-300851000D01*
X106658400Y-300851000D02*
X106658400Y-300951000D01*
X108658400Y-300751000D02*
X108658400Y-300851000D01*
X118858400Y-300951000D02*
X116658400Y-300951000D01*
X118858400Y-298751000D02*
X118858400Y-300951000D01*
X118658400Y-296751000D02*
X118758400Y-296751000D01*
X118758400Y-296751000D02*
X118758400Y-298751000D01*
X118758400Y-298751000D02*
X118858400Y-298751000D01*
X116658400Y-300851000D02*
X114658400Y-300851000D01*
X116658400Y-300851000D02*
X116658400Y-300951000D01*
X114658400Y-300751000D02*
X114658400Y-300851000D01*
X118758400Y-288751000D02*
X118858400Y-288751000D01*
X118758400Y-288751000D02*
X118758400Y-290751000D01*
X118658400Y-290751000D02*
X118758400Y-290751000D01*
X118858400Y-286551000D02*
X118858400Y-288751000D01*
X118858400Y-286551000D02*
X116658400Y-286551000D01*
X116658400Y-286551000D02*
X116658400Y-286651000D01*
X116658400Y-286651000D02*
X114658400Y-286651000D01*
X114658400Y-286651000D02*
X114658400Y-286751000D01*
X106658400Y-286551000D02*
X104458400Y-286551000D01*
X106658400Y-286551000D02*
X106658400Y-286651000D01*
X108658400Y-286651000D02*
X106658400Y-286651000D01*
X108658400Y-286651000D02*
X108658400Y-286751000D01*
X104458400Y-286551000D02*
X104458400Y-288751000D01*
X104458400Y-288751000D02*
X104558400Y-288751000D01*
X104558400Y-288751000D02*
X104558400Y-290751000D01*
X104558400Y-290751000D02*
X104658400Y-290751000D01*
X104658400Y-296751000D02*
X104658400Y-290751000D01*
X114658400Y-300751000D02*
X108658400Y-300751000D01*
X118658400Y-290751000D02*
X118658400Y-296751000D01*
X108658400Y-286751000D02*
X114658400Y-286751000D01*
%TO.C,MX19*%
X95009600Y-279675600D02*
X95109600Y-279675600D01*
X95109600Y-277675600D02*
X95109600Y-279675600D01*
X95109600Y-277675600D02*
X95209600Y-277675600D01*
X95009600Y-279675600D02*
X95009600Y-281875600D01*
X97209600Y-281875600D02*
X95009600Y-281875600D01*
X99209600Y-281775600D02*
X97209600Y-281775600D01*
X97209600Y-281775600D02*
X97209600Y-281875600D01*
X99209600Y-281675600D02*
X99209600Y-281775600D01*
X109409600Y-281875600D02*
X107209600Y-281875600D01*
X109409600Y-279675600D02*
X109409600Y-281875600D01*
X109209600Y-277675600D02*
X109309600Y-277675600D01*
X109309600Y-277675600D02*
X109309600Y-279675600D01*
X109309600Y-279675600D02*
X109409600Y-279675600D01*
X107209600Y-281775600D02*
X105209600Y-281775600D01*
X107209600Y-281775600D02*
X107209600Y-281875600D01*
X105209600Y-281675600D02*
X105209600Y-281775600D01*
X109309600Y-269675600D02*
X109409600Y-269675600D01*
X109309600Y-269675600D02*
X109309600Y-271675600D01*
X109209600Y-271675600D02*
X109309600Y-271675600D01*
X109409600Y-267475600D02*
X109409600Y-269675600D01*
X109409600Y-267475600D02*
X107209600Y-267475600D01*
X107209600Y-267475600D02*
X107209600Y-267575600D01*
X107209600Y-267575600D02*
X105209600Y-267575600D01*
X105209600Y-267575600D02*
X105209600Y-267675600D01*
X97209600Y-267475600D02*
X95009600Y-267475600D01*
X97209600Y-267475600D02*
X97209600Y-267575600D01*
X99209600Y-267575600D02*
X97209600Y-267575600D01*
X99209600Y-267575600D02*
X99209600Y-267675600D01*
X95009600Y-267475600D02*
X95009600Y-269675600D01*
X95009600Y-269675600D02*
X95109600Y-269675600D01*
X95109600Y-269675600D02*
X95109600Y-271675600D01*
X95109600Y-271675600D02*
X95209600Y-271675600D01*
X95209600Y-277675600D02*
X95209600Y-271675600D01*
X105209600Y-281675600D02*
X99209600Y-281675600D01*
X109209600Y-271675600D02*
X109209600Y-277675600D01*
X99209600Y-267675600D02*
X105209600Y-267675600D01*
%TO.C,MX17*%
X80633200Y-336876400D02*
X80733200Y-336876400D01*
X80733200Y-334876400D02*
X80733200Y-336876400D01*
X80733200Y-334876400D02*
X80833200Y-334876400D01*
X80633200Y-336876400D02*
X80633200Y-339076400D01*
X82833200Y-339076400D02*
X80633200Y-339076400D01*
X84833200Y-338976400D02*
X82833200Y-338976400D01*
X82833200Y-338976400D02*
X82833200Y-339076400D01*
X84833200Y-338876400D02*
X84833200Y-338976400D01*
X95033200Y-339076400D02*
X92833200Y-339076400D01*
X95033200Y-336876400D02*
X95033200Y-339076400D01*
X94833200Y-334876400D02*
X94933200Y-334876400D01*
X94933200Y-334876400D02*
X94933200Y-336876400D01*
X94933200Y-336876400D02*
X95033200Y-336876400D01*
X92833200Y-338976400D02*
X90833200Y-338976400D01*
X92833200Y-338976400D02*
X92833200Y-339076400D01*
X90833200Y-338876400D02*
X90833200Y-338976400D01*
X94933200Y-326876400D02*
X95033200Y-326876400D01*
X94933200Y-326876400D02*
X94933200Y-328876400D01*
X94833200Y-328876400D02*
X94933200Y-328876400D01*
X95033200Y-324676400D02*
X95033200Y-326876400D01*
X95033200Y-324676400D02*
X92833200Y-324676400D01*
X92833200Y-324676400D02*
X92833200Y-324776400D01*
X92833200Y-324776400D02*
X90833200Y-324776400D01*
X90833200Y-324776400D02*
X90833200Y-324876400D01*
X82833200Y-324676400D02*
X80633200Y-324676400D01*
X82833200Y-324676400D02*
X82833200Y-324776400D01*
X84833200Y-324776400D02*
X82833200Y-324776400D01*
X84833200Y-324776400D02*
X84833200Y-324876400D01*
X80633200Y-324676400D02*
X80633200Y-326876400D01*
X80633200Y-326876400D02*
X80733200Y-326876400D01*
X80733200Y-326876400D02*
X80733200Y-328876400D01*
X80733200Y-328876400D02*
X80833200Y-328876400D01*
X80833200Y-334876400D02*
X80833200Y-328876400D01*
X90833200Y-338876400D02*
X84833200Y-338876400D01*
X94833200Y-328876400D02*
X94833200Y-334876400D01*
X84833200Y-324876400D02*
X90833200Y-324876400D01*
%TO.C,MX16*%
X71133600Y-317826400D02*
X71233600Y-317826400D01*
X71233600Y-315826400D02*
X71233600Y-317826400D01*
X71233600Y-315826400D02*
X71333600Y-315826400D01*
X71133600Y-317826400D02*
X71133600Y-320026400D01*
X73333600Y-320026400D02*
X71133600Y-320026400D01*
X75333600Y-319926400D02*
X73333600Y-319926400D01*
X73333600Y-319926400D02*
X73333600Y-320026400D01*
X75333600Y-319826400D02*
X75333600Y-319926400D01*
X85533600Y-320026400D02*
X83333600Y-320026400D01*
X85533600Y-317826400D02*
X85533600Y-320026400D01*
X85333600Y-315826400D02*
X85433600Y-315826400D01*
X85433600Y-315826400D02*
X85433600Y-317826400D01*
X85433600Y-317826400D02*
X85533600Y-317826400D01*
X83333600Y-319926400D02*
X81333600Y-319926400D01*
X83333600Y-319926400D02*
X83333600Y-320026400D01*
X81333600Y-319826400D02*
X81333600Y-319926400D01*
X85433600Y-307826400D02*
X85533600Y-307826400D01*
X85433600Y-307826400D02*
X85433600Y-309826400D01*
X85333600Y-309826400D02*
X85433600Y-309826400D01*
X85533600Y-305626400D02*
X85533600Y-307826400D01*
X85533600Y-305626400D02*
X83333600Y-305626400D01*
X83333600Y-305626400D02*
X83333600Y-305726400D01*
X83333600Y-305726400D02*
X81333600Y-305726400D01*
X81333600Y-305726400D02*
X81333600Y-305826400D01*
X73333600Y-305626400D02*
X71133600Y-305626400D01*
X73333600Y-305626400D02*
X73333600Y-305726400D01*
X75333600Y-305726400D02*
X73333600Y-305726400D01*
X75333600Y-305726400D02*
X75333600Y-305826400D01*
X71133600Y-305626400D02*
X71133600Y-307826400D01*
X71133600Y-307826400D02*
X71233600Y-307826400D01*
X71233600Y-307826400D02*
X71233600Y-309826400D01*
X71233600Y-309826400D02*
X71333600Y-309826400D01*
X71333600Y-315826400D02*
X71333600Y-309826400D01*
X81333600Y-319826400D02*
X75333600Y-319826400D01*
X85333600Y-309826400D02*
X85333600Y-315826400D01*
X75333600Y-305826400D02*
X81333600Y-305826400D01*
%TO.C,MX15*%
X85408400Y-298751000D02*
X85508400Y-298751000D01*
X85508400Y-296751000D02*
X85508400Y-298751000D01*
X85508400Y-296751000D02*
X85608400Y-296751000D01*
X85408400Y-298751000D02*
X85408400Y-300951000D01*
X87608400Y-300951000D02*
X85408400Y-300951000D01*
X89608400Y-300851000D02*
X87608400Y-300851000D01*
X87608400Y-300851000D02*
X87608400Y-300951000D01*
X89608400Y-300751000D02*
X89608400Y-300851000D01*
X99808400Y-300951000D02*
X97608400Y-300951000D01*
X99808400Y-298751000D02*
X99808400Y-300951000D01*
X99608400Y-296751000D02*
X99708400Y-296751000D01*
X99708400Y-296751000D02*
X99708400Y-298751000D01*
X99708400Y-298751000D02*
X99808400Y-298751000D01*
X97608400Y-300851000D02*
X95608400Y-300851000D01*
X97608400Y-300851000D02*
X97608400Y-300951000D01*
X95608400Y-300751000D02*
X95608400Y-300851000D01*
X99708400Y-288751000D02*
X99808400Y-288751000D01*
X99708400Y-288751000D02*
X99708400Y-290751000D01*
X99608400Y-290751000D02*
X99708400Y-290751000D01*
X99808400Y-286551000D02*
X99808400Y-288751000D01*
X99808400Y-286551000D02*
X97608400Y-286551000D01*
X97608400Y-286551000D02*
X97608400Y-286651000D01*
X97608400Y-286651000D02*
X95608400Y-286651000D01*
X95608400Y-286651000D02*
X95608400Y-286751000D01*
X87608400Y-286551000D02*
X85408400Y-286551000D01*
X87608400Y-286551000D02*
X87608400Y-286651000D01*
X89608400Y-286651000D02*
X87608400Y-286651000D01*
X89608400Y-286651000D02*
X89608400Y-286751000D01*
X85408400Y-286551000D02*
X85408400Y-288751000D01*
X85408400Y-288751000D02*
X85508400Y-288751000D01*
X85508400Y-288751000D02*
X85508400Y-290751000D01*
X85508400Y-290751000D02*
X85608400Y-290751000D01*
X85608400Y-296751000D02*
X85608400Y-290751000D01*
X95608400Y-300751000D02*
X89608400Y-300751000D01*
X99608400Y-290751000D02*
X99608400Y-296751000D01*
X89608400Y-286751000D02*
X95608400Y-286751000D01*
%TO.C,MX14*%
X75959600Y-279675600D02*
X76059600Y-279675600D01*
X76059600Y-277675600D02*
X76059600Y-279675600D01*
X76059600Y-277675600D02*
X76159600Y-277675600D01*
X75959600Y-279675600D02*
X75959600Y-281875600D01*
X78159600Y-281875600D02*
X75959600Y-281875600D01*
X80159600Y-281775600D02*
X78159600Y-281775600D01*
X78159600Y-281775600D02*
X78159600Y-281875600D01*
X80159600Y-281675600D02*
X80159600Y-281775600D01*
X90359600Y-281875600D02*
X88159600Y-281875600D01*
X90359600Y-279675600D02*
X90359600Y-281875600D01*
X90159600Y-277675600D02*
X90259600Y-277675600D01*
X90259600Y-277675600D02*
X90259600Y-279675600D01*
X90259600Y-279675600D02*
X90359600Y-279675600D01*
X88159600Y-281775600D02*
X86159600Y-281775600D01*
X88159600Y-281775600D02*
X88159600Y-281875600D01*
X86159600Y-281675600D02*
X86159600Y-281775600D01*
X90259600Y-269675600D02*
X90359600Y-269675600D01*
X90259600Y-269675600D02*
X90259600Y-271675600D01*
X90159600Y-271675600D02*
X90259600Y-271675600D01*
X90359600Y-267475600D02*
X90359600Y-269675600D01*
X90359600Y-267475600D02*
X88159600Y-267475600D01*
X88159600Y-267475600D02*
X88159600Y-267575600D01*
X88159600Y-267575600D02*
X86159600Y-267575600D01*
X86159600Y-267575600D02*
X86159600Y-267675600D01*
X78159600Y-267475600D02*
X75959600Y-267475600D01*
X78159600Y-267475600D02*
X78159600Y-267575600D01*
X80159600Y-267575600D02*
X78159600Y-267575600D01*
X80159600Y-267575600D02*
X80159600Y-267675600D01*
X75959600Y-267475600D02*
X75959600Y-269675600D01*
X75959600Y-269675600D02*
X76059600Y-269675600D01*
X76059600Y-269675600D02*
X76059600Y-271675600D01*
X76059600Y-271675600D02*
X76159600Y-271675600D01*
X76159600Y-277675600D02*
X76159600Y-271675600D01*
X86159600Y-281675600D02*
X80159600Y-281675600D01*
X90159600Y-271675600D02*
X90159600Y-277675600D01*
X80159600Y-267675600D02*
X86159600Y-267675600D01*
%TO.C,MX11*%
X61583200Y-336876400D02*
X61683200Y-336876400D01*
X61683200Y-334876400D02*
X61683200Y-336876400D01*
X61683200Y-334876400D02*
X61783200Y-334876400D01*
X61583200Y-336876400D02*
X61583200Y-339076400D01*
X63783200Y-339076400D02*
X61583200Y-339076400D01*
X65783200Y-338976400D02*
X63783200Y-338976400D01*
X63783200Y-338976400D02*
X63783200Y-339076400D01*
X65783200Y-338876400D02*
X65783200Y-338976400D01*
X75983200Y-339076400D02*
X73783200Y-339076400D01*
X75983200Y-336876400D02*
X75983200Y-339076400D01*
X75783200Y-334876400D02*
X75883200Y-334876400D01*
X75883200Y-334876400D02*
X75883200Y-336876400D01*
X75883200Y-336876400D02*
X75983200Y-336876400D01*
X73783200Y-338976400D02*
X71783200Y-338976400D01*
X73783200Y-338976400D02*
X73783200Y-339076400D01*
X71783200Y-338876400D02*
X71783200Y-338976400D01*
X75883200Y-326876400D02*
X75983200Y-326876400D01*
X75883200Y-326876400D02*
X75883200Y-328876400D01*
X75783200Y-328876400D02*
X75883200Y-328876400D01*
X75983200Y-324676400D02*
X75983200Y-326876400D01*
X75983200Y-324676400D02*
X73783200Y-324676400D01*
X73783200Y-324676400D02*
X73783200Y-324776400D01*
X73783200Y-324776400D02*
X71783200Y-324776400D01*
X71783200Y-324776400D02*
X71783200Y-324876400D01*
X63783200Y-324676400D02*
X61583200Y-324676400D01*
X63783200Y-324676400D02*
X63783200Y-324776400D01*
X65783200Y-324776400D02*
X63783200Y-324776400D01*
X65783200Y-324776400D02*
X65783200Y-324876400D01*
X61583200Y-324676400D02*
X61583200Y-326876400D01*
X61583200Y-326876400D02*
X61683200Y-326876400D01*
X61683200Y-326876400D02*
X61683200Y-328876400D01*
X61683200Y-328876400D02*
X61783200Y-328876400D01*
X61783200Y-334876400D02*
X61783200Y-328876400D01*
X71783200Y-338876400D02*
X65783200Y-338876400D01*
X75783200Y-328876400D02*
X75783200Y-334876400D01*
X65783200Y-324876400D02*
X71783200Y-324876400D01*
%TO.C,MX10*%
X52062400Y-317797200D02*
X52162400Y-317797200D01*
X52162400Y-315797200D02*
X52162400Y-317797200D01*
X52162400Y-315797200D02*
X52262400Y-315797200D01*
X52062400Y-317797200D02*
X52062400Y-319997200D01*
X54262400Y-319997200D02*
X52062400Y-319997200D01*
X56262400Y-319897200D02*
X54262400Y-319897200D01*
X54262400Y-319897200D02*
X54262400Y-319997200D01*
X56262400Y-319797200D02*
X56262400Y-319897200D01*
X66462400Y-319997200D02*
X64262400Y-319997200D01*
X66462400Y-317797200D02*
X66462400Y-319997200D01*
X66262400Y-315797200D02*
X66362400Y-315797200D01*
X66362400Y-315797200D02*
X66362400Y-317797200D01*
X66362400Y-317797200D02*
X66462400Y-317797200D01*
X64262400Y-319897200D02*
X62262400Y-319897200D01*
X64262400Y-319897200D02*
X64262400Y-319997200D01*
X62262400Y-319797200D02*
X62262400Y-319897200D01*
X66362400Y-307797200D02*
X66462400Y-307797200D01*
X66362400Y-307797200D02*
X66362400Y-309797200D01*
X66262400Y-309797200D02*
X66362400Y-309797200D01*
X66462400Y-305597200D02*
X66462400Y-307797200D01*
X66462400Y-305597200D02*
X64262400Y-305597200D01*
X64262400Y-305597200D02*
X64262400Y-305697200D01*
X64262400Y-305697200D02*
X62262400Y-305697200D01*
X62262400Y-305697200D02*
X62262400Y-305797200D01*
X54262400Y-305597200D02*
X52062400Y-305597200D01*
X54262400Y-305597200D02*
X54262400Y-305697200D01*
X56262400Y-305697200D02*
X54262400Y-305697200D01*
X56262400Y-305697200D02*
X56262400Y-305797200D01*
X52062400Y-305597200D02*
X52062400Y-307797200D01*
X52062400Y-307797200D02*
X52162400Y-307797200D01*
X52162400Y-307797200D02*
X52162400Y-309797200D01*
X52162400Y-309797200D02*
X52262400Y-309797200D01*
X52262400Y-315797200D02*
X52262400Y-309797200D01*
X62262400Y-319797200D02*
X56262400Y-319797200D01*
X66262400Y-309797200D02*
X66262400Y-315797200D01*
X56262400Y-305797200D02*
X62262400Y-305797200D01*
%TO.C,MX9*%
X66337200Y-298747200D02*
X66437200Y-298747200D01*
X66437200Y-296747200D02*
X66437200Y-298747200D01*
X66437200Y-296747200D02*
X66537200Y-296747200D01*
X66337200Y-298747200D02*
X66337200Y-300947200D01*
X68537200Y-300947200D02*
X66337200Y-300947200D01*
X70537200Y-300847200D02*
X68537200Y-300847200D01*
X68537200Y-300847200D02*
X68537200Y-300947200D01*
X70537200Y-300747200D02*
X70537200Y-300847200D01*
X80737200Y-300947200D02*
X78537200Y-300947200D01*
X80737200Y-298747200D02*
X80737200Y-300947200D01*
X80537200Y-296747200D02*
X80637200Y-296747200D01*
X80637200Y-296747200D02*
X80637200Y-298747200D01*
X80637200Y-298747200D02*
X80737200Y-298747200D01*
X78537200Y-300847200D02*
X76537200Y-300847200D01*
X78537200Y-300847200D02*
X78537200Y-300947200D01*
X76537200Y-300747200D02*
X76537200Y-300847200D01*
X80637200Y-288747200D02*
X80737200Y-288747200D01*
X80637200Y-288747200D02*
X80637200Y-290747200D01*
X80537200Y-290747200D02*
X80637200Y-290747200D01*
X80737200Y-286547200D02*
X80737200Y-288747200D01*
X80737200Y-286547200D02*
X78537200Y-286547200D01*
X78537200Y-286547200D02*
X78537200Y-286647200D01*
X78537200Y-286647200D02*
X76537200Y-286647200D01*
X76537200Y-286647200D02*
X76537200Y-286747200D01*
X68537200Y-286547200D02*
X66337200Y-286547200D01*
X68537200Y-286547200D02*
X68537200Y-286647200D01*
X70537200Y-286647200D02*
X68537200Y-286647200D01*
X70537200Y-286647200D02*
X70537200Y-286747200D01*
X66337200Y-286547200D02*
X66337200Y-288747200D01*
X66337200Y-288747200D02*
X66437200Y-288747200D01*
X66437200Y-288747200D02*
X66437200Y-290747200D01*
X66437200Y-290747200D02*
X66537200Y-290747200D01*
X66537200Y-296747200D02*
X66537200Y-290747200D01*
X76537200Y-300747200D02*
X70537200Y-300747200D01*
X80537200Y-290747200D02*
X80537200Y-296747200D01*
X70537200Y-286747200D02*
X76537200Y-286747200D01*
%TO.C,MX8*%
X56909600Y-279675600D02*
X57009600Y-279675600D01*
X57009600Y-277675600D02*
X57009600Y-279675600D01*
X57009600Y-277675600D02*
X57109600Y-277675600D01*
X56909600Y-279675600D02*
X56909600Y-281875600D01*
X59109600Y-281875600D02*
X56909600Y-281875600D01*
X61109600Y-281775600D02*
X59109600Y-281775600D01*
X59109600Y-281775600D02*
X59109600Y-281875600D01*
X61109600Y-281675600D02*
X61109600Y-281775600D01*
X71309600Y-281875600D02*
X69109600Y-281875600D01*
X71309600Y-279675600D02*
X71309600Y-281875600D01*
X71109600Y-277675600D02*
X71209600Y-277675600D01*
X71209600Y-277675600D02*
X71209600Y-279675600D01*
X71209600Y-279675600D02*
X71309600Y-279675600D01*
X69109600Y-281775600D02*
X67109600Y-281775600D01*
X69109600Y-281775600D02*
X69109600Y-281875600D01*
X67109600Y-281675600D02*
X67109600Y-281775600D01*
X71209600Y-269675600D02*
X71309600Y-269675600D01*
X71209600Y-269675600D02*
X71209600Y-271675600D01*
X71109600Y-271675600D02*
X71209600Y-271675600D01*
X71309600Y-267475600D02*
X71309600Y-269675600D01*
X71309600Y-267475600D02*
X69109600Y-267475600D01*
X69109600Y-267475600D02*
X69109600Y-267575600D01*
X69109600Y-267575600D02*
X67109600Y-267575600D01*
X67109600Y-267575600D02*
X67109600Y-267675600D01*
X59109600Y-267475600D02*
X56909600Y-267475600D01*
X59109600Y-267475600D02*
X59109600Y-267575600D01*
X61109600Y-267575600D02*
X59109600Y-267575600D01*
X61109600Y-267575600D02*
X61109600Y-267675600D01*
X56909600Y-267475600D02*
X56909600Y-269675600D01*
X56909600Y-269675600D02*
X57009600Y-269675600D01*
X57009600Y-269675600D02*
X57009600Y-271675600D01*
X57009600Y-271675600D02*
X57109600Y-271675600D01*
X57109600Y-277675600D02*
X57109600Y-271675600D01*
X67109600Y-281675600D02*
X61109600Y-281675600D01*
X71109600Y-271675600D02*
X71109600Y-277675600D01*
X61109600Y-267675600D02*
X67109600Y-267675600D01*
%TO.C,MX1*%
X28258400Y-251227600D02*
X28358400Y-251227600D01*
X28358400Y-249227600D02*
X28358400Y-251227600D01*
X28358400Y-249227600D02*
X28458400Y-249227600D01*
X28258400Y-251227600D02*
X28258400Y-253427600D01*
X30458400Y-253427600D02*
X28258400Y-253427600D01*
X32458400Y-253327600D02*
X30458400Y-253327600D01*
X30458400Y-253327600D02*
X30458400Y-253427600D01*
X32458400Y-253227600D02*
X32458400Y-253327600D01*
X42658400Y-253427600D02*
X40458400Y-253427600D01*
X42658400Y-251227600D02*
X42658400Y-253427600D01*
X42458400Y-249227600D02*
X42558400Y-249227600D01*
X42558400Y-249227600D02*
X42558400Y-251227600D01*
X42558400Y-251227600D02*
X42658400Y-251227600D01*
X40458400Y-253327600D02*
X38458400Y-253327600D01*
X40458400Y-253327600D02*
X40458400Y-253427600D01*
X38458400Y-253227600D02*
X38458400Y-253327600D01*
X42558400Y-241227600D02*
X42658400Y-241227600D01*
X42558400Y-241227600D02*
X42558400Y-243227600D01*
X42458400Y-243227600D02*
X42558400Y-243227600D01*
X42658400Y-239027600D02*
X42658400Y-241227600D01*
X42658400Y-239027600D02*
X40458400Y-239027600D01*
X40458400Y-239027600D02*
X40458400Y-239127600D01*
X40458400Y-239127600D02*
X38458400Y-239127600D01*
X38458400Y-239127600D02*
X38458400Y-239227600D01*
X30458400Y-239027600D02*
X28258400Y-239027600D01*
X30458400Y-239027600D02*
X30458400Y-239127600D01*
X32458400Y-239127600D02*
X30458400Y-239127600D01*
X32458400Y-239127600D02*
X32458400Y-239227600D01*
X28258400Y-239027600D02*
X28258400Y-241227600D01*
X28258400Y-241227600D02*
X28358400Y-241227600D01*
X28358400Y-241227600D02*
X28358400Y-243227600D01*
X28358400Y-243227600D02*
X28458400Y-243227600D01*
X28458400Y-249227600D02*
X28458400Y-243227600D01*
X38458400Y-253227600D02*
X32458400Y-253227600D01*
X42458400Y-243227600D02*
X42458400Y-249227600D01*
X32458400Y-239227600D02*
X38458400Y-239227600D01*
%TD*%
D12*
%TO.C,J1*%
X298610000Y-264320000D03*
X298610000Y-259240000D03*
X295300000Y-261780000D03*
X295300000Y-256700000D03*
%TD*%
D13*
%TO.C,H4*%
X392450000Y-293850000D03*
%TD*%
%TO.C,H3*%
X49750000Y-246150000D03*
%TD*%
D14*
%TO.C,D15*%
X324514000Y-329718000D03*
X326214000Y-329718000D03*
X327914000Y-329718000D03*
X327914000Y-334518000D03*
X326214000Y-334518000D03*
X324514000Y-334518000D03*
%TD*%
D15*
%TO.C,D14*%
X357124000Y-352552000D03*
X357124000Y-350852000D03*
X357124000Y-349152000D03*
X361924000Y-349152000D03*
X361924000Y-350852000D03*
X361924000Y-352552000D03*
%TD*%
D14*
%TO.C,D13*%
X394208000Y-334378000D03*
X392508000Y-334378000D03*
X390808000Y-334378000D03*
X390808000Y-329578000D03*
X392508000Y-329578000D03*
X394208000Y-329578000D03*
%TD*%
%TO.C,D12*%
X386500000Y-294750000D03*
X384800000Y-294750000D03*
X383100000Y-294750000D03*
X383100000Y-289950000D03*
X384800000Y-289950000D03*
X386500000Y-289950000D03*
%TD*%
D15*
%TO.C,D11*%
X361810000Y-290400000D03*
X361810000Y-292100000D03*
X361810000Y-293800000D03*
X357010000Y-293800000D03*
X357010000Y-292100000D03*
X357010000Y-290400000D03*
%TD*%
D14*
%TO.C,D10*%
X327660000Y-294360000D03*
X325960000Y-294360000D03*
X324260000Y-294360000D03*
X324260000Y-289560000D03*
X325960000Y-289560000D03*
X327660000Y-289560000D03*
%TD*%
%TO.C,D9*%
X327660000Y-272770000D03*
X325960000Y-272770000D03*
X324260000Y-272770000D03*
X324260000Y-267970000D03*
X325960000Y-267970000D03*
X327660000Y-267970000D03*
%TD*%
D15*
%TO.C,D8*%
X33300000Y-261620000D03*
X33300000Y-259920000D03*
X33300000Y-258220000D03*
X38100000Y-258220000D03*
X38100000Y-259920000D03*
X38100000Y-261620000D03*
%TD*%
%TO.C,D7*%
X69990000Y-261620000D03*
X69990000Y-259920000D03*
X69990000Y-258220000D03*
X74790000Y-258220000D03*
X74790000Y-259920000D03*
X74790000Y-261620000D03*
%TD*%
%TO.C,D6*%
X103150000Y-261620000D03*
X103150000Y-259920000D03*
X103150000Y-258220000D03*
X107950000Y-258220000D03*
X107950000Y-259920000D03*
X107950000Y-261620000D03*
%TD*%
%TO.C,D5*%
X141250000Y-261846800D03*
X141250000Y-260146800D03*
X141250000Y-258446800D03*
X146050000Y-258446800D03*
X146050000Y-260146800D03*
X146050000Y-261846800D03*
%TD*%
%TO.C,D4*%
X176670000Y-261772400D03*
X176670000Y-260072400D03*
X176670000Y-258372400D03*
X181470000Y-258372400D03*
X181470000Y-260072400D03*
X181470000Y-261772400D03*
%TD*%
%TO.C,D3*%
X212090000Y-261819600D03*
X212090000Y-260119600D03*
X212090000Y-258419600D03*
X216890000Y-258419600D03*
X216890000Y-260119600D03*
X216890000Y-261819600D03*
%TD*%
%TO.C,D2*%
X246520000Y-261823200D03*
X246520000Y-260123200D03*
X246520000Y-258423200D03*
X251320000Y-258423200D03*
X251320000Y-260123200D03*
X251320000Y-261823200D03*
%TD*%
%TO.C,D1*%
X275996400Y-261819600D03*
X275996400Y-260119600D03*
X275996400Y-258419600D03*
X280796400Y-258419600D03*
X280796400Y-260119600D03*
X280796400Y-261819600D03*
%TD*%
D16*
%TO.C,H2*%
X68834000Y-306705000D03*
%TD*%
%TO.C,H1*%
X64135000Y-303530000D03*
%TD*%
M02*
