solid CheckMateKBCase_1
facet normal -2.9837740405124813e-16 0.15643446504023073 -0.9876883405951379
  outer loop
    vertex 34.12207373064909 98.05061094742773 31.32504798829637
    vertex 34.122073730649106 96.9513909687893 31.150948647186183
    vertex 34.0488142571706 97.50100095810852 31.237998317741287
  endloop
endfacet
facet normal -2.9837740405124813e-16 0.15643446504023073 -0.9876883405951379
  outer loop
    vertex 34.122073730649106 96.9513909687893 31.150948647186183
    vertex 34.12207373064909 98.05061094742773 31.32504798829637
    vertex 34.336859639034074 98.56276592424828 31.40616536765953
  endloop
endfacet
facet normal -2.9837740405124813e-16 0.15643446504023073 -0.9876883405951379
  outer loop
    vertex 34.122073730649106 96.9513909687893 31.150948647186183
    vertex 34.336859639034074 98.56276592424828 31.40616536765953
    vertex 34.248814257170594 97.5010009581085 31.237998317741276
  endloop
endfacet
facet normal -2.9837740405124813e-16 0.15643446504023073 -0.9876883405951379
  outer loop
    vertex 34.248814257170594 97.5010009581085 31.237998317741276
    vertex 34.336859639034074 98.56276592424828 31.40616536765953
    vertex 34.315258895906915 97.99948443679334 31.316950344523796
  endloop
endfacet
facet normal -2.9837740405124813e-16 0.15643446504023073 -0.9876883405951379
  outer loop
    vertex 34.315258895906915 97.99948443679334 31.316950344523796
    vertex 34.336859639034074 98.56276592424828 31.40616536765953
    vertex 34.510064719790954 98.46399709018876 31.390521921155493
  endloop
endfacet
facet normal -2.9837740405124813e-16 0.15643446504023073 -0.9876883405951379
  outer loop
    vertex 34.510064719790954 98.46399709018876 31.390521921155493
    vertex 34.336859639034074 98.56276592424828 31.40616536765953
    vertex 34.67853467761954 99.00256337327599 31.475822440479945
  endloop
endfacet
facet normal -2.9837740405124813e-16 0.15643446504023073 -0.9876883405951379
  outer loop
    vertex 34.510064719790954 98.46399709018876 31.390521921155493
    vertex 34.67853467761954 99.00256337327599 31.475822440479945
    vertex 34.81995603385684 98.86288314860921 31.45369926627169
  endloop
endfacet
facet normal -2.9837740405124813e-16 0.15643446504023073 -0.9876883405951379
  outer loop
    vertex 34.81995603385684 98.86288314860921 31.45369926627169
    vertex 34.67853467761954 99.00256337327599 31.475822440479945
    vertex 35.123814257170615 99.34003182515926 31.52927219235865
  endloop
endfacet
facet normal -2.9837740405124813e-16 0.15643446504023073 -0.9876883405951379
  outer loop
    vertex 34.81995603385684 98.86288314860921 31.45369926627169
    vertex 35.123814257170615 99.34003182515926 31.52927219235865
    vertex 35.22381425717061 99.16895918636378 31.50217694820819
  endloop
endfacet
facet normal -2.9837740405124813e-16 0.15643446504023073 -0.9876883405951379
  outer loop
    vertex 35.22381425717061 99.16895918636378 31.50217694820819
    vertex 35.123814257170615 99.34003182515926 31.52927219235865
    vertex 35.64235331020019 99.5521733625952 31.56287211103504
  endloop
endfacet
facet normal -2.9837740405124813e-16 0.15643446504023073 -0.9876883405951379
  outer loop
    vertex 35.22381425717061 99.16895918636378 31.50217694820819
    vertex 35.64235331020019 99.5521733625952 31.56287211103504
    vertex 35.69411711922069 99.36136662729409 31.53265129305422
  endloop
endfacet
facet normal -2.9837740405124813e-16 0.15643446504023073 -0.9876883405951379
  outer loop
    vertex 35.69411711922069 99.36136662729409 31.53265129305422
    vertex 35.64235331020019 99.5521733625952 31.56287211103504
    vertex 36.19881425717062 99.62453089038806 31.57433241757779
  endloop
endfacet
facet normal -2.9837740405124813e-16 0.15643446504023073 -0.9876883405951379
  outer loop
    vertex 35.69411711922069 99.36136662729409 31.53265129305422
    vertex 36.19881425717062 99.62453089038806 31.57433241757779
    vertex 36.19881425717061 99.42699322226899 31.543045524569727
  endloop
endfacet
facet normal -2.9837740405124813e-16 0.15643446504023073 -0.9876883405951379
  outer loop
    vertex 36.19881425717061 99.42699322226899 31.543045524569727
    vertex 36.19881425717062 99.62453089038806 31.57433241757779
    vertex 36.70351139512053 99.36136662729409 31.53265129305422
  endloop
endfacet
facet normal -2.9837740405124813e-16 0.15643446504023073 -0.9876883405951379
  outer loop
    vertex 36.70351139512053 99.36136662729409 31.53265129305422
    vertex 36.19881425717062 99.62453089038806 31.57433241757779
    vertex 36.75527520414104 99.5521733625952 31.56287211103505
  endloop
endfacet
facet normal -2.9837740405124813e-16 0.15643446504023073 -0.9876883405951379
  outer loop
    vertex 36.70351139512053 99.36136662729409 31.53265129305422
    vertex 36.75527520414104 99.5521733625952 31.56287211103505
    vertex 37.17381425717061 99.1689591863638 31.50217694820819
  endloop
endfacet
facet normal -2.9837740405124813e-16 0.15643446504023073 -0.9876883405951379
  outer loop
    vertex 37.17381425717061 99.1689591863638 31.50217694820819
    vertex 36.75527520414104 99.5521733625952 31.56287211103505
    vertex 37.27381425717062 99.34003182515927 31.529272192358658
  endloop
endfacet
facet normal -2.9837740405124813e-16 0.15643446504023073 -0.9876883405951379
  outer loop
    vertex 37.17381425717061 99.1689591863638 31.50217694820819
    vertex 37.27381425717062 99.34003182515927 31.529272192358658
    vertex 37.57767248048438 98.86288314860921 31.45369926627168
  endloop
endfacet
facet normal -2.9837740405124813e-16 0.15643446504023073 -0.9876883405951379
  outer loop
    vertex 37.57767248048438 98.86288314860921 31.45369926627168
    vertex 37.27381425717062 99.34003182515927 31.529272192358658
    vertex 37.71909383672169 99.00256337327599 31.475822440479938
  endloop
endfacet
facet normal -2.9837740405124813e-16 0.15643446504023073 -0.9876883405951379
  outer loop
    vertex 37.57767248048438 98.86288314860921 31.45369926627168
    vertex 37.71909383672169 99.00256337327599 31.475822440479938
    vertex 37.88756379455026 98.46399709018873 31.39052192115549
  endloop
endfacet
facet normal -2.9837740405124813e-16 0.15643446504023073 -0.9876883405951379
  outer loop
    vertex 37.88756379455026 98.46399709018873 31.39052192115549
    vertex 37.71909383672169 99.00256337327599 31.475822440479938
    vertex 38.060768875307154 98.56276592424827 31.406165367659526
  endloop
endfacet
facet normal -2.9837740405124813e-16 0.15643446504023073 -0.9876883405951379
  outer loop
    vertex 37.88756379455026 98.46399709018873 31.39052192115549
    vertex 38.060768875307154 98.56276592424827 31.406165367659526
    vertex 38.08236961843428 97.99948443679331 31.316950344523796
  endloop
endfacet
facet normal -2.9837740405124813e-16 0.15643446504023073 -0.9876883405951379
  outer loop
    vertex 38.08236961843428 97.99948443679331 31.316950344523796
    vertex 38.060768875307154 98.56276592424827 31.406165367659526
    vertex 38.27555478369209 98.05061094742773 31.325047988296376
  endloop
endfacet
facet normal -2.9837740405124813e-16 0.15643446504023073 -0.9876883405951379
  outer loop
    vertex 38.08236961843428 97.99948443679331 31.316950344523796
    vertex 38.27555478369209 98.05061094742773 31.325047988296376
    vertex 38.1488142571706 97.50100095810848 31.237998317741273
  endloop
endfacet
facet normal -2.9837740405124813e-16 0.15643446504023073 -0.9876883405951379
  outer loop
    vertex 34.248814257170594 97.5010009581085 31.237998317741276
    vertex 34.33685963903407 96.43923599196874 31.069831267823044
    vertex 34.122073730649106 96.9513909687893 31.150948647186183
  endloop
endfacet
facet normal -2.9837740405124813e-16 0.15643446504023073 -0.9876883405951379
  outer loop
    vertex 34.33685963903407 96.43923599196874 31.069831267823044
    vertex 34.248814257170594 97.5010009581085 31.237998317741276
    vertex 34.315258895906915 97.00251747942363 31.159046290958745
  endloop
endfacet
facet normal -2.9837740405124813e-16 0.15643446504023073 -0.9876883405951379
  outer loop
    vertex 34.33685963903407 96.43923599196874 31.069831267823044
    vertex 34.315258895906915 97.00251747942363 31.159046290958745
    vertex 34.51006471979094 96.53800482602823 31.08547471432704
  endloop
endfacet
facet normal -2.9837740405124813e-16 0.15643446504023073 -0.9876883405951379
  outer loop
    vertex 34.33685963903407 96.43923599196874 31.069831267823044
    vertex 34.51006471979094 96.53800482602823 31.08547471432704
    vertex 34.67853467761954 95.99943854294105 31.000174195002632
  endloop
endfacet
facet normal -2.9837740405124813e-16 0.15643446504023073 -0.9876883405951379
  outer loop
    vertex 34.67853467761954 95.99943854294105 31.000174195002632
    vertex 34.51006471979094 96.53800482602823 31.08547471432704
    vertex 34.819956033856826 96.13911876760773 31.02229736921085
  endloop
endfacet
facet normal -2.9837740405124813e-16 0.15643446504023073 -0.9876883405951379
  outer loop
    vertex 34.67853467761954 95.99943854294105 31.000174195002632
    vertex 34.819956033856826 96.13911876760773 31.02229736921085
    vertex 35.12381425717061 95.66197009105775 30.9467244431239
  endloop
endfacet
facet normal -2.9837740405124813e-16 0.15643446504023073 -0.9876883405951379
  outer loop
    vertex 35.12381425717061 95.66197009105775 30.9467244431239
    vertex 34.819956033856826 96.13911876760773 31.02229736921085
    vertex 35.223814257170595 95.83304272985313 30.973819687274343
  endloop
endfacet
facet normal -2.9837740405124813e-16 0.15643446504023073 -0.9876883405951379
  outer loop
    vertex 35.12381425717061 95.66197009105775 30.9467244431239
    vertex 35.223814257170595 95.83304272985313 30.973819687274343
    vertex 35.64235331020021 95.44982855362183 30.91312452444753
  endloop
endfacet
facet normal -2.9837740405124813e-16 0.15643446504023073 -0.9876883405951379
  outer loop
    vertex 35.64235331020021 95.44982855362183 30.91312452444753
    vertex 35.223814257170595 95.83304272985313 30.973819687274343
    vertex 35.69411711922069 95.64063528892285 30.943345342428323
  endloop
endfacet
facet normal -2.9837740405124813e-16 0.15643446504023073 -0.9876883405951379
  outer loop
    vertex 35.64235331020021 95.44982855362183 30.91312452444753
    vertex 35.69411711922069 95.64063528892285 30.943345342428323
    vertex 36.19881425717062 95.37747102582897 30.9016642179048
  endloop
endfacet
facet normal -2.9837740405124813e-16 0.15643446504023073 -0.9876883405951379
  outer loop
    vertex 36.19881425717062 95.37747102582897 30.9016642179048
    vertex 35.69411711922069 95.64063528892285 30.943345342428323
    vertex 36.19881425717061 95.57500869394794 30.932951110912814
  endloop
endfacet
facet normal -2.9837740405124813e-16 0.15643446504023073 -0.9876883405951379
  outer loop
    vertex 36.19881425717062 95.37747102582897 30.9016642179048
    vertex 36.19881425717061 95.57500869394794 30.932951110912814
    vertex 36.703511395120515 95.64063528892285 30.943345342428323
  endloop
endfacet
facet normal -2.9837740405124813e-16 0.15643446504023073 -0.9876883405951379
  outer loop
    vertex 36.19881425717062 95.37747102582897 30.9016642179048
    vertex 36.703511395120515 95.64063528892285 30.943345342428323
    vertex 36.75527520414104 95.44982855362184 30.91312452444752
  endloop
endfacet
facet normal -2.9837740405124813e-16 0.15643446504023073 -0.9876883405951379
  outer loop
    vertex 36.75527520414104 95.44982855362184 30.91312452444752
    vertex 36.703511395120515 95.64063528892285 30.943345342428323
    vertex 37.1738142571706 95.83304272985315 30.973819687274343
  endloop
endfacet
facet normal -2.9837740405124813e-16 0.15643446504023073 -0.9876883405951379
  outer loop
    vertex 36.75527520414104 95.44982855362184 30.91312452444752
    vertex 37.1738142571706 95.83304272985315 30.973819687274343
    vertex 37.27381425717062 95.66197009105774 30.9467244431239
  endloop
endfacet
facet normal -2.9837740405124813e-16 0.15643446504023073 -0.9876883405951379
  outer loop
    vertex 37.27381425717062 95.66197009105774 30.9467244431239
    vertex 37.1738142571706 95.83304272985315 30.973819687274343
    vertex 37.57767248048437 96.13911876760774 31.02229736921086
  endloop
endfacet
facet normal -2.9837740405124813e-16 0.15643446504023073 -0.9876883405951379
  outer loop
    vertex 37.27381425717062 95.66197009105774 30.9467244431239
    vertex 37.57767248048437 96.13911876760774 31.02229736921086
    vertex 37.71909383672168 95.99943854294104 31.000174195002614
  endloop
endfacet
facet normal -2.9837740405124813e-16 0.15643446504023073 -0.9876883405951379
  outer loop
    vertex 37.71909383672168 95.99943854294104 31.000174195002614
    vertex 37.57767248048437 96.13911876760774 31.02229736921086
    vertex 37.88756379455025 96.53800482602819 31.08547471432704
  endloop
endfacet
facet normal -2.9837740405124813e-16 0.15643446504023073 -0.9876883405951379
  outer loop
    vertex 37.71909383672168 95.99943854294104 31.000174195002614
    vertex 37.88756379455025 96.53800482602819 31.08547471432704
    vertex 38.06076887530715 96.43923599196872 31.06983126782303
  endloop
endfacet
facet normal -2.9837740405124813e-16 0.15643446504023073 -0.9876883405951379
  outer loop
    vertex 38.06076887530715 96.43923599196872 31.06983126782303
    vertex 37.88756379455025 96.53800482602819 31.08547471432704
    vertex 38.08236961843428 97.0025174794236 31.159046290958745
  endloop
endfacet
facet normal -2.9837740405124813e-16 0.15643446504023073 -0.9876883405951379
  outer loop
    vertex 38.06076887530715 96.43923599196872 31.06983126782303
    vertex 38.08236961843428 97.0025174794236 31.159046290958745
    vertex 38.275554783692094 96.95139096878927 31.150948647186176
  endloop
endfacet
facet normal -2.9837740405124813e-16 0.15643446504023073 -0.9876883405951379
  outer loop
    vertex 38.275554783692094 96.95139096878927 31.150948647186176
    vertex 38.08236961843428 97.0025174794236 31.159046290958745
    vertex 38.1488142571706 97.50100095810848 31.237998317741273
  endloop
endfacet
facet normal -2.9837740405124813e-16 0.15643446504023073 -0.9876883405951379
  outer loop
    vertex 38.275554783692094 96.95139096878927 31.150948647186176
    vertex 38.1488142571706 97.50100095810848 31.237998317741273
    vertex 38.27555478369209 98.05061094742773 31.325047988296376
  endloop
endfacet
facet normal -2.9837740405124813e-16 0.15643446504023073 -0.9876883405951379
  outer loop
    vertex 38.275554783692094 96.95139096878927 31.150948647186176
    vertex 38.27555478369209 98.05061094742773 31.325047988296376
    vertex 38.3488142571706 97.50100095810849 31.237998317741276
  endloop
endfacet
facet normal -0.0007356499949331169 0.9876564914373308 0.15663369286582843
  outer loop
    vertex 32.59733321328209 111.11844861875315 40.78641043610133
    vertex 39.79769349784915 112.65785149763386 31.108045029837267
    vertex 32.59733390919448 112.65568379175552 31.107726335902044
  endloop
endfacet
facet normal -0.0007356499949331169 0.9876564914373308 0.15663369286582843
  outer loop
    vertex 39.79769349784915 112.65785149763386 31.108045029837267
    vertex 32.59733321328209 111.11844861875315 40.78641043610133
    vertex 39.79769349784914 111.12479374023968 40.78739076766967
  endloop
endfacet
facet normal -0.0007356499949331169 0.9876564914373308 0.15663369286582843
  outer loop
    vertex 39.79769349784914 111.12479374023968 40.78739076766967
    vertex 32.59733321328209 111.11844861875315 40.78641043610133
    vertex 33.197693488771954 110.96193280165616 41.77407356049745
  endloop
endfacet
facet normal -0.0007356499949331169 0.9876564914373308 0.15663369286582843
  outer loop
    vertex 39.79769349784914 111.12479374023968 40.78739076766967
    vertex 33.197693488771954 110.96193280165616 41.77407356049745
    vertex 39.1975491100603 110.96857056248976 41.77374379503571
  endloop
endfacet
facet normal 4.999840804816728e-16 0.15643446504023092 -0.9876883405951379
  outer loop
    vertex 39.797840967377496 112.24223704062275 30.535905006089575
    vertex 32.59833670197047 109.37584559167877 30.081470371056476
    vertex 32.59748137872283 112.2400693347444 30.535586312154354
  endloop
endfacet
facet normal 4.999840804816728e-16 0.15643446504023092 -0.9876883405951379
  outer loop
    vertex 32.59833670197047 109.37584559167877 30.081470371056476
    vertex 39.797840967377496 112.24223704062275 30.535905006089575
    vertex 39.79869629062513 109.37801329755703 30.081789064991696
  endloop
endfacet
facet normal 1.753317567038876e-08 -0.1564660035527294 0.9876833448693144
  outer loop
    vertex 33.19881425717061 92.25184153589404 38.810073684520006
    vertex 39.1975491100603 110.96857056248976 41.77374379503571
    vertex 33.197693488771954 110.96193280165616 41.77407356049745
  endloop
endfacet
facet normal 1.753317567038876e-08 -0.1564660035527294 0.9876833448693144
  outer loop
    vertex 39.1975491100603 110.96857056248976 41.77374379503571
    vertex 33.19881425717061 92.25184153589404 38.810073684520006
    vertex 39.198814257170625 92.25184153589402 38.81007368452002
  endloop
endfacet
facet normal -1.1265755378297668e-06 0.15643446558588553 -0.9876883405080722
  outer loop
    vertex 39.79881426624782 109.30379522328755 33.10736497604925
    vertex 32.5988142571706 106.34081160643498 32.63808677985134
    vertex 32.598453981680755 109.30395798027719 33.10741539117105
  endloop
endfacet
facet normal -1.1265755378297668e-06 0.15643446558588553 -0.9876883405080722
  outer loop
    vertex 32.5988142571706 106.34081160643498 32.63808677985134
    vertex 39.79881426624782 109.30379522328755 33.10736497604925
    vertex 34.336859639034074 98.56276592424828 31.40616536765953
  endloop
endfacet
facet normal -1.1265755378297668e-06 0.15643446558588553 -0.9876883405080722
  outer loop
    vertex 32.5988142571706 106.34081160643498 32.63808677985134
    vertex 34.336859639034074 98.56276592424828 31.40616536765953
    vertex 34.12207373064909 98.05061094742773 31.32504798829637
  endloop
endfacet
facet normal -1.1265755378297668e-06 0.15643446558588553 -0.9876883405080722
  outer loop
    vertex 32.5988142571706 106.34081160643498 32.63808677985134
    vertex 34.12207373064909 98.05061094742773 31.32504798829637
    vertex 32.59881425717062 93.55024759572794 30.61226045758035
  endloop
endfacet
facet normal -1.1265755378297668e-06 0.15643446558588553 -0.9876883405080722
  outer loop
    vertex 32.59881425717062 93.55024759572794 30.61226045758035
    vertex 34.12207373064909 98.05061094742773 31.32504798829637
    vertex 34.0488142571706 97.50100095810852 31.237998317741287
  endloop
endfacet
facet normal -1.1265755378297668e-06 0.15643446558588553 -0.9876883405080722
  outer loop
    vertex 34.336859639034074 98.56276592424828 31.40616536765953
    vertex 39.79881426624782 109.30379522328755 33.10736497604925
    vertex 34.67853467761954 99.00256337327599 31.475822440479945
  endloop
endfacet
facet normal -1.1265755378297668e-06 0.15643446558588553 -0.9876883405080722
  outer loop
    vertex 34.67853467761954 99.00256337327599 31.475822440479945
    vertex 39.79881426624782 109.30379522328755 33.10736497604925
    vertex 35.123814257170615 99.34003182515926 31.52927219235865
  endloop
endfacet
facet normal -1.1265755378297668e-06 0.15643446558588553 -0.9876883405080722
  outer loop
    vertex 35.123814257170615 99.34003182515926 31.52927219235865
    vertex 39.79881426624782 109.30379522328755 33.10736497604925
    vertex 35.64235331020019 99.5521733625952 31.56287211103504
  endloop
endfacet
facet normal -1.1265755378297668e-06 0.15643446558588553 -0.9876883405080722
  outer loop
    vertex 35.64235331020019 99.5521733625952 31.56287211103504
    vertex 39.79881426624782 109.30379522328755 33.10736497604925
    vertex 36.19881425717062 99.62453089038806 31.57433241757779
  endloop
endfacet
facet normal -1.1265755378297668e-06 0.15643446558588553 -0.9876883405080722
  outer loop
    vertex 36.19881425717062 99.62453089038806 31.57433241757779
    vertex 39.79881426624782 109.30379522328755 33.10736497604925
    vertex 36.75527520414104 99.5521733625952 31.56287211103505
  endloop
endfacet
facet normal -1.1265755378297668e-06 0.15643446558588553 -0.9876883405080722
  outer loop
    vertex 36.75527520414104 99.5521733625952 31.56287211103505
    vertex 39.79881426624782 109.30379522328755 33.10736497604925
    vertex 37.27381425717062 99.34003182515927 31.529272192358658
  endloop
endfacet
facet normal -1.1265755378297668e-06 0.15643446558588553 -0.9876883405080722
  outer loop
    vertex 37.27381425717062 99.34003182515927 31.529272192358658
    vertex 39.79881426624782 109.30379522328755 33.10736497604925
    vertex 37.71909383672169 99.00256337327599 31.475822440479938
  endloop
endfacet
facet normal -1.1265755378297668e-06 0.15643446558588553 -0.9876883405080722
  outer loop
    vertex 37.71909383672169 99.00256337327599 31.475822440479938
    vertex 39.79881426624782 109.30379522328755 33.10736497604925
    vertex 38.060768875307154 98.56276592424827 31.406165367659526
  endloop
endfacet
facet normal -1.1265755378297668e-06 0.15643446558588553 -0.9876883405080722
  outer loop
    vertex 38.060768875307154 98.56276592424827 31.406165367659526
    vertex 39.79881426624782 109.30379522328755 33.10736497604925
    vertex 38.27555478369209 98.05061094742773 31.325047988296376
  endloop
endfacet
facet normal -1.1265755378297668e-06 0.15643446558588553 -0.9876883405080722
  outer loop
    vertex 38.27555478369209 98.05061094742773 31.325047988296376
    vertex 39.79881426624782 109.30379522328755 33.10736497604925
    vertex 38.3488142571706 97.50100095810849 31.237998317741276
  endloop
endfacet
facet normal -1.1265755378297668e-06 0.15643446558588553 -0.9876883405080722
  outer loop
    vertex 38.3488142571706 97.50100095810849 31.237998317741276
    vertex 39.79881426624782 109.30379522328755 33.10736497604925
    vertex 39.79881425717062 106.34081160643503 32.638086779851356
  endloop
endfacet
facet normal -1.1265755378297668e-06 0.15643446558588553 -0.9876883405080722
  outer loop
    vertex 32.59881425717062 93.55024759572794 30.61226045758035
    vertex 35.12381425717061 95.66197009105775 30.9467244431239
    vertex 39.798814257170626 93.55024759572794 30.612260457580355
  endloop
endfacet
facet normal -1.1265755378297668e-06 0.15643446558588553 -0.9876883405080722
  outer loop
    vertex 35.12381425717061 95.66197009105775 30.9467244431239
    vertex 32.59881425717062 93.55024759572794 30.61226045758035
    vertex 34.67853467761954 95.99943854294105 31.000174195002632
  endloop
endfacet
facet normal -1.1265755378297668e-06 0.15643446558588553 -0.9876883405080722
  outer loop
    vertex 34.67853467761954 95.99943854294105 31.000174195002632
    vertex 32.59881425717062 93.55024759572794 30.61226045758035
    vertex 34.33685963903407 96.43923599196874 31.069831267823044
  endloop
endfacet
facet normal -1.1265755378297668e-06 0.15643446558588553 -0.9876883405080722
  outer loop
    vertex 34.33685963903407 96.43923599196874 31.069831267823044
    vertex 32.59881425717062 93.55024759572794 30.61226045758035
    vertex 34.122073730649106 96.9513909687893 31.150948647186183
  endloop
endfacet
facet normal -1.1265755378297668e-06 0.15643446558588553 -0.9876883405080722
  outer loop
    vertex 34.122073730649106 96.9513909687893 31.150948647186183
    vertex 32.59881425717062 93.55024759572794 30.61226045758035
    vertex 34.0488142571706 97.50100095810852 31.237998317741287
  endloop
endfacet
facet normal -1.1265755378297668e-06 0.15643446558588553 -0.9876883405080722
  outer loop
    vertex 39.798814257170626 93.55024759572794 30.612260457580355
    vertex 35.12381425717061 95.66197009105775 30.9467244431239
    vertex 35.64235331020021 95.44982855362183 30.91312452444753
  endloop
endfacet
facet normal -1.1265755378297668e-06 0.15643446558588553 -0.9876883405080722
  outer loop
    vertex 39.798814257170626 93.55024759572794 30.612260457580355
    vertex 35.64235331020021 95.44982855362183 30.91312452444753
    vertex 36.19881425717062 95.37747102582897 30.9016642179048
  endloop
endfacet
facet normal -1.1265755378297668e-06 0.15643446558588553 -0.9876883405080722
  outer loop
    vertex 39.798814257170626 93.55024759572794 30.612260457580355
    vertex 36.19881425717062 95.37747102582897 30.9016642179048
    vertex 36.75527520414104 95.44982855362184 30.91312452444752
  endloop
endfacet
facet normal -1.1265755378297668e-06 0.15643446558588553 -0.9876883405080722
  outer loop
    vertex 39.798814257170626 93.55024759572794 30.612260457580355
    vertex 36.75527520414104 95.44982855362184 30.91312452444752
    vertex 37.27381425717062 95.66197009105774 30.9467244431239
  endloop
endfacet
facet normal -1.1265755378297668e-06 0.15643446558588553 -0.9876883405080722
  outer loop
    vertex 39.798814257170626 93.55024759572794 30.612260457580355
    vertex 37.27381425717062 95.66197009105774 30.9467244431239
    vertex 37.71909383672168 95.99943854294104 31.000174195002614
  endloop
endfacet
facet normal -1.1265755378297668e-06 0.15643446558588553 -0.9876883405080722
  outer loop
    vertex 39.798814257170626 93.55024759572794 30.612260457580355
    vertex 37.71909383672168 95.99943854294104 31.000174195002614
    vertex 38.06076887530715 96.43923599196872 31.06983126782303
  endloop
endfacet
facet normal -1.1265755378297668e-06 0.15643446558588553 -0.9876883405080722
  outer loop
    vertex 39.798814257170626 93.55024759572794 30.612260457580355
    vertex 38.06076887530715 96.43923599196872 31.06983126782303
    vertex 38.275554783692094 96.95139096878927 31.150948647186176
  endloop
endfacet
facet normal -1.1265755378297668e-06 0.15643446558588553 -0.9876883405080722
  outer loop
    vertex 39.798814257170626 93.55024759572794 30.612260457580355
    vertex 38.275554783692094 96.95139096878927 31.150948647186176
    vertex 38.3488142571706 97.50100095810849 31.237998317741276
  endloop
endfacet
facet normal -1.1265755378297668e-06 0.15643446558588553 -0.9876883405080722
  outer loop
    vertex 39.798814257170626 93.55024759572794 30.612260457580355
    vertex 38.3488142571706 97.50100095810849 31.237998317741276
    vertex 39.79881425717062 106.34081160643503 32.638086779851356
  endloop
endfacet
facet normal 7.466015672369266e-16 -0.9876883405951379 -0.15643446504023092
  outer loop
    vertex 39.798814257170626 93.55024759572794 30.612260457580355
    vertex 32.598814257170616 92.40827600093428 37.82238534392487
    vertex 32.59881425717062 93.55024759572794 30.61226045758035
  endloop
endfacet
facet normal 7.466015672369266e-16 -0.9876883405951379 -0.15643446504023092
  outer loop
    vertex 32.598814257170616 92.40827600093428 37.82238534392487
    vertex 39.798814257170626 93.55024759572794 30.612260457580355
    vertex 39.798814257170626 92.40827600093424 37.82238534392488
  endloop
endfacet
facet normal 7.466015672369266e-16 -0.9876883405951379 -0.15643446504023092
  outer loop
    vertex 32.598814257170616 92.40827600093428 37.82238534392487
    vertex 39.798814257170626 92.40827600093424 37.82238534392488
    vertex 33.19881425717061 92.25184153589404 38.810073684520006
  endloop
endfacet
facet normal 7.466015672369266e-16 -0.9876883405951379 -0.15643446504023092
  outer loop
    vertex 33.19881425717061 92.25184153589404 38.810073684520006
    vertex 39.798814257170626 92.40827600093424 37.82238534392488
    vertex 39.198814257170625 92.25184153589402 38.81007368452002
  endloop
endfacet
facet normal -2.8076199608269975e-16 0.15643446504023062 -0.9876883405951379
  outer loop
    vertex 34.31525889590692 98.46878783191403 28.353885322738382
    vertex 34.31525889590692 97.47182087454428 28.195981269173313
    vertex 34.2488142571706 97.97030435322914 28.27493329595585
  endloop
endfacet
facet normal -2.8076199608269975e-16 0.15643446504023062 -0.9876883405951379
  outer loop
    vertex 34.31525889590692 97.47182087454428 28.195981269173313
    vertex 34.31525889590692 98.46878783191403 28.353885322738382
    vertex 34.510064719790954 98.93330048530945 28.427456899370082
  endloop
endfacet
facet normal -2.8076199608269975e-16 0.15643446504023062 -0.9876883405951379
  outer loop
    vertex 34.31525889590692 97.47182087454428 28.195981269173313
    vertex 34.510064719790954 98.93330048530945 28.427456899370082
    vertex 34.510064719790954 97.0073082211489 28.122409692541638
  endloop
endfacet
facet normal -2.8076199608269975e-16 0.15643446504023062 -0.9876883405951379
  outer loop
    vertex 34.510064719790954 97.0073082211489 28.122409692541638
    vertex 34.510064719790954 98.93330048530945 28.427456899370082
    vertex 34.81995603385684 99.33218654372992 28.490634244486277
  endloop
endfacet
facet normal -2.8076199608269975e-16 0.15643446504023062 -0.9876883405951379
  outer loop
    vertex 34.510064719790954 97.0073082211489 28.122409692541638
    vertex 34.81995603385684 99.33218654372992 28.490634244486277
    vertex 34.81995603385684 96.60842216272843 28.059232347425436
  endloop
endfacet
facet normal -2.8076199608269975e-16 0.15643446504023062 -0.9876883405951379
  outer loop
    vertex 34.81995603385684 96.60842216272843 28.059232347425436
    vertex 34.81995603385684 99.33218654372992 28.490634244486277
    vertex 35.22381425717061 99.63826258148448 28.53911192642277
  endloop
endfacet
facet normal -2.8076199608269975e-16 0.15643446504023062 -0.9876883405951379
  outer loop
    vertex 34.81995603385684 96.60842216272843 28.059232347425436
    vertex 35.22381425717061 99.63826258148448 28.53911192642277
    vertex 35.2238142571706 96.30234612497385 28.01075466548893
  endloop
endfacet
facet normal -2.8076199608269975e-16 0.15643446504023062 -0.9876883405951379
  outer loop
    vertex 35.2238142571706 96.30234612497385 28.01075466548893
    vertex 35.22381425717061 99.63826258148448 28.53911192642277
    vertex 35.69411711922069 96.10993868404356 27.98028032064292
  endloop
endfacet
facet normal -2.8076199608269975e-16 0.15643446504023062 -0.9876883405951379
  outer loop
    vertex 35.69411711922069 96.10993868404356 27.98028032064292
    vertex 35.22381425717061 99.63826258148448 28.53911192642277
    vertex 35.69411711922069 99.83067002241478 28.5695862712688
  endloop
endfacet
facet normal -2.8076199608269975e-16 0.15643446504023062 -0.9876883405951379
  outer loop
    vertex 35.69411711922069 96.10993868404356 27.98028032064292
    vertex 35.69411711922069 99.83067002241478 28.5695862712688
    vertex 36.19881425717061 96.04431208906864 27.96988608912741
  endloop
endfacet
facet normal -2.8076199608269975e-16 0.15643446504023062 -0.9876883405951379
  outer loop
    vertex 36.19881425717061 96.04431208906864 27.96988608912741
    vertex 35.69411711922069 99.83067002241478 28.5695862712688
    vertex 36.19881425717061 99.89629661738968 28.57998050278431
  endloop
endfacet
facet normal -2.8076199608269975e-16 0.15643446504023062 -0.9876883405951379
  outer loop
    vertex 36.19881425717061 96.04431208906864 27.96988608912741
    vertex 36.19881425717061 99.89629661738968 28.57998050278431
    vertex 36.70351139512053 99.83067002241478 28.5695862712688
  endloop
endfacet
facet normal -2.8076199608269975e-16 0.15643446504023062 -0.9876883405951379
  outer loop
    vertex 36.19881425717061 96.04431208906864 27.96988608912741
    vertex 36.70351139512053 99.83067002241478 28.5695862712688
    vertex 36.70351139512052 96.10993868404356 27.98028032064291
  endloop
endfacet
facet normal -2.8076199608269975e-16 0.15643446504023062 -0.9876883405951379
  outer loop
    vertex 36.70351139512052 96.10993868404356 27.98028032064291
    vertex 36.70351139512053 99.83067002241478 28.5695862712688
    vertex 37.173814257170605 96.30234612497385 28.01075466548893
  endloop
endfacet
facet normal -2.8076199608269975e-16 0.15643446504023062 -0.9876883405951379
  outer loop
    vertex 37.173814257170605 96.30234612497385 28.01075466548893
    vertex 36.70351139512053 99.83067002241478 28.5695862712688
    vertex 37.17381425717061 99.63826258148448 28.539111926422766
  endloop
endfacet
facet normal -2.8076199608269975e-16 0.15643446504023062 -0.9876883405951379
  outer loop
    vertex 37.173814257170605 96.30234612497385 28.01075466548893
    vertex 37.17381425717061 99.63826258148448 28.539111926422766
    vertex 37.57767248048438 96.60842216272843 28.059232347425436
  endloop
endfacet
facet normal -2.8076199608269975e-16 0.15643446504023062 -0.9876883405951379
  outer loop
    vertex 37.57767248048438 96.60842216272843 28.059232347425436
    vertex 37.17381425717061 99.63826258148448 28.539111926422766
    vertex 37.57767248048438 99.33218654372992 28.49063424448627
  endloop
endfacet
facet normal -2.8076199608269975e-16 0.15643446504023062 -0.9876883405951379
  outer loop
    vertex 37.57767248048438 96.60842216272843 28.059232347425436
    vertex 37.57767248048438 99.33218654372992 28.49063424448627
    vertex 37.88756379455026 98.9333004853094 28.42745689937007
  endloop
endfacet
facet normal -2.8076199608269975e-16 0.15643446504023062 -0.9876883405951379
  outer loop
    vertex 37.57767248048438 96.60842216272843 28.059232347425436
    vertex 37.88756379455026 98.9333004853094 28.42745689937007
    vertex 37.88756379455026 97.0073082211489 28.122409692541627
  endloop
endfacet
facet normal -2.8076199608269975e-16 0.15643446504023062 -0.9876883405951379
  outer loop
    vertex 37.88756379455026 97.0073082211489 28.122409692541627
    vertex 37.88756379455026 98.9333004853094 28.42745689937007
    vertex 38.08236961843429 98.46878783191403 28.353885322738382
  endloop
endfacet
facet normal -2.8076199608269975e-16 0.15643446504023062 -0.9876883405951379
  outer loop
    vertex 37.88756379455026 97.0073082211489 28.122409692541627
    vertex 38.08236961843429 98.46878783191403 28.353885322738382
    vertex 38.08236961843429 97.47182087454426 28.195981269173306
  endloop
endfacet
facet normal -2.8076199608269975e-16 0.15643446504023062 -0.9876883405951379
  outer loop
    vertex 38.08236961843429 97.47182087454426 28.195981269173306
    vertex 38.08236961843429 98.46878783191403 28.353885322738382
    vertex 38.148814257170606 97.97030435322914 28.274933295955844
  endloop
endfacet
facet normal -0.1305261922200418 -0.9792385299218764 -0.1550961465058978
  outer loop
    vertex 36.19881425717061 95.57500869394794 30.932951110912814
    vertex 35.69411711922069 96.10993868404356 27.98028032064292
    vertex 36.19881425717061 96.04431208906864 27.96988608912741
  endloop
endfacet
facet normal -0.1305261922200418 -0.9792385299218764 -0.1550961465058978
  outer loop
    vertex 35.69411711922069 96.10993868404356 27.98028032064292
    vertex 36.19881425717061 95.57500869394794 30.932951110912814
    vertex 35.69411711922069 95.64063528892285 30.943345342428323
  endloop
endfacet
facet normal -0.3826834323650989 -0.9125050423758808 -0.1445266004300208
  outer loop
    vertex 35.69411711922069 95.64063528892285 30.943345342428323
    vertex 35.2238142571706 96.30234612497385 28.01075466548893
    vertex 35.69411711922069 96.10993868404356 27.98028032064292
  endloop
endfacet
facet normal -0.3826834323650989 -0.9125050423758808 -0.1445266004300208
  outer loop
    vertex 35.2238142571706 96.30234612497385 28.01075466548893
    vertex 35.69411711922069 95.64063528892285 30.943345342428323
    vertex 35.223814257170595 95.83304272985313 30.973819687274343
  endloop
endfacet
facet normal -0.6087614290087159 -0.7835858441778635 -0.12410780537633981
  outer loop
    vertex 35.223814257170595 95.83304272985313 30.973819687274343
    vertex 34.81995603385684 96.60842216272843 28.059232347425436
    vertex 35.2238142571706 96.30234612497385 28.01075466548893
  endloop
endfacet
facet normal -0.6087614290087159 -0.7835858441778635 -0.12410780537633981
  outer loop
    vertex 34.81995603385684 96.60842216272843 28.059232347425436
    vertex 35.223814257170595 95.83304272985313 30.973819687274343
    vertex 34.819956033856826 96.13911876760773 31.02229736921085
  endloop
endfacet
facet normal -0.7933533402912445 -0.6012665656359362 -0.09523126848410345
  outer loop
    vertex 34.51006471979094 96.53800482602823 31.08547471432704
    vertex 34.81995603385684 96.60842216272843 28.059232347425436
    vertex 34.819956033856826 96.13911876760773 31.02229736921085
  endloop
endfacet
facet normal -0.7933533402912445 -0.6012665656359362 -0.09523126848410345
  outer loop
    vertex 34.81995603385684 96.60842216272843 28.059232347425436
    vertex 34.51006471979094 96.53800482602823 31.08547471432704
    vertex 34.510064719790954 97.0073082211489 28.122409692541638
  endloop
endfacet
facet normal -0.9238795325112849 -0.37797196428593227 -0.05986487802179263
  outer loop
    vertex 34.315258895906915 97.00251747942363 31.159046290958745
    vertex 34.510064719790954 97.0073082211489 28.122409692541638
    vertex 34.51006471979094 96.53800482602823 31.08547471432704
  endloop
endfacet
facet normal -0.9238795325112849 -0.37797196428593227 -0.05986487802179263
  outer loop
    vertex 34.510064719790954 97.0073082211489 28.122409692541638
    vertex 34.315258895906915 97.00251747942363 31.159046290958745
    vertex 34.31525889590692 97.47182087454428 28.195981269173313
  endloop
endfacet
facet normal -0.99144486137381 -0.12891919819802836 -0.020418795053682364
  outer loop
    vertex 34.248814257170594 97.5010009581085 31.237998317741276
    vertex 34.31525889590692 97.47182087454428 28.195981269173313
    vertex 34.315258895906915 97.00251747942363 31.159046290958745
  endloop
endfacet
facet normal -0.99144486137381 -0.12891919819802836 -0.020418795053682364
  outer loop
    vertex 34.31525889590692 97.47182087454428 28.195981269173313
    vertex 34.248814257170594 97.5010009581085 31.237998317741276
    vertex 34.2488142571706 97.97030435322914 28.27493329595585
  endloop
endfacet
facet normal -0.99144486137381 0.1289191981980283 0.02041879505368293
  outer loop
    vertex 34.315258895906915 97.99948443679334 31.316950344523796
    vertex 34.2488142571706 97.97030435322914 28.27493329595585
    vertex 34.248814257170594 97.5010009581085 31.237998317741276
  endloop
endfacet
facet normal -0.99144486137381 0.1289191981980283 0.02041879505368293
  outer loop
    vertex 34.2488142571706 97.97030435322914 28.27493329595585
    vertex 34.315258895906915 97.99948443679334 31.316950344523796
    vertex 34.31525889590692 98.46878783191403 28.353885322738382
  endloop
endfacet
facet normal -0.9238795325112884 0.3779719642859236 0.05986487802179182
  outer loop
    vertex 34.510064719790954 98.46399709018876 31.390521921155493
    vertex 34.31525889590692 98.46878783191403 28.353885322738382
    vertex 34.315258895906915 97.99948443679334 31.316950344523796
  endloop
endfacet
facet normal -0.9238795325112884 0.3779719642859236 0.05986487802179182
  outer loop
    vertex 34.31525889590692 98.46878783191403 28.353885322738382
    vertex 34.510064719790954 98.46399709018876 31.390521921155493
    vertex 34.510064719790954 98.93330048530945 28.427456899370082
  endloop
endfacet
facet normal -0.7933533402912356 0.6012665656359474 0.09523126848410568
  outer loop
    vertex 34.81995603385684 98.86288314860921 31.45369926627169
    vertex 34.510064719790954 98.93330048530945 28.427456899370082
    vertex 34.510064719790954 98.46399709018876 31.390521921155493
  endloop
endfacet
facet normal -0.7933533402912356 0.6012665656359474 0.09523126848410568
  outer loop
    vertex 34.510064719790954 98.93330048530945 28.427456899370082
    vertex 34.81995603385684 98.86288314860921 31.45369926627169
    vertex 34.81995603385684 99.33218654372992 28.490634244486277
  endloop
endfacet
facet normal -0.6087614290087103 0.7835858441778677 0.12410780537634084
  outer loop
    vertex 34.81995603385684 98.86288314860921 31.45369926627169
    vertex 35.22381425717061 99.63826258148448 28.53911192642277
    vertex 34.81995603385684 99.33218654372992 28.490634244486277
  endloop
endfacet
facet normal -0.6087614290087103 0.7835858441778677 0.12410780537634084
  outer loop
    vertex 35.22381425717061 99.63826258148448 28.53911192642277
    vertex 34.81995603385684 98.86288314860921 31.45369926627169
    vertex 35.22381425717061 99.16895918636378 31.50217694820819
  endloop
endfacet
facet normal -0.38268343236509855 0.912505042375881 0.1445266004300211
  outer loop
    vertex 35.22381425717061 99.16895918636378 31.50217694820819
    vertex 35.69411711922069 99.83067002241478 28.5695862712688
    vertex 35.22381425717061 99.63826258148448 28.53911192642277
  endloop
endfacet
facet normal -0.38268343236509855 0.912505042375881 0.1445266004300211
  outer loop
    vertex 35.69411711922069 99.83067002241478 28.5695862712688
    vertex 35.22381425717061 99.16895918636378 31.50217694820819
    vertex 35.69411711922069 99.36136662729409 31.53265129305422
  endloop
endfacet
facet normal -0.13052619222004339 0.9792385299218764 0.15509614650589781
  outer loop
    vertex 35.69411711922069 99.36136662729409 31.53265129305422
    vertex 36.19881425717061 99.89629661738968 28.57998050278431
    vertex 35.69411711922069 99.83067002241478 28.5695862712688
  endloop
endfacet
facet normal -0.13052619222004339 0.9792385299218764 0.15509614650589781
  outer loop
    vertex 36.19881425717061 99.89629661738968 28.57998050278431
    vertex 35.69411711922069 99.36136662729409 31.53265129305422
    vertex 36.19881425717061 99.42699322226899 31.543045524569727
  endloop
endfacet
facet normal 0.1305261922200418 0.9792385299218764 0.1550961465058978
  outer loop
    vertex 36.19881425717061 99.89629661738968 28.57998050278431
    vertex 36.70351139512053 99.36136662729409 31.53265129305422
    vertex 36.70351139512053 99.83067002241478 28.5695862712688
  endloop
endfacet
facet normal 0.1305261922200418 0.9792385299218764 0.1550961465058978
  outer loop
    vertex 36.70351139512053 99.36136662729409 31.53265129305422
    vertex 36.19881425717061 99.89629661738968 28.57998050278431
    vertex 36.19881425717061 99.42699322226899 31.543045524569727
  endloop
endfacet
facet normal 0.3826834323650989 0.9125050423758808 0.1445266004300208
  outer loop
    vertex 36.70351139512053 99.83067002241478 28.5695862712688
    vertex 37.17381425717061 99.1689591863638 31.50217694820819
    vertex 37.17381425717061 99.63826258148448 28.539111926422766
  endloop
endfacet
facet normal 0.3826834323650989 0.9125050423758808 0.1445266004300208
  outer loop
    vertex 37.17381425717061 99.1689591863638 31.50217694820819
    vertex 36.70351139512053 99.83067002241478 28.5695862712688
    vertex 36.70351139512053 99.36136662729409 31.53265129305422
  endloop
endfacet
facet normal 0.6087614290087159 0.7835858441778635 0.12410780537633981
  outer loop
    vertex 37.17381425717061 99.63826258148448 28.539111926422766
    vertex 37.57767248048438 98.86288314860921 31.45369926627168
    vertex 37.57767248048438 99.33218654372992 28.49063424448627
  endloop
endfacet
facet normal 0.6087614290087159 0.7835858441778635 0.12410780537633981
  outer loop
    vertex 37.57767248048438 98.86288314860921 31.45369926627168
    vertex 37.17381425717061 99.63826258148448 28.539111926422766
    vertex 37.17381425717061 99.1689591863638 31.50217694820819
  endloop
endfacet
facet normal 0.7933533402912445 0.6012665656359362 0.09523126848410345
  outer loop
    vertex 37.88756379455026 98.9333004853094 28.42745689937007
    vertex 37.57767248048438 98.86288314860921 31.45369926627168
    vertex 37.88756379455026 98.46399709018873 31.39052192115549
  endloop
endfacet
facet normal 0.7933533402912445 0.6012665656359362 0.09523126848410345
  outer loop
    vertex 37.57767248048438 98.86288314860921 31.45369926627168
    vertex 37.88756379455026 98.9333004853094 28.42745689937007
    vertex 37.57767248048438 99.33218654372992 28.49063424448627
  endloop
endfacet
facet normal 0.9238795325112849 0.37797196428593227 0.05986487802179263
  outer loop
    vertex 38.08236961843429 98.46878783191403 28.353885322738382
    vertex 37.88756379455026 98.46399709018873 31.39052192115549
    vertex 38.08236961843428 97.99948443679331 31.316950344523796
  endloop
endfacet
facet normal 0.9238795325112849 0.37797196428593227 0.05986487802179263
  outer loop
    vertex 37.88756379455026 98.46399709018873 31.39052192115549
    vertex 38.08236961843429 98.46878783191403 28.353885322738382
    vertex 37.88756379455026 98.9333004853094 28.42745689937007
  endloop
endfacet
facet normal 0.99144486137381 0.12891919819802836 0.020418795053682364
  outer loop
    vertex 38.148814257170606 97.97030435322914 28.274933295955844
    vertex 38.08236961843428 97.99948443679331 31.316950344523796
    vertex 38.1488142571706 97.50100095810848 31.237998317741273
  endloop
endfacet
facet normal 0.99144486137381 0.12891919819802836 0.020418795053682364
  outer loop
    vertex 38.08236961843428 97.99948443679331 31.316950344523796
    vertex 38.148814257170606 97.97030435322914 28.274933295955844
    vertex 38.08236961843429 98.46878783191403 28.353885322738382
  endloop
endfacet
facet normal 0.99144486137381 -0.1289191981980283 -0.02041879505368293
  outer loop
    vertex 38.08236961843429 97.47182087454426 28.195981269173306
    vertex 38.1488142571706 97.50100095810848 31.237998317741273
    vertex 38.08236961843428 97.0025174794236 31.159046290958745
  endloop
endfacet
facet normal 0.99144486137381 -0.1289191981980283 -0.02041879505368293
  outer loop
    vertex 38.1488142571706 97.50100095810848 31.237998317741273
    vertex 38.08236961843429 97.47182087454426 28.195981269173306
    vertex 38.148814257170606 97.97030435322914 28.274933295955844
  endloop
endfacet
facet normal 0.9238795325112884 -0.3779719642859236 -0.05986487802179182
  outer loop
    vertex 37.88756379455026 97.0073082211489 28.122409692541627
    vertex 38.08236961843428 97.0025174794236 31.159046290958745
    vertex 37.88756379455025 96.53800482602819 31.08547471432704
  endloop
endfacet
facet normal 0.9238795325112884 -0.3779719642859236 -0.05986487802179182
  outer loop
    vertex 38.08236961843428 97.0025174794236 31.159046290958745
    vertex 37.88756379455026 97.0073082211489 28.122409692541627
    vertex 38.08236961843429 97.47182087454426 28.195981269173306
  endloop
endfacet
facet normal 0.7933533402912356 -0.6012665656359474 -0.09523126848410568
  outer loop
    vertex 37.57767248048438 96.60842216272843 28.059232347425436
    vertex 37.88756379455025 96.53800482602819 31.08547471432704
    vertex 37.57767248048437 96.13911876760774 31.02229736921086
  endloop
endfacet
facet normal 0.7933533402912356 -0.6012665656359474 -0.09523126848410568
  outer loop
    vertex 37.88756379455025 96.53800482602819 31.08547471432704
    vertex 37.57767248048438 96.60842216272843 28.059232347425436
    vertex 37.88756379455026 97.0073082211489 28.122409692541627
  endloop
endfacet
facet normal 0.6087614290087103 -0.7835858441778677 -0.12410780537634084
  outer loop
    vertex 37.57767248048438 96.60842216272843 28.059232347425436
    vertex 37.1738142571706 95.83304272985315 30.973819687274343
    vertex 37.173814257170605 96.30234612497385 28.01075466548893
  endloop
endfacet
facet normal 0.6087614290087103 -0.7835858441778677 -0.12410780537634084
  outer loop
    vertex 37.1738142571706 95.83304272985315 30.973819687274343
    vertex 37.57767248048438 96.60842216272843 28.059232347425436
    vertex 37.57767248048437 96.13911876760774 31.02229736921086
  endloop
endfacet
facet normal 0.38268343236509855 -0.912505042375881 -0.1445266004300211
  outer loop
    vertex 37.173814257170605 96.30234612497385 28.01075466548893
    vertex 36.703511395120515 95.64063528892285 30.943345342428323
    vertex 36.70351139512052 96.10993868404356 27.98028032064291
  endloop
endfacet
facet normal 0.38268343236509855 -0.912505042375881 -0.1445266004300211
  outer loop
    vertex 36.703511395120515 95.64063528892285 30.943345342428323
    vertex 37.173814257170605 96.30234612497385 28.01075466548893
    vertex 37.1738142571706 95.83304272985315 30.973819687274343
  endloop
endfacet
facet normal 0.13052619222004339 -0.9792385299218764 -0.15509614650589781
  outer loop
    vertex 36.70351139512052 96.10993868404356 27.98028032064291
    vertex 36.19881425717061 95.57500869394794 30.932951110912814
    vertex 36.19881425717061 96.04431208906864 27.96988608912741
  endloop
endfacet
facet normal 0.13052619222004339 -0.9792385299218764 -0.15509614650589781
  outer loop
    vertex 36.19881425717061 95.57500869394794 30.932951110912814
    vertex 36.70351139512052 96.10993868404356 27.98028032064291
    vertex 36.703511395120515 95.64063528892285 30.943345342428323
  endloop
endfacet
facet normal 2.553894875965774e-16 0.15643446504015235 -0.9876883405951503
  outer loop
    vertex 32.59845398168076 109.69903331651514 33.169989177187105
    vertex 39.79881426624782 109.30379522328755 33.10736497604925
    vertex 32.598453981680755 109.30395798027719 33.10741539117105
  endloop
endfacet
facet normal 2.553894875965774e-16 0.15643446504015235 -0.9876883405951503
  outer loop
    vertex 39.79881426624782 109.30379522328755 33.10736497604925
    vertex 32.59845398168076 109.69903331651514 33.169989177187105
    vertex 39.79881426624782 109.69887055952546 33.16993876206528
  endloop
endfacet
facet normal 4.2889243231605305e-15 -0.9876883405951256 -0.15643446504030853
  outer loop
    vertex 39.7988142662478 108.92037415991594 30.41422771846965
    vertex 32.59845398168077 108.76410245186538 31.401966474186587
    vertex 32.598454677593146 108.91820645403769 30.41390902453443
  endloop
endfacet
facet normal 4.2889243231605305e-15 -0.9876883405951256 -0.15643446504030853
  outer loop
    vertex 32.59845398168077 108.76410245186538 31.401966474186587
    vertex 39.7988142662478 108.92037415991594 30.41422771846965
    vertex 39.79881426624781 108.76393969487572 31.40191605906476
  endloop
endfacet
facet normal -3.3101618143000317e-21 -0.15643446504031852 0.987688340595124
  outer loop
    vertex 32.59845398168077 109.01347861453185 31.745203315877184
    vertex 39.7988142662478 109.50716002783982 31.823370133275535
    vertex 32.598453981680755 109.5073227848295 31.82342054839736
  endloop
endfacet
facet normal -3.3101618143000317e-21 -0.15643446504031852 0.987688340595124
  outer loop
    vertex 39.7988142662478 109.50716002783982 31.823370133275535
    vertex 32.59845398168077 109.01347861453185 31.745203315877184
    vertex 39.79881426624781 109.01331585754217 31.745152900755368
  endloop
endfacet
facet normal -2.9537829550692905e-20 -0.9900169455390593 0.14094838610467064
  outer loop
    vertex 39.79881426624782 109.69887055952546 33.16993876206528
    vertex 32.598453981680755 109.5073227848295 31.82342054839736
    vertex 39.7988142662478 109.50716002783982 31.823370133275535
  endloop
endfacet
facet normal -2.9537829550692905e-20 -0.9900169455390593 0.14094838610467064
  outer loop
    vertex 32.598453981680755 109.5073227848295 31.82342054839736
    vertex 39.79881426624782 109.69887055952546 33.16993876206528
    vertex 32.59845398168076 109.69903331651514 33.169989177187105
  endloop
endfacet
facet normal 3.4512664603419266e-31 -0.8090169943749477 0.5877852522924731
  outer loop
    vertex 39.79881426624781 109.01331585754217 31.745152900755368
    vertex 32.59845398168077 108.76410245186538 31.401966474186587
    vertex 39.79881426624781 108.76393969487572 31.40191605906476
  endloop
endfacet
facet normal 3.4512664603419266e-31 -0.8090169943749477 0.5877852522924731
  outer loop
    vertex 32.59845398168077 108.76410245186538 31.401966474186587
    vertex 39.79881426624781 109.01331585754217 31.745152900755368
    vertex 32.59845398168077 109.01347861453185 31.745203315877184
  endloop
endfacet
facet normal 0.00020853680702339228 -0.5877208179358743 -0.8090637778798326
  outer loop
    vertex 39.79869629062513 109.37801329755703 30.081789064991696
    vertex 32.598454677593146 108.91820645403769 30.41390902453443
    vertex 32.59833670197047 109.37584559167877 30.081470371056476
  endloop
endfacet
facet normal 0.00020853680702339228 -0.5877208179358743 -0.8090637778798326
  outer loop
    vertex 32.598454677593146 108.91820645403769 30.41390902453443
    vertex 39.79869629062513 109.37801329755703 30.081789064991696
    vertex 39.7988142662478 108.92037415991594 30.41422771846965
  endloop
endfacet
facet normal -0.00020857001098434865 0.809063752311552 -0.5877208531217031
  outer loop
    vertex 32.59733390919448 112.65568379175552 31.107726335902044
    vertex 39.797840967377496 112.24223704062275 30.535905006089575
    vertex 32.59748137872283 112.2400693347444 30.535586312154354
  endloop
endfacet
facet normal -0.00020857001098434865 0.809063752311552 -0.5877208531217031
  outer loop
    vertex 39.797840967377496 112.24223704062275 30.535905006089575
    vertex 32.59733390919448 112.65568379175552 31.107726335902044
    vertex 39.79769349784915 112.65785149763386 31.108045029837267
  endloop
endfacet
facet normal 1.0 -2.4889512609338836e-10 -6.688960532205349e-10
  outer loop
    vertex 39.798814257170626 93.55024759572794 30.612260457580355
    vertex 39.798814266247774 105.19875860670848 39.848186467273074
    vertex 39.798814257170626 92.40827600093424 37.82238534392488
  endloop
endfacet
facet normal 1.0 -2.4889512609338836e-10 -6.688960532205349e-10
  outer loop
    vertex 39.798814266247774 105.19875860670848 39.848186467273074
    vertex 39.798814257170626 93.55024759572794 30.612260457580355
    vertex 39.79881425717062 106.34081160643503 32.638086779851356
  endloop
endfacet
facet normal 0.9999999773067486 0.00020351363689486747 6.299763308703065e-05
  outer loop
    vertex 39.7988142662478 108.92037415991594 30.41422771846965
    vertex 39.79881426624781 109.01331585754217 31.745152900755368
    vertex 39.79881426624781 108.76393969487572 31.40191605906476
  endloop
endfacet
facet normal 0.9999999773067486 0.00020351363689486747 6.299763308703065e-05
  outer loop
    vertex 39.79881426624781 109.01331585754217 31.745152900755368
    vertex 39.7988142662478 108.92037415991594 30.41422771846965
    vertex 39.79869629062513 109.37801329755703 30.081789064991696
  endloop
endfacet
facet normal 0.9999999773067486 0.00020351363689486747 6.299763308703065e-05
  outer loop
    vertex 39.79881426624781 109.01331585754217 31.745152900755368
    vertex 39.79869629062513 109.37801329755703 30.081789064991696
    vertex 39.7988142662478 109.50716002783982 31.823370133275535
  endloop
endfacet
facet normal 0.9999999773067486 0.00020351363689486747 6.299763308703065e-05
  outer loop
    vertex 39.7988142662478 109.50716002783982 31.823370133275535
    vertex 39.79869629062513 109.37801329755703 30.081789064991696
    vertex 39.797840967377496 112.24223704062275 30.535905006089575
  endloop
endfacet
facet normal 0.9999999773067486 0.00020351363689486747 6.299763308703065e-05
  outer loop
    vertex 39.7988142662478 109.50716002783982 31.823370133275535
    vertex 39.797840967377496 112.24223704062275 30.535905006089575
    vertex 39.79881426624782 109.69887055952546 33.16993876206528
  endloop
endfacet
facet normal 0.9999999773067486 0.00020351363689486747 6.299763308703065e-05
  outer loop
    vertex 39.79881426624782 109.69887055952546 33.16993876206528
    vertex 39.797840967377496 112.24223704062275 30.535905006089575
    vertex 39.79769349784914 111.12479374023968 40.78739076766967
  endloop
endfacet
facet normal 0.9999999773067486 0.00020351363689486747 6.299763308703065e-05
  outer loop
    vertex 39.79769349784914 111.12479374023968 40.78739076766967
    vertex 39.797840967377496 112.24223704062275 30.535905006089575
    vertex 39.79769349784915 112.65785149763386 31.108045029837267
  endloop
endfacet
facet normal 0.9999999773067486 0.00020351363689486747 6.299763308703065e-05
  outer loop
    vertex 39.79881425717062 106.34081160643503 32.638086779851356
    vertex 39.79769349784914 111.12479374023968 40.78739076766967
    vertex 39.798814266247774 105.19875860670848 39.848186467273074
  endloop
endfacet
facet normal 0.9999999773067486 0.00020351363689486747 6.299763308703065e-05
  outer loop
    vertex 39.79769349784914 111.12479374023968 40.78739076766967
    vertex 39.79881425717062 106.34081160643503 32.638086779851356
    vertex 39.79881426624782 109.30379522328755 33.10736497604925
  endloop
endfacet
facet normal 0.9999999773067486 0.00020351363689486747 6.299763308703065e-05
  outer loop
    vertex 39.79769349784914 111.12479374023968 40.78739076766967
    vertex 39.79881426624782 109.30379522328755 33.10736497604925
    vertex 39.79881426624782 109.69887055952546 33.16993876206528
  endloop
endfacet
facet normal -1.0 -1.324249078294067e-15 -1.3830764982134784e-15
  outer loop
    vertex 32.59881425717059 105.1988400116413 39.84821166619585
    vertex 32.59881425717062 93.55024759572794 30.61226045758035
    vertex 32.598814257170616 92.40827600093428 37.82238534392487
  endloop
endfacet
facet normal -1.0 -1.324249078294067e-15 -1.3830764982134784e-15
  outer loop
    vertex 32.59881425717062 93.55024759572794 30.61226045758035
    vertex 32.59881425717059 105.1988400116413 39.84821166619585
    vertex 32.5988142571706 106.34081160643498 32.63808677985134
  endloop
endfacet
facet normal -0.9999999668353963 -0.00025159430020074637 -5.5041027036576405e-05
  outer loop
    vertex 32.59733321328209 111.11844861875315 40.78641043610133
    vertex 32.5988142571706 106.34081160643498 32.63808677985134
    vertex 32.59881425717059 105.1988400116413 39.84821166619585
  endloop
endfacet
facet normal -0.9999999668353963 -0.00025159430020074637 -5.5041027036576405e-05
  outer loop
    vertex 32.5988142571706 106.34081160643498 32.63808677985134
    vertex 32.59733321328209 111.11844861875315 40.78641043610133
    vertex 32.598453981680755 109.30395798027719 33.10741539117105
  endloop
endfacet
facet normal -0.9999999668353963 -0.00025159430020074637 -5.5041027036576405e-05
  outer loop
    vertex 32.598453981680755 109.30395798027719 33.10741539117105
    vertex 32.59733321328209 111.11844861875315 40.78641043610133
    vertex 32.59845398168076 109.69903331651514 33.169989177187105
  endloop
endfacet
facet normal -0.9999999668353963 -0.00025159430020074637 -5.5041027036576405e-05
  outer loop
    vertex 32.59845398168077 109.01347861453185 31.745203315877184
    vertex 32.598454677593146 108.91820645403769 30.41390902453443
    vertex 32.59845398168077 108.76410245186538 31.401966474186587
  endloop
endfacet
facet normal -0.9999999668353963 -0.00025159430020074637 -5.5041027036576405e-05
  outer loop
    vertex 32.598454677593146 108.91820645403769 30.41390902453443
    vertex 32.59845398168077 109.01347861453185 31.745203315877184
    vertex 32.59833670197047 109.37584559167877 30.081470371056476
  endloop
endfacet
facet normal -0.9999999668353963 -0.00025159430020074637 -5.5041027036576405e-05
  outer loop
    vertex 32.59833670197047 109.37584559167877 30.081470371056476
    vertex 32.59845398168077 109.01347861453185 31.745203315877184
    vertex 32.598453981680755 109.5073227848295 31.82342054839736
  endloop
endfacet
facet normal -0.9999999668353963 -0.00025159430020074637 -5.5041027036576405e-05
  outer loop
    vertex 32.59833670197047 109.37584559167877 30.081470371056476
    vertex 32.598453981680755 109.5073227848295 31.82342054839736
    vertex 32.59748137872283 112.2400693347444 30.535586312154354
  endloop
endfacet
facet normal -0.9999999668353963 -0.00025159430020074637 -5.5041027036576405e-05
  outer loop
    vertex 32.59748137872283 112.2400693347444 30.535586312154354
    vertex 32.598453981680755 109.5073227848295 31.82342054839736
    vertex 32.59845398168076 109.69903331651514 33.169989177187105
  endloop
endfacet
facet normal -0.9999999668353963 -0.00025159430020074637 -5.5041027036576405e-05
  outer loop
    vertex 32.59748137872283 112.2400693347444 30.535586312154354
    vertex 32.59845398168076 109.69903331651514 33.169989177187105
    vertex 32.59733321328209 111.11844861875315 40.78641043610133
  endloop
endfacet
facet normal -0.9999999668353963 -0.00025159430020074637 -5.5041027036576405e-05
  outer loop
    vertex 32.59748137872283 112.2400693347444 30.535586312154354
    vertex 32.59733321328209 111.11844861875315 40.78641043610133
    vertex 32.59733390919448 112.65568379175552 31.107726335902044
  endloop
endfacet
facet normal -0.8575754143832183 -0.08053131977246024 0.5080148769289707
  outer loop
    vertex 33.197693488771954 110.96193280165616 41.77407356049745
    vertex 32.598814257170616 92.40827600093428 37.82238534392487
    vertex 33.19881425717061 92.25184153589404 38.810073684520006
  endloop
endfacet
facet normal -0.8575754143832183 -0.08053131977246024 0.5080148769289707
  outer loop
    vertex 32.598814257170616 92.40827600093428 37.82238534392487
    vertex 33.197693488771954 110.96193280165616 41.77407356049745
    vertex 32.59881425717059 105.1988400116413 39.84821166619585
  endloop
endfacet
facet normal -0.8575754143832183 -0.08053131977246024 0.5080148769289707
  outer loop
    vertex 32.59881425717059 105.1988400116413 39.84821166619585
    vertex 33.197693488771954 110.96193280165616 41.77407356049745
    vertex 32.59733321328209 111.11844861875315 40.78641043610133
  endloop
endfacet
facet normal 0.857237678874935 -0.08049906927753933 0.5085896791742476
  outer loop
    vertex 39.798814257170626 92.40827600093424 37.82238534392488
    vertex 39.1975491100603 110.96857056248976 41.77374379503571
    vertex 39.198814257170625 92.25184153589402 38.81007368452002
  endloop
endfacet
facet normal 0.857237678874935 -0.08049906927753933 0.5085896791742476
  outer loop
    vertex 39.1975491100603 110.96857056248976 41.77374379503571
    vertex 39.798814257170626 92.40827600093424 37.82238534392488
    vertex 39.798814266247774 105.19875860670848 39.848186467273074
  endloop
endfacet
facet normal 0.857237678874935 -0.08049906927753933 0.5085896791742476
  outer loop
    vertex 39.1975491100603 110.96857056248976 41.77374379503571
    vertex 39.798814266247774 105.19875860670848 39.848186467273074
    vertex 39.79769349784914 111.12479374023968 40.78739076766967
  endloop
endfacet
endsolid CheckMateKBCase_1
