solid CheckMateKBCase_1
facet normal -0.8466442544873525 0.5321592866271858 0.0
  outer loop
    vertex 340.71847798207875 200.7971100619145 3.5000000000000004
    vertex 340.4475811532606 200.36612398417196 0.0
    vertex 340.4475811532606 200.36612398417196 3.5000000000000004
  endloop
endfacet
facet normal -0.8466442544873525 0.5321592866271858 0.0
  outer loop
    vertex 340.4475811532606 200.36612398417196 0.0
    vertex 340.71847798207875 200.7971100619145 3.5000000000000004
    vertex 340.71847798207875 200.7971100619145 0.0
  endloop
endfacet
facet normal 0.0 0.0 -1.0
  outer loop
    vertex 338.3561583987836 200.58806035264354 -8.3
    vertex 338.3561583987835 198.51750799182335 -8.3
    vertex 338.21986170393984 199.55278417223343 -8.3
  endloop
endfacet
facet normal 0.0 0.0 -1.0
  outer loop
    vertex 338.3561583987835 198.51750799182335 -8.3
    vertex 338.3561583987836 200.58806035264354 -8.3
    vertex 338.7557600888021 197.55278417223343 -8.3
  endloop
endfacet
facet normal 0.0 0.0 -1.0
  outer loop
    vertex 338.7557600888021 197.55278417223343 -8.3
    vertex 338.3561583987836 200.58806035264354 -8.3
    vertex 338.7557600888021 201.55278417223343 -8.3
  endloop
endfacet
facet normal 0.0 0.0 -1.0
  outer loop
    vertex 338.7557600888021 197.55278417223343 -8.3
    vertex 338.7557600888021 201.55278417223343 -8.3
    vertex 339.39143457919363 202.38121129697961 -8.3
  endloop
endfacet
facet normal 0.0 0.0 -1.0
  outer loop
    vertex 338.7557600888021 197.55278417223343 -8.3
    vertex 339.39143457919363 202.38121129697961 -8.3
    vertex 339.39143457919363 196.72435704748725 -8.3
  endloop
endfacet
facet normal 0.0 0.0 -1.0
  outer loop
    vertex 339.39143457919363 196.72435704748725 -8.3
    vertex 339.39143457919363 202.38121129697961 -8.3
    vertex 340.21986170393984 203.0168857873712 -8.3
  endloop
endfacet
facet normal 0.0 0.0 -1.0
  outer loop
    vertex 339.39143457919363 196.72435704748725 -8.3
    vertex 340.21986170393984 203.0168857873712 -8.3
    vertex 340.21986170393984 196.08868255709567 -8.3
  endloop
endfacet
facet normal 0.0 0.0 -1.0
  outer loop
    vertex 340.21986170393984 196.08868255709567 -8.3
    vertex 340.21986170393984 203.0168857873712 -8.3
    vertex 340.2783518184493 199.37101683594184 -8.3
  endloop
endfacet
facet normal 0.0 0.0 -1.0
  outer loop
    vertex 340.2783518184493 199.37101683594184 -8.3
    vertex 340.21986170393984 203.0168857873712 -8.3
    vertex 340.29746231513917 199.8797101423534 -8.3
  endloop
endfacet
facet normal 0.0 0.0 -1.0
  outer loop
    vertex 340.29746231513917 199.8797101423534 -8.3
    vertex 340.21986170393984 203.0168857873712 -8.3
    vertex 341.18458552352973 203.41648747738972 -8.3
  endloop
endfacet
facet normal 0.0 0.0 -1.0
  outer loop
    vertex 340.29746231513917 199.8797101423534 -8.3
    vertex 341.18458552352973 203.41648747738972 -8.3
    vertex 340.4475811532606 200.36612398417196 -8.3
  endloop
endfacet
facet normal 0.0 0.0 -1.0
  outer loop
    vertex 340.4475811532606 200.36612398417196 -8.3
    vertex 341.18458552352973 203.41648747738972 -8.3
    vertex 340.71847798207875 200.7971100619145 -8.3
  endloop
endfacet
facet normal 0.0 0.0 -1.0
  outer loop
    vertex 340.71847798207875 200.7971100619145 -8.3
    vertex 341.18458552352973 203.41648747738972 -8.3
    vertex 341.0916916303878 201.14329738662104 -8.3
  endloop
endfacet
facet normal 0.0 0.0 -1.0
  outer loop
    vertex 341.0916916303878 201.14329738662104 -8.3
    vertex 341.18458552352973 203.41648747738972 -8.3
    vertex 341.54178820482025 201.38109386421445 -8.3
  endloop
endfacet
facet normal 0.0 0.0 -1.0
  outer loop
    vertex 341.54178820482025 201.38109386421445 -8.3
    vertex 341.18458552352973 203.41648747738972 -8.3
    vertex 342.21986170393984 203.55278417223343 -8.3
  endloop
endfacet
facet normal 0.0 0.0 -1.0
  outer loop
    vertex 341.54178820482025 201.38109386421445 -8.3
    vertex 342.21986170393984 203.55278417223343 -8.3
    vertex 342.0380943676482 201.49429405772398 -8.3
  endloop
endfacet
facet normal 0.0 0.0 -1.0
  outer loop
    vertex 342.0380943676482 201.49429405772398 -8.3
    vertex 342.21986170393984 203.55278417223343 -8.3
    vertex 342.5467876740598 201.4751835610341 -8.3
  endloop
endfacet
facet normal 0.0 0.0 -1.0
  outer loop
    vertex 342.5467876740598 201.4751835610341 -8.3
    vertex 342.21986170393984 203.55278417223343 -8.3
    vertex 343.25513788434995 203.41648747738967 -8.3
  endloop
endfacet
facet normal 0.0 0.0 -1.0
  outer loop
    vertex 342.5467876740598 201.4751835610341 -8.3
    vertex 343.25513788434995 203.41648747738967 -8.3
    vertex 343.0332015158784 201.32506472291266 -8.3
  endloop
endfacet
facet normal 0.0 0.0 -1.0
  outer loop
    vertex 343.0332015158784 201.32506472291266 -8.3
    vertex 343.25513788434995 203.41648747738967 -8.3
    vertex 343.4641875936209 201.05416789409452 -8.3
  endloop
endfacet
facet normal 0.0 0.0 -1.0
  outer loop
    vertex 343.4641875936209 201.05416789409452 -8.3
    vertex 343.25513788434995 203.41648747738967 -8.3
    vertex 344.21986170393984 203.0168857873712 -8.3
  endloop
endfacet
facet normal 0.0 0.0 -1.0
  outer loop
    vertex 343.4641875936209 201.05416789409452 -8.3
    vertex 344.21986170393984 203.0168857873712 -8.3
    vertex 343.81037491832745 200.68095424578544 -8.3
  endloop
endfacet
facet normal 0.0 0.0 -1.0
  outer loop
    vertex 343.81037491832745 200.68095424578544 -8.3
    vertex 344.21986170393984 203.0168857873712 -8.3
    vertex 344.04817139592086 200.230857671353 -8.3
  endloop
endfacet
facet normal 0.0 0.0 -1.0
  outer loop
    vertex 344.04817139592086 200.230857671353 -8.3
    vertex 344.21986170393984 203.0168857873712 -8.3
    vertex 344.16137158943036 199.73455150852502 -8.3
  endloop
endfacet
facet normal 0.0 0.0 -1.0
  outer loop
    vertex 340.21986170393984 196.08868255709567 -8.3
    vertex 340.3915520119588 198.87471067311387 -8.3
    vertex 341.18458552352973 195.68908086707717 -8.3
  endloop
endfacet
facet normal 0.0 0.0 -1.0
  outer loop
    vertex 340.3915520119588 198.87471067311387 -8.3
    vertex 340.21986170393984 196.08868255709567 -8.3
    vertex 340.2783518184493 199.37101683594184 -8.3
  endloop
endfacet
facet normal 0.0 0.0 -1.0
  outer loop
    vertex 341.18458552352973 195.68908086707717 -8.3
    vertex 340.3915520119588 198.87471067311387 -8.3
    vertex 340.6293484895522 198.42461409868142 -8.3
  endloop
endfacet
facet normal 0.0 0.0 -1.0
  outer loop
    vertex 341.18458552352973 195.68908086707717 -8.3
    vertex 340.6293484895522 198.42461409868142 -8.3
    vertex 340.97553581425876 198.05140045037237 -8.3
  endloop
endfacet
facet normal 0.0 0.0 -1.0
  outer loop
    vertex 341.18458552352973 195.68908086707717 -8.3
    vertex 340.97553581425876 198.05140045037237 -8.3
    vertex 341.4065218920013 197.78050362155423 -8.3
  endloop
endfacet
facet normal 0.0 0.0 -1.0
  outer loop
    vertex 341.18458552352973 195.68908086707717 -8.3
    vertex 341.4065218920013 197.78050362155423 -8.3
    vertex 342.21986170393984 195.55278417223343 -8.3
  endloop
endfacet
facet normal 0.0 0.0 -1.0
  outer loop
    vertex 342.21986170393984 195.55278417223343 -8.3
    vertex 341.4065218920013 197.78050362155423 -8.3
    vertex 341.8929357338199 197.63038478343276 -8.3
  endloop
endfacet
facet normal 0.0 0.0 -1.0
  outer loop
    vertex 342.21986170393984 195.55278417223343 -8.3
    vertex 341.8929357338199 197.63038478343276 -8.3
    vertex 342.4016290402314 197.61127428674288 -8.3
  endloop
endfacet
facet normal 0.0 0.0 -1.0
  outer loop
    vertex 342.21986170393984 195.55278417223343 -8.3
    vertex 342.4016290402314 197.61127428674288 -8.3
    vertex 343.25513788434995 195.68908086707717 -8.3
  endloop
endfacet
facet normal 0.0 0.0 -1.0
  outer loop
    vertex 343.25513788434995 195.68908086707717 -8.3
    vertex 342.4016290402314 197.61127428674288 -8.3
    vertex 342.89793520305943 197.7244744802524 -8.3
  endloop
endfacet
facet normal 0.0 0.0 -1.0
  outer loop
    vertex 343.25513788434995 195.68908086707717 -8.3
    vertex 342.89793520305943 197.7244744802524 -8.3
    vertex 343.3480317774918 197.96227095784582 -8.3
  endloop
endfacet
facet normal 0.0 0.0 -1.0
  outer loop
    vertex 343.25513788434995 195.68908086707717 -8.3
    vertex 343.3480317774918 197.96227095784582 -8.3
    vertex 344.21986170393984 196.08868255709567 -8.3
  endloop
endfacet
facet normal 0.0 0.0 -1.0
  outer loop
    vertex 344.21986170393984 196.08868255709567 -8.3
    vertex 343.3480317774918 197.96227095784582 -8.3
    vertex 343.72124542580093 198.30845828255235 -8.3
  endloop
endfacet
facet normal 0.0 0.0 -1.0
  outer loop
    vertex 344.21986170393984 196.08868255709567 -8.3
    vertex 343.72124542580093 198.30845828255235 -8.3
    vertex 343.99214225461907 198.7394443602949 -8.3
  endloop
endfacet
facet normal 0.0 0.0 -1.0
  outer loop
    vertex 344.21986170393984 196.08868255709567 -8.3
    vertex 343.99214225461907 198.7394443602949 -8.3
    vertex 344.14226109274045 199.2258582021135 -8.3
  endloop
endfacet
facet normal 0.0 0.0 -1.0
  outer loop
    vertex 344.21986170393984 196.08868255709567 -8.3
    vertex 344.14226109274045 199.2258582021135 -8.3
    vertex 344.16137158943036 199.73455150852502 -8.3
  endloop
endfacet
facet normal 0.0 0.0 -1.0
  outer loop
    vertex 344.21986170393984 196.08868255709567 -8.3
    vertex 344.16137158943036 199.73455150852502 -8.3
    vertex 344.21986170393984 203.0168857873712 -8.3
  endloop
endfacet
facet normal 0.0 0.0 -1.0
  outer loop
    vertex 344.21986170393984 196.08868255709567 -8.3
    vertex 344.21986170393984 203.0168857873712 -8.3
    vertex 345.04828882868605 202.38121129697961 -8.3
  endloop
endfacet
facet normal 0.0 0.0 -1.0
  outer loop
    vertex 344.21986170393984 196.08868255709567 -8.3
    vertex 345.04828882868605 202.38121129697961 -8.3
    vertex 345.04828882868605 196.72435704748725 -8.3
  endloop
endfacet
facet normal 0.0 0.0 -1.0
  outer loop
    vertex 345.04828882868605 196.72435704748725 -8.3
    vertex 345.04828882868605 202.38121129697961 -8.3
    vertex 345.6839633190776 201.55278417223343 -8.3
  endloop
endfacet
facet normal 0.0 0.0 -1.0
  outer loop
    vertex 345.04828882868605 196.72435704748725 -8.3
    vertex 345.6839633190776 201.55278417223343 -8.3
    vertex 345.6839633190776 197.55278417223343 -8.3
  endloop
endfacet
facet normal 0.0 0.0 -1.0
  outer loop
    vertex 345.6839633190776 197.55278417223343 -8.3
    vertex 345.6839633190776 201.55278417223343 -8.3
    vertex 346.0835650090961 200.5880603526435 -8.3
  endloop
endfacet
facet normal 0.0 0.0 -1.0
  outer loop
    vertex 345.6839633190776 197.55278417223343 -8.3
    vertex 346.0835650090961 200.5880603526435 -8.3
    vertex 346.08356500909605 198.51750799182335 -8.3
  endloop
endfacet
facet normal 0.0 0.0 -1.0
  outer loop
    vertex 346.08356500909605 198.51750799182335 -8.3
    vertex 346.0835650090961 200.5880603526435 -8.3
    vertex 346.21986170393984 199.55278417223343 -8.3
  endloop
endfacet
facet normal -0.9238795325112884 0.38268343236508595 0.0
  outer loop
    vertex 338.7557600888021 201.55278417223343 0.0
    vertex 338.3561583987836 200.58806035264354 -8.3
    vertex 338.3561583987836 200.58806035264354 0.0
  endloop
endfacet
facet normal -0.9238795325112884 0.38268343236508595 0.0
  outer loop
    vertex 338.3561583987836 200.58806035264354 -8.3
    vertex 338.7557600888021 201.55278417223343 0.0
    vertex 338.7557600888021 201.55278417223343 -8.3
  endloop
endfacet
facet normal 0.6087614290087263 0.793353340291231 0.0
  outer loop
    vertex 344.21986170393984 203.0168857873712 0.0
    vertex 345.04828882868605 202.38121129697961 -8.3
    vertex 344.21986170393984 203.0168857873712 -8.3
  endloop
endfacet
facet normal 0.6087614290087263 0.793353340291231 0.0
  outer loop
    vertex 345.04828882868605 202.38121129697961 -8.3
    vertex 344.21986170393984 203.0168857873712 0.0
    vertex 345.04828882868605 202.38121129697961 0.0
  endloop
endfacet
facet normal -0.9238795325112731 -0.38268343236512276 -0.0
  outer loop
    vertex 338.3561583987835 198.51750799182335 0.0
    vertex 338.7557600888021 197.55278417223343 -8.3
    vertex 338.7557600888021 197.55278417223343 0.0
  endloop
endfacet
facet normal -0.9238795325112731 -0.38268343236512276 -0.0
  outer loop
    vertex 338.7557600888021 197.55278417223343 -8.3
    vertex 338.3561583987835 198.51750799182335 0.0
    vertex 338.3561583987835 198.51750799182335 -8.3
  endloop
endfacet
facet normal 0.9914448613738132 0.13052619222003234 0.0
  outer loop
    vertex 346.0835650090961 200.5880603526435 -8.3
    vertex 346.21986170393984 199.55278417223343 0.0
    vertex 346.21986170393984 199.55278417223343 -8.3
  endloop
endfacet
facet normal 0.9914448613738132 0.13052619222003234 0.0
  outer loop
    vertex 346.21986170393984 199.55278417223343 0.0
    vertex 346.0835650090961 200.5880603526435 -8.3
    vertex 346.0835650090961 200.5880603526435 0.0
  endloop
endfacet
facet normal 0.9238795325112764 0.3826834323651152 0.0
  outer loop
    vertex 345.6839633190776 201.55278417223343 -8.3
    vertex 346.0835650090961 200.5880603526435 0.0
    vertex 346.0835650090961 200.5880603526435 -8.3
  endloop
endfacet
facet normal 0.9238795325112764 0.3826834323651152 0.0
  outer loop
    vertex 346.0835650090961 200.5880603526435 0.0
    vertex 345.6839633190776 201.55278417223343 -8.3
    vertex 345.6839633190776 201.55278417223343 0.0
  endloop
endfacet
facet normal 0.9238795325112884 -0.38268343236508595 0.0
  outer loop
    vertex 346.08356500909605 198.51750799182335 -8.3
    vertex 345.6839633190776 197.55278417223343 0.0
    vertex 345.6839633190776 197.55278417223343 -8.3
  endloop
endfacet
facet normal 0.9238795325112884 -0.38268343236508595 0.0
  outer loop
    vertex 345.6839633190776 197.55278417223343 0.0
    vertex 346.08356500909605 198.51750799182335 -8.3
    vertex 346.08356500909605 198.51750799182335 0.0
  endloop
endfacet
facet normal -0.9914448613738077 0.13052619222007197 0.0
  outer loop
    vertex 338.3561583987836 200.58806035264354 0.0
    vertex 338.21986170393984 199.55278417223343 -8.3
    vertex 338.21986170393984 199.55278417223343 0.0
  endloop
endfacet
facet normal -0.9914448613738077 0.13052619222007197 0.0
  outer loop
    vertex 338.21986170393984 199.55278417223343 -8.3
    vertex 338.3561583987836 200.58806035264354 0.0
    vertex 338.3561583987836 200.58806035264354 -8.3
  endloop
endfacet
facet normal 0.7933533402912437 0.6087614290087096 0.0
  outer loop
    vertex 345.04828882868605 202.38121129697961 -8.3
    vertex 345.6839633190776 201.55278417223343 0.0
    vertex 345.6839633190776 201.55278417223343 -8.3
  endloop
endfacet
facet normal 0.7933533402912437 0.6087614290087096 0.0
  outer loop
    vertex 345.6839633190776 201.55278417223343 0.0
    vertex 345.04828882868605 202.38121129697961 -8.3
    vertex 345.04828882868605 202.38121129697961 0.0
  endloop
endfacet
facet normal 0.9914448613738077 -0.13052619222007197 0.0
  outer loop
    vertex 346.21986170393984 199.55278417223343 -8.3
    vertex 346.08356500909605 198.51750799182335 0.0
    vertex 346.08356500909605 198.51750799182335 -8.3
  endloop
endfacet
facet normal 0.9914448613738077 -0.13052619222007197 0.0
  outer loop
    vertex 346.08356500909605 198.51750799182335 0.0
    vertex 346.21986170393984 199.55278417223343 -8.3
    vertex 346.21986170393984 199.55278417223343 0.0
  endloop
endfacet
facet normal 0.38268343236508595 -0.9238795325112884 0.0
  outer loop
    vertex 344.21986170393984 196.08868255709567 0.0
    vertex 343.25513788434995 195.68908086707717 -8.3
    vertex 344.21986170393984 196.08868255709567 -8.3
  endloop
endfacet
facet normal 0.38268343236508595 -0.9238795325112884 0.0
  outer loop
    vertex 343.25513788434995 195.68908086707717 -8.3
    vertex 344.21986170393984 196.08868255709567 0.0
    vertex 343.25513788434995 195.68908086707717 0.0
  endloop
endfacet
facet normal -0.13052619222002954 0.9914448613738135 0.0
  outer loop
    vertex 341.18458552352973 203.41648747738972 0.0
    vertex 342.21986170393984 203.55278417223343 -8.3
    vertex 341.18458552352973 203.41648747738972 -8.3
  endloop
endfacet
facet normal -0.13052619222002954 0.9914448613738135 0.0
  outer loop
    vertex 342.21986170393984 203.55278417223343 -8.3
    vertex 341.18458552352973 203.41648747738972 0.0
    vertex 342.21986170393984 203.55278417223343 0.0
  endloop
endfacet
facet normal -0.9914448613738135 -0.13052619222002954 -0.0
  outer loop
    vertex 338.21986170393984 199.55278417223343 0.0
    vertex 338.3561583987835 198.51750799182335 -8.3
    vertex 338.3561583987835 198.51750799182335 0.0
  endloop
endfacet
facet normal -0.9914448613738135 -0.13052619222002954 -0.0
  outer loop
    vertex 338.3561583987835 198.51750799182335 -8.3
    vertex 338.21986170393984 199.55278417223343 0.0
    vertex 338.21986170393984 199.55278417223343 -8.3
  endloop
endfacet
facet normal 0.13052619222007197 0.9914448613738077 0.0
  outer loop
    vertex 342.21986170393984 203.55278417223343 0.0
    vertex 343.25513788434995 203.41648747738967 -8.3
    vertex 342.21986170393984 203.55278417223343 -8.3
  endloop
endfacet
facet normal 0.13052619222007197 0.9914448613738077 0.0
  outer loop
    vertex 343.25513788434995 203.41648747738967 -8.3
    vertex 342.21986170393984 203.55278417223343 0.0
    vertex 343.25513788434995 203.41648747738967 0.0
  endloop
endfacet
facet normal -0.3826834323651044 0.9238795325112807 0.0
  outer loop
    vertex 340.21986170393984 203.0168857873712 0.0
    vertex 341.18458552352973 203.41648747738972 -8.3
    vertex 340.21986170393984 203.0168857873712 -8.3
  endloop
endfacet
facet normal -0.3826834323651044 0.9238795325112807 0.0
  outer loop
    vertex 341.18458552352973 203.41648747738972 -8.3
    vertex 340.21986170393984 203.0168857873712 0.0
    vertex 341.18458552352973 203.41648747738972 0.0
  endloop
endfacet
facet normal 0.6087614290087263 -0.793353340291231 0.0
  outer loop
    vertex 345.04828882868605 196.72435704748725 0.0
    vertex 344.21986170393984 196.08868255709567 -8.3
    vertex 345.04828882868605 196.72435704748725 -8.3
  endloop
endfacet
facet normal 0.6087614290087263 -0.793353340291231 0.0
  outer loop
    vertex 344.21986170393984 196.08868255709567 -8.3
    vertex 345.04828882868605 196.72435704748725 0.0
    vertex 344.21986170393984 196.08868255709567 0.0
  endloop
endfacet
facet normal -0.6087614290087263 0.793353340291231 0.0
  outer loop
    vertex 339.39143457919363 202.38121129697961 0.0
    vertex 340.21986170393984 203.0168857873712 -8.3
    vertex 339.39143457919363 202.38121129697961 -8.3
  endloop
endfacet
facet normal -0.6087614290087263 0.793353340291231 0.0
  outer loop
    vertex 340.21986170393984 203.0168857873712 -8.3
    vertex 339.39143457919363 202.38121129697961 0.0
    vertex 340.21986170393984 203.0168857873712 0.0
  endloop
endfacet
facet normal -0.7933533402912437 0.6087614290087096 0.0
  outer loop
    vertex 339.39143457919363 202.38121129697961 0.0
    vertex 338.7557600888021 201.55278417223343 -8.3
    vertex 338.7557600888021 201.55278417223343 0.0
  endloop
endfacet
facet normal -0.7933533402912437 0.6087614290087096 0.0
  outer loop
    vertex 338.7557600888021 201.55278417223343 -8.3
    vertex 339.39143457919363 202.38121129697961 0.0
    vertex 339.39143457919363 202.38121129697961 -8.3
  endloop
endfacet
facet normal 0.7933533402912437 -0.6087614290087096 0.0
  outer loop
    vertex 345.6839633190776 197.55278417223343 -8.3
    vertex 345.04828882868605 196.72435704748725 0.0
    vertex 345.04828882868605 196.72435704748725 -8.3
  endloop
endfacet
facet normal 0.7933533402912437 -0.6087614290087096 0.0
  outer loop
    vertex 345.04828882868605 196.72435704748725 0.0
    vertex 345.6839633190776 197.55278417223343 -8.3
    vertex 345.6839633190776 197.55278417223343 0.0
  endloop
endfacet
facet normal 0.38268343236506747 0.9238795325112961 0.0
  outer loop
    vertex 343.25513788434995 203.41648747738967 0.0
    vertex 344.21986170393984 203.0168857873712 -8.3
    vertex 343.25513788434995 203.41648747738967 -8.3
  endloop
endfacet
facet normal 0.38268343236506747 0.9238795325112961 0.0
  outer loop
    vertex 344.21986170393984 203.0168857873712 -8.3
    vertex 343.25513788434995 203.41648747738967 0.0
    vertex 344.21986170393984 203.0168857873712 0.0
  endloop
endfacet
facet normal 0.13052619222005077 -0.9914448613738106 0.0
  outer loop
    vertex 343.25513788434995 195.68908086707717 0.0
    vertex 342.21986170393984 195.55278417223343 -8.3
    vertex 343.25513788434995 195.68908086707717 -8.3
  endloop
endfacet
facet normal 0.13052619222005077 -0.9914448613738106 0.0
  outer loop
    vertex 342.21986170393984 195.55278417223343 -8.3
    vertex 343.25513788434995 195.68908086707717 0.0
    vertex 342.21986170393984 195.55278417223343 0.0
  endloop
endfacet
facet normal -0.7933533402912437 -0.6087614290087096 -0.0
  outer loop
    vertex 338.7557600888021 197.55278417223343 0.0
    vertex 339.39143457919363 196.72435704748725 -8.3
    vertex 339.39143457919363 196.72435704748725 0.0
  endloop
endfacet
facet normal -0.7933533402912437 -0.6087614290087096 -0.0
  outer loop
    vertex 339.39143457919363 196.72435704748725 -8.3
    vertex 338.7557600888021 197.55278417223343 0.0
    vertex 338.7557600888021 197.55278417223343 -8.3
  endloop
endfacet
facet normal -0.13052619222005077 -0.9914448613738106 -0.0
  outer loop
    vertex 342.21986170393984 195.55278417223343 0.0
    vertex 341.18458552352973 195.68908086707717 -8.3
    vertex 342.21986170393984 195.55278417223343 -8.3
  endloop
endfacet
facet normal -0.13052619222005077 -0.9914448613738106 -0.0
  outer loop
    vertex 341.18458552352973 195.68908086707717 -8.3
    vertex 342.21986170393984 195.55278417223343 0.0
    vertex 341.18458552352973 195.68908086707717 0.0
  endloop
endfacet
facet normal -0.6087614290087263 -0.793353340291231 -0.0
  outer loop
    vertex 340.21986170393984 196.08868255709567 0.0
    vertex 339.39143457919363 196.72435704748725 -8.3
    vertex 340.21986170393984 196.08868255709567 -8.3
  endloop
endfacet
facet normal -0.6087614290087263 -0.793353340291231 -0.0
  outer loop
    vertex 339.39143457919363 196.72435704748725 -8.3
    vertex 340.21986170393984 196.08868255709567 0.0
    vertex 339.39143457919363 196.72435704748725 0.0
  endloop
endfacet
facet normal -0.38268343236508595 -0.9238795325112884 -0.0
  outer loop
    vertex 341.18458552352973 195.68908086707717 0.0
    vertex 340.21986170393984 196.08868255709567 -8.3
    vertex 341.18458552352973 195.68908086707717 -8.3
  endloop
endfacet
facet normal -0.38268343236508595 -0.9238795325112884 -0.0
  outer loop
    vertex 340.21986170393984 196.08868255709567 -8.3
    vertex 341.18458552352973 195.68908086707717 0.0
    vertex 340.21986170393984 196.08868255709567 0.0
  endloop
endfacet
facet normal 0.0 0.0 1.0
  outer loop
    vertex 340.3915520119588 198.87471067311387 3.5000000000000004
    vertex 340.29746231513917 199.8797101423534 3.5000000000000004
    vertex 340.2783518184493 199.37101683594184 3.5000000000000004
  endloop
endfacet
facet normal 0.0 0.0 1.0
  outer loop
    vertex 340.29746231513917 199.8797101423534 3.5000000000000004
    vertex 340.3915520119588 198.87471067311387 3.5000000000000004
    vertex 340.4475811532606 200.36612398417196 3.5000000000000004
  endloop
endfacet
facet normal 0.0 0.0 1.0
  outer loop
    vertex 340.4475811532606 200.36612398417196 3.5000000000000004
    vertex 340.3915520119588 198.87471067311387 3.5000000000000004
    vertex 340.6293484895522 198.42461409868142 3.5000000000000004
  endloop
endfacet
facet normal 0.0 0.0 1.0
  outer loop
    vertex 340.4475811532606 200.36612398417196 3.5000000000000004
    vertex 340.6293484895522 198.42461409868142 3.5000000000000004
    vertex 340.71847798207875 200.7971100619145 3.5000000000000004
  endloop
endfacet
facet normal 0.0 0.0 1.0
  outer loop
    vertex 340.71847798207875 200.7971100619145 3.5000000000000004
    vertex 340.6293484895522 198.42461409868142 3.5000000000000004
    vertex 340.97553581425876 198.05140045037237 3.5000000000000004
  endloop
endfacet
facet normal 0.0 0.0 1.0
  outer loop
    vertex 340.71847798207875 200.7971100619145 3.5000000000000004
    vertex 340.97553581425876 198.05140045037237 3.5000000000000004
    vertex 341.0916916303878 201.14329738662104 3.5000000000000004
  endloop
endfacet
facet normal 0.0 0.0 1.0
  outer loop
    vertex 341.0916916303878 201.14329738662104 3.5000000000000004
    vertex 340.97553581425876 198.05140045037237 3.5000000000000004
    vertex 341.4065218920013 197.78050362155423 3.5000000000000004
  endloop
endfacet
facet normal 0.0 0.0 1.0
  outer loop
    vertex 341.0916916303878 201.14329738662104 3.5000000000000004
    vertex 341.4065218920013 197.78050362155423 3.5000000000000004
    vertex 341.54178820482025 201.38109386421445 3.5000000000000004
  endloop
endfacet
facet normal 0.0 0.0 1.0
  outer loop
    vertex 341.54178820482025 201.38109386421445 3.5000000000000004
    vertex 341.4065218920013 197.78050362155423 3.5000000000000004
    vertex 341.8929357338199 197.63038478343276 3.5000000000000004
  endloop
endfacet
facet normal 0.0 0.0 1.0
  outer loop
    vertex 341.54178820482025 201.38109386421445 3.5000000000000004
    vertex 341.8929357338199 197.63038478343276 3.5000000000000004
    vertex 342.0380943676482 201.49429405772398 3.5000000000000004
  endloop
endfacet
facet normal 0.0 0.0 1.0
  outer loop
    vertex 342.0380943676482 201.49429405772398 3.5000000000000004
    vertex 341.8929357338199 197.63038478343276 3.5000000000000004
    vertex 342.4016290402314 197.61127428674288 3.5000000000000004
  endloop
endfacet
facet normal 0.0 0.0 1.0
  outer loop
    vertex 342.0380943676482 201.49429405772398 3.5000000000000004
    vertex 342.4016290402314 197.61127428674288 3.5000000000000004
    vertex 342.5467876740598 201.4751835610341 3.5000000000000004
  endloop
endfacet
facet normal 0.0 0.0 1.0
  outer loop
    vertex 342.5467876740598 201.4751835610341 3.5000000000000004
    vertex 342.4016290402314 197.61127428674288 3.5000000000000004
    vertex 342.89793520305943 197.7244744802524 3.5000000000000004
  endloop
endfacet
facet normal 0.0 0.0 1.0
  outer loop
    vertex 342.5467876740598 201.4751835610341 3.5000000000000004
    vertex 342.89793520305943 197.7244744802524 3.5000000000000004
    vertex 343.0332015158784 201.32506472291266 3.5000000000000004
  endloop
endfacet
facet normal 0.0 0.0 1.0
  outer loop
    vertex 343.0332015158784 201.32506472291266 3.5000000000000004
    vertex 342.89793520305943 197.7244744802524 3.5000000000000004
    vertex 343.3480317774918 197.96227095784582 3.5000000000000004
  endloop
endfacet
facet normal 0.0 0.0 1.0
  outer loop
    vertex 343.0332015158784 201.32506472291266 3.5000000000000004
    vertex 343.3480317774918 197.96227095784582 3.5000000000000004
    vertex 343.4641875936209 201.05416789409452 3.5000000000000004
  endloop
endfacet
facet normal 0.0 0.0 1.0
  outer loop
    vertex 343.4641875936209 201.05416789409452 3.5000000000000004
    vertex 343.3480317774918 197.96227095784582 3.5000000000000004
    vertex 343.72124542580093 198.30845828255235 3.5000000000000004
  endloop
endfacet
facet normal 0.0 0.0 1.0
  outer loop
    vertex 343.4641875936209 201.05416789409452 3.5000000000000004
    vertex 343.72124542580093 198.30845828255235 3.5000000000000004
    vertex 343.81037491832745 200.68095424578544 3.5000000000000004
  endloop
endfacet
facet normal 0.0 0.0 1.0
  outer loop
    vertex 343.81037491832745 200.68095424578544 3.5000000000000004
    vertex 343.72124542580093 198.30845828255235 3.5000000000000004
    vertex 343.99214225461907 198.7394443602949 3.5000000000000004
  endloop
endfacet
facet normal 0.0 0.0 1.0
  outer loop
    vertex 343.81037491832745 200.68095424578544 3.5000000000000004
    vertex 343.99214225461907 198.7394443602949 3.5000000000000004
    vertex 344.04817139592086 200.230857671353 3.5000000000000004
  endloop
endfacet
facet normal 0.0 0.0 1.0
  outer loop
    vertex 344.04817139592086 200.230857671353 3.5000000000000004
    vertex 343.99214225461907 198.7394443602949 3.5000000000000004
    vertex 344.14226109274045 199.2258582021135 3.5000000000000004
  endloop
endfacet
facet normal 0.0 0.0 1.0
  outer loop
    vertex 344.04817139592086 200.230857671353 3.5000000000000004
    vertex 344.14226109274045 199.2258582021135 3.5000000000000004
    vertex 344.16137158943036 199.73455150852502 3.5000000000000004
  endloop
endfacet
facet normal 0.7331540561407318 0.6800625926812861 0.0
  outer loop
    vertex 343.4641875936209 201.05416789409452 0.0
    vertex 343.81037491832745 200.68095424578544 3.5000000000000004
    vertex 343.81037491832745 200.68095424578544 0.0
  endloop
endfacet
facet normal 0.7331540561407318 0.6800625926812861 0.0
  outer loop
    vertex 343.81037491832745 200.68095424578544 3.5000000000000004
    vertex 343.4641875936209 201.05416789409452 0.0
    vertex 343.4641875936209 201.05416789409452 3.5000000000000004
  endloop
endfacet
facet normal 0.29489874116480896 0.9555285094958763 0.0
  outer loop
    vertex 342.5467876740598 201.4751835610341 3.5000000000000004
    vertex 343.0332015158784 201.32506472291266 0.0
    vertex 342.5467876740598 201.4751835610341 0.0
  endloop
endfacet
facet normal 0.29489874116480896 0.9555285094958763 0.0
  outer loop
    vertex 343.0332015158784 201.32506472291266 0.0
    vertex 342.5467876740598 201.4751835610341 3.5000000000000004
    vertex 343.0332015158784 201.32506472291266 3.5000000000000004
  endloop
endfacet
facet normal -0.6800625926813099 0.7331540561407097 0.0
  outer loop
    vertex 340.71847798207875 200.7971100619145 3.5000000000000004
    vertex 341.0916916303878 201.14329738662104 0.0
    vertex 340.71847798207875 200.7971100619145 0.0
  endloop
endfacet
facet normal -0.6800625926813099 0.7331540561407097 0.0
  outer loop
    vertex 341.0916916303878 201.14329738662104 0.0
    vertex 340.71847798207875 200.7971100619145 3.5000000000000004
    vertex 341.0916916303878 201.14329738662104 3.5000000000000004
  endloop
endfacet
facet normal -0.4671357890406066 0.8841855883226157 0.0
  outer loop
    vertex 341.0916916303878 201.14329738662104 3.5000000000000004
    vertex 341.54178820482025 201.38109386421445 0.0
    vertex 341.0916916303878 201.14329738662104 0.0
  endloop
endfacet
facet normal -0.4671357890406066 0.8841855883226157 0.0
  outer loop
    vertex 341.54178820482025 201.38109386421445 0.0
    vertex 341.0916916303878 201.14329738662104 3.5000000000000004
    vertex 341.54178820482025 201.38109386421445 3.5000000000000004
  endloop
endfacet
facet normal 0.03754133383526038 0.9992950756677779 0.0
  outer loop
    vertex 342.0380943676482 201.49429405772398 3.5000000000000004
    vertex 342.5467876740598 201.4751835610341 0.0
    vertex 342.0380943676482 201.49429405772398 0.0
  endloop
endfacet
facet normal 0.03754133383526038 0.9992950756677779 0.0
  outer loop
    vertex 342.5467876740598 201.4751835610341 0.0
    vertex 342.0380943676482 201.49429405772398 3.5000000000000004
    vertex 342.5467876740598 201.4751835610341 3.5000000000000004
  endloop
endfacet
facet normal 0.8466442544873525 -0.5321592866271858 0.0
  outer loop
    vertex 343.99214225461907 198.7394443602949 0.0
    vertex 343.72124542580093 198.30845828255235 3.5000000000000004
    vertex 343.72124542580093 198.30845828255235 0.0
  endloop
endfacet
facet normal 0.8466442544873525 -0.5321592866271858 0.0
  outer loop
    vertex 343.72124542580093 198.30845828255235 3.5000000000000004
    vertex 343.99214225461907 198.7394443602949 0.0
    vertex 343.99214225461907 198.7394443602949 3.5000000000000004
  endloop
endfacet
facet normal -0.222374453355177 0.9749613338461101 0.0
  outer loop
    vertex 341.54178820482025 201.38109386421445 3.5000000000000004
    vertex 342.0380943676482 201.49429405772398 0.0
    vertex 341.54178820482025 201.38109386421445 0.0
  endloop
endfacet
facet normal -0.222374453355177 0.9749613338461101 0.0
  outer loop
    vertex 342.0380943676482 201.49429405772398 0.0
    vertex 341.54178820482025 201.38109386421445 3.5000000000000004
    vertex 342.0380943676482 201.49429405772398 3.5000000000000004
  endloop
endfacet
facet normal 0.955528509495885 -0.294898741164781 0.0
  outer loop
    vertex 344.14226109274045 199.2258582021135 0.0
    vertex 343.99214225461907 198.7394443602949 3.5000000000000004
    vertex 343.99214225461907 198.7394443602949 0.0
  endloop
endfacet
facet normal 0.955528509495885 -0.294898741164781 0.0
  outer loop
    vertex 343.99214225461907 198.7394443602949 3.5000000000000004
    vertex 344.14226109274045 199.2258582021135 0.0
    vertex 344.14226109274045 199.2258582021135 3.5000000000000004
  endloop
endfacet
facet normal 0.9992950756677779 -0.03754133383526038 0.0
  outer loop
    vertex 344.16137158943036 199.73455150852502 0.0
    vertex 344.14226109274045 199.2258582021135 3.5000000000000004
    vertex 344.14226109274045 199.2258582021135 0.0
  endloop
endfacet
facet normal 0.9992950756677779 -0.03754133383526038 0.0
  outer loop
    vertex 344.14226109274045 199.2258582021135 3.5000000000000004
    vertex 344.16137158943036 199.73455150852502 0.0
    vertex 344.16137158943036 199.73455150852502 3.5000000000000004
  endloop
endfacet
facet normal 0.8841855883226254 0.4671357890405883 0.0
  outer loop
    vertex 343.81037491832745 200.68095424578544 0.0
    vertex 344.04817139592086 200.230857671353 3.5000000000000004
    vertex 344.04817139592086 200.230857671353 0.0
  endloop
endfacet
facet normal 0.8841855883226254 0.4671357890405883 0.0
  outer loop
    vertex 344.04817139592086 200.230857671353 3.5000000000000004
    vertex 343.81037491832745 200.68095424578544 0.0
    vertex 343.81037491832745 200.68095424578544 3.5000000000000004
  endloop
endfacet
facet normal 0.9749613338461176 0.2223744533551445 0.0
  outer loop
    vertex 344.04817139592086 200.230857671353 0.0
    vertex 344.16137158943036 199.73455150852502 3.5000000000000004
    vertex 344.16137158943036 199.73455150852502 0.0
  endloop
endfacet
facet normal 0.9749613338461176 0.2223744533551445 0.0
  outer loop
    vertex 344.16137158943036 199.73455150852502 3.5000000000000004
    vertex 344.04817139592086 200.230857671353 0.0
    vertex 344.04817139592086 200.230857671353 3.5000000000000004
  endloop
endfacet
facet normal 0.5321592866271858 0.8466442544873525 0.0
  outer loop
    vertex 343.0332015158784 201.32506472291266 3.5000000000000004
    vertex 343.4641875936209 201.05416789409452 0.0
    vertex 343.0332015158784 201.32506472291266 0.0
  endloop
endfacet
facet normal 0.5321592866271858 0.8466442544873525 0.0
  outer loop
    vertex 343.4641875936209 201.05416789409452 0.0
    vertex 343.0332015158784 201.32506472291266 3.5000000000000004
    vertex 343.4641875936209 201.05416789409452 3.5000000000000004
  endloop
endfacet
facet normal -0.5321592866271858 -0.8466442544873525 -0.0
  outer loop
    vertex 341.4065218920013 197.78050362155423 3.5000000000000004
    vertex 340.97553581425876 198.05140045037237 0.0
    vertex 341.4065218920013 197.78050362155423 0.0
  endloop
endfacet
facet normal -0.5321592866271858 -0.8466442544873525 -0.0
  outer loop
    vertex 340.97553581425876 198.05140045037237 0.0
    vertex 341.4065218920013 197.78050362155423 3.5000000000000004
    vertex 340.97553581425876 198.05140045037237 3.5000000000000004
  endloop
endfacet
facet normal 0.222374453355177 -0.9749613338461101 0.0
  outer loop
    vertex 342.89793520305943 197.7244744802524 3.5000000000000004
    vertex 342.4016290402314 197.61127428674288 0.0
    vertex 342.89793520305943 197.7244744802524 0.0
  endloop
endfacet
facet normal 0.222374453355177 -0.9749613338461101 0.0
  outer loop
    vertex 342.4016290402314 197.61127428674288 0.0
    vertex 342.89793520305943 197.7244744802524 3.5000000000000004
    vertex 342.4016290402314 197.61127428674288 3.5000000000000004
  endloop
endfacet
facet normal 0.4671357890406066 -0.8841855883226157 0.0
  outer loop
    vertex 343.3480317774918 197.96227095784582 3.5000000000000004
    vertex 342.89793520305943 197.7244744802524 0.0
    vertex 343.3480317774918 197.96227095784582 0.0
  endloop
endfacet
facet normal 0.4671357890406066 -0.8841855883226157 0.0
  outer loop
    vertex 342.89793520305943 197.7244744802524 0.0
    vertex 343.3480317774918 197.96227095784582 3.5000000000000004
    vertex 342.89793520305943 197.7244744802524 3.5000000000000004
  endloop
endfacet
facet normal -0.03754133383526038 -0.9992950756677779 -0.0
  outer loop
    vertex 342.4016290402314 197.61127428674288 3.5000000000000004
    vertex 341.8929357338199 197.63038478343276 0.0
    vertex 342.4016290402314 197.61127428674288 0.0
  endloop
endfacet
facet normal -0.03754133383526038 -0.9992950756677779 -0.0
  outer loop
    vertex 341.8929357338199 197.63038478343276 0.0
    vertex 342.4016290402314 197.61127428674288 3.5000000000000004
    vertex 341.8929357338199 197.63038478343276 3.5000000000000004
  endloop
endfacet
facet normal 0.6800625926813099 -0.7331540561407097 0.0
  outer loop
    vertex 343.72124542580093 198.30845828255235 3.5000000000000004
    vertex 343.3480317774918 197.96227095784582 0.0
    vertex 343.72124542580093 198.30845828255235 0.0
  endloop
endfacet
facet normal 0.6800625926813099 -0.7331540561407097 0.0
  outer loop
    vertex 343.3480317774918 197.96227095784582 0.0
    vertex 343.72124542580093 198.30845828255235 3.5000000000000004
    vertex 343.3480317774918 197.96227095784582 3.5000000000000004
  endloop
endfacet
facet normal -0.7331540561407318 -0.6800625926812861 -0.0
  outer loop
    vertex 340.6293484895522 198.42461409868142 3.5000000000000004
    vertex 340.97553581425876 198.05140045037237 0.0
    vertex 340.97553581425876 198.05140045037237 3.5000000000000004
  endloop
endfacet
facet normal -0.7331540561407318 -0.6800625926812861 -0.0
  outer loop
    vertex 340.97553581425876 198.05140045037237 0.0
    vertex 340.6293484895522 198.42461409868142 3.5000000000000004
    vertex 340.6293484895522 198.42461409868142 0.0
  endloop
endfacet
facet normal -0.29489874116480896 -0.9555285094958763 -0.0
  outer loop
    vertex 341.8929357338199 197.63038478343276 3.5000000000000004
    vertex 341.4065218920013 197.78050362155423 0.0
    vertex 341.8929357338199 197.63038478343276 0.0
  endloop
endfacet
facet normal -0.29489874116480896 -0.9555285094958763 -0.0
  outer loop
    vertex 341.4065218920013 197.78050362155423 0.0
    vertex 341.8929357338199 197.63038478343276 3.5000000000000004
    vertex 341.4065218920013 197.78050362155423 3.5000000000000004
  endloop
endfacet
facet normal -0.8841855883226254 -0.4671357890405883 -0.0
  outer loop
    vertex 340.3915520119588 198.87471067311387 3.5000000000000004
    vertex 340.6293484895522 198.42461409868142 0.0
    vertex 340.6293484895522 198.42461409868142 3.5000000000000004
  endloop
endfacet
facet normal -0.8841855883226254 -0.4671357890405883 -0.0
  outer loop
    vertex 340.6293484895522 198.42461409868142 0.0
    vertex 340.3915520119588 198.87471067311387 3.5000000000000004
    vertex 340.3915520119588 198.87471067311387 0.0
  endloop
endfacet
facet normal -0.955528509495885 0.294898741164781 0.0
  outer loop
    vertex 340.4475811532606 200.36612398417196 3.5000000000000004
    vertex 340.29746231513917 199.8797101423534 0.0
    vertex 340.29746231513917 199.8797101423534 3.5000000000000004
  endloop
endfacet
facet normal -0.955528509495885 0.294898741164781 0.0
  outer loop
    vertex 340.29746231513917 199.8797101423534 0.0
    vertex 340.4475811532606 200.36612398417196 3.5000000000000004
    vertex 340.4475811532606 200.36612398417196 0.0
  endloop
endfacet
facet normal -0.9749613338461176 -0.2223744533551445 -0.0
  outer loop
    vertex 340.2783518184493 199.37101683594184 3.5000000000000004
    vertex 340.3915520119588 198.87471067311387 0.0
    vertex 340.3915520119588 198.87471067311387 3.5000000000000004
  endloop
endfacet
facet normal -0.9749613338461176 -0.2223744533551445 -0.0
  outer loop
    vertex 340.3915520119588 198.87471067311387 0.0
    vertex 340.2783518184493 199.37101683594184 3.5000000000000004
    vertex 340.2783518184493 199.37101683594184 0.0
  endloop
endfacet
facet normal -0.9992950756677779 0.03754133383526038 0.0
  outer loop
    vertex 340.29746231513917 199.8797101423534 3.5000000000000004
    vertex 340.2783518184493 199.37101683594184 0.0
    vertex 340.2783518184493 199.37101683594184 3.5000000000000004
  endloop
endfacet
facet normal -0.9992950756677779 0.03754133383526038 0.0
  outer loop
    vertex 340.2783518184493 199.37101683594184 0.0
    vertex 340.29746231513917 199.8797101423534 3.5000000000000004
    vertex 340.29746231513917 199.8797101423534 0.0
  endloop
endfacet
facet normal 0.0 0.0 1.0
  outer loop
    vertex 338.3561583987835 198.51750799182335 0.0
    vertex 338.3561583987836 200.58806035264354 0.0
    vertex 338.21986170393984 199.55278417223343 0.0
  endloop
endfacet
facet normal 0.0 0.0 1.0
  outer loop
    vertex 338.3561583987836 200.58806035264354 0.0
    vertex 338.3561583987835 198.51750799182335 0.0
    vertex 338.7557600888021 197.55278417223343 0.0
  endloop
endfacet
facet normal 0.0 0.0 1.0
  outer loop
    vertex 338.3561583987836 200.58806035264354 0.0
    vertex 338.7557600888021 197.55278417223343 0.0
    vertex 338.7557600888021 201.55278417223343 0.0
  endloop
endfacet
facet normal 0.0 0.0 1.0
  outer loop
    vertex 338.7557600888021 201.55278417223343 0.0
    vertex 338.7557600888021 197.55278417223343 0.0
    vertex 339.39143457919363 196.72435704748725 0.0
  endloop
endfacet
facet normal 0.0 0.0 1.0
  outer loop
    vertex 338.7557600888021 201.55278417223343 0.0
    vertex 339.39143457919363 196.72435704748725 0.0
    vertex 339.39143457919363 202.38121129697961 0.0
  endloop
endfacet
facet normal 0.0 0.0 1.0
  outer loop
    vertex 339.39143457919363 202.38121129697961 0.0
    vertex 339.39143457919363 196.72435704748725 0.0
    vertex 340.21986170393984 196.08868255709567 0.0
  endloop
endfacet
facet normal 0.0 0.0 1.0
  outer loop
    vertex 339.39143457919363 202.38121129697961 0.0
    vertex 340.21986170393984 196.08868255709567 0.0
    vertex 340.21986170393984 203.0168857873712 0.0
  endloop
endfacet
facet normal 0.0 0.0 1.0
  outer loop
    vertex 340.21986170393984 203.0168857873712 0.0
    vertex 340.21986170393984 196.08868255709567 0.0
    vertex 340.2783518184493 199.37101683594184 0.0
  endloop
endfacet
facet normal 0.0 0.0 1.0
  outer loop
    vertex 340.2783518184493 199.37101683594184 0.0
    vertex 340.21986170393984 196.08868255709567 0.0
    vertex 340.3915520119588 198.87471067311387 0.0
  endloop
endfacet
facet normal 0.0 0.0 1.0
  outer loop
    vertex 340.3915520119588 198.87471067311387 0.0
    vertex 340.21986170393984 196.08868255709567 0.0
    vertex 341.18458552352973 195.68908086707717 0.0
  endloop
endfacet
facet normal 0.0 0.0 1.0
  outer loop
    vertex 340.3915520119588 198.87471067311387 0.0
    vertex 341.18458552352973 195.68908086707717 0.0
    vertex 340.6293484895522 198.42461409868142 0.0
  endloop
endfacet
facet normal 0.0 0.0 1.0
  outer loop
    vertex 340.6293484895522 198.42461409868142 0.0
    vertex 341.18458552352973 195.68908086707717 0.0
    vertex 340.97553581425876 198.05140045037237 0.0
  endloop
endfacet
facet normal 0.0 0.0 1.0
  outer loop
    vertex 340.97553581425876 198.05140045037237 0.0
    vertex 341.18458552352973 195.68908086707717 0.0
    vertex 341.4065218920013 197.78050362155423 0.0
  endloop
endfacet
facet normal 0.0 0.0 1.0
  outer loop
    vertex 341.4065218920013 197.78050362155423 0.0
    vertex 341.18458552352973 195.68908086707717 0.0
    vertex 342.21986170393984 195.55278417223343 0.0
  endloop
endfacet
facet normal 0.0 0.0 1.0
  outer loop
    vertex 341.4065218920013 197.78050362155423 0.0
    vertex 342.21986170393984 195.55278417223343 0.0
    vertex 341.8929357338199 197.63038478343276 0.0
  endloop
endfacet
facet normal 0.0 0.0 1.0
  outer loop
    vertex 341.8929357338199 197.63038478343276 0.0
    vertex 342.21986170393984 195.55278417223343 0.0
    vertex 342.4016290402314 197.61127428674288 0.0
  endloop
endfacet
facet normal 0.0 0.0 1.0
  outer loop
    vertex 342.4016290402314 197.61127428674288 0.0
    vertex 342.21986170393984 195.55278417223343 0.0
    vertex 343.25513788434995 195.68908086707717 0.0
  endloop
endfacet
facet normal 0.0 0.0 1.0
  outer loop
    vertex 342.4016290402314 197.61127428674288 0.0
    vertex 343.25513788434995 195.68908086707717 0.0
    vertex 342.89793520305943 197.7244744802524 0.0
  endloop
endfacet
facet normal 0.0 0.0 1.0
  outer loop
    vertex 342.89793520305943 197.7244744802524 0.0
    vertex 343.25513788434995 195.68908086707717 0.0
    vertex 343.3480317774918 197.96227095784582 0.0
  endloop
endfacet
facet normal 0.0 0.0 1.0
  outer loop
    vertex 343.3480317774918 197.96227095784582 0.0
    vertex 343.25513788434995 195.68908086707717 0.0
    vertex 344.21986170393984 196.08868255709567 0.0
  endloop
endfacet
facet normal 0.0 0.0 1.0
  outer loop
    vertex 343.3480317774918 197.96227095784582 0.0
    vertex 344.21986170393984 196.08868255709567 0.0
    vertex 343.72124542580093 198.30845828255235 0.0
  endloop
endfacet
facet normal 0.0 0.0 1.0
  outer loop
    vertex 343.72124542580093 198.30845828255235 0.0
    vertex 344.21986170393984 196.08868255709567 0.0
    vertex 343.99214225461907 198.7394443602949 0.0
  endloop
endfacet
facet normal 0.0 0.0 1.0
  outer loop
    vertex 343.99214225461907 198.7394443602949 0.0
    vertex 344.21986170393984 196.08868255709567 0.0
    vertex 344.14226109274045 199.2258582021135 0.0
  endloop
endfacet
facet normal 0.0 0.0 1.0
  outer loop
    vertex 344.14226109274045 199.2258582021135 0.0
    vertex 344.21986170393984 196.08868255709567 0.0
    vertex 344.16137158943036 199.73455150852502 0.0
  endloop
endfacet
facet normal 0.0 0.0 1.0
  outer loop
    vertex 340.21986170393984 203.0168857873712 0.0
    vertex 340.29746231513917 199.8797101423534 0.0
    vertex 341.18458552352973 203.41648747738972 0.0
  endloop
endfacet
facet normal 0.0 0.0 1.0
  outer loop
    vertex 340.29746231513917 199.8797101423534 0.0
    vertex 340.21986170393984 203.0168857873712 0.0
    vertex 340.2783518184493 199.37101683594184 0.0
  endloop
endfacet
facet normal 0.0 0.0 1.0
  outer loop
    vertex 341.18458552352973 203.41648747738972 0.0
    vertex 340.29746231513917 199.8797101423534 0.0
    vertex 340.4475811532606 200.36612398417196 0.0
  endloop
endfacet
facet normal 0.0 0.0 1.0
  outer loop
    vertex 341.18458552352973 203.41648747738972 0.0
    vertex 340.4475811532606 200.36612398417196 0.0
    vertex 340.71847798207875 200.7971100619145 0.0
  endloop
endfacet
facet normal 0.0 0.0 1.0
  outer loop
    vertex 341.18458552352973 203.41648747738972 0.0
    vertex 340.71847798207875 200.7971100619145 0.0
    vertex 341.0916916303878 201.14329738662104 0.0
  endloop
endfacet
facet normal 0.0 0.0 1.0
  outer loop
    vertex 341.18458552352973 203.41648747738972 0.0
    vertex 341.0916916303878 201.14329738662104 0.0
    vertex 341.54178820482025 201.38109386421445 0.0
  endloop
endfacet
facet normal 0.0 0.0 1.0
  outer loop
    vertex 341.18458552352973 203.41648747738972 0.0
    vertex 341.54178820482025 201.38109386421445 0.0
    vertex 342.21986170393984 203.55278417223343 0.0
  endloop
endfacet
facet normal 0.0 0.0 1.0
  outer loop
    vertex 342.21986170393984 203.55278417223343 0.0
    vertex 341.54178820482025 201.38109386421445 0.0
    vertex 342.0380943676482 201.49429405772398 0.0
  endloop
endfacet
facet normal 0.0 0.0 1.0
  outer loop
    vertex 342.21986170393984 203.55278417223343 0.0
    vertex 342.0380943676482 201.49429405772398 0.0
    vertex 342.5467876740598 201.4751835610341 0.0
  endloop
endfacet
facet normal 0.0 0.0 1.0
  outer loop
    vertex 342.21986170393984 203.55278417223343 0.0
    vertex 342.5467876740598 201.4751835610341 0.0
    vertex 343.25513788434995 203.41648747738967 0.0
  endloop
endfacet
facet normal 0.0 0.0 1.0
  outer loop
    vertex 343.25513788434995 203.41648747738967 0.0
    vertex 342.5467876740598 201.4751835610341 0.0
    vertex 343.0332015158784 201.32506472291266 0.0
  endloop
endfacet
facet normal 0.0 0.0 1.0
  outer loop
    vertex 343.25513788434995 203.41648747738967 0.0
    vertex 343.0332015158784 201.32506472291266 0.0
    vertex 343.4641875936209 201.05416789409452 0.0
  endloop
endfacet
facet normal 0.0 0.0 1.0
  outer loop
    vertex 343.25513788434995 203.41648747738967 0.0
    vertex 343.4641875936209 201.05416789409452 0.0
    vertex 344.21986170393984 203.0168857873712 0.0
  endloop
endfacet
facet normal 0.0 0.0 1.0
  outer loop
    vertex 344.21986170393984 203.0168857873712 0.0
    vertex 343.4641875936209 201.05416789409452 0.0
    vertex 343.81037491832745 200.68095424578544 0.0
  endloop
endfacet
facet normal 0.0 0.0 1.0
  outer loop
    vertex 344.21986170393984 203.0168857873712 0.0
    vertex 343.81037491832745 200.68095424578544 0.0
    vertex 344.04817139592086 200.230857671353 0.0
  endloop
endfacet
facet normal 0.0 0.0 1.0
  outer loop
    vertex 344.21986170393984 203.0168857873712 0.0
    vertex 344.04817139592086 200.230857671353 0.0
    vertex 344.16137158943036 199.73455150852502 0.0
  endloop
endfacet
facet normal 0.0 0.0 1.0
  outer loop
    vertex 344.21986170393984 203.0168857873712 0.0
    vertex 344.16137158943036 199.73455150852502 0.0
    vertex 344.21986170393984 196.08868255709567 0.0
  endloop
endfacet
facet normal 0.0 0.0 1.0
  outer loop
    vertex 344.21986170393984 203.0168857873712 0.0
    vertex 344.21986170393984 196.08868255709567 0.0
    vertex 345.04828882868605 196.72435704748725 0.0
  endloop
endfacet
facet normal 0.0 0.0 1.0
  outer loop
    vertex 344.21986170393984 203.0168857873712 0.0
    vertex 345.04828882868605 196.72435704748725 0.0
    vertex 345.04828882868605 202.38121129697961 0.0
  endloop
endfacet
facet normal 0.0 0.0 1.0
  outer loop
    vertex 345.04828882868605 202.38121129697961 0.0
    vertex 345.04828882868605 196.72435704748725 0.0
    vertex 345.6839633190776 197.55278417223343 0.0
  endloop
endfacet
facet normal 0.0 0.0 1.0
  outer loop
    vertex 345.04828882868605 202.38121129697961 0.0
    vertex 345.6839633190776 197.55278417223343 0.0
    vertex 345.6839633190776 201.55278417223343 0.0
  endloop
endfacet
facet normal 0.0 0.0 1.0
  outer loop
    vertex 345.6839633190776 201.55278417223343 0.0
    vertex 345.6839633190776 197.55278417223343 0.0
    vertex 346.08356500909605 198.51750799182335 0.0
  endloop
endfacet
facet normal 0.0 0.0 1.0
  outer loop
    vertex 345.6839633190776 201.55278417223343 0.0
    vertex 346.08356500909605 198.51750799182335 0.0
    vertex 346.0835650090961 200.5880603526435 0.0
  endloop
endfacet
facet normal 0.0 0.0 1.0
  outer loop
    vertex 346.0835650090961 200.5880603526435 0.0
    vertex 346.08356500909605 198.51750799182335 0.0
    vertex 346.21986170393984 199.55278417223343 0.0
  endloop
endfacet
facet normal 0.0 0.0 -1.0
  outer loop
    vertex 340.71847798207875 200.7971100619145 -8.3
    vertex 343.99214225461907 198.7394443602949 -8.3
    vertex 340.4475811532606 200.36612398417196 -8.3
  endloop
endfacet
facet normal 0.0 0.0 -1.0
  outer loop
    vertex 343.99214225461907 198.7394443602949 -8.3
    vertex 340.71847798207875 200.7971100619145 -8.3
    vertex 341.0916916303878 201.14329738662104 -8.3
  endloop
endfacet
facet normal 0.0 0.0 -1.0
  outer loop
    vertex 343.99214225461907 198.7394443602949 -8.3
    vertex 341.0916916303878 201.14329738662104 -8.3
    vertex 341.54178820482025 201.38109386421445 -8.3
  endloop
endfacet
facet normal 0.0 0.0 -1.0
  outer loop
    vertex 343.99214225461907 198.7394443602949 -8.3
    vertex 341.54178820482025 201.38109386421445 -8.3
    vertex 342.0380943676482 201.49429405772398 -8.3
  endloop
endfacet
facet normal 0.0 0.0 -1.0
  outer loop
    vertex 343.99214225461907 198.7394443602949 -8.3
    vertex 342.0380943676482 201.49429405772398 -8.3
    vertex 342.5467876740598 201.4751835610341 -8.3
  endloop
endfacet
facet normal 0.0 0.0 -1.0
  outer loop
    vertex 343.99214225461907 198.7394443602949 -8.3
    vertex 342.5467876740598 201.4751835610341 -8.3
    vertex 343.0332015158784 201.32506472291266 -8.3
  endloop
endfacet
facet normal 0.0 0.0 -1.0
  outer loop
    vertex 343.99214225461907 198.7394443602949 -8.3
    vertex 343.0332015158784 201.32506472291266 -8.3
    vertex 343.4641875936209 201.05416789409452 -8.3
  endloop
endfacet
facet normal 0.0 0.0 -1.0
  outer loop
    vertex 343.99214225461907 198.7394443602949 -8.3
    vertex 343.4641875936209 201.05416789409452 -8.3
    vertex 343.81037491832745 200.68095424578544 -8.3
  endloop
endfacet
facet normal 0.0 0.0 -1.0
  outer loop
    vertex 343.99214225461907 198.7394443602949 -8.3
    vertex 343.81037491832745 200.68095424578544 -8.3
    vertex 344.04817139592086 200.230857671353 -8.3
  endloop
endfacet
facet normal 0.0 0.0 -1.0
  outer loop
    vertex 343.99214225461907 198.7394443602949 -8.3
    vertex 344.04817139592086 200.230857671353 -8.3
    vertex 344.14226109274045 199.2258582021135 -8.3
  endloop
endfacet
facet normal 0.0 0.0 -1.0
  outer loop
    vertex 344.14226109274045 199.2258582021135 -8.3
    vertex 344.04817139592086 200.230857671353 -8.3
    vertex 344.16137158943036 199.73455150852502 -8.3
  endloop
endfacet
facet normal 0.0 0.0 -1.0
  outer loop
    vertex 340.29746231513917 199.8797101423534 -8.3
    vertex 340.3915520119588 198.87471067311387 -8.3
    vertex 340.2783518184493 199.37101683594184 -8.3
  endloop
endfacet
facet normal 0.0 0.0 -1.0
  outer loop
    vertex 340.3915520119588 198.87471067311387 -8.3
    vertex 340.29746231513917 199.8797101423534 -8.3
    vertex 340.4475811532606 200.36612398417196 -8.3
  endloop
endfacet
facet normal 0.0 0.0 -1.0
  outer loop
    vertex 340.3915520119588 198.87471067311387 -8.3
    vertex 340.4475811532606 200.36612398417196 -8.3
    vertex 340.6293484895522 198.42461409868142 -8.3
  endloop
endfacet
facet normal 0.0 0.0 -1.0
  outer loop
    vertex 340.6293484895522 198.42461409868142 -8.3
    vertex 340.4475811532606 200.36612398417196 -8.3
    vertex 343.99214225461907 198.7394443602949 -8.3
  endloop
endfacet
facet normal 0.0 0.0 -1.0
  outer loop
    vertex 340.6293484895522 198.42461409868142 -8.3
    vertex 343.99214225461907 198.7394443602949 -8.3
    vertex 340.97553581425876 198.05140045037237 -8.3
  endloop
endfacet
facet normal 0.0 0.0 -1.0
  outer loop
    vertex 340.97553581425876 198.05140045037237 -8.3
    vertex 343.99214225461907 198.7394443602949 -8.3
    vertex 341.4065218920013 197.78050362155423 -8.3
  endloop
endfacet
facet normal 0.0 0.0 -1.0
  outer loop
    vertex 341.4065218920013 197.78050362155423 -8.3
    vertex 343.99214225461907 198.7394443602949 -8.3
    vertex 341.8929357338199 197.63038478343276 -8.3
  endloop
endfacet
facet normal 0.0 0.0 -1.0
  outer loop
    vertex 341.8929357338199 197.63038478343276 -8.3
    vertex 343.99214225461907 198.7394443602949 -8.3
    vertex 342.4016290402314 197.61127428674288 -8.3
  endloop
endfacet
facet normal 0.0 0.0 -1.0
  outer loop
    vertex 342.4016290402314 197.61127428674288 -8.3
    vertex 343.99214225461907 198.7394443602949 -8.3
    vertex 342.89793520305943 197.7244744802524 -8.3
  endloop
endfacet
facet normal 0.0 0.0 -1.0
  outer loop
    vertex 342.89793520305943 197.7244744802524 -8.3
    vertex 343.99214225461907 198.7394443602949 -8.3
    vertex 343.3480317774918 197.96227095784582 -8.3
  endloop
endfacet
facet normal 0.0 0.0 -1.0
  outer loop
    vertex 343.3480317774918 197.96227095784582 -8.3
    vertex 343.99214225461907 198.7394443602949 -8.3
    vertex 343.72124542580093 198.30845828255235 -8.3
  endloop
endfacet
endsolid CheckMateKBCase_1
