solid Holder_front_under_Spacebar_right
facet normal 4.998074048909479e-18 8.75643058365941e-18 -1.0
  outer loop
    vertex 4.343990735822811 4.535388019462677 6.358286899091301e-17
    vertex 0.0 0.0 0.0
    vertex 0.0 3.847367477994412 0.0
  endloop
endfacet
facet normal 4.998074048909479e-18 8.75643058365941e-18 -1.0
  outer loop
    vertex 0.0 0.0 0.0
    vertex 4.343990735822811 4.535388019462677 6.358286899091301e-17
    vertex 4.9384417029756875 0.7821723252011545 0.0
  endloop
endfacet
facet normal -0.0 -0.0 1.0
  outer loop
    vertex 0.0 0.0 7.999999999999999
    vertex -12.999999999999998 10.9 7.999999999999999
    vertex -12.999999999999998 0.0 7.999999999999999
  endloop
endfacet
facet normal -0.0 -0.0 1.0
  outer loop
    vertex -12.999999999999998 10.9 7.999999999999999
    vertex 0.0 0.0 7.999999999999999
    vertex -2.5726891745143776 4.959681498913395 7.999999999999999
  endloop
endfacet
facet normal -0.0 -0.0 1.0
  outer loop
    vertex -2.5726891745143776 4.959681498913395 7.999999999999999
    vertex 0.0 0.0 7.999999999999999
    vertex -1.5821393077480148 5.0967812292212935 7.999999999999999
  endloop
endfacet
facet normal -0.0 -0.0 1.0
  outer loop
    vertex -1.5821393077480148 5.0967812292212935 7.999999999999999
    vertex 0.0 0.0 7.999999999999999
    vertex -0.8262137129340885 5.216508081482891 7.999999999999999
  endloop
endfacet
facet normal -0.0 -0.0 1.0
  outer loop
    vertex -0.8262137129340885 5.216508081482891 7.999999999999999
    vertex 0.0 0.0 7.999999999999999
    vertex -0.5944509671528776 3.753215694261524 7.999999999999999
  endloop
endfacet
facet normal -0.0 -0.0 1.0
  outer loop
    vertex -0.5944509671528776 3.753215694261524 7.999999999999999
    vertex 0.0 0.0 7.999999999999999
    vertex 0.0 3.847367477994412 7.999999999999999
  endloop
endfacet
facet normal -0.0 -0.0 1.0
  outer loop
    vertex -2.5726891745143776 12.343781498913394 7.999999999999999
    vertex -12.999999999999998 10.9 7.999999999999999
    vertex -2.5726891745143776 4.959681498913395 7.999999999999999
  endloop
endfacet
facet normal -1.0 0.0 0.0
  outer loop
    vertex -12.999999999999998 10.9 7.999999999999999
    vertex -12.999999999999998 0.0 0.0
    vertex -12.999999999999998 0.0 7.999999999999999
  endloop
endfacet
facet normal -1.0 0.0 0.0
  outer loop
    vertex -12.999999999999998 0.0 0.0
    vertex -12.999999999999998 10.9 7.999999999999999
    vertex -12.999999999999998 10.9 0.0
  endloop
endfacet
facet normal -0.0 -0.0 1.0
  outer loop
    vertex -12.999999999999998 0.0 7.999999999999999
    vertex -0.9876883405951394 -0.15643446504023117 7.999999999999999
    vertex 0.0 0.0 7.999999999999999
  endloop
endfacet
facet normal -0.0 -0.0 1.0
  outer loop
    vertex -0.9876883405951394 -0.15643446504023117 7.999999999999999
    vertex -12.999999999999998 0.0 7.999999999999999
    vertex -12.986447183257152 -2.6959195727419467 7.999999999999999
  endloop
endfacet
facet normal -0.0 -0.0 1.0
  outer loop
    vertex -0.9876883405951394 -0.15643446504023117 7.999999999999999
    vertex -12.986447183257152 -2.6959195727419467 7.999999999999999
    vertex -12.91911453441827 -3.0863069461573427 7.999999999999999
  endloop
endfacet
facet normal -0.0 -0.0 1.0
  outer loop
    vertex -0.9876883405951394 -0.15643446504023117 7.999999999999999
    vertex -12.91911453441827 -3.0863069461573427 7.999999999999999
    vertex -12.799256099532274 -3.4638912976716907 7.999999999999999
  endloop
endfacet
facet normal -0.0 -0.0 1.0
  outer loop
    vertex -0.9876883405951394 -0.15643446504023117 7.999999999999999
    vertex -12.799256099532274 -3.4638912976716907 7.999999999999999
    vertex -12.629104198273048 -3.8216402563280405 7.999999999999999
  endloop
endfacet
facet normal -0.0 -0.0 1.0
  outer loop
    vertex -0.9876883405951394 -0.15643446504023117 7.999999999999999
    vertex -12.629104198273048 -3.8216402563280405 7.999999999999999
    vertex -12.411827847798977 -4.152890878133495 7.999999999999999
  endloop
endfacet
facet normal -0.0 -0.0 1.0
  outer loop
    vertex -0.9876883405951394 -0.15643446504023117 7.999999999999999
    vertex -12.411827847798977 -4.152890878133495 7.999999999999999
    vertex -12.151473740963132 -4.451473740963133 7.999999999999999
  endloop
endfacet
facet normal -0.0 -0.0 1.0
  outer loop
    vertex -0.9876883405951394 -0.15643446504023117 7.999999999999999
    vertex -12.151473740963132 -4.451473740963133 7.999999999999999
    vertex -11.852890878133495 -4.7118278477989755 7.999999999999999
  endloop
endfacet
facet normal -0.0 -0.0 1.0
  outer loop
    vertex -0.9876883405951394 -0.15643446504023117 7.999999999999999
    vertex -11.852890878133495 -4.7118278477989755 7.999999999999999
    vertex -11.521640256328041 -4.929104198273047 7.999999999999999
  endloop
endfacet
facet normal -0.0 -0.0 1.0
  outer loop
    vertex -0.9876883405951394 -0.15643446504023117 7.999999999999999
    vertex -11.521640256328041 -4.929104198273047 7.999999999999999
    vertex -11.163891297671691 -5.099256099532273 7.999999999999999
  endloop
endfacet
facet normal -0.0 -0.0 1.0
  outer loop
    vertex -0.9876883405951394 -0.15643446504023117 7.999999999999999
    vertex -11.163891297671691 -5.099256099532273 7.999999999999999
    vertex -10.786306946157342 -5.21911453441827 7.999999999999999
  endloop
endfacet
facet normal -0.0 -0.0 1.0
  outer loop
    vertex -0.9876883405951394 -0.15643446504023117 7.999999999999999
    vertex -10.786306946157342 -5.21911453441827 7.999999999999999
    vertex -10.395919572741946 -5.286447183257151 7.999999999999999
  endloop
endfacet
facet normal -0.0 -0.0 1.0
  outer loop
    vertex -0.9876883405951394 -0.15643446504023117 7.999999999999999
    vertex -10.395919572741946 -5.286447183257151 7.999999999999999
    vertex -0.9876883405951394 -5.299999999999999 7.999999999999999
  endloop
endfacet
facet normal -0.9999915169078176 -0.004094908746568862 0.0004447861951833884
  outer loop
    vertex -12.999999999999998 0.0 7.999999999999999
    vertex -12.986447183257152 -2.6959195727419467 0.0
    vertex -12.986447183257152 -2.6959195727419467 7.999999999999999
  endloop
endfacet
facet normal -0.9999915169078176 -0.004094908746568862 0.0004447861951833884
  outer loop
    vertex -12.986447183257152 -2.6959195727419467 0.0
    vertex -12.999999999999998 0.0 7.999999999999999
    vertex -12.999999999999998 -2.2999999999999994 0.0
  endloop
endfacet
facet normal -0.9999915169078176 -0.004094908746568862 0.0004447861951833884
  outer loop
    vertex -12.999999999999998 -2.2999999999999994 0.0
    vertex -12.999999999999998 0.0 7.999999999999999
    vertex -12.999999999999998 0.0 0.0
  endloop
endfacet
facet normal -0.0010709368354616816 -0.9999993139280978 0.0004745920649797777
  outer loop
    vertex -0.9876883405951394 -5.299999999999999 7.999999999999999
    vertex -9.999999999999998 -5.299999999999999 0.0
    vertex -0.9876883405951394 -5.299999999999999 0.0
  endloop
endfacet
facet normal -0.0010709368354616816 -0.9999993139280978 0.0004745920649797777
  outer loop
    vertex -9.999999999999998 -5.299999999999999 0.0
    vertex -0.9876883405951394 -5.299999999999999 7.999999999999999
    vertex -10.395919572741946 -5.286447183257151 0.0
  endloop
endfacet
facet normal -0.0010709368354616816 -0.9999993139280978 0.0004745920649797777
  outer loop
    vertex -10.395919572741946 -5.286447183257151 0.0
    vertex -0.9876883405951394 -5.299999999999999 7.999999999999999
    vertex -10.395919572741946 -5.286447183257151 7.999999999999999
  endloop
endfacet
facet normal -0.0 -0.0 1.0
  outer loop
    vertex 4.9384417029756875 0.7821723252011544 7.999999999999999
    vertex 0.0 3.847367477994412 7.999999999999999
    vertex 0.0 0.0 7.999999999999999
  endloop
endfacet
facet normal -0.0 -0.0 1.0
  outer loop
    vertex 0.0 3.847367477994412 7.999999999999999
    vertex 4.9384417029756875 0.7821723252011544 7.999999999999999
    vertex 4.3439907358228105 4.535388019462676 7.999999999999999
  endloop
endfacet
facet normal 0.15643446504023092 -0.9876883405951378 -3.3701076409257657e-18
  outer loop
    vertex 5.926130043570826 0.9386067902413853 0.9999999999999999
    vertex 2.7851144297202954 0.44111879019103917 2.895369752628558
    vertex 2.491971166615157 0.39468945852922355 2.850230701653562
  endloop
endfacet
facet normal 0.15643446504023092 -0.9876883405951378 -3.3701076409257657e-18
  outer loop
    vertex 2.7851144297202954 0.44111879019103917 2.895369752628558
    vertex 5.926130043570826 0.9386067902413853 0.9999999999999999
    vertex 3.0567300675077127 0.4841384809653913 3.0157875294741214
  endloop
endfacet
facet normal 0.15643446504023092 -0.9876883405951378 -3.3701076409257657e-18
  outer loop
    vertex 3.0567300675077127 0.4841384809653913 3.0157875294741214
    vertex 5.926130043570826 0.9386067902413853 0.9999999999999999
    vertex 3.2883079231282615 0.5208168100194082 3.2032777596980124
  endloop
endfacet
facet normal 0.15643446504023092 -0.9876883405951378 -3.3701076409257657e-18
  outer loop
    vertex 3.2883079231282615 0.5208168100194082 3.2032777596980124
    vertex 5.926130043570826 0.9386067902413853 0.9999999999999999
    vertex 3.4640663484219028 0.5486542098418634 3.4450632939527295
  endloop
endfacet
facet normal 0.15643446504023092 -0.9876883405951378 -3.3701076409257657e-18
  outer loop
    vertex 3.4640663484219028 0.5486542098418634 3.4450632939527295
    vertex 5.926130043570826 0.9386067902413853 0.9999999999999999
    vertex 5.926130043570826 0.9386067902413853 7.0
  endloop
endfacet
facet normal 0.15643446504023092 -0.9876883405951378 -3.3701076409257657e-18
  outer loop
    vertex 3.4640663484219028 0.5486542098418634 3.4450632939527295
    vertex 5.926130043570826 0.9386067902413853 7.0
    vertex 3.572027697159405 0.5657536076383348 3.724666847648301
  endloop
endfacet
facet normal 0.15643446504023092 -0.9876883405951378 -3.3701076409257657e-18
  outer loop
    vertex 3.572027697159405 0.5657536076383348 3.724666847648301
    vertex 5.926130043570826 0.9386067902413853 7.0
    vertex 3.604834581838873 0.5709497077070839 4.023033900667092
  endloop
endfacet
facet normal 0.15643446504023092 -0.9876883405951378 -3.3701076409257657e-18
  outer loop
    vertex 3.604834581838873 0.5709497077070839 4.023033900667092
    vertex 5.926130043570826 0.9386067902413853 7.0
    vertex 3.5602512674853406 0.5638884044153867 4.319831231420741
  endloop
endfacet
facet normal 0.15643446504023092 -0.9876883405951378 -3.3701076409257657e-18
  outer loop
    vertex 3.5602512674853406 0.5638884044153867 4.319831231420741
    vertex 5.926130043570826 0.9386067902413853 7.0
    vertex 3.4413160332945893 0.545050913913217 4.594832592299168
  endloop
endfacet
facet normal 0.15643446504023092 -0.9876883405951378 -3.3701076409257657e-18
  outer loop
    vertex 3.4413160332945893 0.545050913913217 4.594832592299168
    vertex 5.926130043570826 0.9386067902413853 7.0
    vertex 3.2561341189269535 0.5157209800478728 4.829297095019742
  endloop
endfacet
facet normal 0.15643446504023092 -0.9876883405951378 -3.3701076409257657e-18
  outer loop
    vertex 3.2561341189269535 0.5157209800478728 4.829297095019742
    vertex 5.926130043570826 0.9386067902413853 7.0
    vertex 3.017325365819004 0.4778973893422698 5.00724637119297
  endloop
endfacet
facet normal 0.15643446504023092 -0.9876883405951378 -3.3701076409257657e-18
  outer loop
    vertex 3.017325365819004 0.4778973893422698 5.00724637119297
    vertex 5.926130043570826 0.9386067902413853 7.0
    vertex 2.7411641958449215 0.4341577569965556 5.116553471722727
  endloop
endfacet
facet normal 0.15643446504023092 -0.9876883405951378 -3.3701076409257657e-18
  outer loop
    vertex 2.7411641958449215 0.4341577569965556 5.116553471722727
    vertex 5.926130043570826 0.9386067902413853 7.0
    vertex 2.446470536360531 0.3874828666719309 5.149769298346437
  endloop
endfacet
facet normal 0.15643446504023092 -0.9876883405951378 -3.3701076409257657e-18
  outer loop
    vertex 5.926130043570826 0.9386067902413853 0.9999999999999999
    vertex 0.0 0.0 0.0
    vertex 4.9384417029756875 0.7821723252011545 0.0
  endloop
endfacet
facet normal 0.15643446504023092 -0.9876883405951378 -3.3701076409257657e-18
  outer loop
    vertex 0.0 0.0 0.0
    vertex 5.926130043570826 0.9386067902413853 0.9999999999999999
    vertex 1.9211163371566846 0.30427493585888465 2.99275362880703
  endloop
endfacet
facet normal 0.15643446504023092 -0.9876883405951378 -3.3701076409257657e-18
  outer loop
    vertex 0.0 0.0 0.0
    vertex 1.9211163371566846 0.30427493585888465 2.99275362880703
    vertex 1.6823075840487343 0.2664513451532816 3.1707029049802573
  endloop
endfacet
facet normal 0.15643446504023092 -0.9876883405951378 -3.3701076409257657e-18
  outer loop
    vertex 0.0 0.0 0.0
    vertex 1.6823075840487343 0.2664513451532816 3.1707029049802573
    vertex 1.4971256696810988 0.23712141128793743 3.4051674077008323
  endloop
endfacet
facet normal 0.15643446504023092 -0.9876883405951378 -3.3701076409257657e-18
  outer loop
    vertex 0.0 0.0 0.0
    vertex 1.4971256696810988 0.23712141128793743 3.4051674077008323
    vertex 1.3781904354903483 0.21828392078576778 3.6801687685792586
  endloop
endfacet
facet normal 0.15643446504023092 -0.9876883405951378 -3.3701076409257657e-18
  outer loop
    vertex 0.0 0.0 0.0
    vertex 1.3781904354903483 0.21828392078576778 3.6801687685792586
    vertex 0.0 0.0 7.999999999999999
  endloop
endfacet
facet normal 0.15643446504023092 -0.9876883405951378 -3.3701076409257657e-18
  outer loop
    vertex 1.9211163371566846 0.30427493585888465 2.99275362880703
    vertex 5.926130043570826 0.9386067902413853 0.9999999999999999
    vertex 2.197277507130766 0.34801456820459875 2.883446528277272
  endloop
endfacet
facet normal 0.15643446504023092 -0.9876883405951378 -3.3701076409257657e-18
  outer loop
    vertex 2.197277507130766 0.34801456820459875 2.883446528277272
    vertex 5.926130043570826 0.9386067902413853 0.9999999999999999
    vertex 2.491971166615157 0.39468945852922355 2.850230701653562
  endloop
endfacet
facet normal 0.15643446504023092 -0.9876883405951378 -3.3701076409257657e-18
  outer loop
    vertex 0.0 0.0 7.999999999999999
    vertex 1.3781904354903483 0.21828392078576778 3.6801687685792586
    vertex 1.3336071211368157 0.21122261749407067 3.9769660993329077
  endloop
endfacet
facet normal 0.15643446504023092 -0.9876883405951378 -3.3701076409257657e-18
  outer loop
    vertex 0.0 0.0 7.999999999999999
    vertex 1.3336071211368157 0.21122261749407067 3.9769660993329077
    vertex 1.3664140058162835 0.2164187175628197 4.275333152351699
  endloop
endfacet
facet normal 0.15643446504023092 -0.9876883405951378 -3.3701076409257657e-18
  outer loop
    vertex 0.0 0.0 7.999999999999999
    vertex 1.3664140058162835 0.2164187175628197 4.275333152351699
    vertex 1.4743753545537857 0.23351811535929112 4.55493670604727
  endloop
endfacet
facet normal 0.15643446504023092 -0.9876883405951378 -3.3701076409257657e-18
  outer loop
    vertex 0.0 0.0 7.999999999999999
    vertex 1.4743753545537857 0.23351811535929112 4.55493670604727
    vertex 1.6501337798474263 0.2613555151817462 4.796722240301986
  endloop
endfacet
facet normal 0.15643446504023092 -0.9876883405951378 -3.3701076409257657e-18
  outer loop
    vertex 0.0 0.0 7.999999999999999
    vertex 1.6501337798474263 0.2613555151817462 4.796722240301986
    vertex 1.8817116354679757 0.2980338442357632 4.984212470525878
  endloop
endfacet
facet normal 0.15643446504023092 -0.9876883405951378 -3.3701076409257657e-18
  outer loop
    vertex 0.0 0.0 7.999999999999999
    vertex 1.8817116354679757 0.2980338442357632 4.984212470525878
    vertex 2.1533272732553925 0.34105353501011526 5.104630247371441
  endloop
endfacet
facet normal 0.15643446504023092 -0.9876883405951378 -3.3701076409257657e-18
  outer loop
    vertex 0.0 0.0 7.999999999999999
    vertex 2.1533272732553925 0.34105353501011526 5.104630247371441
    vertex 2.446470536360531 0.3874828666719309 5.149769298346437
  endloop
endfacet
facet normal 0.15643446504023092 -0.9876883405951378 -3.3701076409257657e-18
  outer loop
    vertex 0.0 0.0 7.999999999999999
    vertex 2.446470536360531 0.3874828666719309 5.149769298346437
    vertex 5.926130043570826 0.9386067902413853 7.0
  endloop
endfacet
facet normal 0.15643446504023092 -0.9876883405951378 -3.3701076409257657e-18
  outer loop
    vertex 0.0 0.0 7.999999999999999
    vertex 5.926130043570826 0.9386067902413853 7.0
    vertex 4.9384417029756875 0.7821723252011544 7.999999999999999
  endloop
endfacet
facet normal -0.1564344650402306 0.987688340595138 4.8133959499694566e-17
  outer loop
    vertex 0.0 3.847367477994412 0.0
    vertex 1.0878566168958563 4.019667039414806 3.1707029049802573
    vertex 4.343990735822811 4.535388019462677 6.358286899091301e-17
  endloop
endfacet
facet normal -0.1564344650402306 0.987688340595138 4.8133959499694566e-17
  outer loop
    vertex 1.0878566168958563 4.019667039414806 3.1707029049802573
    vertex 0.0 3.847367477994412 0.0
    vertex 0.902674702528221 3.990337105549462 3.4051674077008323
  endloop
endfacet
facet normal -0.1564344650402306 0.987688340595138 4.8133959499694566e-17
  outer loop
    vertex 0.902674702528221 3.990337105549462 3.4051674077008323
    vertex 0.0 3.847367477994412 0.0
    vertex 0.7837394683374705 3.971499615047292 3.6801687685792586
  endloop
endfacet
facet normal -0.1564344650402306 0.987688340595138 4.8133959499694566e-17
  outer loop
    vertex 0.7837394683374705 3.971499615047292 3.6801687685792586
    vertex 0.0 3.847367477994412 0.0
    vertex 0.0 3.847367477994412 7.999999999999999
  endloop
endfacet
facet normal -0.1564344650402306 0.987688340595138 4.8133959499694566e-17
  outer loop
    vertex 4.343990735822811 4.535388019462677 6.358286899091301e-17
    vertex 1.0878566168958563 4.019667039414806 3.1707029049802573
    vertex 1.3266653700038067 4.057490630120409 2.99275362880703
  endloop
endfacet
facet normal -0.1564344650402306 0.987688340595138 4.8133959499694566e-17
  outer loop
    vertex 4.343990735822811 4.535388019462677 6.358286899091301e-17
    vertex 1.3266653700038067 4.057490630120409 2.99275362880703
    vertex 5.331679076417949 4.691822484502908 0.9999999999999999
  endloop
endfacet
facet normal -0.1564344650402306 0.987688340595138 4.8133959499694566e-17
  outer loop
    vertex 5.331679076417949 4.691822484502908 0.9999999999999999
    vertex 1.3266653700038067 4.057490630120409 2.99275362880703
    vertex 1.6028265399778883 4.101230262466123 2.883446528277272
  endloop
endfacet
facet normal -0.1564344650402306 0.987688340595138 4.8133959499694566e-17
  outer loop
    vertex 5.331679076417949 4.691822484502908 0.9999999999999999
    vertex 1.6028265399778883 4.101230262466123 2.883446528277272
    vertex 1.8975201994622795 4.147905152790747 2.850230701653562
  endloop
endfacet
facet normal -0.1564344650402306 0.987688340595138 4.8133959499694566e-17
  outer loop
    vertex 0.7837394683374705 3.971499615047292 3.6801687685792586
    vertex 0.0 3.847367477994412 7.999999999999999
    vertex 0.739156153983938 3.9644383117555946 3.9769660993329077
  endloop
endfacet
facet normal -0.1564344650402306 0.987688340595138 4.8133959499694566e-17
  outer loop
    vertex 0.739156153983938 3.9644383117555946 3.9769660993329077
    vertex 0.0 3.847367477994412 7.999999999999999
    vertex 0.7719630386634057 3.969634411824343 4.275333152351699
  endloop
endfacet
facet normal -0.1564344650402306 0.987688340595138 4.8133959499694566e-17
  outer loop
    vertex 0.7719630386634057 3.969634411824343 4.275333152351699
    vertex 0.0 3.847367477994412 7.999999999999999
    vertex 0.879924387400908 3.9867338096208145 4.55493670604727
  endloop
endfacet
facet normal -0.1564344650402306 0.987688340595138 4.8133959499694566e-17
  outer loop
    vertex 0.879924387400908 3.9867338096208145 4.55493670604727
    vertex 0.0 3.847367477994412 7.999999999999999
    vertex 1.0556828126945483 4.01457120944327 4.796722240301986
  endloop
endfacet
facet normal -0.1564344650402306 0.987688340595138 4.8133959499694566e-17
  outer loop
    vertex 1.0556828126945483 4.01457120944327 4.796722240301986
    vertex 0.0 3.847367477994412 7.999999999999999
    vertex 1.2872606683150978 4.051249538497287 4.984212470525878
  endloop
endfacet
facet normal -0.1564344650402306 0.987688340595138 4.8133959499694566e-17
  outer loop
    vertex 1.2872606683150978 4.051249538497287 4.984212470525878
    vertex 0.0 3.847367477994412 7.999999999999999
    vertex 1.5588763061025146 4.094269229271639 5.104630247371441
  endloop
endfacet
facet normal -0.1564344650402306 0.987688340595138 4.8133959499694566e-17
  outer loop
    vertex 1.5588763061025146 4.094269229271639 5.104630247371441
    vertex 0.0 3.847367477994412 7.999999999999999
    vertex 1.8520195692076529 4.140698560933455 5.149769298346437
  endloop
endfacet
facet normal -0.1564344650402306 0.987688340595138 4.8133959499694566e-17
  outer loop
    vertex 1.8520195692076529 4.140698560933455 5.149769298346437
    vertex 0.0 3.847367477994412 7.999999999999999
    vertex 5.331679076417949 4.691822484502907 7.0
  endloop
endfacet
facet normal -0.1564344650402306 0.987688340595138 4.8133959499694566e-17
  outer loop
    vertex 5.331679076417949 4.691822484502907 7.0
    vertex 0.0 3.847367477994412 7.999999999999999
    vertex 4.3439907358228105 4.535388019462676 7.999999999999999
  endloop
endfacet
facet normal -0.1564344650402306 0.987688340595138 4.8133959499694566e-17
  outer loop
    vertex 5.331679076417949 4.691822484502908 0.9999999999999999
    vertex 2.869615381269025 4.301869904103387 3.4450632939527295
    vertex 5.331679076417949 4.691822484502907 7.0
  endloop
endfacet
facet normal -0.1564344650402306 0.987688340595138 4.8133959499694566e-17
  outer loop
    vertex 2.869615381269025 4.301869904103387 3.4450632939527295
    vertex 5.331679076417949 4.691822484502908 0.9999999999999999
    vertex 2.693856955975384 4.274032504280932 3.2032777596980124
  endloop
endfacet
facet normal -0.1564344650402306 0.987688340595138 4.8133959499694566e-17
  outer loop
    vertex 2.693856955975384 4.274032504280932 3.2032777596980124
    vertex 5.331679076417949 4.691822484502908 0.9999999999999999
    vertex 2.462279100354835 4.2373541752269155 3.0157875294741214
  endloop
endfacet
facet normal -0.1564344650402306 0.987688340595138 4.8133959499694566e-17
  outer loop
    vertex 2.462279100354835 4.2373541752269155 3.0157875294741214
    vertex 5.331679076417949 4.691822484502908 0.9999999999999999
    vertex 2.1906634625674175 4.194334484452563 2.895369752628558
  endloop
endfacet
facet normal -0.1564344650402306 0.987688340595138 4.8133959499694566e-17
  outer loop
    vertex 2.1906634625674175 4.194334484452563 2.895369752628558
    vertex 5.331679076417949 4.691822484502908 0.9999999999999999
    vertex 1.8975201994622795 4.147905152790747 2.850230701653562
  endloop
endfacet
facet normal -0.1564344650402306 0.987688340595138 4.8133959499694566e-17
  outer loop
    vertex 5.331679076417949 4.691822484502907 7.0
    vertex 2.869615381269025 4.301869904103387 3.4450632939527295
    vertex 2.9775767300065272 4.318969301899858 3.724666847648301
  endloop
endfacet
facet normal -0.1564344650402306 0.987688340595138 4.8133959499694566e-17
  outer loop
    vertex 5.331679076417949 4.691822484502907 7.0
    vertex 2.9775767300065272 4.318969301899858 3.724666847648301
    vertex 3.010383614685995 4.3241654019686075 4.023033900667092
  endloop
endfacet
facet normal -0.1564344650402306 0.987688340595138 4.8133959499694566e-17
  outer loop
    vertex 5.331679076417949 4.691822484502907 7.0
    vertex 3.010383614685995 4.3241654019686075 4.023033900667092
    vertex 2.9658003003324627 4.317104098676911 4.319831231420741
  endloop
endfacet
facet normal -0.1564344650402306 0.987688340595138 4.8133959499694566e-17
  outer loop
    vertex 5.331679076417949 4.691822484502907 7.0
    vertex 2.9658003003324627 4.317104098676911 4.319831231420741
    vertex 2.8468650661417114 4.298266608174741 4.594832592299168
  endloop
endfacet
facet normal -0.1564344650402306 0.987688340595138 4.8133959499694566e-17
  outer loop
    vertex 5.331679076417949 4.691822484502907 7.0
    vertex 2.8468650661417114 4.298266608174741 4.594832592299168
    vertex 2.6616831517740756 4.268936674309397 4.829297095019742
  endloop
endfacet
facet normal -0.1564344650402306 0.987688340595138 4.8133959499694566e-17
  outer loop
    vertex 5.331679076417949 4.691822484502907 7.0
    vertex 2.6616831517740756 4.268936674309397 4.829297095019742
    vertex 2.422874398666126 4.231113083603794 5.00724637119297
  endloop
endfacet
facet normal -0.1564344650402306 0.987688340595138 4.8133959499694566e-17
  outer loop
    vertex 5.331679076417949 4.691822484502907 7.0
    vertex 2.422874398666126 4.231113083603794 5.00724637119297
    vertex 2.146713228692044 4.187373451258079 5.116553471722727
  endloop
endfacet
facet normal -0.1564344650402306 0.987688340595138 4.8133959499694566e-17
  outer loop
    vertex 5.331679076417949 4.691822484502907 7.0
    vertex 2.146713228692044 4.187373451258079 5.116553471722727
    vertex 1.8520195692076529 4.140698560933455 5.149769298346437
  endloop
endfacet
facet normal 0.9876883405951378 0.15643446504023087 6.72991953610153e-17
  outer loop
    vertex 5.331679076417949 4.691822484502908 0.9999999999999999
    vertex 5.926130043570826 0.9386067902413853 7.0
    vertex 5.926130043570826 0.9386067902413853 0.9999999999999999
  endloop
endfacet
facet normal 0.9876883405951378 0.15643446504023087 6.72991953610153e-17
  outer loop
    vertex 5.926130043570826 0.9386067902413853 7.0
    vertex 5.331679076417949 4.691822484502908 0.9999999999999999
    vertex 5.331679076417949 4.691822484502907 7.0
  endloop
endfacet
facet normal 0.10927969828514736 0.01730820385172726 0.993860339093041
  outer loop
    vertex 2.197277507130766 0.34801456820459875 2.883446528277272
    vertex 1.8975201994622795 4.147905152790747 2.850230701653562
    vertex 1.6028265399778883 4.101230262466123 2.883446528277272
  endloop
endfacet
facet normal 0.10927969828514736 0.01730820385172726 0.993860339093041
  outer loop
    vertex 1.8975201994622795 4.147905152790747 2.850230701653562
    vertex 2.197277507130766 0.34801456820459875 2.883446528277272
    vertex 2.491971166615157 0.39468945852922355 2.850230701653562
  endloop
endfacet
facet normal -0.14850697311577218 -0.023521193821232557 0.9886315958825186
  outer loop
    vertex 2.491971166615157 0.39468945852922355 2.850230701653562
    vertex 2.1906634625674175 4.194334484452563 2.895369752628558
    vertex 1.8975201994622795 4.147905152790747 2.850230701653562
  endloop
endfacet
facet normal -0.14850697311577218 -0.023521193821232557 0.9886315958825186
  outer loop
    vertex 2.1906634625674175 4.194334484452563 2.895369752628558
    vertex 2.491971166615157 0.39468945852922355 2.850230701653562
    vertex 2.7851144297202954 0.44111879019103917 2.895369752628558
  endloop
endfacet
facet normal -0.3961731397182273 -0.0627476610058858 0.916029243203563
  outer loop
    vertex 2.7851144297202954 0.44111879019103917 2.895369752628558
    vertex 2.462279100354835 4.2373541752269155 3.0157875294741214
    vertex 2.1906634625674175 4.194334484452563 2.895369752628558
  endloop
endfacet
facet normal -0.3961731397182273 -0.0627476610058858 0.916029243203563
  outer loop
    vertex 2.462279100354835 4.2373541752269155 3.0157875294741214
    vertex 2.7851144297202954 0.44111879019103917 2.895369752628558
    vertex 3.0567300675077127 0.4841384809653913 3.0157875294741214
  endloop
endfacet
facet normal -0.6168407615559538 -0.09769797878840056 0.7810010114101853
  outer loop
    vertex 3.0567300675077127 0.4841384809653913 3.0157875294741214
    vertex 2.693856955975384 4.274032504280932 3.2032777596980124
    vertex 2.462279100354835 4.2373541752269155 3.0157875294741214
  endloop
endfacet
facet normal -0.6168407615559538 -0.09769797878840056 0.7810010114101853
  outer loop
    vertex 2.693856955975384 4.274032504280932 3.2032777596980124
    vertex 3.0567300675077127 0.4841384809653913 3.0157875294741214
    vertex 3.2883079231282615 0.5208168100194082 3.2032777596980124
  endloop
endfacet
facet normal -0.7954717048712007 -0.12599034077002988 0.5927488513543975
  outer loop
    vertex 3.4640663484219028 0.5486542098418634 3.4450632939527295
    vertex 2.693856955975384 4.274032504280932 3.2032777596980124
    vertex 3.2883079231282615 0.5208168100194082 3.2032777596980124
  endloop
endfacet
facet normal -0.7954717048712007 -0.12599034077002988 0.5927488513543975
  outer loop
    vertex 2.693856955975384 4.274032504280932 3.2032777596980124
    vertex 3.4640663484219028 0.5486542098418634 3.4450632939527295
    vertex 2.869615381269025 4.301869904103387 3.4450632939527295
  endloop
endfacet
facet normal -0.9198925660786215 -0.1456966692370641 0.36410183664260004
  outer loop
    vertex 3.572027697159405 0.5657536076383348 3.724666847648301
    vertex 2.869615381269025 4.301869904103387 3.4450632939527295
    vertex 3.4640663484219028 0.5486542098418634 3.4450632939527295
  endloop
endfacet
facet normal -0.9198925660786215 -0.1456966692370641 0.36410183664260004
  outer loop
    vertex 2.869615381269025 4.301869904103387 3.4450632939527295
    vertex 3.572027697159405 0.5657536076383348 3.724666847648301
    vertex 2.9775767300065272 4.318969301899858 3.724666847648301
  endloop
endfacet
facet normal -0.9816242691021264 -0.1554740104707224 0.11064188347034729
  outer loop
    vertex 3.604834581838873 0.5709497077070839 4.023033900667092
    vertex 2.9775767300065272 4.318969301899858 3.724666847648301
    vertex 3.572027697159405 0.5657536076383348 3.724666847648301
  endloop
endfacet
facet normal -0.9816242691021264 -0.1554740104707224 0.11064188347034729
  outer loop
    vertex 2.9775767300065272 4.318969301899858 3.724666847648301
    vertex 3.604834581838873 0.5709497077070839 4.023033900667092
    vertex 3.010383614685995 4.3241654019686075 4.023033900667092
  endloop
endfacet
facet normal -0.9764599003971278 -0.15465605482375167 -0.15035813121605443
  outer loop
    vertex 2.9658003003324627 4.317104098676911 4.319831231420741
    vertex 3.604834581838873 0.5709497077070839 4.023033900667092
    vertex 3.5602512674853406 0.5638884044153867 4.319831231420741
  endloop
endfacet
facet normal -0.9764599003971278 -0.15465605482375167 -0.15035813121605443
  outer loop
    vertex 3.604834581838873 0.5709497077070839 4.023033900667092
    vertex 2.9658003003324627 4.317104098676911 4.319831231420741
    vertex 3.010383614685995 4.3241654019686075 4.023033900667092
  endloop
endfacet
facet normal -0.9047514031563462 -0.1432985446217569 -0.4011114877386451
  outer loop
    vertex 2.8468650661417114 4.298266608174741 4.594832592299168
    vertex 3.5602512674853406 0.5638884044153867 4.319831231420741
    vertex 3.4413160332945893 0.545050913913217 4.594832592299168
  endloop
endfacet
facet normal -0.9047514031563462 -0.1432985446217569 -0.4011114877386451
  outer loop
    vertex 3.5602512674853406 0.5638884044153867 4.319831231420741
    vertex 2.8468650661417114 4.298266608174741 4.594832592299168
    vertex 2.9658003003324627 4.317104098676911 4.319831231420741
  endloop
endfacet
facet normal -0.7713855929628485 -0.12217547541583142 -0.6245297592399182
  outer loop
    vertex 2.6616831517740756 4.268936674309397 4.829297095019742
    vertex 3.4413160332945893 0.545050913913217 4.594832592299168
    vertex 3.2561341189269535 0.5157209800478728 4.829297095019742
  endloop
endfacet
facet normal -0.7713855929628485 -0.12217547541583142 -0.6245297592399182
  outer loop
    vertex 3.4413160332945893 0.545050913913217 4.594832592299168
    vertex 2.6616831517740756 4.268936674309397 4.829297095019742
    vertex 2.8468650661417114 4.298266608174741 4.594832592299168
  endloop
endfacet
facet normal -0.5854511293839009 -0.09272634946483689 -0.8053873597332157
  outer loop
    vertex 2.6616831517740756 4.268936674309397 4.829297095019742
    vertex 3.017325365819004 0.4778973893422698 5.00724637119297
    vertex 2.422874398666126 4.231113083603794 5.00724637119297
  endloop
endfacet
facet normal -0.5854511293839009 -0.09272634946483689 -0.8053873597332157
  outer loop
    vertex 3.017325365819004 0.4778973893422698 5.00724637119297
    vertex 2.6616831517740756 4.268936674309397 4.829297095019742
    vertex 3.2561341189269535 0.5157209800478728 4.829297095019742
  endloop
endfacet
facet normal -0.3596191388411703 -0.0569580760353505 -0.9313591426262408
  outer loop
    vertex 2.422874398666126 4.231113083603794 5.00724637119297
    vertex 2.7411641958449215 0.4341577569965556 5.116553471722727
    vertex 2.146713228692044 4.187373451258079 5.116553471722727
  endloop
endfacet
facet normal -0.3596191388411703 -0.0569580760353505 -0.9313591426262408
  outer loop
    vertex 2.7411641958449215 0.4341577569965556 5.116553471722727
    vertex 2.422874398666126 4.231113083603794 5.00724637119297
    vertex 3.017325365819004 0.4778973893422698 5.00724637119297
  endloop
endfacet
facet normal -0.10927969828514746 -0.017308203851727277 -0.9938603390930408
  outer loop
    vertex 2.146713228692044 4.187373451258079 5.116553471722727
    vertex 2.446470536360531 0.3874828666719309 5.149769298346437
    vertex 1.8520195692076529 4.140698560933455 5.149769298346437
  endloop
endfacet
facet normal -0.10927969828514746 -0.017308203851727277 -0.9938603390930408
  outer loop
    vertex 2.446470536360531 0.3874828666719309 5.149769298346437
    vertex 2.146713228692044 4.187373451258079 5.116553471722727
    vertex 2.7411641958449215 0.4341577569965556 5.116553471722727
  endloop
endfacet
facet normal 0.14850697311577313 0.02352119382123271 -0.9886315958825185
  outer loop
    vertex 1.8520195692076529 4.140698560933455 5.149769298346437
    vertex 2.1533272732553925 0.34105353501011526 5.104630247371441
    vertex 1.5588763061025146 4.094269229271639 5.104630247371441
  endloop
endfacet
facet normal 0.14850697311577313 0.02352119382123271 -0.9886315958825185
  outer loop
    vertex 2.1533272732553925 0.34105353501011526 5.104630247371441
    vertex 1.8520195692076529 4.140698560933455 5.149769298346437
    vertex 2.446470536360531 0.3874828666719309 5.149769298346437
  endloop
endfacet
facet normal 0.39617313971822726 0.06274766100588579 -0.9160292432035632
  outer loop
    vertex 1.5588763061025146 4.094269229271639 5.104630247371441
    vertex 1.8817116354679757 0.2980338442357632 4.984212470525878
    vertex 1.2872606683150978 4.051249538497287 4.984212470525878
  endloop
endfacet
facet normal 0.39617313971822726 0.06274766100588579 -0.9160292432035632
  outer loop
    vertex 1.8817116354679757 0.2980338442357632 4.984212470525878
    vertex 1.5588763061025146 4.094269229271639 5.104630247371441
    vertex 2.1533272732553925 0.34105353501011526 5.104630247371441
  endloop
endfacet
facet normal 0.616840761555954 0.0976979787884006 -0.7810010114101852
  outer loop
    vertex 1.2872606683150978 4.051249538497287 4.984212470525878
    vertex 1.6501337798474263 0.2613555151817462 4.796722240301986
    vertex 1.0556828126945483 4.01457120944327 4.796722240301986
  endloop
endfacet
facet normal 0.616840761555954 0.0976979787884006 -0.7810010114101852
  outer loop
    vertex 1.6501337798474263 0.2613555151817462 4.796722240301986
    vertex 1.2872606683150978 4.051249538497287 4.984212470525878
    vertex 1.8817116354679757 0.2980338442357632 4.984212470525878
  endloop
endfacet
facet normal 0.795471704871201 0.12599034077002993 -0.592748851354397
  outer loop
    vertex 0.879924387400908 3.9867338096208145 4.55493670604727
    vertex 1.6501337798474263 0.2613555151817462 4.796722240301986
    vertex 1.4743753545537857 0.23351811535929112 4.55493670604727
  endloop
endfacet
facet normal 0.795471704871201 0.12599034077002993 -0.592748851354397
  outer loop
    vertex 1.6501337798474263 0.2613555151817462 4.796722240301986
    vertex 0.879924387400908 3.9867338096208145 4.55493670604727
    vertex 1.0556828126945483 4.01457120944327 4.796722240301986
  endloop
endfacet
facet normal 0.9198925660786212 0.14569666923706406 -0.36410183664260054
  outer loop
    vertex 0.7719630386634057 3.969634411824343 4.275333152351699
    vertex 1.4743753545537857 0.23351811535929112 4.55493670604727
    vertex 1.3664140058162835 0.2164187175628197 4.275333152351699
  endloop
endfacet
facet normal 0.9198925660786212 0.14569666923706406 -0.36410183664260054
  outer loop
    vertex 1.4743753545537857 0.23351811535929112 4.55493670604727
    vertex 0.7719630386634057 3.969634411824343 4.275333152351699
    vertex 0.879924387400908 3.9867338096208145 4.55493670604727
  endloop
endfacet
facet normal 0.9816242691021266 0.15547401047072243 -0.11064188347034673
  outer loop
    vertex 0.739156153983938 3.9644383117555946 3.9769660993329077
    vertex 1.3664140058162835 0.2164187175628197 4.275333152351699
    vertex 1.3336071211368157 0.21122261749407067 3.9769660993329077
  endloop
endfacet
facet normal 0.9816242691021266 0.15547401047072243 -0.11064188347034673
  outer loop
    vertex 1.3664140058162835 0.2164187175628197 4.275333152351699
    vertex 0.739156153983938 3.9644383117555946 3.9769660993329077
    vertex 0.7719630386634057 3.969634411824343 4.275333152351699
  endloop
endfacet
facet normal 0.9764599003971276 0.15465605482375164 0.15035813121605554
  outer loop
    vertex 1.3781904354903483 0.21828392078576778 3.6801687685792586
    vertex 0.739156153983938 3.9644383117555946 3.9769660993329077
    vertex 1.3336071211368157 0.21122261749407067 3.9769660993329077
  endloop
endfacet
facet normal 0.9764599003971276 0.15465605482375164 0.15035813121605554
  outer loop
    vertex 0.739156153983938 3.9644383117555946 3.9769660993329077
    vertex 1.3781904354903483 0.21828392078576778 3.6801687685792586
    vertex 0.7837394683374705 3.971499615047292 3.6801687685792586
  endloop
endfacet
facet normal 0.9047514031563467 0.14329854462175698 0.4011114877386441
  outer loop
    vertex 1.4971256696810988 0.23712141128793743 3.4051674077008323
    vertex 0.7837394683374705 3.971499615047292 3.6801687685792586
    vertex 1.3781904354903483 0.21828392078576778 3.6801687685792586
  endloop
endfacet
facet normal 0.9047514031563467 0.14329854462175698 0.4011114877386441
  outer loop
    vertex 0.7837394683374705 3.971499615047292 3.6801687685792586
    vertex 1.4971256696810988 0.23712141128793743 3.4051674077008323
    vertex 0.902674702528221 3.990337105549462 3.4051674077008323
  endloop
endfacet
facet normal 0.7713855929628499 0.12217547541583164 0.6245297592399163
  outer loop
    vertex 1.6823075840487343 0.2664513451532816 3.1707029049802573
    vertex 0.902674702528221 3.990337105549462 3.4051674077008323
    vertex 1.4971256696810988 0.23712141128793743 3.4051674077008323
  endloop
endfacet
facet normal 0.7713855929628499 0.12217547541583164 0.6245297592399163
  outer loop
    vertex 0.902674702528221 3.990337105549462 3.4051674077008323
    vertex 1.6823075840487343 0.2664513451532816 3.1707029049802573
    vertex 1.0878566168958563 4.019667039414806 3.1707029049802573
  endloop
endfacet
facet normal 0.5854511293838982 0.09272634946483647 0.8053873597332177
  outer loop
    vertex 1.6823075840487343 0.2664513451532816 3.1707029049802573
    vertex 1.3266653700038067 4.057490630120409 2.99275362880703
    vertex 1.0878566168958563 4.019667039414806 3.1707029049802573
  endloop
endfacet
facet normal 0.5854511293838982 0.09272634946483647 0.8053873597332177
  outer loop
    vertex 1.3266653700038067 4.057490630120409 2.99275362880703
    vertex 1.6823075840487343 0.2664513451532816 3.1707029049802573
    vertex 1.9211163371566846 0.30427493585888465 2.99275362880703
  endloop
endfacet
facet normal 0.3596191388411732 0.056958076035350955 0.9313591426262398
  outer loop
    vertex 1.9211163371566846 0.30427493585888465 2.99275362880703
    vertex 1.6028265399778883 4.101230262466123 2.883446528277272
    vertex 1.3266653700038067 4.057490630120409 2.99275362880703
  endloop
endfacet
facet normal 0.3596191388411732 0.056958076035350955 0.9313591426262398
  outer loop
    vertex 1.6028265399778883 4.101230262466123 2.883446528277272
    vertex 1.9211163371566846 0.30427493585888465 2.99275362880703
    vertex 2.197277507130766 0.34801456820459875 2.883446528277272
  endloop
endfacet
facet normal -0.15643446504023206 0.9876883405951375 -0.0
  outer loop
    vertex -1.5821393077480148 5.0967812292212935 7.999999999999999
    vertex -0.8262137129340885 5.216508081482891 0.0
    vertex -1.5821393077480148 5.0967812292212935 0.0
  endloop
endfacet
facet normal -0.15643446504023206 0.9876883405951375 -0.0
  outer loop
    vertex -0.8262137129340885 5.216508081482891 0.0
    vertex -1.5821393077480148 5.0967812292212935 7.999999999999999
    vertex -0.8262137129340885 5.216508081482891 7.999999999999999
  endloop
endfacet
facet normal 0.0 0.0 -1.0
  outer loop
    vertex -12.999999999999998 0.0 0.0
    vertex -0.9876883405951394 -0.15643446504023117 0.0
    vertex -12.999999999999998 -2.2999999999999994 0.0
  endloop
endfacet
facet normal 0.0 0.0 -1.0
  outer loop
    vertex -0.9876883405951394 -0.15643446504023117 0.0
    vertex -12.999999999999998 0.0 0.0
    vertex 0.0 0.0 0.0
  endloop
endfacet
facet normal 0.0 0.0 -1.0
  outer loop
    vertex -12.999999999999998 -2.2999999999999994 0.0
    vertex -0.9876883405951394 -0.15643446504023117 0.0
    vertex -12.986447183257152 -2.6959195727419467 0.0
  endloop
endfacet
facet normal 0.0 0.0 -1.0
  outer loop
    vertex -12.986447183257152 -2.6959195727419467 0.0
    vertex -0.9876883405951394 -0.15643446504023117 0.0
    vertex -12.91911453441827 -3.0863069461573427 0.0
  endloop
endfacet
facet normal 0.0 0.0 -1.0
  outer loop
    vertex -12.91911453441827 -3.0863069461573427 0.0
    vertex -0.9876883405951394 -0.15643446504023117 0.0
    vertex -12.799256099532274 -3.4638912976716907 0.0
  endloop
endfacet
facet normal 0.0 0.0 -1.0
  outer loop
    vertex -12.799256099532274 -3.4638912976716907 0.0
    vertex -0.9876883405951394 -0.15643446504023117 0.0
    vertex -12.629104198273048 -3.8216402563280405 0.0
  endloop
endfacet
facet normal 0.0 0.0 -1.0
  outer loop
    vertex -12.629104198273048 -3.8216402563280405 0.0
    vertex -0.9876883405951394 -0.15643446504023117 0.0
    vertex -12.411827847798977 -4.152890878133495 0.0
  endloop
endfacet
facet normal 0.0 0.0 -1.0
  outer loop
    vertex -12.411827847798977 -4.152890878133495 0.0
    vertex -0.9876883405951394 -0.15643446504023117 0.0
    vertex -12.151473740963132 -4.451473740963133 0.0
  endloop
endfacet
facet normal 0.0 0.0 -1.0
  outer loop
    vertex -12.151473740963132 -4.451473740963133 0.0
    vertex -0.9876883405951394 -0.15643446504023117 0.0
    vertex -11.852890878133495 -4.7118278477989755 0.0
  endloop
endfacet
facet normal 0.0 0.0 -1.0
  outer loop
    vertex -11.852890878133495 -4.7118278477989755 0.0
    vertex -0.9876883405951394 -0.15643446504023117 0.0
    vertex -11.521640256328041 -4.929104198273047 0.0
  endloop
endfacet
facet normal 0.0 0.0 -1.0
  outer loop
    vertex -11.521640256328041 -4.929104198273047 0.0
    vertex -0.9876883405951394 -0.15643446504023117 0.0
    vertex -11.163891297671691 -5.099256099532273 0.0
  endloop
endfacet
facet normal 0.0 0.0 -1.0
  outer loop
    vertex -11.163891297671691 -5.099256099532273 0.0
    vertex -0.9876883405951394 -0.15643446504023117 0.0
    vertex -10.786306946157342 -5.21911453441827 0.0
  endloop
endfacet
facet normal 0.0 0.0 -1.0
  outer loop
    vertex -10.786306946157342 -5.21911453441827 0.0
    vertex -0.9876883405951394 -0.15643446504023117 0.0
    vertex -10.395919572741946 -5.286447183257151 0.0
  endloop
endfacet
facet normal 0.0 0.0 -1.0
  outer loop
    vertex -10.395919572741946 -5.286447183257151 0.0
    vertex -0.9876883405951394 -0.15643446504023117 0.0
    vertex -9.999999999999998 -5.299999999999999 0.0
  endloop
endfacet
facet normal 0.0 0.0 -1.0
  outer loop
    vertex -0.9876883405951394 -5.299999999999999 0.0
    vertex -9.999999999999998 -5.299999999999999 0.0
    vertex -0.9876883405951394 -0.15643446504023117 0.0
  endloop
endfacet
facet normal 0.6984011233337102 0.11061587104123703 -0.7071067811865477
  outer loop
    vertex 5.331679076417949 4.691822484502908 0.9999999999999999
    vertex 4.9384417029756875 0.7821723252011545 0.0
    vertex 4.343990735822811 4.535388019462677 6.358286899091301e-17
  endloop
endfacet
facet normal 0.6984011233337102 0.11061587104123703 -0.7071067811865477
  outer loop
    vertex 4.9384417029756875 0.7821723252011545 0.0
    vertex 5.331679076417949 4.691822484502908 0.9999999999999999
    vertex 5.926130043570826 0.9386067902413853 0.9999999999999999
  endloop
endfacet
facet normal 0.6984011233337102 0.11061587104123717 0.7071067811865477
  outer loop
    vertex 4.9384417029756875 0.7821723252011544 7.999999999999999
    vertex 5.331679076417949 4.691822484502907 7.0
    vertex 4.3439907358228105 4.535388019462676 7.999999999999999
  endloop
endfacet
facet normal 0.6984011233337102 0.11061587104123717 0.7071067811865477
  outer loop
    vertex 5.331679076417949 4.691822484502907 7.0
    vertex 4.9384417029756875 0.7821723252011544 7.999999999999999
    vertex 5.926130043570826 0.9386067902413853 7.0
  endloop
endfacet
facet normal 1.0 -0.0 -0.0
  outer loop
    vertex -0.9876883405951394 -0.15643446504023117 0.0
    vertex -0.9876883405951394 -5.299999999999999 7.999999999999999
    vertex -0.9876883405951394 -5.299999999999999 0.0
  endloop
endfacet
facet normal 1.0 -0.0 -0.0
  outer loop
    vertex -0.9876883405951394 -5.299999999999999 7.999999999999999
    vertex -0.9876883405951394 -0.15643446504023117 0.0
    vertex -0.9876883405951394 -0.15643446504023117 7.999999999999999
  endloop
endfacet
facet normal 0.15643446504023095 -0.9876883405951378 0.0
  outer loop
    vertex 0.0 0.0 7.999999999999999
    vertex -0.9876883405951394 -0.15643446504023117 0.0
    vertex 0.0 0.0 0.0
  endloop
endfacet
facet normal 0.15643446504023095 -0.9876883405951378 0.0
  outer loop
    vertex -0.9876883405951394 -0.15643446504023117 0.0
    vertex 0.0 0.0 7.999999999999999
    vertex -0.9876883405951394 -0.15643446504023117 7.999999999999999
  endloop
endfacet
facet normal 0.0 0.0 -1.0
  outer loop
    vertex -0.8262137129340885 5.216508081482891 0.0
    vertex -1.5821393077480148 3.5967812292212935 0.0
    vertex -1.5821393077480148 5.0967812292212935 0.0
  endloop
endfacet
facet normal 0.0 0.0 -1.0
  outer loop
    vertex -1.5821393077480148 3.5967812292212935 0.0
    vertex -0.8262137129340885 5.216508081482891 0.0
    vertex -0.5944509671528776 3.753215694261524 0.0
  endloop
endfacet
facet normal -0.15643446504023098 0.9876883405951378 -0.0
  outer loop
    vertex -0.5944509671528776 3.753215694261524 7.999999999999999
    vertex 0.0 3.847367477994412 0.0
    vertex -0.5944509671528776 3.753215694261524 0.0
  endloop
endfacet
facet normal -0.15643446504023098 0.9876883405951378 -0.0
  outer loop
    vertex 0.0 3.847367477994412 0.0
    vertex -0.5944509671528776 3.753215694261524 7.999999999999999
    vertex 0.0 3.847367477994412 7.999999999999999
  endloop
endfacet
facet normal 0.9876883405951378 0.15643446504023095 -0.0
  outer loop
    vertex -0.8262137129340885 5.216508081482891 0.0
    vertex -0.5944509671528776 3.753215694261524 7.999999999999999
    vertex -0.5944509671528776 3.753215694261524 0.0
  endloop
endfacet
facet normal 0.9876883405951378 0.15643446504023095 -0.0
  outer loop
    vertex -0.5944509671528776 3.753215694261524 7.999999999999999
    vertex -0.8262137129340885 5.216508081482891 0.0
    vertex -0.8262137129340885 5.216508081482891 7.999999999999999
  endloop
endfacet
facet normal 0.0 0.0 -1.0
  outer loop
    vertex -2.5726891745143776 12.343781498913394 0.0
    vertex -12.999999999999998 0.0 0.0
    vertex -12.999999999999998 10.9 0.0
  endloop
endfacet
facet normal 0.0 0.0 -1.0
  outer loop
    vertex -12.999999999999998 0.0 0.0
    vertex -2.5726891745143776 12.343781498913394 0.0
    vertex -2.5726891745143776 4.959681498913395 0.0
  endloop
endfacet
facet normal 0.0 0.0 -1.0
  outer loop
    vertex -12.999999999999998 0.0 0.0
    vertex -2.5726891745143776 4.959681498913395 0.0
    vertex 0.0 0.0 0.0
  endloop
endfacet
facet normal 0.0 0.0 -1.0
  outer loop
    vertex 0.0 0.0 0.0
    vertex -2.5726891745143776 4.959681498913395 0.0
    vertex -1.5821393077480148 3.5967812292212935 0.0
  endloop
endfacet
facet normal 0.0 0.0 -1.0
  outer loop
    vertex -1.5821393077480148 3.5967812292212935 0.0
    vertex -2.5726891745143776 4.959681498913395 0.0
    vertex -1.5821393077480148 5.0967812292212935 0.0
  endloop
endfacet
facet normal 0.0 0.0 -1.0
  outer loop
    vertex 0.0 0.0 0.0
    vertex -1.5821393077480148 3.5967812292212935 0.0
    vertex -0.5944509671528776 3.753215694261524 0.0
  endloop
endfacet
facet normal 0.0 0.0 -1.0
  outer loop
    vertex 0.0 0.0 0.0
    vertex -0.5944509671528776 3.753215694261524 0.0
    vertex 0.0 3.847367477994412 0.0
  endloop
endfacet
facet normal -0.13710073288800081 0.9905571104391574 -0.0
  outer loop
    vertex -2.5726891745143776 4.959681498913395 7.999999999999999
    vertex -1.5821393077480148 5.0967812292212935 0.0
    vertex -2.5726891745143776 4.959681498913395 0.0
  endloop
endfacet
facet normal -0.13710073288800081 0.9905571104391574 -0.0
  outer loop
    vertex -1.5821393077480148 5.0967812292212935 0.0
    vertex -2.5726891745143776 4.959681498913395 7.999999999999999
    vertex -1.5821393077480148 5.0967812292212935 7.999999999999999
  endloop
endfacet
facet normal 1.0 -0.0 -0.0
  outer loop
    vertex -2.5726891745143776 12.343781498913394 0.0
    vertex -2.5726891745143776 4.959681498913395 7.999999999999999
    vertex -2.5726891745143776 4.959681498913395 0.0
  endloop
endfacet
facet normal 1.0 -0.0 -0.0
  outer loop
    vertex -2.5726891745143776 4.959681498913395 7.999999999999999
    vertex -2.5726891745143776 12.343781498913394 0.0
    vertex -2.5726891745143776 12.343781498913394 7.999999999999999
  endloop
endfacet
facet normal -0.9854497668289134 -0.16996692930343912 0.0
  outer loop
    vertex -12.986447183257152 -2.6959195727419467 7.999999999999999
    vertex -12.91911453441827 -3.0863069461573427 0.0
    vertex -12.91911453441827 -3.0863069461573427 7.999999999999999
  endloop
endfacet
facet normal -0.9854497668289134 -0.16996692930343912 0.0
  outer loop
    vertex -12.91911453441827 -3.0863069461573427 0.0
    vertex -12.986447183257152 -2.6959195727419467 7.999999999999999
    vertex -12.986447183257152 -2.6959195727419467 0.0
  endloop
endfacet
facet normal -0.9531312652423696 -0.3025570875346998 -0.0
  outer loop
    vertex -12.91911453441827 -3.0863069461573427 7.999999999999999
    vertex -12.799256099532274 -3.4638912976716907 0.0
    vertex -12.799256099532274 -3.4638912976716907 7.999999999999999
  endloop
endfacet
facet normal -0.9531312652423696 -0.3025570875346998 -0.0
  outer loop
    vertex -12.799256099532274 -3.4638912976716907 0.0
    vertex -12.91911453441827 -3.0863069461573427 7.999999999999999
    vertex -12.91911453441827 -3.0863069461573427 0.0
  endloop
endfacet
facet normal -0.9030610411573387 -0.4295122302610531 -0.0
  outer loop
    vertex -12.799256099532274 -3.4638912976716907 7.999999999999999
    vertex -12.629104198273048 -3.8216402563280405 0.0
    vertex -12.629104198273048 -3.8216402563280405 7.999999999999999
  endloop
endfacet
facet normal -0.9030610411573387 -0.4295122302610531 -0.0
  outer loop
    vertex -12.629104198273048 -3.8216402563280405 0.0
    vertex -12.799256099532274 -3.4638912976716907 7.999999999999999
    vertex -12.799256099532274 -3.4638912976716907 0.0
  endloop
endfacet
facet normal -0.8361716342520542 -0.5484678642110666 -0.0
  outer loop
    vertex -12.629104198273048 -3.8216402563280405 7.999999999999999
    vertex -12.411827847798977 -4.152890878133495 0.0
    vertex -12.411827847798977 -4.152890878133495 7.999999999999999
  endloop
endfacet
facet normal -0.8361716342520542 -0.5484678642110666 -0.0
  outer loop
    vertex -12.411827847798977 -4.152890878133495 0.0
    vertex -12.629104198273048 -3.8216402563280405 7.999999999999999
    vertex -12.629104198273048 -3.8216402563280405 0.0
  endloop
endfacet
facet normal -0.7537088353559224 -0.6572084840493305 -0.0
  outer loop
    vertex -12.411827847798977 -4.152890878133495 7.999999999999999
    vertex -12.151473740963132 -4.451473740963133 0.0
    vertex -12.151473740963132 -4.451473740963133 7.999999999999999
  endloop
endfacet
facet normal -0.7537088353559224 -0.6572084840493305 -0.0
  outer loop
    vertex -12.151473740963132 -4.451473740963133 0.0
    vertex -12.411827847798977 -4.152890878133495 7.999999999999999
    vertex -12.411827847798977 -4.152890878133495 0.0
  endloop
endfacet
facet normal -0.6572084840493295 -0.7537088353559235 -0.0
  outer loop
    vertex -11.852890878133495 -4.7118278477989755 7.999999999999999
    vertex -12.151473740963132 -4.451473740963133 0.0
    vertex -11.852890878133495 -4.7118278477989755 0.0
  endloop
endfacet
facet normal -0.6572084840493295 -0.7537088353559235 -0.0
  outer loop
    vertex -12.151473740963132 -4.451473740963133 0.0
    vertex -11.852890878133495 -4.7118278477989755 7.999999999999999
    vertex -12.151473740963132 -4.451473740963133 7.999999999999999
  endloop
endfacet
facet normal -0.5484678642110686 -0.8361716342520529 -0.0
  outer loop
    vertex -11.521640256328041 -4.929104198273047 7.999999999999999
    vertex -11.852890878133495 -4.7118278477989755 0.0
    vertex -11.521640256328041 -4.929104198273047 0.0
  endloop
endfacet
facet normal -0.5484678642110686 -0.8361716342520529 -0.0
  outer loop
    vertex -11.852890878133495 -4.7118278477989755 0.0
    vertex -11.521640256328041 -4.929104198273047 7.999999999999999
    vertex -11.852890878133495 -4.7118278477989755 7.999999999999999
  endloop
endfacet
facet normal -0.42951223026105095 -0.9030610411573397 -0.0
  outer loop
    vertex -11.163891297671691 -5.099256099532273 7.999999999999999
    vertex -11.521640256328041 -4.929104198273047 0.0
    vertex -11.163891297671691 -5.099256099532273 0.0
  endloop
endfacet
facet normal -0.42951223026105095 -0.9030610411573397 -0.0
  outer loop
    vertex -11.521640256328041 -4.929104198273047 0.0
    vertex -11.163891297671691 -5.099256099532273 7.999999999999999
    vertex -11.521640256328041 -4.929104198273047 7.999999999999999
  endloop
endfacet
facet normal -0.302557087534703 -0.9531312652423685 -0.0
  outer loop
    vertex -10.786306946157342 -5.21911453441827 7.999999999999999
    vertex -11.163891297671691 -5.099256099532273 0.0
    vertex -10.786306946157342 -5.21911453441827 0.0
  endloop
endfacet
facet normal -0.302557087534703 -0.9531312652423685 -0.0
  outer loop
    vertex -11.163891297671691 -5.099256099532273 0.0
    vertex -10.786306946157342 -5.21911453441827 7.999999999999999
    vertex -11.163891297671691 -5.099256099532273 7.999999999999999
  endloop
endfacet
facet normal -0.1699669293034336 -0.9854497668289145 0.0
  outer loop
    vertex -10.395919572741946 -5.286447183257151 7.999999999999999
    vertex -10.786306946157342 -5.21911453441827 0.0
    vertex -10.395919572741946 -5.286447183257151 0.0
  endloop
endfacet
facet normal -0.1699669293034336 -0.9854497668289145 0.0
  outer loop
    vertex -10.786306946157342 -5.21911453441827 0.0
    vertex -10.395919572741946 -5.286447183257151 7.999999999999999
    vertex -10.786306946157342 -5.21911453441827 7.999999999999999
  endloop
endfacet
facet normal -0.1371530584753426 0.9905498667663629 -0.0
  outer loop
    vertex -12.999999999999998 10.9 7.999999999999999
    vertex -2.5726891745143776 12.343781498913394 0.0
    vertex -12.999999999999998 10.9 0.0
  endloop
endfacet
facet normal -0.1371530584753426 0.9905498667663629 -0.0
  outer loop
    vertex -2.5726891745143776 12.343781498913394 0.0
    vertex -12.999999999999998 10.9 7.999999999999999
    vertex -2.5726891745143776 12.343781498913394 7.999999999999999
  endloop
endfacet
endsolid Holder_front_under_Spacebar_right
