solid Keyboard_LEDs_Checkmate
facet normal 0.0 -2.7755575615628914e-16 1.0
  outer loop
    vertex 55.80930854288501 10.365418029561637 7.993445000013031
    vertex 40.80930854288501 11.224819029561624 7.993445000013031
    vertex 40.80930854288501 10.365418029561637 7.993445000013031
  endloop
endfacet
facet normal 0.0 -2.7755575615628914e-16 1.0
  outer loop
    vertex 40.80930854288501 11.224819029561624 7.993445000013031
    vertex 55.80930854288501 10.365418029561637 7.993445000013031
    vertex 55.80930854288501 11.224819029561623 7.993445000013031
  endloop
endfacet
facet normal 8.142462067841309e-17 1.0 4.366182767899299e-16
  outer loop
    vertex 37.25930854288501 13.765418029561642 3.2934450000130333
    vertex 39.359308527983856 13.765418029561642 1.2934450000130333
    vertex 37.25930854288501 13.765418029561642 1.2934450000130333
  endloop
endfacet
facet normal 8.142462067841309e-17 1.0 4.366182767899299e-16
  outer loop
    vertex 39.359308527983856 13.765418029561642 1.2934450000130333
    vertex 37.25930854288501 13.765418029561642 3.2934450000130333
    vertex 40.35930855778617 13.765418029561642 1.2934450000130333
  endloop
endfacet
facet normal 8.142462067841309e-17 1.0 4.366182767899299e-16
  outer loop
    vertex 40.35930855778617 13.765418029561642 1.2934450000130333
    vertex 37.25930854288501 13.765418029561642 3.2934450000130333
    vertex 41.40930854288501 13.765418029561642 1.2934450000130333
  endloop
endfacet
facet normal 8.142462067841309e-17 1.0 4.366182767899299e-16
  outer loop
    vertex 41.40930854288501 13.765418029561642 1.2934450000130333
    vertex 37.25930854288501 13.765418029561642 3.2934450000130333
    vertex 41.40930854288501 13.765418029561642 3.1434450000130334
  endloop
endfacet
facet normal 8.142462067841309e-17 1.0 4.366182767899299e-16
  outer loop
    vertex 41.40930854288501 13.765418029561642 3.1434450000130334
    vertex 37.25930854288501 13.765418029561642 3.2934450000130333
    vertex 54.20930854288501 13.765418029561642 3.1434450000130334
  endloop
endfacet
facet normal 8.142462067841309e-17 1.0 4.366182767899299e-16
  outer loop
    vertex 54.20930854288501 13.765418029561642 3.1434450000130334
    vertex 55.25930854288501 13.765418029561642 1.2934450000130333
    vertex 54.20930854288501 13.765418029561642 1.2934450000130333
  endloop
endfacet
facet normal 8.142462067841309e-17 1.0 4.366182767899299e-16
  outer loop
    vertex 55.25930854288501 13.765418029561642 1.2934450000130333
    vertex 54.20930854288501 13.765418029561642 3.1434450000130334
    vertex 56.25930854288501 13.765418029561642 1.2934450000130333
  endloop
endfacet
facet normal 8.142462067841309e-17 1.0 4.366182767899299e-16
  outer loop
    vertex 56.25930854288501 13.765418029561642 1.2934450000130333
    vertex 54.20930854288501 13.765418029561642 3.1434450000130334
    vertex 58.359308542885 13.765418029561642 1.2934450000130333
  endloop
endfacet
facet normal 8.142462067841309e-17 1.0 4.366182767899299e-16
  outer loop
    vertex 58.359308542885 13.765418029561642 1.2934450000130333
    vertex 54.20930854288501 13.765418029561642 3.1434450000130334
    vertex 58.359308542885 13.765418029561642 3.2934450000130333
  endloop
endfacet
facet normal 8.142462067841309e-17 1.0 4.366182767899299e-16
  outer loop
    vertex 58.359308542885 13.765418029561642 3.2934450000130333
    vertex 54.20930854288501 13.765418029561642 3.1434450000130334
    vertex 37.25930854288501 13.765418029561642 3.2934450000130333
  endloop
endfacet
facet normal 8.142462067841309e-17 1.0 4.366182767899299e-16
  outer loop
    vertex 58.359308542885 13.765418029561642 3.2934450000130333
    vertex 37.25930854288501 13.765418029561642 3.2934450000130333
    vertex 38.809308542885006 13.765418029561642 3.2934450000130333
  endloop
endfacet
facet normal 8.142462067841309e-17 1.0 4.366182767899299e-16
  outer loop
    vertex 58.359308542885 13.765418029561642 3.2934450000130333
    vertex 38.809308542885006 13.765418029561642 3.2934450000130333
    vertex 55.30930854288501 13.765418029561642 3.2934450000130333
  endloop
endfacet
facet normal 8.142462067841309e-17 1.0 4.366182767899299e-16
  outer loop
    vertex 58.359308542885 13.765418029561642 3.2934450000130333
    vertex 55.30930854288501 13.765418029561642 3.2934450000130333
    vertex 56.30930854288501 13.765418029561642 3.2934450000130333
  endloop
endfacet
facet normal 8.142462067841309e-17 1.0 4.366182767899299e-16
  outer loop
    vertex 58.359308542885 13.765418029561642 3.2934450000130333
    vertex 56.30930854288501 13.765418029561642 3.2934450000130333
    vertex 56.809308542885006 13.765418029561642 3.2934450000130333
  endloop
endfacet
facet normal 8.142462067841309e-17 1.0 4.366182767899299e-16
  outer loop
    vertex 55.25930854288501 13.765418029561642 1.2934450000130333
    vertex 56.25930854288501 13.765418029561642 -2.7065549999869662
    vertex 55.25930854288501 13.765418029561642 -2.7065549999869662
  endloop
endfacet
facet normal 8.142462067841309e-17 1.0 4.366182767899299e-16
  outer loop
    vertex 56.25930854288501 13.765418029561642 -2.7065549999869662
    vertex 55.25930854288501 13.765418029561642 1.2934450000130333
    vertex 56.25930854288501 13.765418029561642 1.2934450000130333
  endloop
endfacet
facet normal 8.142462067841309e-17 1.0 4.366182767899299e-16
  outer loop
    vertex 39.359308527983856 13.765418029561642 1.2934450000130333
    vertex 40.35930855778617 13.765418029561642 -2.7065549999869662
    vertex 39.359308527983856 13.765418029561642 -2.7065549999869662
  endloop
endfacet
facet normal 8.142462067841309e-17 1.0 4.366182767899299e-16
  outer loop
    vertex 40.35930855778617 13.765418029561642 -2.7065549999869662
    vertex 39.359308527983856 13.765418029561642 1.2934450000130333
    vertex 40.35930855778617 13.765418029561642 1.2934450000130333
  endloop
endfacet
facet normal 8.142462067841309e-17 1.0 4.366182767899299e-16
  outer loop
    vertex 40.30930854288501 13.765418029561623 5.193445000013034
    vertex 55.30930854288501 13.765418029561642 3.2934450000130333
    vertex 38.809308542885006 13.765418029561642 3.2934450000130333
  endloop
endfacet
facet normal 8.142462067841309e-17 1.0 4.366182767899299e-16
  outer loop
    vertex 55.30930854288501 13.765418029561642 3.2934450000130333
    vertex 40.30930854288501 13.765418029561623 5.193445000013034
    vertex 55.30930854288501 13.765418029561642 4.293445000013032
  endloop
endfacet
facet normal 8.142462067841309e-17 1.0 4.366182767899299e-16
  outer loop
    vertex 55.30930854288501 13.765418029561642 4.293445000013032
    vertex 40.30930854288501 13.765418029561623 5.193445000013034
    vertex 54.409308542885015 13.765418029561589 4.793445000013033
  endloop
endfacet
facet normal 8.142462067841309e-17 1.0 4.366182767899299e-16
  outer loop
    vertex 54.409308542885015 13.765418029561589 4.793445000013033
    vertex 40.30930854288501 13.765418029561623 5.193445000013034
    vertex 54.409308542885015 13.765418029561625 5.593445000013046
  endloop
endfacet
facet normal 8.142462067841309e-17 1.0 4.366182767899299e-16
  outer loop
    vertex 54.409308542885015 13.765418029561625 5.593445000013046
    vertex 40.30930854288501 13.765418029561623 5.193445000013034
    vertex 40.80930854288501 13.765418029561623 5.593445000013034
  endloop
endfacet
facet normal 8.142462067841309e-17 1.0 4.366182767899299e-16
  outer loop
    vertex 40.80930854288501 13.765418029561623 5.593445000013034
    vertex 40.30930854288501 13.765418029561623 5.193445000013034
    vertex 40.30930854288501 13.765418029561623 5.593445000013034
  endloop
endfacet
facet normal 8.142462067841309e-17 1.0 4.366182767899299e-16
  outer loop
    vertex 54.409308542885015 13.765418029561625 5.593445000013046
    vertex 40.80930854288501 13.765418029561623 5.593445000013034
    vertex 40.80930854288501 13.765418029561628 15.993445000013033
  endloop
endfacet
facet normal 8.142462067841309e-17 1.0 4.366182767899299e-16
  outer loop
    vertex 54.409308542885015 13.765418029561625 5.593445000013046
    vertex 40.80930854288501 13.765418029561628 15.993445000013033
    vertex 54.80930854288501 13.765418029561625 5.593445000013046
  endloop
endfacet
facet normal 8.142462067841309e-17 1.0 4.366182767899299e-16
  outer loop
    vertex 54.80930854288501 13.765418029561625 5.593445000013046
    vertex 40.80930854288501 13.765418029561628 15.993445000013033
    vertex 55.80930854288502 13.765418029561625 5.593445000013046
  endloop
endfacet
facet normal 8.142462067841309e-17 1.0 4.366182767899299e-16
  outer loop
    vertex 55.80930854288502 13.765418029561625 5.593445000013046
    vertex 40.80930854288501 13.765418029561628 15.993445000013033
    vertex 55.80930854288501 13.765418029561628 15.993445000013033
  endloop
endfacet
facet normal 8.142462067841309e-17 1.0 4.366182767899299e-16
  outer loop
    vertex 55.30930854288501 13.765418029561589 4.793445000013033
    vertex 55.30930854288501 13.765418029561642 4.293445000013032
    vertex 54.409308542885015 13.765418029561589 4.793445000013033
  endloop
endfacet
facet normal -1.0 -0.0 0.0
  outer loop
    vertex 54.20930854288501 13.765418029561642 3.1434450000130334
    vertex 54.20930854288501 10.365418029561644 1.2934450000130289
    vertex 54.20930854288501 10.365418029561626 3.143445000013033
  endloop
endfacet
facet normal -1.0 -0.0 0.0
  outer loop
    vertex 54.20930854288501 10.365418029561644 1.2934450000130289
    vertex 54.20930854288501 13.765418029561642 3.1434450000130334
    vertex 54.20930854288501 13.765418029561642 1.2934450000130333
  endloop
endfacet
facet normal 5.685416295459471e-16 5.183761916448345e-17 1.0
  outer loop
    vertex 58.359308542885 10.365418029561626 3.2934450000130324
    vertex 56.809308542885006 13.765418029561642 3.2934450000130333
    vertex 56.809308542885006 10.365418029561624 3.2934450000130338
  endloop
endfacet
facet normal 5.685416295459471e-16 5.183761916448345e-17 1.0
  outer loop
    vertex 56.809308542885006 13.765418029561642 3.2934450000130333
    vertex 58.359308542885 10.365418029561626 3.2934450000130324
    vertex 58.359308542885 13.765418029561642 3.2934450000130333
  endloop
endfacet
facet normal 1.0 0.0 0.0
  outer loop
    vertex 58.359308542885 10.365418029561644 1.2934450000130289
    vertex 58.359308542885 13.765418029561642 3.2934450000130333
    vertex 58.359308542885 10.365418029561626 3.2934450000130324
  endloop
endfacet
facet normal 1.0 0.0 0.0
  outer loop
    vertex 58.359308542885 13.765418029561642 3.2934450000130333
    vertex 58.359308542885 10.365418029561644 1.2934450000130289
    vertex 58.359308542885 13.765418029561642 1.2934450000130333
  endloop
endfacet
facet normal 1.0 0.0 0.0
  outer loop
    vertex 41.40930854288501 10.365418029561644 1.2934450000130289
    vertex 41.40930854288501 13.765418029561642 3.1434450000130334
    vertex 41.40930854288501 10.365418029561626 3.143445000013033
  endloop
endfacet
facet normal 1.0 0.0 0.0
  outer loop
    vertex 41.40930854288501 13.765418029561642 3.1434450000130334
    vertex 41.40930854288501 10.365418029561644 1.2934450000130289
    vertex 41.40930854288501 13.765418029561642 1.2934450000130333
  endloop
endfacet
facet normal 0.0 2.7755575615628914e-16 -1.0
  outer loop
    vertex 54.20930854288501 13.765418029561642 3.1434450000130334
    vertex 41.40930854288501 10.365418029561626 3.143445000013033
    vertex 41.40930854288501 13.765418029561642 3.1434450000130334
  endloop
endfacet
facet normal 0.0 2.7755575615628914e-16 -1.0
  outer loop
    vertex 41.40930854288501 10.365418029561626 3.143445000013033
    vertex 54.20930854288501 13.765418029561642 3.1434450000130334
    vertex 54.20930854288501 10.365418029561626 3.143445000013033
  endloop
endfacet
facet normal -0.13052619160448126 0.9914448614548518 2.751812282083687e-16
  outer loop
    vertex 55.00048949898194 13.731343856172103 1.2934450000130333
    vertex 55.25930854288501 13.765418029561642 -2.7065549999869662
    vertex 55.00048949898194 13.731343856172103 -2.7065549999869662
  endloop
endfacet
facet normal -0.13052619160448126 0.9914448614548518 2.751812282083687e-16
  outer loop
    vertex 55.25930854288501 13.765418029561642 -2.7065549999869662
    vertex 55.00048949898194 13.731343856172103 1.2934450000130333
    vertex 55.25930854288501 13.765418029561642 1.2934450000130333
  endloop
endfacet
facet normal -0.3826834306442311 0.9238795332240898 2.564280824413317e-16
  outer loop
    vertex 54.759308545035815 13.631443434587844 1.2934450000130333
    vertex 55.00048949898194 13.731343856172103 -2.7065549999869662
    vertex 54.759308545035815 13.631443434587844 -2.7065549999869662
  endloop
endfacet
facet normal -0.3826834306442311 0.9238795332240898 2.564280824413317e-16
  outer loop
    vertex 55.00048949898194 13.731343856172103 -2.7065549999869662
    vertex 54.759308545035815 13.631443434587844 1.2934450000130333
    vertex 55.00048949898194 13.731343856172103 1.2934450000130333
  endloop
endfacet
facet normal -0.7933533376454559 0.6087614324567676 1.6896523970432397e-16
  outer loop
    vertex 54.3932831415841 13.265418033863238 1.2934450000130333
    vertex 54.55220176433264 13.472524813382355 -2.7065549999869662
    vertex 54.3932831415841 13.265418033863224 -2.7065549999869636
  endloop
endfacet
facet normal -0.7933533376454559 0.6087614324567676 1.6896523970432397e-16
  outer loop
    vertex 54.55220176433264 13.472524813382355 -2.7065549999869662
    vertex 54.3932831415841 13.265418033863238 1.2934450000130333
    vertex 54.55220176433264 13.472524813382366 1.2934450000130333
  endloop
endfacet
facet normal -0.9238795303728757 0.38268343752767076 1.0621599087148068e-16
  outer loop
    vertex 54.293382718202906 13.024237080661418 1.2934450000130264
    vertex 54.3932831415841 13.265418033863224 -2.7065549999869636
    vertex 54.293382718202906 13.024237080661406 -2.7065549999869716
  endloop
endfacet
facet normal -0.9238795303728757 0.38268343752767076 1.0621599087148068e-16
  outer loop
    vertex 54.3932831415841 13.265418033863224 -2.7065549999869636
    vertex 54.293382718202906 13.024237080661418 1.2934450000130264
    vertex 54.3932831415841 13.265418033863238 1.2934450000130333
  endloop
endfacet
facet normal -0.9914448604823556 0.13052619899132398 3.622829785924319e-17
  outer loop
    vertex 54.259308542885016 12.765418037012221 1.293445000013033
    vertex 54.293382718202906 13.024237080661406 -2.7065549999869716
    vertex 54.259308542885016 12.76541803701221 -2.7065549999869716
  endloop
endfacet
facet normal -0.9914448604823556 0.13052619899132398 3.622829785924319e-17
  outer loop
    vertex 54.293382718202906 13.024237080661406 -2.7065549999869716
    vertex 54.259308542885016 12.765418037012221 1.293445000013033
    vertex 54.293382718202906 13.024237080661418 1.2934450000130264
  endloop
endfacet
facet normal -0.6087614265458245 0.7933533421810818 2.2019978678818936e-16
  outer loop
    vertex 54.55220176433264 13.472524813382366 1.2934450000130333
    vertex 54.759308545035815 13.631443434587844 -2.7065549999869662
    vertex 54.55220176433264 13.472524813382355 -2.7065549999869662
  endloop
endfacet
facet normal -0.6087614265458245 0.7933533421810818 2.2019978678818936e-16
  outer loop
    vertex 54.759308545035815 13.631443434587844 -2.7065549999869662
    vertex 54.55220176433264 13.472524813382366 1.2934450000130333
    vertex 54.759308545035815 13.631443434587844 1.2934450000130333
  endloop
endfacet
facet normal -0.9914448624273476 -0.13052618421764298 -3.622829375872299e-17
  outer loop
    vertex 54.2933827143462 12.506598992855281 1.293445000013033
    vertex 54.259308542885016 12.76541803701221 -2.7065549999869716
    vertex 54.2933827143462 12.506598992855256 -2.7065549999869676
  endloop
endfacet
facet normal -0.9914448624273476 -0.13052618421764298 -3.622829375872299e-17
  outer loop
    vertex 54.259308542885016 12.76541803701221 -2.7065549999869716
    vertex 54.2933827143462 12.506598992855281 1.293445000013033
    vertex 54.259308542885016 12.765418037012221 1.293445000013033
  endloop
endfacet
facet normal -0.7933533467167081 -0.6087614206348811 -1.6896523642309123e-16
  outer loop
    vertex 54.393283134133526 12.265418038164832 1.293445000013033
    vertex 54.55220175379593 12.058311256277628 -2.7065549999869596
    vertex 54.55220175379593 12.058311256277628 1.293445000013033
  endloop
endfacet
facet normal -0.7933533467167081 -0.6087614206348811 -1.6896523642309123e-16
  outer loop
    vertex 54.55220175379593 12.058311256277628 -2.7065549999869596
    vertex 54.393283134133526 12.265418038164832 1.293445000013033
    vertex 54.393283134133526 12.265418038164807 -2.7065549999869676
  endloop
endfacet
facet normal -0.6087614383677122 -0.7933533331098285 -2.2019978427041077e-16
  outer loop
    vertex 54.75930853213102 11.899392631986021 1.2934450000130349
    vertex 54.55220175379593 12.058311256277628 -2.7065549999869596
    vertex 54.75930853213102 11.899392631986021 -2.7065549999869596
  endloop
endfacet
facet normal -0.6087614383677122 -0.7933533331098285 -2.2019978427041077e-16
  outer loop
    vertex 54.55220175379593 12.058311256277628 -2.7065549999869596
    vertex 54.75930853213102 11.899392631986021 1.2934450000130349
    vertex 54.55220175379593 12.058311256277628 1.293445000013033
  endloop
endfacet
facet normal -0.38268344441110885 -0.9238795275216622 -2.564280808585901e-16
  outer loop
    vertex 55.000489484588535 11.799492206807885 1.293445000013026
    vertex 54.75930853213102 11.899392631986021 -2.7065549999869596
    vertex 55.000489484588535 11.799492206807885 -2.706554999986967
  endloop
endfacet
facet normal -0.38268344441110885 -0.9238795275216622 -2.564280808585901e-16
  outer loop
    vertex 54.75930853213102 11.899392631986021 -2.7065549999869596
    vertex 55.000489484588535 11.799492206807885 1.293445000013026
    vertex 54.75930853213102 11.899392631986021 1.2934450000130349
  endloop
endfacet
facet normal -0.1305262063781595 -0.99144485950986 -3.494588285629077e-16
  outer loop
    vertex 55.25930852798385 11.76541802956164 1.293445000013026
    vertex 55.000489484588535 11.799492206807885 -2.706554999986967
    vertex 55.25930852798385 11.765418029561642 -2.706554999986967
  endloop
endfacet
facet normal -0.1305262063781595 -0.99144485950986 -3.494588285629077e-16
  outer loop
    vertex 55.000489484588535 11.799492206807885 -2.706554999986967
    vertex 55.25930852798385 11.76541802956164 1.293445000013026
    vertex 55.000489484588535 11.799492206807885 1.293445000013026
  endloop
endfacet
facet normal 0.38268344441110885 -0.9238795275216622 -2.564280808585901e-16
  outer loop
    vertex 56.759308553638995 11.899392631986021 -2.7065549999869596
    vertex 56.51812760118149 11.799492206807885 1.293445000013026
    vertex 56.51812760118149 11.799492206807885 -2.706554999986967
  endloop
endfacet
facet normal 0.38268344441110885 -0.9238795275216622 -2.564280808585901e-16
  outer loop
    vertex 56.51812760118149 11.799492206807885 1.293445000013026
    vertex 56.759308553638995 11.899392631986021 -2.7065549999869596
    vertex 56.759308553638995 11.899392631986021 1.2934450000130349
  endloop
endfacet
facet normal 0.7933533467167081 -0.6087614206348811 -1.6896523642309123e-16
  outer loop
    vertex 57.1253339516365 12.265418038164807 -2.7065549999869676
    vertex 56.9664153319741 12.058311256277628 1.293445000013033
    vertex 56.9664153319741 12.058311256277628 -2.7065549999869596
  endloop
endfacet
facet normal 0.7933533467167081 -0.6087614206348811 -1.6896523642309123e-16
  outer loop
    vertex 56.9664153319741 12.058311256277628 1.293445000013033
    vertex 57.1253339516365 12.265418038164807 -2.7065549999869676
    vertex 57.1253339516365 12.265418038164832 1.293445000013033
  endloop
endfacet
facet normal 0.9238795360753019 -0.3826834237607963 -1.0621598705040539e-16
  outer loop
    vertex 57.22523437142382 12.506598992855256 -2.7065549999869676
    vertex 57.1253339516365 12.265418038164832 1.293445000013033
    vertex 57.1253339516365 12.265418038164807 -2.7065549999869676
  endloop
endfacet
facet normal 0.9238795360753019 -0.3826834237607963 -1.0621598705040539e-16
  outer loop
    vertex 57.1253339516365 12.265418038164832 1.293445000013033
    vertex 57.22523437142382 12.506598992855256 -2.7065549999869676
    vertex 57.22523437142382 12.506598992855281 1.293445000013033
  endloop
endfacet
facet normal 0.9914448624273476 -0.13052618421764298 -3.622829375872299e-17
  outer loop
    vertex 57.25930854288501 12.76541803701221 -2.7065549999869716
    vertex 57.22523437142382 12.506598992855281 1.293445000013033
    vertex 57.22523437142382 12.506598992855256 -2.7065549999869676
  endloop
endfacet
facet normal 0.9914448624273476 -0.13052618421764298 -3.622829375872299e-17
  outer loop
    vertex 57.22523437142382 12.506598992855281 1.293445000013033
    vertex 57.25930854288501 12.76541803701221 -2.7065549999869716
    vertex 57.25930854288501 12.765418037012221 1.293445000013033
  endloop
endfacet
facet normal 0.6087614383677122 -0.7933533331098285 -2.2019978427041077e-16
  outer loop
    vertex 56.9664153319741 12.058311256277628 1.293445000013033
    vertex 56.759308553638995 11.899392631986021 -2.7065549999869596
    vertex 56.9664153319741 12.058311256277628 -2.7065549999869596
  endloop
endfacet
facet normal 0.6087614383677122 -0.7933533331098285 -2.2019978427041077e-16
  outer loop
    vertex 56.759308553638995 11.899392631986021 -2.7065549999869596
    vertex 56.9664153319741 12.058311256277628 1.293445000013033
    vertex 56.759308553638995 11.899392631986021 1.2934450000130349
  endloop
endfacet
facet normal 0.9914448604823556 0.13052619899132398 3.622829785924319e-17
  outer loop
    vertex 57.22523436756712 13.024237080661406 -2.7065549999869716
    vertex 57.25930854288501 12.765418037012221 1.293445000013033
    vertex 57.25930854288501 12.76541803701221 -2.7065549999869716
  endloop
endfacet
facet normal 0.9914448604823556 0.13052619899132398 3.622829785924319e-17
  outer loop
    vertex 57.25930854288501 12.765418037012221 1.293445000013033
    vertex 57.22523436756712 13.024237080661406 -2.7065549999869716
    vertex 57.22523436756712 13.024237080661418 1.2934450000130264
  endloop
endfacet
facet normal 0.6087614265458245 0.7933533421810818 2.2019978678818936e-16
  outer loop
    vertex 56.75930854073421 13.631443434587844 1.2934450000130333
    vertex 56.96641532143738 13.472524813382355 -2.7065549999869662
    vertex 56.75930854073421 13.631443434587844 -2.7065549999869662
  endloop
endfacet
facet normal 0.6087614265458245 0.7933533421810818 2.2019978678818936e-16
  outer loop
    vertex 56.96641532143738 13.472524813382355 -2.7065549999869662
    vertex 56.75930854073421 13.631443434587844 1.2934450000130333
    vertex 56.96641532143738 13.472524813382366 1.2934450000130333
  endloop
endfacet
facet normal 0.3826834306442311 0.9238795332240898 2.564280824413317e-16
  outer loop
    vertex 56.518127586788076 13.731343856172103 1.2934450000130333
    vertex 56.75930854073421 13.631443434587844 -2.7065549999869662
    vertex 56.518127586788076 13.731343856172103 -2.7065549999869662
  endloop
endfacet
facet normal 0.3826834306442311 0.9238795332240898 2.564280824413317e-16
  outer loop
    vertex 56.75930854073421 13.631443434587844 -2.7065549999869662
    vertex 56.518127586788076 13.731343856172103 1.2934450000130333
    vertex 56.75930854073421 13.631443434587844 1.2934450000130333
  endloop
endfacet
facet normal -5.731843968004589e-32 4.067860078803651e-16 -1.0
  outer loop
    vertex 54.293382718202906 13.024237080661406 -2.7065549999869716
    vertex 54.2933827143462 12.506598992855256 -2.7065549999869676
    vertex 54.259308542885016 12.76541803701221 -2.7065549999869716
  endloop
endfacet
facet normal -5.731843968004589e-32 4.067860078803651e-16 -1.0
  outer loop
    vertex 54.2933827143462 12.506598992855256 -2.7065549999869676
    vertex 54.293382718202906 13.024237080661406 -2.7065549999869716
    vertex 54.393283134133526 12.265418038164807 -2.7065549999869676
  endloop
endfacet
facet normal -5.731843968004589e-32 4.067860078803651e-16 -1.0
  outer loop
    vertex 54.393283134133526 12.265418038164807 -2.7065549999869676
    vertex 54.293382718202906 13.024237080661406 -2.7065549999869716
    vertex 54.3932831415841 13.265418033863224 -2.7065549999869636
  endloop
endfacet
facet normal -5.731843968004589e-32 4.067860078803651e-16 -1.0
  outer loop
    vertex 54.393283134133526 12.265418038164807 -2.7065549999869676
    vertex 54.3932831415841 13.265418033863224 -2.7065549999869636
    vertex 54.55220175379593 12.058311256277628 -2.7065549999869596
  endloop
endfacet
facet normal -5.731843968004589e-32 4.067860078803651e-16 -1.0
  outer loop
    vertex 54.55220175379593 12.058311256277628 -2.7065549999869596
    vertex 54.3932831415841 13.265418033863224 -2.7065549999869636
    vertex 54.55220176433264 13.472524813382355 -2.7065549999869662
  endloop
endfacet
facet normal -5.731843968004589e-32 4.067860078803651e-16 -1.0
  outer loop
    vertex 54.55220175379593 12.058311256277628 -2.7065549999869596
    vertex 54.55220176433264 13.472524813382355 -2.7065549999869662
    vertex 54.75930853213102 11.899392631986021 -2.7065549999869596
  endloop
endfacet
facet normal -5.731843968004589e-32 4.067860078803651e-16 -1.0
  outer loop
    vertex 54.75930853213102 11.899392631986021 -2.7065549999869596
    vertex 54.55220176433264 13.472524813382355 -2.7065549999869662
    vertex 54.759308545035815 13.631443434587844 -2.7065549999869662
  endloop
endfacet
facet normal -5.731843968004589e-32 4.067860078803651e-16 -1.0
  outer loop
    vertex 54.75930853213102 11.899392631986021 -2.7065549999869596
    vertex 54.759308545035815 13.631443434587844 -2.7065549999869662
    vertex 55.000489484588535 11.799492206807885 -2.706554999986967
  endloop
endfacet
facet normal -5.731843968004589e-32 4.067860078803651e-16 -1.0
  outer loop
    vertex 55.000489484588535 11.799492206807885 -2.706554999986967
    vertex 54.759308545035815 13.631443434587844 -2.7065549999869662
    vertex 55.00048949898194 13.731343856172103 -2.7065549999869662
  endloop
endfacet
facet normal -5.731843968004589e-32 4.067860078803651e-16 -1.0
  outer loop
    vertex 55.000489484588535 11.799492206807885 -2.706554999986967
    vertex 55.00048949898194 13.731343856172103 -2.7065549999869662
    vertex 55.25930852798385 11.765418029561642 -2.706554999986967
  endloop
endfacet
facet normal -5.731843968004589e-32 4.067860078803651e-16 -1.0
  outer loop
    vertex 55.25930852798385 11.765418029561642 -2.706554999986967
    vertex 55.00048949898194 13.731343856172103 -2.7065549999869662
    vertex 55.25930854288501 13.765418029561642 -2.7065549999869662
  endloop
endfacet
facet normal -5.731843968004589e-32 4.067860078803651e-16 -1.0
  outer loop
    vertex 55.25930852798385 11.765418029561642 -2.706554999986967
    vertex 55.25930854288501 13.765418029561642 -2.7065549999869662
    vertex 56.25930855778618 11.765418029561642 -2.706554999986967
  endloop
endfacet
facet normal -5.731843968004589e-32 4.067860078803651e-16 -1.0
  outer loop
    vertex 56.25930855778618 11.765418029561642 -2.706554999986967
    vertex 55.25930854288501 13.765418029561642 -2.7065549999869662
    vertex 56.25930854288501 13.765418029561642 -2.7065549999869662
  endloop
endfacet
facet normal -5.731843968004589e-32 4.067860078803651e-16 -1.0
  outer loop
    vertex 56.25930855778618 11.765418029561642 -2.706554999986967
    vertex 56.25930854288501 13.765418029561642 -2.7065549999869662
    vertex 56.518127586788076 13.731343856172103 -2.7065549999869662
  endloop
endfacet
facet normal -5.731843968004589e-32 4.067860078803651e-16 -1.0
  outer loop
    vertex 56.25930855778618 11.765418029561642 -2.706554999986967
    vertex 56.518127586788076 13.731343856172103 -2.7065549999869662
    vertex 56.51812760118149 11.799492206807885 -2.706554999986967
  endloop
endfacet
facet normal -5.731843968004589e-32 4.067860078803651e-16 -1.0
  outer loop
    vertex 56.51812760118149 11.799492206807885 -2.706554999986967
    vertex 56.518127586788076 13.731343856172103 -2.7065549999869662
    vertex 56.75930854073421 13.631443434587844 -2.7065549999869662
  endloop
endfacet
facet normal -5.731843968004589e-32 4.067860078803651e-16 -1.0
  outer loop
    vertex 56.51812760118149 11.799492206807885 -2.706554999986967
    vertex 56.75930854073421 13.631443434587844 -2.7065549999869662
    vertex 56.759308553638995 11.899392631986021 -2.7065549999869596
  endloop
endfacet
facet normal -5.731843968004589e-32 4.067860078803651e-16 -1.0
  outer loop
    vertex 56.759308553638995 11.899392631986021 -2.7065549999869596
    vertex 56.75930854073421 13.631443434587844 -2.7065549999869662
    vertex 56.96641532143738 13.472524813382355 -2.7065549999869662
  endloop
endfacet
facet normal -5.731843968004589e-32 4.067860078803651e-16 -1.0
  outer loop
    vertex 56.759308553638995 11.899392631986021 -2.7065549999869596
    vertex 56.96641532143738 13.472524813382355 -2.7065549999869662
    vertex 56.9664153319741 12.058311256277628 -2.7065549999869596
  endloop
endfacet
facet normal -5.731843968004589e-32 4.067860078803651e-16 -1.0
  outer loop
    vertex 56.9664153319741 12.058311256277628 -2.7065549999869596
    vertex 56.96641532143738 13.472524813382355 -2.7065549999869662
    vertex 57.125333944185925 13.265418033863224 -2.7065549999869636
  endloop
endfacet
facet normal -5.731843968004589e-32 4.067860078803651e-16 -1.0
  outer loop
    vertex 56.9664153319741 12.058311256277628 -2.7065549999869596
    vertex 57.125333944185925 13.265418033863224 -2.7065549999869636
    vertex 57.1253339516365 12.265418038164807 -2.7065549999869676
  endloop
endfacet
facet normal -5.731843968004589e-32 4.067860078803651e-16 -1.0
  outer loop
    vertex 57.1253339516365 12.265418038164807 -2.7065549999869676
    vertex 57.125333944185925 13.265418033863224 -2.7065549999869636
    vertex 57.22523436756712 13.024237080661406 -2.7065549999869716
  endloop
endfacet
facet normal -5.731843968004589e-32 4.067860078803651e-16 -1.0
  outer loop
    vertex 57.1253339516365 12.265418038164807 -2.7065549999869676
    vertex 57.22523436756712 13.024237080661406 -2.7065549999869716
    vertex 57.22523437142382 12.506598992855256 -2.7065549999869676
  endloop
endfacet
facet normal -5.731843968004589e-32 4.067860078803651e-16 -1.0
  outer loop
    vertex 57.22523437142382 12.506598992855256 -2.7065549999869676
    vertex 57.22523436756712 13.024237080661406 -2.7065549999869716
    vertex 57.25930854288501 12.76541803701221 -2.7065549999869716
  endloop
endfacet
facet normal 0.0 2.7755575615628914e-16 -1.0
  outer loop
    vertex 54.20930854288501 13.765418029561642 1.2934450000130333
    vertex 54.259308542885016 12.765418037012221 1.293445000013033
    vertex 54.20930854288501 10.365418029561644 1.2934450000130289
  endloop
endfacet
facet normal 0.0 2.7755575615628914e-16 -1.0
  outer loop
    vertex 54.259308542885016 12.765418037012221 1.293445000013033
    vertex 54.20930854288501 13.765418029561642 1.2934450000130333
    vertex 54.293382718202906 13.024237080661418 1.2934450000130264
  endloop
endfacet
facet normal 0.0 2.7755575615628914e-16 -1.0
  outer loop
    vertex 54.293382718202906 13.024237080661418 1.2934450000130264
    vertex 54.20930854288501 13.765418029561642 1.2934450000130333
    vertex 54.3932831415841 13.265418033863238 1.2934450000130333
  endloop
endfacet
facet normal 0.0 2.7755575615628914e-16 -1.0
  outer loop
    vertex 54.3932831415841 13.265418033863238 1.2934450000130333
    vertex 54.20930854288501 13.765418029561642 1.2934450000130333
    vertex 54.55220176433264 13.472524813382366 1.2934450000130333
  endloop
endfacet
facet normal 0.0 2.7755575615628914e-16 -1.0
  outer loop
    vertex 54.55220176433264 13.472524813382366 1.2934450000130333
    vertex 54.20930854288501 13.765418029561642 1.2934450000130333
    vertex 54.759308545035815 13.631443434587844 1.2934450000130333
  endloop
endfacet
facet normal 0.0 2.7755575615628914e-16 -1.0
  outer loop
    vertex 54.759308545035815 13.631443434587844 1.2934450000130333
    vertex 54.20930854288501 13.765418029561642 1.2934450000130333
    vertex 55.00048949898194 13.731343856172103 1.2934450000130333
  endloop
endfacet
facet normal 0.0 2.7755575615628914e-16 -1.0
  outer loop
    vertex 55.00048949898194 13.731343856172103 1.2934450000130333
    vertex 54.20930854288501 13.765418029561642 1.2934450000130333
    vertex 55.25930854288501 13.765418029561642 1.2934450000130333
  endloop
endfacet
facet normal 0.0 2.7755575615628914e-16 -1.0
  outer loop
    vertex 58.359308542885 13.765418029561642 1.2934450000130333
    vertex 56.518127586788076 13.731343856172103 1.2934450000130333
    vertex 56.25930854288501 13.765418029561642 1.2934450000130333
  endloop
endfacet
facet normal 0.0 2.7755575615628914e-16 -1.0
  outer loop
    vertex 56.518127586788076 13.731343856172103 1.2934450000130333
    vertex 58.359308542885 13.765418029561642 1.2934450000130333
    vertex 56.75930854073421 13.631443434587844 1.2934450000130333
  endloop
endfacet
facet normal 0.0 2.7755575615628914e-16 -1.0
  outer loop
    vertex 56.75930854073421 13.631443434587844 1.2934450000130333
    vertex 58.359308542885 13.765418029561642 1.2934450000130333
    vertex 56.96641532143738 13.472524813382366 1.2934450000130333
  endloop
endfacet
facet normal 0.0 2.7755575615628914e-16 -1.0
  outer loop
    vertex 56.96641532143738 13.472524813382366 1.2934450000130333
    vertex 58.359308542885 13.765418029561642 1.2934450000130333
    vertex 57.125333944185925 13.265418033863238 1.2934450000130333
  endloop
endfacet
facet normal 0.0 2.7755575615628914e-16 -1.0
  outer loop
    vertex 57.125333944185925 13.265418033863238 1.2934450000130333
    vertex 58.359308542885 13.765418029561642 1.2934450000130333
    vertex 57.22523436756712 13.024237080661418 1.2934450000130264
  endloop
endfacet
facet normal 0.0 2.7755575615628914e-16 -1.0
  outer loop
    vertex 57.22523436756712 13.024237080661418 1.2934450000130264
    vertex 58.359308542885 13.765418029561642 1.2934450000130333
    vertex 57.25930854288501 12.765418037012221 1.293445000013033
  endloop
endfacet
facet normal 0.0 2.7755575615628914e-16 -1.0
  outer loop
    vertex 54.20930854288501 10.365418029561644 1.2934450000130289
    vertex 55.659308542885015 11.415418029561641 1.293445000013032
    vertex 58.359308542885 10.365418029561644 1.2934450000130289
  endloop
endfacet
facet normal 0.0 2.7755575615628914e-16 -1.0
  outer loop
    vertex 55.659308542885015 11.415418029561641 1.293445000013032
    vertex 54.20930854288501 10.365418029561644 1.2934450000130289
    vertex 54.75930853213102 11.899392631986021 1.2934450000130349
  endloop
endfacet
facet normal 0.0 2.7755575615628914e-16 -1.0
  outer loop
    vertex 54.75930853213102 11.899392631986021 1.2934450000130349
    vertex 54.20930854288501 10.365418029561644 1.2934450000130289
    vertex 54.55220175379593 12.058311256277628 1.293445000013033
  endloop
endfacet
facet normal 0.0 2.7755575615628914e-16 -1.0
  outer loop
    vertex 54.55220175379593 12.058311256277628 1.293445000013033
    vertex 54.20930854288501 10.365418029561644 1.2934450000130289
    vertex 54.393283134133526 12.265418038164832 1.293445000013033
  endloop
endfacet
facet normal 0.0 2.7755575615628914e-16 -1.0
  outer loop
    vertex 54.393283134133526 12.265418038164832 1.293445000013033
    vertex 54.20930854288501 10.365418029561644 1.2934450000130289
    vertex 54.2933827143462 12.506598992855281 1.293445000013033
  endloop
endfacet
facet normal 0.0 2.7755575615628914e-16 -1.0
  outer loop
    vertex 54.2933827143462 12.506598992855281 1.293445000013033
    vertex 54.20930854288501 10.365418029561644 1.2934450000130289
    vertex 54.259308542885016 12.765418037012221 1.293445000013033
  endloop
endfacet
facet normal 0.0 2.7755575615628914e-16 -1.0
  outer loop
    vertex 55.659308542885015 11.415418029561641 1.293445000013032
    vertex 54.75930853213102 11.899392631986021 1.2934450000130349
    vertex 55.000489484588535 11.799492206807885 1.293445000013026
  endloop
endfacet
facet normal 0.0 2.7755575615628914e-16 -1.0
  outer loop
    vertex 55.659308542885015 11.415418029561641 1.293445000013032
    vertex 55.000489484588535 11.799492206807885 1.293445000013026
    vertex 55.25930852798385 11.76541802956164 1.293445000013026
  endloop
endfacet
facet normal 0.0 2.7755575615628914e-16 -1.0
  outer loop
    vertex 58.359308542885 10.365418029561644 1.2934450000130289
    vertex 55.659308542885015 11.415418029561641 1.293445000013032
    vertex 55.85930854288501 11.415418029561641 1.293445000013032
  endloop
endfacet
facet normal 0.0 2.7755575615628914e-16 -1.0
  outer loop
    vertex 58.359308542885 10.365418029561644 1.2934450000130289
    vertex 55.85930854288501 11.415418029561641 1.293445000013032
    vertex 56.25930855778618 11.76541802956164 1.293445000013026
  endloop
endfacet
facet normal 0.0 2.7755575615628914e-16 -1.0
  outer loop
    vertex 58.359308542885 10.365418029561644 1.2934450000130289
    vertex 56.25930855778618 11.76541802956164 1.293445000013026
    vertex 56.51812760118149 11.799492206807885 1.293445000013026
  endloop
endfacet
facet normal 0.0 2.7755575615628914e-16 -1.0
  outer loop
    vertex 58.359308542885 10.365418029561644 1.2934450000130289
    vertex 56.51812760118149 11.799492206807885 1.293445000013026
    vertex 56.759308553638995 11.899392631986021 1.2934450000130349
  endloop
endfacet
facet normal 0.0 2.7755575615628914e-16 -1.0
  outer loop
    vertex 58.359308542885 10.365418029561644 1.2934450000130289
    vertex 56.759308553638995 11.899392631986021 1.2934450000130349
    vertex 56.9664153319741 12.058311256277628 1.293445000013033
  endloop
endfacet
facet normal 0.0 2.7755575615628914e-16 -1.0
  outer loop
    vertex 58.359308542885 10.365418029561644 1.2934450000130289
    vertex 56.9664153319741 12.058311256277628 1.293445000013033
    vertex 57.1253339516365 12.265418038164832 1.293445000013033
  endloop
endfacet
facet normal 0.0 2.7755575615628914e-16 -1.0
  outer loop
    vertex 58.359308542885 10.365418029561644 1.2934450000130289
    vertex 57.1253339516365 12.265418038164832 1.293445000013033
    vertex 57.22523437142382 12.506598992855281 1.293445000013033
  endloop
endfacet
facet normal 0.0 2.7755575615628914e-16 -1.0
  outer loop
    vertex 58.359308542885 10.365418029561644 1.2934450000130289
    vertex 57.22523437142382 12.506598992855281 1.293445000013033
    vertex 57.25930854288501 12.765418037012221 1.293445000013033
  endloop
endfacet
facet normal 0.0 2.7755575615628914e-16 -1.0
  outer loop
    vertex 58.359308542885 10.365418029561644 1.2934450000130289
    vertex 57.25930854288501 12.765418037012221 1.293445000013033
    vertex 58.359308542885 13.765418029561642 1.2934450000130333
  endloop
endfacet
facet normal -0.7933533467167052 0.6087614206348851 1.6896523642309234e-16
  outer loop
    vertex 38.49328313413352 13.265418020958453 1.2934450000130333
    vertex 38.65220175379593 13.472524802845644 -2.7065549999869662
    vertex 38.49328313413352 13.265418020958439 -2.7065549999869636
  endloop
endfacet
facet normal -0.7933533467167052 0.6087614206348851 1.6896523642309234e-16
  outer loop
    vertex 38.65220175379593 13.472524802845644 -2.7065549999869662
    vertex 38.49328313413352 13.265418020958453 1.2934450000130333
    vertex 38.65220175379593 13.472524802845655 1.2934450000130333
  endloop
endfacet
facet normal -0.9238795360753019 -0.3826834237607963 -1.0621598705040539e-16
  outer loop
    vertex 54.393283134133526 12.265418038164832 1.293445000013033
    vertex 54.2933827143462 12.506598992855256 -2.7065549999869676
    vertex 54.393283134133526 12.265418038164807 -2.7065549999869676
  endloop
endfacet
facet normal -0.9238795360753019 -0.3826834237607963 -1.0621598705040539e-16
  outer loop
    vertex 54.2933827143462 12.506598992855256 -2.7065549999869676
    vertex 54.393283134133526 12.265418038164832 1.293445000013033
    vertex 54.2933827143462 12.506598992855281 1.293445000013033
  endloop
endfacet
facet normal 0.9238795303728757 0.38268343752767076 1.0621599087148068e-16
  outer loop
    vertex 57.125333944185925 13.265418033863224 -2.7065549999869636
    vertex 57.22523436756712 13.024237080661418 1.2934450000130264
    vertex 57.22523436756712 13.024237080661406 -2.7065549999869716
  endloop
endfacet
facet normal 0.9238795303728757 0.38268343752767076 1.0621599087148068e-16
  outer loop
    vertex 57.22523436756712 13.024237080661418 1.2934450000130264
    vertex 57.125333944185925 13.265418033863224 -2.7065549999869636
    vertex 57.125333944185925 13.265418033863238 1.2934450000130333
  endloop
endfacet
facet normal 0.1305262063781595 -0.99144485950986 -3.494588285629077e-16
  outer loop
    vertex 56.51812760118149 11.799492206807885 1.293445000013026
    vertex 56.25930855778618 11.765418029561642 -2.706554999986967
    vertex 56.51812760118149 11.799492206807885 -2.706554999986967
  endloop
endfacet
facet normal 0.1305262063781595 -0.99144485950986 -3.494588285629077e-16
  outer loop
    vertex 56.25930855778618 11.765418029561642 -2.706554999986967
    vertex 56.51812760118149 11.799492206807885 1.293445000013026
    vertex 56.25930855778618 11.76541802956164 1.293445000013026
  endloop
endfacet
facet normal 0.7933533376454559 0.6087614324567676 1.6896523970432397e-16
  outer loop
    vertex 56.96641532143738 13.472524813382355 -2.7065549999869662
    vertex 57.125333944185925 13.265418033863238 1.2934450000130333
    vertex 57.125333944185925 13.265418033863224 -2.7065549999869636
  endloop
endfacet
facet normal 0.7933533376454559 0.6087614324567676 1.6896523970432397e-16
  outer loop
    vertex 57.125333944185925 13.265418033863238 1.2934450000130333
    vertex 56.96641532143738 13.472524813382355 -2.7065549999869662
    vertex 56.96641532143738 13.472524813382366 1.2934450000130333
  endloop
endfacet
facet normal 0.13052619160448126 0.9914448614548518 2.751812282083687e-16
  outer loop
    vertex 56.25930854288501 13.765418029561642 1.2934450000130333
    vertex 56.518127586788076 13.731343856172103 -2.7065549999869662
    vertex 56.25930854288501 13.765418029561642 -2.7065549999869662
  endloop
endfacet
facet normal 0.13052619160448126 0.9914448614548518 2.751812282083687e-16
  outer loop
    vertex 56.518127586788076 13.731343856172103 -2.7065549999869662
    vertex 56.25930854288501 13.765418029561642 1.2934450000130333
    vertex 56.518127586788076 13.731343856172103 1.2934450000130333
  endloop
endfacet
facet normal -1.0 0.0 0.0
  outer loop
    vertex 37.25930854288501 13.765418029561642 3.2934450000130333
    vertex 37.25930854288501 10.365418029561644 1.2934450000130289
    vertex 37.25930854288501 10.365418029561626 3.2934450000130324
  endloop
endfacet
facet normal -1.0 0.0 0.0
  outer loop
    vertex 37.25930854288501 10.365418029561644 1.2934450000130289
    vertex 37.25930854288501 13.765418029561642 3.2934450000130333
    vertex 37.25930854288501 13.765418029561642 1.2934450000130333
  endloop
endfacet
facet normal -0.13052620637816098 0.9914448595098599 2.7518122766852504e-16
  outer loop
    vertex 39.10048948458853 13.731343852315398 1.2934450000130333
    vertex 39.359308527983856 13.765418029561642 -2.7065549999869662
    vertex 39.10048948458853 13.731343852315398 -2.7065549999869662
  endloop
endfacet
facet normal -0.13052620637816098 0.9914448595098599 2.7518122766852504e-16
  outer loop
    vertex 39.359308527983856 13.765418029561642 -2.7065549999869662
    vertex 39.10048948458853 13.731343852315398 1.2934450000130333
    vertex 39.359308527983856 13.765418029561642 1.2934450000130333
  endloop
endfacet
facet normal 3.7473184340831847e-32 4.067860087650418e-16 -1.0
  outer loop
    vertex 38.3933827143462 13.02423706626799 -2.7065549999869716
    vertex 38.39338271820291 12.50659897846184 -2.7065549999869676
    vertex 38.35930854288501 12.765418022111048 -2.7065549999869716
  endloop
endfacet
facet normal 3.7473184340831847e-32 4.067860087650418e-16 -1.0
  outer loop
    vertex 38.39338271820291 12.50659897846184 -2.7065549999869676
    vertex 38.3933827143462 13.02423706626799 -2.7065549999869716
    vertex 38.49328313413352 13.265418020958439 -2.7065549999869636
  endloop
endfacet
facet normal 3.7473184340831847e-32 4.067860087650418e-16 -1.0
  outer loop
    vertex 38.39338271820291 12.50659897846184 -2.7065549999869676
    vertex 38.49328313413352 13.265418020958439 -2.7065549999869636
    vertex 38.4932831415841 12.265418025260024 -2.7065549999869676
  endloop
endfacet
facet normal 3.7473184340831847e-32 4.067860087650418e-16 -1.0
  outer loop
    vertex 38.4932831415841 12.265418025260024 -2.7065549999869676
    vertex 38.49328313413352 13.265418020958439 -2.7065549999869636
    vertex 38.65220175379593 13.472524802845644 -2.7065549999869662
  endloop
endfacet
facet normal 3.7473184340831847e-32 4.067860087650418e-16 -1.0
  outer loop
    vertex 38.4932831415841 12.265418025260024 -2.7065549999869676
    vertex 38.65220175379593 13.472524802845644 -2.7065549999869662
    vertex 38.652201764332645 12.058311245740917 -2.7065549999869596
  endloop
endfacet
facet normal 3.7473184340831847e-32 4.067860087650418e-16 -1.0
  outer loop
    vertex 38.652201764332645 12.058311245740917 -2.7065549999869596
    vertex 38.65220175379593 13.472524802845644 -2.7065549999869662
    vertex 38.859308532131024 13.631443427137265 -2.7065549999869662
  endloop
endfacet
facet normal 3.7473184340831847e-32 4.067860087650418e-16 -1.0
  outer loop
    vertex 38.652201764332645 12.058311245740917 -2.7065549999869596
    vertex 38.859308532131024 13.631443427137265 -2.7065549999869662
    vertex 38.85930854503581 11.89939262453544 -2.7065549999869596
  endloop
endfacet
facet normal 3.7473184340831847e-32 4.067860087650418e-16 -1.0
  outer loop
    vertex 38.85930854503581 11.89939262453544 -2.7065549999869596
    vertex 38.859308532131024 13.631443427137265 -2.7065549999869662
    vertex 39.10048948458853 13.731343852315398 -2.7065549999869662
  endloop
endfacet
facet normal 3.7473184340831847e-32 4.067860087650418e-16 -1.0
  outer loop
    vertex 38.85930854503581 11.89939262453544 -2.7065549999869596
    vertex 39.10048948458853 13.731343852315398 -2.7065549999869662
    vertex 39.10048949898194 11.79949220295118 -2.706554999986967
  endloop
endfacet
facet normal 3.7473184340831847e-32 4.067860087650418e-16 -1.0
  outer loop
    vertex 39.10048949898194 11.79949220295118 -2.706554999986967
    vertex 39.10048948458853 13.731343852315398 -2.7065549999869662
    vertex 39.359308527983856 13.765418029561642 -2.7065549999869662
  endloop
endfacet
facet normal 3.7473184340831847e-32 4.067860087650418e-16 -1.0
  outer loop
    vertex 39.10048949898194 11.79949220295118 -2.706554999986967
    vertex 39.359308527983856 13.765418029561642 -2.7065549999869662
    vertex 39.35930854288501 11.765418029561642 -2.706554999986967
  endloop
endfacet
facet normal 3.7473184340831847e-32 4.067860087650418e-16 -1.0
  outer loop
    vertex 39.35930854288501 11.765418029561642 -2.706554999986967
    vertex 39.359308527983856 13.765418029561642 -2.7065549999869662
    vertex 40.35930855778617 13.765418029561642 -2.7065549999869662
  endloop
endfacet
facet normal 3.7473184340831847e-32 4.067860087650418e-16 -1.0
  outer loop
    vertex 39.35930854288501 11.765418029561642 -2.706554999986967
    vertex 40.35930855778617 13.765418029561642 -2.7065549999869662
    vertex 40.35930854288501 11.765418029561642 -2.706554999986967
  endloop
endfacet
facet normal 3.7473184340831847e-32 4.067860087650418e-16 -1.0
  outer loop
    vertex 40.35930854288501 11.765418029561642 -2.706554999986967
    vertex 40.35930855778617 13.765418029561642 -2.7065549999869662
    vertex 40.618127586788084 11.79949220295118 -2.706554999986967
  endloop
endfacet
facet normal 3.7473184340831847e-32 4.067860087650418e-16 -1.0
  outer loop
    vertex 40.618127586788084 11.79949220295118 -2.706554999986967
    vertex 40.35930855778617 13.765418029561642 -2.7065549999869662
    vertex 40.6181276011815 13.731343852315398 -2.7065549999869662
  endloop
endfacet
facet normal 3.7473184340831847e-32 4.067860087650418e-16 -1.0
  outer loop
    vertex 40.618127586788084 11.79949220295118 -2.706554999986967
    vertex 40.6181276011815 13.731343852315398 -2.7065549999869662
    vertex 40.85930854073422 11.89939262453544 -2.7065549999869596
  endloop
endfacet
facet normal 3.7473184340831847e-32 4.067860087650418e-16 -1.0
  outer loop
    vertex 40.85930854073422 11.89939262453544 -2.7065549999869596
    vertex 40.6181276011815 13.731343852315398 -2.7065549999869662
    vertex 40.859308553638996 13.631443427137265 -2.7065549999869662
  endloop
endfacet
facet normal 3.7473184340831847e-32 4.067860087650418e-16 -1.0
  outer loop
    vertex 40.85930854073422 11.89939262453544 -2.7065549999869596
    vertex 40.859308553638996 13.631443427137265 -2.7065549999869662
    vertex 41.06641532143738 12.058311245740917 -2.7065549999869596
  endloop
endfacet
facet normal 3.7473184340831847e-32 4.067860087650418e-16 -1.0
  outer loop
    vertex 41.06641532143738 12.058311245740917 -2.7065549999869596
    vertex 40.859308553638996 13.631443427137265 -2.7065549999869662
    vertex 41.06641533197409 13.472524802845644 -2.7065549999869662
  endloop
endfacet
facet normal 3.7473184340831847e-32 4.067860087650418e-16 -1.0
  outer loop
    vertex 41.06641532143738 12.058311245740917 -2.7065549999869596
    vertex 41.06641533197409 13.472524802845644 -2.7065549999869662
    vertex 41.22533394418592 12.265418025260024 -2.7065549999869676
  endloop
endfacet
facet normal 3.7473184340831847e-32 4.067860087650418e-16 -1.0
  outer loop
    vertex 41.22533394418592 12.265418025260024 -2.7065549999869676
    vertex 41.06641533197409 13.472524802845644 -2.7065549999869662
    vertex 41.22533395163651 13.265418020958439 -2.7065549999869636
  endloop
endfacet
facet normal 3.7473184340831847e-32 4.067860087650418e-16 -1.0
  outer loop
    vertex 41.22533394418592 12.265418025260024 -2.7065549999869676
    vertex 41.22533395163651 13.265418020958439 -2.7065549999869636
    vertex 41.32523436756712 12.50659897846184 -2.7065549999869676
  endloop
endfacet
facet normal 3.7473184340831847e-32 4.067860087650418e-16 -1.0
  outer loop
    vertex 41.32523436756712 12.50659897846184 -2.7065549999869676
    vertex 41.22533395163651 13.265418020958439 -2.7065549999869636
    vertex 41.325234371423825 13.02423706626799 -2.7065549999869716
  endloop
endfacet
facet normal 3.7473184340831847e-32 4.067860087650418e-16 -1.0
  outer loop
    vertex 41.32523436756712 12.50659897846184 -2.7065549999869676
    vertex 41.325234371423825 13.02423706626799 -2.7065549999869716
    vertex 41.35930854288501 12.765418022111048 -2.7065549999869716
  endloop
endfacet
facet normal 0.130526206378161 0.9914448595098599 2.7518122766852504e-16
  outer loop
    vertex 40.35930855778617 13.765418029561642 1.2934450000130333
    vertex 40.6181276011815 13.731343852315398 -2.7065549999869662
    vertex 40.35930855778617 13.765418029561642 -2.7065549999869662
  endloop
endfacet
facet normal 0.130526206378161 0.9914448595098599 2.7518122766852504e-16
  outer loop
    vertex 40.6181276011815 13.731343852315398 -2.7065549999869662
    vertex 40.35930855778617 13.765418029561642 1.2934450000130333
    vertex 40.6181276011815 13.731343852315398 1.2934450000130333
  endloop
endfacet
facet normal 0.382683444411108 0.9238795275216625 2.5642808085859015e-16
  outer loop
    vertex 40.6181276011815 13.731343852315398 1.2934450000130333
    vertex 40.859308553638996 13.631443427137265 -2.7065549999869662
    vertex 40.6181276011815 13.731343852315398 -2.7065549999869662
  endloop
endfacet
facet normal 0.382683444411108 0.9238795275216625 2.5642808085859015e-16
  outer loop
    vertex 40.859308553638996 13.631443427137265 -2.7065549999869662
    vertex 40.6181276011815 13.731343852315398 1.2934450000130333
    vertex 40.859308553638996 13.631443427137262 1.2934450000130333
  endloop
endfacet
facet normal 0.6087614383677137 0.7933533331098273 2.2019978427041045e-16
  outer loop
    vertex 40.859308553638996 13.631443427137262 1.2934450000130333
    vertex 41.06641533197409 13.472524802845644 -2.7065549999869662
    vertex 40.859308553638996 13.631443427137265 -2.7065549999869662
  endloop
endfacet
facet normal 0.6087614383677137 0.7933533331098273 2.2019978427041045e-16
  outer loop
    vertex 41.06641533197409 13.472524802845644 -2.7065549999869662
    vertex 40.859308553638996 13.631443427137262 1.2934450000130333
    vertex 41.06641533197409 13.472524802845655 1.2934450000130333
  endloop
endfacet
facet normal 0.7933533467167054 0.6087614206348849 1.6896523642309229e-16
  outer loop
    vertex 41.06641533197409 13.472524802845644 -2.7065549999869662
    vertex 41.22533395163651 13.265418020958453 1.2934450000130333
    vertex 41.22533395163651 13.265418020958439 -2.7065549999869636
  endloop
endfacet
facet normal 0.7933533467167054 0.6087614206348849 1.6896523642309229e-16
  outer loop
    vertex 41.22533395163651 13.265418020958453 1.2934450000130333
    vertex 41.06641533197409 13.472524802845644 -2.7065549999869662
    vertex 41.06641533197409 13.472524802845655 1.2934450000130333
  endloop
endfacet
facet normal 0.9238795360753039 0.3826834237607912 1.0621598705040402e-16
  outer loop
    vertex 41.22533395163651 13.265418020958439 -2.7065549999869636
    vertex 41.325234371423825 13.024237066268002 1.2934450000130264
    vertex 41.325234371423825 13.02423706626799 -2.7065549999869716
  endloop
endfacet
facet normal 0.9238795360753039 0.3826834237607912 1.0621598705040402e-16
  outer loop
    vertex 41.325234371423825 13.024237066268002 1.2934450000130264
    vertex 41.22533395163651 13.265418020958439 -2.7065549999869636
    vertex 41.22533395163651 13.265418020958453 1.2934450000130333
  endloop
endfacet
facet normal 0.9914448624273476 0.13052618421764164 3.622829375872262e-17
  outer loop
    vertex 41.325234371423825 13.02423706626799 -2.7065549999869716
    vertex 41.35930854288501 12.765418022111062 1.293445000013033
    vertex 41.35930854288501 12.765418022111048 -2.7065549999869716
  endloop
endfacet
facet normal 0.9914448624273476 0.13052618421764164 3.622829375872262e-17
  outer loop
    vertex 41.35930854288501 12.765418022111062 1.293445000013033
    vertex 41.325234371423825 13.02423706626799 -2.7065549999869716
    vertex 41.325234371423825 13.024237066268002 1.2934450000130264
  endloop
endfacet
facet normal 0.9914448604823559 -0.13052619899132198 -3.622829785924264e-17
  outer loop
    vertex 41.35930854288501 12.765418022111048 -2.7065549999869716
    vertex 41.32523436756712 12.506598978461865 1.293445000013033
    vertex 41.32523436756712 12.50659897846184 -2.7065549999869676
  endloop
endfacet
facet normal 0.9914448604823559 -0.13052619899132198 -3.622829785924264e-17
  outer loop
    vertex 41.32523436756712 12.506598978461865 1.293445000013033
    vertex 41.35930854288501 12.765418022111048 -2.7065549999869716
    vertex 41.35930854288501 12.765418022111062 1.293445000013033
  endloop
endfacet
facet normal 0.9238795303728765 -0.3826834375276691 -1.0621599087148023e-16
  outer loop
    vertex 41.32523436756712 12.50659897846184 -2.7065549999869676
    vertex 41.22533394418592 12.265418025260047 1.293445000013033
    vertex 41.22533394418592 12.265418025260024 -2.7065549999869676
  endloop
endfacet
facet normal 0.9238795303728765 -0.3826834375276691 -1.0621599087148023e-16
  outer loop
    vertex 41.22533394418592 12.265418025260047 1.293445000013033
    vertex 41.32523436756712 12.50659897846184 -2.7065549999869676
    vertex 41.32523436756712 12.506598978461865 1.293445000013033
  endloop
endfacet
facet normal 0.7933533376454536 -0.6087614324567706 -1.689652397043247e-16
  outer loop
    vertex 41.22533394418592 12.265418025260024 -2.7065549999869676
    vertex 41.06641532143738 12.058311245740917 1.293445000013033
    vertex 41.06641532143738 12.058311245740917 -2.7065549999869596
  endloop
endfacet
facet normal 0.7933533376454536 -0.6087614324567706 -1.689652397043247e-16
  outer loop
    vertex 41.06641532143738 12.058311245740917 1.293445000013033
    vertex 41.22533394418592 12.265418025260024 -2.7065549999869676
    vertex 41.22533394418592 12.265418025260047 1.293445000013033
  endloop
endfacet
facet normal 0.6087614265458277 -0.7933533421810796 -2.2019978678818874e-16
  outer loop
    vertex 41.06641532143738 12.058311245740917 1.293445000013033
    vertex 40.85930854073422 11.89939262453544 -2.7065549999869596
    vertex 41.06641532143738 12.058311245740917 -2.7065549999869596
  endloop
endfacet
facet normal 0.6087614265458277 -0.7933533421810796 -2.2019978678818874e-16
  outer loop
    vertex 40.85930854073422 11.89939262453544 -2.7065549999869596
    vertex 41.06641532143738 12.058311245740917 1.293445000013033
    vertex 40.85930854073422 11.899392624535439 1.2934450000130349
  endloop
endfacet
facet normal 0.38268343064422994 -0.9238795332240902 -2.5642808244133183e-16
  outer loop
    vertex 40.85930854073422 11.89939262453544 -2.7065549999869596
    vertex 40.618127586788084 11.79949220295118 1.293445000013026
    vertex 40.618127586788084 11.79949220295118 -2.706554999986967
  endloop
endfacet
facet normal 0.38268343064422994 -0.9238795332240902 -2.5642808244133183e-16
  outer loop
    vertex 40.618127586788084 11.79949220295118 1.293445000013026
    vertex 40.85930854073422 11.89939262453544 -2.7065549999869596
    vertex 40.85930854073422 11.899392624535439 1.2934450000130349
  endloop
endfacet
facet normal 0.1305261916044783 -0.9914448614548523 -3.4945882924846743e-16
  outer loop
    vertex 40.618127586788084 11.79949220295118 1.293445000013026
    vertex 40.35930854288501 11.765418029561642 -2.706554999986967
    vertex 40.618127586788084 11.79949220295118 -2.706554999986967
  endloop
endfacet
facet normal 0.1305261916044783 -0.9914448614548523 -3.4945882924846743e-16
  outer loop
    vertex 40.35930854288501 11.765418029561642 -2.706554999986967
    vertex 40.618127586788084 11.79949220295118 1.293445000013026
    vertex 40.35930854288501 11.76541802956164 1.293445000013026
  endloop
endfacet
facet normal -0.1305261916044783 -0.9914448614548523 -3.4945882924846743e-16
  outer loop
    vertex 39.35930854288501 11.76541802956164 1.293445000013026
    vertex 39.10048949898194 11.79949220295118 -2.706554999986967
    vertex 39.35930854288501 11.765418029561642 -2.706554999986967
  endloop
endfacet
facet normal -0.1305261916044783 -0.9914448614548523 -3.4945882924846743e-16
  outer loop
    vertex 39.10048949898194 11.79949220295118 -2.706554999986967
    vertex 39.35930854288501 11.76541802956164 1.293445000013026
    vertex 39.10048949898194 11.79949220295118 1.293445000013026
  endloop
endfacet
facet normal -0.3826834306442299 -0.9238795332240902 -2.5642808244133183e-16
  outer loop
    vertex 39.10048949898194 11.79949220295118 1.293445000013026
    vertex 38.85930854503581 11.89939262453544 -2.7065549999869596
    vertex 39.10048949898194 11.79949220295118 -2.706554999986967
  endloop
endfacet
facet normal -0.3826834306442299 -0.9238795332240902 -2.5642808244133183e-16
  outer loop
    vertex 38.85930854503581 11.89939262453544 -2.7065549999869596
    vertex 39.10048949898194 11.79949220295118 1.293445000013026
    vertex 38.85930854503581 11.899392624535439 1.2934450000130349
  endloop
endfacet
facet normal -0.6087614265458278 -0.7933533421810793 -2.2019978678818867e-16
  outer loop
    vertex 38.85930854503581 11.899392624535439 1.2934450000130349
    vertex 38.652201764332645 12.058311245740917 -2.7065549999869596
    vertex 38.85930854503581 11.89939262453544 -2.7065549999869596
  endloop
endfacet
facet normal -0.6087614265458278 -0.7933533421810793 -2.2019978678818867e-16
  outer loop
    vertex 38.652201764332645 12.058311245740917 -2.7065549999869596
    vertex 38.85930854503581 11.899392624535439 1.2934450000130349
    vertex 38.652201764332645 12.058311245740917 1.293445000013033
  endloop
endfacet
facet normal -0.7933533376454538 -0.6087614324567702 -1.6896523970432459e-16
  outer loop
    vertex 38.4932831415841 12.265418025260047 1.293445000013033
    vertex 38.652201764332645 12.058311245740917 -2.7065549999869596
    vertex 38.652201764332645 12.058311245740917 1.293445000013033
  endloop
endfacet
facet normal -0.7933533376454538 -0.6087614324567702 -1.6896523970432459e-16
  outer loop
    vertex 38.652201764332645 12.058311245740917 -2.7065549999869596
    vertex 38.4932831415841 12.265418025260047 1.293445000013033
    vertex 38.4932831415841 12.265418025260024 -2.7065549999869676
  endloop
endfacet
facet normal -0.9238795303728762 -0.3826834375276696 -1.0621599087148036e-16
  outer loop
    vertex 38.4932831415841 12.265418025260047 1.293445000013033
    vertex 38.39338271820291 12.50659897846184 -2.7065549999869676
    vertex 38.4932831415841 12.265418025260024 -2.7065549999869676
  endloop
endfacet
facet normal -0.9238795303728762 -0.3826834375276696 -1.0621599087148036e-16
  outer loop
    vertex 38.39338271820291 12.50659897846184 -2.7065549999869676
    vertex 38.4932831415841 12.265418025260047 1.293445000013033
    vertex 38.39338271820291 12.506598978461865 1.293445000013033
  endloop
endfacet
facet normal -0.9914448604823557 -0.13052619899132265 -3.622829785924282e-17
  outer loop
    vertex 38.39338271820291 12.506598978461865 1.293445000013033
    vertex 38.35930854288501 12.765418022111048 -2.7065549999869716
    vertex 38.39338271820291 12.50659897846184 -2.7065549999869676
  endloop
endfacet
facet normal -0.9914448604823557 -0.13052619899132265 -3.622829785924282e-17
  outer loop
    vertex 38.35930854288501 12.765418022111048 -2.7065549999869716
    vertex 38.39338271820291 12.506598978461865 1.293445000013033
    vertex 38.35930854288501 12.765418022111062 1.293445000013033
  endloop
endfacet
facet normal -0.9914448624273476 0.13052618421764298 3.622829375872299e-17
  outer loop
    vertex 38.35930854288501 12.765418022111062 1.293445000013033
    vertex 38.3933827143462 13.02423706626799 -2.7065549999869716
    vertex 38.35930854288501 12.765418022111048 -2.7065549999869716
  endloop
endfacet
facet normal -0.9914448624273476 0.13052618421764298 3.622829375872299e-17
  outer loop
    vertex 38.3933827143462 13.02423706626799 -2.7065549999869716
    vertex 38.35930854288501 12.765418022111062 1.293445000013033
    vertex 38.3933827143462 13.024237066268002 1.2934450000130264
  endloop
endfacet
facet normal -0.9238795360753043 0.38268342376079056 1.0621598705040385e-16
  outer loop
    vertex 38.3933827143462 13.024237066268002 1.2934450000130264
    vertex 38.49328313413352 13.265418020958439 -2.7065549999869636
    vertex 38.3933827143462 13.02423706626799 -2.7065549999869716
  endloop
endfacet
facet normal -0.9238795360753043 0.38268342376079056 1.0621598705040385e-16
  outer loop
    vertex 38.49328313413352 13.265418020958439 -2.7065549999869636
    vertex 38.3933827143462 13.024237066268002 1.2934450000130264
    vertex 38.49328313413352 13.265418020958453 1.2934450000130333
  endloop
endfacet
facet normal -0.3826834444111081 0.9238795275216625 2.5642808085859015e-16
  outer loop
    vertex 38.859308532131024 13.631443427137262 1.2934450000130333
    vertex 39.10048948458853 13.731343852315398 -2.7065549999869662
    vertex 38.859308532131024 13.631443427137265 -2.7065549999869662
  endloop
endfacet
facet normal -0.3826834444111081 0.9238795275216625 2.5642808085859015e-16
  outer loop
    vertex 39.10048948458853 13.731343852315398 -2.7065549999869662
    vertex 38.859308532131024 13.631443427137262 1.2934450000130333
    vertex 39.10048948458853 13.731343852315398 1.2934450000130333
  endloop
endfacet
facet normal -0.6087614383677139 0.7933533331098271 2.201997842704104e-16
  outer loop
    vertex 38.65220175379593 13.472524802845655 1.2934450000130333
    vertex 38.859308532131024 13.631443427137265 -2.7065549999869662
    vertex 38.65220175379593 13.472524802845644 -2.7065549999869662
  endloop
endfacet
facet normal -0.6087614383677139 0.7933533331098271 2.201997842704104e-16
  outer loop
    vertex 38.859308532131024 13.631443427137265 -2.7065549999869662
    vertex 38.65220175379593 13.472524802845655 1.2934450000130333
    vertex 38.859308532131024 13.631443427137262 1.2934450000130333
  endloop
endfacet
facet normal 0.0 1.0 2.7755575615628914e-16
  outer loop
    vertex 55.30930854288501 13.765418029561642 4.293445000013032
    vertex 56.30930854288501 13.765418029561642 3.2934450000130333
    vertex 55.30930854288501 13.765418029561642 3.2934450000130333
  endloop
endfacet
facet normal 0.0 -2.7755575615628914e-16 1.0
  outer loop
    vertex 55.80930854288501 11.22481902956162 15.993445000013033
    vertex 40.80930854288501 13.765418029561628 15.993445000013033
    vertex 40.80930854288501 11.224819029561624 15.993445000013033
  endloop
endfacet
facet normal 0.0 -2.7755575615628914e-16 1.0
  outer loop
    vertex 40.80930854288501 13.765418029561628 15.993445000013033
    vertex 55.80930854288501 11.22481902956162 15.993445000013033
    vertex 55.80930854288501 13.765418029561628 15.993445000013033
  endloop
endfacet
facet normal 0.0 2.7755575615628914e-16 -1.0
  outer loop
    vertex 37.25930854288501 13.765418029561642 1.2934450000130333
    vertex 38.49328313413352 13.265418020958453 1.2934450000130333
    vertex 37.25930854288501 10.365418029561644 1.2934450000130289
  endloop
endfacet
facet normal 0.0 2.7755575615628914e-16 -1.0
  outer loop
    vertex 38.49328313413352 13.265418020958453 1.2934450000130333
    vertex 37.25930854288501 13.765418029561642 1.2934450000130333
    vertex 38.65220175379593 13.472524802845655 1.2934450000130333
  endloop
endfacet
facet normal 0.0 2.7755575615628914e-16 -1.0
  outer loop
    vertex 38.65220175379593 13.472524802845655 1.2934450000130333
    vertex 37.25930854288501 13.765418029561642 1.2934450000130333
    vertex 38.859308532131024 13.631443427137262 1.2934450000130333
  endloop
endfacet
facet normal 0.0 2.7755575615628914e-16 -1.0
  outer loop
    vertex 38.859308532131024 13.631443427137262 1.2934450000130333
    vertex 37.25930854288501 13.765418029561642 1.2934450000130333
    vertex 39.10048948458853 13.731343852315398 1.2934450000130333
  endloop
endfacet
facet normal 0.0 2.7755575615628914e-16 -1.0
  outer loop
    vertex 39.10048948458853 13.731343852315398 1.2934450000130333
    vertex 37.25930854288501 13.765418029561642 1.2934450000130333
    vertex 39.359308527983856 13.765418029561642 1.2934450000130333
  endloop
endfacet
facet normal 0.0 2.7755575615628914e-16 -1.0
  outer loop
    vertex 37.25930854288501 10.365418029561644 1.2934450000130289
    vertex 38.49328313413352 13.265418020958453 1.2934450000130333
    vertex 38.3933827143462 13.024237066268002 1.2934450000130264
  endloop
endfacet
facet normal 0.0 2.7755575615628914e-16 -1.0
  outer loop
    vertex 37.25930854288501 10.365418029561644 1.2934450000130289
    vertex 38.3933827143462 13.024237066268002 1.2934450000130264
    vertex 38.35930854288501 12.765418022111062 1.293445000013033
  endloop
endfacet
facet normal 0.0 2.7755575615628914e-16 -1.0
  outer loop
    vertex 41.40930854288501 13.765418029561642 1.2934450000130333
    vertex 40.6181276011815 13.731343852315398 1.2934450000130333
    vertex 40.35930855778617 13.765418029561642 1.2934450000130333
  endloop
endfacet
facet normal 0.0 2.7755575615628914e-16 -1.0
  outer loop
    vertex 40.6181276011815 13.731343852315398 1.2934450000130333
    vertex 41.40930854288501 13.765418029561642 1.2934450000130333
    vertex 40.859308553638996 13.631443427137262 1.2934450000130333
  endloop
endfacet
facet normal 0.0 2.7755575615628914e-16 -1.0
  outer loop
    vertex 40.859308553638996 13.631443427137262 1.2934450000130333
    vertex 41.40930854288501 13.765418029561642 1.2934450000130333
    vertex 41.06641533197409 13.472524802845655 1.2934450000130333
  endloop
endfacet
facet normal 0.0 2.7755575615628914e-16 -1.0
  outer loop
    vertex 41.06641533197409 13.472524802845655 1.2934450000130333
    vertex 41.40930854288501 13.765418029561642 1.2934450000130333
    vertex 41.22533395163651 13.265418020958453 1.2934450000130333
  endloop
endfacet
facet normal 0.0 2.7755575615628914e-16 -1.0
  outer loop
    vertex 41.22533395163651 13.265418020958453 1.2934450000130333
    vertex 41.40930854288501 13.765418029561642 1.2934450000130333
    vertex 41.325234371423825 13.024237066268002 1.2934450000130264
  endloop
endfacet
facet normal 0.0 2.7755575615628914e-16 -1.0
  outer loop
    vertex 41.325234371423825 13.024237066268002 1.2934450000130264
    vertex 41.40930854288501 13.765418029561642 1.2934450000130333
    vertex 41.35930854288501 12.765418022111062 1.293445000013033
  endloop
endfacet
facet normal 0.0 2.7755575615628914e-16 -1.0
  outer loop
    vertex 37.25930854288501 10.365418029561644 1.2934450000130289
    vertex 38.85930854503581 11.899392624535439 1.2934450000130349
    vertex 41.40930854288501 10.365418029561644 1.2934450000130289
  endloop
endfacet
facet normal 0.0 2.7755575615628914e-16 -1.0
  outer loop
    vertex 38.85930854503581 11.899392624535439 1.2934450000130349
    vertex 37.25930854288501 10.365418029561644 1.2934450000130289
    vertex 38.652201764332645 12.058311245740917 1.293445000013033
  endloop
endfacet
facet normal 0.0 2.7755575615628914e-16 -1.0
  outer loop
    vertex 38.652201764332645 12.058311245740917 1.293445000013033
    vertex 37.25930854288501 10.365418029561644 1.2934450000130289
    vertex 38.4932831415841 12.265418025260047 1.293445000013033
  endloop
endfacet
facet normal 0.0 2.7755575615628914e-16 -1.0
  outer loop
    vertex 38.4932831415841 12.265418025260047 1.293445000013033
    vertex 37.25930854288501 10.365418029561644 1.2934450000130289
    vertex 38.39338271820291 12.506598978461865 1.293445000013033
  endloop
endfacet
facet normal 0.0 2.7755575615628914e-16 -1.0
  outer loop
    vertex 38.39338271820291 12.506598978461865 1.293445000013033
    vertex 37.25930854288501 10.365418029561644 1.2934450000130289
    vertex 38.35930854288501 12.765418022111062 1.293445000013033
  endloop
endfacet
facet normal 0.0 2.7755575615628914e-16 -1.0
  outer loop
    vertex 41.40930854288501 10.365418029561644 1.2934450000130289
    vertex 38.85930854503581 11.899392624535439 1.2934450000130349
    vertex 39.10048949898194 11.79949220295118 1.293445000013026
  endloop
endfacet
facet normal 0.0 2.7755575615628914e-16 -1.0
  outer loop
    vertex 41.40930854288501 10.365418029561644 1.2934450000130289
    vertex 39.10048949898194 11.79949220295118 1.293445000013026
    vertex 39.75930854288501 11.415418029561641 1.293445000013032
  endloop
endfacet
facet normal 0.0 2.7755575615628914e-16 -1.0
  outer loop
    vertex 39.75930854288501 11.415418029561641 1.293445000013032
    vertex 39.10048949898194 11.79949220295118 1.293445000013026
    vertex 39.35930854288501 11.76541802956164 1.293445000013026
  endloop
endfacet
facet normal 0.0 2.7755575615628914e-16 -1.0
  outer loop
    vertex 41.40930854288501 10.365418029561644 1.2934450000130289
    vertex 39.75930854288501 11.415418029561641 1.293445000013032
    vertex 39.95930854288501 11.415418029561641 1.293445000013032
  endloop
endfacet
facet normal 0.0 2.7755575615628914e-16 -1.0
  outer loop
    vertex 41.40930854288501 10.365418029561644 1.2934450000130289
    vertex 39.95930854288501 11.415418029561641 1.293445000013032
    vertex 40.35930854288501 11.76541802956164 1.293445000013026
  endloop
endfacet
facet normal 0.0 2.7755575615628914e-16 -1.0
  outer loop
    vertex 41.40930854288501 10.365418029561644 1.2934450000130289
    vertex 40.35930854288501 11.76541802956164 1.293445000013026
    vertex 40.618127586788084 11.79949220295118 1.293445000013026
  endloop
endfacet
facet normal 0.0 2.7755575615628914e-16 -1.0
  outer loop
    vertex 41.40930854288501 10.365418029561644 1.2934450000130289
    vertex 40.618127586788084 11.79949220295118 1.293445000013026
    vertex 40.85930854073422 11.899392624535439 1.2934450000130349
  endloop
endfacet
facet normal 0.0 2.7755575615628914e-16 -1.0
  outer loop
    vertex 41.40930854288501 10.365418029561644 1.2934450000130289
    vertex 40.85930854073422 11.899392624535439 1.2934450000130349
    vertex 41.06641532143738 12.058311245740917 1.293445000013033
  endloop
endfacet
facet normal 0.0 2.7755575615628914e-16 -1.0
  outer loop
    vertex 41.40930854288501 10.365418029561644 1.2934450000130289
    vertex 41.06641532143738 12.058311245740917 1.293445000013033
    vertex 41.22533394418592 12.265418025260047 1.293445000013033
  endloop
endfacet
facet normal 0.0 2.7755575615628914e-16 -1.0
  outer loop
    vertex 41.40930854288501 10.365418029561644 1.2934450000130289
    vertex 41.22533394418592 12.265418025260047 1.293445000013033
    vertex 41.32523436756712 12.506598978461865 1.293445000013033
  endloop
endfacet
facet normal 0.0 2.7755575615628914e-16 -1.0
  outer loop
    vertex 41.40930854288501 10.365418029561644 1.2934450000130289
    vertex 41.32523436756712 12.506598978461865 1.293445000013033
    vertex 41.35930854288501 12.765418022111062 1.293445000013033
  endloop
endfacet
facet normal 0.0 2.7755575615628914e-16 -1.0
  outer loop
    vertex 41.40930854288501 10.365418029561644 1.2934450000130289
    vertex 41.35930854288501 12.765418022111062 1.293445000013033
    vertex 41.40930854288501 13.765418029561642 1.2934450000130333
  endloop
endfacet
facet normal 8.676819946301223e-15 1.0 1.388291191408196e-14
  outer loop
    vertex 55.30930854288501 13.765418029561642 4.293445000013032
    vertex 56.809308542885006 13.765418029561642 3.2934450000130333
    vertex 56.30930854288501 13.765418029561642 3.2934450000130333
  endloop
endfacet
facet normal 8.676819946301223e-15 1.0 1.388291191408196e-14
  outer loop
    vertex 56.809308542885006 13.765418029561642 3.2934450000130333
    vertex 55.30930854288501 13.765418029561642 4.293445000013032
    vertex 55.30930854288501 13.765418029561589 4.793445000013033
  endloop
endfacet
facet normal 2.277665235904064e-15 -1.0 3.3622677291917163e-15
  outer loop
    vertex 55.30930854288501 10.365418029561642 4.793445000013035
    vertex 56.30930854288501 10.365418029561623 3.2934450000130338
    vertex 56.809308542885006 10.365418029561624 3.2934450000130338
  endloop
endfacet
facet normal 2.277665235904064e-15 -1.0 3.3622677291917163e-15
  outer loop
    vertex 56.30930854288501 10.365418029561623 3.2934450000130338
    vertex 55.30930854288501 10.365418029561642 4.793445000013035
    vertex 55.30930854288501 10.36541802956164 4.293445000013033
  endloop
endfacet
facet normal 3.6652439984667144e-17 -1.0 -2.9841306842757425e-16
  outer loop
    vertex 58.359308542885 10.365418029561626 3.2934450000130324
    vertex 54.20930854288501 10.365418029561644 1.2934450000130289
    vertex 58.359308542885 10.365418029561644 1.2934450000130289
  endloop
endfacet
facet normal 3.6652439984667144e-17 -1.0 -2.9841306842757425e-16
  outer loop
    vertex 54.20930854288501 10.365418029561644 1.2934450000130289
    vertex 58.359308542885 10.365418029561626 3.2934450000130324
    vertex 54.20930854288501 10.365418029561626 3.143445000013033
  endloop
endfacet
facet normal 3.6652439984667144e-17 -1.0 -2.9841306842757425e-16
  outer loop
    vertex 54.20930854288501 10.365418029561626 3.143445000013033
    vertex 58.359308542885 10.365418029561626 3.2934450000130324
    vertex 41.40930854288501 10.365418029561626 3.143445000013033
  endloop
endfacet
facet normal 3.6652439984667144e-17 -1.0 -2.9841306842757425e-16
  outer loop
    vertex 56.809308542885006 10.365418029561624 3.2934450000130338
    vertex 55.30930854288501 10.365418029561628 3.2934450000130324
    vertex 58.359308542885 10.365418029561626 3.2934450000130324
  endloop
endfacet
facet normal 3.6652439984667144e-17 -1.0 -2.9841306842757425e-16
  outer loop
    vertex 55.30930854288501 10.365418029561628 3.2934450000130324
    vertex 56.809308542885006 10.365418029561624 3.2934450000130338
    vertex 56.30930854288501 10.365418029561623 3.2934450000130338
  endloop
endfacet
facet normal 3.6652439984667144e-17 -1.0 -2.9841306842757425e-16
  outer loop
    vertex 55.30930854288501 10.365418029561642 4.793445000013035
    vertex 54.409308542885015 10.365418029561644 4.793445000013033
    vertex 55.30930854288501 10.36541802956164 4.293445000013033
  endloop
endfacet
facet normal 3.6652439984667144e-17 -1.0 -2.9841306842757425e-16
  outer loop
    vertex 55.30930854288501 10.36541802956164 4.293445000013033
    vertex 38.809308542885006 10.365418029561626 3.2934450000130324
    vertex 55.30930854288501 10.365418029561628 3.2934450000130324
  endloop
endfacet
facet normal 3.6652439984667144e-17 -1.0 -2.9841306842757425e-16
  outer loop
    vertex 38.809308542885006 10.365418029561626 3.2934450000130324
    vertex 55.30930854288501 10.36541802956164 4.293445000013033
    vertex 40.30930854288501 10.365418029561637 5.193445000013034
  endloop
endfacet
facet normal 3.6652439984667144e-17 -1.0 -2.9841306842757425e-16
  outer loop
    vertex 40.30930854288501 10.365418029561637 5.193445000013034
    vertex 55.30930854288501 10.36541802956164 4.293445000013033
    vertex 54.409308542885015 10.365418029561644 4.793445000013033
  endloop
endfacet
facet normal 3.6652439984667144e-17 -1.0 -2.9841306842757425e-16
  outer loop
    vertex 40.30930854288501 10.365418029561637 5.193445000013034
    vertex 54.409308542885015 10.365418029561644 4.793445000013033
    vertex 54.409308542885015 10.36541802956164 5.593445000013033
  endloop
endfacet
facet normal 3.6652439984667144e-17 -1.0 -2.9841306842757425e-16
  outer loop
    vertex 40.30930854288501 10.365418029561637 5.193445000013034
    vertex 54.409308542885015 10.36541802956164 5.593445000013033
    vertex 40.30930854288501 10.36541802956164 5.593445000013033
  endloop
endfacet
facet normal 3.6652439984667144e-17 -1.0 -2.9841306842757425e-16
  outer loop
    vertex 40.30930854288501 10.36541802956164 5.593445000013033
    vertex 54.409308542885015 10.36541802956164 5.593445000013033
    vertex 40.80930854288501 10.36541802956164 5.593445000013033
  endloop
endfacet
facet normal 3.6652439984667144e-17 -1.0 -2.9841306842757425e-16
  outer loop
    vertex 55.80930854288501 10.365418029561637 7.993445000013031
    vertex 54.80930854288501 10.36541802956164 5.593445000013033
    vertex 55.80930854288501 10.36541802956164 5.593445000013033
  endloop
endfacet
facet normal 3.6652439984667144e-17 -1.0 -2.9841306842757425e-16
  outer loop
    vertex 54.80930854288501 10.36541802956164 5.593445000013033
    vertex 55.80930854288501 10.365418029561637 7.993445000013031
    vertex 54.409308542885015 10.36541802956164 5.593445000013033
  endloop
endfacet
facet normal 3.6652439984667144e-17 -1.0 -2.9841306842757425e-16
  outer loop
    vertex 54.409308542885015 10.36541802956164 5.593445000013033
    vertex 55.80930854288501 10.365418029561637 7.993445000013031
    vertex 40.80930854288501 10.36541802956164 5.593445000013033
  endloop
endfacet
facet normal 3.6652439984667144e-17 -1.0 -2.9841306842757425e-16
  outer loop
    vertex 40.80930854288501 10.36541802956164 5.593445000013033
    vertex 55.80930854288501 10.365418029561637 7.993445000013031
    vertex 40.80930854288501 10.365418029561637 7.993445000013031
  endloop
endfacet
facet normal 3.6652439984667144e-17 -1.0 -2.9841306842757425e-16
  outer loop
    vertex 41.40930854288501 10.365418029561626 3.143445000013033
    vertex 37.25930854288501 10.365418029561644 1.2934450000130289
    vertex 41.40930854288501 10.365418029561644 1.2934450000130289
  endloop
endfacet
facet normal 3.6652439984667144e-17 -1.0 -2.9841306842757425e-16
  outer loop
    vertex 37.25930854288501 10.365418029561644 1.2934450000130289
    vertex 41.40930854288501 10.365418029561626 3.143445000013033
    vertex 37.25930854288501 10.365418029561626 3.2934450000130324
  endloop
endfacet
facet normal 3.6652439984667144e-17 -1.0 -2.9841306842757425e-16
  outer loop
    vertex 37.25930854288501 10.365418029561626 3.2934450000130324
    vertex 41.40930854288501 10.365418029561626 3.143445000013033
    vertex 58.359308542885 10.365418029561626 3.2934450000130324
  endloop
endfacet
facet normal 3.6652439984667144e-17 -1.0 -2.9841306842757425e-16
  outer loop
    vertex 37.25930854288501 10.365418029561626 3.2934450000130324
    vertex 58.359308542885 10.365418029561626 3.2934450000130324
    vertex 55.30930854288501 10.365418029561628 3.2934450000130324
  endloop
endfacet
facet normal 3.6652439984667144e-17 -1.0 -2.9841306842757425e-16
  outer loop
    vertex 37.25930854288501 10.365418029561626 3.2934450000130324
    vertex 55.30930854288501 10.365418029561628 3.2934450000130324
    vertex 38.809308542885006 10.365418029561626 3.2934450000130324
  endloop
endfacet
facet normal -4.229949723821837e-15 -1.0 -2.8199664825478935e-15
  outer loop
    vertex 55.30930854288501 10.36541802956164 4.293445000013033
    vertex 55.30930854288501 10.365418029561628 3.2934450000130324
    vertex 56.30930854288501 10.365418029561623 3.2934450000130338
  endloop
endfacet
facet normal -1.115811779248249e-18 -0.09081813614015351 -0.9958674942722192
  outer loop
    vertex 40.35930854288501 11.765418029561642 -2.706554999986967
    vertex 39.85930854288501 11.565418029561641 -2.6883159999869672
    vertex 39.35930854288501 11.765418029561642 -2.706554999986967
  endloop
endfacet
facet normal -1.1212483520156633e-43 1.4099832412739318e-14 -1.0
  outer loop
    vertex 56.25930855778618 11.765418029561642 -2.706554999986967
    vertex 55.75930854288501 11.565418029561641 -2.70655499998697
    vertex 55.25930852798385 11.765418029561642 -2.706554999986967
  endloop
endfacet
facet normal 4.242077804912834e-18 -0.05330653964047095 -0.9985781956519774
  outer loop
    vertex 39.85930854288501 11.565418029561641 -2.6883159999869672
    vertex 39.75930854288501 11.415418029561641 -2.688315999986969
    vertex 39.35930854288501 11.765418029561642 -2.706554999986967
  endloop
endfacet
facet normal 4.242077804912834e-18 -0.05330653964047095 -0.9985781956519774
  outer loop
    vertex 39.75930854288501 11.415418029561641 -2.688315999986969
    vertex 39.85930854288501 11.565418029561641 -2.6883159999869672
    vertex 39.95930854288501 11.415418029561641 -2.688315999986969
  endloop
endfacet
facet normal 4.242077804912834e-18 -0.05330653964047095 -0.9985781956519774
  outer loop
    vertex 39.95930854288501 11.415418029561641 -2.688315999986969
    vertex 39.85930854288501 11.565418029561641 -2.6883159999869672
    vertex 40.35930854288501 11.765418029561642 -2.706554999986967
  endloop
endfacet
facet normal 0.6585046078685189 -0.752576694706877 -2.664975996160463e-16
  outer loop
    vertex 40.35930854288501 11.76541802956164 1.293445000013026
    vertex 39.95930854288501 11.415418029561641 -2.688315999986969
    vertex 40.35930854288501 11.765418029561642 -2.706554999986967
  endloop
endfacet
facet normal 0.6585046078685189 -0.752576694706877 -2.664975996160463e-16
  outer loop
    vertex 39.95930854288501 11.415418029561641 -2.688315999986969
    vertex 40.35930854288501 11.76541802956164 1.293445000013026
    vertex 39.95930854288501 11.415418029561641 1.293445000013032
  endloop
endfacet
facet normal 0.0 -1.0 -1.1508409401602233e-16
  outer loop
    vertex 39.95930854288501 11.415418029561641 1.293445000013032
    vertex 39.75930854288501 11.415418029561641 -2.688315999986969
    vertex 39.95930854288501 11.415418029561641 -2.688315999986969
  endloop
endfacet
facet normal 0.0 -1.0 -1.1508409401602233e-16
  outer loop
    vertex 39.75930854288501 11.415418029561641 -2.688315999986969
    vertex 39.95930854288501 11.415418029561641 1.293445000013032
    vertex 39.75930854288501 11.415418029561641 1.293445000013032
  endloop
endfacet
facet normal -0.6585046078685183 -0.7525766947068777 -2.668280525724561e-16
  outer loop
    vertex 39.75930854288501 11.415418029561641 -2.688315999986969
    vertex 39.35930854288501 11.76541802956164 1.293445000013026
    vertex 39.35930854288501 11.765418029561642 -2.706554999986967
  endloop
endfacet
facet normal -0.6585046078685183 -0.7525766947068777 -2.668280525724561e-16
  outer loop
    vertex 39.35930854288501 11.76541802956164 1.293445000013026
    vertex 39.75930854288501 11.415418029561641 -2.688315999986969
    vertex 39.75930854288501 11.415418029561641 1.293445000013032
  endloop
endfacet
facet normal 1.8230760796835664e-32 2.407288460711623e-15 -1.0
  outer loop
    vertex 55.75930854288501 11.565418029561641 -2.70655499998697
    vertex 55.659308542885015 11.415418029561641 -2.7065549999869676
    vertex 55.25930852798385 11.765418029561642 -2.706554999986967
  endloop
endfacet
facet normal 1.8230760796835664e-32 2.407288460711623e-15 -1.0
  outer loop
    vertex 55.659308542885015 11.415418029561641 -2.7065549999869676
    vertex 55.75930854288501 11.565418029561641 -2.70655499998697
    vertex 55.85930854288501 11.415418029561641 -2.7065549999869676
  endloop
endfacet
facet normal 1.8230760796835664e-32 2.407288460711623e-15 -1.0
  outer loop
    vertex 55.85930854288501 11.415418029561641 -2.7065549999869676
    vertex 55.75930854288501 11.565418029561641 -2.70655499998697
    vertex 56.25930855778618 11.765418029561642 -2.706554999986967
  endloop
endfacet
facet normal 0.6585045939747369 -0.7525767068639363 -2.656752064135391e-16
  outer loop
    vertex 56.25930855778618 11.765418029561642 -2.706554999986967
    vertex 55.85930854288501 11.415418029561641 1.293445000013032
    vertex 55.85930854288501 11.415418029561641 -2.7065549999869676
  endloop
endfacet
facet normal 0.6585045939747369 -0.7525767068639363 -2.656752064135391e-16
  outer loop
    vertex 55.85930854288501 11.415418029561641 1.293445000013032
    vertex 56.25930855778618 11.765418029561642 -2.706554999986967
    vertex 56.25930855778618 11.76541802956164 1.293445000013026
  endloop
endfacet
facet normal 0.0 -1.0 -1.1508409401602188e-16
  outer loop
    vertex 55.85930854288501 11.415418029561641 1.293445000013032
    vertex 55.659308542885015 11.415418029561641 -2.7065549999869676
    vertex 55.85930854288501 11.415418029561641 -2.7065549999869676
  endloop
endfacet
facet normal 0.0 -1.0 -1.1508409401602188e-16
  outer loop
    vertex 55.659308542885015 11.415418029561641 -2.7065549999869676
    vertex 55.85930854288501 11.415418029561641 1.293445000013032
    vertex 55.659308542885015 11.415418029561641 1.293445000013032
  endloop
endfacet
facet normal -0.6585045939747369 -0.7525767068639363 -2.6567520641353913e-16
  outer loop
    vertex 55.659308542885015 11.415418029561641 1.293445000013032
    vertex 55.25930852798385 11.765418029561642 -2.706554999986967
    vertex 55.659308542885015 11.415418029561641 -2.7065549999869676
  endloop
endfacet
facet normal -0.6585045939747369 -0.7525767068639363 -2.6567520641353913e-16
  outer loop
    vertex 55.25930852798385 11.765418029561642 -2.706554999986967
    vertex 55.659308542885015 11.415418029561641 1.293445000013032
    vertex 55.25930852798385 11.76541802956164 1.293445000013026
  endloop
endfacet
facet normal -1.5666480458599356e-15 -1.0 -3.5249581031848724e-15
  outer loop
    vertex 54.409308542885015 10.36541802956164 5.593445000013033
    vertex 54.409308542885015 10.365418029561644 4.793445000013033
    vertex 55.30930854288501 10.365418029561642 4.793445000013035
  endloop
endfacet
facet normal 9.060697952360947e-31 1.0 -1.0574874309554457e-14
  outer loop
    vertex 54.409308542885015 13.765418029561625 5.593445000013046
    vertex 55.30930854288501 13.765418029561589 4.793445000013033
    vertex 54.409308542885015 13.765418029561589 4.793445000013033
  endloop
endfacet
facet normal 0.0 1.0 -1.0574874309554466e-14
  outer loop
    vertex 54.80930854288501 13.765418029561625 5.593445000013046
    vertex 55.30930854288501 13.765418029561589 4.793445000013033
    vertex 54.409308542885015 13.765418029561625 5.593445000013046
  endloop
endfacet
facet normal -8.812395257962208e-16 -1.0 -2.7538735181131923e-15
  outer loop
    vertex 54.409308542885015 10.36541802956164 5.593445000013033
    vertex 55.30930854288501 10.365418029561642 4.793445000013035
    vertex 54.80930854288501 10.36541802956164 5.593445000013033
  endloop
endfacet
facet normal 1.0 -6.522098766032161e-16 2.059514566633343e-16
  outer loop
    vertex 55.80930854288501 10.36541802956164 5.593445000013033
    vertex 55.80930854288501 11.224819029561623 7.993445000013031
    vertex 55.80930854288501 10.365418029561637 7.993445000013031
  endloop
endfacet
facet normal 1.0 -6.522098766032161e-16 2.059514566633343e-16
  outer loop
    vertex 55.80930854288501 11.224819029561623 7.993445000013031
    vertex 55.80930854288501 10.36541802956164 5.593445000013033
    vertex 55.80930854288502 13.765418029561625 5.593445000013046
  endloop
endfacet
facet normal 1.0 -6.522098766032161e-16 2.059514566633343e-16
  outer loop
    vertex 55.80930854288501 11.224819029561623 7.993445000013031
    vertex 55.80930854288501 13.765418029561628 15.993445000013033
    vertex 55.80930854288501 11.22481902956162 15.993445000013033
  endloop
endfacet
facet normal 1.0 -6.522098766032161e-16 2.059514566633343e-16
  outer loop
    vertex 55.80930854288501 13.765418029561628 15.993445000013033
    vertex 55.80930854288501 11.224819029561623 7.993445000013031
    vertex 55.80930854288502 13.765418029561625 5.593445000013046
  endloop
endfacet
facet normal -5.6729295532786445e-15 1.0 -1.7651400667684902e-15
  outer loop
    vertex 55.30930854288501 13.765418029561589 4.793445000013033
    vertex 55.80930854288502 13.765418029561625 5.593445000013046
    vertex 56.809308542885006 13.765418029561642 3.2934450000130333
  endloop
endfacet
facet normal -5.6729295532786445e-15 1.0 -1.7651400667684902e-15
  outer loop
    vertex 55.80930854288502 13.765418029561625 5.593445000013046
    vertex 55.30930854288501 13.765418029561589 4.793445000013033
    vertex 54.80930854288501 13.765418029561625 5.593445000013046
  endloop
endfacet
facet normal -2.7741970215201233e-15 -1.0 1.0839201817040595e-15
  outer loop
    vertex 55.80930854288501 10.36541802956164 5.593445000013033
    vertex 55.30930854288501 10.365418029561642 4.793445000013035
    vertex 56.809308542885006 10.365418029561624 3.2934450000130338
  endloop
endfacet
facet normal -2.7741970215201233e-15 -1.0 1.0839201817040595e-15
  outer loop
    vertex 55.30930854288501 10.365418029561642 4.793445000013035
    vertex 55.80930854288501 10.36541802956164 5.593445000013033
    vertex 54.80930854288501 10.36541802956164 5.593445000013033
  endloop
endfacet
facet normal 0.9170700562532357 -1.4340799051490034e-15 0.39872611141444864
  outer loop
    vertex 56.809308542885006 13.765418029561642 3.2934450000130333
    vertex 55.80930854288501 10.36541802956164 5.593445000013033
    vertex 56.809308542885006 10.365418029561624 3.2934450000130338
  endloop
endfacet
facet normal 0.9170700562532357 -1.4340799051490034e-15 0.39872611141444864
  outer loop
    vertex 55.80930854288501 10.36541802956164 5.593445000013033
    vertex 56.809308542885006 13.765418029561642 3.2934450000130333
    vertex 55.80930854288502 13.765418029561625 5.593445000013046
  endloop
endfacet
facet normal 0.0 -2.0735047665793323e-16 1.0
  outer loop
    vertex 38.809308542885006 10.365418029561626 3.2934450000130324
    vertex 37.25930854288501 13.765418029561642 3.2934450000130333
    vertex 37.25930854288501 10.365418029561626 3.2934450000130324
  endloop
endfacet
facet normal 0.0 -2.0735047665793323e-16 1.0
  outer loop
    vertex 37.25930854288501 13.765418029561642 3.2934450000130333
    vertex 38.809308542885006 10.365418029561626 3.2934450000130324
    vertex 38.809308542885006 13.765418029561642 3.2934450000130333
  endloop
endfacet
facet normal -8.166152939044858e-15 -1.0 7.931155732165885e-15
  outer loop
    vertex 40.30930854288501 10.36541802956164 5.593445000013033
    vertex 38.809308542885006 10.365418029561626 3.2934450000130324
    vertex 40.30930854288501 10.365418029561637 5.193445000013034
  endloop
endfacet
facet normal 4.699944137579785e-15 1.0 2.08555101817805e-29
  outer loop
    vertex 40.30930854288501 13.765418029561623 5.593445000013034
    vertex 40.30930854288501 13.765418029561623 5.193445000013034
    vertex 38.809308542885006 13.765418029561642 3.2934450000130333
  endloop
endfacet
facet normal -0.8376105968386145 -9.343294886963308e-17 0.5462677805469222
  outer loop
    vertex 40.30930854288501 10.36541802956164 5.593445000013033
    vertex 38.809308542885006 13.765418029561642 3.2934450000130333
    vertex 38.809308542885006 10.365418029561626 3.2934450000130324
  endloop
endfacet
facet normal -0.8376105968386145 -9.343294886963308e-17 0.5462677805469222
  outer loop
    vertex 38.809308542885006 13.765418029561642 3.2934450000130333
    vertex 40.30930854288501 10.36541802956164 5.593445000013033
    vertex 40.30930854288501 13.765418029561623 5.593445000013034
  endloop
endfacet
facet normal -1.0 7.125265225424298e-17 -8.670738814876894e-17
  outer loop
    vertex 40.80930854288501 13.765418029561628 15.993445000013033
    vertex 40.80930854288501 11.224819029561624 7.993445000013031
    vertex 40.80930854288501 11.224819029561624 15.993445000013033
  endloop
endfacet
facet normal -1.0 7.125265225424298e-17 -8.670738814876894e-17
  outer loop
    vertex 40.80930854288501 11.224819029561624 7.993445000013031
    vertex 40.80930854288501 13.765418029561628 15.993445000013033
    vertex 40.80930854288501 13.765418029561623 5.593445000013034
  endloop
endfacet
facet normal -1.0 7.125265225424298e-17 -8.670738814876894e-17
  outer loop
    vertex 40.80930854288501 11.224819029561624 7.993445000013031
    vertex 40.80930854288501 10.36541802956164 5.593445000013033
    vertex 40.80930854288501 10.365418029561637 7.993445000013031
  endloop
endfacet
facet normal -1.0 7.125265225424298e-17 -8.670738814876894e-17
  outer loop
    vertex 40.80930854288501 10.36541802956164 5.593445000013033
    vertex 40.80930854288501 11.224819029561624 7.993445000013031
    vertex 40.80930854288501 13.765418029561623 5.593445000013034
  endloop
endfacet
facet normal -8.670738814876896e-17 -2.0735047665793454e-16 1.0
  outer loop
    vertex 40.80930854288501 10.36541802956164 5.593445000013033
    vertex 40.30930854288501 13.765418029561623 5.593445000013034
    vertex 40.30930854288501 10.36541802956164 5.593445000013033
  endloop
endfacet
facet normal -8.670738814876896e-17 -2.0735047665793454e-16 1.0
  outer loop
    vertex 40.30930854288501 13.765418029561623 5.593445000013034
    vertex 40.80930854288501 10.36541802956164 5.593445000013033
    vertex 40.80930854288501 13.765418029561623 5.593445000013034
  endloop
endfacet
facet normal 0.0 -1.0 -2.7755575615628914e-16
  outer loop
    vertex 55.80930854288501 11.22481902956162 15.993445000013033
    vertex 40.80930854288501 11.224819029561624 7.993445000013031
    vertex 55.80930854288501 11.224819029561623 7.993445000013031
  endloop
endfacet
facet normal 0.0 -1.0 -2.7755575615628914e-16
  outer loop
    vertex 40.80930854288501 11.224819029561624 7.993445000013031
    vertex 55.80930854288501 11.22481902956162 15.993445000013033
    vertex 40.80930854288501 11.224819029561624 15.993445000013033
  endloop
endfacet
endsolid Keyboard_LEDs_Checkmate
