%TF.GenerationSoftware,KiCad,Pcbnew,(5.1.6-0)*%
%TF.CreationDate,2021-12-10T11:59:47+01:00*%
%TF.ProjectId,A500KB,41353030-4b42-42e6-9b69-6361645f7063,rev?*%
%TF.SameCoordinates,Original*%
%TF.FileFunction,Paste,Top*%
%TF.FilePolarity,Positive*%
%FSLAX46Y46*%
G04 Gerber Fmt 4.6, Leading zero omitted, Abs format (unit mm)*
G04 Created by KiCad (PCBNEW (5.1.6-0)) date 2021-12-10 11:59:47*
%MOMM*%
%LPD*%
G01*
G04 APERTURE LIST*
%ADD10R,0.900000X0.800000*%
%ADD11R,0.700000X0.600000*%
%ADD12C,0.100000*%
%ADD13R,0.800000X2.000000*%
%ADD14R,1.700000X2.400000*%
%ADD15R,0.800000X1.500000*%
%ADD16R,0.550000X1.500000*%
%ADD17R,1.500000X0.550000*%
G04 APERTURE END LIST*
%TO.C,R7*%
G36*
G01*
X430475000Y-254150001D02*
X430475000Y-253249999D01*
G75*
G02*
X430724999Y-253000000I249999J0D01*
G01*
X431375001Y-253000000D01*
G75*
G02*
X431625000Y-253249999I0J-249999D01*
G01*
X431625000Y-254150001D01*
G75*
G02*
X431375001Y-254400000I-249999J0D01*
G01*
X430724999Y-254400000D01*
G75*
G02*
X430475000Y-254150001I0J249999D01*
G01*
G37*
G36*
G01*
X428425000Y-254150001D02*
X428425000Y-253249999D01*
G75*
G02*
X428674999Y-253000000I249999J0D01*
G01*
X429325001Y-253000000D01*
G75*
G02*
X429575000Y-253249999I0J-249999D01*
G01*
X429575000Y-254150001D01*
G75*
G02*
X429325001Y-254400000I-249999J0D01*
G01*
X428674999Y-254400000D01*
G75*
G02*
X428425000Y-254150001I0J249999D01*
G01*
G37*
%TD*%
%TO.C,R6*%
G36*
G01*
X409750001Y-232625000D02*
X408849999Y-232625000D01*
G75*
G02*
X408600000Y-232375001I0J249999D01*
G01*
X408600000Y-231724999D01*
G75*
G02*
X408849999Y-231475000I249999J0D01*
G01*
X409750001Y-231475000D01*
G75*
G02*
X410000000Y-231724999I0J-249999D01*
G01*
X410000000Y-232375001D01*
G75*
G02*
X409750001Y-232625000I-249999J0D01*
G01*
G37*
G36*
G01*
X409750001Y-234675000D02*
X408849999Y-234675000D01*
G75*
G02*
X408600000Y-234425001I0J249999D01*
G01*
X408600000Y-233774999D01*
G75*
G02*
X408849999Y-233525000I249999J0D01*
G01*
X409750001Y-233525000D01*
G75*
G02*
X410000000Y-233774999I0J-249999D01*
G01*
X410000000Y-234425001D01*
G75*
G02*
X409750001Y-234675000I-249999J0D01*
G01*
G37*
%TD*%
%TO.C,R5*%
G36*
G01*
X376125000Y-241350001D02*
X376125000Y-240449999D01*
G75*
G02*
X376374999Y-240200000I249999J0D01*
G01*
X377025001Y-240200000D01*
G75*
G02*
X377275000Y-240449999I0J-249999D01*
G01*
X377275000Y-241350001D01*
G75*
G02*
X377025001Y-241600000I-249999J0D01*
G01*
X376374999Y-241600000D01*
G75*
G02*
X376125000Y-241350001I0J249999D01*
G01*
G37*
G36*
G01*
X374075000Y-241350001D02*
X374075000Y-240449999D01*
G75*
G02*
X374324999Y-240200000I249999J0D01*
G01*
X374975001Y-240200000D01*
G75*
G02*
X375225000Y-240449999I0J-249999D01*
G01*
X375225000Y-241350001D01*
G75*
G02*
X374975001Y-241600000I-249999J0D01*
G01*
X374324999Y-241600000D01*
G75*
G02*
X374075000Y-241350001I0J249999D01*
G01*
G37*
%TD*%
%TO.C,R4*%
G36*
G01*
X322003001Y-242870000D02*
X321102999Y-242870000D01*
G75*
G02*
X320853000Y-242620001I0J249999D01*
G01*
X320853000Y-241969999D01*
G75*
G02*
X321102999Y-241720000I249999J0D01*
G01*
X322003001Y-241720000D01*
G75*
G02*
X322253000Y-241969999I0J-249999D01*
G01*
X322253000Y-242620001D01*
G75*
G02*
X322003001Y-242870000I-249999J0D01*
G01*
G37*
G36*
G01*
X322003001Y-244920000D02*
X321102999Y-244920000D01*
G75*
G02*
X320853000Y-244670001I0J249999D01*
G01*
X320853000Y-244019999D01*
G75*
G02*
X321102999Y-243770000I249999J0D01*
G01*
X322003001Y-243770000D01*
G75*
G02*
X322253000Y-244019999I0J-249999D01*
G01*
X322253000Y-244670001D01*
G75*
G02*
X322003001Y-244920000I-249999J0D01*
G01*
G37*
%TD*%
%TO.C,R3*%
G36*
G01*
X319844001Y-242888000D02*
X318943999Y-242888000D01*
G75*
G02*
X318694000Y-242638001I0J249999D01*
G01*
X318694000Y-241987999D01*
G75*
G02*
X318943999Y-241738000I249999J0D01*
G01*
X319844001Y-241738000D01*
G75*
G02*
X320094000Y-241987999I0J-249999D01*
G01*
X320094000Y-242638001D01*
G75*
G02*
X319844001Y-242888000I-249999J0D01*
G01*
G37*
G36*
G01*
X319844001Y-244938000D02*
X318943999Y-244938000D01*
G75*
G02*
X318694000Y-244688001I0J249999D01*
G01*
X318694000Y-244037999D01*
G75*
G02*
X318943999Y-243788000I249999J0D01*
G01*
X319844001Y-243788000D01*
G75*
G02*
X320094000Y-244037999I0J-249999D01*
G01*
X320094000Y-244688001D01*
G75*
G02*
X319844001Y-244938000I-249999J0D01*
G01*
G37*
%TD*%
%TO.C,R2*%
G36*
G01*
X367700000Y-252550001D02*
X367700000Y-251649999D01*
G75*
G02*
X367949999Y-251400000I249999J0D01*
G01*
X368600001Y-251400000D01*
G75*
G02*
X368850000Y-251649999I0J-249999D01*
G01*
X368850000Y-252550001D01*
G75*
G02*
X368600001Y-252800000I-249999J0D01*
G01*
X367949999Y-252800000D01*
G75*
G02*
X367700000Y-252550001I0J249999D01*
G01*
G37*
G36*
G01*
X365650000Y-252550001D02*
X365650000Y-251649999D01*
G75*
G02*
X365899999Y-251400000I249999J0D01*
G01*
X366550001Y-251400000D01*
G75*
G02*
X366800000Y-251649999I0J-249999D01*
G01*
X366800000Y-252550001D01*
G75*
G02*
X366550001Y-252800000I-249999J0D01*
G01*
X365899999Y-252800000D01*
G75*
G02*
X365650000Y-252550001I0J249999D01*
G01*
G37*
%TD*%
%TO.C,R1*%
G36*
G01*
X377250001Y-251625000D02*
X376349999Y-251625000D01*
G75*
G02*
X376100000Y-251375001I0J249999D01*
G01*
X376100000Y-250724999D01*
G75*
G02*
X376349999Y-250475000I249999J0D01*
G01*
X377250001Y-250475000D01*
G75*
G02*
X377500000Y-250724999I0J-249999D01*
G01*
X377500000Y-251375001D01*
G75*
G02*
X377250001Y-251625000I-249999J0D01*
G01*
G37*
G36*
G01*
X377250001Y-253675000D02*
X376349999Y-253675000D01*
G75*
G02*
X376100000Y-253425001I0J249999D01*
G01*
X376100000Y-252774999D01*
G75*
G02*
X376349999Y-252525000I249999J0D01*
G01*
X377250001Y-252525000D01*
G75*
G02*
X377500000Y-252774999I0J-249999D01*
G01*
X377500000Y-253425001D01*
G75*
G02*
X377250001Y-253675000I-249999J0D01*
G01*
G37*
%TD*%
D10*
%TO.C,Q1*%
X371250000Y-252100000D03*
X373250000Y-251150000D03*
X373250000Y-253050000D03*
%TD*%
%TO.C,C9*%
G36*
G01*
X434825000Y-255499999D02*
X434825000Y-256400001D01*
G75*
G02*
X434575001Y-256650000I-249999J0D01*
G01*
X433924999Y-256650000D01*
G75*
G02*
X433675000Y-256400001I0J249999D01*
G01*
X433675000Y-255499999D01*
G75*
G02*
X433924999Y-255250000I249999J0D01*
G01*
X434575001Y-255250000D01*
G75*
G02*
X434825000Y-255499999I0J-249999D01*
G01*
G37*
G36*
G01*
X436875000Y-255499999D02*
X436875000Y-256400001D01*
G75*
G02*
X436625001Y-256650000I-249999J0D01*
G01*
X435974999Y-256650000D01*
G75*
G02*
X435725000Y-256400001I0J249999D01*
G01*
X435725000Y-255499999D01*
G75*
G02*
X435974999Y-255250000I249999J0D01*
G01*
X436625001Y-255250000D01*
G75*
G02*
X436875000Y-255499999I0J-249999D01*
G01*
G37*
%TD*%
%TO.C,C13*%
G36*
G01*
X429600000Y-250599999D02*
X429600000Y-251500001D01*
G75*
G02*
X429350001Y-251750000I-249999J0D01*
G01*
X428699999Y-251750000D01*
G75*
G02*
X428450000Y-251500001I0J249999D01*
G01*
X428450000Y-250599999D01*
G75*
G02*
X428699999Y-250350000I249999J0D01*
G01*
X429350001Y-250350000D01*
G75*
G02*
X429600000Y-250599999I0J-249999D01*
G01*
G37*
G36*
G01*
X431650000Y-250599999D02*
X431650000Y-251500001D01*
G75*
G02*
X431400001Y-251750000I-249999J0D01*
G01*
X430749999Y-251750000D01*
G75*
G02*
X430500000Y-251500001I0J249999D01*
G01*
X430500000Y-250599999D01*
G75*
G02*
X430749999Y-250350000I249999J0D01*
G01*
X431400001Y-250350000D01*
G75*
G02*
X431650000Y-250599999I0J-249999D01*
G01*
G37*
%TD*%
%TO.C,C14*%
G36*
G01*
X403749999Y-233475000D02*
X404650001Y-233475000D01*
G75*
G02*
X404900000Y-233724999I0J-249999D01*
G01*
X404900000Y-234375001D01*
G75*
G02*
X404650001Y-234625000I-249999J0D01*
G01*
X403749999Y-234625000D01*
G75*
G02*
X403500000Y-234375001I0J249999D01*
G01*
X403500000Y-233724999D01*
G75*
G02*
X403749999Y-233475000I249999J0D01*
G01*
G37*
G36*
G01*
X403749999Y-231425000D02*
X404650001Y-231425000D01*
G75*
G02*
X404900000Y-231674999I0J-249999D01*
G01*
X404900000Y-232325001D01*
G75*
G02*
X404650001Y-232575000I-249999J0D01*
G01*
X403749999Y-232575000D01*
G75*
G02*
X403500000Y-232325001I0J249999D01*
G01*
X403500000Y-231674999D01*
G75*
G02*
X403749999Y-231425000I249999J0D01*
G01*
G37*
%TD*%
%TO.C,C12*%
G36*
G01*
X428699999Y-247625000D02*
X429600001Y-247625000D01*
G75*
G02*
X429850000Y-247874999I0J-249999D01*
G01*
X429850000Y-248525001D01*
G75*
G02*
X429600001Y-248775000I-249999J0D01*
G01*
X428699999Y-248775000D01*
G75*
G02*
X428450000Y-248525001I0J249999D01*
G01*
X428450000Y-247874999D01*
G75*
G02*
X428699999Y-247625000I249999J0D01*
G01*
G37*
G36*
G01*
X428699999Y-245575000D02*
X429600001Y-245575000D01*
G75*
G02*
X429850000Y-245824999I0J-249999D01*
G01*
X429850000Y-246475001D01*
G75*
G02*
X429600001Y-246725000I-249999J0D01*
G01*
X428699999Y-246725000D01*
G75*
G02*
X428450000Y-246475001I0J249999D01*
G01*
X428450000Y-245824999D01*
G75*
G02*
X428699999Y-245575000I249999J0D01*
G01*
G37*
%TD*%
%TO.C,C11*%
G36*
G01*
X440875000Y-256400001D02*
X440875000Y-255499999D01*
G75*
G02*
X441124999Y-255250000I249999J0D01*
G01*
X441775001Y-255250000D01*
G75*
G02*
X442025000Y-255499999I0J-249999D01*
G01*
X442025000Y-256400001D01*
G75*
G02*
X441775001Y-256650000I-249999J0D01*
G01*
X441124999Y-256650000D01*
G75*
G02*
X440875000Y-256400001I0J249999D01*
G01*
G37*
G36*
G01*
X438825000Y-256400001D02*
X438825000Y-255499999D01*
G75*
G02*
X439074999Y-255250000I249999J0D01*
G01*
X439725001Y-255250000D01*
G75*
G02*
X439975000Y-255499999I0J-249999D01*
G01*
X439975000Y-256400001D01*
G75*
G02*
X439725001Y-256650000I-249999J0D01*
G01*
X439074999Y-256650000D01*
G75*
G02*
X438825000Y-256400001I0J249999D01*
G01*
G37*
%TD*%
%TO.C,C10*%
G36*
G01*
X436875000Y-234099999D02*
X436875000Y-235000001D01*
G75*
G02*
X436625001Y-235250000I-249999J0D01*
G01*
X435974999Y-235250000D01*
G75*
G02*
X435725000Y-235000001I0J249999D01*
G01*
X435725000Y-234099999D01*
G75*
G02*
X435974999Y-233850000I249999J0D01*
G01*
X436625001Y-233850000D01*
G75*
G02*
X436875000Y-234099999I0J-249999D01*
G01*
G37*
G36*
G01*
X438925000Y-234099999D02*
X438925000Y-235000001D01*
G75*
G02*
X438675001Y-235250000I-249999J0D01*
G01*
X438024999Y-235250000D01*
G75*
G02*
X437775000Y-235000001I0J249999D01*
G01*
X437775000Y-234099999D01*
G75*
G02*
X438024999Y-233850000I249999J0D01*
G01*
X438675001Y-233850000D01*
G75*
G02*
X438925000Y-234099999I0J-249999D01*
G01*
G37*
%TD*%
D11*
%TO.C,D50*%
X322427600Y-299748400D03*
X322427600Y-298348400D03*
%TD*%
D12*
%TO.C,U1*%
G36*
X434462396Y-245714141D02*
G01*
X434440426Y-245707476D01*
X434420179Y-245696654D01*
X434402432Y-245682089D01*
X434305411Y-245585068D01*
X434290846Y-245567321D01*
X434280024Y-245547074D01*
X434273359Y-245525104D01*
X434271109Y-245502256D01*
X434271109Y-244922744D01*
X434273359Y-244899896D01*
X434280024Y-244877926D01*
X434290846Y-244857679D01*
X434305411Y-244839932D01*
X434402432Y-244742911D01*
X434420179Y-244728346D01*
X434440426Y-244717524D01*
X434462396Y-244710859D01*
X434485244Y-244708609D01*
X435064756Y-244708609D01*
X435087604Y-244710859D01*
X435109574Y-244717524D01*
X435129821Y-244728346D01*
X435147568Y-244742911D01*
X435244589Y-244839932D01*
X435259154Y-244857679D01*
X435269976Y-244877926D01*
X435276641Y-244899896D01*
X435278891Y-244922744D01*
X435278891Y-245502256D01*
X435276641Y-245525104D01*
X435269976Y-245547074D01*
X435259154Y-245567321D01*
X435244589Y-245585068D01*
X435147568Y-245682089D01*
X435129821Y-245696654D01*
X435109574Y-245707476D01*
X435087604Y-245714141D01*
X435064756Y-245716391D01*
X434485244Y-245716391D01*
X434462396Y-245714141D01*
G37*
G36*
X434462396Y-246839141D02*
G01*
X434440426Y-246832476D01*
X434420179Y-246821654D01*
X434402432Y-246807089D01*
X434305411Y-246710068D01*
X434290846Y-246692321D01*
X434280024Y-246672074D01*
X434273359Y-246650104D01*
X434271109Y-246627256D01*
X434271109Y-246047744D01*
X434273359Y-246024896D01*
X434280024Y-246002926D01*
X434290846Y-245982679D01*
X434305411Y-245964932D01*
X434402432Y-245867911D01*
X434420179Y-245853346D01*
X434440426Y-245842524D01*
X434462396Y-245835859D01*
X434485244Y-245833609D01*
X435064756Y-245833609D01*
X435087604Y-245835859D01*
X435109574Y-245842524D01*
X435129821Y-245853346D01*
X435147568Y-245867911D01*
X435244589Y-245964932D01*
X435259154Y-245982679D01*
X435269976Y-246002926D01*
X435276641Y-246024896D01*
X435278891Y-246047744D01*
X435278891Y-246627256D01*
X435276641Y-246650104D01*
X435269976Y-246672074D01*
X435259154Y-246692321D01*
X435244589Y-246710068D01*
X435147568Y-246807089D01*
X435129821Y-246821654D01*
X435109574Y-246832476D01*
X435087604Y-246839141D01*
X435064756Y-246841391D01*
X434485244Y-246841391D01*
X434462396Y-246839141D01*
G37*
G36*
X434462396Y-247964141D02*
G01*
X434440426Y-247957476D01*
X434420179Y-247946654D01*
X434402432Y-247932089D01*
X434305411Y-247835068D01*
X434290846Y-247817321D01*
X434280024Y-247797074D01*
X434273359Y-247775104D01*
X434271109Y-247752256D01*
X434271109Y-247172744D01*
X434273359Y-247149896D01*
X434280024Y-247127926D01*
X434290846Y-247107679D01*
X434305411Y-247089932D01*
X434402432Y-246992911D01*
X434420179Y-246978346D01*
X434440426Y-246967524D01*
X434462396Y-246960859D01*
X434485244Y-246958609D01*
X435064756Y-246958609D01*
X435087604Y-246960859D01*
X435109574Y-246967524D01*
X435129821Y-246978346D01*
X435147568Y-246992911D01*
X435244589Y-247089932D01*
X435259154Y-247107679D01*
X435269976Y-247127926D01*
X435276641Y-247149896D01*
X435278891Y-247172744D01*
X435278891Y-247752256D01*
X435276641Y-247775104D01*
X435269976Y-247797074D01*
X435259154Y-247817321D01*
X435244589Y-247835068D01*
X435147568Y-247932089D01*
X435129821Y-247946654D01*
X435109574Y-247957476D01*
X435087604Y-247964141D01*
X435064756Y-247966391D01*
X434485244Y-247966391D01*
X434462396Y-247964141D01*
G37*
G36*
X434462396Y-249089141D02*
G01*
X434440426Y-249082476D01*
X434420179Y-249071654D01*
X434402432Y-249057089D01*
X434305411Y-248960068D01*
X434290846Y-248942321D01*
X434280024Y-248922074D01*
X434273359Y-248900104D01*
X434271109Y-248877256D01*
X434271109Y-248297744D01*
X434273359Y-248274896D01*
X434280024Y-248252926D01*
X434290846Y-248232679D01*
X434305411Y-248214932D01*
X434402432Y-248117911D01*
X434420179Y-248103346D01*
X434440426Y-248092524D01*
X434462396Y-248085859D01*
X434485244Y-248083609D01*
X435064756Y-248083609D01*
X435087604Y-248085859D01*
X435109574Y-248092524D01*
X435129821Y-248103346D01*
X435147568Y-248117911D01*
X435244589Y-248214932D01*
X435259154Y-248232679D01*
X435269976Y-248252926D01*
X435276641Y-248274896D01*
X435278891Y-248297744D01*
X435278891Y-248877256D01*
X435276641Y-248900104D01*
X435269976Y-248922074D01*
X435259154Y-248942321D01*
X435244589Y-248960068D01*
X435147568Y-249057089D01*
X435129821Y-249071654D01*
X435109574Y-249082476D01*
X435087604Y-249089141D01*
X435064756Y-249091391D01*
X434485244Y-249091391D01*
X434462396Y-249089141D01*
G37*
G36*
X435587396Y-245714141D02*
G01*
X435565426Y-245707476D01*
X435545179Y-245696654D01*
X435527432Y-245682089D01*
X435430411Y-245585068D01*
X435415846Y-245567321D01*
X435405024Y-245547074D01*
X435398359Y-245525104D01*
X435396109Y-245502256D01*
X435396109Y-244922744D01*
X435398359Y-244899896D01*
X435405024Y-244877926D01*
X435415846Y-244857679D01*
X435430411Y-244839932D01*
X435527432Y-244742911D01*
X435545179Y-244728346D01*
X435565426Y-244717524D01*
X435587396Y-244710859D01*
X435610244Y-244708609D01*
X436189756Y-244708609D01*
X436212604Y-244710859D01*
X436234574Y-244717524D01*
X436254821Y-244728346D01*
X436272568Y-244742911D01*
X436369589Y-244839932D01*
X436384154Y-244857679D01*
X436394976Y-244877926D01*
X436401641Y-244899896D01*
X436403891Y-244922744D01*
X436403891Y-245502256D01*
X436401641Y-245525104D01*
X436394976Y-245547074D01*
X436384154Y-245567321D01*
X436369589Y-245585068D01*
X436272568Y-245682089D01*
X436254821Y-245696654D01*
X436234574Y-245707476D01*
X436212604Y-245714141D01*
X436189756Y-245716391D01*
X435610244Y-245716391D01*
X435587396Y-245714141D01*
G37*
G36*
X435587396Y-246839141D02*
G01*
X435565426Y-246832476D01*
X435545179Y-246821654D01*
X435527432Y-246807089D01*
X435430411Y-246710068D01*
X435415846Y-246692321D01*
X435405024Y-246672074D01*
X435398359Y-246650104D01*
X435396109Y-246627256D01*
X435396109Y-246047744D01*
X435398359Y-246024896D01*
X435405024Y-246002926D01*
X435415846Y-245982679D01*
X435430411Y-245964932D01*
X435527432Y-245867911D01*
X435545179Y-245853346D01*
X435565426Y-245842524D01*
X435587396Y-245835859D01*
X435610244Y-245833609D01*
X436189756Y-245833609D01*
X436212604Y-245835859D01*
X436234574Y-245842524D01*
X436254821Y-245853346D01*
X436272568Y-245867911D01*
X436369589Y-245964932D01*
X436384154Y-245982679D01*
X436394976Y-246002926D01*
X436401641Y-246024896D01*
X436403891Y-246047744D01*
X436403891Y-246627256D01*
X436401641Y-246650104D01*
X436394976Y-246672074D01*
X436384154Y-246692321D01*
X436369589Y-246710068D01*
X436272568Y-246807089D01*
X436254821Y-246821654D01*
X436234574Y-246832476D01*
X436212604Y-246839141D01*
X436189756Y-246841391D01*
X435610244Y-246841391D01*
X435587396Y-246839141D01*
G37*
G36*
X435587396Y-247964141D02*
G01*
X435565426Y-247957476D01*
X435545179Y-247946654D01*
X435527432Y-247932089D01*
X435430411Y-247835068D01*
X435415846Y-247817321D01*
X435405024Y-247797074D01*
X435398359Y-247775104D01*
X435396109Y-247752256D01*
X435396109Y-247172744D01*
X435398359Y-247149896D01*
X435405024Y-247127926D01*
X435415846Y-247107679D01*
X435430411Y-247089932D01*
X435527432Y-246992911D01*
X435545179Y-246978346D01*
X435565426Y-246967524D01*
X435587396Y-246960859D01*
X435610244Y-246958609D01*
X436189756Y-246958609D01*
X436212604Y-246960859D01*
X436234574Y-246967524D01*
X436254821Y-246978346D01*
X436272568Y-246992911D01*
X436369589Y-247089932D01*
X436384154Y-247107679D01*
X436394976Y-247127926D01*
X436401641Y-247149896D01*
X436403891Y-247172744D01*
X436403891Y-247752256D01*
X436401641Y-247775104D01*
X436394976Y-247797074D01*
X436384154Y-247817321D01*
X436369589Y-247835068D01*
X436272568Y-247932089D01*
X436254821Y-247946654D01*
X436234574Y-247957476D01*
X436212604Y-247964141D01*
X436189756Y-247966391D01*
X435610244Y-247966391D01*
X435587396Y-247964141D01*
G37*
G36*
X435587396Y-249089141D02*
G01*
X435565426Y-249082476D01*
X435545179Y-249071654D01*
X435527432Y-249057089D01*
X435430411Y-248960068D01*
X435415846Y-248942321D01*
X435405024Y-248922074D01*
X435398359Y-248900104D01*
X435396109Y-248877256D01*
X435396109Y-248297744D01*
X435398359Y-248274896D01*
X435405024Y-248252926D01*
X435415846Y-248232679D01*
X435430411Y-248214932D01*
X435527432Y-248117911D01*
X435545179Y-248103346D01*
X435565426Y-248092524D01*
X435587396Y-248085859D01*
X435610244Y-248083609D01*
X436189756Y-248083609D01*
X436212604Y-248085859D01*
X436234574Y-248092524D01*
X436254821Y-248103346D01*
X436272568Y-248117911D01*
X436369589Y-248214932D01*
X436384154Y-248232679D01*
X436394976Y-248252926D01*
X436401641Y-248274896D01*
X436403891Y-248297744D01*
X436403891Y-248877256D01*
X436401641Y-248900104D01*
X436394976Y-248922074D01*
X436384154Y-248942321D01*
X436369589Y-248960068D01*
X436272568Y-249057089D01*
X436254821Y-249071654D01*
X436234574Y-249082476D01*
X436212604Y-249089141D01*
X436189756Y-249091391D01*
X435610244Y-249091391D01*
X435587396Y-249089141D01*
G37*
G36*
X436712396Y-245714141D02*
G01*
X436690426Y-245707476D01*
X436670179Y-245696654D01*
X436652432Y-245682089D01*
X436555411Y-245585068D01*
X436540846Y-245567321D01*
X436530024Y-245547074D01*
X436523359Y-245525104D01*
X436521109Y-245502256D01*
X436521109Y-244922744D01*
X436523359Y-244899896D01*
X436530024Y-244877926D01*
X436540846Y-244857679D01*
X436555411Y-244839932D01*
X436652432Y-244742911D01*
X436670179Y-244728346D01*
X436690426Y-244717524D01*
X436712396Y-244710859D01*
X436735244Y-244708609D01*
X437314756Y-244708609D01*
X437337604Y-244710859D01*
X437359574Y-244717524D01*
X437379821Y-244728346D01*
X437397568Y-244742911D01*
X437494589Y-244839932D01*
X437509154Y-244857679D01*
X437519976Y-244877926D01*
X437526641Y-244899896D01*
X437528891Y-244922744D01*
X437528891Y-245502256D01*
X437526641Y-245525104D01*
X437519976Y-245547074D01*
X437509154Y-245567321D01*
X437494589Y-245585068D01*
X437397568Y-245682089D01*
X437379821Y-245696654D01*
X437359574Y-245707476D01*
X437337604Y-245714141D01*
X437314756Y-245716391D01*
X436735244Y-245716391D01*
X436712396Y-245714141D01*
G37*
G36*
X436712396Y-246839141D02*
G01*
X436690426Y-246832476D01*
X436670179Y-246821654D01*
X436652432Y-246807089D01*
X436555411Y-246710068D01*
X436540846Y-246692321D01*
X436530024Y-246672074D01*
X436523359Y-246650104D01*
X436521109Y-246627256D01*
X436521109Y-246047744D01*
X436523359Y-246024896D01*
X436530024Y-246002926D01*
X436540846Y-245982679D01*
X436555411Y-245964932D01*
X436652432Y-245867911D01*
X436670179Y-245853346D01*
X436690426Y-245842524D01*
X436712396Y-245835859D01*
X436735244Y-245833609D01*
X437314756Y-245833609D01*
X437337604Y-245835859D01*
X437359574Y-245842524D01*
X437379821Y-245853346D01*
X437397568Y-245867911D01*
X437494589Y-245964932D01*
X437509154Y-245982679D01*
X437519976Y-246002926D01*
X437526641Y-246024896D01*
X437528891Y-246047744D01*
X437528891Y-246627256D01*
X437526641Y-246650104D01*
X437519976Y-246672074D01*
X437509154Y-246692321D01*
X437494589Y-246710068D01*
X437397568Y-246807089D01*
X437379821Y-246821654D01*
X437359574Y-246832476D01*
X437337604Y-246839141D01*
X437314756Y-246841391D01*
X436735244Y-246841391D01*
X436712396Y-246839141D01*
G37*
G36*
X436712396Y-247964141D02*
G01*
X436690426Y-247957476D01*
X436670179Y-247946654D01*
X436652432Y-247932089D01*
X436555411Y-247835068D01*
X436540846Y-247817321D01*
X436530024Y-247797074D01*
X436523359Y-247775104D01*
X436521109Y-247752256D01*
X436521109Y-247172744D01*
X436523359Y-247149896D01*
X436530024Y-247127926D01*
X436540846Y-247107679D01*
X436555411Y-247089932D01*
X436652432Y-246992911D01*
X436670179Y-246978346D01*
X436690426Y-246967524D01*
X436712396Y-246960859D01*
X436735244Y-246958609D01*
X437314756Y-246958609D01*
X437337604Y-246960859D01*
X437359574Y-246967524D01*
X437379821Y-246978346D01*
X437397568Y-246992911D01*
X437494589Y-247089932D01*
X437509154Y-247107679D01*
X437519976Y-247127926D01*
X437526641Y-247149896D01*
X437528891Y-247172744D01*
X437528891Y-247752256D01*
X437526641Y-247775104D01*
X437519976Y-247797074D01*
X437509154Y-247817321D01*
X437494589Y-247835068D01*
X437397568Y-247932089D01*
X437379821Y-247946654D01*
X437359574Y-247957476D01*
X437337604Y-247964141D01*
X437314756Y-247966391D01*
X436735244Y-247966391D01*
X436712396Y-247964141D01*
G37*
G36*
X436712396Y-249089141D02*
G01*
X436690426Y-249082476D01*
X436670179Y-249071654D01*
X436652432Y-249057089D01*
X436555411Y-248960068D01*
X436540846Y-248942321D01*
X436530024Y-248922074D01*
X436523359Y-248900104D01*
X436521109Y-248877256D01*
X436521109Y-248297744D01*
X436523359Y-248274896D01*
X436530024Y-248252926D01*
X436540846Y-248232679D01*
X436555411Y-248214932D01*
X436652432Y-248117911D01*
X436670179Y-248103346D01*
X436690426Y-248092524D01*
X436712396Y-248085859D01*
X436735244Y-248083609D01*
X437314756Y-248083609D01*
X437337604Y-248085859D01*
X437359574Y-248092524D01*
X437379821Y-248103346D01*
X437397568Y-248117911D01*
X437494589Y-248214932D01*
X437509154Y-248232679D01*
X437519976Y-248252926D01*
X437526641Y-248274896D01*
X437528891Y-248297744D01*
X437528891Y-248877256D01*
X437526641Y-248900104D01*
X437519976Y-248922074D01*
X437509154Y-248942321D01*
X437494589Y-248960068D01*
X437397568Y-249057089D01*
X437379821Y-249071654D01*
X437359574Y-249082476D01*
X437337604Y-249089141D01*
X437314756Y-249091391D01*
X436735244Y-249091391D01*
X436712396Y-249089141D01*
G37*
G36*
X437837396Y-245714141D02*
G01*
X437815426Y-245707476D01*
X437795179Y-245696654D01*
X437777432Y-245682089D01*
X437680411Y-245585068D01*
X437665846Y-245567321D01*
X437655024Y-245547074D01*
X437648359Y-245525104D01*
X437646109Y-245502256D01*
X437646109Y-244922744D01*
X437648359Y-244899896D01*
X437655024Y-244877926D01*
X437665846Y-244857679D01*
X437680411Y-244839932D01*
X437777432Y-244742911D01*
X437795179Y-244728346D01*
X437815426Y-244717524D01*
X437837396Y-244710859D01*
X437860244Y-244708609D01*
X438439756Y-244708609D01*
X438462604Y-244710859D01*
X438484574Y-244717524D01*
X438504821Y-244728346D01*
X438522568Y-244742911D01*
X438619589Y-244839932D01*
X438634154Y-244857679D01*
X438644976Y-244877926D01*
X438651641Y-244899896D01*
X438653891Y-244922744D01*
X438653891Y-245502256D01*
X438651641Y-245525104D01*
X438644976Y-245547074D01*
X438634154Y-245567321D01*
X438619589Y-245585068D01*
X438522568Y-245682089D01*
X438504821Y-245696654D01*
X438484574Y-245707476D01*
X438462604Y-245714141D01*
X438439756Y-245716391D01*
X437860244Y-245716391D01*
X437837396Y-245714141D01*
G37*
G36*
X437837396Y-246839141D02*
G01*
X437815426Y-246832476D01*
X437795179Y-246821654D01*
X437777432Y-246807089D01*
X437680411Y-246710068D01*
X437665846Y-246692321D01*
X437655024Y-246672074D01*
X437648359Y-246650104D01*
X437646109Y-246627256D01*
X437646109Y-246047744D01*
X437648359Y-246024896D01*
X437655024Y-246002926D01*
X437665846Y-245982679D01*
X437680411Y-245964932D01*
X437777432Y-245867911D01*
X437795179Y-245853346D01*
X437815426Y-245842524D01*
X437837396Y-245835859D01*
X437860244Y-245833609D01*
X438439756Y-245833609D01*
X438462604Y-245835859D01*
X438484574Y-245842524D01*
X438504821Y-245853346D01*
X438522568Y-245867911D01*
X438619589Y-245964932D01*
X438634154Y-245982679D01*
X438644976Y-246002926D01*
X438651641Y-246024896D01*
X438653891Y-246047744D01*
X438653891Y-246627256D01*
X438651641Y-246650104D01*
X438644976Y-246672074D01*
X438634154Y-246692321D01*
X438619589Y-246710068D01*
X438522568Y-246807089D01*
X438504821Y-246821654D01*
X438484574Y-246832476D01*
X438462604Y-246839141D01*
X438439756Y-246841391D01*
X437860244Y-246841391D01*
X437837396Y-246839141D01*
G37*
G36*
X437837396Y-247964141D02*
G01*
X437815426Y-247957476D01*
X437795179Y-247946654D01*
X437777432Y-247932089D01*
X437680411Y-247835068D01*
X437665846Y-247817321D01*
X437655024Y-247797074D01*
X437648359Y-247775104D01*
X437646109Y-247752256D01*
X437646109Y-247172744D01*
X437648359Y-247149896D01*
X437655024Y-247127926D01*
X437665846Y-247107679D01*
X437680411Y-247089932D01*
X437777432Y-246992911D01*
X437795179Y-246978346D01*
X437815426Y-246967524D01*
X437837396Y-246960859D01*
X437860244Y-246958609D01*
X438439756Y-246958609D01*
X438462604Y-246960859D01*
X438484574Y-246967524D01*
X438504821Y-246978346D01*
X438522568Y-246992911D01*
X438619589Y-247089932D01*
X438634154Y-247107679D01*
X438644976Y-247127926D01*
X438651641Y-247149896D01*
X438653891Y-247172744D01*
X438653891Y-247752256D01*
X438651641Y-247775104D01*
X438644976Y-247797074D01*
X438634154Y-247817321D01*
X438619589Y-247835068D01*
X438522568Y-247932089D01*
X438504821Y-247946654D01*
X438484574Y-247957476D01*
X438462604Y-247964141D01*
X438439756Y-247966391D01*
X437860244Y-247966391D01*
X437837396Y-247964141D01*
G37*
G36*
X437837396Y-249089141D02*
G01*
X437815426Y-249082476D01*
X437795179Y-249071654D01*
X437777432Y-249057089D01*
X437680411Y-248960068D01*
X437665846Y-248942321D01*
X437655024Y-248922074D01*
X437648359Y-248900104D01*
X437646109Y-248877256D01*
X437646109Y-248297744D01*
X437648359Y-248274896D01*
X437655024Y-248252926D01*
X437665846Y-248232679D01*
X437680411Y-248214932D01*
X437777432Y-248117911D01*
X437795179Y-248103346D01*
X437815426Y-248092524D01*
X437837396Y-248085859D01*
X437860244Y-248083609D01*
X438439756Y-248083609D01*
X438462604Y-248085859D01*
X438484574Y-248092524D01*
X438504821Y-248103346D01*
X438522568Y-248117911D01*
X438619589Y-248214932D01*
X438634154Y-248232679D01*
X438644976Y-248252926D01*
X438651641Y-248274896D01*
X438653891Y-248297744D01*
X438653891Y-248877256D01*
X438651641Y-248900104D01*
X438644976Y-248922074D01*
X438634154Y-248942321D01*
X438619589Y-248960068D01*
X438522568Y-249057089D01*
X438504821Y-249071654D01*
X438484574Y-249082476D01*
X438462604Y-249089141D01*
X438439756Y-249091391D01*
X437860244Y-249091391D01*
X437837396Y-249089141D01*
G37*
G36*
G01*
X439362500Y-250400000D02*
X439362500Y-251725000D01*
G75*
G02*
X439287500Y-251800000I-75000J0D01*
G01*
X439137500Y-251800000D01*
G75*
G02*
X439062500Y-251725000I0J75000D01*
G01*
X439062500Y-250400000D01*
G75*
G02*
X439137500Y-250325000I75000J0D01*
G01*
X439287500Y-250325000D01*
G75*
G02*
X439362500Y-250400000I0J-75000D01*
G01*
G37*
G36*
G01*
X438862500Y-250400000D02*
X438862500Y-251725000D01*
G75*
G02*
X438787500Y-251800000I-75000J0D01*
G01*
X438637500Y-251800000D01*
G75*
G02*
X438562500Y-251725000I0J75000D01*
G01*
X438562500Y-250400000D01*
G75*
G02*
X438637500Y-250325000I75000J0D01*
G01*
X438787500Y-250325000D01*
G75*
G02*
X438862500Y-250400000I0J-75000D01*
G01*
G37*
G36*
G01*
X438362500Y-250400000D02*
X438362500Y-251725000D01*
G75*
G02*
X438287500Y-251800000I-75000J0D01*
G01*
X438137500Y-251800000D01*
G75*
G02*
X438062500Y-251725000I0J75000D01*
G01*
X438062500Y-250400000D01*
G75*
G02*
X438137500Y-250325000I75000J0D01*
G01*
X438287500Y-250325000D01*
G75*
G02*
X438362500Y-250400000I0J-75000D01*
G01*
G37*
G36*
G01*
X437862500Y-250400000D02*
X437862500Y-251725000D01*
G75*
G02*
X437787500Y-251800000I-75000J0D01*
G01*
X437637500Y-251800000D01*
G75*
G02*
X437562500Y-251725000I0J75000D01*
G01*
X437562500Y-250400000D01*
G75*
G02*
X437637500Y-250325000I75000J0D01*
G01*
X437787500Y-250325000D01*
G75*
G02*
X437862500Y-250400000I0J-75000D01*
G01*
G37*
G36*
G01*
X437362500Y-250400000D02*
X437362500Y-251725000D01*
G75*
G02*
X437287500Y-251800000I-75000J0D01*
G01*
X437137500Y-251800000D01*
G75*
G02*
X437062500Y-251725000I0J75000D01*
G01*
X437062500Y-250400000D01*
G75*
G02*
X437137500Y-250325000I75000J0D01*
G01*
X437287500Y-250325000D01*
G75*
G02*
X437362500Y-250400000I0J-75000D01*
G01*
G37*
G36*
G01*
X436862500Y-250400000D02*
X436862500Y-251725000D01*
G75*
G02*
X436787500Y-251800000I-75000J0D01*
G01*
X436637500Y-251800000D01*
G75*
G02*
X436562500Y-251725000I0J75000D01*
G01*
X436562500Y-250400000D01*
G75*
G02*
X436637500Y-250325000I75000J0D01*
G01*
X436787500Y-250325000D01*
G75*
G02*
X436862500Y-250400000I0J-75000D01*
G01*
G37*
G36*
G01*
X436362500Y-250400000D02*
X436362500Y-251725000D01*
G75*
G02*
X436287500Y-251800000I-75000J0D01*
G01*
X436137500Y-251800000D01*
G75*
G02*
X436062500Y-251725000I0J75000D01*
G01*
X436062500Y-250400000D01*
G75*
G02*
X436137500Y-250325000I75000J0D01*
G01*
X436287500Y-250325000D01*
G75*
G02*
X436362500Y-250400000I0J-75000D01*
G01*
G37*
G36*
G01*
X435862500Y-250400000D02*
X435862500Y-251725000D01*
G75*
G02*
X435787500Y-251800000I-75000J0D01*
G01*
X435637500Y-251800000D01*
G75*
G02*
X435562500Y-251725000I0J75000D01*
G01*
X435562500Y-250400000D01*
G75*
G02*
X435637500Y-250325000I75000J0D01*
G01*
X435787500Y-250325000D01*
G75*
G02*
X435862500Y-250400000I0J-75000D01*
G01*
G37*
G36*
G01*
X435362500Y-250400000D02*
X435362500Y-251725000D01*
G75*
G02*
X435287500Y-251800000I-75000J0D01*
G01*
X435137500Y-251800000D01*
G75*
G02*
X435062500Y-251725000I0J75000D01*
G01*
X435062500Y-250400000D01*
G75*
G02*
X435137500Y-250325000I75000J0D01*
G01*
X435287500Y-250325000D01*
G75*
G02*
X435362500Y-250400000I0J-75000D01*
G01*
G37*
G36*
G01*
X434862500Y-250400000D02*
X434862500Y-251725000D01*
G75*
G02*
X434787500Y-251800000I-75000J0D01*
G01*
X434637500Y-251800000D01*
G75*
G02*
X434562500Y-251725000I0J75000D01*
G01*
X434562500Y-250400000D01*
G75*
G02*
X434637500Y-250325000I75000J0D01*
G01*
X434787500Y-250325000D01*
G75*
G02*
X434862500Y-250400000I0J-75000D01*
G01*
G37*
G36*
G01*
X434362500Y-250400000D02*
X434362500Y-251725000D01*
G75*
G02*
X434287500Y-251800000I-75000J0D01*
G01*
X434137500Y-251800000D01*
G75*
G02*
X434062500Y-251725000I0J75000D01*
G01*
X434062500Y-250400000D01*
G75*
G02*
X434137500Y-250325000I75000J0D01*
G01*
X434287500Y-250325000D01*
G75*
G02*
X434362500Y-250400000I0J-75000D01*
G01*
G37*
G36*
G01*
X433862500Y-250400000D02*
X433862500Y-251725000D01*
G75*
G02*
X433787500Y-251800000I-75000J0D01*
G01*
X433637500Y-251800000D01*
G75*
G02*
X433562500Y-251725000I0J75000D01*
G01*
X433562500Y-250400000D01*
G75*
G02*
X433637500Y-250325000I75000J0D01*
G01*
X433787500Y-250325000D01*
G75*
G02*
X433862500Y-250400000I0J-75000D01*
G01*
G37*
G36*
G01*
X433037500Y-249575000D02*
X433037500Y-249725000D01*
G75*
G02*
X432962500Y-249800000I-75000J0D01*
G01*
X431637500Y-249800000D01*
G75*
G02*
X431562500Y-249725000I0J75000D01*
G01*
X431562500Y-249575000D01*
G75*
G02*
X431637500Y-249500000I75000J0D01*
G01*
X432962500Y-249500000D01*
G75*
G02*
X433037500Y-249575000I0J-75000D01*
G01*
G37*
G36*
G01*
X433037500Y-249075000D02*
X433037500Y-249225000D01*
G75*
G02*
X432962500Y-249300000I-75000J0D01*
G01*
X431637500Y-249300000D01*
G75*
G02*
X431562500Y-249225000I0J75000D01*
G01*
X431562500Y-249075000D01*
G75*
G02*
X431637500Y-249000000I75000J0D01*
G01*
X432962500Y-249000000D01*
G75*
G02*
X433037500Y-249075000I0J-75000D01*
G01*
G37*
G36*
G01*
X433037500Y-248575000D02*
X433037500Y-248725000D01*
G75*
G02*
X432962500Y-248800000I-75000J0D01*
G01*
X431637500Y-248800000D01*
G75*
G02*
X431562500Y-248725000I0J75000D01*
G01*
X431562500Y-248575000D01*
G75*
G02*
X431637500Y-248500000I75000J0D01*
G01*
X432962500Y-248500000D01*
G75*
G02*
X433037500Y-248575000I0J-75000D01*
G01*
G37*
G36*
G01*
X433037500Y-248075000D02*
X433037500Y-248225000D01*
G75*
G02*
X432962500Y-248300000I-75000J0D01*
G01*
X431637500Y-248300000D01*
G75*
G02*
X431562500Y-248225000I0J75000D01*
G01*
X431562500Y-248075000D01*
G75*
G02*
X431637500Y-248000000I75000J0D01*
G01*
X432962500Y-248000000D01*
G75*
G02*
X433037500Y-248075000I0J-75000D01*
G01*
G37*
G36*
G01*
X433037500Y-247575000D02*
X433037500Y-247725000D01*
G75*
G02*
X432962500Y-247800000I-75000J0D01*
G01*
X431637500Y-247800000D01*
G75*
G02*
X431562500Y-247725000I0J75000D01*
G01*
X431562500Y-247575000D01*
G75*
G02*
X431637500Y-247500000I75000J0D01*
G01*
X432962500Y-247500000D01*
G75*
G02*
X433037500Y-247575000I0J-75000D01*
G01*
G37*
G36*
G01*
X433037500Y-247075000D02*
X433037500Y-247225000D01*
G75*
G02*
X432962500Y-247300000I-75000J0D01*
G01*
X431637500Y-247300000D01*
G75*
G02*
X431562500Y-247225000I0J75000D01*
G01*
X431562500Y-247075000D01*
G75*
G02*
X431637500Y-247000000I75000J0D01*
G01*
X432962500Y-247000000D01*
G75*
G02*
X433037500Y-247075000I0J-75000D01*
G01*
G37*
G36*
G01*
X433037500Y-246575000D02*
X433037500Y-246725000D01*
G75*
G02*
X432962500Y-246800000I-75000J0D01*
G01*
X431637500Y-246800000D01*
G75*
G02*
X431562500Y-246725000I0J75000D01*
G01*
X431562500Y-246575000D01*
G75*
G02*
X431637500Y-246500000I75000J0D01*
G01*
X432962500Y-246500000D01*
G75*
G02*
X433037500Y-246575000I0J-75000D01*
G01*
G37*
G36*
G01*
X433037500Y-246075000D02*
X433037500Y-246225000D01*
G75*
G02*
X432962500Y-246300000I-75000J0D01*
G01*
X431637500Y-246300000D01*
G75*
G02*
X431562500Y-246225000I0J75000D01*
G01*
X431562500Y-246075000D01*
G75*
G02*
X431637500Y-246000000I75000J0D01*
G01*
X432962500Y-246000000D01*
G75*
G02*
X433037500Y-246075000I0J-75000D01*
G01*
G37*
G36*
G01*
X433037500Y-245575000D02*
X433037500Y-245725000D01*
G75*
G02*
X432962500Y-245800000I-75000J0D01*
G01*
X431637500Y-245800000D01*
G75*
G02*
X431562500Y-245725000I0J75000D01*
G01*
X431562500Y-245575000D01*
G75*
G02*
X431637500Y-245500000I75000J0D01*
G01*
X432962500Y-245500000D01*
G75*
G02*
X433037500Y-245575000I0J-75000D01*
G01*
G37*
G36*
G01*
X433037500Y-245075000D02*
X433037500Y-245225000D01*
G75*
G02*
X432962500Y-245300000I-75000J0D01*
G01*
X431637500Y-245300000D01*
G75*
G02*
X431562500Y-245225000I0J75000D01*
G01*
X431562500Y-245075000D01*
G75*
G02*
X431637500Y-245000000I75000J0D01*
G01*
X432962500Y-245000000D01*
G75*
G02*
X433037500Y-245075000I0J-75000D01*
G01*
G37*
G36*
G01*
X433037500Y-244575000D02*
X433037500Y-244725000D01*
G75*
G02*
X432962500Y-244800000I-75000J0D01*
G01*
X431637500Y-244800000D01*
G75*
G02*
X431562500Y-244725000I0J75000D01*
G01*
X431562500Y-244575000D01*
G75*
G02*
X431637500Y-244500000I75000J0D01*
G01*
X432962500Y-244500000D01*
G75*
G02*
X433037500Y-244575000I0J-75000D01*
G01*
G37*
G36*
G01*
X433037500Y-244075000D02*
X433037500Y-244225000D01*
G75*
G02*
X432962500Y-244300000I-75000J0D01*
G01*
X431637500Y-244300000D01*
G75*
G02*
X431562500Y-244225000I0J75000D01*
G01*
X431562500Y-244075000D01*
G75*
G02*
X431637500Y-244000000I75000J0D01*
G01*
X432962500Y-244000000D01*
G75*
G02*
X433037500Y-244075000I0J-75000D01*
G01*
G37*
G36*
G01*
X433862500Y-242075000D02*
X433862500Y-243400000D01*
G75*
G02*
X433787500Y-243475000I-75000J0D01*
G01*
X433637500Y-243475000D01*
G75*
G02*
X433562500Y-243400000I0J75000D01*
G01*
X433562500Y-242075000D01*
G75*
G02*
X433637500Y-242000000I75000J0D01*
G01*
X433787500Y-242000000D01*
G75*
G02*
X433862500Y-242075000I0J-75000D01*
G01*
G37*
G36*
G01*
X434362500Y-242075000D02*
X434362500Y-243400000D01*
G75*
G02*
X434287500Y-243475000I-75000J0D01*
G01*
X434137500Y-243475000D01*
G75*
G02*
X434062500Y-243400000I0J75000D01*
G01*
X434062500Y-242075000D01*
G75*
G02*
X434137500Y-242000000I75000J0D01*
G01*
X434287500Y-242000000D01*
G75*
G02*
X434362500Y-242075000I0J-75000D01*
G01*
G37*
G36*
G01*
X434862500Y-242075000D02*
X434862500Y-243400000D01*
G75*
G02*
X434787500Y-243475000I-75000J0D01*
G01*
X434637500Y-243475000D01*
G75*
G02*
X434562500Y-243400000I0J75000D01*
G01*
X434562500Y-242075000D01*
G75*
G02*
X434637500Y-242000000I75000J0D01*
G01*
X434787500Y-242000000D01*
G75*
G02*
X434862500Y-242075000I0J-75000D01*
G01*
G37*
G36*
G01*
X435362500Y-242075000D02*
X435362500Y-243400000D01*
G75*
G02*
X435287500Y-243475000I-75000J0D01*
G01*
X435137500Y-243475000D01*
G75*
G02*
X435062500Y-243400000I0J75000D01*
G01*
X435062500Y-242075000D01*
G75*
G02*
X435137500Y-242000000I75000J0D01*
G01*
X435287500Y-242000000D01*
G75*
G02*
X435362500Y-242075000I0J-75000D01*
G01*
G37*
G36*
G01*
X435862500Y-242075000D02*
X435862500Y-243400000D01*
G75*
G02*
X435787500Y-243475000I-75000J0D01*
G01*
X435637500Y-243475000D01*
G75*
G02*
X435562500Y-243400000I0J75000D01*
G01*
X435562500Y-242075000D01*
G75*
G02*
X435637500Y-242000000I75000J0D01*
G01*
X435787500Y-242000000D01*
G75*
G02*
X435862500Y-242075000I0J-75000D01*
G01*
G37*
G36*
G01*
X436362500Y-242075000D02*
X436362500Y-243400000D01*
G75*
G02*
X436287500Y-243475000I-75000J0D01*
G01*
X436137500Y-243475000D01*
G75*
G02*
X436062500Y-243400000I0J75000D01*
G01*
X436062500Y-242075000D01*
G75*
G02*
X436137500Y-242000000I75000J0D01*
G01*
X436287500Y-242000000D01*
G75*
G02*
X436362500Y-242075000I0J-75000D01*
G01*
G37*
G36*
G01*
X436862500Y-242075000D02*
X436862500Y-243400000D01*
G75*
G02*
X436787500Y-243475000I-75000J0D01*
G01*
X436637500Y-243475000D01*
G75*
G02*
X436562500Y-243400000I0J75000D01*
G01*
X436562500Y-242075000D01*
G75*
G02*
X436637500Y-242000000I75000J0D01*
G01*
X436787500Y-242000000D01*
G75*
G02*
X436862500Y-242075000I0J-75000D01*
G01*
G37*
G36*
G01*
X437362500Y-242075000D02*
X437362500Y-243400000D01*
G75*
G02*
X437287500Y-243475000I-75000J0D01*
G01*
X437137500Y-243475000D01*
G75*
G02*
X437062500Y-243400000I0J75000D01*
G01*
X437062500Y-242075000D01*
G75*
G02*
X437137500Y-242000000I75000J0D01*
G01*
X437287500Y-242000000D01*
G75*
G02*
X437362500Y-242075000I0J-75000D01*
G01*
G37*
G36*
G01*
X437862500Y-242075000D02*
X437862500Y-243400000D01*
G75*
G02*
X437787500Y-243475000I-75000J0D01*
G01*
X437637500Y-243475000D01*
G75*
G02*
X437562500Y-243400000I0J75000D01*
G01*
X437562500Y-242075000D01*
G75*
G02*
X437637500Y-242000000I75000J0D01*
G01*
X437787500Y-242000000D01*
G75*
G02*
X437862500Y-242075000I0J-75000D01*
G01*
G37*
G36*
G01*
X438362500Y-242075000D02*
X438362500Y-243400000D01*
G75*
G02*
X438287500Y-243475000I-75000J0D01*
G01*
X438137500Y-243475000D01*
G75*
G02*
X438062500Y-243400000I0J75000D01*
G01*
X438062500Y-242075000D01*
G75*
G02*
X438137500Y-242000000I75000J0D01*
G01*
X438287500Y-242000000D01*
G75*
G02*
X438362500Y-242075000I0J-75000D01*
G01*
G37*
G36*
G01*
X438862500Y-242075000D02*
X438862500Y-243400000D01*
G75*
G02*
X438787500Y-243475000I-75000J0D01*
G01*
X438637500Y-243475000D01*
G75*
G02*
X438562500Y-243400000I0J75000D01*
G01*
X438562500Y-242075000D01*
G75*
G02*
X438637500Y-242000000I75000J0D01*
G01*
X438787500Y-242000000D01*
G75*
G02*
X438862500Y-242075000I0J-75000D01*
G01*
G37*
G36*
G01*
X439362500Y-242075000D02*
X439362500Y-243400000D01*
G75*
G02*
X439287500Y-243475000I-75000J0D01*
G01*
X439137500Y-243475000D01*
G75*
G02*
X439062500Y-243400000I0J75000D01*
G01*
X439062500Y-242075000D01*
G75*
G02*
X439137500Y-242000000I75000J0D01*
G01*
X439287500Y-242000000D01*
G75*
G02*
X439362500Y-242075000I0J-75000D01*
G01*
G37*
G36*
G01*
X441362500Y-244075000D02*
X441362500Y-244225000D01*
G75*
G02*
X441287500Y-244300000I-75000J0D01*
G01*
X439962500Y-244300000D01*
G75*
G02*
X439887500Y-244225000I0J75000D01*
G01*
X439887500Y-244075000D01*
G75*
G02*
X439962500Y-244000000I75000J0D01*
G01*
X441287500Y-244000000D01*
G75*
G02*
X441362500Y-244075000I0J-75000D01*
G01*
G37*
G36*
G01*
X441362500Y-244575000D02*
X441362500Y-244725000D01*
G75*
G02*
X441287500Y-244800000I-75000J0D01*
G01*
X439962500Y-244800000D01*
G75*
G02*
X439887500Y-244725000I0J75000D01*
G01*
X439887500Y-244575000D01*
G75*
G02*
X439962500Y-244500000I75000J0D01*
G01*
X441287500Y-244500000D01*
G75*
G02*
X441362500Y-244575000I0J-75000D01*
G01*
G37*
G36*
G01*
X441362500Y-245075000D02*
X441362500Y-245225000D01*
G75*
G02*
X441287500Y-245300000I-75000J0D01*
G01*
X439962500Y-245300000D01*
G75*
G02*
X439887500Y-245225000I0J75000D01*
G01*
X439887500Y-245075000D01*
G75*
G02*
X439962500Y-245000000I75000J0D01*
G01*
X441287500Y-245000000D01*
G75*
G02*
X441362500Y-245075000I0J-75000D01*
G01*
G37*
G36*
G01*
X441362500Y-245575000D02*
X441362500Y-245725000D01*
G75*
G02*
X441287500Y-245800000I-75000J0D01*
G01*
X439962500Y-245800000D01*
G75*
G02*
X439887500Y-245725000I0J75000D01*
G01*
X439887500Y-245575000D01*
G75*
G02*
X439962500Y-245500000I75000J0D01*
G01*
X441287500Y-245500000D01*
G75*
G02*
X441362500Y-245575000I0J-75000D01*
G01*
G37*
G36*
G01*
X441362500Y-246075000D02*
X441362500Y-246225000D01*
G75*
G02*
X441287500Y-246300000I-75000J0D01*
G01*
X439962500Y-246300000D01*
G75*
G02*
X439887500Y-246225000I0J75000D01*
G01*
X439887500Y-246075000D01*
G75*
G02*
X439962500Y-246000000I75000J0D01*
G01*
X441287500Y-246000000D01*
G75*
G02*
X441362500Y-246075000I0J-75000D01*
G01*
G37*
G36*
G01*
X441362500Y-246575000D02*
X441362500Y-246725000D01*
G75*
G02*
X441287500Y-246800000I-75000J0D01*
G01*
X439962500Y-246800000D01*
G75*
G02*
X439887500Y-246725000I0J75000D01*
G01*
X439887500Y-246575000D01*
G75*
G02*
X439962500Y-246500000I75000J0D01*
G01*
X441287500Y-246500000D01*
G75*
G02*
X441362500Y-246575000I0J-75000D01*
G01*
G37*
G36*
G01*
X441362500Y-247075000D02*
X441362500Y-247225000D01*
G75*
G02*
X441287500Y-247300000I-75000J0D01*
G01*
X439962500Y-247300000D01*
G75*
G02*
X439887500Y-247225000I0J75000D01*
G01*
X439887500Y-247075000D01*
G75*
G02*
X439962500Y-247000000I75000J0D01*
G01*
X441287500Y-247000000D01*
G75*
G02*
X441362500Y-247075000I0J-75000D01*
G01*
G37*
G36*
G01*
X441362500Y-247575000D02*
X441362500Y-247725000D01*
G75*
G02*
X441287500Y-247800000I-75000J0D01*
G01*
X439962500Y-247800000D01*
G75*
G02*
X439887500Y-247725000I0J75000D01*
G01*
X439887500Y-247575000D01*
G75*
G02*
X439962500Y-247500000I75000J0D01*
G01*
X441287500Y-247500000D01*
G75*
G02*
X441362500Y-247575000I0J-75000D01*
G01*
G37*
G36*
G01*
X441362500Y-248075000D02*
X441362500Y-248225000D01*
G75*
G02*
X441287500Y-248300000I-75000J0D01*
G01*
X439962500Y-248300000D01*
G75*
G02*
X439887500Y-248225000I0J75000D01*
G01*
X439887500Y-248075000D01*
G75*
G02*
X439962500Y-248000000I75000J0D01*
G01*
X441287500Y-248000000D01*
G75*
G02*
X441362500Y-248075000I0J-75000D01*
G01*
G37*
G36*
G01*
X441362500Y-248575000D02*
X441362500Y-248725000D01*
G75*
G02*
X441287500Y-248800000I-75000J0D01*
G01*
X439962500Y-248800000D01*
G75*
G02*
X439887500Y-248725000I0J75000D01*
G01*
X439887500Y-248575000D01*
G75*
G02*
X439962500Y-248500000I75000J0D01*
G01*
X441287500Y-248500000D01*
G75*
G02*
X441362500Y-248575000I0J-75000D01*
G01*
G37*
G36*
G01*
X441362500Y-249075000D02*
X441362500Y-249225000D01*
G75*
G02*
X441287500Y-249300000I-75000J0D01*
G01*
X439962500Y-249300000D01*
G75*
G02*
X439887500Y-249225000I0J75000D01*
G01*
X439887500Y-249075000D01*
G75*
G02*
X439962500Y-249000000I75000J0D01*
G01*
X441287500Y-249000000D01*
G75*
G02*
X441362500Y-249075000I0J-75000D01*
G01*
G37*
G36*
G01*
X441362500Y-249575000D02*
X441362500Y-249725000D01*
G75*
G02*
X441287500Y-249800000I-75000J0D01*
G01*
X439962500Y-249800000D01*
G75*
G02*
X439887500Y-249725000I0J75000D01*
G01*
X439887500Y-249575000D01*
G75*
G02*
X439962500Y-249500000I75000J0D01*
G01*
X441287500Y-249500000D01*
G75*
G02*
X441362500Y-249575000I0J-75000D01*
G01*
G37*
%TD*%
%TO.C,C8*%
G36*
G01*
X332075000Y-228549999D02*
X332075000Y-229450001D01*
G75*
G02*
X331825001Y-229700000I-249999J0D01*
G01*
X331174999Y-229700000D01*
G75*
G02*
X330925000Y-229450001I0J249999D01*
G01*
X330925000Y-228549999D01*
G75*
G02*
X331174999Y-228300000I249999J0D01*
G01*
X331825001Y-228300000D01*
G75*
G02*
X332075000Y-228549999I0J-249999D01*
G01*
G37*
G36*
G01*
X334125000Y-228549999D02*
X334125000Y-229450001D01*
G75*
G02*
X333875001Y-229700000I-249999J0D01*
G01*
X333224999Y-229700000D01*
G75*
G02*
X332975000Y-229450001I0J249999D01*
G01*
X332975000Y-228549999D01*
G75*
G02*
X333224999Y-228300000I249999J0D01*
G01*
X333875001Y-228300000D01*
G75*
G02*
X334125000Y-228549999I0J-249999D01*
G01*
G37*
%TD*%
%TO.C,C7*%
G36*
G01*
X429600001Y-241875000D02*
X428699999Y-241875000D01*
G75*
G02*
X428450000Y-241625001I0J249999D01*
G01*
X428450000Y-240974999D01*
G75*
G02*
X428699999Y-240725000I249999J0D01*
G01*
X429600001Y-240725000D01*
G75*
G02*
X429850000Y-240974999I0J-249999D01*
G01*
X429850000Y-241625001D01*
G75*
G02*
X429600001Y-241875000I-249999J0D01*
G01*
G37*
G36*
G01*
X429600001Y-243925000D02*
X428699999Y-243925000D01*
G75*
G02*
X428450000Y-243675001I0J249999D01*
G01*
X428450000Y-243024999D01*
G75*
G02*
X428699999Y-242775000I249999J0D01*
G01*
X429600001Y-242775000D01*
G75*
G02*
X429850000Y-243024999I0J-249999D01*
G01*
X429850000Y-243675001D01*
G75*
G02*
X429600001Y-243925000I-249999J0D01*
G01*
G37*
%TD*%
%TO.C,C2*%
G36*
G01*
X332975000Y-242500001D02*
X332975000Y-241599999D01*
G75*
G02*
X333224999Y-241350000I249999J0D01*
G01*
X333875001Y-241350000D01*
G75*
G02*
X334125000Y-241599999I0J-249999D01*
G01*
X334125000Y-242500001D01*
G75*
G02*
X333875001Y-242750000I-249999J0D01*
G01*
X333224999Y-242750000D01*
G75*
G02*
X332975000Y-242500001I0J249999D01*
G01*
G37*
G36*
G01*
X330925000Y-242500001D02*
X330925000Y-241599999D01*
G75*
G02*
X331174999Y-241350000I249999J0D01*
G01*
X331825001Y-241350000D01*
G75*
G02*
X332075000Y-241599999I0J-249999D01*
G01*
X332075000Y-242500001D01*
G75*
G02*
X331825001Y-242750000I-249999J0D01*
G01*
X331174999Y-242750000D01*
G75*
G02*
X330925000Y-242500001I0J249999D01*
G01*
G37*
%TD*%
%TO.C,C1*%
G36*
G01*
X334385500Y-247759101D02*
X334385500Y-246859099D01*
G75*
G02*
X334635499Y-246609100I249999J0D01*
G01*
X335285501Y-246609100D01*
G75*
G02*
X335535500Y-246859099I0J-249999D01*
G01*
X335535500Y-247759101D01*
G75*
G02*
X335285501Y-248009100I-249999J0D01*
G01*
X334635499Y-248009100D01*
G75*
G02*
X334385500Y-247759101I0J249999D01*
G01*
G37*
G36*
G01*
X332335500Y-247759101D02*
X332335500Y-246859099D01*
G75*
G02*
X332585499Y-246609100I249999J0D01*
G01*
X333235501Y-246609100D01*
G75*
G02*
X333485500Y-246859099I0J-249999D01*
G01*
X333485500Y-247759101D01*
G75*
G02*
X333235501Y-248009100I-249999J0D01*
G01*
X332585499Y-248009100D01*
G75*
G02*
X332335500Y-247759101I0J249999D01*
G01*
G37*
%TD*%
D11*
%TO.C,D61*%
X187286900Y-267158700D03*
X187286900Y-265758700D03*
%TD*%
%TO.C,D64*%
X244487700Y-267158700D03*
X244487700Y-265758700D03*
%TD*%
%TO.C,D68*%
X320687700Y-267134800D03*
X320687700Y-265734800D03*
%TD*%
%TO.C,D67*%
X301663100Y-267160200D03*
X301663100Y-265760200D03*
%TD*%
%TO.C,D66*%
X282600400Y-267146000D03*
X282600400Y-265746000D03*
%TD*%
%TO.C,D65*%
X263539200Y-267146000D03*
X263539200Y-265746000D03*
%TD*%
%TO.C,D63*%
X225450400Y-267147500D03*
X225450400Y-265747500D03*
%TD*%
%TO.C,D62*%
X206375000Y-267144500D03*
X206375000Y-265744500D03*
%TD*%
%TO.C,D60*%
X168236900Y-267146000D03*
X168236900Y-265746000D03*
%TD*%
%TO.C,D59*%
X148920200Y-267119100D03*
X148920200Y-265719100D03*
%TD*%
%TO.C,D58*%
X130098800Y-267093700D03*
X130098800Y-265693700D03*
%TD*%
%TO.C,D57*%
X111061500Y-267082500D03*
X111061500Y-265682500D03*
%TD*%
%TO.C,D56*%
X91986100Y-267120600D03*
X91986100Y-265720600D03*
%TD*%
%TO.C,D55*%
X72936100Y-267107900D03*
X72936100Y-265707900D03*
%TD*%
%TO.C,D54*%
X53873400Y-267106400D03*
X53873400Y-265706400D03*
%TD*%
D13*
%TO.C,D53*%
X460437800Y-240717200D03*
X460437800Y-246117200D03*
X461837800Y-246117200D03*
X461837800Y-240717200D03*
%TD*%
%TO.C,D52*%
X456386500Y-240729900D03*
X456386500Y-246129900D03*
X457786500Y-246129900D03*
X457786500Y-240729900D03*
%TD*%
%TO.C,D51*%
X452371800Y-240737500D03*
X452371800Y-246137500D03*
X453771800Y-246137500D03*
X453771800Y-240737500D03*
%TD*%
D11*
%TO.C,D49*%
X292100000Y-286196000D03*
X292100000Y-284796000D03*
%TD*%
%TO.C,D48*%
X273050000Y-286258000D03*
X273050000Y-284858000D03*
%TD*%
%TO.C,D47*%
X254000000Y-286196000D03*
X254000000Y-284796000D03*
%TD*%
%TO.C,D46*%
X234950000Y-286196000D03*
X234950000Y-284796000D03*
%TD*%
%TO.C,D45*%
X215773000Y-286258000D03*
X215773000Y-284858000D03*
%TD*%
%TO.C,D44*%
X196850000Y-286196000D03*
X196850000Y-284796000D03*
%TD*%
%TO.C,D43*%
X177800000Y-286196000D03*
X177800000Y-284796000D03*
%TD*%
%TO.C,D42*%
X158623000Y-286196000D03*
X158623000Y-284796000D03*
%TD*%
%TO.C,D41*%
X139573000Y-286196000D03*
X139573000Y-284796000D03*
%TD*%
%TO.C,D40*%
X120396000Y-286196000D03*
X120396000Y-284796000D03*
%TD*%
%TO.C,D39*%
X101473000Y-286131000D03*
X101473000Y-284731000D03*
%TD*%
%TO.C,D38*%
X82423000Y-286131000D03*
X82423000Y-284731000D03*
%TD*%
%TO.C,D37*%
X63373000Y-286131000D03*
X63373000Y-284731000D03*
%TD*%
%TO.C,D36*%
X296799000Y-305246000D03*
X296799000Y-303846000D03*
%TD*%
%TO.C,D35*%
X277749000Y-305246000D03*
X277749000Y-303846000D03*
%TD*%
%TO.C,D34*%
X258699000Y-305246000D03*
X258699000Y-303846000D03*
%TD*%
%TO.C,D33*%
X239776000Y-305246000D03*
X239776000Y-303846000D03*
%TD*%
%TO.C,D32*%
X220599000Y-305246000D03*
X220599000Y-303846000D03*
%TD*%
%TO.C,D31*%
X201422000Y-305246000D03*
X201422000Y-303846000D03*
%TD*%
%TO.C,D30*%
X182372000Y-305246000D03*
X182372000Y-303846000D03*
%TD*%
%TO.C,D29*%
X163322000Y-305246000D03*
X163322000Y-303846000D03*
%TD*%
%TO.C,D28*%
X144399000Y-305246000D03*
X144399000Y-303846000D03*
%TD*%
%TO.C,D27*%
X125349000Y-305246000D03*
X125349000Y-303846000D03*
%TD*%
%TO.C,D26*%
X106172000Y-305246000D03*
X106172000Y-303846000D03*
%TD*%
%TO.C,D25*%
X87122000Y-305246000D03*
X87122000Y-303846000D03*
%TD*%
%TO.C,D24*%
X68834000Y-312547000D03*
X68834000Y-311147000D03*
%TD*%
%TO.C,D23*%
X368046000Y-324296000D03*
X368046000Y-322896000D03*
%TD*%
%TO.C,D22*%
X368046000Y-305246000D03*
X368046000Y-303846000D03*
%TD*%
%TO.C,D21*%
X348869000Y-323596000D03*
X348869000Y-322196000D03*
%TD*%
%TO.C,D20*%
X387096000Y-324296000D03*
X387096000Y-322896000D03*
%TD*%
%TO.C,D8*%
X77597000Y-324296000D03*
X77597000Y-322896000D03*
%TD*%
%TO.C,D19*%
X268097000Y-324296000D03*
X268097000Y-322896000D03*
%TD*%
%TO.C,D18*%
X249047000Y-324361000D03*
X249047000Y-322961000D03*
%TD*%
%TO.C,D17*%
X229997000Y-324361000D03*
X229997000Y-322961000D03*
%TD*%
%TO.C,D16*%
X210947000Y-324296000D03*
X210947000Y-322896000D03*
%TD*%
%TO.C,D15*%
X191770000Y-324358000D03*
X191770000Y-322958000D03*
%TD*%
%TO.C,D14*%
X172847000Y-324361000D03*
X172847000Y-322961000D03*
%TD*%
%TO.C,D13*%
X174117000Y-340871000D03*
X174117000Y-339471000D03*
%TD*%
%TO.C,D12*%
X153670000Y-324361000D03*
X153670000Y-322961000D03*
%TD*%
%TO.C,D11*%
X134747000Y-324231000D03*
X134747000Y-322831000D03*
%TD*%
%TO.C,D10*%
X115570000Y-324296000D03*
X115570000Y-322896000D03*
%TD*%
%TO.C,D9*%
X96520000Y-324234000D03*
X96520000Y-322834000D03*
%TD*%
D14*
%TO.C,Y2*%
X342123300Y-247321800D03*
X345823300Y-247321800D03*
%TD*%
D15*
%TO.C,D1*%
X64073000Y-304533000D03*
X64073000Y-299733000D03*
X62673000Y-299733000D03*
X62673000Y-304533000D03*
%TD*%
%TO.C,D7*%
X461849000Y-253775000D03*
X461849000Y-248975000D03*
X460449000Y-248975000D03*
X460449000Y-253775000D03*
%TD*%
%TO.C,D6*%
X457785000Y-253775000D03*
X457785000Y-248975000D03*
X456385000Y-248975000D03*
X456385000Y-253775000D03*
%TD*%
%TO.C,D5*%
X453783000Y-253788000D03*
X453783000Y-248988000D03*
X452383000Y-248988000D03*
X452383000Y-253788000D03*
%TD*%
D16*
%TO.C,U2*%
X338748400Y-227004200D03*
X339548400Y-227004200D03*
X340348400Y-227004200D03*
X341148400Y-227004200D03*
X341948400Y-227004200D03*
X342748400Y-227004200D03*
X343548400Y-227004200D03*
X344348400Y-227004200D03*
X345148400Y-227004200D03*
X345948400Y-227004200D03*
X346748400Y-227004200D03*
X347548400Y-227004200D03*
X348348400Y-227004200D03*
X349148400Y-227004200D03*
X349948400Y-227004200D03*
X350748400Y-227004200D03*
D17*
X352448400Y-228704200D03*
X352448400Y-229504200D03*
X352448400Y-230304200D03*
X352448400Y-231104200D03*
X352448400Y-231904200D03*
X352448400Y-232704200D03*
X352448400Y-233504200D03*
X352448400Y-234304200D03*
X352448400Y-235104200D03*
X352448400Y-235904200D03*
X352448400Y-236704200D03*
X352448400Y-237504200D03*
X352448400Y-238304200D03*
X352448400Y-239104200D03*
X352448400Y-239904200D03*
X352448400Y-240704200D03*
D16*
X350748400Y-242404200D03*
X349948400Y-242404200D03*
X349148400Y-242404200D03*
X348348400Y-242404200D03*
X347548400Y-242404200D03*
X346748400Y-242404200D03*
X345948400Y-242404200D03*
X345148400Y-242404200D03*
X344348400Y-242404200D03*
X343548400Y-242404200D03*
X342748400Y-242404200D03*
X341948400Y-242404200D03*
X341148400Y-242404200D03*
X340348400Y-242404200D03*
X339548400Y-242404200D03*
X338748400Y-242404200D03*
D17*
X337048400Y-240704200D03*
X337048400Y-239904200D03*
X337048400Y-239104200D03*
X337048400Y-238304200D03*
X337048400Y-237504200D03*
X337048400Y-236704200D03*
X337048400Y-235904200D03*
X337048400Y-235104200D03*
X337048400Y-234304200D03*
X337048400Y-233504200D03*
X337048400Y-232704200D03*
X337048400Y-231904200D03*
X337048400Y-231104200D03*
X337048400Y-230304200D03*
X337048400Y-229504200D03*
X337048400Y-228704200D03*
%TD*%
%TO.C,C6*%
G36*
G01*
X371475000Y-241300001D02*
X371475000Y-240399999D01*
G75*
G02*
X371724999Y-240150000I249999J0D01*
G01*
X372375001Y-240150000D01*
G75*
G02*
X372625000Y-240399999I0J-249999D01*
G01*
X372625000Y-241300001D01*
G75*
G02*
X372375001Y-241550000I-249999J0D01*
G01*
X371724999Y-241550000D01*
G75*
G02*
X371475000Y-241300001I0J249999D01*
G01*
G37*
G36*
G01*
X369425000Y-241300001D02*
X369425000Y-240399999D01*
G75*
G02*
X369674999Y-240150000I249999J0D01*
G01*
X370325001Y-240150000D01*
G75*
G02*
X370575000Y-240399999I0J-249999D01*
G01*
X370575000Y-241300001D01*
G75*
G02*
X370325001Y-241550000I-249999J0D01*
G01*
X369674999Y-241550000D01*
G75*
G02*
X369425000Y-241300001I0J249999D01*
G01*
G37*
%TD*%
%TO.C,C5*%
G36*
G01*
X332050000Y-232599999D02*
X332050000Y-233500001D01*
G75*
G02*
X331800001Y-233750000I-249999J0D01*
G01*
X331149999Y-233750000D01*
G75*
G02*
X330900000Y-233500001I0J249999D01*
G01*
X330900000Y-232599999D01*
G75*
G02*
X331149999Y-232350000I249999J0D01*
G01*
X331800001Y-232350000D01*
G75*
G02*
X332050000Y-232599999I0J-249999D01*
G01*
G37*
G36*
G01*
X334100000Y-232599999D02*
X334100000Y-233500001D01*
G75*
G02*
X333850001Y-233750000I-249999J0D01*
G01*
X333199999Y-233750000D01*
G75*
G02*
X332950000Y-233500001I0J249999D01*
G01*
X332950000Y-232599999D01*
G75*
G02*
X333199999Y-232350000I249999J0D01*
G01*
X333850001Y-232350000D01*
G75*
G02*
X334100000Y-232599999I0J-249999D01*
G01*
G37*
%TD*%
%TO.C,C4*%
G36*
G01*
X339496200Y-247746401D02*
X339496200Y-246846399D01*
G75*
G02*
X339746199Y-246596400I249999J0D01*
G01*
X340396201Y-246596400D01*
G75*
G02*
X340646200Y-246846399I0J-249999D01*
G01*
X340646200Y-247746401D01*
G75*
G02*
X340396201Y-247996400I-249999J0D01*
G01*
X339746199Y-247996400D01*
G75*
G02*
X339496200Y-247746401I0J249999D01*
G01*
G37*
G36*
G01*
X337446200Y-247746401D02*
X337446200Y-246846399D01*
G75*
G02*
X337696199Y-246596400I249999J0D01*
G01*
X338346201Y-246596400D01*
G75*
G02*
X338596200Y-246846399I0J-249999D01*
G01*
X338596200Y-247746401D01*
G75*
G02*
X338346201Y-247996400I-249999J0D01*
G01*
X337696199Y-247996400D01*
G75*
G02*
X337446200Y-247746401I0J249999D01*
G01*
G37*
%TD*%
%TO.C,C3*%
G36*
G01*
X349371500Y-247809901D02*
X349371500Y-246909899D01*
G75*
G02*
X349621499Y-246659900I249999J0D01*
G01*
X350271501Y-246659900D01*
G75*
G02*
X350521500Y-246909899I0J-249999D01*
G01*
X350521500Y-247809901D01*
G75*
G02*
X350271501Y-248059900I-249999J0D01*
G01*
X349621499Y-248059900D01*
G75*
G02*
X349371500Y-247809901I0J249999D01*
G01*
G37*
G36*
G01*
X347321500Y-247809901D02*
X347321500Y-246909899D01*
G75*
G02*
X347571499Y-246659900I249999J0D01*
G01*
X348221501Y-246659900D01*
G75*
G02*
X348471500Y-246909899I0J-249999D01*
G01*
X348471500Y-247809901D01*
G75*
G02*
X348221501Y-248059900I-249999J0D01*
G01*
X347571499Y-248059900D01*
G75*
G02*
X347321500Y-247809901I0J249999D01*
G01*
G37*
%TD*%
%TO.C,D2*%
G36*
G01*
X69233201Y-307652000D02*
X68333199Y-307652000D01*
G75*
G02*
X68083200Y-307402001I0J249999D01*
G01*
X68083200Y-306751999D01*
G75*
G02*
X68333199Y-306502000I249999J0D01*
G01*
X69233201Y-306502000D01*
G75*
G02*
X69483200Y-306751999I0J-249999D01*
G01*
X69483200Y-307402001D01*
G75*
G02*
X69233201Y-307652000I-249999J0D01*
G01*
G37*
G36*
G01*
X69233201Y-309702000D02*
X68333199Y-309702000D01*
G75*
G02*
X68083200Y-309452001I0J249999D01*
G01*
X68083200Y-308801999D01*
G75*
G02*
X68333199Y-308552000I249999J0D01*
G01*
X69233201Y-308552000D01*
G75*
G02*
X69483200Y-308801999I0J-249999D01*
G01*
X69483200Y-309452001D01*
G75*
G02*
X69233201Y-309702000I-249999J0D01*
G01*
G37*
%TD*%
M02*
