M48
; DRILL file {KiCad (5.1.6-0)} date Wednesday, March 16, 2022 at 08:27:59 AM
; FORMAT={-:-/ absolute / metric / decimal}
; #@! TF.CreationDate,2022-03-16T08:27:59+01:00
; #@! TF.GenerationSoftware,Kicad,Pcbnew,(5.1.6-0)
FMAT,2
METRIC
T1C0.200
T2C0.300
T3C0.400
T4C0.600
T5C0.850
T6C0.900
T7C1.000
T8C1.470
T9C1.750
T10C2.500
T11C3.048
T12C3.200
T13C3.988
T14C4.300
%
G90
G05
T1
X434.212Y-244.65
X434.212Y-245.775
X434.212Y-246.9
X434.212Y-248.025
X434.212Y-249.15
X435.337Y-244.65
X435.337Y-245.775
X435.337Y-246.9
X435.337Y-248.025
X435.337Y-249.15
X436.462Y-244.65
X436.462Y-245.775
X436.462Y-246.9
X436.462Y-248.025
X436.462Y-249.15
X437.587Y-244.65
X437.587Y-245.775
X437.587Y-246.9
X437.587Y-248.025
X437.587Y-249.15
X438.712Y-244.65
X438.712Y-245.775
X438.712Y-246.9
X438.712Y-248.025
X438.712Y-249.15
T2
X33.95Y-238.95
X40.75Y-326.75
X41.25Y-316.7
X45.55Y-333.95
X48.26Y-259.08
X78.74Y-259.08
X99.06Y-259.08
X124.46Y-259.08
X147.32Y-259.08
X177.8Y-259.08
X205.74Y-259.08
X231.14Y-259.08
X251.46Y-259.08
X274.32Y-259.08
X300.4Y-238.65
X322.65Y-232.75
X323.25Y-243.25
X325.4Y-245.05
X329.3Y-241.25
X329.5Y-245.05
X329.9Y-232.85
X330.525Y-235.95
X331.5Y-225.75
X332.15Y-236.75
X332.838Y-244.59
X334.9Y-237.5
X334.9Y-242.05
X335.25Y-230.3
X335.25Y-234.3
X335.55Y-249.5
X337.5Y-225.75
X338.5Y-237.45
X338.5Y-238.25
X338.5Y-239.1
X338.65Y-239.9
X338.85Y-232.75
X338.948Y-240.7
X339.55Y-225.25
X339.6Y-228.9
X340.3Y-236.6
X340.9Y-237.35
X341.5Y-237.95
X341.689Y-229.767
X341.75Y-238.85
X342.534Y-230.046
X342.748Y-239.752
X342.9Y-234.0
X343.2Y-250.2
X343.55Y-225.25
X343.62Y-229.396
X343.7Y-228.6
X344.092Y-235.104
X344.244Y-230.0
X345.35Y-250.3
X345.45Y-239.7
X347.25Y-225.25
X347.98Y-240.046
X348.742Y-241.046
X348.742Y-246.0
X348.843Y-239.522
X349.05Y-232.65
X350.391Y-234.304
X350.644Y-232.767
X350.698Y-233.565
X350.963Y-235.092
X353.617Y-235.93
X354.036Y-236.616
X355.092Y-224.384
X355.143Y-227.279
X355.28Y-237.467
X356.18Y-233.5
X356.589Y-238.317
X356.78Y-234.174
X357.18Y-234.971
X357.833Y-239.105
X358.0Y-236.1
X358.75Y-236.75
X359.029Y-242.57
X359.05Y-250.25
X359.088Y-248.284
X359.493Y-235.757
X360.9Y-255.95
X361.7Y-255.95
X362.0Y-253.162
X362.75Y-256.05
X362.85Y-255.091
X363.258Y-253.174
X366.75Y-231.65
X369.45Y-231.012
X370.3Y-230.45
X370.7Y-231.65
X371.8Y-232.05
X374.4Y-232.05
X374.966Y-231.45
X381.61Y-230.937
X391.008Y-228.346
X392.278Y-336.601
X396.6Y-244.4
X398.17Y-230.937
X399.1Y-244.4
X400.1Y-244.4
X402.133Y-230.937
X406.273Y-241.554
X406.273Y-244.792
X409.575Y-243.967
X411.988Y-241.554
X411.988Y-245.2
X412.75Y-232.2
X413.029Y-234.154
X413.85Y-233.5
X416.052Y-231.14
X423.654Y-237.475
X424.3Y-245.0
X424.541Y-237.925
X425.05Y-245.6
X425.1Y-238.775
X425.704Y-246.38
X430.276Y-250.425
X435.305Y-320.243
X454.65Y-248.25
T3
X30.679Y-263.149
X30.935Y-264.484
X31.66Y-265.329
X32.385Y-264.515
X37.4Y-308.5
X37.7Y-296.7
X42.15Y-296.05
X51.676Y-265.239
X52.45Y-308.65
X54.61Y-298.958
X54.737Y-355.473
X59.436Y-322.072
X60.75Y-327.55
X68.834Y-297.688
X68.834Y-305.562
X78.105Y-321.691
X96.52Y-321.034
X116.078Y-321.484
X134.239Y-320.548
X137.668Y-321.564
X139.0Y-355.5
X151.257Y-318.553
X170.561Y-318.103
X174.117Y-338.455
X174.179Y-322.896
X188.849Y-317.653
X203.25Y-355.75
X209.296Y-321.564
X211.159Y-321.352
X213.614Y-321.818
X216.353Y-283.519
X235.458Y-283.591
X260.401Y-302.496
X271.9Y-331.55
X279.451Y-340.157
X289.85Y-340.3
X292.862Y-262.165
X298.75Y-314.5
X299.974Y-310.896
X299.974Y-316.753
X302.45Y-260.8
X304.673Y-348.488
X306.85Y-332.15
X307.45Y-247.1
X310.15Y-314.9
X314.452Y-317.119
X314.55Y-226.85
X314.579Y-311.785
X317.7Y-228.85
X317.7Y-231.2
X318.05Y-324.75
X318.2Y-238.0
X318.7Y-301.9
X322.3Y-308.3
X322.3Y-315.4
X322.65Y-229.7
X322.896Y-284.824
X323.518Y-298.218
X323.575Y-268.4
X324.334Y-262.142
X324.79Y-265.415
X325.496Y-322.896
X325.56Y-266.26
X326.6Y-287.9
X327.25Y-234.95
X327.8Y-267.0
X327.8Y-303.3
X328.7Y-237.65
X329.136Y-329.336
X329.985Y-265.415
X330.0Y-267.6
X331.55Y-349.25
X332.375Y-349.975
X332.59Y-264.69
X334.01Y-285.75
X334.75Y-316.2
X335.072Y-261.853
X335.363Y-310.806
X335.788Y-266.7
X335.788Y-285.75
X336.071Y-261.904
X337.3Y-262.0
X338.7Y-262.1
X338.742Y-249.008
X338.75Y-243.8
X338.834Y-282.649
X338.836Y-311.531
X340.345Y-239.745
X340.61Y-238.781
X342.8Y-266.7
X342.8Y-314.35
X344.805Y-281.051
X344.805Y-319.532
X346.964Y-321.564
X347.091Y-302.641
X347.091Y-318.643
X347.98Y-319.532
X348.869Y-298.45
X348.869Y-321.056
X349.594Y-312.51
X350.0Y-355.5
X350.139Y-322.171
X350.266Y-236.855
X350.52Y-277.114
X350.703Y-284.917
X350.703Y-316.611
X351.409Y-346.964
X351.428Y-317.9
X352.153Y-277.114
X352.153Y-281.795
X352.153Y-315.976
X353.06Y-321.437
X354.584Y-283.374
X355.25Y-293.75
X355.854Y-284.226
X356.616Y-306.324
X357.111Y-304.367
X357.124Y-301.916
X358.394Y-289.052
X358.394Y-323.621
X359.664Y-272.161
X359.664Y-306.07
X360.934Y-269.748
X362.331Y-347.687
X362.966Y-239.776
X363.398Y-305.258
X363.982Y-233.426
X367.0Y-227.25
X369.5Y-227.25
X369.904Y-304.847
X372.05Y-301.75
X374.5Y-239.05
X376.301Y-280.474
X384.2Y-260.8
X384.3Y-269.1
X385.85Y-301.8
X388.493Y-299.136
X389.0Y-238.1
X389.522Y-299.149
X389.95Y-237.3
X390.522Y-299.149
X391.3Y-238.15
X394.2Y-269.0
X394.25Y-260.55
X395.25Y-242.75
X395.25Y-246.634
X397.764Y-235.077
X401.955Y-284.226
X402.209Y-303.397
X402.844Y-281.199
X403.25Y-244.0
X403.25Y-246.634
X407.88Y-232.2
X407.924Y-235.204
X409.321Y-280.416
X413.014Y-338.364
X416.56Y-241.3
X416.56Y-243.586
X419.481Y-281.924
X421.259Y-284.099
X421.767Y-243.586
X421.894Y-234.488
X422.5Y-246.75
X422.646Y-235.213
X424.5Y-227.5
X424.5Y-236.5
X426.72Y-226.06
X426.9Y-231.5
X426.95Y-233.45
X427.0Y-241.3
X427.0Y-242.7
X427.0Y-244.1
X427.55Y-248.25
X427.55Y-250.325
X427.55Y-253.15
X428.324Y-338.402
X428.6Y-257.65
X430.05Y-255.35
X430.55Y-249.35
X430.8Y-233.4
X431.947Y-255.947
X432.0Y-241.2
X432.0Y-242.5
X432.55Y-254.8
X433.85Y-253.65
X434.076Y-239.524
X434.45Y-233.4
X434.512Y-238.612
X434.95Y-252.85
X435.498Y-237.752
X436.438Y-252.85
X436.45Y-241.1
X436.88Y-226.06
X436.987Y-240.257
X437.2Y-253.6
X437.7Y-236.3
X437.907Y-254.307
X438.438Y-239.1
X438.916Y-254.3
X438.938Y-240.39
X440.055Y-284.353
X440.113Y-239.437
X440.309Y-304.122
X440.55Y-242.85
X440.65Y-251.1
X440.9Y-237.45
X441.0Y-254.45
X441.452Y-283.337
X442.5Y-242.85
X443.05Y-254.5
X443.05Y-257.85
X443.3Y-251.15
X443.4Y-238.25
X444.735Y-237.315
X444.806Y-244.389
X445.05Y-253.65
X445.531Y-239.416
X445.714Y-249.401
X445.757Y-254.375
X446.2Y-247.475
X446.29Y-238.765
X446.689Y-249.179
X447.04Y-226.06
X447.159Y-246.242
X447.433Y-247.692
X447.689Y-249.179
X448.5Y-247.7
X449.15Y-234.8
X450.608Y-235.645
X451.37Y-239.49
X451.55Y-245.033
X451.866Y-338.455
X453.91Y-238.765
X455.18Y-240.94
X456.45Y-238.04
X457.2Y-226.06
X457.72Y-237.405
X457.72Y-242.485
X458.99Y-248.2
X459.15Y-238.75
X459.531Y-253.37
X460.121Y-303.276
X460.248Y-282.575
X460.26Y-236.77
X461.666Y-281.199
X462.65Y-235.85
X462.8Y-239.945
X462.8Y-253.28
X463.35Y-254.65
X463.435Y-247.565
X464.16Y-248.59
X465.9Y-237.15
X466.35Y-254.6
X466.9Y-240.6
X467.15Y-247.45
X467.25Y-249.5
X467.25Y-355.25
X467.36Y-226.06
X467.5Y-334.75
X470.0Y-246.0
T4
X321.5Y-254.5
T5
X317.45Y-226.85
X322.45Y-226.85
X322.85Y-257.4
X324.1Y-252.4
X325.35Y-257.4
X326.6Y-252.4
X327.85Y-257.4
X329.1Y-252.4
X330.35Y-257.4
X331.6Y-252.4
X332.85Y-257.4
X334.1Y-252.4
X335.35Y-257.4
X336.6Y-252.4
X337.85Y-257.4
X339.1Y-252.4
X340.35Y-257.4
X341.6Y-252.4
X342.85Y-257.4
X344.1Y-252.4
X345.35Y-257.4
X346.6Y-252.4
X347.85Y-257.4
X349.1Y-252.4
X350.35Y-257.4
X351.6Y-252.4
X352.85Y-257.4
X354.1Y-252.4
X355.35Y-257.4
X356.6Y-252.4
X357.85Y-257.4
X359.1Y-252.4
X360.35Y-257.4
T6
X452.084Y-243.374
X454.134Y-243.374
X459.734Y-243.374
X461.784Y-243.374
X452.132Y-251.375
X454.182Y-251.375
X459.782Y-251.375
X461.832Y-251.375
T7
X193.01Y-269.726
X202.01Y-269.726
X266.802Y-345.948
X275.802Y-345.948
X131.034Y-307.848
X140.034Y-307.848
X254.783Y-326.876
X263.783Y-326.876
X54.762Y-307.797
X63.762Y-307.797
X221.611Y-288.776
X230.611Y-288.776
X71.395Y-345.977
X80.395Y-345.977
X383.7Y-228.2
X386.24Y-228.2
X402.205Y-269.777
X411.205Y-269.777
X262.018Y-241.249
X271.018Y-241.249
X173.96Y-269.726
X182.96Y-269.726
X259.711Y-288.776
X268.711Y-288.776
X59.61Y-269.676
X68.61Y-269.676
X85.772Y-241.228
X94.772Y-241.228
X459.507Y-288.776
X468.507Y-288.776
X159.584Y-326.876
X168.584Y-326.876
X121.433Y-326.876
X130.433Y-326.876
X283.536Y-307.826
X292.536Y-307.826
X178.613Y-326.876
X187.613Y-326.876
X459.482Y-346.427
X468.232Y-346.427
X150.063Y-307.848
X159.063Y-307.848
X145.258Y-288.776
X154.258Y-288.776
X245.436Y-307.826
X254.436Y-307.826
X421.306Y-269.828
X430.306Y-269.828
X69.037Y-288.747
X78.037Y-288.747
X61.997Y-241.228
X70.997Y-241.228
X231.161Y-269.726
X240.161Y-269.726
X402.205Y-307.877
X411.205Y-307.877
X126.208Y-288.776
X135.208Y-288.776
X304.952Y-298.298
X313.952Y-298.298
X411.424Y-346.452
X411.424Y-355.452
X250.211Y-269.726
X259.211Y-269.726
X30.958Y-241.177
X39.958Y-241.177
X396.6Y-228.2
X399.14Y-228.2
X401.68Y-228.2
X404.22Y-228.2
X406.76Y-228.2
X409.3Y-228.2
X411.84Y-228.2
X414.38Y-228.2
X299.846Y-327.376
X299.846Y-336.376
X459.507Y-269.828
X468.507Y-269.828
X421.284Y-326.898
X430.284Y-326.898
X440.305Y-288.827
X449.305Y-288.827
X402.205Y-288.827
X411.205Y-288.827
X288.311Y-269.726
X297.311Y-269.726
X235.733Y-326.876
X244.733Y-326.876
X111.955Y-307.848
X120.955Y-307.848
X238.172Y-241.228
X247.172Y-241.228
X33.325Y-307.797
X42.325Y-307.797
X107.158Y-288.751
X116.158Y-288.751
X368.2Y-234.06
X368.2Y-236.6
X370.74Y-234.06
X370.74Y-236.6
X373.28Y-234.06
X373.28Y-236.6
X197.633Y-326.876
X206.633Y-326.876
X440.406Y-269.828
X449.406Y-269.828
X169.134Y-307.826
X178.134Y-307.826
X440.356Y-326.876
X449.356Y-326.876
X164.41Y-288.776
X173.41Y-288.776
X264.486Y-307.826
X273.486Y-307.826
X226.386Y-307.826
X235.386Y-307.826
X240.661Y-288.776
X249.661Y-288.776
X97.71Y-269.676
X106.71Y-269.676
X47.591Y-345.999
X56.591Y-345.999
X188.184Y-307.826
X197.184Y-307.826
X92.884Y-307.826
X101.884Y-307.826
X440.356Y-307.877
X449.356Y-307.877
X154.91Y-269.726
X163.91Y-269.726
X373.757Y-326.876
X382.757Y-326.876
X88.108Y-288.751
X97.108Y-288.751
X116.76Y-269.676
X125.76Y-269.676
X47.42Y-327.376
X47.42Y-336.376
X212.111Y-269.726
X221.111Y-269.726
X354.736Y-326.876
X363.736Y-326.876
X421.255Y-288.827
X430.255Y-288.827
X157.247Y-241.228
X166.247Y-241.228
X49.827Y-289.251
X49.827Y-298.251
X354.707Y-307.826
X363.707Y-307.826
X369.214Y-269.748
X378.214Y-269.748
X78.66Y-269.676
X87.66Y-269.676
X35.734Y-269.701
X44.734Y-269.701
X402.234Y-326.898
X411.234Y-326.898
X214.346Y-241.228
X223.346Y-241.228
X102.383Y-326.876
X111.383Y-326.876
X421.255Y-307.877
X430.255Y-307.877
X183.46Y-288.776
X192.46Y-288.776
X278.761Y-288.776
X287.761Y-288.776
X216.683Y-326.876
X225.683Y-326.876
X190.521Y-241.228
X199.521Y-241.228
X202.51Y-288.776
X211.51Y-288.776
X140.483Y-326.876
X149.483Y-326.876
X269.261Y-269.726
X278.261Y-269.726
X64.283Y-326.876
X73.283Y-326.876
X83.333Y-326.876
X92.333Y-326.876
X207.285Y-307.826
X216.285Y-307.826
X440.334Y-345.948
X449.334Y-345.948
X73.834Y-307.826
X82.834Y-307.826
X133.422Y-241.228
X142.422Y-241.228
X285.822Y-241.228
X294.822Y-241.228
X335.657Y-326.876
X344.657Y-326.876
X340.614Y-269.748
X349.614Y-269.748
X109.597Y-241.228
X118.597Y-241.228
X459.507Y-307.826
X468.507Y-307.826
X168.759Y-346.452
X168.759Y-355.452
X135.839Y-269.697
X144.839Y-269.697
X307.361Y-269.726
X316.361Y-269.726
X290.678Y-345.948
X299.678Y-345.948
T8
X36.424Y-272.161
X42.774Y-269.621
X402.924Y-329.358
X409.274Y-326.818
X215.036Y-243.688
X221.386Y-241.148
X103.073Y-329.336
X109.423Y-326.796
X421.945Y-310.337
X428.295Y-307.797
X184.15Y-291.236
X190.5Y-288.696
X279.451Y-291.236
X285.801Y-288.696
X217.373Y-329.336
X223.723Y-326.796
X191.211Y-243.688
X197.561Y-241.148
X203.2Y-291.236
X209.55Y-288.696
X141.173Y-329.336
X147.523Y-326.796
X269.951Y-272.186
X276.301Y-269.646
X64.973Y-329.336
X71.323Y-326.796
X84.023Y-329.336
X90.373Y-326.796
X207.975Y-310.286
X214.325Y-307.746
X441.024Y-348.408
X447.374Y-345.868
X74.524Y-310.286
X80.874Y-307.746
X134.112Y-243.688
X140.462Y-241.148
X286.512Y-243.688
X292.862Y-241.148
X336.347Y-329.336
X342.697Y-326.796
X341.304Y-272.208
X347.654Y-269.668
X110.287Y-243.688
X116.637Y-241.148
X460.197Y-310.286
X466.547Y-307.746
X171.069Y-356.032
X177.469Y-353.442
X136.529Y-272.157
X142.879Y-269.617
X308.051Y-272.186
X314.401Y-269.646
X291.368Y-348.408
X297.718Y-345.868
X193.7Y-272.186
X200.05Y-269.646
X267.492Y-348.408
X273.842Y-345.868
X131.724Y-310.308
X138.074Y-307.768
X255.473Y-329.336
X261.823Y-326.796
X55.452Y-310.257
X61.802Y-307.717
X222.301Y-291.236
X228.651Y-288.696
X72.085Y-348.437
X78.435Y-345.897
X402.895Y-272.237
X409.245Y-269.697
X262.708Y-243.709
X269.058Y-241.169
X174.65Y-272.186
X181.0Y-269.646
X260.401Y-291.236
X266.751Y-288.696
X60.3Y-272.136
X66.65Y-269.596
X86.462Y-243.688
X92.812Y-241.148
X460.197Y-291.236
X466.547Y-288.696
X160.274Y-329.336
X166.624Y-326.796
X122.123Y-329.336
X128.473Y-326.796
X284.226Y-310.286
X290.576Y-307.746
X179.303Y-329.336
X185.653Y-326.796
X461.442Y-346.507
X467.792Y-343.967
X150.753Y-310.308
X157.103Y-307.768
X145.948Y-291.236
X152.298Y-288.696
X246.126Y-310.286
X252.476Y-307.746
X421.996Y-272.288
X428.346Y-269.748
X69.727Y-291.207
X76.077Y-288.667
X62.687Y-243.688
X69.037Y-241.148
X231.851Y-272.186
X238.201Y-269.646
X402.895Y-310.337
X409.245Y-307.797
X126.898Y-291.236
X133.248Y-288.696
X305.642Y-300.758
X311.992Y-298.218
X413.734Y-356.032
X420.084Y-353.492
X250.901Y-272.186
X257.251Y-269.646
X31.648Y-243.637
X37.998Y-241.097
X291.186Y-329.336
X297.536Y-326.796
X460.197Y-272.288
X466.547Y-269.748
X421.974Y-329.358
X428.324Y-326.818
X440.995Y-291.287
X447.345Y-288.747
X402.895Y-291.287
X409.245Y-288.747
X289.001Y-272.186
X295.351Y-269.646
X236.423Y-329.336
X242.773Y-326.796
X112.645Y-310.308
X118.995Y-307.768
X238.862Y-243.688
X245.212Y-241.148
X34.015Y-310.257
X40.365Y-307.717
X107.848Y-291.211
X114.198Y-288.671
X198.323Y-329.336
X204.673Y-326.796
X441.096Y-272.288
X447.446Y-269.748
X169.824Y-310.286
X176.174Y-307.746
X441.046Y-329.336
X447.396Y-326.796
X165.1Y-291.236
X171.45Y-288.696
X265.176Y-310.286
X271.526Y-307.746
X227.076Y-310.286
X233.426Y-307.746
X241.351Y-291.236
X247.701Y-288.696
X98.4Y-272.136
X104.75Y-269.596
X48.281Y-348.459
X54.631Y-345.919
X188.874Y-310.286
X195.224Y-307.746
X93.574Y-310.286
X99.924Y-307.746
X441.046Y-310.337
X447.396Y-307.797
X155.6Y-272.186
X161.95Y-269.646
X374.447Y-329.336
X380.797Y-326.796
X88.798Y-291.211
X95.148Y-288.671
X117.45Y-272.136
X123.8Y-269.596
X38.76Y-329.336
X45.11Y-326.796
X212.801Y-272.186
X219.151Y-269.646
X355.426Y-329.336
X361.776Y-326.796
X421.945Y-291.287
X428.295Y-288.747
X157.937Y-243.688
X164.287Y-241.148
X41.167Y-291.211
X47.517Y-288.671
X355.397Y-310.286
X361.747Y-307.746
X369.904Y-272.208
X376.254Y-269.668
X79.35Y-272.136
X85.7Y-269.596
T9
X178.033Y-331.876
X188.193Y-331.876
X458.902Y-341.427
X469.062Y-341.427
X149.483Y-312.848
X159.643Y-312.848
X144.678Y-293.776
X154.838Y-293.776
X244.856Y-312.826
X255.016Y-312.826
X420.726Y-274.828
X430.886Y-274.828
X68.457Y-293.747
X78.617Y-293.747
X61.417Y-246.228
X71.577Y-246.228
X230.581Y-274.726
X240.741Y-274.726
X401.625Y-312.877
X411.785Y-312.877
X125.628Y-293.776
X135.788Y-293.776
X304.372Y-303.298
X314.532Y-303.298
X411.194Y-350.952
X421.354Y-350.952
X249.631Y-274.726
X259.791Y-274.726
X30.378Y-246.177
X40.538Y-246.177
X289.916Y-331.876
X300.076Y-331.876
X458.927Y-274.828
X469.087Y-274.828
X420.704Y-331.898
X430.864Y-331.898
X439.725Y-293.827
X449.885Y-293.827
X401.625Y-293.827
X411.785Y-293.827
X287.731Y-274.726
X297.891Y-274.726
X235.153Y-331.876
X245.313Y-331.876
X111.375Y-312.848
X121.535Y-312.848
X237.592Y-246.228
X247.752Y-246.228
X32.745Y-312.797
X42.905Y-312.797
X106.578Y-293.751
X116.738Y-293.751
X197.053Y-331.876
X207.213Y-331.876
X439.826Y-274.828
X449.986Y-274.828
X168.554Y-312.826
X178.714Y-312.826
X439.776Y-331.876
X449.936Y-331.876
X163.83Y-293.776
X173.99Y-293.776
X263.906Y-312.826
X274.066Y-312.826
X225.806Y-312.826
X235.966Y-312.826
X240.081Y-293.776
X250.241Y-293.776
X97.13Y-274.676
X107.29Y-274.676
X47.011Y-350.999
X57.171Y-350.999
X187.604Y-312.826
X197.764Y-312.826
X92.304Y-312.826
X102.464Y-312.826
X439.776Y-312.877
X449.936Y-312.877
X154.33Y-274.726
X164.49Y-274.726
X373.177Y-331.876
X383.337Y-331.876
X87.528Y-293.751
X97.688Y-293.751
X116.18Y-274.676
X126.34Y-274.676
X37.49Y-331.876
X47.65Y-331.876
X211.531Y-274.726
X221.691Y-274.726
X354.156Y-331.876
X364.316Y-331.876
X420.675Y-293.827
X430.835Y-293.827
X156.667Y-246.228
X166.827Y-246.228
X39.897Y-293.751
X50.057Y-293.751
X354.127Y-312.826
X364.287Y-312.826
X368.634Y-274.748
X378.794Y-274.748
X78.08Y-274.676
X88.24Y-274.676
X35.154Y-274.701
X45.314Y-274.701
X401.654Y-331.898
X411.814Y-331.898
X213.766Y-246.228
X223.926Y-246.228
X101.803Y-331.876
X111.963Y-331.876
X420.675Y-312.877
X430.835Y-312.877
X182.88Y-293.776
X193.04Y-293.776
X278.181Y-293.776
X288.341Y-293.776
X216.103Y-331.876
X226.263Y-331.876
X189.941Y-246.228
X200.101Y-246.228
X201.93Y-293.776
X212.09Y-293.776
X139.903Y-331.876
X150.063Y-331.876
X268.681Y-274.726
X278.841Y-274.726
X63.703Y-331.876
X73.863Y-331.876
X82.753Y-331.876
X92.913Y-331.876
X206.705Y-312.826
X216.865Y-312.826
X439.754Y-350.948
X449.914Y-350.948
X73.254Y-312.826
X83.414Y-312.826
X132.842Y-246.228
X143.002Y-246.228
X285.242Y-246.228
X295.402Y-246.228
X335.077Y-331.876
X345.237Y-331.876
X340.034Y-274.748
X350.194Y-274.748
X109.017Y-246.228
X119.177Y-246.228
X458.927Y-312.826
X469.087Y-312.826
X168.529Y-350.952
X178.689Y-350.952
X135.259Y-274.697
X145.419Y-274.697
X306.781Y-274.726
X316.941Y-274.726
X290.098Y-350.948
X300.258Y-350.948
X192.43Y-274.726
X202.59Y-274.726
X266.222Y-350.948
X276.382Y-350.948
X130.454Y-312.848
X140.614Y-312.848
X254.203Y-331.876
X264.363Y-331.876
X54.182Y-312.797
X64.342Y-312.797
X221.031Y-293.776
X231.191Y-293.776
X70.815Y-350.977
X80.975Y-350.977
X401.625Y-274.777
X411.785Y-274.777
X261.438Y-246.249
X271.598Y-246.249
X173.38Y-274.726
X183.54Y-274.726
X259.131Y-293.776
X269.291Y-293.776
X59.03Y-274.676
X69.19Y-274.676
X85.192Y-246.228
X95.352Y-246.228
X458.927Y-293.776
X469.087Y-293.776
X159.004Y-331.876
X169.164Y-331.876
X120.853Y-331.876
X131.013Y-331.876
X282.956Y-312.826
X293.116Y-312.826
T10
X468.7Y-231.95
X468.7Y-258.95
X307.2Y-231.95
X307.2Y-258.95
T11
X106.934Y-357.937
X116.534Y-357.937
X230.709Y-357.952
X470.967Y-329.489
X470.967Y-353.365
X302.467Y-291.36
X302.467Y-315.236
X404.368Y-357.937
X428.18Y-357.937
X283.089Y-324.891
X306.902Y-324.891
X33.071Y-286.766
X56.883Y-286.766
X240.284Y-357.937
T12
X471.2Y-284.3
X449.05Y-243.4
X383.7Y-358.0
X27.85Y-303.25
X471.2Y-322.35
X449.084Y-251.375
X314.5Y-358.0
X463.95Y-358.0
X27.85Y-284.2
X471.2Y-303.2
X464.95Y-243.4
X464.95Y-251.375
X27.8Y-322.4
X32.5Y-358.0
T13
X183.113Y-331.876
X455.727Y-329.489
X455.727Y-353.365
X463.982Y-341.427
X154.563Y-312.848
X149.758Y-293.776
X249.936Y-312.826
X425.806Y-274.828
X73.537Y-293.747
X66.497Y-246.228
X235.661Y-274.726
X406.705Y-312.877
X130.708Y-293.776
X309.452Y-303.298
X317.707Y-291.36
X317.707Y-315.236
X404.368Y-342.697
X416.274Y-350.952
X428.18Y-342.697
X254.711Y-274.726
X35.458Y-246.177
X283.089Y-340.131
X294.996Y-331.876
X306.902Y-340.131
X464.007Y-274.828
X425.784Y-331.898
X444.805Y-293.827
X406.705Y-293.827
X292.811Y-274.726
X240.233Y-331.876
X116.455Y-312.848
X242.672Y-246.228
X37.825Y-312.797
X111.658Y-293.751
X202.133Y-331.876
X444.906Y-274.828
X173.634Y-312.826
X444.856Y-331.876
X168.91Y-293.776
X268.986Y-312.826
X230.886Y-312.826
X245.161Y-293.776
X102.21Y-274.676
X52.091Y-350.999
X192.684Y-312.826
X97.384Y-312.826
X444.856Y-312.877
X159.41Y-274.726
X378.257Y-331.876
X92.608Y-293.751
X121.26Y-274.676
X42.57Y-331.876
X216.611Y-274.726
X359.236Y-331.876
X425.755Y-293.827
X161.747Y-246.228
X33.071Y-302.006
X44.977Y-293.751
X56.883Y-302.006
X359.207Y-312.826
X373.714Y-274.748
X83.16Y-274.676
X40.234Y-274.701
X406.734Y-331.898
X218.846Y-246.228
X106.883Y-331.876
X425.755Y-312.877
X187.96Y-293.776
X283.261Y-293.776
X221.183Y-331.876
X195.021Y-246.228
X207.01Y-293.776
X144.983Y-331.876
X273.761Y-274.726
X68.783Y-331.876
X87.833Y-331.876
X211.785Y-312.826
X444.834Y-350.948
X78.334Y-312.826
X137.922Y-246.228
X290.322Y-246.228
X340.157Y-331.876
X345.114Y-274.748
X114.097Y-246.228
X464.007Y-312.826
X106.934Y-342.697
X116.534Y-342.747
X173.609Y-350.952
X230.709Y-342.752
X240.284Y-342.697
X140.339Y-274.697
X311.861Y-274.726
X295.178Y-350.948
X197.51Y-274.726
X271.302Y-350.948
X135.534Y-312.848
X259.283Y-331.876
X59.262Y-312.797
X226.111Y-293.776
X75.895Y-350.977
X406.705Y-274.777
X266.518Y-246.249
X178.46Y-274.726
X264.211Y-293.776
X64.11Y-274.676
X90.272Y-246.228
X464.007Y-293.776
X164.084Y-331.876
X125.933Y-331.876
X288.036Y-312.826
T14
X397.45Y-257.0
T4
G00X316.45Y-224.5
M15
G01X316.45Y-223.8
M16
G05
G00X323.45Y-223.8
M15
G01X323.45Y-224.5
M16
G05
T0
M30
