%TF.GenerationSoftware,KiCad,Pcbnew,8.0.5*%
%TF.CreationDate,2025-01-08T19:28:40+01:00*%
%TF.ProjectId,A500KB,41353030-4b42-42e6-9b69-6361645f7063,rev?*%
%TF.SameCoordinates,Original*%
%TF.FileFunction,Paste,Top*%
%TF.FilePolarity,Positive*%
%FSLAX46Y46*%
G04 Gerber Fmt 4.6, Leading zero omitted, Abs format (unit mm)*
G04 Created by KiCad (PCBNEW 8.0.5) date 2025-01-08 19:28:40*
%MOMM*%
%LPD*%
G01*
G04 APERTURE LIST*
G04 Aperture macros list*
%AMRoundRect*
0 Rectangle with rounded corners*
0 $1 Rounding radius*
0 $2 $3 $4 $5 $6 $7 $8 $9 X,Y pos of 4 corners*
0 Add a 4 corners polygon primitive as box body*
4,1,4,$2,$3,$4,$5,$6,$7,$8,$9,$2,$3,0*
0 Add four circle primitives for the rounded corners*
1,1,$1+$1,$2,$3*
1,1,$1+$1,$4,$5*
1,1,$1+$1,$6,$7*
1,1,$1+$1,$8,$9*
0 Add four rect primitives between the rounded corners*
20,1,$1+$1,$2,$3,$4,$5,0*
20,1,$1+$1,$4,$5,$6,$7,0*
20,1,$1+$1,$6,$7,$8,$9,0*
20,1,$1+$1,$8,$9,$2,$3,0*%
%AMFreePoly0*
4,1,25,0.353073,0.485300,0.372568,0.469589,0.469589,0.372568,0.501215,0.314650,0.503891,0.289756,0.503891,-0.289756,0.485300,-0.353073,0.469589,-0.372568,0.372568,-0.469589,0.314650,-0.501215,0.289756,-0.503891,-0.289756,-0.503891,-0.353073,-0.485300,-0.372568,-0.469589,-0.469589,-0.372568,-0.501215,-0.314650,-0.503891,-0.289756,-0.503891,0.289756,-0.485300,0.353073,-0.469589,0.372568,
-0.372568,0.469589,-0.314650,0.501215,-0.289756,0.503891,0.289756,0.503891,0.353073,0.485300,0.353073,0.485300,$1*%
G04 Aperture macros list end*
%ADD10RoundRect,0.250000X-0.450000X0.325000X-0.450000X-0.325000X0.450000X-0.325000X0.450000X0.325000X0*%
%ADD11RoundRect,0.150000X0.587500X0.150000X-0.587500X0.150000X-0.587500X-0.150000X0.587500X-0.150000X0*%
%ADD12RoundRect,0.250000X0.450000X-0.350000X0.450000X0.350000X-0.450000X0.350000X-0.450000X-0.350000X0*%
%ADD13RoundRect,0.250000X-0.350000X-0.450000X0.350000X-0.450000X0.350000X0.450000X-0.350000X0.450000X0*%
%ADD14RoundRect,0.250000X0.337500X0.475000X-0.337500X0.475000X-0.337500X-0.475000X0.337500X-0.475000X0*%
%ADD15RoundRect,0.250000X-0.475000X0.337500X-0.475000X-0.337500X0.475000X-0.337500X0.475000X0.337500X0*%
%ADD16RoundRect,0.250000X0.350000X0.450000X-0.350000X0.450000X-0.350000X-0.450000X0.350000X-0.450000X0*%
%ADD17R,1.500000X0.550000*%
%ADD18R,0.550000X1.500000*%
%ADD19R,1.700000X2.400000*%
%ADD20R,0.800000X2.750000*%
%ADD21RoundRect,0.250000X-0.337500X-0.475000X0.337500X-0.475000X0.337500X0.475000X-0.337500X0.475000X0*%
%ADD22RoundRect,0.225000X-0.375000X0.225000X-0.375000X-0.225000X0.375000X-0.225000X0.375000X0.225000X0*%
%ADD23FreePoly0,180.000000*%
%ADD24RoundRect,0.075000X0.662500X0.075000X-0.662500X0.075000X-0.662500X-0.075000X0.662500X-0.075000X0*%
%ADD25RoundRect,0.075000X0.075000X0.662500X-0.075000X0.662500X-0.075000X-0.662500X0.075000X-0.662500X0*%
%ADD26RoundRect,0.250000X-0.450000X0.350000X-0.450000X-0.350000X0.450000X-0.350000X0.450000X0.350000X0*%
%ADD27RoundRect,0.250000X0.475000X-0.337500X0.475000X0.337500X-0.475000X0.337500X-0.475000X-0.337500X0*%
%ADD28R,0.400000X1.350000*%
%ADD29R,1.500000X1.900000*%
%ADD30R,2.750000X0.800000*%
%ADD31R,2.000000X1.100000*%
%ADD32RoundRect,0.250000X1.412500X0.550000X-1.412500X0.550000X-1.412500X-0.550000X1.412500X-0.550000X0*%
%ADD33R,1.100000X2.000000*%
G04 APERTURE END LIST*
D10*
%TO.C,D2*%
X68783200Y-306750000D03*
X68783200Y-308800000D03*
%TD*%
D11*
%TO.C,Q1*%
X373187500Y-253050000D03*
X373187500Y-251150000D03*
X371312500Y-252100000D03*
%TD*%
D12*
%TO.C,R1*%
X376800000Y-253075000D03*
X376800000Y-251075000D03*
%TD*%
D13*
%TO.C,R2*%
X366250000Y-252100000D03*
X368250000Y-252100000D03*
%TD*%
D14*
%TO.C,C5*%
X333537500Y-233050000D03*
X331462500Y-233050000D03*
%TD*%
D15*
%TO.C,C6*%
X372821200Y-227511700D03*
X372821200Y-229586700D03*
%TD*%
D12*
%TO.C,R4*%
X321050000Y-235925000D03*
X321050000Y-233925000D03*
%TD*%
D16*
%TO.C,R5*%
X372050000Y-240900000D03*
X370050000Y-240900000D03*
%TD*%
D17*
%TO.C,U2*%
X337048400Y-228704200D03*
X337048400Y-229504200D03*
X337048400Y-230304200D03*
X337048400Y-231104200D03*
X337048400Y-231904200D03*
X337048400Y-232704200D03*
X337048400Y-233504200D03*
X337048400Y-234304200D03*
X337048400Y-235104200D03*
X337048400Y-235904200D03*
X337048400Y-236704200D03*
X337048400Y-237504200D03*
X337048400Y-238304200D03*
X337048400Y-239104200D03*
X337048400Y-239904200D03*
X337048400Y-240704200D03*
D18*
X338748400Y-242404200D03*
X339548400Y-242404200D03*
X340348400Y-242404200D03*
X341148400Y-242404200D03*
X341948400Y-242404200D03*
X342748400Y-242404200D03*
X343548400Y-242404200D03*
X344348400Y-242404200D03*
X345148400Y-242404200D03*
X345948400Y-242404200D03*
X346748400Y-242404200D03*
X347548400Y-242404200D03*
X348348400Y-242404200D03*
X349148400Y-242404200D03*
X349948400Y-242404200D03*
X350748400Y-242404200D03*
D17*
X352448400Y-240704200D03*
X352448400Y-239904200D03*
X352448400Y-239104200D03*
X352448400Y-238304200D03*
X352448400Y-237504200D03*
X352448400Y-236704200D03*
X352448400Y-235904200D03*
X352448400Y-235104200D03*
X352448400Y-234304200D03*
X352448400Y-233504200D03*
X352448400Y-232704200D03*
X352448400Y-231904200D03*
X352448400Y-231104200D03*
X352448400Y-230304200D03*
X352448400Y-229504200D03*
X352448400Y-228704200D03*
D18*
X350748400Y-227004200D03*
X349948400Y-227004200D03*
X349148400Y-227004200D03*
X348348400Y-227004200D03*
X347548400Y-227004200D03*
X346748400Y-227004200D03*
X345948400Y-227004200D03*
X345148400Y-227004200D03*
X344348400Y-227004200D03*
X343548400Y-227004200D03*
X342748400Y-227004200D03*
X341948400Y-227004200D03*
X341148400Y-227004200D03*
X340348400Y-227004200D03*
X339548400Y-227004200D03*
X338748400Y-227004200D03*
%TD*%
D19*
%TO.C,Y2*%
X345823300Y-247321800D03*
X342123300Y-247321800D03*
%TD*%
D20*
%TO.C,D1*%
X62673000Y-304383000D03*
X64073000Y-304383000D03*
X64073000Y-299883000D03*
X62673000Y-299883000D03*
%TD*%
D13*
%TO.C,R6*%
X422000000Y-227250000D03*
X424000000Y-227250000D03*
%TD*%
D15*
%TO.C,C14*%
X391500000Y-226050000D03*
X391500000Y-228125000D03*
%TD*%
D21*
%TO.C,C3*%
X347884000Y-247359900D03*
X349959000Y-247359900D03*
%TD*%
%TO.C,C4*%
X338008700Y-247296400D03*
X340083700Y-247296400D03*
%TD*%
%TO.C,C1*%
X332898000Y-247309100D03*
X334973000Y-247309100D03*
%TD*%
D22*
%TO.C,D8*%
X77600000Y-322950000D03*
X77600000Y-326250000D03*
%TD*%
%TO.C,D9*%
X96600000Y-323000000D03*
X96600000Y-326300000D03*
%TD*%
%TO.C,D10*%
X115700000Y-323000000D03*
X115700000Y-326300000D03*
%TD*%
%TO.C,D11*%
X134800000Y-322950000D03*
X134800000Y-326250000D03*
%TD*%
%TO.C,D12*%
X153800000Y-322950000D03*
X153800000Y-326250000D03*
%TD*%
%TO.C,D13*%
X172550000Y-334600000D03*
X172550000Y-337900000D03*
%TD*%
%TO.C,D14*%
X172900000Y-322900000D03*
X172900000Y-326200000D03*
%TD*%
%TO.C,D15*%
X191900000Y-322850000D03*
X191900000Y-326150000D03*
%TD*%
%TO.C,D16*%
X211000000Y-322850000D03*
X211000000Y-326150000D03*
%TD*%
%TO.C,D17*%
X230000000Y-322850000D03*
X230000000Y-326150000D03*
%TD*%
%TO.C,D18*%
X249100000Y-322850000D03*
X249100000Y-326150000D03*
%TD*%
%TO.C,D19*%
X268100000Y-322850000D03*
X268100000Y-326150000D03*
%TD*%
%TO.C,D20*%
X387800000Y-322900000D03*
X387800000Y-326200000D03*
%TD*%
%TO.C,D21*%
X348600000Y-321850000D03*
X348600000Y-325150000D03*
%TD*%
%TO.C,D22*%
X368300000Y-303550000D03*
X368300000Y-306850000D03*
%TD*%
%TO.C,D24*%
X68800000Y-311250000D03*
X68800000Y-314550000D03*
%TD*%
%TO.C,D25*%
X87100000Y-304050000D03*
X87100000Y-307350000D03*
%TD*%
%TO.C,D26*%
X106200000Y-304050000D03*
X106200000Y-307350000D03*
%TD*%
%TO.C,D27*%
X125300000Y-304050000D03*
X125300000Y-307350000D03*
%TD*%
%TO.C,D28*%
X144300000Y-304050000D03*
X144300000Y-307350000D03*
%TD*%
%TO.C,D29*%
X163400000Y-304050000D03*
X163400000Y-307350000D03*
%TD*%
%TO.C,D30*%
X182400000Y-304050000D03*
X182400000Y-307350000D03*
%TD*%
%TO.C,D31*%
X201500000Y-304050000D03*
X201500000Y-307350000D03*
%TD*%
%TO.C,D32*%
X220600000Y-304050000D03*
X220600000Y-307350000D03*
%TD*%
%TO.C,D33*%
X239700000Y-304050000D03*
X239700000Y-307350000D03*
%TD*%
%TO.C,D34*%
X258800000Y-304050000D03*
X258800000Y-307350000D03*
%TD*%
%TO.C,D35*%
X277800000Y-304050000D03*
X277800000Y-307350000D03*
%TD*%
%TO.C,D36*%
X296800000Y-304150000D03*
X296800000Y-307450000D03*
%TD*%
D16*
%TO.C,R8*%
X424000000Y-234850000D03*
X422000000Y-234850000D03*
%TD*%
%TO.C,R9*%
X424000000Y-232350000D03*
X422000000Y-232350000D03*
%TD*%
D22*
%TO.C,D37*%
X63300000Y-284750000D03*
X63300000Y-288050000D03*
%TD*%
%TO.C,D38*%
X82400000Y-284750000D03*
X82400000Y-288050000D03*
%TD*%
%TO.C,D39*%
X101400000Y-284750000D03*
X101400000Y-288050000D03*
%TD*%
%TO.C,D40*%
X120500000Y-284750000D03*
X120500000Y-288050000D03*
%TD*%
%TO.C,D41*%
X139500000Y-284850000D03*
X139500000Y-288150000D03*
%TD*%
%TO.C,D42*%
X158500000Y-284850000D03*
X158500000Y-288150000D03*
%TD*%
%TO.C,D43*%
X177700000Y-284850000D03*
X177700000Y-288150000D03*
%TD*%
%TO.C,D44*%
X196800000Y-284850000D03*
X196800000Y-288150000D03*
%TD*%
%TO.C,D45*%
X215800000Y-284850000D03*
X215800000Y-288150000D03*
%TD*%
%TO.C,D46*%
X234900000Y-284850000D03*
X234900000Y-288150000D03*
%TD*%
%TO.C,D47*%
X254000000Y-284850000D03*
X254000000Y-288150000D03*
%TD*%
%TO.C,D48*%
X273000000Y-284900000D03*
X273000000Y-288200000D03*
%TD*%
%TO.C,D49*%
X292100000Y-284900000D03*
X292100000Y-288200000D03*
%TD*%
%TO.C,D50*%
X322200000Y-298250000D03*
X322200000Y-301550000D03*
%TD*%
D20*
%TO.C,D5*%
X451400000Y-253638000D03*
X452800000Y-253638000D03*
X452800000Y-249138000D03*
X451400000Y-249138000D03*
%TD*%
%TO.C,D6*%
X455400000Y-253625000D03*
X456800000Y-253625000D03*
X456800000Y-249125000D03*
X455400000Y-249125000D03*
%TD*%
%TO.C,D7*%
X459400000Y-253625000D03*
X460800000Y-253625000D03*
X460800000Y-249125000D03*
X459400000Y-249125000D03*
%TD*%
%TO.C,D52*%
X456800000Y-241179900D03*
X455400000Y-241179900D03*
X455400000Y-245679900D03*
X456800000Y-245679900D03*
%TD*%
%TO.C,D53*%
X460800000Y-241167200D03*
X459400000Y-241167200D03*
X459400000Y-245667200D03*
X460800000Y-245667200D03*
%TD*%
D23*
%TO.C,U1*%
X438150000Y-248587500D03*
X438150000Y-247462500D03*
X438150000Y-246337500D03*
X438150000Y-245212500D03*
X437025000Y-248587500D03*
X437025000Y-247462500D03*
X437025000Y-246337500D03*
X437025000Y-245212500D03*
X435900000Y-248587500D03*
X435900000Y-247462500D03*
X435900000Y-246337500D03*
X435900000Y-245212500D03*
X434775000Y-248587500D03*
X434775000Y-247462500D03*
X434775000Y-246337500D03*
X434775000Y-245212500D03*
D24*
X440625000Y-249650000D03*
X440625000Y-249150000D03*
X440625000Y-248650000D03*
X440625000Y-248150000D03*
X440625000Y-247650000D03*
X440625000Y-247150000D03*
X440625000Y-246650000D03*
X440625000Y-246150000D03*
X440625000Y-245650000D03*
X440625000Y-245150000D03*
X440625000Y-244650000D03*
X440625000Y-244150000D03*
D25*
X439212500Y-242737500D03*
X438712500Y-242737500D03*
X438212500Y-242737500D03*
X437712500Y-242737500D03*
X437212500Y-242737500D03*
X436712500Y-242737500D03*
X436212500Y-242737500D03*
X435712500Y-242737500D03*
X435212500Y-242737500D03*
X434712500Y-242737500D03*
X434212500Y-242737500D03*
X433712500Y-242737500D03*
D24*
X432300000Y-244150000D03*
X432300000Y-244650000D03*
X432300000Y-245150000D03*
X432300000Y-245650000D03*
X432300000Y-246150000D03*
X432300000Y-246650000D03*
X432300000Y-247150000D03*
X432300000Y-247650000D03*
X432300000Y-248150000D03*
X432300000Y-248650000D03*
X432300000Y-249150000D03*
X432300000Y-249650000D03*
D25*
X433712500Y-251062500D03*
X434212500Y-251062500D03*
X434712500Y-251062500D03*
X435212500Y-251062500D03*
X435712500Y-251062500D03*
X436212500Y-251062500D03*
X436712500Y-251062500D03*
X437212500Y-251062500D03*
X437712500Y-251062500D03*
X438212500Y-251062500D03*
X438712500Y-251062500D03*
X439212500Y-251062500D03*
%TD*%
D14*
%TO.C,C10*%
X438362500Y-234550000D03*
X436287500Y-234550000D03*
%TD*%
D21*
%TO.C,C11*%
X439387500Y-255950000D03*
X441462500Y-255950000D03*
%TD*%
D15*
%TO.C,C12*%
X429150000Y-246137500D03*
X429150000Y-248212500D03*
%TD*%
D13*
%TO.C,R7*%
X429025000Y-253700000D03*
X431025000Y-253700000D03*
%TD*%
D14*
%TO.C,C13*%
X431087500Y-251050000D03*
X429012500Y-251050000D03*
%TD*%
%TO.C,C9*%
X436312500Y-255950000D03*
X434237500Y-255950000D03*
%TD*%
D26*
%TO.C,R10*%
X361696000Y-235474000D03*
X361696000Y-237474000D03*
%TD*%
%TO.C,R11*%
X363982000Y-235465000D03*
X363982000Y-237465000D03*
%TD*%
D22*
%TO.C,D54*%
X54600000Y-265850000D03*
X54600000Y-269150000D03*
%TD*%
%TO.C,D55*%
X72900000Y-265750000D03*
X72900000Y-269050000D03*
%TD*%
%TO.C,D56*%
X92100000Y-265750000D03*
X92100000Y-269050000D03*
%TD*%
%TO.C,D57*%
X111000000Y-265750000D03*
X111000000Y-269050000D03*
%TD*%
%TO.C,D58*%
X130100000Y-265650000D03*
X130100000Y-268950000D03*
%TD*%
%TO.C,D59*%
X149200000Y-265750000D03*
X149200000Y-269050000D03*
%TD*%
%TO.C,D60*%
X168300000Y-265750000D03*
X168300000Y-269050000D03*
%TD*%
%TO.C,D61*%
X187300000Y-265750000D03*
X187300000Y-269050000D03*
%TD*%
%TO.C,D62*%
X206300000Y-265750000D03*
X206300000Y-269050000D03*
%TD*%
%TO.C,D63*%
X225400000Y-265750000D03*
X225400000Y-269050000D03*
%TD*%
%TO.C,D64*%
X244500000Y-265750000D03*
X244500000Y-269050000D03*
%TD*%
%TO.C,D65*%
X263500000Y-265750000D03*
X263500000Y-269050000D03*
%TD*%
%TO.C,D66*%
X282600000Y-265750000D03*
X282600000Y-269050000D03*
%TD*%
%TO.C,D67*%
X301600000Y-265750000D03*
X301600000Y-269050000D03*
%TD*%
%TO.C,D68*%
X320800000Y-265550000D03*
X320800000Y-268850000D03*
%TD*%
D21*
%TO.C,C2*%
X331487500Y-242050000D03*
X333562500Y-242050000D03*
%TD*%
D27*
%TO.C,C7*%
X429150000Y-243362500D03*
X429150000Y-241287500D03*
%TD*%
D14*
%TO.C,C8*%
X333562500Y-229000000D03*
X331487500Y-229000000D03*
%TD*%
D16*
%TO.C,R12*%
X424000000Y-229750000D03*
X422000000Y-229750000D03*
%TD*%
D13*
%TO.C,R13*%
X412122000Y-241554000D03*
X414122000Y-241554000D03*
%TD*%
%TO.C,R14*%
X406298000Y-241554000D03*
X408298000Y-241554000D03*
%TD*%
D12*
%TO.C,R16*%
X376047000Y-229527500D03*
X376047000Y-227527500D03*
%TD*%
%TO.C,R15*%
X379222000Y-229527500D03*
X379222000Y-227527500D03*
%TD*%
D22*
%TO.C,D23*%
X368700000Y-322850000D03*
X368700000Y-326150000D03*
%TD*%
D12*
%TO.C,R3*%
X318700000Y-235925000D03*
X318700000Y-233925000D03*
%TD*%
D28*
%TO.C,J2*%
X321250000Y-226850000D03*
X320600000Y-226850000D03*
X319950000Y-226850000D03*
X319300000Y-226850000D03*
X318650000Y-226850000D03*
D29*
X320950000Y-224150000D03*
X318950000Y-224150000D03*
%TD*%
D20*
%TO.C,D51*%
X452800000Y-241187500D03*
X451400000Y-241187500D03*
X451400000Y-245687500D03*
X452800000Y-245687500D03*
%TD*%
D30*
%TO.C,D69*%
X57050000Y-317250000D03*
X57050000Y-318650000D03*
X61550000Y-318650000D03*
X61550000Y-317250000D03*
%TD*%
D31*
%TO.C,D72*%
X96877700Y-258500000D03*
X96877700Y-260200000D03*
X96877700Y-261900000D03*
X101677700Y-261900000D03*
X101677700Y-260200000D03*
X101677700Y-258500000D03*
%TD*%
%TO.C,D73*%
X128664750Y-258500000D03*
X128664750Y-260200000D03*
X128664750Y-261900000D03*
X133464750Y-261900000D03*
X133464750Y-260200000D03*
X133464750Y-258500000D03*
%TD*%
%TO.C,D83*%
X361600000Y-347700000D03*
X361600000Y-346000000D03*
X361600000Y-344300000D03*
X356800000Y-344300000D03*
X356800000Y-346000000D03*
X356800000Y-347700000D03*
%TD*%
%TO.C,D71*%
X65090650Y-258500000D03*
X65090650Y-260200000D03*
X65090650Y-261900000D03*
X69890650Y-261900000D03*
X69890650Y-260200000D03*
X69890650Y-258500000D03*
%TD*%
D32*
%TO.C,C15*%
X424175000Y-249650000D03*
X419100000Y-249650000D03*
%TD*%
D31*
%TO.C,D70*%
X33303600Y-258500000D03*
X33303600Y-260200000D03*
X33303600Y-261900000D03*
X38103600Y-261900000D03*
X38103600Y-260200000D03*
X38103600Y-258500000D03*
%TD*%
%TO.C,D81*%
X390100000Y-273026400D03*
X390100000Y-274726400D03*
X390100000Y-276426400D03*
X394900000Y-276426400D03*
X394900000Y-274726400D03*
X394900000Y-273026400D03*
%TD*%
%TO.C,D80*%
X356750000Y-292200000D03*
X356750000Y-293900000D03*
X356750000Y-295600000D03*
X361550000Y-295600000D03*
X361550000Y-293900000D03*
X361550000Y-292200000D03*
%TD*%
%TO.C,D77*%
X255812950Y-258450000D03*
X255812950Y-260150000D03*
X255812950Y-261850000D03*
X260612950Y-261850000D03*
X260612950Y-260150000D03*
X260612950Y-258450000D03*
%TD*%
%TO.C,D75*%
X192238850Y-258500000D03*
X192238850Y-260200000D03*
X192238850Y-261900000D03*
X197038850Y-261900000D03*
X197038850Y-260200000D03*
X197038850Y-258500000D03*
%TD*%
%TO.C,D78*%
X287600000Y-258450000D03*
X287600000Y-260150000D03*
X287600000Y-261850000D03*
X292400000Y-261850000D03*
X292400000Y-260150000D03*
X292400000Y-258450000D03*
%TD*%
%TO.C,D76*%
X224025900Y-258500000D03*
X224025900Y-260200000D03*
X224025900Y-261900000D03*
X228825900Y-261900000D03*
X228825900Y-260200000D03*
X228825900Y-258500000D03*
%TD*%
D32*
%TO.C,C16*%
X424175000Y-242150000D03*
X419100000Y-242150000D03*
%TD*%
D14*
%TO.C,C18*%
X314375000Y-243060000D03*
X312300000Y-243060000D03*
%TD*%
D31*
%TO.C,D79*%
X323600000Y-273026400D03*
X323600000Y-274726400D03*
X323600000Y-276426400D03*
X328400000Y-276426400D03*
X328400000Y-274726400D03*
X328400000Y-273026400D03*
%TD*%
D14*
%TO.C,C17*%
X314375000Y-246070000D03*
X312300000Y-246070000D03*
%TD*%
D33*
%TO.C,D84*%
X324300000Y-334250000D03*
X326000000Y-334250000D03*
X327700000Y-334250000D03*
X327700000Y-329450000D03*
X326000000Y-329450000D03*
X324300000Y-329450000D03*
%TD*%
D31*
%TO.C,D74*%
X160451800Y-258500000D03*
X160451800Y-260200000D03*
X160451800Y-261900000D03*
X165251800Y-261900000D03*
X165251800Y-260200000D03*
X165251800Y-258500000D03*
%TD*%
D33*
%TO.C,D82*%
X394200000Y-329476400D03*
X392500000Y-329476400D03*
X390800000Y-329476400D03*
X390800000Y-334276400D03*
X392500000Y-334276400D03*
X394200000Y-334276400D03*
%TD*%
D14*
%TO.C,C19*%
X314375000Y-240050000D03*
X312300000Y-240050000D03*
%TD*%
M02*
