%TF.GenerationSoftware,KiCad,Pcbnew,(5.1.6-0)*%
%TF.CreationDate,2021-12-10T16:25:12+01:00*%
%TF.ProjectId,A500KB,41353030-4b42-42e6-9b69-6361645f7063,rev?*%
%TF.SameCoordinates,Original*%
%TF.FileFunction,Legend,Top*%
%TF.FilePolarity,Positive*%
%FSLAX46Y46*%
G04 Gerber Fmt 4.6, Leading zero omitted, Abs format (unit mm)*
G04 Created by KiCad (PCBNEW (5.1.6-0)) date 2021-12-10 16:25:12*
%MOMM*%
%LPD*%
G01*
G04 APERTURE LIST*
%ADD10C,0.300000*%
%ADD11C,0.120000*%
%ADD12C,0.150000*%
G04 APERTURE END LIST*
D10*
X419781428Y-228083000D02*
X420495714Y-228083000D01*
X419638571Y-228511571D02*
X420138571Y-227011571D01*
X420638571Y-228511571D01*
X421852857Y-227011571D02*
X421138571Y-227011571D01*
X421067142Y-227725857D01*
X421138571Y-227654428D01*
X421281428Y-227583000D01*
X421638571Y-227583000D01*
X421781428Y-227654428D01*
X421852857Y-227725857D01*
X421924285Y-227868714D01*
X421924285Y-228225857D01*
X421852857Y-228368714D01*
X421781428Y-228440142D01*
X421638571Y-228511571D01*
X421281428Y-228511571D01*
X421138571Y-228440142D01*
X421067142Y-228368714D01*
X422852857Y-227011571D02*
X422995714Y-227011571D01*
X423138571Y-227083000D01*
X423210000Y-227154428D01*
X423281428Y-227297285D01*
X423352857Y-227583000D01*
X423352857Y-227940142D01*
X423281428Y-228225857D01*
X423210000Y-228368714D01*
X423138571Y-228440142D01*
X422995714Y-228511571D01*
X422852857Y-228511571D01*
X422710000Y-228440142D01*
X422638571Y-228368714D01*
X422567142Y-228225857D01*
X422495714Y-227940142D01*
X422495714Y-227583000D01*
X422567142Y-227297285D01*
X422638571Y-227154428D01*
X422710000Y-227083000D01*
X422852857Y-227011571D01*
X424281428Y-227011571D02*
X424424285Y-227011571D01*
X424567142Y-227083000D01*
X424638571Y-227154428D01*
X424710000Y-227297285D01*
X424781428Y-227583000D01*
X424781428Y-227940142D01*
X424710000Y-228225857D01*
X424638571Y-228368714D01*
X424567142Y-228440142D01*
X424424285Y-228511571D01*
X424281428Y-228511571D01*
X424138571Y-228440142D01*
X424067142Y-228368714D01*
X423995714Y-228225857D01*
X423924285Y-227940142D01*
X423924285Y-227583000D01*
X423995714Y-227297285D01*
X424067142Y-227154428D01*
X424138571Y-227083000D01*
X424281428Y-227011571D01*
X425424285Y-228511571D02*
X425424285Y-227011571D01*
X426281428Y-228511571D02*
X425638571Y-227654428D01*
X426281428Y-227011571D02*
X425424285Y-227868714D01*
X427424285Y-227725857D02*
X427638571Y-227797285D01*
X427710000Y-227868714D01*
X427781428Y-228011571D01*
X427781428Y-228225857D01*
X427710000Y-228368714D01*
X427638571Y-228440142D01*
X427495714Y-228511571D01*
X426924285Y-228511571D01*
X426924285Y-227011571D01*
X427424285Y-227011571D01*
X427567142Y-227083000D01*
X427638571Y-227154428D01*
X427710000Y-227297285D01*
X427710000Y-227440142D01*
X427638571Y-227583000D01*
X427567142Y-227654428D01*
X427424285Y-227725857D01*
X426924285Y-227725857D01*
X429352857Y-227511571D02*
X429924285Y-227511571D01*
X429567142Y-228511571D02*
X429567142Y-227225857D01*
X429638571Y-227083000D01*
X429781428Y-227011571D01*
X429924285Y-227011571D01*
X430638571Y-228511571D02*
X430495714Y-228440142D01*
X430424285Y-228368714D01*
X430352857Y-228225857D01*
X430352857Y-227797285D01*
X430424285Y-227654428D01*
X430495714Y-227583000D01*
X430638571Y-227511571D01*
X430852857Y-227511571D01*
X430995714Y-227583000D01*
X431067142Y-227654428D01*
X431138571Y-227797285D01*
X431138571Y-228225857D01*
X431067142Y-228368714D01*
X430995714Y-228440142D01*
X430852857Y-228511571D01*
X430638571Y-228511571D01*
X431781428Y-228511571D02*
X431781428Y-227511571D01*
X431781428Y-227797285D02*
X431852857Y-227654428D01*
X431924285Y-227583000D01*
X432067142Y-227511571D01*
X432210000Y-227511571D01*
X433852857Y-228511571D02*
X433852857Y-227011571D01*
X434352857Y-228083000D01*
X434852857Y-227011571D01*
X434852857Y-228511571D01*
X435567142Y-228511571D02*
X435567142Y-227511571D01*
X435567142Y-227011571D02*
X435495714Y-227083000D01*
X435567142Y-227154428D01*
X435638571Y-227083000D01*
X435567142Y-227011571D01*
X435567142Y-227154428D01*
X436067142Y-227511571D02*
X436638571Y-227511571D01*
X436281428Y-227011571D02*
X436281428Y-228297285D01*
X436352857Y-228440142D01*
X436495714Y-228511571D01*
X436638571Y-228511571D01*
X437067142Y-228440142D02*
X437210000Y-228511571D01*
X437495714Y-228511571D01*
X437638571Y-228440142D01*
X437710000Y-228297285D01*
X437710000Y-228225857D01*
X437638571Y-228083000D01*
X437495714Y-228011571D01*
X437281428Y-228011571D01*
X437138571Y-227940142D01*
X437067142Y-227797285D01*
X437067142Y-227725857D01*
X437138571Y-227583000D01*
X437281428Y-227511571D01*
X437495714Y-227511571D01*
X437638571Y-227583000D01*
X438995714Y-227511571D02*
X438995714Y-228511571D01*
X438352857Y-227511571D02*
X438352857Y-228297285D01*
X438424285Y-228440142D01*
X438567142Y-228511571D01*
X438781428Y-228511571D01*
X438924285Y-228440142D01*
X438995714Y-228368714D01*
X439710000Y-228511571D02*
X439710000Y-227511571D01*
X439710000Y-227654428D02*
X439781428Y-227583000D01*
X439924285Y-227511571D01*
X440138571Y-227511571D01*
X440281428Y-227583000D01*
X440352857Y-227725857D01*
X440352857Y-228511571D01*
X440352857Y-227725857D02*
X440424285Y-227583000D01*
X440567142Y-227511571D01*
X440781428Y-227511571D01*
X440924285Y-227583000D01*
X440995714Y-227725857D01*
X440995714Y-228511571D01*
X441710000Y-228511571D02*
X441710000Y-227511571D01*
X441710000Y-227011571D02*
X441638571Y-227083000D01*
X441710000Y-227154428D01*
X441781428Y-227083000D01*
X441710000Y-227011571D01*
X441710000Y-227154428D01*
X443781428Y-228511571D02*
X443638571Y-228440142D01*
X443567142Y-228368714D01*
X443495714Y-228225857D01*
X443495714Y-227797285D01*
X443567142Y-227654428D01*
X443638571Y-227583000D01*
X443781428Y-227511571D01*
X443995714Y-227511571D01*
X444138571Y-227583000D01*
X444210000Y-227654428D01*
X444281428Y-227797285D01*
X444281428Y-228225857D01*
X444210000Y-228368714D01*
X444138571Y-228440142D01*
X443995714Y-228511571D01*
X443781428Y-228511571D01*
X444924285Y-228511571D02*
X444924285Y-227511571D01*
X444924285Y-227797285D02*
X444995714Y-227654428D01*
X445067142Y-227583000D01*
X445210000Y-227511571D01*
X445352857Y-227511571D01*
X447852857Y-228368714D02*
X447781428Y-228440142D01*
X447567142Y-228511571D01*
X447424285Y-228511571D01*
X447210000Y-228440142D01*
X447067142Y-228297285D01*
X446995714Y-228154428D01*
X446924285Y-227868714D01*
X446924285Y-227654428D01*
X446995714Y-227368714D01*
X447067142Y-227225857D01*
X447210000Y-227083000D01*
X447424285Y-227011571D01*
X447567142Y-227011571D01*
X447781428Y-227083000D01*
X447852857Y-227154428D01*
X448495714Y-228511571D02*
X448495714Y-227011571D01*
X449138571Y-228511571D02*
X449138571Y-227725857D01*
X449067142Y-227583000D01*
X448924285Y-227511571D01*
X448710000Y-227511571D01*
X448567142Y-227583000D01*
X448495714Y-227654428D01*
X450424285Y-228440142D02*
X450281428Y-228511571D01*
X449995714Y-228511571D01*
X449852857Y-228440142D01*
X449781428Y-228297285D01*
X449781428Y-227725857D01*
X449852857Y-227583000D01*
X449995714Y-227511571D01*
X450281428Y-227511571D01*
X450424285Y-227583000D01*
X450495714Y-227725857D01*
X450495714Y-227868714D01*
X449781428Y-228011571D01*
X451138571Y-228511571D02*
X451138571Y-227511571D01*
X451138571Y-227797285D02*
X451210000Y-227654428D01*
X451281428Y-227583000D01*
X451424285Y-227511571D01*
X451567142Y-227511571D01*
X452067142Y-228511571D02*
X452067142Y-227511571D01*
X452067142Y-227797285D02*
X452138571Y-227654428D01*
X452210000Y-227583000D01*
X452352857Y-227511571D01*
X452495714Y-227511571D01*
X452852857Y-227511571D02*
X453210000Y-228511571D01*
X453567142Y-227511571D02*
X453210000Y-228511571D01*
X453067142Y-228868714D01*
X452995714Y-228940142D01*
X452852857Y-229011571D01*
X455210000Y-228440142D02*
X455352857Y-228511571D01*
X455638571Y-228511571D01*
X455781428Y-228440142D01*
X455852857Y-228297285D01*
X455852857Y-228225857D01*
X455781428Y-228083000D01*
X455638571Y-228011571D01*
X455424285Y-228011571D01*
X455281428Y-227940142D01*
X455210000Y-227797285D01*
X455210000Y-227725857D01*
X455281428Y-227583000D01*
X455424285Y-227511571D01*
X455638571Y-227511571D01*
X455781428Y-227583000D01*
X456352857Y-227511571D02*
X456638571Y-228511571D01*
X456924285Y-227797285D01*
X457210000Y-228511571D01*
X457495714Y-227511571D01*
X458067142Y-228511571D02*
X458067142Y-227511571D01*
X458067142Y-227011571D02*
X457995714Y-227083000D01*
X458067142Y-227154428D01*
X458138571Y-227083000D01*
X458067142Y-227011571D01*
X458067142Y-227154428D01*
X458567142Y-227511571D02*
X459138571Y-227511571D01*
X458781428Y-227011571D02*
X458781428Y-228297285D01*
X458852857Y-228440142D01*
X458995714Y-228511571D01*
X459138571Y-228511571D01*
X460281428Y-228440142D02*
X460138571Y-228511571D01*
X459852857Y-228511571D01*
X459710000Y-228440142D01*
X459638571Y-228368714D01*
X459567142Y-228225857D01*
X459567142Y-227797285D01*
X459638571Y-227654428D01*
X459710000Y-227583000D01*
X459852857Y-227511571D01*
X460138571Y-227511571D01*
X460281428Y-227583000D01*
X460924285Y-228511571D02*
X460924285Y-227011571D01*
X461567142Y-228511571D02*
X461567142Y-227725857D01*
X461495714Y-227583000D01*
X461352857Y-227511571D01*
X461138571Y-227511571D01*
X460995714Y-227583000D01*
X460924285Y-227654428D01*
X462852857Y-228440142D02*
X462710000Y-228511571D01*
X462424285Y-228511571D01*
X462281428Y-228440142D01*
X462210000Y-228297285D01*
X462210000Y-227725857D01*
X462281428Y-227583000D01*
X462424285Y-227511571D01*
X462710000Y-227511571D01*
X462852857Y-227583000D01*
X462924285Y-227725857D01*
X462924285Y-227868714D01*
X462210000Y-228011571D01*
X463495714Y-228440142D02*
X463638571Y-228511571D01*
X463924285Y-228511571D01*
X464067142Y-228440142D01*
X464138571Y-228297285D01*
X464138571Y-228225857D01*
X464067142Y-228083000D01*
X463924285Y-228011571D01*
X463710000Y-228011571D01*
X463567142Y-227940142D01*
X463495714Y-227797285D01*
X463495714Y-227725857D01*
X463567142Y-227583000D01*
X463710000Y-227511571D01*
X463924285Y-227511571D01*
X464067142Y-227583000D01*
X429960000Y-229918714D02*
X429817142Y-229847285D01*
X429531428Y-229847285D01*
X429388571Y-229918714D01*
X429245714Y-230061571D01*
X429174285Y-230204428D01*
X429174285Y-230490142D01*
X429245714Y-230633000D01*
X429388571Y-230775857D01*
X429531428Y-230847285D01*
X429817142Y-230847285D01*
X429960000Y-230775857D01*
X429674285Y-229347285D02*
X429317142Y-229418714D01*
X428960000Y-229633000D01*
X428745714Y-229990142D01*
X428674285Y-230347285D01*
X428745714Y-230704428D01*
X428960000Y-231061571D01*
X429317142Y-231275857D01*
X429674285Y-231347285D01*
X430031428Y-231275857D01*
X430388571Y-231061571D01*
X430602857Y-230704428D01*
X430674285Y-230347285D01*
X430602857Y-229990142D01*
X430388571Y-229633000D01*
X430031428Y-229418714D01*
X429674285Y-229347285D01*
X432388571Y-229704428D02*
X432460000Y-229633000D01*
X432602857Y-229561571D01*
X432960000Y-229561571D01*
X433102857Y-229633000D01*
X433174285Y-229704428D01*
X433245714Y-229847285D01*
X433245714Y-229990142D01*
X433174285Y-230204428D01*
X432317142Y-231061571D01*
X433245714Y-231061571D01*
X434174285Y-229561571D02*
X434317142Y-229561571D01*
X434460000Y-229633000D01*
X434531428Y-229704428D01*
X434602857Y-229847285D01*
X434674285Y-230133000D01*
X434674285Y-230490142D01*
X434602857Y-230775857D01*
X434531428Y-230918714D01*
X434460000Y-230990142D01*
X434317142Y-231061571D01*
X434174285Y-231061571D01*
X434031428Y-230990142D01*
X433960000Y-230918714D01*
X433888571Y-230775857D01*
X433817142Y-230490142D01*
X433817142Y-230133000D01*
X433888571Y-229847285D01*
X433960000Y-229704428D01*
X434031428Y-229633000D01*
X434174285Y-229561571D01*
X435245714Y-229704428D02*
X435317142Y-229633000D01*
X435460000Y-229561571D01*
X435817142Y-229561571D01*
X435960000Y-229633000D01*
X436031428Y-229704428D01*
X436102857Y-229847285D01*
X436102857Y-229990142D01*
X436031428Y-230204428D01*
X435174285Y-231061571D01*
X436102857Y-231061571D01*
X437531428Y-231061571D02*
X436674285Y-231061571D01*
X437102857Y-231061571D02*
X437102857Y-229561571D01*
X436960000Y-229775857D01*
X436817142Y-229918714D01*
X436674285Y-229990142D01*
X439317142Y-231061571D02*
X439317142Y-229561571D01*
X439317142Y-230275857D02*
X440174285Y-230275857D01*
X440174285Y-231061571D02*
X440174285Y-229561571D01*
X441460000Y-230990142D02*
X441317142Y-231061571D01*
X441031428Y-231061571D01*
X440888571Y-230990142D01*
X440817142Y-230847285D01*
X440817142Y-230275857D01*
X440888571Y-230133000D01*
X441031428Y-230061571D01*
X441317142Y-230061571D01*
X441460000Y-230133000D01*
X441531428Y-230275857D01*
X441531428Y-230418714D01*
X440817142Y-230561571D01*
X442174285Y-230061571D02*
X442174285Y-231061571D01*
X442174285Y-230204428D02*
X442245714Y-230133000D01*
X442388571Y-230061571D01*
X442602857Y-230061571D01*
X442745714Y-230133000D01*
X442817142Y-230275857D01*
X442817142Y-231061571D01*
X443531428Y-231061571D02*
X443531428Y-230061571D01*
X443531428Y-230347285D02*
X443602857Y-230204428D01*
X443674285Y-230133000D01*
X443817142Y-230061571D01*
X443960000Y-230061571D01*
X444317142Y-230061571D02*
X444674285Y-231061571D01*
X445031428Y-230061571D02*
X444674285Y-231061571D01*
X444531428Y-231418714D01*
X444460000Y-231490142D01*
X444317142Y-231561571D01*
X445602857Y-231061571D02*
X445602857Y-229561571D01*
X445745714Y-230490142D02*
X446174285Y-231061571D01*
X446174285Y-230061571D02*
X445602857Y-230633000D01*
X448817142Y-231061571D02*
X448317142Y-230347285D01*
X447960000Y-231061571D02*
X447960000Y-229561571D01*
X448531428Y-229561571D01*
X448674285Y-229633000D01*
X448745714Y-229704428D01*
X448817142Y-229847285D01*
X448817142Y-230061571D01*
X448745714Y-230204428D01*
X448674285Y-230275857D01*
X448531428Y-230347285D01*
X447960000Y-230347285D01*
X449460000Y-231061571D02*
X449460000Y-230061571D01*
X449460000Y-229561571D02*
X449388571Y-229633000D01*
X449460000Y-229704428D01*
X449531428Y-229633000D01*
X449460000Y-229561571D01*
X449460000Y-229704428D01*
X450817142Y-230990142D02*
X450674285Y-231061571D01*
X450388571Y-231061571D01*
X450245714Y-230990142D01*
X450174285Y-230918714D01*
X450102857Y-230775857D01*
X450102857Y-230347285D01*
X450174285Y-230204428D01*
X450245714Y-230133000D01*
X450388571Y-230061571D01*
X450674285Y-230061571D01*
X450817142Y-230133000D01*
X451460000Y-231061571D02*
X451460000Y-229561571D01*
X452102857Y-231061571D02*
X452102857Y-230275857D01*
X452031428Y-230133000D01*
X451888571Y-230061571D01*
X451674285Y-230061571D01*
X451531428Y-230133000D01*
X451460000Y-230204428D01*
X452602857Y-230061571D02*
X453174285Y-230061571D01*
X452817142Y-229561571D02*
X452817142Y-230847285D01*
X452888571Y-230990142D01*
X453031428Y-231061571D01*
X453174285Y-231061571D01*
X454245714Y-230990142D02*
X454102857Y-231061571D01*
X453817142Y-231061571D01*
X453674285Y-230990142D01*
X453602857Y-230847285D01*
X453602857Y-230275857D01*
X453674285Y-230133000D01*
X453817142Y-230061571D01*
X454102857Y-230061571D01*
X454245714Y-230133000D01*
X454317142Y-230275857D01*
X454317142Y-230418714D01*
X453602857Y-230561571D01*
X454960000Y-231061571D02*
X454960000Y-230061571D01*
X454960000Y-230347285D02*
X455031428Y-230204428D01*
X455102857Y-230133000D01*
X455245714Y-230061571D01*
X455388571Y-230061571D01*
D11*
X302700000Y-226900000D02*
X302700000Y-226950000D01*
X302700000Y-225950000D02*
X302700000Y-226900000D01*
X302700000Y-225950000D02*
G75*
G02*
X305950000Y-222700000I3250000J0D01*
G01*
X302700000Y-258950000D02*
X302700000Y-226850000D01*
X473200000Y-225950000D02*
X473200000Y-258950000D01*
X469950000Y-222700000D02*
G75*
G02*
X473200000Y-225950000I0J-3250000D01*
G01*
X469950000Y-222700000D02*
X305950000Y-222700000D01*
X305950000Y-262200000D02*
X307250000Y-262200000D01*
X305950000Y-262200000D02*
G75*
G02*
X302700000Y-258950000I0J3250000D01*
G01*
X469950000Y-262200000D02*
X307250000Y-262200000D01*
X473200000Y-258950000D02*
G75*
G02*
X469950000Y-262200000I-3250000J0D01*
G01*
%TO.C,R11*%
X364692000Y-236203748D02*
X364692000Y-236726252D01*
X363272000Y-236203748D02*
X363272000Y-236726252D01*
%TO.C,R10*%
X362406000Y-236212748D02*
X362406000Y-236735252D01*
X360986000Y-236212748D02*
X360986000Y-236735252D01*
%TO.C,R9*%
X419615252Y-233120000D02*
X419092748Y-233120000D01*
X419615252Y-231700000D02*
X419092748Y-231700000D01*
%TO.C,R8*%
X419615252Y-235660000D02*
X419092748Y-235660000D01*
X419615252Y-234240000D02*
X419092748Y-234240000D01*
%TO.C,C16*%
X418227500Y-238140000D02*
X418227500Y-240490000D01*
X418227500Y-244960000D02*
X418227500Y-242610000D01*
X423983063Y-244960000D02*
X418227500Y-244960000D01*
X423983063Y-238140000D02*
X418227500Y-238140000D01*
X425047500Y-239204437D02*
X425047500Y-240490000D01*
X425047500Y-243895563D02*
X425047500Y-242610000D01*
X425047500Y-243895563D02*
X423983063Y-244960000D01*
X425047500Y-239204437D02*
X423983063Y-238140000D01*
%TO.C,C15*%
X418227500Y-246240000D02*
X418227500Y-248590000D01*
X418227500Y-253060000D02*
X418227500Y-250710000D01*
X423983063Y-253060000D02*
X418227500Y-253060000D01*
X423983063Y-246240000D02*
X418227500Y-246240000D01*
X425047500Y-247304437D02*
X425047500Y-248590000D01*
X425047500Y-251995563D02*
X425047500Y-250710000D01*
X425047500Y-251995563D02*
X423983063Y-253060000D01*
X425047500Y-247304437D02*
X423983063Y-246240000D01*
%TO.C,R7*%
X429763748Y-254410000D02*
X430286252Y-254410000D01*
X429763748Y-252990000D02*
X430286252Y-252990000D01*
%TO.C,R6*%
X410611252Y-231490000D02*
X410088748Y-231490000D01*
X410611252Y-232910000D02*
X410088748Y-232910000D01*
%TO.C,R5*%
X371311252Y-240190000D02*
X370788748Y-240190000D01*
X371311252Y-241610000D02*
X370788748Y-241610000D01*
%TO.C,R4*%
X322263000Y-243581252D02*
X322263000Y-243058748D01*
X320843000Y-243581252D02*
X320843000Y-243058748D01*
%TO.C,R3*%
X320104000Y-243599252D02*
X320104000Y-243076748D01*
X318684000Y-243599252D02*
X318684000Y-243076748D01*
%TO.C,R2*%
X366988748Y-252810000D02*
X367511252Y-252810000D01*
X366988748Y-251390000D02*
X367511252Y-251390000D01*
%TO.C,R1*%
X377510000Y-252336252D02*
X377510000Y-251813748D01*
X376090000Y-252336252D02*
X376090000Y-251813748D01*
%TO.C,Q1*%
X371490000Y-250520000D02*
X372950000Y-250520000D01*
X371490000Y-253680000D02*
X373650000Y-253680000D01*
X371490000Y-253680000D02*
X371490000Y-252750000D01*
X371490000Y-250520000D02*
X371490000Y-251450000D01*
%TO.C,C9*%
X435536252Y-256660000D02*
X435013748Y-256660000D01*
X435536252Y-255240000D02*
X435013748Y-255240000D01*
%TO.C,C13*%
X430311252Y-250340000D02*
X429788748Y-250340000D01*
X430311252Y-251760000D02*
X429788748Y-251760000D01*
%TO.C,C14*%
X405088748Y-232910000D02*
X405611252Y-232910000D01*
X405088748Y-231490000D02*
X405611252Y-231490000D01*
%TO.C,C12*%
X428440000Y-246913748D02*
X428440000Y-247436252D01*
X429860000Y-246913748D02*
X429860000Y-247436252D01*
%TO.C,C11*%
X440163748Y-256660000D02*
X440686252Y-256660000D01*
X440163748Y-255240000D02*
X440686252Y-255240000D01*
%TO.C,C10*%
X437586252Y-233840000D02*
X437063748Y-233840000D01*
X437586252Y-235260000D02*
X437063748Y-235260000D01*
%TO.C,D50*%
X321827600Y-300198400D02*
X323027600Y-300198400D01*
X321827600Y-298348400D02*
X321827600Y-300198400D01*
X323027600Y-298348400D02*
X323027600Y-300198400D01*
%TO.C,U1*%
X440072500Y-250060000D02*
X441362500Y-250060000D01*
X440072500Y-250510000D02*
X440072500Y-250060000D01*
X439622500Y-250510000D02*
X440072500Y-250510000D01*
X432852500Y-250510000D02*
X432852500Y-250060000D01*
X433302500Y-250510000D02*
X432852500Y-250510000D01*
X440072500Y-243290000D02*
X440072500Y-243740000D01*
X439622500Y-243290000D02*
X440072500Y-243290000D01*
X432852500Y-243290000D02*
X432852500Y-243740000D01*
X433302500Y-243290000D02*
X432852500Y-243290000D01*
%TO.C,C8*%
X332786252Y-229710000D02*
X332263748Y-229710000D01*
X332786252Y-228290000D02*
X332263748Y-228290000D01*
%TO.C,C7*%
X428440000Y-242586252D02*
X428440000Y-242063748D01*
X429860000Y-242586252D02*
X429860000Y-242063748D01*
%TO.C,C2*%
X332263748Y-241340000D02*
X332786252Y-241340000D01*
X332263748Y-242760000D02*
X332786252Y-242760000D01*
%TO.C,C1*%
X333674248Y-246599100D02*
X334196752Y-246599100D01*
X333674248Y-248019100D02*
X334196752Y-248019100D01*
%TO.C,D61*%
X186686900Y-267608700D02*
X187886900Y-267608700D01*
X186686900Y-265758700D02*
X186686900Y-267608700D01*
X187886900Y-265758700D02*
X187886900Y-267608700D01*
%TO.C,D64*%
X243887700Y-267608700D02*
X245087700Y-267608700D01*
X243887700Y-265758700D02*
X243887700Y-267608700D01*
X245087700Y-265758700D02*
X245087700Y-267608700D01*
%TO.C,D68*%
X320087700Y-267584800D02*
X321287700Y-267584800D01*
X320087700Y-265734800D02*
X320087700Y-267584800D01*
X321287700Y-265734800D02*
X321287700Y-267584800D01*
%TO.C,D67*%
X301063100Y-267610200D02*
X302263100Y-267610200D01*
X301063100Y-265760200D02*
X301063100Y-267610200D01*
X302263100Y-265760200D02*
X302263100Y-267610200D01*
%TO.C,D66*%
X282000400Y-267596000D02*
X283200400Y-267596000D01*
X282000400Y-265746000D02*
X282000400Y-267596000D01*
X283200400Y-265746000D02*
X283200400Y-267596000D01*
%TO.C,D65*%
X262939200Y-267596000D02*
X264139200Y-267596000D01*
X262939200Y-265746000D02*
X262939200Y-267596000D01*
X264139200Y-265746000D02*
X264139200Y-267596000D01*
%TO.C,D63*%
X224850400Y-267597500D02*
X226050400Y-267597500D01*
X224850400Y-265747500D02*
X224850400Y-267597500D01*
X226050400Y-265747500D02*
X226050400Y-267597500D01*
%TO.C,D62*%
X205775000Y-267594500D02*
X206975000Y-267594500D01*
X205775000Y-265744500D02*
X205775000Y-267594500D01*
X206975000Y-265744500D02*
X206975000Y-267594500D01*
%TO.C,D60*%
X167636900Y-267596000D02*
X168836900Y-267596000D01*
X167636900Y-265746000D02*
X167636900Y-267596000D01*
X168836900Y-265746000D02*
X168836900Y-267596000D01*
%TO.C,D59*%
X148320200Y-267569100D02*
X149520200Y-267569100D01*
X148320200Y-265719100D02*
X148320200Y-267569100D01*
X149520200Y-265719100D02*
X149520200Y-267569100D01*
%TO.C,D58*%
X129498800Y-267543700D02*
X130698800Y-267543700D01*
X129498800Y-265693700D02*
X129498800Y-267543700D01*
X130698800Y-265693700D02*
X130698800Y-267543700D01*
%TO.C,D57*%
X110461500Y-267532500D02*
X111661500Y-267532500D01*
X110461500Y-265682500D02*
X110461500Y-267532500D01*
X111661500Y-265682500D02*
X111661500Y-267532500D01*
%TO.C,D56*%
X91386100Y-267570600D02*
X92586100Y-267570600D01*
X91386100Y-265720600D02*
X91386100Y-267570600D01*
X92586100Y-265720600D02*
X92586100Y-267570600D01*
%TO.C,D55*%
X72336100Y-267557900D02*
X73536100Y-267557900D01*
X72336100Y-265707900D02*
X72336100Y-267557900D01*
X73536100Y-265707900D02*
X73536100Y-267557900D01*
%TO.C,D54*%
X53273400Y-267556400D02*
X54473400Y-267556400D01*
X53273400Y-265706400D02*
X53273400Y-267556400D01*
X54473400Y-265706400D02*
X54473400Y-267556400D01*
%TO.C,D53*%
X461837800Y-241467200D02*
X462637800Y-241467200D01*
X462637800Y-241467200D02*
X462637800Y-245367200D01*
X459637800Y-241467200D02*
X459637800Y-245367200D01*
%TO.C,D52*%
X457786500Y-241479900D02*
X458586500Y-241479900D01*
X458586500Y-241479900D02*
X458586500Y-245379900D01*
X455586500Y-241479900D02*
X455586500Y-245379900D01*
%TO.C,D51*%
X453771800Y-241487500D02*
X454571800Y-241487500D01*
X454571800Y-241487500D02*
X454571800Y-245387500D01*
X451571800Y-241487500D02*
X451571800Y-245387500D01*
%TO.C,D49*%
X291500000Y-286646000D02*
X292700000Y-286646000D01*
X291500000Y-284796000D02*
X291500000Y-286646000D01*
X292700000Y-284796000D02*
X292700000Y-286646000D01*
%TO.C,D48*%
X272450000Y-286708000D02*
X273650000Y-286708000D01*
X272450000Y-284858000D02*
X272450000Y-286708000D01*
X273650000Y-284858000D02*
X273650000Y-286708000D01*
%TO.C,D47*%
X253400000Y-286646000D02*
X254600000Y-286646000D01*
X253400000Y-284796000D02*
X253400000Y-286646000D01*
X254600000Y-284796000D02*
X254600000Y-286646000D01*
%TO.C,D46*%
X234350000Y-286646000D02*
X235550000Y-286646000D01*
X234350000Y-284796000D02*
X234350000Y-286646000D01*
X235550000Y-284796000D02*
X235550000Y-286646000D01*
%TO.C,D45*%
X215173000Y-286708000D02*
X216373000Y-286708000D01*
X215173000Y-284858000D02*
X215173000Y-286708000D01*
X216373000Y-284858000D02*
X216373000Y-286708000D01*
%TO.C,D44*%
X196250000Y-286646000D02*
X197450000Y-286646000D01*
X196250000Y-284796000D02*
X196250000Y-286646000D01*
X197450000Y-284796000D02*
X197450000Y-286646000D01*
%TO.C,D43*%
X177200000Y-286646000D02*
X178400000Y-286646000D01*
X177200000Y-284796000D02*
X177200000Y-286646000D01*
X178400000Y-284796000D02*
X178400000Y-286646000D01*
%TO.C,D42*%
X158023000Y-286646000D02*
X159223000Y-286646000D01*
X158023000Y-284796000D02*
X158023000Y-286646000D01*
X159223000Y-284796000D02*
X159223000Y-286646000D01*
%TO.C,D41*%
X138973000Y-286646000D02*
X140173000Y-286646000D01*
X138973000Y-284796000D02*
X138973000Y-286646000D01*
X140173000Y-284796000D02*
X140173000Y-286646000D01*
%TO.C,D40*%
X119796000Y-286646000D02*
X120996000Y-286646000D01*
X119796000Y-284796000D02*
X119796000Y-286646000D01*
X120996000Y-284796000D02*
X120996000Y-286646000D01*
%TO.C,D39*%
X100873000Y-286581000D02*
X102073000Y-286581000D01*
X100873000Y-284731000D02*
X100873000Y-286581000D01*
X102073000Y-284731000D02*
X102073000Y-286581000D01*
%TO.C,D38*%
X81823000Y-286581000D02*
X83023000Y-286581000D01*
X81823000Y-284731000D02*
X81823000Y-286581000D01*
X83023000Y-284731000D02*
X83023000Y-286581000D01*
%TO.C,D37*%
X62773000Y-286581000D02*
X63973000Y-286581000D01*
X62773000Y-284731000D02*
X62773000Y-286581000D01*
X63973000Y-284731000D02*
X63973000Y-286581000D01*
%TO.C,D36*%
X296199000Y-305696000D02*
X297399000Y-305696000D01*
X296199000Y-303846000D02*
X296199000Y-305696000D01*
X297399000Y-303846000D02*
X297399000Y-305696000D01*
%TO.C,D35*%
X277149000Y-305696000D02*
X278349000Y-305696000D01*
X277149000Y-303846000D02*
X277149000Y-305696000D01*
X278349000Y-303846000D02*
X278349000Y-305696000D01*
%TO.C,D34*%
X258099000Y-305696000D02*
X259299000Y-305696000D01*
X258099000Y-303846000D02*
X258099000Y-305696000D01*
X259299000Y-303846000D02*
X259299000Y-305696000D01*
%TO.C,D33*%
X239176000Y-305696000D02*
X240376000Y-305696000D01*
X239176000Y-303846000D02*
X239176000Y-305696000D01*
X240376000Y-303846000D02*
X240376000Y-305696000D01*
%TO.C,D32*%
X219999000Y-305696000D02*
X221199000Y-305696000D01*
X219999000Y-303846000D02*
X219999000Y-305696000D01*
X221199000Y-303846000D02*
X221199000Y-305696000D01*
%TO.C,D31*%
X200822000Y-305696000D02*
X202022000Y-305696000D01*
X200822000Y-303846000D02*
X200822000Y-305696000D01*
X202022000Y-303846000D02*
X202022000Y-305696000D01*
%TO.C,D30*%
X181772000Y-305696000D02*
X182972000Y-305696000D01*
X181772000Y-303846000D02*
X181772000Y-305696000D01*
X182972000Y-303846000D02*
X182972000Y-305696000D01*
%TO.C,D29*%
X162722000Y-305696000D02*
X163922000Y-305696000D01*
X162722000Y-303846000D02*
X162722000Y-305696000D01*
X163922000Y-303846000D02*
X163922000Y-305696000D01*
%TO.C,D28*%
X143799000Y-305696000D02*
X144999000Y-305696000D01*
X143799000Y-303846000D02*
X143799000Y-305696000D01*
X144999000Y-303846000D02*
X144999000Y-305696000D01*
%TO.C,D27*%
X124749000Y-305696000D02*
X125949000Y-305696000D01*
X124749000Y-303846000D02*
X124749000Y-305696000D01*
X125949000Y-303846000D02*
X125949000Y-305696000D01*
%TO.C,D26*%
X105572000Y-305696000D02*
X106772000Y-305696000D01*
X105572000Y-303846000D02*
X105572000Y-305696000D01*
X106772000Y-303846000D02*
X106772000Y-305696000D01*
%TO.C,D25*%
X86522000Y-305696000D02*
X87722000Y-305696000D01*
X86522000Y-303846000D02*
X86522000Y-305696000D01*
X87722000Y-303846000D02*
X87722000Y-305696000D01*
%TO.C,D24*%
X68234000Y-312997000D02*
X69434000Y-312997000D01*
X68234000Y-311147000D02*
X68234000Y-312997000D01*
X69434000Y-311147000D02*
X69434000Y-312997000D01*
%TO.C,D23*%
X367446000Y-324746000D02*
X368646000Y-324746000D01*
X367446000Y-322896000D02*
X367446000Y-324746000D01*
X368646000Y-322896000D02*
X368646000Y-324746000D01*
%TO.C,D22*%
X367446000Y-305696000D02*
X368646000Y-305696000D01*
X367446000Y-303846000D02*
X367446000Y-305696000D01*
X368646000Y-303846000D02*
X368646000Y-305696000D01*
%TO.C,D21*%
X348269000Y-324046000D02*
X349469000Y-324046000D01*
X348269000Y-322196000D02*
X348269000Y-324046000D01*
X349469000Y-322196000D02*
X349469000Y-324046000D01*
%TO.C,D20*%
X386496000Y-324746000D02*
X387696000Y-324746000D01*
X386496000Y-322896000D02*
X386496000Y-324746000D01*
X387696000Y-322896000D02*
X387696000Y-324746000D01*
%TO.C,D8*%
X76997000Y-324746000D02*
X78197000Y-324746000D01*
X76997000Y-322896000D02*
X76997000Y-324746000D01*
X78197000Y-322896000D02*
X78197000Y-324746000D01*
%TO.C,D19*%
X267497000Y-324746000D02*
X268697000Y-324746000D01*
X267497000Y-322896000D02*
X267497000Y-324746000D01*
X268697000Y-322896000D02*
X268697000Y-324746000D01*
%TO.C,D18*%
X248447000Y-324811000D02*
X249647000Y-324811000D01*
X248447000Y-322961000D02*
X248447000Y-324811000D01*
X249647000Y-322961000D02*
X249647000Y-324811000D01*
%TO.C,D17*%
X229397000Y-324811000D02*
X230597000Y-324811000D01*
X229397000Y-322961000D02*
X229397000Y-324811000D01*
X230597000Y-322961000D02*
X230597000Y-324811000D01*
%TO.C,D16*%
X210347000Y-324746000D02*
X211547000Y-324746000D01*
X210347000Y-322896000D02*
X210347000Y-324746000D01*
X211547000Y-322896000D02*
X211547000Y-324746000D01*
%TO.C,D15*%
X191170000Y-324808000D02*
X192370000Y-324808000D01*
X191170000Y-322958000D02*
X191170000Y-324808000D01*
X192370000Y-322958000D02*
X192370000Y-324808000D01*
%TO.C,D14*%
X172247000Y-324811000D02*
X173447000Y-324811000D01*
X172247000Y-322961000D02*
X172247000Y-324811000D01*
X173447000Y-322961000D02*
X173447000Y-324811000D01*
%TO.C,D13*%
X173517000Y-341321000D02*
X174717000Y-341321000D01*
X173517000Y-339471000D02*
X173517000Y-341321000D01*
X174717000Y-339471000D02*
X174717000Y-341321000D01*
%TO.C,D12*%
X153070000Y-324811000D02*
X154270000Y-324811000D01*
X153070000Y-322961000D02*
X153070000Y-324811000D01*
X154270000Y-322961000D02*
X154270000Y-324811000D01*
%TO.C,D11*%
X134147000Y-324681000D02*
X135347000Y-324681000D01*
X134147000Y-322831000D02*
X134147000Y-324681000D01*
X135347000Y-322831000D02*
X135347000Y-324681000D01*
%TO.C,D10*%
X114970000Y-324746000D02*
X116170000Y-324746000D01*
X114970000Y-322896000D02*
X114970000Y-324746000D01*
X116170000Y-322896000D02*
X116170000Y-324746000D01*
%TO.C,D9*%
X95920000Y-324684000D02*
X97120000Y-324684000D01*
X95920000Y-322834000D02*
X95920000Y-324684000D01*
X97120000Y-322834000D02*
X97120000Y-324684000D01*
%TO.C,J5*%
X382370000Y-229530000D02*
X382370000Y-228200000D01*
X383700000Y-229530000D02*
X382370000Y-229530000D01*
X384970000Y-229530000D02*
X384970000Y-226870000D01*
X384970000Y-226870000D02*
X387570000Y-226870000D01*
X384970000Y-229530000D02*
X387570000Y-229530000D01*
X387570000Y-229530000D02*
X387570000Y-226870000D01*
%TO.C,Y2*%
X346473300Y-249031800D02*
X341473300Y-249031800D01*
X346473300Y-245611800D02*
X341473300Y-245611800D01*
%TO.C,D1*%
X62673000Y-304083000D02*
X61873000Y-304083000D01*
X61873000Y-304083000D02*
X61873000Y-300183000D01*
X64873000Y-304083000D02*
X64873000Y-300183000D01*
%TO.C,D7*%
X462649000Y-253325000D02*
X462649000Y-249425000D01*
X459649000Y-253325000D02*
X459649000Y-249425000D01*
X460449000Y-253325000D02*
X459649000Y-253325000D01*
%TO.C,D6*%
X458585000Y-253325000D02*
X458585000Y-249425000D01*
X455585000Y-253325000D02*
X455585000Y-249425000D01*
X456385000Y-253325000D02*
X455585000Y-253325000D01*
%TO.C,D5*%
X452383000Y-253338000D02*
X451583000Y-253338000D01*
X451583000Y-253338000D02*
X451583000Y-249438000D01*
X454583000Y-253338000D02*
X454583000Y-249438000D01*
%TO.C,J4*%
X395270000Y-229530000D02*
X395270000Y-228200000D01*
X396600000Y-229530000D02*
X395270000Y-229530000D01*
X397870000Y-229530000D02*
X397870000Y-226870000D01*
X397870000Y-226870000D02*
X415710000Y-226870000D01*
X397870000Y-229530000D02*
X415710000Y-229530000D01*
X415710000Y-229530000D02*
X415710000Y-226870000D01*
D12*
%TO.C,U2*%
X337573400Y-228104200D02*
X336298400Y-228104200D01*
X351923400Y-227529200D02*
X351248400Y-227529200D01*
X351923400Y-241879200D02*
X351248400Y-241879200D01*
X337573400Y-241879200D02*
X338248400Y-241879200D01*
X337573400Y-227529200D02*
X338248400Y-227529200D01*
X337573400Y-241879200D02*
X337573400Y-241204200D01*
X351923400Y-241879200D02*
X351923400Y-241204200D01*
X351923400Y-227529200D02*
X351923400Y-228204200D01*
X337573400Y-227529200D02*
X337573400Y-228104200D01*
D11*
%TO.C,J3*%
X366870000Y-237930000D02*
X366870000Y-236600000D01*
X368200000Y-237930000D02*
X366870000Y-237930000D01*
X366870000Y-235330000D02*
X366870000Y-232730000D01*
X369470000Y-235330000D02*
X366870000Y-235330000D01*
X369470000Y-237930000D02*
X369470000Y-235330000D01*
X366870000Y-232730000D02*
X374610000Y-232730000D01*
X369470000Y-237930000D02*
X374610000Y-237930000D01*
X374610000Y-237930000D02*
X374610000Y-232730000D01*
%TO.C,J2*%
X319000000Y-240410000D02*
X318500000Y-239910000D01*
X318000000Y-240410000D02*
X319000000Y-240410000D01*
X318500000Y-239910000D02*
X318000000Y-240410000D01*
X325860000Y-223090000D02*
X325860000Y-231060000D01*
X313640000Y-223090000D02*
X313640000Y-231060000D01*
X325860000Y-223090000D02*
X313640000Y-223090000D01*
X313640000Y-239710000D02*
X313640000Y-235960000D01*
X325860000Y-239710000D02*
X325860000Y-235960000D01*
X325860000Y-239710000D02*
X313640000Y-239710000D01*
%TO.C,C6*%
X372461252Y-229740000D02*
X371938748Y-229740000D01*
X372461252Y-231160000D02*
X371938748Y-231160000D01*
%TO.C,C5*%
X332761252Y-232340000D02*
X332238748Y-232340000D01*
X332761252Y-233760000D02*
X332238748Y-233760000D01*
%TO.C,C4*%
X338784948Y-248006400D02*
X339307452Y-248006400D01*
X338784948Y-246586400D02*
X339307452Y-246586400D01*
%TO.C,C3*%
X348660248Y-248069900D02*
X349182752Y-248069900D01*
X348660248Y-246649900D02*
X349182752Y-246649900D01*
%TO.C,D2*%
X67823200Y-307102000D02*
X67823200Y-309962000D01*
X67823200Y-309962000D02*
X69743200Y-309962000D01*
X69743200Y-309962000D02*
X69743200Y-307102000D01*
D12*
%TO.C,J1*%
X321350000Y-256150000D02*
X321350000Y-264150000D01*
X321350000Y-264150000D02*
X363100000Y-264150000D01*
X363100000Y-264150000D02*
X363100000Y-256150000D01*
X363100000Y-256150000D02*
X321350000Y-256150000D01*
D11*
X321350000Y-256150000D02*
X321350000Y-251150000D01*
X321350000Y-251150000D02*
X362850000Y-251150000D01*
X363100000Y-256150000D02*
X363100000Y-251150000D01*
X363100000Y-251150000D02*
X362850000Y-251150000D01*
%TO.C,R11*%
D12*
X364434380Y-240418857D02*
X363958190Y-240752190D01*
X364434380Y-240990285D02*
X363434380Y-240990285D01*
X363434380Y-240609333D01*
X363482000Y-240514095D01*
X363529619Y-240466476D01*
X363624857Y-240418857D01*
X363767714Y-240418857D01*
X363862952Y-240466476D01*
X363910571Y-240514095D01*
X363958190Y-240609333D01*
X363958190Y-240990285D01*
X364434380Y-239466476D02*
X364434380Y-240037904D01*
X364434380Y-239752190D02*
X363434380Y-239752190D01*
X363577238Y-239847428D01*
X363672476Y-239942666D01*
X363720095Y-240037904D01*
X364434380Y-238514095D02*
X364434380Y-239085523D01*
X364434380Y-238799809D02*
X363434380Y-238799809D01*
X363577238Y-238895047D01*
X363672476Y-238990285D01*
X363720095Y-239085523D01*
%TO.C,R10*%
X362275380Y-240545857D02*
X361799190Y-240879190D01*
X362275380Y-241117285D02*
X361275380Y-241117285D01*
X361275380Y-240736333D01*
X361323000Y-240641095D01*
X361370619Y-240593476D01*
X361465857Y-240545857D01*
X361608714Y-240545857D01*
X361703952Y-240593476D01*
X361751571Y-240641095D01*
X361799190Y-240736333D01*
X361799190Y-241117285D01*
X362275380Y-239593476D02*
X362275380Y-240164904D01*
X362275380Y-239879190D02*
X361275380Y-239879190D01*
X361418238Y-239974428D01*
X361513476Y-240069666D01*
X361561095Y-240164904D01*
X361275380Y-238974428D02*
X361275380Y-238879190D01*
X361323000Y-238783952D01*
X361370619Y-238736333D01*
X361465857Y-238688714D01*
X361656333Y-238641095D01*
X361894428Y-238641095D01*
X362084904Y-238688714D01*
X362180142Y-238736333D01*
X362227761Y-238783952D01*
X362275380Y-238879190D01*
X362275380Y-238974428D01*
X362227761Y-239069666D01*
X362180142Y-239117285D01*
X362084904Y-239164904D01*
X361894428Y-239212523D01*
X361656333Y-239212523D01*
X361465857Y-239164904D01*
X361370619Y-239117285D01*
X361323000Y-239069666D01*
X361275380Y-238974428D01*
%TO.C,R9*%
X419187333Y-231338380D02*
X418854000Y-230862190D01*
X418615904Y-231338380D02*
X418615904Y-230338380D01*
X418996857Y-230338380D01*
X419092095Y-230386000D01*
X419139714Y-230433619D01*
X419187333Y-230528857D01*
X419187333Y-230671714D01*
X419139714Y-230766952D01*
X419092095Y-230814571D01*
X418996857Y-230862190D01*
X418615904Y-230862190D01*
X419663523Y-231338380D02*
X419854000Y-231338380D01*
X419949238Y-231290761D01*
X419996857Y-231243142D01*
X420092095Y-231100285D01*
X420139714Y-230909809D01*
X420139714Y-230528857D01*
X420092095Y-230433619D01*
X420044476Y-230386000D01*
X419949238Y-230338380D01*
X419758761Y-230338380D01*
X419663523Y-230386000D01*
X419615904Y-230433619D01*
X419568285Y-230528857D01*
X419568285Y-230766952D01*
X419615904Y-230862190D01*
X419663523Y-230909809D01*
X419758761Y-230957428D01*
X419949238Y-230957428D01*
X420044476Y-230909809D01*
X420092095Y-230862190D01*
X420139714Y-230766952D01*
%TO.C,R8*%
X419187333Y-237052380D02*
X418854000Y-236576190D01*
X418615904Y-237052380D02*
X418615904Y-236052380D01*
X418996857Y-236052380D01*
X419092095Y-236100000D01*
X419139714Y-236147619D01*
X419187333Y-236242857D01*
X419187333Y-236385714D01*
X419139714Y-236480952D01*
X419092095Y-236528571D01*
X418996857Y-236576190D01*
X418615904Y-236576190D01*
X419758761Y-236480952D02*
X419663523Y-236433333D01*
X419615904Y-236385714D01*
X419568285Y-236290476D01*
X419568285Y-236242857D01*
X419615904Y-236147619D01*
X419663523Y-236100000D01*
X419758761Y-236052380D01*
X419949238Y-236052380D01*
X420044476Y-236100000D01*
X420092095Y-236147619D01*
X420139714Y-236242857D01*
X420139714Y-236290476D01*
X420092095Y-236385714D01*
X420044476Y-236433333D01*
X419949238Y-236480952D01*
X419758761Y-236480952D01*
X419663523Y-236528571D01*
X419615904Y-236576190D01*
X419568285Y-236671428D01*
X419568285Y-236861904D01*
X419615904Y-236957142D01*
X419663523Y-237004761D01*
X419758761Y-237052380D01*
X419949238Y-237052380D01*
X420044476Y-237004761D01*
X420092095Y-236957142D01*
X420139714Y-236861904D01*
X420139714Y-236671428D01*
X420092095Y-236576190D01*
X420044476Y-236528571D01*
X419949238Y-236480952D01*
%TO.C,C16*%
X420994642Y-246257142D02*
X420947023Y-246304761D01*
X420804166Y-246352380D01*
X420708928Y-246352380D01*
X420566071Y-246304761D01*
X420470833Y-246209523D01*
X420423214Y-246114285D01*
X420375595Y-245923809D01*
X420375595Y-245780952D01*
X420423214Y-245590476D01*
X420470833Y-245495238D01*
X420566071Y-245400000D01*
X420708928Y-245352380D01*
X420804166Y-245352380D01*
X420947023Y-245400000D01*
X420994642Y-245447619D01*
X421947023Y-246352380D02*
X421375595Y-246352380D01*
X421661309Y-246352380D02*
X421661309Y-245352380D01*
X421566071Y-245495238D01*
X421470833Y-245590476D01*
X421375595Y-245638095D01*
X422804166Y-245352380D02*
X422613690Y-245352380D01*
X422518452Y-245400000D01*
X422470833Y-245447619D01*
X422375595Y-245590476D01*
X422327976Y-245780952D01*
X422327976Y-246161904D01*
X422375595Y-246257142D01*
X422423214Y-246304761D01*
X422518452Y-246352380D01*
X422708928Y-246352380D01*
X422804166Y-246304761D01*
X422851785Y-246257142D01*
X422899404Y-246161904D01*
X422899404Y-245923809D01*
X422851785Y-245828571D01*
X422804166Y-245780952D01*
X422708928Y-245733333D01*
X422518452Y-245733333D01*
X422423214Y-245780952D01*
X422375595Y-245828571D01*
X422327976Y-245923809D01*
%TO.C,C15*%
X420994642Y-254357142D02*
X420947023Y-254404761D01*
X420804166Y-254452380D01*
X420708928Y-254452380D01*
X420566071Y-254404761D01*
X420470833Y-254309523D01*
X420423214Y-254214285D01*
X420375595Y-254023809D01*
X420375595Y-253880952D01*
X420423214Y-253690476D01*
X420470833Y-253595238D01*
X420566071Y-253500000D01*
X420708928Y-253452380D01*
X420804166Y-253452380D01*
X420947023Y-253500000D01*
X420994642Y-253547619D01*
X421947023Y-254452380D02*
X421375595Y-254452380D01*
X421661309Y-254452380D02*
X421661309Y-253452380D01*
X421566071Y-253595238D01*
X421470833Y-253690476D01*
X421375595Y-253738095D01*
X422851785Y-253452380D02*
X422375595Y-253452380D01*
X422327976Y-253928571D01*
X422375595Y-253880952D01*
X422470833Y-253833333D01*
X422708928Y-253833333D01*
X422804166Y-253880952D01*
X422851785Y-253928571D01*
X422899404Y-254023809D01*
X422899404Y-254261904D01*
X422851785Y-254357142D01*
X422804166Y-254404761D01*
X422708928Y-254452380D01*
X422470833Y-254452380D01*
X422375595Y-254404761D01*
X422327976Y-254357142D01*
%TO.C,R7*%
X427952380Y-253866666D02*
X427476190Y-254200000D01*
X427952380Y-254438095D02*
X426952380Y-254438095D01*
X426952380Y-254057142D01*
X427000000Y-253961904D01*
X427047619Y-253914285D01*
X427142857Y-253866666D01*
X427285714Y-253866666D01*
X427380952Y-253914285D01*
X427428571Y-253961904D01*
X427476190Y-254057142D01*
X427476190Y-254438095D01*
X426952380Y-253533333D02*
X426952380Y-252866666D01*
X427952380Y-253295238D01*
%TO.C,R6*%
X410183333Y-234302380D02*
X409850000Y-233826190D01*
X409611904Y-234302380D02*
X409611904Y-233302380D01*
X409992857Y-233302380D01*
X410088095Y-233350000D01*
X410135714Y-233397619D01*
X410183333Y-233492857D01*
X410183333Y-233635714D01*
X410135714Y-233730952D01*
X410088095Y-233778571D01*
X409992857Y-233826190D01*
X409611904Y-233826190D01*
X411040476Y-233302380D02*
X410850000Y-233302380D01*
X410754761Y-233350000D01*
X410707142Y-233397619D01*
X410611904Y-233540476D01*
X410564285Y-233730952D01*
X410564285Y-234111904D01*
X410611904Y-234207142D01*
X410659523Y-234254761D01*
X410754761Y-234302380D01*
X410945238Y-234302380D01*
X411040476Y-234254761D01*
X411088095Y-234207142D01*
X411135714Y-234111904D01*
X411135714Y-233873809D01*
X411088095Y-233778571D01*
X411040476Y-233730952D01*
X410945238Y-233683333D01*
X410754761Y-233683333D01*
X410659523Y-233730952D01*
X410611904Y-233778571D01*
X410564285Y-233873809D01*
%TO.C,R5*%
X370883333Y-243002380D02*
X370550000Y-242526190D01*
X370311904Y-243002380D02*
X370311904Y-242002380D01*
X370692857Y-242002380D01*
X370788095Y-242050000D01*
X370835714Y-242097619D01*
X370883333Y-242192857D01*
X370883333Y-242335714D01*
X370835714Y-242430952D01*
X370788095Y-242478571D01*
X370692857Y-242526190D01*
X370311904Y-242526190D01*
X371788095Y-242002380D02*
X371311904Y-242002380D01*
X371264285Y-242478571D01*
X371311904Y-242430952D01*
X371407142Y-242383333D01*
X371645238Y-242383333D01*
X371740476Y-242430952D01*
X371788095Y-242478571D01*
X371835714Y-242573809D01*
X371835714Y-242811904D01*
X371788095Y-242907142D01*
X371740476Y-242954761D01*
X371645238Y-243002380D01*
X371407142Y-243002380D01*
X371311904Y-242954761D01*
X371264285Y-242907142D01*
%TO.C,R4*%
X323652380Y-243566666D02*
X323176190Y-243900000D01*
X323652380Y-244138095D02*
X322652380Y-244138095D01*
X322652380Y-243757142D01*
X322700000Y-243661904D01*
X322747619Y-243614285D01*
X322842857Y-243566666D01*
X322985714Y-243566666D01*
X323080952Y-243614285D01*
X323128571Y-243661904D01*
X323176190Y-243757142D01*
X323176190Y-244138095D01*
X322985714Y-242709523D02*
X323652380Y-242709523D01*
X322604761Y-242947619D02*
X323319047Y-243185714D01*
X323319047Y-242566666D01*
%TO.C,R3*%
X318052380Y-243466666D02*
X317576190Y-243800000D01*
X318052380Y-244038095D02*
X317052380Y-244038095D01*
X317052380Y-243657142D01*
X317100000Y-243561904D01*
X317147619Y-243514285D01*
X317242857Y-243466666D01*
X317385714Y-243466666D01*
X317480952Y-243514285D01*
X317528571Y-243561904D01*
X317576190Y-243657142D01*
X317576190Y-244038095D01*
X317052380Y-243133333D02*
X317052380Y-242514285D01*
X317433333Y-242847619D01*
X317433333Y-242704761D01*
X317480952Y-242609523D01*
X317528571Y-242561904D01*
X317623809Y-242514285D01*
X317861904Y-242514285D01*
X317957142Y-242561904D01*
X318004761Y-242609523D01*
X318052380Y-242704761D01*
X318052380Y-242990476D01*
X318004761Y-243085714D01*
X317957142Y-243133333D01*
%TO.C,R2*%
X367083333Y-250902380D02*
X366750000Y-250426190D01*
X366511904Y-250902380D02*
X366511904Y-249902380D01*
X366892857Y-249902380D01*
X366988095Y-249950000D01*
X367035714Y-249997619D01*
X367083333Y-250092857D01*
X367083333Y-250235714D01*
X367035714Y-250330952D01*
X366988095Y-250378571D01*
X366892857Y-250426190D01*
X366511904Y-250426190D01*
X367464285Y-249997619D02*
X367511904Y-249950000D01*
X367607142Y-249902380D01*
X367845238Y-249902380D01*
X367940476Y-249950000D01*
X367988095Y-249997619D01*
X368035714Y-250092857D01*
X368035714Y-250188095D01*
X367988095Y-250330952D01*
X367416666Y-250902380D01*
X368035714Y-250902380D01*
%TO.C,R1*%
X375602380Y-252241666D02*
X375126190Y-252575000D01*
X375602380Y-252813095D02*
X374602380Y-252813095D01*
X374602380Y-252432142D01*
X374650000Y-252336904D01*
X374697619Y-252289285D01*
X374792857Y-252241666D01*
X374935714Y-252241666D01*
X375030952Y-252289285D01*
X375078571Y-252336904D01*
X375126190Y-252432142D01*
X375126190Y-252813095D01*
X375602380Y-251289285D02*
X375602380Y-251860714D01*
X375602380Y-251575000D02*
X374602380Y-251575000D01*
X374745238Y-251670238D01*
X374840476Y-251765476D01*
X374888095Y-251860714D01*
%TO.C,Q1*%
X372154761Y-255147619D02*
X372059523Y-255100000D01*
X371964285Y-255004761D01*
X371821428Y-254861904D01*
X371726190Y-254814285D01*
X371630952Y-254814285D01*
X371678571Y-255052380D02*
X371583333Y-255004761D01*
X371488095Y-254909523D01*
X371440476Y-254719047D01*
X371440476Y-254385714D01*
X371488095Y-254195238D01*
X371583333Y-254100000D01*
X371678571Y-254052380D01*
X371869047Y-254052380D01*
X371964285Y-254100000D01*
X372059523Y-254195238D01*
X372107142Y-254385714D01*
X372107142Y-254719047D01*
X372059523Y-254909523D01*
X371964285Y-255004761D01*
X371869047Y-255052380D01*
X371678571Y-255052380D01*
X373059523Y-255052380D02*
X372488095Y-255052380D01*
X372773809Y-255052380D02*
X372773809Y-254052380D01*
X372678571Y-254195238D01*
X372583333Y-254290476D01*
X372488095Y-254338095D01*
%TO.C,H19*%
X396211904Y-252152380D02*
X396211904Y-251152380D01*
X396211904Y-251628571D02*
X396783333Y-251628571D01*
X396783333Y-252152380D02*
X396783333Y-251152380D01*
X397783333Y-252152380D02*
X397211904Y-252152380D01*
X397497619Y-252152380D02*
X397497619Y-251152380D01*
X397402380Y-251295238D01*
X397307142Y-251390476D01*
X397211904Y-251438095D01*
X398259523Y-252152380D02*
X398450000Y-252152380D01*
X398545238Y-252104761D01*
X398592857Y-252057142D01*
X398688095Y-251914285D01*
X398735714Y-251723809D01*
X398735714Y-251342857D01*
X398688095Y-251247619D01*
X398640476Y-251200000D01*
X398545238Y-251152380D01*
X398354761Y-251152380D01*
X398259523Y-251200000D01*
X398211904Y-251247619D01*
X398164285Y-251342857D01*
X398164285Y-251580952D01*
X398211904Y-251676190D01*
X398259523Y-251723809D01*
X398354761Y-251771428D01*
X398545238Y-251771428D01*
X398640476Y-251723809D01*
X398688095Y-251676190D01*
X398735714Y-251580952D01*
%TO.C,H18*%
X467461904Y-228902380D02*
X467461904Y-227902380D01*
X467461904Y-228378571D02*
X468033333Y-228378571D01*
X468033333Y-228902380D02*
X468033333Y-227902380D01*
X469033333Y-228902380D02*
X468461904Y-228902380D01*
X468747619Y-228902380D02*
X468747619Y-227902380D01*
X468652380Y-228045238D01*
X468557142Y-228140476D01*
X468461904Y-228188095D01*
X469604761Y-228330952D02*
X469509523Y-228283333D01*
X469461904Y-228235714D01*
X469414285Y-228140476D01*
X469414285Y-228092857D01*
X469461904Y-227997619D01*
X469509523Y-227950000D01*
X469604761Y-227902380D01*
X469795238Y-227902380D01*
X469890476Y-227950000D01*
X469938095Y-227997619D01*
X469985714Y-228092857D01*
X469985714Y-228140476D01*
X469938095Y-228235714D01*
X469890476Y-228283333D01*
X469795238Y-228330952D01*
X469604761Y-228330952D01*
X469509523Y-228378571D01*
X469461904Y-228426190D01*
X469414285Y-228521428D01*
X469414285Y-228711904D01*
X469461904Y-228807142D01*
X469509523Y-228854761D01*
X469604761Y-228902380D01*
X469795238Y-228902380D01*
X469890476Y-228854761D01*
X469938095Y-228807142D01*
X469985714Y-228711904D01*
X469985714Y-228521428D01*
X469938095Y-228426190D01*
X469890476Y-228378571D01*
X469795238Y-228330952D01*
%TO.C,H17*%
X467461904Y-255902380D02*
X467461904Y-254902380D01*
X467461904Y-255378571D02*
X468033333Y-255378571D01*
X468033333Y-255902380D02*
X468033333Y-254902380D01*
X469033333Y-255902380D02*
X468461904Y-255902380D01*
X468747619Y-255902380D02*
X468747619Y-254902380D01*
X468652380Y-255045238D01*
X468557142Y-255140476D01*
X468461904Y-255188095D01*
X469366666Y-254902380D02*
X470033333Y-254902380D01*
X469604761Y-255902380D01*
%TO.C,H16*%
X305961904Y-228902380D02*
X305961904Y-227902380D01*
X305961904Y-228378571D02*
X306533333Y-228378571D01*
X306533333Y-228902380D02*
X306533333Y-227902380D01*
X307533333Y-228902380D02*
X306961904Y-228902380D01*
X307247619Y-228902380D02*
X307247619Y-227902380D01*
X307152380Y-228045238D01*
X307057142Y-228140476D01*
X306961904Y-228188095D01*
X308390476Y-227902380D02*
X308200000Y-227902380D01*
X308104761Y-227950000D01*
X308057142Y-227997619D01*
X307961904Y-228140476D01*
X307914285Y-228330952D01*
X307914285Y-228711904D01*
X307961904Y-228807142D01*
X308009523Y-228854761D01*
X308104761Y-228902380D01*
X308295238Y-228902380D01*
X308390476Y-228854761D01*
X308438095Y-228807142D01*
X308485714Y-228711904D01*
X308485714Y-228473809D01*
X308438095Y-228378571D01*
X308390476Y-228330952D01*
X308295238Y-228283333D01*
X308104761Y-228283333D01*
X308009523Y-228330952D01*
X307961904Y-228378571D01*
X307914285Y-228473809D01*
%TO.C,H15*%
X305961904Y-255902380D02*
X305961904Y-254902380D01*
X305961904Y-255378571D02*
X306533333Y-255378571D01*
X306533333Y-255902380D02*
X306533333Y-254902380D01*
X307533333Y-255902380D02*
X306961904Y-255902380D01*
X307247619Y-255902380D02*
X307247619Y-254902380D01*
X307152380Y-255045238D01*
X307057142Y-255140476D01*
X306961904Y-255188095D01*
X308438095Y-254902380D02*
X307961904Y-254902380D01*
X307914285Y-255378571D01*
X307961904Y-255330952D01*
X308057142Y-255283333D01*
X308295238Y-255283333D01*
X308390476Y-255330952D01*
X308438095Y-255378571D01*
X308485714Y-255473809D01*
X308485714Y-255711904D01*
X308438095Y-255807142D01*
X308390476Y-255854761D01*
X308295238Y-255902380D01*
X308057142Y-255902380D01*
X307961904Y-255854761D01*
X307914285Y-255807142D01*
%TO.C,C9*%
X435108333Y-257957142D02*
X435060714Y-258004761D01*
X434917857Y-258052380D01*
X434822619Y-258052380D01*
X434679761Y-258004761D01*
X434584523Y-257909523D01*
X434536904Y-257814285D01*
X434489285Y-257623809D01*
X434489285Y-257480952D01*
X434536904Y-257290476D01*
X434584523Y-257195238D01*
X434679761Y-257100000D01*
X434822619Y-257052380D01*
X434917857Y-257052380D01*
X435060714Y-257100000D01*
X435108333Y-257147619D01*
X435584523Y-258052380D02*
X435775000Y-258052380D01*
X435870238Y-258004761D01*
X435917857Y-257957142D01*
X436013095Y-257814285D01*
X436060714Y-257623809D01*
X436060714Y-257242857D01*
X436013095Y-257147619D01*
X435965476Y-257100000D01*
X435870238Y-257052380D01*
X435679761Y-257052380D01*
X435584523Y-257100000D01*
X435536904Y-257147619D01*
X435489285Y-257242857D01*
X435489285Y-257480952D01*
X435536904Y-257576190D01*
X435584523Y-257623809D01*
X435679761Y-257671428D01*
X435870238Y-257671428D01*
X435965476Y-257623809D01*
X436013095Y-257576190D01*
X436060714Y-257480952D01*
%TO.C,C13*%
X427907142Y-251642857D02*
X427954761Y-251690476D01*
X428002380Y-251833333D01*
X428002380Y-251928571D01*
X427954761Y-252071428D01*
X427859523Y-252166666D01*
X427764285Y-252214285D01*
X427573809Y-252261904D01*
X427430952Y-252261904D01*
X427240476Y-252214285D01*
X427145238Y-252166666D01*
X427050000Y-252071428D01*
X427002380Y-251928571D01*
X427002380Y-251833333D01*
X427050000Y-251690476D01*
X427097619Y-251642857D01*
X428002380Y-250690476D02*
X428002380Y-251261904D01*
X428002380Y-250976190D02*
X427002380Y-250976190D01*
X427145238Y-251071428D01*
X427240476Y-251166666D01*
X427288095Y-251261904D01*
X427002380Y-250357142D02*
X427002380Y-249738095D01*
X427383333Y-250071428D01*
X427383333Y-249928571D01*
X427430952Y-249833333D01*
X427478571Y-249785714D01*
X427573809Y-249738095D01*
X427811904Y-249738095D01*
X427907142Y-249785714D01*
X427954761Y-249833333D01*
X428002380Y-249928571D01*
X428002380Y-250214285D01*
X427954761Y-250309523D01*
X427907142Y-250357142D01*
%TO.C,C14*%
X404757142Y-234157142D02*
X404709523Y-234204761D01*
X404566666Y-234252380D01*
X404471428Y-234252380D01*
X404328571Y-234204761D01*
X404233333Y-234109523D01*
X404185714Y-234014285D01*
X404138095Y-233823809D01*
X404138095Y-233680952D01*
X404185714Y-233490476D01*
X404233333Y-233395238D01*
X404328571Y-233300000D01*
X404471428Y-233252380D01*
X404566666Y-233252380D01*
X404709523Y-233300000D01*
X404757142Y-233347619D01*
X405709523Y-234252380D02*
X405138095Y-234252380D01*
X405423809Y-234252380D02*
X405423809Y-233252380D01*
X405328571Y-233395238D01*
X405233333Y-233490476D01*
X405138095Y-233538095D01*
X406566666Y-233585714D02*
X406566666Y-234252380D01*
X406328571Y-233204761D02*
X406090476Y-233919047D01*
X406709523Y-233919047D01*
%TO.C,H14*%
X462711904Y-354602380D02*
X462711904Y-353602380D01*
X462711904Y-354078571D02*
X463283333Y-354078571D01*
X463283333Y-354602380D02*
X463283333Y-353602380D01*
X464283333Y-354602380D02*
X463711904Y-354602380D01*
X463997619Y-354602380D02*
X463997619Y-353602380D01*
X463902380Y-353745238D01*
X463807142Y-353840476D01*
X463711904Y-353888095D01*
X465140476Y-353935714D02*
X465140476Y-354602380D01*
X464902380Y-353554761D02*
X464664285Y-354269047D01*
X465283333Y-354269047D01*
%TO.C,H13*%
X31261904Y-354602380D02*
X31261904Y-353602380D01*
X31261904Y-354078571D02*
X31833333Y-354078571D01*
X31833333Y-354602380D02*
X31833333Y-353602380D01*
X32833333Y-354602380D02*
X32261904Y-354602380D01*
X32547619Y-354602380D02*
X32547619Y-353602380D01*
X32452380Y-353745238D01*
X32357142Y-353840476D01*
X32261904Y-353888095D01*
X33166666Y-353602380D02*
X33785714Y-353602380D01*
X33452380Y-353983333D01*
X33595238Y-353983333D01*
X33690476Y-354030952D01*
X33738095Y-354078571D01*
X33785714Y-354173809D01*
X33785714Y-354411904D01*
X33738095Y-354507142D01*
X33690476Y-354554761D01*
X33595238Y-354602380D01*
X33309523Y-354602380D01*
X33214285Y-354554761D01*
X33166666Y-354507142D01*
%TO.C,H12*%
X470411904Y-318952380D02*
X470411904Y-317952380D01*
X470411904Y-318428571D02*
X470983333Y-318428571D01*
X470983333Y-318952380D02*
X470983333Y-317952380D01*
X471983333Y-318952380D02*
X471411904Y-318952380D01*
X471697619Y-318952380D02*
X471697619Y-317952380D01*
X471602380Y-318095238D01*
X471507142Y-318190476D01*
X471411904Y-318238095D01*
X472364285Y-318047619D02*
X472411904Y-318000000D01*
X472507142Y-317952380D01*
X472745238Y-317952380D01*
X472840476Y-318000000D01*
X472888095Y-318047619D01*
X472935714Y-318142857D01*
X472935714Y-318238095D01*
X472888095Y-318380952D01*
X472316666Y-318952380D01*
X472935714Y-318952380D01*
%TO.C,H11*%
X470411904Y-299852380D02*
X470411904Y-298852380D01*
X470411904Y-299328571D02*
X470983333Y-299328571D01*
X470983333Y-299852380D02*
X470983333Y-298852380D01*
X471983333Y-299852380D02*
X471411904Y-299852380D01*
X471697619Y-299852380D02*
X471697619Y-298852380D01*
X471602380Y-298995238D01*
X471507142Y-299090476D01*
X471411904Y-299138095D01*
X472935714Y-299852380D02*
X472364285Y-299852380D01*
X472650000Y-299852380D02*
X472650000Y-298852380D01*
X472554761Y-298995238D01*
X472459523Y-299090476D01*
X472364285Y-299138095D01*
%TO.C,H10*%
X470411904Y-280952380D02*
X470411904Y-279952380D01*
X470411904Y-280428571D02*
X470983333Y-280428571D01*
X470983333Y-280952380D02*
X470983333Y-279952380D01*
X471983333Y-280952380D02*
X471411904Y-280952380D01*
X471697619Y-280952380D02*
X471697619Y-279952380D01*
X471602380Y-280095238D01*
X471507142Y-280190476D01*
X471411904Y-280238095D01*
X472602380Y-279952380D02*
X472697619Y-279952380D01*
X472792857Y-280000000D01*
X472840476Y-280047619D01*
X472888095Y-280142857D01*
X472935714Y-280333333D01*
X472935714Y-280571428D01*
X472888095Y-280761904D01*
X472840476Y-280857142D01*
X472792857Y-280904761D01*
X472697619Y-280952380D01*
X472602380Y-280952380D01*
X472507142Y-280904761D01*
X472459523Y-280857142D01*
X472411904Y-280761904D01*
X472364285Y-280571428D01*
X472364285Y-280333333D01*
X472411904Y-280142857D01*
X472459523Y-280047619D01*
X472507142Y-280000000D01*
X472602380Y-279952380D01*
%TO.C,H9*%
X382938095Y-354602380D02*
X382938095Y-353602380D01*
X382938095Y-354078571D02*
X383509523Y-354078571D01*
X383509523Y-354602380D02*
X383509523Y-353602380D01*
X384033333Y-354602380D02*
X384223809Y-354602380D01*
X384319047Y-354554761D01*
X384366666Y-354507142D01*
X384461904Y-354364285D01*
X384509523Y-354173809D01*
X384509523Y-353792857D01*
X384461904Y-353697619D01*
X384414285Y-353650000D01*
X384319047Y-353602380D01*
X384128571Y-353602380D01*
X384033333Y-353650000D01*
X383985714Y-353697619D01*
X383938095Y-353792857D01*
X383938095Y-354030952D01*
X383985714Y-354126190D01*
X384033333Y-354173809D01*
X384128571Y-354221428D01*
X384319047Y-354221428D01*
X384414285Y-354173809D01*
X384461904Y-354126190D01*
X384509523Y-354030952D01*
%TO.C,H8*%
X313738095Y-354602380D02*
X313738095Y-353602380D01*
X313738095Y-354078571D02*
X314309523Y-354078571D01*
X314309523Y-354602380D02*
X314309523Y-353602380D01*
X314928571Y-354030952D02*
X314833333Y-353983333D01*
X314785714Y-353935714D01*
X314738095Y-353840476D01*
X314738095Y-353792857D01*
X314785714Y-353697619D01*
X314833333Y-353650000D01*
X314928571Y-353602380D01*
X315119047Y-353602380D01*
X315214285Y-353650000D01*
X315261904Y-353697619D01*
X315309523Y-353792857D01*
X315309523Y-353840476D01*
X315261904Y-353935714D01*
X315214285Y-353983333D01*
X315119047Y-354030952D01*
X314928571Y-354030952D01*
X314833333Y-354078571D01*
X314785714Y-354126190D01*
X314738095Y-354221428D01*
X314738095Y-354411904D01*
X314785714Y-354507142D01*
X314833333Y-354554761D01*
X314928571Y-354602380D01*
X315119047Y-354602380D01*
X315214285Y-354554761D01*
X315261904Y-354507142D01*
X315309523Y-354411904D01*
X315309523Y-354221428D01*
X315261904Y-354126190D01*
X315214285Y-354078571D01*
X315119047Y-354030952D01*
%TO.C,H7*%
X27038095Y-319002380D02*
X27038095Y-318002380D01*
X27038095Y-318478571D02*
X27609523Y-318478571D01*
X27609523Y-319002380D02*
X27609523Y-318002380D01*
X27990476Y-318002380D02*
X28657142Y-318002380D01*
X28228571Y-319002380D01*
%TO.C,H6*%
X27088095Y-299852380D02*
X27088095Y-298852380D01*
X27088095Y-299328571D02*
X27659523Y-299328571D01*
X27659523Y-299852380D02*
X27659523Y-298852380D01*
X28564285Y-298852380D02*
X28373809Y-298852380D01*
X28278571Y-298900000D01*
X28230952Y-298947619D01*
X28135714Y-299090476D01*
X28088095Y-299280952D01*
X28088095Y-299661904D01*
X28135714Y-299757142D01*
X28183333Y-299804761D01*
X28278571Y-299852380D01*
X28469047Y-299852380D01*
X28564285Y-299804761D01*
X28611904Y-299757142D01*
X28659523Y-299661904D01*
X28659523Y-299423809D01*
X28611904Y-299328571D01*
X28564285Y-299280952D01*
X28469047Y-299233333D01*
X28278571Y-299233333D01*
X28183333Y-299280952D01*
X28135714Y-299328571D01*
X28088095Y-299423809D01*
%TO.C,H5*%
X27088095Y-280802380D02*
X27088095Y-279802380D01*
X27088095Y-280278571D02*
X27659523Y-280278571D01*
X27659523Y-280802380D02*
X27659523Y-279802380D01*
X28611904Y-279802380D02*
X28135714Y-279802380D01*
X28088095Y-280278571D01*
X28135714Y-280230952D01*
X28230952Y-280183333D01*
X28469047Y-280183333D01*
X28564285Y-280230952D01*
X28611904Y-280278571D01*
X28659523Y-280373809D01*
X28659523Y-280611904D01*
X28611904Y-280707142D01*
X28564285Y-280754761D01*
X28469047Y-280802380D01*
X28230952Y-280802380D01*
X28135714Y-280754761D01*
X28088095Y-280707142D01*
%TO.C,H4*%
X464188095Y-240002380D02*
X464188095Y-239002380D01*
X464188095Y-239478571D02*
X464759523Y-239478571D01*
X464759523Y-240002380D02*
X464759523Y-239002380D01*
X465664285Y-239335714D02*
X465664285Y-240002380D01*
X465426190Y-238954761D02*
X465188095Y-239669047D01*
X465807142Y-239669047D01*
%TO.C,H3*%
X448288095Y-240002380D02*
X448288095Y-239002380D01*
X448288095Y-239478571D02*
X448859523Y-239478571D01*
X448859523Y-240002380D02*
X448859523Y-239002380D01*
X449240476Y-239002380D02*
X449859523Y-239002380D01*
X449526190Y-239383333D01*
X449669047Y-239383333D01*
X449764285Y-239430952D01*
X449811904Y-239478571D01*
X449859523Y-239573809D01*
X449859523Y-239811904D01*
X449811904Y-239907142D01*
X449764285Y-239954761D01*
X449669047Y-240002380D01*
X449383333Y-240002380D01*
X449288095Y-239954761D01*
X449240476Y-239907142D01*
%TO.C,H2*%
X448322095Y-247977380D02*
X448322095Y-246977380D01*
X448322095Y-247453571D02*
X448893523Y-247453571D01*
X448893523Y-247977380D02*
X448893523Y-246977380D01*
X449322095Y-247072619D02*
X449369714Y-247025000D01*
X449464952Y-246977380D01*
X449703047Y-246977380D01*
X449798285Y-247025000D01*
X449845904Y-247072619D01*
X449893523Y-247167857D01*
X449893523Y-247263095D01*
X449845904Y-247405952D01*
X449274476Y-247977380D01*
X449893523Y-247977380D01*
%TO.C,H1*%
X464188095Y-247977380D02*
X464188095Y-246977380D01*
X464188095Y-247453571D02*
X464759523Y-247453571D01*
X464759523Y-247977380D02*
X464759523Y-246977380D01*
X465759523Y-247977380D02*
X465188095Y-247977380D01*
X465473809Y-247977380D02*
X465473809Y-246977380D01*
X465378571Y-247120238D01*
X465283333Y-247215476D01*
X465188095Y-247263095D01*
%TO.C,C12*%
X427857142Y-247842857D02*
X427904761Y-247890476D01*
X427952380Y-248033333D01*
X427952380Y-248128571D01*
X427904761Y-248271428D01*
X427809523Y-248366666D01*
X427714285Y-248414285D01*
X427523809Y-248461904D01*
X427380952Y-248461904D01*
X427190476Y-248414285D01*
X427095238Y-248366666D01*
X427000000Y-248271428D01*
X426952380Y-248128571D01*
X426952380Y-248033333D01*
X427000000Y-247890476D01*
X427047619Y-247842857D01*
X427952380Y-246890476D02*
X427952380Y-247461904D01*
X427952380Y-247176190D02*
X426952380Y-247176190D01*
X427095238Y-247271428D01*
X427190476Y-247366666D01*
X427238095Y-247461904D01*
X427047619Y-246509523D02*
X427000000Y-246461904D01*
X426952380Y-246366666D01*
X426952380Y-246128571D01*
X427000000Y-246033333D01*
X427047619Y-245985714D01*
X427142857Y-245938095D01*
X427238095Y-245938095D01*
X427380952Y-245985714D01*
X427952380Y-246557142D01*
X427952380Y-245938095D01*
%TO.C,C11*%
X439757142Y-257957142D02*
X439709523Y-258004761D01*
X439566666Y-258052380D01*
X439471428Y-258052380D01*
X439328571Y-258004761D01*
X439233333Y-257909523D01*
X439185714Y-257814285D01*
X439138095Y-257623809D01*
X439138095Y-257480952D01*
X439185714Y-257290476D01*
X439233333Y-257195238D01*
X439328571Y-257100000D01*
X439471428Y-257052380D01*
X439566666Y-257052380D01*
X439709523Y-257100000D01*
X439757142Y-257147619D01*
X440709523Y-258052380D02*
X440138095Y-258052380D01*
X440423809Y-258052380D02*
X440423809Y-257052380D01*
X440328571Y-257195238D01*
X440233333Y-257290476D01*
X440138095Y-257338095D01*
X441661904Y-258052380D02*
X441090476Y-258052380D01*
X441376190Y-258052380D02*
X441376190Y-257052380D01*
X441280952Y-257195238D01*
X441185714Y-257290476D01*
X441090476Y-257338095D01*
%TO.C,C10*%
X436682142Y-236557142D02*
X436634523Y-236604761D01*
X436491666Y-236652380D01*
X436396428Y-236652380D01*
X436253571Y-236604761D01*
X436158333Y-236509523D01*
X436110714Y-236414285D01*
X436063095Y-236223809D01*
X436063095Y-236080952D01*
X436110714Y-235890476D01*
X436158333Y-235795238D01*
X436253571Y-235700000D01*
X436396428Y-235652380D01*
X436491666Y-235652380D01*
X436634523Y-235700000D01*
X436682142Y-235747619D01*
X437634523Y-236652380D02*
X437063095Y-236652380D01*
X437348809Y-236652380D02*
X437348809Y-235652380D01*
X437253571Y-235795238D01*
X437158333Y-235890476D01*
X437063095Y-235938095D01*
X438253571Y-235652380D02*
X438348809Y-235652380D01*
X438444047Y-235700000D01*
X438491666Y-235747619D01*
X438539285Y-235842857D01*
X438586904Y-236033333D01*
X438586904Y-236271428D01*
X438539285Y-236461904D01*
X438491666Y-236557142D01*
X438444047Y-236604761D01*
X438348809Y-236652380D01*
X438253571Y-236652380D01*
X438158333Y-236604761D01*
X438110714Y-236557142D01*
X438063095Y-236461904D01*
X438015476Y-236271428D01*
X438015476Y-236033333D01*
X438063095Y-235842857D01*
X438110714Y-235747619D01*
X438158333Y-235700000D01*
X438253571Y-235652380D01*
%TO.C,D50*%
X321579980Y-300262685D02*
X320579980Y-300262685D01*
X320579980Y-300024590D01*
X320627600Y-299881733D01*
X320722838Y-299786495D01*
X320818076Y-299738876D01*
X321008552Y-299691257D01*
X321151409Y-299691257D01*
X321341885Y-299738876D01*
X321437123Y-299786495D01*
X321532361Y-299881733D01*
X321579980Y-300024590D01*
X321579980Y-300262685D01*
X320579980Y-298786495D02*
X320579980Y-299262685D01*
X321056171Y-299310304D01*
X321008552Y-299262685D01*
X320960933Y-299167447D01*
X320960933Y-298929352D01*
X321008552Y-298834114D01*
X321056171Y-298786495D01*
X321151409Y-298738876D01*
X321389504Y-298738876D01*
X321484742Y-298786495D01*
X321532361Y-298834114D01*
X321579980Y-298929352D01*
X321579980Y-299167447D01*
X321532361Y-299262685D01*
X321484742Y-299310304D01*
X320579980Y-298119828D02*
X320579980Y-298024590D01*
X320627600Y-297929352D01*
X320675219Y-297881733D01*
X320770457Y-297834114D01*
X320960933Y-297786495D01*
X321199028Y-297786495D01*
X321389504Y-297834114D01*
X321484742Y-297881733D01*
X321532361Y-297929352D01*
X321579980Y-298024590D01*
X321579980Y-298119828D01*
X321532361Y-298215066D01*
X321484742Y-298262685D01*
X321389504Y-298310304D01*
X321199028Y-298357923D01*
X320960933Y-298357923D01*
X320770457Y-298310304D01*
X320675219Y-298262685D01*
X320627600Y-298215066D01*
X320579980Y-298119828D01*
%TO.C,U1*%
X435700595Y-252202380D02*
X435700595Y-253011904D01*
X435748214Y-253107142D01*
X435795833Y-253154761D01*
X435891071Y-253202380D01*
X436081547Y-253202380D01*
X436176785Y-253154761D01*
X436224404Y-253107142D01*
X436272023Y-253011904D01*
X436272023Y-252202380D01*
X437272023Y-253202380D02*
X436700595Y-253202380D01*
X436986309Y-253202380D02*
X436986309Y-252202380D01*
X436891071Y-252345238D01*
X436795833Y-252440476D01*
X436700595Y-252488095D01*
%TO.C,C8*%
X332358333Y-231007142D02*
X332310714Y-231054761D01*
X332167857Y-231102380D01*
X332072619Y-231102380D01*
X331929761Y-231054761D01*
X331834523Y-230959523D01*
X331786904Y-230864285D01*
X331739285Y-230673809D01*
X331739285Y-230530952D01*
X331786904Y-230340476D01*
X331834523Y-230245238D01*
X331929761Y-230150000D01*
X332072619Y-230102380D01*
X332167857Y-230102380D01*
X332310714Y-230150000D01*
X332358333Y-230197619D01*
X332929761Y-230530952D02*
X332834523Y-230483333D01*
X332786904Y-230435714D01*
X332739285Y-230340476D01*
X332739285Y-230292857D01*
X332786904Y-230197619D01*
X332834523Y-230150000D01*
X332929761Y-230102380D01*
X333120238Y-230102380D01*
X333215476Y-230150000D01*
X333263095Y-230197619D01*
X333310714Y-230292857D01*
X333310714Y-230340476D01*
X333263095Y-230435714D01*
X333215476Y-230483333D01*
X333120238Y-230530952D01*
X332929761Y-230530952D01*
X332834523Y-230578571D01*
X332786904Y-230626190D01*
X332739285Y-230721428D01*
X332739285Y-230911904D01*
X332786904Y-231007142D01*
X332834523Y-231054761D01*
X332929761Y-231102380D01*
X333120238Y-231102380D01*
X333215476Y-231054761D01*
X333263095Y-231007142D01*
X333310714Y-230911904D01*
X333310714Y-230721428D01*
X333263095Y-230626190D01*
X333215476Y-230578571D01*
X333120238Y-230530952D01*
%TO.C,C7*%
X427857142Y-242491666D02*
X427904761Y-242539285D01*
X427952380Y-242682142D01*
X427952380Y-242777380D01*
X427904761Y-242920238D01*
X427809523Y-243015476D01*
X427714285Y-243063095D01*
X427523809Y-243110714D01*
X427380952Y-243110714D01*
X427190476Y-243063095D01*
X427095238Y-243015476D01*
X427000000Y-242920238D01*
X426952380Y-242777380D01*
X426952380Y-242682142D01*
X427000000Y-242539285D01*
X427047619Y-242491666D01*
X426952380Y-242158333D02*
X426952380Y-241491666D01*
X427952380Y-241920238D01*
%TO.C,C2*%
X332358333Y-240757142D02*
X332310714Y-240804761D01*
X332167857Y-240852380D01*
X332072619Y-240852380D01*
X331929761Y-240804761D01*
X331834523Y-240709523D01*
X331786904Y-240614285D01*
X331739285Y-240423809D01*
X331739285Y-240280952D01*
X331786904Y-240090476D01*
X331834523Y-239995238D01*
X331929761Y-239900000D01*
X332072619Y-239852380D01*
X332167857Y-239852380D01*
X332310714Y-239900000D01*
X332358333Y-239947619D01*
X332739285Y-239947619D02*
X332786904Y-239900000D01*
X332882142Y-239852380D01*
X333120238Y-239852380D01*
X333215476Y-239900000D01*
X333263095Y-239947619D01*
X333310714Y-240042857D01*
X333310714Y-240138095D01*
X333263095Y-240280952D01*
X332691666Y-240852380D01*
X333310714Y-240852380D01*
%TO.C,C1*%
X333768833Y-246016242D02*
X333721214Y-246063861D01*
X333578357Y-246111480D01*
X333483119Y-246111480D01*
X333340261Y-246063861D01*
X333245023Y-245968623D01*
X333197404Y-245873385D01*
X333149785Y-245682909D01*
X333149785Y-245540052D01*
X333197404Y-245349576D01*
X333245023Y-245254338D01*
X333340261Y-245159100D01*
X333483119Y-245111480D01*
X333578357Y-245111480D01*
X333721214Y-245159100D01*
X333768833Y-245206719D01*
X334721214Y-246111480D02*
X334149785Y-246111480D01*
X334435500Y-246111480D02*
X334435500Y-245111480D01*
X334340261Y-245254338D01*
X334245023Y-245349576D01*
X334149785Y-245397195D01*
%TO.C,D61*%
X186439280Y-267672985D02*
X185439280Y-267672985D01*
X185439280Y-267434890D01*
X185486900Y-267292033D01*
X185582138Y-267196795D01*
X185677376Y-267149176D01*
X185867852Y-267101557D01*
X186010709Y-267101557D01*
X186201185Y-267149176D01*
X186296423Y-267196795D01*
X186391661Y-267292033D01*
X186439280Y-267434890D01*
X186439280Y-267672985D01*
X185439280Y-266244414D02*
X185439280Y-266434890D01*
X185486900Y-266530128D01*
X185534519Y-266577747D01*
X185677376Y-266672985D01*
X185867852Y-266720604D01*
X186248804Y-266720604D01*
X186344042Y-266672985D01*
X186391661Y-266625366D01*
X186439280Y-266530128D01*
X186439280Y-266339652D01*
X186391661Y-266244414D01*
X186344042Y-266196795D01*
X186248804Y-266149176D01*
X186010709Y-266149176D01*
X185915471Y-266196795D01*
X185867852Y-266244414D01*
X185820233Y-266339652D01*
X185820233Y-266530128D01*
X185867852Y-266625366D01*
X185915471Y-266672985D01*
X186010709Y-266720604D01*
X186439280Y-265196795D02*
X186439280Y-265768223D01*
X186439280Y-265482509D02*
X185439280Y-265482509D01*
X185582138Y-265577747D01*
X185677376Y-265672985D01*
X185724995Y-265768223D01*
%TO.C,MX55*%
X235613580Y-266241280D02*
X235708819Y-266241280D01*
X235804057Y-266288900D01*
X235851676Y-266336519D01*
X235899295Y-266431757D01*
X235946914Y-266622233D01*
X235946914Y-266860328D01*
X235899295Y-267050804D01*
X235851676Y-267146042D01*
X235804057Y-267193661D01*
X235708819Y-267241280D01*
X235613580Y-267241280D01*
X235518342Y-267193661D01*
X235470723Y-267146042D01*
X235423104Y-267050804D01*
X235375485Y-266860328D01*
X235375485Y-266622233D01*
X235423104Y-266431757D01*
X235470723Y-266336519D01*
X235518342Y-266288900D01*
X235613580Y-266241280D01*
%TO.C,D64*%
X243640080Y-267672985D02*
X242640080Y-267672985D01*
X242640080Y-267434890D01*
X242687700Y-267292033D01*
X242782938Y-267196795D01*
X242878176Y-267149176D01*
X243068652Y-267101557D01*
X243211509Y-267101557D01*
X243401985Y-267149176D01*
X243497223Y-267196795D01*
X243592461Y-267292033D01*
X243640080Y-267434890D01*
X243640080Y-267672985D01*
X242640080Y-266244414D02*
X242640080Y-266434890D01*
X242687700Y-266530128D01*
X242735319Y-266577747D01*
X242878176Y-266672985D01*
X243068652Y-266720604D01*
X243449604Y-266720604D01*
X243544842Y-266672985D01*
X243592461Y-266625366D01*
X243640080Y-266530128D01*
X243640080Y-266339652D01*
X243592461Y-266244414D01*
X243544842Y-266196795D01*
X243449604Y-266149176D01*
X243211509Y-266149176D01*
X243116271Y-266196795D01*
X243068652Y-266244414D01*
X243021033Y-266339652D01*
X243021033Y-266530128D01*
X243068652Y-266625366D01*
X243116271Y-266672985D01*
X243211509Y-266720604D01*
X242973414Y-265292033D02*
X243640080Y-265292033D01*
X242592461Y-265530128D02*
X243306747Y-265768223D01*
X243306747Y-265149176D01*
%TO.C,D68*%
X319840080Y-267649085D02*
X318840080Y-267649085D01*
X318840080Y-267410990D01*
X318887700Y-267268133D01*
X318982938Y-267172895D01*
X319078176Y-267125276D01*
X319268652Y-267077657D01*
X319411509Y-267077657D01*
X319601985Y-267125276D01*
X319697223Y-267172895D01*
X319792461Y-267268133D01*
X319840080Y-267410990D01*
X319840080Y-267649085D01*
X318840080Y-266220514D02*
X318840080Y-266410990D01*
X318887700Y-266506228D01*
X318935319Y-266553847D01*
X319078176Y-266649085D01*
X319268652Y-266696704D01*
X319649604Y-266696704D01*
X319744842Y-266649085D01*
X319792461Y-266601466D01*
X319840080Y-266506228D01*
X319840080Y-266315752D01*
X319792461Y-266220514D01*
X319744842Y-266172895D01*
X319649604Y-266125276D01*
X319411509Y-266125276D01*
X319316271Y-266172895D01*
X319268652Y-266220514D01*
X319221033Y-266315752D01*
X319221033Y-266506228D01*
X319268652Y-266601466D01*
X319316271Y-266649085D01*
X319411509Y-266696704D01*
X319268652Y-265553847D02*
X319221033Y-265649085D01*
X319173414Y-265696704D01*
X319078176Y-265744323D01*
X319030557Y-265744323D01*
X318935319Y-265696704D01*
X318887700Y-265649085D01*
X318840080Y-265553847D01*
X318840080Y-265363371D01*
X318887700Y-265268133D01*
X318935319Y-265220514D01*
X319030557Y-265172895D01*
X319078176Y-265172895D01*
X319173414Y-265220514D01*
X319221033Y-265268133D01*
X319268652Y-265363371D01*
X319268652Y-265553847D01*
X319316271Y-265649085D01*
X319363890Y-265696704D01*
X319459128Y-265744323D01*
X319649604Y-265744323D01*
X319744842Y-265696704D01*
X319792461Y-265649085D01*
X319840080Y-265553847D01*
X319840080Y-265363371D01*
X319792461Y-265268133D01*
X319744842Y-265220514D01*
X319649604Y-265172895D01*
X319459128Y-265172895D01*
X319363890Y-265220514D01*
X319316271Y-265268133D01*
X319268652Y-265363371D01*
%TO.C,D67*%
X300815480Y-267674485D02*
X299815480Y-267674485D01*
X299815480Y-267436390D01*
X299863100Y-267293533D01*
X299958338Y-267198295D01*
X300053576Y-267150676D01*
X300244052Y-267103057D01*
X300386909Y-267103057D01*
X300577385Y-267150676D01*
X300672623Y-267198295D01*
X300767861Y-267293533D01*
X300815480Y-267436390D01*
X300815480Y-267674485D01*
X299815480Y-266245914D02*
X299815480Y-266436390D01*
X299863100Y-266531628D01*
X299910719Y-266579247D01*
X300053576Y-266674485D01*
X300244052Y-266722104D01*
X300625004Y-266722104D01*
X300720242Y-266674485D01*
X300767861Y-266626866D01*
X300815480Y-266531628D01*
X300815480Y-266341152D01*
X300767861Y-266245914D01*
X300720242Y-266198295D01*
X300625004Y-266150676D01*
X300386909Y-266150676D01*
X300291671Y-266198295D01*
X300244052Y-266245914D01*
X300196433Y-266341152D01*
X300196433Y-266531628D01*
X300244052Y-266626866D01*
X300291671Y-266674485D01*
X300386909Y-266722104D01*
X299815480Y-265817342D02*
X299815480Y-265150676D01*
X300815480Y-265579247D01*
%TO.C,D66*%
X281752780Y-267660285D02*
X280752780Y-267660285D01*
X280752780Y-267422190D01*
X280800400Y-267279333D01*
X280895638Y-267184095D01*
X280990876Y-267136476D01*
X281181352Y-267088857D01*
X281324209Y-267088857D01*
X281514685Y-267136476D01*
X281609923Y-267184095D01*
X281705161Y-267279333D01*
X281752780Y-267422190D01*
X281752780Y-267660285D01*
X280752780Y-266231714D02*
X280752780Y-266422190D01*
X280800400Y-266517428D01*
X280848019Y-266565047D01*
X280990876Y-266660285D01*
X281181352Y-266707904D01*
X281562304Y-266707904D01*
X281657542Y-266660285D01*
X281705161Y-266612666D01*
X281752780Y-266517428D01*
X281752780Y-266326952D01*
X281705161Y-266231714D01*
X281657542Y-266184095D01*
X281562304Y-266136476D01*
X281324209Y-266136476D01*
X281228971Y-266184095D01*
X281181352Y-266231714D01*
X281133733Y-266326952D01*
X281133733Y-266517428D01*
X281181352Y-266612666D01*
X281228971Y-266660285D01*
X281324209Y-266707904D01*
X280752780Y-265279333D02*
X280752780Y-265469809D01*
X280800400Y-265565047D01*
X280848019Y-265612666D01*
X280990876Y-265707904D01*
X281181352Y-265755523D01*
X281562304Y-265755523D01*
X281657542Y-265707904D01*
X281705161Y-265660285D01*
X281752780Y-265565047D01*
X281752780Y-265374571D01*
X281705161Y-265279333D01*
X281657542Y-265231714D01*
X281562304Y-265184095D01*
X281324209Y-265184095D01*
X281228971Y-265231714D01*
X281181352Y-265279333D01*
X281133733Y-265374571D01*
X281133733Y-265565047D01*
X281181352Y-265660285D01*
X281228971Y-265707904D01*
X281324209Y-265755523D01*
%TO.C,D65*%
X262691580Y-267660285D02*
X261691580Y-267660285D01*
X261691580Y-267422190D01*
X261739200Y-267279333D01*
X261834438Y-267184095D01*
X261929676Y-267136476D01*
X262120152Y-267088857D01*
X262263009Y-267088857D01*
X262453485Y-267136476D01*
X262548723Y-267184095D01*
X262643961Y-267279333D01*
X262691580Y-267422190D01*
X262691580Y-267660285D01*
X261691580Y-266231714D02*
X261691580Y-266422190D01*
X261739200Y-266517428D01*
X261786819Y-266565047D01*
X261929676Y-266660285D01*
X262120152Y-266707904D01*
X262501104Y-266707904D01*
X262596342Y-266660285D01*
X262643961Y-266612666D01*
X262691580Y-266517428D01*
X262691580Y-266326952D01*
X262643961Y-266231714D01*
X262596342Y-266184095D01*
X262501104Y-266136476D01*
X262263009Y-266136476D01*
X262167771Y-266184095D01*
X262120152Y-266231714D01*
X262072533Y-266326952D01*
X262072533Y-266517428D01*
X262120152Y-266612666D01*
X262167771Y-266660285D01*
X262263009Y-266707904D01*
X261691580Y-265231714D02*
X261691580Y-265707904D01*
X262167771Y-265755523D01*
X262120152Y-265707904D01*
X262072533Y-265612666D01*
X262072533Y-265374571D01*
X262120152Y-265279333D01*
X262167771Y-265231714D01*
X262263009Y-265184095D01*
X262501104Y-265184095D01*
X262596342Y-265231714D01*
X262643961Y-265279333D01*
X262691580Y-265374571D01*
X262691580Y-265612666D01*
X262643961Y-265707904D01*
X262596342Y-265755523D01*
%TO.C,D63*%
X224602780Y-267661785D02*
X223602780Y-267661785D01*
X223602780Y-267423690D01*
X223650400Y-267280833D01*
X223745638Y-267185595D01*
X223840876Y-267137976D01*
X224031352Y-267090357D01*
X224174209Y-267090357D01*
X224364685Y-267137976D01*
X224459923Y-267185595D01*
X224555161Y-267280833D01*
X224602780Y-267423690D01*
X224602780Y-267661785D01*
X223602780Y-266233214D02*
X223602780Y-266423690D01*
X223650400Y-266518928D01*
X223698019Y-266566547D01*
X223840876Y-266661785D01*
X224031352Y-266709404D01*
X224412304Y-266709404D01*
X224507542Y-266661785D01*
X224555161Y-266614166D01*
X224602780Y-266518928D01*
X224602780Y-266328452D01*
X224555161Y-266233214D01*
X224507542Y-266185595D01*
X224412304Y-266137976D01*
X224174209Y-266137976D01*
X224078971Y-266185595D01*
X224031352Y-266233214D01*
X223983733Y-266328452D01*
X223983733Y-266518928D01*
X224031352Y-266614166D01*
X224078971Y-266661785D01*
X224174209Y-266709404D01*
X223602780Y-265804642D02*
X223602780Y-265185595D01*
X223983733Y-265518928D01*
X223983733Y-265376071D01*
X224031352Y-265280833D01*
X224078971Y-265233214D01*
X224174209Y-265185595D01*
X224412304Y-265185595D01*
X224507542Y-265233214D01*
X224555161Y-265280833D01*
X224602780Y-265376071D01*
X224602780Y-265661785D01*
X224555161Y-265757023D01*
X224507542Y-265804642D01*
%TO.C,D62*%
X205527380Y-267658785D02*
X204527380Y-267658785D01*
X204527380Y-267420690D01*
X204575000Y-267277833D01*
X204670238Y-267182595D01*
X204765476Y-267134976D01*
X204955952Y-267087357D01*
X205098809Y-267087357D01*
X205289285Y-267134976D01*
X205384523Y-267182595D01*
X205479761Y-267277833D01*
X205527380Y-267420690D01*
X205527380Y-267658785D01*
X204527380Y-266230214D02*
X204527380Y-266420690D01*
X204575000Y-266515928D01*
X204622619Y-266563547D01*
X204765476Y-266658785D01*
X204955952Y-266706404D01*
X205336904Y-266706404D01*
X205432142Y-266658785D01*
X205479761Y-266611166D01*
X205527380Y-266515928D01*
X205527380Y-266325452D01*
X205479761Y-266230214D01*
X205432142Y-266182595D01*
X205336904Y-266134976D01*
X205098809Y-266134976D01*
X205003571Y-266182595D01*
X204955952Y-266230214D01*
X204908333Y-266325452D01*
X204908333Y-266515928D01*
X204955952Y-266611166D01*
X205003571Y-266658785D01*
X205098809Y-266706404D01*
X204622619Y-265754023D02*
X204575000Y-265706404D01*
X204527380Y-265611166D01*
X204527380Y-265373071D01*
X204575000Y-265277833D01*
X204622619Y-265230214D01*
X204717857Y-265182595D01*
X204813095Y-265182595D01*
X204955952Y-265230214D01*
X205527380Y-265801642D01*
X205527380Y-265182595D01*
%TO.C,D60*%
X167389280Y-267660285D02*
X166389280Y-267660285D01*
X166389280Y-267422190D01*
X166436900Y-267279333D01*
X166532138Y-267184095D01*
X166627376Y-267136476D01*
X166817852Y-267088857D01*
X166960709Y-267088857D01*
X167151185Y-267136476D01*
X167246423Y-267184095D01*
X167341661Y-267279333D01*
X167389280Y-267422190D01*
X167389280Y-267660285D01*
X166389280Y-266231714D02*
X166389280Y-266422190D01*
X166436900Y-266517428D01*
X166484519Y-266565047D01*
X166627376Y-266660285D01*
X166817852Y-266707904D01*
X167198804Y-266707904D01*
X167294042Y-266660285D01*
X167341661Y-266612666D01*
X167389280Y-266517428D01*
X167389280Y-266326952D01*
X167341661Y-266231714D01*
X167294042Y-266184095D01*
X167198804Y-266136476D01*
X166960709Y-266136476D01*
X166865471Y-266184095D01*
X166817852Y-266231714D01*
X166770233Y-266326952D01*
X166770233Y-266517428D01*
X166817852Y-266612666D01*
X166865471Y-266660285D01*
X166960709Y-266707904D01*
X166389280Y-265517428D02*
X166389280Y-265422190D01*
X166436900Y-265326952D01*
X166484519Y-265279333D01*
X166579757Y-265231714D01*
X166770233Y-265184095D01*
X167008328Y-265184095D01*
X167198804Y-265231714D01*
X167294042Y-265279333D01*
X167341661Y-265326952D01*
X167389280Y-265422190D01*
X167389280Y-265517428D01*
X167341661Y-265612666D01*
X167294042Y-265660285D01*
X167198804Y-265707904D01*
X167008328Y-265755523D01*
X166770233Y-265755523D01*
X166579757Y-265707904D01*
X166484519Y-265660285D01*
X166436900Y-265612666D01*
X166389280Y-265517428D01*
%TO.C,D59*%
X148072580Y-267633385D02*
X147072580Y-267633385D01*
X147072580Y-267395290D01*
X147120200Y-267252433D01*
X147215438Y-267157195D01*
X147310676Y-267109576D01*
X147501152Y-267061957D01*
X147644009Y-267061957D01*
X147834485Y-267109576D01*
X147929723Y-267157195D01*
X148024961Y-267252433D01*
X148072580Y-267395290D01*
X148072580Y-267633385D01*
X147072580Y-266157195D02*
X147072580Y-266633385D01*
X147548771Y-266681004D01*
X147501152Y-266633385D01*
X147453533Y-266538147D01*
X147453533Y-266300052D01*
X147501152Y-266204814D01*
X147548771Y-266157195D01*
X147644009Y-266109576D01*
X147882104Y-266109576D01*
X147977342Y-266157195D01*
X148024961Y-266204814D01*
X148072580Y-266300052D01*
X148072580Y-266538147D01*
X148024961Y-266633385D01*
X147977342Y-266681004D01*
X148072580Y-265633385D02*
X148072580Y-265442909D01*
X148024961Y-265347671D01*
X147977342Y-265300052D01*
X147834485Y-265204814D01*
X147644009Y-265157195D01*
X147263057Y-265157195D01*
X147167819Y-265204814D01*
X147120200Y-265252433D01*
X147072580Y-265347671D01*
X147072580Y-265538147D01*
X147120200Y-265633385D01*
X147167819Y-265681004D01*
X147263057Y-265728623D01*
X147501152Y-265728623D01*
X147596390Y-265681004D01*
X147644009Y-265633385D01*
X147691628Y-265538147D01*
X147691628Y-265347671D01*
X147644009Y-265252433D01*
X147596390Y-265204814D01*
X147501152Y-265157195D01*
%TO.C,D58*%
X129251180Y-267607985D02*
X128251180Y-267607985D01*
X128251180Y-267369890D01*
X128298800Y-267227033D01*
X128394038Y-267131795D01*
X128489276Y-267084176D01*
X128679752Y-267036557D01*
X128822609Y-267036557D01*
X129013085Y-267084176D01*
X129108323Y-267131795D01*
X129203561Y-267227033D01*
X129251180Y-267369890D01*
X129251180Y-267607985D01*
X128251180Y-266131795D02*
X128251180Y-266607985D01*
X128727371Y-266655604D01*
X128679752Y-266607985D01*
X128632133Y-266512747D01*
X128632133Y-266274652D01*
X128679752Y-266179414D01*
X128727371Y-266131795D01*
X128822609Y-266084176D01*
X129060704Y-266084176D01*
X129155942Y-266131795D01*
X129203561Y-266179414D01*
X129251180Y-266274652D01*
X129251180Y-266512747D01*
X129203561Y-266607985D01*
X129155942Y-266655604D01*
X128679752Y-265512747D02*
X128632133Y-265607985D01*
X128584514Y-265655604D01*
X128489276Y-265703223D01*
X128441657Y-265703223D01*
X128346419Y-265655604D01*
X128298800Y-265607985D01*
X128251180Y-265512747D01*
X128251180Y-265322271D01*
X128298800Y-265227033D01*
X128346419Y-265179414D01*
X128441657Y-265131795D01*
X128489276Y-265131795D01*
X128584514Y-265179414D01*
X128632133Y-265227033D01*
X128679752Y-265322271D01*
X128679752Y-265512747D01*
X128727371Y-265607985D01*
X128774990Y-265655604D01*
X128870228Y-265703223D01*
X129060704Y-265703223D01*
X129155942Y-265655604D01*
X129203561Y-265607985D01*
X129251180Y-265512747D01*
X129251180Y-265322271D01*
X129203561Y-265227033D01*
X129155942Y-265179414D01*
X129060704Y-265131795D01*
X128870228Y-265131795D01*
X128774990Y-265179414D01*
X128727371Y-265227033D01*
X128679752Y-265322271D01*
%TO.C,D57*%
X110213880Y-267596785D02*
X109213880Y-267596785D01*
X109213880Y-267358690D01*
X109261500Y-267215833D01*
X109356738Y-267120595D01*
X109451976Y-267072976D01*
X109642452Y-267025357D01*
X109785309Y-267025357D01*
X109975785Y-267072976D01*
X110071023Y-267120595D01*
X110166261Y-267215833D01*
X110213880Y-267358690D01*
X110213880Y-267596785D01*
X109213880Y-266120595D02*
X109213880Y-266596785D01*
X109690071Y-266644404D01*
X109642452Y-266596785D01*
X109594833Y-266501547D01*
X109594833Y-266263452D01*
X109642452Y-266168214D01*
X109690071Y-266120595D01*
X109785309Y-266072976D01*
X110023404Y-266072976D01*
X110118642Y-266120595D01*
X110166261Y-266168214D01*
X110213880Y-266263452D01*
X110213880Y-266501547D01*
X110166261Y-266596785D01*
X110118642Y-266644404D01*
X109213880Y-265739642D02*
X109213880Y-265072976D01*
X110213880Y-265501547D01*
%TO.C,D56*%
X91138480Y-267634885D02*
X90138480Y-267634885D01*
X90138480Y-267396790D01*
X90186100Y-267253933D01*
X90281338Y-267158695D01*
X90376576Y-267111076D01*
X90567052Y-267063457D01*
X90709909Y-267063457D01*
X90900385Y-267111076D01*
X90995623Y-267158695D01*
X91090861Y-267253933D01*
X91138480Y-267396790D01*
X91138480Y-267634885D01*
X90138480Y-266158695D02*
X90138480Y-266634885D01*
X90614671Y-266682504D01*
X90567052Y-266634885D01*
X90519433Y-266539647D01*
X90519433Y-266301552D01*
X90567052Y-266206314D01*
X90614671Y-266158695D01*
X90709909Y-266111076D01*
X90948004Y-266111076D01*
X91043242Y-266158695D01*
X91090861Y-266206314D01*
X91138480Y-266301552D01*
X91138480Y-266539647D01*
X91090861Y-266634885D01*
X91043242Y-266682504D01*
X90138480Y-265253933D02*
X90138480Y-265444409D01*
X90186100Y-265539647D01*
X90233719Y-265587266D01*
X90376576Y-265682504D01*
X90567052Y-265730123D01*
X90948004Y-265730123D01*
X91043242Y-265682504D01*
X91090861Y-265634885D01*
X91138480Y-265539647D01*
X91138480Y-265349171D01*
X91090861Y-265253933D01*
X91043242Y-265206314D01*
X90948004Y-265158695D01*
X90709909Y-265158695D01*
X90614671Y-265206314D01*
X90567052Y-265253933D01*
X90519433Y-265349171D01*
X90519433Y-265539647D01*
X90567052Y-265634885D01*
X90614671Y-265682504D01*
X90709909Y-265730123D01*
%TO.C,D55*%
X72088480Y-267622185D02*
X71088480Y-267622185D01*
X71088480Y-267384090D01*
X71136100Y-267241233D01*
X71231338Y-267145995D01*
X71326576Y-267098376D01*
X71517052Y-267050757D01*
X71659909Y-267050757D01*
X71850385Y-267098376D01*
X71945623Y-267145995D01*
X72040861Y-267241233D01*
X72088480Y-267384090D01*
X72088480Y-267622185D01*
X71088480Y-266145995D02*
X71088480Y-266622185D01*
X71564671Y-266669804D01*
X71517052Y-266622185D01*
X71469433Y-266526947D01*
X71469433Y-266288852D01*
X71517052Y-266193614D01*
X71564671Y-266145995D01*
X71659909Y-266098376D01*
X71898004Y-266098376D01*
X71993242Y-266145995D01*
X72040861Y-266193614D01*
X72088480Y-266288852D01*
X72088480Y-266526947D01*
X72040861Y-266622185D01*
X71993242Y-266669804D01*
X71088480Y-265193614D02*
X71088480Y-265669804D01*
X71564671Y-265717423D01*
X71517052Y-265669804D01*
X71469433Y-265574566D01*
X71469433Y-265336471D01*
X71517052Y-265241233D01*
X71564671Y-265193614D01*
X71659909Y-265145995D01*
X71898004Y-265145995D01*
X71993242Y-265193614D01*
X72040861Y-265241233D01*
X72088480Y-265336471D01*
X72088480Y-265574566D01*
X72040861Y-265669804D01*
X71993242Y-265717423D01*
%TO.C,D54*%
X53025780Y-267620685D02*
X52025780Y-267620685D01*
X52025780Y-267382590D01*
X52073400Y-267239733D01*
X52168638Y-267144495D01*
X52263876Y-267096876D01*
X52454352Y-267049257D01*
X52597209Y-267049257D01*
X52787685Y-267096876D01*
X52882923Y-267144495D01*
X52978161Y-267239733D01*
X53025780Y-267382590D01*
X53025780Y-267620685D01*
X52025780Y-266144495D02*
X52025780Y-266620685D01*
X52501971Y-266668304D01*
X52454352Y-266620685D01*
X52406733Y-266525447D01*
X52406733Y-266287352D01*
X52454352Y-266192114D01*
X52501971Y-266144495D01*
X52597209Y-266096876D01*
X52835304Y-266096876D01*
X52930542Y-266144495D01*
X52978161Y-266192114D01*
X53025780Y-266287352D01*
X53025780Y-266525447D01*
X52978161Y-266620685D01*
X52930542Y-266668304D01*
X52359114Y-265239733D02*
X53025780Y-265239733D01*
X51978161Y-265477828D02*
X52692447Y-265715923D01*
X52692447Y-265096876D01*
%TO.C,MX83*%
X414036154Y-359341680D02*
X414036154Y-358341680D01*
X414607583Y-359341680D01*
X414607583Y-358341680D01*
X415083773Y-358341680D02*
X415083773Y-359151204D01*
X415131392Y-359246442D01*
X415179011Y-359294061D01*
X415274250Y-359341680D01*
X415464726Y-359341680D01*
X415559964Y-359294061D01*
X415607583Y-359246442D01*
X415655202Y-359151204D01*
X415655202Y-358341680D01*
X416131392Y-359341680D02*
X416131392Y-358341680D01*
X416464726Y-359055966D01*
X416798059Y-358341680D01*
X416798059Y-359341680D01*
X417036154Y-359436919D02*
X417798059Y-359436919D01*
X418226630Y-358341680D02*
X418321869Y-358341680D01*
X418417107Y-358389300D01*
X418464726Y-358436919D01*
X418512345Y-358532157D01*
X418559964Y-358722633D01*
X418559964Y-358960728D01*
X418512345Y-359151204D01*
X418464726Y-359246442D01*
X418417107Y-359294061D01*
X418321869Y-359341680D01*
X418226630Y-359341680D01*
X418131392Y-359294061D01*
X418083773Y-359246442D01*
X418036154Y-359151204D01*
X417988535Y-358960728D01*
X417988535Y-358722633D01*
X418036154Y-358532157D01*
X418083773Y-358436919D01*
X418131392Y-358389300D01*
X418226630Y-358341680D01*
%TO.C,D53*%
X461602380Y-239364285D02*
X460602380Y-239364285D01*
X460602380Y-239126190D01*
X460650000Y-238983333D01*
X460745238Y-238888095D01*
X460840476Y-238840476D01*
X461030952Y-238792857D01*
X461173809Y-238792857D01*
X461364285Y-238840476D01*
X461459523Y-238888095D01*
X461554761Y-238983333D01*
X461602380Y-239126190D01*
X461602380Y-239364285D01*
X460602380Y-237888095D02*
X460602380Y-238364285D01*
X461078571Y-238411904D01*
X461030952Y-238364285D01*
X460983333Y-238269047D01*
X460983333Y-238030952D01*
X461030952Y-237935714D01*
X461078571Y-237888095D01*
X461173809Y-237840476D01*
X461411904Y-237840476D01*
X461507142Y-237888095D01*
X461554761Y-237935714D01*
X461602380Y-238030952D01*
X461602380Y-238269047D01*
X461554761Y-238364285D01*
X461507142Y-238411904D01*
X460602380Y-237507142D02*
X460602380Y-236888095D01*
X460983333Y-237221428D01*
X460983333Y-237078571D01*
X461030952Y-236983333D01*
X461078571Y-236935714D01*
X461173809Y-236888095D01*
X461411904Y-236888095D01*
X461507142Y-236935714D01*
X461554761Y-236983333D01*
X461602380Y-237078571D01*
X461602380Y-237364285D01*
X461554761Y-237459523D01*
X461507142Y-237507142D01*
%TO.C,D52*%
X457552380Y-239464285D02*
X456552380Y-239464285D01*
X456552380Y-239226190D01*
X456600000Y-239083333D01*
X456695238Y-238988095D01*
X456790476Y-238940476D01*
X456980952Y-238892857D01*
X457123809Y-238892857D01*
X457314285Y-238940476D01*
X457409523Y-238988095D01*
X457504761Y-239083333D01*
X457552380Y-239226190D01*
X457552380Y-239464285D01*
X456552380Y-237988095D02*
X456552380Y-238464285D01*
X457028571Y-238511904D01*
X456980952Y-238464285D01*
X456933333Y-238369047D01*
X456933333Y-238130952D01*
X456980952Y-238035714D01*
X457028571Y-237988095D01*
X457123809Y-237940476D01*
X457361904Y-237940476D01*
X457457142Y-237988095D01*
X457504761Y-238035714D01*
X457552380Y-238130952D01*
X457552380Y-238369047D01*
X457504761Y-238464285D01*
X457457142Y-238511904D01*
X456647619Y-237559523D02*
X456600000Y-237511904D01*
X456552380Y-237416666D01*
X456552380Y-237178571D01*
X456600000Y-237083333D01*
X456647619Y-237035714D01*
X456742857Y-236988095D01*
X456838095Y-236988095D01*
X456980952Y-237035714D01*
X457552380Y-237607142D01*
X457552380Y-236988095D01*
%TO.C,D51*%
X453502380Y-239364285D02*
X452502380Y-239364285D01*
X452502380Y-239126190D01*
X452550000Y-238983333D01*
X452645238Y-238888095D01*
X452740476Y-238840476D01*
X452930952Y-238792857D01*
X453073809Y-238792857D01*
X453264285Y-238840476D01*
X453359523Y-238888095D01*
X453454761Y-238983333D01*
X453502380Y-239126190D01*
X453502380Y-239364285D01*
X452502380Y-237888095D02*
X452502380Y-238364285D01*
X452978571Y-238411904D01*
X452930952Y-238364285D01*
X452883333Y-238269047D01*
X452883333Y-238030952D01*
X452930952Y-237935714D01*
X452978571Y-237888095D01*
X453073809Y-237840476D01*
X453311904Y-237840476D01*
X453407142Y-237888095D01*
X453454761Y-237935714D01*
X453502380Y-238030952D01*
X453502380Y-238269047D01*
X453454761Y-238364285D01*
X453407142Y-238411904D01*
X453502380Y-236888095D02*
X453502380Y-237459523D01*
X453502380Y-237173809D02*
X452502380Y-237173809D01*
X452645238Y-237269047D01*
X452740476Y-237364285D01*
X452788095Y-237459523D01*
%TO.C,MX87*%
X423546304Y-324412880D02*
X423546304Y-323412880D01*
X424117733Y-324412880D01*
X424117733Y-323412880D01*
X424593923Y-323412880D02*
X424593923Y-324222404D01*
X424641542Y-324317642D01*
X424689161Y-324365261D01*
X424784400Y-324412880D01*
X424974876Y-324412880D01*
X425070114Y-324365261D01*
X425117733Y-324317642D01*
X425165352Y-324222404D01*
X425165352Y-323412880D01*
X425641542Y-324412880D02*
X425641542Y-323412880D01*
X425974876Y-324127166D01*
X426308209Y-323412880D01*
X426308209Y-324412880D01*
X426546304Y-324508119D02*
X427308209Y-324508119D01*
X427498685Y-323508119D02*
X427546304Y-323460500D01*
X427641542Y-323412880D01*
X427879638Y-323412880D01*
X427974876Y-323460500D01*
X428022495Y-323508119D01*
X428070114Y-323603357D01*
X428070114Y-323698595D01*
X428022495Y-323841452D01*
X427451066Y-324412880D01*
X428070114Y-324412880D01*
%TO.C,D49*%
X291252380Y-286710285D02*
X290252380Y-286710285D01*
X290252380Y-286472190D01*
X290300000Y-286329333D01*
X290395238Y-286234095D01*
X290490476Y-286186476D01*
X290680952Y-286138857D01*
X290823809Y-286138857D01*
X291014285Y-286186476D01*
X291109523Y-286234095D01*
X291204761Y-286329333D01*
X291252380Y-286472190D01*
X291252380Y-286710285D01*
X290585714Y-285281714D02*
X291252380Y-285281714D01*
X290204761Y-285519809D02*
X290919047Y-285757904D01*
X290919047Y-285138857D01*
X291252380Y-284710285D02*
X291252380Y-284519809D01*
X291204761Y-284424571D01*
X291157142Y-284376952D01*
X291014285Y-284281714D01*
X290823809Y-284234095D01*
X290442857Y-284234095D01*
X290347619Y-284281714D01*
X290300000Y-284329333D01*
X290252380Y-284424571D01*
X290252380Y-284615047D01*
X290300000Y-284710285D01*
X290347619Y-284757904D01*
X290442857Y-284805523D01*
X290680952Y-284805523D01*
X290776190Y-284757904D01*
X290823809Y-284710285D01*
X290871428Y-284615047D01*
X290871428Y-284424571D01*
X290823809Y-284329333D01*
X290776190Y-284281714D01*
X290680952Y-284234095D01*
%TO.C,D48*%
X272202380Y-286772285D02*
X271202380Y-286772285D01*
X271202380Y-286534190D01*
X271250000Y-286391333D01*
X271345238Y-286296095D01*
X271440476Y-286248476D01*
X271630952Y-286200857D01*
X271773809Y-286200857D01*
X271964285Y-286248476D01*
X272059523Y-286296095D01*
X272154761Y-286391333D01*
X272202380Y-286534190D01*
X272202380Y-286772285D01*
X271535714Y-285343714D02*
X272202380Y-285343714D01*
X271154761Y-285581809D02*
X271869047Y-285819904D01*
X271869047Y-285200857D01*
X271630952Y-284677047D02*
X271583333Y-284772285D01*
X271535714Y-284819904D01*
X271440476Y-284867523D01*
X271392857Y-284867523D01*
X271297619Y-284819904D01*
X271250000Y-284772285D01*
X271202380Y-284677047D01*
X271202380Y-284486571D01*
X271250000Y-284391333D01*
X271297619Y-284343714D01*
X271392857Y-284296095D01*
X271440476Y-284296095D01*
X271535714Y-284343714D01*
X271583333Y-284391333D01*
X271630952Y-284486571D01*
X271630952Y-284677047D01*
X271678571Y-284772285D01*
X271726190Y-284819904D01*
X271821428Y-284867523D01*
X272011904Y-284867523D01*
X272107142Y-284819904D01*
X272154761Y-284772285D01*
X272202380Y-284677047D01*
X272202380Y-284486571D01*
X272154761Y-284391333D01*
X272107142Y-284343714D01*
X272011904Y-284296095D01*
X271821428Y-284296095D01*
X271726190Y-284343714D01*
X271678571Y-284391333D01*
X271630952Y-284486571D01*
%TO.C,D47*%
X253152380Y-286710285D02*
X252152380Y-286710285D01*
X252152380Y-286472190D01*
X252200000Y-286329333D01*
X252295238Y-286234095D01*
X252390476Y-286186476D01*
X252580952Y-286138857D01*
X252723809Y-286138857D01*
X252914285Y-286186476D01*
X253009523Y-286234095D01*
X253104761Y-286329333D01*
X253152380Y-286472190D01*
X253152380Y-286710285D01*
X252485714Y-285281714D02*
X253152380Y-285281714D01*
X252104761Y-285519809D02*
X252819047Y-285757904D01*
X252819047Y-285138857D01*
X252152380Y-284853142D02*
X252152380Y-284186476D01*
X253152380Y-284615047D01*
%TO.C,D46*%
X234102380Y-286710285D02*
X233102380Y-286710285D01*
X233102380Y-286472190D01*
X233150000Y-286329333D01*
X233245238Y-286234095D01*
X233340476Y-286186476D01*
X233530952Y-286138857D01*
X233673809Y-286138857D01*
X233864285Y-286186476D01*
X233959523Y-286234095D01*
X234054761Y-286329333D01*
X234102380Y-286472190D01*
X234102380Y-286710285D01*
X233435714Y-285281714D02*
X234102380Y-285281714D01*
X233054761Y-285519809D02*
X233769047Y-285757904D01*
X233769047Y-285138857D01*
X233102380Y-284329333D02*
X233102380Y-284519809D01*
X233150000Y-284615047D01*
X233197619Y-284662666D01*
X233340476Y-284757904D01*
X233530952Y-284805523D01*
X233911904Y-284805523D01*
X234007142Y-284757904D01*
X234054761Y-284710285D01*
X234102380Y-284615047D01*
X234102380Y-284424571D01*
X234054761Y-284329333D01*
X234007142Y-284281714D01*
X233911904Y-284234095D01*
X233673809Y-284234095D01*
X233578571Y-284281714D01*
X233530952Y-284329333D01*
X233483333Y-284424571D01*
X233483333Y-284615047D01*
X233530952Y-284710285D01*
X233578571Y-284757904D01*
X233673809Y-284805523D01*
%TO.C,D45*%
X214925380Y-286772285D02*
X213925380Y-286772285D01*
X213925380Y-286534190D01*
X213973000Y-286391333D01*
X214068238Y-286296095D01*
X214163476Y-286248476D01*
X214353952Y-286200857D01*
X214496809Y-286200857D01*
X214687285Y-286248476D01*
X214782523Y-286296095D01*
X214877761Y-286391333D01*
X214925380Y-286534190D01*
X214925380Y-286772285D01*
X214258714Y-285343714D02*
X214925380Y-285343714D01*
X213877761Y-285581809D02*
X214592047Y-285819904D01*
X214592047Y-285200857D01*
X213925380Y-284343714D02*
X213925380Y-284819904D01*
X214401571Y-284867523D01*
X214353952Y-284819904D01*
X214306333Y-284724666D01*
X214306333Y-284486571D01*
X214353952Y-284391333D01*
X214401571Y-284343714D01*
X214496809Y-284296095D01*
X214734904Y-284296095D01*
X214830142Y-284343714D01*
X214877761Y-284391333D01*
X214925380Y-284486571D01*
X214925380Y-284724666D01*
X214877761Y-284819904D01*
X214830142Y-284867523D01*
%TO.C,D44*%
X196002380Y-286710285D02*
X195002380Y-286710285D01*
X195002380Y-286472190D01*
X195050000Y-286329333D01*
X195145238Y-286234095D01*
X195240476Y-286186476D01*
X195430952Y-286138857D01*
X195573809Y-286138857D01*
X195764285Y-286186476D01*
X195859523Y-286234095D01*
X195954761Y-286329333D01*
X196002380Y-286472190D01*
X196002380Y-286710285D01*
X195335714Y-285281714D02*
X196002380Y-285281714D01*
X194954761Y-285519809D02*
X195669047Y-285757904D01*
X195669047Y-285138857D01*
X195335714Y-284329333D02*
X196002380Y-284329333D01*
X194954761Y-284567428D02*
X195669047Y-284805523D01*
X195669047Y-284186476D01*
%TO.C,D43*%
X176952380Y-286710285D02*
X175952380Y-286710285D01*
X175952380Y-286472190D01*
X176000000Y-286329333D01*
X176095238Y-286234095D01*
X176190476Y-286186476D01*
X176380952Y-286138857D01*
X176523809Y-286138857D01*
X176714285Y-286186476D01*
X176809523Y-286234095D01*
X176904761Y-286329333D01*
X176952380Y-286472190D01*
X176952380Y-286710285D01*
X176285714Y-285281714D02*
X176952380Y-285281714D01*
X175904761Y-285519809D02*
X176619047Y-285757904D01*
X176619047Y-285138857D01*
X175952380Y-284853142D02*
X175952380Y-284234095D01*
X176333333Y-284567428D01*
X176333333Y-284424571D01*
X176380952Y-284329333D01*
X176428571Y-284281714D01*
X176523809Y-284234095D01*
X176761904Y-284234095D01*
X176857142Y-284281714D01*
X176904761Y-284329333D01*
X176952380Y-284424571D01*
X176952380Y-284710285D01*
X176904761Y-284805523D01*
X176857142Y-284853142D01*
%TO.C,D42*%
X157775380Y-286710285D02*
X156775380Y-286710285D01*
X156775380Y-286472190D01*
X156823000Y-286329333D01*
X156918238Y-286234095D01*
X157013476Y-286186476D01*
X157203952Y-286138857D01*
X157346809Y-286138857D01*
X157537285Y-286186476D01*
X157632523Y-286234095D01*
X157727761Y-286329333D01*
X157775380Y-286472190D01*
X157775380Y-286710285D01*
X157108714Y-285281714D02*
X157775380Y-285281714D01*
X156727761Y-285519809D02*
X157442047Y-285757904D01*
X157442047Y-285138857D01*
X156870619Y-284805523D02*
X156823000Y-284757904D01*
X156775380Y-284662666D01*
X156775380Y-284424571D01*
X156823000Y-284329333D01*
X156870619Y-284281714D01*
X156965857Y-284234095D01*
X157061095Y-284234095D01*
X157203952Y-284281714D01*
X157775380Y-284853142D01*
X157775380Y-284234095D01*
%TO.C,D41*%
X138725380Y-286710285D02*
X137725380Y-286710285D01*
X137725380Y-286472190D01*
X137773000Y-286329333D01*
X137868238Y-286234095D01*
X137963476Y-286186476D01*
X138153952Y-286138857D01*
X138296809Y-286138857D01*
X138487285Y-286186476D01*
X138582523Y-286234095D01*
X138677761Y-286329333D01*
X138725380Y-286472190D01*
X138725380Y-286710285D01*
X138058714Y-285281714D02*
X138725380Y-285281714D01*
X137677761Y-285519809D02*
X138392047Y-285757904D01*
X138392047Y-285138857D01*
X138725380Y-284234095D02*
X138725380Y-284805523D01*
X138725380Y-284519809D02*
X137725380Y-284519809D01*
X137868238Y-284615047D01*
X137963476Y-284710285D01*
X138011095Y-284805523D01*
%TO.C,D40*%
X119548380Y-286710285D02*
X118548380Y-286710285D01*
X118548380Y-286472190D01*
X118596000Y-286329333D01*
X118691238Y-286234095D01*
X118786476Y-286186476D01*
X118976952Y-286138857D01*
X119119809Y-286138857D01*
X119310285Y-286186476D01*
X119405523Y-286234095D01*
X119500761Y-286329333D01*
X119548380Y-286472190D01*
X119548380Y-286710285D01*
X118881714Y-285281714D02*
X119548380Y-285281714D01*
X118500761Y-285519809D02*
X119215047Y-285757904D01*
X119215047Y-285138857D01*
X118548380Y-284567428D02*
X118548380Y-284472190D01*
X118596000Y-284376952D01*
X118643619Y-284329333D01*
X118738857Y-284281714D01*
X118929333Y-284234095D01*
X119167428Y-284234095D01*
X119357904Y-284281714D01*
X119453142Y-284329333D01*
X119500761Y-284376952D01*
X119548380Y-284472190D01*
X119548380Y-284567428D01*
X119500761Y-284662666D01*
X119453142Y-284710285D01*
X119357904Y-284757904D01*
X119167428Y-284805523D01*
X118929333Y-284805523D01*
X118738857Y-284757904D01*
X118643619Y-284710285D01*
X118596000Y-284662666D01*
X118548380Y-284567428D01*
%TO.C,D39*%
X100625380Y-286645285D02*
X99625380Y-286645285D01*
X99625380Y-286407190D01*
X99673000Y-286264333D01*
X99768238Y-286169095D01*
X99863476Y-286121476D01*
X100053952Y-286073857D01*
X100196809Y-286073857D01*
X100387285Y-286121476D01*
X100482523Y-286169095D01*
X100577761Y-286264333D01*
X100625380Y-286407190D01*
X100625380Y-286645285D01*
X99625380Y-285740523D02*
X99625380Y-285121476D01*
X100006333Y-285454809D01*
X100006333Y-285311952D01*
X100053952Y-285216714D01*
X100101571Y-285169095D01*
X100196809Y-285121476D01*
X100434904Y-285121476D01*
X100530142Y-285169095D01*
X100577761Y-285216714D01*
X100625380Y-285311952D01*
X100625380Y-285597666D01*
X100577761Y-285692904D01*
X100530142Y-285740523D01*
X100625380Y-284645285D02*
X100625380Y-284454809D01*
X100577761Y-284359571D01*
X100530142Y-284311952D01*
X100387285Y-284216714D01*
X100196809Y-284169095D01*
X99815857Y-284169095D01*
X99720619Y-284216714D01*
X99673000Y-284264333D01*
X99625380Y-284359571D01*
X99625380Y-284550047D01*
X99673000Y-284645285D01*
X99720619Y-284692904D01*
X99815857Y-284740523D01*
X100053952Y-284740523D01*
X100149190Y-284692904D01*
X100196809Y-284645285D01*
X100244428Y-284550047D01*
X100244428Y-284359571D01*
X100196809Y-284264333D01*
X100149190Y-284216714D01*
X100053952Y-284169095D01*
%TO.C,D38*%
X81575380Y-286645285D02*
X80575380Y-286645285D01*
X80575380Y-286407190D01*
X80623000Y-286264333D01*
X80718238Y-286169095D01*
X80813476Y-286121476D01*
X81003952Y-286073857D01*
X81146809Y-286073857D01*
X81337285Y-286121476D01*
X81432523Y-286169095D01*
X81527761Y-286264333D01*
X81575380Y-286407190D01*
X81575380Y-286645285D01*
X80575380Y-285740523D02*
X80575380Y-285121476D01*
X80956333Y-285454809D01*
X80956333Y-285311952D01*
X81003952Y-285216714D01*
X81051571Y-285169095D01*
X81146809Y-285121476D01*
X81384904Y-285121476D01*
X81480142Y-285169095D01*
X81527761Y-285216714D01*
X81575380Y-285311952D01*
X81575380Y-285597666D01*
X81527761Y-285692904D01*
X81480142Y-285740523D01*
X81003952Y-284550047D02*
X80956333Y-284645285D01*
X80908714Y-284692904D01*
X80813476Y-284740523D01*
X80765857Y-284740523D01*
X80670619Y-284692904D01*
X80623000Y-284645285D01*
X80575380Y-284550047D01*
X80575380Y-284359571D01*
X80623000Y-284264333D01*
X80670619Y-284216714D01*
X80765857Y-284169095D01*
X80813476Y-284169095D01*
X80908714Y-284216714D01*
X80956333Y-284264333D01*
X81003952Y-284359571D01*
X81003952Y-284550047D01*
X81051571Y-284645285D01*
X81099190Y-284692904D01*
X81194428Y-284740523D01*
X81384904Y-284740523D01*
X81480142Y-284692904D01*
X81527761Y-284645285D01*
X81575380Y-284550047D01*
X81575380Y-284359571D01*
X81527761Y-284264333D01*
X81480142Y-284216714D01*
X81384904Y-284169095D01*
X81194428Y-284169095D01*
X81099190Y-284216714D01*
X81051571Y-284264333D01*
X81003952Y-284359571D01*
%TO.C,D37*%
X62525380Y-286645285D02*
X61525380Y-286645285D01*
X61525380Y-286407190D01*
X61573000Y-286264333D01*
X61668238Y-286169095D01*
X61763476Y-286121476D01*
X61953952Y-286073857D01*
X62096809Y-286073857D01*
X62287285Y-286121476D01*
X62382523Y-286169095D01*
X62477761Y-286264333D01*
X62525380Y-286407190D01*
X62525380Y-286645285D01*
X61525380Y-285740523D02*
X61525380Y-285121476D01*
X61906333Y-285454809D01*
X61906333Y-285311952D01*
X61953952Y-285216714D01*
X62001571Y-285169095D01*
X62096809Y-285121476D01*
X62334904Y-285121476D01*
X62430142Y-285169095D01*
X62477761Y-285216714D01*
X62525380Y-285311952D01*
X62525380Y-285597666D01*
X62477761Y-285692904D01*
X62430142Y-285740523D01*
X61525380Y-284788142D02*
X61525380Y-284121476D01*
X62525380Y-284550047D01*
%TO.C,MX3*%
X43786573Y-285265880D02*
X44358002Y-285265880D01*
X44072288Y-286265880D02*
X44072288Y-285265880D01*
X45119907Y-286265880D02*
X45119907Y-285742071D01*
X45072288Y-285646833D01*
X44977050Y-285599214D01*
X44786573Y-285599214D01*
X44691335Y-285646833D01*
X45119907Y-286218261D02*
X45024669Y-286265880D01*
X44786573Y-286265880D01*
X44691335Y-286218261D01*
X44643716Y-286123023D01*
X44643716Y-286027785D01*
X44691335Y-285932547D01*
X44786573Y-285884928D01*
X45024669Y-285884928D01*
X45119907Y-285837309D01*
X45596097Y-286265880D02*
X45596097Y-285265880D01*
X45596097Y-285646833D02*
X45691335Y-285599214D01*
X45881811Y-285599214D01*
X45977050Y-285646833D01*
X46024669Y-285694452D01*
X46072288Y-285789690D01*
X46072288Y-286075404D01*
X46024669Y-286170642D01*
X45977050Y-286218261D01*
X45881811Y-286265880D01*
X45691335Y-286265880D01*
X45596097Y-286218261D01*
%TO.C,D36*%
X295951380Y-305760285D02*
X294951380Y-305760285D01*
X294951380Y-305522190D01*
X294999000Y-305379333D01*
X295094238Y-305284095D01*
X295189476Y-305236476D01*
X295379952Y-305188857D01*
X295522809Y-305188857D01*
X295713285Y-305236476D01*
X295808523Y-305284095D01*
X295903761Y-305379333D01*
X295951380Y-305522190D01*
X295951380Y-305760285D01*
X294951380Y-304855523D02*
X294951380Y-304236476D01*
X295332333Y-304569809D01*
X295332333Y-304426952D01*
X295379952Y-304331714D01*
X295427571Y-304284095D01*
X295522809Y-304236476D01*
X295760904Y-304236476D01*
X295856142Y-304284095D01*
X295903761Y-304331714D01*
X295951380Y-304426952D01*
X295951380Y-304712666D01*
X295903761Y-304807904D01*
X295856142Y-304855523D01*
X294951380Y-303379333D02*
X294951380Y-303569809D01*
X294999000Y-303665047D01*
X295046619Y-303712666D01*
X295189476Y-303807904D01*
X295379952Y-303855523D01*
X295760904Y-303855523D01*
X295856142Y-303807904D01*
X295903761Y-303760285D01*
X295951380Y-303665047D01*
X295951380Y-303474571D01*
X295903761Y-303379333D01*
X295856142Y-303331714D01*
X295760904Y-303284095D01*
X295522809Y-303284095D01*
X295427571Y-303331714D01*
X295379952Y-303379333D01*
X295332333Y-303474571D01*
X295332333Y-303665047D01*
X295379952Y-303760285D01*
X295427571Y-303807904D01*
X295522809Y-303855523D01*
%TO.C,D35*%
X276901380Y-305760285D02*
X275901380Y-305760285D01*
X275901380Y-305522190D01*
X275949000Y-305379333D01*
X276044238Y-305284095D01*
X276139476Y-305236476D01*
X276329952Y-305188857D01*
X276472809Y-305188857D01*
X276663285Y-305236476D01*
X276758523Y-305284095D01*
X276853761Y-305379333D01*
X276901380Y-305522190D01*
X276901380Y-305760285D01*
X275901380Y-304855523D02*
X275901380Y-304236476D01*
X276282333Y-304569809D01*
X276282333Y-304426952D01*
X276329952Y-304331714D01*
X276377571Y-304284095D01*
X276472809Y-304236476D01*
X276710904Y-304236476D01*
X276806142Y-304284095D01*
X276853761Y-304331714D01*
X276901380Y-304426952D01*
X276901380Y-304712666D01*
X276853761Y-304807904D01*
X276806142Y-304855523D01*
X275901380Y-303331714D02*
X275901380Y-303807904D01*
X276377571Y-303855523D01*
X276329952Y-303807904D01*
X276282333Y-303712666D01*
X276282333Y-303474571D01*
X276329952Y-303379333D01*
X276377571Y-303331714D01*
X276472809Y-303284095D01*
X276710904Y-303284095D01*
X276806142Y-303331714D01*
X276853761Y-303379333D01*
X276901380Y-303474571D01*
X276901380Y-303712666D01*
X276853761Y-303807904D01*
X276806142Y-303855523D01*
%TO.C,D34*%
X257851380Y-305760285D02*
X256851380Y-305760285D01*
X256851380Y-305522190D01*
X256899000Y-305379333D01*
X256994238Y-305284095D01*
X257089476Y-305236476D01*
X257279952Y-305188857D01*
X257422809Y-305188857D01*
X257613285Y-305236476D01*
X257708523Y-305284095D01*
X257803761Y-305379333D01*
X257851380Y-305522190D01*
X257851380Y-305760285D01*
X256851380Y-304855523D02*
X256851380Y-304236476D01*
X257232333Y-304569809D01*
X257232333Y-304426952D01*
X257279952Y-304331714D01*
X257327571Y-304284095D01*
X257422809Y-304236476D01*
X257660904Y-304236476D01*
X257756142Y-304284095D01*
X257803761Y-304331714D01*
X257851380Y-304426952D01*
X257851380Y-304712666D01*
X257803761Y-304807904D01*
X257756142Y-304855523D01*
X257184714Y-303379333D02*
X257851380Y-303379333D01*
X256803761Y-303617428D02*
X257518047Y-303855523D01*
X257518047Y-303236476D01*
%TO.C,D33*%
X238928380Y-305760285D02*
X237928380Y-305760285D01*
X237928380Y-305522190D01*
X237976000Y-305379333D01*
X238071238Y-305284095D01*
X238166476Y-305236476D01*
X238356952Y-305188857D01*
X238499809Y-305188857D01*
X238690285Y-305236476D01*
X238785523Y-305284095D01*
X238880761Y-305379333D01*
X238928380Y-305522190D01*
X238928380Y-305760285D01*
X237928380Y-304855523D02*
X237928380Y-304236476D01*
X238309333Y-304569809D01*
X238309333Y-304426952D01*
X238356952Y-304331714D01*
X238404571Y-304284095D01*
X238499809Y-304236476D01*
X238737904Y-304236476D01*
X238833142Y-304284095D01*
X238880761Y-304331714D01*
X238928380Y-304426952D01*
X238928380Y-304712666D01*
X238880761Y-304807904D01*
X238833142Y-304855523D01*
X237928380Y-303903142D02*
X237928380Y-303284095D01*
X238309333Y-303617428D01*
X238309333Y-303474571D01*
X238356952Y-303379333D01*
X238404571Y-303331714D01*
X238499809Y-303284095D01*
X238737904Y-303284095D01*
X238833142Y-303331714D01*
X238880761Y-303379333D01*
X238928380Y-303474571D01*
X238928380Y-303760285D01*
X238880761Y-303855523D01*
X238833142Y-303903142D01*
%TO.C,D32*%
X219751380Y-305760285D02*
X218751380Y-305760285D01*
X218751380Y-305522190D01*
X218799000Y-305379333D01*
X218894238Y-305284095D01*
X218989476Y-305236476D01*
X219179952Y-305188857D01*
X219322809Y-305188857D01*
X219513285Y-305236476D01*
X219608523Y-305284095D01*
X219703761Y-305379333D01*
X219751380Y-305522190D01*
X219751380Y-305760285D01*
X218751380Y-304855523D02*
X218751380Y-304236476D01*
X219132333Y-304569809D01*
X219132333Y-304426952D01*
X219179952Y-304331714D01*
X219227571Y-304284095D01*
X219322809Y-304236476D01*
X219560904Y-304236476D01*
X219656142Y-304284095D01*
X219703761Y-304331714D01*
X219751380Y-304426952D01*
X219751380Y-304712666D01*
X219703761Y-304807904D01*
X219656142Y-304855523D01*
X218846619Y-303855523D02*
X218799000Y-303807904D01*
X218751380Y-303712666D01*
X218751380Y-303474571D01*
X218799000Y-303379333D01*
X218846619Y-303331714D01*
X218941857Y-303284095D01*
X219037095Y-303284095D01*
X219179952Y-303331714D01*
X219751380Y-303903142D01*
X219751380Y-303284095D01*
%TO.C,D31*%
X200574380Y-305760285D02*
X199574380Y-305760285D01*
X199574380Y-305522190D01*
X199622000Y-305379333D01*
X199717238Y-305284095D01*
X199812476Y-305236476D01*
X200002952Y-305188857D01*
X200145809Y-305188857D01*
X200336285Y-305236476D01*
X200431523Y-305284095D01*
X200526761Y-305379333D01*
X200574380Y-305522190D01*
X200574380Y-305760285D01*
X199574380Y-304855523D02*
X199574380Y-304236476D01*
X199955333Y-304569809D01*
X199955333Y-304426952D01*
X200002952Y-304331714D01*
X200050571Y-304284095D01*
X200145809Y-304236476D01*
X200383904Y-304236476D01*
X200479142Y-304284095D01*
X200526761Y-304331714D01*
X200574380Y-304426952D01*
X200574380Y-304712666D01*
X200526761Y-304807904D01*
X200479142Y-304855523D01*
X200574380Y-303284095D02*
X200574380Y-303855523D01*
X200574380Y-303569809D02*
X199574380Y-303569809D01*
X199717238Y-303665047D01*
X199812476Y-303760285D01*
X199860095Y-303855523D01*
%TO.C,D30*%
X181524380Y-305760285D02*
X180524380Y-305760285D01*
X180524380Y-305522190D01*
X180572000Y-305379333D01*
X180667238Y-305284095D01*
X180762476Y-305236476D01*
X180952952Y-305188857D01*
X181095809Y-305188857D01*
X181286285Y-305236476D01*
X181381523Y-305284095D01*
X181476761Y-305379333D01*
X181524380Y-305522190D01*
X181524380Y-305760285D01*
X180524380Y-304855523D02*
X180524380Y-304236476D01*
X180905333Y-304569809D01*
X180905333Y-304426952D01*
X180952952Y-304331714D01*
X181000571Y-304284095D01*
X181095809Y-304236476D01*
X181333904Y-304236476D01*
X181429142Y-304284095D01*
X181476761Y-304331714D01*
X181524380Y-304426952D01*
X181524380Y-304712666D01*
X181476761Y-304807904D01*
X181429142Y-304855523D01*
X180524380Y-303617428D02*
X180524380Y-303522190D01*
X180572000Y-303426952D01*
X180619619Y-303379333D01*
X180714857Y-303331714D01*
X180905333Y-303284095D01*
X181143428Y-303284095D01*
X181333904Y-303331714D01*
X181429142Y-303379333D01*
X181476761Y-303426952D01*
X181524380Y-303522190D01*
X181524380Y-303617428D01*
X181476761Y-303712666D01*
X181429142Y-303760285D01*
X181333904Y-303807904D01*
X181143428Y-303855523D01*
X180905333Y-303855523D01*
X180714857Y-303807904D01*
X180619619Y-303760285D01*
X180572000Y-303712666D01*
X180524380Y-303617428D01*
%TO.C,D29*%
X162474380Y-305760285D02*
X161474380Y-305760285D01*
X161474380Y-305522190D01*
X161522000Y-305379333D01*
X161617238Y-305284095D01*
X161712476Y-305236476D01*
X161902952Y-305188857D01*
X162045809Y-305188857D01*
X162236285Y-305236476D01*
X162331523Y-305284095D01*
X162426761Y-305379333D01*
X162474380Y-305522190D01*
X162474380Y-305760285D01*
X161569619Y-304807904D02*
X161522000Y-304760285D01*
X161474380Y-304665047D01*
X161474380Y-304426952D01*
X161522000Y-304331714D01*
X161569619Y-304284095D01*
X161664857Y-304236476D01*
X161760095Y-304236476D01*
X161902952Y-304284095D01*
X162474380Y-304855523D01*
X162474380Y-304236476D01*
X162474380Y-303760285D02*
X162474380Y-303569809D01*
X162426761Y-303474571D01*
X162379142Y-303426952D01*
X162236285Y-303331714D01*
X162045809Y-303284095D01*
X161664857Y-303284095D01*
X161569619Y-303331714D01*
X161522000Y-303379333D01*
X161474380Y-303474571D01*
X161474380Y-303665047D01*
X161522000Y-303760285D01*
X161569619Y-303807904D01*
X161664857Y-303855523D01*
X161902952Y-303855523D01*
X161998190Y-303807904D01*
X162045809Y-303760285D01*
X162093428Y-303665047D01*
X162093428Y-303474571D01*
X162045809Y-303379333D01*
X161998190Y-303331714D01*
X161902952Y-303284095D01*
%TO.C,D28*%
X143551380Y-305760285D02*
X142551380Y-305760285D01*
X142551380Y-305522190D01*
X142599000Y-305379333D01*
X142694238Y-305284095D01*
X142789476Y-305236476D01*
X142979952Y-305188857D01*
X143122809Y-305188857D01*
X143313285Y-305236476D01*
X143408523Y-305284095D01*
X143503761Y-305379333D01*
X143551380Y-305522190D01*
X143551380Y-305760285D01*
X142646619Y-304807904D02*
X142599000Y-304760285D01*
X142551380Y-304665047D01*
X142551380Y-304426952D01*
X142599000Y-304331714D01*
X142646619Y-304284095D01*
X142741857Y-304236476D01*
X142837095Y-304236476D01*
X142979952Y-304284095D01*
X143551380Y-304855523D01*
X143551380Y-304236476D01*
X142979952Y-303665047D02*
X142932333Y-303760285D01*
X142884714Y-303807904D01*
X142789476Y-303855523D01*
X142741857Y-303855523D01*
X142646619Y-303807904D01*
X142599000Y-303760285D01*
X142551380Y-303665047D01*
X142551380Y-303474571D01*
X142599000Y-303379333D01*
X142646619Y-303331714D01*
X142741857Y-303284095D01*
X142789476Y-303284095D01*
X142884714Y-303331714D01*
X142932333Y-303379333D01*
X142979952Y-303474571D01*
X142979952Y-303665047D01*
X143027571Y-303760285D01*
X143075190Y-303807904D01*
X143170428Y-303855523D01*
X143360904Y-303855523D01*
X143456142Y-303807904D01*
X143503761Y-303760285D01*
X143551380Y-303665047D01*
X143551380Y-303474571D01*
X143503761Y-303379333D01*
X143456142Y-303331714D01*
X143360904Y-303284095D01*
X143170428Y-303284095D01*
X143075190Y-303331714D01*
X143027571Y-303379333D01*
X142979952Y-303474571D01*
%TO.C,D27*%
X124501380Y-305760285D02*
X123501380Y-305760285D01*
X123501380Y-305522190D01*
X123549000Y-305379333D01*
X123644238Y-305284095D01*
X123739476Y-305236476D01*
X123929952Y-305188857D01*
X124072809Y-305188857D01*
X124263285Y-305236476D01*
X124358523Y-305284095D01*
X124453761Y-305379333D01*
X124501380Y-305522190D01*
X124501380Y-305760285D01*
X123596619Y-304807904D02*
X123549000Y-304760285D01*
X123501380Y-304665047D01*
X123501380Y-304426952D01*
X123549000Y-304331714D01*
X123596619Y-304284095D01*
X123691857Y-304236476D01*
X123787095Y-304236476D01*
X123929952Y-304284095D01*
X124501380Y-304855523D01*
X124501380Y-304236476D01*
X123501380Y-303903142D02*
X123501380Y-303236476D01*
X124501380Y-303665047D01*
%TO.C,D26*%
X105324380Y-305760285D02*
X104324380Y-305760285D01*
X104324380Y-305522190D01*
X104372000Y-305379333D01*
X104467238Y-305284095D01*
X104562476Y-305236476D01*
X104752952Y-305188857D01*
X104895809Y-305188857D01*
X105086285Y-305236476D01*
X105181523Y-305284095D01*
X105276761Y-305379333D01*
X105324380Y-305522190D01*
X105324380Y-305760285D01*
X104419619Y-304807904D02*
X104372000Y-304760285D01*
X104324380Y-304665047D01*
X104324380Y-304426952D01*
X104372000Y-304331714D01*
X104419619Y-304284095D01*
X104514857Y-304236476D01*
X104610095Y-304236476D01*
X104752952Y-304284095D01*
X105324380Y-304855523D01*
X105324380Y-304236476D01*
X104324380Y-303379333D02*
X104324380Y-303569809D01*
X104372000Y-303665047D01*
X104419619Y-303712666D01*
X104562476Y-303807904D01*
X104752952Y-303855523D01*
X105133904Y-303855523D01*
X105229142Y-303807904D01*
X105276761Y-303760285D01*
X105324380Y-303665047D01*
X105324380Y-303474571D01*
X105276761Y-303379333D01*
X105229142Y-303331714D01*
X105133904Y-303284095D01*
X104895809Y-303284095D01*
X104800571Y-303331714D01*
X104752952Y-303379333D01*
X104705333Y-303474571D01*
X104705333Y-303665047D01*
X104752952Y-303760285D01*
X104800571Y-303807904D01*
X104895809Y-303855523D01*
%TO.C,D25*%
X86274380Y-305760285D02*
X85274380Y-305760285D01*
X85274380Y-305522190D01*
X85322000Y-305379333D01*
X85417238Y-305284095D01*
X85512476Y-305236476D01*
X85702952Y-305188857D01*
X85845809Y-305188857D01*
X86036285Y-305236476D01*
X86131523Y-305284095D01*
X86226761Y-305379333D01*
X86274380Y-305522190D01*
X86274380Y-305760285D01*
X85369619Y-304807904D02*
X85322000Y-304760285D01*
X85274380Y-304665047D01*
X85274380Y-304426952D01*
X85322000Y-304331714D01*
X85369619Y-304284095D01*
X85464857Y-304236476D01*
X85560095Y-304236476D01*
X85702952Y-304284095D01*
X86274380Y-304855523D01*
X86274380Y-304236476D01*
X85274380Y-303331714D02*
X85274380Y-303807904D01*
X85750571Y-303855523D01*
X85702952Y-303807904D01*
X85655333Y-303712666D01*
X85655333Y-303474571D01*
X85702952Y-303379333D01*
X85750571Y-303331714D01*
X85845809Y-303284095D01*
X86083904Y-303284095D01*
X86179142Y-303331714D01*
X86226761Y-303379333D01*
X86274380Y-303474571D01*
X86274380Y-303712666D01*
X86226761Y-303807904D01*
X86179142Y-303855523D01*
%TO.C,D24*%
X67986380Y-313061285D02*
X66986380Y-313061285D01*
X66986380Y-312823190D01*
X67034000Y-312680333D01*
X67129238Y-312585095D01*
X67224476Y-312537476D01*
X67414952Y-312489857D01*
X67557809Y-312489857D01*
X67748285Y-312537476D01*
X67843523Y-312585095D01*
X67938761Y-312680333D01*
X67986380Y-312823190D01*
X67986380Y-313061285D01*
X67081619Y-312108904D02*
X67034000Y-312061285D01*
X66986380Y-311966047D01*
X66986380Y-311727952D01*
X67034000Y-311632714D01*
X67081619Y-311585095D01*
X67176857Y-311537476D01*
X67272095Y-311537476D01*
X67414952Y-311585095D01*
X67986380Y-312156523D01*
X67986380Y-311537476D01*
X67319714Y-310680333D02*
X67986380Y-310680333D01*
X66938761Y-310918428D02*
X67653047Y-311156523D01*
X67653047Y-310537476D01*
%TO.C,D23*%
X367198380Y-324810285D02*
X366198380Y-324810285D01*
X366198380Y-324572190D01*
X366246000Y-324429333D01*
X366341238Y-324334095D01*
X366436476Y-324286476D01*
X366626952Y-324238857D01*
X366769809Y-324238857D01*
X366960285Y-324286476D01*
X367055523Y-324334095D01*
X367150761Y-324429333D01*
X367198380Y-324572190D01*
X367198380Y-324810285D01*
X366293619Y-323857904D02*
X366246000Y-323810285D01*
X366198380Y-323715047D01*
X366198380Y-323476952D01*
X366246000Y-323381714D01*
X366293619Y-323334095D01*
X366388857Y-323286476D01*
X366484095Y-323286476D01*
X366626952Y-323334095D01*
X367198380Y-323905523D01*
X367198380Y-323286476D01*
X366198380Y-322953142D02*
X366198380Y-322334095D01*
X366579333Y-322667428D01*
X366579333Y-322524571D01*
X366626952Y-322429333D01*
X366674571Y-322381714D01*
X366769809Y-322334095D01*
X367007904Y-322334095D01*
X367103142Y-322381714D01*
X367150761Y-322429333D01*
X367198380Y-322524571D01*
X367198380Y-322810285D01*
X367150761Y-322905523D01*
X367103142Y-322953142D01*
%TO.C,D22*%
X367198380Y-305760285D02*
X366198380Y-305760285D01*
X366198380Y-305522190D01*
X366246000Y-305379333D01*
X366341238Y-305284095D01*
X366436476Y-305236476D01*
X366626952Y-305188857D01*
X366769809Y-305188857D01*
X366960285Y-305236476D01*
X367055523Y-305284095D01*
X367150761Y-305379333D01*
X367198380Y-305522190D01*
X367198380Y-305760285D01*
X366293619Y-304807904D02*
X366246000Y-304760285D01*
X366198380Y-304665047D01*
X366198380Y-304426952D01*
X366246000Y-304331714D01*
X366293619Y-304284095D01*
X366388857Y-304236476D01*
X366484095Y-304236476D01*
X366626952Y-304284095D01*
X367198380Y-304855523D01*
X367198380Y-304236476D01*
X366293619Y-303855523D02*
X366246000Y-303807904D01*
X366198380Y-303712666D01*
X366198380Y-303474571D01*
X366246000Y-303379333D01*
X366293619Y-303331714D01*
X366388857Y-303284095D01*
X366484095Y-303284095D01*
X366626952Y-303331714D01*
X367198380Y-303903142D01*
X367198380Y-303284095D01*
%TO.C,D21*%
X348021380Y-324110285D02*
X347021380Y-324110285D01*
X347021380Y-323872190D01*
X347069000Y-323729333D01*
X347164238Y-323634095D01*
X347259476Y-323586476D01*
X347449952Y-323538857D01*
X347592809Y-323538857D01*
X347783285Y-323586476D01*
X347878523Y-323634095D01*
X347973761Y-323729333D01*
X348021380Y-323872190D01*
X348021380Y-324110285D01*
X347116619Y-323157904D02*
X347069000Y-323110285D01*
X347021380Y-323015047D01*
X347021380Y-322776952D01*
X347069000Y-322681714D01*
X347116619Y-322634095D01*
X347211857Y-322586476D01*
X347307095Y-322586476D01*
X347449952Y-322634095D01*
X348021380Y-323205523D01*
X348021380Y-322586476D01*
X348021380Y-321634095D02*
X348021380Y-322205523D01*
X348021380Y-321919809D02*
X347021380Y-321919809D01*
X347164238Y-322015047D01*
X347259476Y-322110285D01*
X347307095Y-322205523D01*
%TO.C,D20*%
X386248380Y-324810285D02*
X385248380Y-324810285D01*
X385248380Y-324572190D01*
X385296000Y-324429333D01*
X385391238Y-324334095D01*
X385486476Y-324286476D01*
X385676952Y-324238857D01*
X385819809Y-324238857D01*
X386010285Y-324286476D01*
X386105523Y-324334095D01*
X386200761Y-324429333D01*
X386248380Y-324572190D01*
X386248380Y-324810285D01*
X385343619Y-323857904D02*
X385296000Y-323810285D01*
X385248380Y-323715047D01*
X385248380Y-323476952D01*
X385296000Y-323381714D01*
X385343619Y-323334095D01*
X385438857Y-323286476D01*
X385534095Y-323286476D01*
X385676952Y-323334095D01*
X386248380Y-323905523D01*
X386248380Y-323286476D01*
X385248380Y-322667428D02*
X385248380Y-322572190D01*
X385296000Y-322476952D01*
X385343619Y-322429333D01*
X385438857Y-322381714D01*
X385629333Y-322334095D01*
X385867428Y-322334095D01*
X386057904Y-322381714D01*
X386153142Y-322429333D01*
X386200761Y-322476952D01*
X386248380Y-322572190D01*
X386248380Y-322667428D01*
X386200761Y-322762666D01*
X386153142Y-322810285D01*
X386057904Y-322857904D01*
X385867428Y-322905523D01*
X385629333Y-322905523D01*
X385438857Y-322857904D01*
X385343619Y-322810285D01*
X385296000Y-322762666D01*
X385248380Y-322667428D01*
%TO.C,D8*%
X76749380Y-324334095D02*
X75749380Y-324334095D01*
X75749380Y-324096000D01*
X75797000Y-323953142D01*
X75892238Y-323857904D01*
X75987476Y-323810285D01*
X76177952Y-323762666D01*
X76320809Y-323762666D01*
X76511285Y-323810285D01*
X76606523Y-323857904D01*
X76701761Y-323953142D01*
X76749380Y-324096000D01*
X76749380Y-324334095D01*
X76177952Y-323191238D02*
X76130333Y-323286476D01*
X76082714Y-323334095D01*
X75987476Y-323381714D01*
X75939857Y-323381714D01*
X75844619Y-323334095D01*
X75797000Y-323286476D01*
X75749380Y-323191238D01*
X75749380Y-323000761D01*
X75797000Y-322905523D01*
X75844619Y-322857904D01*
X75939857Y-322810285D01*
X75987476Y-322810285D01*
X76082714Y-322857904D01*
X76130333Y-322905523D01*
X76177952Y-323000761D01*
X76177952Y-323191238D01*
X76225571Y-323286476D01*
X76273190Y-323334095D01*
X76368428Y-323381714D01*
X76558904Y-323381714D01*
X76654142Y-323334095D01*
X76701761Y-323286476D01*
X76749380Y-323191238D01*
X76749380Y-323000761D01*
X76701761Y-322905523D01*
X76654142Y-322857904D01*
X76558904Y-322810285D01*
X76368428Y-322810285D01*
X76273190Y-322857904D01*
X76225571Y-322905523D01*
X76177952Y-323000761D01*
%TO.C,D19*%
X267249380Y-324810285D02*
X266249380Y-324810285D01*
X266249380Y-324572190D01*
X266297000Y-324429333D01*
X266392238Y-324334095D01*
X266487476Y-324286476D01*
X266677952Y-324238857D01*
X266820809Y-324238857D01*
X267011285Y-324286476D01*
X267106523Y-324334095D01*
X267201761Y-324429333D01*
X267249380Y-324572190D01*
X267249380Y-324810285D01*
X267249380Y-323286476D02*
X267249380Y-323857904D01*
X267249380Y-323572190D02*
X266249380Y-323572190D01*
X266392238Y-323667428D01*
X266487476Y-323762666D01*
X266535095Y-323857904D01*
X267249380Y-322810285D02*
X267249380Y-322619809D01*
X267201761Y-322524571D01*
X267154142Y-322476952D01*
X267011285Y-322381714D01*
X266820809Y-322334095D01*
X266439857Y-322334095D01*
X266344619Y-322381714D01*
X266297000Y-322429333D01*
X266249380Y-322524571D01*
X266249380Y-322715047D01*
X266297000Y-322810285D01*
X266344619Y-322857904D01*
X266439857Y-322905523D01*
X266677952Y-322905523D01*
X266773190Y-322857904D01*
X266820809Y-322810285D01*
X266868428Y-322715047D01*
X266868428Y-322524571D01*
X266820809Y-322429333D01*
X266773190Y-322381714D01*
X266677952Y-322334095D01*
%TO.C,D18*%
X248199380Y-324875285D02*
X247199380Y-324875285D01*
X247199380Y-324637190D01*
X247247000Y-324494333D01*
X247342238Y-324399095D01*
X247437476Y-324351476D01*
X247627952Y-324303857D01*
X247770809Y-324303857D01*
X247961285Y-324351476D01*
X248056523Y-324399095D01*
X248151761Y-324494333D01*
X248199380Y-324637190D01*
X248199380Y-324875285D01*
X248199380Y-323351476D02*
X248199380Y-323922904D01*
X248199380Y-323637190D02*
X247199380Y-323637190D01*
X247342238Y-323732428D01*
X247437476Y-323827666D01*
X247485095Y-323922904D01*
X247627952Y-322780047D02*
X247580333Y-322875285D01*
X247532714Y-322922904D01*
X247437476Y-322970523D01*
X247389857Y-322970523D01*
X247294619Y-322922904D01*
X247247000Y-322875285D01*
X247199380Y-322780047D01*
X247199380Y-322589571D01*
X247247000Y-322494333D01*
X247294619Y-322446714D01*
X247389857Y-322399095D01*
X247437476Y-322399095D01*
X247532714Y-322446714D01*
X247580333Y-322494333D01*
X247627952Y-322589571D01*
X247627952Y-322780047D01*
X247675571Y-322875285D01*
X247723190Y-322922904D01*
X247818428Y-322970523D01*
X248008904Y-322970523D01*
X248104142Y-322922904D01*
X248151761Y-322875285D01*
X248199380Y-322780047D01*
X248199380Y-322589571D01*
X248151761Y-322494333D01*
X248104142Y-322446714D01*
X248008904Y-322399095D01*
X247818428Y-322399095D01*
X247723190Y-322446714D01*
X247675571Y-322494333D01*
X247627952Y-322589571D01*
%TO.C,D17*%
X229149380Y-324875285D02*
X228149380Y-324875285D01*
X228149380Y-324637190D01*
X228197000Y-324494333D01*
X228292238Y-324399095D01*
X228387476Y-324351476D01*
X228577952Y-324303857D01*
X228720809Y-324303857D01*
X228911285Y-324351476D01*
X229006523Y-324399095D01*
X229101761Y-324494333D01*
X229149380Y-324637190D01*
X229149380Y-324875285D01*
X229149380Y-323351476D02*
X229149380Y-323922904D01*
X229149380Y-323637190D02*
X228149380Y-323637190D01*
X228292238Y-323732428D01*
X228387476Y-323827666D01*
X228435095Y-323922904D01*
X228149380Y-323018142D02*
X228149380Y-322351476D01*
X229149380Y-322780047D01*
%TO.C,D16*%
X210099380Y-324810285D02*
X209099380Y-324810285D01*
X209099380Y-324572190D01*
X209147000Y-324429333D01*
X209242238Y-324334095D01*
X209337476Y-324286476D01*
X209527952Y-324238857D01*
X209670809Y-324238857D01*
X209861285Y-324286476D01*
X209956523Y-324334095D01*
X210051761Y-324429333D01*
X210099380Y-324572190D01*
X210099380Y-324810285D01*
X210099380Y-323286476D02*
X210099380Y-323857904D01*
X210099380Y-323572190D02*
X209099380Y-323572190D01*
X209242238Y-323667428D01*
X209337476Y-323762666D01*
X209385095Y-323857904D01*
X209099380Y-322429333D02*
X209099380Y-322619809D01*
X209147000Y-322715047D01*
X209194619Y-322762666D01*
X209337476Y-322857904D01*
X209527952Y-322905523D01*
X209908904Y-322905523D01*
X210004142Y-322857904D01*
X210051761Y-322810285D01*
X210099380Y-322715047D01*
X210099380Y-322524571D01*
X210051761Y-322429333D01*
X210004142Y-322381714D01*
X209908904Y-322334095D01*
X209670809Y-322334095D01*
X209575571Y-322381714D01*
X209527952Y-322429333D01*
X209480333Y-322524571D01*
X209480333Y-322715047D01*
X209527952Y-322810285D01*
X209575571Y-322857904D01*
X209670809Y-322905523D01*
%TO.C,D15*%
X190922380Y-324872285D02*
X189922380Y-324872285D01*
X189922380Y-324634190D01*
X189970000Y-324491333D01*
X190065238Y-324396095D01*
X190160476Y-324348476D01*
X190350952Y-324300857D01*
X190493809Y-324300857D01*
X190684285Y-324348476D01*
X190779523Y-324396095D01*
X190874761Y-324491333D01*
X190922380Y-324634190D01*
X190922380Y-324872285D01*
X190922380Y-323348476D02*
X190922380Y-323919904D01*
X190922380Y-323634190D02*
X189922380Y-323634190D01*
X190065238Y-323729428D01*
X190160476Y-323824666D01*
X190208095Y-323919904D01*
X189922380Y-322443714D02*
X189922380Y-322919904D01*
X190398571Y-322967523D01*
X190350952Y-322919904D01*
X190303333Y-322824666D01*
X190303333Y-322586571D01*
X190350952Y-322491333D01*
X190398571Y-322443714D01*
X190493809Y-322396095D01*
X190731904Y-322396095D01*
X190827142Y-322443714D01*
X190874761Y-322491333D01*
X190922380Y-322586571D01*
X190922380Y-322824666D01*
X190874761Y-322919904D01*
X190827142Y-322967523D01*
%TO.C,D14*%
X171999380Y-324875285D02*
X170999380Y-324875285D01*
X170999380Y-324637190D01*
X171047000Y-324494333D01*
X171142238Y-324399095D01*
X171237476Y-324351476D01*
X171427952Y-324303857D01*
X171570809Y-324303857D01*
X171761285Y-324351476D01*
X171856523Y-324399095D01*
X171951761Y-324494333D01*
X171999380Y-324637190D01*
X171999380Y-324875285D01*
X171999380Y-323351476D02*
X171999380Y-323922904D01*
X171999380Y-323637190D02*
X170999380Y-323637190D01*
X171142238Y-323732428D01*
X171237476Y-323827666D01*
X171285095Y-323922904D01*
X171332714Y-322494333D02*
X171999380Y-322494333D01*
X170951761Y-322732428D02*
X171666047Y-322970523D01*
X171666047Y-322351476D01*
%TO.C,D13*%
X173269380Y-341385285D02*
X172269380Y-341385285D01*
X172269380Y-341147190D01*
X172317000Y-341004333D01*
X172412238Y-340909095D01*
X172507476Y-340861476D01*
X172697952Y-340813857D01*
X172840809Y-340813857D01*
X173031285Y-340861476D01*
X173126523Y-340909095D01*
X173221761Y-341004333D01*
X173269380Y-341147190D01*
X173269380Y-341385285D01*
X173269380Y-339861476D02*
X173269380Y-340432904D01*
X173269380Y-340147190D02*
X172269380Y-340147190D01*
X172412238Y-340242428D01*
X172507476Y-340337666D01*
X172555095Y-340432904D01*
X172269380Y-339528142D02*
X172269380Y-338909095D01*
X172650333Y-339242428D01*
X172650333Y-339099571D01*
X172697952Y-339004333D01*
X172745571Y-338956714D01*
X172840809Y-338909095D01*
X173078904Y-338909095D01*
X173174142Y-338956714D01*
X173221761Y-339004333D01*
X173269380Y-339099571D01*
X173269380Y-339385285D01*
X173221761Y-339480523D01*
X173174142Y-339528142D01*
%TO.C,D12*%
X152822380Y-324875285D02*
X151822380Y-324875285D01*
X151822380Y-324637190D01*
X151870000Y-324494333D01*
X151965238Y-324399095D01*
X152060476Y-324351476D01*
X152250952Y-324303857D01*
X152393809Y-324303857D01*
X152584285Y-324351476D01*
X152679523Y-324399095D01*
X152774761Y-324494333D01*
X152822380Y-324637190D01*
X152822380Y-324875285D01*
X152822380Y-323351476D02*
X152822380Y-323922904D01*
X152822380Y-323637190D02*
X151822380Y-323637190D01*
X151965238Y-323732428D01*
X152060476Y-323827666D01*
X152108095Y-323922904D01*
X151917619Y-322970523D02*
X151870000Y-322922904D01*
X151822380Y-322827666D01*
X151822380Y-322589571D01*
X151870000Y-322494333D01*
X151917619Y-322446714D01*
X152012857Y-322399095D01*
X152108095Y-322399095D01*
X152250952Y-322446714D01*
X152822380Y-323018142D01*
X152822380Y-322399095D01*
%TO.C,D11*%
X133899380Y-324745285D02*
X132899380Y-324745285D01*
X132899380Y-324507190D01*
X132947000Y-324364333D01*
X133042238Y-324269095D01*
X133137476Y-324221476D01*
X133327952Y-324173857D01*
X133470809Y-324173857D01*
X133661285Y-324221476D01*
X133756523Y-324269095D01*
X133851761Y-324364333D01*
X133899380Y-324507190D01*
X133899380Y-324745285D01*
X133899380Y-323221476D02*
X133899380Y-323792904D01*
X133899380Y-323507190D02*
X132899380Y-323507190D01*
X133042238Y-323602428D01*
X133137476Y-323697666D01*
X133185095Y-323792904D01*
X133899380Y-322269095D02*
X133899380Y-322840523D01*
X133899380Y-322554809D02*
X132899380Y-322554809D01*
X133042238Y-322650047D01*
X133137476Y-322745285D01*
X133185095Y-322840523D01*
%TO.C,D10*%
X114722380Y-324810285D02*
X113722380Y-324810285D01*
X113722380Y-324572190D01*
X113770000Y-324429333D01*
X113865238Y-324334095D01*
X113960476Y-324286476D01*
X114150952Y-324238857D01*
X114293809Y-324238857D01*
X114484285Y-324286476D01*
X114579523Y-324334095D01*
X114674761Y-324429333D01*
X114722380Y-324572190D01*
X114722380Y-324810285D01*
X114722380Y-323286476D02*
X114722380Y-323857904D01*
X114722380Y-323572190D02*
X113722380Y-323572190D01*
X113865238Y-323667428D01*
X113960476Y-323762666D01*
X114008095Y-323857904D01*
X113722380Y-322667428D02*
X113722380Y-322572190D01*
X113770000Y-322476952D01*
X113817619Y-322429333D01*
X113912857Y-322381714D01*
X114103333Y-322334095D01*
X114341428Y-322334095D01*
X114531904Y-322381714D01*
X114627142Y-322429333D01*
X114674761Y-322476952D01*
X114722380Y-322572190D01*
X114722380Y-322667428D01*
X114674761Y-322762666D01*
X114627142Y-322810285D01*
X114531904Y-322857904D01*
X114341428Y-322905523D01*
X114103333Y-322905523D01*
X113912857Y-322857904D01*
X113817619Y-322810285D01*
X113770000Y-322762666D01*
X113722380Y-322667428D01*
%TO.C,D9*%
X95672380Y-324272095D02*
X94672380Y-324272095D01*
X94672380Y-324034000D01*
X94720000Y-323891142D01*
X94815238Y-323795904D01*
X94910476Y-323748285D01*
X95100952Y-323700666D01*
X95243809Y-323700666D01*
X95434285Y-323748285D01*
X95529523Y-323795904D01*
X95624761Y-323891142D01*
X95672380Y-324034000D01*
X95672380Y-324272095D01*
X95672380Y-323224476D02*
X95672380Y-323034000D01*
X95624761Y-322938761D01*
X95577142Y-322891142D01*
X95434285Y-322795904D01*
X95243809Y-322748285D01*
X94862857Y-322748285D01*
X94767619Y-322795904D01*
X94720000Y-322843523D01*
X94672380Y-322938761D01*
X94672380Y-323129238D01*
X94720000Y-323224476D01*
X94767619Y-323272095D01*
X94862857Y-323319714D01*
X95100952Y-323319714D01*
X95196190Y-323272095D01*
X95243809Y-323224476D01*
X95291428Y-323129238D01*
X95291428Y-322938761D01*
X95243809Y-322843523D01*
X95196190Y-322795904D01*
X95100952Y-322748285D01*
%TO.C,J5*%
X380822380Y-228533333D02*
X381536666Y-228533333D01*
X381679523Y-228580952D01*
X381774761Y-228676190D01*
X381822380Y-228819047D01*
X381822380Y-228914285D01*
X380822380Y-227580952D02*
X380822380Y-228057142D01*
X381298571Y-228104761D01*
X381250952Y-228057142D01*
X381203333Y-227961904D01*
X381203333Y-227723809D01*
X381250952Y-227628571D01*
X381298571Y-227580952D01*
X381393809Y-227533333D01*
X381631904Y-227533333D01*
X381727142Y-227580952D01*
X381774761Y-227628571D01*
X381822380Y-227723809D01*
X381822380Y-227961904D01*
X381774761Y-228057142D01*
X381727142Y-228104761D01*
%TO.C,Y2*%
X343497109Y-249797990D02*
X343497109Y-250274180D01*
X343163776Y-249274180D02*
X343497109Y-249797990D01*
X343830442Y-249274180D01*
X344116157Y-249369419D02*
X344163776Y-249321800D01*
X344259014Y-249274180D01*
X344497109Y-249274180D01*
X344592347Y-249321800D01*
X344639966Y-249369419D01*
X344687585Y-249464657D01*
X344687585Y-249559895D01*
X344639966Y-249702752D01*
X344068538Y-250274180D01*
X344687585Y-250274180D01*
%TO.C,D1*%
X61175380Y-302871095D02*
X60175380Y-302871095D01*
X60175380Y-302633000D01*
X60223000Y-302490142D01*
X60318238Y-302394904D01*
X60413476Y-302347285D01*
X60603952Y-302299666D01*
X60746809Y-302299666D01*
X60937285Y-302347285D01*
X61032523Y-302394904D01*
X61127761Y-302490142D01*
X61175380Y-302633000D01*
X61175380Y-302871095D01*
X61175380Y-301347285D02*
X61175380Y-301918714D01*
X61175380Y-301633000D02*
X60175380Y-301633000D01*
X60318238Y-301728238D01*
X60413476Y-301823476D01*
X60461095Y-301918714D01*
%TO.C,D7*%
X461552380Y-256588095D02*
X460552380Y-256588095D01*
X460552380Y-256350000D01*
X460600000Y-256207142D01*
X460695238Y-256111904D01*
X460790476Y-256064285D01*
X460980952Y-256016666D01*
X461123809Y-256016666D01*
X461314285Y-256064285D01*
X461409523Y-256111904D01*
X461504761Y-256207142D01*
X461552380Y-256350000D01*
X461552380Y-256588095D01*
X460552380Y-255683333D02*
X460552380Y-255016666D01*
X461552380Y-255445238D01*
%TO.C,D6*%
X457552380Y-256388095D02*
X456552380Y-256388095D01*
X456552380Y-256150000D01*
X456600000Y-256007142D01*
X456695238Y-255911904D01*
X456790476Y-255864285D01*
X456980952Y-255816666D01*
X457123809Y-255816666D01*
X457314285Y-255864285D01*
X457409523Y-255911904D01*
X457504761Y-256007142D01*
X457552380Y-256150000D01*
X457552380Y-256388095D01*
X456552380Y-254959523D02*
X456552380Y-255150000D01*
X456600000Y-255245238D01*
X456647619Y-255292857D01*
X456790476Y-255388095D01*
X456980952Y-255435714D01*
X457361904Y-255435714D01*
X457457142Y-255388095D01*
X457504761Y-255340476D01*
X457552380Y-255245238D01*
X457552380Y-255054761D01*
X457504761Y-254959523D01*
X457457142Y-254911904D01*
X457361904Y-254864285D01*
X457123809Y-254864285D01*
X457028571Y-254911904D01*
X456980952Y-254959523D01*
X456933333Y-255054761D01*
X456933333Y-255245238D01*
X456980952Y-255340476D01*
X457028571Y-255388095D01*
X457123809Y-255435714D01*
%TO.C,D5*%
X453602380Y-256438095D02*
X452602380Y-256438095D01*
X452602380Y-256200000D01*
X452650000Y-256057142D01*
X452745238Y-255961904D01*
X452840476Y-255914285D01*
X453030952Y-255866666D01*
X453173809Y-255866666D01*
X453364285Y-255914285D01*
X453459523Y-255961904D01*
X453554761Y-256057142D01*
X453602380Y-256200000D01*
X453602380Y-256438095D01*
X452602380Y-254961904D02*
X452602380Y-255438095D01*
X453078571Y-255485714D01*
X453030952Y-255438095D01*
X452983333Y-255342857D01*
X452983333Y-255104761D01*
X453030952Y-255009523D01*
X453078571Y-254961904D01*
X453173809Y-254914285D01*
X453411904Y-254914285D01*
X453507142Y-254961904D01*
X453554761Y-255009523D01*
X453602380Y-255104761D01*
X453602380Y-255342857D01*
X453554761Y-255438095D01*
X453507142Y-255485714D01*
%TO.C,J4*%
X393722380Y-228533333D02*
X394436666Y-228533333D01*
X394579523Y-228580952D01*
X394674761Y-228676190D01*
X394722380Y-228819047D01*
X394722380Y-228914285D01*
X394055714Y-227628571D02*
X394722380Y-227628571D01*
X393674761Y-227866666D02*
X394389047Y-228104761D01*
X394389047Y-227485714D01*
%TO.C,U2*%
X343986495Y-224706580D02*
X343986495Y-225516104D01*
X344034114Y-225611342D01*
X344081733Y-225658961D01*
X344176971Y-225706580D01*
X344367447Y-225706580D01*
X344462685Y-225658961D01*
X344510304Y-225611342D01*
X344557923Y-225516104D01*
X344557923Y-224706580D01*
X344986495Y-224801819D02*
X345034114Y-224754200D01*
X345129352Y-224706580D01*
X345367447Y-224706580D01*
X345462685Y-224754200D01*
X345510304Y-224801819D01*
X345557923Y-224897057D01*
X345557923Y-224992295D01*
X345510304Y-225135152D01*
X344938876Y-225706580D01*
X345557923Y-225706580D01*
%TO.C,J3*%
X365322380Y-235663333D02*
X366036666Y-235663333D01*
X366179523Y-235710952D01*
X366274761Y-235806190D01*
X366322380Y-235949047D01*
X366322380Y-236044285D01*
X365322380Y-235282380D02*
X365322380Y-234663333D01*
X365703333Y-234996666D01*
X365703333Y-234853809D01*
X365750952Y-234758571D01*
X365798571Y-234710952D01*
X365893809Y-234663333D01*
X366131904Y-234663333D01*
X366227142Y-234710952D01*
X366274761Y-234758571D01*
X366322380Y-234853809D01*
X366322380Y-235139523D01*
X366274761Y-235234761D01*
X366227142Y-235282380D01*
%TO.C,J2*%
X310302380Y-231193333D02*
X311016666Y-231193333D01*
X311159523Y-231240952D01*
X311254761Y-231336190D01*
X311302380Y-231479047D01*
X311302380Y-231574285D01*
X310397619Y-230764761D02*
X310350000Y-230717142D01*
X310302380Y-230621904D01*
X310302380Y-230383809D01*
X310350000Y-230288571D01*
X310397619Y-230240952D01*
X310492857Y-230193333D01*
X310588095Y-230193333D01*
X310730952Y-230240952D01*
X311302380Y-230812380D01*
X311302380Y-230193333D01*
%TO.C,C6*%
X372033333Y-232457142D02*
X371985714Y-232504761D01*
X371842857Y-232552380D01*
X371747619Y-232552380D01*
X371604761Y-232504761D01*
X371509523Y-232409523D01*
X371461904Y-232314285D01*
X371414285Y-232123809D01*
X371414285Y-231980952D01*
X371461904Y-231790476D01*
X371509523Y-231695238D01*
X371604761Y-231600000D01*
X371747619Y-231552380D01*
X371842857Y-231552380D01*
X371985714Y-231600000D01*
X372033333Y-231647619D01*
X372890476Y-231552380D02*
X372700000Y-231552380D01*
X372604761Y-231600000D01*
X372557142Y-231647619D01*
X372461904Y-231790476D01*
X372414285Y-231980952D01*
X372414285Y-232361904D01*
X372461904Y-232457142D01*
X372509523Y-232504761D01*
X372604761Y-232552380D01*
X372795238Y-232552380D01*
X372890476Y-232504761D01*
X372938095Y-232457142D01*
X372985714Y-232361904D01*
X372985714Y-232123809D01*
X372938095Y-232028571D01*
X372890476Y-231980952D01*
X372795238Y-231933333D01*
X372604761Y-231933333D01*
X372509523Y-231980952D01*
X372461904Y-232028571D01*
X372414285Y-232123809D01*
%TO.C,C5*%
X332333333Y-235057142D02*
X332285714Y-235104761D01*
X332142857Y-235152380D01*
X332047619Y-235152380D01*
X331904761Y-235104761D01*
X331809523Y-235009523D01*
X331761904Y-234914285D01*
X331714285Y-234723809D01*
X331714285Y-234580952D01*
X331761904Y-234390476D01*
X331809523Y-234295238D01*
X331904761Y-234200000D01*
X332047619Y-234152380D01*
X332142857Y-234152380D01*
X332285714Y-234200000D01*
X332333333Y-234247619D01*
X333238095Y-234152380D02*
X332761904Y-234152380D01*
X332714285Y-234628571D01*
X332761904Y-234580952D01*
X332857142Y-234533333D01*
X333095238Y-234533333D01*
X333190476Y-234580952D01*
X333238095Y-234628571D01*
X333285714Y-234723809D01*
X333285714Y-234961904D01*
X333238095Y-235057142D01*
X333190476Y-235104761D01*
X333095238Y-235152380D01*
X332857142Y-235152380D01*
X332761904Y-235104761D01*
X332714285Y-235057142D01*
%TO.C,C4*%
X338879533Y-246003542D02*
X338831914Y-246051161D01*
X338689057Y-246098780D01*
X338593819Y-246098780D01*
X338450961Y-246051161D01*
X338355723Y-245955923D01*
X338308104Y-245860685D01*
X338260485Y-245670209D01*
X338260485Y-245527352D01*
X338308104Y-245336876D01*
X338355723Y-245241638D01*
X338450961Y-245146400D01*
X338593819Y-245098780D01*
X338689057Y-245098780D01*
X338831914Y-245146400D01*
X338879533Y-245194019D01*
X339736676Y-245432114D02*
X339736676Y-246098780D01*
X339498580Y-245051161D02*
X339260485Y-245765447D01*
X339879533Y-245765447D01*
%TO.C,C3*%
X348754833Y-246067042D02*
X348707214Y-246114661D01*
X348564357Y-246162280D01*
X348469119Y-246162280D01*
X348326261Y-246114661D01*
X348231023Y-246019423D01*
X348183404Y-245924185D01*
X348135785Y-245733709D01*
X348135785Y-245590852D01*
X348183404Y-245400376D01*
X348231023Y-245305138D01*
X348326261Y-245209900D01*
X348469119Y-245162280D01*
X348564357Y-245162280D01*
X348707214Y-245209900D01*
X348754833Y-245257519D01*
X349088166Y-245162280D02*
X349707214Y-245162280D01*
X349373880Y-245543233D01*
X349516738Y-245543233D01*
X349611976Y-245590852D01*
X349659595Y-245638471D01*
X349707214Y-245733709D01*
X349707214Y-245971804D01*
X349659595Y-246067042D01*
X349611976Y-246114661D01*
X349516738Y-246162280D01*
X349231023Y-246162280D01*
X349135785Y-246114661D01*
X349088166Y-246067042D01*
%TO.C,D2*%
X67585580Y-308840095D02*
X66585580Y-308840095D01*
X66585580Y-308602000D01*
X66633200Y-308459142D01*
X66728438Y-308363904D01*
X66823676Y-308316285D01*
X67014152Y-308268666D01*
X67157009Y-308268666D01*
X67347485Y-308316285D01*
X67442723Y-308363904D01*
X67537961Y-308459142D01*
X67585580Y-308602000D01*
X67585580Y-308840095D01*
X66680819Y-307887714D02*
X66633200Y-307840095D01*
X66585580Y-307744857D01*
X66585580Y-307506761D01*
X66633200Y-307411523D01*
X66680819Y-307363904D01*
X66776057Y-307316285D01*
X66871295Y-307316285D01*
X67014152Y-307363904D01*
X67585580Y-307935333D01*
X67585580Y-307316285D01*
%TO.C,MX68*%
X293567028Y-324391280D02*
X293233695Y-323915090D01*
X292995600Y-324391280D02*
X292995600Y-323391280D01*
X293376552Y-323391280D01*
X293471790Y-323438900D01*
X293519409Y-323486519D01*
X293567028Y-323581757D01*
X293567028Y-323724614D01*
X293519409Y-323819852D01*
X293471790Y-323867471D01*
X293376552Y-323915090D01*
X292995600Y-323915090D01*
X293947980Y-324343661D02*
X294090838Y-324391280D01*
X294328933Y-324391280D01*
X294424171Y-324343661D01*
X294471790Y-324296042D01*
X294519409Y-324200804D01*
X294519409Y-324105566D01*
X294471790Y-324010328D01*
X294424171Y-323962709D01*
X294328933Y-323915090D01*
X294138457Y-323867471D01*
X294043219Y-323819852D01*
X293995600Y-323772233D01*
X293947980Y-323676995D01*
X293947980Y-323581757D01*
X293995600Y-323486519D01*
X294043219Y-323438900D01*
X294138457Y-323391280D01*
X294376552Y-323391280D01*
X294519409Y-323438900D01*
X294947980Y-324391280D02*
X294947980Y-323391280D01*
X295376552Y-324391280D02*
X295376552Y-323867471D01*
X295328933Y-323772233D01*
X295233695Y-323724614D01*
X295090838Y-323724614D01*
X294995600Y-323772233D01*
X294947980Y-323819852D01*
X295852742Y-324391280D02*
X295852742Y-323724614D01*
X295852742Y-323391280D02*
X295805123Y-323438900D01*
X295852742Y-323486519D01*
X295900361Y-323438900D01*
X295852742Y-323391280D01*
X295852742Y-323486519D01*
X296186076Y-323724614D02*
X296567028Y-323724614D01*
X296328933Y-324391280D02*
X296328933Y-323534138D01*
X296376552Y-323438900D01*
X296471790Y-323391280D01*
X296567028Y-323391280D01*
X296757504Y-323724614D02*
X297138457Y-323724614D01*
X296900361Y-323391280D02*
X296900361Y-324248423D01*
X296947980Y-324343661D01*
X297043219Y-324391280D01*
X297138457Y-324391280D01*
%TO.C,MX77*%
X372071542Y-267262880D02*
X372071542Y-266262880D01*
X372071542Y-266739071D02*
X372642971Y-266739071D01*
X372642971Y-267262880D02*
X372642971Y-266262880D01*
X373119161Y-266739071D02*
X373452495Y-266739071D01*
X373595352Y-267262880D02*
X373119161Y-267262880D01*
X373119161Y-266262880D01*
X373595352Y-266262880D01*
X374500114Y-267262880D02*
X374023923Y-267262880D01*
X374023923Y-266262880D01*
X374833447Y-267262880D02*
X374833447Y-266262880D01*
X375214400Y-266262880D01*
X375309638Y-266310500D01*
X375357257Y-266358119D01*
X375404876Y-266453357D01*
X375404876Y-266596214D01*
X375357257Y-266691452D01*
X375309638Y-266739071D01*
X375214400Y-266786690D01*
X374833447Y-266786690D01*
%TO.C,MX73*%
X343994952Y-267262880D02*
X343994952Y-266262880D01*
X344233047Y-266262880D01*
X344375904Y-266310500D01*
X344471142Y-266405738D01*
X344518761Y-266500976D01*
X344566380Y-266691452D01*
X344566380Y-266834309D01*
X344518761Y-267024785D01*
X344471142Y-267120023D01*
X344375904Y-267215261D01*
X344233047Y-267262880D01*
X343994952Y-267262880D01*
X344994952Y-266739071D02*
X345328285Y-266739071D01*
X345471142Y-267262880D02*
X344994952Y-267262880D01*
X344994952Y-266262880D01*
X345471142Y-266262880D01*
X346375904Y-267262880D02*
X345899714Y-267262880D01*
X345899714Y-266262880D01*
%TO.C,MX64*%
X294487123Y-343462880D02*
X294153790Y-342986690D01*
X293915695Y-343462880D02*
X293915695Y-342462880D01*
X294296647Y-342462880D01*
X294391885Y-342510500D01*
X294439504Y-342558119D01*
X294487123Y-342653357D01*
X294487123Y-342796214D01*
X294439504Y-342891452D01*
X294391885Y-342939071D01*
X294296647Y-342986690D01*
X293915695Y-342986690D01*
X295344266Y-343462880D02*
X295344266Y-342939071D01*
X295296647Y-342843833D01*
X295201409Y-342796214D01*
X295010933Y-342796214D01*
X294915695Y-342843833D01*
X295344266Y-343415261D02*
X295249028Y-343462880D01*
X295010933Y-343462880D01*
X294915695Y-343415261D01*
X294868076Y-343320023D01*
X294868076Y-343224785D01*
X294915695Y-343129547D01*
X295010933Y-343081928D01*
X295249028Y-343081928D01*
X295344266Y-343034309D01*
X295963314Y-343462880D02*
X295868076Y-343415261D01*
X295820457Y-343320023D01*
X295820457Y-342462880D01*
X296201409Y-342796214D02*
X296582361Y-342796214D01*
X296344266Y-342462880D02*
X296344266Y-343320023D01*
X296391885Y-343415261D01*
X296487123Y-343462880D01*
X296582361Y-343462880D01*
%TO.C,MX59*%
X269349219Y-343462880D02*
X269015885Y-342986690D01*
X268777790Y-343462880D02*
X268777790Y-342462880D01*
X269158742Y-342462880D01*
X269253980Y-342510500D01*
X269301600Y-342558119D01*
X269349219Y-342653357D01*
X269349219Y-342796214D01*
X269301600Y-342891452D01*
X269253980Y-342939071D01*
X269158742Y-342986690D01*
X268777790Y-342986690D01*
X270206361Y-343462880D02*
X270206361Y-342939071D01*
X270158742Y-342843833D01*
X270063504Y-342796214D01*
X269873028Y-342796214D01*
X269777790Y-342843833D01*
X270206361Y-343415261D02*
X270111123Y-343462880D01*
X269873028Y-343462880D01*
X269777790Y-343415261D01*
X269730171Y-343320023D01*
X269730171Y-343224785D01*
X269777790Y-343129547D01*
X269873028Y-343081928D01*
X270111123Y-343081928D01*
X270206361Y-343034309D01*
X270682552Y-343462880D02*
X270682552Y-342796214D01*
X270682552Y-342891452D02*
X270730171Y-342843833D01*
X270825409Y-342796214D01*
X270968266Y-342796214D01*
X271063504Y-342843833D01*
X271111123Y-342939071D01*
X271111123Y-343462880D01*
X271111123Y-342939071D02*
X271158742Y-342843833D01*
X271253980Y-342796214D01*
X271396838Y-342796214D01*
X271492076Y-342843833D01*
X271539695Y-342939071D01*
X271539695Y-343462880D01*
X272015885Y-343462880D02*
X272015885Y-342796214D01*
X272015885Y-342462880D02*
X271968266Y-342510500D01*
X272015885Y-342558119D01*
X272063504Y-342510500D01*
X272015885Y-342462880D01*
X272015885Y-342558119D01*
X272920647Y-342796214D02*
X272920647Y-343605738D01*
X272873028Y-343700976D01*
X272825409Y-343748595D01*
X272730171Y-343796214D01*
X272587314Y-343796214D01*
X272492076Y-343748595D01*
X272920647Y-343415261D02*
X272825409Y-343462880D01*
X272634933Y-343462880D01*
X272539695Y-343415261D01*
X272492076Y-343367642D01*
X272444457Y-343272404D01*
X272444457Y-342986690D01*
X272492076Y-342891452D01*
X272539695Y-342843833D01*
X272634933Y-342796214D01*
X272825409Y-342796214D01*
X272920647Y-342843833D01*
X273825409Y-343462880D02*
X273825409Y-342939071D01*
X273777790Y-342843833D01*
X273682552Y-342796214D01*
X273492076Y-342796214D01*
X273396838Y-342843833D01*
X273825409Y-343415261D02*
X273730171Y-343462880D01*
X273492076Y-343462880D01*
X273396838Y-343415261D01*
X273349219Y-343320023D01*
X273349219Y-343224785D01*
X273396838Y-343129547D01*
X273492076Y-343081928D01*
X273730171Y-343081928D01*
X273825409Y-343034309D01*
%TO.C,MX54*%
X289512476Y-238218671D02*
X289179142Y-238218671D01*
X289179142Y-238742480D02*
X289179142Y-237742480D01*
X289655333Y-237742480D01*
X290560095Y-238742480D02*
X289988666Y-238742480D01*
X290274380Y-238742480D02*
X290274380Y-237742480D01*
X290179142Y-237885338D01*
X290083904Y-237980576D01*
X289988666Y-238028195D01*
X291179142Y-237742480D02*
X291274380Y-237742480D01*
X291369619Y-237790100D01*
X291417238Y-237837719D01*
X291464857Y-237932957D01*
X291512476Y-238123433D01*
X291512476Y-238361528D01*
X291464857Y-238552004D01*
X291417238Y-238647242D01*
X291369619Y-238694861D01*
X291274380Y-238742480D01*
X291179142Y-238742480D01*
X291083904Y-238694861D01*
X291036285Y-238647242D01*
X290988666Y-238552004D01*
X290941047Y-238361528D01*
X290941047Y-238123433D01*
X290988666Y-237932957D01*
X291036285Y-237837719D01*
X291083904Y-237790100D01*
X291179142Y-237742480D01*
%TO.C,MX49*%
X266184666Y-238240271D02*
X265851333Y-238240271D01*
X265851333Y-238764080D02*
X265851333Y-237764080D01*
X266327523Y-237764080D01*
X266756095Y-238764080D02*
X266946571Y-238764080D01*
X267041809Y-238716461D01*
X267089428Y-238668842D01*
X267184666Y-238525985D01*
X267232285Y-238335509D01*
X267232285Y-237954557D01*
X267184666Y-237859319D01*
X267137047Y-237811700D01*
X267041809Y-237764080D01*
X266851333Y-237764080D01*
X266756095Y-237811700D01*
X266708476Y-237859319D01*
X266660857Y-237954557D01*
X266660857Y-238192652D01*
X266708476Y-238287890D01*
X266756095Y-238335509D01*
X266851333Y-238383128D01*
X267041809Y-238383128D01*
X267137047Y-238335509D01*
X267184666Y-238287890D01*
X267232285Y-238192652D01*
%TO.C,MX44*%
X242338266Y-238218671D02*
X242004933Y-238218671D01*
X242004933Y-238742480D02*
X242004933Y-237742480D01*
X242481123Y-237742480D01*
X243004933Y-238171052D02*
X242909695Y-238123433D01*
X242862076Y-238075814D01*
X242814457Y-237980576D01*
X242814457Y-237932957D01*
X242862076Y-237837719D01*
X242909695Y-237790100D01*
X243004933Y-237742480D01*
X243195409Y-237742480D01*
X243290647Y-237790100D01*
X243338266Y-237837719D01*
X243385885Y-237932957D01*
X243385885Y-237980576D01*
X243338266Y-238075814D01*
X243290647Y-238123433D01*
X243195409Y-238171052D01*
X243004933Y-238171052D01*
X242909695Y-238218671D01*
X242862076Y-238266290D01*
X242814457Y-238361528D01*
X242814457Y-238552004D01*
X242862076Y-238647242D01*
X242909695Y-238694861D01*
X243004933Y-238742480D01*
X243195409Y-238742480D01*
X243290647Y-238694861D01*
X243338266Y-238647242D01*
X243385885Y-238552004D01*
X243385885Y-238361528D01*
X243338266Y-238266290D01*
X243290647Y-238218671D01*
X243195409Y-238171052D01*
%TO.C,MX39*%
X218513066Y-238218671D02*
X218179733Y-238218671D01*
X218179733Y-238742480D02*
X218179733Y-237742480D01*
X218655923Y-237742480D01*
X218941638Y-237742480D02*
X219608304Y-237742480D01*
X219179733Y-238742480D01*
%TO.C,MX34*%
X194687866Y-238218671D02*
X194354533Y-238218671D01*
X194354533Y-238742480D02*
X194354533Y-237742480D01*
X194830723Y-237742480D01*
X195640247Y-237742480D02*
X195449771Y-237742480D01*
X195354533Y-237790100D01*
X195306914Y-237837719D01*
X195211676Y-237980576D01*
X195164057Y-238171052D01*
X195164057Y-238552004D01*
X195211676Y-238647242D01*
X195259295Y-238694861D01*
X195354533Y-238742480D01*
X195545009Y-238742480D01*
X195640247Y-238694861D01*
X195687866Y-238647242D01*
X195735485Y-238552004D01*
X195735485Y-238313909D01*
X195687866Y-238218671D01*
X195640247Y-238171052D01*
X195545009Y-238123433D01*
X195354533Y-238123433D01*
X195259295Y-238171052D01*
X195211676Y-238218671D01*
X195164057Y-238313909D01*
%TO.C,MX28*%
X161413866Y-238218671D02*
X161080533Y-238218671D01*
X161080533Y-238742480D02*
X161080533Y-237742480D01*
X161556723Y-237742480D01*
X162413866Y-237742480D02*
X161937676Y-237742480D01*
X161890057Y-238218671D01*
X161937676Y-238171052D01*
X162032914Y-238123433D01*
X162271009Y-238123433D01*
X162366247Y-238171052D01*
X162413866Y-238218671D01*
X162461485Y-238313909D01*
X162461485Y-238552004D01*
X162413866Y-238647242D01*
X162366247Y-238694861D01*
X162271009Y-238742480D01*
X162032914Y-238742480D01*
X161937676Y-238694861D01*
X161890057Y-238647242D01*
%TO.C,MX23*%
X137588666Y-238218671D02*
X137255333Y-238218671D01*
X137255333Y-238742480D02*
X137255333Y-237742480D01*
X137731523Y-237742480D01*
X138541047Y-238075814D02*
X138541047Y-238742480D01*
X138302952Y-237694861D02*
X138064857Y-238409147D01*
X138683904Y-238409147D01*
%TO.C,MX18*%
X113763466Y-238218671D02*
X113430133Y-238218671D01*
X113430133Y-238742480D02*
X113430133Y-237742480D01*
X113906323Y-237742480D01*
X114192038Y-237742480D02*
X114811085Y-237742480D01*
X114477752Y-238123433D01*
X114620609Y-238123433D01*
X114715847Y-238171052D01*
X114763466Y-238218671D01*
X114811085Y-238313909D01*
X114811085Y-238552004D01*
X114763466Y-238647242D01*
X114715847Y-238694861D01*
X114620609Y-238742480D01*
X114334895Y-238742480D01*
X114239657Y-238694861D01*
X114192038Y-238647242D01*
%TO.C,MX13*%
X89938266Y-238218671D02*
X89604933Y-238218671D01*
X89604933Y-238742480D02*
X89604933Y-237742480D01*
X90081123Y-237742480D01*
X90414457Y-237837719D02*
X90462076Y-237790100D01*
X90557314Y-237742480D01*
X90795409Y-237742480D01*
X90890647Y-237790100D01*
X90938266Y-237837719D01*
X90985885Y-237932957D01*
X90985885Y-238028195D01*
X90938266Y-238171052D01*
X90366838Y-238742480D01*
X90985885Y-238742480D01*
%TO.C,MX12*%
X73942819Y-343492080D02*
X73466628Y-343492080D01*
X73466628Y-342492080D01*
X74704723Y-343492080D02*
X74704723Y-342968271D01*
X74657104Y-342873033D01*
X74561866Y-342825414D01*
X74371390Y-342825414D01*
X74276152Y-342873033D01*
X74704723Y-343444461D02*
X74609485Y-343492080D01*
X74371390Y-343492080D01*
X74276152Y-343444461D01*
X74228533Y-343349223D01*
X74228533Y-343253985D01*
X74276152Y-343158747D01*
X74371390Y-343111128D01*
X74609485Y-343111128D01*
X74704723Y-343063509D01*
X75180914Y-343492080D02*
X75180914Y-342825414D01*
X75180914Y-342920652D02*
X75228533Y-342873033D01*
X75323771Y-342825414D01*
X75466628Y-342825414D01*
X75561866Y-342873033D01*
X75609485Y-342968271D01*
X75609485Y-343492080D01*
X75609485Y-342968271D02*
X75657104Y-342873033D01*
X75752342Y-342825414D01*
X75895200Y-342825414D01*
X75990438Y-342873033D01*
X76038057Y-342968271D01*
X76038057Y-343492080D01*
X76514247Y-343492080D02*
X76514247Y-342825414D01*
X76514247Y-342492080D02*
X76466628Y-342539700D01*
X76514247Y-342587319D01*
X76561866Y-342539700D01*
X76514247Y-342492080D01*
X76514247Y-342587319D01*
X77419009Y-342825414D02*
X77419009Y-343634938D01*
X77371390Y-343730176D01*
X77323771Y-343777795D01*
X77228533Y-343825414D01*
X77085676Y-343825414D01*
X76990438Y-343777795D01*
X77419009Y-343444461D02*
X77323771Y-343492080D01*
X77133295Y-343492080D01*
X77038057Y-343444461D01*
X76990438Y-343396842D01*
X76942819Y-343301604D01*
X76942819Y-343015890D01*
X76990438Y-342920652D01*
X77038057Y-342873033D01*
X77133295Y-342825414D01*
X77323771Y-342825414D01*
X77419009Y-342873033D01*
X78323771Y-343492080D02*
X78323771Y-342968271D01*
X78276152Y-342873033D01*
X78180914Y-342825414D01*
X77990438Y-342825414D01*
X77895200Y-342873033D01*
X78323771Y-343444461D02*
X78228533Y-343492080D01*
X77990438Y-343492080D01*
X77895200Y-343444461D01*
X77847580Y-343349223D01*
X77847580Y-343253985D01*
X77895200Y-343158747D01*
X77990438Y-343111128D01*
X78228533Y-343111128D01*
X78323771Y-343063509D01*
%TO.C,MX7*%
X66163866Y-238218671D02*
X65830533Y-238218671D01*
X65830533Y-238742480D02*
X65830533Y-237742480D01*
X66306723Y-237742480D01*
X67211485Y-238742480D02*
X66640057Y-238742480D01*
X66925771Y-238742480D02*
X66925771Y-237742480D01*
X66830533Y-237885338D01*
X66735295Y-237980576D01*
X66640057Y-238028195D01*
%TO.C,MX6*%
X51400723Y-343513680D02*
X50924533Y-343513680D01*
X50924533Y-342513680D01*
X52162628Y-343513680D02*
X52162628Y-342989871D01*
X52115009Y-342894633D01*
X52019771Y-342847014D01*
X51829295Y-342847014D01*
X51734057Y-342894633D01*
X52162628Y-343466061D02*
X52067390Y-343513680D01*
X51829295Y-343513680D01*
X51734057Y-343466061D01*
X51686438Y-343370823D01*
X51686438Y-343275585D01*
X51734057Y-343180347D01*
X51829295Y-343132728D01*
X52067390Y-343132728D01*
X52162628Y-343085109D01*
X52781676Y-343513680D02*
X52686438Y-343466061D01*
X52638819Y-343370823D01*
X52638819Y-342513680D01*
X53019771Y-342847014D02*
X53400723Y-342847014D01*
X53162628Y-342513680D02*
X53162628Y-343370823D01*
X53210247Y-343466061D01*
X53305485Y-343513680D01*
X53400723Y-343513680D01*
%TO.C,MX4*%
X36848609Y-305216842D02*
X36800990Y-305264461D01*
X36658133Y-305312080D01*
X36562895Y-305312080D01*
X36420038Y-305264461D01*
X36324800Y-305169223D01*
X36277180Y-305073985D01*
X36229561Y-304883509D01*
X36229561Y-304740652D01*
X36277180Y-304550176D01*
X36324800Y-304454938D01*
X36420038Y-304359700D01*
X36562895Y-304312080D01*
X36658133Y-304312080D01*
X36800990Y-304359700D01*
X36848609Y-304407319D01*
X37134323Y-304312080D02*
X37705752Y-304312080D01*
X37420038Y-305312080D02*
X37420038Y-304312080D01*
X38610514Y-305312080D02*
X38277180Y-304835890D01*
X38039085Y-305312080D02*
X38039085Y-304312080D01*
X38420038Y-304312080D01*
X38515276Y-304359700D01*
X38562895Y-304407319D01*
X38610514Y-304502557D01*
X38610514Y-304645414D01*
X38562895Y-304740652D01*
X38515276Y-304788271D01*
X38420038Y-304835890D01*
X38039085Y-304835890D01*
X39515276Y-305312080D02*
X39039085Y-305312080D01*
X39039085Y-304312080D01*
%TO.C,MX2*%
X38662171Y-266549214D02*
X39043123Y-266549214D01*
X38805028Y-266215880D02*
X38805028Y-267073023D01*
X38852647Y-267168261D01*
X38947885Y-267215880D01*
X39043123Y-267215880D01*
X39376457Y-267215880D02*
X39376457Y-266549214D01*
X39376457Y-266215880D02*
X39328838Y-266263500D01*
X39376457Y-266311119D01*
X39424076Y-266263500D01*
X39376457Y-266215880D01*
X39376457Y-266311119D01*
X39995504Y-267215880D02*
X39900266Y-267168261D01*
X39852647Y-267073023D01*
X39852647Y-266215880D01*
X40805028Y-267215880D02*
X40805028Y-266215880D01*
X40805028Y-267168261D02*
X40709790Y-267215880D01*
X40519314Y-267215880D01*
X40424076Y-267168261D01*
X40376457Y-267120642D01*
X40328838Y-267025404D01*
X40328838Y-266739690D01*
X40376457Y-266644452D01*
X40424076Y-266596833D01*
X40519314Y-266549214D01*
X40709790Y-266549214D01*
X40805028Y-266596833D01*
X41662171Y-267168261D02*
X41566933Y-267215880D01*
X41376457Y-267215880D01*
X41281219Y-267168261D01*
X41233600Y-267073023D01*
X41233600Y-266692071D01*
X41281219Y-266596833D01*
X41376457Y-266549214D01*
X41566933Y-266549214D01*
X41662171Y-266596833D01*
X41709790Y-266692071D01*
X41709790Y-266787309D01*
X41233600Y-266882547D01*
%TO.C,MX95*%
X461626247Y-305341280D02*
X461626247Y-304341280D01*
X462197676Y-305341280D01*
X462197676Y-304341280D01*
X462673866Y-304341280D02*
X462673866Y-305150804D01*
X462721485Y-305246042D01*
X462769104Y-305293661D01*
X462864342Y-305341280D01*
X463054819Y-305341280D01*
X463150057Y-305293661D01*
X463197676Y-305246042D01*
X463245295Y-305150804D01*
X463245295Y-304341280D01*
X463721485Y-305341280D02*
X463721485Y-304341280D01*
X464054819Y-305055566D01*
X464388152Y-304341280D01*
X464388152Y-305341280D01*
X464626247Y-305436519D02*
X465388152Y-305436519D01*
X465626247Y-304960328D02*
X466388152Y-304960328D01*
X466007200Y-305341280D02*
X466007200Y-304579376D01*
%TO.C,MX94*%
X461626247Y-286291280D02*
X461626247Y-285291280D01*
X462197676Y-286291280D01*
X462197676Y-285291280D01*
X462673866Y-285291280D02*
X462673866Y-286100804D01*
X462721485Y-286196042D01*
X462769104Y-286243661D01*
X462864342Y-286291280D01*
X463054819Y-286291280D01*
X463150057Y-286243661D01*
X463197676Y-286196042D01*
X463245295Y-286100804D01*
X463245295Y-285291280D01*
X463721485Y-286291280D02*
X463721485Y-285291280D01*
X464054819Y-286005566D01*
X464388152Y-285291280D01*
X464388152Y-286291280D01*
X464626247Y-286386519D02*
X465388152Y-286386519D01*
X465626247Y-285910328D02*
X466388152Y-285910328D01*
%TO.C,MX93*%
X461864342Y-267342880D02*
X461864342Y-266342880D01*
X462435771Y-267342880D01*
X462435771Y-266342880D01*
X462911961Y-266342880D02*
X462911961Y-267152404D01*
X462959580Y-267247642D01*
X463007200Y-267295261D01*
X463102438Y-267342880D01*
X463292914Y-267342880D01*
X463388152Y-267295261D01*
X463435771Y-267247642D01*
X463483390Y-267152404D01*
X463483390Y-266342880D01*
X463959580Y-267342880D02*
X463959580Y-266342880D01*
X464292914Y-267057166D01*
X464626247Y-266342880D01*
X464626247Y-267342880D01*
X464864342Y-267438119D02*
X465626247Y-267438119D01*
X466007200Y-266342880D02*
X466007200Y-266580976D01*
X465769104Y-266485738D02*
X466007200Y-266580976D01*
X466245295Y-266485738D01*
X465864342Y-266771452D02*
X466007200Y-266580976D01*
X466150057Y-266771452D01*
%TO.C,MX92*%
X442834400Y-343462880D02*
X442834400Y-342462880D01*
X443405828Y-343462880D01*
X443405828Y-342462880D01*
X443882019Y-342462880D02*
X443882019Y-343272404D01*
X443929638Y-343367642D01*
X443977257Y-343415261D01*
X444072495Y-343462880D01*
X444262971Y-343462880D01*
X444358209Y-343415261D01*
X444405828Y-343367642D01*
X444453447Y-343272404D01*
X444453447Y-342462880D01*
X444929638Y-343462880D02*
X444929638Y-342462880D01*
X445262971Y-343177166D01*
X445596304Y-342462880D01*
X445596304Y-343462880D01*
X445834400Y-343558119D02*
X446596304Y-343558119D01*
X446834400Y-343367642D02*
X446882019Y-343415261D01*
X446834400Y-343462880D01*
X446786780Y-343415261D01*
X446834400Y-343367642D01*
X446834400Y-343462880D01*
%TO.C,MX91*%
X442617504Y-324391280D02*
X442617504Y-323391280D01*
X443188933Y-324391280D01*
X443188933Y-323391280D01*
X443665123Y-323391280D02*
X443665123Y-324200804D01*
X443712742Y-324296042D01*
X443760361Y-324343661D01*
X443855600Y-324391280D01*
X444046076Y-324391280D01*
X444141314Y-324343661D01*
X444188933Y-324296042D01*
X444236552Y-324200804D01*
X444236552Y-323391280D01*
X444712742Y-324391280D02*
X444712742Y-323391280D01*
X445046076Y-324105566D01*
X445379409Y-323391280D01*
X445379409Y-324391280D01*
X445617504Y-324486519D02*
X446379409Y-324486519D01*
X446522266Y-323391280D02*
X447141314Y-323391280D01*
X446807980Y-323772233D01*
X446950838Y-323772233D01*
X447046076Y-323819852D01*
X447093695Y-323867471D01*
X447141314Y-323962709D01*
X447141314Y-324200804D01*
X447093695Y-324296042D01*
X447046076Y-324343661D01*
X446950838Y-324391280D01*
X446665123Y-324391280D01*
X446569885Y-324343661D01*
X446522266Y-324296042D01*
%TO.C,MX90*%
X442617504Y-305392080D02*
X442617504Y-304392080D01*
X443188933Y-305392080D01*
X443188933Y-304392080D01*
X443665123Y-304392080D02*
X443665123Y-305201604D01*
X443712742Y-305296842D01*
X443760361Y-305344461D01*
X443855600Y-305392080D01*
X444046076Y-305392080D01*
X444141314Y-305344461D01*
X444188933Y-305296842D01*
X444236552Y-305201604D01*
X444236552Y-304392080D01*
X444712742Y-305392080D02*
X444712742Y-304392080D01*
X445046076Y-305106366D01*
X445379409Y-304392080D01*
X445379409Y-305392080D01*
X445617504Y-305487319D02*
X446379409Y-305487319D01*
X447046076Y-304392080D02*
X446855600Y-304392080D01*
X446760361Y-304439700D01*
X446712742Y-304487319D01*
X446617504Y-304630176D01*
X446569885Y-304820652D01*
X446569885Y-305201604D01*
X446617504Y-305296842D01*
X446665123Y-305344461D01*
X446760361Y-305392080D01*
X446950838Y-305392080D01*
X447046076Y-305344461D01*
X447093695Y-305296842D01*
X447141314Y-305201604D01*
X447141314Y-304963509D01*
X447093695Y-304868271D01*
X447046076Y-304820652D01*
X446950838Y-304773033D01*
X446760361Y-304773033D01*
X446665123Y-304820652D01*
X446617504Y-304868271D01*
X446569885Y-304963509D01*
%TO.C,MX89*%
X442566704Y-286342080D02*
X442566704Y-285342080D01*
X443138133Y-286342080D01*
X443138133Y-285342080D01*
X443614323Y-285342080D02*
X443614323Y-286151604D01*
X443661942Y-286246842D01*
X443709561Y-286294461D01*
X443804800Y-286342080D01*
X443995276Y-286342080D01*
X444090514Y-286294461D01*
X444138133Y-286246842D01*
X444185752Y-286151604D01*
X444185752Y-285342080D01*
X444661942Y-286342080D02*
X444661942Y-285342080D01*
X444995276Y-286056366D01*
X445328609Y-285342080D01*
X445328609Y-286342080D01*
X445566704Y-286437319D02*
X446328609Y-286437319D01*
X446614323Y-286342080D02*
X446804800Y-286342080D01*
X446900038Y-286294461D01*
X446947657Y-286246842D01*
X447042895Y-286103985D01*
X447090514Y-285913509D01*
X447090514Y-285532557D01*
X447042895Y-285437319D01*
X446995276Y-285389700D01*
X446900038Y-285342080D01*
X446709561Y-285342080D01*
X446614323Y-285389700D01*
X446566704Y-285437319D01*
X446519085Y-285532557D01*
X446519085Y-285770652D01*
X446566704Y-285865890D01*
X446614323Y-285913509D01*
X446709561Y-285961128D01*
X446900038Y-285961128D01*
X446995276Y-285913509D01*
X447042895Y-285865890D01*
X447090514Y-285770652D01*
%TO.C,MX88*%
X442620685Y-267342880D02*
X442620685Y-266342880D01*
X443192114Y-267342880D01*
X443192114Y-266342880D01*
X443668304Y-266342880D02*
X443668304Y-267152404D01*
X443715923Y-267247642D01*
X443763542Y-267295261D01*
X443858780Y-267342880D01*
X444049257Y-267342880D01*
X444144495Y-267295261D01*
X444192114Y-267247642D01*
X444239733Y-267152404D01*
X444239733Y-266342880D01*
X444715923Y-267342880D02*
X444715923Y-266342880D01*
X445049257Y-267057166D01*
X445382590Y-266342880D01*
X445382590Y-267342880D01*
X445620685Y-267438119D02*
X446382590Y-267438119D01*
X447334971Y-266295261D02*
X446477828Y-267580976D01*
%TO.C,MX86*%
X423516704Y-305392080D02*
X423516704Y-304392080D01*
X424088133Y-305392080D01*
X424088133Y-304392080D01*
X424564323Y-304392080D02*
X424564323Y-305201604D01*
X424611942Y-305296842D01*
X424659561Y-305344461D01*
X424754800Y-305392080D01*
X424945276Y-305392080D01*
X425040514Y-305344461D01*
X425088133Y-305296842D01*
X425135752Y-305201604D01*
X425135752Y-304392080D01*
X425611942Y-305392080D02*
X425611942Y-304392080D01*
X425945276Y-305106366D01*
X426278609Y-304392080D01*
X426278609Y-305392080D01*
X426516704Y-305487319D02*
X427278609Y-305487319D01*
X427992895Y-304392080D02*
X427516704Y-304392080D01*
X427469085Y-304868271D01*
X427516704Y-304820652D01*
X427611942Y-304773033D01*
X427850038Y-304773033D01*
X427945276Y-304820652D01*
X427992895Y-304868271D01*
X428040514Y-304963509D01*
X428040514Y-305201604D01*
X427992895Y-305296842D01*
X427945276Y-305344461D01*
X427850038Y-305392080D01*
X427611942Y-305392080D01*
X427516704Y-305344461D01*
X427469085Y-305296842D01*
%TO.C,MX85*%
X423516704Y-286342080D02*
X423516704Y-285342080D01*
X424088133Y-286342080D01*
X424088133Y-285342080D01*
X424564323Y-285342080D02*
X424564323Y-286151604D01*
X424611942Y-286246842D01*
X424659561Y-286294461D01*
X424754800Y-286342080D01*
X424945276Y-286342080D01*
X425040514Y-286294461D01*
X425088133Y-286246842D01*
X425135752Y-286151604D01*
X425135752Y-285342080D01*
X425611942Y-286342080D02*
X425611942Y-285342080D01*
X425945276Y-286056366D01*
X426278609Y-285342080D01*
X426278609Y-286342080D01*
X426516704Y-286437319D02*
X427278609Y-286437319D01*
X427659561Y-285770652D02*
X427564323Y-285723033D01*
X427516704Y-285675414D01*
X427469085Y-285580176D01*
X427469085Y-285532557D01*
X427516704Y-285437319D01*
X427564323Y-285389700D01*
X427659561Y-285342080D01*
X427850038Y-285342080D01*
X427945276Y-285389700D01*
X427992895Y-285437319D01*
X428040514Y-285532557D01*
X428040514Y-285580176D01*
X427992895Y-285675414D01*
X427945276Y-285723033D01*
X427850038Y-285770652D01*
X427659561Y-285770652D01*
X427564323Y-285818271D01*
X427516704Y-285865890D01*
X427469085Y-285961128D01*
X427469085Y-286151604D01*
X427516704Y-286246842D01*
X427564323Y-286294461D01*
X427659561Y-286342080D01*
X427850038Y-286342080D01*
X427945276Y-286294461D01*
X427992895Y-286246842D01*
X428040514Y-286151604D01*
X428040514Y-285961128D01*
X427992895Y-285865890D01*
X427945276Y-285818271D01*
X427850038Y-285770652D01*
%TO.C,MX84*%
X423710361Y-267342880D02*
X423710361Y-266342880D01*
X424281790Y-267342880D01*
X424281790Y-266342880D01*
X424757980Y-266342880D02*
X424757980Y-267152404D01*
X424805600Y-267247642D01*
X424853219Y-267295261D01*
X424948457Y-267342880D01*
X425138933Y-267342880D01*
X425234171Y-267295261D01*
X425281790Y-267247642D01*
X425329409Y-267152404D01*
X425329409Y-266342880D01*
X425805600Y-267342880D02*
X425805600Y-266342880D01*
X426138933Y-267057166D01*
X426472266Y-266342880D01*
X426472266Y-267342880D01*
X426710361Y-267438119D02*
X427472266Y-267438119D01*
X427615123Y-267723833D02*
X427662742Y-267676214D01*
X427757980Y-267533357D01*
X427805600Y-267438119D01*
X427853219Y-267295261D01*
X427900838Y-267057166D01*
X427900838Y-266866690D01*
X427853219Y-266628595D01*
X427805600Y-266485738D01*
X427757980Y-266390500D01*
X427662742Y-266247642D01*
X427615123Y-266200023D01*
%TO.C,MX82*%
X404496304Y-324412880D02*
X404496304Y-323412880D01*
X405067733Y-324412880D01*
X405067733Y-323412880D01*
X405543923Y-323412880D02*
X405543923Y-324222404D01*
X405591542Y-324317642D01*
X405639161Y-324365261D01*
X405734400Y-324412880D01*
X405924876Y-324412880D01*
X406020114Y-324365261D01*
X406067733Y-324317642D01*
X406115352Y-324222404D01*
X406115352Y-323412880D01*
X406591542Y-324412880D02*
X406591542Y-323412880D01*
X406924876Y-324127166D01*
X407258209Y-323412880D01*
X407258209Y-324412880D01*
X407496304Y-324508119D02*
X408258209Y-324508119D01*
X409020114Y-324412880D02*
X408448685Y-324412880D01*
X408734400Y-324412880D02*
X408734400Y-323412880D01*
X408639161Y-323555738D01*
X408543923Y-323650976D01*
X408448685Y-323698595D01*
%TO.C,MX81*%
X404466704Y-305392080D02*
X404466704Y-304392080D01*
X405038133Y-305392080D01*
X405038133Y-304392080D01*
X405514323Y-304392080D02*
X405514323Y-305201604D01*
X405561942Y-305296842D01*
X405609561Y-305344461D01*
X405704800Y-305392080D01*
X405895276Y-305392080D01*
X405990514Y-305344461D01*
X406038133Y-305296842D01*
X406085752Y-305201604D01*
X406085752Y-304392080D01*
X406561942Y-305392080D02*
X406561942Y-304392080D01*
X406895276Y-305106366D01*
X407228609Y-304392080D01*
X407228609Y-305392080D01*
X407466704Y-305487319D02*
X408228609Y-305487319D01*
X408895276Y-304725414D02*
X408895276Y-305392080D01*
X408657180Y-304344461D02*
X408419085Y-305058747D01*
X409038133Y-305058747D01*
%TO.C,MX80*%
X404466704Y-286342080D02*
X404466704Y-285342080D01*
X405038133Y-286342080D01*
X405038133Y-285342080D01*
X405514323Y-285342080D02*
X405514323Y-286151604D01*
X405561942Y-286246842D01*
X405609561Y-286294461D01*
X405704800Y-286342080D01*
X405895276Y-286342080D01*
X405990514Y-286294461D01*
X406038133Y-286246842D01*
X406085752Y-286151604D01*
X406085752Y-285342080D01*
X406561942Y-286342080D02*
X406561942Y-285342080D01*
X406895276Y-286056366D01*
X407228609Y-285342080D01*
X407228609Y-286342080D01*
X407466704Y-286437319D02*
X408228609Y-286437319D01*
X408371466Y-285342080D02*
X409038133Y-285342080D01*
X408609561Y-286342080D01*
%TO.C,MX79*%
X404609561Y-267292080D02*
X404609561Y-266292080D01*
X405180990Y-267292080D01*
X405180990Y-266292080D01*
X405657180Y-266292080D02*
X405657180Y-267101604D01*
X405704800Y-267196842D01*
X405752419Y-267244461D01*
X405847657Y-267292080D01*
X406038133Y-267292080D01*
X406133371Y-267244461D01*
X406180990Y-267196842D01*
X406228609Y-267101604D01*
X406228609Y-266292080D01*
X406704800Y-267292080D02*
X406704800Y-266292080D01*
X407038133Y-267006366D01*
X407371466Y-266292080D01*
X407371466Y-267292080D01*
X407609561Y-267387319D02*
X408371466Y-267387319D01*
X408895276Y-267673033D02*
X408847657Y-267625414D01*
X408752419Y-267482557D01*
X408704800Y-267387319D01*
X408657180Y-267244461D01*
X408609561Y-267006366D01*
X408609561Y-266815890D01*
X408657180Y-266577795D01*
X408704800Y-266434938D01*
X408752419Y-266339700D01*
X408847657Y-266196842D01*
X408895276Y-266149223D01*
%TO.C,MX78*%
X376756800Y-324391280D02*
X376756800Y-323724614D01*
X376756800Y-323915090D02*
X376804419Y-323819852D01*
X376852038Y-323772233D01*
X376947276Y-323724614D01*
X377042514Y-323724614D01*
X377375847Y-324391280D02*
X377375847Y-323724614D01*
X377375847Y-323391280D02*
X377328228Y-323438900D01*
X377375847Y-323486519D01*
X377423466Y-323438900D01*
X377375847Y-323391280D01*
X377375847Y-323486519D01*
X378280609Y-323724614D02*
X378280609Y-324534138D01*
X378232990Y-324629376D01*
X378185371Y-324676995D01*
X378090133Y-324724614D01*
X377947276Y-324724614D01*
X377852038Y-324676995D01*
X378280609Y-324343661D02*
X378185371Y-324391280D01*
X377994895Y-324391280D01*
X377899657Y-324343661D01*
X377852038Y-324296042D01*
X377804419Y-324200804D01*
X377804419Y-323915090D01*
X377852038Y-323819852D01*
X377899657Y-323772233D01*
X377994895Y-323724614D01*
X378185371Y-323724614D01*
X378280609Y-323772233D01*
X378756800Y-324391280D02*
X378756800Y-323391280D01*
X379185371Y-324391280D02*
X379185371Y-323867471D01*
X379137752Y-323772233D01*
X379042514Y-323724614D01*
X378899657Y-323724614D01*
X378804419Y-323772233D01*
X378756800Y-323819852D01*
X379518704Y-323724614D02*
X379899657Y-323724614D01*
X379661561Y-323391280D02*
X379661561Y-324248423D01*
X379709180Y-324343661D01*
X379804419Y-324391280D01*
X379899657Y-324391280D01*
%TO.C,MX76*%
X358022114Y-324391280D02*
X358022114Y-323391280D01*
X358022114Y-324343661D02*
X357926876Y-324391280D01*
X357736400Y-324391280D01*
X357641161Y-324343661D01*
X357593542Y-324296042D01*
X357545923Y-324200804D01*
X357545923Y-323915090D01*
X357593542Y-323819852D01*
X357641161Y-323772233D01*
X357736400Y-323724614D01*
X357926876Y-323724614D01*
X358022114Y-323772233D01*
X358641161Y-324391280D02*
X358545923Y-324343661D01*
X358498304Y-324296042D01*
X358450685Y-324200804D01*
X358450685Y-323915090D01*
X358498304Y-323819852D01*
X358545923Y-323772233D01*
X358641161Y-323724614D01*
X358784019Y-323724614D01*
X358879257Y-323772233D01*
X358926876Y-323819852D01*
X358974495Y-323915090D01*
X358974495Y-324200804D01*
X358926876Y-324296042D01*
X358879257Y-324343661D01*
X358784019Y-324391280D01*
X358641161Y-324391280D01*
X359307828Y-323724614D02*
X359498304Y-324391280D01*
X359688780Y-323915090D01*
X359879257Y-324391280D01*
X360069733Y-323724614D01*
X360450685Y-323724614D02*
X360450685Y-324391280D01*
X360450685Y-323819852D02*
X360498304Y-323772233D01*
X360593542Y-323724614D01*
X360736400Y-323724614D01*
X360831638Y-323772233D01*
X360879257Y-323867471D01*
X360879257Y-324391280D01*
%TO.C,MX75*%
X358968704Y-304674614D02*
X358968704Y-305341280D01*
X358540133Y-304674614D02*
X358540133Y-305198423D01*
X358587752Y-305293661D01*
X358682990Y-305341280D01*
X358825847Y-305341280D01*
X358921085Y-305293661D01*
X358968704Y-305246042D01*
X359444895Y-304674614D02*
X359444895Y-305674614D01*
X359444895Y-304722233D02*
X359540133Y-304674614D01*
X359730609Y-304674614D01*
X359825847Y-304722233D01*
X359873466Y-304769852D01*
X359921085Y-304865090D01*
X359921085Y-305150804D01*
X359873466Y-305246042D01*
X359825847Y-305293661D01*
X359730609Y-305341280D01*
X359540133Y-305341280D01*
X359444895Y-305293661D01*
%TO.C,MX74*%
X339275847Y-324391280D02*
X339180609Y-324343661D01*
X339132990Y-324248423D01*
X339132990Y-323391280D01*
X340037752Y-324343661D02*
X339942514Y-324391280D01*
X339752038Y-324391280D01*
X339656800Y-324343661D01*
X339609180Y-324248423D01*
X339609180Y-323867471D01*
X339656800Y-323772233D01*
X339752038Y-323724614D01*
X339942514Y-323724614D01*
X340037752Y-323772233D01*
X340085371Y-323867471D01*
X340085371Y-323962709D01*
X339609180Y-324057947D01*
X340371085Y-323724614D02*
X340752038Y-323724614D01*
X340513942Y-324391280D02*
X340513942Y-323534138D01*
X340561561Y-323438900D01*
X340656800Y-323391280D01*
X340752038Y-323391280D01*
X340942514Y-323724614D02*
X341323466Y-323724614D01*
X341085371Y-323391280D02*
X341085371Y-324248423D01*
X341132990Y-324343661D01*
X341228228Y-324391280D01*
X341323466Y-324391280D01*
%TO.C,MX72*%
X309289771Y-266717471D02*
X309432628Y-266765090D01*
X309480247Y-266812709D01*
X309527866Y-266907947D01*
X309527866Y-267050804D01*
X309480247Y-267146042D01*
X309432628Y-267193661D01*
X309337390Y-267241280D01*
X308956438Y-267241280D01*
X308956438Y-266241280D01*
X309289771Y-266241280D01*
X309385009Y-266288900D01*
X309432628Y-266336519D01*
X309480247Y-266431757D01*
X309480247Y-266526995D01*
X309432628Y-266622233D01*
X309385009Y-266669852D01*
X309289771Y-266717471D01*
X308956438Y-266717471D01*
X309956438Y-267241280D02*
X309956438Y-266241280D01*
X310051676Y-266860328D02*
X310337390Y-267241280D01*
X310337390Y-266574614D02*
X309956438Y-266955566D01*
X310718342Y-267193661D02*
X310861200Y-267241280D01*
X311099295Y-267241280D01*
X311194533Y-267193661D01*
X311242152Y-267146042D01*
X311289771Y-267050804D01*
X311289771Y-266955566D01*
X311242152Y-266860328D01*
X311194533Y-266812709D01*
X311099295Y-266765090D01*
X310908819Y-266717471D01*
X310813580Y-266669852D01*
X310765961Y-266622233D01*
X310718342Y-266526995D01*
X310718342Y-266431757D01*
X310765961Y-266336519D01*
X310813580Y-266288900D01*
X310908819Y-266241280D01*
X311146914Y-266241280D01*
X311289771Y-266288900D01*
X311718342Y-266574614D02*
X311718342Y-267574614D01*
X311718342Y-266622233D02*
X311813580Y-266574614D01*
X312004057Y-266574614D01*
X312099295Y-266622233D01*
X312146914Y-266669852D01*
X312194533Y-266765090D01*
X312194533Y-267050804D01*
X312146914Y-267146042D01*
X312099295Y-267193661D01*
X312004057Y-267241280D01*
X311813580Y-267241280D01*
X311718342Y-267193661D01*
X313051676Y-267241280D02*
X313051676Y-266717471D01*
X313004057Y-266622233D01*
X312908819Y-266574614D01*
X312718342Y-266574614D01*
X312623104Y-266622233D01*
X313051676Y-267193661D02*
X312956438Y-267241280D01*
X312718342Y-267241280D01*
X312623104Y-267193661D01*
X312575485Y-267098423D01*
X312575485Y-267003185D01*
X312623104Y-266907947D01*
X312718342Y-266860328D01*
X312956438Y-266860328D01*
X313051676Y-266812709D01*
X313956438Y-267193661D02*
X313861200Y-267241280D01*
X313670723Y-267241280D01*
X313575485Y-267193661D01*
X313527866Y-267146042D01*
X313480247Y-267050804D01*
X313480247Y-266765090D01*
X313527866Y-266669852D01*
X313575485Y-266622233D01*
X313670723Y-266574614D01*
X313861200Y-266574614D01*
X313956438Y-266622233D01*
X314765961Y-267193661D02*
X314670723Y-267241280D01*
X314480247Y-267241280D01*
X314385009Y-267193661D01*
X314337390Y-267098423D01*
X314337390Y-266717471D01*
X314385009Y-266622233D01*
X314480247Y-266574614D01*
X314670723Y-266574614D01*
X314765961Y-266622233D01*
X314813580Y-266717471D01*
X314813580Y-266812709D01*
X314337390Y-266907947D01*
%TO.C,MX70*%
X287726476Y-304674614D02*
X288440761Y-304674614D01*
X288012190Y-304246042D02*
X287726476Y-305531757D01*
X288345523Y-305103185D02*
X287631238Y-305103185D01*
X288059809Y-305531757D02*
X288345523Y-304246042D01*
%TO.C,MX69*%
X292382628Y-266146042D02*
X293239771Y-267431757D01*
%TO.C,MX67*%
X268795523Y-304341280D02*
X268795523Y-304531757D01*
X269176476Y-304341280D02*
X269176476Y-304531757D01*
%TO.C,MX66*%
X282736990Y-286624614D02*
X282975085Y-286624614D01*
X282975085Y-285196042D01*
X282736990Y-285196042D01*
X283403657Y-286672233D02*
X283451276Y-286672233D01*
X283546514Y-286624614D01*
X283594133Y-286529376D01*
X283594133Y-286053185D01*
X283641752Y-285957947D01*
X283736990Y-285910328D01*
X283641752Y-285862709D01*
X283594133Y-285767471D01*
X283594133Y-285291280D01*
X283546514Y-285196042D01*
X283451276Y-285148423D01*
X283403657Y-285148423D01*
%TO.C,MX65*%
X273380247Y-266860328D02*
X274142152Y-266860328D01*
X273761200Y-267241280D02*
X273761200Y-266479376D01*
%TO.C,MX63*%
X256949866Y-324486519D02*
X256854628Y-324438900D01*
X256759390Y-324343661D01*
X256616533Y-324200804D01*
X256521295Y-324153185D01*
X256426057Y-324153185D01*
X256473676Y-324391280D02*
X256378438Y-324343661D01*
X256283200Y-324248423D01*
X256235580Y-324057947D01*
X256235580Y-323724614D01*
X256283200Y-323534138D01*
X256378438Y-323438900D01*
X256473676Y-323391280D01*
X256664152Y-323391280D01*
X256759390Y-323438900D01*
X256854628Y-323534138D01*
X256902247Y-323724614D01*
X256902247Y-324057947D01*
X256854628Y-324248423D01*
X256759390Y-324343661D01*
X256664152Y-324391280D01*
X256473676Y-324391280D01*
X257759390Y-323724614D02*
X257759390Y-324391280D01*
X257330819Y-323724614D02*
X257330819Y-324248423D01*
X257378438Y-324343661D01*
X257473676Y-324391280D01*
X257616533Y-324391280D01*
X257711771Y-324343661D01*
X257759390Y-324296042D01*
X258616533Y-324343661D02*
X258521295Y-324391280D01*
X258330819Y-324391280D01*
X258235580Y-324343661D01*
X258187961Y-324248423D01*
X258187961Y-323867471D01*
X258235580Y-323772233D01*
X258330819Y-323724614D01*
X258521295Y-323724614D01*
X258616533Y-323772233D01*
X258664152Y-323867471D01*
X258664152Y-323962709D01*
X258187961Y-324057947D01*
X259045104Y-324343661D02*
X259140342Y-324391280D01*
X259330819Y-324391280D01*
X259426057Y-324343661D01*
X259473676Y-324248423D01*
X259473676Y-324200804D01*
X259426057Y-324105566D01*
X259330819Y-324057947D01*
X259187961Y-324057947D01*
X259092723Y-324010328D01*
X259045104Y-323915090D01*
X259045104Y-323867471D01*
X259092723Y-323772233D01*
X259187961Y-323724614D01*
X259330819Y-323724614D01*
X259426057Y-323772233D01*
X259759390Y-323724614D02*
X260140342Y-323724614D01*
X259902247Y-323391280D02*
X259902247Y-324248423D01*
X259949866Y-324343661D01*
X260045104Y-324391280D01*
X260140342Y-324391280D01*
X260473676Y-324391280D02*
X260473676Y-323724614D01*
X260473676Y-323391280D02*
X260426057Y-323438900D01*
X260473676Y-323486519D01*
X260521295Y-323438900D01*
X260473676Y-323391280D01*
X260473676Y-323486519D01*
X261092723Y-324391280D02*
X260997485Y-324343661D01*
X260949866Y-324296042D01*
X260902247Y-324200804D01*
X260902247Y-323915090D01*
X260949866Y-323819852D01*
X260997485Y-323772233D01*
X261092723Y-323724614D01*
X261235580Y-323724614D01*
X261330819Y-323772233D01*
X261378438Y-323819852D01*
X261426057Y-323915090D01*
X261426057Y-324200804D01*
X261378438Y-324296042D01*
X261330819Y-324343661D01*
X261235580Y-324391280D01*
X261092723Y-324391280D01*
X261854628Y-323724614D02*
X261854628Y-324391280D01*
X261854628Y-323819852D02*
X261902247Y-323772233D01*
X261997485Y-323724614D01*
X262140342Y-323724614D01*
X262235580Y-323772233D01*
X262283200Y-323867471D01*
X262283200Y-324391280D01*
%TO.C,MX62*%
X248269333Y-305246042D02*
X248221714Y-305293661D01*
X248078857Y-305341280D01*
X247983619Y-305341280D01*
X247840761Y-305293661D01*
X247745523Y-305198423D01*
X247697904Y-305103185D01*
X247650285Y-304912709D01*
X247650285Y-304769852D01*
X247697904Y-304579376D01*
X247745523Y-304484138D01*
X247840761Y-304388900D01*
X247983619Y-304341280D01*
X248078857Y-304341280D01*
X248221714Y-304388900D01*
X248269333Y-304436519D01*
X248888380Y-304341280D02*
X249078857Y-304341280D01*
X249174095Y-304388900D01*
X249269333Y-304484138D01*
X249316952Y-304674614D01*
X249316952Y-305007947D01*
X249269333Y-305198423D01*
X249174095Y-305293661D01*
X249078857Y-305341280D01*
X248888380Y-305341280D01*
X248793142Y-305293661D01*
X248697904Y-305198423D01*
X248650285Y-305007947D01*
X248650285Y-304674614D01*
X248697904Y-304484138D01*
X248793142Y-304388900D01*
X248888380Y-304341280D01*
X250221714Y-305341280D02*
X249745523Y-305341280D01*
X249745523Y-304341280D01*
X250745523Y-304341280D02*
X250936000Y-304341280D01*
X251031238Y-304388900D01*
X251126476Y-304484138D01*
X251174095Y-304674614D01*
X251174095Y-305007947D01*
X251126476Y-305198423D01*
X251031238Y-305293661D01*
X250936000Y-305341280D01*
X250745523Y-305341280D01*
X250650285Y-305293661D01*
X250555047Y-305198423D01*
X250507428Y-305007947D01*
X250507428Y-304674614D01*
X250555047Y-304484138D01*
X250650285Y-304388900D01*
X250745523Y-304341280D01*
X251602666Y-305341280D02*
X251602666Y-304341280D01*
X252174095Y-305341280D01*
X252174095Y-304341280D01*
%TO.C,MX61*%
X264067942Y-286624614D02*
X263829847Y-286624614D01*
X263829847Y-285196042D01*
X264067942Y-285196042D01*
X264734609Y-286672233D02*
X264686990Y-286672233D01*
X264591752Y-286624614D01*
X264544133Y-286529376D01*
X264544133Y-286053185D01*
X264496514Y-285957947D01*
X264401276Y-285910328D01*
X264496514Y-285862709D01*
X264544133Y-285767471D01*
X264544133Y-285291280D01*
X264591752Y-285196042D01*
X264686990Y-285148423D01*
X264734609Y-285148423D01*
%TO.C,MX60*%
X254330247Y-266860328D02*
X255092152Y-266860328D01*
%TO.C,MX58*%
X240233200Y-324296042D02*
X240280819Y-324343661D01*
X240233200Y-324391280D01*
X240185580Y-324343661D01*
X240233200Y-324296042D01*
X240233200Y-324391280D01*
%TO.C,MX57*%
X231195523Y-305341280D02*
X230719333Y-305341280D01*
X230719333Y-304341280D01*
%TO.C,MX56*%
X244898895Y-286291280D02*
X244898895Y-285291280D01*
X245279847Y-285291280D01*
X245375085Y-285338900D01*
X245422704Y-285386519D01*
X245470323Y-285481757D01*
X245470323Y-285624614D01*
X245422704Y-285719852D01*
X245375085Y-285767471D01*
X245279847Y-285815090D01*
X244898895Y-285815090D01*
%TO.C,MX53*%
X221230819Y-324343661D02*
X221230819Y-324391280D01*
X221183200Y-324486519D01*
X221135580Y-324534138D01*
%TO.C,MX52*%
X211523295Y-305341280D02*
X211523295Y-304341280D01*
X212094723Y-305341280D02*
X211666152Y-304769852D01*
X212094723Y-304341280D02*
X211523295Y-304912709D01*
%TO.C,MX51*%
X226015561Y-285291280D02*
X226206038Y-285291280D01*
X226301276Y-285338900D01*
X226396514Y-285434138D01*
X226444133Y-285624614D01*
X226444133Y-285957947D01*
X226396514Y-286148423D01*
X226301276Y-286243661D01*
X226206038Y-286291280D01*
X226015561Y-286291280D01*
X225920323Y-286243661D01*
X225825085Y-286148423D01*
X225777466Y-285957947D01*
X225777466Y-285624614D01*
X225825085Y-285434138D01*
X225920323Y-285338900D01*
X226015561Y-285291280D01*
%TO.C,MX50*%
X216420723Y-267241280D02*
X216611200Y-267241280D01*
X216706438Y-267193661D01*
X216754057Y-267146042D01*
X216849295Y-267003185D01*
X216896914Y-266812709D01*
X216896914Y-266431757D01*
X216849295Y-266336519D01*
X216801676Y-266288900D01*
X216706438Y-266241280D01*
X216515961Y-266241280D01*
X216420723Y-266288900D01*
X216373104Y-266336519D01*
X216325485Y-266431757D01*
X216325485Y-266669852D01*
X216373104Y-266765090D01*
X216420723Y-266812709D01*
X216515961Y-266860328D01*
X216706438Y-266860328D01*
X216801676Y-266812709D01*
X216849295Y-266765090D01*
X216896914Y-266669852D01*
%TO.C,MX48*%
X201799866Y-324391280D02*
X201799866Y-323391280D01*
X202133200Y-324105566D01*
X202466533Y-323391280D01*
X202466533Y-324391280D01*
%TO.C,MX47*%
X192827257Y-304341280D02*
X192827257Y-305055566D01*
X192779638Y-305198423D01*
X192684400Y-305293661D01*
X192541542Y-305341280D01*
X192446304Y-305341280D01*
%TO.C,MX46*%
X207010000Y-286291280D02*
X207010000Y-285291280D01*
%TO.C,MX45*%
X197415161Y-266669852D02*
X197319923Y-266622233D01*
X197272304Y-266574614D01*
X197224685Y-266479376D01*
X197224685Y-266431757D01*
X197272304Y-266336519D01*
X197319923Y-266288900D01*
X197415161Y-266241280D01*
X197605638Y-266241280D01*
X197700876Y-266288900D01*
X197748495Y-266336519D01*
X197796114Y-266431757D01*
X197796114Y-266479376D01*
X197748495Y-266574614D01*
X197700876Y-266622233D01*
X197605638Y-266669852D01*
X197415161Y-266669852D01*
X197319923Y-266717471D01*
X197272304Y-266765090D01*
X197224685Y-266860328D01*
X197224685Y-267050804D01*
X197272304Y-267146042D01*
X197319923Y-267193661D01*
X197415161Y-267241280D01*
X197605638Y-267241280D01*
X197700876Y-267193661D01*
X197748495Y-267146042D01*
X197796114Y-267050804D01*
X197796114Y-266860328D01*
X197748495Y-266765090D01*
X197700876Y-266717471D01*
X197605638Y-266669852D01*
%TO.C,MX43*%
X182827085Y-324391280D02*
X182827085Y-323391280D01*
X183398514Y-324391280D01*
X183398514Y-323391280D01*
%TO.C,MX42*%
X173348685Y-305341280D02*
X173348685Y-304341280D01*
X173348685Y-304817471D02*
X173920114Y-304817471D01*
X173920114Y-305341280D02*
X173920114Y-304341280D01*
%TO.C,MX41*%
X187674285Y-285291280D02*
X187674285Y-286100804D01*
X187721904Y-286196042D01*
X187769523Y-286243661D01*
X187864761Y-286291280D01*
X188055238Y-286291280D01*
X188150476Y-286243661D01*
X188198095Y-286196042D01*
X188245714Y-286100804D01*
X188245714Y-285291280D01*
%TO.C,MX40*%
X178127066Y-266241280D02*
X178793733Y-266241280D01*
X178365161Y-267241280D01*
%TO.C,MX38*%
X164155428Y-323867471D02*
X164298285Y-323915090D01*
X164345904Y-323962709D01*
X164393523Y-324057947D01*
X164393523Y-324200804D01*
X164345904Y-324296042D01*
X164298285Y-324343661D01*
X164203047Y-324391280D01*
X163822095Y-324391280D01*
X163822095Y-323391280D01*
X164155428Y-323391280D01*
X164250666Y-323438900D01*
X164298285Y-323486519D01*
X164345904Y-323581757D01*
X164345904Y-323676995D01*
X164298285Y-323772233D01*
X164250666Y-323819852D01*
X164155428Y-323867471D01*
X163822095Y-323867471D01*
%TO.C,MX37*%
X154825104Y-304410500D02*
X154729866Y-304362880D01*
X154587009Y-304362880D01*
X154444152Y-304410500D01*
X154348914Y-304505738D01*
X154301295Y-304600976D01*
X154253676Y-304791452D01*
X154253676Y-304934309D01*
X154301295Y-305124785D01*
X154348914Y-305220023D01*
X154444152Y-305315261D01*
X154587009Y-305362880D01*
X154682247Y-305362880D01*
X154825104Y-305315261D01*
X154872723Y-305267642D01*
X154872723Y-304934309D01*
X154682247Y-304934309D01*
%TO.C,MX36*%
X168910000Y-285815090D02*
X168910000Y-286291280D01*
X168576666Y-285291280D02*
X168910000Y-285815090D01*
X169243333Y-285291280D01*
%TO.C,MX35*%
X159600876Y-266241280D02*
X159410400Y-266241280D01*
X159315161Y-266288900D01*
X159267542Y-266336519D01*
X159172304Y-266479376D01*
X159124685Y-266669852D01*
X159124685Y-267050804D01*
X159172304Y-267146042D01*
X159219923Y-267193661D01*
X159315161Y-267241280D01*
X159505638Y-267241280D01*
X159600876Y-267193661D01*
X159648495Y-267146042D01*
X159696114Y-267050804D01*
X159696114Y-266812709D01*
X159648495Y-266717471D01*
X159600876Y-266669852D01*
X159505638Y-266622233D01*
X159315161Y-266622233D01*
X159219923Y-266669852D01*
X159172304Y-266717471D01*
X159124685Y-266812709D01*
%TO.C,MX32*%
X144649866Y-323391280D02*
X144983200Y-324391280D01*
X145316533Y-323391280D01*
%TO.C,MX31*%
X135677257Y-304839071D02*
X135343923Y-304839071D01*
X135343923Y-305362880D02*
X135343923Y-304362880D01*
X135820114Y-304362880D01*
%TO.C,MX30*%
X149472685Y-285291280D02*
X150044114Y-285291280D01*
X149758400Y-286291280D02*
X149758400Y-285291280D01*
%TO.C,MX29*%
X140577295Y-266212080D02*
X140101104Y-266212080D01*
X140053485Y-266688271D01*
X140101104Y-266640652D01*
X140196342Y-266593033D01*
X140434438Y-266593033D01*
X140529676Y-266640652D01*
X140577295Y-266688271D01*
X140624914Y-266783509D01*
X140624914Y-267021604D01*
X140577295Y-267116842D01*
X140529676Y-267164461D01*
X140434438Y-267212080D01*
X140196342Y-267212080D01*
X140101104Y-267164461D01*
X140053485Y-267116842D01*
%TO.C,MX27*%
X126242723Y-324296042D02*
X126195104Y-324343661D01*
X126052247Y-324391280D01*
X125957009Y-324391280D01*
X125814152Y-324343661D01*
X125718914Y-324248423D01*
X125671295Y-324153185D01*
X125623676Y-323962709D01*
X125623676Y-323819852D01*
X125671295Y-323629376D01*
X125718914Y-323534138D01*
X125814152Y-323438900D01*
X125957009Y-323391280D01*
X126052247Y-323391280D01*
X126195104Y-323438900D01*
X126242723Y-323486519D01*
%TO.C,MX26*%
X116192895Y-305362880D02*
X116192895Y-304362880D01*
X116430990Y-304362880D01*
X116573847Y-304410500D01*
X116669085Y-304505738D01*
X116716704Y-304600976D01*
X116764323Y-304791452D01*
X116764323Y-304934309D01*
X116716704Y-305124785D01*
X116669085Y-305220023D01*
X116573847Y-305315261D01*
X116430990Y-305362880D01*
X116192895Y-305362880D01*
%TO.C,MX25*%
X131017923Y-286291280D02*
X130684590Y-285815090D01*
X130446495Y-286291280D02*
X130446495Y-285291280D01*
X130827447Y-285291280D01*
X130922685Y-285338900D01*
X130970304Y-285386519D01*
X131017923Y-285481757D01*
X131017923Y-285624614D01*
X130970304Y-285719852D01*
X130922685Y-285767471D01*
X130827447Y-285815090D01*
X130446495Y-285815090D01*
%TO.C,MX24*%
X121450076Y-266523814D02*
X121450076Y-267190480D01*
X121211980Y-266142861D02*
X120973885Y-266857147D01*
X121592933Y-266857147D01*
%TO.C,MX22*%
X106549866Y-323391280D02*
X107216533Y-324391280D01*
X107216533Y-323391280D02*
X106549866Y-324391280D01*
%TO.C,MX21*%
X97097885Y-305293661D02*
X97240742Y-305341280D01*
X97478838Y-305341280D01*
X97574076Y-305293661D01*
X97621695Y-305246042D01*
X97669314Y-305150804D01*
X97669314Y-305055566D01*
X97621695Y-304960328D01*
X97574076Y-304912709D01*
X97478838Y-304865090D01*
X97288361Y-304817471D01*
X97193123Y-304769852D01*
X97145504Y-304722233D01*
X97097885Y-304626995D01*
X97097885Y-304531757D01*
X97145504Y-304436519D01*
X97193123Y-304388900D01*
X97288361Y-304341280D01*
X97526457Y-304341280D01*
X97669314Y-304388900D01*
%TO.C,MX20*%
X111444114Y-285742071D02*
X111777447Y-285742071D01*
X111920304Y-286265880D02*
X111444114Y-286265880D01*
X111444114Y-285265880D01*
X111920304Y-285265880D01*
%TO.C,MX19*%
X101876266Y-266190480D02*
X102495314Y-266190480D01*
X102161980Y-266571433D01*
X102304838Y-266571433D01*
X102400076Y-266619052D01*
X102447695Y-266666671D01*
X102495314Y-266761909D01*
X102495314Y-267000004D01*
X102447695Y-267095242D01*
X102400076Y-267142861D01*
X102304838Y-267190480D01*
X102019123Y-267190480D01*
X101923885Y-267142861D01*
X101876266Y-267095242D01*
%TO.C,MX17*%
X87499866Y-323391280D02*
X88166533Y-323391280D01*
X87499866Y-324391280D01*
X88166533Y-324391280D01*
%TO.C,MX16*%
X78095504Y-305055566D02*
X78571695Y-305055566D01*
X78000266Y-305341280D02*
X78333600Y-304341280D01*
X78666933Y-305341280D01*
%TO.C,MX15*%
X92179828Y-285265880D02*
X92417923Y-286265880D01*
X92608400Y-285551595D01*
X92798876Y-286265880D01*
X93036971Y-285265880D01*
%TO.C,MX14*%
X82873885Y-266285719D02*
X82921504Y-266238100D01*
X83016742Y-266190480D01*
X83254838Y-266190480D01*
X83350076Y-266238100D01*
X83397695Y-266285719D01*
X83445314Y-266380957D01*
X83445314Y-266476195D01*
X83397695Y-266619052D01*
X82826266Y-267190480D01*
X83445314Y-267190480D01*
%TO.C,MX11*%
X68545104Y-323724614D02*
X67783200Y-324010328D01*
X68545104Y-324296042D01*
X69021295Y-323724614D02*
X69783200Y-324010328D01*
X69021295Y-324296042D01*
%TO.C,MX10*%
X58167161Y-305216842D02*
X58119542Y-305264461D01*
X57976685Y-305312080D01*
X57881447Y-305312080D01*
X57738590Y-305264461D01*
X57643352Y-305169223D01*
X57595733Y-305073985D01*
X57548114Y-304883509D01*
X57548114Y-304740652D01*
X57595733Y-304550176D01*
X57643352Y-304454938D01*
X57738590Y-304359700D01*
X57881447Y-304312080D01*
X57976685Y-304312080D01*
X58119542Y-304359700D01*
X58167161Y-304407319D01*
X58548114Y-305026366D02*
X59024304Y-305026366D01*
X58452876Y-305312080D02*
X58786209Y-304312080D01*
X59119542Y-305312080D01*
X59452876Y-305312080D02*
X59452876Y-304312080D01*
X59833828Y-304312080D01*
X59929066Y-304359700D01*
X59976685Y-304407319D01*
X60024304Y-304502557D01*
X60024304Y-304645414D01*
X59976685Y-304740652D01*
X59929066Y-304788271D01*
X59833828Y-304835890D01*
X59452876Y-304835890D01*
X60405257Y-305264461D02*
X60548114Y-305312080D01*
X60786209Y-305312080D01*
X60881447Y-305264461D01*
X60929066Y-305216842D01*
X60976685Y-305121604D01*
X60976685Y-305026366D01*
X60929066Y-304931128D01*
X60881447Y-304883509D01*
X60786209Y-304835890D01*
X60595733Y-304788271D01*
X60500495Y-304740652D01*
X60452876Y-304693033D01*
X60405257Y-304597795D01*
X60405257Y-304502557D01*
X60452876Y-304407319D01*
X60500495Y-304359700D01*
X60595733Y-304312080D01*
X60833828Y-304312080D01*
X60976685Y-304359700D01*
%TO.C,MX9*%
X73918152Y-286357319D02*
X73822914Y-286309700D01*
X73727676Y-286214461D01*
X73584819Y-286071604D01*
X73489580Y-286023985D01*
X73394342Y-286023985D01*
X73441961Y-286262080D02*
X73346723Y-286214461D01*
X73251485Y-286119223D01*
X73203866Y-285928747D01*
X73203866Y-285595414D01*
X73251485Y-285404938D01*
X73346723Y-285309700D01*
X73441961Y-285262080D01*
X73632438Y-285262080D01*
X73727676Y-285309700D01*
X73822914Y-285404938D01*
X73870533Y-285595414D01*
X73870533Y-285928747D01*
X73822914Y-286119223D01*
X73727676Y-286214461D01*
X73632438Y-286262080D01*
X73441961Y-286262080D01*
%TO.C,MX8*%
X64395314Y-267190480D02*
X63823885Y-267190480D01*
X64109600Y-267190480D02*
X64109600Y-266190480D01*
X64014361Y-266333338D01*
X63919123Y-266428576D01*
X63823885Y-266476195D01*
%TO.C,MX1*%
X34267923Y-238167871D02*
X34601257Y-238167871D01*
X34744114Y-238691680D02*
X34267923Y-238691680D01*
X34267923Y-237691680D01*
X34744114Y-237691680D01*
X35125066Y-238644061D02*
X35267923Y-238691680D01*
X35506019Y-238691680D01*
X35601257Y-238644061D01*
X35648876Y-238596442D01*
X35696495Y-238501204D01*
X35696495Y-238405966D01*
X35648876Y-238310728D01*
X35601257Y-238263109D01*
X35506019Y-238215490D01*
X35315542Y-238167871D01*
X35220304Y-238120252D01*
X35172685Y-238072633D01*
X35125066Y-237977395D01*
X35125066Y-237882157D01*
X35172685Y-237786919D01*
X35220304Y-237739300D01*
X35315542Y-237691680D01*
X35553638Y-237691680D01*
X35696495Y-237739300D01*
X36696495Y-238596442D02*
X36648876Y-238644061D01*
X36506019Y-238691680D01*
X36410780Y-238691680D01*
X36267923Y-238644061D01*
X36172685Y-238548823D01*
X36125066Y-238453585D01*
X36077447Y-238263109D01*
X36077447Y-238120252D01*
X36125066Y-237929776D01*
X36172685Y-237834538D01*
X36267923Y-237739300D01*
X36410780Y-237691680D01*
X36506019Y-237691680D01*
X36648876Y-237739300D01*
X36696495Y-237786919D01*
%TO.C,J1*%
X342516666Y-254102380D02*
X342516666Y-254816666D01*
X342469047Y-254959523D01*
X342373809Y-255054761D01*
X342230952Y-255102380D01*
X342135714Y-255102380D01*
X343516666Y-255102380D02*
X342945238Y-255102380D01*
X343230952Y-255102380D02*
X343230952Y-254102380D01*
X343135714Y-254245238D01*
X343040476Y-254340476D01*
X342945238Y-254388095D01*
%TD*%
M02*
