%TF.GenerationSoftware,KiCad,Pcbnew,(5.1.6-0)*%
%TF.CreationDate,2021-12-10T16:25:12+01:00*%
%TF.ProjectId,A500KB,41353030-4b42-42e6-9b69-6361645f7063,rev?*%
%TF.SameCoordinates,Original*%
%TF.FileFunction,Legend,Bot*%
%TF.FilePolarity,Positive*%
%FSLAX46Y46*%
G04 Gerber Fmt 4.6, Leading zero omitted, Abs format (unit mm)*
G04 Created by KiCad (PCBNEW (5.1.6-0)) date 2021-12-10 16:25:12*
%MOMM*%
%LPD*%
G01*
G04 APERTURE LIST*
%ADD10C,0.150000*%
G04 APERTURE END LIST*
%TO.C,D4*%
D10*
X457684095Y-251912380D02*
X457684095Y-250912380D01*
X457446000Y-250912380D01*
X457303142Y-250960000D01*
X457207904Y-251055238D01*
X457160285Y-251150476D01*
X457112666Y-251340952D01*
X457112666Y-251483809D01*
X457160285Y-251674285D01*
X457207904Y-251769523D01*
X457303142Y-251864761D01*
X457446000Y-251912380D01*
X457684095Y-251912380D01*
X456255523Y-251245714D02*
X456255523Y-251912380D01*
X456493619Y-250864761D02*
X456731714Y-251579047D01*
X456112666Y-251579047D01*
%TO.C,D3*%
X457684095Y-244038380D02*
X457684095Y-243038380D01*
X457446000Y-243038380D01*
X457303142Y-243086000D01*
X457207904Y-243181238D01*
X457160285Y-243276476D01*
X457112666Y-243466952D01*
X457112666Y-243609809D01*
X457160285Y-243800285D01*
X457207904Y-243895523D01*
X457303142Y-243990761D01*
X457446000Y-244038380D01*
X457684095Y-244038380D01*
X456779333Y-243038380D02*
X456160285Y-243038380D01*
X456493619Y-243419333D01*
X456350761Y-243419333D01*
X456255523Y-243466952D01*
X456207904Y-243514571D01*
X456160285Y-243609809D01*
X456160285Y-243847904D01*
X456207904Y-243943142D01*
X456255523Y-243990761D01*
X456350761Y-244038380D01*
X456636476Y-244038380D01*
X456731714Y-243990761D01*
X456779333Y-243943142D01*
%TD*%
M02*
