%TF.GenerationSoftware,KiCad,Pcbnew,8.0.5*%
%TF.CreationDate,2025-01-07T07:11:47+01:00*%
%TF.ProjectId,A500KB,41353030-4b42-42e6-9b69-6361645f7063,rev?*%
%TF.SameCoordinates,Original*%
%TF.FileFunction,Legend,Bot*%
%TF.FilePolarity,Positive*%
%FSLAX46Y46*%
G04 Gerber Fmt 4.6, Leading zero omitted, Abs format (unit mm)*
G04 Created by KiCad (PCBNEW 8.0.5) date 2025-01-07 07:11:47*
%MOMM*%
%LPD*%
G01*
G04 APERTURE LIST*
%ADD10C,0.150000*%
G04 APERTURE END LIST*
D10*
X368653219Y-238052172D02*
X367653219Y-238052172D01*
X367653219Y-238052172D02*
X368367504Y-238385505D01*
X368367504Y-238385505D02*
X367653219Y-238718838D01*
X367653219Y-238718838D02*
X368653219Y-238718838D01*
X368653219Y-239195029D02*
X367653219Y-239195029D01*
X368605600Y-239623600D02*
X368653219Y-239766457D01*
X368653219Y-239766457D02*
X368653219Y-240004552D01*
X368653219Y-240004552D02*
X368605600Y-240099790D01*
X368605600Y-240099790D02*
X368557980Y-240147409D01*
X368557980Y-240147409D02*
X368462742Y-240195028D01*
X368462742Y-240195028D02*
X368367504Y-240195028D01*
X368367504Y-240195028D02*
X368272266Y-240147409D01*
X368272266Y-240147409D02*
X368224647Y-240099790D01*
X368224647Y-240099790D02*
X368177028Y-240004552D01*
X368177028Y-240004552D02*
X368129409Y-239814076D01*
X368129409Y-239814076D02*
X368081790Y-239718838D01*
X368081790Y-239718838D02*
X368034171Y-239671219D01*
X368034171Y-239671219D02*
X367938933Y-239623600D01*
X367938933Y-239623600D02*
X367843695Y-239623600D01*
X367843695Y-239623600D02*
X367748457Y-239671219D01*
X367748457Y-239671219D02*
X367700838Y-239718838D01*
X367700838Y-239718838D02*
X367653219Y-239814076D01*
X367653219Y-239814076D02*
X367653219Y-240052171D01*
X367653219Y-240052171D02*
X367700838Y-240195028D01*
X367653219Y-240814076D02*
X367653219Y-241004552D01*
X367653219Y-241004552D02*
X367700838Y-241099790D01*
X367700838Y-241099790D02*
X367796076Y-241195028D01*
X367796076Y-241195028D02*
X367986552Y-241242647D01*
X367986552Y-241242647D02*
X368319885Y-241242647D01*
X368319885Y-241242647D02*
X368510361Y-241195028D01*
X368510361Y-241195028D02*
X368605600Y-241099790D01*
X368605600Y-241099790D02*
X368653219Y-241004552D01*
X368653219Y-241004552D02*
X368653219Y-240814076D01*
X368653219Y-240814076D02*
X368605600Y-240718838D01*
X368605600Y-240718838D02*
X368510361Y-240623600D01*
X368510361Y-240623600D02*
X368319885Y-240575981D01*
X368319885Y-240575981D02*
X367986552Y-240575981D01*
X367986552Y-240575981D02*
X367796076Y-240623600D01*
X367796076Y-240623600D02*
X367700838Y-240718838D01*
X367700838Y-240718838D02*
X367653219Y-240814076D01*
X386687219Y-233121429D02*
X385687219Y-233121429D01*
X386020552Y-233597619D02*
X386687219Y-233597619D01*
X386115790Y-233597619D02*
X386068171Y-233645238D01*
X386068171Y-233645238D02*
X386020552Y-233740476D01*
X386020552Y-233740476D02*
X386020552Y-233883333D01*
X386020552Y-233883333D02*
X386068171Y-233978571D01*
X386068171Y-233978571D02*
X386163409Y-234026190D01*
X386163409Y-234026190D02*
X386687219Y-234026190D01*
X386020552Y-234930952D02*
X386687219Y-234930952D01*
X385639600Y-234692857D02*
X386353885Y-234454762D01*
X386353885Y-234454762D02*
X386353885Y-235073809D01*
X399539619Y-232086571D02*
X398539619Y-232086571D01*
X399539619Y-232657999D02*
X398968190Y-232229428D01*
X398539619Y-232657999D02*
X399111047Y-232086571D01*
X399539619Y-233086571D02*
X398539619Y-233086571D01*
X398539619Y-233086571D02*
X398539619Y-233324666D01*
X398539619Y-233324666D02*
X398587238Y-233467523D01*
X398587238Y-233467523D02*
X398682476Y-233562761D01*
X398682476Y-233562761D02*
X398777714Y-233610380D01*
X398777714Y-233610380D02*
X398968190Y-233657999D01*
X398968190Y-233657999D02*
X399111047Y-233657999D01*
X399111047Y-233657999D02*
X399301523Y-233610380D01*
X399301523Y-233610380D02*
X399396761Y-233562761D01*
X399396761Y-233562761D02*
X399492000Y-233467523D01*
X399492000Y-233467523D02*
X399539619Y-233324666D01*
X399539619Y-233324666D02*
X399539619Y-233086571D01*
X399253904Y-234038952D02*
X399253904Y-234515142D01*
X399539619Y-233943714D02*
X398539619Y-234277047D01*
X398539619Y-234277047D02*
X399539619Y-234610380D01*
X398539619Y-234800857D02*
X398539619Y-235372285D01*
X399539619Y-235086571D02*
X398539619Y-235086571D01*
X414720082Y-232078571D02*
X413820082Y-232078571D01*
X413820082Y-232078571D02*
X413820082Y-232292857D01*
X413820082Y-232292857D02*
X413862939Y-232421428D01*
X413862939Y-232421428D02*
X413948653Y-232507143D01*
X413948653Y-232507143D02*
X414034367Y-232550000D01*
X414034367Y-232550000D02*
X414205796Y-232592857D01*
X414205796Y-232592857D02*
X414334367Y-232592857D01*
X414334367Y-232592857D02*
X414505796Y-232550000D01*
X414505796Y-232550000D02*
X414591510Y-232507143D01*
X414591510Y-232507143D02*
X414677225Y-232421428D01*
X414677225Y-232421428D02*
X414720082Y-232292857D01*
X414720082Y-232292857D02*
X414720082Y-232078571D01*
X414720082Y-233492857D02*
X414291510Y-233192857D01*
X414720082Y-232978571D02*
X413820082Y-232978571D01*
X413820082Y-232978571D02*
X413820082Y-233321428D01*
X413820082Y-233321428D02*
X413862939Y-233407143D01*
X413862939Y-233407143D02*
X413905796Y-233450000D01*
X413905796Y-233450000D02*
X413991510Y-233492857D01*
X413991510Y-233492857D02*
X414120082Y-233492857D01*
X414120082Y-233492857D02*
X414205796Y-233450000D01*
X414205796Y-233450000D02*
X414248653Y-233407143D01*
X414248653Y-233407143D02*
X414291510Y-233321428D01*
X414291510Y-233321428D02*
X414291510Y-232978571D01*
X413820082Y-233750000D02*
X414720082Y-234050000D01*
X414720082Y-234050000D02*
X413820082Y-234350000D01*
X416169032Y-232571429D02*
X416169032Y-232142857D01*
X416169032Y-232142857D02*
X415269032Y-232142857D01*
X415697603Y-232871428D02*
X415697603Y-233171428D01*
X416169032Y-233300000D02*
X416169032Y-232871428D01*
X416169032Y-232871428D02*
X415269032Y-232871428D01*
X415269032Y-232871428D02*
X415269032Y-233300000D01*
X416169032Y-233685714D02*
X415269032Y-233685714D01*
X415269032Y-233685714D02*
X415269032Y-233900000D01*
X415269032Y-233900000D02*
X415311889Y-234028571D01*
X415311889Y-234028571D02*
X415397603Y-234114286D01*
X415397603Y-234114286D02*
X415483317Y-234157143D01*
X415483317Y-234157143D02*
X415654746Y-234200000D01*
X415654746Y-234200000D02*
X415783317Y-234200000D01*
X415783317Y-234200000D02*
X415954746Y-234157143D01*
X415954746Y-234157143D02*
X416040460Y-234114286D01*
X416040460Y-234114286D02*
X416126175Y-234028571D01*
X416126175Y-234028571D02*
X416169032Y-233900000D01*
X416169032Y-233900000D02*
X416169032Y-233685714D01*
X402028819Y-232653180D02*
X401552628Y-232319847D01*
X402028819Y-232081752D02*
X401028819Y-232081752D01*
X401028819Y-232081752D02*
X401028819Y-232462704D01*
X401028819Y-232462704D02*
X401076438Y-232557942D01*
X401076438Y-232557942D02*
X401124057Y-232605561D01*
X401124057Y-232605561D02*
X401219295Y-232653180D01*
X401219295Y-232653180D02*
X401362152Y-232653180D01*
X401362152Y-232653180D02*
X401457390Y-232605561D01*
X401457390Y-232605561D02*
X401505009Y-232557942D01*
X401505009Y-232557942D02*
X401552628Y-232462704D01*
X401552628Y-232462704D02*
X401552628Y-232081752D01*
X401981200Y-233034133D02*
X402028819Y-233176990D01*
X402028819Y-233176990D02*
X402028819Y-233415085D01*
X402028819Y-233415085D02*
X401981200Y-233510323D01*
X401981200Y-233510323D02*
X401933580Y-233557942D01*
X401933580Y-233557942D02*
X401838342Y-233605561D01*
X401838342Y-233605561D02*
X401743104Y-233605561D01*
X401743104Y-233605561D02*
X401647866Y-233557942D01*
X401647866Y-233557942D02*
X401600247Y-233510323D01*
X401600247Y-233510323D02*
X401552628Y-233415085D01*
X401552628Y-233415085D02*
X401505009Y-233224609D01*
X401505009Y-233224609D02*
X401457390Y-233129371D01*
X401457390Y-233129371D02*
X401409771Y-233081752D01*
X401409771Y-233081752D02*
X401314533Y-233034133D01*
X401314533Y-233034133D02*
X401219295Y-233034133D01*
X401219295Y-233034133D02*
X401124057Y-233081752D01*
X401124057Y-233081752D02*
X401076438Y-233129371D01*
X401076438Y-233129371D02*
X401028819Y-233224609D01*
X401028819Y-233224609D02*
X401028819Y-233462704D01*
X401028819Y-233462704D02*
X401076438Y-233605561D01*
X401028819Y-233891276D02*
X401028819Y-234462704D01*
X402028819Y-234176990D02*
X401028819Y-234176990D01*
X404187866Y-232067486D02*
X404187866Y-232829391D01*
X404568819Y-232448438D02*
X403806914Y-232448438D01*
X403568819Y-233781771D02*
X403568819Y-233305581D01*
X403568819Y-233305581D02*
X404045009Y-233257962D01*
X404045009Y-233257962D02*
X403997390Y-233305581D01*
X403997390Y-233305581D02*
X403949771Y-233400819D01*
X403949771Y-233400819D02*
X403949771Y-233638914D01*
X403949771Y-233638914D02*
X403997390Y-233734152D01*
X403997390Y-233734152D02*
X404045009Y-233781771D01*
X404045009Y-233781771D02*
X404140247Y-233829390D01*
X404140247Y-233829390D02*
X404378342Y-233829390D01*
X404378342Y-233829390D02*
X404473580Y-233781771D01*
X404473580Y-233781771D02*
X404521200Y-233734152D01*
X404521200Y-233734152D02*
X404568819Y-233638914D01*
X404568819Y-233638914D02*
X404568819Y-233400819D01*
X404568819Y-233400819D02*
X404521200Y-233305581D01*
X404521200Y-233305581D02*
X404473580Y-233257962D01*
X403568819Y-234115105D02*
X404568819Y-234448438D01*
X404568819Y-234448438D02*
X403568819Y-234781771D01*
X408798038Y-232642095D02*
X408750419Y-232546857D01*
X408750419Y-232546857D02*
X408750419Y-232404000D01*
X408750419Y-232404000D02*
X408798038Y-232261143D01*
X408798038Y-232261143D02*
X408893276Y-232165905D01*
X408893276Y-232165905D02*
X408988514Y-232118286D01*
X408988514Y-232118286D02*
X409178990Y-232070667D01*
X409178990Y-232070667D02*
X409321847Y-232070667D01*
X409321847Y-232070667D02*
X409512323Y-232118286D01*
X409512323Y-232118286D02*
X409607561Y-232165905D01*
X409607561Y-232165905D02*
X409702800Y-232261143D01*
X409702800Y-232261143D02*
X409750419Y-232404000D01*
X409750419Y-232404000D02*
X409750419Y-232499238D01*
X409750419Y-232499238D02*
X409702800Y-232642095D01*
X409702800Y-232642095D02*
X409655180Y-232689714D01*
X409655180Y-232689714D02*
X409321847Y-232689714D01*
X409321847Y-232689714D02*
X409321847Y-232499238D01*
X409750419Y-233118286D02*
X408750419Y-233118286D01*
X408750419Y-233118286D02*
X409750419Y-233689714D01*
X409750419Y-233689714D02*
X408750419Y-233689714D01*
X409750419Y-234165905D02*
X408750419Y-234165905D01*
X408750419Y-234165905D02*
X408750419Y-234404000D01*
X408750419Y-234404000D02*
X408798038Y-234546857D01*
X408798038Y-234546857D02*
X408893276Y-234642095D01*
X408893276Y-234642095D02*
X408988514Y-234689714D01*
X408988514Y-234689714D02*
X409178990Y-234737333D01*
X409178990Y-234737333D02*
X409321847Y-234737333D01*
X409321847Y-234737333D02*
X409512323Y-234689714D01*
X409512323Y-234689714D02*
X409607561Y-234642095D01*
X409607561Y-234642095D02*
X409702800Y-234546857D01*
X409702800Y-234546857D02*
X409750419Y-234404000D01*
X409750419Y-234404000D02*
X409750419Y-234165905D01*
X412193357Y-232099257D02*
X411293357Y-232099257D01*
X411293357Y-232099257D02*
X411293357Y-232442114D01*
X411293357Y-232442114D02*
X411336214Y-232527829D01*
X411336214Y-232527829D02*
X411379071Y-232570686D01*
X411379071Y-232570686D02*
X411464785Y-232613543D01*
X411464785Y-232613543D02*
X411593357Y-232613543D01*
X411593357Y-232613543D02*
X411679071Y-232570686D01*
X411679071Y-232570686D02*
X411721928Y-232527829D01*
X411721928Y-232527829D02*
X411764785Y-232442114D01*
X411764785Y-232442114D02*
X411764785Y-232099257D01*
X412193357Y-233427829D02*
X412193357Y-232999257D01*
X412193357Y-232999257D02*
X411293357Y-232999257D01*
X411721928Y-233727828D02*
X411721928Y-234027828D01*
X412193357Y-234156400D02*
X412193357Y-233727828D01*
X412193357Y-233727828D02*
X411293357Y-233727828D01*
X411293357Y-233727828D02*
X411293357Y-234156400D01*
X412193357Y-234542114D02*
X411293357Y-234542114D01*
X411293357Y-234542114D02*
X411293357Y-234756400D01*
X411293357Y-234756400D02*
X411336214Y-234884971D01*
X411336214Y-234884971D02*
X411421928Y-234970686D01*
X411421928Y-234970686D02*
X411507642Y-235013543D01*
X411507642Y-235013543D02*
X411679071Y-235056400D01*
X411679071Y-235056400D02*
X411807642Y-235056400D01*
X411807642Y-235056400D02*
X411979071Y-235013543D01*
X411979071Y-235013543D02*
X412064785Y-234970686D01*
X412064785Y-234970686D02*
X412150500Y-234884971D01*
X412150500Y-234884971D02*
X412193357Y-234756400D01*
X412193357Y-234756400D02*
X412193357Y-234542114D01*
X372730038Y-230581295D02*
X372682419Y-230486057D01*
X372682419Y-230486057D02*
X372682419Y-230343200D01*
X372682419Y-230343200D02*
X372730038Y-230200343D01*
X372730038Y-230200343D02*
X372825276Y-230105105D01*
X372825276Y-230105105D02*
X372920514Y-230057486D01*
X372920514Y-230057486D02*
X373110990Y-230009867D01*
X373110990Y-230009867D02*
X373253847Y-230009867D01*
X373253847Y-230009867D02*
X373444323Y-230057486D01*
X373444323Y-230057486D02*
X373539561Y-230105105D01*
X373539561Y-230105105D02*
X373634800Y-230200343D01*
X373634800Y-230200343D02*
X373682419Y-230343200D01*
X373682419Y-230343200D02*
X373682419Y-230438438D01*
X373682419Y-230438438D02*
X373634800Y-230581295D01*
X373634800Y-230581295D02*
X373587180Y-230628914D01*
X373587180Y-230628914D02*
X373253847Y-230628914D01*
X373253847Y-230628914D02*
X373253847Y-230438438D01*
X373682419Y-231057486D02*
X372682419Y-231057486D01*
X372682419Y-231057486D02*
X373682419Y-231628914D01*
X373682419Y-231628914D02*
X372682419Y-231628914D01*
X373682419Y-232105105D02*
X372682419Y-232105105D01*
X372682419Y-232105105D02*
X372682419Y-232343200D01*
X372682419Y-232343200D02*
X372730038Y-232486057D01*
X372730038Y-232486057D02*
X372825276Y-232581295D01*
X372825276Y-232581295D02*
X372920514Y-232628914D01*
X372920514Y-232628914D02*
X373110990Y-232676533D01*
X373110990Y-232676533D02*
X373253847Y-232676533D01*
X373253847Y-232676533D02*
X373444323Y-232628914D01*
X373444323Y-232628914D02*
X373539561Y-232581295D01*
X373539561Y-232581295D02*
X373634800Y-232486057D01*
X373634800Y-232486057D02*
X373682419Y-232343200D01*
X373682419Y-232343200D02*
X373682419Y-232105105D01*
X373784019Y-238567980D02*
X373307828Y-238234647D01*
X373784019Y-237996552D02*
X372784019Y-237996552D01*
X372784019Y-237996552D02*
X372784019Y-238377504D01*
X372784019Y-238377504D02*
X372831638Y-238472742D01*
X372831638Y-238472742D02*
X372879257Y-238520361D01*
X372879257Y-238520361D02*
X372974495Y-238567980D01*
X372974495Y-238567980D02*
X373117352Y-238567980D01*
X373117352Y-238567980D02*
X373212590Y-238520361D01*
X373212590Y-238520361D02*
X373260209Y-238472742D01*
X373260209Y-238472742D02*
X373307828Y-238377504D01*
X373307828Y-238377504D02*
X373307828Y-237996552D01*
X373736400Y-238948933D02*
X373784019Y-239091790D01*
X373784019Y-239091790D02*
X373784019Y-239329885D01*
X373784019Y-239329885D02*
X373736400Y-239425123D01*
X373736400Y-239425123D02*
X373688780Y-239472742D01*
X373688780Y-239472742D02*
X373593542Y-239520361D01*
X373593542Y-239520361D02*
X373498304Y-239520361D01*
X373498304Y-239520361D02*
X373403066Y-239472742D01*
X373403066Y-239472742D02*
X373355447Y-239425123D01*
X373355447Y-239425123D02*
X373307828Y-239329885D01*
X373307828Y-239329885D02*
X373260209Y-239139409D01*
X373260209Y-239139409D02*
X373212590Y-239044171D01*
X373212590Y-239044171D02*
X373164971Y-238996552D01*
X373164971Y-238996552D02*
X373069733Y-238948933D01*
X373069733Y-238948933D02*
X372974495Y-238948933D01*
X372974495Y-238948933D02*
X372879257Y-238996552D01*
X372879257Y-238996552D02*
X372831638Y-239044171D01*
X372831638Y-239044171D02*
X372784019Y-239139409D01*
X372784019Y-239139409D02*
X372784019Y-239377504D01*
X372784019Y-239377504D02*
X372831638Y-239520361D01*
X372784019Y-239806076D02*
X372784019Y-240377504D01*
X373784019Y-240091790D02*
X372784019Y-240091790D01*
X371094800Y-238034724D02*
X371142419Y-238177581D01*
X371142419Y-238177581D02*
X371142419Y-238415676D01*
X371142419Y-238415676D02*
X371094800Y-238510914D01*
X371094800Y-238510914D02*
X371047180Y-238558533D01*
X371047180Y-238558533D02*
X370951942Y-238606152D01*
X370951942Y-238606152D02*
X370856704Y-238606152D01*
X370856704Y-238606152D02*
X370761466Y-238558533D01*
X370761466Y-238558533D02*
X370713847Y-238510914D01*
X370713847Y-238510914D02*
X370666228Y-238415676D01*
X370666228Y-238415676D02*
X370618609Y-238225200D01*
X370618609Y-238225200D02*
X370570990Y-238129962D01*
X370570990Y-238129962D02*
X370523371Y-238082343D01*
X370523371Y-238082343D02*
X370428133Y-238034724D01*
X370428133Y-238034724D02*
X370332895Y-238034724D01*
X370332895Y-238034724D02*
X370237657Y-238082343D01*
X370237657Y-238082343D02*
X370190038Y-238129962D01*
X370190038Y-238129962D02*
X370142419Y-238225200D01*
X370142419Y-238225200D02*
X370142419Y-238463295D01*
X370142419Y-238463295D02*
X370190038Y-238606152D01*
X371047180Y-239606152D02*
X371094800Y-239558533D01*
X371094800Y-239558533D02*
X371142419Y-239415676D01*
X371142419Y-239415676D02*
X371142419Y-239320438D01*
X371142419Y-239320438D02*
X371094800Y-239177581D01*
X371094800Y-239177581D02*
X370999561Y-239082343D01*
X370999561Y-239082343D02*
X370904323Y-239034724D01*
X370904323Y-239034724D02*
X370713847Y-238987105D01*
X370713847Y-238987105D02*
X370570990Y-238987105D01*
X370570990Y-238987105D02*
X370380514Y-239034724D01*
X370380514Y-239034724D02*
X370285276Y-239082343D01*
X370285276Y-239082343D02*
X370190038Y-239177581D01*
X370190038Y-239177581D02*
X370142419Y-239320438D01*
X370142419Y-239320438D02*
X370142419Y-239415676D01*
X370142419Y-239415676D02*
X370190038Y-239558533D01*
X370190038Y-239558533D02*
X370237657Y-239606152D01*
X371142419Y-240510914D02*
X371142419Y-240034724D01*
X371142419Y-240034724D02*
X370142419Y-240034724D01*
X371142419Y-240844248D02*
X370142419Y-240844248D01*
X371142419Y-241415676D02*
X370570990Y-240987105D01*
X370142419Y-241415676D02*
X370713847Y-240844248D01*
X396955180Y-232707161D02*
X397002800Y-232659542D01*
X397002800Y-232659542D02*
X397050419Y-232516685D01*
X397050419Y-232516685D02*
X397050419Y-232421447D01*
X397050419Y-232421447D02*
X397002800Y-232278590D01*
X397002800Y-232278590D02*
X396907561Y-232183352D01*
X396907561Y-232183352D02*
X396812323Y-232135733D01*
X396812323Y-232135733D02*
X396621847Y-232088114D01*
X396621847Y-232088114D02*
X396478990Y-232088114D01*
X396478990Y-232088114D02*
X396288514Y-232135733D01*
X396288514Y-232135733D02*
X396193276Y-232183352D01*
X396193276Y-232183352D02*
X396098038Y-232278590D01*
X396098038Y-232278590D02*
X396050419Y-232421447D01*
X396050419Y-232421447D02*
X396050419Y-232516685D01*
X396050419Y-232516685D02*
X396098038Y-232659542D01*
X396098038Y-232659542D02*
X396145657Y-232707161D01*
X397050419Y-233611923D02*
X397050419Y-233135733D01*
X397050419Y-233135733D02*
X396050419Y-233135733D01*
X397050419Y-233945257D02*
X396050419Y-233945257D01*
X397050419Y-234516685D02*
X396478990Y-234088114D01*
X396050419Y-234516685D02*
X396621847Y-233945257D01*
X384096419Y-233121429D02*
X383096419Y-233121429D01*
X383429752Y-233597619D02*
X384096419Y-233597619D01*
X383524990Y-233597619D02*
X383477371Y-233645238D01*
X383477371Y-233645238D02*
X383429752Y-233740476D01*
X383429752Y-233740476D02*
X383429752Y-233883333D01*
X383429752Y-233883333D02*
X383477371Y-233978571D01*
X383477371Y-233978571D02*
X383572609Y-234026190D01*
X383572609Y-234026190D02*
X384096419Y-234026190D01*
X383096419Y-234407143D02*
X383096419Y-235026190D01*
X383096419Y-235026190D02*
X383477371Y-234692857D01*
X383477371Y-234692857D02*
X383477371Y-234835714D01*
X383477371Y-234835714D02*
X383524990Y-234930952D01*
X383524990Y-234930952D02*
X383572609Y-234978571D01*
X383572609Y-234978571D02*
X383667847Y-235026190D01*
X383667847Y-235026190D02*
X383905942Y-235026190D01*
X383905942Y-235026190D02*
X384001180Y-234978571D01*
X384001180Y-234978571D02*
X384048800Y-234930952D01*
X384048800Y-234930952D02*
X384096419Y-234835714D01*
X384096419Y-234835714D02*
X384096419Y-234550000D01*
X384096419Y-234550000D02*
X384048800Y-234454762D01*
X384048800Y-234454762D02*
X384001180Y-234407143D01*
X368272266Y-229905086D02*
X368272266Y-230666991D01*
X368653219Y-230286038D02*
X367891314Y-230286038D01*
X367653219Y-231619371D02*
X367653219Y-231143181D01*
X367653219Y-231143181D02*
X368129409Y-231095562D01*
X368129409Y-231095562D02*
X368081790Y-231143181D01*
X368081790Y-231143181D02*
X368034171Y-231238419D01*
X368034171Y-231238419D02*
X368034171Y-231476514D01*
X368034171Y-231476514D02*
X368081790Y-231571752D01*
X368081790Y-231571752D02*
X368129409Y-231619371D01*
X368129409Y-231619371D02*
X368224647Y-231666990D01*
X368224647Y-231666990D02*
X368462742Y-231666990D01*
X368462742Y-231666990D02*
X368557980Y-231619371D01*
X368557980Y-231619371D02*
X368605600Y-231571752D01*
X368605600Y-231571752D02*
X368653219Y-231476514D01*
X368653219Y-231476514D02*
X368653219Y-231238419D01*
X368653219Y-231238419D02*
X368605600Y-231143181D01*
X368605600Y-231143181D02*
X368557980Y-231095562D01*
X367653219Y-231952705D02*
X368653219Y-232286038D01*
X368653219Y-232286038D02*
X367653219Y-232619371D01*
X371193219Y-229466972D02*
X370193219Y-229466972D01*
X370193219Y-229466972D02*
X370907504Y-229800305D01*
X370907504Y-229800305D02*
X370193219Y-230133638D01*
X370193219Y-230133638D02*
X371193219Y-230133638D01*
X370193219Y-230800305D02*
X370193219Y-230990781D01*
X370193219Y-230990781D02*
X370240838Y-231086019D01*
X370240838Y-231086019D02*
X370336076Y-231181257D01*
X370336076Y-231181257D02*
X370526552Y-231228876D01*
X370526552Y-231228876D02*
X370859885Y-231228876D01*
X370859885Y-231228876D02*
X371050361Y-231181257D01*
X371050361Y-231181257D02*
X371145600Y-231086019D01*
X371145600Y-231086019D02*
X371193219Y-230990781D01*
X371193219Y-230990781D02*
X371193219Y-230800305D01*
X371193219Y-230800305D02*
X371145600Y-230705067D01*
X371145600Y-230705067D02*
X371050361Y-230609829D01*
X371050361Y-230609829D02*
X370859885Y-230562210D01*
X370859885Y-230562210D02*
X370526552Y-230562210D01*
X370526552Y-230562210D02*
X370336076Y-230609829D01*
X370336076Y-230609829D02*
X370240838Y-230705067D01*
X370240838Y-230705067D02*
X370193219Y-230800305D01*
X371145600Y-231609829D02*
X371193219Y-231752686D01*
X371193219Y-231752686D02*
X371193219Y-231990781D01*
X371193219Y-231990781D02*
X371145600Y-232086019D01*
X371145600Y-232086019D02*
X371097980Y-232133638D01*
X371097980Y-232133638D02*
X371002742Y-232181257D01*
X371002742Y-232181257D02*
X370907504Y-232181257D01*
X370907504Y-232181257D02*
X370812266Y-232133638D01*
X370812266Y-232133638D02*
X370764647Y-232086019D01*
X370764647Y-232086019D02*
X370717028Y-231990781D01*
X370717028Y-231990781D02*
X370669409Y-231800305D01*
X370669409Y-231800305D02*
X370621790Y-231705067D01*
X370621790Y-231705067D02*
X370574171Y-231657448D01*
X370574171Y-231657448D02*
X370478933Y-231609829D01*
X370478933Y-231609829D02*
X370383695Y-231609829D01*
X370383695Y-231609829D02*
X370288457Y-231657448D01*
X370288457Y-231657448D02*
X370240838Y-231705067D01*
X370240838Y-231705067D02*
X370193219Y-231800305D01*
X370193219Y-231800305D02*
X370193219Y-232038400D01*
X370193219Y-232038400D02*
X370240838Y-232181257D01*
X371193219Y-232609829D02*
X370193219Y-232609829D01*
X456688094Y-243874819D02*
X456688094Y-242874819D01*
X456688094Y-242874819D02*
X456449999Y-242874819D01*
X456449999Y-242874819D02*
X456307142Y-242922438D01*
X456307142Y-242922438D02*
X456211904Y-243017676D01*
X456211904Y-243017676D02*
X456164285Y-243112914D01*
X456164285Y-243112914D02*
X456116666Y-243303390D01*
X456116666Y-243303390D02*
X456116666Y-243446247D01*
X456116666Y-243446247D02*
X456164285Y-243636723D01*
X456164285Y-243636723D02*
X456211904Y-243731961D01*
X456211904Y-243731961D02*
X456307142Y-243827200D01*
X456307142Y-243827200D02*
X456449999Y-243874819D01*
X456449999Y-243874819D02*
X456688094Y-243874819D01*
X455783332Y-242874819D02*
X455164285Y-242874819D01*
X455164285Y-242874819D02*
X455497618Y-243255771D01*
X455497618Y-243255771D02*
X455354761Y-243255771D01*
X455354761Y-243255771D02*
X455259523Y-243303390D01*
X455259523Y-243303390D02*
X455211904Y-243351009D01*
X455211904Y-243351009D02*
X455164285Y-243446247D01*
X455164285Y-243446247D02*
X455164285Y-243684342D01*
X455164285Y-243684342D02*
X455211904Y-243779580D01*
X455211904Y-243779580D02*
X455259523Y-243827200D01*
X455259523Y-243827200D02*
X455354761Y-243874819D01*
X455354761Y-243874819D02*
X455640475Y-243874819D01*
X455640475Y-243874819D02*
X455735713Y-243827200D01*
X455735713Y-243827200D02*
X455783332Y-243779580D01*
X456611894Y-251806819D02*
X456611894Y-250806819D01*
X456611894Y-250806819D02*
X456373799Y-250806819D01*
X456373799Y-250806819D02*
X456230942Y-250854438D01*
X456230942Y-250854438D02*
X456135704Y-250949676D01*
X456135704Y-250949676D02*
X456088085Y-251044914D01*
X456088085Y-251044914D02*
X456040466Y-251235390D01*
X456040466Y-251235390D02*
X456040466Y-251378247D01*
X456040466Y-251378247D02*
X456088085Y-251568723D01*
X456088085Y-251568723D02*
X456135704Y-251663961D01*
X456135704Y-251663961D02*
X456230942Y-251759200D01*
X456230942Y-251759200D02*
X456373799Y-251806819D01*
X456373799Y-251806819D02*
X456611894Y-251806819D01*
X455183323Y-251140152D02*
X455183323Y-251806819D01*
X455421418Y-250759200D02*
X455659513Y-251473485D01*
X455659513Y-251473485D02*
X455040466Y-251473485D01*
M02*
