%TF.GenerationSoftware,KiCad,Pcbnew,(5.1.6-0)*%
%TF.CreationDate,2024-06-04T16:27:47+02:00*%
%TF.ProjectId,A500KB,41353030-4b42-42e6-9b69-6361645f7063,rev?*%
%TF.SameCoordinates,Original*%
%TF.FileFunction,Other,Fab,Bot*%
%FSLAX46Y46*%
G04 Gerber Fmt 4.6, Leading zero omitted, Abs format (unit mm)*
G04 Created by KiCad (PCBNEW (5.1.6-0)) date 2024-06-04 16:27:47*
%MOMM*%
%LPD*%
G01*
G04 APERTURE LIST*
%ADD10C,0.100000*%
%ADD11C,0.150000*%
G04 APERTURE END LIST*
D10*
%TO.C,D4*%
X451190000Y-251350000D02*
X451190000Y-251350000D01*
%TO.C,D3*%
X451199840Y-243420000D02*
X451199840Y-243420000D01*
%TD*%
%TO.C,D4*%
D11*
X460878571Y-249702380D02*
X461354761Y-249702380D01*
X461354761Y-248702380D01*
X460545238Y-249178571D02*
X460211904Y-249178571D01*
X460069047Y-249702380D02*
X460545238Y-249702380D01*
X460545238Y-248702380D01*
X460069047Y-248702380D01*
X459640476Y-249702380D02*
X459640476Y-248702380D01*
X459402380Y-248702380D01*
X459259523Y-248750000D01*
X459164285Y-248845238D01*
X459116666Y-248940476D01*
X459069047Y-249130952D01*
X459069047Y-249273809D01*
X459116666Y-249464285D01*
X459164285Y-249559523D01*
X459259523Y-249654761D01*
X459402380Y-249702380D01*
X459640476Y-249702380D01*
X458878571Y-249797619D02*
X458116666Y-249797619D01*
X457878571Y-249702380D02*
X457878571Y-248702380D01*
X457640476Y-248702380D01*
X457497619Y-248750000D01*
X457402380Y-248845238D01*
X457354761Y-248940476D01*
X457307142Y-249130952D01*
X457307142Y-249273809D01*
X457354761Y-249464285D01*
X457402380Y-249559523D01*
X457497619Y-249654761D01*
X457640476Y-249702380D01*
X457878571Y-249702380D01*
X456450000Y-249035714D02*
X456450000Y-249702380D01*
X456878571Y-249035714D02*
X456878571Y-249559523D01*
X456830952Y-249654761D01*
X456735714Y-249702380D01*
X456592857Y-249702380D01*
X456497619Y-249654761D01*
X456450000Y-249607142D01*
X455545238Y-249702380D02*
X455545238Y-249178571D01*
X455592857Y-249083333D01*
X455688095Y-249035714D01*
X455878571Y-249035714D01*
X455973809Y-249083333D01*
X455545238Y-249654761D02*
X455640476Y-249702380D01*
X455878571Y-249702380D01*
X455973809Y-249654761D01*
X456021428Y-249559523D01*
X456021428Y-249464285D01*
X455973809Y-249369047D01*
X455878571Y-249321428D01*
X455640476Y-249321428D01*
X455545238Y-249273809D01*
X454926190Y-249702380D02*
X455021428Y-249654761D01*
X455069047Y-249559523D01*
X455069047Y-248702380D01*
X454783333Y-249797619D02*
X454021428Y-249797619D01*
X453830952Y-249416666D02*
X453354761Y-249416666D01*
X453926190Y-249702380D02*
X453592857Y-248702380D01*
X453259523Y-249702380D01*
X452354761Y-249607142D02*
X452402380Y-249654761D01*
X452545238Y-249702380D01*
X452640476Y-249702380D01*
X452783333Y-249654761D01*
X452878571Y-249559523D01*
X452926190Y-249464285D01*
X452973809Y-249273809D01*
X452973809Y-249130952D01*
X452926190Y-248940476D01*
X452878571Y-248845238D01*
X452783333Y-248750000D01*
X452640476Y-248702380D01*
X452545238Y-248702380D01*
X452402380Y-248750000D01*
X452354761Y-248797619D01*
X451973809Y-249416666D02*
X451497619Y-249416666D01*
X452069047Y-249702380D02*
X451735714Y-248702380D01*
X451402380Y-249702380D01*
X450497619Y-249607142D02*
X450545238Y-249654761D01*
X450688095Y-249702380D01*
X450783333Y-249702380D01*
X450926190Y-249654761D01*
X451021428Y-249559523D01*
X451069047Y-249464285D01*
X451116666Y-249273809D01*
X451116666Y-249130952D01*
X451069047Y-248940476D01*
X451021428Y-248845238D01*
X450926190Y-248750000D01*
X450783333Y-248702380D01*
X450688095Y-248702380D01*
X450545238Y-248750000D01*
X450497619Y-248797619D01*
%TO.C,D3*%
X460888411Y-241772380D02*
X461364601Y-241772380D01*
X461364601Y-240772380D01*
X460555078Y-241248571D02*
X460221744Y-241248571D01*
X460078887Y-241772380D02*
X460555078Y-241772380D01*
X460555078Y-240772380D01*
X460078887Y-240772380D01*
X459650316Y-241772380D02*
X459650316Y-240772380D01*
X459412220Y-240772380D01*
X459269363Y-240820000D01*
X459174125Y-240915238D01*
X459126506Y-241010476D01*
X459078887Y-241200952D01*
X459078887Y-241343809D01*
X459126506Y-241534285D01*
X459174125Y-241629523D01*
X459269363Y-241724761D01*
X459412220Y-241772380D01*
X459650316Y-241772380D01*
X458888411Y-241867619D02*
X458126506Y-241867619D01*
X457888411Y-241772380D02*
X457888411Y-240772380D01*
X457650316Y-240772380D01*
X457507459Y-240820000D01*
X457412220Y-240915238D01*
X457364601Y-241010476D01*
X457316982Y-241200952D01*
X457316982Y-241343809D01*
X457364601Y-241534285D01*
X457412220Y-241629523D01*
X457507459Y-241724761D01*
X457650316Y-241772380D01*
X457888411Y-241772380D01*
X456459840Y-241105714D02*
X456459840Y-241772380D01*
X456888411Y-241105714D02*
X456888411Y-241629523D01*
X456840792Y-241724761D01*
X456745554Y-241772380D01*
X456602697Y-241772380D01*
X456507459Y-241724761D01*
X456459840Y-241677142D01*
X455555078Y-241772380D02*
X455555078Y-241248571D01*
X455602697Y-241153333D01*
X455697935Y-241105714D01*
X455888411Y-241105714D01*
X455983649Y-241153333D01*
X455555078Y-241724761D02*
X455650316Y-241772380D01*
X455888411Y-241772380D01*
X455983649Y-241724761D01*
X456031268Y-241629523D01*
X456031268Y-241534285D01*
X455983649Y-241439047D01*
X455888411Y-241391428D01*
X455650316Y-241391428D01*
X455555078Y-241343809D01*
X454936030Y-241772380D02*
X455031268Y-241724761D01*
X455078887Y-241629523D01*
X455078887Y-240772380D01*
X454793173Y-241867619D02*
X454031268Y-241867619D01*
X453840792Y-241486666D02*
X453364601Y-241486666D01*
X453936030Y-241772380D02*
X453602697Y-240772380D01*
X453269363Y-241772380D01*
X452364601Y-241677142D02*
X452412220Y-241724761D01*
X452555078Y-241772380D01*
X452650316Y-241772380D01*
X452793173Y-241724761D01*
X452888411Y-241629523D01*
X452936030Y-241534285D01*
X452983649Y-241343809D01*
X452983649Y-241200952D01*
X452936030Y-241010476D01*
X452888411Y-240915238D01*
X452793173Y-240820000D01*
X452650316Y-240772380D01*
X452555078Y-240772380D01*
X452412220Y-240820000D01*
X452364601Y-240867619D01*
X451983649Y-241486666D02*
X451507459Y-241486666D01*
X452078887Y-241772380D02*
X451745554Y-240772380D01*
X451412220Y-241772380D01*
X450507459Y-241677142D02*
X450555078Y-241724761D01*
X450697935Y-241772380D01*
X450793173Y-241772380D01*
X450936030Y-241724761D01*
X451031268Y-241629523D01*
X451078887Y-241534285D01*
X451126506Y-241343809D01*
X451126506Y-241200952D01*
X451078887Y-241010476D01*
X451031268Y-240915238D01*
X450936030Y-240820000D01*
X450793173Y-240772380D01*
X450697935Y-240772380D01*
X450555078Y-240820000D01*
X450507459Y-240867619D01*
%TD*%
M02*
