%TF.GenerationSoftware,KiCad,Pcbnew,(5.1.6-0)*%
%TF.CreationDate,2022-03-16T10:00:05+01:00*%
%TF.ProjectId,A500KB,41353030-4b42-42e6-9b69-6361645f7063,rev?*%
%TF.SameCoordinates,Original*%
%TF.FileFunction,Other,Fab,Bot*%
%FSLAX46Y46*%
G04 Gerber Fmt 4.6, Leading zero omitted, Abs format (unit mm)*
G04 Created by KiCad (PCBNEW (5.1.6-0)) date 2022-03-16 10:00:05*
%MOMM*%
%LPD*%
G01*
G04 APERTURE LIST*
%ADD10C,0.100000*%
%ADD11C,0.150000*%
G04 APERTURE END LIST*
D10*
%TO.C,D4*%
X452222000Y-251375000D02*
X452222000Y-251375000D01*
%TO.C,D3*%
X452174000Y-243374000D02*
X452174000Y-243374000D01*
%TD*%
%TO.C,D4*%
D11*
X461910571Y-249727380D02*
X462386761Y-249727380D01*
X462386761Y-248727380D01*
X461577238Y-249203571D02*
X461243904Y-249203571D01*
X461101047Y-249727380D02*
X461577238Y-249727380D01*
X461577238Y-248727380D01*
X461101047Y-248727380D01*
X460672476Y-249727380D02*
X460672476Y-248727380D01*
X460434380Y-248727380D01*
X460291523Y-248775000D01*
X460196285Y-248870238D01*
X460148666Y-248965476D01*
X460101047Y-249155952D01*
X460101047Y-249298809D01*
X460148666Y-249489285D01*
X460196285Y-249584523D01*
X460291523Y-249679761D01*
X460434380Y-249727380D01*
X460672476Y-249727380D01*
X459910571Y-249822619D02*
X459148666Y-249822619D01*
X458910571Y-249727380D02*
X458910571Y-248727380D01*
X458672476Y-248727380D01*
X458529619Y-248775000D01*
X458434380Y-248870238D01*
X458386761Y-248965476D01*
X458339142Y-249155952D01*
X458339142Y-249298809D01*
X458386761Y-249489285D01*
X458434380Y-249584523D01*
X458529619Y-249679761D01*
X458672476Y-249727380D01*
X458910571Y-249727380D01*
X457482000Y-249060714D02*
X457482000Y-249727380D01*
X457910571Y-249060714D02*
X457910571Y-249584523D01*
X457862952Y-249679761D01*
X457767714Y-249727380D01*
X457624857Y-249727380D01*
X457529619Y-249679761D01*
X457482000Y-249632142D01*
X456577238Y-249727380D02*
X456577238Y-249203571D01*
X456624857Y-249108333D01*
X456720095Y-249060714D01*
X456910571Y-249060714D01*
X457005809Y-249108333D01*
X456577238Y-249679761D02*
X456672476Y-249727380D01*
X456910571Y-249727380D01*
X457005809Y-249679761D01*
X457053428Y-249584523D01*
X457053428Y-249489285D01*
X457005809Y-249394047D01*
X456910571Y-249346428D01*
X456672476Y-249346428D01*
X456577238Y-249298809D01*
X455958190Y-249727380D02*
X456053428Y-249679761D01*
X456101047Y-249584523D01*
X456101047Y-248727380D01*
X455815333Y-249822619D02*
X455053428Y-249822619D01*
X454862952Y-249441666D02*
X454386761Y-249441666D01*
X454958190Y-249727380D02*
X454624857Y-248727380D01*
X454291523Y-249727380D01*
X453386761Y-249632142D02*
X453434380Y-249679761D01*
X453577238Y-249727380D01*
X453672476Y-249727380D01*
X453815333Y-249679761D01*
X453910571Y-249584523D01*
X453958190Y-249489285D01*
X454005809Y-249298809D01*
X454005809Y-249155952D01*
X453958190Y-248965476D01*
X453910571Y-248870238D01*
X453815333Y-248775000D01*
X453672476Y-248727380D01*
X453577238Y-248727380D01*
X453434380Y-248775000D01*
X453386761Y-248822619D01*
X453005809Y-249441666D02*
X452529619Y-249441666D01*
X453101047Y-249727380D02*
X452767714Y-248727380D01*
X452434380Y-249727380D01*
X451529619Y-249632142D02*
X451577238Y-249679761D01*
X451720095Y-249727380D01*
X451815333Y-249727380D01*
X451958190Y-249679761D01*
X452053428Y-249584523D01*
X452101047Y-249489285D01*
X452148666Y-249298809D01*
X452148666Y-249155952D01*
X452101047Y-248965476D01*
X452053428Y-248870238D01*
X451958190Y-248775000D01*
X451815333Y-248727380D01*
X451720095Y-248727380D01*
X451577238Y-248775000D01*
X451529619Y-248822619D01*
%TO.C,D3*%
X461862571Y-241726380D02*
X462338761Y-241726380D01*
X462338761Y-240726380D01*
X461529238Y-241202571D02*
X461195904Y-241202571D01*
X461053047Y-241726380D02*
X461529238Y-241726380D01*
X461529238Y-240726380D01*
X461053047Y-240726380D01*
X460624476Y-241726380D02*
X460624476Y-240726380D01*
X460386380Y-240726380D01*
X460243523Y-240774000D01*
X460148285Y-240869238D01*
X460100666Y-240964476D01*
X460053047Y-241154952D01*
X460053047Y-241297809D01*
X460100666Y-241488285D01*
X460148285Y-241583523D01*
X460243523Y-241678761D01*
X460386380Y-241726380D01*
X460624476Y-241726380D01*
X459862571Y-241821619D02*
X459100666Y-241821619D01*
X458862571Y-241726380D02*
X458862571Y-240726380D01*
X458624476Y-240726380D01*
X458481619Y-240774000D01*
X458386380Y-240869238D01*
X458338761Y-240964476D01*
X458291142Y-241154952D01*
X458291142Y-241297809D01*
X458338761Y-241488285D01*
X458386380Y-241583523D01*
X458481619Y-241678761D01*
X458624476Y-241726380D01*
X458862571Y-241726380D01*
X457434000Y-241059714D02*
X457434000Y-241726380D01*
X457862571Y-241059714D02*
X457862571Y-241583523D01*
X457814952Y-241678761D01*
X457719714Y-241726380D01*
X457576857Y-241726380D01*
X457481619Y-241678761D01*
X457434000Y-241631142D01*
X456529238Y-241726380D02*
X456529238Y-241202571D01*
X456576857Y-241107333D01*
X456672095Y-241059714D01*
X456862571Y-241059714D01*
X456957809Y-241107333D01*
X456529238Y-241678761D02*
X456624476Y-241726380D01*
X456862571Y-241726380D01*
X456957809Y-241678761D01*
X457005428Y-241583523D01*
X457005428Y-241488285D01*
X456957809Y-241393047D01*
X456862571Y-241345428D01*
X456624476Y-241345428D01*
X456529238Y-241297809D01*
X455910190Y-241726380D02*
X456005428Y-241678761D01*
X456053047Y-241583523D01*
X456053047Y-240726380D01*
X455767333Y-241821619D02*
X455005428Y-241821619D01*
X454814952Y-241440666D02*
X454338761Y-241440666D01*
X454910190Y-241726380D02*
X454576857Y-240726380D01*
X454243523Y-241726380D01*
X453338761Y-241631142D02*
X453386380Y-241678761D01*
X453529238Y-241726380D01*
X453624476Y-241726380D01*
X453767333Y-241678761D01*
X453862571Y-241583523D01*
X453910190Y-241488285D01*
X453957809Y-241297809D01*
X453957809Y-241154952D01*
X453910190Y-240964476D01*
X453862571Y-240869238D01*
X453767333Y-240774000D01*
X453624476Y-240726380D01*
X453529238Y-240726380D01*
X453386380Y-240774000D01*
X453338761Y-240821619D01*
X452957809Y-241440666D02*
X452481619Y-241440666D01*
X453053047Y-241726380D02*
X452719714Y-240726380D01*
X452386380Y-241726380D01*
X451481619Y-241631142D02*
X451529238Y-241678761D01*
X451672095Y-241726380D01*
X451767333Y-241726380D01*
X451910190Y-241678761D01*
X452005428Y-241583523D01*
X452053047Y-241488285D01*
X452100666Y-241297809D01*
X452100666Y-241154952D01*
X452053047Y-240964476D01*
X452005428Y-240869238D01*
X451910190Y-240774000D01*
X451767333Y-240726380D01*
X451672095Y-240726380D01*
X451529238Y-240774000D01*
X451481619Y-240821619D01*
%TD*%
M02*
