%TF.GenerationSoftware,KiCad,Pcbnew,8.0.5*%
%TF.CreationDate,2025-01-08T19:28:40+01:00*%
%TF.ProjectId,A500KB,41353030-4b42-42e6-9b69-6361645f7063,rev?*%
%TF.SameCoordinates,Original*%
%TF.FileFunction,Soldermask,Bot*%
%TF.FilePolarity,Negative*%
%FSLAX46Y46*%
G04 Gerber Fmt 4.6, Leading zero omitted, Abs format (unit mm)*
G04 Created by KiCad (PCBNEW 8.0.5) date 2025-01-08 19:28:40*
%MOMM*%
%LPD*%
G01*
G04 APERTURE LIST*
G04 Aperture macros list*
%AMRoundRect*
0 Rectangle with rounded corners*
0 $1 Rounding radius*
0 $2 $3 $4 $5 $6 $7 $8 $9 X,Y pos of 4 corners*
0 Add a 4 corners polygon primitive as box body*
4,1,4,$2,$3,$4,$5,$6,$7,$8,$9,$2,$3,0*
0 Add four circle primitives for the rounded corners*
1,1,$1+$1,$2,$3*
1,1,$1+$1,$4,$5*
1,1,$1+$1,$6,$7*
1,1,$1+$1,$8,$9*
0 Add four rect primitives between the rounded corners*
20,1,$1+$1,$2,$3,$4,$5,0*
20,1,$1+$1,$4,$5,$6,$7,0*
20,1,$1+$1,$6,$7,$8,$9,0*
20,1,$1+$1,$8,$9,$2,$3,0*%
%AMHorizOval*
0 Thick line with rounded ends*
0 $1 width*
0 $2 $3 position (X,Y) of the first rounded end (center of the circle)*
0 $4 $5 position (X,Y) of the second rounded end (center of the circle)*
0 Add line between two ends*
20,1,$1,$2,$3,$4,$5,0*
0 Add two circle primitives to create the rounded ends*
1,1,$1,$2,$3*
1,1,$1,$4,$5*%
G04 Aperture macros list end*
%ADD10C,1.850000*%
%ADD11C,4.087800*%
%ADD12HorizOval,1.624000X0.086824X-0.492404X-0.086824X0.492404X0*%
%ADD13C,2.450000*%
%ADD14C,2.350000*%
%ADD15O,2.624000X1.624000*%
%ADD16HorizOval,1.624000X0.490814X-0.095404X-0.490814X0.095404X0*%
%ADD17C,3.148000*%
%ADD18HorizOval,1.624000X-0.490814X0.095404X0.490814X-0.095404X0*%
%ADD19HorizOval,1.624000X-0.086824X0.492404X0.086824X-0.492404X0*%
%ADD20RoundRect,0.050000X0.850000X-0.850000X0.850000X0.850000X-0.850000X0.850000X-0.850000X-0.850000X0*%
%ADD21O,1.800000X1.800000*%
%ADD22C,3.300000*%
%ADD23C,1.700000*%
%ADD24C,2.600000*%
%ADD25C,4.400000*%
%ADD26O,1.300000X2.000000*%
%ADD27C,1.550000*%
%ADD28C,3.000000*%
%ADD29C,5.100000*%
%ADD30RoundRect,0.264706X-0.635294X-0.760294X0.635294X-0.760294X0.635294X0.760294X-0.635294X0.760294X0*%
%ADD31O,1.800000X2.050000*%
%ADD32RoundRect,0.050000X-0.600000X-0.600000X0.600000X-0.600000X0.600000X0.600000X-0.600000X0.600000X0*%
%ADD33C,1.300000*%
G04 APERTURE END LIST*
D10*
%TO.C,MX1*%
X30378400Y-246227600D03*
D11*
X35458400Y-246227600D03*
D10*
X40538400Y-246227600D03*
D12*
X31045224Y-241720004D03*
D13*
X31648400Y-243687600D03*
D14*
X37998400Y-241147600D03*
D15*
X39458400Y-241227600D03*
%TD*%
D10*
%TO.C,MX2*%
X35153600Y-274675600D03*
D11*
X40233600Y-274675600D03*
D10*
X45313600Y-274675600D03*
D12*
X35820424Y-270168004D03*
D14*
X36423600Y-272135600D03*
X42773600Y-269595600D03*
D15*
X44233600Y-269675600D03*
%TD*%
D10*
%TO.C,MX4*%
X32744800Y-312797200D03*
D11*
X37824800Y-312797200D03*
D10*
X42904800Y-312797200D03*
D12*
X33411624Y-308289604D03*
D14*
X34014800Y-310257200D03*
X40364800Y-307717200D03*
D15*
X41824800Y-307797200D03*
%TD*%
D10*
%TO.C,MX5*%
X37490400Y-331876400D03*
D11*
X42570400Y-331876400D03*
D10*
X47650400Y-331876400D03*
D14*
X38760400Y-329336400D03*
D15*
X46920400Y-336376400D03*
D14*
X45110400Y-326796400D03*
D16*
X46929586Y-327280996D03*
%TD*%
D10*
%TO.C,MX6*%
X47011200Y-350998800D03*
D11*
X52091200Y-350998800D03*
D10*
X57171200Y-350998800D03*
D12*
X47678024Y-346491204D03*
D14*
X48281200Y-348458800D03*
X54631200Y-345918800D03*
D15*
X56091200Y-345998800D03*
%TD*%
D10*
%TO.C,MX8*%
X59029600Y-274675600D03*
D11*
X64109600Y-274675600D03*
D10*
X69189600Y-274675600D03*
D12*
X59696424Y-270168004D03*
D13*
X60299600Y-272135600D03*
D14*
X66649600Y-269595600D03*
D15*
X68109600Y-269675600D03*
%TD*%
D10*
%TO.C,MX10*%
X54182400Y-312797200D03*
D11*
X59262400Y-312797200D03*
D10*
X64342400Y-312797200D03*
D12*
X54849224Y-308289604D03*
D13*
X55452400Y-310257200D03*
D14*
X61802400Y-307717200D03*
D15*
X63262400Y-307797200D03*
%TD*%
D10*
%TO.C,MX11*%
X63703200Y-331876400D03*
D11*
X68783200Y-331876400D03*
D10*
X73863200Y-331876400D03*
D12*
X64370024Y-327368804D03*
D13*
X64973200Y-329336400D03*
D14*
X71323200Y-326796400D03*
D15*
X72783200Y-326876400D03*
%TD*%
D10*
%TO.C,MX12*%
X70815200Y-350977200D03*
D11*
X75895200Y-350977200D03*
D10*
X80975200Y-350977200D03*
D12*
X71482024Y-346469604D03*
D14*
X72085200Y-348437200D03*
X78435200Y-345897200D03*
D15*
X79895200Y-345977200D03*
%TD*%
D10*
%TO.C,MX13*%
X85191600Y-246227600D03*
D11*
X90271600Y-246227600D03*
D10*
X95351600Y-246227600D03*
D12*
X85858424Y-241720004D03*
D14*
X86461600Y-243687600D03*
X92811600Y-241147600D03*
D15*
X94271600Y-241227600D03*
%TD*%
D10*
%TO.C,MX14*%
X78079600Y-274675600D03*
D11*
X83159600Y-274675600D03*
D10*
X88239600Y-274675600D03*
D12*
X78746424Y-270168004D03*
D13*
X79349600Y-272135600D03*
D14*
X85699600Y-269595600D03*
D15*
X87159600Y-269675600D03*
%TD*%
D10*
%TO.C,MX16*%
X73253600Y-312826400D03*
D11*
X78333600Y-312826400D03*
D10*
X83413600Y-312826400D03*
D12*
X73920424Y-308318804D03*
D13*
X74523600Y-310286400D03*
D14*
X80873600Y-307746400D03*
D15*
X82333600Y-307826400D03*
%TD*%
D10*
%TO.C,MX17*%
X82753200Y-331876400D03*
D11*
X87833200Y-331876400D03*
D10*
X92913200Y-331876400D03*
D12*
X83420024Y-327368804D03*
D13*
X84023200Y-329336400D03*
D14*
X90373200Y-326796400D03*
D15*
X91833200Y-326876400D03*
%TD*%
D10*
%TO.C,MX18*%
X109016800Y-246227600D03*
D11*
X114096800Y-246227600D03*
D10*
X119176800Y-246227600D03*
D12*
X109683624Y-241720004D03*
D14*
X110286800Y-243687600D03*
X116636800Y-241147600D03*
D15*
X118096800Y-241227600D03*
%TD*%
D10*
%TO.C,MX19*%
X97129600Y-274675600D03*
D11*
X102209600Y-274675600D03*
D10*
X107289600Y-274675600D03*
D12*
X97796424Y-270168004D03*
D13*
X98399600Y-272135600D03*
D14*
X104749600Y-269595600D03*
D15*
X106209600Y-269675600D03*
%TD*%
D10*
%TO.C,MX20*%
X106578400Y-293751000D03*
D11*
X111658400Y-293751000D03*
D10*
X116738400Y-293751000D03*
D12*
X107245224Y-289243404D03*
D13*
X107848400Y-291211000D03*
D14*
X114198400Y-288671000D03*
D15*
X115658400Y-288751000D03*
%TD*%
D10*
%TO.C,MX21*%
X92303600Y-312826400D03*
D11*
X97383600Y-312826400D03*
D10*
X102463600Y-312826400D03*
D12*
X92970424Y-308318804D03*
D13*
X93573600Y-310286400D03*
D14*
X99923600Y-307746400D03*
D15*
X101383600Y-307826400D03*
%TD*%
D10*
%TO.C,MX22*%
X101803200Y-331876400D03*
D11*
X106883200Y-331876400D03*
D10*
X111963200Y-331876400D03*
D12*
X102470024Y-327368804D03*
D13*
X103073200Y-329336400D03*
D14*
X109423200Y-326796400D03*
D15*
X110883200Y-326876400D03*
%TD*%
D10*
%TO.C,MX23*%
X132842000Y-246227600D03*
D11*
X137922000Y-246227600D03*
D10*
X143002000Y-246227600D03*
D12*
X133508824Y-241720004D03*
D14*
X134112000Y-243687600D03*
X140462000Y-241147600D03*
D15*
X141922000Y-241227600D03*
%TD*%
D10*
%TO.C,MX24*%
X116179600Y-274675600D03*
D11*
X121259600Y-274675600D03*
D10*
X126339600Y-274675600D03*
D12*
X116846424Y-270168004D03*
D13*
X117449600Y-272135600D03*
D14*
X123799600Y-269595600D03*
D15*
X125259600Y-269675600D03*
%TD*%
D10*
%TO.C,MX25*%
X125628400Y-293776400D03*
D11*
X130708400Y-293776400D03*
D10*
X135788400Y-293776400D03*
D12*
X126295224Y-289268804D03*
D13*
X126898400Y-291236400D03*
D14*
X133248400Y-288696400D03*
D15*
X134708400Y-288776400D03*
%TD*%
D10*
%TO.C,MX26*%
X111374800Y-312848000D03*
D11*
X116454800Y-312848000D03*
D10*
X121534800Y-312848000D03*
D12*
X112041624Y-308340404D03*
D13*
X112644800Y-310308000D03*
D14*
X118994800Y-307768000D03*
D15*
X120454800Y-307848000D03*
%TD*%
D10*
%TO.C,MX27*%
X120853200Y-331876400D03*
D11*
X125933200Y-331876400D03*
D10*
X131013200Y-331876400D03*
D12*
X121520024Y-327368804D03*
D13*
X122123200Y-329336400D03*
D14*
X128473200Y-326796400D03*
D15*
X129933200Y-326876400D03*
%TD*%
D10*
%TO.C,MX28*%
X156667200Y-246227600D03*
D11*
X161747200Y-246227600D03*
D10*
X166827200Y-246227600D03*
D12*
X157334024Y-241720004D03*
D14*
X157937200Y-243687600D03*
X164287200Y-241147600D03*
D15*
X165747200Y-241227600D03*
%TD*%
D10*
%TO.C,MX30*%
X144678400Y-293776400D03*
D11*
X149758400Y-293776400D03*
D10*
X154838400Y-293776400D03*
D12*
X145345224Y-289268804D03*
D13*
X145948400Y-291236400D03*
D14*
X152298400Y-288696400D03*
D15*
X153758400Y-288776400D03*
%TD*%
D10*
%TO.C,MX32*%
X139903200Y-331876400D03*
D11*
X144983200Y-331876400D03*
D10*
X150063200Y-331876400D03*
D12*
X140570024Y-327368804D03*
D13*
X141173200Y-329336400D03*
D14*
X147523200Y-326796400D03*
D15*
X148983200Y-326876400D03*
%TD*%
D10*
%TO.C,MX34*%
X189941200Y-246227600D03*
D11*
X195021200Y-246227600D03*
D10*
X200101200Y-246227600D03*
D12*
X190608024Y-241720004D03*
D14*
X191211200Y-243687600D03*
X197561200Y-241147600D03*
D15*
X199021200Y-241227600D03*
%TD*%
D10*
%TO.C,MX35*%
X154330400Y-274726400D03*
D11*
X159410400Y-274726400D03*
D10*
X164490400Y-274726400D03*
D12*
X154997224Y-270218804D03*
D13*
X155600400Y-272186400D03*
D14*
X161950400Y-269646400D03*
D15*
X163410400Y-269726400D03*
%TD*%
D10*
%TO.C,MX37*%
X149483200Y-312848000D03*
D11*
X154563200Y-312848000D03*
D10*
X159643200Y-312848000D03*
D12*
X150150024Y-308340404D03*
D13*
X150753200Y-310308000D03*
D14*
X157103200Y-307768000D03*
D15*
X158563200Y-307848000D03*
%TD*%
D10*
%TO.C,MX38*%
X159004000Y-331876400D03*
D11*
X164084000Y-331876400D03*
D10*
X169164000Y-331876400D03*
D12*
X159670824Y-327368804D03*
D13*
X160274000Y-329336400D03*
D14*
X166624000Y-326796400D03*
D15*
X168084000Y-326876400D03*
%TD*%
D10*
%TO.C,MX39*%
X213766400Y-246227600D03*
D11*
X218846400Y-246227600D03*
D10*
X223926400Y-246227600D03*
D12*
X214433224Y-241720004D03*
D14*
X215036400Y-243687600D03*
X221386400Y-241147600D03*
D15*
X222846400Y-241227600D03*
%TD*%
D10*
%TO.C,MX40*%
X173380400Y-274726400D03*
D11*
X178460400Y-274726400D03*
D10*
X183540400Y-274726400D03*
D12*
X174047224Y-270218804D03*
D13*
X174650400Y-272186400D03*
D14*
X181000400Y-269646400D03*
D15*
X182460400Y-269726400D03*
%TD*%
D10*
%TO.C,MX41*%
X182880000Y-293776400D03*
D11*
X187960000Y-293776400D03*
D10*
X193040000Y-293776400D03*
D12*
X183546824Y-289268804D03*
D13*
X184150000Y-291236400D03*
D14*
X190500000Y-288696400D03*
D15*
X191960000Y-288776400D03*
%TD*%
D10*
%TO.C,MX42*%
X168554400Y-312826400D03*
D11*
X173634400Y-312826400D03*
D10*
X178714400Y-312826400D03*
D12*
X169221224Y-308318804D03*
D13*
X169824400Y-310286400D03*
D14*
X176174400Y-307746400D03*
D15*
X177634400Y-307826400D03*
%TD*%
D10*
%TO.C,MX43*%
X178032800Y-331876400D03*
D11*
X183112800Y-331876400D03*
D10*
X188192800Y-331876400D03*
D12*
X178699624Y-327368804D03*
D13*
X179302800Y-329336400D03*
D14*
X185652800Y-326796400D03*
D15*
X187112800Y-326876400D03*
%TD*%
D10*
%TO.C,MX45*%
X192430400Y-274726400D03*
D11*
X197510400Y-274726400D03*
D10*
X202590400Y-274726400D03*
D12*
X193097224Y-270218804D03*
D13*
X193700400Y-272186400D03*
D14*
X200050400Y-269646400D03*
D15*
X201510400Y-269726400D03*
%TD*%
D10*
%TO.C,MX46*%
X201930000Y-293776400D03*
D11*
X207010000Y-293776400D03*
D10*
X212090000Y-293776400D03*
D12*
X202596824Y-289268804D03*
D13*
X203200000Y-291236400D03*
D14*
X209550000Y-288696400D03*
D15*
X211010000Y-288776400D03*
%TD*%
D10*
%TO.C,MX47*%
X187604400Y-312826400D03*
D11*
X192684400Y-312826400D03*
D10*
X197764400Y-312826400D03*
D12*
X188271224Y-308318804D03*
D13*
X188874400Y-310286400D03*
D14*
X195224400Y-307746400D03*
D15*
X196684400Y-307826400D03*
%TD*%
D10*
%TO.C,MX49*%
X261438000Y-246249200D03*
D11*
X266518000Y-246249200D03*
D10*
X271598000Y-246249200D03*
D12*
X262104824Y-241741604D03*
D14*
X262708000Y-243709200D03*
X269058000Y-241169200D03*
D15*
X270518000Y-241249200D03*
%TD*%
D10*
%TO.C,MX50*%
X211531200Y-274726400D03*
D11*
X216611200Y-274726400D03*
D10*
X221691200Y-274726400D03*
D12*
X212198024Y-270218804D03*
D13*
X212801200Y-272186400D03*
D14*
X219151200Y-269646400D03*
D15*
X220611200Y-269726400D03*
%TD*%
D10*
%TO.C,MX51*%
X221030800Y-293776400D03*
D11*
X226110800Y-293776400D03*
D10*
X231190800Y-293776400D03*
D12*
X221697624Y-289268804D03*
D13*
X222300800Y-291236400D03*
D14*
X228650800Y-288696400D03*
D15*
X230110800Y-288776400D03*
%TD*%
D10*
%TO.C,MX52*%
X206705200Y-312826400D03*
D11*
X211785200Y-312826400D03*
D10*
X216865200Y-312826400D03*
D12*
X207372024Y-308318804D03*
D13*
X207975200Y-310286400D03*
D14*
X214325200Y-307746400D03*
D15*
X215785200Y-307826400D03*
%TD*%
D10*
%TO.C,MX53*%
X216103200Y-331876400D03*
D11*
X221183200Y-331876400D03*
D10*
X226263200Y-331876400D03*
D12*
X216770024Y-327368804D03*
D13*
X217373200Y-329336400D03*
D14*
X223723200Y-326796400D03*
D15*
X225183200Y-326876400D03*
%TD*%
D10*
%TO.C,MX54*%
X285242000Y-246227600D03*
D11*
X290322000Y-246227600D03*
D10*
X295402000Y-246227600D03*
D12*
X285908824Y-241720004D03*
D14*
X286512000Y-243687600D03*
X292862000Y-241147600D03*
D15*
X294322000Y-241227600D03*
%TD*%
D10*
%TO.C,MX55*%
X230581200Y-274726400D03*
D11*
X235661200Y-274726400D03*
D10*
X240741200Y-274726400D03*
D12*
X231248024Y-270218804D03*
D13*
X231851200Y-272186400D03*
D14*
X238201200Y-269646400D03*
D15*
X239661200Y-269726400D03*
%TD*%
D10*
%TO.C,MX56*%
X240080800Y-293776400D03*
D11*
X245160800Y-293776400D03*
D10*
X250240800Y-293776400D03*
D12*
X240747624Y-289268804D03*
D13*
X241350800Y-291236400D03*
D14*
X247700800Y-288696400D03*
D15*
X249160800Y-288776400D03*
%TD*%
D10*
%TO.C,MX57*%
X225806000Y-312826400D03*
D11*
X230886000Y-312826400D03*
D10*
X235966000Y-312826400D03*
D12*
X226472824Y-308318804D03*
D13*
X227076000Y-310286400D03*
D14*
X233426000Y-307746400D03*
D15*
X234886000Y-307826400D03*
%TD*%
D10*
%TO.C,MX58*%
X235153200Y-331876400D03*
D11*
X240233200Y-331876400D03*
D10*
X245313200Y-331876400D03*
D12*
X235820024Y-327368804D03*
D13*
X236423200Y-329336400D03*
D14*
X242773200Y-326796400D03*
D15*
X244233200Y-326876400D03*
%TD*%
D10*
%TO.C,MX59*%
X266221600Y-350948000D03*
D11*
X271301600Y-350948000D03*
D10*
X276381600Y-350948000D03*
D12*
X266888424Y-346440404D03*
D14*
X267491600Y-348408000D03*
X273841600Y-345868000D03*
D15*
X275301600Y-345948000D03*
%TD*%
D10*
%TO.C,MX60*%
X249631200Y-274726400D03*
D11*
X254711200Y-274726400D03*
D10*
X259791200Y-274726400D03*
D12*
X250298024Y-270218804D03*
D13*
X250901200Y-272186400D03*
D14*
X257251200Y-269646400D03*
D15*
X258711200Y-269726400D03*
%TD*%
D10*
%TO.C,MX61*%
X259130800Y-293776400D03*
D11*
X264210800Y-293776400D03*
D10*
X269290800Y-293776400D03*
D12*
X259797624Y-289268804D03*
D13*
X260400800Y-291236400D03*
D14*
X266750800Y-288696400D03*
D15*
X268210800Y-288776400D03*
%TD*%
D10*
%TO.C,MX62*%
X244856000Y-312826400D03*
D11*
X249936000Y-312826400D03*
D10*
X255016000Y-312826400D03*
D12*
X245522824Y-308318804D03*
D13*
X246126000Y-310286400D03*
D14*
X252476000Y-307746400D03*
D15*
X253936000Y-307826400D03*
%TD*%
D10*
%TO.C,MX63*%
X254203200Y-331876400D03*
D11*
X259283200Y-331876400D03*
D10*
X264363200Y-331876400D03*
D12*
X254870024Y-327368804D03*
D13*
X255473200Y-329336400D03*
D14*
X261823200Y-326796400D03*
D15*
X263283200Y-326876400D03*
%TD*%
D10*
%TO.C,MX64*%
X290097600Y-350948000D03*
D11*
X295177600Y-350948000D03*
D10*
X300257600Y-350948000D03*
D12*
X290764424Y-346440404D03*
D14*
X291367600Y-348408000D03*
X297717600Y-345868000D03*
D15*
X299177600Y-345948000D03*
%TD*%
D10*
%TO.C,MX65*%
X268681200Y-274726400D03*
D11*
X273761200Y-274726400D03*
D10*
X278841200Y-274726400D03*
D12*
X269348024Y-270218804D03*
D13*
X269951200Y-272186400D03*
D14*
X276301200Y-269646400D03*
D15*
X277761200Y-269726400D03*
%TD*%
D10*
%TO.C,MX67*%
X263906000Y-312826400D03*
D11*
X268986000Y-312826400D03*
D10*
X274066000Y-312826400D03*
D12*
X264572824Y-308318804D03*
D13*
X265176000Y-310286400D03*
D14*
X271526000Y-307746400D03*
D15*
X272986000Y-307826400D03*
%TD*%
D17*
%TO.C,MX68*%
X283089350Y-324891400D03*
D11*
X283089350Y-340131400D03*
D10*
X289915600Y-331876400D03*
D11*
X294995600Y-331876400D03*
D10*
X300075600Y-331876400D03*
D17*
X306901850Y-324891400D03*
D11*
X306901850Y-340131400D03*
D14*
X291185600Y-329336400D03*
D15*
X299345600Y-336376400D03*
D14*
X297535600Y-326796400D03*
D16*
X299354786Y-327280996D03*
%TD*%
D10*
%TO.C,MX69*%
X287731200Y-274726400D03*
D11*
X292811200Y-274726400D03*
D10*
X297891200Y-274726400D03*
D12*
X288398024Y-270218804D03*
D13*
X289001200Y-272186400D03*
D14*
X295351200Y-269646400D03*
D15*
X296811200Y-269726400D03*
%TD*%
D10*
%TO.C,MX70*%
X282956000Y-312826400D03*
D11*
X288036000Y-312826400D03*
D10*
X293116000Y-312826400D03*
D12*
X283622824Y-308318804D03*
D13*
X284226000Y-310286400D03*
D14*
X290576000Y-307746400D03*
D15*
X292036000Y-307826400D03*
%TD*%
D17*
%TO.C,MX71*%
X302467400Y-291359600D03*
X302467400Y-315235600D03*
D10*
X304372400Y-303297600D03*
D11*
X309452400Y-303297600D03*
D10*
X314532400Y-303297600D03*
D11*
X317707400Y-291359600D03*
X317707400Y-315235600D03*
D12*
X305039224Y-298790004D03*
D14*
X305642400Y-300757600D03*
X311992400Y-298217600D03*
D15*
X313452400Y-298297600D03*
%TD*%
D10*
%TO.C,MX72*%
X306781200Y-274726400D03*
D11*
X311861200Y-274726400D03*
D10*
X316941200Y-274726400D03*
D12*
X307448024Y-270218804D03*
D13*
X308051200Y-272186400D03*
D14*
X314401200Y-269646400D03*
D15*
X315861200Y-269726400D03*
%TD*%
D10*
%TO.C,MX73*%
X340034000Y-274726400D03*
D11*
X345114000Y-274726400D03*
D10*
X350194000Y-274726400D03*
D12*
X340700824Y-270218804D03*
D14*
X341304000Y-272186400D03*
X347654000Y-269646400D03*
D15*
X349114000Y-269726400D03*
%TD*%
D10*
%TO.C,MX74*%
X335076800Y-331876400D03*
D11*
X340156800Y-331876400D03*
D10*
X345236800Y-331876400D03*
D12*
X335743624Y-327368804D03*
D13*
X336346800Y-329336400D03*
D14*
X342696800Y-326796400D03*
D15*
X344156800Y-326876400D03*
%TD*%
D10*
%TO.C,MX75*%
X354126800Y-312826400D03*
D11*
X359206800Y-312826400D03*
D10*
X364286800Y-312826400D03*
D12*
X354793624Y-308318804D03*
D13*
X355396800Y-310286400D03*
D14*
X361746800Y-307746400D03*
D15*
X363206800Y-307826400D03*
%TD*%
D10*
%TO.C,MX76*%
X354156400Y-331876400D03*
D11*
X359236400Y-331876400D03*
D10*
X364316400Y-331876400D03*
D12*
X354823224Y-327368804D03*
D13*
X355426400Y-329336400D03*
D14*
X361776400Y-326796400D03*
D15*
X363236400Y-326876400D03*
%TD*%
D10*
%TO.C,MX77*%
X368634400Y-274726400D03*
D11*
X373714400Y-274726400D03*
D10*
X378794400Y-274726400D03*
D12*
X369301224Y-270218804D03*
D14*
X369904400Y-272186400D03*
X376254400Y-269646400D03*
D15*
X377714400Y-269726400D03*
%TD*%
D10*
%TO.C,MX78*%
X373176800Y-331876400D03*
D11*
X378256800Y-331876400D03*
D10*
X383336800Y-331876400D03*
D12*
X373843624Y-327368804D03*
D13*
X374446800Y-329336400D03*
D14*
X380796800Y-326796400D03*
D15*
X382256800Y-326876400D03*
%TD*%
D10*
%TO.C,MX79*%
X401624800Y-274777200D03*
D11*
X406704800Y-274777200D03*
D10*
X411784800Y-274777200D03*
D12*
X402291624Y-270269604D03*
D13*
X402894800Y-272237200D03*
D14*
X409244800Y-269697200D03*
D15*
X410704800Y-269777200D03*
%TD*%
D10*
%TO.C,MX80*%
X401624800Y-293827200D03*
D11*
X406704800Y-293827200D03*
D10*
X411784800Y-293827200D03*
D12*
X402291624Y-289319604D03*
D13*
X402894800Y-291287200D03*
D14*
X409244800Y-288747200D03*
D15*
X410704800Y-288827200D03*
%TD*%
D10*
%TO.C,MX81*%
X401624800Y-312877200D03*
D11*
X406704800Y-312877200D03*
D10*
X411784800Y-312877200D03*
D12*
X402291624Y-308369604D03*
D13*
X402894800Y-310337200D03*
D14*
X409244800Y-307797200D03*
D15*
X410704800Y-307877200D03*
%TD*%
D10*
%TO.C,MX82*%
X401654400Y-331898000D03*
D11*
X406734400Y-331898000D03*
D10*
X411814400Y-331898000D03*
D12*
X402321224Y-327390404D03*
D13*
X402924400Y-329358000D03*
D14*
X409274400Y-326818000D03*
D15*
X410734400Y-326898000D03*
%TD*%
D17*
%TO.C,MX83*%
X428180500Y-357936800D03*
D11*
X428180500Y-342696800D03*
D10*
X421354250Y-350951800D03*
D11*
X416274250Y-350951800D03*
D10*
X411194250Y-350951800D03*
D17*
X404368000Y-357936800D03*
D11*
X404368000Y-342696800D03*
D14*
X420084250Y-353491800D03*
D15*
X411924250Y-346451800D03*
D14*
X413734250Y-356031800D03*
D18*
X411915064Y-355547204D03*
%TD*%
D10*
%TO.C,MX85*%
X420674800Y-293827200D03*
D11*
X425754800Y-293827200D03*
D10*
X430834800Y-293827200D03*
D12*
X421341624Y-289319604D03*
D13*
X421944800Y-291287200D03*
D14*
X428294800Y-288747200D03*
D15*
X429754800Y-288827200D03*
%TD*%
D10*
%TO.C,MX86*%
X420674800Y-312877200D03*
D11*
X425754800Y-312877200D03*
D10*
X430834800Y-312877200D03*
D12*
X421341624Y-308369604D03*
D13*
X421944800Y-310337200D03*
D14*
X428294800Y-307797200D03*
D15*
X429754800Y-307877200D03*
%TD*%
D10*
%TO.C,MX87*%
X420704400Y-331898000D03*
D11*
X425784400Y-331898000D03*
D10*
X430864400Y-331898000D03*
D12*
X421371224Y-327390404D03*
D13*
X421974400Y-329358000D03*
D14*
X428324400Y-326818000D03*
D15*
X429784400Y-326898000D03*
%TD*%
D10*
%TO.C,MX88*%
X439826400Y-274828000D03*
D11*
X444906400Y-274828000D03*
D10*
X449986400Y-274828000D03*
D12*
X440493224Y-270320404D03*
D13*
X441096400Y-272288000D03*
D14*
X447446400Y-269748000D03*
D15*
X448906400Y-269828000D03*
%TD*%
D10*
%TO.C,MX89*%
X439724800Y-293827200D03*
D11*
X444804800Y-293827200D03*
D10*
X449884800Y-293827200D03*
D12*
X440391624Y-289319604D03*
D13*
X440994800Y-291287200D03*
D14*
X447344800Y-288747200D03*
D15*
X448804800Y-288827200D03*
%TD*%
D10*
%TO.C,MX90*%
X439775600Y-312877200D03*
D11*
X444855600Y-312877200D03*
D10*
X449935600Y-312877200D03*
D12*
X440442424Y-308369604D03*
D13*
X441045600Y-310337200D03*
D14*
X447395600Y-307797200D03*
D15*
X448855600Y-307877200D03*
%TD*%
D10*
%TO.C,MX91*%
X439775600Y-331876400D03*
D11*
X444855600Y-331876400D03*
D10*
X449935600Y-331876400D03*
D12*
X440442424Y-327368804D03*
D13*
X441045600Y-329336400D03*
D14*
X447395600Y-326796400D03*
D15*
X448855600Y-326876400D03*
%TD*%
D10*
%TO.C,MX92*%
X439754400Y-350948000D03*
D11*
X444834400Y-350948000D03*
D10*
X449914400Y-350948000D03*
D12*
X440421224Y-346440404D03*
D13*
X441024400Y-348408000D03*
D14*
X447374400Y-345868000D03*
D15*
X448834400Y-345948000D03*
%TD*%
D10*
%TO.C,MX93*%
X458927200Y-274828000D03*
D11*
X464007200Y-274828000D03*
D10*
X469087200Y-274828000D03*
D12*
X459594024Y-270320404D03*
D13*
X460197200Y-272288000D03*
D14*
X466547200Y-269748000D03*
D15*
X468007200Y-269828000D03*
%TD*%
D10*
%TO.C,MX94*%
X458927200Y-293776400D03*
D11*
X464007200Y-293776400D03*
D10*
X469087200Y-293776400D03*
D12*
X459594024Y-289268804D03*
D13*
X460197200Y-291236400D03*
D14*
X466547200Y-288696400D03*
D15*
X468007200Y-288776400D03*
%TD*%
D10*
%TO.C,MX95*%
X458927200Y-312826400D03*
D11*
X464007200Y-312826400D03*
D10*
X469087200Y-312826400D03*
D12*
X459594024Y-308318804D03*
D13*
X460197200Y-310286400D03*
D14*
X466547200Y-307746400D03*
D15*
X468007200Y-307826400D03*
%TD*%
D17*
%TO.C,MX96*%
X470966800Y-353364800D03*
X470966800Y-329488800D03*
D10*
X469061800Y-341426800D03*
D11*
X463981800Y-341426800D03*
D10*
X458901800Y-341426800D03*
D11*
X455726800Y-353364800D03*
X455726800Y-329488800D03*
D19*
X468144976Y-345934396D03*
D14*
X467791800Y-343966800D03*
X461441800Y-346506800D03*
D15*
X459981800Y-346426800D03*
%TD*%
D10*
%TO.C,MX9*%
X68457200Y-293747200D03*
D11*
X73537200Y-293747200D03*
D10*
X78617200Y-293747200D03*
D12*
X69124024Y-289239604D03*
D13*
X69727200Y-291207200D03*
D14*
X76077200Y-288667200D03*
D15*
X77537200Y-288747200D03*
%TD*%
D10*
%TO.C,MX15*%
X87528400Y-293751000D03*
D11*
X92608400Y-293751000D03*
D10*
X97688400Y-293751000D03*
D12*
X88195224Y-289243404D03*
D13*
X88798400Y-291211000D03*
D14*
X95148400Y-288671000D03*
D15*
X96608400Y-288751000D03*
%TD*%
D10*
%TO.C,MX7*%
X61417200Y-246227600D03*
D11*
X66497200Y-246227600D03*
D10*
X71577200Y-246227600D03*
D12*
X62084024Y-241720004D03*
D14*
X62687200Y-243687600D03*
X69037200Y-241147600D03*
D15*
X70497200Y-241227600D03*
%TD*%
D17*
%TO.C,MX3*%
X33070800Y-286762200D03*
D11*
X33070800Y-302002200D03*
D10*
X39897050Y-293747200D03*
D11*
X44977050Y-293747200D03*
D10*
X50057050Y-293747200D03*
D17*
X56883300Y-286762200D03*
D11*
X56883300Y-302002200D03*
D14*
X41167050Y-291207200D03*
D15*
X49327050Y-298247200D03*
D14*
X47517050Y-288667200D03*
D16*
X49336236Y-289151796D03*
%TD*%
D10*
%TO.C,MX36*%
X163830000Y-293776400D03*
D11*
X168910000Y-293776400D03*
D10*
X173990000Y-293776400D03*
D12*
X164496824Y-289268804D03*
D13*
X165100000Y-291236400D03*
D14*
X171450000Y-288696400D03*
D15*
X172910000Y-288776400D03*
%TD*%
D10*
%TO.C,MX31*%
X130454400Y-312848000D03*
D11*
X135534400Y-312848000D03*
D10*
X140614400Y-312848000D03*
D12*
X131121224Y-308340404D03*
D13*
X131724400Y-310308000D03*
D14*
X138074400Y-307768000D03*
D15*
X139534400Y-307848000D03*
%TD*%
D10*
%TO.C,MX29*%
X135259200Y-274697200D03*
D11*
X140339200Y-274697200D03*
D10*
X145419200Y-274697200D03*
D12*
X135926024Y-270189604D03*
D13*
X136529200Y-272157200D03*
D14*
X142879200Y-269617200D03*
D15*
X144339200Y-269697200D03*
%TD*%
D10*
%TO.C,MX48*%
X197053200Y-331876400D03*
D11*
X202133200Y-331876400D03*
D10*
X207213200Y-331876400D03*
D12*
X197720024Y-327368804D03*
D13*
X198323200Y-329336400D03*
D14*
X204673200Y-326796400D03*
D15*
X206133200Y-326876400D03*
%TD*%
D10*
%TO.C,MX66*%
X278180800Y-293776400D03*
D11*
X283260800Y-293776400D03*
D10*
X288340800Y-293776400D03*
D12*
X278847624Y-289268804D03*
D13*
X279450800Y-291236400D03*
D14*
X285800800Y-288696400D03*
D15*
X287260800Y-288776400D03*
%TD*%
D10*
%TO.C,MX84*%
X420725600Y-274828000D03*
D11*
X425805600Y-274828000D03*
D10*
X430885600Y-274828000D03*
D12*
X421392424Y-270320404D03*
D13*
X421995600Y-272288000D03*
D14*
X428345600Y-269748000D03*
D15*
X429805600Y-269828000D03*
%TD*%
D10*
%TO.C,MX44*%
X237591600Y-246227600D03*
D11*
X242671600Y-246227600D03*
D10*
X247751600Y-246227600D03*
D12*
X238258424Y-241720004D03*
D14*
X238861600Y-243687600D03*
X245211600Y-241147600D03*
D15*
X246671600Y-241227600D03*
%TD*%
D17*
%TO.C,MX33*%
X240284000Y-357936800D03*
D11*
X240284000Y-342696800D03*
D17*
X230709000Y-357951800D03*
D11*
X230709000Y-342751800D03*
D10*
X178689000Y-350951800D03*
D11*
X173609000Y-350951800D03*
D10*
X168529000Y-350951800D03*
D17*
X116534000Y-357936800D03*
D11*
X116534000Y-342746800D03*
D17*
X106934000Y-357936800D03*
D11*
X106934000Y-342696800D03*
D14*
X177469000Y-353441800D03*
D15*
X169259000Y-346451800D03*
D14*
X171069000Y-356031800D03*
D18*
X169249814Y-355547204D03*
%TD*%
D20*
%TO.C,J3*%
X368200000Y-236750000D03*
D21*
X368200000Y-234210000D03*
X370740000Y-236750000D03*
X370740000Y-234210000D03*
X373280000Y-236750000D03*
X373280000Y-234210000D03*
%TD*%
D20*
%TO.C,J4*%
X396600000Y-236750000D03*
D21*
X399140000Y-236750000D03*
X401680000Y-236750000D03*
X404220000Y-236750000D03*
X406760000Y-236750000D03*
X409300000Y-236750000D03*
X411840000Y-236750000D03*
X414380000Y-236750000D03*
%TD*%
D20*
%TO.C,J5*%
X383860000Y-236750000D03*
D21*
X386400000Y-236750000D03*
%TD*%
D22*
%TO.C,H5*%
X27850000Y-284200000D03*
%TD*%
%TO.C,H6*%
X27850000Y-262200000D03*
%TD*%
%TO.C,H7*%
X27800000Y-322400000D03*
%TD*%
%TO.C,H8*%
X314500000Y-358000000D03*
%TD*%
%TO.C,H9*%
X383700000Y-358000000D03*
%TD*%
%TO.C,H10*%
X471200000Y-284300000D03*
%TD*%
%TO.C,H11*%
X471200000Y-303200000D03*
%TD*%
D23*
%TO.C,J1*%
X322850000Y-257400000D03*
X324100000Y-252400000D03*
X325350000Y-257400000D03*
X326600000Y-252400000D03*
X327850000Y-257400000D03*
X329100000Y-252400000D03*
X330350000Y-257400000D03*
X331600000Y-252400000D03*
X332850000Y-257400000D03*
X334100000Y-252400000D03*
X335350000Y-257400000D03*
X336600000Y-252400000D03*
X337850000Y-257400000D03*
X339100000Y-252400000D03*
X340350000Y-257400000D03*
X341600000Y-252400000D03*
X342850000Y-257400000D03*
X344100000Y-252400000D03*
X345350000Y-257400000D03*
X346600000Y-252400000D03*
X347850000Y-257400000D03*
X349100000Y-252400000D03*
X350350000Y-257400000D03*
X351600000Y-252400000D03*
X352850000Y-257400000D03*
X354100000Y-252400000D03*
X355350000Y-257400000D03*
X356600000Y-252400000D03*
X357850000Y-257400000D03*
X359100000Y-252400000D03*
X360350000Y-257400000D03*
%TD*%
D22*
%TO.C,H12*%
X471200000Y-322350000D03*
%TD*%
%TO.C,H13*%
X32500000Y-358000000D03*
%TD*%
%TO.C,H14*%
X463950000Y-358000000D03*
%TD*%
D24*
%TO.C,H15*%
X307200000Y-258950000D03*
%TD*%
%TO.C,H17*%
X468700000Y-258950000D03*
%TD*%
%TO.C,H16*%
X307200000Y-231950000D03*
%TD*%
%TO.C,H18*%
X468700000Y-231950000D03*
%TD*%
D25*
%TO.C,H19*%
X397450000Y-257000000D03*
%TD*%
D22*
%TO.C,H1*%
X463950000Y-251375000D03*
%TD*%
%TO.C,H2*%
X448050000Y-251375000D03*
%TD*%
%TO.C,H4*%
X463950000Y-243400000D03*
%TD*%
D26*
%TO.C,J2*%
X323450000Y-224150000D03*
D27*
X322450000Y-226850000D03*
X317450000Y-226850000D03*
D26*
X316450000Y-224150000D03*
%TD*%
D22*
%TO.C,H20*%
X126450000Y-357950000D03*
%TD*%
%TO.C,H21*%
X220650000Y-357950000D03*
%TD*%
D20*
%TO.C,J6*%
X403100000Y-249350000D03*
D21*
X405640000Y-249350000D03*
X408180000Y-249350000D03*
X410720000Y-249350000D03*
%TD*%
D24*
%TO.C,H22*%
X445390000Y-257340000D03*
%TD*%
%TO.C,H23*%
X465370000Y-238100000D03*
%TD*%
D22*
%TO.C,H3*%
X448050000Y-243400000D03*
%TD*%
D28*
%TO.C,H24*%
X437889200Y-228981000D03*
D29*
X437889200Y-228981000D03*
%TD*%
D30*
%TO.C,J7*%
X452224000Y-230116500D03*
D31*
X454724000Y-230116500D03*
X457224000Y-230116500D03*
X459724000Y-230116500D03*
%TD*%
D32*
%TO.C,D3*%
X451100000Y-243420000D03*
D33*
X453150000Y-243420000D03*
X458750000Y-243420000D03*
X460800000Y-243420000D03*
%TD*%
D32*
%TO.C,D4*%
X451100000Y-251350000D03*
D33*
X453150000Y-251350000D03*
X458750000Y-251350000D03*
X460800000Y-251350000D03*
%TD*%
M02*
