%TF.GenerationSoftware,KiCad,Pcbnew,(5.1.6-0)*%
%TF.CreationDate,2021-12-10T16:25:12+01:00*%
%TF.ProjectId,A500KB,41353030-4b42-42e6-9b69-6361645f7063,rev?*%
%TF.SameCoordinates,Original*%
%TF.FileFunction,Soldermask,Bot*%
%TF.FilePolarity,Negative*%
%FSLAX46Y46*%
G04 Gerber Fmt 4.6, Leading zero omitted, Abs format (unit mm)*
G04 Created by KiCad (PCBNEW (5.1.6-0)) date 2021-12-10 16:25:12*
%MOMM*%
%LPD*%
G01*
G04 APERTURE LIST*
%ADD10C,4.400000*%
%ADD11C,2.600000*%
%ADD12C,3.300000*%
%ADD13O,2.624000X1.624000*%
%ADD14C,2.350000*%
%ADD15C,4.087800*%
%ADD16C,2.450000*%
%ADD17C,1.850000*%
%ADD18C,3.148000*%
%ADD19C,1.600000*%
%ADD20R,1.600000X1.600000*%
%ADD21R,1.800000X1.800000*%
%ADD22O,1.800000X1.800000*%
%ADD23C,4.100000*%
%ADD24C,1.700000*%
%ADD25R,1.700000X1.700000*%
G04 APERTURE END LIST*
D10*
%TO.C,H19*%
X397450000Y-257000000D03*
%TD*%
D11*
%TO.C,H18*%
X468700000Y-231950000D03*
%TD*%
%TO.C,H17*%
X468700000Y-258950000D03*
%TD*%
%TO.C,H16*%
X307200000Y-231950000D03*
%TD*%
%TO.C,H15*%
X307200000Y-258950000D03*
%TD*%
D12*
%TO.C,H14*%
X463950000Y-358000000D03*
%TD*%
%TO.C,H13*%
X32500000Y-358000000D03*
%TD*%
%TO.C,H12*%
X471650000Y-322350000D03*
%TD*%
%TO.C,H11*%
X471650000Y-303250000D03*
%TD*%
%TO.C,H10*%
X471650000Y-284350000D03*
%TD*%
%TO.C,H9*%
X383700000Y-358000000D03*
%TD*%
%TO.C,H8*%
X314500000Y-358000000D03*
%TD*%
%TO.C,H7*%
X27800000Y-322400000D03*
%TD*%
%TO.C,H6*%
X27850000Y-303250000D03*
%TD*%
%TO.C,H5*%
X27850000Y-284200000D03*
%TD*%
%TO.C,H4*%
X464950000Y-243400000D03*
%TD*%
%TO.C,H3*%
X449050000Y-243400000D03*
%TD*%
%TO.C,H2*%
X449084000Y-251375000D03*
%TD*%
%TO.C,H1*%
X464950000Y-251375000D03*
%TD*%
D13*
%TO.C,MX55*%
X239661200Y-269726400D03*
G36*
G01*
X231020198Y-268926736D02*
X231020198Y-268926736D01*
G75*
G02*
X231960864Y-269585398I141002J-799664D01*
G01*
X232134512Y-270570206D01*
G75*
G02*
X231475850Y-271510872I-799664J-141002D01*
G01*
X231475850Y-271510872D01*
G75*
G02*
X230535184Y-270852210I-141002J799664D01*
G01*
X230361536Y-269867402D01*
G75*
G02*
X231020198Y-268926736I799664J141002D01*
G01*
G37*
D14*
X238201200Y-269646400D03*
D15*
X235661200Y-274726400D03*
D16*
X231851200Y-272186400D03*
D17*
X230581200Y-274726400D03*
X240741200Y-274726400D03*
%TD*%
%TO.C,MX83*%
G36*
G01*
X420915252Y-356751464D02*
X420915252Y-356751464D01*
G75*
G02*
X419974586Y-356092802I-141002J799664D01*
G01*
X419800938Y-355107994D01*
G75*
G02*
X420459600Y-354167328I799664J141002D01*
G01*
X420459600Y-354167328D01*
G75*
G02*
X421400266Y-354825990I141002J-799664D01*
G01*
X421573914Y-355810798D01*
G75*
G02*
X420915252Y-356751464I-799664J-141002D01*
G01*
G37*
D13*
X412274250Y-355951800D03*
D14*
X413734250Y-356031800D03*
D15*
X416274250Y-350951800D03*
D14*
X420084250Y-353491800D03*
D17*
X421354250Y-350951800D03*
X411194250Y-350951800D03*
D18*
X428180500Y-357936800D03*
X404368000Y-357936800D03*
D15*
X428180500Y-342696800D03*
X404368000Y-342696800D03*
%TD*%
D14*
%TO.C,MX33*%
X171069000Y-356031800D03*
D13*
X169609000Y-355951800D03*
D14*
X177469000Y-353441800D03*
G36*
G01*
X178250002Y-356801464D02*
X178250002Y-356801464D01*
G75*
G02*
X177309336Y-356142802I-141002J799664D01*
G01*
X177135688Y-355157994D01*
G75*
G02*
X177794350Y-354217328I799664J141002D01*
G01*
X177794350Y-354217328D01*
G75*
G02*
X178735016Y-354875990I141002J-799664D01*
G01*
X178908664Y-355860798D01*
G75*
G02*
X178250002Y-356801464I-799664J-141002D01*
G01*
G37*
D18*
X116534000Y-357936800D03*
D15*
X116534000Y-342746800D03*
X230709000Y-342751800D03*
D18*
X230709000Y-357951800D03*
D15*
X106934000Y-342696800D03*
X240284000Y-342696800D03*
D18*
X106934000Y-357936800D03*
X240284000Y-357936800D03*
D17*
X168529000Y-350951800D03*
X178689000Y-350951800D03*
D15*
X173609000Y-350951800D03*
%TD*%
D13*
%TO.C,MX87*%
X429784400Y-326898000D03*
G36*
G01*
X421143398Y-326098336D02*
X421143398Y-326098336D01*
G75*
G02*
X422084064Y-326756998I141002J-799664D01*
G01*
X422257712Y-327741806D01*
G75*
G02*
X421599050Y-328682472I-799664J-141002D01*
G01*
X421599050Y-328682472D01*
G75*
G02*
X420658384Y-328023810I-141002J799664D01*
G01*
X420484736Y-327039002D01*
G75*
G02*
X421143398Y-326098336I799664J141002D01*
G01*
G37*
D14*
X428324400Y-326818000D03*
D15*
X425784400Y-331898000D03*
D16*
X421974400Y-329358000D03*
D17*
X420704400Y-331898000D03*
X430864400Y-331898000D03*
%TD*%
%TO.C,MX3*%
G36*
G01*
X40336048Y-287951336D02*
X40336048Y-287951336D01*
G75*
G02*
X41276714Y-288609998I141002J-799664D01*
G01*
X41450362Y-289594806D01*
G75*
G02*
X40791700Y-290535472I-799664J-141002D01*
G01*
X40791700Y-290535472D01*
G75*
G02*
X39851034Y-289876810I-141002J799664D01*
G01*
X39677386Y-288892002D01*
G75*
G02*
X40336048Y-287951336I799664J141002D01*
G01*
G37*
D13*
X48977050Y-288751000D03*
D14*
X47517050Y-288671000D03*
D15*
X44977050Y-293751000D03*
D14*
X41167050Y-291211000D03*
D17*
X39897050Y-293751000D03*
X50057050Y-293751000D03*
D18*
X33070800Y-286766000D03*
X56883300Y-286766000D03*
D15*
X33070800Y-302006000D03*
X56883300Y-302006000D03*
%TD*%
D19*
%TO.C,D4*%
X461832000Y-251375000D03*
X459782000Y-251375000D03*
D20*
X452132000Y-251375000D03*
D19*
X454182000Y-251375000D03*
%TD*%
%TO.C,D3*%
X461784000Y-243374000D03*
X459734000Y-243374000D03*
D20*
X452084000Y-243374000D03*
D19*
X454134000Y-243374000D03*
%TD*%
D21*
%TO.C,J5*%
X383700000Y-228200000D03*
D22*
X386240000Y-228200000D03*
%TD*%
%TO.C,J4*%
X414380000Y-228200000D03*
X411840000Y-228200000D03*
X409300000Y-228200000D03*
X406760000Y-228200000D03*
X404220000Y-228200000D03*
X401680000Y-228200000D03*
X399140000Y-228200000D03*
D21*
X396600000Y-228200000D03*
%TD*%
D22*
%TO.C,J3*%
X373280000Y-234060000D03*
X373280000Y-236600000D03*
X370740000Y-234060000D03*
X370740000Y-236600000D03*
X368200000Y-234060000D03*
D21*
X368200000Y-236600000D03*
%TD*%
D23*
%TO.C,J2*%
X313750000Y-233500000D03*
X325750000Y-233500000D03*
D24*
X318500000Y-236360000D03*
X321000000Y-236360000D03*
X321000000Y-238360000D03*
D25*
X318500000Y-238360000D03*
%TD*%
D13*
%TO.C,MX96*%
X459981800Y-346426800D03*
G36*
G01*
X468372802Y-347226464D02*
X468372802Y-347226464D01*
G75*
G02*
X467432136Y-346567802I-141002J799664D01*
G01*
X467258488Y-345582994D01*
G75*
G02*
X467917150Y-344642328I799664J141002D01*
G01*
X467917150Y-344642328D01*
G75*
G02*
X468857816Y-345300990I141002J-799664D01*
G01*
X469031464Y-346285798D01*
G75*
G02*
X468372802Y-347226464I-799664J-141002D01*
G01*
G37*
D18*
X470966800Y-353364800D03*
X470966800Y-329488800D03*
D17*
X458901800Y-341426800D03*
X469061800Y-341426800D03*
D14*
X467791800Y-343966800D03*
D15*
X463981800Y-341426800D03*
D14*
X461441800Y-346506800D03*
D15*
X455726800Y-353364800D03*
X455726800Y-329488800D03*
%TD*%
D13*
%TO.C,MX71*%
X313452400Y-298297600D03*
G36*
G01*
X304811398Y-297497936D02*
X304811398Y-297497936D01*
G75*
G02*
X305752064Y-298156598I141002J-799664D01*
G01*
X305925712Y-299141406D01*
G75*
G02*
X305267050Y-300082072I-799664J-141002D01*
G01*
X305267050Y-300082072D01*
G75*
G02*
X304326384Y-299423410I-141002J799664D01*
G01*
X304152736Y-298438602D01*
G75*
G02*
X304811398Y-297497936I799664J141002D01*
G01*
G37*
D14*
X311992400Y-298217600D03*
D15*
X309452400Y-303297600D03*
D14*
X305642400Y-300757600D03*
D17*
X304372400Y-303297600D03*
X314532400Y-303297600D03*
D18*
X302467400Y-315235600D03*
X302467400Y-291359600D03*
D15*
X317707400Y-315235600D03*
X317707400Y-291359600D03*
%TD*%
D13*
%TO.C,MX68*%
X298995600Y-326876400D03*
G36*
G01*
X290354598Y-326076736D02*
X290354598Y-326076736D01*
G75*
G02*
X291295264Y-326735398I141002J-799664D01*
G01*
X291468912Y-327720206D01*
G75*
G02*
X290810250Y-328660872I-799664J-141002D01*
G01*
X290810250Y-328660872D01*
G75*
G02*
X289869584Y-328002210I-141002J799664D01*
G01*
X289695936Y-327017402D01*
G75*
G02*
X290354598Y-326076736I799664J141002D01*
G01*
G37*
D14*
X297535600Y-326796400D03*
D15*
X294995600Y-331876400D03*
D14*
X291185600Y-329336400D03*
D17*
X289915600Y-331876400D03*
X300075600Y-331876400D03*
D18*
X283089350Y-324891400D03*
X306901850Y-324891400D03*
D15*
X283089350Y-340131400D03*
X306901850Y-340131400D03*
%TD*%
D13*
%TO.C,MX77*%
X377714400Y-269748000D03*
G36*
G01*
X369073398Y-268948336D02*
X369073398Y-268948336D01*
G75*
G02*
X370014064Y-269606998I141002J-799664D01*
G01*
X370187712Y-270591806D01*
G75*
G02*
X369529050Y-271532472I-799664J-141002D01*
G01*
X369529050Y-271532472D01*
G75*
G02*
X368588384Y-270873810I-141002J799664D01*
G01*
X368414736Y-269889002D01*
G75*
G02*
X369073398Y-268948336I799664J141002D01*
G01*
G37*
D14*
X376254400Y-269668000D03*
D15*
X373714400Y-274748000D03*
D14*
X369904400Y-272208000D03*
D17*
X368634400Y-274748000D03*
X378794400Y-274748000D03*
%TD*%
D13*
%TO.C,MX73*%
X349114000Y-269748000D03*
G36*
G01*
X340472998Y-268948336D02*
X340472998Y-268948336D01*
G75*
G02*
X341413664Y-269606998I141002J-799664D01*
G01*
X341587312Y-270591806D01*
G75*
G02*
X340928650Y-271532472I-799664J-141002D01*
G01*
X340928650Y-271532472D01*
G75*
G02*
X339987984Y-270873810I-141002J799664D01*
G01*
X339814336Y-269889002D01*
G75*
G02*
X340472998Y-268948336I799664J141002D01*
G01*
G37*
D14*
X347654000Y-269668000D03*
D15*
X345114000Y-274748000D03*
D14*
X341304000Y-272208000D03*
D17*
X340034000Y-274748000D03*
X350194000Y-274748000D03*
%TD*%
%TO.C,MX64*%
G36*
G01*
X290536598Y-345148336D02*
X290536598Y-345148336D01*
G75*
G02*
X291477264Y-345806998I141002J-799664D01*
G01*
X291650912Y-346791806D01*
G75*
G02*
X290992250Y-347732472I-799664J-141002D01*
G01*
X290992250Y-347732472D01*
G75*
G02*
X290051584Y-347073810I-141002J799664D01*
G01*
X289877936Y-346089002D01*
G75*
G02*
X290536598Y-345148336I799664J141002D01*
G01*
G37*
D13*
X299177600Y-345948000D03*
D14*
X297717600Y-345868000D03*
D15*
X295177600Y-350948000D03*
D14*
X291367600Y-348408000D03*
D17*
X290097600Y-350948000D03*
X300257600Y-350948000D03*
%TD*%
%TO.C,MX59*%
G36*
G01*
X266660598Y-345148336D02*
X266660598Y-345148336D01*
G75*
G02*
X267601264Y-345806998I141002J-799664D01*
G01*
X267774912Y-346791806D01*
G75*
G02*
X267116250Y-347732472I-799664J-141002D01*
G01*
X267116250Y-347732472D01*
G75*
G02*
X266175584Y-347073810I-141002J799664D01*
G01*
X266001936Y-346089002D01*
G75*
G02*
X266660598Y-345148336I799664J141002D01*
G01*
G37*
D13*
X275301600Y-345948000D03*
D14*
X273841600Y-345868000D03*
D15*
X271301600Y-350948000D03*
D14*
X267491600Y-348408000D03*
D17*
X266221600Y-350948000D03*
X276381600Y-350948000D03*
%TD*%
%TO.C,MX54*%
G36*
G01*
X285680998Y-240427936D02*
X285680998Y-240427936D01*
G75*
G02*
X286621664Y-241086598I141002J-799664D01*
G01*
X286795312Y-242071406D01*
G75*
G02*
X286136650Y-243012072I-799664J-141002D01*
G01*
X286136650Y-243012072D01*
G75*
G02*
X285195984Y-242353410I-141002J799664D01*
G01*
X285022336Y-241368602D01*
G75*
G02*
X285680998Y-240427936I799664J141002D01*
G01*
G37*
D13*
X294322000Y-241227600D03*
D14*
X292862000Y-241147600D03*
D15*
X290322000Y-246227600D03*
D14*
X286512000Y-243687600D03*
D17*
X285242000Y-246227600D03*
X295402000Y-246227600D03*
%TD*%
%TO.C,MX49*%
G36*
G01*
X261876998Y-240449536D02*
X261876998Y-240449536D01*
G75*
G02*
X262817664Y-241108198I141002J-799664D01*
G01*
X262991312Y-242093006D01*
G75*
G02*
X262332650Y-243033672I-799664J-141002D01*
G01*
X262332650Y-243033672D01*
G75*
G02*
X261391984Y-242375010I-141002J799664D01*
G01*
X261218336Y-241390202D01*
G75*
G02*
X261876998Y-240449536I799664J141002D01*
G01*
G37*
D13*
X270518000Y-241249200D03*
D14*
X269058000Y-241169200D03*
D15*
X266518000Y-246249200D03*
D14*
X262708000Y-243709200D03*
D17*
X261438000Y-246249200D03*
X271598000Y-246249200D03*
%TD*%
%TO.C,MX44*%
G36*
G01*
X238030598Y-240427936D02*
X238030598Y-240427936D01*
G75*
G02*
X238971264Y-241086598I141002J-799664D01*
G01*
X239144912Y-242071406D01*
G75*
G02*
X238486250Y-243012072I-799664J-141002D01*
G01*
X238486250Y-243012072D01*
G75*
G02*
X237545584Y-242353410I-141002J799664D01*
G01*
X237371936Y-241368602D01*
G75*
G02*
X238030598Y-240427936I799664J141002D01*
G01*
G37*
D13*
X246671600Y-241227600D03*
D14*
X245211600Y-241147600D03*
D15*
X242671600Y-246227600D03*
D14*
X238861600Y-243687600D03*
D17*
X237591600Y-246227600D03*
X247751600Y-246227600D03*
%TD*%
%TO.C,MX39*%
G36*
G01*
X214205398Y-240427936D02*
X214205398Y-240427936D01*
G75*
G02*
X215146064Y-241086598I141002J-799664D01*
G01*
X215319712Y-242071406D01*
G75*
G02*
X214661050Y-243012072I-799664J-141002D01*
G01*
X214661050Y-243012072D01*
G75*
G02*
X213720384Y-242353410I-141002J799664D01*
G01*
X213546736Y-241368602D01*
G75*
G02*
X214205398Y-240427936I799664J141002D01*
G01*
G37*
D13*
X222846400Y-241227600D03*
D14*
X221386400Y-241147600D03*
D15*
X218846400Y-246227600D03*
D14*
X215036400Y-243687600D03*
D17*
X213766400Y-246227600D03*
X223926400Y-246227600D03*
%TD*%
%TO.C,MX34*%
G36*
G01*
X190380198Y-240427936D02*
X190380198Y-240427936D01*
G75*
G02*
X191320864Y-241086598I141002J-799664D01*
G01*
X191494512Y-242071406D01*
G75*
G02*
X190835850Y-243012072I-799664J-141002D01*
G01*
X190835850Y-243012072D01*
G75*
G02*
X189895184Y-242353410I-141002J799664D01*
G01*
X189721536Y-241368602D01*
G75*
G02*
X190380198Y-240427936I799664J141002D01*
G01*
G37*
D13*
X199021200Y-241227600D03*
D14*
X197561200Y-241147600D03*
D15*
X195021200Y-246227600D03*
D14*
X191211200Y-243687600D03*
D17*
X189941200Y-246227600D03*
X200101200Y-246227600D03*
%TD*%
%TO.C,MX28*%
G36*
G01*
X157106198Y-240427936D02*
X157106198Y-240427936D01*
G75*
G02*
X158046864Y-241086598I141002J-799664D01*
G01*
X158220512Y-242071406D01*
G75*
G02*
X157561850Y-243012072I-799664J-141002D01*
G01*
X157561850Y-243012072D01*
G75*
G02*
X156621184Y-242353410I-141002J799664D01*
G01*
X156447536Y-241368602D01*
G75*
G02*
X157106198Y-240427936I799664J141002D01*
G01*
G37*
D13*
X165747200Y-241227600D03*
D14*
X164287200Y-241147600D03*
D15*
X161747200Y-246227600D03*
D14*
X157937200Y-243687600D03*
D17*
X156667200Y-246227600D03*
X166827200Y-246227600D03*
%TD*%
%TO.C,MX23*%
G36*
G01*
X133280998Y-240427936D02*
X133280998Y-240427936D01*
G75*
G02*
X134221664Y-241086598I141002J-799664D01*
G01*
X134395312Y-242071406D01*
G75*
G02*
X133736650Y-243012072I-799664J-141002D01*
G01*
X133736650Y-243012072D01*
G75*
G02*
X132795984Y-242353410I-141002J799664D01*
G01*
X132622336Y-241368602D01*
G75*
G02*
X133280998Y-240427936I799664J141002D01*
G01*
G37*
D13*
X141922000Y-241227600D03*
D14*
X140462000Y-241147600D03*
D15*
X137922000Y-246227600D03*
D14*
X134112000Y-243687600D03*
D17*
X132842000Y-246227600D03*
X143002000Y-246227600D03*
%TD*%
%TO.C,MX18*%
G36*
G01*
X109455798Y-240427936D02*
X109455798Y-240427936D01*
G75*
G02*
X110396464Y-241086598I141002J-799664D01*
G01*
X110570112Y-242071406D01*
G75*
G02*
X109911450Y-243012072I-799664J-141002D01*
G01*
X109911450Y-243012072D01*
G75*
G02*
X108970784Y-242353410I-141002J799664D01*
G01*
X108797136Y-241368602D01*
G75*
G02*
X109455798Y-240427936I799664J141002D01*
G01*
G37*
D13*
X118096800Y-241227600D03*
D14*
X116636800Y-241147600D03*
D15*
X114096800Y-246227600D03*
D14*
X110286800Y-243687600D03*
D17*
X109016800Y-246227600D03*
X119176800Y-246227600D03*
%TD*%
%TO.C,MX13*%
G36*
G01*
X85630598Y-240427936D02*
X85630598Y-240427936D01*
G75*
G02*
X86571264Y-241086598I141002J-799664D01*
G01*
X86744912Y-242071406D01*
G75*
G02*
X86086250Y-243012072I-799664J-141002D01*
G01*
X86086250Y-243012072D01*
G75*
G02*
X85145584Y-242353410I-141002J799664D01*
G01*
X84971936Y-241368602D01*
G75*
G02*
X85630598Y-240427936I799664J141002D01*
G01*
G37*
D13*
X94271600Y-241227600D03*
D14*
X92811600Y-241147600D03*
D15*
X90271600Y-246227600D03*
D14*
X86461600Y-243687600D03*
D17*
X85191600Y-246227600D03*
X95351600Y-246227600D03*
%TD*%
%TO.C,MX12*%
G36*
G01*
X71254198Y-345177536D02*
X71254198Y-345177536D01*
G75*
G02*
X72194864Y-345836198I141002J-799664D01*
G01*
X72368512Y-346821006D01*
G75*
G02*
X71709850Y-347761672I-799664J-141002D01*
G01*
X71709850Y-347761672D01*
G75*
G02*
X70769184Y-347103010I-141002J799664D01*
G01*
X70595536Y-346118202D01*
G75*
G02*
X71254198Y-345177536I799664J141002D01*
G01*
G37*
D13*
X79895200Y-345977200D03*
D14*
X78435200Y-345897200D03*
D15*
X75895200Y-350977200D03*
D14*
X72085200Y-348437200D03*
D17*
X70815200Y-350977200D03*
X80975200Y-350977200D03*
%TD*%
%TO.C,MX7*%
G36*
G01*
X61856198Y-240427936D02*
X61856198Y-240427936D01*
G75*
G02*
X62796864Y-241086598I141002J-799664D01*
G01*
X62970512Y-242071406D01*
G75*
G02*
X62311850Y-243012072I-799664J-141002D01*
G01*
X62311850Y-243012072D01*
G75*
G02*
X61371184Y-242353410I-141002J799664D01*
G01*
X61197536Y-241368602D01*
G75*
G02*
X61856198Y-240427936I799664J141002D01*
G01*
G37*
D13*
X70497200Y-241227600D03*
D14*
X69037200Y-241147600D03*
D15*
X66497200Y-246227600D03*
D14*
X62687200Y-243687600D03*
D17*
X61417200Y-246227600D03*
X71577200Y-246227600D03*
%TD*%
%TO.C,MX6*%
G36*
G01*
X47450198Y-345199136D02*
X47450198Y-345199136D01*
G75*
G02*
X48390864Y-345857798I141002J-799664D01*
G01*
X48564512Y-346842606D01*
G75*
G02*
X47905850Y-347783272I-799664J-141002D01*
G01*
X47905850Y-347783272D01*
G75*
G02*
X46965184Y-347124610I-141002J799664D01*
G01*
X46791536Y-346139802D01*
G75*
G02*
X47450198Y-345199136I799664J141002D01*
G01*
G37*
D13*
X56091200Y-345998800D03*
D14*
X54631200Y-345918800D03*
D15*
X52091200Y-350998800D03*
D14*
X48281200Y-348458800D03*
D17*
X47011200Y-350998800D03*
X57171200Y-350998800D03*
%TD*%
D13*
%TO.C,MX5*%
X46570400Y-326876400D03*
G36*
G01*
X37929398Y-326076736D02*
X37929398Y-326076736D01*
G75*
G02*
X38870064Y-326735398I141002J-799664D01*
G01*
X39043712Y-327720206D01*
G75*
G02*
X38385050Y-328660872I-799664J-141002D01*
G01*
X38385050Y-328660872D01*
G75*
G02*
X37444384Y-328002210I-141002J799664D01*
G01*
X37270736Y-327017402D01*
G75*
G02*
X37929398Y-326076736I799664J141002D01*
G01*
G37*
D14*
X45110400Y-326796400D03*
D15*
X42570400Y-331876400D03*
D14*
X38760400Y-329336400D03*
D17*
X37490400Y-331876400D03*
X47650400Y-331876400D03*
%TD*%
%TO.C,MX4*%
G36*
G01*
X33183798Y-306997536D02*
X33183798Y-306997536D01*
G75*
G02*
X34124464Y-307656198I141002J-799664D01*
G01*
X34298112Y-308641006D01*
G75*
G02*
X33639450Y-309581672I-799664J-141002D01*
G01*
X33639450Y-309581672D01*
G75*
G02*
X32698784Y-308923010I-141002J799664D01*
G01*
X32525136Y-307938202D01*
G75*
G02*
X33183798Y-306997536I799664J141002D01*
G01*
G37*
D13*
X41824800Y-307797200D03*
D14*
X40364800Y-307717200D03*
D15*
X37824800Y-312797200D03*
D14*
X34014800Y-310257200D03*
D17*
X32744800Y-312797200D03*
X42904800Y-312797200D03*
%TD*%
D13*
%TO.C,MX2*%
X44233600Y-269701000D03*
G36*
G01*
X35592598Y-268901336D02*
X35592598Y-268901336D01*
G75*
G02*
X36533264Y-269559998I141002J-799664D01*
G01*
X36706912Y-270544806D01*
G75*
G02*
X36048250Y-271485472I-799664J-141002D01*
G01*
X36048250Y-271485472D01*
G75*
G02*
X35107584Y-270826810I-141002J799664D01*
G01*
X34933936Y-269842002D01*
G75*
G02*
X35592598Y-268901336I799664J141002D01*
G01*
G37*
D14*
X42773600Y-269621000D03*
D15*
X40233600Y-274701000D03*
D14*
X36423600Y-272161000D03*
D17*
X35153600Y-274701000D03*
X45313600Y-274701000D03*
%TD*%
D13*
%TO.C,MX95*%
X468007200Y-307826400D03*
G36*
G01*
X459366198Y-307026736D02*
X459366198Y-307026736D01*
G75*
G02*
X460306864Y-307685398I141002J-799664D01*
G01*
X460480512Y-308670206D01*
G75*
G02*
X459821850Y-309610872I-799664J-141002D01*
G01*
X459821850Y-309610872D01*
G75*
G02*
X458881184Y-308952210I-141002J799664D01*
G01*
X458707536Y-307967402D01*
G75*
G02*
X459366198Y-307026736I799664J141002D01*
G01*
G37*
D14*
X466547200Y-307746400D03*
D15*
X464007200Y-312826400D03*
D16*
X460197200Y-310286400D03*
D17*
X458927200Y-312826400D03*
X469087200Y-312826400D03*
%TD*%
D13*
%TO.C,MX94*%
X468007200Y-288776400D03*
G36*
G01*
X459366198Y-287976736D02*
X459366198Y-287976736D01*
G75*
G02*
X460306864Y-288635398I141002J-799664D01*
G01*
X460480512Y-289620206D01*
G75*
G02*
X459821850Y-290560872I-799664J-141002D01*
G01*
X459821850Y-290560872D01*
G75*
G02*
X458881184Y-289902210I-141002J799664D01*
G01*
X458707536Y-288917402D01*
G75*
G02*
X459366198Y-287976736I799664J141002D01*
G01*
G37*
D14*
X466547200Y-288696400D03*
D15*
X464007200Y-293776400D03*
D16*
X460197200Y-291236400D03*
D17*
X458927200Y-293776400D03*
X469087200Y-293776400D03*
%TD*%
D13*
%TO.C,MX93*%
X468007200Y-269828000D03*
G36*
G01*
X459366198Y-269028336D02*
X459366198Y-269028336D01*
G75*
G02*
X460306864Y-269686998I141002J-799664D01*
G01*
X460480512Y-270671806D01*
G75*
G02*
X459821850Y-271612472I-799664J-141002D01*
G01*
X459821850Y-271612472D01*
G75*
G02*
X458881184Y-270953810I-141002J799664D01*
G01*
X458707536Y-269969002D01*
G75*
G02*
X459366198Y-269028336I799664J141002D01*
G01*
G37*
D14*
X466547200Y-269748000D03*
D15*
X464007200Y-274828000D03*
D16*
X460197200Y-272288000D03*
D17*
X458927200Y-274828000D03*
X469087200Y-274828000D03*
%TD*%
D13*
%TO.C,MX92*%
X448834400Y-345948000D03*
G36*
G01*
X440193398Y-345148336D02*
X440193398Y-345148336D01*
G75*
G02*
X441134064Y-345806998I141002J-799664D01*
G01*
X441307712Y-346791806D01*
G75*
G02*
X440649050Y-347732472I-799664J-141002D01*
G01*
X440649050Y-347732472D01*
G75*
G02*
X439708384Y-347073810I-141002J799664D01*
G01*
X439534736Y-346089002D01*
G75*
G02*
X440193398Y-345148336I799664J141002D01*
G01*
G37*
D14*
X447374400Y-345868000D03*
D15*
X444834400Y-350948000D03*
D16*
X441024400Y-348408000D03*
D17*
X439754400Y-350948000D03*
X449914400Y-350948000D03*
%TD*%
D13*
%TO.C,MX91*%
X448855600Y-326876400D03*
G36*
G01*
X440214598Y-326076736D02*
X440214598Y-326076736D01*
G75*
G02*
X441155264Y-326735398I141002J-799664D01*
G01*
X441328912Y-327720206D01*
G75*
G02*
X440670250Y-328660872I-799664J-141002D01*
G01*
X440670250Y-328660872D01*
G75*
G02*
X439729584Y-328002210I-141002J799664D01*
G01*
X439555936Y-327017402D01*
G75*
G02*
X440214598Y-326076736I799664J141002D01*
G01*
G37*
D14*
X447395600Y-326796400D03*
D15*
X444855600Y-331876400D03*
D16*
X441045600Y-329336400D03*
D17*
X439775600Y-331876400D03*
X449935600Y-331876400D03*
%TD*%
D13*
%TO.C,MX90*%
X448855600Y-307877200D03*
G36*
G01*
X440214598Y-307077536D02*
X440214598Y-307077536D01*
G75*
G02*
X441155264Y-307736198I141002J-799664D01*
G01*
X441328912Y-308721006D01*
G75*
G02*
X440670250Y-309661672I-799664J-141002D01*
G01*
X440670250Y-309661672D01*
G75*
G02*
X439729584Y-309003010I-141002J799664D01*
G01*
X439555936Y-308018202D01*
G75*
G02*
X440214598Y-307077536I799664J141002D01*
G01*
G37*
D14*
X447395600Y-307797200D03*
D15*
X444855600Y-312877200D03*
D16*
X441045600Y-310337200D03*
D17*
X439775600Y-312877200D03*
X449935600Y-312877200D03*
%TD*%
D13*
%TO.C,MX89*%
X448804800Y-288827200D03*
G36*
G01*
X440163798Y-288027536D02*
X440163798Y-288027536D01*
G75*
G02*
X441104464Y-288686198I141002J-799664D01*
G01*
X441278112Y-289671006D01*
G75*
G02*
X440619450Y-290611672I-799664J-141002D01*
G01*
X440619450Y-290611672D01*
G75*
G02*
X439678784Y-289953010I-141002J799664D01*
G01*
X439505136Y-288968202D01*
G75*
G02*
X440163798Y-288027536I799664J141002D01*
G01*
G37*
D14*
X447344800Y-288747200D03*
D15*
X444804800Y-293827200D03*
D16*
X440994800Y-291287200D03*
D17*
X439724800Y-293827200D03*
X449884800Y-293827200D03*
%TD*%
D13*
%TO.C,MX88*%
X448906400Y-269828000D03*
G36*
G01*
X440265398Y-269028336D02*
X440265398Y-269028336D01*
G75*
G02*
X441206064Y-269686998I141002J-799664D01*
G01*
X441379712Y-270671806D01*
G75*
G02*
X440721050Y-271612472I-799664J-141002D01*
G01*
X440721050Y-271612472D01*
G75*
G02*
X439780384Y-270953810I-141002J799664D01*
G01*
X439606736Y-269969002D01*
G75*
G02*
X440265398Y-269028336I799664J141002D01*
G01*
G37*
D14*
X447446400Y-269748000D03*
D15*
X444906400Y-274828000D03*
D16*
X441096400Y-272288000D03*
D17*
X439826400Y-274828000D03*
X449986400Y-274828000D03*
%TD*%
D13*
%TO.C,MX86*%
X429754800Y-307877200D03*
G36*
G01*
X421113798Y-307077536D02*
X421113798Y-307077536D01*
G75*
G02*
X422054464Y-307736198I141002J-799664D01*
G01*
X422228112Y-308721006D01*
G75*
G02*
X421569450Y-309661672I-799664J-141002D01*
G01*
X421569450Y-309661672D01*
G75*
G02*
X420628784Y-309003010I-141002J799664D01*
G01*
X420455136Y-308018202D01*
G75*
G02*
X421113798Y-307077536I799664J141002D01*
G01*
G37*
D14*
X428294800Y-307797200D03*
D15*
X425754800Y-312877200D03*
D16*
X421944800Y-310337200D03*
D17*
X420674800Y-312877200D03*
X430834800Y-312877200D03*
%TD*%
D13*
%TO.C,MX85*%
X429754800Y-288827200D03*
G36*
G01*
X421113798Y-288027536D02*
X421113798Y-288027536D01*
G75*
G02*
X422054464Y-288686198I141002J-799664D01*
G01*
X422228112Y-289671006D01*
G75*
G02*
X421569450Y-290611672I-799664J-141002D01*
G01*
X421569450Y-290611672D01*
G75*
G02*
X420628784Y-289953010I-141002J799664D01*
G01*
X420455136Y-288968202D01*
G75*
G02*
X421113798Y-288027536I799664J141002D01*
G01*
G37*
D14*
X428294800Y-288747200D03*
D15*
X425754800Y-293827200D03*
D16*
X421944800Y-291287200D03*
D17*
X420674800Y-293827200D03*
X430834800Y-293827200D03*
%TD*%
D13*
%TO.C,MX84*%
X429805600Y-269828000D03*
G36*
G01*
X421164598Y-269028336D02*
X421164598Y-269028336D01*
G75*
G02*
X422105264Y-269686998I141002J-799664D01*
G01*
X422278912Y-270671806D01*
G75*
G02*
X421620250Y-271612472I-799664J-141002D01*
G01*
X421620250Y-271612472D01*
G75*
G02*
X420679584Y-270953810I-141002J799664D01*
G01*
X420505936Y-269969002D01*
G75*
G02*
X421164598Y-269028336I799664J141002D01*
G01*
G37*
D14*
X428345600Y-269748000D03*
D15*
X425805600Y-274828000D03*
D16*
X421995600Y-272288000D03*
D17*
X420725600Y-274828000D03*
X430885600Y-274828000D03*
%TD*%
D13*
%TO.C,MX82*%
X410734400Y-326898000D03*
G36*
G01*
X402093398Y-326098336D02*
X402093398Y-326098336D01*
G75*
G02*
X403034064Y-326756998I141002J-799664D01*
G01*
X403207712Y-327741806D01*
G75*
G02*
X402549050Y-328682472I-799664J-141002D01*
G01*
X402549050Y-328682472D01*
G75*
G02*
X401608384Y-328023810I-141002J799664D01*
G01*
X401434736Y-327039002D01*
G75*
G02*
X402093398Y-326098336I799664J141002D01*
G01*
G37*
D14*
X409274400Y-326818000D03*
D15*
X406734400Y-331898000D03*
D16*
X402924400Y-329358000D03*
D17*
X401654400Y-331898000D03*
X411814400Y-331898000D03*
%TD*%
D13*
%TO.C,MX81*%
X410704800Y-307877200D03*
G36*
G01*
X402063798Y-307077536D02*
X402063798Y-307077536D01*
G75*
G02*
X403004464Y-307736198I141002J-799664D01*
G01*
X403178112Y-308721006D01*
G75*
G02*
X402519450Y-309661672I-799664J-141002D01*
G01*
X402519450Y-309661672D01*
G75*
G02*
X401578784Y-309003010I-141002J799664D01*
G01*
X401405136Y-308018202D01*
G75*
G02*
X402063798Y-307077536I799664J141002D01*
G01*
G37*
D14*
X409244800Y-307797200D03*
D15*
X406704800Y-312877200D03*
D16*
X402894800Y-310337200D03*
D17*
X401624800Y-312877200D03*
X411784800Y-312877200D03*
%TD*%
D13*
%TO.C,MX80*%
X410704800Y-288827200D03*
G36*
G01*
X402063798Y-288027536D02*
X402063798Y-288027536D01*
G75*
G02*
X403004464Y-288686198I141002J-799664D01*
G01*
X403178112Y-289671006D01*
G75*
G02*
X402519450Y-290611672I-799664J-141002D01*
G01*
X402519450Y-290611672D01*
G75*
G02*
X401578784Y-289953010I-141002J799664D01*
G01*
X401405136Y-288968202D01*
G75*
G02*
X402063798Y-288027536I799664J141002D01*
G01*
G37*
D14*
X409244800Y-288747200D03*
D15*
X406704800Y-293827200D03*
D16*
X402894800Y-291287200D03*
D17*
X401624800Y-293827200D03*
X411784800Y-293827200D03*
%TD*%
D13*
%TO.C,MX79*%
X410704800Y-269777200D03*
G36*
G01*
X402063798Y-268977536D02*
X402063798Y-268977536D01*
G75*
G02*
X403004464Y-269636198I141002J-799664D01*
G01*
X403178112Y-270621006D01*
G75*
G02*
X402519450Y-271561672I-799664J-141002D01*
G01*
X402519450Y-271561672D01*
G75*
G02*
X401578784Y-270903010I-141002J799664D01*
G01*
X401405136Y-269918202D01*
G75*
G02*
X402063798Y-268977536I799664J141002D01*
G01*
G37*
D14*
X409244800Y-269697200D03*
D15*
X406704800Y-274777200D03*
D16*
X402894800Y-272237200D03*
D17*
X401624800Y-274777200D03*
X411784800Y-274777200D03*
%TD*%
D13*
%TO.C,MX78*%
X382256800Y-326876400D03*
G36*
G01*
X373615798Y-326076736D02*
X373615798Y-326076736D01*
G75*
G02*
X374556464Y-326735398I141002J-799664D01*
G01*
X374730112Y-327720206D01*
G75*
G02*
X374071450Y-328660872I-799664J-141002D01*
G01*
X374071450Y-328660872D01*
G75*
G02*
X373130784Y-328002210I-141002J799664D01*
G01*
X372957136Y-327017402D01*
G75*
G02*
X373615798Y-326076736I799664J141002D01*
G01*
G37*
D14*
X380796800Y-326796400D03*
D15*
X378256800Y-331876400D03*
D16*
X374446800Y-329336400D03*
D17*
X373176800Y-331876400D03*
X383336800Y-331876400D03*
%TD*%
D13*
%TO.C,MX76*%
X363236400Y-326876400D03*
G36*
G01*
X354595398Y-326076736D02*
X354595398Y-326076736D01*
G75*
G02*
X355536064Y-326735398I141002J-799664D01*
G01*
X355709712Y-327720206D01*
G75*
G02*
X355051050Y-328660872I-799664J-141002D01*
G01*
X355051050Y-328660872D01*
G75*
G02*
X354110384Y-328002210I-141002J799664D01*
G01*
X353936736Y-327017402D01*
G75*
G02*
X354595398Y-326076736I799664J141002D01*
G01*
G37*
D14*
X361776400Y-326796400D03*
D15*
X359236400Y-331876400D03*
D16*
X355426400Y-329336400D03*
D17*
X354156400Y-331876400D03*
X364316400Y-331876400D03*
%TD*%
D13*
%TO.C,MX75*%
X363206800Y-307826400D03*
G36*
G01*
X354565798Y-307026736D02*
X354565798Y-307026736D01*
G75*
G02*
X355506464Y-307685398I141002J-799664D01*
G01*
X355680112Y-308670206D01*
G75*
G02*
X355021450Y-309610872I-799664J-141002D01*
G01*
X355021450Y-309610872D01*
G75*
G02*
X354080784Y-308952210I-141002J799664D01*
G01*
X353907136Y-307967402D01*
G75*
G02*
X354565798Y-307026736I799664J141002D01*
G01*
G37*
D14*
X361746800Y-307746400D03*
D15*
X359206800Y-312826400D03*
D16*
X355396800Y-310286400D03*
D17*
X354126800Y-312826400D03*
X364286800Y-312826400D03*
%TD*%
D13*
%TO.C,MX74*%
X344156800Y-326876400D03*
G36*
G01*
X335515798Y-326076736D02*
X335515798Y-326076736D01*
G75*
G02*
X336456464Y-326735398I141002J-799664D01*
G01*
X336630112Y-327720206D01*
G75*
G02*
X335971450Y-328660872I-799664J-141002D01*
G01*
X335971450Y-328660872D01*
G75*
G02*
X335030784Y-328002210I-141002J799664D01*
G01*
X334857136Y-327017402D01*
G75*
G02*
X335515798Y-326076736I799664J141002D01*
G01*
G37*
D14*
X342696800Y-326796400D03*
D15*
X340156800Y-331876400D03*
D16*
X336346800Y-329336400D03*
D17*
X335076800Y-331876400D03*
X345236800Y-331876400D03*
%TD*%
D13*
%TO.C,MX72*%
X315861200Y-269726400D03*
G36*
G01*
X307220198Y-268926736D02*
X307220198Y-268926736D01*
G75*
G02*
X308160864Y-269585398I141002J-799664D01*
G01*
X308334512Y-270570206D01*
G75*
G02*
X307675850Y-271510872I-799664J-141002D01*
G01*
X307675850Y-271510872D01*
G75*
G02*
X306735184Y-270852210I-141002J799664D01*
G01*
X306561536Y-269867402D01*
G75*
G02*
X307220198Y-268926736I799664J141002D01*
G01*
G37*
D14*
X314401200Y-269646400D03*
D15*
X311861200Y-274726400D03*
D16*
X308051200Y-272186400D03*
D17*
X306781200Y-274726400D03*
X316941200Y-274726400D03*
%TD*%
D13*
%TO.C,MX70*%
X292036000Y-307826400D03*
G36*
G01*
X283394998Y-307026736D02*
X283394998Y-307026736D01*
G75*
G02*
X284335664Y-307685398I141002J-799664D01*
G01*
X284509312Y-308670206D01*
G75*
G02*
X283850650Y-309610872I-799664J-141002D01*
G01*
X283850650Y-309610872D01*
G75*
G02*
X282909984Y-308952210I-141002J799664D01*
G01*
X282736336Y-307967402D01*
G75*
G02*
X283394998Y-307026736I799664J141002D01*
G01*
G37*
D14*
X290576000Y-307746400D03*
D15*
X288036000Y-312826400D03*
D16*
X284226000Y-310286400D03*
D17*
X282956000Y-312826400D03*
X293116000Y-312826400D03*
%TD*%
D13*
%TO.C,MX69*%
X296811200Y-269726400D03*
G36*
G01*
X288170198Y-268926736D02*
X288170198Y-268926736D01*
G75*
G02*
X289110864Y-269585398I141002J-799664D01*
G01*
X289284512Y-270570206D01*
G75*
G02*
X288625850Y-271510872I-799664J-141002D01*
G01*
X288625850Y-271510872D01*
G75*
G02*
X287685184Y-270852210I-141002J799664D01*
G01*
X287511536Y-269867402D01*
G75*
G02*
X288170198Y-268926736I799664J141002D01*
G01*
G37*
D14*
X295351200Y-269646400D03*
D15*
X292811200Y-274726400D03*
D16*
X289001200Y-272186400D03*
D17*
X287731200Y-274726400D03*
X297891200Y-274726400D03*
%TD*%
D13*
%TO.C,MX67*%
X272986000Y-307826400D03*
G36*
G01*
X264344998Y-307026736D02*
X264344998Y-307026736D01*
G75*
G02*
X265285664Y-307685398I141002J-799664D01*
G01*
X265459312Y-308670206D01*
G75*
G02*
X264800650Y-309610872I-799664J-141002D01*
G01*
X264800650Y-309610872D01*
G75*
G02*
X263859984Y-308952210I-141002J799664D01*
G01*
X263686336Y-307967402D01*
G75*
G02*
X264344998Y-307026736I799664J141002D01*
G01*
G37*
D14*
X271526000Y-307746400D03*
D15*
X268986000Y-312826400D03*
D16*
X265176000Y-310286400D03*
D17*
X263906000Y-312826400D03*
X274066000Y-312826400D03*
%TD*%
D13*
%TO.C,MX66*%
X287260800Y-288776400D03*
G36*
G01*
X278619798Y-287976736D02*
X278619798Y-287976736D01*
G75*
G02*
X279560464Y-288635398I141002J-799664D01*
G01*
X279734112Y-289620206D01*
G75*
G02*
X279075450Y-290560872I-799664J-141002D01*
G01*
X279075450Y-290560872D01*
G75*
G02*
X278134784Y-289902210I-141002J799664D01*
G01*
X277961136Y-288917402D01*
G75*
G02*
X278619798Y-287976736I799664J141002D01*
G01*
G37*
D14*
X285800800Y-288696400D03*
D15*
X283260800Y-293776400D03*
D16*
X279450800Y-291236400D03*
D17*
X278180800Y-293776400D03*
X288340800Y-293776400D03*
%TD*%
D13*
%TO.C,MX65*%
X277761200Y-269726400D03*
G36*
G01*
X269120198Y-268926736D02*
X269120198Y-268926736D01*
G75*
G02*
X270060864Y-269585398I141002J-799664D01*
G01*
X270234512Y-270570206D01*
G75*
G02*
X269575850Y-271510872I-799664J-141002D01*
G01*
X269575850Y-271510872D01*
G75*
G02*
X268635184Y-270852210I-141002J799664D01*
G01*
X268461536Y-269867402D01*
G75*
G02*
X269120198Y-268926736I799664J141002D01*
G01*
G37*
D14*
X276301200Y-269646400D03*
D15*
X273761200Y-274726400D03*
D16*
X269951200Y-272186400D03*
D17*
X268681200Y-274726400D03*
X278841200Y-274726400D03*
%TD*%
D13*
%TO.C,MX63*%
X263283200Y-326876400D03*
G36*
G01*
X254642198Y-326076736D02*
X254642198Y-326076736D01*
G75*
G02*
X255582864Y-326735398I141002J-799664D01*
G01*
X255756512Y-327720206D01*
G75*
G02*
X255097850Y-328660872I-799664J-141002D01*
G01*
X255097850Y-328660872D01*
G75*
G02*
X254157184Y-328002210I-141002J799664D01*
G01*
X253983536Y-327017402D01*
G75*
G02*
X254642198Y-326076736I799664J141002D01*
G01*
G37*
D14*
X261823200Y-326796400D03*
D15*
X259283200Y-331876400D03*
D16*
X255473200Y-329336400D03*
D17*
X254203200Y-331876400D03*
X264363200Y-331876400D03*
%TD*%
D13*
%TO.C,MX62*%
X253936000Y-307826400D03*
G36*
G01*
X245294998Y-307026736D02*
X245294998Y-307026736D01*
G75*
G02*
X246235664Y-307685398I141002J-799664D01*
G01*
X246409312Y-308670206D01*
G75*
G02*
X245750650Y-309610872I-799664J-141002D01*
G01*
X245750650Y-309610872D01*
G75*
G02*
X244809984Y-308952210I-141002J799664D01*
G01*
X244636336Y-307967402D01*
G75*
G02*
X245294998Y-307026736I799664J141002D01*
G01*
G37*
D14*
X252476000Y-307746400D03*
D15*
X249936000Y-312826400D03*
D16*
X246126000Y-310286400D03*
D17*
X244856000Y-312826400D03*
X255016000Y-312826400D03*
%TD*%
D13*
%TO.C,MX61*%
X268210800Y-288776400D03*
G36*
G01*
X259569798Y-287976736D02*
X259569798Y-287976736D01*
G75*
G02*
X260510464Y-288635398I141002J-799664D01*
G01*
X260684112Y-289620206D01*
G75*
G02*
X260025450Y-290560872I-799664J-141002D01*
G01*
X260025450Y-290560872D01*
G75*
G02*
X259084784Y-289902210I-141002J799664D01*
G01*
X258911136Y-288917402D01*
G75*
G02*
X259569798Y-287976736I799664J141002D01*
G01*
G37*
D14*
X266750800Y-288696400D03*
D15*
X264210800Y-293776400D03*
D16*
X260400800Y-291236400D03*
D17*
X259130800Y-293776400D03*
X269290800Y-293776400D03*
%TD*%
D13*
%TO.C,MX60*%
X258711200Y-269726400D03*
G36*
G01*
X250070198Y-268926736D02*
X250070198Y-268926736D01*
G75*
G02*
X251010864Y-269585398I141002J-799664D01*
G01*
X251184512Y-270570206D01*
G75*
G02*
X250525850Y-271510872I-799664J-141002D01*
G01*
X250525850Y-271510872D01*
G75*
G02*
X249585184Y-270852210I-141002J799664D01*
G01*
X249411536Y-269867402D01*
G75*
G02*
X250070198Y-268926736I799664J141002D01*
G01*
G37*
D14*
X257251200Y-269646400D03*
D15*
X254711200Y-274726400D03*
D16*
X250901200Y-272186400D03*
D17*
X249631200Y-274726400D03*
X259791200Y-274726400D03*
%TD*%
D13*
%TO.C,MX58*%
X244233200Y-326876400D03*
G36*
G01*
X235592198Y-326076736D02*
X235592198Y-326076736D01*
G75*
G02*
X236532864Y-326735398I141002J-799664D01*
G01*
X236706512Y-327720206D01*
G75*
G02*
X236047850Y-328660872I-799664J-141002D01*
G01*
X236047850Y-328660872D01*
G75*
G02*
X235107184Y-328002210I-141002J799664D01*
G01*
X234933536Y-327017402D01*
G75*
G02*
X235592198Y-326076736I799664J141002D01*
G01*
G37*
D14*
X242773200Y-326796400D03*
D15*
X240233200Y-331876400D03*
D16*
X236423200Y-329336400D03*
D17*
X235153200Y-331876400D03*
X245313200Y-331876400D03*
%TD*%
D13*
%TO.C,MX57*%
X234886000Y-307826400D03*
G36*
G01*
X226244998Y-307026736D02*
X226244998Y-307026736D01*
G75*
G02*
X227185664Y-307685398I141002J-799664D01*
G01*
X227359312Y-308670206D01*
G75*
G02*
X226700650Y-309610872I-799664J-141002D01*
G01*
X226700650Y-309610872D01*
G75*
G02*
X225759984Y-308952210I-141002J799664D01*
G01*
X225586336Y-307967402D01*
G75*
G02*
X226244998Y-307026736I799664J141002D01*
G01*
G37*
D14*
X233426000Y-307746400D03*
D15*
X230886000Y-312826400D03*
D16*
X227076000Y-310286400D03*
D17*
X225806000Y-312826400D03*
X235966000Y-312826400D03*
%TD*%
D13*
%TO.C,MX56*%
X249160800Y-288776400D03*
G36*
G01*
X240519798Y-287976736D02*
X240519798Y-287976736D01*
G75*
G02*
X241460464Y-288635398I141002J-799664D01*
G01*
X241634112Y-289620206D01*
G75*
G02*
X240975450Y-290560872I-799664J-141002D01*
G01*
X240975450Y-290560872D01*
G75*
G02*
X240034784Y-289902210I-141002J799664D01*
G01*
X239861136Y-288917402D01*
G75*
G02*
X240519798Y-287976736I799664J141002D01*
G01*
G37*
D14*
X247700800Y-288696400D03*
D15*
X245160800Y-293776400D03*
D16*
X241350800Y-291236400D03*
D17*
X240080800Y-293776400D03*
X250240800Y-293776400D03*
%TD*%
D13*
%TO.C,MX53*%
X225183200Y-326876400D03*
G36*
G01*
X216542198Y-326076736D02*
X216542198Y-326076736D01*
G75*
G02*
X217482864Y-326735398I141002J-799664D01*
G01*
X217656512Y-327720206D01*
G75*
G02*
X216997850Y-328660872I-799664J-141002D01*
G01*
X216997850Y-328660872D01*
G75*
G02*
X216057184Y-328002210I-141002J799664D01*
G01*
X215883536Y-327017402D01*
G75*
G02*
X216542198Y-326076736I799664J141002D01*
G01*
G37*
D14*
X223723200Y-326796400D03*
D15*
X221183200Y-331876400D03*
D16*
X217373200Y-329336400D03*
D17*
X216103200Y-331876400D03*
X226263200Y-331876400D03*
%TD*%
D13*
%TO.C,MX52*%
X215785200Y-307826400D03*
G36*
G01*
X207144198Y-307026736D02*
X207144198Y-307026736D01*
G75*
G02*
X208084864Y-307685398I141002J-799664D01*
G01*
X208258512Y-308670206D01*
G75*
G02*
X207599850Y-309610872I-799664J-141002D01*
G01*
X207599850Y-309610872D01*
G75*
G02*
X206659184Y-308952210I-141002J799664D01*
G01*
X206485536Y-307967402D01*
G75*
G02*
X207144198Y-307026736I799664J141002D01*
G01*
G37*
D14*
X214325200Y-307746400D03*
D15*
X211785200Y-312826400D03*
D16*
X207975200Y-310286400D03*
D17*
X206705200Y-312826400D03*
X216865200Y-312826400D03*
%TD*%
D13*
%TO.C,MX51*%
X230110800Y-288776400D03*
G36*
G01*
X221469798Y-287976736D02*
X221469798Y-287976736D01*
G75*
G02*
X222410464Y-288635398I141002J-799664D01*
G01*
X222584112Y-289620206D01*
G75*
G02*
X221925450Y-290560872I-799664J-141002D01*
G01*
X221925450Y-290560872D01*
G75*
G02*
X220984784Y-289902210I-141002J799664D01*
G01*
X220811136Y-288917402D01*
G75*
G02*
X221469798Y-287976736I799664J141002D01*
G01*
G37*
D14*
X228650800Y-288696400D03*
D15*
X226110800Y-293776400D03*
D16*
X222300800Y-291236400D03*
D17*
X221030800Y-293776400D03*
X231190800Y-293776400D03*
%TD*%
D13*
%TO.C,MX50*%
X220611200Y-269726400D03*
G36*
G01*
X211970198Y-268926736D02*
X211970198Y-268926736D01*
G75*
G02*
X212910864Y-269585398I141002J-799664D01*
G01*
X213084512Y-270570206D01*
G75*
G02*
X212425850Y-271510872I-799664J-141002D01*
G01*
X212425850Y-271510872D01*
G75*
G02*
X211485184Y-270852210I-141002J799664D01*
G01*
X211311536Y-269867402D01*
G75*
G02*
X211970198Y-268926736I799664J141002D01*
G01*
G37*
D14*
X219151200Y-269646400D03*
D15*
X216611200Y-274726400D03*
D16*
X212801200Y-272186400D03*
D17*
X211531200Y-274726400D03*
X221691200Y-274726400D03*
%TD*%
D13*
%TO.C,MX48*%
X206133200Y-326876400D03*
G36*
G01*
X197492198Y-326076736D02*
X197492198Y-326076736D01*
G75*
G02*
X198432864Y-326735398I141002J-799664D01*
G01*
X198606512Y-327720206D01*
G75*
G02*
X197947850Y-328660872I-799664J-141002D01*
G01*
X197947850Y-328660872D01*
G75*
G02*
X197007184Y-328002210I-141002J799664D01*
G01*
X196833536Y-327017402D01*
G75*
G02*
X197492198Y-326076736I799664J141002D01*
G01*
G37*
D14*
X204673200Y-326796400D03*
D15*
X202133200Y-331876400D03*
D16*
X198323200Y-329336400D03*
D17*
X197053200Y-331876400D03*
X207213200Y-331876400D03*
%TD*%
D13*
%TO.C,MX47*%
X196684400Y-307826400D03*
G36*
G01*
X188043398Y-307026736D02*
X188043398Y-307026736D01*
G75*
G02*
X188984064Y-307685398I141002J-799664D01*
G01*
X189157712Y-308670206D01*
G75*
G02*
X188499050Y-309610872I-799664J-141002D01*
G01*
X188499050Y-309610872D01*
G75*
G02*
X187558384Y-308952210I-141002J799664D01*
G01*
X187384736Y-307967402D01*
G75*
G02*
X188043398Y-307026736I799664J141002D01*
G01*
G37*
D14*
X195224400Y-307746400D03*
D15*
X192684400Y-312826400D03*
D16*
X188874400Y-310286400D03*
D17*
X187604400Y-312826400D03*
X197764400Y-312826400D03*
%TD*%
D13*
%TO.C,MX46*%
X211010000Y-288776400D03*
G36*
G01*
X202368998Y-287976736D02*
X202368998Y-287976736D01*
G75*
G02*
X203309664Y-288635398I141002J-799664D01*
G01*
X203483312Y-289620206D01*
G75*
G02*
X202824650Y-290560872I-799664J-141002D01*
G01*
X202824650Y-290560872D01*
G75*
G02*
X201883984Y-289902210I-141002J799664D01*
G01*
X201710336Y-288917402D01*
G75*
G02*
X202368998Y-287976736I799664J141002D01*
G01*
G37*
D14*
X209550000Y-288696400D03*
D15*
X207010000Y-293776400D03*
D16*
X203200000Y-291236400D03*
D17*
X201930000Y-293776400D03*
X212090000Y-293776400D03*
%TD*%
D13*
%TO.C,MX45*%
X201510400Y-269726400D03*
G36*
G01*
X192869398Y-268926736D02*
X192869398Y-268926736D01*
G75*
G02*
X193810064Y-269585398I141002J-799664D01*
G01*
X193983712Y-270570206D01*
G75*
G02*
X193325050Y-271510872I-799664J-141002D01*
G01*
X193325050Y-271510872D01*
G75*
G02*
X192384384Y-270852210I-141002J799664D01*
G01*
X192210736Y-269867402D01*
G75*
G02*
X192869398Y-268926736I799664J141002D01*
G01*
G37*
D14*
X200050400Y-269646400D03*
D15*
X197510400Y-274726400D03*
D16*
X193700400Y-272186400D03*
D17*
X192430400Y-274726400D03*
X202590400Y-274726400D03*
%TD*%
D13*
%TO.C,MX43*%
X187112800Y-326876400D03*
G36*
G01*
X178471798Y-326076736D02*
X178471798Y-326076736D01*
G75*
G02*
X179412464Y-326735398I141002J-799664D01*
G01*
X179586112Y-327720206D01*
G75*
G02*
X178927450Y-328660872I-799664J-141002D01*
G01*
X178927450Y-328660872D01*
G75*
G02*
X177986784Y-328002210I-141002J799664D01*
G01*
X177813136Y-327017402D01*
G75*
G02*
X178471798Y-326076736I799664J141002D01*
G01*
G37*
D14*
X185652800Y-326796400D03*
D15*
X183112800Y-331876400D03*
D16*
X179302800Y-329336400D03*
D17*
X178032800Y-331876400D03*
X188192800Y-331876400D03*
%TD*%
D13*
%TO.C,MX42*%
X177634400Y-307826400D03*
G36*
G01*
X168993398Y-307026736D02*
X168993398Y-307026736D01*
G75*
G02*
X169934064Y-307685398I141002J-799664D01*
G01*
X170107712Y-308670206D01*
G75*
G02*
X169449050Y-309610872I-799664J-141002D01*
G01*
X169449050Y-309610872D01*
G75*
G02*
X168508384Y-308952210I-141002J799664D01*
G01*
X168334736Y-307967402D01*
G75*
G02*
X168993398Y-307026736I799664J141002D01*
G01*
G37*
D14*
X176174400Y-307746400D03*
D15*
X173634400Y-312826400D03*
D16*
X169824400Y-310286400D03*
D17*
X168554400Y-312826400D03*
X178714400Y-312826400D03*
%TD*%
D13*
%TO.C,MX41*%
X191960000Y-288776400D03*
G36*
G01*
X183318998Y-287976736D02*
X183318998Y-287976736D01*
G75*
G02*
X184259664Y-288635398I141002J-799664D01*
G01*
X184433312Y-289620206D01*
G75*
G02*
X183774650Y-290560872I-799664J-141002D01*
G01*
X183774650Y-290560872D01*
G75*
G02*
X182833984Y-289902210I-141002J799664D01*
G01*
X182660336Y-288917402D01*
G75*
G02*
X183318998Y-287976736I799664J141002D01*
G01*
G37*
D14*
X190500000Y-288696400D03*
D15*
X187960000Y-293776400D03*
D16*
X184150000Y-291236400D03*
D17*
X182880000Y-293776400D03*
X193040000Y-293776400D03*
%TD*%
D13*
%TO.C,MX40*%
X182460400Y-269726400D03*
G36*
G01*
X173819398Y-268926736D02*
X173819398Y-268926736D01*
G75*
G02*
X174760064Y-269585398I141002J-799664D01*
G01*
X174933712Y-270570206D01*
G75*
G02*
X174275050Y-271510872I-799664J-141002D01*
G01*
X174275050Y-271510872D01*
G75*
G02*
X173334384Y-270852210I-141002J799664D01*
G01*
X173160736Y-269867402D01*
G75*
G02*
X173819398Y-268926736I799664J141002D01*
G01*
G37*
D14*
X181000400Y-269646400D03*
D15*
X178460400Y-274726400D03*
D16*
X174650400Y-272186400D03*
D17*
X173380400Y-274726400D03*
X183540400Y-274726400D03*
%TD*%
D13*
%TO.C,MX38*%
X168084000Y-326876400D03*
G36*
G01*
X159442998Y-326076736D02*
X159442998Y-326076736D01*
G75*
G02*
X160383664Y-326735398I141002J-799664D01*
G01*
X160557312Y-327720206D01*
G75*
G02*
X159898650Y-328660872I-799664J-141002D01*
G01*
X159898650Y-328660872D01*
G75*
G02*
X158957984Y-328002210I-141002J799664D01*
G01*
X158784336Y-327017402D01*
G75*
G02*
X159442998Y-326076736I799664J141002D01*
G01*
G37*
D14*
X166624000Y-326796400D03*
D15*
X164084000Y-331876400D03*
D16*
X160274000Y-329336400D03*
D17*
X159004000Y-331876400D03*
X169164000Y-331876400D03*
%TD*%
D13*
%TO.C,MX37*%
X158563200Y-307848000D03*
G36*
G01*
X149922198Y-307048336D02*
X149922198Y-307048336D01*
G75*
G02*
X150862864Y-307706998I141002J-799664D01*
G01*
X151036512Y-308691806D01*
G75*
G02*
X150377850Y-309632472I-799664J-141002D01*
G01*
X150377850Y-309632472D01*
G75*
G02*
X149437184Y-308973810I-141002J799664D01*
G01*
X149263536Y-307989002D01*
G75*
G02*
X149922198Y-307048336I799664J141002D01*
G01*
G37*
D14*
X157103200Y-307768000D03*
D15*
X154563200Y-312848000D03*
D16*
X150753200Y-310308000D03*
D17*
X149483200Y-312848000D03*
X159643200Y-312848000D03*
%TD*%
D13*
%TO.C,MX36*%
X172910000Y-288776400D03*
G36*
G01*
X164268998Y-287976736D02*
X164268998Y-287976736D01*
G75*
G02*
X165209664Y-288635398I141002J-799664D01*
G01*
X165383312Y-289620206D01*
G75*
G02*
X164724650Y-290560872I-799664J-141002D01*
G01*
X164724650Y-290560872D01*
G75*
G02*
X163783984Y-289902210I-141002J799664D01*
G01*
X163610336Y-288917402D01*
G75*
G02*
X164268998Y-287976736I799664J141002D01*
G01*
G37*
D14*
X171450000Y-288696400D03*
D15*
X168910000Y-293776400D03*
D16*
X165100000Y-291236400D03*
D17*
X163830000Y-293776400D03*
X173990000Y-293776400D03*
%TD*%
D13*
%TO.C,MX35*%
X163410400Y-269726400D03*
G36*
G01*
X154769398Y-268926736D02*
X154769398Y-268926736D01*
G75*
G02*
X155710064Y-269585398I141002J-799664D01*
G01*
X155883712Y-270570206D01*
G75*
G02*
X155225050Y-271510872I-799664J-141002D01*
G01*
X155225050Y-271510872D01*
G75*
G02*
X154284384Y-270852210I-141002J799664D01*
G01*
X154110736Y-269867402D01*
G75*
G02*
X154769398Y-268926736I799664J141002D01*
G01*
G37*
D14*
X161950400Y-269646400D03*
D15*
X159410400Y-274726400D03*
D16*
X155600400Y-272186400D03*
D17*
X154330400Y-274726400D03*
X164490400Y-274726400D03*
%TD*%
D13*
%TO.C,MX32*%
X148983200Y-326876400D03*
G36*
G01*
X140342198Y-326076736D02*
X140342198Y-326076736D01*
G75*
G02*
X141282864Y-326735398I141002J-799664D01*
G01*
X141456512Y-327720206D01*
G75*
G02*
X140797850Y-328660872I-799664J-141002D01*
G01*
X140797850Y-328660872D01*
G75*
G02*
X139857184Y-328002210I-141002J799664D01*
G01*
X139683536Y-327017402D01*
G75*
G02*
X140342198Y-326076736I799664J141002D01*
G01*
G37*
D14*
X147523200Y-326796400D03*
D15*
X144983200Y-331876400D03*
D16*
X141173200Y-329336400D03*
D17*
X139903200Y-331876400D03*
X150063200Y-331876400D03*
%TD*%
D13*
%TO.C,MX31*%
X139534400Y-307848000D03*
G36*
G01*
X130893398Y-307048336D02*
X130893398Y-307048336D01*
G75*
G02*
X131834064Y-307706998I141002J-799664D01*
G01*
X132007712Y-308691806D01*
G75*
G02*
X131349050Y-309632472I-799664J-141002D01*
G01*
X131349050Y-309632472D01*
G75*
G02*
X130408384Y-308973810I-141002J799664D01*
G01*
X130234736Y-307989002D01*
G75*
G02*
X130893398Y-307048336I799664J141002D01*
G01*
G37*
D14*
X138074400Y-307768000D03*
D15*
X135534400Y-312848000D03*
D16*
X131724400Y-310308000D03*
D17*
X130454400Y-312848000D03*
X140614400Y-312848000D03*
%TD*%
D13*
%TO.C,MX30*%
X153758400Y-288776400D03*
G36*
G01*
X145117398Y-287976736D02*
X145117398Y-287976736D01*
G75*
G02*
X146058064Y-288635398I141002J-799664D01*
G01*
X146231712Y-289620206D01*
G75*
G02*
X145573050Y-290560872I-799664J-141002D01*
G01*
X145573050Y-290560872D01*
G75*
G02*
X144632384Y-289902210I-141002J799664D01*
G01*
X144458736Y-288917402D01*
G75*
G02*
X145117398Y-287976736I799664J141002D01*
G01*
G37*
D14*
X152298400Y-288696400D03*
D15*
X149758400Y-293776400D03*
D16*
X145948400Y-291236400D03*
D17*
X144678400Y-293776400D03*
X154838400Y-293776400D03*
%TD*%
D13*
%TO.C,MX29*%
X144339200Y-269697200D03*
G36*
G01*
X135698198Y-268897536D02*
X135698198Y-268897536D01*
G75*
G02*
X136638864Y-269556198I141002J-799664D01*
G01*
X136812512Y-270541006D01*
G75*
G02*
X136153850Y-271481672I-799664J-141002D01*
G01*
X136153850Y-271481672D01*
G75*
G02*
X135213184Y-270823010I-141002J799664D01*
G01*
X135039536Y-269838202D01*
G75*
G02*
X135698198Y-268897536I799664J141002D01*
G01*
G37*
D14*
X142879200Y-269617200D03*
D15*
X140339200Y-274697200D03*
D16*
X136529200Y-272157200D03*
D17*
X135259200Y-274697200D03*
X145419200Y-274697200D03*
%TD*%
D13*
%TO.C,MX27*%
X129933200Y-326876400D03*
G36*
G01*
X121292198Y-326076736D02*
X121292198Y-326076736D01*
G75*
G02*
X122232864Y-326735398I141002J-799664D01*
G01*
X122406512Y-327720206D01*
G75*
G02*
X121747850Y-328660872I-799664J-141002D01*
G01*
X121747850Y-328660872D01*
G75*
G02*
X120807184Y-328002210I-141002J799664D01*
G01*
X120633536Y-327017402D01*
G75*
G02*
X121292198Y-326076736I799664J141002D01*
G01*
G37*
D14*
X128473200Y-326796400D03*
D15*
X125933200Y-331876400D03*
D16*
X122123200Y-329336400D03*
D17*
X120853200Y-331876400D03*
X131013200Y-331876400D03*
%TD*%
D13*
%TO.C,MX26*%
X120454800Y-307848000D03*
G36*
G01*
X111813798Y-307048336D02*
X111813798Y-307048336D01*
G75*
G02*
X112754464Y-307706998I141002J-799664D01*
G01*
X112928112Y-308691806D01*
G75*
G02*
X112269450Y-309632472I-799664J-141002D01*
G01*
X112269450Y-309632472D01*
G75*
G02*
X111328784Y-308973810I-141002J799664D01*
G01*
X111155136Y-307989002D01*
G75*
G02*
X111813798Y-307048336I799664J141002D01*
G01*
G37*
D14*
X118994800Y-307768000D03*
D15*
X116454800Y-312848000D03*
D16*
X112644800Y-310308000D03*
D17*
X111374800Y-312848000D03*
X121534800Y-312848000D03*
%TD*%
D13*
%TO.C,MX25*%
X134708400Y-288776400D03*
G36*
G01*
X126067398Y-287976736D02*
X126067398Y-287976736D01*
G75*
G02*
X127008064Y-288635398I141002J-799664D01*
G01*
X127181712Y-289620206D01*
G75*
G02*
X126523050Y-290560872I-799664J-141002D01*
G01*
X126523050Y-290560872D01*
G75*
G02*
X125582384Y-289902210I-141002J799664D01*
G01*
X125408736Y-288917402D01*
G75*
G02*
X126067398Y-287976736I799664J141002D01*
G01*
G37*
D14*
X133248400Y-288696400D03*
D15*
X130708400Y-293776400D03*
D16*
X126898400Y-291236400D03*
D17*
X125628400Y-293776400D03*
X135788400Y-293776400D03*
%TD*%
D13*
%TO.C,MX24*%
X125259600Y-269675600D03*
G36*
G01*
X116618598Y-268875936D02*
X116618598Y-268875936D01*
G75*
G02*
X117559264Y-269534598I141002J-799664D01*
G01*
X117732912Y-270519406D01*
G75*
G02*
X117074250Y-271460072I-799664J-141002D01*
G01*
X117074250Y-271460072D01*
G75*
G02*
X116133584Y-270801410I-141002J799664D01*
G01*
X115959936Y-269816602D01*
G75*
G02*
X116618598Y-268875936I799664J141002D01*
G01*
G37*
D14*
X123799600Y-269595600D03*
D15*
X121259600Y-274675600D03*
D16*
X117449600Y-272135600D03*
D17*
X116179600Y-274675600D03*
X126339600Y-274675600D03*
%TD*%
D13*
%TO.C,MX22*%
X110883200Y-326876400D03*
G36*
G01*
X102242198Y-326076736D02*
X102242198Y-326076736D01*
G75*
G02*
X103182864Y-326735398I141002J-799664D01*
G01*
X103356512Y-327720206D01*
G75*
G02*
X102697850Y-328660872I-799664J-141002D01*
G01*
X102697850Y-328660872D01*
G75*
G02*
X101757184Y-328002210I-141002J799664D01*
G01*
X101583536Y-327017402D01*
G75*
G02*
X102242198Y-326076736I799664J141002D01*
G01*
G37*
D14*
X109423200Y-326796400D03*
D15*
X106883200Y-331876400D03*
D16*
X103073200Y-329336400D03*
D17*
X101803200Y-331876400D03*
X111963200Y-331876400D03*
%TD*%
D13*
%TO.C,MX21*%
X101383600Y-307826400D03*
G36*
G01*
X92742598Y-307026736D02*
X92742598Y-307026736D01*
G75*
G02*
X93683264Y-307685398I141002J-799664D01*
G01*
X93856912Y-308670206D01*
G75*
G02*
X93198250Y-309610872I-799664J-141002D01*
G01*
X93198250Y-309610872D01*
G75*
G02*
X92257584Y-308952210I-141002J799664D01*
G01*
X92083936Y-307967402D01*
G75*
G02*
X92742598Y-307026736I799664J141002D01*
G01*
G37*
D14*
X99923600Y-307746400D03*
D15*
X97383600Y-312826400D03*
D16*
X93573600Y-310286400D03*
D17*
X92303600Y-312826400D03*
X102463600Y-312826400D03*
%TD*%
D13*
%TO.C,MX20*%
X115658400Y-288751000D03*
G36*
G01*
X107017398Y-287951336D02*
X107017398Y-287951336D01*
G75*
G02*
X107958064Y-288609998I141002J-799664D01*
G01*
X108131712Y-289594806D01*
G75*
G02*
X107473050Y-290535472I-799664J-141002D01*
G01*
X107473050Y-290535472D01*
G75*
G02*
X106532384Y-289876810I-141002J799664D01*
G01*
X106358736Y-288892002D01*
G75*
G02*
X107017398Y-287951336I799664J141002D01*
G01*
G37*
D14*
X114198400Y-288671000D03*
D15*
X111658400Y-293751000D03*
D16*
X107848400Y-291211000D03*
D17*
X106578400Y-293751000D03*
X116738400Y-293751000D03*
%TD*%
D13*
%TO.C,MX19*%
X106209600Y-269675600D03*
G36*
G01*
X97568598Y-268875936D02*
X97568598Y-268875936D01*
G75*
G02*
X98509264Y-269534598I141002J-799664D01*
G01*
X98682912Y-270519406D01*
G75*
G02*
X98024250Y-271460072I-799664J-141002D01*
G01*
X98024250Y-271460072D01*
G75*
G02*
X97083584Y-270801410I-141002J799664D01*
G01*
X96909936Y-269816602D01*
G75*
G02*
X97568598Y-268875936I799664J141002D01*
G01*
G37*
D14*
X104749600Y-269595600D03*
D15*
X102209600Y-274675600D03*
D16*
X98399600Y-272135600D03*
D17*
X97129600Y-274675600D03*
X107289600Y-274675600D03*
%TD*%
D13*
%TO.C,MX17*%
X91833200Y-326876400D03*
G36*
G01*
X83192198Y-326076736D02*
X83192198Y-326076736D01*
G75*
G02*
X84132864Y-326735398I141002J-799664D01*
G01*
X84306512Y-327720206D01*
G75*
G02*
X83647850Y-328660872I-799664J-141002D01*
G01*
X83647850Y-328660872D01*
G75*
G02*
X82707184Y-328002210I-141002J799664D01*
G01*
X82533536Y-327017402D01*
G75*
G02*
X83192198Y-326076736I799664J141002D01*
G01*
G37*
D14*
X90373200Y-326796400D03*
D15*
X87833200Y-331876400D03*
D16*
X84023200Y-329336400D03*
D17*
X82753200Y-331876400D03*
X92913200Y-331876400D03*
%TD*%
D13*
%TO.C,MX16*%
X82333600Y-307826400D03*
G36*
G01*
X73692598Y-307026736D02*
X73692598Y-307026736D01*
G75*
G02*
X74633264Y-307685398I141002J-799664D01*
G01*
X74806912Y-308670206D01*
G75*
G02*
X74148250Y-309610872I-799664J-141002D01*
G01*
X74148250Y-309610872D01*
G75*
G02*
X73207584Y-308952210I-141002J799664D01*
G01*
X73033936Y-307967402D01*
G75*
G02*
X73692598Y-307026736I799664J141002D01*
G01*
G37*
D14*
X80873600Y-307746400D03*
D15*
X78333600Y-312826400D03*
D16*
X74523600Y-310286400D03*
D17*
X73253600Y-312826400D03*
X83413600Y-312826400D03*
%TD*%
D13*
%TO.C,MX15*%
X96608400Y-288751000D03*
G36*
G01*
X87967398Y-287951336D02*
X87967398Y-287951336D01*
G75*
G02*
X88908064Y-288609998I141002J-799664D01*
G01*
X89081712Y-289594806D01*
G75*
G02*
X88423050Y-290535472I-799664J-141002D01*
G01*
X88423050Y-290535472D01*
G75*
G02*
X87482384Y-289876810I-141002J799664D01*
G01*
X87308736Y-288892002D01*
G75*
G02*
X87967398Y-287951336I799664J141002D01*
G01*
G37*
D14*
X95148400Y-288671000D03*
D15*
X92608400Y-293751000D03*
D16*
X88798400Y-291211000D03*
D17*
X87528400Y-293751000D03*
X97688400Y-293751000D03*
%TD*%
D13*
%TO.C,MX14*%
X87159600Y-269675600D03*
G36*
G01*
X78518598Y-268875936D02*
X78518598Y-268875936D01*
G75*
G02*
X79459264Y-269534598I141002J-799664D01*
G01*
X79632912Y-270519406D01*
G75*
G02*
X78974250Y-271460072I-799664J-141002D01*
G01*
X78974250Y-271460072D01*
G75*
G02*
X78033584Y-270801410I-141002J799664D01*
G01*
X77859936Y-269816602D01*
G75*
G02*
X78518598Y-268875936I799664J141002D01*
G01*
G37*
D14*
X85699600Y-269595600D03*
D15*
X83159600Y-274675600D03*
D16*
X79349600Y-272135600D03*
D17*
X78079600Y-274675600D03*
X88239600Y-274675600D03*
%TD*%
D13*
%TO.C,MX11*%
X72783200Y-326876400D03*
G36*
G01*
X64142198Y-326076736D02*
X64142198Y-326076736D01*
G75*
G02*
X65082864Y-326735398I141002J-799664D01*
G01*
X65256512Y-327720206D01*
G75*
G02*
X64597850Y-328660872I-799664J-141002D01*
G01*
X64597850Y-328660872D01*
G75*
G02*
X63657184Y-328002210I-141002J799664D01*
G01*
X63483536Y-327017402D01*
G75*
G02*
X64142198Y-326076736I799664J141002D01*
G01*
G37*
D14*
X71323200Y-326796400D03*
D15*
X68783200Y-331876400D03*
D16*
X64973200Y-329336400D03*
D17*
X63703200Y-331876400D03*
X73863200Y-331876400D03*
%TD*%
D13*
%TO.C,MX10*%
X63262400Y-307797200D03*
G36*
G01*
X54621398Y-306997536D02*
X54621398Y-306997536D01*
G75*
G02*
X55562064Y-307656198I141002J-799664D01*
G01*
X55735712Y-308641006D01*
G75*
G02*
X55077050Y-309581672I-799664J-141002D01*
G01*
X55077050Y-309581672D01*
G75*
G02*
X54136384Y-308923010I-141002J799664D01*
G01*
X53962736Y-307938202D01*
G75*
G02*
X54621398Y-306997536I799664J141002D01*
G01*
G37*
D14*
X61802400Y-307717200D03*
D15*
X59262400Y-312797200D03*
D16*
X55452400Y-310257200D03*
D17*
X54182400Y-312797200D03*
X64342400Y-312797200D03*
%TD*%
D13*
%TO.C,MX9*%
X77537200Y-288747200D03*
G36*
G01*
X68896198Y-287947536D02*
X68896198Y-287947536D01*
G75*
G02*
X69836864Y-288606198I141002J-799664D01*
G01*
X70010512Y-289591006D01*
G75*
G02*
X69351850Y-290531672I-799664J-141002D01*
G01*
X69351850Y-290531672D01*
G75*
G02*
X68411184Y-289873010I-141002J799664D01*
G01*
X68237536Y-288888202D01*
G75*
G02*
X68896198Y-287947536I799664J141002D01*
G01*
G37*
D14*
X76077200Y-288667200D03*
D15*
X73537200Y-293747200D03*
D16*
X69727200Y-291207200D03*
D17*
X68457200Y-293747200D03*
X78617200Y-293747200D03*
%TD*%
D13*
%TO.C,MX8*%
X68109600Y-269675600D03*
G36*
G01*
X59468598Y-268875936D02*
X59468598Y-268875936D01*
G75*
G02*
X60409264Y-269534598I141002J-799664D01*
G01*
X60582912Y-270519406D01*
G75*
G02*
X59924250Y-271460072I-799664J-141002D01*
G01*
X59924250Y-271460072D01*
G75*
G02*
X58983584Y-270801410I-141002J799664D01*
G01*
X58809936Y-269816602D01*
G75*
G02*
X59468598Y-268875936I799664J141002D01*
G01*
G37*
D14*
X66649600Y-269595600D03*
D15*
X64109600Y-274675600D03*
D16*
X60299600Y-272135600D03*
D17*
X59029600Y-274675600D03*
X69189600Y-274675600D03*
%TD*%
D13*
%TO.C,MX1*%
X39458400Y-241176800D03*
G36*
G01*
X30817398Y-240377136D02*
X30817398Y-240377136D01*
G75*
G02*
X31758064Y-241035798I141002J-799664D01*
G01*
X31931712Y-242020606D01*
G75*
G02*
X31273050Y-242961272I-799664J-141002D01*
G01*
X31273050Y-242961272D01*
G75*
G02*
X30332384Y-242302610I-141002J799664D01*
G01*
X30158736Y-241317802D01*
G75*
G02*
X30817398Y-240377136I799664J141002D01*
G01*
G37*
D14*
X37998400Y-241096800D03*
D15*
X35458400Y-246176800D03*
D16*
X31648400Y-243636800D03*
D17*
X30378400Y-246176800D03*
X40538400Y-246176800D03*
%TD*%
D24*
%TO.C,J1*%
X322850000Y-257400000D03*
X324100000Y-252400000D03*
X325350000Y-257400000D03*
X326600000Y-252400000D03*
X327850000Y-257400000D03*
X329100000Y-252400000D03*
X330350000Y-257400000D03*
X331600000Y-252400000D03*
X332850000Y-257400000D03*
X334100000Y-252400000D03*
X335350000Y-257400000D03*
X336600000Y-252400000D03*
X337850000Y-257400000D03*
X339100000Y-252400000D03*
X340350000Y-257400000D03*
X341600000Y-252400000D03*
X342850000Y-257400000D03*
X344100000Y-252400000D03*
X345350000Y-257400000D03*
X346600000Y-252400000D03*
X347850000Y-257400000D03*
X349100000Y-252400000D03*
X350350000Y-257400000D03*
X351600000Y-252400000D03*
X352850000Y-257400000D03*
X354100000Y-252400000D03*
X355350000Y-257400000D03*
X356600000Y-252400000D03*
X357850000Y-257400000D03*
X359100000Y-252400000D03*
X360350000Y-257400000D03*
%TD*%
M02*
