%TF.GenerationSoftware,KiCad,Pcbnew,8.0.5*%
%TF.CreationDate,2025-01-12T19:48:16+01:00*%
%TF.ProjectId,A500KB,41353030-4b42-42e6-9b69-6361645f7063,4d*%
%TF.SameCoordinates,Original*%
%TF.FileFunction,Soldermask,Top*%
%TF.FilePolarity,Negative*%
%FSLAX46Y46*%
G04 Gerber Fmt 4.6, Leading zero omitted, Abs format (unit mm)*
G04 Created by KiCad (PCBNEW 8.0.5) date 2025-01-12 19:48:16*
%MOMM*%
%LPD*%
G01*
G04 APERTURE LIST*
G04 Aperture macros list*
%AMRoundRect*
0 Rectangle with rounded corners*
0 $1 Rounding radius*
0 $2 $3 $4 $5 $6 $7 $8 $9 X,Y pos of 4 corners*
0 Add a 4 corners polygon primitive as box body*
4,1,4,$2,$3,$4,$5,$6,$7,$8,$9,$2,$3,0*
0 Add four circle primitives for the rounded corners*
1,1,$1+$1,$2,$3*
1,1,$1+$1,$4,$5*
1,1,$1+$1,$6,$7*
1,1,$1+$1,$8,$9*
0 Add four rect primitives between the rounded corners*
20,1,$1+$1,$2,$3,$4,$5,0*
20,1,$1+$1,$4,$5,$6,$7,0*
20,1,$1+$1,$6,$7,$8,$9,0*
20,1,$1+$1,$8,$9,$2,$3,0*%
G04 Aperture macros list end*
%ADD10C,1.850000*%
%ADD11C,4.087800*%
%ADD12C,3.148000*%
%ADD13RoundRect,0.271739X-0.478261X0.353261X-0.478261X-0.353261X0.478261X-0.353261X0.478261X0.353261X0*%
%ADD14RoundRect,0.175000X0.612500X0.175000X-0.612500X0.175000X-0.612500X-0.175000X0.612500X-0.175000X0*%
%ADD15RoundRect,0.270833X0.479167X-0.379167X0.479167X0.379167X-0.479167X0.379167X-0.479167X-0.379167X0*%
%ADD16RoundRect,0.270833X-0.379167X-0.479167X0.379167X-0.479167X0.379167X0.479167X-0.379167X0.479167X0*%
%ADD17RoundRect,0.271277X0.366223X0.503723X-0.366223X0.503723X-0.366223X-0.503723X0.366223X-0.503723X0*%
%ADD18RoundRect,0.271277X-0.503723X0.366223X-0.503723X-0.366223X0.503723X-0.366223X0.503723X0.366223X0*%
%ADD19RoundRect,0.050000X0.850000X-0.850000X0.850000X0.850000X-0.850000X0.850000X-0.850000X-0.850000X0*%
%ADD20O,1.800000X1.800000*%
%ADD21RoundRect,0.270833X0.379167X0.479167X-0.379167X0.479167X-0.379167X-0.479167X0.379167X-0.479167X0*%
%ADD22RoundRect,0.050000X-0.750000X-0.275000X0.750000X-0.275000X0.750000X0.275000X-0.750000X0.275000X0*%
%ADD23RoundRect,0.050000X0.275000X-0.750000X0.275000X0.750000X-0.275000X0.750000X-0.275000X-0.750000X0*%
%ADD24RoundRect,0.050000X0.850000X1.200000X-0.850000X1.200000X-0.850000X-1.200000X0.850000X-1.200000X0*%
%ADD25RoundRect,0.050000X0.400000X-1.375000X0.400000X1.375000X-0.400000X1.375000X-0.400000X-1.375000X0*%
%ADD26C,3.300000*%
%ADD27RoundRect,0.271277X-0.366223X-0.503723X0.366223X-0.503723X0.366223X0.503723X-0.366223X0.503723X0*%
%ADD28C,1.700000*%
%ADD29C,2.600000*%
%ADD30RoundRect,0.250000X-0.400000X0.250000X-0.400000X-0.250000X0.400000X-0.250000X0.400000X0.250000X0*%
%ADD31C,4.400000*%
%ADD32RoundRect,0.050000X-0.400000X1.375000X-0.400000X-1.375000X0.400000X-1.375000X0.400000X1.375000X0*%
%ADD33RoundRect,0.100000X0.687500X0.100000X-0.687500X0.100000X-0.687500X-0.100000X0.687500X-0.100000X0*%
%ADD34RoundRect,0.100000X0.100000X0.687500X-0.100000X0.687500X-0.100000X-0.687500X0.100000X-0.687500X0*%
%ADD35RoundRect,0.050000X2.500000X2.500000X-2.500000X2.500000X-2.500000X-2.500000X2.500000X-2.500000X0*%
%ADD36RoundRect,0.270833X-0.479167X0.379167X-0.479167X-0.379167X0.479167X-0.379167X0.479167X0.379167X0*%
%ADD37RoundRect,0.271277X0.503723X-0.366223X0.503723X0.366223X-0.503723X0.366223X-0.503723X-0.366223X0*%
%ADD38RoundRect,0.050000X0.200000X0.675000X-0.200000X0.675000X-0.200000X-0.675000X0.200000X-0.675000X0*%
%ADD39O,1.300000X2.000000*%
%ADD40RoundRect,0.050000X0.600000X0.950000X-0.600000X0.950000X-0.600000X-0.950000X0.600000X-0.950000X0*%
%ADD41C,1.550000*%
%ADD42RoundRect,0.050000X0.750000X0.950000X-0.750000X0.950000X-0.750000X-0.950000X0.750000X-0.950000X0*%
%ADD43RoundRect,0.050000X-1.375000X-0.400000X1.375000X-0.400000X1.375000X0.400000X-1.375000X0.400000X0*%
%ADD44RoundRect,0.050000X1.000000X-0.550000X1.000000X0.550000X-1.000000X0.550000X-1.000000X-0.550000X0*%
%ADD45RoundRect,0.050000X-1.000000X0.550000X-1.000000X-0.550000X1.000000X-0.550000X1.000000X0.550000X0*%
%ADD46RoundRect,0.265625X1.446875X0.584375X-1.446875X0.584375X-1.446875X-0.584375X1.446875X-0.584375X0*%
%ADD47C,3.000000*%
%ADD48C,5.100000*%
%ADD49RoundRect,0.050000X0.550000X1.000000X-0.550000X1.000000X-0.550000X-1.000000X0.550000X-1.000000X0*%
%ADD50RoundRect,0.050000X-0.550000X-1.000000X0.550000X-1.000000X0.550000X1.000000X-0.550000X1.000000X0*%
%ADD51RoundRect,0.264706X-0.635294X-0.760294X0.635294X-0.760294X0.635294X0.760294X-0.635294X0.760294X0*%
%ADD52O,1.800000X2.050000*%
%ADD53RoundRect,0.050000X-0.600000X-0.600000X0.600000X-0.600000X0.600000X0.600000X-0.600000X0.600000X0*%
%ADD54C,1.300000*%
G04 APERTURE END LIST*
D10*
%TO.C,MX1*%
X30378400Y-246227600D03*
D11*
X35458400Y-246227600D03*
D10*
X40538400Y-246227600D03*
%TD*%
%TO.C,MX2*%
X35153600Y-274675600D03*
D11*
X40233600Y-274675600D03*
D10*
X45313600Y-274675600D03*
%TD*%
%TO.C,MX4*%
X32744800Y-312797200D03*
D11*
X37824800Y-312797200D03*
D10*
X42904800Y-312797200D03*
%TD*%
%TO.C,MX5*%
X37490400Y-331876400D03*
D11*
X42570400Y-331876400D03*
D10*
X47650400Y-331876400D03*
%TD*%
%TO.C,MX6*%
X47011200Y-350998800D03*
D11*
X52091200Y-350998800D03*
D10*
X57171200Y-350998800D03*
%TD*%
%TO.C,MX8*%
X59029600Y-274675600D03*
D11*
X64109600Y-274675600D03*
D10*
X69189600Y-274675600D03*
%TD*%
%TO.C,MX10*%
X54182400Y-312797200D03*
D11*
X59262400Y-312797200D03*
D10*
X64342400Y-312797200D03*
%TD*%
%TO.C,MX11*%
X63703200Y-331876400D03*
D11*
X68783200Y-331876400D03*
D10*
X73863200Y-331876400D03*
%TD*%
%TO.C,MX12*%
X70815200Y-350977200D03*
D11*
X75895200Y-350977200D03*
D10*
X80975200Y-350977200D03*
%TD*%
%TO.C,MX13*%
X85191600Y-246227600D03*
D11*
X90271600Y-246227600D03*
D10*
X95351600Y-246227600D03*
%TD*%
%TO.C,MX14*%
X78079600Y-274675600D03*
D11*
X83159600Y-274675600D03*
D10*
X88239600Y-274675600D03*
%TD*%
%TO.C,MX16*%
X73253600Y-312826400D03*
D11*
X78333600Y-312826400D03*
D10*
X83413600Y-312826400D03*
%TD*%
%TO.C,MX17*%
X82753200Y-331876400D03*
D11*
X87833200Y-331876400D03*
D10*
X92913200Y-331876400D03*
%TD*%
%TO.C,MX18*%
X109016800Y-246227600D03*
D11*
X114096800Y-246227600D03*
D10*
X119176800Y-246227600D03*
%TD*%
%TO.C,MX19*%
X97129600Y-274675600D03*
D11*
X102209600Y-274675600D03*
D10*
X107289600Y-274675600D03*
%TD*%
%TO.C,MX20*%
X106578400Y-293751000D03*
D11*
X111658400Y-293751000D03*
D10*
X116738400Y-293751000D03*
%TD*%
%TO.C,MX21*%
X92303600Y-312826400D03*
D11*
X97383600Y-312826400D03*
D10*
X102463600Y-312826400D03*
%TD*%
%TO.C,MX22*%
X101803200Y-331876400D03*
D11*
X106883200Y-331876400D03*
D10*
X111963200Y-331876400D03*
%TD*%
%TO.C,MX23*%
X132842000Y-246227600D03*
D11*
X137922000Y-246227600D03*
D10*
X143002000Y-246227600D03*
%TD*%
%TO.C,MX24*%
X116179600Y-274675600D03*
D11*
X121259600Y-274675600D03*
D10*
X126339600Y-274675600D03*
%TD*%
%TO.C,MX25*%
X125628400Y-293776400D03*
D11*
X130708400Y-293776400D03*
D10*
X135788400Y-293776400D03*
%TD*%
%TO.C,MX26*%
X111374800Y-312848000D03*
D11*
X116454800Y-312848000D03*
D10*
X121534800Y-312848000D03*
%TD*%
%TO.C,MX27*%
X120853200Y-331876400D03*
D11*
X125933200Y-331876400D03*
D10*
X131013200Y-331876400D03*
%TD*%
%TO.C,MX28*%
X156667200Y-246227600D03*
D11*
X161747200Y-246227600D03*
D10*
X166827200Y-246227600D03*
%TD*%
%TO.C,MX30*%
X144678400Y-293776400D03*
D11*
X149758400Y-293776400D03*
D10*
X154838400Y-293776400D03*
%TD*%
%TO.C,MX32*%
X139903200Y-331876400D03*
D11*
X144983200Y-331876400D03*
D10*
X150063200Y-331876400D03*
%TD*%
%TO.C,MX34*%
X189941200Y-246227600D03*
D11*
X195021200Y-246227600D03*
D10*
X200101200Y-246227600D03*
%TD*%
%TO.C,MX35*%
X154330400Y-274726400D03*
D11*
X159410400Y-274726400D03*
D10*
X164490400Y-274726400D03*
%TD*%
%TO.C,MX37*%
X149483200Y-312848000D03*
D11*
X154563200Y-312848000D03*
D10*
X159643200Y-312848000D03*
%TD*%
%TO.C,MX38*%
X159004000Y-331876400D03*
D11*
X164084000Y-331876400D03*
D10*
X169164000Y-331876400D03*
%TD*%
%TO.C,MX39*%
X213766400Y-246227600D03*
D11*
X218846400Y-246227600D03*
D10*
X223926400Y-246227600D03*
%TD*%
%TO.C,MX40*%
X173380400Y-274726400D03*
D11*
X178460400Y-274726400D03*
D10*
X183540400Y-274726400D03*
%TD*%
%TO.C,MX41*%
X182880000Y-293776400D03*
D11*
X187960000Y-293776400D03*
D10*
X193040000Y-293776400D03*
%TD*%
%TO.C,MX42*%
X168554400Y-312826400D03*
D11*
X173634400Y-312826400D03*
D10*
X178714400Y-312826400D03*
%TD*%
%TO.C,MX43*%
X178032800Y-331876400D03*
D11*
X183112800Y-331876400D03*
D10*
X188192800Y-331876400D03*
%TD*%
%TO.C,MX45*%
X192430400Y-274726400D03*
D11*
X197510400Y-274726400D03*
D10*
X202590400Y-274726400D03*
%TD*%
%TO.C,MX46*%
X201930000Y-293776400D03*
D11*
X207010000Y-293776400D03*
D10*
X212090000Y-293776400D03*
%TD*%
%TO.C,MX47*%
X187604400Y-312826400D03*
D11*
X192684400Y-312826400D03*
D10*
X197764400Y-312826400D03*
%TD*%
%TO.C,MX49*%
X261438000Y-246249200D03*
D11*
X266518000Y-246249200D03*
D10*
X271598000Y-246249200D03*
%TD*%
%TO.C,MX50*%
X211531200Y-274726400D03*
D11*
X216611200Y-274726400D03*
D10*
X221691200Y-274726400D03*
%TD*%
%TO.C,MX51*%
X221030800Y-293776400D03*
D11*
X226110800Y-293776400D03*
D10*
X231190800Y-293776400D03*
%TD*%
%TO.C,MX52*%
X206705200Y-312826400D03*
D11*
X211785200Y-312826400D03*
D10*
X216865200Y-312826400D03*
%TD*%
%TO.C,MX53*%
X216103200Y-331876400D03*
D11*
X221183200Y-331876400D03*
D10*
X226263200Y-331876400D03*
%TD*%
%TO.C,MX54*%
X285242000Y-246227600D03*
D11*
X290322000Y-246227600D03*
D10*
X295402000Y-246227600D03*
%TD*%
%TO.C,MX55*%
X230581200Y-274726400D03*
D11*
X235661200Y-274726400D03*
D10*
X240741200Y-274726400D03*
%TD*%
%TO.C,MX56*%
X240080800Y-293776400D03*
D11*
X245160800Y-293776400D03*
D10*
X250240800Y-293776400D03*
%TD*%
%TO.C,MX57*%
X225806000Y-312826400D03*
D11*
X230886000Y-312826400D03*
D10*
X235966000Y-312826400D03*
%TD*%
%TO.C,MX58*%
X235153200Y-331876400D03*
D11*
X240233200Y-331876400D03*
D10*
X245313200Y-331876400D03*
%TD*%
%TO.C,MX59*%
X266221600Y-350948000D03*
D11*
X271301600Y-350948000D03*
D10*
X276381600Y-350948000D03*
%TD*%
%TO.C,MX60*%
X249631200Y-274726400D03*
D11*
X254711200Y-274726400D03*
D10*
X259791200Y-274726400D03*
%TD*%
%TO.C,MX61*%
X259130800Y-293776400D03*
D11*
X264210800Y-293776400D03*
D10*
X269290800Y-293776400D03*
%TD*%
%TO.C,MX62*%
X244856000Y-312826400D03*
D11*
X249936000Y-312826400D03*
D10*
X255016000Y-312826400D03*
%TD*%
%TO.C,MX63*%
X254203200Y-331876400D03*
D11*
X259283200Y-331876400D03*
D10*
X264363200Y-331876400D03*
%TD*%
%TO.C,MX64*%
X290097600Y-350948000D03*
D11*
X295177600Y-350948000D03*
D10*
X300257600Y-350948000D03*
%TD*%
%TO.C,MX65*%
X268681200Y-274726400D03*
D11*
X273761200Y-274726400D03*
D10*
X278841200Y-274726400D03*
%TD*%
%TO.C,MX67*%
X263906000Y-312826400D03*
D11*
X268986000Y-312826400D03*
D10*
X274066000Y-312826400D03*
%TD*%
D12*
%TO.C,MX68*%
X283089350Y-324891400D03*
D11*
X283089350Y-340131400D03*
D10*
X289915600Y-331876400D03*
D11*
X294995600Y-331876400D03*
D10*
X300075600Y-331876400D03*
D12*
X306901850Y-324891400D03*
D11*
X306901850Y-340131400D03*
%TD*%
D10*
%TO.C,MX69*%
X287731200Y-274726400D03*
D11*
X292811200Y-274726400D03*
D10*
X297891200Y-274726400D03*
%TD*%
%TO.C,MX70*%
X282956000Y-312826400D03*
D11*
X288036000Y-312826400D03*
D10*
X293116000Y-312826400D03*
%TD*%
D12*
%TO.C,MX71*%
X302467400Y-291359600D03*
X302467400Y-315235600D03*
D10*
X304372400Y-303297600D03*
D11*
X309452400Y-303297600D03*
D10*
X314532400Y-303297600D03*
D11*
X317707400Y-291359600D03*
X317707400Y-315235600D03*
%TD*%
D10*
%TO.C,MX72*%
X306781200Y-274726400D03*
D11*
X311861200Y-274726400D03*
D10*
X316941200Y-274726400D03*
%TD*%
%TO.C,MX73*%
X340034000Y-274726400D03*
D11*
X345114000Y-274726400D03*
D10*
X350194000Y-274726400D03*
%TD*%
%TO.C,MX74*%
X335076800Y-331876400D03*
D11*
X340156800Y-331876400D03*
D10*
X345236800Y-331876400D03*
%TD*%
%TO.C,MX75*%
X354126800Y-312826400D03*
D11*
X359206800Y-312826400D03*
D10*
X364286800Y-312826400D03*
%TD*%
%TO.C,MX76*%
X354156400Y-331876400D03*
D11*
X359236400Y-331876400D03*
D10*
X364316400Y-331876400D03*
%TD*%
%TO.C,MX77*%
X368634400Y-274726400D03*
D11*
X373714400Y-274726400D03*
D10*
X378794400Y-274726400D03*
%TD*%
%TO.C,MX78*%
X373176800Y-331876400D03*
D11*
X378256800Y-331876400D03*
D10*
X383336800Y-331876400D03*
%TD*%
%TO.C,MX79*%
X401624800Y-274777200D03*
D11*
X406704800Y-274777200D03*
D10*
X411784800Y-274777200D03*
%TD*%
%TO.C,MX80*%
X401624800Y-293827200D03*
D11*
X406704800Y-293827200D03*
D10*
X411784800Y-293827200D03*
%TD*%
%TO.C,MX81*%
X401624800Y-312877200D03*
D11*
X406704800Y-312877200D03*
D10*
X411784800Y-312877200D03*
%TD*%
%TO.C,MX82*%
X401654400Y-331898000D03*
D11*
X406734400Y-331898000D03*
D10*
X411814400Y-331898000D03*
%TD*%
D12*
%TO.C,MX83*%
X428180500Y-357936800D03*
D11*
X428180500Y-342696800D03*
D10*
X421354250Y-350951800D03*
D11*
X416274250Y-350951800D03*
D10*
X411194250Y-350951800D03*
D12*
X404368000Y-357936800D03*
D11*
X404368000Y-342696800D03*
%TD*%
D10*
%TO.C,MX85*%
X420674800Y-293827200D03*
D11*
X425754800Y-293827200D03*
D10*
X430834800Y-293827200D03*
%TD*%
%TO.C,MX86*%
X420674800Y-312877200D03*
D11*
X425754800Y-312877200D03*
D10*
X430834800Y-312877200D03*
%TD*%
%TO.C,MX87*%
X420704400Y-331898000D03*
D11*
X425784400Y-331898000D03*
D10*
X430864400Y-331898000D03*
%TD*%
%TO.C,MX88*%
X439826400Y-274828000D03*
D11*
X444906400Y-274828000D03*
D10*
X449986400Y-274828000D03*
%TD*%
%TO.C,MX89*%
X439724800Y-293827200D03*
D11*
X444804800Y-293827200D03*
D10*
X449884800Y-293827200D03*
%TD*%
%TO.C,MX90*%
X439775600Y-312877200D03*
D11*
X444855600Y-312877200D03*
D10*
X449935600Y-312877200D03*
%TD*%
%TO.C,MX91*%
X439775600Y-331876400D03*
D11*
X444855600Y-331876400D03*
D10*
X449935600Y-331876400D03*
%TD*%
%TO.C,MX92*%
X439754400Y-350948000D03*
D11*
X444834400Y-350948000D03*
D10*
X449914400Y-350948000D03*
%TD*%
%TO.C,MX93*%
X458927200Y-274828000D03*
D11*
X464007200Y-274828000D03*
D10*
X469087200Y-274828000D03*
%TD*%
%TO.C,MX94*%
X458927200Y-293776400D03*
D11*
X464007200Y-293776400D03*
D10*
X469087200Y-293776400D03*
%TD*%
%TO.C,MX95*%
X458927200Y-312826400D03*
D11*
X464007200Y-312826400D03*
D10*
X469087200Y-312826400D03*
%TD*%
D12*
%TO.C,MX96*%
X470966800Y-353364800D03*
X470966800Y-329488800D03*
D10*
X469061800Y-341426800D03*
D11*
X463981800Y-341426800D03*
D10*
X458901800Y-341426800D03*
D11*
X455726800Y-353364800D03*
X455726800Y-329488800D03*
%TD*%
D10*
%TO.C,MX9*%
X68457200Y-293747200D03*
D11*
X73537200Y-293747200D03*
D10*
X78617200Y-293747200D03*
%TD*%
%TO.C,MX15*%
X87528400Y-293751000D03*
D11*
X92608400Y-293751000D03*
D10*
X97688400Y-293751000D03*
%TD*%
%TO.C,MX7*%
X61417200Y-246227600D03*
D11*
X66497200Y-246227600D03*
D10*
X71577200Y-246227600D03*
%TD*%
D12*
%TO.C,MX3*%
X33070800Y-286762200D03*
D11*
X33070800Y-302002200D03*
D10*
X39897050Y-293747200D03*
D11*
X44977050Y-293747200D03*
D10*
X50057050Y-293747200D03*
D12*
X56883300Y-286762200D03*
D11*
X56883300Y-302002200D03*
%TD*%
D10*
%TO.C,MX36*%
X163830000Y-293776400D03*
D11*
X168910000Y-293776400D03*
D10*
X173990000Y-293776400D03*
%TD*%
%TO.C,MX31*%
X130454400Y-312848000D03*
D11*
X135534400Y-312848000D03*
D10*
X140614400Y-312848000D03*
%TD*%
%TO.C,MX29*%
X135259200Y-274697200D03*
D11*
X140339200Y-274697200D03*
D10*
X145419200Y-274697200D03*
%TD*%
%TO.C,MX48*%
X197053200Y-331876400D03*
D11*
X202133200Y-331876400D03*
D10*
X207213200Y-331876400D03*
%TD*%
%TO.C,MX66*%
X278180800Y-293776400D03*
D11*
X283260800Y-293776400D03*
D10*
X288340800Y-293776400D03*
%TD*%
%TO.C,MX84*%
X420725600Y-274828000D03*
D11*
X425805600Y-274828000D03*
D10*
X430885600Y-274828000D03*
%TD*%
%TO.C,MX44*%
X237591600Y-246227600D03*
D11*
X242671600Y-246227600D03*
D10*
X247751600Y-246227600D03*
%TD*%
D13*
%TO.C,D2*%
X68783200Y-306750000D03*
X68783200Y-308800000D03*
%TD*%
D12*
%TO.C,MX33*%
X240284000Y-357936800D03*
D11*
X240284000Y-342696800D03*
D12*
X230709000Y-357951800D03*
D11*
X230709000Y-342751800D03*
D10*
X178689000Y-350951800D03*
D11*
X173609000Y-350951800D03*
D10*
X168529000Y-350951800D03*
D12*
X116534000Y-357936800D03*
D11*
X116534000Y-342746800D03*
D12*
X106934000Y-357936800D03*
D11*
X106934000Y-342696800D03*
%TD*%
D14*
%TO.C,Q1*%
X373187500Y-253050000D03*
X373187500Y-251150000D03*
X371312500Y-252100000D03*
%TD*%
D15*
%TO.C,R1*%
X376800000Y-253075000D03*
X376800000Y-251075000D03*
%TD*%
D16*
%TO.C,R2*%
X366250000Y-252100000D03*
X368250000Y-252100000D03*
%TD*%
D17*
%TO.C,C5*%
X333537500Y-233050000D03*
X331462500Y-233050000D03*
%TD*%
D18*
%TO.C,C6*%
X372821200Y-227511700D03*
X372821200Y-229586700D03*
%TD*%
D19*
%TO.C,J3*%
X368200000Y-236750000D03*
D20*
X368200000Y-234210000D03*
X370740000Y-236750000D03*
X370740000Y-234210000D03*
X373280000Y-236750000D03*
X373280000Y-234210000D03*
%TD*%
D15*
%TO.C,R4*%
X321050000Y-235925000D03*
X321050000Y-233925000D03*
%TD*%
D21*
%TO.C,R5*%
X372050000Y-240900000D03*
X370050000Y-240900000D03*
%TD*%
D22*
%TO.C,U2*%
X337048400Y-228704200D03*
X337048400Y-229504200D03*
X337048400Y-230304200D03*
X337048400Y-231104200D03*
X337048400Y-231904200D03*
X337048400Y-232704200D03*
X337048400Y-233504200D03*
X337048400Y-234304200D03*
X337048400Y-235104200D03*
X337048400Y-235904200D03*
X337048400Y-236704200D03*
X337048400Y-237504200D03*
X337048400Y-238304200D03*
X337048400Y-239104200D03*
X337048400Y-239904200D03*
X337048400Y-240704200D03*
D23*
X338748400Y-242404200D03*
X339548400Y-242404200D03*
X340348400Y-242404200D03*
X341148400Y-242404200D03*
X341948400Y-242404200D03*
X342748400Y-242404200D03*
X343548400Y-242404200D03*
X344348400Y-242404200D03*
X345148400Y-242404200D03*
X345948400Y-242404200D03*
X346748400Y-242404200D03*
X347548400Y-242404200D03*
X348348400Y-242404200D03*
X349148400Y-242404200D03*
X349948400Y-242404200D03*
X350748400Y-242404200D03*
D22*
X352448400Y-240704200D03*
X352448400Y-239904200D03*
X352448400Y-239104200D03*
X352448400Y-238304200D03*
X352448400Y-237504200D03*
X352448400Y-236704200D03*
X352448400Y-235904200D03*
X352448400Y-235104200D03*
X352448400Y-234304200D03*
X352448400Y-233504200D03*
X352448400Y-232704200D03*
X352448400Y-231904200D03*
X352448400Y-231104200D03*
X352448400Y-230304200D03*
X352448400Y-229504200D03*
X352448400Y-228704200D03*
D23*
X350748400Y-227004200D03*
X349948400Y-227004200D03*
X349148400Y-227004200D03*
X348348400Y-227004200D03*
X347548400Y-227004200D03*
X346748400Y-227004200D03*
X345948400Y-227004200D03*
X345148400Y-227004200D03*
X344348400Y-227004200D03*
X343548400Y-227004200D03*
X342748400Y-227004200D03*
X341948400Y-227004200D03*
X341148400Y-227004200D03*
X340348400Y-227004200D03*
X339548400Y-227004200D03*
X338748400Y-227004200D03*
%TD*%
D24*
%TO.C,Y2*%
X345823300Y-247321800D03*
X342123300Y-247321800D03*
%TD*%
D19*
%TO.C,J4*%
X396600000Y-236750000D03*
D20*
X399140000Y-236750000D03*
X401680000Y-236750000D03*
X404220000Y-236750000D03*
X406760000Y-236750000D03*
X409300000Y-236750000D03*
X411840000Y-236750000D03*
X414380000Y-236750000D03*
%TD*%
D25*
%TO.C,D1*%
X62673000Y-304383000D03*
X64073000Y-304383000D03*
X64073000Y-299883000D03*
X62673000Y-299883000D03*
%TD*%
D19*
%TO.C,J5*%
X383860000Y-236750000D03*
D20*
X386400000Y-236750000D03*
%TD*%
D26*
%TO.C,H5*%
X27850000Y-284200000D03*
%TD*%
%TO.C,H6*%
X27850000Y-262200000D03*
%TD*%
%TO.C,H7*%
X27800000Y-322400000D03*
%TD*%
%TO.C,H8*%
X314500000Y-358000000D03*
%TD*%
%TO.C,H9*%
X383700000Y-358000000D03*
%TD*%
%TO.C,H10*%
X471200000Y-284300000D03*
%TD*%
%TO.C,H11*%
X471200000Y-303200000D03*
%TD*%
D16*
%TO.C,R6*%
X422000000Y-227250000D03*
X424000000Y-227250000D03*
%TD*%
D18*
%TO.C,C14*%
X391500000Y-226050000D03*
X391500000Y-228125000D03*
%TD*%
D27*
%TO.C,C3*%
X347884000Y-247359900D03*
X349959000Y-247359900D03*
%TD*%
%TO.C,C4*%
X338008700Y-247296400D03*
X340083700Y-247296400D03*
%TD*%
%TO.C,C1*%
X332898000Y-247309100D03*
X334973000Y-247309100D03*
%TD*%
D28*
%TO.C,J1*%
X322850000Y-257400000D03*
X324100000Y-252400000D03*
X325350000Y-257400000D03*
X326600000Y-252400000D03*
X327850000Y-257400000D03*
X329100000Y-252400000D03*
X330350000Y-257400000D03*
X331600000Y-252400000D03*
X332850000Y-257400000D03*
X334100000Y-252400000D03*
X335350000Y-257400000D03*
X336600000Y-252400000D03*
X337850000Y-257400000D03*
X339100000Y-252400000D03*
X340350000Y-257400000D03*
X341600000Y-252400000D03*
X342850000Y-257400000D03*
X344100000Y-252400000D03*
X345350000Y-257400000D03*
X346600000Y-252400000D03*
X347850000Y-257400000D03*
X349100000Y-252400000D03*
X350350000Y-257400000D03*
X351600000Y-252400000D03*
X352850000Y-257400000D03*
X354100000Y-252400000D03*
X355350000Y-257400000D03*
X356600000Y-252400000D03*
X357850000Y-257400000D03*
X359100000Y-252400000D03*
X360350000Y-257400000D03*
%TD*%
D26*
%TO.C,H12*%
X471200000Y-322350000D03*
%TD*%
%TO.C,H13*%
X32500000Y-358000000D03*
%TD*%
%TO.C,H14*%
X463950000Y-358000000D03*
%TD*%
D29*
%TO.C,H15*%
X307200000Y-258950000D03*
%TD*%
%TO.C,H17*%
X468700000Y-258950000D03*
%TD*%
D30*
%TO.C,D8*%
X77600000Y-322950000D03*
X77600000Y-326250000D03*
%TD*%
%TO.C,D9*%
X96600000Y-323000000D03*
X96600000Y-326300000D03*
%TD*%
%TO.C,D10*%
X115700000Y-323000000D03*
X115700000Y-326300000D03*
%TD*%
%TO.C,D11*%
X134800000Y-322950000D03*
X134800000Y-326250000D03*
%TD*%
%TO.C,D12*%
X153800000Y-322950000D03*
X153800000Y-326250000D03*
%TD*%
%TO.C,D13*%
X172550000Y-334600000D03*
X172550000Y-337900000D03*
%TD*%
%TO.C,D14*%
X172900000Y-322900000D03*
X172900000Y-326200000D03*
%TD*%
%TO.C,D15*%
X191900000Y-322850000D03*
X191900000Y-326150000D03*
%TD*%
%TO.C,D16*%
X211000000Y-322850000D03*
X211000000Y-326150000D03*
%TD*%
%TO.C,D17*%
X230000000Y-322850000D03*
X230000000Y-326150000D03*
%TD*%
%TO.C,D18*%
X249100000Y-322850000D03*
X249100000Y-326150000D03*
%TD*%
%TO.C,D19*%
X268100000Y-322850000D03*
X268100000Y-326150000D03*
%TD*%
D29*
%TO.C,H16*%
X307200000Y-231950000D03*
%TD*%
D30*
%TO.C,D20*%
X387800000Y-322900000D03*
X387800000Y-326200000D03*
%TD*%
D29*
%TO.C,H18*%
X468700000Y-231950000D03*
%TD*%
D30*
%TO.C,D21*%
X348600000Y-321850000D03*
X348600000Y-325150000D03*
%TD*%
%TO.C,D22*%
X368300000Y-303550000D03*
X368300000Y-306850000D03*
%TD*%
%TO.C,D24*%
X68800000Y-311250000D03*
X68800000Y-314550000D03*
%TD*%
%TO.C,D25*%
X87100000Y-304050000D03*
X87100000Y-307350000D03*
%TD*%
%TO.C,D26*%
X106200000Y-304050000D03*
X106200000Y-307350000D03*
%TD*%
%TO.C,D27*%
X125300000Y-304050000D03*
X125300000Y-307350000D03*
%TD*%
%TO.C,D28*%
X144300000Y-304050000D03*
X144300000Y-307350000D03*
%TD*%
%TO.C,D29*%
X163400000Y-304050000D03*
X163400000Y-307350000D03*
%TD*%
%TO.C,D30*%
X182400000Y-304050000D03*
X182400000Y-307350000D03*
%TD*%
%TO.C,D31*%
X201500000Y-304050000D03*
X201500000Y-307350000D03*
%TD*%
%TO.C,D32*%
X220600000Y-304050000D03*
X220600000Y-307350000D03*
%TD*%
%TO.C,D33*%
X239700000Y-304050000D03*
X239700000Y-307350000D03*
%TD*%
%TO.C,D34*%
X258800000Y-304050000D03*
X258800000Y-307350000D03*
%TD*%
%TO.C,D35*%
X277800000Y-304050000D03*
X277800000Y-307350000D03*
%TD*%
%TO.C,D36*%
X296800000Y-304150000D03*
X296800000Y-307450000D03*
%TD*%
D21*
%TO.C,R8*%
X424000000Y-234850000D03*
X422000000Y-234850000D03*
%TD*%
%TO.C,R9*%
X424000000Y-232350000D03*
X422000000Y-232350000D03*
%TD*%
D31*
%TO.C,H19*%
X397450000Y-257000000D03*
%TD*%
D30*
%TO.C,D37*%
X63300000Y-284750000D03*
X63300000Y-288050000D03*
%TD*%
%TO.C,D38*%
X82400000Y-284750000D03*
X82400000Y-288050000D03*
%TD*%
%TO.C,D39*%
X101400000Y-284750000D03*
X101400000Y-288050000D03*
%TD*%
%TO.C,D40*%
X120500000Y-284750000D03*
X120500000Y-288050000D03*
%TD*%
%TO.C,D41*%
X139500000Y-284850000D03*
X139500000Y-288150000D03*
%TD*%
%TO.C,D42*%
X158500000Y-284850000D03*
X158500000Y-288150000D03*
%TD*%
%TO.C,D43*%
X177700000Y-284850000D03*
X177700000Y-288150000D03*
%TD*%
%TO.C,D44*%
X196800000Y-284850000D03*
X196800000Y-288150000D03*
%TD*%
%TO.C,D45*%
X215800000Y-284850000D03*
X215800000Y-288150000D03*
%TD*%
%TO.C,D46*%
X234900000Y-284850000D03*
X234900000Y-288150000D03*
%TD*%
%TO.C,D47*%
X254000000Y-284850000D03*
X254000000Y-288150000D03*
%TD*%
%TO.C,D48*%
X273000000Y-284900000D03*
X273000000Y-288200000D03*
%TD*%
%TO.C,D49*%
X292100000Y-284900000D03*
X292100000Y-288200000D03*
%TD*%
%TO.C,D50*%
X322200000Y-298250000D03*
X322200000Y-301550000D03*
%TD*%
D25*
%TO.C,D5*%
X451400000Y-253638000D03*
X452800000Y-253638000D03*
X452800000Y-249138000D03*
X451400000Y-249138000D03*
%TD*%
%TO.C,D6*%
X455400000Y-253625000D03*
X456800000Y-253625000D03*
X456800000Y-249125000D03*
X455400000Y-249125000D03*
%TD*%
%TO.C,D7*%
X459400000Y-253625000D03*
X460800000Y-253625000D03*
X460800000Y-249125000D03*
X459400000Y-249125000D03*
%TD*%
D32*
%TO.C,D52*%
X456800000Y-241179900D03*
X455400000Y-241179900D03*
X455400000Y-245679900D03*
X456800000Y-245679900D03*
%TD*%
%TO.C,D53*%
X460800000Y-241167200D03*
X459400000Y-241167200D03*
X459400000Y-245667200D03*
X460800000Y-245667200D03*
%TD*%
D33*
%TO.C,U1*%
X440625000Y-249650000D03*
X440625000Y-249150000D03*
X440625000Y-248650000D03*
X440625000Y-248150000D03*
X440625000Y-247650000D03*
X440625000Y-247150000D03*
X440625000Y-246650000D03*
X440625000Y-246150000D03*
X440625000Y-245650000D03*
X440625000Y-245150000D03*
X440625000Y-244650000D03*
X440625000Y-244150000D03*
D34*
X439212500Y-242737500D03*
X438712500Y-242737500D03*
X438212500Y-242737500D03*
X437712500Y-242737500D03*
X437212500Y-242737500D03*
X436712500Y-242737500D03*
X436212500Y-242737500D03*
X435712500Y-242737500D03*
X435212500Y-242737500D03*
X434712500Y-242737500D03*
X434212500Y-242737500D03*
X433712500Y-242737500D03*
D33*
X432300000Y-244150000D03*
X432300000Y-244650000D03*
X432300000Y-245150000D03*
X432300000Y-245650000D03*
X432300000Y-246150000D03*
X432300000Y-246650000D03*
X432300000Y-247150000D03*
X432300000Y-247650000D03*
X432300000Y-248150000D03*
X432300000Y-248650000D03*
X432300000Y-249150000D03*
X432300000Y-249650000D03*
D34*
X433712500Y-251062500D03*
X434212500Y-251062500D03*
X434712500Y-251062500D03*
X435212500Y-251062500D03*
X435712500Y-251062500D03*
X436212500Y-251062500D03*
X436712500Y-251062500D03*
X437212500Y-251062500D03*
X437712500Y-251062500D03*
X438212500Y-251062500D03*
X438712500Y-251062500D03*
X439212500Y-251062500D03*
D35*
X436462500Y-246900000D03*
%TD*%
D17*
%TO.C,C10*%
X438475000Y-235650000D03*
X436400000Y-235650000D03*
%TD*%
D27*
%TO.C,C11*%
X439387500Y-255950000D03*
X441462500Y-255950000D03*
%TD*%
D18*
%TO.C,C12*%
X429150000Y-246137500D03*
X429150000Y-248212500D03*
%TD*%
D16*
%TO.C,R7*%
X429025000Y-253700000D03*
X431025000Y-253700000D03*
%TD*%
D26*
%TO.C,H1*%
X463950000Y-251375000D03*
%TD*%
%TO.C,H2*%
X448050000Y-251375000D03*
%TD*%
%TO.C,H4*%
X463950000Y-243400000D03*
%TD*%
D17*
%TO.C,C13*%
X431087500Y-251050000D03*
X429012500Y-251050000D03*
%TD*%
%TO.C,C9*%
X436312500Y-255950000D03*
X434237500Y-255950000D03*
%TD*%
D36*
%TO.C,R10*%
X361696000Y-235474000D03*
X361696000Y-237474000D03*
%TD*%
%TO.C,R11*%
X363982000Y-235465000D03*
X363982000Y-237465000D03*
%TD*%
D30*
%TO.C,D54*%
X54600000Y-265850000D03*
X54600000Y-269150000D03*
%TD*%
%TO.C,D55*%
X72900000Y-265750000D03*
X72900000Y-269050000D03*
%TD*%
%TO.C,D56*%
X92100000Y-265750000D03*
X92100000Y-269050000D03*
%TD*%
%TO.C,D57*%
X111000000Y-265750000D03*
X111000000Y-269050000D03*
%TD*%
%TO.C,D58*%
X130100000Y-265650000D03*
X130100000Y-268950000D03*
%TD*%
%TO.C,D59*%
X149200000Y-265750000D03*
X149200000Y-269050000D03*
%TD*%
%TO.C,D60*%
X168300000Y-265750000D03*
X168300000Y-269050000D03*
%TD*%
%TO.C,D61*%
X187300000Y-265750000D03*
X187300000Y-269050000D03*
%TD*%
%TO.C,D62*%
X206300000Y-265750000D03*
X206300000Y-269050000D03*
%TD*%
%TO.C,D63*%
X225400000Y-265750000D03*
X225400000Y-269050000D03*
%TD*%
%TO.C,D64*%
X244500000Y-265750000D03*
X244500000Y-269050000D03*
%TD*%
%TO.C,D65*%
X263500000Y-265750000D03*
X263500000Y-269050000D03*
%TD*%
%TO.C,D66*%
X282600000Y-265750000D03*
X282600000Y-269050000D03*
%TD*%
%TO.C,D67*%
X301600000Y-265750000D03*
X301600000Y-269050000D03*
%TD*%
%TO.C,D68*%
X320800000Y-265550000D03*
X320800000Y-268850000D03*
%TD*%
D27*
%TO.C,C2*%
X331487500Y-242050000D03*
X333562500Y-242050000D03*
%TD*%
D37*
%TO.C,C7*%
X429150000Y-243362500D03*
X429150000Y-241287500D03*
%TD*%
D17*
%TO.C,C8*%
X333562500Y-229000000D03*
X331487500Y-229000000D03*
%TD*%
D21*
%TO.C,R12*%
X424000000Y-229750000D03*
X422000000Y-229750000D03*
%TD*%
D16*
%TO.C,R13*%
X412122000Y-241554000D03*
X414122000Y-241554000D03*
%TD*%
%TO.C,R14*%
X406298000Y-241554000D03*
X408298000Y-241554000D03*
%TD*%
D15*
%TO.C,R16*%
X376047000Y-229527500D03*
X376047000Y-227527500D03*
%TD*%
%TO.C,R15*%
X379222000Y-229527500D03*
X379222000Y-227527500D03*
%TD*%
D30*
%TO.C,D23*%
X368700000Y-322850000D03*
X368700000Y-326150000D03*
%TD*%
D15*
%TO.C,R3*%
X318700000Y-235925000D03*
X318700000Y-233925000D03*
%TD*%
D38*
%TO.C,J2*%
X321250000Y-226850000D03*
X320600000Y-226850000D03*
X319950000Y-226850000D03*
X319300000Y-226850000D03*
X318650000Y-226850000D03*
D39*
X323450000Y-224150000D03*
D40*
X322850000Y-224150000D03*
D41*
X322450000Y-226850000D03*
D42*
X320950000Y-224150000D03*
X318950000Y-224150000D03*
D41*
X317450000Y-226850000D03*
D40*
X317050000Y-224150000D03*
D39*
X316450000Y-224150000D03*
%TD*%
D26*
%TO.C,H20*%
X126450000Y-357950000D03*
%TD*%
%TO.C,H21*%
X220650000Y-357950000D03*
%TD*%
D19*
%TO.C,J6*%
X403100000Y-249350000D03*
D20*
X405640000Y-249350000D03*
X408180000Y-249350000D03*
X410720000Y-249350000D03*
%TD*%
D29*
%TO.C,H22*%
X445390000Y-257340000D03*
%TD*%
%TO.C,H23*%
X465370000Y-238100000D03*
%TD*%
D26*
%TO.C,H3*%
X448050000Y-243400000D03*
%TD*%
D32*
%TO.C,D51*%
X452800000Y-241187500D03*
X451400000Y-241187500D03*
X451400000Y-245687500D03*
X452800000Y-245687500D03*
%TD*%
D43*
%TO.C,D69*%
X57050000Y-317250000D03*
X57050000Y-318650000D03*
X61550000Y-318650000D03*
X61550000Y-317250000D03*
%TD*%
D44*
%TO.C,D72*%
X96877700Y-258500000D03*
X96877700Y-260200000D03*
X96877700Y-261900000D03*
X101677700Y-261900000D03*
X101677700Y-260200000D03*
X101677700Y-258500000D03*
%TD*%
%TO.C,D73*%
X128664750Y-258500000D03*
X128664750Y-260200000D03*
X128664750Y-261900000D03*
X133464750Y-261900000D03*
X133464750Y-260200000D03*
X133464750Y-258500000D03*
%TD*%
D45*
%TO.C,D83*%
X361600000Y-347700000D03*
X361600000Y-346000000D03*
X361600000Y-344300000D03*
X356800000Y-344300000D03*
X356800000Y-346000000D03*
X356800000Y-347700000D03*
%TD*%
D44*
%TO.C,D71*%
X65090650Y-258500000D03*
X65090650Y-260200000D03*
X65090650Y-261900000D03*
X69890650Y-261900000D03*
X69890650Y-260200000D03*
X69890650Y-258500000D03*
%TD*%
D46*
%TO.C,C15*%
X424175000Y-249650000D03*
X419100000Y-249650000D03*
%TD*%
D44*
%TO.C,D70*%
X33303600Y-258500000D03*
X33303600Y-260200000D03*
X33303600Y-261900000D03*
X38103600Y-261900000D03*
X38103600Y-260200000D03*
X38103600Y-258500000D03*
%TD*%
%TO.C,D81*%
X390100000Y-273026400D03*
X390100000Y-274726400D03*
X390100000Y-276426400D03*
X394900000Y-276426400D03*
X394900000Y-274726400D03*
X394900000Y-273026400D03*
%TD*%
%TO.C,D80*%
X356800000Y-297050000D03*
X356800000Y-298750000D03*
X356800000Y-300450000D03*
X361600000Y-300450000D03*
X361600000Y-298750000D03*
X361600000Y-297050000D03*
%TD*%
%TO.C,D77*%
X255812950Y-258450000D03*
X255812950Y-260150000D03*
X255812950Y-261850000D03*
X260612950Y-261850000D03*
X260612950Y-260150000D03*
X260612950Y-258450000D03*
%TD*%
%TO.C,D75*%
X192238850Y-258500000D03*
X192238850Y-260200000D03*
X192238850Y-261900000D03*
X197038850Y-261900000D03*
X197038850Y-260200000D03*
X197038850Y-258500000D03*
%TD*%
%TO.C,D78*%
X287600000Y-258450000D03*
X287600000Y-260150000D03*
X287600000Y-261850000D03*
X292400000Y-261850000D03*
X292400000Y-260150000D03*
X292400000Y-258450000D03*
%TD*%
%TO.C,D76*%
X224025900Y-258500000D03*
X224025900Y-260200000D03*
X224025900Y-261900000D03*
X228825900Y-261900000D03*
X228825900Y-260200000D03*
X228825900Y-258500000D03*
%TD*%
D46*
%TO.C,C16*%
X424175000Y-242150000D03*
X419100000Y-242150000D03*
%TD*%
D17*
%TO.C,C18*%
X314375000Y-243060000D03*
X312300000Y-243060000D03*
%TD*%
D44*
%TO.C,D79*%
X323600000Y-273026400D03*
X323600000Y-274726400D03*
X323600000Y-276426400D03*
X328400000Y-276426400D03*
X328400000Y-274726400D03*
X328400000Y-273026400D03*
%TD*%
D16*
%TO.C,R17*%
X375100000Y-240900000D03*
X377100000Y-240900000D03*
%TD*%
D47*
%TO.C,H24*%
X437889200Y-228981000D03*
D48*
X437889200Y-228981000D03*
%TD*%
D17*
%TO.C,C17*%
X314375000Y-246070000D03*
X312300000Y-246070000D03*
%TD*%
D49*
%TO.C,D84*%
X324300000Y-334250000D03*
X326000000Y-334250000D03*
X327700000Y-334250000D03*
X327700000Y-329450000D03*
X326000000Y-329450000D03*
X324300000Y-329450000D03*
%TD*%
D44*
%TO.C,D74*%
X160451800Y-258500000D03*
X160451800Y-260200000D03*
X160451800Y-261900000D03*
X165251800Y-261900000D03*
X165251800Y-260200000D03*
X165251800Y-258500000D03*
%TD*%
D50*
%TO.C,D82*%
X394200000Y-329476400D03*
X392500000Y-329476400D03*
X390800000Y-329476400D03*
X390800000Y-334276400D03*
X392500000Y-334276400D03*
X394200000Y-334276400D03*
%TD*%
D17*
%TO.C,C19*%
X314375000Y-240050000D03*
X312300000Y-240050000D03*
%TD*%
D51*
%TO.C,J7*%
X452224000Y-230116500D03*
D52*
X454724000Y-230116500D03*
X457224000Y-230116500D03*
X459724000Y-230116500D03*
%TD*%
D53*
%TO.C,D3*%
X451100000Y-243420000D03*
D54*
X453150000Y-243420000D03*
X458750000Y-243420000D03*
X460800000Y-243420000D03*
%TD*%
D53*
%TO.C,D4*%
X451100000Y-251350000D03*
D54*
X453150000Y-251350000D03*
X458750000Y-251350000D03*
X460800000Y-251350000D03*
%TD*%
M02*
