%TF.GenerationSoftware,KiCad,Pcbnew,8.0.5*%
%TF.CreationDate,2025-03-31T08:28:51+02:00*%
%TF.ProjectId,A500KB,41353030-4b42-42e6-9b69-6361645f7063,5a*%
%TF.SameCoordinates,Original*%
%TF.FileFunction,Legend,Bot*%
%TF.FilePolarity,Positive*%
%FSLAX46Y46*%
G04 Gerber Fmt 4.6, Leading zero omitted, Abs format (unit mm)*
G04 Created by KiCad (PCBNEW 8.0.5) date 2025-03-31 08:28:51*
%MOMM*%
%LPD*%
G01*
G04 APERTURE LIST*
%ADD10C,0.150000*%
G04 APERTURE END LIST*
D10*
X360571427Y-233604819D02*
X360571427Y-232604819D01*
X360571427Y-232604819D02*
X360238094Y-233319104D01*
X360238094Y-233319104D02*
X359904761Y-232604819D01*
X359904761Y-232604819D02*
X359904761Y-233604819D01*
X359428570Y-233604819D02*
X359428570Y-232604819D01*
X358999999Y-233557200D02*
X358857142Y-233604819D01*
X358857142Y-233604819D02*
X358619047Y-233604819D01*
X358619047Y-233604819D02*
X358523809Y-233557200D01*
X358523809Y-233557200D02*
X358476190Y-233509580D01*
X358476190Y-233509580D02*
X358428571Y-233414342D01*
X358428571Y-233414342D02*
X358428571Y-233319104D01*
X358428571Y-233319104D02*
X358476190Y-233223866D01*
X358476190Y-233223866D02*
X358523809Y-233176247D01*
X358523809Y-233176247D02*
X358619047Y-233128628D01*
X358619047Y-233128628D02*
X358809523Y-233081009D01*
X358809523Y-233081009D02*
X358904761Y-233033390D01*
X358904761Y-233033390D02*
X358952380Y-232985771D01*
X358952380Y-232985771D02*
X358999999Y-232890533D01*
X358999999Y-232890533D02*
X358999999Y-232795295D01*
X358999999Y-232795295D02*
X358952380Y-232700057D01*
X358952380Y-232700057D02*
X358904761Y-232652438D01*
X358904761Y-232652438D02*
X358809523Y-232604819D01*
X358809523Y-232604819D02*
X358571428Y-232604819D01*
X358571428Y-232604819D02*
X358428571Y-232652438D01*
X357809523Y-232604819D02*
X357619047Y-232604819D01*
X357619047Y-232604819D02*
X357523809Y-232652438D01*
X357523809Y-232652438D02*
X357428571Y-232747676D01*
X357428571Y-232747676D02*
X357380952Y-232938152D01*
X357380952Y-232938152D02*
X357380952Y-233271485D01*
X357380952Y-233271485D02*
X357428571Y-233461961D01*
X357428571Y-233461961D02*
X357523809Y-233557200D01*
X357523809Y-233557200D02*
X357619047Y-233604819D01*
X357619047Y-233604819D02*
X357809523Y-233604819D01*
X357809523Y-233604819D02*
X357904761Y-233557200D01*
X357904761Y-233557200D02*
X357999999Y-233461961D01*
X357999999Y-233461961D02*
X358047618Y-233271485D01*
X358047618Y-233271485D02*
X358047618Y-232938152D01*
X358047618Y-232938152D02*
X357999999Y-232747676D01*
X357999999Y-232747676D02*
X357904761Y-232652438D01*
X357904761Y-232652438D02*
X357809523Y-232604819D01*
X376804819Y-233221429D02*
X375804819Y-233221429D01*
X376138152Y-233697619D02*
X376804819Y-233697619D01*
X376233390Y-233697619D02*
X376185771Y-233745238D01*
X376185771Y-233745238D02*
X376138152Y-233840476D01*
X376138152Y-233840476D02*
X376138152Y-233983333D01*
X376138152Y-233983333D02*
X376185771Y-234078571D01*
X376185771Y-234078571D02*
X376281009Y-234126190D01*
X376281009Y-234126190D02*
X376804819Y-234126190D01*
X376138152Y-235030952D02*
X376804819Y-235030952D01*
X375757200Y-234792857D02*
X376471485Y-234554762D01*
X376471485Y-234554762D02*
X376471485Y-235173809D01*
X389539619Y-232086571D02*
X388539619Y-232086571D01*
X389539619Y-232657999D02*
X388968190Y-232229428D01*
X388539619Y-232657999D02*
X389111047Y-232086571D01*
X389539619Y-233086571D02*
X388539619Y-233086571D01*
X388539619Y-233086571D02*
X388539619Y-233324666D01*
X388539619Y-233324666D02*
X388587238Y-233467523D01*
X388587238Y-233467523D02*
X388682476Y-233562761D01*
X388682476Y-233562761D02*
X388777714Y-233610380D01*
X388777714Y-233610380D02*
X388968190Y-233657999D01*
X388968190Y-233657999D02*
X389111047Y-233657999D01*
X389111047Y-233657999D02*
X389301523Y-233610380D01*
X389301523Y-233610380D02*
X389396761Y-233562761D01*
X389396761Y-233562761D02*
X389492000Y-233467523D01*
X389492000Y-233467523D02*
X389539619Y-233324666D01*
X389539619Y-233324666D02*
X389539619Y-233086571D01*
X389253904Y-234038952D02*
X389253904Y-234515142D01*
X389539619Y-233943714D02*
X388539619Y-234277047D01*
X388539619Y-234277047D02*
X389539619Y-234610380D01*
X388539619Y-234800857D02*
X388539619Y-235372285D01*
X389539619Y-235086571D02*
X388539619Y-235086571D01*
X404720082Y-232078571D02*
X403820082Y-232078571D01*
X403820082Y-232078571D02*
X403820082Y-232292857D01*
X403820082Y-232292857D02*
X403862939Y-232421428D01*
X403862939Y-232421428D02*
X403948653Y-232507143D01*
X403948653Y-232507143D02*
X404034367Y-232550000D01*
X404034367Y-232550000D02*
X404205796Y-232592857D01*
X404205796Y-232592857D02*
X404334367Y-232592857D01*
X404334367Y-232592857D02*
X404505796Y-232550000D01*
X404505796Y-232550000D02*
X404591510Y-232507143D01*
X404591510Y-232507143D02*
X404677225Y-232421428D01*
X404677225Y-232421428D02*
X404720082Y-232292857D01*
X404720082Y-232292857D02*
X404720082Y-232078571D01*
X404720082Y-233492857D02*
X404291510Y-233192857D01*
X404720082Y-232978571D02*
X403820082Y-232978571D01*
X403820082Y-232978571D02*
X403820082Y-233321428D01*
X403820082Y-233321428D02*
X403862939Y-233407143D01*
X403862939Y-233407143D02*
X403905796Y-233450000D01*
X403905796Y-233450000D02*
X403991510Y-233492857D01*
X403991510Y-233492857D02*
X404120082Y-233492857D01*
X404120082Y-233492857D02*
X404205796Y-233450000D01*
X404205796Y-233450000D02*
X404248653Y-233407143D01*
X404248653Y-233407143D02*
X404291510Y-233321428D01*
X404291510Y-233321428D02*
X404291510Y-232978571D01*
X403820082Y-233750000D02*
X404720082Y-234050000D01*
X404720082Y-234050000D02*
X403820082Y-234350000D01*
X406169032Y-232571429D02*
X406169032Y-232142857D01*
X406169032Y-232142857D02*
X405269032Y-232142857D01*
X405697603Y-232871428D02*
X405697603Y-233171428D01*
X406169032Y-233300000D02*
X406169032Y-232871428D01*
X406169032Y-232871428D02*
X405269032Y-232871428D01*
X405269032Y-232871428D02*
X405269032Y-233300000D01*
X406169032Y-233685714D02*
X405269032Y-233685714D01*
X405269032Y-233685714D02*
X405269032Y-233900000D01*
X405269032Y-233900000D02*
X405311889Y-234028571D01*
X405311889Y-234028571D02*
X405397603Y-234114286D01*
X405397603Y-234114286D02*
X405483317Y-234157143D01*
X405483317Y-234157143D02*
X405654746Y-234200000D01*
X405654746Y-234200000D02*
X405783317Y-234200000D01*
X405783317Y-234200000D02*
X405954746Y-234157143D01*
X405954746Y-234157143D02*
X406040460Y-234114286D01*
X406040460Y-234114286D02*
X406126175Y-234028571D01*
X406126175Y-234028571D02*
X406169032Y-233900000D01*
X406169032Y-233900000D02*
X406169032Y-233685714D01*
X392028819Y-232653180D02*
X391552628Y-232319847D01*
X392028819Y-232081752D02*
X391028819Y-232081752D01*
X391028819Y-232081752D02*
X391028819Y-232462704D01*
X391028819Y-232462704D02*
X391076438Y-232557942D01*
X391076438Y-232557942D02*
X391124057Y-232605561D01*
X391124057Y-232605561D02*
X391219295Y-232653180D01*
X391219295Y-232653180D02*
X391362152Y-232653180D01*
X391362152Y-232653180D02*
X391457390Y-232605561D01*
X391457390Y-232605561D02*
X391505009Y-232557942D01*
X391505009Y-232557942D02*
X391552628Y-232462704D01*
X391552628Y-232462704D02*
X391552628Y-232081752D01*
X391981200Y-233034133D02*
X392028819Y-233176990D01*
X392028819Y-233176990D02*
X392028819Y-233415085D01*
X392028819Y-233415085D02*
X391981200Y-233510323D01*
X391981200Y-233510323D02*
X391933580Y-233557942D01*
X391933580Y-233557942D02*
X391838342Y-233605561D01*
X391838342Y-233605561D02*
X391743104Y-233605561D01*
X391743104Y-233605561D02*
X391647866Y-233557942D01*
X391647866Y-233557942D02*
X391600247Y-233510323D01*
X391600247Y-233510323D02*
X391552628Y-233415085D01*
X391552628Y-233415085D02*
X391505009Y-233224609D01*
X391505009Y-233224609D02*
X391457390Y-233129371D01*
X391457390Y-233129371D02*
X391409771Y-233081752D01*
X391409771Y-233081752D02*
X391314533Y-233034133D01*
X391314533Y-233034133D02*
X391219295Y-233034133D01*
X391219295Y-233034133D02*
X391124057Y-233081752D01*
X391124057Y-233081752D02*
X391076438Y-233129371D01*
X391076438Y-233129371D02*
X391028819Y-233224609D01*
X391028819Y-233224609D02*
X391028819Y-233462704D01*
X391028819Y-233462704D02*
X391076438Y-233605561D01*
X391028819Y-233891276D02*
X391028819Y-234462704D01*
X392028819Y-234176990D02*
X391028819Y-234176990D01*
X394187866Y-232067486D02*
X394187866Y-232829391D01*
X394568819Y-232448438D02*
X393806914Y-232448438D01*
X393568819Y-233781771D02*
X393568819Y-233305581D01*
X393568819Y-233305581D02*
X394045009Y-233257962D01*
X394045009Y-233257962D02*
X393997390Y-233305581D01*
X393997390Y-233305581D02*
X393949771Y-233400819D01*
X393949771Y-233400819D02*
X393949771Y-233638914D01*
X393949771Y-233638914D02*
X393997390Y-233734152D01*
X393997390Y-233734152D02*
X394045009Y-233781771D01*
X394045009Y-233781771D02*
X394140247Y-233829390D01*
X394140247Y-233829390D02*
X394378342Y-233829390D01*
X394378342Y-233829390D02*
X394473580Y-233781771D01*
X394473580Y-233781771D02*
X394521200Y-233734152D01*
X394521200Y-233734152D02*
X394568819Y-233638914D01*
X394568819Y-233638914D02*
X394568819Y-233400819D01*
X394568819Y-233400819D02*
X394521200Y-233305581D01*
X394521200Y-233305581D02*
X394473580Y-233257962D01*
X393568819Y-234115105D02*
X394568819Y-234448438D01*
X394568819Y-234448438D02*
X393568819Y-234781771D01*
X398798038Y-232642095D02*
X398750419Y-232546857D01*
X398750419Y-232546857D02*
X398750419Y-232404000D01*
X398750419Y-232404000D02*
X398798038Y-232261143D01*
X398798038Y-232261143D02*
X398893276Y-232165905D01*
X398893276Y-232165905D02*
X398988514Y-232118286D01*
X398988514Y-232118286D02*
X399178990Y-232070667D01*
X399178990Y-232070667D02*
X399321847Y-232070667D01*
X399321847Y-232070667D02*
X399512323Y-232118286D01*
X399512323Y-232118286D02*
X399607561Y-232165905D01*
X399607561Y-232165905D02*
X399702800Y-232261143D01*
X399702800Y-232261143D02*
X399750419Y-232404000D01*
X399750419Y-232404000D02*
X399750419Y-232499238D01*
X399750419Y-232499238D02*
X399702800Y-232642095D01*
X399702800Y-232642095D02*
X399655180Y-232689714D01*
X399655180Y-232689714D02*
X399321847Y-232689714D01*
X399321847Y-232689714D02*
X399321847Y-232499238D01*
X399750419Y-233118286D02*
X398750419Y-233118286D01*
X398750419Y-233118286D02*
X399750419Y-233689714D01*
X399750419Y-233689714D02*
X398750419Y-233689714D01*
X399750419Y-234165905D02*
X398750419Y-234165905D01*
X398750419Y-234165905D02*
X398750419Y-234404000D01*
X398750419Y-234404000D02*
X398798038Y-234546857D01*
X398798038Y-234546857D02*
X398893276Y-234642095D01*
X398893276Y-234642095D02*
X398988514Y-234689714D01*
X398988514Y-234689714D02*
X399178990Y-234737333D01*
X399178990Y-234737333D02*
X399321847Y-234737333D01*
X399321847Y-234737333D02*
X399512323Y-234689714D01*
X399512323Y-234689714D02*
X399607561Y-234642095D01*
X399607561Y-234642095D02*
X399702800Y-234546857D01*
X399702800Y-234546857D02*
X399750419Y-234404000D01*
X399750419Y-234404000D02*
X399750419Y-234165905D01*
X402193357Y-232099257D02*
X401293357Y-232099257D01*
X401293357Y-232099257D02*
X401293357Y-232442114D01*
X401293357Y-232442114D02*
X401336214Y-232527829D01*
X401336214Y-232527829D02*
X401379071Y-232570686D01*
X401379071Y-232570686D02*
X401464785Y-232613543D01*
X401464785Y-232613543D02*
X401593357Y-232613543D01*
X401593357Y-232613543D02*
X401679071Y-232570686D01*
X401679071Y-232570686D02*
X401721928Y-232527829D01*
X401721928Y-232527829D02*
X401764785Y-232442114D01*
X401764785Y-232442114D02*
X401764785Y-232099257D01*
X402193357Y-233427829D02*
X402193357Y-232999257D01*
X402193357Y-232999257D02*
X401293357Y-232999257D01*
X401721928Y-233727828D02*
X401721928Y-234027828D01*
X402193357Y-234156400D02*
X402193357Y-233727828D01*
X402193357Y-233727828D02*
X401293357Y-233727828D01*
X401293357Y-233727828D02*
X401293357Y-234156400D01*
X402193357Y-234542114D02*
X401293357Y-234542114D01*
X401293357Y-234542114D02*
X401293357Y-234756400D01*
X401293357Y-234756400D02*
X401336214Y-234884971D01*
X401336214Y-234884971D02*
X401421928Y-234970686D01*
X401421928Y-234970686D02*
X401507642Y-235013543D01*
X401507642Y-235013543D02*
X401679071Y-235056400D01*
X401679071Y-235056400D02*
X401807642Y-235056400D01*
X401807642Y-235056400D02*
X401979071Y-235013543D01*
X401979071Y-235013543D02*
X402064785Y-234970686D01*
X402064785Y-234970686D02*
X402150500Y-234884971D01*
X402150500Y-234884971D02*
X402193357Y-234756400D01*
X402193357Y-234756400D02*
X402193357Y-234542114D01*
X366588095Y-238747561D02*
X366492857Y-238795180D01*
X366492857Y-238795180D02*
X366350000Y-238795180D01*
X366350000Y-238795180D02*
X366207143Y-238747561D01*
X366207143Y-238747561D02*
X366111905Y-238652323D01*
X366111905Y-238652323D02*
X366064286Y-238557085D01*
X366064286Y-238557085D02*
X366016667Y-238366609D01*
X366016667Y-238366609D02*
X366016667Y-238223752D01*
X366016667Y-238223752D02*
X366064286Y-238033276D01*
X366064286Y-238033276D02*
X366111905Y-237938038D01*
X366111905Y-237938038D02*
X366207143Y-237842800D01*
X366207143Y-237842800D02*
X366350000Y-237795180D01*
X366350000Y-237795180D02*
X366445238Y-237795180D01*
X366445238Y-237795180D02*
X366588095Y-237842800D01*
X366588095Y-237842800D02*
X366635714Y-237890419D01*
X366635714Y-237890419D02*
X366635714Y-238223752D01*
X366635714Y-238223752D02*
X366445238Y-238223752D01*
X367064286Y-237795180D02*
X367064286Y-238795180D01*
X367064286Y-238795180D02*
X367635714Y-237795180D01*
X367635714Y-237795180D02*
X367635714Y-238795180D01*
X368111905Y-237795180D02*
X368111905Y-238795180D01*
X368111905Y-238795180D02*
X368350000Y-238795180D01*
X368350000Y-238795180D02*
X368492857Y-238747561D01*
X368492857Y-238747561D02*
X368588095Y-238652323D01*
X368588095Y-238652323D02*
X368635714Y-238557085D01*
X368635714Y-238557085D02*
X368683333Y-238366609D01*
X368683333Y-238366609D02*
X368683333Y-238223752D01*
X368683333Y-238223752D02*
X368635714Y-238033276D01*
X368635714Y-238033276D02*
X368588095Y-237938038D01*
X368588095Y-237938038D02*
X368492857Y-237842800D01*
X368492857Y-237842800D02*
X368350000Y-237795180D01*
X368350000Y-237795180D02*
X368111905Y-237795180D01*
X359947619Y-238704819D02*
X360280952Y-238228628D01*
X360519047Y-238704819D02*
X360519047Y-237704819D01*
X360519047Y-237704819D02*
X360138095Y-237704819D01*
X360138095Y-237704819D02*
X360042857Y-237752438D01*
X360042857Y-237752438D02*
X359995238Y-237800057D01*
X359995238Y-237800057D02*
X359947619Y-237895295D01*
X359947619Y-237895295D02*
X359947619Y-238038152D01*
X359947619Y-238038152D02*
X359995238Y-238133390D01*
X359995238Y-238133390D02*
X360042857Y-238181009D01*
X360042857Y-238181009D02*
X360138095Y-238228628D01*
X360138095Y-238228628D02*
X360519047Y-238228628D01*
X359566666Y-238657200D02*
X359423809Y-238704819D01*
X359423809Y-238704819D02*
X359185714Y-238704819D01*
X359185714Y-238704819D02*
X359090476Y-238657200D01*
X359090476Y-238657200D02*
X359042857Y-238609580D01*
X359042857Y-238609580D02*
X358995238Y-238514342D01*
X358995238Y-238514342D02*
X358995238Y-238419104D01*
X358995238Y-238419104D02*
X359042857Y-238323866D01*
X359042857Y-238323866D02*
X359090476Y-238276247D01*
X359090476Y-238276247D02*
X359185714Y-238228628D01*
X359185714Y-238228628D02*
X359376190Y-238181009D01*
X359376190Y-238181009D02*
X359471428Y-238133390D01*
X359471428Y-238133390D02*
X359519047Y-238085771D01*
X359519047Y-238085771D02*
X359566666Y-237990533D01*
X359566666Y-237990533D02*
X359566666Y-237895295D01*
X359566666Y-237895295D02*
X359519047Y-237800057D01*
X359519047Y-237800057D02*
X359471428Y-237752438D01*
X359471428Y-237752438D02*
X359376190Y-237704819D01*
X359376190Y-237704819D02*
X359138095Y-237704819D01*
X359138095Y-237704819D02*
X358995238Y-237752438D01*
X358709523Y-237704819D02*
X358138095Y-237704819D01*
X358423809Y-238704819D02*
X358423809Y-237704819D01*
X360590475Y-236057200D02*
X360447618Y-236104819D01*
X360447618Y-236104819D02*
X360209523Y-236104819D01*
X360209523Y-236104819D02*
X360114285Y-236057200D01*
X360114285Y-236057200D02*
X360066666Y-236009580D01*
X360066666Y-236009580D02*
X360019047Y-235914342D01*
X360019047Y-235914342D02*
X360019047Y-235819104D01*
X360019047Y-235819104D02*
X360066666Y-235723866D01*
X360066666Y-235723866D02*
X360114285Y-235676247D01*
X360114285Y-235676247D02*
X360209523Y-235628628D01*
X360209523Y-235628628D02*
X360399999Y-235581009D01*
X360399999Y-235581009D02*
X360495237Y-235533390D01*
X360495237Y-235533390D02*
X360542856Y-235485771D01*
X360542856Y-235485771D02*
X360590475Y-235390533D01*
X360590475Y-235390533D02*
X360590475Y-235295295D01*
X360590475Y-235295295D02*
X360542856Y-235200057D01*
X360542856Y-235200057D02*
X360495237Y-235152438D01*
X360495237Y-235152438D02*
X360399999Y-235104819D01*
X360399999Y-235104819D02*
X360161904Y-235104819D01*
X360161904Y-235104819D02*
X360019047Y-235152438D01*
X359019047Y-236009580D02*
X359066666Y-236057200D01*
X359066666Y-236057200D02*
X359209523Y-236104819D01*
X359209523Y-236104819D02*
X359304761Y-236104819D01*
X359304761Y-236104819D02*
X359447618Y-236057200D01*
X359447618Y-236057200D02*
X359542856Y-235961961D01*
X359542856Y-235961961D02*
X359590475Y-235866723D01*
X359590475Y-235866723D02*
X359638094Y-235676247D01*
X359638094Y-235676247D02*
X359638094Y-235533390D01*
X359638094Y-235533390D02*
X359590475Y-235342914D01*
X359590475Y-235342914D02*
X359542856Y-235247676D01*
X359542856Y-235247676D02*
X359447618Y-235152438D01*
X359447618Y-235152438D02*
X359304761Y-235104819D01*
X359304761Y-235104819D02*
X359209523Y-235104819D01*
X359209523Y-235104819D02*
X359066666Y-235152438D01*
X359066666Y-235152438D02*
X359019047Y-235200057D01*
X358114285Y-236104819D02*
X358590475Y-236104819D01*
X358590475Y-236104819D02*
X358590475Y-235104819D01*
X357780951Y-236104819D02*
X357780951Y-235104819D01*
X357209523Y-236104819D02*
X357638094Y-235533390D01*
X357209523Y-235104819D02*
X357780951Y-235676247D01*
X386955180Y-232707161D02*
X387002800Y-232659542D01*
X387002800Y-232659542D02*
X387050419Y-232516685D01*
X387050419Y-232516685D02*
X387050419Y-232421447D01*
X387050419Y-232421447D02*
X387002800Y-232278590D01*
X387002800Y-232278590D02*
X386907561Y-232183352D01*
X386907561Y-232183352D02*
X386812323Y-232135733D01*
X386812323Y-232135733D02*
X386621847Y-232088114D01*
X386621847Y-232088114D02*
X386478990Y-232088114D01*
X386478990Y-232088114D02*
X386288514Y-232135733D01*
X386288514Y-232135733D02*
X386193276Y-232183352D01*
X386193276Y-232183352D02*
X386098038Y-232278590D01*
X386098038Y-232278590D02*
X386050419Y-232421447D01*
X386050419Y-232421447D02*
X386050419Y-232516685D01*
X386050419Y-232516685D02*
X386098038Y-232659542D01*
X386098038Y-232659542D02*
X386145657Y-232707161D01*
X387050419Y-233611923D02*
X387050419Y-233135733D01*
X387050419Y-233135733D02*
X386050419Y-233135733D01*
X387050419Y-233945257D02*
X386050419Y-233945257D01*
X387050419Y-234516685D02*
X386478990Y-234088114D01*
X386050419Y-234516685D02*
X386621847Y-233945257D01*
X374304819Y-233121429D02*
X373304819Y-233121429D01*
X373638152Y-233597619D02*
X374304819Y-233597619D01*
X373733390Y-233597619D02*
X373685771Y-233645238D01*
X373685771Y-233645238D02*
X373638152Y-233740476D01*
X373638152Y-233740476D02*
X373638152Y-233883333D01*
X373638152Y-233883333D02*
X373685771Y-233978571D01*
X373685771Y-233978571D02*
X373781009Y-234026190D01*
X373781009Y-234026190D02*
X374304819Y-234026190D01*
X373304819Y-234407143D02*
X373304819Y-235026190D01*
X373304819Y-235026190D02*
X373685771Y-234692857D01*
X373685771Y-234692857D02*
X373685771Y-234835714D01*
X373685771Y-234835714D02*
X373733390Y-234930952D01*
X373733390Y-234930952D02*
X373781009Y-234978571D01*
X373781009Y-234978571D02*
X373876247Y-235026190D01*
X373876247Y-235026190D02*
X374114342Y-235026190D01*
X374114342Y-235026190D02*
X374209580Y-234978571D01*
X374209580Y-234978571D02*
X374257200Y-234930952D01*
X374257200Y-234930952D02*
X374304819Y-234835714D01*
X374304819Y-234835714D02*
X374304819Y-234550000D01*
X374304819Y-234550000D02*
X374257200Y-234454762D01*
X374257200Y-234454762D02*
X374209580Y-234407143D01*
X368835713Y-233323866D02*
X368073809Y-233323866D01*
X368454761Y-233704819D02*
X368454761Y-232942914D01*
X367121428Y-232704819D02*
X367597618Y-232704819D01*
X367597618Y-232704819D02*
X367645237Y-233181009D01*
X367645237Y-233181009D02*
X367597618Y-233133390D01*
X367597618Y-233133390D02*
X367502380Y-233085771D01*
X367502380Y-233085771D02*
X367264285Y-233085771D01*
X367264285Y-233085771D02*
X367169047Y-233133390D01*
X367169047Y-233133390D02*
X367121428Y-233181009D01*
X367121428Y-233181009D02*
X367073809Y-233276247D01*
X367073809Y-233276247D02*
X367073809Y-233514342D01*
X367073809Y-233514342D02*
X367121428Y-233609580D01*
X367121428Y-233609580D02*
X367169047Y-233657200D01*
X367169047Y-233657200D02*
X367264285Y-233704819D01*
X367264285Y-233704819D02*
X367502380Y-233704819D01*
X367502380Y-233704819D02*
X367597618Y-233657200D01*
X367597618Y-233657200D02*
X367645237Y-233609580D01*
X366788094Y-232704819D02*
X366454761Y-233704819D01*
X366454761Y-233704819D02*
X366121428Y-232704819D01*
X369271427Y-236304819D02*
X369271427Y-235304819D01*
X369271427Y-235304819D02*
X368938094Y-236019104D01*
X368938094Y-236019104D02*
X368604761Y-235304819D01*
X368604761Y-235304819D02*
X368604761Y-236304819D01*
X367938094Y-235304819D02*
X367747618Y-235304819D01*
X367747618Y-235304819D02*
X367652380Y-235352438D01*
X367652380Y-235352438D02*
X367557142Y-235447676D01*
X367557142Y-235447676D02*
X367509523Y-235638152D01*
X367509523Y-235638152D02*
X367509523Y-235971485D01*
X367509523Y-235971485D02*
X367557142Y-236161961D01*
X367557142Y-236161961D02*
X367652380Y-236257200D01*
X367652380Y-236257200D02*
X367747618Y-236304819D01*
X367747618Y-236304819D02*
X367938094Y-236304819D01*
X367938094Y-236304819D02*
X368033332Y-236257200D01*
X368033332Y-236257200D02*
X368128570Y-236161961D01*
X368128570Y-236161961D02*
X368176189Y-235971485D01*
X368176189Y-235971485D02*
X368176189Y-235638152D01*
X368176189Y-235638152D02*
X368128570Y-235447676D01*
X368128570Y-235447676D02*
X368033332Y-235352438D01*
X368033332Y-235352438D02*
X367938094Y-235304819D01*
X367128570Y-236257200D02*
X366985713Y-236304819D01*
X366985713Y-236304819D02*
X366747618Y-236304819D01*
X366747618Y-236304819D02*
X366652380Y-236257200D01*
X366652380Y-236257200D02*
X366604761Y-236209580D01*
X366604761Y-236209580D02*
X366557142Y-236114342D01*
X366557142Y-236114342D02*
X366557142Y-236019104D01*
X366557142Y-236019104D02*
X366604761Y-235923866D01*
X366604761Y-235923866D02*
X366652380Y-235876247D01*
X366652380Y-235876247D02*
X366747618Y-235828628D01*
X366747618Y-235828628D02*
X366938094Y-235781009D01*
X366938094Y-235781009D02*
X367033332Y-235733390D01*
X367033332Y-235733390D02*
X367080951Y-235685771D01*
X367080951Y-235685771D02*
X367128570Y-235590533D01*
X367128570Y-235590533D02*
X367128570Y-235495295D01*
X367128570Y-235495295D02*
X367080951Y-235400057D01*
X367080951Y-235400057D02*
X367033332Y-235352438D01*
X367033332Y-235352438D02*
X366938094Y-235304819D01*
X366938094Y-235304819D02*
X366699999Y-235304819D01*
X366699999Y-235304819D02*
X366557142Y-235352438D01*
X366128570Y-236304819D02*
X366128570Y-235304819D01*
X456688094Y-243874819D02*
X456688094Y-242874819D01*
X456688094Y-242874819D02*
X456449999Y-242874819D01*
X456449999Y-242874819D02*
X456307142Y-242922438D01*
X456307142Y-242922438D02*
X456211904Y-243017676D01*
X456211904Y-243017676D02*
X456164285Y-243112914D01*
X456164285Y-243112914D02*
X456116666Y-243303390D01*
X456116666Y-243303390D02*
X456116666Y-243446247D01*
X456116666Y-243446247D02*
X456164285Y-243636723D01*
X456164285Y-243636723D02*
X456211904Y-243731961D01*
X456211904Y-243731961D02*
X456307142Y-243827200D01*
X456307142Y-243827200D02*
X456449999Y-243874819D01*
X456449999Y-243874819D02*
X456688094Y-243874819D01*
X455783332Y-242874819D02*
X455164285Y-242874819D01*
X455164285Y-242874819D02*
X455497618Y-243255771D01*
X455497618Y-243255771D02*
X455354761Y-243255771D01*
X455354761Y-243255771D02*
X455259523Y-243303390D01*
X455259523Y-243303390D02*
X455211904Y-243351009D01*
X455211904Y-243351009D02*
X455164285Y-243446247D01*
X455164285Y-243446247D02*
X455164285Y-243684342D01*
X455164285Y-243684342D02*
X455211904Y-243779580D01*
X455211904Y-243779580D02*
X455259523Y-243827200D01*
X455259523Y-243827200D02*
X455354761Y-243874819D01*
X455354761Y-243874819D02*
X455640475Y-243874819D01*
X455640475Y-243874819D02*
X455735713Y-243827200D01*
X455735713Y-243827200D02*
X455783332Y-243779580D01*
X456611894Y-251806819D02*
X456611894Y-250806819D01*
X456611894Y-250806819D02*
X456373799Y-250806819D01*
X456373799Y-250806819D02*
X456230942Y-250854438D01*
X456230942Y-250854438D02*
X456135704Y-250949676D01*
X456135704Y-250949676D02*
X456088085Y-251044914D01*
X456088085Y-251044914D02*
X456040466Y-251235390D01*
X456040466Y-251235390D02*
X456040466Y-251378247D01*
X456040466Y-251378247D02*
X456088085Y-251568723D01*
X456088085Y-251568723D02*
X456135704Y-251663961D01*
X456135704Y-251663961D02*
X456230942Y-251759200D01*
X456230942Y-251759200D02*
X456373799Y-251806819D01*
X456373799Y-251806819D02*
X456611894Y-251806819D01*
X455183323Y-251140152D02*
X455183323Y-251806819D01*
X455421418Y-250759200D02*
X455659513Y-251473485D01*
X455659513Y-251473485D02*
X455040466Y-251473485D01*
M02*
